<?xml version="1.0" encoding="utf-8"?>
<!-- Generator: Adobe Illustrator 25.4.1, SVG Export Plug-In . SVG Version: 6.00 Build 0)  -->
<svg version="1.1" id="Layer_1" xmlns="http://www.w3.org/2000/svg" xmlns:xlink="http://www.w3.org/1999/xlink" x="0px" y="0px"
	 viewBox="0 0 384 623.1" style="enable-background:new 0 0 384 623.1;" xml:space="preserve">
<style type="text/css">
	.st0{fill:#E98693;stroke:#000000;}
	.st1{fill:#1A1919;}
	.st2{font-family:'ArialMT';}
	.st3{font-size:14px;}
	.st4{fill:#F9F9F9;stroke:#000000;}
	.st5{fill:none;stroke:#DA2D4F;stroke-width:2;}
	.st6{fill:#DA2D4F;stroke:#DA2D4F;stroke-width:2;}
	.st7{fill:#3CB4A4;stroke:#000000;}
	.st8{fill:none;stroke:#3CB4A4;}
	.st9{fill:#3CB4A4;stroke:#3CB4A4;}
	.st10{fill:#3CB4A4;}
	.st11{fill:#D7EDE7;stroke:#000000;}
	.st12{font-size:8px;}
</style>
<g id="node1">
	<polygon class="st0" points="106.9,42.4 48.9,42.4 48.9,78.4 106.9,78.4 	"/>
	<text transform="matrix(1 0 0 1 57.2644 64.0945)" class="st1 st2 st3">0 Start</text>
</g>
<g id="node3">
	<polygon class="st4" points="161.9,123.4 69.9,123.4 69.9,159.4 161.9,159.4 	"/>
	<text transform="matrix(1 0 0 1 78.1335 145.0945)" class="st1 st2 st3">3912 Unbox</text>
</g>
<g id="edge8">
	<path class="st5" d="M86.2,78.5c5,10.3,11.4,23.8,17,35.4"/>
	<polygon class="st6" points="106.4,112.8 107.7,123.3 100.2,115.8 	"/>
</g>
<g id="node2">
	<polygon class="st0" points="252.9,552.4 158.9,552.4 158.9,588.4 252.9,588.4 	"/>
	<text transform="matrix(1 0 0 1 167.3577 574.0945)" class="st1 st2 st3">3832 Return</text>
</g>
<g id="node4">
	<polygon class="st4" points="232.9,204.4 140.9,204.4 140.9,240.4 232.9,240.4 	"/>
	<text transform="matrix(1 0 0 1 149.1335 226.0945)" class="st1 st2 st3">3937 Unbox</text>
</g>
<g id="edge2">
	<path class="st5" d="M131.2,159.5c9.8,10.9,22.6,25.1,33.4,37.2"/>
	<polygon class="st6" points="167.4,194.5 171.6,204.3 162.2,199.2 	"/>
</g>
<g id="node6">
	<polygon class="st7" points="138.9,291.4 83.6,309.4 138.9,327.4 194.2,309.4 	"/>
	<text transform="matrix(1 0 0 1 117.28 313.0945)" class="st1 st2 st3">3982 +</text>
</g>
<g id="edge12">
	<path class="st8" d="M116.9,159.5c1.3,19.6,3.8,52.7,8,80.9c2.1,14.1,5.2,29.6,8,42.3"/>
	<polygon class="st9" points="136.4,282 135.1,292.5 129.4,283.6 	"/>
	<text transform="matrix(1 0 0 1 124.885 226.0945)" class="st10 st2 st3">x</text>
</g>
<g id="node5">
	<polygon class="st4" points="303.9,291.4 211.9,291.4 211.9,327.4 303.9,327.4 	"/>
	<text transform="matrix(1 0 0 1 220.1335 313.0945)" class="st1 st2 st3">3962 Unbox</text>
</g>
<g id="edge3">
	<path class="st5" d="M201.2,240.6c10.3,12.3,24.3,29.1,35.8,42.9"/>
	<polygon class="st6" points="239.9,281.3 243.6,291.2 234.5,285.8 	"/>
</g>
<g id="edge14">
	<path class="st8" d="M177.2,240.6c-7.2,12.7-17,30.1-24.9,44.1"/>
	<polygon class="st9" points="155.2,286.8 147.2,293.8 149.1,283.3 	"/>
	<text transform="matrix(1 0 0 1 164.885 269.5945)" class="st10 st2 st3">y</text>
</g>
<g id="node7">
	<polygon class="st7" points="153.9,378.4 98.6,396.4 153.9,414.4 209.2,396.4 	"/>
	<text transform="matrix(1 0 0 1 132.28 400.0945)" class="st1 st2 st3">3983 +</text>
</g>
<g id="edge13">
	<path class="st8" d="M243.7,327.7c-8.8,10.2-20.8,22.9-32.8,32.7c-8.6,7-18.7,13.6-27.9,19.2"/>
	<polygon class="st9" points="184.5,382.8 174.1,384.8 180.9,376.7 	"/>
	<text transform="matrix(1 0 0 1 225.885 356.5945)" class="st10 st2 st3">x</text>
</g>
<g id="node8">
	<polygon class="st4" points="306.9,465.4 104.9,465.4 104.9,501.4 306.9,501.4 	"/>
	<text transform="matrix(1 0 0 1 113.2649 487.0945)" class="st1 st2 st3">3993 BoxNode$AllocatingBox</text>
</g>
<g id="edge4">
	<path class="st5" d="M259.9,327.5c2.3,27,3.7,80.6-16,119.9c-1.9,3.8-4.4,7.4-7.2,10.7"/>
	<polygon class="st6" points="239.2,460.6 229.8,465.4 234.2,455.7 	"/>
</g>
<g id="edge5">
	<path class="st8" d="M141.8,326.8c2.1,12,5,28.5,7.5,42.3"/>
	<polygon class="st9" points="152.8,368.6 151.1,379.1 145.9,369.8 	"/>
	<text transform="matrix(1 0 0 1 147.2576 356.5945)" class="st10 st2 st3">y [0 - 510]</text>
</g>
<g id="edge6">
	<path class="st8" d="M150.6,413.7c-1.2,10.3-1.2,23.5,4.3,33.7c2.2,4.1,5.1,7.8,8.5,11.1"/>
	<polygon class="st9" points="165.9,456.1 171.2,465.3 161.4,461.4 	"/>
	<text transform="matrix(1 0 0 1 155.0232 443.5945)" class="st10 st2 st3">value [0 - 765]</text>
</g>
<g id="edge1">
	<path class="st8" d="M190.6,501.5c-6.6,9.4-12.1,21.5-8.6,32.9c1,3.2,2.4,6.3,4,9.3"/>
	<polygon class="st9" points="188.9,542 191.2,552.3 183,545.7 	"/>
	<text transform="matrix(1 0 0 1 182.2678 530.5945)" class="st10 st2 st3">result</text>
</g>
<g id="edge7">
	<path class="st5" d="M212.9,501.4c3.1,9.6,5.8,21.9,4.1,33c-0.4,2.7-1,5.4-1.7,8.2"/>
	<polygon class="st6" points="218.6,543.6 212.5,552.2 211.9,541.6 	"/>
</g>
<g id="node9">
	<ellipse class="st11" cx="153.9" cy="60.4" rx="28.9" ry="18"/>
	<text transform="matrix(1 0 0 1 136.6155 62.2945)" class="st1 st2 st12">4001 T(7)</text>
</g>
<g id="edge9">
	<path class="st8" d="M146.1,77.8c-6.4,13.3-15.4,32-21.9,45.5"/>
	<text transform="matrix(1 0 0 1 136.3225 102.7945)" class="st10 st2 st12">value</text>
</g>
<g id="node10">
	<ellipse class="st11" cx="208.9" cy="141.4" rx="28.9" ry="18"/>
	<text transform="matrix(1 0 0 1 191.6155 143.2945)" class="st1 st2 st12">4002 T(8)</text>
</g>
<g id="edge10">
	<path class="st8" d="M204.2,159.5c-3.7,13.3-8.8,31.5-12.5,44.8"/>
	<text transform="matrix(1 0 0 1 198.3225 183.7945)" class="st10 st2 st12">value</text>
</g>
<g id="node11">
	<ellipse class="st11" cx="279.9" cy="222.4" rx="28.9" ry="18"/>
	<text transform="matrix(1 0 0 1 262.6155 224.2945)" class="st1 st2 st12">4003 T(9)</text>
</g>
<g id="edge11">
	<path class="st8" d="M275.5,240.6c-3.8,14.8-9.3,35.9-13.1,50.6"/>
	<text transform="matrix(1 0 0 1 270.3225 267.7945)" class="st10 st2 st12">value</text>
</g>
</svg>
