<?xml version="1.0" encoding="utf-8"?>
<!-- Generator: Adobe Illustrator 25.4.1, SVG Export Plug-In . SVG Version: 6.00 Build 0)  -->
<svg version="1.1" id="Layer_1" xmlns="http://www.w3.org/2000/svg" xmlns:xlink="http://www.w3.org/1999/xlink" x="0px" y="0px"
	 viewBox="0 0 240.94 155.91" style="enable-background:new 0 0 240.94 155.91;" xml:space="preserve">
<style type="text/css">
	.st0{fill:none;stroke:#E2E0E1;stroke-width:0.75;stroke-linejoin:round;stroke-miterlimit:10;}
	.st1{fill:#4C6EB4;}
	.st2{fill:none;stroke:#5F5C5A;stroke-width:0.75;stroke-linejoin:round;stroke-miterlimit:10;}
	.st3{fill:#5F5C5A;}
</style>
<path class="st0" d="M49.13,117.87h179.72 M49.13,95.93h179.72 M49.13,73.99h179.72 M49.13,52.06h179.72 M49.13,30.12h179.72
	 M49.13,8.18h179.72"/>
<path class="st1" d="M69.7,81.52h18.75v58.32H69.7V81.52z M129.58,32.68h18.83v107.16h-18.83V32.68z M189.47,38.16h18.83v101.68
	h-18.83V38.16z"/>
<path class="st2" d="M79.07,81.55v3.92 M79.07,81.55v-4.01 M78.33,85.48h1.56 M78.33,77.55h1.56 M138.96,32.64v7.33 M138.96,32.64
	v-7.27 M138.21,39.97h1.56 M138.21,25.37h1.56 M198.92,38.2v6.89 M198.92,38.2v-6.97 M198.09,45.09h1.56 M198.09,31.23h1.56"/>
<line class="st0" x1="49.13" y1="139.8" x2="228.85" y2="139.8"/>
<path class="st3" d="M42.06,141.1c0.21,0.27,0.51,0.4,0.88,0.4c0.28,0,0.52-0.08,0.7-0.23c0.19-0.15,0.33-0.37,0.42-0.65
	c0.09-0.28,0.14-0.65,0.14-1.1c0-0.38-0.03-0.69-0.09-0.92c-0.06-0.23-0.14-0.42-0.24-0.58c-0.1-0.16-0.23-0.28-0.39-0.36
	c-0.16-0.08-0.34-0.13-0.55-0.13c-0.28,0-0.52,0.08-0.7,0.23c-0.19,0.15-0.33,0.37-0.42,0.65c-0.09,0.28-0.14,0.65-0.14,1.11
	C41.68,140.25,41.81,140.78,42.06,141.1L42.06,141.1L42.06,141.1z M42.41,138.22c0.13-0.18,0.3-0.28,0.52-0.28
	c0.22,0,0.41,0.1,0.56,0.31c0.15,0.21,0.22,0.63,0.22,1.27c0,0.63-0.07,1.06-0.22,1.27c-0.15,0.21-0.33,0.32-0.55,0.32
	c-0.22,0-0.4-0.11-0.55-0.32c-0.15-0.21-0.22-0.63-0.22-1.27C42.17,138.89,42.25,138.45,42.41,138.22L42.41,138.22L42.41,138.22z"/>
<path class="st3" d="M29.97,119.27c0.22,0.2,0.51,0.3,0.86,0.3c0.43,0,0.77-0.16,1.02-0.47c0.2-0.26,0.31-0.56,0.31-0.91
	c0-0.37-0.12-0.67-0.35-0.9c-0.23-0.23-0.52-0.35-0.86-0.35c-0.26,0-0.5,0.08-0.73,0.24l0.21-1.04h1.55v-0.45h-1.93l-0.38,1.99
	l0.45,0.06c0.07-0.11,0.17-0.2,0.29-0.27c0.12-0.07,0.26-0.1,0.41-0.1c0.25,0,0.45,0.08,0.6,0.24c0.15,0.16,0.23,0.37,0.23,0.64
	c0,0.29-0.08,0.51-0.24,0.69c-0.16,0.17-0.35,0.26-0.58,0.26c-0.19,0-0.35-0.06-0.49-0.18c-0.13-0.12-0.22-0.31-0.26-0.55l-0.5,0.04
	C29.62,118.81,29.74,119.07,29.97,119.27L29.97,119.27z M33,119.16c0.21,0.27,0.51,0.4,0.88,0.4c0.28,0,0.52-0.08,0.7-0.23
	c0.19-0.15,0.33-0.37,0.42-0.65c0.09-0.28,0.14-0.65,0.14-1.1c0-0.38-0.03-0.69-0.09-0.92c-0.06-0.23-0.14-0.42-0.24-0.58
	c-0.1-0.16-0.23-0.28-0.39-0.36c-0.16-0.08-0.34-0.13-0.55-0.13c-0.28,0-0.52,0.08-0.7,0.23c-0.19,0.15-0.33,0.37-0.42,0.65
	c-0.09,0.28-0.14,0.65-0.14,1.11C32.62,118.31,32.75,118.84,33,119.16L33,119.16L33,119.16z M33.36,116.28
	c0.13-0.18,0.3-0.28,0.52-0.28c0.22,0,0.41,0.1,0.56,0.31c0.15,0.21,0.22,0.63,0.22,1.27c0,0.63-0.07,1.06-0.22,1.27
	c-0.15,0.21-0.33,0.32-0.55,0.32c-0.22,0-0.4-0.11-0.55-0.32c-0.15-0.21-0.22-0.63-0.22-1.27
	C33.11,116.95,33.19,116.51,33.36,116.28L33.36,116.28L33.36,116.28z M36.04,119.16c0.21,0.27,0.51,0.4,0.88,0.4
	c0.28,0,0.52-0.08,0.7-0.23c0.19-0.15,0.33-0.37,0.42-0.65c0.09-0.28,0.14-0.65,0.14-1.1c0-0.38-0.03-0.69-0.09-0.92
	c-0.06-0.23-0.14-0.42-0.24-0.58c-0.1-0.16-0.23-0.28-0.39-0.36c-0.16-0.08-0.34-0.13-0.55-0.13c-0.28,0-0.52,0.08-0.7,0.23
	c-0.19,0.15-0.33,0.37-0.42,0.65c-0.09,0.28-0.14,0.65-0.14,1.11C35.66,118.31,35.78,118.84,36.04,119.16L36.04,119.16L36.04,119.16
	z M36.39,116.28c0.13-0.18,0.3-0.28,0.52-0.28c0.22,0,0.41,0.1,0.56,0.31c0.15,0.21,0.22,0.63,0.22,1.27c0,0.63-0.07,1.06-0.22,1.27
	c-0.15,0.21-0.33,0.32-0.55,0.32c-0.22,0-0.4-0.11-0.55-0.32c-0.15-0.21-0.22-0.63-0.22-1.27
	C36.15,116.95,36.23,116.51,36.39,116.28L36.39,116.28L36.39,116.28z"/>
<path class="st3" d="M39.01,119.16c0.21,0.27,0.51,0.4,0.88,0.4c0.28,0,0.52-0.08,0.7-0.23c0.19-0.15,0.33-0.37,0.42-0.65
	c0.09-0.28,0.14-0.65,0.14-1.1c0-0.38-0.03-0.69-0.09-0.92c-0.06-0.23-0.14-0.42-0.24-0.58c-0.1-0.16-0.23-0.28-0.39-0.36
	c-0.16-0.08-0.34-0.13-0.55-0.13c-0.28,0-0.52,0.08-0.7,0.23c-0.19,0.15-0.33,0.37-0.42,0.65c-0.09,0.28-0.14,0.65-0.14,1.11
	C38.62,118.31,38.75,118.84,39.01,119.16L39.01,119.16L39.01,119.16z M39.36,116.28c0.13-0.18,0.3-0.28,0.52-0.28
	c0.22,0,0.41,0.1,0.56,0.31c0.15,0.21,0.22,0.63,0.22,1.27c0,0.63-0.07,1.06-0.22,1.27c-0.15,0.21-0.33,0.32-0.55,0.32
	c-0.22,0-0.4-0.11-0.55-0.32c-0.15-0.21-0.22-0.63-0.22-1.27C39.11,116.95,39.19,116.51,39.36,116.28L39.36,116.28L39.36,116.28z
	 M42.04,119.16c0.21,0.27,0.51,0.4,0.88,0.4c0.28,0,0.52-0.08,0.7-0.23c0.19-0.15,0.33-0.37,0.42-0.65c0.09-0.28,0.14-0.65,0.14-1.1
	c0-0.38-0.03-0.69-0.09-0.92c-0.06-0.23-0.14-0.42-0.24-0.58c-0.1-0.16-0.23-0.28-0.39-0.36c-0.16-0.08-0.34-0.13-0.55-0.13
	c-0.28,0-0.52,0.08-0.7,0.23c-0.19,0.15-0.33,0.37-0.42,0.65c-0.09,0.28-0.14,0.65-0.14,1.11
	C41.66,118.31,41.79,118.84,42.04,119.16L42.04,119.16L42.04,119.16z M42.39,116.28c0.13-0.18,0.3-0.28,0.52-0.28
	c0.22,0,0.41,0.1,0.56,0.31c0.15,0.21,0.22,0.63,0.22,1.27c0,0.63-0.07,1.06-0.22,1.27c-0.15,0.21-0.33,0.32-0.55,0.32
	c-0.22,0-0.4-0.11-0.55-0.32c-0.15-0.21-0.22-0.63-0.22-1.27C42.15,116.95,42.23,116.51,42.39,116.28L42.39,116.28L42.39,116.28z"/>
<path class="st3" d="M28.35,93.67h-0.31c-0.08,0.17-0.22,0.34-0.42,0.52c-0.2,0.18-0.43,0.33-0.7,0.45v0.46
	c0.15-0.05,0.31-0.14,0.5-0.25c0.19-0.11,0.34-0.22,0.45-0.33v3.03h0.48V93.67L28.35,93.67z M29.98,97.22
	c0.21,0.27,0.51,0.4,0.88,0.4c0.28,0,0.52-0.08,0.7-0.23c0.19-0.15,0.33-0.37,0.42-0.65c0.09-0.28,0.14-0.65,0.14-1.1
	c0-0.38-0.03-0.69-0.09-0.92c-0.06-0.23-0.14-0.42-0.24-0.58c-0.1-0.16-0.23-0.28-0.39-0.36c-0.16-0.08-0.34-0.13-0.55-0.13
	c-0.28,0-0.52,0.08-0.7,0.23c-0.19,0.15-0.33,0.37-0.42,0.65c-0.09,0.28-0.14,0.65-0.14,1.11C29.6,96.38,29.73,96.9,29.98,97.22
	L29.98,97.22L29.98,97.22z M30.33,94.34c0.13-0.18,0.3-0.28,0.52-0.28c0.22,0,0.41,0.1,0.56,0.31c0.15,0.21,0.22,0.63,0.22,1.27
	c0,0.63-0.07,1.06-0.22,1.27c-0.15,0.21-0.33,0.32-0.55,0.32c-0.22,0-0.4-0.11-0.55-0.32c-0.15-0.21-0.22-0.63-0.22-1.27
	C30.09,95.01,30.17,94.58,30.33,94.34L30.33,94.34L30.33,94.34z M33.02,97.22c0.21,0.27,0.51,0.4,0.88,0.4
	c0.28,0,0.52-0.08,0.7-0.23c0.19-0.15,0.33-0.37,0.42-0.65c0.09-0.28,0.14-0.65,0.14-1.1c0-0.38-0.03-0.69-0.09-0.92
	c-0.06-0.23-0.14-0.42-0.24-0.58c-0.1-0.16-0.23-0.28-0.39-0.36c-0.16-0.08-0.34-0.13-0.55-0.13c-0.28,0-0.52,0.08-0.7,0.23
	c-0.19,0.15-0.33,0.37-0.42,0.65c-0.09,0.28-0.14,0.65-0.14,1.11C32.63,96.38,32.76,96.9,33.02,97.22L33.02,97.22L33.02,97.22z
	 M33.37,94.34c0.13-0.18,0.3-0.28,0.52-0.28c0.22,0,0.41,0.1,0.56,0.31c0.15,0.21,0.22,0.63,0.22,1.27c0,0.63-0.07,1.06-0.22,1.27
	c-0.15,0.21-0.33,0.32-0.55,0.32c-0.22,0-0.4-0.11-0.55-0.32c-0.15-0.21-0.22-0.63-0.22-1.27C33.12,95.01,33.2,94.58,33.37,94.34
	L33.37,94.34L33.37,94.34z"/>
<path class="st3" d="M35.98,97.22c0.21,0.27,0.51,0.4,0.88,0.4c0.28,0,0.52-0.08,0.7-0.23c0.19-0.15,0.33-0.37,0.42-0.65
	c0.09-0.28,0.14-0.65,0.14-1.1c0-0.38-0.03-0.69-0.09-0.92c-0.06-0.23-0.14-0.42-0.24-0.58c-0.1-0.16-0.23-0.28-0.39-0.36
	c-0.16-0.08-0.34-0.13-0.55-0.13c-0.28,0-0.52,0.08-0.7,0.23c-0.19,0.15-0.33,0.37-0.42,0.65c-0.09,0.28-0.14,0.65-0.14,1.11
	C35.6,96.38,35.73,96.9,35.98,97.22L35.98,97.22L35.98,97.22z M36.34,94.34c0.13-0.18,0.3-0.28,0.52-0.28c0.22,0,0.41,0.1,0.56,0.31
	c0.15,0.21,0.22,0.63,0.22,1.27c0,0.63-0.07,1.06-0.22,1.27c-0.15,0.21-0.33,0.32-0.55,0.32c-0.22,0-0.4-0.11-0.55-0.32
	c-0.15-0.21-0.22-0.63-0.22-1.27C36.09,95.01,36.17,94.58,36.34,94.34L36.34,94.34L36.34,94.34z M39.02,97.22
	c0.21,0.27,0.51,0.4,0.88,0.4c0.28,0,0.52-0.08,0.7-0.23c0.19-0.15,0.33-0.37,0.42-0.65c0.09-0.28,0.14-0.65,0.14-1.1
	c0-0.38-0.03-0.69-0.09-0.92c-0.06-0.23-0.14-0.42-0.24-0.58c-0.1-0.16-0.23-0.28-0.39-0.36c-0.16-0.08-0.34-0.13-0.55-0.13
	c-0.28,0-0.52,0.08-0.7,0.23c-0.19,0.15-0.33,0.37-0.42,0.65c-0.09,0.28-0.14,0.65-0.14,1.11C38.64,96.38,38.76,96.9,39.02,97.22
	L39.02,97.22L39.02,97.22z M39.37,94.34c0.13-0.18,0.3-0.28,0.52-0.28c0.22,0,0.41,0.1,0.56,0.31c0.15,0.21,0.22,0.63,0.22,1.27
	c0,0.63-0.07,1.06-0.22,1.27c-0.15,0.21-0.33,0.32-0.55,0.32c-0.22,0-0.4-0.11-0.55-0.32c-0.15-0.21-0.22-0.63-0.22-1.27
	C39.13,95.01,39.21,94.58,39.37,94.34L39.37,94.34L39.37,94.34z M42.06,97.22c0.21,0.27,0.51,0.4,0.88,0.4
	c0.28,0,0.52-0.08,0.7-0.23c0.19-0.15,0.33-0.37,0.42-0.65c0.09-0.28,0.14-0.65,0.14-1.1c0-0.38-0.03-0.69-0.09-0.92
	c-0.06-0.23-0.14-0.42-0.24-0.58c-0.1-0.16-0.23-0.28-0.39-0.36c-0.16-0.08-0.34-0.13-0.55-0.13c-0.28,0-0.52,0.08-0.7,0.23
	c-0.19,0.15-0.33,0.37-0.42,0.65c-0.09,0.28-0.14,0.65-0.14,1.11C41.67,96.38,41.8,96.9,42.06,97.22L42.06,97.22L42.06,97.22z
	 M42.41,94.34c0.13-0.18,0.3-0.28,0.52-0.28c0.22,0,0.41,0.1,0.56,0.31c0.15,0.21,0.22,0.63,0.22,1.27c0,0.63-0.07,1.06-0.22,1.27
	c-0.15,0.21-0.33,0.32-0.55,0.32c-0.22,0-0.4-0.11-0.55-0.32c-0.15-0.21-0.22-0.63-0.22-1.27C42.16,95.01,42.24,94.58,42.41,94.34
	L42.41,94.34L42.41,94.34z"/>
<path class="st3" d="M28.35,71.73h-0.31c-0.08,0.17-0.22,0.34-0.42,0.52c-0.2,0.18-0.43,0.33-0.7,0.45v0.46
	c0.15-0.05,0.31-0.14,0.5-0.25c0.19-0.11,0.34-0.22,0.45-0.33v3.03h0.48V71.73L28.35,71.73z M29.98,75.39
	c0.22,0.2,0.51,0.3,0.86,0.3c0.43,0,0.77-0.16,1.02-0.47c0.2-0.26,0.31-0.56,0.31-0.91c0-0.37-0.12-0.67-0.35-0.9
	c-0.23-0.23-0.52-0.35-0.86-0.35c-0.26,0-0.5,0.08-0.73,0.24l0.21-1.04h1.55V71.8h-1.93l-0.38,1.99l0.45,0.06
	c0.07-0.11,0.17-0.2,0.29-0.27c0.12-0.07,0.26-0.1,0.41-0.1c0.25,0,0.45,0.08,0.6,0.24c0.15,0.16,0.23,0.37,0.23,0.64
	c0,0.29-0.08,0.51-0.24,0.69c-0.16,0.17-0.35,0.26-0.58,0.26c-0.19,0-0.35-0.06-0.49-0.18c-0.13-0.12-0.22-0.31-0.26-0.55l-0.5,0.04
	C29.63,74.93,29.76,75.19,29.98,75.39L29.98,75.39z M33.02,75.28c0.21,0.27,0.51,0.4,0.88,0.4c0.28,0,0.52-0.08,0.7-0.23
	c0.19-0.15,0.33-0.37,0.42-0.65c0.09-0.28,0.14-0.65,0.14-1.1c0-0.38-0.03-0.69-0.09-0.92c-0.06-0.23-0.14-0.42-0.24-0.58
	c-0.1-0.16-0.23-0.28-0.39-0.36c-0.16-0.08-0.34-0.13-0.55-0.13c-0.28,0-0.52,0.08-0.7,0.23c-0.19,0.15-0.33,0.37-0.42,0.65
	c-0.09,0.28-0.14,0.65-0.14,1.11C32.63,74.44,32.76,74.96,33.02,75.28L33.02,75.28L33.02,75.28z M33.37,72.4
	c0.13-0.18,0.3-0.28,0.52-0.28c0.22,0,0.41,0.1,0.56,0.31c0.15,0.21,0.22,0.63,0.22,1.27c0,0.63-0.07,1.06-0.22,1.27
	c-0.15,0.21-0.33,0.32-0.55,0.32c-0.22,0-0.4-0.11-0.55-0.32c-0.15-0.21-0.22-0.63-0.22-1.27C33.12,73.07,33.2,72.64,33.37,72.4
	L33.37,72.4L33.37,72.4z"/>
<path class="st3" d="M35.98,75.28c0.21,0.27,0.51,0.4,0.88,0.4c0.28,0,0.52-0.08,0.7-0.23c0.19-0.15,0.33-0.37,0.42-0.65
	c0.09-0.28,0.14-0.65,0.14-1.1c0-0.38-0.03-0.69-0.09-0.92c-0.06-0.23-0.14-0.42-0.24-0.58c-0.1-0.16-0.23-0.28-0.39-0.36
	c-0.16-0.08-0.34-0.13-0.55-0.13c-0.28,0-0.52,0.08-0.7,0.23c-0.19,0.15-0.33,0.37-0.42,0.65c-0.09,0.28-0.14,0.65-0.14,1.11
	C35.6,74.44,35.73,74.96,35.98,75.28L35.98,75.28L35.98,75.28z M36.34,72.4c0.13-0.18,0.3-0.28,0.52-0.28c0.22,0,0.41,0.1,0.56,0.31
	c0.15,0.21,0.22,0.63,0.22,1.27c0,0.63-0.07,1.06-0.22,1.27c-0.15,0.21-0.33,0.32-0.55,0.32c-0.22,0-0.4-0.11-0.55-0.32
	c-0.15-0.21-0.22-0.63-0.22-1.27C36.09,73.07,36.17,72.64,36.34,72.4L36.34,72.4L36.34,72.4z M39.02,75.28
	c0.21,0.27,0.51,0.4,0.88,0.4c0.28,0,0.52-0.08,0.7-0.23c0.19-0.15,0.33-0.37,0.42-0.65c0.09-0.28,0.14-0.65,0.14-1.1
	c0-0.38-0.03-0.69-0.09-0.92c-0.06-0.23-0.14-0.42-0.24-0.58c-0.1-0.16-0.23-0.28-0.39-0.36c-0.16-0.08-0.34-0.13-0.55-0.13
	c-0.28,0-0.52,0.08-0.7,0.23c-0.19,0.15-0.33,0.37-0.42,0.65c-0.09,0.28-0.14,0.65-0.14,1.11C38.64,74.44,38.76,74.96,39.02,75.28
	L39.02,75.28L39.02,75.28z M39.37,72.4c0.13-0.18,0.3-0.28,0.52-0.28c0.22,0,0.41,0.1,0.56,0.31c0.15,0.21,0.22,0.63,0.22,1.27
	c0,0.63-0.07,1.06-0.22,1.27c-0.15,0.21-0.33,0.32-0.55,0.32c-0.22,0-0.4-0.11-0.55-0.32c-0.15-0.21-0.22-0.63-0.22-1.27
	C39.13,73.07,39.21,72.64,39.37,72.4L39.37,72.4L39.37,72.4z M42.06,75.28c0.21,0.27,0.51,0.4,0.88,0.4c0.28,0,0.52-0.08,0.7-0.23
	c0.19-0.15,0.33-0.37,0.42-0.65c0.09-0.28,0.14-0.65,0.14-1.1c0-0.38-0.03-0.69-0.09-0.92c-0.06-0.23-0.14-0.42-0.24-0.58
	c-0.1-0.16-0.23-0.28-0.39-0.36c-0.16-0.08-0.34-0.13-0.55-0.13c-0.28,0-0.52,0.08-0.7,0.23c-0.19,0.15-0.33,0.37-0.42,0.65
	c-0.09,0.28-0.14,0.65-0.14,1.11C41.67,74.44,41.8,74.96,42.06,75.28L42.06,75.28L42.06,75.28z M42.41,72.4
	c0.13-0.18,0.3-0.28,0.52-0.28c0.22,0,0.41,0.1,0.56,0.31c0.15,0.21,0.22,0.63,0.22,1.27c0,0.63-0.07,1.06-0.22,1.27
	c-0.15,0.21-0.33,0.32-0.55,0.32c-0.22,0-0.4-0.11-0.55-0.32c-0.15-0.21-0.22-0.63-0.22-1.27C42.16,73.07,42.24,72.64,42.41,72.4
	L42.41,72.4L42.41,72.4z"/>
<path class="st3" d="M27.16,53.23c0.05-0.09,0.12-0.17,0.2-0.26c0.08-0.09,0.26-0.25,0.55-0.49c0.34-0.29,0.59-0.52,0.73-0.68
	c0.15-0.17,0.25-0.32,0.32-0.47c0.06-0.15,0.1-0.3,0.1-0.46c0-0.3-0.11-0.56-0.32-0.77c-0.22-0.21-0.51-0.31-0.88-0.31
	c-0.37,0-0.66,0.1-0.88,0.29c-0.22,0.19-0.34,0.47-0.38,0.83l0.49,0.05c0-0.24,0.07-0.43,0.21-0.57c0.14-0.14,0.32-0.21,0.55-0.21
	c0.22,0,0.39,0.06,0.53,0.19c0.13,0.13,0.2,0.29,0.2,0.48c0,0.18-0.07,0.37-0.22,0.57c-0.15,0.2-0.43,0.48-0.85,0.82
	c-0.27,0.22-0.48,0.42-0.62,0.59c-0.14,0.17-0.25,0.34-0.31,0.52c-0.04,0.11-0.06,0.22-0.06,0.33h2.56v-0.46H27.16L27.16,53.23z
	 M29.98,53.35c0.21,0.27,0.51,0.4,0.88,0.4c0.28,0,0.52-0.08,0.7-0.23c0.19-0.15,0.33-0.37,0.42-0.65c0.09-0.28,0.14-0.65,0.14-1.1
	c0-0.38-0.03-0.69-0.09-0.92c-0.06-0.23-0.14-0.42-0.24-0.58c-0.1-0.16-0.23-0.28-0.39-0.36c-0.16-0.08-0.34-0.13-0.55-0.13
	c-0.28,0-0.52,0.08-0.7,0.23c-0.19,0.15-0.33,0.37-0.42,0.65c-0.09,0.28-0.14,0.65-0.14,1.11C29.6,52.5,29.73,53.03,29.98,53.35
	L29.98,53.35L29.98,53.35z M30.33,50.47c0.13-0.18,0.3-0.28,0.52-0.28c0.22,0,0.41,0.1,0.56,0.31c0.15,0.21,0.22,0.63,0.22,1.27
	c0,0.63-0.07,1.06-0.22,1.27c-0.15,0.21-0.33,0.32-0.55,0.32c-0.22,0-0.4-0.11-0.55-0.32c-0.15-0.21-0.22-0.63-0.22-1.27
	C30.09,51.14,30.17,50.7,30.33,50.47L30.33,50.47L30.33,50.47z M33.02,53.35c0.21,0.27,0.51,0.4,0.88,0.4c0.28,0,0.52-0.08,0.7-0.23
	c0.19-0.15,0.33-0.37,0.42-0.65c0.09-0.28,0.14-0.65,0.14-1.1c0-0.38-0.03-0.69-0.09-0.92c-0.06-0.23-0.14-0.42-0.24-0.58
	c-0.1-0.16-0.23-0.28-0.39-0.36c-0.16-0.08-0.34-0.13-0.55-0.13c-0.28,0-0.52,0.08-0.7,0.23c-0.19,0.15-0.33,0.37-0.42,0.65
	c-0.09,0.28-0.14,0.65-0.14,1.11C32.63,52.5,32.76,53.03,33.02,53.35L33.02,53.35L33.02,53.35z M33.37,50.47
	c0.13-0.18,0.3-0.28,0.52-0.28c0.22,0,0.41,0.1,0.56,0.31c0.15,0.21,0.22,0.63,0.22,1.27c0,0.63-0.07,1.06-0.22,1.27
	c-0.15,0.21-0.33,0.32-0.55,0.32c-0.22,0-0.4-0.11-0.55-0.32c-0.15-0.21-0.22-0.63-0.22-1.27C33.12,51.14,33.2,50.7,33.37,50.47
	L33.37,50.47L33.37,50.47z"/>
<path class="st3" d="M35.98,53.35c0.21,0.27,0.51,0.4,0.88,0.4c0.28,0,0.52-0.08,0.7-0.23c0.19-0.15,0.33-0.37,0.42-0.65
	c0.09-0.28,0.14-0.65,0.14-1.1c0-0.38-0.03-0.69-0.09-0.92c-0.06-0.23-0.14-0.42-0.24-0.58c-0.1-0.16-0.23-0.28-0.39-0.36
	c-0.16-0.08-0.34-0.13-0.55-0.13c-0.28,0-0.52,0.08-0.7,0.23c-0.19,0.15-0.33,0.37-0.42,0.65c-0.09,0.28-0.14,0.65-0.14,1.11
	C35.6,52.5,35.73,53.03,35.98,53.35L35.98,53.35L35.98,53.35z M36.34,50.47c0.13-0.18,0.3-0.28,0.52-0.28c0.22,0,0.41,0.1,0.56,0.31
	c0.15,0.21,0.22,0.63,0.22,1.27c0,0.63-0.07,1.06-0.22,1.27c-0.15,0.21-0.33,0.32-0.55,0.32c-0.22,0-0.4-0.11-0.55-0.32
	c-0.15-0.21-0.22-0.63-0.22-1.27C36.09,51.14,36.17,50.7,36.34,50.47L36.34,50.47L36.34,50.47z M39.02,53.35
	c0.21,0.27,0.51,0.4,0.88,0.4c0.28,0,0.52-0.08,0.7-0.23c0.19-0.15,0.33-0.37,0.42-0.65c0.09-0.28,0.14-0.65,0.14-1.1
	c0-0.38-0.03-0.69-0.09-0.92c-0.06-0.23-0.14-0.42-0.24-0.58c-0.1-0.16-0.23-0.28-0.39-0.36c-0.16-0.08-0.34-0.13-0.55-0.13
	c-0.28,0-0.52,0.08-0.7,0.23c-0.19,0.15-0.33,0.37-0.42,0.65c-0.09,0.28-0.14,0.65-0.14,1.11C38.64,52.5,38.76,53.03,39.02,53.35
	L39.02,53.35L39.02,53.35z M39.37,50.47c0.13-0.18,0.3-0.28,0.52-0.28c0.22,0,0.41,0.1,0.56,0.31c0.15,0.21,0.22,0.63,0.22,1.27
	c0,0.63-0.07,1.06-0.22,1.27c-0.15,0.21-0.33,0.32-0.55,0.32c-0.22,0-0.4-0.11-0.55-0.32c-0.15-0.21-0.22-0.63-0.22-1.27
	C39.13,51.14,39.21,50.7,39.37,50.47L39.37,50.47L39.37,50.47z M42.06,53.35c0.21,0.27,0.51,0.4,0.88,0.4c0.28,0,0.52-0.08,0.7-0.23
	c0.19-0.15,0.33-0.37,0.42-0.65c0.09-0.28,0.14-0.65,0.14-1.1c0-0.38-0.03-0.69-0.09-0.92c-0.06-0.23-0.14-0.42-0.24-0.58
	c-0.1-0.16-0.23-0.28-0.39-0.36c-0.16-0.08-0.34-0.13-0.55-0.13c-0.28,0-0.52,0.08-0.7,0.23c-0.19,0.15-0.33,0.37-0.42,0.65
	c-0.09,0.28-0.14,0.65-0.14,1.11C41.67,52.5,41.8,53.03,42.06,53.35L42.06,53.35L42.06,53.35z M42.41,50.47
	c0.13-0.18,0.3-0.28,0.52-0.28c0.22,0,0.41,0.1,0.56,0.31c0.15,0.21,0.22,0.63,0.22,1.27c0,0.63-0.07,1.06-0.22,1.27
	c-0.15,0.21-0.33,0.32-0.55,0.32c-0.22,0-0.4-0.11-0.55-0.32c-0.15-0.21-0.22-0.63-0.22-1.27C42.16,51.14,42.24,50.7,42.41,50.47
	L42.41,50.47L42.41,50.47z"/>
<path class="st3" d="M27.16,31.29c0.05-0.09,0.12-0.17,0.2-0.26c0.08-0.09,0.26-0.25,0.55-0.49c0.34-0.29,0.59-0.52,0.73-0.68
	c0.15-0.17,0.25-0.32,0.32-0.47c0.06-0.15,0.1-0.3,0.1-0.46c0-0.3-0.11-0.56-0.32-0.77c-0.22-0.21-0.51-0.31-0.88-0.31
	c-0.37,0-0.66,0.1-0.88,0.29c-0.22,0.19-0.34,0.47-0.38,0.83l0.49,0.05c0-0.24,0.07-0.43,0.21-0.57c0.14-0.14,0.32-0.21,0.55-0.21
	c0.22,0,0.39,0.06,0.53,0.19c0.13,0.13,0.2,0.29,0.2,0.48c0,0.18-0.07,0.37-0.22,0.57c-0.15,0.2-0.43,0.48-0.85,0.82
	c-0.27,0.22-0.48,0.42-0.62,0.59c-0.14,0.17-0.25,0.34-0.31,0.52c-0.04,0.11-0.06,0.22-0.06,0.33h2.56v-0.46H27.16L27.16,31.29z
	 M29.98,31.52c0.22,0.2,0.51,0.3,0.86,0.3c0.43,0,0.77-0.16,1.02-0.47c0.2-0.26,0.31-0.56,0.31-0.91c0-0.37-0.12-0.67-0.35-0.9
	c-0.23-0.23-0.52-0.35-0.86-0.35c-0.26,0-0.5,0.08-0.73,0.24l0.21-1.04h1.55v-0.45h-1.93l-0.38,1.99l0.45,0.06
	c0.07-0.11,0.17-0.2,0.29-0.27c0.12-0.07,0.26-0.1,0.41-0.1c0.25,0,0.45,0.08,0.6,0.24c0.15,0.16,0.23,0.37,0.23,0.64
	c0,0.29-0.08,0.51-0.24,0.69c-0.16,0.17-0.35,0.26-0.58,0.26c-0.19,0-0.35-0.06-0.49-0.18c-0.13-0.12-0.22-0.31-0.26-0.55l-0.5,0.04
	C29.63,31.06,29.76,31.32,29.98,31.52L29.98,31.52z M33.02,31.41c0.21,0.27,0.51,0.4,0.88,0.4c0.28,0,0.52-0.08,0.7-0.23
	c0.19-0.15,0.33-0.37,0.42-0.65c0.09-0.28,0.14-0.65,0.14-1.1c0-0.38-0.03-0.69-0.09-0.92c-0.06-0.23-0.14-0.42-0.24-0.58
	c-0.1-0.16-0.23-0.28-0.39-0.36c-0.16-0.08-0.34-0.13-0.55-0.13c-0.28,0-0.52,0.08-0.7,0.23c-0.19,0.15-0.33,0.37-0.42,0.65
	c-0.09,0.28-0.14,0.65-0.14,1.11C32.63,30.56,32.76,31.09,33.02,31.41L33.02,31.41L33.02,31.41z M33.37,28.53
	c0.13-0.18,0.3-0.28,0.52-0.28c0.22,0,0.41,0.1,0.56,0.31c0.15,0.21,0.22,0.63,0.22,1.27c0,0.63-0.07,1.06-0.22,1.27
	c-0.15,0.21-0.33,0.32-0.55,0.32c-0.22,0-0.4-0.11-0.55-0.32c-0.15-0.21-0.22-0.63-0.22-1.27C33.12,29.2,33.2,28.76,33.37,28.53
	L33.37,28.53L33.37,28.53z"/>
<path class="st3" d="M35.98,31.41c0.21,0.27,0.51,0.4,0.88,0.4c0.28,0,0.52-0.08,0.7-0.23c0.19-0.15,0.33-0.37,0.42-0.65
	c0.09-0.28,0.14-0.65,0.14-1.1c0-0.38-0.03-0.69-0.09-0.92c-0.06-0.23-0.14-0.42-0.24-0.58c-0.1-0.16-0.23-0.28-0.39-0.36
	c-0.16-0.08-0.34-0.13-0.55-0.13c-0.28,0-0.52,0.08-0.7,0.23c-0.19,0.15-0.33,0.37-0.42,0.65c-0.09,0.28-0.14,0.65-0.14,1.11
	C35.6,30.56,35.73,31.09,35.98,31.41L35.98,31.41L35.98,31.41z M36.34,28.53c0.13-0.18,0.3-0.28,0.52-0.28
	c0.22,0,0.41,0.1,0.56,0.31c0.15,0.21,0.22,0.63,0.22,1.27c0,0.63-0.07,1.06-0.22,1.27c-0.15,0.21-0.33,0.32-0.55,0.32
	c-0.22,0-0.4-0.11-0.55-0.32c-0.15-0.21-0.22-0.63-0.22-1.27C36.09,29.2,36.17,28.76,36.34,28.53L36.34,28.53L36.34,28.53z
	 M39.02,31.41c0.21,0.27,0.51,0.4,0.88,0.4c0.28,0,0.52-0.08,0.7-0.23c0.19-0.15,0.33-0.37,0.42-0.65c0.09-0.28,0.14-0.65,0.14-1.1
	c0-0.38-0.03-0.69-0.09-0.92c-0.06-0.23-0.14-0.42-0.24-0.58c-0.1-0.16-0.23-0.28-0.39-0.36c-0.16-0.08-0.34-0.13-0.55-0.13
	c-0.28,0-0.52,0.08-0.7,0.23c-0.19,0.15-0.33,0.37-0.42,0.65c-0.09,0.28-0.14,0.65-0.14,1.11C38.64,30.56,38.76,31.09,39.02,31.41
	L39.02,31.41L39.02,31.41z M39.37,28.53c0.13-0.18,0.3-0.28,0.52-0.28c0.22,0,0.41,0.1,0.56,0.31c0.15,0.21,0.22,0.63,0.22,1.27
	c0,0.63-0.07,1.06-0.22,1.27c-0.15,0.21-0.33,0.32-0.55,0.32c-0.22,0-0.4-0.11-0.55-0.32c-0.15-0.21-0.22-0.63-0.22-1.27
	C39.13,29.2,39.21,28.76,39.37,28.53L39.37,28.53L39.37,28.53z M42.06,31.41c0.21,0.27,0.51,0.4,0.88,0.4c0.28,0,0.52-0.08,0.7-0.23
	c0.19-0.15,0.33-0.37,0.42-0.65c0.09-0.28,0.14-0.65,0.14-1.1c0-0.38-0.03-0.69-0.09-0.92c-0.06-0.23-0.14-0.42-0.24-0.58
	c-0.1-0.16-0.23-0.28-0.39-0.36c-0.16-0.08-0.34-0.13-0.55-0.13c-0.28,0-0.52,0.08-0.7,0.23c-0.19,0.15-0.33,0.37-0.42,0.65
	c-0.09,0.28-0.14,0.65-0.14,1.11C41.67,30.56,41.8,31.09,42.06,31.41L42.06,31.41L42.06,31.41z M42.41,28.53
	c0.13-0.18,0.3-0.28,0.52-0.28c0.22,0,0.41,0.1,0.56,0.31c0.15,0.21,0.22,0.63,0.22,1.27c0,0.63-0.07,1.06-0.22,1.27
	c-0.15,0.21-0.33,0.32-0.55,0.32c-0.22,0-0.4-0.11-0.55-0.32c-0.15-0.21-0.22-0.63-0.22-1.27C42.16,29.2,42.24,28.76,42.41,28.53
	L42.41,28.53L42.41,28.53z"/>
<path class="st3" d="M26.95,9.57c0.22,0.2,0.51,0.3,0.85,0.3c0.38,0,0.69-0.12,0.94-0.35C28.98,9.29,29.1,9,29.1,8.66
	c0-0.25-0.06-0.46-0.19-0.62c-0.13-0.17-0.3-0.28-0.53-0.33c0.18-0.08,0.31-0.19,0.4-0.33s0.13-0.29,0.13-0.46
	c0-0.18-0.05-0.34-0.14-0.5c-0.09-0.16-0.23-0.28-0.41-0.37c-0.18-0.09-0.37-0.14-0.58-0.14c-0.31,0-0.56,0.09-0.77,0.26
	c-0.21,0.18-0.34,0.42-0.4,0.74l0.48,0.08c0.04-0.23,0.11-0.41,0.24-0.52c0.12-0.12,0.28-0.17,0.46-0.17c0.19,0,0.34,0.06,0.46,0.17
	c0.12,0.11,0.18,0.26,0.18,0.43c0,0.22-0.08,0.38-0.24,0.49c-0.16,0.11-0.34,0.16-0.55,0.16c-0.02,0-0.04,0-0.08-0.01L27.5,7.97
	c0.13-0.04,0.25-0.05,0.34-0.05c0.22,0,0.4,0.07,0.54,0.21c0.14,0.14,0.21,0.32,0.21,0.54c0,0.23-0.08,0.42-0.23,0.58
	c-0.15,0.15-0.34,0.23-0.57,0.23c-0.19,0-0.35-0.06-0.48-0.18c-0.13-0.12-0.22-0.31-0.28-0.58l-0.48,0.06
	C26.6,9.11,26.72,9.37,26.95,9.57L26.95,9.57z M29.98,9.47c0.21,0.27,0.51,0.4,0.88,0.4c0.28,0,0.52-0.08,0.7-0.23
	c0.19-0.15,0.33-0.37,0.42-0.65c0.09-0.28,0.14-0.65,0.14-1.1c0-0.38-0.03-0.69-0.09-0.92c-0.06-0.23-0.14-0.42-0.24-0.58
	c-0.1-0.16-0.23-0.28-0.39-0.36c-0.16-0.08-0.34-0.13-0.55-0.13c-0.28,0-0.52,0.08-0.7,0.23c-0.19,0.15-0.33,0.37-0.42,0.65
	C29.64,7.07,29.6,7.44,29.6,7.9C29.6,8.63,29.73,9.15,29.98,9.47L29.98,9.47L29.98,9.47z M30.33,6.59c0.13-0.18,0.3-0.28,0.52-0.28
	c0.22,0,0.41,0.1,0.56,0.31c0.15,0.21,0.22,0.63,0.22,1.27c0,0.63-0.07,1.06-0.22,1.27c-0.15,0.21-0.33,0.32-0.55,0.32
	c-0.22,0-0.4-0.11-0.55-0.32c-0.15-0.21-0.22-0.63-0.22-1.27C30.09,7.26,30.17,6.83,30.33,6.59L30.33,6.59L30.33,6.59z M33.02,9.47
	c0.21,0.27,0.51,0.4,0.88,0.4c0.28,0,0.52-0.08,0.7-0.23c0.19-0.15,0.33-0.37,0.42-0.65c0.09-0.28,0.14-0.65,0.14-1.1
	c0-0.38-0.03-0.69-0.09-0.92c-0.06-0.23-0.14-0.42-0.24-0.58c-0.1-0.16-0.23-0.28-0.39-0.36c-0.16-0.08-0.34-0.13-0.55-0.13
	c-0.28,0-0.52,0.08-0.7,0.23c-0.19,0.15-0.33,0.37-0.42,0.65c-0.09,0.28-0.14,0.65-0.14,1.11C32.63,8.63,32.76,9.15,33.02,9.47
	L33.02,9.47L33.02,9.47z M33.37,6.59c0.13-0.18,0.3-0.28,0.52-0.28c0.22,0,0.41,0.1,0.56,0.31c0.15,0.21,0.22,0.63,0.22,1.27
	c0,0.63-0.07,1.06-0.22,1.27c-0.15,0.21-0.33,0.32-0.55,0.32c-0.22,0-0.4-0.11-0.55-0.32c-0.15-0.21-0.22-0.63-0.22-1.27
	C33.12,7.26,33.2,6.83,33.37,6.59L33.37,6.59L33.37,6.59z"/>
<path class="st3" d="M35.98,9.47c0.21,0.27,0.51,0.4,0.88,0.4c0.28,0,0.52-0.08,0.7-0.23c0.19-0.15,0.33-0.37,0.42-0.65
	c0.09-0.28,0.14-0.65,0.14-1.1c0-0.38-0.03-0.69-0.09-0.92c-0.06-0.23-0.14-0.42-0.24-0.58c-0.1-0.16-0.23-0.28-0.39-0.36
	c-0.16-0.08-0.34-0.13-0.55-0.13c-0.28,0-0.52,0.08-0.7,0.23c-0.19,0.15-0.33,0.37-0.42,0.65C35.65,7.07,35.6,7.44,35.6,7.9
	C35.6,8.63,35.73,9.15,35.98,9.47L35.98,9.47L35.98,9.47z M36.34,6.59c0.13-0.18,0.3-0.28,0.52-0.28c0.22,0,0.41,0.1,0.56,0.31
	c0.15,0.21,0.22,0.63,0.22,1.27c0,0.63-0.07,1.06-0.22,1.27c-0.15,0.21-0.33,0.32-0.55,0.32c-0.22,0-0.4-0.11-0.55-0.32
	c-0.15-0.21-0.22-0.63-0.22-1.27C36.09,7.26,36.17,6.83,36.34,6.59L36.34,6.59L36.34,6.59z M39.02,9.47c0.21,0.27,0.51,0.4,0.88,0.4
	c0.28,0,0.52-0.08,0.7-0.23c0.19-0.15,0.33-0.37,0.42-0.65c0.09-0.28,0.14-0.65,0.14-1.1c0-0.38-0.03-0.69-0.09-0.92
	c-0.06-0.23-0.14-0.42-0.24-0.58c-0.1-0.16-0.23-0.28-0.39-0.36c-0.16-0.08-0.34-0.13-0.55-0.13c-0.28,0-0.52,0.08-0.7,0.23
	c-0.19,0.15-0.33,0.37-0.42,0.65c-0.09,0.28-0.14,0.65-0.14,1.11C38.64,8.63,38.76,9.15,39.02,9.47L39.02,9.47L39.02,9.47z
	 M39.37,6.59c0.13-0.18,0.3-0.28,0.52-0.28c0.22,0,0.41,0.1,0.56,0.31c0.15,0.21,0.22,0.63,0.22,1.27c0,0.63-0.07,1.06-0.22,1.27
	c-0.15,0.21-0.33,0.32-0.55,0.32c-0.22,0-0.4-0.11-0.55-0.32c-0.15-0.21-0.22-0.63-0.22-1.27C39.13,7.26,39.21,6.83,39.37,6.59
	L39.37,6.59L39.37,6.59z M42.06,9.47c0.21,0.27,0.51,0.4,0.88,0.4c0.28,0,0.52-0.08,0.7-0.23c0.19-0.15,0.33-0.37,0.42-0.65
	c0.09-0.28,0.14-0.65,0.14-1.1c0-0.38-0.03-0.69-0.09-0.92c-0.06-0.23-0.14-0.42-0.24-0.58c-0.1-0.16-0.23-0.28-0.39-0.36
	c-0.16-0.08-0.34-0.13-0.55-0.13c-0.28,0-0.52,0.08-0.7,0.23c-0.19,0.15-0.33,0.37-0.42,0.65c-0.09,0.28-0.14,0.65-0.14,1.11
	C41.67,8.63,41.8,9.15,42.06,9.47L42.06,9.47L42.06,9.47z M42.41,6.59c0.13-0.18,0.3-0.28,0.52-0.28c0.22,0,0.41,0.1,0.56,0.31
	c0.15,0.21,0.22,0.63,0.22,1.27c0,0.63-0.07,1.06-0.22,1.27c-0.15,0.21-0.33,0.32-0.55,0.32c-0.22,0-0.4-0.11-0.55-0.32
	c-0.15-0.21-0.22-0.63-0.22-1.27C42.16,7.26,42.24,6.83,42.41,6.59L42.41,6.59L42.41,6.59z"/>
<path class="st3" d="M74.95,148.03l0.43-1.17H77l0.45,1.17h0.58l-1.59-3.87h-0.55l-1.49,3.87H74.95L74.95,148.03z M75.95,145.3
	c0.09-0.24,0.16-0.49,0.21-0.74c0.06,0.21,0.15,0.48,0.27,0.8l0.4,1.07h-1.31L75.95,145.3L75.95,145.3z M78.88,148.03v-1.53
	c0-0.36,0.07-0.6,0.22-0.73c0.15-0.13,0.32-0.19,0.52-0.19c0.13,0,0.24,0.03,0.33,0.09c0.09,0.06,0.16,0.13,0.2,0.23
	c0.04,0.1,0.06,0.24,0.06,0.43v1.71h0.48v-1.73c0-0.22-0.01-0.37-0.03-0.46c-0.03-0.14-0.08-0.25-0.15-0.35
	c-0.07-0.1-0.18-0.18-0.32-0.24c-0.14-0.06-0.3-0.09-0.47-0.09c-0.39,0-0.69,0.15-0.89,0.46v-0.4H78.4v2.81H78.88L78.88,148.03z"/>
<path class="st3" d="M81.72,149.17c0.15,0,0.28-0.04,0.39-0.11c0.11-0.07,0.21-0.19,0.29-0.34c0.06-0.12,0.15-0.33,0.27-0.64
	l1.07-2.85h-0.48l-0.6,1.64c-0.08,0.21-0.14,0.42-0.2,0.64c-0.06-0.23-0.13-0.44-0.2-0.65l-0.58-1.62h-0.51l1.06,2.81
	c-0.02,0.05-0.03,0.09-0.04,0.12c-0.07,0.19-0.12,0.31-0.15,0.35c-0.04,0.06-0.09,0.11-0.16,0.15c-0.06,0.04-0.15,0.05-0.25,0.05
	c-0.08,0-0.17-0.01-0.27-0.04l0.05,0.45C81.53,149.15,81.63,149.17,81.72,149.17L81.72,149.17L81.72,149.17z M133.39,148.03v-3.3
	l1.12,3.3h0.46l1.13-3.24v3.24h0.49v-3.87h-0.69l-0.93,2.69c-0.09,0.27-0.16,0.48-0.21,0.62c-0.04-0.13-0.1-0.32-0.18-0.57
	l-0.92-2.74h-0.77v3.87H133.39L133.39,148.03z"/>
<path class="st3" d="M139.3,148.03h0.5c-0.06-0.11-0.1-0.22-0.12-0.34c-0.02-0.12-0.03-0.4-0.03-0.84v-0.63
	c0-0.21-0.01-0.36-0.02-0.44c-0.03-0.13-0.08-0.24-0.15-0.32c-0.07-0.09-0.18-0.16-0.33-0.21c-0.15-0.06-0.34-0.08-0.58-0.08
	c-0.24,0-0.45,0.03-0.64,0.1c-0.18,0.07-0.32,0.16-0.42,0.28c-0.1,0.12-0.17,0.28-0.21,0.48l0.46,0.06c0.05-0.2,0.13-0.34,0.24-0.42
	c0.11-0.08,0.27-0.12,0.5-0.12c0.24,0,0.42,0.05,0.54,0.16c0.09,0.08,0.13,0.22,0.13,0.41c0,0.02,0,0.06,0,0.12
	c-0.18,0.06-0.46,0.12-0.85,0.16c-0.19,0.02-0.33,0.05-0.42,0.07c-0.13,0.04-0.24,0.09-0.34,0.16c-0.1,0.07-0.18,0.16-0.25,0.27
	c-0.06,0.11-0.09,0.24-0.09,0.38c0,0.23,0.08,0.43,0.25,0.58c0.17,0.15,0.4,0.23,0.71,0.23c0.19,0,0.36-0.03,0.52-0.09
	c0.16-0.06,0.33-0.17,0.51-0.32C139.22,147.81,139.25,147.93,139.3,148.03L139.3,148.03L139.3,148.03z M139.16,146.8
	c0,0.21-0.03,0.37-0.08,0.48c-0.07,0.14-0.17,0.25-0.31,0.33c-0.14,0.08-0.31,0.12-0.49,0.12c-0.18,0-0.33-0.04-0.42-0.13
	c-0.1-0.08-0.14-0.19-0.14-0.32c0-0.08,0.02-0.16,0.07-0.23c0.04-0.07,0.11-0.12,0.19-0.15c0.08-0.04,0.22-0.07,0.41-0.1
	c0.35-0.05,0.6-0.11,0.78-0.18V146.8L139.16,146.8z M140.58,147.87c0.19,0.15,0.47,0.23,0.83,0.23c0.22,0,0.42-0.04,0.59-0.11
	c0.17-0.08,0.31-0.18,0.4-0.32c0.09-0.14,0.14-0.29,0.14-0.45c0-0.16-0.04-0.3-0.11-0.41c-0.08-0.11-0.18-0.19-0.31-0.25
	c-0.13-0.06-0.37-0.13-0.7-0.22c-0.23-0.06-0.37-0.1-0.42-0.12c-0.08-0.03-0.14-0.08-0.18-0.13c-0.04-0.05-0.06-0.1-0.06-0.17
	c0-0.1,0.05-0.18,0.14-0.25c0.09-0.07,0.25-0.11,0.47-0.11c0.18,0,0.33,0.04,0.43,0.12c0.1,0.08,0.16,0.19,0.18,0.34l0.46-0.06
	c-0.03-0.18-0.08-0.33-0.16-0.43c-0.08-0.11-0.2-0.19-0.37-0.26s-0.36-0.1-0.58-0.1c-0.15,0-0.28,0.02-0.41,0.06
	c-0.13,0.04-0.23,0.08-0.3,0.14c-0.1,0.07-0.18,0.16-0.23,0.27c-0.06,0.11-0.09,0.22-0.09,0.35c0,0.14,0.03,0.26,0.1,0.38
	c0.07,0.11,0.17,0.2,0.31,0.27c0.13,0.06,0.38,0.14,0.73,0.23c0.26,0.07,0.42,0.12,0.49,0.16c0.09,0.06,0.14,0.15,0.14,0.25
	c0,0.12-0.05,0.22-0.16,0.31c-0.11,0.09-0.27,0.13-0.49,0.13c-0.22,0-0.39-0.05-0.51-0.15c-0.12-0.1-0.19-0.24-0.22-0.43l-0.47,0.07
	C140.27,147.49,140.39,147.71,140.58,147.87L140.58,147.87z"/>
<path class="st3" d="M143.63,148.03v-1.11l0.34-0.32l0.93,1.43h0.59l-1.18-1.76l1.07-1.04h-0.62l-1.13,1.14v-2.21h-0.48v3.87H143.63
	L143.63,148.03z M191.48,147.48c0.13,0.21,0.32,0.36,0.56,0.46c0.24,0.1,0.53,0.15,0.88,0.15c0.28,0,0.53-0.05,0.75-0.15
	c0.22-0.1,0.39-0.24,0.51-0.43c0.12-0.18,0.18-0.38,0.18-0.58c0-0.21-0.05-0.39-0.16-0.55c-0.11-0.16-0.27-0.29-0.5-0.39
	c-0.15-0.07-0.44-0.15-0.86-0.25c-0.42-0.09-0.67-0.19-0.77-0.28c-0.1-0.09-0.15-0.2-0.15-0.34c0-0.16,0.07-0.3,0.21-0.41
	c0.14-0.11,0.37-0.17,0.68-0.17c0.3,0,0.52,0.06,0.67,0.19c0.15,0.13,0.24,0.31,0.27,0.55l0.49-0.04c-0.01-0.23-0.07-0.43-0.19-0.61
	c-0.12-0.18-0.29-0.32-0.51-0.41c-0.22-0.09-0.47-0.14-0.76-0.14c-0.26,0-0.5,0.04-0.71,0.13c-0.21,0.09-0.38,0.22-0.49,0.39
	c-0.11,0.17-0.17,0.35-0.17,0.55c0,0.18,0.05,0.34,0.14,0.48c0.09,0.14,0.23,0.26,0.41,0.36c0.14,0.08,0.39,0.16,0.75,0.24
	c0.36,0.09,0.59,0.15,0.69,0.19c0.16,0.06,0.28,0.14,0.35,0.23c0.07,0.09,0.11,0.2,0.11,0.32c0,0.12-0.04,0.23-0.11,0.33
	c-0.07,0.1-0.18,0.18-0.33,0.24c-0.15,0.06-0.32,0.09-0.52,0.09c-0.22,0-0.42-0.04-0.59-0.11c-0.18-0.08-0.31-0.18-0.39-0.3
	c-0.08-0.12-0.14-0.28-0.16-0.48l-0.48,0.04C191.28,147.04,191.35,147.28,191.48,147.48L191.48,147.48z"/>
<path class="st3" d="M195.84,147.62c-0.07,0-0.12-0.01-0.16-0.03c-0.04-0.02-0.07-0.05-0.08-0.09c-0.02-0.04-0.03-0.13-0.03-0.26
	v-1.64h0.48v-0.37h-0.48v-0.98l-0.47,0.29v0.69h-0.35v0.37h0.35v1.61c0,0.29,0.02,0.47,0.06,0.56c0.04,0.09,0.11,0.16,0.2,0.22
	s0.23,0.08,0.4,0.08c0.11,0,0.23-0.01,0.36-0.04l-0.07-0.42C195.97,147.62,195.9,147.62,195.84,147.62L195.84,147.62L195.84,147.62z
	 M198.44,148.03h0.5c-0.06-0.11-0.1-0.22-0.12-0.34c-0.02-0.12-0.03-0.4-0.03-0.84v-0.63c0-0.21-0.01-0.36-0.02-0.44
	c-0.03-0.13-0.08-0.24-0.15-0.32c-0.07-0.09-0.18-0.16-0.33-0.21c-0.15-0.06-0.34-0.08-0.58-0.08c-0.24,0-0.45,0.03-0.64,0.1
	c-0.18,0.07-0.32,0.16-0.42,0.28c-0.1,0.12-0.17,0.28-0.21,0.48l0.46,0.06c0.05-0.2,0.13-0.34,0.24-0.42
	c0.11-0.08,0.27-0.12,0.5-0.12c0.24,0,0.42,0.05,0.54,0.16c0.09,0.08,0.13,0.22,0.13,0.41c0,0.02,0,0.06,0,0.12
	c-0.18,0.06-0.46,0.12-0.85,0.16c-0.19,0.02-0.33,0.05-0.42,0.07c-0.13,0.04-0.24,0.09-0.34,0.16c-0.1,0.07-0.18,0.16-0.25,0.27
	c-0.06,0.11-0.09,0.24-0.09,0.38c0,0.23,0.08,0.43,0.25,0.58c0.17,0.15,0.4,0.23,0.71,0.23c0.19,0,0.36-0.03,0.52-0.09
	c0.16-0.06,0.33-0.17,0.51-0.32C198.36,147.81,198.39,147.93,198.44,148.03L198.44,148.03L198.44,148.03z M198.3,146.8
	c0,0.21-0.03,0.37-0.08,0.48c-0.07,0.14-0.17,0.25-0.31,0.33c-0.14,0.08-0.31,0.12-0.49,0.12c-0.18,0-0.33-0.04-0.42-0.13
	c-0.1-0.08-0.14-0.19-0.14-0.32c0-0.08,0.02-0.16,0.07-0.23c0.04-0.07,0.11-0.12,0.19-0.15c0.08-0.04,0.22-0.07,0.41-0.1
	c0.35-0.05,0.6-0.11,0.78-0.18V146.8L198.3,146.8z M199.99,148.03v-1.46c0-0.26,0.03-0.45,0.08-0.59c0.05-0.14,0.13-0.24,0.25-0.31
	c0.11-0.07,0.24-0.11,0.37-0.11c0.18,0,0.3,0.05,0.38,0.16c0.08,0.11,0.12,0.26,0.12,0.48v1.82h0.48v-1.63c0-0.29,0.07-0.5,0.2-0.63
	c0.13-0.13,0.29-0.2,0.49-0.2c0.11,0,0.2,0.03,0.29,0.08c0.08,0.05,0.14,0.12,0.17,0.2c0.03,0.08,0.05,0.22,0.05,0.41v1.77h0.47
	v-1.93c0-0.32-0.07-0.56-0.22-0.71c-0.15-0.15-0.36-0.23-0.64-0.23c-0.36,0-0.64,0.16-0.87,0.49c-0.05-0.15-0.15-0.28-0.28-0.36
	c-0.13-0.09-0.3-0.13-0.51-0.13c-0.19,0-0.35,0.04-0.5,0.13c-0.15,0.08-0.26,0.19-0.35,0.33v-0.39h-0.43v2.81H199.99L199.99,148.03z
	 M204.49,149.1v-1.37c0.08,0.1,0.18,0.19,0.31,0.25c0.13,0.07,0.27,0.1,0.43,0.1c0.22,0,0.42-0.06,0.62-0.18
	c0.2-0.12,0.35-0.3,0.45-0.53c0.1-0.23,0.15-0.49,0.15-0.78c0-0.27-0.05-0.51-0.14-0.74c-0.09-0.22-0.23-0.4-0.41-0.52
	c-0.18-0.12-0.39-0.18-0.63-0.18c-0.18,0-0.34,0.04-0.47,0.11c-0.13,0.07-0.24,0.18-0.35,0.32v-0.36h-0.43v3.88H204.49L204.49,149.1
	z M204.68,145.82c0.16-0.19,0.34-0.28,0.54-0.28c0.2,0,0.38,0.09,0.53,0.27c0.15,0.18,0.22,0.45,0.22,0.8
	c0,0.38-0.08,0.65-0.23,0.83c-0.15,0.18-0.33,0.27-0.54,0.27c-0.21,0-0.38-0.09-0.53-0.26c-0.15-0.17-0.22-0.44-0.22-0.8
	C204.45,146.28,204.52,146.01,204.68,145.82L204.68,145.82z"/>
<path class="st3" d="M16.03,118.92h-3.87v0.51h3.87V118.92L16.03,118.92z M15.63,117.24c0,0.07-0.01,0.12-0.03,0.16
	c-0.02,0.04-0.05,0.07-0.09,0.08c-0.04,0.02-0.13,0.03-0.26,0.03H13.6v-0.48h-0.37v0.48h-0.98l0.29,0.47h0.69v0.35h0.37v-0.35h1.61
	c0.29,0,0.47-0.02,0.56-0.06c0.09-0.04,0.16-0.11,0.22-0.2c0.05-0.1,0.08-0.23,0.08-0.4c0-0.11-0.01-0.23-0.04-0.36l-0.42,0.07
	C15.62,117.12,15.63,117.19,15.63,117.24L15.63,117.24L15.63,117.24z M15.57,114.93c0.09,0.12,0.14,0.27,0.14,0.45
	c0,0.23-0.08,0.43-0.25,0.59c-0.16,0.16-0.4,0.24-0.71,0.26v-2.09c-0.06,0-0.1,0-0.13,0c-0.46,0-0.82,0.12-1.08,0.36
	c-0.26,0.24-0.38,0.54-0.38,0.92c0,0.39,0.13,0.7,0.39,0.95c0.26,0.24,0.63,0.36,1.1,0.36c0.46,0,0.81-0.12,1.06-0.36
	c0.25-0.24,0.38-0.57,0.38-0.98c0-0.33-0.08-0.59-0.24-0.8c-0.16-0.21-0.38-0.35-0.67-0.43l-0.06,0.49
	C15.33,114.71,15.48,114.8,15.57,114.93L15.57,114.93z M13.77,115.95c-0.15-0.15-0.22-0.33-0.22-0.55c0-0.24,0.09-0.44,0.27-0.59
	c0.12-0.1,0.3-0.16,0.53-0.18v1.57C14.12,116.18,13.92,116.1,13.77,115.95L13.77,115.95z M16.03,113.07h-1.47
	c-0.2,0-0.39-0.03-0.55-0.08c-0.11-0.04-0.2-0.09-0.26-0.18c-0.06-0.08-0.09-0.18-0.09-0.28c0-0.12,0.03-0.23,0.1-0.35l-0.44-0.16
	c-0.1,0.17-0.15,0.33-0.15,0.49c0,0.11,0.03,0.21,0.1,0.31s0.19,0.19,0.39,0.3h-0.43v0.43h2.81V113.07L16.03,113.07z M16.03,109.8
	v-0.5c-0.11,0.06-0.22,0.1-0.34,0.12c-0.12,0.02-0.4,0.03-0.84,0.03h-0.63c-0.21,0-0.36,0.01-0.44,0.02
	c-0.13,0.03-0.24,0.08-0.32,0.15c-0.09,0.07-0.16,0.18-0.21,0.33c-0.06,0.15-0.08,0.34-0.08,0.58c0,0.24,0.03,0.45,0.1,0.64
	c0.07,0.18,0.16,0.32,0.28,0.42c0.12,0.1,0.28,0.17,0.48,0.21l0.06-0.46c-0.2-0.05-0.34-0.13-0.42-0.24
	c-0.08-0.11-0.12-0.27-0.12-0.5c0-0.24,0.05-0.42,0.16-0.54c0.08-0.09,0.22-0.13,0.41-0.13c0.02,0,0.06,0,0.12,0
	c0.06,0.18,0.12,0.46,0.16,0.85c0.02,0.19,0.05,0.33,0.07,0.42c0.04,0.13,0.09,0.24,0.16,0.34c0.07,0.1,0.16,0.18,0.27,0.25
	c0.11,0.06,0.24,0.09,0.38,0.09c0.23,0,0.43-0.08,0.58-0.25c0.15-0.17,0.23-0.4,0.23-0.71c0-0.19-0.03-0.36-0.09-0.52
	c-0.06-0.16-0.17-0.33-0.32-0.51C15.82,109.88,15.93,109.85,16.03,109.8L16.03,109.8L16.03,109.8z M14.8,109.93
	c0.21,0,0.37,0.03,0.48,0.08c0.14,0.07,0.25,0.17,0.33,0.31c0.08,0.14,0.12,0.31,0.12,0.49c0,0.18-0.04,0.33-0.13,0.42
	c-0.08,0.1-0.19,0.14-0.32,0.14c-0.08,0-0.16-0.02-0.23-0.07c-0.07-0.04-0.12-0.11-0.15-0.19c-0.04-0.08-0.07-0.22-0.1-0.41
	c-0.05-0.35-0.11-0.6-0.18-0.78H14.8L14.8,109.93z M15.63,107.87c0,0.07-0.01,0.12-0.03,0.16c-0.02,0.04-0.05,0.07-0.09,0.08
	c-0.04,0.02-0.13,0.03-0.26,0.03H13.6v-0.48h-0.37v0.48h-0.98l0.29,0.47h0.69v0.35h0.37v-0.35h1.61c0.29,0,0.47-0.02,0.56-0.06
	c0.09-0.04,0.16-0.11,0.22-0.2c0.05-0.1,0.08-0.23,0.08-0.4c0-0.11-0.01-0.23-0.04-0.36l-0.42,0.07
	C15.62,107.75,15.63,107.82,15.63,107.87L15.63,107.87L15.63,107.87z M12.71,106.71h-0.55v0.48h0.55V106.71L12.71,106.71z
	 M16.03,106.71h-2.81v0.48h2.81V106.71L16.03,106.71z M15.72,105.79c0.25-0.24,0.38-0.56,0.38-0.95c0-0.24-0.06-0.47-0.17-0.68
	c-0.11-0.21-0.28-0.36-0.48-0.47c-0.21-0.11-0.49-0.16-0.85-0.16c-0.45,0-0.79,0.12-1.05,0.37c-0.25,0.24-0.38,0.56-0.38,0.95
	c0,0.35,0.1,0.64,0.31,0.88c0.25,0.29,0.63,0.43,1.15,0.43C15.1,106.15,15.47,106.03,15.72,105.79L15.72,105.79z M13.82,105.43
	c-0.18-0.16-0.27-0.35-0.27-0.59c0-0.23,0.09-0.43,0.27-0.59c0.18-0.16,0.44-0.24,0.79-0.24c0.37,0,0.64,0.08,0.82,0.24
	c0.18,0.16,0.27,0.35,0.27,0.59c0,0.24-0.09,0.44-0.27,0.59c-0.18,0.16-0.45,0.24-0.81,0.24C14.27,105.67,14,105.59,13.82,105.43
	L13.82,105.43z M16.03,102.48H14.5c-0.36,0-0.6-0.07-0.73-0.22c-0.13-0.15-0.19-0.32-0.19-0.52c0-0.13,0.03-0.24,0.09-0.33
	c0.06-0.09,0.13-0.16,0.23-0.2c0.1-0.04,0.24-0.06,0.43-0.06h1.71v-0.48h-1.73c-0.22,0-0.37,0.01-0.46,0.03
	c-0.14,0.03-0.25,0.08-0.35,0.15c-0.1,0.07-0.18,0.18-0.24,0.32c-0.06,0.14-0.09,0.3-0.09,0.47c0,0.39,0.15,0.69,0.46,0.89h-0.4
	v0.43h2.81V102.48L16.03,102.48z M15.87,99.76c0.15-0.19,0.23-0.47,0.23-0.83c0-0.22-0.04-0.42-0.11-0.59
	c-0.08-0.17-0.18-0.31-0.32-0.4c-0.14-0.09-0.29-0.14-0.45-0.14c-0.16,0-0.3,0.04-0.41,0.11c-0.11,0.08-0.19,0.18-0.25,0.31
	c-0.06,0.13-0.13,0.37-0.22,0.7c-0.06,0.23-0.1,0.37-0.12,0.42c-0.03,0.08-0.08,0.14-0.13,0.18c-0.05,0.04-0.1,0.06-0.17,0.06
	c-0.1,0-0.18-0.05-0.25-0.14c-0.07-0.09-0.11-0.25-0.11-0.47c0-0.18,0.04-0.33,0.12-0.43c0.08-0.1,0.19-0.16,0.34-0.18l-0.06-0.46
	c-0.18,0.03-0.33,0.08-0.43,0.16c-0.11,0.08-0.19,0.2-0.26,0.37s-0.1,0.36-0.1,0.58c0,0.15,0.02,0.28,0.06,0.41
	c0.04,0.13,0.08,0.23,0.14,0.3c0.07,0.1,0.16,0.18,0.27,0.23c0.11,0.06,0.22,0.09,0.35,0.09c0.14,0,0.26-0.03,0.38-0.1
	c0.11-0.07,0.2-0.17,0.27-0.31c0.06-0.13,0.14-0.38,0.23-0.73c0.07-0.26,0.12-0.42,0.16-0.49c0.06-0.09,0.15-0.14,0.25-0.14
	c0.12,0,0.22,0.05,0.31,0.16c0.09,0.11,0.13,0.27,0.13,0.49c0,0.22-0.05,0.39-0.15,0.51c-0.1,0.12-0.24,0.19-0.43,0.22l0.07,0.47
	C15.49,100.07,15.72,99.95,15.87,99.76L15.87,99.76z M17.11,95.23h-1.37c0.1-0.08,0.19-0.18,0.25-0.31c0.07-0.13,0.1-0.27,0.1-0.43
	c0-0.22-0.06-0.42-0.18-0.62c-0.12-0.2-0.3-0.35-0.53-0.45c-0.23-0.1-0.49-0.15-0.78-0.15c-0.27,0-0.51,0.05-0.74,0.14
	c-0.22,0.09-0.4,0.23-0.52,0.41c-0.12,0.18-0.18,0.39-0.18,0.63c0,0.18,0.04,0.34,0.11,0.47c0.07,0.13,0.18,0.24,0.32,0.35h-0.36
	v0.43h3.88V95.23L17.11,95.23z M13.82,95.04c-0.19-0.16-0.28-0.34-0.28-0.54c0-0.2,0.09-0.38,0.27-0.53
	c0.18-0.15,0.45-0.22,0.8-0.22c0.38,0,0.65,0.08,0.83,0.23c0.18,0.15,0.27,0.33,0.27,0.54c0,0.21-0.09,0.38-0.26,0.53
	c-0.17,0.15-0.44,0.22-0.8,0.22C14.28,95.28,14.01,95.2,13.82,95.04L13.82,95.04z M15.57,91.06c0.09,0.12,0.14,0.27,0.14,0.45
	c0,0.23-0.08,0.43-0.25,0.59c-0.16,0.16-0.4,0.24-0.71,0.26v-2.09c-0.06,0-0.1,0-0.13,0c-0.46,0-0.82,0.12-1.08,0.36
	c-0.26,0.24-0.38,0.54-0.38,0.92c0,0.39,0.13,0.7,0.39,0.95c0.26,0.24,0.63,0.36,1.1,0.36c0.46,0,0.81-0.12,1.06-0.36
	c0.25-0.24,0.38-0.57,0.38-0.98c0-0.33-0.08-0.59-0.24-0.8c-0.16-0.21-0.38-0.35-0.67-0.43l-0.06,0.49
	C15.33,90.84,15.48,90.94,15.57,91.06L15.57,91.06z M13.77,92.08c-0.15-0.15-0.22-0.33-0.22-0.55c0-0.24,0.09-0.44,0.27-0.59
	c0.12-0.1,0.3-0.16,0.53-0.18v1.57C14.12,92.31,13.92,92.23,13.77,92.08L13.77,92.08z M16.03,89.2h-1.47c-0.2,0-0.39-0.03-0.55-0.08
	c-0.11-0.04-0.2-0.09-0.26-0.18c-0.06-0.08-0.09-0.18-0.09-0.28c0-0.12,0.03-0.23,0.1-0.35l-0.44-0.16
	c-0.1,0.17-0.15,0.33-0.15,0.49c0,0.11,0.03,0.21,0.1,0.31s0.19,0.19,0.39,0.3h-0.43v0.43h2.81V89.2L16.03,89.2z M15.87,86.17
	c0.15-0.19,0.23-0.47,0.23-0.83c0-0.22-0.04-0.42-0.11-0.59c-0.08-0.17-0.18-0.31-0.32-0.4c-0.14-0.09-0.29-0.14-0.45-0.14
	c-0.16,0-0.3,0.04-0.41,0.11c-0.11,0.08-0.19,0.18-0.25,0.31c-0.06,0.13-0.13,0.37-0.22,0.7c-0.06,0.23-0.1,0.37-0.12,0.42
	c-0.03,0.08-0.08,0.14-0.13,0.18c-0.05,0.04-0.1,0.06-0.17,0.06c-0.1,0-0.18-0.05-0.25-0.14c-0.07-0.09-0.11-0.25-0.11-0.47
	c0-0.18,0.04-0.33,0.12-0.43c0.08-0.1,0.19-0.16,0.34-0.18l-0.06-0.46c-0.18,0.03-0.33,0.08-0.43,0.16
	c-0.11,0.08-0.19,0.2-0.26,0.37s-0.1,0.36-0.1,0.58c0,0.15,0.02,0.28,0.06,0.41c0.04,0.13,0.08,0.23,0.14,0.3
	c0.07,0.1,0.16,0.18,0.27,0.23c0.11,0.06,0.22,0.09,0.35,0.09c0.14,0,0.26-0.03,0.38-0.1c0.11-0.07,0.2-0.17,0.27-0.31
	c0.06-0.13,0.14-0.38,0.23-0.73c0.07-0.26,0.12-0.42,0.16-0.49c0.06-0.09,0.15-0.14,0.25-0.14c0.12,0,0.22,0.05,0.31,0.16
	c0.09,0.11,0.13,0.27,0.13,0.49c0,0.22-0.05,0.39-0.15,0.51c-0.1,0.12-0.24,0.19-0.43,0.22l0.07,0.47
	C15.49,86.48,15.72,86.36,15.87,86.17L15.87,86.17z M15.57,82c0.09,0.12,0.14,0.27,0.14,0.45c0,0.23-0.08,0.43-0.25,0.59
	c-0.16,0.16-0.4,0.24-0.71,0.26V81.2c-0.06,0-0.1,0-0.13,0c-0.46,0-0.82,0.12-1.08,0.36c-0.26,0.24-0.38,0.54-0.38,0.92
	c0,0.39,0.13,0.7,0.39,0.95c0.26,0.24,0.63,0.36,1.1,0.36c0.46,0,0.81-0.12,1.06-0.36c0.25-0.24,0.38-0.57,0.38-0.98
	c0-0.33-0.08-0.59-0.24-0.8c-0.16-0.21-0.38-0.35-0.67-0.43l-0.06,0.49C15.33,81.78,15.48,81.87,15.57,82L15.57,82z M13.77,83.02
	c-0.15-0.15-0.22-0.33-0.22-0.55c0-0.24,0.09-0.44,0.27-0.59c0.12-0.1,0.3-0.16,0.53-0.18v1.57C14.12,83.25,13.92,83.17,13.77,83.02
	L13.77,83.02z M15.53,79.01c0.11,0.13,0.17,0.28,0.17,0.47c0,0.23-0.09,0.42-0.26,0.57c-0.17,0.14-0.44,0.22-0.82,0.22
	c-0.37,0-0.64-0.07-0.81-0.22c-0.17-0.15-0.26-0.34-0.26-0.58c0-0.16,0.05-0.29,0.14-0.41c0.1-0.11,0.24-0.19,0.43-0.23l-0.07-0.46
	c-0.28,0.05-0.5,0.18-0.66,0.37c-0.15,0.19-0.23,0.44-0.23,0.75c0,0.24,0.06,0.46,0.17,0.67c0.11,0.21,0.28,0.36,0.51,0.46
	c0.23,0.1,0.49,0.15,0.8,0.15c0.47,0,0.83-0.12,1.08-0.35c0.25-0.23,0.38-0.54,0.38-0.93c0-0.31-0.09-0.56-0.27-0.78
	c-0.18-0.21-0.43-0.34-0.76-0.39l-0.06,0.47C15.24,78.81,15.42,78.89,15.53,79.01L15.53,79.01z M15.72,77.7
	c0.25-0.24,0.38-0.56,0.38-0.95c0-0.24-0.06-0.47-0.17-0.68c-0.11-0.21-0.28-0.36-0.48-0.47c-0.21-0.11-0.49-0.16-0.85-0.16
	c-0.45,0-0.79,0.12-1.05,0.37c-0.25,0.24-0.38,0.56-0.38,0.95c0,0.35,0.1,0.64,0.31,0.88c0.25,0.29,0.63,0.43,1.15,0.43
	C15.1,78.07,15.47,77.95,15.72,77.7L15.72,77.7z M13.82,77.34c-0.18-0.16-0.27-0.35-0.27-0.59c0-0.23,0.09-0.43,0.27-0.59
	c0.18-0.16,0.44-0.24,0.79-0.24c0.37,0,0.64,0.08,0.82,0.24c0.18,0.16,0.27,0.35,0.27,0.59c0,0.24-0.09,0.44-0.27,0.59
	c-0.18,0.16-0.45,0.24-0.81,0.24C14.27,77.58,14,77.5,13.82,77.34L13.82,77.34z M16.03,74.39H14.5c-0.36,0-0.6-0.07-0.73-0.22
	c-0.13-0.15-0.19-0.32-0.19-0.52c0-0.13,0.03-0.24,0.09-0.33c0.06-0.09,0.13-0.16,0.23-0.2c0.1-0.04,0.24-0.06,0.43-0.06h1.71v-0.48
	h-1.73c-0.22,0-0.37,0.01-0.46,0.03c-0.14,0.03-0.25,0.08-0.35,0.15c-0.1,0.07-0.18,0.18-0.24,0.32c-0.06,0.14-0.09,0.3-0.09,0.47
	c0,0.39,0.15,0.69,0.46,0.89h-0.4v0.43h2.81V74.39L16.03,74.39z M16.03,69.59h-3.87v0.47h1.39c-0.11,0.08-0.21,0.19-0.28,0.32
	s-0.11,0.28-0.11,0.45c0,0.23,0.06,0.44,0.18,0.63c0.12,0.19,0.3,0.33,0.52,0.42c0.23,0.09,0.48,0.14,0.76,0.14
	c0.29,0,0.54-0.05,0.76-0.15c0.22-0.1,0.39-0.25,0.52-0.44c0.12-0.19,0.18-0.39,0.18-0.62c0-0.35-0.14-0.61-0.42-0.78h0.35V69.59
	L16.03,69.59z M13.82,71.32c-0.17-0.14-0.26-0.32-0.26-0.53c0-0.22,0.09-0.4,0.27-0.55c0.18-0.15,0.46-0.22,0.85-0.22
	c0.35,0,0.61,0.07,0.78,0.22c0.17,0.15,0.25,0.32,0.25,0.53c0,0.21-0.09,0.38-0.27,0.54c-0.18,0.15-0.45,0.23-0.81,0.23
	C14.26,71.53,13.99,71.46,13.82,71.32L13.82,71.32z M17.17,66.07c-0.85,0.53-1.69,0.79-2.54,0.79c-0.33,0-0.66-0.04-0.99-0.11
	c-0.26-0.06-0.52-0.15-0.76-0.25c-0.16-0.07-0.42-0.21-0.78-0.42v0.34c0.44,0.33,0.89,0.58,1.33,0.73c0.38,0.14,0.79,0.2,1.2,0.2
	c0.48,0,0.94-0.09,1.38-0.27c0.44-0.18,0.83-0.4,1.16-0.67V66.07L17.17,66.07z M16.03,65.03H14.5c-0.22,0-0.39-0.03-0.52-0.08
	c-0.13-0.05-0.22-0.14-0.3-0.27c-0.07-0.12-0.11-0.26-0.11-0.4c0-0.19,0.05-0.33,0.16-0.44c0.11-0.1,0.28-0.15,0.52-0.15h1.78v-0.48
	h-1.78c-0.27,0-0.48,0.03-0.63,0.1c-0.14,0.07-0.26,0.18-0.34,0.33c-0.08,0.15-0.12,0.33-0.12,0.54c0,0.34,0.13,0.62,0.39,0.84
	h-1.39v0.48h3.87V65.03L16.03,65.03z M12.71,62.01h-0.55v0.48h0.55V62.01L12.71,62.01z M16.03,62.01h-2.81v0.48h2.81V62.01
	L16.03,62.01z M16.95,61.06c0.15-0.21,0.23-0.48,0.23-0.81c0-0.28-0.05-0.52-0.16-0.71s-0.25-0.33-0.43-0.42
	c-0.18-0.09-0.49-0.13-0.93-0.13h-2.43v0.44h0.34c-0.27,0.21-0.4,0.49-0.4,0.82c0,0.25,0.06,0.46,0.18,0.65
	c0.12,0.18,0.3,0.32,0.52,0.42c0.23,0.1,0.47,0.15,0.74,0.15c0.39,0,0.72-0.11,1-0.32c0.28-0.21,0.42-0.51,0.42-0.9
	c0-0.31-0.12-0.57-0.37-0.78c0.31,0,0.51,0.01,0.61,0.03c0.16,0.04,0.28,0.12,0.37,0.24c0.09,0.12,0.13,0.29,0.13,0.51
	c0,0.2-0.04,0.37-0.13,0.48c-0.07,0.09-0.17,0.14-0.31,0.16l-0.07,0.46C16.57,61.37,16.79,61.27,16.95,61.06L16.95,61.06z
	 M13.81,60.74c-0.17-0.15-0.26-0.33-0.26-0.54c0-0.21,0.09-0.4,0.26-0.55c0.17-0.15,0.43-0.23,0.78-0.23c0.36,0,0.62,0.07,0.79,0.22
	c0.17,0.15,0.25,0.33,0.25,0.55c0,0.22-0.08,0.4-0.25,0.55c-0.17,0.15-0.44,0.22-0.81,0.22C14.24,60.97,13.99,60.89,13.81,60.74
	L13.81,60.74z M16.03,57.78H14.5c-0.22,0-0.39-0.03-0.52-0.08c-0.13-0.05-0.22-0.14-0.3-0.27c-0.07-0.12-0.11-0.26-0.11-0.4
	c0-0.19,0.05-0.33,0.16-0.44c0.11-0.1,0.28-0.15,0.52-0.15h1.78v-0.48h-1.78c-0.27,0-0.48,0.03-0.63,0.1
	c-0.14,0.07-0.26,0.18-0.34,0.33s-0.12,0.33-0.12,0.54c0,0.34,0.13,0.62,0.39,0.84h-1.39v0.48h3.87V57.78L16.03,57.78z M15.57,53.6
	c0.09,0.12,0.14,0.27,0.14,0.45c0,0.23-0.08,0.43-0.25,0.59c-0.16,0.16-0.4,0.24-0.71,0.26v-2.09c-0.06,0-0.1,0-0.13,0
	c-0.46,0-0.82,0.12-1.08,0.36c-0.26,0.24-0.38,0.54-0.38,0.92c0,0.39,0.13,0.7,0.39,0.95c0.26,0.24,0.63,0.36,1.1,0.36
	c0.46,0,0.81-0.12,1.06-0.36c0.25-0.24,0.38-0.57,0.38-0.98c0-0.33-0.08-0.59-0.24-0.8c-0.16-0.21-0.38-0.35-0.67-0.43l-0.06,0.49
	C15.33,53.38,15.48,53.48,15.57,53.6L15.57,53.6z M13.77,54.63c-0.15-0.15-0.22-0.33-0.22-0.55c0-0.24,0.09-0.44,0.27-0.59
	c0.12-0.1,0.3-0.16,0.53-0.18v1.57C14.12,54.86,13.92,54.77,13.77,54.63L13.77,54.63z M16.03,51.74h-1.47
	c-0.2,0-0.39-0.03-0.55-0.08c-0.11-0.04-0.2-0.09-0.26-0.18c-0.06-0.08-0.09-0.18-0.09-0.28c0-0.12,0.03-0.23,0.1-0.35l-0.44-0.16
	c-0.1,0.17-0.15,0.33-0.15,0.49c0,0.11,0.03,0.21,0.1,0.31c0.06,0.09,0.19,0.19,0.39,0.3h-0.43v0.43h2.81V51.74L16.03,51.74z
	 M12.71,48.41h-0.55v0.48h0.55V48.41L12.71,48.41z M16.03,48.41h-2.81v0.48h2.81V48.41L16.03,48.41z M15.87,47.5
	c0.15-0.19,0.23-0.47,0.23-0.83c0-0.22-0.04-0.42-0.11-0.59c-0.08-0.17-0.18-0.31-0.32-0.4c-0.14-0.09-0.29-0.14-0.45-0.14
	c-0.16,0-0.3,0.04-0.41,0.11c-0.11,0.08-0.19,0.18-0.25,0.31c-0.06,0.13-0.13,0.37-0.22,0.7c-0.06,0.23-0.1,0.37-0.12,0.42
	c-0.03,0.08-0.08,0.14-0.13,0.18c-0.05,0.04-0.1,0.06-0.17,0.06c-0.1,0-0.18-0.05-0.25-0.14c-0.07-0.09-0.11-0.25-0.11-0.47
	c0-0.18,0.04-0.33,0.12-0.43c0.08-0.1,0.19-0.16,0.34-0.18l-0.06-0.46c-0.18,0.03-0.33,0.08-0.43,0.16
	c-0.11,0.08-0.19,0.2-0.26,0.37c-0.06,0.17-0.1,0.36-0.1,0.58c0,0.15,0.02,0.28,0.06,0.41c0.04,0.13,0.08,0.23,0.14,0.3
	c0.07,0.1,0.16,0.18,0.27,0.23c0.11,0.06,0.22,0.09,0.35,0.09c0.14,0,0.26-0.03,0.38-0.1c0.11-0.07,0.2-0.17,0.27-0.31
	c0.06-0.13,0.14-0.38,0.23-0.73c0.07-0.26,0.12-0.42,0.16-0.49c0.06-0.09,0.15-0.14,0.25-0.14c0.12,0,0.22,0.05,0.31,0.16
	c0.09,0.11,0.13,0.27,0.13,0.49c0,0.22-0.05,0.39-0.15,0.51c-0.1,0.12-0.24,0.19-0.43,0.22l0.07,0.47
	C15.49,47.81,15.72,47.69,15.87,47.5L15.87,47.5z M15.68,43c0.28-0.19,0.41-0.45,0.41-0.78c0-0.33-0.13-0.62-0.39-0.86
	c-0.26-0.24-0.63-0.36-1.11-0.36c-0.2,0-0.39,0.03-0.57,0.08c-0.18,0.06-0.33,0.13-0.46,0.23c-0.13,0.1-0.22,0.23-0.29,0.38
	c-0.07,0.15-0.1,0.32-0.1,0.49c0,0.31,0.13,0.57,0.38,0.77h-1.38v0.48h3.87V43H15.68L15.68,43z M13.83,42.78
	c-0.18-0.15-0.27-0.33-0.27-0.54c0-0.21,0.09-0.38,0.26-0.53c0.17-0.15,0.44-0.22,0.81-0.22c0.36,0,0.63,0.08,0.81,0.23
	c0.18,0.15,0.27,0.33,0.27,0.54c0,0.26-0.12,0.46-0.37,0.61c-0.15,0.09-0.39,0.14-0.73,0.14C14.27,43.01,14.01,42.93,13.83,42.78
	L13.83,42.78z M15.57,38.8c0.09,0.12,0.14,0.27,0.14,0.45c0,0.23-0.08,0.43-0.25,0.59c-0.16,0.16-0.4,0.24-0.71,0.26V38
	c-0.06,0-0.1,0-0.13,0c-0.46,0-0.82,0.12-1.08,0.36c-0.26,0.24-0.38,0.54-0.38,0.92c0,0.39,0.13,0.7,0.39,0.95
	c0.26,0.24,0.63,0.36,1.1,0.36c0.46,0,0.81-0.12,1.06-0.36c0.25-0.24,0.38-0.57,0.38-0.98c0-0.33-0.08-0.59-0.24-0.8
	c-0.16-0.21-0.38-0.35-0.67-0.43l-0.06,0.49C15.33,38.58,15.48,38.67,15.57,38.8L15.57,38.8z M13.77,39.82
	c-0.15-0.15-0.22-0.33-0.22-0.55c0-0.24,0.09-0.44,0.27-0.59c0.12-0.1,0.3-0.16,0.53-0.18v1.57C14.12,40.05,13.92,39.97,13.77,39.82
	L13.77,39.82z M15.63,36.57c0,0.07-0.01,0.12-0.03,0.16c-0.02,0.04-0.05,0.07-0.09,0.08c-0.04,0.02-0.13,0.03-0.26,0.03H13.6v-0.48
	h-0.37v0.48h-0.98l0.29,0.47h0.69v0.35h0.37v-0.35h1.61c0.29,0,0.47-0.02,0.56-0.06c0.09-0.04,0.16-0.11,0.22-0.2
	c0.05-0.1,0.08-0.23,0.08-0.4c0-0.11-0.01-0.23-0.04-0.36l-0.42,0.07C15.62,36.45,15.63,36.52,15.63,36.57L15.63,36.57L15.63,36.57z
	 M15.63,35.06c0,0.07-0.01,0.12-0.03,0.16c-0.02,0.04-0.05,0.07-0.09,0.08c-0.04,0.02-0.13,0.03-0.26,0.03H13.6v-0.48h-0.37v0.48
	h-0.98l0.29,0.47h0.69v0.35h0.37V35.8h1.61c0.29,0,0.47-0.02,0.56-0.06c0.09-0.04,0.16-0.11,0.22-0.2c0.05-0.1,0.08-0.23,0.08-0.4
	c0-0.11-0.01-0.23-0.04-0.36l-0.42,0.07C15.62,34.94,15.63,35.01,15.63,35.06L15.63,35.06L15.63,35.06z M15.57,32.75
	c0.09,0.12,0.14,0.27,0.14,0.45c0,0.23-0.08,0.43-0.25,0.59c-0.16,0.16-0.4,0.24-0.71,0.26v-2.09c-0.06,0-0.1,0-0.13,0
	c-0.46,0-0.82,0.12-1.08,0.36c-0.26,0.24-0.38,0.54-0.38,0.92c0,0.39,0.13,0.7,0.39,0.95c0.26,0.24,0.63,0.36,1.1,0.36
	c0.46,0,0.81-0.12,1.06-0.36c0.25-0.24,0.38-0.57,0.38-0.98c0-0.33-0.08-0.59-0.24-0.8c-0.16-0.21-0.38-0.35-0.67-0.43l-0.06,0.49
	C15.33,32.53,15.48,32.63,15.57,32.75L15.57,32.75z M13.77,33.77c-0.15-0.15-0.22-0.33-0.22-0.55c0-0.24,0.09-0.44,0.27-0.59
	c0.12-0.1,0.3-0.16,0.53-0.18v1.57C14.12,34,13.92,33.92,13.77,33.77L13.77,33.77z M16.03,30.89h-1.47c-0.2,0-0.39-0.03-0.55-0.08
	c-0.11-0.04-0.2-0.09-0.26-0.18c-0.06-0.08-0.09-0.18-0.09-0.28c0-0.12,0.03-0.23,0.1-0.35l-0.44-0.16
	c-0.1,0.17-0.15,0.33-0.15,0.49c0,0.11,0.03,0.21,0.1,0.31c0.06,0.09,0.19,0.19,0.39,0.3h-0.43v0.43h2.81V30.89L16.03,30.89z
	 M16.01,28.57c-0.44-0.18-0.9-0.27-1.38-0.27c-0.42,0-0.82,0.07-1.2,0.2c-0.45,0.16-0.89,0.4-1.33,0.73v0.34
	c0.37-0.21,0.63-0.36,0.79-0.43c0.24-0.11,0.5-0.19,0.76-0.25c0.33-0.08,0.65-0.11,0.99-0.11c0.85,0,1.69,0.26,2.54,0.79v-0.34
	C16.84,28.97,16.45,28.75,16.01,28.57L16.01,28.57z"/>
</svg>
