<?xml version="1.0" encoding="utf-8"?>
<!-- Generator: Adobe Illustrator 25.4.1, SVG Export Plug-In . SVG Version: 6.00 Build 0)  -->
<svg version="1.1" id="Layer_1" xmlns="http://www.w3.org/2000/svg" xmlns:xlink="http://www.w3.org/1999/xlink" x="0px" y="0px"
	 viewBox="0 0 1654 1511" style="enable-background:new 0 0 1654 1511;" xml:space="preserve">
<style type="text/css">
	.st0{fill:#E98693;stroke:#000000;stroke-width:1;stroke-miterlimit:3.9998;}
	.st1{fill:#1A1919;}
	.st2{font-family:'ArialMT';}
	.st3{font-size:13.9994px;}
	.st4{fill:#F9F9F9;stroke:#000000;stroke-width:1;stroke-miterlimit:3.9998;}
	.st5{fill:none;stroke:#DA2D4F;stroke-width:1.9999;stroke-miterlimit:3.9998;}
	.st6{fill:#DA2D4F;stroke:#DA2D4F;stroke-width:1.9999;stroke-miterlimit:3.9998;}
	.st7{fill:#3CB4A4;stroke:#000000;stroke-width:1;stroke-miterlimit:3.9998;}
	.st8{fill:#FFA500;stroke:#000000;stroke-width:1;stroke-miterlimit:3.9998;}
	.st9{fill:none;stroke:#3CB4A4;stroke-width:1;stroke-miterlimit:3.9998;}
	.st10{fill:#3CB4A4;stroke:#3CB4A4;stroke-width:1;stroke-miterlimit:3.9998;}
	.st11{fill:#3CB4A4;}
	.st12{fill:#D7EDE7;stroke:#000000;stroke-width:1;stroke-miterlimit:3.9998;}
	.st13{font-size:7.9997px;}
</style>
<g id="node1">
	<polygon class="st0" points="812.2,4 754.2,4 754.2,40 812.2,40 	"/>
	<text transform="matrix(1 0 0 1 762.5664 25.7307)" class="st1 st2 st3">0 Start</text>
</g>
<g id="node5">
	<polygon class="st4" points="867.2,85 775.2,85 775.2,121 867.2,121 	"/>
	<text transform="matrix(1 0 0 1 783.4355 106.7268)" class="st1 st2 st3">9339 Unbox</text>
</g>
<g id="edge102">
	<path class="st5" d="M791.4,40.2c5,10.3,11.4,23.8,17,35.4"/>
	<polygon class="st6" points="811.8,74.4 813,84.9 805.5,77.4 	"/>
</g>
<g id="node2">
	<polygon class="st7" points="156.2,85 93.7,103 156.2,121 218.7,103 	"/>
	<text transform="matrix(1 0 0 1 130.5215 106.7268)" class="st1 st2 st3">8829 ==</text>
</g>
<g id="node4">
	<polygon class="st8" points="790.7,172 533.7,172 533.7,208 790.7,208 	"/>
	<text transform="matrix(1 0 0 1 541.707 193.7239)" class="st1 st2 st3">9118 Guard, else TransferToInterpreter</text>
</g>
<g id="edge3">
	<path class="st9" d="M193.8,110.3c74.6,12.5,243.8,40.9,357.1,60"/>
	<polygon class="st10" points="551.7,166.9 561,172 550.5,173.8 	"/>
	<text transform="matrix(1 0 0 1 440.3086 150.2258)" class="st11 st2 st3">?</text>
</g>
<g id="node3">
	<polygon class="st0" points="164.2,1471 70.2,1471 70.2,1507 164.2,1507 	"/>
	<text transform="matrix(1 0 0 1 78.689 1492.6692)" class="st1 st2 st3">9103 Return</text>
</g>
<g id="node6">
	<polygon class="st4" points="707.2,253 615.2,253 615.2,289 707.2,289 	"/>
	<text transform="matrix(1 0 0 1 623.4424 274.72)" class="st1 st2 st3">9366 Unbox</text>
</g>
<g id="edge4">
	<path class="st5" d="M662,208.2c-0.1,10.1-0.3,23.2-0.4,34.7"/>
	<polygon class="st6" points="665,243 661.4,252.9 658,242.9 	"/>
</g>
<g id="edge5">
	<path class="st5" d="M789,121.2c-24.7,13.2-59.1,31.6-85.9,45.9"/>
	<polygon class="st6" points="704.5,170.4 694.1,172 701.2,164.2 	"/>
</g>
<g id="node22">
	<polygon class="st7" points="792.2,427 740.7,445 792.2,463 843.6,445 	"/>
	<text transform="matrix(1 0 0 1 772.3389 448.7131)" class="st1 st2 st3">9780 -</text>
</g>
<g id="edge107">
	<path class="st9" d="M821.2,121.3c0,17.2,0,44.3,0,67.7c0,0,0,0,0,170c0,21.8-8.6,45.1-16.5,61.8"/>
	<polygon class="st10" points="807.8,422.4 800.3,429.8 801.6,419.3 	"/>
	<text transform="matrix(1 0 0 1 821.1855 274.72)" class="st11 st2 st3">y</text>
</g>
<g id="node26">
	<polygon class="st7" points="1470.2,514 1417.9,532 1470.2,550 1522.4,532 	"/>
	<text transform="matrix(1 0 0 1 1449.917 535.7092)" class="st1 st2 st3">9820 *</text>
</g>
<g id="edge108">
	<path class="st9" d="M867.3,105.1c149.7,4.2,612.9,22,612.9,83.9c0,0,0,0,0,257c0,19.7-2.7,41.9-5.3,58.6"/>
	<polygon class="st10" points="1478.3,505.5 1473.2,514.8 1471.4,504.4 	"/>
	<text transform="matrix(1 0 0 1 1480.1572 318.218)" class="st11 st2 st3">x</text>
</g>
<g id="node28">
	<polygon class="st7" points="1092.2,514 1039.9,532 1092.2,550 1144.5,532 	"/>
	<text transform="matrix(1 0 0 1 1071.9336 535.7092)" class="st1 st2 st3">9822 *</text>
</g>
<g id="edge109">
	<path class="st9" d="M867.4,110.2c72,10.9,202.7,36.5,202.7,78.8c0,0,0,0,0,257c0,20.8,6.3,43.6,12.1,60.4"/>
	<polygon class="st10" points="1085.6,505.4 1085.8,516 1079.1,507.8 	"/>
	<text transform="matrix(1 0 0 1 1070.1748 318.218)" class="st11 st2 st3">x</text>
</g>
<g id="node30">
	<polygon class="st7" points="188.2,427 135.9,445 188.2,463 240.5,445 	"/>
	<text transform="matrix(1 0 0 1 167.9717 448.7131)" class="st1 st2 st3">9824 *</text>
</g>
<g id="edge110">
	<path class="st9" d="M775,105.3c-147.2,4.6-595.8,23.6-595.8,83.7c0,0,0,0,0,170c0,19.7,2.4,41.9,4.8,58.6"/>
	<polygon class="st10" points="187.5,417.4 185.5,427.8 180.5,418.4 	"/>
	<text transform="matrix(1 0 0 1 179.2119 274.72)" class="st11 st2 st3">x</text>
</g>
<g id="node7">
	<polygon class="st7" points="1271.2,340 1215,358 1271.2,376 1327.3,358 	"/>
	<text transform="matrix(1 0 0 1 1248.9805 361.7161)" class="st1 st2 st3">9368 &amp;</text>
</g>
<g id="edge7">
	<path class="st9" d="M707.2,284.1c46.7,11.7,121.3,29,186.9,37.9c137.6,18.6,174.8-3.7,312,18c9.1,1.4,18.8,3.6,27.9,5.9"/>
	<polygon class="st10" points="1235.2,342.6 1243.9,348.6 1233.3,349.4 	"/>
	<text transform="matrix(1 0 0 1 894.1816 318.218)" class="st11 st2 st3">x</text>
</g>
<g id="node9">
	<polygon class="st4" points="608.2,340 516.2,340 516.2,376 608.2,376 	"/>
	<text transform="matrix(1 0 0 1 524.4463 361.7161)" class="st1 st2 st3">9430 Unbox</text>
</g>
<g id="edge6">
	<path class="st5" d="M646.4,289.1c-9.1,10.1-21.3,22.8-33.2,32.9c-4.8,4.1-10.2,8.2-15.5,12"/>
	<polygon class="st6" points="599.6,337 589.4,339.8 595.6,331.2 	"/>
</g>
<g id="node12">
	<polygon class="st7" points="905.2,340 849,358 905.2,376 961.3,358 	"/>
	<text transform="matrix(1 0 0 1 882.9961 361.7161)" class="st1 st2 st3">9494 &amp;</text>
</g>
<g id="edge16">
	<path class="st9" d="M684.5,289.1c15.8,10.9,37.7,24.5,58.7,32.9c21,8.4,77.3,19.7,117.6,27.1"/>
	<polygon class="st10" points="861.5,345.7 870.7,351 860.2,352.6 	"/>
	<text transform="matrix(1 0 0 1 743.1885 318.218)" class="st11 st2 st3">x</text>
</g>
<g id="node16">
	<polygon class="st7" points="307.2,340 251.1,358 307.2,376 363.3,358 	"/>
	<text transform="matrix(1 0 0 1 285.0215 361.7161)" class="st1 st2 st3">9618 &amp;</text>
</g>
<g id="edge24">
	<path class="st9" d="M634.9,289.3c-21.5,14-48.8,31.7-51.7,32.7c-72.1,25.3-95.2,7.9-171,18c-19.9,2.7-41.9,6.1-60.5,9.2"/>
	<polygon class="st10" points="352.1,352.7 341.7,350.9 350.9,345.8 	"/>
	<text transform="matrix(1 0 0 1 607.1943 318.218)" class="st11 st2 st3">x</text>
</g>
<g id="node8">
	<polygon class="st7" points="1382.2,427 1312.5,445 1382.2,463 1451.9,445 	"/>
	<text transform="matrix(1 0 0 1 1352.3818 448.7131)" class="st1 st2 st3">9369 &gt;&gt;&gt;</text>
</g>
<g id="edge9">
	<path class="st9" d="M1270.9,376.2c0.7,10.6,3.4,23.9,11.3,32.8c11.8,13.3,29,21.6,45.9,26.7"/>
	<polygon class="st10" points="1329.1,432.4 1337.9,438.4 1327.3,439.2 	"/>
	<text transform="matrix(1 0 0 1 1282.5918 405.2141)" class="st11 st2 st3">x [0 - 16711680]</text>
</g>
<g id="edge43">
	<path class="st9" d="M1386,462.5c3.1,10.6,8.5,24.1,17.2,33.5c8.8,9.6,20.9,17,32.3,22.5"/>
	<polygon class="st10" points="1437.1,515.4 1444.9,522.6 1434.3,521.8 	"/>
	<text transform="matrix(1 0 0 1 1403.5332 492.2112)" class="st11 st2 st3">y [0 - 255]</text>
</g>
<g id="node10">
	<polygon class="st7" points="1154.2,427 1098,445 1154.2,463 1210.3,445 	"/>
	<text transform="matrix(1 0 0 1 1131.9863 448.7131)" class="st1 st2 st3">9431 &amp;</text>
</g>
<g id="edge12">
	<path class="st9" d="M608.2,374c3,0.8,6,1.5,9,2.1c74,15.2,94.1,8.5,169,18c45.5,5.8,56.5,9.1,102,15c72.3,9.3,90.8,8.1,163,18
		c19.3,2.7,40.5,6.1,58.7,9.2"/>
	<polygon class="st10" points="1110.6,432.8 1119.9,437.9 1109.5,439.6 	"/>
	<text transform="matrix(1 0 0 1 888.1826 405.2141)" class="st11 st2 st3">x</text>
</g>
<g id="node14">
	<polygon class="st7" points="666.2,427 610.1,445 666.2,463 722.3,445 	"/>
	<text transform="matrix(1 0 0 1 644.0068 448.7131)" class="st1 st2 st3">9556 &amp;</text>
</g>
<g id="edge20">
	<path class="st9" d="M583.2,376.2c17.3,14.2,41.9,34.2,59.8,48.9"/>
	<polygon class="st10" points="645.7,422.7 651.2,431.8 641.3,428.2 	"/>
	<text transform="matrix(1 0 0 1 621.1934 405.2141)" class="st11 st2 st3">x</text>
</g>
<g id="node17">
	<polygon class="st7" points="456.2,427 400.1,445 456.2,463 512.3,445 	"/>
	<text transform="matrix(1 0 0 1 434.0156 448.7131)" class="st1 st2 st3">9679 &amp;</text>
</g>
<g id="edge26">
	<path class="st9" d="M540.7,376.2c-17.8,14.3-43.2,34.6-61.4,49.3"/>
	<polygon class="st10" points="481.4,428.3 471.5,431.8 477.1,422.8 	"/>
	<text transform="matrix(1 0 0 1 516.1982 405.2141)" class="st11 st2 st3">x</text>
</g>
<g id="node56">
	<polygon class="st4" points="218.2,1384 16.2,1384 16.2,1420 218.2,1420 	"/>
	<text transform="matrix(1 0 0 1 24.5986 1405.6721)" class="st1 st2 st3">9854 BoxNode$AllocatingBox</text>
</g>
<g id="edge11">
	<path class="st5" d="M516.2,371.7c-5.4,1.5-10.8,2.9-16,4.3c-88.7,23.5-129.1-7.2-200,51c-26.3,21.6-5.5,49-33,69
		c-48.6,35.4-89.8-22.7-134,18c-49.3,45.5-32,80.4-32,147.5c0,0,0,0,0,654.5c0,19.6,4.1,41.3,8.2,57.8"/>
	<polygon class="st6" points="112.9,1373.3 112.1,1383.9 106.2,1375.1 	"/>
</g>
<g id="node11">
	<polygon class="st7" points="1232.2,514 1162.5,532 1232.2,550 1301.9,532 	"/>
	<text transform="matrix(1 0 0 1 1202.3887 535.7092)" class="st1 st2 st3">9432 &gt;&gt;&gt;</text>
</g>
<g id="edge14">
	<path class="st9" d="M1144.2,460.2c-6.1,10.6-11.4,25.1-4.1,35.8c8.9,12.9,23.3,21.1,38,26.2"/>
	<polygon class="st10" points="1179.4,518.9 1187.9,525.2 1177.3,525.6 	"/>
	<text transform="matrix(1 0 0 1 1140.5986 492.2112)" class="st11 st2 st3">x [0 - 16711680]</text>
</g>
<g id="node27">
	<polygon class="st7" points="1197.2,601 1144.9,619 1197.2,637 1249.4,619 	"/>
	<text transform="matrix(1 0 0 1 1176.9287 622.7053)" class="st1 st2 st3">9821 *</text>
</g>
<g id="edge44">
	<path class="st9" d="M1225.7,548.6c-5.2,12.6-12.6,30.6-18.6,45.1"/>
	<polygon class="st10" points="1210.4,595.2 1203.3,603.1 1203.9,592.5 	"/>
	<text transform="matrix(1 0 0 1 1216.541 579.2073)" class="st11 st2 st3">x [0 - 255]</text>
</g>
<g id="node13">
	<polygon class="st7" points="972.2,427 902.5,445 972.2,463 1041.9,445 	"/>
	<text transform="matrix(1 0 0 1 942.3994 448.7131)" class="st1 st2 st3">9495 &gt;&gt;&gt;</text>
</g>
<g id="edge18">
	<path class="st9" d="M900.7,375c-2,10.4-2.6,23.9,3.5,34c5.9,9.7,15.5,16.9,25.6,22"/>
	<polygon class="st10" points="931.5,428 939.2,435.3 928.6,434.4 	"/>
	<text transform="matrix(1 0 0 1 904.2676 405.2141)" class="st11 st2 st3">x [0 - 65280]</text>
</g>
<g id="edge46">
	<path class="st9" d="M975.4,462.4c2.9,10.9,8.3,24.7,17.7,33.6c9,8.5,36.6,17.9,60.3,24.8"/>
	<polygon class="st10" points="1054.7,517.5 1063.4,523.6 1052.8,524.3 	"/>
	<text transform="matrix(1 0 0 1 993.5508 492.2112)" class="st11 st2 st3">y [0 - 255]</text>
</g>
<g id="node15">
	<polygon class="st7" points="666.2,514 596.5,532 666.2,550 735.9,532 	"/>
	<text transform="matrix(1 0 0 1 636.4121 535.7092)" class="st1 st2 st3">9557 &gt;&gt;&gt;</text>
</g>
<g id="edge22">
	<path class="st9" d="M666.2,463.2c0,11.6,0,27.2,0,40.6"/>
	<polygon class="st10" points="669.7,503.8 666.2,513.8 662.7,503.8 	"/>
	<text transform="matrix(1 0 0 1 666.2783 492.2112)" class="st11 st2 st3">x [0 - 65280]</text>
</g>
<g id="node29">
	<polygon class="st7" points="772.2,601 719.9,619 772.2,637 824.5,619 	"/>
	<text transform="matrix(1 0 0 1 751.9473 622.7053)" class="st1 st2 st3">9823 *</text>
</g>
<g id="edge47">
	<path class="st9" d="M672.2,548.7c4.8,10.8,12.5,24.9,22.9,34.3c11.4,10.3,26.3,18,40,23.6"/>
	<polygon class="st10" points="736.7,603.4 744.9,610.2 734.3,610 	"/>
	<text transform="matrix(1 0 0 1 695.5625 579.2073)" class="st11 st2 st3">x [0 - 255]</text>
</g>
<g id="edge49">
	<path class="st9" d="M273.1,365.2c-19.4,5-43.2,13.8-59.9,28.8c-7.3,6.6-12.8,15.8-16.7,24.6"/>
	<polygon class="st10" points="199.7,420.1 192.7,428.1 193.2,417.5 	"/>
	<text transform="matrix(1 0 0 1 213.583 405.2141)" class="st11 st2 st3">y [0 - 255]</text>
</g>
<g id="node31">
	<polygon class="st7" points="439.2,514 386.9,532 439.2,550 491.5,532 	"/>
	<text transform="matrix(1 0 0 1 418.9609 535.7092)" class="st1 st2 st3">9825 *</text>
</g>
<g id="edge50">
	<path class="st9" d="M448,460.5c-3,6.1-6.1,13.5-7.7,20.5c-1.7,7.4-2.3,15.5-2.5,23"/>
	<polygon class="st10" points="441.2,504.1 437.8,514.1 434.2,504.2 	"/>
	<text transform="matrix(1 0 0 1 440.5732 492.2112)" class="st11 st2 st3">x [0 - 255]</text>
</g>
<g id="node18">
	<polygon class="st7" points="1016.2,1123 953.7,1141 1016.2,1159 1078.7,1141 	"/>
	<text transform="matrix(1 0 0 1 990.4854 1144.6838)" class="st1 st2 st3">9752 &lt;&lt;</text>
</g>
<g id="node20">
	<polygon class="st7" points="785.2,1210 734.6,1228 785.2,1246 835.8,1228 	"/>
	<text transform="matrix(1 0 0 1 765.8516 1231.6799)" class="st1 st2 st3">9756 |</text>
</g>
<g id="edge32">
	<path class="st9" d="M990.1,1151.6c-42.2,15.5-125.5,46.2-171.8,63.2"/>
	<polygon class="st10" points="819.3,1218.2 808.7,1218.3 816.9,1211.6 	"/>
	<text transform="matrix(1 0 0 1 914.5879 1188.1819)" class="st11 st2 st3">x [0 - 33423360]</text>
</g>
<g id="node19">
	<polygon class="st7" points="785.2,1123 722.7,1141 785.2,1159 847.7,1141 	"/>
	<text transform="matrix(1 0 0 1 759.4951 1144.6838)" class="st1 st2 st3">9755 &lt;&lt;</text>
</g>
<g id="edge33">
	<path class="st9" d="M785.2,1159.2c0,11.6,0,27.2,0,40.6"/>
	<polygon class="st10" points="788.7,1199.8 785.2,1209.8 781.7,1199.8 	"/>
	<text transform="matrix(1 0 0 1 785.3799 1188.1819)" class="st11 st2 st3">y [0 - 130560]</text>
</g>
<g id="node21">
	<polygon class="st7" points="332.2,1297 281.6,1315 332.2,1333 382.8,1315 	"/>
	<text transform="matrix(1 0 0 1 312.8711 1318.676)" class="st1 st2 st3">9757 |</text>
</g>
<g id="edge34">
	<path class="st9" d="M753.7,1234.9c-79.8,15-290,54.4-379.8,71.3"/>
	<polygon class="st10" points="374.3,1309.6 363.8,1308 373,1302.8 	"/>
	<text transform="matrix(1 0 0 1 586.6025 1275.178)" class="st11 st2 st3">x [0 - 33554176]</text>
</g>
<g id="edge100">
	<path class="st9" d="M309.2,1325.1c-33,13-94.7,37.4-139.3,55.1"/>
	<polygon class="st10" points="171,1383.5 160.4,1383.9 168.4,1377 	"/>
	<text transform="matrix(1 0 0 1 238.3828 1362.1741)" class="st11 st2 st3">value [0 - 33554431]</text>
</g>
<g id="edge45">
	<path class="st9" d="M816,454.8c29,11.2,78.6,32.5,116.1,59.2c18.4,13.1,16.6,24.4,36,36c58.1,34.6,135.1,52.7,183.3,61.3"/>
	<polygon class="st10" points="1152.4,607.9 1161.6,613 1151.2,614.8 	"/>
	<text transform="matrix(1 0 0 1 968.5518 535.7092)" class="st11 st2 st3">y [0 - 255]</text>
</g>
<g id="edge48">
	<path class="st9" d="M789.2,462.2c-2.4,13.7-5.8,34-8,51.8c-3.2,26-5.7,55.9-7.2,76.9"/>
	<polygon class="st10" points="777.5,591.3 773.3,601 770.5,590.8 	"/>
	<text transform="matrix(1 0 0 1 781.5596 535.7092)" class="st11 st2 st3">y [0 - 255]</text>
</g>
<g id="edge51">
	<path class="st9" d="M766.6,454.2c-10.8,3.2-23.6,6.6-35.4,8.8c-82.5,15.3-107.1-4.5-188,18c-15,4.2-50,21.7-75.3,34.8"/>
	<polygon class="st10" points="469.3,519 458.8,520.6 466,512.8 	"/>
	<text transform="matrix(1 0 0 1 543.5693 492.2112)" class="st11 st2 st3">y [0 - 255]</text>
</g>
<g id="node23">
	<polygon class="st7" points="1235.2,1036 1179.9,1054 1235.2,1072 1290.5,1054 	"/>
	<text transform="matrix(1 0 0 1 1213.5635 1057.6868)" class="st1 st2 st3">9781 +</text>
</g>
<g id="edge28">
	<path class="st9" d="M1211.3,1064.2c-38.7,15-115.5,44.8-160.4,62.2"/>
	<polygon class="st10" points="1051.9,1129.9 1041.3,1130.2 1049.4,1123.3 	"/>
	<text transform="matrix(1 0 0 1 1138.5439 1101.1848)" class="st11 st2 st3">x [0 - 510]</text>
</g>
<g id="node24">
	<polygon class="st7" points="853.2,1036 797.9,1054 853.2,1072 908.5,1054 	"/>
	<text transform="matrix(1 0 0 1 831.5801 1057.6868)" class="st1 st2 st3">9782 +</text>
</g>
<g id="edge30">
	<path class="st9" d="M842.3,1068.6c-10.6,13.3-27,33.7-39.5,49.3"/>
	<polygon class="st10" points="805.3,1120.5 796.3,1126.1 799.8,1116.1 	"/>
	<text transform="matrix(1 0 0 1 824.5576 1101.1848)" class="st11 st2 st3">x [0 - 510]</text>
</g>
<g id="node25">
	<polygon class="st7" points="332.2,949 276.9,967 332.2,985 387.5,967 	"/>
	<text transform="matrix(1 0 0 1 310.6016 970.6907)" class="st1 st2 st3">9783 +</text>
</g>
<g id="edge35">
	<path class="st9" d="M332.2,985.3c0,17.2,0,44.3,0,67.7c0,0,0,0,0,176c0,19.2,0,40.9,0,57.6"/>
	<polygon class="st10" points="335.7,1286.7 332.2,1296.7 328.7,1286.7 	"/>
	<text transform="matrix(1 0 0 1 332.5781 1144.6838)" class="st11 st2 st3">y [0 - 510]</text>
</g>
<g id="node32">
	<polygon class="st7" points="1427.2,601 1371.9,619 1427.2,637 1482.5,619 	"/>
	<text transform="matrix(1 0 0 1 1405.5557 622.7053)" class="st1 st2 st3">9827 +</text>
</g>
<g id="edge52">
	<path class="st9" d="M1462.7,547.8c-6.5,12.8-15.9,31.5-23.5,46.4"/>
	<polygon class="st10" points="1442.2,596 1434.6,603.4 1435.9,592.9 	"/>
	<text transform="matrix(1 0 0 1 1451.2451 579.2073)" class="st11 st2 st3">x [0 - 65025]</text>
</g>
<g id="node33">
	<polygon class="st7" points="1205.2,688 1149.9,706 1205.2,724 1260.5,706 	"/>
	<text transform="matrix(1 0 0 1 1183.5645 709.7014)" class="st1 st2 st3">9828 +</text>
</g>
<g id="edge54">
	<path class="st9" d="M1198.7,636.8c1.1,11.8,2.6,27.7,3.9,41.2"/>
	<polygon class="st10" points="1206.1,678 1203.6,688.2 1199.2,678.6 	"/>
	<text transform="matrix(1 0 0 1 1201.2559 666.2034)" class="st11 st2 st3">x [0 - 65025]</text>
</g>
<g id="node34">
	<polygon class="st7" points="971.2,601 915.9,619 971.2,637 1026.5,619 	"/>
	<text transform="matrix(1 0 0 1 949.5742 622.7053)" class="st1 st2 st3">9829 +</text>
</g>
<g id="edge56">
	<path class="st9" d="M1075.9,544.5c-20.4,14.4-55.7,39.1-79.6,55.9"/>
	<polygon class="st10" points="998.2,603.3 988,606.2 994.2,597.6 	"/>
	<text transform="matrix(1 0 0 1 1038.2627 579.2073)" class="st11 st2 st3">x [0 - 65025]</text>
</g>
<g id="node35">
	<polygon class="st7" points="776.2,688 720.9,706 776.2,724 831.5,706 	"/>
	<text transform="matrix(1 0 0 1 754.583 709.7014)" class="st1 st2 st3">9830 +</text>
</g>
<g id="edge58">
	<path class="st9" d="M772.2,637.1c0.1,9.7,0.4,21.9,0.9,32.9c0.1,2.6,0.3,5.3,0.5,8"/>
	<polygon class="st10" points="777.2,678 774.5,688.3 770.2,678.6 	"/>
	<text transform="matrix(1 0 0 1 773.2734 666.2034)" class="st11 st2 st3">x [0 - 65025]</text>
</g>
<g id="node36">
	<polygon class="st7" points="197.2,514 141.9,532 197.2,550 252.5,532 	"/>
	<text transform="matrix(1 0 0 1 175.6074 535.7092)" class="st1 st2 st3">9831 +</text>
</g>
<g id="edge60">
	<path class="st9" d="M190,462.8c1.2,11.8,2.9,27.9,4.4,41.5"/>
	<polygon class="st10" points="197.9,504.2 195.5,514.5 190.9,505 	"/>
	<text transform="matrix(1 0 0 1 194.2979 492.2112)" class="st11 st2 st3">x [0 - 65025]</text>
</g>
<g id="node37">
	<polygon class="st7" points="544.2,601 488.9,619 544.2,637 599.5,619 	"/>
	<text transform="matrix(1 0 0 1 522.5928 622.7053)" class="st1 st2 st3">9832 +</text>
</g>
<g id="edge62">
	<path class="st9" d="M443.2,548.8c3.4,10.8,9.4,24.9,19,34.2c11.5,11.2,27.2,19.1,41.8,24.5"/>
	<polygon class="st10" points="505.5,604.3 513.8,610.9 503.3,611 	"/>
	<text transform="matrix(1 0 0 1 462.2871 579.2073)" class="st11 st2 st3">x [0 - 65025]</text>
</g>
<g id="node38">
	<polygon class="st7" points="1580.2,688 1510.4,706 1580.2,724 1649.9,706 	"/>
	<text transform="matrix(1 0 0 1 1550.373 709.7014)" class="st1 st2 st3">9833 &gt;&gt;&gt;</text>
</g>
<g id="edge64">
	<path class="st9" d="M1439.1,633.5c10.4,11.1,26.5,26.5,43.1,36.5c16.7,10,36.7,17.8,54.3,23.5"/>
	<polygon class="st10" points="1538,690.3 1546.5,696.6 1535.9,697 	"/>
	<text transform="matrix(1 0 0 1 1482.457 666.2034)" class="st11 st2 st3">x [128 - 65153]</text>
</g>
<g id="node39">
	<polygon class="st7" points="1534.2,775 1478.9,793 1534.2,811 1589.5,793 	"/>
	<text transform="matrix(1 0 0 1 1512.5508 796.6985)" class="st1 st2 st3">9835 +</text>
</g>
<g id="edge66">
	<path class="st9" d="M1418.4,634.6c-11.5,21.2-28.3,61.1-11.3,89.4c18.5,30.9,56.5,48.6,86.1,58.1"/>
	<polygon class="st10" points="1494.4,778.8 1502.9,785 1492.3,785.5 	"/>
	<text transform="matrix(1 0 0 1 1407.4609 709.7014)" class="st11 st2 st3">x [128 - 65153]</text>
</g>
<g id="node40">
	<polygon class="st7" points="1319.2,775 1249.5,793 1319.2,811 1388.9,793 	"/>
	<text transform="matrix(1 0 0 1 1289.3848 796.6985)" class="st1 st2 st3">9836 &gt;&gt;&gt;</text>
</g>
<g id="edge68">
	<path class="st9" d="M1207.1,723.8c2.1,10.8,6.3,24.3,15.1,33.2c12.2,12.5,29.3,20.5,45.7,25.7"/>
	<polygon class="st10" points="1269.2,779.5 1277.9,785.6 1267.3,786.2 	"/>
	<text transform="matrix(1 0 0 1 1222.4688 753.2004)" class="st11 st2 st3">x [128 - 65153]</text>
</g>
<g id="node41">
	<polygon class="st7" points="1169.2,862 1113.9,880 1169.2,898 1224.5,880 	"/>
	<text transform="matrix(1 0 0 1 1147.5664 883.6946)" class="st1 st2 st3">9837 +</text>
</g>
<g id="edge70">
	<path class="st9" d="M1189.6,719.1c-14.4,12.3-34.8,32.8-43.5,55.9c-10,26.7,0.4,59,10.3,80.5"/>
	<polygon class="st10" points="1159.6,854 1160.9,864.5 1153.3,857.1 	"/>
	<text transform="matrix(1 0 0 1 1146.4717 796.6985)" class="st11 st2 st3">x [128 - 65153]</text>
</g>
<g id="node42">
	<polygon class="st7" points="929.2,688 859.5,706 929.2,724 998.9,706 	"/>
	<text transform="matrix(1 0 0 1 899.4014 709.7014)" class="st1 st2 st3">9838 &gt;&gt;&gt;</text>
</g>
<g id="edge72">
	<path class="st9" d="M952,631.2c-8.3,5.9-17.1,14-21.8,23.8c-3.4,7.1-4.5,15.5-4.5,23.3"/>
	<polygon class="st10" points="929.2,678.3 926.2,688.5 922.2,678.7 	"/>
	<text transform="matrix(1 0 0 1 930.4805 666.2034)" class="st11 st2 st3">x [128 - 65153]</text>
</g>
<g id="node43">
	<polygon class="st7" points="1041.2,775 985.9,793 1041.2,811 1096.5,793 	"/>
	<text transform="matrix(1 0 0 1 1019.5713 796.6985)" class="st1 st2 st3">9839 +</text>
</g>
<g id="edge74">
	<path class="st9" d="M994.2,629.6c10.9,5.7,22.9,14.1,29.9,25.4c20.8,33.6,21.9,80.8,20,110.1"/>
	<polygon class="st10" points="1047.6,765.7 1043.3,775.4 1040.6,765.1 	"/>
	<text transform="matrix(1 0 0 1 1043.4756 709.7014)" class="st11 st2 st3">x [128 - 65153]</text>
</g>
<g id="node44">
	<polygon class="st7" points="693.2,775 623.5,793 693.2,811 762.9,793 	"/>
	<text transform="matrix(1 0 0 1 663.4111 796.6985)" class="st1 st2 st3">9840 &gt;&gt;&gt;</text>
</g>
<g id="edge76">
	<path class="st9" d="M741.4,712.8c-17.2,4.8-36.6,13.5-47.2,29.2c-4.6,6.9-6,15.6-5.8,23.8"/>
	<polygon class="st10" points="691.9,765.5 689.3,775.8 684.9,766.1 	"/>
	<text transform="matrix(1 0 0 1 694.4902 753.2004)" class="st11 st2 st3">x [128 - 65153]</text>
</g>
<g id="node45">
	<polygon class="st7" points="800.2,862 744.9,880 800.2,898 855.5,880 	"/>
	<text transform="matrix(1 0 0 1 778.582 883.6946)" class="st1 st2 st3">9841 +</text>
</g>
<g id="edge78">
	<path class="st9" d="M782.3,722.1c2.2,6.1,4.5,13.2,5.9,19.9c7.9,37.5,10.6,81.9,11.5,109.8"/>
	<polygon class="st10" points="803.2,851.8 800,861.9 796.2,852 	"/>
	<text transform="matrix(1 0 0 1 798.4863 796.6985)" class="st11 st2 st3">x [128 - 65153]</text>
</g>
<g id="node46">
	<polygon class="st7" points="329.2,601 259.5,619 329.2,637 398.9,619 	"/>
	<text transform="matrix(1 0 0 1 299.4268 622.7053)" class="st1 st2 st3">9842 &gt;&gt;&gt;</text>
</g>
<g id="edge80">
	<path class="st9" d="M204.2,548c5.8,11.1,15.1,25.7,27,35c14.7,11.4,33.4,19.2,50.5,24.6"/>
	<polygon class="st10" points="282.9,604.3 291.6,610.5 281,611 	"/>
	<text transform="matrix(1 0 0 1 231.5107 579.2073)" class="st11 st2 st3">x [128 - 65153]</text>
</g>
<g id="node47">
	<polygon class="st7" points="287.2,688 231.9,706 287.2,724 342.5,706 	"/>
	<text transform="matrix(1 0 0 1 265.6035 709.7014)" class="st1 st2 st3">9843 +</text>
</g>
<g id="edge82">
	<path class="st9" d="M184.6,546.1c-18,20.4-46.8,60.5-28.4,90.9c19.2,31.6,58.3,49.2,88.8,58.5"/>
	<polygon class="st10" points="246.4,692.2 255,698.3 244.5,699 	"/>
	<text transform="matrix(1 0 0 1 156.5137 622.7053)" class="st11 st2 st3">x [128 - 65153]</text>
</g>
<g id="node48">
	<polygon class="st7" points="431.2,688 361.5,706 431.2,724 500.9,706 	"/>
	<text transform="matrix(1 0 0 1 401.4219 709.7014)" class="st1 st2 st3">9844 &gt;&gt;&gt;</text>
</g>
<g id="edge84">
	<path class="st9" d="M514.9,627.5c-30.8,8.2-75.6,20.9-80.7,27.5c-5.1,6.6-6.8,15.2-7,23.4"/>
	<polygon class="st10" points="430.7,678.3 427.8,688.5 423.8,678.7 	"/>
	<text transform="matrix(1 0 0 1 434.502 666.2034)" class="st11 st2 st3">x [128 - 65153]</text>
</g>
<g id="node49">
	<polygon class="st7" points="433.2,775 377.9,793 433.2,811 488.5,793 	"/>
	<text transform="matrix(1 0 0 1 411.5977 796.6985)" class="st1 st2 st3">9845 +</text>
</g>
<g id="edge86">
	<path class="st9" d="M542.9,636.7c-3,27.9-12.6,84.6-42.7,120.3c-8.2,9.7-19.8,17.1-31,22.5"/>
	<polygon class="st10" points="470.5,782.8 459.9,783.6 467.6,776.4 	"/>
	<text transform="matrix(1 0 0 1 533.4971 709.7014)" class="st11 st2 st3">x [128 - 65153]</text>
</g>
<g id="edge67">
	<path class="st9" d="M1571.9,722.2c-6.9,12.8-17,31.5-25,46.2"/>
	<polygon class="st10" points="1549.8,770.4 1542,777.5 1543.7,767 	"/>
	<text transform="matrix(1 0 0 1 1559.5264 753.2004)" class="st11 st2 st3">y [0 - 254]</text>
</g>
<g id="node50">
	<polygon class="st7" points="1434.2,862 1364.5,880 1434.2,898 1503.9,880 	"/>
	<text transform="matrix(1 0 0 1 1404.3799 883.6946)" class="st1 st2 st3">9846 &gt;&gt;&gt;</text>
</g>
<g id="edge88">
	<path class="st9" d="M1519.4,806.5c-16.3,13.9-42.9,36.5-62.1,52.8"/>
	<polygon class="st10" points="1459.5,862 1449.6,865.8 1455,856.7 	"/>
	<text transform="matrix(1 0 0 1 1489.457 840.1965)" class="st11 st2 st3">x [128 - 65407]</text>
</g>
<g id="edge71">
	<path class="st9" d="M1298.3,805.8c-26.3,14.9-71.6,40.6-101,57.2"/>
	<polygon class="st10" points="1198.8,866.2 1188.4,868.1 1195.4,860.1 	"/>
	<text transform="matrix(1 0 0 1 1252.5391 840.1965)" class="st11 st2 st3">y [0 - 254]</text>
</g>
<g id="node51">
	<polygon class="st7" points="1235.2,949 1165.5,967 1235.2,985 1304.9,967 	"/>
	<text transform="matrix(1 0 0 1 1205.3877 970.6907)" class="st1 st2 st3">9847 &gt;&gt;&gt;</text>
</g>
<g id="edge90">
	<path class="st9" d="M1163.8,896.6c-2.6,10.5-3.9,24.2,2.3,34.4c6.1,10,16.1,17.3,26.6,22.5"/>
	<polygon class="st10" points="1194.3,950.3 1202.1,957.5 1191.5,956.7 	"/>
	<text transform="matrix(1 0 0 1 1166.4707 927.1926)" class="st11 st2 st3">x [128 - 65407]</text>
</g>
<g id="edge75">
	<path class="st9" d="M935.9,722.3c5.5,10.9,14.1,25.2,25.2,34.7c12.1,10.3,27.7,18.1,41.9,23.6"/>
	<polygon class="st10" points="1004.4,777.4 1012.6,784.1 1002,783.9 	"/>
	<text transform="matrix(1 0 0 1 961.5518 753.2004)" class="st11 st2 st3">y [0 - 254]</text>
</g>
<g id="node52">
	<polygon class="st7" points="943.2,862 873.5,880 943.2,898 1012.9,880 	"/>
	<text transform="matrix(1 0 0 1 913.4004 883.6946)" class="st1 st2 st3">9848 &gt;&gt;&gt;</text>
</g>
<g id="edge92">
	<path class="st9" d="M1026.7,806.5c-16,13.8-41.8,36.3-60.6,52.5"/>
	<polygon class="st10" points="968.2,861.9 958.3,865.8 963.6,856.6 	"/>
	<text transform="matrix(1 0 0 1 997.4775 840.1965)" class="st11 st2 st3">x [128 - 65407]</text>
</g>
<g id="edge79">
	<path class="st9" d="M700.3,809.6c5.5,10.8,14.1,24.9,24.9,34.4c11.1,9.7,25.4,17.3,38.6,22.9"/>
	<polygon class="st10" points="765.1,863.6 773.1,870.6 762.5,870.1 	"/>
	<text transform="matrix(1 0 0 1 725.5615 840.1965)" class="st11 st2 st3">y [0 - 254]</text>
</g>
<g id="node53">
	<polygon class="st7" points="800.2,949 730.5,967 800.2,985 869.9,967 	"/>
	<text transform="matrix(1 0 0 1 770.4062 970.6907)" class="st1 st2 st3">9849 &gt;&gt;&gt;</text>
</g>
<g id="edge94">
	<path class="st9" d="M800.2,898.2c0,11.6,0,27.2,0,40.6"/>
	<polygon class="st10" points="803.7,938.8 800.2,948.8 796.7,938.8 	"/>
	<text transform="matrix(1 0 0 1 800.4863 927.1926)" class="st11 st2 st3">x [128 - 65407]</text>
</g>
<g id="edge83">
	<path class="st9" d="M321.7,635.2c-6.3,12.8-15.4,31.2-22.7,46"/>
	<polygon class="st10" points="302.1,682.8 294.5,690.2 295.8,679.7 	"/>
	<text transform="matrix(1 0 0 1 311.5791 666.2034)" class="st11 st2 st3">y [0 - 254]</text>
</g>
<g id="node54">
	<polygon class="st7" points="286.2,775 216.5,793 286.2,811 355.9,793 	"/>
	<text transform="matrix(1 0 0 1 256.4277 796.6985)" class="st1 st2 st3">9850 &gt;&gt;&gt;</text>
</g>
<g id="edge96">
	<path class="st9" d="M287,724.2c-0.1,11.6-0.3,27.2-0.5,40.6"/>
	<polygon class="st10" points="290,764.9 286.4,774.8 283,764.8 	"/>
	<text transform="matrix(1 0 0 1 287.5078 753.2004)" class="st11 st2 st3">x [128 - 65407]</text>
</g>
<g id="edge87">
	<path class="st9" d="M431.6,724.2c0.3,11.7,0.6,27.5,1,40.8"/>
	<polygon class="st10" points="436.1,765 432.8,775.1 429.1,765.2 	"/>
	<text transform="matrix(1 0 0 1 433.5742 753.2004)" class="st11 st2 st3">y [0 - 254]</text>
</g>
<g id="node55">
	<polygon class="st7" points="437.2,862 367.5,880 437.2,898 506.9,880 	"/>
	<text transform="matrix(1 0 0 1 407.4219 883.6946)" class="st1 st2 st3">9851 &gt;&gt;&gt;</text>
</g>
<g id="edge98">
	<path class="st9" d="M433.3,811.1c0.1,9.7,0.4,21.9,0.9,32.9c0.1,2.6,0.3,5.3,0.5,8"/>
	<polygon class="st10" points="438.2,852 435.5,862.3 431.2,852.6 	"/>
	<text transform="matrix(1 0 0 1 434.502 840.1965)" class="st11 st2 st3">x [128 - 65407]</text>
</g>
<g id="edge37">
	<path class="st9" d="M1423,895.3c-21.3,26.6-70.1,84.7-120.9,122.7c-10.7,8-23.4,15.1-34.9,20.9"/>
	<polygon class="st10" points="1268.5,1042.2 1258,1043.3 1265.5,1035.8 	"/>
	<text transform="matrix(1 0 0 1 1375.5342 970.6907)" class="st11 st2 st3">x [0 - 255]</text>
</g>
<g id="edge38">
	<path class="st9" d="M1235.2,985.2c0,11.6,0,27.2,0,40.6"/>
	<polygon class="st10" points="1238.7,1025.8 1235.2,1035.8 1231.7,1025.8 	"/>
	<text transform="matrix(1 0 0 1 1235.54 1014.1887)" class="st11 st2 st3">y [0 - 255]</text>
</g>
<g id="edge39">
	<path class="st9" d="M940.8,897.6c-4.6,27.2-16.8,82.2-43.6,120.4c-4.5,6.5-10.6,12.4-16.8,17.4"/>
	<polygon class="st10" points="882.1,1038.5 872,1041.7 877.9,1032.9 	"/>
	<text transform="matrix(1 0 0 1 928.5527 970.6907)" class="st11 st2 st3">x [0 - 255]</text>
</g>
<g id="edge40">
	<path class="st9" d="M809.4,982.8c8.1,13,20,32.1,29.4,47.1"/>
	<polygon class="st10" points="841.9,1028.3 844.2,1038.6 836,1032 	"/>
	<text transform="matrix(1 0 0 1 830.5576 1014.1887)" class="st11 st2 st3">y [0 - 255]</text>
</g>
<g id="edge41">
	<path class="st9" d="M285.6,811c-0.3,20.9,0.7,57.3,9.6,87c4.9,16.2,13.8,32.8,21.7,45.6"/>
	<polygon class="st10" points="320,941.9 322.4,952.2 314.1,945.6 	"/>
	<text transform="matrix(1 0 0 1 295.5801 883.6946)" class="st11 st2 st3">x [0 - 255]</text>
</g>
<g id="edge42">
	<path class="st9" d="M421.3,893.9c-17.6,14.2-46,37.2-66,53.4"/>
	<polygon class="st10" points="357.3,950.2 347.3,953.8 352.8,944.8 	"/>
	<text transform="matrix(1 0 0 1 391.5762 927.1926)" class="st11 st2 st3">y [0 - 255]</text>
</g>
<g id="edge2">
	<path class="st9" d="M102.5,1420c-3.8,5.4-7.3,11.6-9.3,17.9c-2.5,8.1-0.4,16.6,3.3,24.2"/>
	<polygon class="st10" points="99.7,1460.5 101.8,1470.9 93.7,1464.1 	"/>
	<text transform="matrix(1 0 0 1 93.5986 1449.1702)" class="st11 st2 st3">result</text>
</g>
<g id="edge101">
	<path class="st5" d="M124.2,1420c3.1,9.6,5.8,21.9,4.1,33c-0.4,2.7-1,5.4-1.7,8.2"/>
	<polygon class="st6" points="129.9,1462.1 123.8,1470.8 123.2,1460.2 	"/>
</g>
<g id="node57">
	<ellipse class="st12" cx="90.2" cy="22" rx="86.4" ry="18"/>
	<text transform="matrix(1 0 0 1 22.3438 23.9309)" class="st1 st2 st13">2406 C(RubyBasicObject@442ca509)</text>
</g>
<g id="edge1">
	<path class="st9" d="M104.5,40.2c12,14.3,28.9,34.5,40,47.9"/>
	<text transform="matrix(1 0 0 1 125.2148 64.4289)" class="st11 st2 st13">y</text>
</g>
<g id="node58">
	<ellipse class="st12" cx="1271.2" cy="271" rx="47.2" ry="18"/>
	<text transform="matrix(1 0 0 1 1238.1045 272.9202)" class="st1 st2 st13">9367 C(16711680)</text>
</g>
<g id="edge8">
	<path class="st9" d="M1271.2,289.2c0,14.7,0,35.9,0,50.6"/>
	<text transform="matrix(1 0 0 1 1271.166 316.4182)" class="st11 st2 st13">y</text>
</g>
<g id="node59">
	<ellipse class="st12" cx="1395.2" cy="358" rx="32.2" ry="18"/>
	<text transform="matrix(1 0 0 1 1375.1504 359.9163)" class="st1 st2 st13">9361 C(16)</text>
</g>
<g id="edge10">
	<path class="st9" d="M1392.5,376.2c-2.3,14.9-5.6,36.4-7.8,51.2"/>
	<text transform="matrix(1 0 0 1 1389.1611 403.4143)" class="st11 st2 st13">y</text>
</g>
<g id="node60">
	<ellipse class="st12" cx="1150.2" cy="358" rx="47.2" ry="18"/>
	<text transform="matrix(1 0 0 1 1117.1104 359.9163)" class="st1 st2 st13">9367 C(16711680)</text>
</g>
<g id="edge13">
	<path class="st9" d="M1151,376.2c0.7,14.8,1.7,36.2,2.4,50.9"/>
	<text transform="matrix(1 0 0 1 1152.1709 403.4143)" class="st11 st2 st13">y</text>
</g>
<g id="node61">
	<ellipse class="st12" cx="1262.2" cy="445" rx="32.2" ry="18"/>
	<text transform="matrix(1 0 0 1 1242.1553 446.9133)" class="st1 st2 st13">9361 C(16)</text>
</g>
<g id="edge15">
	<path class="st9" d="M1256.2,462.8c-5.4,15.3-13.3,37.7-18.6,52.6"/>
	<text transform="matrix(1 0 0 1 1248.167 490.4114)" class="st11 st2 st13">y</text>
</g>
<g id="node62">
	<ellipse class="st12" cx="905.2" cy="271" rx="39.9" ry="18"/>
	<text transform="matrix(1 0 0 1 878.4971 272.9202)" class="st1 st2 st13">9493 C(65280)</text>
</g>
<g id="edge17">
	<path class="st9" d="M905.2,289.2c0,14.7,0,35.9,0,50.6"/>
	<text transform="matrix(1 0 0 1 905.1816 316.4182)" class="st11 st2 st13">y</text>
</g>
<g id="node63">
	<ellipse class="st12" cx="1006.2" cy="358" rx="27.5" ry="18"/>
	<text transform="matrix(1 0 0 1 990.6152 359.9163)" class="st1 st2 st13">175 C(8)</text>
</g>
<g id="edge19">
	<path class="st9" d="M999.5,375.8c-6.1,15.3-15.1,37.7-21,52.6"/>
	<text transform="matrix(1 0 0 1 991.1777 403.4143)" class="st11 st2 st13">y</text>
</g>
<g id="node64">
	<ellipse class="st12" cx="666.2" cy="358" rx="39.9" ry="18"/>
	<text transform="matrix(1 0 0 1 639.5068 359.9163)" class="st1 st2 st13">9493 C(65280)</text>
</g>
<g id="edge21">
	<path class="st9" d="M666.2,376.2c0,14.7,0,35.9,0,50.6"/>
	<text transform="matrix(1 0 0 1 666.1914 403.4143)" class="st11 st2 st13">y</text>
</g>
<g id="node65">
	<ellipse class="st12" cx="565.2" cy="445" rx="27.5" ry="18"/>
	<text transform="matrix(1 0 0 1 549.6338 446.9133)" class="st1 st2 st13">175 C(8)</text>
</g>
<g id="edge23">
	<path class="st9" d="M581.4,459.7c19.1,16,50.5,42.5,69.2,58.3"/>
	<text transform="matrix(1 0 0 1 622.1934 490.4114)" class="st11 st2 st13">y</text>
</g>
<g id="node66">
	<ellipse class="st12" cx="307.2" cy="271" rx="34.7" ry="18"/>
	<text transform="matrix(1 0 0 1 284.9717 272.9202)" class="st1 st2 st13">1318 C(255)</text>
</g>
<g id="edge25">
	<path class="st9" d="M307.2,289.2c0,14.7,0,35.9,0,50.6"/>
	<text transform="matrix(1 0 0 1 307.207 316.4182)" class="st11 st2 st13">y</text>
</g>
<g id="node67">
	<ellipse class="st12" cx="456.2" cy="358" rx="34.7" ry="18"/>
	<text transform="matrix(1 0 0 1 433.9648 359.9163)" class="st1 st2 st13">1318 C(255)</text>
</g>
<g id="edge27">
	<path class="st9" d="M456.2,376.2c0,14.7,0,35.9,0,50.6"/>
	<text transform="matrix(1 0 0 1 456.2002 403.4143)" class="st11 st2 st13">y</text>
</g>
<g id="node68">
	<ellipse class="st12" cx="1016.2" cy="1054" rx="32.2" ry="18"/>
	<text transform="matrix(1 0 0 1 996.166 1055.887)" class="st1 st2 st13">9361 C(16)</text>
</g>
<g id="edge29">
	<path class="st9" d="M1016.2,1072.2c0,14.7,0,35.9,0,50.6"/>
	<text transform="matrix(1 0 0 1 1016.1768 1099.385)" class="st11 st2 st13">y</text>
</g>
<g id="node69">
	<ellipse class="st12" cx="753.2" cy="1054" rx="27.5" ry="18"/>
	<text transform="matrix(1 0 0 1 737.626 1055.887)" class="st1 st2 st13">175 C(8)</text>
</g>
<g id="edge31">
	<path class="st9" d="M759.5,1071.8c5.8,15.3,14.2,37.7,19.8,52.6"/>
	<text transform="matrix(1 0 0 1 771.1875 1099.385)" class="st11 st2 st13">y</text>
</g>
<g id="node70">
	<ellipse class="st12" cx="758.2" cy="358" rx="34.7" ry="18"/>
	<text transform="matrix(1 0 0 1 735.9521 359.9163)" class="st1 st2 st13">1318 C(255)</text>
</g>
<g id="edge36">
	<path class="st9" d="M764.9,375.8c6.2,15.5,15.3,38.3,21.3,53.2"/>
	<text transform="matrix(1 0 0 1 778.1865 403.4143)" class="st11 st2 st13">x</text>
</g>
<g id="node71">
	<ellipse class="st12" cx="1365.2" cy="532" rx="34.7" ry="18"/>
	<text transform="matrix(1 0 0 1 1342.9268 533.9094)" class="st1 st2 st13">9395 C(128)</text>
</g>
<g id="edge53">
	<path class="st9" d="M1376.8,549c11.6,15.9,29.1,39.9,40.2,55.1"/>
	<text transform="matrix(1 0 0 1 1399.1602 577.4075)" class="st11 st2 st13">y</text>
</g>
<g id="node72">
	<ellipse class="st12" cx="1302.2" cy="619" rx="34.7" ry="18"/>
	<text transform="matrix(1 0 0 1 1279.9297 620.9055)" class="st1 st2 st13">9395 C(128)</text>
</g>
<g id="edge55">
	<path class="st9" d="M1298,637.1c-3.3,10.6-8.9,23.9-17.8,32.9c-12.7,12.9-31,21.6-46.4,27.1"/>
	<text transform="matrix(1 0 0 1 1290.165 664.4036)" class="st11 st2 st13">y</text>
</g>
<g id="node73">
	<ellipse class="st12" cx="888.2" cy="532" rx="34.7" ry="18"/>
	<text transform="matrix(1 0 0 1 865.9473 533.9094)" class="st1 st2 st13">9395 C(128)</text>
</g>
<g id="edge57">
	<path class="st9" d="M886.2,550.3c-0.3,10.4,1.1,23.4,7.9,32.7c10.7,14.6,28.9,23.2,44.9,28.3"/>
	<text transform="matrix(1 0 0 1 894.1816 577.4075)" class="st11 st2 st13">y</text>
</g>
<g id="node74">
	<ellipse class="st12" cx="667.2" cy="619" rx="34.7" ry="18"/>
	<text transform="matrix(1 0 0 1 644.9561 620.9055)" class="st1 st2 st13">9395 C(128)</text>
</g>
<g id="edge59">
	<path class="st9" d="M685.7,634.4c21.1,16.5,55.3,43.2,75.1,58.6"/>
	<text transform="matrix(1 0 0 1 729.1885 664.4036)" class="st11 st2 st13">y</text>
</g>
<g id="node75">
	<ellipse class="st12" cx="344.2" cy="445" rx="34.7" ry="18"/>
	<text transform="matrix(1 0 0 1 321.9697 446.9133)" class="st1 st2 st13">9395 C(128)</text>
</g>
<g id="edge61">
	<path class="st9" d="M332,461.9c-9.1,10.9-22.4,25-36.8,34.1c-20.7,13.2-47.1,22.3-67.2,27.9"/>
	<text transform="matrix(1 0 0 1 314.2061 490.4114)" class="st11 st2 st13">y</text>
</g>
<g id="node76">
	<ellipse class="st12" cx="544.2" cy="532" rx="34.7" ry="18"/>
	<text transform="matrix(1 0 0 1 521.9609 533.9094)" class="st1 st2 st13">9395 C(128)</text>
</g>
<g id="edge63">
	<path class="st9" d="M544.2,550.2c0,14.7,0,35.9,0,50.6"/>
	<text transform="matrix(1 0 0 1 544.1963 577.4075)" class="st11 st2 st13">y</text>
</g>
<g id="node77">
	<ellipse class="st12" cx="1580.2" cy="619" rx="27.5" ry="18"/>
	<text transform="matrix(1 0 0 1 1564.5908 620.9055)" class="st1 st2 st13">175 C(8)</text>
</g>
<g id="edge65">
	<path class="st9" d="M1580.2,637.2c0,14.7,0,35.9,0,50.6"/>
	<text transform="matrix(1 0 0 1 1580.1533 664.4036)" class="st11 st2 st13">y</text>
</g>
<g id="node78">
	<ellipse class="st12" cx="1322.2" cy="706" rx="27.5" ry="18"/>
	<text transform="matrix(1 0 0 1 1306.6016 707.9016)" class="st1 st2 st13">175 C(8)</text>
</g>
<g id="edge69">
	<path class="st9" d="M1321.6,724.2c-0.5,14.8-1.3,36.2-1.8,50.9"/>
	<text transform="matrix(1 0 0 1 1320.1641 751.3997)" class="st11 st2 st13">y</text>
</g>
<g id="node79">
	<ellipse class="st12" cx="871.2" cy="619" rx="27.5" ry="18"/>
	<text transform="matrix(1 0 0 1 855.6211 620.9055)" class="st1 st2 st13">175 C(8)</text>
</g>
<g id="edge73">
	<path class="st9" d="M881.8,635.6c10.7,15.6,26.9,39.5,37.4,54.8"/>
	<text transform="matrix(1 0 0 1 903.1816 664.4036)" class="st11 st2 st13">y</text>
</g>
<g id="node80">
	<ellipse class="st12" cx="676.2" cy="706" rx="27.5" ry="18"/>
	<text transform="matrix(1 0 0 1 660.6289 707.9016)" class="st1 st2 st13">175 C(8)</text>
</g>
<g id="edge77">
	<path class="st9" d="M672,723.9c-1.7,9.8-2.7,22.3,0.2,33.1c2,7.2,5.9,14.5,9.9,20.5"/>
	<text transform="matrix(1 0 0 1 672.1914 751.3997)" class="st11 st2 st13">y</text>
</g>
<g id="node81">
	<ellipse class="st12" cx="329.2" cy="532" rx="27.5" ry="18"/>
	<text transform="matrix(1 0 0 1 313.6436 533.9094)" class="st1 st2 st13">175 C(8)</text>
</g>
<g id="edge81">
	<path class="st9" d="M329.2,550.2c0,14.7,0,35.9,0,50.6"/>
	<text transform="matrix(1 0 0 1 329.2061 577.4075)" class="st11 st2 st13">y</text>
</g>
<g id="node82">
	<ellipse class="st12" cx="444.2" cy="619" rx="27.5" ry="18"/>
	<text transform="matrix(1 0 0 1 428.6387 620.9055)" class="st1 st2 st13">175 C(8)</text>
</g>
<g id="edge85">
	<path class="st9" d="M427.4,633.6c-6,5.9-12,13.3-15.2,21.4c-4.6,11.9,1.2,25.5,7.6,35.5"/>
	<text transform="matrix(1 0 0 1 412.2021 664.4036)" class="st11 st2 st13">y</text>
</g>
<g id="node83">
	<ellipse class="st12" cx="1434.2" cy="793" rx="27.5" ry="18"/>
	<text transform="matrix(1 0 0 1 1418.5977 794.8977)" class="st1 st2 st13">175 C(8)</text>
</g>
<g id="edge89">
	<path class="st9" d="M1434.2,811.2c0,14.7,0,35.9,0,50.6"/>
	<text transform="matrix(1 0 0 1 1434.1592 838.3967)" class="st11 st2 st13">y</text>
</g>
<g id="node84">
	<ellipse class="st12" cx="1286.2" cy="880" rx="27.5" ry="18"/>
	<text transform="matrix(1 0 0 1 1270.6035 881.8948)" class="st1 st2 st13">175 C(8)</text>
</g>
<g id="edge91">
	<path class="st9" d="M1280.1,897.8c-3.9,10-9.5,22.7-16,33.2c-4.6,7.4-10.6,14.9-15.9,21"/>
	<text transform="matrix(1 0 0 1 1271.166 925.3928)" class="st11 st2 st13">y</text>
</g>
<g id="node85">
	<ellipse class="st12" cx="941.2" cy="793" rx="27.5" ry="18"/>
	<text transform="matrix(1 0 0 1 925.6182 794.8977)" class="st1 st2 st13">175 C(8)</text>
</g>
<g id="edge93">
	<path class="st9" d="M941.6,811.2c0.3,14.7,0.8,35.9,1.2,50.6"/>
	<text transform="matrix(1 0 0 1 942.1797 838.3967)" class="st11 st2 st13">y</text>
</g>
<g id="node86">
	<ellipse class="st12" cx="700.2" cy="880" rx="27.5" ry="18"/>
	<text transform="matrix(1 0 0 1 684.6279 881.8948)" class="st1 st2 st13">175 C(8)</text>
</g>
<g id="edge95">
	<path class="st9" d="M716.3,894.7c18.9,16,50,42.5,68.6,58.3"/>
	<text transform="matrix(1 0 0 1 756.1875 925.3928)" class="st11 st2 st13">y</text>
</g>
<g id="node87">
	<ellipse class="st12" cx="187.2" cy="706" rx="27.5" ry="18"/>
	<text transform="matrix(1 0 0 1 171.6504 707.9016)" class="st1 st2 st13">175 C(8)</text>
</g>
<g id="edge97">
	<path class="st9" d="M203.1,720.7c18.6,15.9,49.1,42.2,67.6,58"/>
	<text transform="matrix(1 0 0 1 243.21 751.3997)" class="st11 st2 st13">y</text>
</g>
<g id="node88">
	<ellipse class="st12" cx="550.2" cy="793" rx="27.5" ry="18"/>
	<text transform="matrix(1 0 0 1 534.6348 794.8977)" class="st1 st2 st13">175 C(8)</text>
</g>
<g id="edge99">
	<path class="st9" d="M546.2,811.3c-3.2,10.7-8.8,24-18,32.7c-14.6,13.9-35.3,22.4-53.2,27.6"/>
	<text transform="matrix(1 0 0 1 539.1973 838.3967)" class="st11 st2 st13">y</text>
</g>
<g id="node89">
	<ellipse class="st12" cx="223.2" cy="22" rx="28.9" ry="18"/>
	<text transform="matrix(1 0 0 1 205.9414 23.9309)" class="st1 st2 st13">9860 T(5)</text>
</g>
<g id="edge103">
	<path class="st9" d="M210.3,38.3c-12.2,14.4-30.5,35.9-42.3,49.9"/>
	<text transform="matrix(1 0 0 1 192.2119 64.4289)" class="st11 st2 st13">x</text>
</g>
<g id="node90">
	<ellipse class="st12" cx="859.2" cy="22" rx="28.9" ry="18"/>
	<text transform="matrix(1 0 0 1 841.915 23.9309)" class="st1 st2 st13">9864 T(9)</text>
</g>
<g id="edge104">
	<path class="st9" d="M851.3,39.4c-6.4,13.3-15.4,32-21.9,45.5"/>
	<text transform="matrix(1 0 0 1 842.6221 64.4289)" class="st11 st2 st13">value</text>
</g>
<g id="node91">
	<ellipse class="st12" cx="487.2" cy="190" rx="28.9" ry="18"/>
	<text transform="matrix(1 0 0 1 469.9307 191.9241)" class="st1 st2 st13">9862 T(7)</text>
</g>
<g id="edge105">
	<path class="st9" d="M509.9,201.5c4.7,2.2,9.7,4.4,14.3,6.5c33.5,15.3,71.6,32.5,99.2,44.9"/>
	<text transform="matrix(1 0 0 1 581.6328 232.4221)" class="st11 st2 st13">value</text>
</g>
<g id="node92">
	<ellipse class="st12" cx="562.2" cy="271" rx="28.9" ry="18"/>
	<text transform="matrix(1 0 0 1 544.9268 272.9202)" class="st1 st2 st13">9863 T(8)</text>
</g>
<g id="edge106">
	<path class="st9" d="M562.2,289.2c0,14.7,0,35.9,0,50.6"/>
	<text transform="matrix(1 0 0 1 562.6338 316.4182)" class="st11 st2 st13">value</text>
</g>
</svg>
