<?xml version="1.0" encoding="utf-8"?>
<!-- Generator: Adobe Illustrator 25.4.1, SVG Export Plug-In . SVG Version: 6.00 Build 0)  -->
<svg version="1.1" id="Layer_1" xmlns="http://www.w3.org/2000/svg" xmlns:xlink="http://www.w3.org/1999/xlink" x="0px" y="0px"
	 viewBox="0 0 2581 5861" style="enable-background:new 0 0 2581 5861;" xml:space="preserve">
<style type="text/css">
	.st0{fill:#E98693;stroke:#000000;}
	.st1{fill:#1A1919;}
	.st2{font-family:'ArialMT';}
	.st3{font-size:14px;}
	.st4{fill:#F9F9F9;stroke:#000000;}
	.st5{fill:none;stroke:#DA2D4F;stroke-width:2;}
	.st6{fill:#DA2D4F;stroke:#DA2D4F;stroke-width:2;}
	.st7{fill:none;stroke:#3CB4A4;}
	.st8{fill:#3CB4A4;stroke:#3CB4A4;}
	.st9{fill:#3CB4A4;}
	.st10{fill:#FFA500;stroke:#000000;}
	.st11{fill:#3CB4A4;stroke:#000000;}
	.st12{fill:#D7EDE7;stroke:#000000;}
	.st13{font-size:8px;}
</style>
<g id="node1">
	<polygon class="st0" points="1040.6,85 982.6,85 982.6,121 1040.6,121 	"/>
	<text transform="matrix(1 0 0 1 991.0144 106.7002)" class="st1 st2 st3">0 Start</text>
</g>
<g id="node3">
	<polygon class="st4" points="1069.6,172 985.6,172 985.6,208 1069.6,208 	"/>
	<text transform="matrix(1 0 0 1 993.7766 193.7002)" class="st1 st2 st3">859 Unbox</text>
</g>
<g id="edge213">
	<path class="st5" d="M1014.9,121.2c2.2,11.6,5.1,27.3,7.6,40.6"/>
	<polygon class="st6" points="1026,161.4 1024.4,171.8 1019.1,162.6 	"/>
</g>
<g id="node2">
	<polygon class="st4" points="1290.1,85 1059.1,85 1059.1,121 1290.1,121 	"/>
	<text transform="matrix(1 0 0 1 1067.6184 106.7002)" class="st1 st2 st3">203 BoxNode$TrustedBoxedValue</text>
</g>
<g id="edge1">
	<path class="st7" d="M1144.9,121.2c-22.7,13.1-54.2,31.3-78.8,45.6"/>
	<polygon class="st8" points="1067.7,169.9 1057.3,171.8 1064.2,163.8 	"/>
	<text transform="matrix(1 0 0 1 1109.9006 150.2002)" class="st9 st2 st3">value</text>
</g>
<g id="node4">
	<polygon class="st10" points="1315.6,346 1041.6,346 1041.6,382 1315.6,382 	"/>
	<text transform="matrix(1 0 0 1 1049.8391 367.7002)" class="st1 st2 st3">1201 Guard not, else ArithmeticException</text>
</g>
<g id="edge2">
	<path class="st5" d="M1026.4,208.3c-0.7,22.2,1.2,61.1,20.2,86.7c15.8,21.3,40.2,36.5,63.8,47"/>
	<polygon class="st6" points="1111.9,338.8 1119.7,345.9 1109.1,345.2 	"/>
</g>
<g id="node5">
	<polygon class="st11" points="1248.6,259 1055.6,277 1248.6,295 1441.7,277 	"/>
	<text transform="matrix(1 0 0 1 1151.7458 280.7002)" class="st1 st2 st3">1202 IntegerSubExactOverflow</text>
</g>
<g id="edge6">
	<path class="st7" d="M1069.7,207.2c38.2,14.7,94.4,36.3,133.6,51.4"/>
	<polygon class="st8" points="1204.8,255.4 1212.9,262.3 1202.3,261.9 	"/>
	<text transform="matrix(1 0 0 1 1150.635 237.2002)" class="st9 st2 st3">y</text>
</g>
<g id="node6">
	<polygon class="st11" points="1138.6,1732 996.2,1750 1138.6,1768 1281.1,1750 	"/>
	<text transform="matrix(1 0 0 1 1069.363 1753.7002)" class="st1 st2 st3">1204 IntegerSubExact</text>
</g>
<g id="edge8">
	<path class="st7" d="M1014.8,208.2c-11,16.5-25.1,42.5-25.1,67.8c0,0,0,0,0,1388c0,40,40.9,61.4,79.8,72.7"/>
	<polygon class="st8" points="1070.6,1733.4 1079.3,1739.4 1068.8,1740.1 	"/>
	<text transform="matrix(1 0 0 1 989.635 970.7002)" class="st9 st2 st3">y</text>
</g>
<g id="edge9">
	<path class="st7" d="M1129.7,382.1c-28.6,13.5-59.1,35.4-59.1,67.9c0,0,0,0,0,1214c0,26.1,19.7,48.7,37.9,64"/>
	<polygon class="st8" points="1111.1,1725.6 1116.7,1734.6 1106.7,1731.1 	"/>
	<text transform="matrix(1 0 0 1 1070.7317 1057.7002)" class="st9 st2 st3">guard</text>
</g>
<g id="node9">
	<polygon class="st10" points="1751.1,433 1492.1,433 1492.1,469 1751.1,469 	"/>
	<text transform="matrix(1 0 0 1 1500.6252 454.7002)" class="st1 st2 st3">8333 Guard, else TransferToInterpreter</text>
</g>
<g id="edge4">
	<path class="st5" d="M1267.5,382c73.9,14.2,178.8,34.3,255.3,49"/>
	<polygon class="st6" points="1523.8,427.7 1532.9,433 1522.5,434.5 	"/>
</g>
<g id="edge3">
	<path class="st7" d="M1235.5,294c-10.2,12.4-24.5,29.8-36.2,44"/>
	<polygon class="st8" points="1201.8,340.4 1192.7,345.9 1196.4,336 	"/>
	<text transform="matrix(1 0 0 1 1217.7419 324.2002)" class="st9 st2 st3">?</text>
</g>
<g id="node29">
	<polygon class="st11" points="1833.6,1819 1642.3,1837 1833.6,1855 2025,1837 	"/>
	<text transform="matrix(1 0 0 1 1737.9216 1840.7)" class="st1 st2 st3">8637 IntegerMulExactOverflow</text>
</g>
<g id="edge52">
	<path class="st7" d="M1212.6,1758.7c32,3.2,69.8,6.7,104,9.3c138.5,10.6,174.6-2.5,312,18c52.4,7.8,111,22.8,152.1,34.3"/>
	<polygon class="st8" points="1781.8,1817 1790.5,1823.1 1779.9,1823.7 	"/>
	<text transform="matrix(1 0 0 1 1701.635 1797.2)" class="st9 st2 st3">x</text>
</g>
<g id="node30">
	<polygon class="st11" points="1912.6,1993 1771.9,2011 1912.6,2029 2053.4,2011 	"/>
	<text transform="matrix(1 0 0 1 1844.5388 2014.7)" class="st1 st2 st3">8638 IntegerMulExact</text>
</g>
<g id="edge54">
	<path class="st7" d="M1216.4,1758.2c80.4,7.6,200.6,19.7,246.2,27.8c60,10.6,81.7,0.2,133,33c59.2,37.8,41,83.5,99,123
		c43.9,29.9,101.5,47.1,146.5,56.7"/>
	<polygon class="st8" points="1842,1995.3 1851.1,2000.8 1840.6,2002.2 	"/>
	<text transform="matrix(1 0 0 1 1648.635 1884.2)" class="st9 st2 st3">x</text>
</g>
<g id="node55">
	<polygon class="st11" points="1395.6,1819 1204.3,1837 1395.6,1855 1587,1837 	"/>
	<text transform="matrix(1 0 0 1 1299.9216 1840.7)" class="st1 st2 st3">8762 IntegerMulExactOverflow</text>
</g>
<g id="edge110">
	<path class="st7" d="M1176,1763.4c44.8,14.8,119.9,39.7,169.7,56.1"/>
	<polygon class="st8" points="1346.9,1816.2 1355.3,1822.6 1344.7,1822.8 	"/>
	<text transform="matrix(1 0 0 1 1281.635 1797.2)" class="st9 st2 st3">x</text>
</g>
<g id="node56">
	<polygon class="st11" points="1344.6,3385 1203.9,3403 1344.6,3421 1485.4,3403 	"/>
	<text transform="matrix(1 0 0 1 1276.5388 3406.7)" class="st1 st2 st3">8763 IntegerMulExact</text>
</g>
<g id="edge112">
	<path class="st7" d="M1138.6,1768.3c0,17.2,0,44.3,0,67.7c0,0,0,0,0,1481c0,48,48.3,69.4,98.2,78.8"/>
	<polygon class="st8" points="1237.5,3392.3 1246.8,3397.5 1236.3,3399.2 	"/>
	<text transform="matrix(1 0 0 1 1138.635 2580.2)" class="st9 st2 st3">x</text>
</g>
<g id="node79">
	<polygon class="st11" points="881.6,1819 690.3,1837 881.6,1855 1073,1837 	"/>
	<text transform="matrix(1 0 0 1 785.9216 1840.7)" class="st1 st2 st3">8884 IntegerMulExactOverflow</text>
</g>
<g id="edge164">
	<path class="st7" d="M1113.4,1764.9c-20.9,11.1-51.6,26.2-79.8,36.1c-25.4,8.9-54,16.1-79.4,21.7"/>
	<polygon class="st8" points="954.8,1826.1 944.3,1824.8 953.3,1819.3 	"/>
	<text transform="matrix(1 0 0 1 1068.635 1797.2)" class="st9 st2 st3">x</text>
</g>
<g id="node80">
	<polygon class="st11" points="918.6,4777 777.9,4795 918.6,4813 1059.4,4795 	"/>
	<text transform="matrix(1 0 0 1 850.5388 4798.6997)" class="st1 st2 st3">8885 IntegerMulExact</text>
</g>
<g id="edge166">
	<path class="st7" d="M1101.1,1763.3c-41.1,13.3-104.6,33.2-129.5,37.7c-31.8,5.7-267-4.7-290,18c-74.4,73.4-18,130-18,234.5
		c0,0,0,0,0,263c0,59,33,69.5,33,128.5c0,0,0,0,0,1046c0,329.4,74,408.1,74,737.5c0,0,0,0,0,480.5c0,39.9,40.9,61.3,79.7,72.7"/>
	<polygon class="st8" points="851.4,4778.4 860.1,4784.4 849.6,4785.1 	"/>
	<text transform="matrix(1 0 0 1 696.635 3276.2)" class="st9 st2 st3">x</text>
</g>
<g id="node7">
	<polygon class="st11" points="1621.6,346 1559.1,364 1621.6,382 1684.1,364 	"/>
	<text transform="matrix(1 0 0 1 1595.9421 367.7002)" class="st1 st2 st3">8047 ==</text>
</g>
<g id="edge12">
	<path class="st7" d="M1621.6,382.2c0,11.6,0,27.2,0,40.6"/>
	<polygon class="st8" points="1625.1,422.8 1621.6,432.8 1618.1,422.8 	"/>
	<text transform="matrix(1 0 0 1 1621.7419 411.2002)" class="st9 st2 st3">?</text>
</g>
<g id="node8">
	<polygon class="st0" points="1962.6,5821 1868.6,5821 1868.6,5857 1962.6,5857 	"/>
	<text transform="matrix(1 0 0 1 1877.1077 5842.6997)" class="st1 st2 st3">8321 Return</text>
</g>
<g id="node10">
	<polygon class="st4" points="1890.6,514 1798.6,514 1798.6,550 1890.6,550 	"/>
	<text transform="matrix(1 0 0 1 1806.8835 535.7002)" class="st1 st2 st3">8544 Unbox</text>
</g>
<g id="edge13">
	<path class="st5" d="M1669.7,469c35,12.4,82.6,29.2,119.2,42.2"/>
	<polygon class="st6" points="1790.3,508 1798.5,514.7 1787.9,514.6 	"/>
</g>
<g id="node11">
	<polygon class="st11" points="2209.6,601 2153.5,619 2209.6,637 2265.8,619 	"/>
	<text transform="matrix(1 0 0 1 2187.4492 622.7002)" class="st1 st2 st3">8546 &amp;</text>
</g>
<g id="edge15">
	<path class="st7" d="M1887.7,550c29.4,11,69.5,24.7,106,33c64.6,14.6,82.8,5.9,148,18c9.7,1.8,20,4.1,29.7,6.5"/>
	<polygon class="st8" points="2172.2,604.1 2181,610 2170.5,610.9 	"/>
	<text transform="matrix(1 0 0 1 1993.635 579.2002)" class="st9 st2 st3">x</text>
</g>
<g id="node13">
	<polygon class="st4" points="1947.6,688 1855.6,688 1855.6,724 1947.6,724 	"/>
	<text transform="matrix(1 0 0 1 1863.8835 709.7002)" class="st1 st2 st3">8569 Unbox</text>
</g>
<g id="edge14">
	<path class="st5" d="M1846,550c2.1,21,7,57.5,17.6,87c5.2,14.6,13.4,29.8,20.9,42.1"/>
	<polygon class="st6" points="1887.6,677.5 1890,687.9 1881.7,681.2 	"/>
</g>
<g id="node39">
	<polygon class="st11" points="2004.6,601 1948.5,619 2004.6,637 2060.8,619 	"/>
	<text transform="matrix(1 0 0 1 1982.449 622.7002)" class="st1 st2 st3">8672 &amp;</text>
</g>
<g id="edge75">
	<path class="st7" d="M1871.8,550.2c16.2,10,37.4,22.6,56.8,32.8c14.1,7.4,30,14.9,43.6,21"/>
	<polygon class="st8" points="1974,600.9 1981.7,608.2 1971.2,607.3 	"/>
	<text transform="matrix(1 0 0 1 1928.635 579.2002)" class="st9 st2 st3">x</text>
</g>
<g id="node65">
	<polygon class="st11" points="582.6,688 526.5,706 582.6,724 638.8,706 	"/>
	<text transform="matrix(1 0 0 1 560.449 709.7002)" class="st1 st2 st3">8796 &amp;</text>
</g>
<g id="edge133">
	<path class="st7" d="M1798.6,539.3c-197.1,26.9-968.6,132-1168.5,159.3"/>
	<polygon class="st8" points="630.3,702 620,699.9 629.4,695.1 	"/>
	<text transform="matrix(1 0 0 1 1338.635 622.7002)" class="st9 st2 st3">x</text>
</g>
<g id="node12">
	<polygon class="st11" points="2397.6,688 2327.9,706 2397.6,724 2467.3,706 	"/>
	<text transform="matrix(1 0 0 1 2367.8545 709.7002)" class="st1 st2 st3">8547 &gt;&gt;&gt;</text>
</g>
<g id="edge17">
	<path class="st7" d="M2226.5,631.7c16.4,11,42.1,27.2,66.1,38.3c20.1,9.2,43.3,17.2,62.8,23.3"/>
	<polygon class="st8" points="2356.7,690 2365.2,696.2 2354.6,696.7 	"/>
	<text transform="matrix(1 0 0 1 2293.062 666.2002)" class="st9 st2 st3">x [0 - 16711680]</text>
</g>
<g id="node15">
	<polygon class="st11" points="2169.6,775 1978.3,793 2169.6,811 2361,793 	"/>
	<text transform="matrix(1 0 0 1 2073.9219 796.7002)" class="st1 st2 st3">8575 IntegerMulExactOverflow</text>
</g>
<g id="edge22">
	<path class="st7" d="M2370.6,717.1c-38.1,14.2-108.1,40.3-154.6,57.6"/>
	<polygon class="st8" points="2217,778.1 2206.4,778.3 2214.6,771.5 	"/>
	<text transform="matrix(1 0 0 1 2297.0078 753.2002)" class="st9 st2 st3">x [0 - 255]</text>
</g>
<g id="node16">
	<polygon class="st11" points="1980.6,949 1839.9,967 1980.6,985 2121.4,967 	"/>
	<text transform="matrix(1 0 0 1 1912.5388 970.7002)" class="st1 st2 st3">8576 IntegerMulExact</text>
</g>
<g id="edge24">
	<path class="st7" d="M2396.2,723.7c-2.5,21.6-9.3,59.7-26.5,87.3c-31.2,50-47.6,60.1-100,87c-64.2,32.9-144.5,50.1-204.2,59"/>
	<polygon class="st8" points="2065.7,960.5 2055.3,958.5 2064.7,953.6 	"/>
	<text transform="matrix(1 0 0 1 2357.0078 840.2002)" class="st9 st2 st3">x [0 - 255]</text>
</g>
<g id="node14">
	<polygon class="st10" points="2260.6,862 1986.6,862 1986.6,898 2260.6,898 	"/>
	<text transform="matrix(1 0 0 1 1994.8392 883.7002)" class="st1 st2 st3">8574 Guard not, else ArithmeticException</text>
</g>
<g id="edge19">
	<path class="st5" d="M1914.3,724.3c4,5.6,8.4,11.9,12.3,17.7c20.1,30,15.7,45.3,43,69c24.3,21.1,56.2,36.6,84.6,47.5"/>
	<polygon class="st6" points="2055.6,855.2 2063.7,862 2053.1,861.8 	"/>
</g>
<g id="edge23">
	<path class="st7" d="M1947.1,724c27.5,10.1,63.3,22.8,95.6,33c22.3,7,47.1,14,68.8,19.9"/>
	<polygon class="st8" points="2112.4,773.5 2121.2,779.5 2110.6,780.3 	"/>
	<text transform="matrix(1 0 0 1 2042.635 753.2002)" class="st9 st2 st3">y</text>
</g>
<g id="edge25">
	<path class="st7" d="M1906.9,724.4c13.5,44.4,49.5,162.4,65.7,215.3"/>
	<polygon class="st8" points="1976,938.8 1975.6,949.4 1969.3,940.8 	"/>
	<text transform="matrix(1 0 0 1 1942.635 840.2002)" class="st9 st2 st3">y</text>
</g>
<g id="node42">
	<polygon class="st11" points="1693.6,775 1502.3,793 1693.6,811 1885,793 	"/>
	<text transform="matrix(1 0 0 1 1597.9216 796.7002)" class="st1 st2 st3">8700 IntegerMulExactOverflow</text>
</g>
<g id="edge81">
	<path class="st7" d="M1859.5,724.2c-35.6,14.6-86.5,35.3-122.5,50.1"/>
	<polygon class="st8" points="1738.3,777.5 1727.8,778 1735.7,771 	"/>
	<text transform="matrix(1 0 0 1 1809.635 753.2002)" class="st9 st2 st3">x</text>
</g>
<g id="node43">
	<polygon class="st11" points="2426.6,2689 2285.9,2707 2426.6,2725 2567.4,2707 	"/>
	<text transform="matrix(1 0 0 1 2358.5391 2710.7)" class="st1 st2 st3">8701 IntegerMulExact</text>
</g>
<g id="edge83">
	<path class="st7" d="M1947.7,713.9c20.8,3.1,45.6,6.8,68,10.1c157.3,23.1,216.1-28.1,354,51c13.3,7.6,36,40.3,43,54
		c10.5,20.5,14,26.9,14,50c0,0,0,0,0,1742c0,19.2,0,40.9,0,57.6"/>
	<polygon class="st8" points="2430.1,2678.7 2426.6,2688.7 2423.1,2678.7 	"/>
	<text transform="matrix(1 0 0 1 2426.6353 1710.2002)" class="st9 st2 st3">x</text>
</g>
<g id="node67">
	<polygon class="st11" points="582.6,775 391.3,793 582.6,811 774,793 	"/>
	<text transform="matrix(1 0 0 1 486.9216 796.7002)" class="st1 st2 st3">8823 IntegerMulExactOverflow</text>
</g>
<g id="edge137">
	<path class="st7" d="M1855.4,708.2c-121.6,3.5-460.3,14.3-741.8,33.8c-153.5,10.6-331.4,28.5-437.4,39.8"/>
	<polygon class="st8" points="676.5,785.3 666.2,782.8 675.8,778.3 	"/>
	<text transform="matrix(1 0 0 1 1113.635 753.2002)" class="st9 st2 st3">x</text>
</g>
<g id="node68">
	<polygon class="st11" points="459.6,4081 318.9,4099 459.6,4117 600.4,4099 	"/>
	<text transform="matrix(1 0 0 1 391.5388 4102.6997)" class="st1 st2 st3">8824 IntegerMulExact</text>
</g>
<g id="edge139">
	<path class="st7" d="M1855.4,707.2c-165.8,1.5-720.8,11.8-720.8,84.8c0,0,0,0,0,219.5c0,144.6,11.8,190.8-50,321.5
		c-135.7,287-460,229-460,546.5c0,0,0,0,0,2133.5c0,42.4-43.7,63.7-86.1,74.4"/>
	<polygon class="st8" points="539.2,4090.8 528.7,4089.7 537.6,4084 	"/>
	<text transform="matrix(1 0 0 1 624.635 2406.2)" class="st9 st2 st3">x</text>
</g>
<g id="edge26">
	<path class="st7" d="M2094.7,898.2c-23.7,14.1-57.2,34-81.8,48.6"/>
	<polygon class="st8" points="2014.7,949.8 2004.3,951.9 2011.1,943.8 	"/>
	<text transform="matrix(1 0 0 1 2060.7319 927.2002)" class="st9 st2 st3">guard</text>
</g>
<g id="node17">
	<polygon class="st10" points="2379.6,1123 2105.6,1123 2105.6,1159 2379.6,1159 	"/>
	<text transform="matrix(1 0 0 1 2113.8394 1144.7002)" class="st1 st2 st3">8577 Guard not, else ArithmeticException</text>
</g>
<g id="edge21">
	<path class="st5" d="M2159,898c44.4,23.7,118.1,71.4,145.7,138c6.1,14.8,5.8,21.1,0,36c-6.6,16.9-19.5,32.2-31.8,44"/>
	<polygon class="st6" points="2275,1118.7 2265.2,1122.8 2270.3,1113.5 	"/>
</g>
<g id="edge20">
	<path class="st7" d="M2160.8,810.4c-6.5,12-15.4,28.5-22.9,42.3"/>
	<polygon class="st8" points="2140.8,854.7 2133,861.8 2134.6,851.3 	"/>
	<text transform="matrix(1 0 0 1 2148.7422 840.2002)" class="st9 st2 st3">?</text>
</g>
<g id="node18">
	<polygon class="st11" points="2102.6,1036 1909.6,1054 2102.6,1072 2295.7,1054 	"/>
	<text transform="matrix(1 0 0 1 2005.746 1057.7002)" class="st1 st2 st3">8578 IntegerAddExactOverflow</text>
</g>
<g id="edge29">
	<path class="st7" d="M2001.3,982.4c19.6,13.6,49.1,34.2,71.3,49.7"/>
	<polygon class="st8" points="2074.8,1029.4 2081,1037.9 2070.8,1035.1 	"/>
	<text transform="matrix(1 0 0 1 2048.6353 1014.2002)" class="st9 st2 st3">x</text>
</g>
<g id="node19">
	<polygon class="st11" points="2026.6,1210 1884.2,1228 2026.6,1246 2169.1,1228 	"/>
	<text transform="matrix(1 0 0 1 1957.363 1231.7002)" class="st1 st2 st3">8579 IntegerAddExact</text>
</g>
<g id="edge31">
	<path class="st7" d="M1954.8,981.7c-18.9,11.6-43.1,30.3-54.2,54.3c-6.7,14.5-5.3,20.9,0,36c19.8,55.8,69.2,106.1,100,133.4"/>
	<polygon class="st8" points="2003.1,1203 2008.4,1212.2 1998.5,1208.3 	"/>
	<text transform="matrix(1 0 0 1 1914.635 1101.2002)" class="st9 st2 st3">x</text>
</g>
<g id="edge33">
	<path class="st7" d="M2199.2,1159.1c-37.9,14.9-92.5,36.4-130.1,51.2"/>
	<polygon class="st8" points="2070,1213.7 2059.4,1214.1 2067.5,1207.2 	"/>
	<text transform="matrix(1 0 0 1 2146.7319 1188.2002)" class="st9 st2 st3">guard</text>
</g>
<g id="node21">
	<polygon class="st10" points="2217.6,1471 1943.6,1471 1943.6,1507 2217.6,1507 	"/>
	<text transform="matrix(1 0 0 1 1951.8392 1492.7002)" class="st1 st2 st3">8581 Guard not, else ArithmeticException</text>
</g>
<g id="edge28">
	<path class="st5" d="M2246,1159.2c8.1,47.3,23.8,180.9-38.3,260.8c-16.2,20.8-40.6,36-63.7,46.7"/>
	<polygon class="st6" points="2145,1470 2134.5,1470.9 2142.2,1463.6 	"/>
</g>
<g id="edge27">
	<path class="st7" d="M2127,1069.8c21.6,13.1,53.6,32.5,78.4,47.6"/>
	<polygon class="st8" points="2207.5,1114.5 2214.2,1122.7 2203.8,1120.5 	"/>
	<text transform="matrix(1 0 0 1 2180.7422 1101.2002)" class="st9 st2 st3">?</text>
</g>
<g id="node20">
	<polygon class="st11" points="2145.6,1297 2083.1,1315 2145.6,1333 2208.1,1315 	"/>
	<text transform="matrix(1 0 0 1 2119.9424 1318.7002)" class="st1 st2 st3">8580 &gt;&gt;</text>
</g>
<g id="edge34">
	<path class="st7" d="M2047.1,1243.6c20.3,14.5,51.4,36.8,73.3,52.4"/>
	<polygon class="st8" points="2122.4,1293.1 2128.5,1301.8 2118.4,1298.8 	"/>
	<text transform="matrix(1 0 0 1 2092.6353 1275.2002)" class="st9 st2 st3">x</text>
</g>
<g id="node22">
	<polygon class="st11" points="2005.6,1384 1812.6,1402 2005.6,1420 2198.7,1402 	"/>
	<text transform="matrix(1 0 0 1 1908.7458 1405.7002)" class="st1 st2 st3">8582 IntegerAddExactOverflow</text>
</g>
<g id="edge38">
	<path class="st7" d="M2024.6,1245.8c-3.6,29.8-11.2,92.1-15.6,128.1"/>
	<polygon class="st8" points="2012.4,1374.6 2007.7,1384.1 2005.4,1373.8 	"/>
	<text transform="matrix(1 0 0 1 2017.635 1318.7002)" class="st9 st2 st3">x</text>
</g>
<g id="node23">
	<polygon class="st11" points="2183.6,1558 2041.2,1576 2183.6,1594 2326.1,1576 	"/>
	<text transform="matrix(1 0 0 1 2114.3633 1579.7002)" class="st1 st2 st3">8583 IntegerAddExact</text>
</g>
<g id="edge40">
	<path class="st7" d="M2098.8,1237c29.7,5.1,64,13.5,92.9,27c60.9,28.5,119,26.2,119,93.5c0,0,0,0,0,132.5c0,36.2-36.1,58-69.8,70.4
		"/>
	<polygon class="st8" points="2241.5,1563.9 2230.9,1563.8 2239.2,1557.2 	"/>
	<text transform="matrix(1 0 0 1 2310.6353 1405.7002)" class="st9 st2 st3">x</text>
</g>
<g id="edge39">
	<path class="st7" d="M2126.5,1327.6c-22.5,13.6-60.1,36.5-87.4,53.1"/>
	<polygon class="st8" points="2040.6,1383.9 2030.2,1386.1 2037,1377.9 	"/>
	<text transform="matrix(1 0 0 1 2083.6353 1362.2002)" class="st9 st2 st3">y</text>
</g>
<g id="edge41">
	<path class="st7" d="M2161.1,1328.6c14.3,12.5,35,33.1,46.5,55.4c18.2,35.2,14.8,47.6,19,87c1.7,15.9,4.4,20.6,0,36
		c-4.7,16.1-14.4,32.1-23.5,44.5"/>
	<polygon class="st8" points="2205.9,1553.7 2197.1,1559.5 2200.3,1549.4 	"/>
	<text transform="matrix(1 0 0 1 2224.6353 1449.2002)" class="st9 st2 st3">y</text>
</g>
<g id="edge42">
	<path class="st7" d="M2101.5,1507.2c16.2,13.3,38.7,31.9,56,46.2"/>
	<polygon class="st8" points="2160.1,1551 2165.6,1560.1 2155.6,1556.4 	"/>
	<text transform="matrix(1 0 0 1 2137.7319 1536.2002)" class="st9 st2 st3">guard</text>
</g>
<g id="node25">
	<polygon class="st4" points="1873.6,1558 1781.6,1558 1781.6,1594 1873.6,1594 	"/>
	<text transform="matrix(1 0 0 1 1789.8835 1579.7002)" class="st1 st2 st3">8608 Unbox</text>
</g>
<g id="edge37">
	<path class="st5" d="M2029.7,1507.1c-42.4,14.2-102.7,34.5-146.4,49.2"/>
	<polygon class="st6" points="1884.4,1559.6 1873.8,1559.5 1882.1,1553 	"/>
</g>
<g id="edge36">
	<path class="st7" d="M2019.7,1419c11,12.5,26.6,30.1,39.2,44.4"/>
	<polygon class="st8" points="2061.6,1461.1 2065.6,1470.9 2056.3,1465.7 	"/>
	<text transform="matrix(1 0 0 1 2046.7419 1449.2002)" class="st9 st2 st3">?</text>
</g>
<g id="node24">
	<polygon class="st11" points="2183.6,1645 2121.1,1663 2183.6,1681 2246.1,1663 	"/>
	<text transform="matrix(1 0 0 1 2157.9424 1666.7002)" class="st1 st2 st3">8584 &gt;&gt;</text>
</g>
<g id="edge43">
	<path class="st7" d="M2183.6,1594.2c0,11.6,0,27.2,0,40.6"/>
	<polygon class="st8" points="2187.1,1634.8 2183.6,1644.8 2180.1,1634.8 	"/>
	<text transform="matrix(1 0 0 1 2183.6353 1623.2002)" class="st9 st2 st3">x</text>
</g>
<g id="node99">
	<polygon class="st11" points="1946.6,2776 1891.3,2794 1946.6,2812 2001.9,2794 	"/>
	<text transform="matrix(1 0 0 1 1925.03 2797.7)" class="st1 st2 st3">8958 +</text>
</g>
<g id="edge205">
	<path class="st7" d="M2178.8,1679.8c-4.7,16.9-11.2,44.7-11.2,69.2c0,0,0,0,0,959c0,19.4-119.7,56.3-182.9,74.4"/>
	<polygon class="st8" points="1985.7,2785.8 1975.1,2785.1 1983.7,2779 	"/>
	<text transform="matrix(1 0 0 1 2167.6353 2232.2)" class="st9 st2 st3">x</text>
</g>
<g id="node26">
	<polygon class="st11" points="1860.6,1645 1804.5,1663 1860.6,1681 1916.8,1663 	"/>
	<text transform="matrix(1 0 0 1 1838.449 1666.7002)" class="st1 st2 st3">8609 &amp;</text>
</g>
<g id="edge46">
	<path class="st7" d="M1834.3,1594.2c4.8,12.4,11.4,29.3,16.8,43.2"/>
	<polygon class="st8" points="1854.4,1636.2 1854.7,1646.8 1847.9,1638.8 	"/>
	<text transform="matrix(1 0 0 1 1845.635 1623.2002)" class="st9 st2 st3">x</text>
</g>
<g id="node28">
	<polygon class="st10" points="1977.6,1906 1703.6,1906 1703.6,1942 1977.6,1942 	"/>
	<text transform="matrix(1 0 0 1 1711.8391 1927.7)" class="st1 st2 st3">8636 Guard not, else ArithmeticException</text>
</g>
<g id="edge45">
	<path class="st5" d="M1864.1,1594.1c23.5,10.5,54.9,23.7,83.6,32.9c33.9,10.9,50.7-4.9,78,18c42.3,35.5,87,201.2,51,243
		c-12.9,14.9-48.8,23.6-88.8,28.6"/>
	<polygon class="st6" points="1988.2,1920.1 1977.8,1917.8 1987.4,1913.1 	"/>
</g>
<g id="node52">
	<polygon class="st11" points="1611.6,1645 1555.5,1663 1611.6,1681 1667.8,1663 	"/>
	<text transform="matrix(1 0 0 1 1589.449 1666.7002)" class="st1 st2 st3">8734 &amp;</text>
</g>
<g id="edge104">
	<path class="st7" d="M1784.2,1594.1c-41.1,16.1-101.8,40-139.1,54.8"/>
	<polygon class="st8" points="1646.2,1652.2 1635.6,1652.6 1643.6,1645.6 	"/>
	<text transform="matrix(1 0 0 1 1731.635 1623.2002)" class="st9 st2 st3">x</text>
</g>
<g id="node77">
	<polygon class="st11" points="921.6,1732 865.5,1750 921.6,1768 977.8,1750 	"/>
	<text transform="matrix(1 0 0 1 899.449 1753.7002)" class="st1 st2 st3">8857 &amp;</text>
</g>
<g id="edge160">
	<path class="st7" d="M1781.6,1581.8c-33.5,3.5-80,8.2-120.9,12.2c-253.2,24.2-328.6-29.1-570,51c-57.4,19-115.5,60.9-146.4,85.3"/>
	<polygon class="st8" points="946.3,1733.1 936.3,1736.7 941.9,1727.7 	"/>
	<text transform="matrix(1 0 0 1 1090.635 1666.7002)" class="st9 st2 st3">x</text>
</g>
<g id="node27">
	<polygon class="st11" points="1983.6,1732 1913.9,1750 1983.6,1768 2053.3,1750 	"/>
	<text transform="matrix(1 0 0 1 1953.8542 1753.7002)" class="st1 st2 st3">8610 &gt;&gt;&gt;</text>
</g>
<g id="edge48">
	<path class="st7" d="M1862.8,1680.4c2.2,10.9,6.8,24.7,15.9,33.6c13.8,13.4,32.8,21.7,50.9,26.8"/>
	<polygon class="st8" points="1930.6,1737.5 1939.4,1743.3 1928.8,1744.2 	"/>
	<text transform="matrix(1 0 0 1 1879.0618 1710.2002)" class="st9 st2 st3">x [0 - 16711680]</text>
</g>
<g id="edge53">
	<path class="st7" d="M1962.8,1762.8c-24.3,13.8-64.9,36.8-94.1,53.3"/>
	<polygon class="st8" points="1870,1819.4 1859.6,1821.3 1866.6,1813.3 	"/>
	<text transform="matrix(1 0 0 1 1917.0076 1797.2)" class="st9 st2 st3">y [0 - 255]</text>
</g>
<g id="edge55">
	<path class="st7" d="M1997.8,1764.6c12.2,12.7,28.8,33,35.9,54.4c5,15.2,3.9,20.5,0,36c-10.8,42.6-20,52.3-47,87
		c-13.6,17.4-31.8,34.2-46.8,46.8"/>
	<polygon class="st8" points="1941.9,1991.7 1931.9,1995.3 1937.4,1986.2 	"/>
	<text transform="matrix(1 0 0 1 2028.0077 1884.2)" class="st9 st2 st3">y [0 - 255]</text>
</g>
<g id="edge56">
	<path class="st7" d="M1855.2,1942.2c10.9,12.8,25.8,30.4,37.7,44.5"/>
	<polygon class="st8" points="1895.7,1984.6 1899.5,1994.5 1890.4,1989.2 	"/>
	<text transform="matrix(1 0 0 1 1880.7317 1971.2)" class="st9 st2 st3">guard</text>
</g>
<g id="node31">
	<polygon class="st10" points="1801.6,2167 1527.6,2167 1527.6,2203 1801.6,2203 	"/>
	<text transform="matrix(1 0 0 1 1535.8391 2188.7)" class="st1 st2 st3">8639 Guard not, else ArithmeticException</text>
</g>
<g id="edge51">
	<path class="st5" d="M1770.6,1942.1c-65.2,20.3-157.1,61.5-191,137.9c-6.5,14.6-6.9,21.6,0,36c9.1,18.9,26.2,34.1,42.7,45.4"/>
	<polygon class="st6" points="1624.4,2158.5 1630.9,2166.9 1620.6,2164.4 	"/>
</g>
<g id="edge50">
	<path class="st7" d="M1835.1,1855.2c1,11.6,2.2,27.2,3.3,40.6"/>
	<polygon class="st8" points="1841.9,1895.6 1839.2,1905.8 1834.9,1896.1 	"/>
	<text transform="matrix(1 0 0 1 1836.7419 1884.2)" class="st9 st2 st3">?</text>
</g>
<g id="node32">
	<polygon class="st11" points="1781.6,2080 1588.6,2098 1781.6,2116 1974.7,2098 	"/>
	<text transform="matrix(1 0 0 1 1684.7458 2101.7)" class="st1 st2 st3">8640 IntegerAddExactOverflow</text>
</g>
<g id="edge59">
	<path class="st7" d="M1890.7,2026.2c-21.1,13.7-53.4,34.6-77.3,50.2"/>
	<polygon class="st8" points="1815.3,2079.4 1805,2081.9 1811.4,2073.5 	"/>
	<text transform="matrix(1 0 0 1 1854.635 2058.2)" class="st9 st2 st3">x</text>
</g>
<g id="node33">
	<polygon class="st11" points="1869.6,2254 1727.2,2272 1869.6,2290 2012.1,2272 	"/>
	<text transform="matrix(1 0 0 1 1800.363 2275.7)" class="st1 st2 st3">8641 IntegerAddExact</text>
</g>
<g id="edge61">
	<path class="st7" d="M1935.3,2026.2c16.9,12,38.6,30.9,48.4,53.8c6.3,14.7,5,20.8,0,36c-17.7,54-62.2,104.6-90,132.6"/>
	<polygon class="st8" points="1895.8,2251.3 1886.2,2255.8 1890.9,2246.3 	"/>
	<text transform="matrix(1 0 0 1 1975.635 2145.2)" class="st9 st2 st3">x</text>
</g>
<g id="edge63">
	<path class="st7" d="M1706.1,2203.2c35.6,14.8,86.7,35.9,122.2,50.7"/>
	<polygon class="st8" points="1830,2250.8 1837.9,2257.9 1827.4,2257.3 	"/>
	<text transform="matrix(1 0 0 1 1778.7317 2232.2)" class="st9 st2 st3">guard</text>
</g>
<g id="node35">
	<polygon class="st10" points="1936.6,2515 1662.6,2515 1662.6,2551 1936.6,2551 	"/>
	<text transform="matrix(1 0 0 1 1670.8391 2536.7)" class="st1 st2 st3">8643 Guard not, else ArithmeticException</text>
</g>
<g id="edge58">
	<path class="st5" d="M1659.5,2203.1c-4.7,17-10.8,44-10.8,67.9c0,0,0,0,0,176c0,31.6,25.5,51.6,55.5,64.2"/>
	<polygon class="st6" points="1705.5,2508 1713.5,2514.9 1703,2514.5 	"/>
</g>
<g id="edge57">
	<path class="st7" d="M1760.7,2114.2c-17.9,13-44,31.9-64.4,46.8"/>
	<polygon class="st8" points="1698.3,2163.8 1688.2,2166.9 1694.2,2158.2 	"/>
	<text transform="matrix(1 0 0 1 1729.7419 2145.2)" class="st9 st2 st3">?</text>
</g>
<g id="node34">
	<polygon class="st11" points="2032.6,2341 1970.1,2359 2032.6,2377 2095.1,2359 	"/>
	<text transform="matrix(1 0 0 1 2006.9421 2362.7)" class="st1 st2 st3">8642 &gt;&gt;</text>
</g>
<g id="edge64">
	<path class="st7" d="M1896.2,2286.9c29.1,15.2,75.7,39.5,106.2,55.4"/>
	<polygon class="st8" points="2004,2339.1 2011.3,2346.9 2000.8,2345.4 	"/>
	<text transform="matrix(1 0 0 1 1960.635 2319.2)" class="st9 st2 st3">x</text>
</g>
<g id="node36">
	<polygon class="st11" points="1869.6,2428 1676.6,2446 1869.6,2464 2062.7,2446 	"/>
	<text transform="matrix(1 0 0 1 1772.7458 2449.7)" class="st1 st2 st3">8644 IntegerAddExactOverflow</text>
</g>
<g id="edge68">
	<path class="st7" d="M1869.6,2290.1c0,29.9,0,91.8,0,127.6"/>
	<polygon class="st8" points="1873.1,2417.9 1869.6,2427.9 1866.1,2417.9 	"/>
	<text transform="matrix(1 0 0 1 1869.635 2362.7)" class="st9 st2 st3">x</text>
</g>
<g id="node37">
	<polygon class="st11" points="1622.6,2602 1480.2,2620 1622.6,2638 1765.1,2620 	"/>
	<text transform="matrix(1 0 0 1 1553.363 2623.7)" class="st1 st2 st3">8645 IntegerAddExact</text>
</g>
<g id="edge70">
	<path class="st7" d="M1788,2279.7c-75.9,11.3-177.4,41.3-177.4,121.8c0,0,0,0,0,132.5c0,19.6,3.2,41.4,6.2,58.1"/>
	<polygon class="st8" points="1620.4,2591.7 1618.8,2602.2 1613.5,2593 	"/>
	<text transform="matrix(1 0 0 1 1610.635 2449.7)" class="st9 st2 st3">x</text>
</g>
<g id="edge69">
	<path class="st7" d="M2011.3,2371.1c-26.6,13.8-72.3,37.7-104.7,54.6"/>
	<polygon class="st8" points="1908,2428.9 1897.5,2430.5 1904.7,2422.7 	"/>
	<text transform="matrix(1 0 0 1 1960.635 2406.2)" class="st9 st2 st3">y</text>
</g>
<g id="edge71">
	<path class="st7" d="M2044.9,2373.6c16.8,20.3,43,59.5,26.7,90.4c-31.6,60.3-63.5,60.1-126,87c-76.4,32.8-169.9,50.3-236.6,59.2"/>
	<polygon class="st8" points="1709.3,2613.7 1699,2611.6 1708.4,2606.8 	"/>
	<text transform="matrix(1 0 0 1 2059.6353 2493.2)" class="st9 st2 st3">y</text>
</g>
<g id="edge72">
	<path class="st7" d="M1763.8,2551.2c-30.2,14.5-73.3,35.2-103.9,49.9"/>
	<polygon class="st8" points="1661.4,2604.3 1650.8,2605.5 1658.3,2598 	"/>
	<text transform="matrix(1 0 0 1 1721.7317 2580.2)" class="st9 st2 st3">guard</text>
</g>
<g id="node41">
	<polygon class="st10" points="2056.6,2602 1782.6,2602 1782.6,2638 2056.6,2638 	"/>
	<text transform="matrix(1 0 0 1 1790.8391 2623.7)" class="st1 st2 st3">8699 Guard not, else ArithmeticException</text>
</g>
<g id="edge67">
	<path class="st5" d="M1823.9,2551.2c18.2,12.9,43.3,30.7,63.3,44.8"/>
	<polygon class="st6" points="1889.3,2593.2 1895.4,2601.8 1885.2,2598.9 	"/>
</g>
<g id="edge66">
	<path class="st7" d="M1856.5,2463c-10.2,12.4-24.5,29.8-36.2,44"/>
	<polygon class="st8" points="1822.8,2509.4 1813.7,2514.9 1817.4,2505 	"/>
	<text transform="matrix(1 0 0 1 1838.7419 2493.2)" class="st9 st2 st3">?</text>
</g>
<g id="node38">
	<polygon class="st11" points="1954.6,2689 1892.1,2707 1954.6,2725 2017.1,2707 	"/>
	<text transform="matrix(1 0 0 1 1928.9421 2710.7)" class="st1 st2 st3">8646 &gt;&gt;</text>
</g>
<g id="edge73">
	<path class="st7" d="M1667.4,2632.5c64.6,16.5,182.9,46.8,245.6,62.9"/>
	<polygon class="st8" points="1914.1,2692 1923,2697.9 1912.4,2698.8 	"/>
	<text transform="matrix(1 0 0 1 1807.635 2667.2)" class="st9 st2 st3">x</text>
</g>
<g id="edge206">
	<path class="st7" d="M1953.1,2724.8c-1.1,11.8-2.6,27.7-3.9,41.2"/>
	<polygon class="st8" points="1952.6,2766.6 1948.2,2776.2 1945.7,2766 	"/>
	<text transform="matrix(1 0 0 1 1950.635 2754.2)" class="st9 st2 st3">y</text>
</g>
<g id="node40">
	<polygon class="st11" points="2094.6,688 2024.9,706 2094.6,724 2164.3,706 	"/>
	<text transform="matrix(1 0 0 1 2064.8545 709.7002)" class="st1 st2 st3">8673 &gt;&gt;&gt;</text>
</g>
<g id="edge77">
	<path class="st7" d="M2005,637c1.1,10.5,4,23.8,11.6,33c8.7,10.5,21.1,17.9,33.6,23.2"/>
	<polygon class="st8" points="2051.5,690 2059.6,696.8 2049,696.5 	"/>
	<text transform="matrix(1 0 0 1 2016.7216 666.2002)" class="st9 st2 st3">x [0 - 65280]</text>
</g>
<g id="edge82">
	<path class="st7" d="M2085.6,722c-7.9,11.7-20.5,27.2-36,35c-21,10.6-141.7,20.9-236.8,27.6"/>
	<polygon class="st8" points="1813.1,788 1802.9,785.2 1812.6,781.1 	"/>
	<text transform="matrix(1 0 0 1 2068.0078 753.2002)" class="st9 st2 st3">y [0 - 255]</text>
</g>
<g id="edge84">
	<path class="st7" d="M2156.4,708.1c53,2.6,130.6,10.6,194.2,33.9c12.8,4.7,41.3,24.5,52,33c30.2,23.9,62,22,62,60.5
		c0,0,0,0,0,1785.5c0,22-10.7,44.6-20.7,60.9"/>
	<polygon class="st8" points="2446.8,2683.8 2438.5,2690.3 2440.9,2680 	"/>
	<text transform="matrix(1 0 0 1 2465.0078 1710.2002)" class="st9 st2 st3">y [0 - 255]</text>
</g>
<g id="edge85">
	<path class="st7" d="M2021.3,2638.1c100.4,16.8,251,42.1,337.6,56.6"/>
	<polygon class="st8" points="2359.6,2691.2 2368.9,2696.3 2358.5,2698.1 	"/>
	<text transform="matrix(1 0 0 1 2202.7319 2667.2)" class="st9 st2 st3">guard</text>
</g>
<g id="node44">
	<polygon class="st10" points="2079.6,2863 1805.6,2863 1805.6,2899 2079.6,2899 	"/>
	<text transform="matrix(1 0 0 1 1813.8391 2884.7)" class="st1 st2 st3">8702 Guard not, else ArithmeticException</text>
</g>
<g id="edge80">
	<path class="st5" d="M1907.3,2638.2c-8.7,13.2-19.6,32.2-24.7,50.8c-18.3,66.9-40.6,96.4-5,156c2.7,4.5,6.2,8.4,10.1,11.9"/>
	<polygon class="st6" points="1890,2854.2 1895.9,2863 1885.8,2859.8 	"/>
</g>
<g id="edge79">
	<path class="st7" d="M1725.7,808c26.2,13.9,58.9,37.8,58.9,71c0,0,0,0,0,480.5c0,28.2,2.5,37.6,19,60.5
		c30.6,42.5,154.8,100.1,191,138c94.8,99.2,134,140.8,134,278c0,0,0,0,0,698c0,27.4-62.6,50.3-119.3,65.4"/>
	<polygon class="st8" points="2010.1,2602.8 1999.5,2601.9 2008.3,2596 	"/>
	<text transform="matrix(1 0 0 1 2110.7422 1710.2002)" class="st9 st2 st3">?</text>
</g>
<g id="node45">
	<polygon class="st11" points="2212.6,2776 2019.6,2794 2212.6,2812 2405.7,2794 	"/>
	<text transform="matrix(1 0 0 1 2115.7461 2797.7)" class="st1 st2 st3">8703 IntegerAddExactOverflow</text>
</g>
<g id="edge88">
	<path class="st7" d="M2394.1,2720.9c-36.6,14.5-96.2,38.2-137.1,54.5"/>
	<polygon class="st8" points="2258.2,2778.7 2247.6,2779.1 2255.6,2772.2 	"/>
	<text transform="matrix(1 0 0 1 2331.6353 2754.2)" class="st9 st2 st3">x</text>
</g>
<g id="node46">
	<polygon class="st11" points="2114.6,2950 1972.2,2968 2114.6,2986 2257.1,2968 	"/>
	<text transform="matrix(1 0 0 1 2045.3632 2971.7)" class="st1 st2 st3">8704 IntegerAddExact</text>
</g>
<g id="edge90">
	<path class="st7" d="M2431.4,2724.4c9.5,36.3,26.2,124.1-16.8,174.6c-27.1,31.8-133.1,50.1-211.5,59.6"/>
	<polygon class="st8" points="2203.1,2962.1 2192.7,2959.8 2202.3,2955.2 	"/>
	<text transform="matrix(1 0 0 1 2440.6353 2841.2)" class="st9 st2 st3">x</text>
</g>
<g id="edge92">
	<path class="st7" d="M1977.4,2899.2c29.2,14.4,70.9,35,100.6,49.7"/>
	<polygon class="st8" points="2079.8,2945.9 2087.2,2953.5 2076.7,2952.2 	"/>
	<text transform="matrix(1 0 0 1 2038.7318 2928.2)" class="st9 st2 st3">guard</text>
</g>
<g id="node48">
	<polygon class="st10" points="2050.6,3211 1776.6,3211 1776.6,3247 2050.6,3247 	"/>
	<text transform="matrix(1 0 0 1 1784.8391 3232.7)" class="st1 st2 st3">8706 Guard not, else ArithmeticException</text>
</g>
<g id="edge87">
	<path class="st5" d="M1825.6,2899c-34.4,12.1-63,32.8-63,68c0,0,0,0,0,176c0,31.6,25.5,51.6,55.5,64.2"/>
	<polygon class="st6" points="1819.5,3204 1827.5,3210.9 1817,3210.5 	"/>
</g>
<g id="edge86">
	<path class="st7" d="M2170.7,2808.2c-44,13.8-113.6,35.8-164.4,51.8"/>
	<polygon class="st8" points="2007.3,2863.3 1996.7,2863 2005.2,2856.6 	"/>
	<text transform="matrix(1 0 0 1 2093.7422 2841.2)" class="st9 st2 st3">?</text>
</g>
<g id="node47">
	<polygon class="st11" points="2146.6,3037 2084.1,3055 2146.6,3073 2209.1,3055 	"/>
	<text transform="matrix(1 0 0 1 2120.9424 3058.7)" class="st1 st2 st3">8705 &gt;&gt;</text>
</g>
<g id="edge93">
	<path class="st7" d="M2120.8,2985.4c4.6,12.3,11.1,29.5,16.4,43.6"/>
	<polygon class="st8" points="2140.6,3027.9 2140.8,3038.5 2134,3030.4 	"/>
	<text transform="matrix(1 0 0 1 2131.6353 3015.2)" class="st9 st2 st3">x</text>
</g>
<g id="node49">
	<polygon class="st11" points="1983.6,3124 1790.6,3142 1983.6,3160 2176.7,3142 	"/>
	<text transform="matrix(1 0 0 1 1886.7458 3145.7)" class="st1 st2 st3">8707 IntegerAddExactOverflow</text>
</g>
<g id="edge97">
	<path class="st7" d="M2102.8,2984.6c-23,30.2-73.7,96.7-100.9,132.5"/>
	<polygon class="st8" points="2004.6,3119.3 1995.7,3125.1 1999,3115 	"/>
	<text transform="matrix(1 0 0 1 2061.6353 3058.7)" class="st9 st2 st3">x</text>
</g>
<g id="node50">
	<polygon class="st11" points="2127.6,3298 1985.2,3316 2127.6,3334 2270.1,3316 	"/>
	<text transform="matrix(1 0 0 1 2058.3633 3319.7)" class="st1 st2 st3">8708 IntegerAddExact</text>
</g>
<g id="edge99">
	<path class="st7" d="M2166.4,2979.5c38.4,11.2,84.2,33.1,84.2,74.5c0,0,0,0,0,176c0,35.7-35.5,57.5-68.3,70.1"/>
	<polygon class="st8" points="2183.3,3303.5 2172.7,3303.6 2181,3296.9 	"/>
	<text transform="matrix(1 0 0 1 2250.6353 3145.7)" class="st9 st2 st3">x</text>
</g>
<g id="edge98">
	<path class="st7" d="M2125.3,3067.1c-26.6,13.8-72.3,37.7-104.7,54.6"/>
	<polygon class="st8" points="2022,3124.9 2011.5,3126.5 2018.7,3118.7 	"/>
	<text transform="matrix(1 0 0 1 2074.6353 3102.2)" class="st9 st2 st3">y</text>
</g>
<g id="edge100">
	<path class="st7" d="M2157.5,3069.9c9.5,13.1,22.7,33.7,28.1,54.1c4.1,15.5,2.8,20.3,0,36c-8.6,47.5-30.9,99.4-45.2,129.5"/>
	<polygon class="st8" points="2143.4,3291.3 2135.9,3298.8 2137.1,3288.3 	"/>
	<text transform="matrix(1 0 0 1 2181.6353 3189.2)" class="st9 st2 st3">y</text>
</g>
<g id="edge101">
	<path class="st7" d="M1956.7,3247.1c37.5,14.9,91.6,36.4,128.9,51.2"/>
	<polygon class="st8" points="2087.1,3295.1 2095.1,3302.1 2084.5,3301.6 	"/>
	<text transform="matrix(1 0 0 1 2032.7317 3276.2)" class="st9 st2 st3">guard</text>
</g>
<g id="node54">
	<polygon class="st10" points="1638.6,3298 1364.6,3298 1364.6,3334 1638.6,3334 	"/>
	<text transform="matrix(1 0 0 1 1372.8391 3319.7)" class="st1 st2 st3">8761 Guard not, else ArithmeticException</text>
</g>
<g id="edge96">
	<path class="st5" d="M1830.8,3247.1c-68.4,14.1-165.5,34.1-236.5,48.8"/>
	<polygon class="st6" points="1594.9,3299.3 1584.4,3297.9 1593.5,3292.5 	"/>
</g>
<g id="edge95">
	<path class="st7" d="M1970.5,3159c-10.2,12.4-24.5,29.8-36.2,44"/>
	<polygon class="st8" points="1936.8,3205.4 1927.7,3210.9 1931.4,3201 	"/>
	<text transform="matrix(1 0 0 1 1952.7419 3189.2)" class="st9 st2 st3">?</text>
</g>
<g id="node51">
	<polygon class="st11" points="1930.6,3385 1868.1,3403 1930.6,3421 1993.1,3403 	"/>
	<text transform="matrix(1 0 0 1 1904.9421 3406.7)" class="st1 st2 st3">8709 &gt;&gt;</text>
</g>
<g id="edge102">
	<path class="st7" d="M2096.9,3330.3c-36.2,15.6-95.9,41.4-133.1,57.4"/>
	<polygon class="st8" points="1965,3391 1954.4,3391.8 1962.2,3384.6 	"/>
	<text transform="matrix(1 0 0 1 2040.635 3363.2)" class="st9 st2 st3">x</text>
</g>
<g id="node100">
	<polygon class="st11" points="1896.6,4168 1841.3,4186 1896.6,4204 1951.9,4186 	"/>
	<text transform="matrix(1 0 0 1 1875.03 4189.6997)" class="st1 st2 st3">8959 +</text>
</g>
<g id="edge207">
	<path class="st7" d="M1925,3419.4c-5.6,16.9-13.4,44.8-13.4,69.6c0,0,0,0,0,611c0,20-4.1,42.3-8,59.1"/>
	<polygon class="st8" points="1906.9,4160.3 1901.1,4169.2 1900.1,4158.6 	"/>
	<text transform="matrix(1 0 0 1 1911.635 3798.2)" class="st9 st2 st3">x</text>
</g>
<g id="node53">
	<polygon class="st11" points="1395.6,1732 1325.9,1750 1395.6,1768 1465.3,1750 	"/>
	<text transform="matrix(1 0 0 1 1365.8542 1753.7002)" class="st1 st2 st3">8735 &gt;&gt;&gt;</text>
</g>
<g id="edge106">
	<path class="st7" d="M1587.7,1673.4c-37.9,14.9-111.9,44-156.2,61.5"/>
	<polygon class="st8" points="1432.6,1738.2 1422,1738.6 1430.1,1731.7 	"/>
	<text transform="matrix(1 0 0 1 1515.7214 1710.2002)" class="st9 st2 st3">x [0 - 65280]</text>
</g>
<g id="edge111">
	<path class="st7" d="M1395.6,1768.2c0,11.6,0,27.2,0,40.6"/>
	<polygon class="st8" points="1399.1,1808.8 1395.6,1818.8 1392.1,1808.8 	"/>
	<text transform="matrix(1 0 0 1 1396.0076 1797.2)" class="st9 st2 st3">y [0 - 255]</text>
</g>
<g id="edge113">
	<path class="st7" d="M1356.2,1757.9c-63.1,12.2-179.6,40-179.6,78.1c0,0,0,0,0,1481c0,42.9,44.2,64.2,87.2,74.7"/>
	<polygon class="st8" points="1264.9,3388.3 1273.9,3394 1263.3,3395.2 	"/>
	<text transform="matrix(1 0 0 1 1177.0076 2580.2)" class="st9 st2 st3">y [0 - 255]</text>
</g>
<g id="edge114">
	<path class="st7" d="M1469.9,3334.2c-26.3,14.2-63.6,34.4-90.6,49.1"/>
	<polygon class="st8" points="1380.6,3386.5 1370.1,3388.2 1377.3,3380.4 	"/>
	<text transform="matrix(1 0 0 1 1431.7317 3363.2)" class="st9 st2 st3">guard</text>
</g>
<g id="node57">
	<polygon class="st10" points="1446.6,3559 1172.6,3559 1172.6,3595 1446.6,3595 	"/>
	<text transform="matrix(1 0 0 1 1180.8391 3580.7)" class="st1 st2 st3">8764 Guard not, else ArithmeticException</text>
</g>
<g id="edge109">
	<path class="st5" d="M1508.5,3334c15.2,41,46.8,146.4-3.8,207c-7.7,9.2-25.6,16-47.7,21"/>
	<polygon class="st6" points="1457.4,3565.4 1446.9,3564.1 1456,3558.6 	"/>
</g>
<g id="edge108">
	<path class="st7" d="M1403.2,1854.5c7,16.9,16.4,43.9,16.4,68.5c0,0,0,0,0,1307c0,26.3,20.6,47.6,41.2,62.3"/>
	<polygon class="st8" points="1462.9,3289.5 1469.2,3298 1459,3295.3 	"/>
	<text transform="matrix(1 0 0 1 1419.7419 2580.2)" class="st9 st2 st3">?</text>
</g>
<g id="node58">
	<polygon class="st11" points="1281.6,3472 1088.6,3490 1281.6,3508 1474.7,3490 	"/>
	<text transform="matrix(1 0 0 1 1184.7458 3493.7)" class="st1 st2 st3">8765 IntegerAddExactOverflow</text>
</g>
<g id="edge117">
	<path class="st7" d="M1333.1,3419.6c-9.4,12.7-22.8,30.7-33.6,45.3"/>
	<polygon class="st8" points="1302.3,3467 1293.5,3472.9 1296.7,3462.8 	"/>
	<text transform="matrix(1 0 0 1 1316.635 3450.2)" class="st9 st2 st3">x</text>
</g>
<g id="node59">
	<polygon class="st11" points="1415.6,3646 1273.2,3664 1415.6,3682 1558.1,3664 	"/>
	<text transform="matrix(1 0 0 1 1346.363 3667.7)" class="st1 st2 st3">8766 IntegerAddExact</text>
</g>
<g id="edge119">
	<path class="st7" d="M1395.6,3414.6c31.3,9.4,68.9,26.6,88.1,57.4c34.5,55.2-16.4,130.4-47.3,167.8"/>
	<polygon class="st8" points="1438.9,3642.3 1429.8,3647.6 1433.5,3637.8 	"/>
	<text transform="matrix(1 0 0 1 1493.635 3537.2)" class="st9 st2 st3">x</text>
</g>
<g id="edge121">
	<path class="st7" d="M1331.1,3595.2c16.8,13.5,40.2,32.2,58.1,46.6"/>
	<polygon class="st8" points="1391.4,3639.1 1397.1,3648.1 1387.1,3644.6 	"/>
	<text transform="matrix(1 0 0 1 1368.7317 3624.2)" class="st9 st2 st3">guard</text>
</g>
<g id="node61">
	<polygon class="st10" points="1428.6,3907 1154.6,3907 1154.6,3943 1428.6,3943 	"/>
	<text transform="matrix(1 0 0 1 1162.8391 3928.7)" class="st1 st2 st3">8768 Guard not, else ArithmeticException</text>
</g>
<g id="edge116">
	<path class="st5" d="M1266.5,3595.2c-50.9,22.9-132.8,68.7-167.8,137.8c-19.5,38.4,32.4,122.4,33,123c21.1,21.9,50.3,37.1,78,47.5"
		/>
	<polygon class="st6" points="1211.1,3900.3 1219.4,3906.9 1208.8,3906.9 	"/>
</g>
<g id="edge115">
	<path class="st7" d="M1287.2,3507.8c3.9,11.8,9.2,27.8,13.6,41.4"/>
	<polygon class="st8" points="1304.2,3548.4 1304,3558.9 1297.6,3550.6 	"/>
	<text transform="matrix(1 0 0 1 1296.7419 3537.2)" class="st9 st2 st3">?</text>
</g>
<g id="node60">
	<polygon class="st11" points="1495.6,3733 1433.1,3751 1495.6,3769 1558.1,3751 	"/>
	<text transform="matrix(1 0 0 1 1469.9421 3754.7)" class="st1 st2 st3">8767 &gt;&gt;</text>
</g>
<g id="edge122">
	<path class="st7" d="M1429.9,3680.2c12.9,13.7,31.9,33.9,46.1,49"/>
	<polygon class="st8" points="1478.7,3726.9 1483,3736.6 1473.6,3731.7 	"/>
	<text transform="matrix(1 0 0 1 1459.635 3711.2)" class="st9 st2 st3">x</text>
</g>
<g id="node62">
	<polygon class="st11" points="1333.6,3820 1140.6,3838 1333.6,3856 1526.7,3838 	"/>
	<text transform="matrix(1 0 0 1 1236.7458 3841.7)" class="st1 st2 st3">8769 IntegerAddExactOverflow</text>
</g>
<g id="edge126">
	<path class="st7" d="M1407.9,3681.2c-14.2,29.9-44.8,94-62,129.9"/>
	<polygon class="st8" points="1349,3813 1341.5,3820.5 1342.7,3809.9 	"/>
	<text transform="matrix(1 0 0 1 1382.635 3754.7)" class="st9 st2 st3">x</text>
</g>
<g id="node63">
	<polygon class="st11" points="1554.6,3994 1412.2,4012 1554.6,4030 1697.1,4012 	"/>
	<text transform="matrix(1 0 0 1 1485.363 4015.7)" class="st1 st2 st3">8770 IntegerAddExact</text>
</g>
<g id="edge128">
	<path class="st7" d="M1498.1,3671.6c49.3,9,102.5,29.9,102.5,78.4c0,0,0,0,0,176c0,23-13.2,45.8-25.4,61.9"/>
	<polygon class="st8" points="1577.9,3990.1 1568.9,3995.7 1572.4,3985.7 	"/>
	<text transform="matrix(1 0 0 1 1600.635 3841.7)" class="st9 st2 st3">x</text>
</g>
<g id="edge127">
	<path class="st7" d="M1474.5,3763.1c-26.4,13.8-71.9,37.7-104,54.6"/>
	<polygon class="st8" points="1371.8,3820.9 1361.3,3822.5 1368.6,3814.7 	"/>
	<text transform="matrix(1 0 0 1 1423.635 3798.2)" class="st9 st2 st3">y</text>
</g>
<g id="edge129">
	<path class="st7" d="M1506.3,3766c9.4,13.2,22.7,33.8,29.3,54c18.3,56.1,20.4,125.9,19.9,163.7"/>
	<polygon class="st8" points="1559,3984 1555.4,3993.9 1552,3983.8 	"/>
	<text transform="matrix(1 0 0 1 1549.635 3885.2)" class="st9 st2 st3">y</text>
</g>
<g id="edge130">
	<path class="st7" d="M1344.5,3943.1c47.5,15.4,116.7,37.7,162.5,52.5"/>
	<polygon class="st8" points="1508.3,3992.3 1516.7,3998.7 1506.1,3999 	"/>
	<text transform="matrix(1 0 0 1 1438.7317 3972.2)" class="st9 st2 st3">guard</text>
</g>
<g id="node66">
	<polygon class="st10" points="596.6,3994 322.6,3994 322.6,4030 596.6,4030 	"/>
	<text transform="matrix(1 0 0 1 330.8391 4015.7)" class="st1 st2 st3">8822 Guard not, else ArithmeticException</text>
</g>
<g id="edge125">
	<path class="st5" d="M1154.2,3940c-150.9,15.4-392.5,40.1-547.3,55.9"/>
	<polygon class="st6" points="607.2,3999.4 596.9,3997 606.5,3992.5 	"/>
</g>
<g id="edge124">
	<path class="st7" d="M1325.5,3855.4c-5.9,12-14.1,28.5-20.9,42.3"/>
	<polygon class="st8" points="1307.7,3899.4 1300.1,3906.8 1301.4,3896.3 	"/>
	<text transform="matrix(1 0 0 1 1314.7419 3885.2)" class="st9 st2 st3">?</text>
</g>
<g id="node64">
	<polygon class="st11" points="1817.6,4081 1755.1,4099 1817.6,4117 1880.1,4099 	"/>
	<text transform="matrix(1 0 0 1 1791.9421 4102.6997)" class="st1 st2 st3">8771 &gt;&gt;</text>
</g>
<g id="edge131">
	<path class="st7" d="M1592.6,4025.3c50,16.2,137.5,44.4,187.4,60.6"/>
	<polygon class="st8" points="1781.3,4082.6 1789.8,4089 1779.2,4089.2 	"/>
	<text transform="matrix(1 0 0 1 1701.635 4059.2)" class="st9 st2 st3">x</text>
</g>
<g id="edge208">
	<path class="st7" d="M1830.3,4113.7c12.7,13.7,32.4,34.9,47,50.6"/>
	<polygon class="st8" points="1880.2,4162.2 1884.5,4171.9 1875.1,4167 	"/>
	<text transform="matrix(1 0 0 1 1861.635 4146.1997)" class="st9 st2 st3">y</text>
</g>
<g id="edge138">
	<path class="st7" d="M582.6,724.2c0,11.6,0,27.2,0,40.6"/>
	<polygon class="st8" points="586.1,764.8 582.6,774.8 579.1,764.8 	"/>
	<text transform="matrix(1 0 0 1 583.0076 753.2002)" class="st9 st2 st3">y [0 - 255]</text>
</g>
<g id="edge140">
	<path class="st7" d="M537.9,709.7c-87.4,6.4-272.2,26.6-272.2,82.3c0,0,0,0,0,3221c0,46.5,47.4,67.8,95.3,77.5"/>
	<polygon class="st8" points="361.7,4087 370.9,4092.3 360.4,4093.9 	"/>
	<text transform="matrix(1 0 0 1 266.0076 2406.2)" class="st9 st2 st3">y [0 - 255]</text>
</g>
<g id="edge141">
	<path class="st7" d="M459.6,4030.2c0,11.6,0,27.2,0,40.6"/>
	<polygon class="st8" points="463.1,4070.8 459.6,4080.8 456.1,4070.8 	"/>
	<text transform="matrix(1 0 0 1 459.7317 4059.2)" class="st9 st2 st3">guard</text>
</g>
<g id="node69">
	<polygon class="st10" points="365.6,4255 91.6,4255 91.6,4291 365.6,4291 	"/>
	<text transform="matrix(1 0 0 1 99.8391 4276.6997)" class="st1 st2 st3">8825 Guard not, else ArithmeticException</text>
</g>
<g id="edge136">
	<path class="st5" d="M396,4030.1c-29.4,10.6-62.9,26.9-86.4,50.9c-45.7,46.9-67.4,123.5-76.1,163.9"/>
	<polygon class="st6" points="237,4245.8 231.6,4254.9 230.1,4244.4 	"/>
</g>
<g id="edge135">
	<path class="st7" d="M562.3,809.1c-18.1,15.4-41.7,41-41.7,69.9c0,0,0,0,0,3047c0,23.7-15.9,45.4-31.4,60.9"/>
	<polygon class="st8" points="491.3,3989.7 481.7,3994 486.5,3984.6 	"/>
	<text transform="matrix(1 0 0 1 520.7419 2406.2)" class="st9 st2 st3">?</text>
</g>
<g id="node70">
	<polygon class="st11" points="549.6,4168 356.6,4186 549.6,4204 742.7,4186 	"/>
	<text transform="matrix(1 0 0 1 452.7458 4189.6997)" class="st1 st2 st3">8826 IntegerAddExactOverflow</text>
</g>
<g id="edge144">
	<path class="st7" d="M475.7,4115.2c13.9,13.1,34.2,32.3,50,47.2"/>
	<polygon class="st8" points="528.2,4159.9 533.1,4169.4 523.4,4165 	"/>
	<text transform="matrix(1 0 0 1 510.635 4146.1997)" class="st9 st2 st3">x</text>
</g>
<g id="node71">
	<polygon class="st11" points="276.6,4342 134.2,4360 276.6,4378 419.1,4360 	"/>
	<text transform="matrix(1 0 0 1 207.363 4363.6997)" class="st1 st2 st3">8827 IntegerAddExact</text>
</g>
<g id="edge146">
	<path class="st7" d="M421.1,4112.1c-25.8,10.4-57.9,28.1-73.5,55.9c-7.9,13.9-3.6,20.4,0,36c9.1,39.5,45.8,51.1,27,87
		c-11.9,22.7-35.1,39.3-56,50.5"/>
	<polygon class="st8" points="320,4344.7 309.5,4346.1 316.9,4338.4 	"/>
	<text transform="matrix(1 0 0 1 363.635 4233.1997)" class="st9 st2 st3">x</text>
</g>
<g id="edge148">
	<path class="st7" d="M238.3,4291.2c6.9,12.3,16.4,29,24.2,42.8"/>
	<polygon class="st8" points="265.7,4332.5 267.6,4343 259.6,4336 	"/>
	<text transform="matrix(1 0 0 1 255.7317 4320.1997)" class="st9 st2 st3">guard</text>
</g>
<g id="node73">
	<polygon class="st10" points="710.6,4603 436.6,4603 436.6,4639 710.6,4639 	"/>
	<text transform="matrix(1 0 0 1 444.8391 4624.6997)" class="st1 st2 st3">8829 Guard not, else ArithmeticException</text>
</g>
<g id="edge143">
	<path class="st5" d="M365.9,4284.8c144,13.3,349.7,38.5,349.7,74.2c0,0,0,0,0,176c0,31.4-25.8,51.4-55.5,64.2"/>
	<polygon class="st6" points="661.5,4602.4 650.9,4602.9 658.9,4595.9 	"/>
</g>
<g id="edge142">
	<path class="st7" d="M505.1,4199.9c-35.9,10.4-87.9,25.1-133.5,37.1c-19.9,5.2-41.3,10.6-61.5,15.5"/>
	<polygon class="st8" points="310.9,4256 300.4,4254.9 309.3,4249.2 	"/>
	<text transform="matrix(1 0 0 1 425.7419 4233.1997)" class="st9 st2 st3">?</text>
</g>
<g id="node72">
	<polygon class="st11" points="185.6,4429 123.1,4447 185.6,4465 248.1,4447 	"/>
	<text transform="matrix(1 0 0 1 159.9421 4450.6997)" class="st1 st2 st3">8828 &gt;&gt;</text>
</g>
<g id="edge149">
	<path class="st7" d="M260.4,4376.2c-14.8,13.9-36.9,34.5-53.2,49.7"/>
	<polygon class="st8" points="209.4,4428.6 199.7,4432.9 204.6,4423.5 	"/>
	<text transform="matrix(1 0 0 1 236.635 4407.1997)" class="st9 st2 st3">x</text>
</g>
<g id="node74">
	<polygon class="st11" points="494.6,4516 301.6,4534 494.6,4552 687.7,4534 	"/>
	<text transform="matrix(1 0 0 1 397.7458 4537.6997)" class="st1 st2 st3">8830 IntegerAddExactOverflow</text>
</g>
<g id="edge153">
	<path class="st7" d="M295.2,4375.7c38.5,30.4,127,100.2,172.1,135.8"/>
	<polygon class="st8" points="469.5,4508.7 475.2,4517.6 465.1,4514.2 	"/>
	<text transform="matrix(1 0 0 1 407.635 4450.6997)" class="st9 st2 st3">x</text>
</g>
<g id="node75">
	<polygon class="st11" points="347.6,4690 205.2,4708 347.6,4726 490.1,4708 	"/>
	<text transform="matrix(1 0 0 1 278.363 4711.6997)" class="st1 st2 st3">8831 IntegerAddExact</text>
</g>
<g id="edge155">
	<path class="st7" d="M276.6,4378.3c0,17.2,0,44.3,0,67.7c0,0,0,0,0,176c0,26.8,21,49.5,40.1,64.8"/>
	<polygon class="st8" points="318.9,4684 324.8,4692.8 314.7,4689.6 	"/>
	<text transform="matrix(1 0 0 1 276.635 4537.6997)" class="st9 st2 st3">x</text>
</g>
<g id="edge154">
	<path class="st7" d="M216.1,4456.4c51.7,14.2,157.3,43.3,222.6,61.2"/>
	<polygon class="st8" points="439.7,4514.3 448.5,4520.3 437.9,4521 	"/>
	<text transform="matrix(1 0 0 1 359.635 4494.1997)" class="st9 st2 st3">y</text>
</g>
<g id="edge156">
	<path class="st7" d="M186.8,4464.7c3.7,40.8,18.5,146.4,75.9,207.3c8,8.4,18.2,14.9,28.9,19.9"/>
	<polygon class="st8" points="293.1,4688.7 301,4695.8 290.4,4695.2 	"/>
	<text transform="matrix(1 0 0 1 212.635 4581.1997)" class="st9 st2 st3">y</text>
</g>
<g id="edge157">
	<path class="st7" d="M528.2,4639.1c-39.9,15-97.6,36.7-137,51.5"/>
	<polygon class="st8" points="392.2,4694 381.6,4694.2 389.7,4687.4 	"/>
	<text transform="matrix(1 0 0 1 474.7317 4668.1997)" class="st9 st2 st3">guard</text>
</g>
<g id="node78">
	<polygon class="st10" points="1072.6,4690 798.6,4690 798.6,4726 1072.6,4726 	"/>
	<text transform="matrix(1 0 0 1 806.8391 4711.6997)" class="st1 st2 st3">8883 Guard not, else ArithmeticException</text>
</g>
<g id="edge152">
	<path class="st5" d="M646.5,4639.1c59.8,14,144.4,33.9,206.7,48.5"/>
	<polygon class="st6" points="854,4684.2 862.9,4689.9 852.4,4691 	"/>
</g>
<g id="edge151">
	<path class="st7" d="M509.5,4551c11.6,12.5,28,30.1,41.3,44.4"/>
	<polygon class="st8" points="553.5,4593.2 557.8,4602.9 548.4,4598 	"/>
	<text transform="matrix(1 0 0 1 539.7419 4581.1997)" class="st9 st2 st3">?</text>
</g>
<g id="node76">
	<polygon class="st11" points="347.6,4777 285.1,4795 347.6,4813 410.1,4795 	"/>
	<text transform="matrix(1 0 0 1 321.9421 4798.6997)" class="st1 st2 st3">8832 &gt;&gt;</text>
</g>
<g id="edge158">
	<path class="st7" d="M347.6,4726.2c0,11.6,0,27.2,0,40.6"/>
	<polygon class="st8" points="351.1,4766.8 347.6,4776.8 344.1,4766.8 	"/>
	<text transform="matrix(1 0 0 1 347.635 4755.1997)" class="st9 st2 st3">x</text>
</g>
<g id="node101">
	<polygon class="st11" points="738.6,5560 683.3,5578 738.6,5596 793.9,5578 	"/>
	<text transform="matrix(1 0 0 1 717.03 5581.6997)" class="st1 st2 st3">8960 +</text>
</g>
<g id="edge209">
	<path class="st7" d="M368.3,4807.1c22.8,14,56.4,40.2,56.4,73.9c0,0,0,0,0,611c0,53.2,170.2,74.1,260,81.5"/>
	<polygon class="st8" points="685,5570 694.6,5574.3 684.4,5577 	"/>
	<text transform="matrix(1 0 0 1 424.635 5190.1997)" class="st9 st2 st3">x</text>
</g>
<g id="edge165">
	<path class="st7" d="M914.7,1765.8c-5.7,12.2-14,29.8-20.9,44.3"/>
	<polygon class="st8" points="896.8,1812.1 889.3,1819.6 890.4,1809.1 	"/>
	<text transform="matrix(1 0 0 1 905.0076 1797.2)" class="st9 st2 st3">y [0 - 255]</text>
</g>
<g id="edge167">
	<path class="st7" d="M942.5,1761.4c21.5,10.6,56.3,27.2,87.2,39.6c22.7,9.1,36.2-0.6,52,18c30.4,35.7,18,57.1,18,104
		c0,0,0,0,0,741.5c0,212.5-39,264-39,476.5c0,0,0,0,0,437c0,61.6,52,66.9,52,128.5c0,0,0,0,0,1002.5c0,46.5-47.4,67.8-95.3,77.5"/>
	<polygon class="st8" points="1017.9,4789.9 1007.4,4788.3 1016.6,4783 	"/>
	<text transform="matrix(1 0 0 1 1061.0076 3276.2)" class="st9 st2 st3">y [0 - 255]</text>
</g>
<g id="edge168">
	<path class="st7" d="M932.2,4726.2c-2.4,11.8-5.5,27.7-8.2,41.1"/>
	<polygon class="st8" points="927.3,4768.3 922,4777.4 920.5,4766.9 	"/>
	<text transform="matrix(1 0 0 1 928.7317 4755.1997)" class="st9 st2 st3">guard</text>
</g>
<g id="node81">
	<polygon class="st10" points="933.6,4951 659.6,4951 659.6,4987 933.6,4987 	"/>
	<text transform="matrix(1 0 0 1 667.8391 4972.6997)" class="st1 st2 st3">8886 Guard not, else ArithmeticException</text>
</g>
<g id="edge163">
	<path class="st5" d="M1000.8,4726.1c25.8,10.3,52.8,26.3,67.8,50.9c24.5,40,14.8,116.8-28,156c-4.2,3.9-47.6,10.6-96.7,17.2"/>
	<polygon class="st6" points="944.1,4953.7 933.7,4951.5 943.2,4946.8 	"/>
</g>
<g id="edge162">
	<path class="st7" d="M890.2,1854.4c7.9,16.8,18.5,43.8,18.5,68.6c0,0,0,0,0,2699c0,20.3,7.1,42,14,58.4"/>
	<polygon class="st8" points="925.9,4679.4 926.8,4689.9 919.5,4682.2 	"/>
	<text transform="matrix(1 0 0 1 908.7419 3276.2)" class="st9 st2 st3">?</text>
</g>
<g id="node82">
	<polygon class="st11" points="796.6,4864 603.6,4882 796.6,4900 989.7,4882 	"/>
	<text transform="matrix(1 0 0 1 699.7458 4885.6997)" class="st1 st2 st3">8887 IntegerAddExactOverflow</text>
</g>
<g id="edge171">
	<path class="st7" d="M897.9,4810.4c-19.6,13.6-49.1,34.2-71.3,49.7"/>
	<polygon class="st8" points="828.5,4863.1 818.3,4865.9 824.5,4857.4 	"/>
	<text transform="matrix(1 0 0 1 865.635 4842.1997)" class="st9 st2 st3">x</text>
</g>
<g id="node83">
	<polygon class="st11" points="1044.6,5038 902.2,5056 1044.6,5074 1187.1,5056 	"/>
	<text transform="matrix(1 0 0 1 975.363 5059.6997)" class="st1 st2 st3">8888 IntegerAddExact</text>
</g>
<g id="edge173">
	<path class="st7" d="M941.1,4810.3c17.8,12.3,42.1,31.6,57.5,53.7c35.1,50.2,43.6,124,45.5,163.5"/>
	<polygon class="st8" points="1047.7,5027.6 1044.6,5037.8 1040.7,5027.9 	"/>
	<text transform="matrix(1 0 0 1 1029.635 4929.1997)" class="st9 st2 st3">x</text>
</g>
<g id="edge175">
	<path class="st7" d="M846.5,4987.1c44.4,15.2,108.7,37.2,151.9,52.1"/>
	<polygon class="st8" points="999.8,5035.9 1008.1,5042.5 997.5,5042.5 	"/>
	<text transform="matrix(1 0 0 1 935.7317 5016.1997)" class="st9 st2 st3">guard</text>
</g>
<g id="node85">
	<polygon class="st10" points="1188.6,5299 914.6,5299 914.6,5335 1188.6,5335 	"/>
	<text transform="matrix(1 0 0 1 922.8391 5320.6997)" class="st1 st2 st3">8890 Guard not, else ArithmeticException</text>
</g>
<g id="edge170">
	<path class="st5" d="M797.5,4987.3c3.4,48.1,19.5,184.9,94.1,260.7c21.5,21.8,51.1,37,79,47.4"/>
	<polygon class="st6" points="972.2,5292.3 980.5,5298.9 969.9,5298.9 	"/>
</g>
<g id="edge169">
	<path class="st7" d="M796.6,4900.2c0,11.6,0,27.2,0,40.6"/>
	<polygon class="st8" points="800.1,4940.8 796.6,4950.8 793.1,4940.8 	"/>
	<text transform="matrix(1 0 0 1 796.7419 4929.1997)" class="st9 st2 st3">?</text>
</g>
<g id="node84">
	<polygon class="st11" points="935.6,5125 873.1,5143 935.6,5161 998.1,5143 	"/>
	<text transform="matrix(1 0 0 1 909.9421 5146.6997)" class="st1 st2 st3">8889 &gt;&gt;</text>
</g>
<g id="edge176">
	<path class="st7" d="M1025.6,5071.8c-18.3,14.3-46.2,36.1-66.1,51.5"/>
	<polygon class="st8" points="961.6,5126.2 951.6,5129.6 957.3,5120.7 	"/>
	<text transform="matrix(1 0 0 1 997.635 5103.1997)" class="st9 st2 st3">x</text>
</g>
<g id="node86">
	<polygon class="st11" points="1093.6,5212 900.6,5230 1093.6,5248 1286.7,5230 	"/>
	<text transform="matrix(1 0 0 1 996.7458 5233.6997)" class="st1 st2 st3">8891 IntegerAddExactOverflow</text>
</g>
<g id="edge180">
	<path class="st7" d="M1049.3,5073.5c8.5,29.9,26.5,93.1,36.8,129"/>
	<polygon class="st8" points="1089.5,5201.7 1088.9,5212.3 1082.8,5203.6 	"/>
	<text transform="matrix(1 0 0 1 1073.635 5146.6997)" class="st9 st2 st3">x</text>
</g>
<g id="node87">
	<polygon class="st11" points="872.6,5386 730.2,5404 872.6,5422 1015.1,5404 	"/>
	<text transform="matrix(1 0 0 1 803.363 5407.6997)" class="st1 st2 st3">8892 IntegerAddExact</text>
</g>
<g id="edge182">
	<path class="st7" d="M952.7,5062.4c-38.4,8-77,25.4-89.1,62.6c-28.8,88.5-9.1,201.4,2.4,251.7"/>
	<polygon class="st8" points="869.4,5375.9 868.3,5386.5 862.6,5377.5 	"/>
	<text transform="matrix(1 0 0 1 849.635 5233.6997)" class="st9 st2 st3">x</text>
</g>
<g id="edge181">
	<path class="st7" d="M956.3,5155.1c25.7,13.9,70.1,37.7,101.5,54.6"/>
	<polygon class="st8" points="1059.5,5206.6 1066.6,5214.5 1056.2,5212.8 	"/>
	<text transform="matrix(1 0 0 1 1024.635 5190.1997)" class="st9 st2 st3">y</text>
</g>
<g id="edge183">
	<path class="st7" d="M923.9,5157.8c-10.4,13-25,33.6-32.2,54.2c-19.5,55.8-21.1,126-20.2,163.9"/>
	<polygon class="st8" points="874.9,5376 871.7,5386.1 867.9,5376.2 	"/>
	<text transform="matrix(1 0 0 1 878.635 5277.1997)" class="st9 st2 st3">y</text>
</g>
<g id="edge184">
	<path class="st7" d="M1015.4,5335.2c-30.5,14.5-74.1,35.2-105.1,49.9"/>
	<polygon class="st8" points="911.7,5388.3 901.2,5389.5 908.7,5382 	"/>
	<text transform="matrix(1 0 0 1 973.7317 5364.1997)" class="st9 st2 st3">guard</text>
</g>
<g id="node97">
	<polygon class="st10" points="2240.6,5386 1958.6,5386 1958.6,5422 2240.6,5422 	"/>
	<text transform="matrix(1 0 0 1 1966.9496 5407.6997)" class="st1 st2 st3">8945 Guard not, else TransferToInterpreter</text>
</g>
<g id="edge179">
	<path class="st5" d="M1188.6,5329.1c196.2,15.9,555.8,45.1,759.6,61.6"/>
	<polygon class="st6" points="1948.7,5387.2 1958.4,5391.5 1948.2,5394.2 	"/>
</g>
<g id="edge178">
	<path class="st7" d="M1085.5,5247.4c-5.9,12-14.1,28.5-20.9,42.3"/>
	<polygon class="st8" points="1067.7,5291.4 1060.1,5298.8 1061.4,5288.3 	"/>
	<text transform="matrix(1 0 0 1 1074.7419 5277.1997)" class="st9 st2 st3">?</text>
</g>
<g id="node88">
	<polygon class="st11" points="738.6,5473 676.1,5491 738.6,5509 801.1,5491 	"/>
	<text transform="matrix(1 0 0 1 712.9421 5494.6997)" class="st1 st2 st3">8893 &gt;&gt;</text>
</g>
<g id="edge185">
	<path class="st7" d="M850.2,5419.2c-23.2,14.7-59.5,37.8-84.4,53.5"/>
	<polygon class="st8" points="767.6,5475.8 757.2,5478.2 763.8,5469.9 	"/>
	<text transform="matrix(1 0 0 1 814.635 5451.1997)" class="st9 st2 st3">x</text>
</g>
<g id="edge210">
	<path class="st7" d="M738.6,5509.2c0,11.6,0,27.2,0,40.6"/>
	<polygon class="st8" points="742.1,5549.8 738.6,5559.8 735.1,5549.8 	"/>
	<text transform="matrix(1 0 0 1 738.635 5538.1997)" class="st9 st2 st3">y</text>
</g>
<g id="node89">
	<polygon class="st4" points="2405.6,2863 2185.6,2863 2185.6,2899 2405.6,2899 	"/>
	<text transform="matrix(1 0 0 1 2193.6772 2884.7)" class="st1 st2 st3">8927 AMD64CountLeadingZeros</text>
</g>
<g id="node90">
	<polygon class="st11" points="2466.6,2950 2405,2968 2466.6,2986 2528.3,2968 	"/>
	<text transform="matrix(1 0 0 1 2441.3936 2971.7)" class="st1 st2 st3">8929 |&lt;|</text>
</g>
<g id="edge188">
	<path class="st7" d="M2330.2,2899.2c31,15.4,76,37.8,105.8,52.6"/>
	<polygon class="st8" points="2437.7,2948.7 2445.1,2956.3 2434.6,2955 	"/>
	<text transform="matrix(1 0 0 1 2390.9009 2928.2)" class="st9 st2 st3">x [0 - 32]</text>
</g>
<g id="edge201">
	<path class="st7" d="M2422.3,2973.1c-48.6,7.2-119.6,26.9-119.6,80.9c0,0,0,0,0,2264c0,32.5-22.4,52.7-52.2,65.3"/>
	<polygon class="st8" points="2251.5,5386.7 2240.9,5387 2249,5380.1 	"/>
	<text transform="matrix(1 0 0 1 2302.7422 4189.6997)" class="st9 st2 st3">?</text>
</g>
<g id="node91">
	<polygon class="st11" points="1724.6,2863 1662.1,2881 1724.6,2899 1787.1,2881 	"/>
	<text transform="matrix(1 0 0 1 1698.9421 2884.7)" class="st1 st2 st3">8930 &lt;&lt;</text>
</g>
<g id="node95">
	<polygon class="st11" points="1679.6,4342 1629,4360 1679.6,4378 1730.2,4360 	"/>
	<text transform="matrix(1 0 0 1 1660.2996 4363.6997)" class="st1 st2 st3">8934 |</text>
</g>
<g id="edge197">
	<path class="st7" d="M1724.6,2899.3c0,17.2,0,44.3,0,67.7c0,0,0,0,0,1307c0,24-14.2,47.9-26.7,64.2"/>
	<polygon class="st8" points="1700.7,4340.4 1691.7,4346 1695.2,4336 	"/>
	<text transform="matrix(1 0 0 1 1724.635 3624.2)" class="st9 st2 st3">x</text>
</g>
<g id="node92">
	<polygon class="st4" points="2210.6,4255 1990.6,4255 1990.6,4291 2210.6,4291 	"/>
	<text transform="matrix(1 0 0 1 1998.6771 4276.6997)" class="st1 st2 st3">8931 AMD64CountLeadingZeros</text>
</g>
<g id="node93">
	<polygon class="st11" points="2392.6,4342 2331,4360 2392.6,4378 2454.3,4360 	"/>
	<text transform="matrix(1 0 0 1 2367.3936 4363.6997)" class="st1 st2 st3">8932 |&lt;|</text>
</g>
<g id="edge193">
	<path class="st7" d="M2159.4,4291.1c57.8,16.8,144.4,42,194.2,56.5"/>
	<polygon class="st8" points="2354.7,4344.3 2363.4,4350.5 2352.8,4351 	"/>
	<text transform="matrix(1 0 0 1 2263.9009 4320.1997)" class="st9 st2 st3">x [0 - 32]</text>
</g>
<g id="node98">
	<polygon class="st10" points="2240.6,5473 1958.6,5473 1958.6,5509 2240.6,5509 	"/>
	<text transform="matrix(1 0 0 1 1966.9496 5494.6997)" class="st1 st2 st3">8946 Guard not, else TransferToInterpreter</text>
</g>
<g id="edge203">
	<path class="st7" d="M2385.1,4375.9c-7.7,16.7-18.5,44.6-18.5,70.1c0,0,0,0,0,959c0,31.3-67.5,52.6-134.6,66.1"/>
	<polygon class="st8" points="2232.7,5474.5 2222.2,5473 2231.3,5467.6 	"/>
	<text transform="matrix(1 0 0 1 2366.7422 4929.1997)" class="st9 st2 st3">?</text>
</g>
<g id="node94">
	<polygon class="st11" points="1633.6,4255 1571.1,4273 1633.6,4291 1696.1,4273 	"/>
	<text transform="matrix(1 0 0 1 1607.9421 4276.6997)" class="st1 st2 st3">8933 &lt;&lt;</text>
</g>
<g id="edge198">
	<path class="st7" d="M1641.6,4288.8c7,12.9,17.2,31.8,25.3,46.7"/>
	<polygon class="st8" points="1670.2,4334.2 1671.9,4344.6 1664,4337.5 	"/>
	<text transform="matrix(1 0 0 1 1658.635 4320.1997)" class="st9 st2 st3">y</text>
</g>
<g id="node96">
	<polygon class="st11" points="1679.6,5647 1629,5665 1679.6,5683 1730.2,5665 	"/>
	<text transform="matrix(1 0 0 1 1660.2996 5668.6997)" class="st1 st2 st3">8935 |</text>
</g>
<g id="edge199">
	<path class="st7" d="M1679.6,4378.3c0,17.2,0,44.3,0,67.7c0,0,0,0,0,1133c0,19.2,0,41,0,57.6"/>
	<polygon class="st8" points="1683.1,5636.7 1679.6,5646.7 1676.1,5636.7 	"/>
	<text transform="matrix(1 0 0 1 1679.635 5016.1997)" class="st9 st2 st3">x</text>
</g>
<g id="node102">
	<polygon class="st4" points="2016.6,5734 1814.6,5734 1814.6,5770 2016.6,5770 	"/>
	<text transform="matrix(1 0 0 1 1823.0149 5755.6997)" class="st1 st2 st3">8990 BoxNode$AllocatingBox</text>
</g>
<g id="edge211">
	<path class="st7" d="M1703.6,5674.6c36,13,105.3,37.9,154.8,55.8"/>
	<polygon class="st8" points="1859.8,5727.2 1868,5733.9 1857.5,5733.8 	"/>
	<text transform="matrix(1 0 0 1 1811.9006 5712.1997)" class="st9 st2 st3">value</text>
</g>
<g id="edge202">
	<path class="st5" d="M2099.6,5422.2c0,11.6,0,27.2,0,40.6"/>
	<polygon class="st6" points="2103.1,5462.8 2099.6,5472.8 2096.1,5462.8 	"/>
</g>
<g id="edge204">
	<path class="st5" d="M2087.3,5509.4c-31.7,44.6-115.9,163.2-153.3,215.8"/>
	<polygon class="st6" points="1936.6,5727.5 1927.9,5733.7 1930.9,5723.5 	"/>
</g>
<g id="edge187">
	<path class="st7" d="M1974.9,2803c11.1,3,24,6.4,35.8,9c41.9,9.5,53.1,8.5,95,18c39.8,9,84,20.5,119.7,30.2"/>
	<polygon class="st8" points="2226.4,2856.9 2235.1,2862.9 2224.6,2863.7 	"/>
	<text transform="matrix(1 0 0 1 2162.9009 2841.2)" class="st9 st2 st3">value</text>
</g>
<g id="edge190">
	<path class="st7" d="M1922.5,2804.3c-39.4,15.1-117.5,45-162.9,62.4"/>
	<polygon class="st8" points="1760.7,2869.9 1750.1,2870.2 1758.2,2863.4 	"/>
	<text transform="matrix(1 0 0 1 1848.635 2841.2)" class="st9 st2 st3">x</text>
</g>
<g id="edge192">
	<path class="st7" d="M1919.6,4196.6c31.5,13.1,89,37.1,130.7,54.5"/>
	<polygon class="st8" points="2051.9,4247.9 2059.8,4255 2049.2,4254.4 	"/>
	<text transform="matrix(1 0 0 1 2010.9006 4233.1997)" class="st9 st2 st3">value</text>
</g>
<g id="edge195">
	<path class="st7" d="M1870,4195.6c-47.1,15.2-145.1,46.9-198.9,64.3"/>
	<polygon class="st8" points="1672.2,4263.2 1661.6,4263 1670,4256.6 	"/>
	<text transform="matrix(1 0 0 1 1780.635 4233.1997)" class="st9 st2 st3">x</text>
</g>
<g id="edge200">
	<path class="st7" d="M779.7,5582.7c152.6,13.8,687.3,62.1,851.6,76.9"/>
	<polygon class="st8" points="1631.9,5656.2 1641.5,5660.6 1631.2,5663.1 	"/>
	<text transform="matrix(1 0 0 1 1264.635 5625.1997)" class="st9 st2 st3">y</text>
</g>
<g id="edge11">
	<path class="st7" d="M1900.3,5770.1c-6.6,9.4-12.2,21.5-8.6,32.9c1,3.2,2.4,6.3,4,9.3"/>
	<polygon class="st8" points="1898.6,5810.6 1900.9,5820.9 1892.7,5814.3 	"/>
	<text transform="matrix(1 0 0 1 1892.0178 5799.1997)" class="st9 st2 st3">result</text>
</g>
<g id="edge212">
	<path class="st5" d="M1922.2,5770.2c1.8,5.6,3.5,11.9,4.4,17.8c1.2,7.6,0.3,15.8-1.4,23.3"/>
	<polygon class="st6" points="1928.6,5812.3 1922.6,5821 1921.9,5810.4 	"/>
</g>
<g id="node103">
	<ellipse class="st12" cx="1248.6" cy="190" rx="32.2" ry="18"/>
	<text transform="matrix(1 0 0 1 1228.6233 191.8999)" class="st1 st2 st13">953 C(255)</text>
</g>
<g id="edge5">
	<path class="st7" d="M1248.6,208.2c0,14.8,0,35.9,0,50.6"/>
	<text transform="matrix(1 0 0 1 1248.635 235.3999)" class="st9 st2 st13">x</text>
</g>
<g id="node104">
	<ellipse class="st12" cx="1138.6" cy="1663" rx="32.2" ry="18"/>
	<text transform="matrix(1 0 0 1 1118.6233 1664.8999)" class="st1 st2 st13">953 C(255)</text>
</g>
<g id="edge7">
	<path class="st7" d="M1138.6,1681.2c0,14.8,0,35.9,0,50.6"/>
	<text transform="matrix(1 0 0 1 1138.635 1708.3999)" class="st9 st2 st13">x</text>
</g>
<g id="node105">
	<ellipse class="st12" cx="1711.6" cy="277" rx="86.6" ry="18"/>
	<text transform="matrix(1 0 0 1 1643.5354 278.8999)" class="st1 st2 st13">1622 C(RubyBasicObject@227279e6)</text>
</g>
<g id="edge10">
	<path class="st7" d="M1693.9,294.8c-17.1,16.2-42.6,40.3-58.3,55.1"/>
	<text transform="matrix(1 0 0 1 1671.635 322.3999)" class="st9 st2 st13">y</text>
</g>
<g id="node106">
	<ellipse class="st12" cx="2209.6" cy="532" rx="47.2" ry="18"/>
	<text transform="matrix(1 0 0 1 2176.5728 533.8999)" class="st1 st2 st13">8545 C(16711680)</text>
</g>
<g id="edge16">
	<path class="st7" d="M2209.6,550.2c0,14.8,0,35.9,0,50.6"/>
	<text transform="matrix(1 0 0 1 2209.6353 577.3999)" class="st9 st2 st13">y</text>
</g>
<g id="node107">
	<ellipse class="st12" cx="2397.6" cy="619" rx="32.2" ry="18"/>
	<text transform="matrix(1 0 0 1 2377.6235 620.8999)" class="st1 st2 st13">8539 C(16)</text>
</g>
<g id="edge18">
	<path class="st7" d="M2397.6,637.2c0,14.8,0,35.9,0,50.6"/>
	<text transform="matrix(1 0 0 1 2397.6353 664.3999)" class="st9 st2 st13">y</text>
</g>
<g id="node108">
	<ellipse class="st12" cx="2173.6" cy="967" rx="34.7" ry="18"/>
	<text transform="matrix(1 0 0 1 2151.3989 968.8999)" class="st1 st2 st13">8573 C(128)</text>
</g>
<g id="edge30">
	<path class="st7" d="M2160.3,984c-12.7,15.2-31.7,37.9-44.4,53.1"/>
	<text transform="matrix(1 0 0 1 2141.6353 1012.3999)" class="st9 st2 st13">y</text>
</g>
<g id="node109">
	<ellipse class="st12" cx="2026.6" cy="1141" rx="34.7" ry="18"/>
	<text transform="matrix(1 0 0 1 2004.3987 1142.8999)" class="st1 st2 st13">8573 C(128)</text>
</g>
<g id="edge32">
	<path class="st7" d="M2026.6,1159.2c0,14.8,0,35.9,0,50.6"/>
	<text transform="matrix(1 0 0 1 2026.635 1186.3999)" class="st9 st2 st13">y</text>
</g>
<g id="node110">
	<ellipse class="st12" cx="2214.6" cy="1228" rx="27.5" ry="18"/>
	<text transform="matrix(1 0 0 1 2199.0728 1229.8999)" class="st1 st2 st13">175 C(8)</text>
</g>
<g id="edge35">
	<path class="st7" d="M2202.3,1244.2c-12.9,15.8-32.9,40.5-45.4,55.9"/>
	<text transform="matrix(1 0 0 1 2183.6353 1273.3999)" class="st9 st2 st13">y</text>
</g>
<g id="node111">
	<ellipse class="st12" cx="2371.6" cy="1576" rx="27.5" ry="18"/>
	<text transform="matrix(1 0 0 1 2356.0728 1577.8999)" class="st1 st2 st13">175 C(8)</text>
</g>
<g id="edge44">
	<path class="st7" d="M2349.7,1587.1c-5,2.3-10.2,4.7-15.1,6.9c-45.1,20.5-98,44.3-127.7,57.6"/>
	<text transform="matrix(1 0 0 1 2292.6353 1621.3999)" class="st9 st2 st13">y</text>
</g>
<g id="node112">
	<ellipse class="st12" cx="1938.6" cy="1576" rx="47.2" ry="18"/>
	<text transform="matrix(1 0 0 1 1905.5725 1577.8999)" class="st1 st2 st13">8545 C(16711680)</text>
</g>
<g id="edge47">
	<path class="st7" d="M1923.6,1593.4c-14.8,16.1-37.1,40.4-50.8,55.3"/>
	<text transform="matrix(1 0 0 1 1903.635 1621.3999)" class="st9 st2 st13">y</text>
</g>
<g id="node113">
	<ellipse class="st12" cx="1984.6" cy="1663" rx="32.2" ry="18"/>
	<text transform="matrix(1 0 0 1 1964.6233 1664.8999)" class="st1 st2 st13">8539 C(16)</text>
</g>
<g id="edge49">
	<path class="st7" d="M1984.4,1681.2c-0.2,14.8-0.4,35.9-0.6,50.6"/>
	<text transform="matrix(1 0 0 1 1983.635 1708.3999)" class="st9 st2 st13">y</text>
</g>
<g id="node114">
	<ellipse class="st12" cx="1719.6" cy="2011" rx="34.7" ry="18"/>
	<text transform="matrix(1 0 0 1 1697.3987 2012.8999)" class="st1 st2 st13">8573 C(128)</text>
</g>
<g id="edge60">
	<path class="st7" d="M1731.3,2028c11,15.1,27.4,37.6,38.5,52.8"/>
	<text transform="matrix(1 0 0 1 1753.635 2056.3999)" class="st9 st2 st13">y</text>
</g>
<g id="node115">
	<ellipse class="st12" cx="2065.6" cy="2185" rx="34.7" ry="18"/>
	<text transform="matrix(1 0 0 1 2043.3988 2186.8999)" class="st1 st2 st13">8573 C(128)</text>
</g>
<g id="edge62">
	<path class="st7" d="M2053.7,2202.3c-9,11.1-22.2,25.3-37.1,33.7c-23.5,13.3-51.9,21.6-77.4,26.7"/>
	<text transform="matrix(1 0 0 1 2035.635 2230.3999)" class="st9 st2 st13">y</text>
</g>
<g id="node116">
	<ellipse class="st12" cx="2057.6" cy="2272" rx="27.5" ry="18"/>
	<text transform="matrix(1 0 0 1 2042.0726 2273.8999)" class="st1 st2 st13">175 C(8)</text>
</g>
<g id="edge65">
	<path class="st7" d="M2052.7,2289.8c-4.5,15.2-11,37.4-15.4,52.3"/>
	<text transform="matrix(1 0 0 1 2045.635 2317.3999)" class="st9 st2 st13">y</text>
</g>
<g id="node117">
	<ellipse class="st12" cx="2101.6" cy="2620" rx="27.5" ry="18"/>
	<text transform="matrix(1 0 0 1 2086.0728 2621.8999)" class="st1 st2 st13">175 C(8)</text>
</g>
<g id="edge74">
	<path class="st7" d="M2081.8,2632.5c-28.1,16.2-79.1,45.7-107.2,62"/>
	<text transform="matrix(1 0 0 1 2036.635 2665.3999)" class="st9 st2 st13">y</text>
</g>
<g id="node118">
	<ellipse class="st12" cx="2004.6" cy="532" rx="39.9" ry="18"/>
	<text transform="matrix(1 0 0 1 1977.9495 533.8999)" class="st1 st2 st13">8671 C(65280)</text>
</g>
<g id="edge76">
	<path class="st7" d="M2004.6,550.2c0,14.8,0,35.9,0,50.6"/>
	<text transform="matrix(1 0 0 1 2004.635 577.3999)" class="st9 st2 st13">y</text>
</g>
<g id="node119">
	<ellipse class="st12" cx="2105.6" cy="619" rx="27.5" ry="18"/>
	<text transform="matrix(1 0 0 1 2090.0728 620.8999)" class="st1 st2 st13">175 C(8)</text>
</g>
<g id="edge78">
	<path class="st7" d="M2103.4,637.2c-1.9,14.9-4.7,36.4-6.6,51.2"/>
	<text transform="matrix(1 0 0 1 2100.6353 664.3999)" class="st9 st2 st13">y</text>
</g>
<g id="node120">
	<ellipse class="st12" cx="2230.6" cy="2707" rx="34.7" ry="18"/>
	<text transform="matrix(1 0 0 1 2208.3989 2708.8999)" class="st1 st2 st13">8573 C(128)</text>
</g>
<g id="edge89">
	<path class="st7" d="M2227,2725.2c-3.1,14.9-7.7,36.2-10.8,50.9"/>
	<text transform="matrix(1 0 0 1 2222.6353 2752.3999)" class="st9 st2 st13">y</text>
</g>
<g id="node121">
	<ellipse class="st12" cx="2132.6" cy="2881" rx="34.7" ry="18"/>
	<text transform="matrix(1 0 0 1 2110.3989 2882.8999)" class="st1 st2 st13">8573 C(128)</text>
</g>
<g id="edge91">
	<path class="st7" d="M2129,2899.2c-3.2,14.9-7.7,36.4-10.8,51.2"/>
	<text transform="matrix(1 0 0 1 2124.6353 2926.3999)" class="st9 st2 st13">y</text>
</g>
<g id="node122">
	<ellipse class="st12" cx="2302.6" cy="2968" rx="27.5" ry="18"/>
	<text transform="matrix(1 0 0 1 2287.0728 2969.8999)" class="st1 st2 st13">175 C(8)</text>
</g>
<g id="edge94">
	<path class="st7" d="M2282.2,2980.1c-29.7,16.2-84.7,46.1-114.7,62.5"/>
	<text transform="matrix(1 0 0 1 2233.6353 3013.3999)" class="st9 st2 st13">y</text>
</g>
<g id="node123">
	<ellipse class="st12" cx="1930.6" cy="3316" rx="27.5" ry="18"/>
	<text transform="matrix(1 0 0 1 1915.0725 3317.8999)" class="st1 st2 st13">175 C(8)</text>
</g>
<g id="edge103">
	<path class="st7" d="M1930.6,3334.2c0,14.8,0,35.9,0,50.6"/>
	<text transform="matrix(1 0 0 1 1930.635 3361.3999)" class="st9 st2 st13">y</text>
</g>
<g id="node124">
	<ellipse class="st12" cx="1611.6" cy="1576" rx="39.9" ry="18"/>
	<text transform="matrix(1 0 0 1 1584.9495 1577.8999)" class="st1 st2 st13">8671 C(65280)</text>
</g>
<g id="edge105">
	<path class="st7" d="M1611.6,1594.2c0,14.8,0,35.9,0,50.6"/>
	<text transform="matrix(1 0 0 1 1611.635 1621.3999)" class="st9 st2 st13">y</text>
</g>
<g id="node125">
	<ellipse class="st12" cx="1395.6" cy="1663" rx="27.5" ry="18"/>
	<text transform="matrix(1 0 0 1 1380.0725 1664.8999)" class="st1 st2 st13">175 C(8)</text>
</g>
<g id="edge107">
	<path class="st7" d="M1395.6,1681.2c0,14.8,0,35.9,0,50.6"/>
	<text transform="matrix(1 0 0 1 1395.635 1708.3999)" class="st9 st2 st13">y</text>
</g>
<g id="node126">
	<ellipse class="st12" cx="1151.6" cy="3403" rx="34.7" ry="18"/>
	<text transform="matrix(1 0 0 1 1129.3987 3404.8999)" class="st1 st2 st13">8573 C(128)</text>
</g>
<g id="edge118">
	<path class="st7" d="M1172.2,3417.5c23.5,15.4,61.8,40.4,86.3,56.4"/>
	<text transform="matrix(1 0 0 1 1223.635 3448.3999)" class="st9 st2 st13">y</text>
</g>
<g id="node127">
	<ellipse class="st12" cx="1565.6" cy="3577" rx="34.7" ry="18"/>
	<text transform="matrix(1 0 0 1 1543.3987 3578.8999)" class="st1 st2 st13">8573 C(128)</text>
</g>
<g id="edge120">
	<path class="st7" d="M1553.4,3593.9c-9.1,10.9-22.4,25-36.8,34.1c-16.5,10.5-36.6,18.3-54.5,23.8"/>
	<text transform="matrix(1 0 0 1 1534.635 3622.3999)" class="st9 st2 st13">y</text>
</g>
<g id="node128">
	<ellipse class="st12" cx="1603.6" cy="3664" rx="27.5" ry="18"/>
	<text transform="matrix(1 0 0 1 1588.0725 3665.8999)" class="st1 st2 st13">175 C(8)</text>
</g>
<g id="edge123">
	<path class="st7" d="M1586.8,3678.3c-20.5,16.2-54.9,43.2-75.1,59.1"/>
	<text transform="matrix(1 0 0 1 1555.635 3709.3999)" class="st9 st2 st13">y</text>
</g>
<g id="node129">
	<ellipse class="st12" cx="1817.6" cy="4012" rx="27.5" ry="18"/>
	<text transform="matrix(1 0 0 1 1802.0725 4013.9001)" class="st1 st2 st13">175 C(8)</text>
</g>
<g id="edge132">
	<path class="st7" d="M1817.6,4030.2c0,14.8,0,35.9,0,50.6"/>
	<text transform="matrix(1 0 0 1 1817.635 4057.4001)" class="st9 st2 st13">y</text>
</g>
<g id="node130">
	<ellipse class="st12" cx="582.6" cy="619" rx="32.2" ry="18"/>
	<text transform="matrix(1 0 0 1 562.6233 620.8999)" class="st1 st2 st13">953 C(255)</text>
</g>
<g id="edge134">
	<path class="st7" d="M582.6,637.2c0,14.8,0,35.9,0,50.6"/>
	<text transform="matrix(1 0 0 1 582.635 664.3999)" class="st9 st2 st13">y</text>
</g>
<g id="node131">
	<ellipse class="st12" cx="652.6" cy="4099" rx="34.7" ry="18"/>
	<text transform="matrix(1 0 0 1 630.3987 4100.8999)" class="st1 st2 st13">8573 C(128)</text>
</g>
<g id="edge145">
	<path class="st7" d="M634.7,4114.8c-18.6,15.3-47.4,39.1-66.3,54.7"/>
	<text transform="matrix(1 0 0 1 607.635 4144.3999)" class="st9 st2 st13">y</text>
</g>
<g id="node132">
	<ellipse class="st12" cx="38.6" cy="4273" rx="34.7" ry="18"/>
	<text transform="matrix(1 0 0 1 16.3987 4274.8999)" class="st1 st2 st13">8573 C(128)</text>
</g>
<g id="edge147">
	<path class="st7" d="M65.6,4284.6c5.6,2.2,11.5,4.4,17.1,6.4c54.6,20.1,118.3,42.2,157.4,55.6"/>
	<text transform="matrix(1 0 0 1 173.635 4318.3999)" class="st9 st2 st13">y</text>
</g>
<g id="node133">
	<ellipse class="st12" cx="88.6" cy="4360" rx="27.5" ry="18"/>
	<text transform="matrix(1 0 0 1 73.0725 4361.8999)" class="st1 st2 st13">175 C(8)</text>
</g>
<g id="edge150">
	<path class="st7" d="M104.7,4375c18.4,16.1,48.3,42.4,66.2,58"/>
	<text transform="matrix(1 0 0 1 143.635 4405.3999)" class="st9 st2 st13">y</text>
</g>
<g id="node134">
	<ellipse class="st12" cx="159.6" cy="4708" rx="27.5" ry="18"/>
	<text transform="matrix(1 0 0 1 144.0725 4709.8999)" class="st1 st2 st13">175 C(8)</text>
</g>
<g id="edge159">
	<path class="st7" d="M181.5,4719.1c5,2.3,10.2,4.7,15.1,6.9c45.1,20.5,98,44.3,127.7,57.6"/>
	<text transform="matrix(1 0 0 1 267.635 4753.3999)" class="st9 st2 st13">y</text>
</g>
<g id="node135">
	<ellipse class="st12" cx="921.6" cy="1663" rx="32.2" ry="18"/>
	<text transform="matrix(1 0 0 1 901.6233 1664.8999)" class="st1 st2 st13">953 C(255)</text>
</g>
<g id="edge161">
	<path class="st7" d="M921.6,1681.2c0,14.8,0,35.9,0,50.6"/>
	<text transform="matrix(1 0 0 1 921.635 1708.3999)" class="st9 st2 st13">y</text>
</g>
<g id="node136">
	<ellipse class="st12" cx="725.6" cy="4795" rx="34.7" ry="18"/>
	<text transform="matrix(1 0 0 1 703.3987 4796.8999)" class="st1 st2 st13">8573 C(128)</text>
</g>
<g id="edge172">
	<path class="st7" d="M739,4812c12.7,15.2,31.7,37.9,44.3,53.1"/>
	<text transform="matrix(1 0 0 1 765.635 4840.3999)" class="st9 st2 st13">y</text>
</g>
<g id="node137">
	<ellipse class="st12" cx="986.6" cy="4969" rx="34.7" ry="18"/>
	<text transform="matrix(1 0 0 1 964.3987 4970.8999)" class="st1 st2 st13">8573 C(128)</text>
</g>
<g id="edge174">
	<path class="st7" d="M997.8,4986.4c10.4,15.2,25.8,37.8,36.1,52.8"/>
	<text transform="matrix(1 0 0 1 1019.635 5014.3999)" class="st9 st2 st13">y</text>
</g>
<g id="node138">
	<ellipse class="st12" cx="856.6" cy="5056" rx="27.5" ry="18"/>
	<text transform="matrix(1 0 0 1 841.0725 5057.8999)" class="st1 st2 st13">175 C(8)</text>
</g>
<g id="edge177">
	<path class="st7" d="M870.4,5071.8c14.9,16,38.3,41.2,52.7,56.7"/>
	<text transform="matrix(1 0 0 1 901.635 5101.3999)" class="st9 st2 st13">y</text>
</g>
<g id="node139">
	<ellipse class="st12" cx="684.6" cy="5404" rx="27.5" ry="18"/>
	<text transform="matrix(1 0 0 1 669.0725 5405.8999)" class="st1 st2 st13">175 C(8)</text>
</g>
<g id="edge186">
	<path class="st7" d="M694.8,5421c10,15.7,25,39.4,34.6,54.5"/>
	<text transform="matrix(1 0 0 1 715.635 5449.3999)" class="st9 st2 st13">y</text>
</g>
<g id="node140">
	<ellipse class="st12" cx="2544.6" cy="2881" rx="32.2" ry="18"/>
	<text transform="matrix(1 0 0 1 2524.6235 2882.8999)" class="st1 st2 st13">8928 C(17)</text>
</g>
<g id="edge189">
	<path class="st7" d="M2539.9,2899.2c-3.5,10.4-9.1,23.4-17.3,32.8c-9,10.4-21.9,18.7-33,24.7"/>
	<text transform="matrix(1 0 0 1 2531.6353 2926.3999)" class="st9 st2 st13">y</text>
</g>
<g id="node141">
	<ellipse class="st12" cx="1724.6" cy="2794" rx="32.2" ry="18"/>
	<text transform="matrix(1 0 0 1 1704.6233 2795.8999)" class="st1 st2 st13">8539 C(16)</text>
</g>
<g id="edge191">
	<path class="st7" d="M1724.6,2812.2c0,14.8,0,35.9,0,50.6"/>
	<text transform="matrix(1 0 0 1 1724.635 2839.3999)" class="st9 st2 st13">y</text>
</g>
<g id="node142">
	<ellipse class="st12" cx="2392.6" cy="4273" rx="27.5" ry="18"/>
	<text transform="matrix(1 0 0 1 2377.0728 4274.8999)" class="st1 st2 st13">193 C(9)</text>
</g>
<g id="edge194">
	<path class="st7" d="M2392.6,4291.2c0,14.8,0,35.9,0,50.6"/>
	<text transform="matrix(1 0 0 1 2392.6353 4318.3999)" class="st9 st2 st13">y</text>
</g>
<g id="node143">
	<ellipse class="st12" cx="1633.6" cy="4186" rx="27.5" ry="18"/>
	<text transform="matrix(1 0 0 1 1618.0725 4187.8999)" class="st1 st2 st13">175 C(8)</text>
</g>
<g id="edge196">
	<path class="st7" d="M1633.6,4204.2c0,14.8,0,35.9,0,50.6"/>
	<text transform="matrix(1 0 0 1 1633.635 4231.3999)" class="st9 st2 st13">y</text>
</g>
<g id="node144">
	<ellipse class="st12" cx="1174.6" cy="22" rx="28.9" ry="18"/>
	<text transform="matrix(1 0 0 1 1157.3655 23.8999)" class="st1 st2 st13">9000 T(9)</text>
</g>
<g id="edge214">
	<path class="st7" d="M1174.6,40.1c0,13.2,0,31.5,0,44.8"/>
	<text transform="matrix(1 0 0 1 1175.0725 64.3999)" class="st9 st2 st13">value</text>
</g>
<g id="node145">
	<ellipse class="st12" cx="1577.6" cy="277" rx="28.9" ry="18"/>
	<text transform="matrix(1 0 0 1 1560.3655 278.8999)" class="st1 st2 st13">8996 T(5)</text>
</g>
<g id="edge215">
	<path class="st7" d="M1586.1,294.4c8.1,15.5,20,38.7,27.8,53.7"/>
	<text transform="matrix(1 0 0 1 1601.635 322.3999)" class="st9 st2 st13">x</text>
</g>
<g id="node146">
	<ellipse class="st12" cx="1844.6" cy="451" rx="28.9" ry="18"/>
	<text transform="matrix(1 0 0 1 1827.3655 452.8999)" class="st1 st2 st13">8998 T(7)</text>
</g>
<g id="edge216">
	<path class="st7" d="M1844.6,469.1c0,13.2,0,31.5,0,44.8"/>
	<text transform="matrix(1 0 0 1 1845.0725 493.3999)" class="st9 st2 st13">value</text>
</g>
<g id="node147">
	<ellipse class="st12" cx="1901.6" cy="619" rx="28.9" ry="18"/>
	<text transform="matrix(1 0 0 1 1884.3655 620.8999)" class="st1 st2 st13">9000 T(9)</text>
</g>
<g id="edge217">
	<path class="st7" d="M1901.6,637.2c0,14.8,0,35.9,0,50.6"/>
	<text transform="matrix(1 0 0 1 1902.0725 664.3999)" class="st9 st2 st13">value</text>
</g>
<g id="node148">
	<ellipse class="st12" cx="1827.6" cy="1489" rx="28.9" ry="18"/>
	<text transform="matrix(1 0 0 1 1810.3655 1490.8999)" class="st1 st2 st13">8999 T(8)</text>
</g>
<g id="edge218">
	<path class="st7" d="M1827.6,1507.2c0,14.8,0,35.9,0,50.6"/>
	<text transform="matrix(1 0 0 1 1828.0725 1534.3999)" class="st9 st2 st13">value</text>
</g>
</svg>
