<?xml version="1.0" encoding="utf-8"?>
<!-- Generator: Adobe Illustrator 25.4.1, SVG Export Plug-In . SVG Version: 6.00 Build 0)  -->
<svg version="1.1" id="Layer_1" xmlns="http://www.w3.org/2000/svg" xmlns:xlink="http://www.w3.org/1999/xlink" x="0px" y="0px"
	 viewBox="0 0 1694 1598" style="enable-background:new 0 0 1694 1598;" xml:space="preserve">
<style type="text/css">
	.st0{fill:#E98693;stroke:#000000;stroke-width:0.9999;stroke-miterlimit:3.9996;}
	.st1{fill:#1A1919;}
	.st2{font-family:'ArialMT';}
	.st3{font-size:13.9988px;}
	.st4{fill:#F9F9F9;stroke:#000000;stroke-width:0.9999;stroke-miterlimit:3.9996;}
	.st5{fill:none;stroke:#DA2D4F;stroke-width:1.9998;stroke-miterlimit:3.9996;}
	.st6{fill:#DA2D4F;stroke:#DA2D4F;stroke-width:1.9998;stroke-miterlimit:3.9996;}
	.st7{fill:none;stroke:#3CB4A4;stroke-width:0.9999;stroke-miterlimit:3.9996;}
	.st8{fill:#3CB4A4;stroke:#3CB4A4;stroke-width:0.9999;stroke-miterlimit:3.9996;}
	.st9{fill:#3CB4A4;}
	.st10{fill:#3CB4A4;stroke:#000000;stroke-width:0.9999;stroke-miterlimit:3.9996;}
	.st11{fill:#FFA500;stroke:#000000;stroke-width:0.9999;stroke-miterlimit:3.9996;}
	.st12{fill:#D7EDE7;stroke:#000000;stroke-width:0.9999;stroke-miterlimit:3.9996;}
	.st13{font-size:7.9993px;}
</style>
<g id="node1">
	<polygon class="st0" points="649.1,85.1 591.1,85.1 591.1,121.1 649.1,121.1 	"/>
	<text transform="matrix(1 0 0 1 599.4766 106.761)" class="st1 st2 st3">0 Start</text>
</g>
<g id="node3">
	<polygon class="st4" points="825.1,172.1 741.1,172.1 741.1,208.1 825.1,208.1 	"/>
	<text transform="matrix(1 0 0 1 749.2256 193.7532)" class="st1 st2 st3">860 Unbox</text>
</g>
<g id="edge109">
	<path class="st5" d="M649.2,119.3c25.6,13.3,63.2,32.9,92,48"/>
	<polygon class="st6" points="743,164.2 750.3,171.9 739.8,170.4 	"/>
</g>
<g id="node2">
	<polygon class="st4" points="898.6,85.1 667.6,85.1 667.6,121.1 898.6,121.1 	"/>
	<text transform="matrix(1 0 0 1 676.0732 106.761)" class="st1 st2 st3">203 BoxNode$TrustedBoxedValue</text>
</g>
<g id="edge1">
	<path class="st7" d="M783.1,121.3c0,11.6,0,27.2,0,40.6"/>
	<polygon class="st8" points="786.6,161.9 783.1,171.9 779.6,161.9 	"/>
	<text transform="matrix(1 0 0 1 783.3467 150.2571)" class="st9 st2 st3">value</text>
</g>
<g id="node4">
	<polygon class="st10" points="941.1,514 885.8,532 941.1,550 996.4,532 	"/>
	<text transform="matrix(1 0 0 1 919.4023 535.7229)" class="st1 st2 st3">1186 &amp;</text>
</g>
<g id="edge3">
	<path class="st7" d="M825.1,192.7c29,3.2,67,11.6,93,33.3c18.8,15.7,23,25.5,23,50c0,0,0,0,0,170c0,19.2,0,40.9,0,57.6"/>
	<polygon class="st8" points="944.6,503.8 941.1,513.8 937.6,503.8 	"/>
	<text transform="matrix(1 0 0 1 941.0664 361.7385)" class="st9 st2 st3">x</text>
</g>
<g id="node7">
	<polygon class="st11" points="912.6,259 653.6,259 653.6,295 912.6,295 	"/>
	<text transform="matrix(1 0 0 1 662.082 280.7454)" class="st1 st2 st3">8653 Guard, else TransferToInterpreter</text>
</g>
<g id="edge2">
	<path class="st5" d="M783.1,208.3c0,11.6,0,27.2,0,40.6"/>
	<polygon class="st6" points="786.6,248.9 783.1,258.9 779.6,248.9 	"/>
</g>
<g id="node8">
	<polygon class="st10" points="838.1,601 786.6,619 838.1,637 889.5,619 	"/>
	<text transform="matrix(1 0 0 1 818.2295 622.7161)" class="st1 st2 st3">8856 -</text>
</g>
<g id="edge10">
	<path class="st7" d="M919.3,543.2c-12.2,6.2-27.3,14.9-39.2,24.9c-9.7,8.1-19,18.7-26.3,28"/>
	<polygon class="st8" points="856.5,598.3 847.6,604.1 850.9,594.1 	"/>
	<text transform="matrix(1 0 0 1 880.4443 579.219)" class="st9 st2 st3">y [0 - 255]</text>
</g>
<g id="node28">
	<polygon class="st10" points="1481,601 1428.7,619 1481,637 1533.3,619 	"/>
	<text transform="matrix(1 0 0 1 1460.7793 622.7161)" class="st1 st2 st3">9316 *</text>
</g>
<g id="edge47">
	<path class="st7" d="M969,541.1c11.2,3.1,24.2,6.4,36.1,8.9c50.6,10.7,64.9,5,115,18c18.8,4.9,22,10.9,41,15
		c112.8,24.1,145.3-1.6,259,18c8.4,1.4,17.3,3.6,25.6,5.8"/>
	<polygon class="st8" points="1446.8,603.5 1455.5,609.6 1444.9,610.3 	"/>
	<text transform="matrix(1 0 0 1 1161.4199 579.219)" class="st9 st2 st3">x [0 - 255]</text>
</g>
<g id="node30">
	<polygon class="st10" points="1056.1,601 1003.8,619 1056.1,637 1108.3,619 	"/>
	<text transform="matrix(1 0 0 1 1035.8174 622.7161)" class="st1 st2 st3">9318 *</text>
</g>
<g id="edge51">
	<path class="st7" d="M951.3,547.1c8.4,10.8,21.2,25.6,34.7,36c11.3,8.6,24.9,16,37.2,21.7"/>
	<polygon class="st8" points="1025,601.7 1032.7,609 1022.2,608.1 	"/>
	<text transform="matrix(1 0 0 1 986.4355 579.219)" class="st9 st2 st3">x [0 - 255]</text>
</g>
<g id="node32">
	<polygon class="st10" points="334.1,601 281.8,619 334.1,637 386.4,619 	"/>
	<text transform="matrix(1 0 0 1 313.8809 622.7161)" class="st1 st2 st3">9320 *</text>
</g>
<g id="edge55">
	<path class="st7" d="M913.2,541.1c-11.2,3.1-24.2,6.4-36.1,9c-48,10.3-61.7,4.9-109,18c-17.5,4.8-20.3,11-38,15
		c-124.7,27.8-159.9,4.1-287,18c-21.9,2.4-46.1,6.1-66.1,9.4"/>
	<polygon class="st8" points="377.4,613.9 366.9,612.1 376.2,607 	"/>
	<text transform="matrix(1 0 0 1 768.4541 579.219)" class="st9 st2 st3">x [0 - 255]</text>
</g>
<g id="node5">
	<polygon class="st10" points="1003.1,172.1 940.6,190.1 1003.1,208.1 1065.6,190.1 	"/>
	<text transform="matrix(1 0 0 1 977.3711 193.7532)" class="st1 st2 st3">8366 ==</text>
</g>
<g id="edge7">
	<path class="st7" d="M977.8,200.8c-34.2,13.2-96,37.1-140.9,54.4"/>
	<polygon class="st8" points="837.9,258.6 827.4,258.9 835.4,252.1 	"/>
	<text transform="matrix(1 0 0 1 906.1768 237.2493)" class="st9 st2 st3">?</text>
</g>
<g id="node6">
	<polygon class="st0" points="205.1,1557.9 111.1,1557.9 111.1,1593.9 205.1,1593.9 	"/>
	<text transform="matrix(1 0 0 1 119.6123 1579.6311)" class="st1 st2 st3">8640 Return</text>
</g>
<g id="node9">
	<polygon class="st4" points="803.1,340 711.1,340 711.1,376 803.1,376 	"/>
	<text transform="matrix(1 0 0 1 719.335 361.7385)" class="st1 st2 st3">8866 Unbox</text>
</g>
<g id="edge8">
	<path class="st5" d="M777.4,295.2c-3.4,10.2-7.7,23.5-11.5,35.1"/>
	<polygon class="st6" points="769.2,331.5 762.7,339.9 762.5,329.3 	"/>
</g>
<g id="node29">
	<polygon class="st10" points="1189,688 1136.8,706 1189,724 1241.3,706 	"/>
	<text transform="matrix(1 0 0 1 1168.8057 709.7083)" class="st1 st2 st3">9317 *</text>
</g>
<g id="edge49">
	<path class="st7" d="M854.3,631.6c17.5,11.9,46.7,29.8,74.8,38.4c81.1,24.9,106.3,3.9,190,18c10.7,1.8,22.3,4.3,32.8,6.9"/>
	<polygon class="st8" points="1152.8,691.5 1161.6,697.4 1151.1,698.3 	"/>
	<text transform="matrix(1 0 0 1 929.4404 666.2122)" class="st9 st2 st3">x [0 - 255]</text>
</g>
<g id="node31">
	<polygon class="st10" points="813.1,688 760.8,706 813.1,724 865.4,706 	"/>
	<text transform="matrix(1 0 0 1 792.8389 709.7083)" class="st1 st2 st3">9319 *</text>
</g>
<g id="edge53">
	<path class="st7" d="M826.5,633c-4.8,6.2-9.8,14-12.4,22c-2.3,7.3-3.2,15.5-3.3,23.2"/>
	<polygon class="st8" points="814.3,678.3 811.1,688.4 807.3,678.5 	"/>
	<text transform="matrix(1 0 0 1 814.4502 666.2122)" class="st9 st2 st3">x [0 - 255]</text>
</g>
<g id="node33">
	<polygon class="st10" points="510.1,688 457.8,706 510.1,724 562.4,706 	"/>
	<text transform="matrix(1 0 0 1 489.8652 709.7083)" class="st1 st2 st3">9321 *</text>
</g>
<g id="edge57">
	<path class="st7" d="M804.9,625.5c-46.1,7.7-127,21.7-155.8,29.5c-37.3,10.1-78.8,25.6-106.6,36.7"/>
	<polygon class="st8" points="543.4,695.1 532.9,695.5 540.8,688.6 	"/>
	<text transform="matrix(1 0 0 1 649.4648 666.2122)" class="st9 st2 st3">x [0 - 255]</text>
</g>
<g id="node10">
	<polygon class="st10" points="1478,427 1421.9,445 1478,463 1534.2,445 	"/>
	<text transform="matrix(1 0 0 1 1455.835 448.7307)" class="st1 st2 st3">8868 &amp;</text>
</g>
<g id="edge12">
	<path class="st7" d="M803.2,363.9c32.4,3.4,76.8,8.1,115.9,12.1c219.5,22.8,276.8,11.6,494,51c9,1.6,18.6,3.9,27.6,6.2"/>
	<polygon class="st8" points="1441.6,429.9 1450.4,435.8 1439.8,436.6 	"/>
	<text transform="matrix(1 0 0 1 1299.0352 405.2346)" class="st9 st2 st3">x</text>
</g>
<g id="node12">
	<polygon class="st4" points="675.1,427 583.1,427 583.1,463 675.1,463 	"/>
	<text transform="matrix(1 0 0 1 591.3457 448.7307)" class="st1 st2 st3">8930 Unbox</text>
</g>
<g id="edge11">
	<path class="st5" d="M731.2,376.2c-19.5,13-46.5,30.9-67.8,45"/>
	<polygon class="st6" points="665.2,424.2 655,426.9 661.4,418.4 	"/>
</g>
<g id="node15">
	<polygon class="st10" points="1025.1,427 968.9,445 1025.1,463 1081.2,445 	"/>
	<text transform="matrix(1 0 0 1 1002.875 448.7307)" class="st1 st2 st3">8994 &amp;</text>
</g>
<g id="edge21">
	<path class="st7" d="M803.1,373.6c52.5,16.7,137.3,43.6,185.5,58.8"/>
	<polygon class="st8" points="989.8,429.2 998.3,435.6 987.7,435.9 	"/>
	<text transform="matrix(1 0 0 1 907.0693 405.2346)" class="st9 st2 st3">x</text>
</g>
<g id="node19">
	<polygon class="st10" points="59.1,514 3.8,532 59.1,550 114.4,532 	"/>
	<text transform="matrix(1 0 0 1 37.48 535.7229)" class="st1 st2 st3">9118 &amp;</text>
</g>
<g id="edge29">
	<path class="st7" d="M710.9,367.8c-142.4,27-566.2,107.5-579.8,113.3c-18.2,7.7-36.5,20.5-50.1,31.2"/>
	<polygon class="st8" points="83.2,515 73.2,518.5 78.8,509.5 	"/>
	<text transform="matrix(1 0 0 1 399.1143 448.7307)" class="st9 st2 st3">x</text>
</g>
<g id="node11">
	<polygon class="st10" points="1478,514 1408.3,532 1478,550 1547.7,532 	"/>
	<text transform="matrix(1 0 0 1 1448.2412 535.7229)" class="st1 st2 st3">8869 &gt;&gt;&gt;</text>
</g>
<g id="edge14">
	<path class="st7" d="M1478,463.2c0,11.6,0,27.2,0,40.6"/>
	<polygon class="st8" points="1481.5,503.8 1478,513.8 1474.5,503.8 	"/>
	<text transform="matrix(1 0 0 1 1478.4453 492.2268)" class="st9 st2 st3">x [0 - 16711680]</text>
</g>
<g id="edge48">
	<path class="st7" d="M1478.6,550.2c0.4,11.7,1,27.5,1.4,40.8"/>
	<polygon class="st8" points="1483.6,591 1480.4,601.1 1476.6,591.3 	"/>
	<text transform="matrix(1 0 0 1 1479.3916 579.219)" class="st9 st2 st3">y [0 - 255]</text>
</g>
<g id="node13">
	<polygon class="st10" points="1228,514 1171.9,532 1228,550 1284.2,532 	"/>
	<text transform="matrix(1 0 0 1 1205.8574 535.7229)" class="st1 st2 st3">8931 &amp;</text>
</g>
<g id="edge17">
	<path class="st7" d="M675.1,461.1c3,0.7,6,1.4,9,1.9c103.8,19.7,132.2,4.8,237,18c38.1,4.8,47,9.5,85,15c69.5,10.1,88,5.1,157,18
		c9,1.7,18.6,3.9,27.6,6.2"/>
	<polygon class="st8" points="1191.6,516.9 1200.4,522.9 1189.8,523.7 	"/>
	<text transform="matrix(1 0 0 1 1006.0605 492.2268)" class="st9 st2 st3">x</text>
</g>
<g id="node17">
	<polygon class="st10" points="724.1,514 668,532 724.1,550 780.2,532 	"/>
	<text transform="matrix(1 0 0 1 701.9023 535.7229)" class="st1 st2 st3">9056 &amp;</text>
</g>
<g id="edge25">
	<path class="st7" d="M648.3,463.2c15.7,14,37.8,33.8,54,48.4"/>
	<polygon class="st8" points="704.7,509 709.8,518.3 700.1,514.2 	"/>
	<text transform="matrix(1 0 0 1 682.0898 492.2268)" class="st9 st2 st3">x</text>
</g>
<g id="node20">
	<polygon class="st10" points="508.1,601 452,619 508.1,637 564.2,619 	"/>
	<text transform="matrix(1 0 0 1 485.9209 622.7161)" class="st1 st2 st3">9179 &amp;</text>
</g>
<g id="edge31">
	<path class="st7" d="M616.5,463.3c-9.9,13.7-24.2,33.4-36.4,50.7c-19.7,27.9-42.1,60.4-56.6,81.5"/>
	<polygon class="st8" points="526.3,597.6 517.8,603.8 520.6,593.6 	"/>
	<text transform="matrix(1 0 0 1 580.0986 535.7229)" class="st9 st2 st3">x</text>
</g>
<g id="node58">
	<polygon class="st4" points="259.1,1470.9 57.1,1470.9 57.1,1506.9 259.1,1506.9 	"/>
	<text transform="matrix(1 0 0 1 65.5239 1492.6389)" class="st1 st2 st3">9350 BoxNode$AllocatingBox</text>
</g>
<g id="edge16">
	<path class="st5" d="M582.8,449.3c-121.5,9.1-440.7,37.3-440.7,81.8c0,0,0,0,0,871.9c0,19.6,4.1,41.3,8.2,57.8"/>
	<polygon class="st6" points="153.9,1460.3 153,1470.9 147.1,1462.1 	"/>
</g>
<g id="node14">
	<polygon class="st10" points="1228,601 1158.3,619 1228,637 1297.7,619 	"/>
	<text transform="matrix(1 0 0 1 1198.2637 622.7161)" class="st1 st2 st3">8932 &gt;&gt;&gt;</text>
</g>
<g id="edge19">
	<path class="st7" d="M1228,550.2c0,11.6,0,27.2,0,40.6"/>
	<polygon class="st8" points="1231.5,590.8 1228,600.8 1224.5,590.8 	"/>
	<text transform="matrix(1 0 0 1 1228.4678 579.219)" class="st9 st2 st3">x [0 - 16711680]</text>
</g>
<g id="edge50">
	<path class="st7" d="M1220.9,635.6c-5.8,12.6-14,30.6-20.7,45.1"/>
	<polygon class="st8" points="1203.2,682.5 1195.9,690.1 1196.9,679.5 	"/>
	<text transform="matrix(1 0 0 1 1210.415 666.2122)" class="st9 st2 st3">y [0 - 255]</text>
</g>
<g id="node16">
	<polygon class="st10" points="1084.1,514 1014.4,532 1084.1,550 1153.8,532 	"/>
	<text transform="matrix(1 0 0 1 1054.2754 535.7229)" class="st1 st2 st3">8995 &gt;&gt;&gt;</text>
</g>
<g id="edge23">
	<path class="st7" d="M1019.9,461.5c-2.5,10.4-3.9,24.2,2.2,34.5c5.2,9,13.7,15.8,22.7,21"/>
	<polygon class="st8" points="1046.6,514 1053.9,521.6 1043.4,520.2 	"/>
	<text transform="matrix(1 0 0 1 1022.1455 492.2268)" class="st9 st2 st3">x [0 - 65280]</text>
</g>
<g id="edge52">
	<path class="st7" d="M1070.2,546.8c-5.1,6-10.4,13.4-13.1,21.3c-2.5,7.2-3.5,15.4-3.5,23.1"/>
	<polygon class="st8" points="1057,591.2 1053.8,601.3 1050,591.5 	"/>
	<text transform="matrix(1 0 0 1 1057.4287 579.219)" class="st9 st2 st3">y [0 - 255]</text>
</g>
<g id="node18">
	<polygon class="st10" points="652.1,601 582.4,619 652.1,637 721.8,619 	"/>
	<text transform="matrix(1 0 0 1 622.3145 622.7161)" class="st1 st2 st3">9057 &gt;&gt;&gt;</text>
</g>
<g id="edge27">
	<path class="st7" d="M692.6,540.1c-15,5.1-31.6,13.7-40.5,28c-4.3,7-5.5,15.6-5.2,23.7"/>
	<polygon class="st8" points="650.4,591.6 648,602 643.4,592.4 	"/>
	<text transform="matrix(1 0 0 1 652.1787 579.219)" class="st9 st2 st3">x [0 - 65280]</text>
</g>
<g id="edge54">
	<path class="st7" d="M673.2,631.7c18.6,10.2,46.4,25.5,70.9,38.3c13,6.8,27.4,14.2,39.7,20.4"/>
	<polygon class="st8" points="785.4,687.3 792.8,694.9 782.3,693.5 	"/>
	<text transform="matrix(1 0 0 1 744.457 666.2122)" class="st9 st2 st3">y [0 - 255]</text>
</g>
<g id="edge56">
	<path class="st7" d="M86,541.3c49.7,15.4,156.2,48.3,212.1,65.6"/>
	<polygon class="st8" points="299.4,603.6 308,609.9 297.4,610.3 	"/>
	<text transform="matrix(1 0 0 1 213.5039 579.219)" class="st9 st2 st3">y [0 - 255]</text>
</g>
<g id="edge58">
	<path class="st7" d="M508.5,637.2c0.3,11.7,0.6,27.5,1,40.8"/>
	<polygon class="st8" points="513,678.1 509.7,688.1 506,678.2 	"/>
	<text transform="matrix(1 0 0 1 510.4775 666.2122)" class="st9 st2 st3">y [0 - 255]</text>
</g>
<g id="node21">
	<polygon class="st10" points="1222,1210 1159.5,1228 1222,1246 1284.5,1228 	"/>
	<text transform="matrix(1 0 0 1 1196.3516 1231.6614)" class="st1 st2 st3">9252 &lt;&lt;</text>
</g>
<g id="node23">
	<polygon class="st10" points="995.1,1297 944.5,1315 995.1,1333 1045.7,1315 	"/>
	<text transform="matrix(1 0 0 1 975.7285 1318.6536)" class="st1 st2 st3">9256 |</text>
</g>
<g id="edge37">
	<path class="st7" d="M1196,1238.7c-41.5,15.6-122.8,46-168.2,63"/>
	<polygon class="st8" points="1029,1305 1018.4,1305.2 1026.5,1298.4 	"/>
	<text transform="matrix(1 0 0 1 1122.458 1275.1575)" class="st9 st2 st3">x [0 - 33423360]</text>
</g>
<g id="node22">
	<polygon class="st10" points="995.1,1210 932.6,1228 995.1,1246 1057.6,1228 	"/>
	<text transform="matrix(1 0 0 1 969.3711 1231.6614)" class="st1 st2 st3">9255 &lt;&lt;</text>
</g>
<g id="edge38">
	<path class="st7" d="M995.1,1246.2c0,11.6,0,27.2,0,40.6"/>
	<polygon class="st8" points="998.6,1286.8 995.1,1296.8 991.6,1286.8 	"/>
	<text transform="matrix(1 0 0 1 995.2549 1275.1575)" class="st9 st2 st3">y [0 - 130560]</text>
</g>
<g id="node24">
	<polygon class="st10" points="395.1,1383.9 344.5,1401.9 395.1,1419.9 445.7,1401.9 	"/>
	<text transform="matrix(1 0 0 1 375.7812 1405.6458)" class="st1 st2 st3">9257 |</text>
</g>
<g id="edge39">
	<path class="st7" d="M960.7,1320.8c-102.6,14.5-406.5,57.6-521.1,73.8"/>
	<polygon class="st8" points="439.8,1398.2 429.4,1396.1 438.8,1391.2 	"/>
	<text transform="matrix(1 0 0 1 730.4922 1362.1497)" class="st9 st2 st3">x [0 - 33554176]</text>
</g>
<g id="edge107">
	<path class="st7" d="M371.1,1411.6c-36.2,13-105.7,37.9-155.5,55.8"/>
	<polygon class="st8" points="216.5,1470.7 205.9,1470.8 214.2,1464.1 	"/>
	<text transform="matrix(1 0 0 1 291.2969 1449.1418)" class="st9 st2 st3">value [0 - 33554431]</text>
</g>
<g id="node25">
	<polygon class="st10" points="1222,1123 1166.7,1141 1222,1159 1277.3,1141 	"/>
	<text transform="matrix(1 0 0 1 1200.4385 1144.6692)" class="st1 st2 st3">9280 +</text>
</g>
<g id="edge33">
	<path class="st7" d="M1222,1159.2c0,11.6,0,27.2,0,40.6"/>
	<polygon class="st8" points="1225.5,1199.8 1222,1209.8 1218.5,1199.8 	"/>
	<text transform="matrix(1 0 0 1 1222.4141 1188.1653)" class="st9 st2 st3">x [0 - 510]</text>
</g>
<g id="node26">
	<polygon class="st10" points="942.1,1123 886.8,1141 942.1,1159 997.4,1141 	"/>
	<text transform="matrix(1 0 0 1 920.4639 1144.6692)" class="st1 st2 st3">9281 +</text>
</g>
<g id="edge35">
	<path class="st7" d="M941.3,1158.8c0.2,10.2,1.9,23.2,7.8,33.2c4,6.8,9.8,12.7,16,17.6"/>
	<polygon class="st8" points="967.5,1207 973.6,1215.7 963.5,1212.7 	"/>
	<text transform="matrix(1 0 0 1 949.4385 1188.1653)" class="st9 st2 st3">x [0 - 510]</text>
</g>
<g id="node27">
	<polygon class="st10" points="395.1,1123 339.8,1141 395.1,1159 450.4,1141 	"/>
	<text transform="matrix(1 0 0 1 373.5117 1144.6692)" class="st1 st2 st3">9282 +</text>
</g>
<g id="edge40">
	<path class="st7" d="M395.1,1159.4c0,44.1,0,160.8,0,214.2"/>
	<polygon class="st8" points="398.6,1373.6 395.1,1383.6 391.6,1373.6 	"/>
	<text transform="matrix(1 0 0 1 395.4873 1275.1575)" class="st9 st2 st3">y [0 - 510]</text>
</g>
<g id="node34">
	<polygon class="st10" points="1482,688 1426.7,706 1482,724 1537.3,706 	"/>
	<text transform="matrix(1 0 0 1 1460.416 709.7083)" class="st1 st2 st3">9323 +</text>
</g>
<g id="edge59">
	<path class="st7" d="M1481.2,637.2c0.1,11.6,0.3,27.2,0.5,40.6"/>
	<polygon class="st8" points="1485.2,677.8 1481.8,687.8 1478.2,677.9 	"/>
	<text transform="matrix(1 0 0 1 1481.1055 666.2122)" class="st9 st2 st3">x [0 - 65025]</text>
</g>
<g id="node35">
	<polygon class="st10" points="1256,775 1200.7,793 1256,811 1311.3,793 	"/>
	<text transform="matrix(1 0 0 1 1234.4355 796.7004)" class="st1 st2 st3">9324 +</text>
</g>
<g id="edge61">
	<path class="st7" d="M1185.4,723c-1.4,10.4-1.6,23.9,4.6,34c6.4,10.3,16.9,17.8,27.7,23.1"/>
	<polygon class="st8" points="1219.4,777 1227.2,784.2 1216.6,783.4 	"/>
	<text transform="matrix(1 0 0 1 1190.1309 753.2043)" class="st9 st2 st3">x [0 - 65025]</text>
</g>
<g id="node36">
	<polygon class="st10" points="1055.1,688 999.8,706 1055.1,724 1110.4,706 	"/>
	<text transform="matrix(1 0 0 1 1033.4531 709.7083)" class="st1 st2 st3">9325 +</text>
</g>
<g id="edge63">
	<path class="st7" d="M1055.9,637.2c-0.1,11.6-0.3,27.2-0.5,40.6"/>
	<polygon class="st8" points="1058.9,677.9 1055.3,687.8 1051.9,677.8 	"/>
	<text transform="matrix(1 0 0 1 1055.1426 666.2122)" class="st9 st2 st3">x [0 - 65025]</text>
</g>
<g id="node37">
	<polygon class="st10" points="813.1,775 757.8,793 813.1,811 868.4,793 	"/>
	<text transform="matrix(1 0 0 1 791.4746 796.7004)" class="st1 st2 st3">9326 +</text>
</g>
<g id="edge65">
	<path class="st7" d="M813.1,724.2c0,11.6,0,27.2,0,40.6"/>
	<polygon class="st8" points="816.6,764.8 813.1,774.8 809.6,764.8 	"/>
	<text transform="matrix(1 0 0 1 813.1641 753.2043)" class="st9 st2 st3">x [0 - 65025]</text>
</g>
<g id="node38">
	<polygon class="st10" points="239.1,688 183.8,706 239.1,724 294.4,706 	"/>
	<text transform="matrix(1 0 0 1 217.5254 709.7083)" class="st1 st2 st3">9327 +</text>
</g>
<g id="edge67">
	<path class="st7" d="M320.1,632.6c-15.6,13.9-40.9,36.6-59.1,52.9"/>
	<polygon class="st8" points="263,688.4 253.2,692.4 258.3,683.1 	"/>
	<text transform="matrix(1 0 0 1 293.2109 666.2122)" class="st9 st2 st3">x [0 - 65025]</text>
</g>
<g id="node39">
	<polygon class="st10" points="585.1,775 529.8,793 585.1,811 640.4,793 	"/>
	<text transform="matrix(1 0 0 1 563.4951 796.7004)" class="st1 st2 st3">9328 +</text>
</g>
<g id="edge69">
	<path class="st7" d="M508.7,723.7c0,10.4,1.6,23.7,8.4,33.3c7.3,10.3,18.6,17.8,29.9,23.1"/>
	<polygon class="st8" points="548.6,777 556.4,784.1 545.8,783.4 	"/>
	<text transform="matrix(1 0 0 1 517.1904 753.2043)" class="st9 st2 st3">x [0 - 65025]</text>
</g>
<g id="node40">
	<polygon class="st10" points="1485,775 1415.3,793 1485,811 1554.7,793 	"/>
	<text transform="matrix(1 0 0 1 1455.2402 796.7004)" class="st1 st2 st3">9329 &gt;&gt;&gt;</text>
</g>
<g id="edge71">
	<path class="st7" d="M1482.2,724.1c0.1,9.7,0.4,21.9,0.8,32.9c0.1,2.6,0.2,5.3,0.4,8"/>
	<polygon class="st8" points="1486.9,765.1 1483.9,775.3 1479.9,765.5 	"/>
	<text transform="matrix(1 0 0 1 1483.3193 753.2043)" class="st9 st2 st3">x [128 - 65153]</text>
</g>
<g id="node41">
	<polygon class="st10" points="1588,862 1532.7,880 1588,898 1643.3,880 	"/>
	<text transform="matrix(1 0 0 1 1566.4062 883.6926)" class="st1 st2 st3">9331 +</text>
</g>
<g id="edge73">
	<path class="st7" d="M1521.2,711.5c19.9,4.4,42.6,13.2,55.8,30.5c24.3,32,21.4,81.1,16.5,111.1"/>
	<polygon class="st8" points="1597,853.9 1591.7,863.1 1590.1,852.7 	"/>
	<text transform="matrix(1 0 0 1 1596.3086 796.7004)" class="st9 st2 st3">x [128 - 65153]</text>
</g>
<g id="node42">
	<polygon class="st10" points="1373,862 1303.3,880 1373,898 1442.7,880 	"/>
	<text transform="matrix(1 0 0 1 1343.25 883.6926)" class="st1 st2 st3">9332 &gt;&gt;&gt;</text>
</g>
<g id="edge75">
	<path class="st7" d="M1258,810.8c2,10.8,6.3,24.3,15.1,33.2c12.8,12.9,30.5,21,47.6,26.2"/>
	<polygon class="st8" points="1321.8,866.9 1330.5,872.9 1319.9,873.6 	"/>
	<text transform="matrix(1 0 0 1 1273.3379 840.1965)" class="st9 st2 st3">x [128 - 65153]</text>
</g>
<g id="node43">
	<polygon class="st10" points="1291,949 1235.7,967 1291,985 1346.3,967 	"/>
	<text transform="matrix(1 0 0 1 1269.4326 970.6848)" class="st1 st2 st3">9333 +</text>
</g>
<g id="edge77">
	<path class="st7" d="M1240.9,806.4c-21.8,19.4-57.6,58.1-40.8,91.6c12.3,24.6,38.2,42.5,59.2,53.8"/>
	<polygon class="st8" points="1260.9,948.7 1268.2,956.4 1257.7,954.9 	"/>
	<text transform="matrix(1 0 0 1 1200.3438 883.6926)" class="st9 st2 st3">x [128 - 65153]</text>
</g>
<g id="node44">
	<polygon class="st10" points="980.1,775 910.4,793 980.1,811 1049.8,793 	"/>
	<text transform="matrix(1 0 0 1 950.2852 796.7004)" class="st1 st2 st3">9334 &gt;&gt;&gt;</text>
</g>
<g id="edge79">
	<path class="st7" d="M1023.2,713.8c-15.5,5-32.7,13.7-42.1,28.2c-4.5,6.9-5.8,15.5-5.6,23.6"/>
	<polygon class="st8" points="978.9,765.6 976.3,775.9 972,766.2 	"/>
	<text transform="matrix(1 0 0 1 981.3633 753.2043)" class="st9 st2 st3">x [128 - 65153]</text>
</g>
<g id="node45">
	<polygon class="st10" points="1100.1,862 1044.8,880 1100.1,898 1155.3,880 	"/>
	<text transform="matrix(1 0 0 1 1078.4492 883.6926)" class="st1 st2 st3">9335 +</text>
</g>
<g id="edge81">
	<path class="st7" d="M1064.6,721.1c3.8,6.2,7.8,13.7,10.5,20.9c13.4,36.7,19.8,81.6,22.8,109.8"/>
	<polygon class="st8" points="1101.3,851.8 1098.8,862.1 1094.4,852.5 	"/>
	<text transform="matrix(1 0 0 1 1091.3535 796.7004)" class="st9 st2 st3">x [128 - 65153]</text>
</g>
<g id="node46">
	<polygon class="st10" points="755.1,862 685.4,880 755.1,898 824.8,880 	"/>
	<text transform="matrix(1 0 0 1 725.3047 883.6926)" class="st1 st2 st3">9336 &gt;&gt;&gt;</text>
</g>
<g id="edge83">
	<path class="st7" d="M786.4,802.5c-12.4,5.5-26.1,13.9-33.3,26.5c-4.1,7.2-4.9,16-4.2,24.2"/>
	<polygon class="st8" points="752.3,852.7 750.3,863.1 745.4,853.7 	"/>
	<text transform="matrix(1 0 0 1 753.3838 840.1965)" class="st9 st2 st3">x [128 - 65153]</text>
</g>
<g id="node47">
	<polygon class="st10" points="795.1,949 739.8,967 795.1,985 850.4,967 	"/>
	<text transform="matrix(1 0 0 1 773.4766 970.6848)" class="st1 st2 st3">9337 +</text>
</g>
<g id="edge85">
	<path class="st7" d="M829.1,805.8c6.9,6.1,14.2,14.1,17.9,23.2c9,22.2,44.9,12.6-3,102c-4.2,7.9-11.1,14.4-18.4,19.6"/>
	<polygon class="st8" points="827.4,953.6 817.1,956.1 823.6,947.7 	"/>
	<text transform="matrix(1 0 0 1 868.373 883.6926)" class="st9 st2 st3">x [128 - 65153]</text>
</g>
<g id="node48">
	<polygon class="st10" points="370.1,775 300.4,793 370.1,811 439.8,793 	"/>
	<text transform="matrix(1 0 0 1 340.3389 796.7004)" class="st1 st2 st3">9338 &gt;&gt;&gt;</text>
</g>
<g id="edge87">
	<path class="st7" d="M245.8,722c5.6,11.1,14.6,25.7,26.3,35c14.6,11.5,33.3,19.4,50.4,24.7"/>
	<polygon class="st8" points="323.8,778.4 332.4,784.6 321.8,785.2 	"/>
	<text transform="matrix(1 0 0 1 272.4258 753.2043)" class="st9 st2 st3">x [128 - 65153]</text>
</g>
<g id="node49">
	<polygon class="st10" points="234.1,862 178.8,880 234.1,898 289.4,880 	"/>
	<text transform="matrix(1 0 0 1 212.5264 883.6926)" class="st1 st2 st3">9339 +</text>
</g>
<g id="edge89">
	<path class="st7" d="M227.6,720.5c-10.3,13-24.6,33.7-30.5,54.5c-4.4,15.4-3.9,20.5,0,36c4.2,16.3,13.1,33,21.2,45.8"/>
	<polygon class="st8" points="221.4,855 224,865.3 215.5,858.9 	"/>
	<text transform="matrix(1 0 0 1 197.4326 796.7004)" class="st9 st2 st3">x [128 - 65153]</text>
</g>
<g id="node50">
	<polygon class="st10" points="467.1,862 397.4,880 467.1,898 536.8,880 	"/>
	<text transform="matrix(1 0 0 1 437.3301 883.6926)" class="st1 st2 st3">9340 &gt;&gt;&gt;</text>
</g>
<g id="edge91">
	<path class="st7" d="M556.9,801.9c-32.6,9.2-82,23.7-84.8,27.1c-5.3,6.5-7.3,15.1-7.8,23.3"/>
	<polygon class="st8" points="467.8,852.4 464.4,862.4 460.8,852.4 	"/>
	<text transform="matrix(1 0 0 1 472.4082 840.1965)" class="st9 st2 st3">x [128 - 65153]</text>
</g>
<g id="node51">
	<polygon class="st10" points="496.1,949 440.8,967 496.1,985 551.4,967 	"/>
	<text transform="matrix(1 0 0 1 474.5029 970.6848)" class="st1 st2 st3">9341 +</text>
</g>
<g id="edge93">
	<path class="st7" d="M584.8,811.3c-1.3,27.8-7.2,82.9-33.7,119.7c-5.9,8.2-14.5,15-23.1,20.3"/>
	<polygon class="st8" points="529.6,954.4 519.2,956.3 526.2,948.4 	"/>
	<text transform="matrix(1 0 0 1 579.3994 883.6926)" class="st9 st2 st3">x [128 - 65153]</text>
</g>
<g id="edge74">
	<path class="st7" d="M1491.1,809.6c4.8,10.8,12.6,24.8,22.9,34.4c10.7,9.8,24.6,17.4,37.5,22.9"/>
	<polygon class="st8" points="1553.1,863.8 1561.1,870.7 1550.5,870.3 	"/>
	<text transform="matrix(1 0 0 1 1514.3887 840.1965)" class="st9 st2 st3">y [0 - 254]</text>
</g>
<g id="node52">
	<polygon class="st10" points="1488,949 1418.3,967 1488,985 1557.7,967 	"/>
	<text transform="matrix(1 0 0 1 1458.2402 970.6848)" class="st1 st2 st3">9342 &gt;&gt;&gt;</text>
</g>
<g id="edge95">
	<path class="st7" d="M1573.3,893.5c-16.3,13.9-42.9,36.5-62.1,52.8"/>
	<polygon class="st8" points="1513.4,949 1503.5,952.8 1508.8,943.7 	"/>
	<text transform="matrix(1 0 0 1 1543.3135 927.1887)" class="st9 st2 st3">x [128 - 65407]</text>
</g>
<g id="edge78">
	<path class="st7" d="M1359.8,894.7c-13.3,13.8-34,35.3-49.2,51"/>
	<polygon class="st8" points="1313.1,948.2 1303.6,952.9 1308.1,943.3 	"/>
	<text transform="matrix(1 0 0 1 1336.4043 927.1887)" class="st9 st2 st3">y [0 - 254]</text>
</g>
<g id="node53">
	<polygon class="st10" points="1222,1036 1152.3,1054 1222,1072 1291.7,1054 	"/>
	<text transform="matrix(1 0 0 1 1192.2637 1057.677)" class="st1 st2 st3">9343 &gt;&gt;&gt;</text>
</g>
<g id="edge97">
	<path class="st7" d="M1279.9,981.6c-10.7,13.2-27.2,33.5-39.8,49.1"/>
	<polygon class="st8" points="1242.6,1033.2 1233.6,1038.8 1237.1,1028.8 	"/>
	<text transform="matrix(1 0 0 1 1260.3389 1014.1809)" class="st9 st2 st3">x [128 - 65407]</text>
</g>
<g id="edge82">
	<path class="st7" d="M986.7,809.4c5.4,10.9,14,25.3,25.3,34.6c13.8,11.3,31.7,19.4,47.7,24.8"/>
	<polygon class="st8" points="1061,865.6 1069.5,871.9 1058.9,872.2 	"/>
	<text transform="matrix(1 0 0 1 1012.4326 840.1965)" class="st9 st2 st3">y [0 - 254]</text>
</g>
<g id="node54">
	<polygon class="st10" points="1027.1,949 957.4,967 1027.1,985 1096.8,967 	"/>
	<text transform="matrix(1 0 0 1 997.2812 970.6848)" class="st1 st2 st3">9344 &gt;&gt;&gt;</text>
</g>
<g id="edge99">
	<path class="st7" d="M1088.3,894.7c-11.5,13.3-29.1,33.9-42.5,49.5"/>
	<polygon class="st8" points="1048.4,946.5 1039.2,951.8 1043.1,941.9 	"/>
	<text transform="matrix(1 0 0 1 1067.3555 927.1887)" class="st9 st2 st3">x [128 - 65407]</text>
</g>
<g id="edge86">
	<path class="st7" d="M762.2,896.2c5.9,12.6,14.5,30.9,21.4,45.5"/>
	<polygon class="st8" points="787,940.7 788.1,951.2 780.7,943.6 	"/>
	<text transform="matrix(1 0 0 1 777.4541 927.1887)" class="st9 st2 st3">y [0 - 254]</text>
</g>
<g id="node55">
	<polygon class="st10" points="912.1,1036 842.4,1054 912.1,1072 981.8,1054 	"/>
	<text transform="matrix(1 0 0 1 882.291 1057.677)" class="st1 st2 st3">9345 &gt;&gt;&gt;</text>
</g>
<g id="edge101">
	<path class="st7" d="M797.6,984.3c2.5,10.8,7.3,24.7,16.4,33.6c12.7,12.5,30.2,20.5,46.9,25.7"/>
	<polygon class="st8" points="861.9,1040.3 870.6,1046.4 860,1047.1 	"/>
	<text transform="matrix(1 0 0 1 814.3779 1014.1809)" class="st9 st2 st3">x [128 - 65407]</text>
</g>
<g id="edge90">
	<path class="st7" d="M350.6,806.2c-23.5,14.7-63.2,39.5-89.6,56"/>
	<polygon class="st8" points="262.6,865.3 252.3,867.7 258.9,859.4 	"/>
	<text transform="matrix(1 0 0 1 311.4951 840.1965)" class="st9 st2 st3">y [0 - 254]</text>
</g>
<g id="node56">
	<polygon class="st10" points="349.1,949 279.4,967 349.1,985 418.8,967 	"/>
	<text transform="matrix(1 0 0 1 319.3408 970.6848)" class="st1 st2 st3">9346 &gt;&gt;&gt;</text>
</g>
<g id="edge103">
	<path class="st7" d="M236.3,897.3c2.3,10.8,6.8,24.6,15.8,33.7c12.4,12.4,29.4,20.4,45.8,25.6"/>
	<polygon class="st8" points="299.3,953.3 308,959.5 297.4,960.1 	"/>
	<text transform="matrix(1 0 0 1 252.4277 927.1887)" class="st9 st2 st3">x [128 - 65407]</text>
</g>
<g id="edge94">
	<path class="st7" d="M472.6,897c4.2,12.4,10.2,29.8,15,44"/>
	<polygon class="st8" points="491,940 490.9,950.6 484.3,942.3 	"/>
	<text transform="matrix(1 0 0 1 484.4795 927.1887)" class="st9 st2 st3">y [0 - 254]</text>
</g>
<g id="node57">
	<polygon class="st10" points="500.1,1036 430.4,1054 500.1,1072 569.8,1054 	"/>
	<text transform="matrix(1 0 0 1 470.3271 1057.677)" class="st1 st2 st3">9347 &gt;&gt;&gt;</text>
</g>
<g id="edge105">
	<path class="st7" d="M496.2,985.1c0.1,9.7,0.4,21.9,0.9,32.9c0.1,2.6,0.3,5.3,0.5,8"/>
	<polygon class="st8" points="501.1,1026 498.4,1036.3 494.1,1026.6 	"/>
	<text transform="matrix(1 0 0 1 497.4062 1014.1809)" class="st9 st2 st3">x [128 - 65407]</text>
</g>
<g id="edge41">
	<path class="st7" d="M1470.9,980.8c-33.9,25.2-112.2,82.2-181.9,124.2c-11.8,7.1-25.2,14.3-36.9,20.2"/>
	<polygon class="st8" points="1253.7,1128.4 1243.2,1129.7 1250.6,1122.1 	"/>
	<text transform="matrix(1 0 0 1 1393.3994 1057.677)" class="st9 st2 st3">x [0 - 255]</text>
</g>
<g id="edge42">
	<path class="st7" d="M1222,1072.2c0,11.6,0,27.2,0,40.6"/>
	<polygon class="st8" points="1225.5,1112.8 1222,1122.8 1218.5,1112.8 	"/>
	<text transform="matrix(1 0 0 1 1222.4141 1101.1731)" class="st9 st2 st3">y [0 - 255]</text>
</g>
<g id="edge43">
	<path class="st7" d="M1027,985.2c-0.9,27.7-6.1,82.7-31.9,119.8c-5.6,8-13.7,14.7-21.9,20"/>
	<polygon class="st8" points="974.8,1128.1 964.4,1130.2 971.2,1122.1 	"/>
	<text transform="matrix(1 0 0 1 1021.4316 1057.677)" class="st9 st2 st3">x [0 - 255]</text>
</g>
<g id="edge44">
	<path class="st7" d="M917.6,1070.6c4.4,12.3,10.5,29.8,15.6,44.2"/>
	<polygon class="st8" points="936.6,1113.9 936.6,1124.5 930,1116.2 	"/>
	<text transform="matrix(1 0 0 1 928.4404 1101.1731)" class="st9 st2 st3">y [0 - 255]</text>
</g>
<g id="edge45">
	<path class="st7" d="M348.5,985c-0.3,20.9,0.7,57.3,9.6,87c4.9,16.2,13.8,32.8,21.7,45.6"/>
	<polygon class="st8" points="382.9,1115.8 385.4,1126.1 377,1119.6 	"/>
	<text transform="matrix(1 0 0 1 358.4912 1057.677)" class="st9 st2 st3">x [0 - 255]</text>
</g>
<g id="edge46">
	<path class="st7" d="M484.2,1067.9c-17.6,14.2-46,37.2-66,53.4"/>
	<polygon class="st8" points="420.2,1124.2 410.2,1127.8 415.8,1118.8 	"/>
	<text transform="matrix(1 0 0 1 454.4824 1101.1731)" class="st9 st2 st3">y [0 - 255]</text>
</g>
<g id="edge6">
	<path class="st7" d="M143.4,1507c-3.8,5.4-7.3,11.6-9.3,17.9c-2.5,8.1-0.4,16.6,3.3,24.2"/>
	<polygon class="st8" points="140.6,1547.5 142.8,1557.9 134.6,1551.1 	"/>
	<text transform="matrix(1 0 0 1 134.5205 1536.135)" class="st9 st2 st3">result</text>
</g>
<g id="edge108">
	<path class="st5" d="M165.1,1507c3.1,9.6,5.8,21.9,4.1,33c-0.4,2.7-1,5.4-1.7,8.2"/>
	<polygon class="st6" points="170.8,1549.1 164.7,1557.7 164.1,1547.2 	"/>
</g>
<g id="node59">
	<ellipse class="st12" cx="878.1" cy="445" rx="34.7" ry="18"/>
	<text transform="matrix(1 0 0 1 855.8379 446.9309)" class="st1 st2 st13">1001 C(255)</text>
</g>
<g id="edge4">
	<path class="st7" d="M889.9,462c11.8,15.9,29.6,39.9,40.8,55.1"/>
	<text transform="matrix(1 0 0 1 913.0693 490.427)" class="st9 st2 st13">y</text>
</g>
<g id="node60">
	<ellipse class="st12" cx="1003.1" cy="103.1" rx="86.4" ry="18"/>
	<text transform="matrix(1 0 0 1 935.1924 104.9612)" class="st1 st2 st13">1943 C(RubyBasicObject@1d1a3cd5)</text>
</g>
<g id="edge5">
	<path class="st7" d="M1003.1,121.3c0,14.7,0,35.9,0,50.6"/>
	<text transform="matrix(1 0 0 1 1003.0615 148.4573)" class="st9 st2 st13">y</text>
</g>
<g id="node61">
	<ellipse class="st12" cx="833.1" cy="532" rx="34.7" ry="18"/>
	<text transform="matrix(1 0 0 1 810.8418 533.9231)" class="st1 st2 st13">1001 C(255)</text>
</g>
<g id="edge9">
	<path class="st7" d="M834.1,550.2c0.9,14.8,2.1,36.2,3,50.9"/>
	<text transform="matrix(1 0 0 1 835.0762 577.4192)" class="st9 st2 st13">x</text>
</g>
<g id="node62">
	<ellipse class="st12" cx="1478" cy="358" rx="47.2" ry="18"/>
	<text transform="matrix(1 0 0 1 1444.96 359.9387)" class="st1 st2 st13">8867 C(16711680)</text>
</g>
<g id="edge13">
	<path class="st7" d="M1478,376.2c0,14.7,0,35.9,0,50.6"/>
	<text transform="matrix(1 0 0 1 1478.0195 403.4348)" class="st9 st2 st13">y</text>
</g>
<g id="node63">
	<ellipse class="st12" cx="1372" cy="445" rx="32.2" ry="18"/>
	<text transform="matrix(1 0 0 1 1352.0186 446.9309)" class="st1 st2 st13">8861 C(16)</text>
</g>
<g id="edge15">
	<path class="st7" d="M1390,460.5c20.1,16.1,52.3,41.9,71.7,57.5"/>
	<text transform="matrix(1 0 0 1 1431.0234 490.427)" class="st9 st2 st13">y</text>
</g>
<g id="node64">
	<ellipse class="st12" cx="1228" cy="445" rx="47.2" ry="18"/>
	<text transform="matrix(1 0 0 1 1194.9814 446.9309)" class="st1 st2 st13">8867 C(16711680)</text>
</g>
<g id="edge18">
	<path class="st7" d="M1228,463.2c0,14.7,0,35.9,0,50.6"/>
	<text transform="matrix(1 0 0 1 1228.041 490.427)" class="st9 st2 st13">y</text>
</g>
<g id="node65">
	<ellipse class="st12" cx="1352" cy="532" rx="32.2" ry="18"/>
	<text transform="matrix(1 0 0 1 1332.0205 533.9231)" class="st1 st2 st13">8861 C(16)</text>
</g>
<g id="edge20">
	<path class="st7" d="M1348.3,549.9c-3.2,10.8-8.8,24.4-18.3,33.1c-16.5,15.2-40,23.8-60.2,28.7"/>
	<text transform="matrix(1 0 0 1 1340.0312 577.4192)" class="st9 st2 st13">y</text>
</g>
<g id="node66">
	<ellipse class="st12" cx="1025.1" cy="358" rx="39.9" ry="18"/>
	<text transform="matrix(1 0 0 1 998.376 359.9387)" class="st1 st2 st13">8993 C(65280)</text>
</g>
<g id="edge22">
	<path class="st7" d="M1025.1,376.2c0,14.7,0,35.9,0,50.6"/>
	<text transform="matrix(1 0 0 1 1025.0596 403.4348)" class="st9 st2 st13">y</text>
</g>
<g id="node67">
	<ellipse class="st12" cx="1126.1" cy="445" rx="27.5" ry="18"/>
	<text transform="matrix(1 0 0 1 1110.4893 446.9309)" class="st1 st2 st13">175 C(8)</text>
</g>
<g id="edge24">
	<path class="st7" d="M1119.2,462.9c-4.1,9.8-9.6,22.3-15.1,33.1c-3.4,6.7-7.5,14-11.1,20.2"/>
	<text transform="matrix(1 0 0 1 1111.0518 490.427)" class="st9 st2 st13">y</text>
</g>
<g id="node68">
	<ellipse class="st12" cx="733.1" cy="445" rx="39.9" ry="18"/>
	<text transform="matrix(1 0 0 1 706.4023 446.9309)" class="st1 st2 st13">8993 C(65280)</text>
</g>
<g id="edge26">
	<path class="st7" d="M731.3,463.2c-1.6,14.9-3.9,36.4-5.4,51.2"/>
	<text transform="matrix(1 0 0 1 729.0859 490.427)" class="st9 st2 st13">y</text>
</g>
<g id="node69">
	<ellipse class="st12" cx="623.1" cy="532" rx="27.5" ry="18"/>
	<text transform="matrix(1 0 0 1 607.5342 533.9231)" class="st1 st2 st13">175 C(8)</text>
</g>
<g id="edge28">
	<path class="st7" d="M623.2,550.1c0.5,9.9,2,22.4,5.9,32.9c2.7,7.4,7.2,14.8,11.5,20.8"/>
	<text transform="matrix(1 0 0 1 629.0947 577.4192)" class="st9 st2 st13">y</text>
</g>
<g id="node70">
	<ellipse class="st12" cx="46.1" cy="445" rx="34.7" ry="18"/>
	<text transform="matrix(1 0 0 1 23.9116 446.9309)" class="st1 st2 st13">1001 C(255)</text>
</g>
<g id="edge30">
	<path class="st7" d="M48.8,463.2c2.3,15,5.6,36.7,7.9,51.5"/>
	<text transform="matrix(1 0 0 1 54.145 490.427)" class="st9 st2 st13">y</text>
</g>
<g id="node71">
	<ellipse class="st12" cx="500.1" cy="532" rx="34.7" ry="18"/>
	<text transform="matrix(1 0 0 1 477.8711 533.9231)" class="st1 st2 st13">1001 C(255)</text>
</g>
<g id="edge32">
	<path class="st7" d="M501.7,550.2c1.4,14.9,3.4,36.4,4.8,51.2"/>
	<text transform="matrix(1 0 0 1 505.1055 577.4192)" class="st9 st2 st13">y</text>
</g>
<g id="node72">
	<ellipse class="st12" cx="1327" cy="1141" rx="32.2" ry="18"/>
	<text transform="matrix(1 0 0 1 1307.0225 1142.8694)" class="st1 st2 st13">8861 C(16)</text>
</g>
<g id="edge34">
	<path class="st7" d="M1317.3,1158.3c-6.9,10.6-16.9,24.1-28.2,33.6c-12.4,10.5-28.5,19-41.8,25"/>
	<text transform="matrix(1 0 0 1 1303.0352 1186.3655)" class="st9 st2 st13">y</text>
</g>
<g id="node73">
	<ellipse class="st12" cx="1042.1" cy="1141" rx="27.5" ry="18"/>
	<text transform="matrix(1 0 0 1 1026.4961 1142.8694)" class="st1 st2 st13">175 C(8)</text>
</g>
<g id="edge36">
	<path class="st7" d="M1033.9,1158.3c-5,9.8-11.6,22.5-17.8,33.6c-3.8,6.8-8.2,14.2-12,20.5"/>
	<text transform="matrix(1 0 0 1 1024.0596 1186.3655)" class="st9 st2 st13">y</text>
</g>
<g id="node74">
	<ellipse class="st12" cx="1376" cy="619" rx="34.7" ry="18"/>
	<text transform="matrix(1 0 0 1 1353.7939 620.9153)" class="st1 st2 st13">8895 C(128)</text>
</g>
<g id="edge60">
	<path class="st7" d="M1394,634.4c20.4,16.4,53.4,42.9,72.7,58.3"/>
	<text transform="matrix(1 0 0 1 1435.0234 664.4124)" class="st9 st2 st13">y</text>
</g>
<g id="node75">
	<ellipse class="st12" cx="1294" cy="706" rx="34.7" ry="18"/>
	<text transform="matrix(1 0 0 1 1271.8008 707.9084)" class="st1 st2 st13">8895 C(128)</text>
</g>
<g id="edge62">
	<path class="st7" d="M1286.8,723.7c-4.3,9.7-9.8,22.2-14.7,33.3c-2.9,6.6-6.3,13.8-9.1,20"/>
	<text transform="matrix(1 0 0 1 1278.0371 751.4045)" class="st9 st2 st13">y</text>
</g>
<g id="node76">
	<ellipse class="st12" cx="951.1" cy="619" rx="34.7" ry="18"/>
	<text transform="matrix(1 0 0 1 928.8311 620.9153)" class="st1 st2 st13">8895 C(128)</text>
</g>
<g id="edge64">
	<path class="st7" d="M969.2,634.8c20.1,16.4,52.3,42.7,71,58"/>
	<text transform="matrix(1 0 0 1 1009.0605 664.4124)" class="st9 st2 st13">y</text>
</g>
<g id="node77">
	<ellipse class="st12" cx="708.1" cy="706" rx="34.7" ry="18"/>
	<text transform="matrix(1 0 0 1 685.8525 707.9084)" class="st1 st2 st13">8895 C(128)</text>
</g>
<g id="edge66">
	<path class="st7" d="M726.4,721.8c20.3,16.4,52.8,42.7,71.7,58"/>
	<text transform="matrix(1 0 0 1 766.082 751.4045)" class="st9 st2 st13">y</text>
</g>
<g id="node78">
	<ellipse class="st12" cx="229.1" cy="619" rx="34.7" ry="18"/>
	<text transform="matrix(1 0 0 1 206.8955 620.9153)" class="st1 st2 st13">8895 C(128)</text>
</g>
<g id="edge68">
	<path class="st7" d="M231.1,637.2c1.8,14.9,4.3,36.4,6,51.2"/>
	<text transform="matrix(1 0 0 1 235.1289 664.4124)" class="st9 st2 st13">y</text>
</g>
<g id="node79">
	<ellipse class="st12" cx="615.1" cy="706" rx="34.7" ry="18"/>
	<text transform="matrix(1 0 0 1 592.8613 707.9084)" class="st1 st2 st13">8895 C(128)</text>
</g>
<g id="edge70">
	<path class="st7" d="M609.2,723.8c-5.4,15.4-13.4,38-18.7,52.9"/>
	<text transform="matrix(1 0 0 1 602.0967 751.4045)" class="st9 st2 st13">y</text>
</g>
<g id="node80">
	<ellipse class="st12" cx="1382" cy="706" rx="27.5" ry="18"/>
	<text transform="matrix(1 0 0 1 1366.4668 707.9084)" class="st1 st2 st13">175 C(8)</text>
</g>
<g id="edge72">
	<path class="st7" d="M1398.6,720.7c19.4,16,51.5,42.5,70.6,58.3"/>
	<text transform="matrix(1 0 0 1 1439.0225 751.4045)" class="st9 st2 st13">y</text>
</g>
<g id="node81">
	<ellipse class="st12" cx="1370" cy="793" rx="27.5" ry="18"/>
	<text transform="matrix(1 0 0 1 1354.4678 794.9006)" class="st1 st2 st13">175 C(8)</text>
</g>
<g id="edge76">
	<path class="st7" d="M1370.6,811.2c0.5,14.8,1.3,36.2,1.8,50.9"/>
	<text transform="matrix(1 0 0 1 1371.0283 838.3967)" class="st9 st2 st13">y</text>
</g>
<g id="node82">
	<ellipse class="st12" cx="953.1" cy="706" rx="27.5" ry="18"/>
	<text transform="matrix(1 0 0 1 937.5049 707.9084)" class="st1 st2 st13">175 C(8)</text>
</g>
<g id="edge80">
	<path class="st7" d="M953.3,724.1c0.6,9.8,2.1,22.3,5.7,32.9c2.5,7.2,6.6,14.6,10.5,20.7"/>
	<text transform="matrix(1 0 0 1 959.0654 751.4045)" class="st9 st2 st13">y</text>
</g>
<g id="node83">
	<ellipse class="st12" cx="713.1" cy="793" rx="27.5" ry="18"/>
	<text transform="matrix(1 0 0 1 697.5254 794.9006)" class="st1 st2 st13">175 C(8)</text>
</g>
<g id="edge84">
	<path class="st7" d="M715.7,811.3c1.9,9.9,5.2,22.4,10.4,32.7c3.9,7.7,9.9,15.3,15.3,21.4"/>
	<text transform="matrix(1 0 0 1 726.0859 838.3967)" class="st9 st2 st13">y</text>
</g>
<g id="node84">
	<ellipse class="st12" cx="370.1" cy="706" rx="27.5" ry="18"/>
	<text transform="matrix(1 0 0 1 354.5557 707.9084)" class="st1 st2 st13">175 C(8)</text>
</g>
<g id="edge88">
	<path class="st7" d="M370.1,724.2c0,14.7,0,35.9,0,50.6"/>
	<text transform="matrix(1 0 0 1 370.1172 751.4045)" class="st9 st2 st13">y</text>
</g>
<g id="node85">
	<ellipse class="st12" cx="485.1" cy="793" rx="27.5" ry="18"/>
	<text transform="matrix(1 0 0 1 469.5459 794.9006)" class="st1 st2 st13">175 C(8)</text>
</g>
<g id="edge92">
	<path class="st7" d="M467.1,807c-6.6,5.9-13.4,13.5-17,22c-4.8,11.7,0.5,25.3,6.4,35.4"/>
	<text transform="matrix(1 0 0 1 450.1104 838.3967)" class="st9 st2 st13">y</text>
</g>
<g id="node86">
	<ellipse class="st12" cx="1488" cy="880" rx="27.5" ry="18"/>
	<text transform="matrix(1 0 0 1 1472.457 881.8928)" class="st1 st2 st13">175 C(8)</text>
</g>
<g id="edge96">
	<path class="st7" d="M1488,898.2c0,14.7,0,35.9,0,50.6"/>
	<text transform="matrix(1 0 0 1 1488.0186 925.3889)" class="st9 st2 st13">y</text>
</g>
<g id="node87">
	<ellipse class="st12" cx="1191" cy="967" rx="27.5" ry="18"/>
	<text transform="matrix(1 0 0 1 1175.4834 968.885)" class="st1 st2 st13">175 C(8)</text>
</g>
<g id="edge98">
	<path class="st7" d="M1197.2,984.8c5.6,15.3,13.7,37.7,19.2,52.6"/>
	<text transform="matrix(1 0 0 1 1208.043 1012.3811)" class="st9 st2 st13">y</text>
</g>
<g id="node88">
	<ellipse class="st12" cx="1000.1" cy="880" rx="27.5" ry="18"/>
	<text transform="matrix(1 0 0 1 984.5 881.8928)" class="st1 st2 st13">175 C(8)</text>
</g>
<g id="edge100">
	<path class="st7" d="M1005.4,897.8c4.8,15.2,11.9,37.4,16.6,52.3"/>
	<text transform="matrix(1 0 0 1 1015.0605 925.3889)" class="st9 st2 st13">y</text>
</g>
<g id="node89">
	<ellipse class="st12" cx="912.1" cy="967" rx="27.5" ry="18"/>
	<text transform="matrix(1 0 0 1 896.5078 968.885)" class="st1 st2 st13">175 C(8)</text>
</g>
<g id="edge102">
	<path class="st7" d="M912.1,985.2c0,14.7,0,35.9,0,50.6"/>
	<text transform="matrix(1 0 0 1 912.0693 1012.3811)" class="st9 st2 st13">y</text>
</g>
<g id="node90">
	<ellipse class="st12" cx="351.1" cy="880" rx="27.5" ry="18"/>
	<text transform="matrix(1 0 0 1 335.5576 881.8928)" class="st1 st2 st13">175 C(8)</text>
</g>
<g id="edge104">
	<path class="st7" d="M350.7,898.2c-0.3,14.7-0.8,35.9-1.2,50.6"/>
	<text transform="matrix(1 0 0 1 351.1191 925.3889)" class="st9 st2 st13">y</text>
</g>
<g id="node91">
	<ellipse class="st12" cx="613.1" cy="967" rx="27.5" ry="18"/>
	<text transform="matrix(1 0 0 1 597.5342 968.885)" class="st1 st2 st13">175 C(8)</text>
</g>
<g id="edge106">
	<path class="st7" d="M609.1,985.3c-3.2,10.7-8.8,24-18,32.7c-14.6,13.9-35.3,22.4-53.2,27.6"/>
	<text transform="matrix(1 0 0 1 602.0967 1012.3811)" class="st9 st2 st13">y</text>
</g>
<g id="node92">
	<ellipse class="st12" cx="783.1" cy="22.1" rx="28.9" ry="18"/>
	<text transform="matrix(1 0 0 1 765.8125 23.9685)" class="st1 st2 st13">9360 T(9)</text>
</g>
<g id="edge110">
	<path class="st7" d="M783.1,40.2c0,13.2,0,31.5,0,44.7"/>
	<text transform="matrix(1 0 0 1 783.5186 64.4651)" class="st9 st2 st13">value</text>
</g>
<g id="node93">
	<ellipse class="st12" cx="1136" cy="103.1" rx="28.9" ry="18"/>
	<text transform="matrix(1 0 0 1 1118.7812 104.9612)" class="st1 st2 st13">9356 T(5)</text>
</g>
<g id="edge111">
	<path class="st7" d="M1116.4,116.6c-25.6,16.3-70,44.7-94.9,60.7"/>
	<text transform="matrix(1 0 0 1 1077.0547 148.4573)" class="st9 st2 st13">x</text>
</g>
<g id="node94">
	<ellipse class="st12" cx="607.1" cy="277" rx="28.9" ry="18"/>
	<text transform="matrix(1 0 0 1 589.8281 278.9465)" class="st1 st2 st13">9358 T(7)</text>
</g>
<g id="edge112">
	<path class="st7" d="M628.6,289.4c25.1,13.2,66.9,35.2,96,50.6"/>
	<text transform="matrix(1 0 0 1 686.5264 319.4426)" class="st9 st2 st13">value</text>
</g>
<g id="node95">
	<ellipse class="st12" cx="629.1" cy="358" rx="28.9" ry="18"/>
	<text transform="matrix(1 0 0 1 611.8262 359.9387)" class="st1 st2 st13">9359 T(8)</text>
</g>
<g id="edge113">
	<path class="st7" d="M629.1,376.2c0,14.7,0,35.9,0,50.6"/>
	<text transform="matrix(1 0 0 1 629.5322 403.4348)" class="st9 st2 st13">value</text>
</g>
</svg>
