<?xml version="1.0" encoding="utf-8"?>
<!-- Generator: Adobe Illustrator 25.4.1, SVG Export Plug-In . SVG Version: 6.00 Build 0)  -->
<svg version="1.1" id="Layer_1" xmlns="http://www.w3.org/2000/svg" xmlns:xlink="http://www.w3.org/1999/xlink" x="0px" y="0px"
	 viewBox="0 0 240.94 155.91" style="enable-background:new 0 0 240.94 155.91;" xml:space="preserve">
<style type="text/css">
	.st0{fill:none;stroke:#E2E0E1;stroke-width:0.75;stroke-linejoin:round;stroke-miterlimit:10;}
	.st1{fill:#4C6EB4;}
	.st2{fill:#EA7821;}
	.st3{fill:#AEABAA;}
	.st4{fill:#FCC100;}
	.st5{fill:#5F5C5A;}
</style>
<path class="st0" d="M50.47,109.4h179.42 M50.47,89.29h179.42 M50.47,69.18h179.42 M50.47,49.07h179.42 M50.47,28.97h179.42
	 M50.47,8.85h179.42"/>
<path class="st1" d="M64.51,76.07h12.82v53.47H64.51V76.07z M154.22,31.29h12.82v98.25h-12.82V31.29z"/>
<path class="st2" d="M80.78,129.03H93.6v0.51H80.78V129.03z M170.5,129.03h12.82v0.51H170.5V129.03z"/>
<path class="st3" d="M97.06,128.81h12.82v0.73H97.06V128.81z M186.77,128.81h12.82v0.73h-12.82L186.77,128.81L186.77,128.81z"/>
<path class="st4" d="M113.34,127.85h12.82v1.69h-12.82V127.85z M203.05,127.7h12.82v1.83h-12.82L203.05,127.7L203.05,127.7z"/>
<line class="st0" x1="50.47" y1="129.5" x2="229.88" y2="129.5"/>
<path class="st5" d="M43.42,130.77c0.21,0.27,0.5,0.4,0.87,0.4c0.28,0,0.51-0.08,0.7-0.23c0.18-0.15,0.32-0.37,0.42-0.64
	c0.09-0.28,0.14-0.64,0.14-1.09c0-0.38-0.03-0.68-0.09-0.91c-0.06-0.22-0.14-0.42-0.24-0.57c-0.1-0.16-0.23-0.28-0.39-0.36
	s-0.34-0.12-0.54-0.12c-0.28,0-0.51,0.08-0.7,0.23c-0.18,0.15-0.32,0.36-0.42,0.64c-0.09,0.28-0.14,0.64-0.14,1.1
	C43.04,129.92,43.16,130.44,43.42,130.77L43.42,130.77L43.42,130.77z M43.76,127.9c0.13-0.18,0.3-0.28,0.52-0.28s0.4,0.1,0.55,0.31
	c0.15,0.21,0.22,0.63,0.22,1.26s-0.07,1.05-0.22,1.26c-0.15,0.21-0.33,0.32-0.55,0.32c-0.22,0-0.4-0.1-0.55-0.31
	c-0.15-0.21-0.22-0.63-0.22-1.26C43.52,128.57,43.6,128.14,43.76,127.9L43.76,127.9L43.76,127.9z"/>
<path class="st5" d="M31.4,110.76c0.22,0.2,0.51,0.29,0.86,0.29c0.43,0,0.76-0.16,1.01-0.47c0.2-0.25,0.3-0.55,0.3-0.9
	c0-0.37-0.12-0.67-0.35-0.9s-0.51-0.35-0.85-0.35c-0.25,0-0.5,0.08-0.73,0.24l0.21-1.03h1.54v-0.45h-1.91l-0.37,1.98l0.44,0.06
	c0.07-0.11,0.17-0.2,0.29-0.27s0.26-0.1,0.41-0.1c0.25,0,0.44,0.08,0.59,0.23c0.15,0.16,0.23,0.37,0.23,0.64
	c0,0.28-0.08,0.51-0.24,0.68s-0.35,0.26-0.58,0.26c-0.19,0-0.35-0.06-0.48-0.18s-0.22-0.3-0.26-0.54l-0.5,0.04
	C31.05,110.31,31.18,110.57,31.4,110.76L31.4,110.76z M34.42,110.66c0.21,0.27,0.5,0.4,0.87,0.4c0.28,0,0.51-0.08,0.7-0.23
	c0.18-0.15,0.32-0.37,0.42-0.64c0.09-0.28,0.14-0.64,0.14-1.09c0-0.38-0.03-0.68-0.09-0.91c-0.06-0.22-0.14-0.42-0.24-0.57
	c-0.1-0.16-0.23-0.28-0.39-0.36s-0.34-0.12-0.54-0.12c-0.28,0-0.51,0.08-0.7,0.23c-0.18,0.15-0.32,0.36-0.42,0.64
	c-0.09,0.28-0.14,0.64-0.14,1.1C34.03,109.82,34.16,110.34,34.42,110.66L34.42,110.66L34.42,110.66z M34.76,107.79
	c0.13-0.18,0.3-0.28,0.52-0.28s0.4,0.1,0.55,0.31c0.15,0.21,0.22,0.63,0.22,1.26c0,0.63-0.07,1.05-0.22,1.26s-0.33,0.32-0.55,0.32
	c-0.22,0-0.4-0.1-0.55-0.31c-0.15-0.21-0.22-0.63-0.22-1.26C34.52,108.46,34.6,108.03,34.76,107.79L34.76,107.79L34.76,107.79z
	 M37.43,110.66c0.21,0.27,0.5,0.4,0.87,0.4c0.28,0,0.51-0.08,0.7-0.23c0.18-0.15,0.32-0.37,0.42-0.64c0.09-0.28,0.14-0.64,0.14-1.09
	c0-0.38-0.03-0.68-0.09-0.91c-0.06-0.22-0.14-0.42-0.24-0.57c-0.1-0.16-0.23-0.28-0.39-0.36s-0.34-0.12-0.54-0.12
	c-0.28,0-0.51,0.08-0.7,0.23c-0.18,0.15-0.32,0.36-0.42,0.64c-0.09,0.28-0.14,0.64-0.14,1.1C37.05,109.82,37.18,110.34,37.43,110.66
	L37.43,110.66L37.43,110.66z M37.78,107.79c0.13-0.18,0.3-0.28,0.52-0.28s0.4,0.1,0.55,0.31c0.15,0.21,0.22,0.63,0.22,1.26
	c0,0.63-0.07,1.05-0.22,1.26s-0.33,0.32-0.55,0.32c-0.22,0-0.4-0.1-0.55-0.31c-0.15-0.21-0.22-0.63-0.22-1.26
	C37.54,108.46,37.62,108.03,37.78,107.79L37.78,107.79L37.78,107.79z"/>
<path class="st5" d="M40.38,110.66c0.21,0.27,0.5,0.4,0.87,0.4c0.28,0,0.51-0.08,0.7-0.23c0.18-0.15,0.32-0.37,0.42-0.64
	c0.09-0.28,0.14-0.64,0.14-1.09c0-0.38-0.03-0.68-0.09-0.91c-0.06-0.22-0.14-0.42-0.24-0.57c-0.1-0.16-0.23-0.28-0.39-0.36
	s-0.34-0.12-0.54-0.12c-0.28,0-0.51,0.08-0.7,0.23c-0.18,0.15-0.32,0.36-0.42,0.64c-0.09,0.28-0.14,0.64-0.14,1.1
	C40,109.82,40.13,110.34,40.38,110.66L40.38,110.66L40.38,110.66z M40.73,107.79c0.13-0.18,0.3-0.28,0.52-0.28s0.4,0.1,0.55,0.31
	c0.15,0.21,0.22,0.63,0.22,1.26c0,0.63-0.07,1.05-0.22,1.26s-0.33,0.32-0.55,0.32c-0.22,0-0.4-0.1-0.55-0.31
	c-0.15-0.21-0.22-0.63-0.22-1.26C40.49,108.46,40.57,108.03,40.73,107.79L40.73,107.79L40.73,107.79z M43.4,110.66
	c0.21,0.27,0.5,0.4,0.87,0.4c0.28,0,0.51-0.08,0.7-0.23c0.18-0.15,0.32-0.37,0.42-0.64c0.09-0.28,0.14-0.64,0.14-1.09
	c0-0.38-0.03-0.68-0.09-0.91c-0.06-0.22-0.14-0.42-0.24-0.57c-0.1-0.16-0.23-0.28-0.39-0.36s-0.34-0.12-0.54-0.12
	c-0.28,0-0.51,0.08-0.7,0.23c-0.18,0.15-0.32,0.36-0.42,0.64c-0.09,0.28-0.14,0.64-0.14,1.1C43.02,109.82,43.14,110.34,43.4,110.66
	L43.4,110.66L43.4,110.66z M43.75,107.79c0.13-0.18,0.3-0.28,0.52-0.28s0.4,0.1,0.55,0.31c0.15,0.21,0.22,0.63,0.22,1.26
	c0,0.63-0.07,1.05-0.22,1.26s-0.33,0.32-0.55,0.32c-0.22,0-0.4-0.1-0.55-0.31c-0.15-0.21-0.22-0.63-0.22-1.26
	S43.58,108.03,43.75,107.79L43.75,107.79L43.75,107.79z"/>
<path class="st5" d="M29.79,87.02h-0.3c-0.08,0.17-0.22,0.34-0.42,0.51c-0.2,0.18-0.43,0.33-0.69,0.45v0.46
	c0.15-0.05,0.31-0.14,0.5-0.24c0.18-0.11,0.33-0.22,0.45-0.33v3.01h0.47v-3.86H29.79z M31.41,90.55c0.21,0.27,0.5,0.4,0.87,0.4
	c0.28,0,0.51-0.08,0.7-0.23c0.18-0.15,0.32-0.37,0.42-0.64c0.09-0.28,0.14-0.64,0.14-1.09c0-0.38-0.03-0.68-0.09-0.91
	c-0.06-0.22-0.14-0.42-0.24-0.57c-0.1-0.16-0.23-0.28-0.39-0.36s-0.34-0.12-0.54-0.12c-0.28,0-0.51,0.08-0.7,0.23
	c-0.18,0.15-0.32,0.36-0.42,0.64c-0.09,0.28-0.14,0.64-0.14,1.1C31.03,89.71,31.16,90.23,31.41,90.55L31.41,90.55L31.41,90.55z
	 M31.76,87.69c0.13-0.18,0.3-0.28,0.52-0.28c0.22,0,0.4,0.1,0.55,0.31c0.15,0.21,0.22,0.63,0.22,1.26c0,0.63-0.07,1.05-0.22,1.26
	s-0.33,0.32-0.55,0.32c-0.22,0-0.4-0.1-0.55-0.31s-0.22-0.63-0.22-1.26C31.52,88.35,31.6,87.92,31.76,87.69L31.76,87.69L31.76,87.69
	z M34.43,90.55c0.21,0.27,0.5,0.4,0.87,0.4c0.28,0,0.51-0.08,0.7-0.23c0.18-0.15,0.32-0.37,0.42-0.64c0.09-0.28,0.14-0.64,0.14-1.09
	c0-0.38-0.03-0.68-0.09-0.91c-0.06-0.22-0.14-0.42-0.24-0.57c-0.1-0.16-0.23-0.28-0.39-0.36s-0.34-0.12-0.54-0.12
	c-0.28,0-0.51,0.08-0.7,0.23c-0.18,0.15-0.32,0.36-0.42,0.64c-0.09,0.28-0.14,0.64-0.14,1.1C34.05,89.71,34.17,90.23,34.43,90.55
	L34.43,90.55L34.43,90.55z M34.78,87.69c0.13-0.18,0.3-0.28,0.52-0.28s0.4,0.1,0.55,0.31c0.15,0.21,0.22,0.63,0.22,1.26
	c0,0.63-0.07,1.05-0.22,1.26s-0.33,0.32-0.55,0.32c-0.22,0-0.4-0.1-0.55-0.31c-0.15-0.21-0.22-0.63-0.22-1.26
	C34.53,88.35,34.61,87.92,34.78,87.69L34.78,87.69L34.78,87.69z"/>
<path class="st5" d="M37.38,90.55c0.21,0.27,0.5,0.4,0.87,0.4c0.28,0,0.51-0.08,0.7-0.23c0.18-0.15,0.32-0.37,0.42-0.64
	c0.09-0.28,0.14-0.64,0.14-1.09c0-0.38-0.03-0.68-0.09-0.91c-0.06-0.22-0.14-0.42-0.24-0.57c-0.1-0.16-0.23-0.28-0.39-0.36
	s-0.34-0.12-0.54-0.12c-0.28,0-0.51,0.08-0.7,0.23c-0.18,0.15-0.32,0.36-0.42,0.64c-0.09,0.28-0.14,0.64-0.14,1.1
	C37,89.71,37.12,90.23,37.38,90.55L37.38,90.55L37.38,90.55z M37.73,87.69c0.13-0.18,0.3-0.28,0.52-0.28s0.4,0.1,0.55,0.31
	c0.15,0.21,0.22,0.63,0.22,1.26c0,0.63-0.07,1.05-0.22,1.26s-0.33,0.32-0.55,0.32c-0.22,0-0.4-0.1-0.55-0.31
	c-0.15-0.21-0.22-0.63-0.22-1.26C37.48,88.35,37.56,87.92,37.73,87.69L37.73,87.69L37.73,87.69z M40.39,90.55
	c0.21,0.27,0.5,0.4,0.87,0.4c0.28,0,0.51-0.08,0.7-0.23c0.18-0.15,0.32-0.37,0.42-0.64c0.09-0.28,0.14-0.64,0.14-1.09
	c0-0.38-0.03-0.68-0.09-0.91c-0.06-0.22-0.14-0.42-0.24-0.57c-0.1-0.16-0.23-0.28-0.39-0.36s-0.34-0.12-0.54-0.12
	c-0.28,0-0.51,0.08-0.7,0.23c-0.18,0.15-0.32,0.36-0.42,0.64C40.05,88.18,40,88.54,40,89C40.01,89.71,40.14,90.23,40.39,90.55
	L40.39,90.55L40.39,90.55z M40.74,87.69c0.13-0.18,0.3-0.28,0.52-0.28s0.4,0.1,0.55,0.31c0.15,0.21,0.22,0.63,0.22,1.26
	c0,0.63-0.07,1.05-0.22,1.26s-0.33,0.32-0.55,0.32c-0.22,0-0.4-0.1-0.55-0.31c-0.15-0.21-0.22-0.63-0.22-1.26
	C40.5,88.35,40.58,87.92,40.74,87.69L40.74,87.69L40.74,87.69z M43.41,90.55c0.21,0.27,0.5,0.4,0.87,0.4c0.28,0,0.51-0.08,0.7-0.23
	c0.18-0.15,0.32-0.37,0.42-0.64c0.09-0.28,0.14-0.64,0.14-1.09c0-0.38-0.03-0.68-0.09-0.91c-0.06-0.22-0.14-0.42-0.24-0.57
	c-0.1-0.16-0.23-0.28-0.39-0.36s-0.34-0.12-0.54-0.12c-0.28,0-0.51,0.08-0.7,0.23c-0.18,0.15-0.32,0.36-0.42,0.64
	c-0.09,0.28-0.14,0.64-0.14,1.1C43.03,89.71,43.16,90.23,43.41,90.55L43.41,90.55L43.41,90.55z M43.76,87.69
	c0.13-0.18,0.3-0.28,0.52-0.28s0.4,0.1,0.55,0.31c0.15,0.21,0.22,0.63,0.22,1.26c0,0.63-0.07,1.05-0.22,1.26s-0.33,0.32-0.55,0.32
	c-0.22,0-0.4-0.1-0.55-0.31c-0.15-0.21-0.22-0.63-0.22-1.26C43.52,88.35,43.6,87.92,43.76,87.69L43.76,87.69L43.76,87.69z"/>
<path class="st5" d="M29.79,66.91h-0.3c-0.08,0.17-0.22,0.34-0.42,0.51c-0.2,0.18-0.43,0.33-0.69,0.45v0.46
	c0.15-0.05,0.31-0.14,0.5-0.24c0.18-0.11,0.33-0.22,0.45-0.33v3.01h0.47v-3.86H29.79z M31.41,70.55c0.22,0.2,0.51,0.29,0.86,0.29
	c0.43,0,0.76-0.16,1.01-0.47c0.2-0.25,0.3-0.55,0.3-0.9c0-0.37-0.12-0.67-0.35-0.9s-0.51-0.35-0.85-0.35c-0.25,0-0.5,0.08-0.73,0.24
	l0.21-1.03h1.54v-0.45h-1.91l-0.37,1.98l0.44,0.06c0.07-0.11,0.17-0.2,0.29-0.27s0.26-0.1,0.41-0.1c0.25,0,0.44,0.08,0.59,0.23
	c0.15,0.16,0.23,0.37,0.23,0.64c0,0.28-0.08,0.51-0.24,0.68s-0.35,0.26-0.58,0.26c-0.19,0-0.35-0.06-0.48-0.18s-0.22-0.3-0.26-0.54
	l-0.5,0.04C31.06,70.09,31.19,70.35,31.41,70.55L31.41,70.55z M34.43,70.44c0.21,0.27,0.5,0.4,0.87,0.4c0.28,0,0.51-0.08,0.7-0.23
	c0.18-0.15,0.32-0.37,0.42-0.64c0.09-0.28,0.14-0.64,0.14-1.09c0-0.38-0.03-0.68-0.09-0.91c-0.06-0.22-0.14-0.42-0.24-0.57
	c-0.1-0.16-0.23-0.28-0.39-0.36s-0.34-0.12-0.54-0.12c-0.28,0-0.51,0.08-0.7,0.23c-0.18,0.15-0.32,0.36-0.42,0.64
	c-0.09,0.28-0.14,0.64-0.14,1.1C34.05,69.6,34.17,70.12,34.43,70.44L34.43,70.44L34.43,70.44z M34.78,67.58
	c0.13-0.18,0.3-0.28,0.52-0.28s0.4,0.1,0.55,0.31c0.15,0.21,0.22,0.63,0.22,1.26c0,0.63-0.07,1.05-0.22,1.26s-0.33,0.32-0.55,0.32
	c-0.22,0-0.4-0.1-0.55-0.31c-0.15-0.21-0.22-0.63-0.22-1.26S34.61,67.81,34.78,67.58L34.78,67.58L34.78,67.58z"/>
<path class="st5" d="M37.38,70.44c0.21,0.27,0.5,0.4,0.87,0.4c0.28,0,0.51-0.08,0.7-0.23c0.18-0.15,0.32-0.37,0.42-0.64
	c0.09-0.28,0.14-0.64,0.14-1.09c0-0.38-0.03-0.68-0.09-0.91c-0.06-0.22-0.14-0.42-0.24-0.57c-0.1-0.16-0.23-0.28-0.39-0.36
	s-0.34-0.12-0.54-0.12c-0.28,0-0.51,0.08-0.7,0.23c-0.18,0.15-0.32,0.36-0.42,0.64c-0.09,0.28-0.14,0.64-0.14,1.1
	C37,69.6,37.12,70.12,37.38,70.44L37.38,70.44L37.38,70.44z M37.73,67.58c0.13-0.18,0.3-0.28,0.52-0.28s0.4,0.1,0.55,0.31
	c0.15,0.21,0.22,0.63,0.22,1.26c0,0.63-0.07,1.05-0.22,1.26s-0.33,0.32-0.55,0.32c-0.22,0-0.4-0.1-0.55-0.31
	c-0.15-0.21-0.22-0.63-0.22-1.26S37.56,67.81,37.73,67.58L37.73,67.58L37.73,67.58z M40.39,70.44c0.21,0.27,0.5,0.4,0.87,0.4
	c0.28,0,0.51-0.08,0.7-0.23c0.18-0.15,0.32-0.37,0.42-0.64c0.09-0.28,0.14-0.64,0.14-1.09c0-0.38-0.03-0.68-0.09-0.91
	c-0.06-0.22-0.14-0.42-0.24-0.57c-0.1-0.16-0.23-0.28-0.39-0.36s-0.34-0.12-0.54-0.12c-0.28,0-0.51,0.08-0.7,0.23
	c-0.18,0.15-0.32,0.36-0.42,0.64c-0.09,0.28-0.14,0.64-0.14,1.1C40.01,69.6,40.14,70.12,40.39,70.44L40.39,70.44L40.39,70.44z
	 M40.74,67.58c0.13-0.18,0.3-0.28,0.52-0.28s0.4,0.1,0.55,0.31c0.15,0.21,0.22,0.63,0.22,1.26c0,0.63-0.07,1.05-0.22,1.26
	s-0.33,0.32-0.55,0.32c-0.22,0-0.4-0.1-0.55-0.31c-0.15-0.21-0.22-0.63-0.22-1.26C40.5,68.25,40.58,67.81,40.74,67.58L40.74,67.58
	L40.74,67.58z M43.41,70.44c0.21,0.27,0.5,0.4,0.87,0.4c0.28,0,0.51-0.08,0.7-0.23c0.18-0.15,0.32-0.37,0.42-0.64
	c0.09-0.28,0.14-0.64,0.14-1.09c0-0.38-0.03-0.68-0.09-0.91c-0.06-0.22-0.14-0.42-0.24-0.57c-0.1-0.16-0.23-0.28-0.39-0.36
	s-0.34-0.12-0.54-0.12c-0.28,0-0.51,0.08-0.7,0.23c-0.18,0.15-0.32,0.36-0.42,0.64c-0.09,0.28-0.14,0.64-0.14,1.1
	C43.03,69.6,43.16,70.12,43.41,70.44L43.41,70.44L43.41,70.44z M43.76,67.58c0.13-0.18,0.3-0.28,0.52-0.28s0.4,0.1,0.55,0.31
	c0.15,0.21,0.22,0.63,0.22,1.26c0,0.63-0.07,1.05-0.22,1.26s-0.33,0.32-0.55,0.32c-0.22,0-0.4-0.1-0.55-0.31
	c-0.15-0.21-0.22-0.63-0.22-1.26C43.52,68.25,43.6,67.81,43.76,67.58L43.76,67.58L43.76,67.58z"/>
<path class="st5" d="M28.61,50.22c0.05-0.09,0.12-0.17,0.2-0.26c0.08-0.08,0.26-0.25,0.55-0.48c0.34-0.29,0.58-0.51,0.73-0.68
	c0.15-0.16,0.25-0.32,0.31-0.47s0.09-0.3,0.09-0.45c0-0.3-0.11-0.56-0.32-0.76c-0.22-0.2-0.51-0.31-0.88-0.31
	c-0.37,0-0.66,0.09-0.87,0.28c-0.22,0.19-0.34,0.47-0.38,0.83l0.49,0.05c0-0.24,0.07-0.43,0.21-0.57s0.32-0.2,0.55-0.2
	c0.22,0,0.39,0.06,0.52,0.19c0.13,0.13,0.2,0.29,0.2,0.47s-0.07,0.37-0.22,0.57s-0.43,0.47-0.85,0.82
	c-0.27,0.22-0.48,0.41-0.62,0.58c-0.14,0.17-0.25,0.34-0.31,0.51c-0.04,0.11-0.06,0.21-0.06,0.33h2.54v-0.45H28.61L28.61,50.22z
	 M31.41,50.34c0.21,0.27,0.5,0.4,0.87,0.4c0.28,0,0.51-0.08,0.7-0.23c0.18-0.15,0.32-0.37,0.42-0.64c0.09-0.28,0.14-0.64,0.14-1.09
	c0-0.38-0.03-0.68-0.09-0.91c-0.06-0.22-0.14-0.42-0.24-0.57c-0.1-0.16-0.23-0.28-0.39-0.36s-0.34-0.12-0.54-0.12
	c-0.28,0-0.51,0.08-0.7,0.23c-0.18,0.15-0.32,0.36-0.42,0.64c-0.09,0.28-0.14,0.64-0.14,1.1C31.03,49.5,31.16,50.02,31.41,50.34
	L31.41,50.34L31.41,50.34z M31.76,47.47c0.13-0.18,0.3-0.28,0.52-0.28c0.22,0,0.4,0.1,0.55,0.31c0.15,0.21,0.22,0.63,0.22,1.26
	c0,0.63-0.07,1.05-0.22,1.26s-0.33,0.32-0.55,0.32c-0.22,0-0.4-0.1-0.55-0.31c-0.15-0.21-0.22-0.63-0.22-1.26
	C31.52,48.14,31.6,47.71,31.76,47.47L31.76,47.47L31.76,47.47z M34.43,50.34c0.21,0.27,0.5,0.4,0.87,0.4c0.28,0,0.51-0.08,0.7-0.23
	c0.18-0.15,0.32-0.37,0.42-0.64c0.09-0.28,0.14-0.64,0.14-1.09c0-0.38-0.03-0.68-0.09-0.91c-0.06-0.22-0.14-0.42-0.24-0.57
	c-0.1-0.16-0.23-0.28-0.39-0.36s-0.34-0.12-0.54-0.12c-0.28,0-0.51,0.08-0.7,0.23c-0.18,0.15-0.32,0.36-0.42,0.64
	c-0.09,0.28-0.14,0.64-0.14,1.1C34.05,49.5,34.17,50.02,34.43,50.34L34.43,50.34L34.43,50.34z M34.78,47.47
	c0.13-0.18,0.3-0.28,0.52-0.28s0.4,0.1,0.55,0.31c0.15,0.21,0.22,0.63,0.22,1.26c0,0.63-0.07,1.05-0.22,1.26s-0.33,0.32-0.55,0.32
	c-0.22,0-0.4-0.1-0.55-0.31c-0.15-0.21-0.22-0.63-0.22-1.26C34.53,48.14,34.61,47.71,34.78,47.47L34.78,47.47L34.78,47.47z"/>
<path class="st5" d="M37.38,50.34c0.21,0.27,0.5,0.4,0.87,0.4c0.28,0,0.51-0.08,0.7-0.23c0.18-0.15,0.32-0.37,0.42-0.64
	c0.09-0.28,0.14-0.64,0.14-1.09c0-0.38-0.03-0.68-0.09-0.91c-0.06-0.22-0.14-0.42-0.24-0.57c-0.1-0.16-0.23-0.28-0.39-0.36
	s-0.34-0.12-0.54-0.12c-0.28,0-0.51,0.08-0.7,0.23c-0.18,0.15-0.32,0.36-0.42,0.64c-0.09,0.28-0.14,0.64-0.14,1.1
	C37,49.5,37.12,50.02,37.38,50.34L37.38,50.34L37.38,50.34z M37.73,47.47c0.13-0.18,0.3-0.28,0.52-0.28s0.4,0.1,0.55,0.31
	c0.15,0.21,0.22,0.63,0.22,1.26c0,0.63-0.07,1.05-0.22,1.26s-0.33,0.32-0.55,0.32c-0.22,0-0.4-0.1-0.55-0.31
	c-0.15-0.21-0.22-0.63-0.22-1.26C37.48,48.14,37.56,47.71,37.73,47.47L37.73,47.47L37.73,47.47z M40.39,50.34
	c0.21,0.27,0.5,0.4,0.87,0.4c0.28,0,0.51-0.08,0.7-0.23c0.18-0.15,0.32-0.37,0.42-0.64c0.09-0.28,0.14-0.64,0.14-1.09
	c0-0.38-0.03-0.68-0.09-0.91c-0.06-0.22-0.14-0.42-0.24-0.57c-0.1-0.16-0.23-0.28-0.39-0.36s-0.34-0.12-0.54-0.12
	c-0.28,0-0.51,0.08-0.7,0.23c-0.18,0.15-0.32,0.36-0.42,0.64c-0.09,0.28-0.14,0.64-0.14,1.1C40.01,49.5,40.14,50.02,40.39,50.34
	L40.39,50.34L40.39,50.34z M40.74,47.47c0.13-0.18,0.3-0.28,0.52-0.28s0.4,0.1,0.55,0.31c0.15,0.21,0.22,0.63,0.22,1.26
	c0,0.63-0.07,1.05-0.22,1.26s-0.33,0.32-0.55,0.32c-0.22,0-0.4-0.1-0.55-0.31c-0.15-0.21-0.22-0.63-0.22-1.26
	C40.5,48.14,40.58,47.71,40.74,47.47L40.74,47.47L40.74,47.47z M43.41,50.34c0.21,0.27,0.5,0.4,0.87,0.4c0.28,0,0.51-0.08,0.7-0.23
	c0.18-0.15,0.32-0.37,0.42-0.64c0.09-0.28,0.14-0.64,0.14-1.09c0-0.38-0.03-0.68-0.09-0.91c-0.06-0.22-0.14-0.42-0.24-0.57
	c-0.1-0.16-0.23-0.28-0.39-0.36s-0.34-0.12-0.54-0.12c-0.28,0-0.51,0.08-0.7,0.23c-0.18,0.15-0.32,0.36-0.42,0.64
	c-0.09,0.28-0.14,0.64-0.14,1.1C43.03,49.5,43.16,50.02,43.41,50.34L43.41,50.34L43.41,50.34z M43.76,47.47
	c0.13-0.18,0.3-0.28,0.52-0.28s0.4,0.1,0.55,0.31c0.15,0.21,0.22,0.63,0.22,1.26c0,0.63-0.07,1.05-0.22,1.26s-0.33,0.32-0.55,0.32
	c-0.22,0-0.4-0.1-0.55-0.31c-0.15-0.21-0.22-0.63-0.22-1.26C43.52,48.14,43.6,47.71,43.76,47.47L43.76,47.47L43.76,47.47z"/>
<path class="st5" d="M28.61,30.11c0.05-0.09,0.12-0.17,0.2-0.26c0.08-0.08,0.26-0.25,0.55-0.48c0.34-0.29,0.58-0.51,0.73-0.68
	c0.15-0.16,0.25-0.32,0.31-0.47s0.09-0.3,0.09-0.45c0-0.3-0.11-0.56-0.32-0.76c-0.22-0.2-0.51-0.31-0.88-0.31
	c-0.37,0-0.66,0.09-0.87,0.28c-0.22,0.19-0.34,0.47-0.38,0.83l0.49,0.05c0-0.24,0.07-0.43,0.21-0.57s0.32-0.2,0.55-0.2
	c0.22,0,0.39,0.06,0.52,0.19c0.13,0.13,0.2,0.29,0.2,0.47c0,0.18-0.07,0.37-0.22,0.57c-0.15,0.2-0.43,0.47-0.85,0.82
	c-0.27,0.22-0.48,0.41-0.62,0.58c-0.14,0.17-0.25,0.34-0.31,0.51c-0.04,0.11-0.06,0.21-0.06,0.33h2.54v-0.45L28.61,30.11
	L28.61,30.11z M31.41,30.33c0.22,0.2,0.51,0.29,0.86,0.29c0.43,0,0.76-0.16,1.01-0.47c0.2-0.25,0.3-0.55,0.3-0.9
	c0-0.37-0.12-0.67-0.35-0.9S32.72,28,32.38,28c-0.25,0-0.5,0.08-0.73,0.24l0.21-1.03h1.54v-0.45h-1.91l-0.37,1.98l0.44,0.06
	c0.07-0.11,0.17-0.2,0.29-0.27s0.26-0.1,0.41-0.1c0.25,0,0.44,0.08,0.59,0.23c0.15,0.16,0.23,0.37,0.23,0.64
	c0,0.28-0.08,0.51-0.24,0.68s-0.35,0.26-0.58,0.26c-0.19,0-0.35-0.06-0.48-0.18s-0.22-0.3-0.26-0.54l-0.5,0.04
	C31.06,29.88,31.19,30.14,31.41,30.33L31.41,30.33z M34.43,30.23c0.21,0.27,0.5,0.4,0.87,0.4c0.28,0,0.51-0.08,0.7-0.23
	c0.18-0.15,0.32-0.37,0.42-0.64c0.09-0.28,0.14-0.64,0.14-1.09c0-0.38-0.03-0.68-0.09-0.91c-0.06-0.22-0.14-0.42-0.24-0.57
	c-0.1-0.16-0.23-0.28-0.39-0.36s-0.34-0.12-0.54-0.12c-0.28,0-0.51,0.08-0.7,0.23c-0.18,0.15-0.32,0.36-0.42,0.64
	c-0.09,0.28-0.14,0.64-0.14,1.1C34.05,29.39,34.17,29.91,34.43,30.23L34.43,30.23L34.43,30.23z M34.78,27.37
	c0.13-0.18,0.3-0.28,0.52-0.28s0.4,0.1,0.55,0.31c0.15,0.21,0.22,0.63,0.22,1.26c0,0.63-0.07,1.05-0.22,1.26
	c-0.15,0.21-0.33,0.32-0.55,0.32c-0.22,0-0.4-0.1-0.55-0.31c-0.15-0.21-0.22-0.63-0.22-1.26C34.53,28.03,34.61,27.6,34.78,27.37
	L34.78,27.37L34.78,27.37z"/>
<path class="st5" d="M37.38,30.23c0.21,0.27,0.5,0.4,0.87,0.4c0.28,0,0.51-0.08,0.7-0.23c0.18-0.15,0.32-0.37,0.42-0.64
	c0.09-0.28,0.14-0.64,0.14-1.09c0-0.38-0.03-0.68-0.09-0.91c-0.06-0.22-0.14-0.42-0.24-0.57c-0.1-0.16-0.23-0.28-0.39-0.36
	s-0.34-0.12-0.54-0.12c-0.28,0-0.51,0.08-0.7,0.23c-0.18,0.15-0.32,0.36-0.42,0.64c-0.09,0.28-0.14,0.64-0.14,1.1
	C37,29.39,37.12,29.91,37.38,30.23L37.38,30.23L37.38,30.23z M37.73,27.37c0.13-0.18,0.3-0.28,0.52-0.28s0.4,0.1,0.55,0.31
	c0.15,0.21,0.22,0.63,0.22,1.26c0,0.63-0.07,1.05-0.22,1.26c-0.15,0.21-0.33,0.32-0.55,0.32c-0.22,0-0.4-0.1-0.55-0.31
	c-0.15-0.21-0.22-0.63-0.22-1.26C37.48,28.03,37.56,27.6,37.73,27.37L37.73,27.37L37.73,27.37z M40.39,30.23
	c0.21,0.27,0.5,0.4,0.87,0.4c0.28,0,0.51-0.08,0.7-0.23c0.18-0.15,0.32-0.37,0.42-0.64c0.09-0.28,0.14-0.64,0.14-1.09
	c0-0.38-0.03-0.68-0.09-0.91c-0.06-0.22-0.14-0.42-0.24-0.57c-0.1-0.16-0.23-0.28-0.39-0.36s-0.34-0.12-0.54-0.12
	c-0.28,0-0.51,0.08-0.7,0.23c-0.18,0.15-0.32,0.36-0.42,0.64c-0.09,0.28-0.14,0.64-0.14,1.1C40.01,29.39,40.14,29.91,40.39,30.23
	L40.39,30.23L40.39,30.23z M40.74,27.37c0.13-0.18,0.3-0.28,0.52-0.28s0.4,0.1,0.55,0.31c0.15,0.21,0.22,0.63,0.22,1.26
	c0,0.63-0.07,1.05-0.22,1.26c-0.15,0.21-0.33,0.32-0.55,0.32c-0.22,0-0.4-0.1-0.55-0.31c-0.15-0.21-0.22-0.63-0.22-1.26
	C40.5,28.03,40.58,27.6,40.74,27.37L40.74,27.37L40.74,27.37z M43.41,30.23c0.21,0.27,0.5,0.4,0.87,0.4c0.28,0,0.51-0.08,0.7-0.23
	c0.18-0.15,0.32-0.37,0.42-0.64c0.09-0.28,0.14-0.64,0.14-1.09c0-0.38-0.03-0.68-0.09-0.91c-0.06-0.22-0.14-0.42-0.24-0.57
	c-0.1-0.16-0.23-0.28-0.39-0.36s-0.34-0.12-0.54-0.12c-0.28,0-0.51,0.08-0.7,0.23c-0.18,0.15-0.32,0.36-0.42,0.64
	c-0.09,0.28-0.14,0.64-0.14,1.1C43.03,29.39,43.16,29.91,43.41,30.23L43.41,30.23L43.41,30.23z M43.76,27.37
	c0.13-0.18,0.3-0.28,0.52-0.28s0.4,0.1,0.55,0.31c0.15,0.21,0.22,0.63,0.22,1.26c0,0.63-0.07,1.05-0.22,1.26
	c-0.15,0.21-0.33,0.32-0.55,0.32c-0.22,0-0.4-0.1-0.55-0.31c-0.15-0.21-0.22-0.63-0.22-1.26C43.52,28.03,43.6,27.6,43.76,27.37
	L43.76,27.37L43.76,27.37z"/>
<path class="st5" d="M28.4,10.22c0.22,0.2,0.5,0.3,0.84,0.3c0.37,0,0.68-0.12,0.93-0.35c0.25-0.23,0.37-0.52,0.37-0.85
	c0-0.25-0.06-0.46-0.19-0.62c-0.13-0.17-0.3-0.27-0.53-0.33c0.17-0.08,0.31-0.19,0.4-0.33c0.09-0.14,0.13-0.29,0.13-0.45
	c0-0.17-0.05-0.34-0.14-0.5s-0.23-0.28-0.41-0.37c-0.18-0.09-0.37-0.14-0.58-0.14c-0.3,0-0.56,0.09-0.76,0.26
	c-0.2,0.17-0.34,0.42-0.39,0.74l0.47,0.08c0.03-0.23,0.11-0.4,0.24-0.52c0.12-0.12,0.28-0.17,0.46-0.17c0.19,0,0.34,0.06,0.45,0.17
	c0.12,0.11,0.18,0.26,0.18,0.43c0,0.22-0.08,0.38-0.24,0.49s-0.34,0.16-0.54,0.16c-0.02,0-0.04,0-0.08-0.01l-0.05,0.41
	c0.13-0.03,0.24-0.05,0.33-0.05c0.22,0,0.4,0.07,0.54,0.21c0.14,0.14,0.21,0.32,0.21,0.54c0,0.23-0.08,0.42-0.23,0.57
	s-0.34,0.23-0.56,0.23c-0.19,0-0.35-0.06-0.48-0.18s-0.22-0.31-0.28-0.58l-0.47,0.06C28.05,9.76,28.17,10.02,28.4,10.22L28.4,10.22z
	 M31.41,10.12c0.21,0.27,0.5,0.4,0.87,0.4c0.28,0,0.51-0.08,0.7-0.23c0.18-0.15,0.32-0.37,0.42-0.64c0.09-0.28,0.14-0.64,0.14-1.09
	c0-0.38-0.03-0.68-0.09-0.91c-0.06-0.22-0.14-0.42-0.24-0.57c-0.1-0.16-0.23-0.28-0.39-0.36S32.48,6.6,32.28,6.6
	c-0.28,0-0.51,0.08-0.7,0.23c-0.18,0.15-0.32,0.36-0.42,0.64c-0.09,0.28-0.14,0.64-0.14,1.1C31.03,9.28,31.16,9.8,31.41,10.12
	L31.41,10.12L31.41,10.12z M31.76,7.26c0.13-0.18,0.3-0.28,0.52-0.28c0.22,0,0.4,0.1,0.55,0.31c0.15,0.21,0.22,0.63,0.22,1.26
	s-0.07,1.05-0.22,1.26s-0.33,0.32-0.55,0.32c-0.22,0-0.4-0.1-0.55-0.31s-0.22-0.63-0.22-1.26C31.52,7.93,31.6,7.49,31.76,7.26
	L31.76,7.26L31.76,7.26z M34.43,10.12c0.21,0.27,0.5,0.4,0.87,0.4c0.28,0,0.51-0.08,0.7-0.23c0.18-0.15,0.32-0.37,0.42-0.64
	c0.09-0.28,0.14-0.64,0.14-1.09c0-0.38-0.03-0.68-0.09-0.91c-0.06-0.22-0.14-0.42-0.24-0.57C36.13,6.92,36,6.8,35.85,6.72
	c-0.16-0.08-0.34-0.12-0.54-0.12c-0.28,0-0.51,0.08-0.7,0.23c-0.18,0.15-0.32,0.36-0.42,0.64c-0.09,0.28-0.14,0.64-0.14,1.1
	C34.05,9.28,34.17,9.8,34.43,10.12L34.43,10.12L34.43,10.12z M34.78,7.26c0.13-0.18,0.3-0.28,0.52-0.28s0.4,0.1,0.55,0.31
	C36,7.5,36.07,7.92,36.07,8.56c0,0.63-0.07,1.05-0.22,1.26s-0.33,0.32-0.55,0.32c-0.22,0-0.4-0.1-0.55-0.31
	c-0.15-0.21-0.22-0.63-0.22-1.26C34.53,7.93,34.61,7.49,34.78,7.26L34.78,7.26L34.78,7.26z"/>
<path class="st5" d="M37.38,10.12c0.21,0.27,0.5,0.4,0.87,0.4c0.28,0,0.51-0.08,0.7-0.23c0.18-0.15,0.32-0.37,0.42-0.64
	c0.09-0.28,0.14-0.64,0.14-1.09c0-0.38-0.03-0.68-0.09-0.91c-0.06-0.22-0.14-0.42-0.24-0.57c-0.1-0.16-0.23-0.28-0.39-0.36
	S38.45,6.6,38.25,6.6c-0.28,0-0.51,0.08-0.7,0.23c-0.18,0.15-0.32,0.36-0.42,0.64C37.04,7.74,37,8.1,37,8.56
	C37,9.28,37.12,9.8,37.38,10.12L37.38,10.12L37.38,10.12z M37.73,7.26c0.13-0.18,0.3-0.28,0.52-0.28s0.4,0.1,0.55,0.31
	c0.15,0.21,0.22,0.63,0.22,1.26S38.95,9.6,38.8,9.81s-0.33,0.32-0.55,0.32c-0.22,0-0.4-0.1-0.55-0.31
	c-0.15-0.21-0.22-0.63-0.22-1.26S37.56,7.49,37.73,7.26L37.73,7.26L37.73,7.26z M40.39,10.12c0.21,0.27,0.5,0.4,0.87,0.4
	c0.28,0,0.51-0.08,0.7-0.23c0.18-0.15,0.32-0.37,0.42-0.64c0.09-0.28,0.14-0.64,0.14-1.09c0-0.38-0.03-0.68-0.09-0.91
	c-0.06-0.22-0.14-0.42-0.24-0.57c-0.1-0.16-0.23-0.28-0.39-0.36S41.46,6.6,41.26,6.6c-0.28,0-0.51,0.08-0.7,0.23
	c-0.18,0.15-0.32,0.36-0.42,0.64C40.05,7.75,40,8.11,40,8.57C40.01,9.28,40.14,9.8,40.39,10.12L40.39,10.12L40.39,10.12z
	 M40.74,7.26c0.13-0.18,0.3-0.28,0.52-0.28s0.4,0.1,0.55,0.31c0.15,0.21,0.22,0.63,0.22,1.26s-0.07,1.05-0.22,1.26
	s-0.33,0.32-0.55,0.32c-0.22,0-0.4-0.1-0.55-0.31c-0.15-0.21-0.22-0.63-0.22-1.26C40.5,7.93,40.58,7.49,40.74,7.26L40.74,7.26
	L40.74,7.26z M43.41,10.12c0.21,0.27,0.5,0.4,0.87,0.4c0.28,0,0.51-0.08,0.7-0.23c0.18-0.15,0.32-0.37,0.42-0.64
	c0.09-0.28,0.14-0.64,0.14-1.09c0-0.38-0.03-0.68-0.09-0.91c-0.06-0.22-0.14-0.42-0.24-0.57c-0.1-0.16-0.23-0.28-0.39-0.36
	S44.48,6.6,44.28,6.6c-0.28,0-0.51,0.08-0.7,0.23c-0.18,0.15-0.32,0.36-0.42,0.64c-0.09,0.28-0.14,0.64-0.14,1.1
	C43.03,9.28,43.16,9.8,43.41,10.12L43.41,10.12L43.41,10.12z M43.76,7.26c0.13-0.18,0.3-0.28,0.52-0.28s0.4,0.1,0.55,0.31
	c0.15,0.21,0.22,0.63,0.22,1.26s-0.07,1.05-0.22,1.26s-0.33,0.32-0.55,0.32c-0.22,0-0.4-0.1-0.55-0.31
	c-0.15-0.21-0.22-0.63-0.22-1.26C43.52,7.93,43.6,7.49,43.76,7.26L43.76,7.26L43.76,7.26z"/>
<path class="st5" d="M91.19,137.65l0.42-1.17h1.61l0.45,1.17h0.58l-1.58-3.85h-0.55l-1.48,3.85H91.19L91.19,137.65z M92.18,134.94
	c0.09-0.24,0.16-0.49,0.21-0.74c0.06,0.21,0.15,0.47,0.27,0.8l0.4,1.07h-1.3L92.18,134.94L92.18,134.94z M95.09,137.65v-1.52
	c0-0.36,0.07-0.6,0.22-0.73c0.15-0.13,0.32-0.19,0.52-0.19c0.13,0,0.24,0.03,0.33,0.09c0.09,0.06,0.16,0.13,0.2,0.23
	c0.04,0.1,0.06,0.24,0.06,0.43v1.7h0.47v-1.71c0-0.22-0.01-0.37-0.03-0.46c-0.03-0.13-0.08-0.25-0.15-0.35s-0.18-0.18-0.32-0.24
	c-0.14-0.06-0.3-0.09-0.46-0.09c-0.39,0-0.68,0.15-0.89,0.46v-0.4h-0.43v2.79L95.09,137.65L95.09,137.65z"/>
<path class="st5" d="M97.92,138.79c0.15,0,0.28-0.04,0.39-0.11s0.2-0.19,0.29-0.34c0.06-0.12,0.15-0.33,0.27-0.63l1.06-2.84h-0.47
	l-0.6,1.63c-0.08,0.21-0.14,0.42-0.19,0.64c-0.06-0.23-0.13-0.44-0.2-0.65l-0.58-1.61h-0.51l1.06,2.79
	c-0.02,0.05-0.03,0.09-0.04,0.12c-0.07,0.19-0.11,0.3-0.14,0.35c-0.04,0.06-0.09,0.11-0.15,0.15c-0.06,0.04-0.15,0.05-0.25,0.05
	c-0.08,0-0.17-0.01-0.27-0.04l0.05,0.44C97.73,138.77,97.83,138.79,97.92,138.79L97.92,138.79L97.92,138.79z M179.45,137.65v-3.28
	l1.11,3.28h0.46l1.12-3.22v3.22h0.49v-3.85h-0.69l-0.92,2.68c-0.09,0.27-0.16,0.48-0.2,0.62c-0.04-0.13-0.1-0.32-0.18-0.57
	l-0.91-2.73h-0.77v3.85L179.45,137.65L179.45,137.65z"/>
<path class="st5" d="M185.32,137.65h0.49c-0.06-0.11-0.1-0.22-0.12-0.33c-0.02-0.12-0.03-0.39-0.03-0.83v-0.63
	c0-0.21-0.01-0.36-0.02-0.44c-0.03-0.13-0.08-0.24-0.15-0.32c-0.07-0.08-0.18-0.16-0.33-0.21c-0.15-0.06-0.34-0.08-0.58-0.08
	s-0.45,0.03-0.63,0.1c-0.18,0.07-0.32,0.16-0.42,0.28c-0.1,0.12-0.17,0.28-0.21,0.48l0.46,0.06c0.05-0.2,0.13-0.34,0.23-0.41
	c0.11-0.08,0.27-0.12,0.49-0.12c0.24,0,0.42,0.05,0.54,0.16c0.09,0.08,0.13,0.21,0.13,0.41c0,0.02,0,0.06,0,0.12
	c-0.18,0.06-0.46,0.12-0.84,0.16c-0.19,0.02-0.33,0.05-0.42,0.07c-0.13,0.04-0.24,0.09-0.34,0.15c-0.1,0.07-0.18,0.16-0.24,0.27
	c-0.06,0.11-0.09,0.24-0.09,0.37c0,0.23,0.08,0.42,0.25,0.57c0.16,0.15,0.4,0.22,0.71,0.22c0.19,0,0.36-0.03,0.52-0.09
	s0.33-0.17,0.51-0.32C185.24,137.44,185.27,137.56,185.32,137.65L185.32,137.65L185.32,137.65z M185.19,136.43
	c0,0.21-0.03,0.37-0.08,0.47c-0.07,0.14-0.17,0.25-0.31,0.33s-0.3,0.12-0.49,0.12c-0.18,0-0.32-0.04-0.42-0.13
	c-0.1-0.08-0.14-0.19-0.14-0.32c0-0.08,0.02-0.16,0.07-0.22c0.04-0.07,0.11-0.12,0.19-0.15s0.22-0.07,0.41-0.09
	c0.34-0.05,0.6-0.11,0.77-0.18L185.19,136.43L185.19,136.43z M186.6,137.49c0.19,0.15,0.47,0.23,0.83,0.23
	c0.22,0,0.41-0.04,0.59-0.11c0.17-0.08,0.31-0.18,0.4-0.32s0.14-0.29,0.14-0.44c0-0.16-0.04-0.3-0.11-0.4
	c-0.08-0.11-0.18-0.19-0.31-0.25s-0.37-0.13-0.7-0.22c-0.23-0.06-0.37-0.1-0.42-0.12c-0.08-0.03-0.14-0.08-0.18-0.13
	s-0.06-0.1-0.06-0.17c0-0.1,0.05-0.18,0.14-0.25s0.25-0.11,0.46-0.11c0.18,0,0.33,0.04,0.43,0.12c0.1,0.08,0.16,0.19,0.18,0.34
	l0.46-0.06c-0.03-0.18-0.08-0.32-0.16-0.43c-0.08-0.11-0.2-0.19-0.37-0.26c-0.17-0.06-0.36-0.09-0.58-0.09
	c-0.15,0-0.28,0.02-0.41,0.06s-0.23,0.08-0.3,0.14c-0.1,0.07-0.18,0.16-0.23,0.26c-0.06,0.11-0.09,0.22-0.09,0.35
	c0,0.14,0.03,0.26,0.1,0.37s0.17,0.2,0.3,0.27c0.13,0.06,0.37,0.14,0.72,0.23c0.26,0.06,0.42,0.12,0.48,0.16
	c0.09,0.06,0.14,0.15,0.14,0.25c0,0.12-0.05,0.22-0.16,0.31s-0.27,0.13-0.48,0.13c-0.22,0-0.38-0.05-0.5-0.15
	c-0.12-0.1-0.19-0.24-0.22-0.43l-0.47,0.07C186.29,137.12,186.41,137.34,186.6,137.49L186.6,137.49z"/>
<polygon class="st5" points="189.63,137.65 189.63,136.55 189.96,136.23 190.88,137.65 191.46,137.65 190.29,135.9 191.36,134.87 
	190.75,134.87 189.63,136 189.63,133.8 189.15,133.8 189.15,137.65 "/>
<path class="st5" d="M19.57,114.18h-3.85v0.51h3.85V114.18L19.57,114.18z M19.17,112.51c0,0.07-0.01,0.12-0.03,0.16
	s-0.05,0.06-0.09,0.08c-0.04,0.02-0.13,0.02-0.26,0.02h-1.63v-0.48h-0.37v0.48h-0.97l0.28,0.47h0.69v0.35h0.37v-0.35h1.6
	c0.28,0,0.47-0.02,0.56-0.06s0.16-0.11,0.21-0.2s0.08-0.23,0.08-0.4c0-0.11-0.01-0.22-0.04-0.36l-0.42,0.07
	C19.16,112.38,19.17,112.45,19.17,112.51L19.17,112.51L19.17,112.51z M19.11,110.21c0.09,0.12,0.14,0.27,0.14,0.44
	c0,0.23-0.08,0.43-0.24,0.58c-0.16,0.16-0.4,0.24-0.7,0.26v-2.08c-0.06,0-0.1,0-0.13,0c-0.46,0-0.82,0.12-1.07,0.35
	c-0.25,0.24-0.38,0.54-0.38,0.91c0,0.39,0.13,0.7,0.39,0.94c0.26,0.24,0.62,0.36,1.09,0.36c0.45,0,0.81-0.12,1.06-0.36
	s0.38-0.56,0.38-0.97c0-0.32-0.08-0.59-0.24-0.8c-0.16-0.21-0.38-0.35-0.66-0.43l-0.06,0.49C18.88,109.99,19.02,110.09,19.11,110.21
	L19.11,110.21z M17.33,111.22c-0.15-0.15-0.22-0.33-0.22-0.55c0-0.24,0.09-0.43,0.27-0.59c0.12-0.1,0.29-0.16,0.53-0.18v1.56
	C17.67,111.45,17.48,111.37,17.33,111.22L17.33,111.22z M19.57,108.36h-1.46c-0.2,0-0.38-0.03-0.55-0.08
	c-0.11-0.03-0.2-0.09-0.26-0.18c-0.06-0.08-0.09-0.17-0.09-0.28c0-0.12,0.03-0.23,0.1-0.35l-0.44-0.16
	c-0.1,0.16-0.15,0.33-0.15,0.49c0,0.11,0.03,0.21,0.09,0.3c0.06,0.09,0.19,0.19,0.39,0.3h-0.42v0.43h2.79V108.36L19.57,108.36z
	 M19.57,105.11v-0.49c-0.11,0.06-0.22,0.1-0.33,0.12c-0.12,0.02-0.39,0.03-0.83,0.03h-0.63c-0.21,0-0.36,0.01-0.44,0.02
	c-0.13,0.03-0.24,0.08-0.32,0.15s-0.16,0.18-0.21,0.33c-0.06,0.15-0.08,0.34-0.08,0.58c0,0.24,0.03,0.45,0.1,0.63
	s0.16,0.32,0.28,0.42s0.28,0.17,0.48,0.21l0.06-0.46c-0.2-0.05-0.34-0.13-0.41-0.23c-0.08-0.11-0.12-0.27-0.12-0.49
	c0-0.24,0.05-0.42,0.16-0.54c0.08-0.09,0.21-0.13,0.41-0.13c0.02,0,0.06,0,0.12,0c0.06,0.18,0.12,0.46,0.16,0.84
	c0.02,0.19,0.05,0.33,0.07,0.42c0.04,0.13,0.09,0.24,0.15,0.34c0.07,0.1,0.16,0.18,0.27,0.24s0.24,0.09,0.37,0.09
	c0.23,0,0.42-0.08,0.57-0.25c0.15-0.16,0.22-0.4,0.22-0.71c0-0.19-0.03-0.36-0.09-0.52c-0.06-0.16-0.17-0.33-0.32-0.51
	C19.36,105.19,19.48,105.16,19.57,105.11L19.57,105.11L19.57,105.11z M18.35,105.24c0.21,0,0.37,0.03,0.47,0.08
	c0.14,0.07,0.25,0.17,0.33,0.31s0.12,0.3,0.12,0.49c0,0.18-0.04,0.32-0.13,0.42c-0.08,0.1-0.19,0.14-0.32,0.14
	c-0.08,0-0.16-0.02-0.22-0.07c-0.07-0.04-0.12-0.11-0.15-0.19c-0.03-0.08-0.07-0.22-0.09-0.41c-0.05-0.34-0.11-0.6-0.18-0.77
	L18.35,105.24L18.35,105.24z M19.17,103.2c0,0.07-0.01,0.12-0.03,0.16s-0.05,0.06-0.09,0.08c-0.04,0.02-0.13,0.02-0.26,0.02h-1.63
	v-0.48h-0.37v0.48h-0.97l0.28,0.47h0.69v0.35h0.37v-0.35h1.6c0.28,0,0.47-0.02,0.56-0.06s0.16-0.11,0.21-0.2s0.08-0.23,0.08-0.4
	c0-0.11-0.01-0.22-0.04-0.36l-0.42,0.07C19.16,103.08,19.17,103.15,19.17,103.2L19.17,103.2L19.17,103.2z M16.27,102.04h-0.54v0.47
	h0.54V102.04L16.27,102.04z M19.57,102.04h-2.79v0.47h2.79V102.04L19.57,102.04z M19.26,101.13c0.25-0.24,0.38-0.56,0.38-0.95
	c0-0.24-0.06-0.47-0.17-0.67c-0.11-0.21-0.27-0.36-0.48-0.47s-0.49-0.16-0.85-0.16c-0.44,0-0.79,0.12-1.04,0.36
	s-0.38,0.56-0.38,0.94c0,0.34,0.1,0.64,0.31,0.88c0.25,0.29,0.63,0.43,1.15,0.43C18.65,101.49,19.01,101.37,19.26,101.13
	L19.26,101.13z M17.38,100.77c-0.18-0.16-0.27-0.35-0.27-0.59c0-0.23,0.09-0.43,0.27-0.58c0.18-0.16,0.44-0.23,0.78-0.23
	c0.37,0,0.64,0.08,0.82,0.23c0.18,0.16,0.27,0.35,0.27,0.59s-0.09,0.43-0.27,0.59c-0.18,0.16-0.44,0.23-0.8,0.23
	C17.82,101,17.56,100.93,17.38,100.77L17.38,100.77z M19.57,97.84h-1.52c-0.36,0-0.6-0.07-0.73-0.22s-0.19-0.32-0.19-0.52
	c0-0.13,0.03-0.24,0.09-0.33c0.06-0.09,0.13-0.16,0.23-0.2c0.1-0.04,0.24-0.06,0.43-0.06h1.7v-0.47h-1.71
	c-0.22,0-0.37,0.01-0.46,0.03c-0.13,0.03-0.25,0.08-0.35,0.15s-0.18,0.18-0.24,0.32s-0.09,0.3-0.09,0.46c0,0.39,0.15,0.68,0.46,0.89
	h-0.4v0.43h2.79L19.57,97.84L19.57,97.84z M19.41,95.14c0.15-0.19,0.23-0.47,0.23-0.83c0-0.22-0.04-0.41-0.11-0.59
	c-0.08-0.17-0.18-0.31-0.32-0.4c-0.14-0.09-0.29-0.14-0.44-0.14c-0.16,0-0.3,0.04-0.4,0.11c-0.11,0.08-0.19,0.18-0.25,0.31
	s-0.13,0.37-0.22,0.7c-0.06,0.23-0.1,0.37-0.12,0.42c-0.03,0.08-0.08,0.14-0.13,0.18s-0.1,0.06-0.17,0.06
	c-0.1,0-0.18-0.05-0.25-0.14s-0.11-0.25-0.11-0.46c0-0.18,0.04-0.33,0.12-0.43s0.19-0.16,0.34-0.18l-0.06-0.46
	c-0.18,0.03-0.32,0.08-0.43,0.16s-0.19,0.2-0.26,0.37c-0.06,0.17-0.09,0.36-0.09,0.58c0,0.15,0.02,0.28,0.06,0.41
	c0.04,0.13,0.08,0.23,0.14,0.3c0.07,0.1,0.16,0.18,0.26,0.23c0.11,0.06,0.22,0.09,0.35,0.09c0.14,0,0.26-0.03,0.37-0.1
	s0.2-0.17,0.27-0.3c0.06-0.13,0.14-0.37,0.23-0.72c0.06-0.26,0.12-0.42,0.16-0.48c0.06-0.09,0.15-0.14,0.25-0.14
	c0.12,0,0.22,0.05,0.31,0.16s0.13,0.27,0.13,0.48c0,0.22-0.05,0.38-0.15,0.5s-0.24,0.19-0.43,0.22l0.07,0.47
	C19.04,95.45,19.26,95.33,19.41,95.14L19.41,95.14z M20.64,90.64h-1.36c0.1-0.08,0.19-0.18,0.25-0.31c0.07-0.13,0.1-0.27,0.1-0.42
	c0-0.22-0.06-0.42-0.18-0.62c-0.12-0.2-0.3-0.34-0.53-0.45c-0.23-0.1-0.49-0.15-0.77-0.15c-0.27,0-0.51,0.05-0.73,0.14
	s-0.4,0.23-0.52,0.41s-0.18,0.39-0.18,0.63c0,0.18,0.04,0.34,0.11,0.46c0.07,0.13,0.18,0.24,0.32,0.34h-0.36v0.43h3.86L20.64,90.64
	L20.64,90.64z M17.38,90.45c-0.19-0.15-0.28-0.33-0.28-0.53s0.09-0.38,0.27-0.52c0.18-0.15,0.44-0.22,0.8-0.22
	c0.37,0,0.65,0.07,0.83,0.22s0.27,0.33,0.27,0.54s-0.09,0.38-0.26,0.53s-0.44,0.22-0.8,0.22C17.84,90.68,17.56,90.6,17.38,90.45
	L17.38,90.45z M19.11,86.49c0.09,0.12,0.14,0.27,0.14,0.44c0,0.23-0.08,0.43-0.24,0.58c-0.16,0.16-0.4,0.24-0.7,0.26V85.7
	c-0.06,0-0.1,0-0.13,0c-0.46,0-0.82,0.12-1.07,0.35c-0.25,0.24-0.38,0.54-0.38,0.91c0,0.39,0.13,0.7,0.39,0.94
	c0.26,0.24,0.62,0.36,1.09,0.36c0.45,0,0.81-0.12,1.06-0.36s0.38-0.56,0.38-0.97c0-0.32-0.08-0.59-0.24-0.8
	c-0.16-0.21-0.38-0.35-0.66-0.43l-0.06,0.49C18.88,86.27,19.02,86.37,19.11,86.49L19.11,86.49z M17.33,87.5
	c-0.15-0.15-0.22-0.33-0.22-0.55c0-0.24,0.09-0.43,0.27-0.59c0.12-0.1,0.29-0.16,0.53-0.18v1.56C17.67,87.73,17.48,87.65,17.33,87.5
	L17.33,87.5z M19.57,84.64h-1.46c-0.2,0-0.38-0.03-0.55-0.08c-0.11-0.03-0.2-0.09-0.26-0.18c-0.06-0.08-0.09-0.17-0.09-0.28
	c0-0.12,0.03-0.23,0.1-0.35l-0.44-0.16c-0.1,0.16-0.15,0.33-0.15,0.49c0,0.11,0.03,0.21,0.09,0.3c0.06,0.09,0.19,0.19,0.39,0.3
	h-0.42v0.43h2.79V84.64L19.57,84.64z M19.41,81.63c0.15-0.19,0.23-0.47,0.23-0.83c0-0.22-0.04-0.41-0.11-0.59
	c-0.08-0.17-0.18-0.31-0.32-0.4c-0.14-0.09-0.29-0.14-0.44-0.14c-0.16,0-0.3,0.04-0.4,0.11c-0.11,0.08-0.19,0.18-0.25,0.31
	s-0.13,0.37-0.22,0.7c-0.06,0.23-0.1,0.37-0.12,0.42c-0.03,0.08-0.08,0.14-0.13,0.18s-0.1,0.06-0.17,0.06
	c-0.1,0-0.18-0.05-0.25-0.14s-0.11-0.25-0.11-0.46c0-0.18,0.04-0.33,0.12-0.43s0.19-0.16,0.34-0.18l-0.06-0.46
	c-0.18,0.03-0.32,0.08-0.43,0.16s-0.19,0.2-0.26,0.37c-0.06,0.17-0.09,0.36-0.09,0.58c0,0.15,0.02,0.28,0.06,0.41
	c0.04,0.13,0.08,0.23,0.14,0.3c0.07,0.1,0.16,0.18,0.26,0.23c0.11,0.06,0.22,0.09,0.35,0.09c0.14,0,0.26-0.03,0.37-0.1
	s0.2-0.17,0.27-0.3c0.06-0.13,0.14-0.37,0.23-0.72c0.06-0.26,0.12-0.42,0.16-0.48c0.06-0.09,0.15-0.14,0.25-0.14
	c0.12,0,0.22,0.05,0.31,0.16s0.13,0.27,0.13,0.48c0,0.22-0.05,0.38-0.15,0.5s-0.24,0.19-0.43,0.22l0.07,0.47
	C19.04,81.94,19.26,81.82,19.41,81.63L19.41,81.63z M19.11,77.48c0.09,0.12,0.14,0.27,0.14,0.44c0,0.23-0.08,0.43-0.24,0.58
	c-0.16,0.16-0.4,0.24-0.7,0.26v-2.08c-0.06,0-0.1,0-0.13,0c-0.46,0-0.82,0.12-1.07,0.35c-0.25,0.24-0.38,0.54-0.38,0.91
	c0,0.39,0.13,0.7,0.39,0.94c0.26,0.24,0.62,0.36,1.09,0.36c0.45,0,0.81-0.12,1.06-0.36s0.38-0.56,0.38-0.97
	c0-0.32-0.08-0.59-0.24-0.8c-0.16-0.21-0.38-0.35-0.66-0.43l-0.06,0.49C18.88,77.26,19.02,77.36,19.11,77.48L19.11,77.48z
	 M17.33,78.5c-0.15-0.15-0.22-0.33-0.22-0.55c0-0.24,0.09-0.43,0.27-0.59c0.12-0.1,0.29-0.16,0.53-0.18v1.56
	C17.67,78.73,17.48,78.65,17.33,78.5L17.33,78.5z M19.08,74.52c0.11,0.12,0.17,0.28,0.17,0.46c0,0.23-0.08,0.42-0.25,0.56
	s-0.44,0.22-0.82,0.22c-0.37,0-0.64-0.07-0.81-0.22s-0.26-0.34-0.26-0.58c0-0.16,0.05-0.29,0.14-0.4s0.24-0.19,0.42-0.23l-0.07-0.46
	c-0.28,0.05-0.5,0.18-0.65,0.37s-0.23,0.44-0.23,0.74c0,0.24,0.06,0.46,0.17,0.67c0.11,0.2,0.28,0.36,0.51,0.46s0.49,0.15,0.79,0.15
	c0.47,0,0.82-0.12,1.07-0.35c0.25-0.23,0.37-0.54,0.37-0.92c0-0.3-0.09-0.56-0.27-0.77s-0.43-0.34-0.75-0.39l-0.06,0.46
	C18.79,74.31,18.97,74.39,19.08,74.52L19.08,74.52z M19.26,73.22c0.25-0.24,0.38-0.56,0.38-0.95c0-0.24-0.06-0.47-0.17-0.67
	c-0.11-0.21-0.27-0.36-0.48-0.47s-0.49-0.16-0.85-0.16c-0.44,0-0.79,0.12-1.04,0.36s-0.38,0.56-0.38,0.94c0,0.34,0.1,0.64,0.31,0.88
	c0.25,0.29,0.63,0.43,1.15,0.43C18.65,73.58,19.01,73.46,19.26,73.22L19.26,73.22z M17.38,72.86c-0.18-0.16-0.27-0.35-0.27-0.59
	c0-0.23,0.09-0.43,0.27-0.58c0.18-0.16,0.44-0.23,0.78-0.23c0.37,0,0.64,0.08,0.82,0.23c0.18,0.16,0.27,0.35,0.27,0.59
	s-0.09,0.43-0.27,0.59c-0.18,0.16-0.44,0.23-0.8,0.23C17.82,73.09,17.56,73.01,17.38,72.86L17.38,72.86z M19.57,69.93h-1.52
	c-0.36,0-0.6-0.07-0.73-0.22s-0.19-0.32-0.19-0.52c0-0.13,0.03-0.24,0.09-0.33c0.06-0.09,0.13-0.16,0.23-0.2
	c0.1-0.04,0.24-0.06,0.43-0.06h1.7v-0.47h-1.71c-0.22,0-0.37,0.01-0.46,0.03c-0.13,0.03-0.25,0.08-0.35,0.15s-0.18,0.18-0.24,0.32
	s-0.09,0.3-0.09,0.46c0,0.39,0.15,0.68,0.46,0.89h-0.4v0.43h2.79L19.57,69.93L19.57,69.93z M19.57,65.15h-3.85v0.47h1.38
	c-0.11,0.08-0.21,0.19-0.28,0.32s-0.11,0.28-0.11,0.45c0,0.23,0.06,0.44,0.18,0.62c0.12,0.19,0.29,0.32,0.52,0.42
	c0.23,0.09,0.48,0.14,0.76,0.14c0.29,0,0.54-0.05,0.76-0.15s0.39-0.25,0.51-0.43c0.12-0.19,0.18-0.39,0.18-0.61
	c0-0.34-0.14-0.6-0.41-0.78h0.35v-0.45H19.57z M17.37,66.87c-0.17-0.14-0.26-0.32-0.26-0.53c0-0.22,0.09-0.4,0.27-0.54
	s0.46-0.22,0.84-0.22c0.35,0,0.6,0.07,0.77,0.22c0.17,0.14,0.25,0.32,0.25,0.53c0,0.2-0.09,0.38-0.27,0.53s-0.44,0.23-0.8,0.23
	C17.81,67.08,17.54,67.01,17.37,66.87L17.37,66.87z M20.71,61.65c-0.84,0.52-1.68,0.78-2.52,0.78c-0.33,0-0.66-0.04-0.99-0.11
	c-0.26-0.06-0.51-0.15-0.76-0.25c-0.16-0.07-0.42-0.21-0.78-0.42v0.34c0.44,0.33,0.88,0.57,1.32,0.73c0.38,0.13,0.78,0.2,1.2,0.2
	c0.47,0,0.93-0.09,1.37-0.27s0.83-0.4,1.16-0.66L20.71,61.65L20.71,61.65z M19.57,60.62h-1.53c-0.22,0-0.39-0.03-0.51-0.08
	c-0.12-0.05-0.22-0.14-0.3-0.26c-0.07-0.12-0.11-0.26-0.11-0.4c0-0.19,0.05-0.33,0.16-0.43s0.28-0.15,0.52-0.15h1.77v-0.47H17.8
	c-0.27,0-0.48,0.03-0.62,0.1c-0.14,0.07-0.26,0.17-0.34,0.33c-0.08,0.15-0.12,0.33-0.12,0.54c0,0.34,0.13,0.61,0.38,0.83h-1.38v0.47
	h3.85L19.57,60.62L19.57,60.62z M16.27,57.62h-0.54v0.47h0.54V57.62L16.27,57.62z M19.57,57.62h-2.79v0.47h2.79V57.62L19.57,57.62z
	 M20.48,56.68c0.15-0.2,0.22-0.47,0.22-0.81c0-0.28-0.05-0.52-0.16-0.71s-0.25-0.33-0.43-0.42c-0.18-0.09-0.49-0.13-0.92-0.13h-2.41
	v0.44h0.34c-0.27,0.21-0.4,0.48-0.4,0.81c0,0.25,0.06,0.46,0.18,0.64s0.3,0.32,0.52,0.42c0.22,0.1,0.47,0.14,0.74,0.14
	c0.39,0,0.72-0.11,0.99-0.32c0.28-0.21,0.41-0.51,0.41-0.89c0-0.31-0.12-0.57-0.36-0.77c0.31,0,0.51,0.01,0.61,0.03
	c0.16,0.04,0.28,0.12,0.37,0.24c0.09,0.12,0.13,0.29,0.13,0.51c0,0.2-0.04,0.36-0.13,0.48c-0.06,0.09-0.17,0.14-0.31,0.16
	l-0.07,0.46C20.11,56.98,20.33,56.88,20.48,56.68L20.48,56.68z M17.37,56.36c-0.17-0.15-0.26-0.33-0.26-0.54s0.09-0.4,0.26-0.55
	c0.17-0.15,0.43-0.23,0.77-0.23c0.36,0,0.62,0.07,0.79,0.22s0.25,0.33,0.25,0.55c0,0.22-0.08,0.4-0.25,0.55
	c-0.17,0.15-0.43,0.22-0.8,0.22C17.8,56.58,17.54,56.51,17.37,56.36L17.37,56.36z M19.57,53.41h-1.53c-0.22,0-0.39-0.03-0.51-0.08
	c-0.12-0.05-0.22-0.14-0.3-0.26c-0.07-0.12-0.11-0.26-0.11-0.4c0-0.19,0.05-0.33,0.16-0.43s0.28-0.15,0.52-0.15h1.77v-0.47H17.8
	c-0.27,0-0.48,0.03-0.62,0.1c-0.14,0.07-0.26,0.17-0.34,0.33c-0.08,0.15-0.12,0.33-0.12,0.54c0,0.34,0.13,0.61,0.38,0.83h-1.38v0.47
	h3.85L19.57,53.41L19.57,53.41z M19.11,49.27c0.09,0.12,0.14,0.27,0.14,0.44c0,0.23-0.08,0.43-0.24,0.58
	c-0.16,0.16-0.4,0.24-0.7,0.26v-2.08c-0.06,0-0.1,0-0.13,0c-0.46,0-0.82,0.12-1.07,0.35c-0.25,0.24-0.38,0.54-0.38,0.91
	c0,0.39,0.13,0.7,0.39,0.94c0.26,0.24,0.62,0.36,1.09,0.36c0.45,0,0.81-0.12,1.06-0.36s0.38-0.56,0.38-0.97
	c0-0.32-0.08-0.59-0.24-0.8s-0.38-0.35-0.66-0.43l-0.06,0.49C18.88,49.05,19.02,49.14,19.11,49.27L19.11,49.27z M17.33,50.28
	c-0.15-0.15-0.22-0.33-0.22-0.55c0-0.24,0.09-0.43,0.27-0.59c0.12-0.1,0.29-0.16,0.53-0.18v1.56
	C17.67,50.51,17.48,50.43,17.33,50.28L17.33,50.28z M19.57,47.42h-1.46c-0.2,0-0.38-0.03-0.55-0.08c-0.11-0.03-0.2-0.09-0.26-0.18
	c-0.06-0.08-0.09-0.17-0.09-0.28c0-0.12,0.03-0.23,0.1-0.35l-0.44-0.16c-0.1,0.16-0.15,0.33-0.15,0.49c0,0.11,0.03,0.21,0.09,0.3
	s0.19,0.19,0.39,0.3h-0.42v0.43h2.79V47.42L19.57,47.42z M16.27,44.1h-0.54v0.47h0.54V44.1L16.27,44.1z M19.57,44.1h-2.79v0.47h2.79
	V44.1L19.57,44.1z M19.41,43.2c0.15-0.19,0.23-0.47,0.23-0.83c0-0.22-0.04-0.41-0.11-0.59c-0.08-0.17-0.18-0.31-0.32-0.4
	s-0.29-0.14-0.44-0.14c-0.16,0-0.3,0.04-0.4,0.11c-0.11,0.08-0.19,0.18-0.25,0.31s-0.13,0.37-0.22,0.7
	c-0.06,0.23-0.1,0.37-0.12,0.42c-0.03,0.08-0.08,0.14-0.13,0.18s-0.1,0.06-0.17,0.06c-0.1,0-0.18-0.05-0.25-0.14
	s-0.11-0.25-0.11-0.46c0-0.18,0.04-0.33,0.12-0.43s0.19-0.16,0.34-0.18l-0.06-0.46c-0.18,0.03-0.32,0.08-0.43,0.16
	c-0.11,0.08-0.19,0.2-0.26,0.37c-0.06,0.17-0.09,0.36-0.09,0.58c0,0.15,0.02,0.28,0.06,0.41c0.04,0.13,0.08,0.23,0.14,0.3
	c0.07,0.1,0.16,0.18,0.26,0.23c0.11,0.06,0.22,0.09,0.35,0.09c0.14,0,0.26-0.03,0.37-0.1s0.2-0.17,0.27-0.3
	c0.06-0.13,0.14-0.37,0.23-0.72c0.06-0.26,0.12-0.42,0.16-0.48c0.06-0.09,0.15-0.14,0.25-0.14c0.12,0,0.22,0.05,0.31,0.16
	s0.13,0.27,0.13,0.48c0,0.22-0.05,0.38-0.15,0.5s-0.24,0.19-0.43,0.22l0.07,0.47C19.04,43.51,19.26,43.39,19.41,43.2L19.41,43.2z
	 M19.23,38.73c0.27-0.19,0.41-0.45,0.41-0.77c0-0.33-0.13-0.61-0.39-0.85c-0.26-0.24-0.63-0.35-1.11-0.35
	c-0.2,0-0.39,0.03-0.57,0.08c-0.18,0.06-0.33,0.13-0.45,0.23c-0.13,0.1-0.22,0.22-0.29,0.38c-0.07,0.15-0.1,0.32-0.1,0.49
	c0,0.31,0.13,0.56,0.38,0.76h-1.37v0.47h3.85v-0.44L19.23,38.73L19.23,38.73z M17.38,38.51c-0.18-0.15-0.27-0.33-0.27-0.54
	c0-0.2,0.09-0.38,0.26-0.52s0.44-0.22,0.81-0.22c0.36,0,0.62,0.08,0.8,0.23c0.18,0.15,0.27,0.33,0.27,0.54
	c0,0.25-0.12,0.46-0.36,0.6c-0.15,0.09-0.39,0.14-0.72,0.14C17.82,38.74,17.56,38.66,17.38,38.51L17.38,38.51z M19.11,34.55
	c0.09,0.12,0.14,0.27,0.14,0.44c0,0.23-0.08,0.43-0.24,0.58c-0.16,0.16-0.4,0.24-0.7,0.26v-2.08c-0.06,0-0.1,0-0.13,0
	c-0.46,0-0.82,0.12-1.07,0.35c-0.25,0.24-0.38,0.54-0.38,0.91c0,0.39,0.13,0.7,0.39,0.94c0.26,0.24,0.62,0.36,1.09,0.36
	c0.45,0,0.81-0.12,1.06-0.36s0.38-0.56,0.38-0.97c0-0.32-0.08-0.59-0.24-0.8s-0.38-0.35-0.66-0.43l-0.06,0.49
	C18.88,34.33,19.02,34.43,19.11,34.55L19.11,34.55z M17.33,35.56c-0.15-0.15-0.22-0.33-0.22-0.55c0-0.24,0.09-0.43,0.27-0.59
	c0.12-0.1,0.29-0.16,0.53-0.18v1.56C17.67,35.79,17.48,35.71,17.33,35.56L17.33,35.56z M19.17,32.34c0,0.07-0.01,0.12-0.03,0.16
	s-0.05,0.06-0.09,0.08s-0.13,0.02-0.26,0.02h-1.63v-0.48h-0.37v0.48h-0.97l0.28,0.47h0.69v0.35h0.37v-0.35h1.6
	c0.28,0,0.47-0.02,0.56-0.06s0.16-0.11,0.21-0.2s0.08-0.23,0.08-0.4c0-0.11-0.01-0.22-0.04-0.36l-0.42,0.07
	C19.16,32.22,19.17,32.29,19.17,32.34L19.17,32.34L19.17,32.34z M19.17,30.84c0,0.07-0.01,0.12-0.03,0.16
	c-0.02,0.04-0.05,0.06-0.09,0.08s-0.13,0.02-0.26,0.02h-1.63v-0.48h-0.37v0.48h-0.97l0.28,0.47h0.69v0.35h0.37v-0.35h1.6
	c0.28,0,0.47-0.02,0.56-0.06c0.09-0.04,0.16-0.11,0.21-0.2s0.08-0.23,0.08-0.4c0-0.11-0.01-0.22-0.04-0.36l-0.42,0.07
	C19.16,30.72,19.17,30.78,19.17,30.84L19.17,30.84L19.17,30.84z M19.11,28.54c0.09,0.12,0.14,0.27,0.14,0.44
	c0,0.23-0.08,0.43-0.24,0.58c-0.16,0.16-0.4,0.24-0.7,0.26v-2.08c-0.06,0-0.1,0-0.13,0c-0.46,0-0.82,0.12-1.07,0.35
	c-0.25,0.24-0.38,0.54-0.38,0.91c0,0.39,0.13,0.7,0.39,0.94s0.62,0.36,1.09,0.36c0.45,0,0.81-0.12,1.06-0.36s0.38-0.56,0.38-0.97
	c0-0.32-0.08-0.59-0.24-0.8s-0.38-0.35-0.66-0.43l-0.06,0.49C18.88,28.32,19.02,28.42,19.11,28.54L19.11,28.54z M17.33,29.55
	c-0.15-0.15-0.22-0.33-0.22-0.55c0-0.24,0.09-0.43,0.27-0.59c0.12-0.1,0.29-0.16,0.53-0.18v1.56C17.67,29.78,17.48,29.7,17.33,29.55
	L17.33,29.55z M19.57,26.69h-1.46c-0.2,0-0.38-0.03-0.55-0.08c-0.11-0.03-0.2-0.09-0.26-0.18c-0.06-0.08-0.09-0.17-0.09-0.28
	c0-0.12,0.03-0.23,0.1-0.35l-0.44-0.16c-0.1,0.16-0.15,0.33-0.15,0.49c0,0.11,0.03,0.21,0.09,0.3s0.19,0.19,0.39,0.3h-0.42v0.43
	h2.79V26.69L19.57,26.69z M19.55,24.38c-0.44-0.18-0.9-0.27-1.37-0.27c-0.42,0-0.82,0.07-1.2,0.2c-0.44,0.16-0.88,0.4-1.32,0.73
	v0.34c0.37-0.21,0.63-0.35,0.79-0.42c0.24-0.11,0.49-0.19,0.76-0.25c0.32-0.08,0.65-0.11,0.98-0.11c0.84,0,1.68,0.26,2.52,0.78
	v-0.34C20.38,24.79,19.99,24.57,19.55,24.38L19.55,24.38z"/>
<rect x="70.68" y="147.6" class="st1" width="2.73" height="2.72"/>
<path class="st5" d="M76.54,150.57v-3.39h1.27v-0.45h-3.05v0.45h1.27v3.39H76.54L76.54,150.57z M78.77,150.57v-1.46
	c0-0.2,0.03-0.38,0.08-0.55c0.03-0.11,0.09-0.2,0.18-0.26c0.08-0.06,0.17-0.09,0.28-0.09c0.12,0,0.23,0.03,0.35,0.1l0.16-0.44
	c-0.16-0.1-0.33-0.15-0.49-0.15c-0.11,0-0.21,0.03-0.3,0.09c-0.09,0.06-0.19,0.19-0.3,0.39v-0.42H78.3v2.79H78.77L78.77,150.57z"/>
<path class="st5" d="M82.32,150.57v-2.79h-0.47v1.49c0,0.24-0.03,0.42-0.08,0.54c-0.05,0.13-0.14,0.22-0.26,0.3
	c-0.12,0.07-0.26,0.11-0.4,0.11s-0.26-0.04-0.36-0.11s-0.16-0.17-0.19-0.29c-0.02-0.09-0.03-0.25-0.03-0.5v-1.55h-0.47v1.73
	c0,0.2,0.01,0.35,0.03,0.44c0.03,0.14,0.08,0.26,0.15,0.35c0.07,0.1,0.17,0.17,0.32,0.24c0.14,0.06,0.3,0.09,0.46,0.09
	c0.37,0,0.67-0.16,0.88-0.47v0.41L82.32,150.57L82.32,150.57z M83.68,150.57v-2.42h0.54v-0.37h-0.54v-0.26
	c0-0.17,0.03-0.28,0.09-0.34s0.16-0.09,0.3-0.09c0.09,0,0.18,0.01,0.28,0.03l0.07-0.41c-0.16-0.03-0.31-0.05-0.44-0.05
	c-0.21,0-0.37,0.04-0.48,0.11c-0.11,0.08-0.19,0.18-0.24,0.3c-0.03,0.09-0.05,0.23-0.05,0.42v0.3h-0.42v0.37h0.42v2.42h0.47V150.57z
	 M85.2,150.57v-2.42h0.54v-0.37H85.2v-0.26c0-0.17,0.03-0.28,0.09-0.34s0.16-0.09,0.3-0.09c0.09,0,0.18,0.01,0.28,0.03l0.07-0.41
	c-0.16-0.03-0.31-0.05-0.44-0.05c-0.21,0-0.37,0.04-0.48,0.11c-0.11,0.08-0.19,0.18-0.24,0.3c-0.03,0.09-0.05,0.23-0.05,0.42v0.3
	h-0.42v0.37h0.42v2.42h0.47V150.57z M86.61,150.57v-3.85h-0.47v3.85H86.61L86.61,150.57z M88.99,150.1
	c-0.12,0.09-0.27,0.14-0.44,0.14c-0.23,0-0.43-0.08-0.58-0.24c-0.16-0.16-0.24-0.4-0.26-0.7h2.08c0-0.06,0-0.1,0-0.13
	c0-0.46-0.12-0.82-0.35-1.07c-0.24-0.25-0.54-0.38-0.91-0.38c-0.39,0-0.7,0.13-0.94,0.39c-0.24,0.26-0.36,0.62-0.36,1.09
	c0,0.45,0.12,0.81,0.36,1.06s0.56,0.38,0.97,0.38c0.32,0,0.59-0.08,0.8-0.24c0.21-0.16,0.35-0.38,0.43-0.66l-0.49-0.06
	C89.21,149.87,89.11,150.01,88.99,150.1L88.99,150.1z M87.97,148.32c0.15-0.15,0.33-0.22,0.55-0.22c0.24,0,0.43,0.09,0.59,0.27
	c0.1,0.12,0.16,0.29,0.18,0.53h-1.56C87.74,148.66,87.83,148.47,87.97,148.32L87.97,148.32z M90.97,150.57v-1.71h0.59
	c0.13,0,0.23,0.01,0.28,0.02c0.08,0.02,0.16,0.05,0.23,0.1c0.08,0.05,0.16,0.13,0.26,0.26c0.1,0.12,0.22,0.3,0.37,0.53l0.51,0.8
	h0.64l-0.67-1.05c-0.13-0.2-0.27-0.38-0.42-0.51c-0.07-0.06-0.17-0.13-0.31-0.19c0.37-0.05,0.64-0.17,0.82-0.36s0.27-0.42,0.27-0.69
	c0-0.21-0.05-0.41-0.16-0.58c-0.11-0.18-0.25-0.3-0.43-0.37c-0.18-0.07-0.44-0.1-0.78-0.1h-1.71v3.85H90.97L90.97,150.57z
	 M90.97,147.14h1.22c0.29,0,0.49,0.06,0.63,0.18c0.13,0.12,0.2,0.27,0.2,0.45c0,0.12-0.03,0.24-0.1,0.35s-0.17,0.18-0.3,0.23
	c-0.13,0.05-0.31,0.07-0.55,0.07h-1.09L90.97,147.14L90.97,147.14z M96.56,150.57v-2.79h-0.47v1.49c0,0.24-0.03,0.42-0.08,0.54
	c-0.05,0.13-0.14,0.22-0.26,0.3c-0.12,0.07-0.26,0.11-0.4,0.11s-0.26-0.04-0.36-0.11s-0.16-0.17-0.19-0.29
	c-0.02-0.09-0.03-0.25-0.03-0.5v-1.55H94.3v1.73c0,0.2,0.01,0.35,0.03,0.44c0.03,0.14,0.08,0.26,0.15,0.35
	c0.07,0.1,0.18,0.17,0.32,0.24c0.14,0.06,0.3,0.09,0.46,0.09c0.37,0,0.67-0.16,0.88-0.47v0.41L96.56,150.57L96.56,150.57z
	 M97.77,150.22c0.19,0.27,0.45,0.41,0.77,0.41c0.33,0,0.61-0.13,0.85-0.39s0.35-0.63,0.35-1.11c0-0.2-0.03-0.39-0.08-0.57
	c-0.06-0.18-0.13-0.33-0.23-0.45c-0.1-0.13-0.22-0.22-0.38-0.29c-0.15-0.07-0.32-0.1-0.49-0.1c-0.31,0-0.56,0.13-0.76,0.38v-1.37
	h-0.47v3.85h0.44L97.77,150.22L97.77,150.22z M97.99,148.37c0.15-0.18,0.33-0.27,0.54-0.27c0.2,0,0.38,0.09,0.52,0.26
	s0.22,0.44,0.22,0.81c0,0.36-0.08,0.62-0.23,0.8c-0.15,0.18-0.33,0.27-0.54,0.27c-0.25,0-0.46-0.12-0.6-0.36
	c-0.09-0.15-0.14-0.39-0.14-0.72C97.76,148.81,97.84,148.55,97.99,148.37L97.99,148.37z"/>
<path class="st5" d="M100.46,151.7c0.15,0,0.28-0.04,0.39-0.11s0.2-0.19,0.29-0.34c0.06-0.12,0.15-0.33,0.27-0.63l1.06-2.84H102
	l-0.6,1.63c-0.08,0.21-0.14,0.42-0.19,0.64c-0.06-0.23-0.13-0.44-0.2-0.65l-0.58-1.61h-0.51l1.06,2.79
	c-0.02,0.05-0.03,0.09-0.04,0.12c-0.07,0.19-0.11,0.3-0.14,0.35c-0.04,0.06-0.09,0.11-0.15,0.15c-0.06,0.03-0.15,0.05-0.25,0.05
	c-0.08,0-0.17-0.01-0.27-0.04l0.05,0.44C100.27,151.68,100.37,151.7,100.46,151.7L100.46,151.7L100.46,151.7z"/>
<rect x="107.73" y="147.6" class="st2" width="2.73" height="2.72"/>
<path class="st5" d="M113.66,150.57v-1.63l1.54-2.22h-0.59l-0.75,1.13c-0.16,0.25-0.3,0.48-0.42,0.68
	c-0.12-0.22-0.25-0.43-0.39-0.65l-0.76-1.16h-0.62l1.48,2.22v1.63H113.66L113.66,150.57z M115.79,150.57l0.42-1.17h1.61l0.45,1.17
	h0.58l-1.58-3.85h-0.55l-1.48,3.85H115.79L115.79,150.57z M116.78,147.86c0.09-0.24,0.16-0.49,0.21-0.74
	c0.06,0.21,0.15,0.47,0.27,0.8l0.4,1.07h-1.3L116.78,147.86L116.78,147.86z M119.8,150.57v-1.71h0.59c0.13,0,0.23,0.01,0.28,0.02
	c0.08,0.02,0.16,0.05,0.23,0.1c0.08,0.05,0.16,0.13,0.26,0.26c0.1,0.12,0.22,0.3,0.37,0.53l0.51,0.8h0.64l-0.67-1.05
	c-0.13-0.2-0.27-0.38-0.42-0.51c-0.07-0.06-0.17-0.13-0.31-0.19c0.37-0.05,0.64-0.17,0.82-0.36s0.27-0.42,0.27-0.69
	c0-0.21-0.05-0.41-0.16-0.58c-0.11-0.18-0.25-0.3-0.43-0.37c-0.18-0.07-0.44-0.1-0.78-0.1h-1.71v3.85H119.8L119.8,150.57z
	 M119.8,147.14h1.22c0.29,0,0.49,0.06,0.63,0.18c0.13,0.12,0.2,0.27,0.2,0.45c0,0.12-0.03,0.24-0.1,0.35s-0.17,0.18-0.3,0.23
	c-0.13,0.05-0.31,0.07-0.55,0.07h-1.09L119.8,147.14L119.8,147.14z"/>
<path class="st5" d="M124.81,150.57l1.51-3.85h-0.52l-1.04,2.8c-0.08,0.21-0.15,0.42-0.21,0.63c-0.05-0.2-0.12-0.41-0.2-0.63l-1-2.8
	h-0.55l1.49,3.85H124.81L124.81,150.57z"/>
<rect x="131.52" y="147.6" class="st3" width="2.72" height="2.72"/>
<path class="st5" d="M136.34,150.57v-3.28l1.11,3.28h0.46l1.12-3.22v3.22h0.49v-3.85h-0.69l-0.92,2.68
	c-0.09,0.27-0.16,0.48-0.2,0.62c-0.04-0.13-0.1-0.32-0.18-0.57l-0.91-2.73h-0.77v3.85L136.34,150.57L136.34,150.57z M140.34,150.34
	c0.18,0.19,0.44,0.29,0.78,0.29c0.23,0,0.43-0.05,0.59-0.14c0.17-0.09,0.29-0.23,0.37-0.4c0.08-0.18,0.12-0.43,0.12-0.75v-2.62
	h-0.51v2.65c0,0.22-0.02,0.38-0.05,0.48c-0.04,0.1-0.1,0.18-0.19,0.24c-0.09,0.06-0.2,0.09-0.33,0.09c-0.17,0-0.31-0.05-0.41-0.16
	s-0.15-0.31-0.17-0.6l-0.46,0.06C140.07,149.86,140.16,150.15,140.34,150.34L140.34,150.34z M143.62,150.57v-3.85h-0.51v3.85H143.62
	L143.62,150.57z M146,150.57v-3.39h1.27v-0.45h-3.05v0.45h1.27v3.39H146L146,150.57z"/>
<rect x="152.58" y="147.6" class="st4" width="2.72" height="2.72"/>
<path class="st5" d="M156.96,150.34c0.18,0.19,0.44,0.29,0.78,0.29c0.23,0,0.43-0.05,0.59-0.14c0.17-0.09,0.29-0.23,0.37-0.4
	c0.08-0.18,0.12-0.43,0.12-0.75v-2.62h-0.51v2.65c0,0.22-0.02,0.38-0.05,0.48c-0.04,0.1-0.1,0.18-0.19,0.24
	c-0.09,0.06-0.2,0.09-0.33,0.09c-0.17,0-0.31-0.05-0.41-0.16s-0.15-0.31-0.17-0.6l-0.46,0.06
	C156.7,149.86,156.78,150.15,156.96,150.34L156.96,150.34z M160.21,150.57v-1.71h0.59c0.13,0,0.23,0.01,0.28,0.02
	c0.08,0.02,0.16,0.05,0.23,0.1c0.08,0.05,0.16,0.13,0.26,0.26c0.1,0.12,0.22,0.3,0.37,0.53l0.51,0.8h0.64l-0.67-1.05
	c-0.13-0.2-0.27-0.38-0.42-0.51c-0.07-0.06-0.17-0.13-0.31-0.19c0.37-0.05,0.64-0.17,0.82-0.36c0.18-0.19,0.27-0.42,0.27-0.69
	c0-0.21-0.05-0.41-0.16-0.58c-0.11-0.18-0.25-0.3-0.43-0.37c-0.18-0.07-0.44-0.1-0.78-0.1h-1.71v3.85H160.21L160.21,150.57z
	 M160.21,147.14h1.22c0.29,0,0.49,0.06,0.63,0.18c0.13,0.12,0.2,0.27,0.2,0.45c0,0.12-0.03,0.24-0.1,0.35s-0.17,0.18-0.3,0.23
	s-0.31,0.07-0.55,0.07h-1.09L160.21,147.14L160.21,147.14z"/>
<path class="st5" d="M165.78,150.57v-2.79h-0.47v1.49c0,0.24-0.03,0.42-0.08,0.54c-0.05,0.13-0.14,0.22-0.26,0.3
	c-0.12,0.07-0.26,0.11-0.4,0.11s-0.26-0.04-0.36-0.11s-0.16-0.17-0.19-0.29c-0.02-0.09-0.03-0.25-0.03-0.5v-1.55h-0.47v1.73
	c0,0.2,0.01,0.35,0.03,0.44c0.03,0.14,0.08,0.26,0.15,0.35c0.07,0.1,0.17,0.17,0.32,0.24c0.14,0.06,0.3,0.09,0.46,0.09
	c0.37,0,0.67-0.16,0.88-0.47v0.41L165.78,150.57L165.78,150.57z M166.91,150.22c0.19,0.27,0.45,0.41,0.77,0.41
	c0.33,0,0.61-0.13,0.85-0.39s0.35-0.63,0.35-1.11c0-0.2-0.03-0.39-0.08-0.57c-0.06-0.18-0.13-0.33-0.23-0.45
	c-0.1-0.13-0.22-0.22-0.38-0.29c-0.15-0.07-0.32-0.1-0.49-0.1c-0.31,0-0.56,0.13-0.76,0.38v-1.37h-0.47v3.85h0.44L166.91,150.22
	L166.91,150.22z M167.13,148.37c0.15-0.18,0.33-0.27,0.54-0.27c0.2,0,0.38,0.09,0.52,0.26s0.22,0.44,0.22,0.81
	c0,0.36-0.08,0.62-0.23,0.8c-0.15,0.18-0.33,0.27-0.54,0.27c-0.25,0-0.46-0.12-0.6-0.36c-0.09-0.15-0.14-0.39-0.14-0.72
	C166.91,148.81,166.98,148.55,167.13,148.37L167.13,148.37z"/>
<path class="st5" d="M169.78,151.7c0.15,0,0.28-0.04,0.39-0.11s0.2-0.19,0.29-0.34c0.06-0.12,0.15-0.33,0.27-0.63l1.06-2.84h-0.47
	l-0.6,1.63c-0.08,0.21-0.14,0.42-0.19,0.64c-0.06-0.23-0.13-0.44-0.2-0.65l-0.58-1.61h-0.51l1.06,2.79
	c-0.02,0.05-0.03,0.09-0.04,0.12c-0.07,0.19-0.11,0.3-0.14,0.35c-0.04,0.06-0.09,0.11-0.15,0.15c-0.06,0.03-0.15,0.05-0.25,0.05
	c-0.08,0-0.17-0.01-0.27-0.04l0.05,0.44C169.59,151.68,169.69,151.7,169.78,151.7L169.78,151.7L169.78,151.7z"/>
</svg>
