<?xml version="1.0" encoding="UTF-8" standalone="no"?>
<!DOCTYPE svg PUBLIC "-//W3C//DTD SVG 1.1//EN"
 "http://www.w3.org/Graphics/SVG/1.1/DTD/svg11.dtd">
<!-- Generated by graphviz version 2.44.1 (20200629.0846)
 -->
<!-- Title: G Pages: 1 -->
<svg width="1032pt" height="961pt"
 viewBox="0.00 0.00 1032.01 961.00" xmlns="http://www.w3.org/2000/svg" xmlns:xlink="http://www.w3.org/1999/xlink">
<g id="graph0" class="graph" transform="scale(1 1) rotate(0) translate(4 957)">
<title>G</title>
<!-- node0 -->
<g id="node1" class="node">
<title>node0</title>
<polygon fill="#e98693" stroke="black" points="290.5,-953 234.5,-953 234.5,-917 290.5,-917 290.5,-953"/>
<text text-anchor="middle" x="262.5" y="-931.3" font-family="Arial" font-size="14.00" fill="#1a1919">0 Start</text>
</g>
<!-- node2092 -->
<g id="node18" class="node">
<title>node2092</title>
<polygon fill="#da2d4f" stroke="black" points="355,-872 242,-872 242,-836 355,-836 355,-872"/>
<text text-anchor="middle" x="298.5" y="-850.3" font-family="Arial" font-size="14.00" fill="#ffffff">2092 Load T(...)</text>
</g>
<!-- node0&#45;&gt;node2092 -->
<g id="edge30" class="edge">
<title>node0&#45;&gt;node2092</title>
<path fill="none" stroke="#da2d4f" stroke-width="2" d="M270.31,-916.86C275.03,-906.51 281.14,-893.1 286.46,-881.41"/>
<polygon fill="#da2d4f" stroke="#da2d4f" stroke-width="2" points="289.74,-882.66 290.7,-872.11 283.37,-879.76 289.74,-882.66"/>
</g>
<!-- node532 -->
<g id="node2" class="node">
<title>node532</title>
<polygon fill="#f9f9f9" stroke="black" points="390.5,-791 308.5,-791 308.5,-755 390.5,-755 390.5,-791"/>
<text text-anchor="middle" x="349.5" y="-769.3" font-family="Arial" font-size="14.00" fill="#1a1919">532 Unbox</text>
</g>
<!-- node794 -->
<g id="node3" class="node">
<title>node794</title>
<polygon fill="#e98693" stroke="black" points="383,-718 316,-718 316,-682 383,-682 383,-718"/>
<text text-anchor="middle" x="349.5" y="-696.3" font-family="Arial" font-size="14.00" fill="#1a1919">794 End</text>
</g>
<!-- node532&#45;&gt;node794 -->
<g id="edge1" class="edge">
<title>node532&#45;&gt;node794</title>
<path fill="none" stroke="#da2d4f" stroke-width="2" d="M349.5,-754.81C349.5,-746.79 349.5,-737.05 349.5,-728.07"/>
<polygon fill="#da2d4f" stroke="#da2d4f" stroke-width="2" points="353,-728.03 349.5,-718.03 346,-728.03 353,-728.03"/>
</g>
<!-- node2077 -->
<g id="node16" class="node">
<title>node2077</title>
<polygon fill="#f9f9f9" stroke="black" points="698.5,-123 640.5,-123 640.5,-87 698.5,-87 698.5,-123"/>
<text text-anchor="middle" x="669.5" y="-101.3" font-family="Arial" font-size="14.00" fill="#1a1919">2077 ϕ</text>
</g>
<!-- node532&#45;&gt;node2077 -->
<g id="edge23" class="edge">
<title>node532&#45;&gt;node2077</title>
<path fill="none" stroke="#3cb4a4" d="M390.7,-770.75C514.46,-766.45 874.5,-749.75 874.5,-701 874.5,-701 874.5,-701 874.5,-191 874.5,-167.38 874.49,-156.31 856.5,-141 834.71,-122.45 756.74,-112.98 708.63,-108.79"/>
<polygon fill="#3cb4a4" stroke="#3cb4a4" points="708.81,-105.29 698.55,-107.95 708.23,-112.27 708.81,-105.29"/>
<text text-anchor="middle" x="902" y="-449.3" font-family="arial" font-size="14.00" fill="#3cb4a4">from 794</text>
</g>
<!-- node2091 -->
<g id="node17" class="node">
<title>node2091</title>
<polygon fill="#f9f9f9" stroke="black" points="195,-384 0,-384 0,-348 195,-348 195,-384"/>
<text text-anchor="middle" x="97.5" y="-362.3" font-family="Arial" font-size="14.00" fill="#1a1919">2091 BoxNode$AllocatingBox</text>
</g>
<!-- node532&#45;&gt;node2091 -->
<g id="edge25" class="edge">
<title>node532&#45;&gt;node2091</title>
<path fill="none" stroke="#3cb4a4" d="M308.35,-769.66C233,-764.25 80.5,-747.55 80.5,-701 80.5,-701 80.5,-701 80.5,-452 80.5,-432.37 84.91,-410.68 89.24,-394.12"/>
<polygon fill="#3cb4a4" stroke="#3cb4a4" points="92.73,-394.63 92.03,-384.06 85.99,-392.76 92.73,-394.63"/>
<text text-anchor="middle" x="97" y="-579.8" font-family="arial" font-size="14.00" fill="#3cb4a4">value</text>
</g>
<!-- node795 -->
<g id="node4" class="node">
<title>node795</title>
<polygon fill="#e98693" stroke="black" points="403,-645 296,-645 296,-609 403,-609 403,-645"/>
<text text-anchor="middle" x="349.5" y="-623.3" font-family="Arial" font-size="14.00" fill="#1a1919">795 LoopBegin</text>
</g>
<!-- node794&#45;&gt;node795 -->
<g id="edge2" class="edge">
<title>node794&#45;&gt;node795</title>
<path fill="none" stroke="#da2d4f" stroke-width="2" d="M349.5,-681.81C349.5,-673.79 349.5,-664.05 349.5,-655.07"/>
<polygon fill="#da2d4f" stroke="#da2d4f" stroke-width="2" points="353,-655.03 349.5,-645.03 346,-655.03 353,-655.03"/>
</g>
<!-- node1012 -->
<g id="node6" class="node">
<title>node1012</title>
<polygon fill="#e98693" stroke="black" points="304.5,-558 246.5,-558 246.5,-522 304.5,-522 304.5,-558"/>
<text text-anchor="middle" x="275.5" y="-536.3" font-family="Arial" font-size="14.00" fill="#1a1919">1012 If</text>
</g>
<!-- node795&#45;&gt;node1012 -->
<g id="edge3" class="edge">
<title>node795&#45;&gt;node1012</title>
<path fill="none" stroke="#da2d4f" stroke-width="2" d="M334.52,-608.8C323.79,-596.47 309.17,-579.68 297.17,-565.89"/>
<polygon fill="#da2d4f" stroke="#da2d4f" stroke-width="2" points="299.66,-563.42 290.45,-558.18 294.38,-568.02 299.66,-563.42"/>
</g>
<!-- node795&#45;&gt;node2077 -->
<g id="edge22" class="edge">
<title>node795&#45;&gt;node2077</title>
<path fill="none" stroke="#343d46" stroke-dasharray="5,2" d="M365.37,-599.92C373.83,-583.59 382.5,-561.78 382.5,-541 382.5,-541 382.5,-541 382.5,-191 382.5,-137.61 567.44,-115.16 640.4,-108.38"/>
<polygon fill="#343d46" stroke="#343d46" points="362.22,-598.39 360.49,-608.85 368.36,-601.75 362.22,-598.39"/>
</g>
<!-- node973 -->
<g id="node5" class="node">
<title>node973</title>
<polygon fill="#3cb4a4" stroke="black" points="240.5,-36 193.75,-18 240.5,0 287.25,-18 240.5,-36"/>
<text text-anchor="middle" x="240.5" y="-14.3" font-family="Arial" font-size="14.00" fill="#1a1919">973 &lt;</text>
</g>
<!-- node973&#45;&gt;node1012 -->
<g id="edge6" class="edge">
<title>node973&#45;&gt;node1012</title>
<path fill="none" stroke="#3cb4a4" d="M240.5,-36.26C240.5,-53.43 240.5,-80.54 240.5,-104 240.5,-454 240.5,-454 240.5,-454 240.5,-474.94 249.7,-496.75 258.66,-513.04"/>
<polygon fill="#3cb4a4" stroke="#3cb4a4" points="255.79,-515.06 263.85,-521.94 261.84,-511.53 255.79,-515.06"/>
<text text-anchor="middle" x="244.5" y="-275.3" font-family="arial" font-size="14.00" fill="#3cb4a4">?</text>
</g>
<!-- node1015 -->
<g id="node7" class="node">
<title>node1015</title>
<polygon fill="#e98693" stroke="black" points="354,-471 269,-471 269,-435 354,-435 354,-471"/>
<text text-anchor="middle" x="311.5" y="-449.3" font-family="Arial" font-size="14.00" fill="#1a1919">1015 Begin</text>
</g>
<!-- node1012&#45;&gt;node1015 -->
<g id="edge8" class="edge">
<title>node1012&#45;&gt;node1015</title>
<path fill="none" stroke="#da2d4f" stroke-width="2" d="M282.79,-521.8C287.81,-509.93 294.59,-493.93 300.3,-480.45"/>
<polygon fill="#da2d4f" stroke="#da2d4f" stroke-width="2" points="303.55,-481.75 304.23,-471.18 297.1,-479.02 303.55,-481.75"/>
<text text-anchor="middle" x="301" y="-492.8" font-family="arial" font-size="14.00" fill="#da2d4f">F</text>
</g>
<!-- node1864 -->
<g id="node12" class="node">
<title>node1864</title>
<polygon fill="#e98693" stroke="black" points="212,-471 109,-471 109,-435 212,-435 212,-471"/>
<text text-anchor="middle" x="160.5" y="-449.3" font-family="Arial" font-size="14.00" fill="#1a1919">1864 LoopExit</text>
</g>
<!-- node1012&#45;&gt;node1864 -->
<g id="edge7" class="edge">
<title>node1012&#45;&gt;node1864</title>
<path fill="none" stroke="#da2d4f" stroke-width="2" d="M246.23,-522.71C236.83,-517.12 226.52,-510.6 217.5,-504 206.71,-496.11 195.51,-486.61 185.92,-478.02"/>
<polygon fill="#da2d4f" stroke="#da2d4f" stroke-width="2" points="188.04,-475.22 178.29,-471.07 183.33,-480.39 188.04,-475.22"/>
<text text-anchor="middle" x="222" y="-492.8" font-family="arial" font-size="14.00" fill="#da2d4f">T</text>
</g>
<!-- node2055 -->
<g id="node15" class="node">
<title>node2055</title>
<polygon fill="#ffa500" stroke="black" points="665,-384 414,-384 414,-348 665,-348 665,-384"/>
<text text-anchor="middle" x="539.5" y="-362.3" font-family="Arial" font-size="14.00" fill="#1a1919">2055 Guard, else TransferToInterpreter</text>
</g>
<!-- node1015&#45;&gt;node2055 -->
<g id="edge9" class="edge">
<title>node1015&#45;&gt;node2055</title>
<path fill="none" stroke="#da2d4f" stroke-width="2" d="M354.12,-436.11C390.79,-422.44 443.96,-402.62 483.96,-387.71"/>
<polygon fill="#da2d4f" stroke="#da2d4f" stroke-width="2" points="485.42,-390.9 493.57,-384.12 482.98,-384.34 485.42,-390.9"/>
</g>
<!-- node1254 -->
<g id="node8" class="node">
<title>node1254</title>
<polygon fill="#3cb4a4" stroke="black" points="539.5,-471 477.83,-453 539.5,-435 601.17,-453 539.5,-471"/>
<text text-anchor="middle" x="539.5" y="-449.3" font-family="Arial" font-size="14.00" fill="#1a1919">1254 ==</text>
</g>
<!-- node1254&#45;&gt;node2055 -->
<g id="edge20" class="edge">
<title>node1254&#45;&gt;node2055</title>
<path fill="none" stroke="#3cb4a4" d="M539.5,-434.8C539.5,-423.16 539.5,-407.55 539.5,-394.24"/>
<polygon fill="#3cb4a4" stroke="#3cb4a4" points="543,-394.18 539.5,-384.18 536,-394.18 543,-394.18"/>
<text text-anchor="middle" x="543.5" y="-405.8" font-family="arial" font-size="14.00" fill="#3cb4a4">?</text>
</g>
<!-- node1764 -->
<g id="node9" class="node">
<title>node1764</title>
<polygon fill="#ffa500" stroke="black" points="676.5,-297 410.5,-297 410.5,-261 676.5,-261 676.5,-297"/>
<text text-anchor="middle" x="543.5" y="-275.3" font-family="Arial" font-size="14.00" fill="#1a1919">1764 Guard not, else ArithmeticException</text>
</g>
<!-- node1767 -->
<g id="node11" class="node">
<title>node1767</title>
<polygon fill="#3cb4a4" stroke="black" points="670.5,-210 532.75,-192 670.5,-174 808.25,-192 670.5,-210"/>
<text text-anchor="middle" x="670.5" y="-188.3" font-family="Arial" font-size="14.00" fill="#1a1919">1767 IntegerSubExact</text>
</g>
<!-- node1764&#45;&gt;node1767 -->
<g id="edge17" class="edge">
<title>node1764&#45;&gt;node1767</title>
<path fill="none" stroke="#3cb4a4" d="M569.2,-260.8C589.84,-246.98 618.86,-227.56 640.55,-213.05"/>
<polygon fill="#3cb4a4" stroke="#3cb4a4" points="642.69,-215.82 649.05,-207.35 638.8,-210.01 642.69,-215.82"/>
<text text-anchor="middle" x="632" y="-231.8" font-family="arial" font-size="14.00" fill="#3cb4a4">guard</text>
</g>
<!-- node1869 -->
<g id="node13" class="node">
<title>node1869</title>
<polygon fill="#e98693" stroke="black" points="514.5,-210 410.5,-210 410.5,-174 514.5,-174 514.5,-210"/>
<text text-anchor="middle" x="462.5" y="-188.3" font-family="Arial" font-size="14.00" fill="#1a1919">1869 LoopEnd</text>
</g>
<!-- node1764&#45;&gt;node1869 -->
<g id="edge12" class="edge">
<title>node1764&#45;&gt;node1869</title>
<path fill="none" stroke="#da2d4f" stroke-width="2" d="M527.11,-260.8C515.25,-248.36 499.06,-231.36 485.85,-217.5"/>
<polygon fill="#da2d4f" stroke="#da2d4f" stroke-width="2" points="488.3,-215 478.87,-210.18 483.23,-219.83 488.3,-215"/>
</g>
<!-- node1765 -->
<g id="node10" class="node">
<title>node1765</title>
<polygon fill="#3cb4a4" stroke="black" points="836.5,-36 648.98,-18 836.5,0 1024.02,-18 836.5,-36"/>
<text text-anchor="middle" x="836.5" y="-14.3" font-family="Arial" font-size="14.00" fill="#1a1919">1765 IntegerSubExactOverflow</text>
</g>
<!-- node1765&#45;&gt;node1764 -->
<g id="edge11" class="edge">
<title>node1765&#45;&gt;node1764</title>
<path fill="none" stroke="#3cb4a4" d="M840.43,-35.86C847.85,-72.26 859.63,-159 817.5,-210 799.28,-232.06 740.69,-248.14 682.35,-259.11"/>
<polygon fill="#3cb4a4" stroke="#3cb4a4" points="681.44,-255.72 672.23,-260.96 682.7,-262.6 681.44,-255.72"/>
<text text-anchor="middle" x="848.5" y="-144.8" font-family="arial" font-size="14.00" fill="#3cb4a4">?</text>
</g>
<!-- node1767&#45;&gt;node2077 -->
<g id="edge24" class="edge">
<title>node1767&#45;&gt;node2077</title>
<path fill="none" stroke="#3cb4a4" d="M644.07,-177.19C636.32,-171.71 628.78,-164.63 624.5,-156 619.66,-146.23 624.34,-136.93 632.24,-129.06"/>
<polygon fill="#3cb4a4" stroke="#3cb4a4" points="634.87,-131.41 640.22,-122.26 630.34,-126.08 634.87,-131.41"/>
<text text-anchor="middle" x="655.5" y="-144.8" font-family="arial" font-size="14.00" fill="#3cb4a4">from 1869</text>
</g>
<!-- node1864&#45;&gt;node2091 -->
<g id="edge18" class="edge">
<title>node1864&#45;&gt;node2091</title>
<path fill="none" stroke="#da2d4f" stroke-width="2" d="M147.75,-434.8C138.7,-422.59 126.4,-405.99 116.24,-392.28"/>
<polygon fill="#da2d4f" stroke="#da2d4f" stroke-width="2" points="119,-390.13 110.23,-384.18 113.37,-394.29 119,-390.13"/>
</g>
<!-- node1965 -->
<g id="node14" class="node">
<title>node1965</title>
<polygon fill="#e98693" stroke="black" points="144,-297 53,-297 53,-261 144,-261 144,-297"/>
<text text-anchor="middle" x="98.5" y="-275.3" font-family="Arial" font-size="14.00" fill="#1a1919">1965 Return</text>
</g>
<!-- node2055&#45;&gt;node1764 -->
<g id="edge21" class="edge">
<title>node2055&#45;&gt;node1764</title>
<path fill="none" stroke="#da2d4f" stroke-width="2" d="M540.31,-347.8C540.86,-336.16 541.59,-320.55 542.22,-307.24"/>
<polygon fill="#da2d4f" stroke="#da2d4f" stroke-width="2" points="545.72,-307.33 542.69,-297.18 538.73,-307 545.72,-307.33"/>
</g>
<!-- node2077&#45;&gt;node973 -->
<g id="edge4" class="edge">
<title>node2077&#45;&gt;node973</title>
<path fill="none" stroke="#3cb4a4" d="M640.35,-98.22C565.22,-83.34 364.93,-43.65 279.73,-26.77"/>
<polygon fill="#3cb4a4" stroke="#3cb4a4" points="280.18,-23.29 269.69,-24.78 278.82,-30.16 280.18,-23.29"/>
<text text-anchor="middle" x="484" y="-57.8" font-family="arial" font-size="14.00" fill="#3cb4a4">x</text>
</g>
<!-- node2077&#45;&gt;node1765 -->
<g id="edge13" class="edge">
<title>node2077&#45;&gt;node1765</title>
<path fill="none" stroke="#3cb4a4" d="M698.59,-89.19C726.54,-74.97 768.89,-53.41 799.28,-37.94"/>
<polygon fill="#3cb4a4" stroke="#3cb4a4" points="800.98,-41.01 808.3,-33.35 797.8,-34.77 800.98,-41.01"/>
<text text-anchor="middle" x="766" y="-57.8" font-family="arial" font-size="14.00" fill="#3cb4a4">x</text>
</g>
<!-- node2077&#45;&gt;node1767 -->
<g id="edge15" class="edge">
<title>node2077&#45;&gt;node1767</title>
<path fill="none" stroke="#3cb4a4" d="M682.39,-123.31C685.7,-128.7 688.8,-134.85 690.5,-141 692.87,-149.55 690.73,-158.63 687.11,-166.67"/>
<polygon fill="#3cb4a4" stroke="#3cb4a4" points="683.99,-165.08 682.35,-175.54 690.16,-168.38 683.99,-165.08"/>
<text text-anchor="middle" x="694" y="-144.8" font-family="arial" font-size="14.00" fill="#3cb4a4">x</text>
</g>
<!-- node2091&#45;&gt;node1965 -->
<g id="edge19" class="edge">
<title>node2091&#45;&gt;node1965</title>
<path fill="none" stroke="#3cb4a4" d="M97.7,-347.8C97.84,-336.16 98.02,-320.55 98.18,-307.24"/>
<polygon fill="#3cb4a4" stroke="#3cb4a4" points="101.68,-307.22 98.3,-297.18 94.68,-307.13 101.68,-307.22"/>
<text text-anchor="middle" x="115.5" y="-318.8" font-family="arial" font-size="14.00" fill="#3cb4a4">result</text>
</g>
<!-- node2091&#45;&gt;node1965 -->
<g id="edge26" class="edge">
<title>node2091&#45;&gt;node1965</title>
<path fill="none" stroke="#da2d4f" stroke-width="2" d="M96.11,-347.87C95.51,-338.22 95.03,-325.94 95.5,-315 95.61,-312.44 95.76,-309.78 95.95,-307.12"/>
<polygon fill="#da2d4f" stroke="#da2d4f" stroke-width="2" points="99.44,-307.32 96.74,-297.07 92.46,-306.76 99.44,-307.32"/>
</g>
<!-- node2092&#45;&gt;node532 -->
<g id="edge31" class="edge">
<title>node2092&#45;&gt;node532</title>
<path fill="none" stroke="#da2d4f" stroke-width="2" d="M309.57,-835.86C316.38,-825.3 325.25,-811.56 332.9,-799.71"/>
<polygon fill="#da2d4f" stroke="#da2d4f" stroke-width="2" points="335.97,-801.41 338.46,-791.11 330.09,-797.61 335.97,-801.41"/>
</g>
<!-- inline23x973 -->
<g id="node19" class="node">
<title>inline23x973</title>
<ellipse fill="#d7ede7" stroke="black" cx="185.5" cy="-105" rx="27" ry="18"/>
<text text-anchor="middle" x="185.5" y="-103.1" font-family="Arial" font-size="8.00" fill="#1a1919">23 C(1)</text>
</g>
<!-- inline23x973&#45;&gt;node973 -->
<g id="edge5" class="edge">
<title>inline23x973&#45;&gt;node973</title>
<path fill="none" stroke="#3cb4a4" d="M195.85,-88.01C206.18,-72.05 221.89,-47.77 231.65,-32.67"/>
<text text-anchor="middle" x="218.5" y="-59.6" font-family="arial" font-size="8.00" fill="#3cb4a4">y</text>
</g>
<!-- inline1252x1254 -->
<g id="node20" class="node">
<title>inline1252x1254</title>
<ellipse fill="#d7ede7" stroke="black" cx="619.5" cy="-540" rx="83.9" ry="18"/>
<text text-anchor="middle" x="619.5" y="-538.1" font-family="Arial" font-size="8.00" fill="#1a1919">1252 C(RubyBasicObject@7fc889f3)</text>
</g>
<!-- inline1252x1254&#45;&gt;node1254 -->
<g id="edge10" class="edge">
<title>inline1252x1254&#45;&gt;node1254</title>
<path fill="none" stroke="#3cb4a4" d="M603.69,-522.21C588.58,-506.14 566.07,-482.23 552.12,-467.41"/>
<text text-anchor="middle" x="585.5" y="-494.6" font-family="arial" font-size="8.00" fill="#3cb4a4">y</text>
</g>
<!-- inline23x1765 -->
<g id="node21" class="node">
<title>inline23x1765</title>
<ellipse fill="#d7ede7" stroke="black" cx="891.5" cy="-105" rx="27" ry="18"/>
<text text-anchor="middle" x="891.5" y="-103.1" font-family="Arial" font-size="8.00" fill="#1a1919">23 C(1)</text>
</g>
<!-- inline23x1765&#45;&gt;node1765 -->
<g id="edge14" class="edge">
<title>inline23x1765&#45;&gt;node1765</title>
<path fill="none" stroke="#3cb4a4" d="M881.15,-88.01C871.38,-72.91 856.8,-50.38 846.99,-35.21"/>
<text text-anchor="middle" x="868.5" y="-59.6" font-family="arial" font-size="8.00" fill="#3cb4a4">y</text>
</g>
<!-- inline23x1767 -->
<g id="node22" class="node">
<title>inline23x1767</title>
<ellipse fill="#d7ede7" stroke="black" cx="721.5" cy="-279" rx="27" ry="18"/>
<text text-anchor="middle" x="721.5" y="-277.1" font-family="Arial" font-size="8.00" fill="#1a1919">23 C(1)</text>
</g>
<!-- inline23x1767&#45;&gt;node1767 -->
<g id="edge16" class="edge">
<title>inline23x1767&#45;&gt;node1767</title>
<path fill="none" stroke="#3cb4a4" d="M711.91,-262.01C702.79,-246.82 689.15,-224.09 680.05,-208.92"/>
<text text-anchor="middle" x="700.5" y="-233.6" font-family="arial" font-size="8.00" fill="#3cb4a4">y</text>
</g>
<!-- inline125x1254 -->
<g id="node23" class="node">
<title>inline125x1254</title>
<ellipse fill="#d7ede7" stroke="black" cx="490.5" cy="-540" rx="27.46" ry="18"/>
<text text-anchor="middle" x="490.5" y="-538.1" font-family="Arial" font-size="8.00" fill="#1a1919">125 T(5)</text>
</g>
<!-- inline125x1254&#45;&gt;node1254 -->
<g id="edge27" class="edge">
<title>inline125x1254&#45;&gt;node1254</title>
<path fill="none" stroke="#3cb4a4" d="M499.72,-523.01C508.7,-507.43 522.24,-483.93 530.98,-468.78"/>
<text text-anchor="middle" x="519.5" y="-494.6" font-family="arial" font-size="8.00" fill="#3cb4a4">x</text>
</g>
<!-- inline161x532 -->
<g id="node24" class="node">
<title>inline161x532</title>
<ellipse fill="#d7ede7" stroke="black" cx="400.5" cy="-854" rx="27.46" ry="18"/>
<text text-anchor="middle" x="400.5" y="-852.1" font-family="Arial" font-size="8.00" fill="#1a1919">161 T(7)</text>
</g>
<!-- inline161x532&#45;&gt;node532 -->
<g id="edge28" class="edge">
<title>inline161x532&#45;&gt;node532</title>
<path fill="none" stroke="#3cb4a4" d="M390.18,-837.01C381.56,-823.67 369.31,-804.69 360.51,-791.06"/>
<text text-anchor="middle" x="386" y="-811.6" font-family="arial" font-size="8.00" fill="#3cb4a4">value</text>
</g>
<!-- inline2x2092 -->
<g id="node25" class="node">
<title>inline2x2092</title>
<ellipse fill="#d7ede7" stroke="black" cx="335.5" cy="-935" rx="27" ry="18"/>
<text text-anchor="middle" x="335.5" y="-933.1" font-family="Arial" font-size="8.00" fill="#1a1919">2 P(1)</text>
</g>
<!-- inline2x2092&#45;&gt;node2092 -->
<g id="edge29" class="edge">
<title>inline2x2092&#45;&gt;node2092</title>
<path fill="none" stroke="#3cb4a4" d="M327.83,-917.63C321.61,-904.34 312.86,-885.67 306.54,-872.17"/>
<text text-anchor="middle" x="327" y="-892.6" font-family="arial" font-size="8.00" fill="#3cb4a4">array</text>
</g>
</g>
</svg>
