<?xml version="1.0" encoding="UTF-8" standalone="no"?>
<!DOCTYPE svg PUBLIC "-//W3C//DTD SVG 1.1//EN"
 "http://www.w3.org/Graphics/SVG/1.1/DTD/svg11.dtd">
<!-- Generated by graphviz version 2.44.1 (20200629.0846)
 -->
<!-- Title: G Pages: 1 -->
<svg width="741pt" height="1244pt"
 viewBox="0.00 0.00 741.00 1244.00" xmlns="http://www.w3.org/2000/svg" xmlns:xlink="http://www.w3.org/1999/xlink">
<g id="graph0" class="graph" transform="scale(1 1) rotate(0) translate(4 1240)">
<title>G</title>
<!-- node0 -->
<g id="node1" class="node">
<title>node0</title>
<polygon fill="#e98693" stroke="black" points="335,-1236 279,-1236 279,-1200 335,-1200 335,-1236"/>
<text text-anchor="middle" x="307" y="-1214.3" font-family="Arial" font-size="14.00" fill="#1a1919">0 Start</text>
</g>
<!-- node1706 -->
<g id="node15" class="node">
<title>node1706</title>
<polygon fill="#da2d4f" stroke="black" points="399.5,-1155 286.5,-1155 286.5,-1119 399.5,-1119 399.5,-1155"/>
<text text-anchor="middle" x="343" y="-1133.3" font-family="Arial" font-size="14.00" fill="#ffffff">1706 Load T(...)</text>
</g>
<!-- node0&#45;&gt;node1706 -->
<g id="edge30" class="edge">
<title>node0&#45;&gt;node1706</title>
<path fill="none" stroke="#da2d4f" stroke-width="2" d="M314.81,-1199.86C319.53,-1189.51 325.64,-1176.1 330.96,-1164.41"/>
<polygon fill="#da2d4f" stroke="#da2d4f" stroke-width="2" points="334.24,-1165.66 335.2,-1155.11 327.87,-1162.76 334.24,-1165.66"/>
</g>
<!-- node549 -->
<g id="node2" class="node">
<title>node549</title>
<polygon fill="#f9f9f9" stroke="black" points="452,-1074 370,-1074 370,-1038 452,-1038 452,-1074"/>
<text text-anchor="middle" x="411" y="-1052.3" font-family="Arial" font-size="14.00" fill="#1a1919">549 Unbox</text>
</g>
<!-- node704 -->
<g id="node3" class="node">
<title>node704</title>
<polygon fill="#f9f9f9" stroke="black" points="301,-993 219,-993 219,-957 301,-957 301,-993"/>
<text text-anchor="middle" x="260" y="-971.3" font-family="Arial" font-size="14.00" fill="#1a1919">704 Unbox</text>
</g>
<!-- node549&#45;&gt;node704 -->
<g id="edge1" class="edge">
<title>node549&#45;&gt;node704</title>
<path fill="none" stroke="#da2d4f" stroke-width="2" d="M378.24,-1037.86C355.78,-1026.11 325.8,-1010.42 301.64,-997.79"/>
<polygon fill="#da2d4f" stroke="#da2d4f" stroke-width="2" points="303.18,-994.64 292.7,-993.11 299.94,-1000.85 303.18,-994.64"/>
</g>
<!-- node1119 -->
<g id="node5" class="node">
<title>node1119</title>
<polygon fill="#3cb4a4" stroke="black" points="411,-906 224.32,-888 411,-870 597.68,-888 411,-906"/>
<text text-anchor="middle" x="411" y="-884.3" font-family="Arial" font-size="14.00" fill="#1a1919">1119 IntegerAddExactOverflow</text>
</g>
<!-- node549&#45;&gt;node1119 -->
<g id="edge5" class="edge">
<title>node549&#45;&gt;node1119</title>
<path fill="none" stroke="#3cb4a4" d="M411,-1037.86C411,-1009.16 411,-951.13 411,-916.61"/>
<polygon fill="#3cb4a4" stroke="#3cb4a4" points="414.5,-916.3 411,-906.3 407.5,-916.3 414.5,-916.3"/>
<text text-anchor="middle" x="414.5" y="-971.3" font-family="arial" font-size="14.00" fill="#3cb4a4">x</text>
</g>
<!-- node1121 -->
<g id="node6" class="node">
<title>node1121</title>
<polygon fill="#3cb4a4" stroke="black" points="464,-732 327.09,-714 464,-696 600.91,-714 464,-732"/>
<text text-anchor="middle" x="464" y="-710.3" font-family="Arial" font-size="14.00" fill="#1a1919">1121 IntegerAddExact</text>
</g>
<!-- node549&#45;&gt;node1121 -->
<g id="edge7" class="edge">
<title>node549&#45;&gt;node1121</title>
<path fill="none" stroke="#3cb4a4" d="M452.16,-1049.04C516.6,-1038.53 634,-1014.15 634,-976 634,-976 634,-976 634,-800 634,-756.44 588.79,-735.2 545,-724.85"/>
<polygon fill="#3cb4a4" stroke="#3cb4a4" points="545.63,-721.4 535.11,-722.68 544.13,-728.24 545.63,-721.4"/>
<text text-anchor="middle" x="637.5" y="-884.3" font-family="arial" font-size="14.00" fill="#3cb4a4">x</text>
</g>
<!-- node1118 -->
<g id="node4" class="node">
<title>node1118</title>
<polygon fill="#ffa500" stroke="black" points="474.5,-819 209.5,-819 209.5,-783 474.5,-783 474.5,-819"/>
<text text-anchor="middle" x="342" y="-797.3" font-family="Arial" font-size="14.00" fill="#1a1919">1118 Guard not, else ArithmeticException</text>
</g>
<!-- node704&#45;&gt;node1118 -->
<g id="edge2" class="edge">
<title>node704&#45;&gt;node1118</title>
<path fill="none" stroke="#da2d4f" stroke-width="2" d="M242.69,-956.76C223.6,-935.57 197.72,-898.86 215,-870 227.82,-848.6 249.93,-833.55 272.15,-823.15"/>
<polygon fill="#da2d4f" stroke="#da2d4f" stroke-width="2" points="273.57,-826.35 281.31,-819.12 270.75,-819.94 273.57,-826.35"/>
</g>
<!-- node704&#45;&gt;node1119 -->
<g id="edge6" class="edge">
<title>node704&#45;&gt;node1119</title>
<path fill="none" stroke="#3cb4a4" d="M290.56,-956.8C315.38,-942.83 350.39,-923.12 376.27,-908.55"/>
<polygon fill="#3cb4a4" stroke="#3cb4a4" points="378.02,-911.58 385.02,-903.63 374.58,-905.48 378.02,-911.58"/>
<text text-anchor="middle" x="348.5" y="-927.8" font-family="arial" font-size="14.00" fill="#3cb4a4">y</text>
</g>
<!-- node704&#45;&gt;node1121 -->
<g id="edge8" class="edge">
<title>node704&#45;&gt;node1121</title>
<path fill="none" stroke="#3cb4a4" d="M232.88,-956.65C226.63,-951.59 220.5,-945.62 216,-939 176.85,-881.34 157.3,-838.09 200,-783 222.7,-753.72 316.36,-734.82 385.71,-724.56"/>
<polygon fill="#3cb4a4" stroke="#3cb4a4" points="386.35,-728 395.75,-723.1 385.35,-721.07 386.35,-728"/>
<text text-anchor="middle" x="180.5" y="-840.8" font-family="arial" font-size="14.00" fill="#3cb4a4">y</text>
</g>
<!-- node1118&#45;&gt;node1121 -->
<g id="edge9" class="edge">
<title>node1118&#45;&gt;node1121</title>
<path fill="none" stroke="#3cb4a4" d="M366.69,-782.8C386.43,-769.05 414.14,-749.74 434.95,-735.24"/>
<polygon fill="#3cb4a4" stroke="#3cb4a4" points="437.2,-737.94 443.4,-729.35 433.19,-732.2 437.2,-737.94"/>
<text text-anchor="middle" x="427.5" y="-753.8" font-family="arial" font-size="14.00" fill="#3cb4a4">guard</text>
</g>
<!-- node1428 -->
<g id="node7" class="node">
<title>node1428</title>
<polygon fill="#ffa500" stroke="black" points="288,-558 22,-558 22,-522 288,-522 288,-558"/>
<text text-anchor="middle" x="155" y="-536.3" font-family="Arial" font-size="14.00" fill="#1a1919">1428 Guard not, else ArithmeticException</text>
</g>
<!-- node1118&#45;&gt;node1428 -->
<g id="edge4" class="edge">
<title>node1118&#45;&gt;node1428</title>
<path fill="none" stroke="#da2d4f" stroke-width="2" d="M266.59,-782.96C197.34,-762.85 98.75,-721.96 53,-645 33.6,-612.37 72.01,-582.26 107.11,-562.92"/>
<polygon fill="#da2d4f" stroke="#da2d4f" stroke-width="2" points="109.2,-565.77 116.4,-558 105.92,-559.59 109.2,-565.77"/>
</g>
<!-- node1119&#45;&gt;node1118 -->
<g id="edge3" class="edge">
<title>node1119&#45;&gt;node1118</title>
<path fill="none" stroke="#3cb4a4" d="M398.02,-871.01C387.97,-858.63 373.86,-841.25 362.32,-827.03"/>
<polygon fill="#3cb4a4" stroke="#3cb4a4" points="364.89,-824.64 355.87,-819.08 359.45,-829.05 364.89,-824.64"/>
<text text-anchor="middle" x="384" y="-840.8" font-family="arial" font-size="14.00" fill="#3cb4a4">?</text>
</g>
<!-- node1429 -->
<g id="node8" class="node">
<title>node1429</title>
<polygon fill="#3cb4a4" stroke="black" points="249,-645 62.32,-627 249,-609 435.68,-627 249,-645"/>
<text text-anchor="middle" x="249" y="-623.3" font-family="Arial" font-size="14.00" fill="#1a1919">1429 IntegerMulExactOverflow</text>
</g>
<!-- node1121&#45;&gt;node1429 -->
<g id="edge12" class="edge">
<title>node1121&#45;&gt;node1429</title>
<path fill="none" stroke="#3cb4a4" d="M431.35,-700.09C394.48,-685.51 334.3,-661.72 293.23,-645.49"/>
<polygon fill="#3cb4a4" stroke="#3cb4a4" points="294.33,-642.16 283.75,-641.74 291.76,-648.67 294.33,-642.16"/>
<text text-anchor="middle" x="372.5" y="-666.8" font-family="arial" font-size="14.00" fill="#3cb4a4">x</text>
</g>
<!-- node1431 -->
<g id="node9" class="node">
<title>node1431</title>
<polygon fill="#3cb4a4" stroke="black" points="337,-471 200.09,-453 337,-435 473.91,-453 337,-471"/>
<text text-anchor="middle" x="337" y="-449.3" font-family="Arial" font-size="14.00" fill="#1a1919">1431 IntegerMulExact</text>
</g>
<!-- node1121&#45;&gt;node1431 -->
<g id="edge14" class="edge">
<title>node1121&#45;&gt;node1431</title>
<path fill="none" stroke="#3cb4a4" d="M463.1,-695.8C461.49,-674.64 457.07,-637.97 445,-609 423.54,-557.47 382.88,-505.95 358.03,-477.2"/>
<polygon fill="#3cb4a4" stroke="#3cb4a4" points="360.39,-474.58 351.17,-469.37 355.13,-479.2 360.39,-474.58"/>
<text text-anchor="middle" x="438.5" y="-579.8" font-family="arial" font-size="14.00" fill="#3cb4a4">x</text>
</g>
<!-- node1649 -->
<g id="node11" class="node">
<title>node1649</title>
<polygon fill="#3cb4a4" stroke="black" points="510,-384 322.48,-366 510,-348 697.52,-366 510,-384"/>
<text text-anchor="middle" x="510" y="-362.3" font-family="Arial" font-size="14.00" fill="#1a1919">1649 IntegerAddExactOverflow</text>
</g>
<!-- node1121&#45;&gt;node1649 -->
<g id="edge19" class="edge">
<title>node1121&#45;&gt;node1649</title>
<path fill="none" stroke="#3cb4a4" d="M478.3,-697.73C491.81,-681.67 510,-655.01 510,-628 510,-628 510,-628 510,-452 510,-432.75 510,-411.05 510,-394.4"/>
<polygon fill="#3cb4a4" stroke="#3cb4a4" points="513.5,-394.26 510,-384.26 506.5,-394.26 513.5,-394.26"/>
<text text-anchor="middle" x="513.5" y="-536.3" font-family="arial" font-size="14.00" fill="#3cb4a4">x</text>
</g>
<!-- node1651 -->
<g id="node12" class="node">
<title>node1651</title>
<polygon fill="#3cb4a4" stroke="black" points="297,-210 159.25,-192 297,-174 434.75,-192 297,-210"/>
<text text-anchor="middle" x="297" y="-188.3" font-family="Arial" font-size="14.00" fill="#1a1919">1651 IntegerAddExact</text>
</g>
<!-- node1121&#45;&gt;node1651 -->
<g id="edge21" class="edge">
<title>node1121&#45;&gt;node1651</title>
<path fill="none" stroke="#3cb4a4" d="M530.79,-704.73C608.42,-693.22 726,-669.01 726,-628 726,-628 726,-628 726,-278 726,-216.97 556.8,-199.07 430.92,-194.2"/>
<polygon fill="#3cb4a4" stroke="#3cb4a4" points="430.92,-190.7 420.8,-193.83 430.66,-197.69 430.92,-190.7"/>
<text text-anchor="middle" x="729.5" y="-449.3" font-family="arial" font-size="14.00" fill="#3cb4a4">x</text>
</g>
<!-- node1428&#45;&gt;node1431 -->
<g id="edge16" class="edge">
<title>node1428&#45;&gt;node1431</title>
<path fill="none" stroke="#3cb4a4" d="M191.83,-521.8C223.08,-507.2 267.74,-486.35 299.25,-471.63"/>
<polygon fill="#3cb4a4" stroke="#3cb4a4" points="301,-474.68 308.57,-467.28 298.03,-468.34 301,-474.68"/>
<text text-anchor="middle" x="274.5" y="-492.8" font-family="arial" font-size="14.00" fill="#3cb4a4">guard</text>
</g>
<!-- node1648 -->
<g id="node10" class="node">
<title>node1648</title>
<polygon fill="#ffa500" stroke="black" points="266,-297 0,-297 0,-261 266,-261 266,-297"/>
<text text-anchor="middle" x="133" y="-275.3" font-family="Arial" font-size="14.00" fill="#1a1919">1648 Guard not, else ArithmeticException</text>
</g>
<!-- node1428&#45;&gt;node1648 -->
<g id="edge11" class="edge">
<title>node1428&#45;&gt;node1648</title>
<path fill="none" stroke="#da2d4f" stroke-width="2" d="M153.52,-521.6C149.77,-477.46 139.87,-360.83 135.33,-307.42"/>
<polygon fill="#da2d4f" stroke="#da2d4f" stroke-width="2" points="138.81,-306.99 134.47,-297.32 131.83,-307.58 138.81,-306.99"/>
</g>
<!-- node1429&#45;&gt;node1428 -->
<g id="edge10" class="edge">
<title>node1429&#45;&gt;node1428</title>
<path fill="none" stroke="#3cb4a4" d="M231.76,-610.41C217.73,-597.72 197.69,-579.6 181.61,-565.06"/>
<polygon fill="#3cb4a4" stroke="#3cb4a4" points="183.84,-562.36 174.07,-558.25 179.14,-567.55 183.84,-562.36"/>
<text text-anchor="middle" x="212" y="-579.8" font-family="arial" font-size="14.00" fill="#3cb4a4">?</text>
</g>
<!-- node1431&#45;&gt;node1649 -->
<g id="edge20" class="edge">
<title>node1431&#45;&gt;node1649</title>
<path fill="none" stroke="#3cb4a4" d="M364.41,-438.53C393.38,-424.3 439.27,-401.75 471.78,-385.78"/>
<polygon fill="#3cb4a4" stroke="#3cb4a4" points="473.55,-388.81 480.98,-381.26 470.47,-382.52 473.55,-388.81"/>
<text text-anchor="middle" x="436.5" y="-405.8" font-family="arial" font-size="14.00" fill="#3cb4a4">y</text>
</g>
<!-- node1431&#45;&gt;node1651 -->
<g id="edge22" class="edge">
<title>node1431&#45;&gt;node1651</title>
<path fill="none" stroke="#3cb4a4" d="M329.98,-435.85C324.4,-422.28 316.91,-402.24 313,-384 300.67,-326.55 297.74,-257.49 297.1,-220.16"/>
<polygon fill="#3cb4a4" stroke="#3cb4a4" points="300.6,-220.03 296.98,-210.08 293.6,-220.12 300.6,-220.03"/>
<text text-anchor="middle" x="307.5" y="-318.8" font-family="arial" font-size="14.00" fill="#3cb4a4">y</text>
</g>
<!-- node1648&#45;&gt;node1651 -->
<g id="edge23" class="edge">
<title>node1648&#45;&gt;node1651</title>
<path fill="none" stroke="#3cb4a4" d="M166.19,-260.8C193.85,-246.46 233.17,-226.08 261.47,-211.41"/>
<polygon fill="#3cb4a4" stroke="#3cb4a4" points="263.35,-214.38 270.61,-206.68 260.12,-208.17 263.35,-214.38"/>
<text text-anchor="middle" x="242.5" y="-231.8" font-family="arial" font-size="14.00" fill="#3cb4a4">guard</text>
</g>
<!-- node1705 -->
<g id="node14" class="node">
<title>node1705</title>
<polygon fill="#f9f9f9" stroke="black" points="244.5,-123 49.5,-123 49.5,-87 244.5,-87 244.5,-123"/>
<text text-anchor="middle" x="147" y="-101.3" font-family="Arial" font-size="14.00" fill="#1a1919">1705 BoxNode$AllocatingBox</text>
</g>
<!-- node1648&#45;&gt;node1705 -->
<g id="edge18" class="edge">
<title>node1648&#45;&gt;node1705</title>
<path fill="none" stroke="#da2d4f" stroke-width="2" d="M134.39,-260.88C136.83,-231 141.86,-169.11 144.78,-133.27"/>
<polygon fill="#da2d4f" stroke="#da2d4f" stroke-width="2" points="148.29,-133.3 145.61,-123.05 141.31,-132.73 148.29,-133.3"/>
</g>
<!-- node1649&#45;&gt;node1648 -->
<g id="edge17" class="edge">
<title>node1649&#45;&gt;node1648</title>
<path fill="none" stroke="#3cb4a4" d="M417.92,-356.83C371.3,-351.46 314.12,-342.96 264,-330 235.6,-322.66 204.91,-311.15 180.38,-301.02"/>
<polygon fill="#3cb4a4" stroke="#3cb4a4" points="181.53,-297.71 170.95,-297.08 178.83,-304.17 181.53,-297.71"/>
<text text-anchor="middle" x="268" y="-318.8" font-family="arial" font-size="14.00" fill="#3cb4a4">?</text>
</g>
<!-- node1651&#45;&gt;node1705 -->
<g id="edge25" class="edge">
<title>node1651&#45;&gt;node1705</title>
<path fill="none" stroke="#3cb4a4" d="M272.57,-177.15C249.15,-163.88 213.41,-143.63 186.05,-128.13"/>
<polygon fill="#3cb4a4" stroke="#3cb4a4" points="187.54,-124.95 177.12,-123.07 184.09,-131.04 187.54,-124.95"/>
<text text-anchor="middle" x="247.5" y="-144.8" font-family="arial" font-size="14.00" fill="#3cb4a4">value</text>
</g>
<!-- node1680 -->
<g id="node13" class="node">
<title>node1680</title>
<polygon fill="#e98693" stroke="black" points="192.5,-36 101.5,-36 101.5,0 192.5,0 192.5,-36"/>
<text text-anchor="middle" x="147" y="-14.3" font-family="Arial" font-size="14.00" fill="#1a1919">1680 Return</text>
</g>
<!-- node1705&#45;&gt;node1680 -->
<g id="edge24" class="edge">
<title>node1705&#45;&gt;node1680</title>
<path fill="none" stroke="#3cb4a4" d="M132.9,-86.84C129.28,-81.46 125.88,-75.27 124,-69 121.59,-60.93 123.56,-52.49 127.19,-44.89"/>
<polygon fill="#3cb4a4" stroke="#3cb4a4" points="130.29,-46.53 132.25,-36.12 124.22,-43.03 130.29,-46.53"/>
<text text-anchor="middle" x="141" y="-57.8" font-family="arial" font-size="14.00" fill="#3cb4a4">result</text>
</g>
<!-- node1705&#45;&gt;node1680 -->
<g id="edge26" class="edge">
<title>node1705&#45;&gt;node1680</title>
<path fill="none" stroke="#da2d4f" stroke-width="2" d="M153.94,-86.98C157.06,-77.35 159.7,-65.07 158,-54 157.59,-51.32 157.01,-48.56 156.33,-45.83"/>
<polygon fill="#da2d4f" stroke="#da2d4f" stroke-width="2" points="159.69,-44.83 153.55,-36.2 152.96,-46.78 159.69,-44.83"/>
</g>
<!-- node1706&#45;&gt;node549 -->
<g id="edge31" class="edge">
<title>node1706&#45;&gt;node549</title>
<path fill="none" stroke="#da2d4f" stroke-width="2" d="M357.75,-1118.86C367.02,-1108.09 379.13,-1094.02 389.46,-1082.02"/>
<polygon fill="#da2d4f" stroke="#da2d4f" stroke-width="2" points="392.4,-1083.97 396.27,-1074.11 387.1,-1079.4 392.4,-1083.97"/>
</g>
<!-- inline69x1429 -->
<g id="node16" class="node">
<title>inline69x1429</title>
<ellipse fill="#d7ede7" stroke="black" cx="249" cy="-714" rx="27" ry="18"/>
<text text-anchor="middle" x="249" y="-712.1" font-family="Arial" font-size="8.00" fill="#1a1919">69 C(2)</text>
</g>
<!-- inline69x1429&#45;&gt;node1429 -->
<g id="edge13" class="edge">
<title>inline69x1429&#45;&gt;node1429</title>
<path fill="none" stroke="#3cb4a4" d="M249,-695.8C249,-681.05 249,-659.92 249,-645.18"/>
<text text-anchor="middle" x="251" y="-668.6" font-family="arial" font-size="8.00" fill="#3cb4a4">y</text>
</g>
<!-- inline69x1431 -->
<g id="node17" class="node">
<title>inline69x1431</title>
<ellipse fill="#d7ede7" stroke="black" cx="337" cy="-540" rx="27" ry="18"/>
<text text-anchor="middle" x="337" y="-538.1" font-family="Arial" font-size="8.00" fill="#1a1919">69 C(2)</text>
</g>
<!-- inline69x1431&#45;&gt;node1431 -->
<g id="edge15" class="edge">
<title>inline69x1431&#45;&gt;node1431</title>
<path fill="none" stroke="#3cb4a4" d="M337,-521.8C337,-507.05 337,-485.92 337,-471.18"/>
<text text-anchor="middle" x="339" y="-494.6" font-family="arial" font-size="8.00" fill="#3cb4a4">y</text>
</g>
<!-- inline161x549 -->
<g id="node18" class="node">
<title>inline161x549</title>
<ellipse fill="#d7ede7" stroke="black" cx="445" cy="-1137" rx="27.46" ry="18"/>
<text text-anchor="middle" x="445" y="-1135.1" font-family="Arial" font-size="8.00" fill="#1a1919">161 T(7)</text>
</g>
<!-- inline161x549&#45;&gt;node549 -->
<g id="edge27" class="edge">
<title>inline161x549&#45;&gt;node549</title>
<path fill="none" stroke="#3cb4a4" d="M437.79,-1119.25C432.06,-1105.93 424.08,-1087.38 418.32,-1074"/>
<text text-anchor="middle" x="438.5" y="-1094.6" font-family="arial" font-size="8.00" fill="#3cb4a4">value</text>
</g>
<!-- inline179x704 -->
<g id="node19" class="node">
<title>inline179x704</title>
<ellipse fill="#d7ede7" stroke="black" cx="260" cy="-1056" rx="27.46" ry="18"/>
<text text-anchor="middle" x="260" y="-1054.1" font-family="Arial" font-size="8.00" fill="#1a1919">179 T(8)</text>
</g>
<!-- inline179x704&#45;&gt;node704 -->
<g id="edge28" class="edge">
<title>inline179x704&#45;&gt;node704</title>
<path fill="none" stroke="#3cb4a4" d="M260,-1037.86C260,-1024.61 260,-1006.35 260,-993.11"/>
<text text-anchor="middle" x="269.5" y="-1013.6" font-family="arial" font-size="8.00" fill="#3cb4a4">value</text>
</g>
<!-- inline2x1706 -->
<g id="node20" class="node">
<title>inline2x1706</title>
<ellipse fill="#d7ede7" stroke="black" cx="380" cy="-1218" rx="27" ry="18"/>
<text text-anchor="middle" x="380" y="-1216.1" font-family="Arial" font-size="8.00" fill="#1a1919">2 P(1)</text>
</g>
<!-- inline2x1706&#45;&gt;node1706 -->
<g id="edge29" class="edge">
<title>inline2x1706&#45;&gt;node1706</title>
<path fill="none" stroke="#3cb4a4" d="M372.33,-1200.63C366.11,-1187.34 357.36,-1168.67 351.04,-1155.17"/>
<text text-anchor="middle" x="371.5" y="-1175.6" font-family="arial" font-size="8.00" fill="#3cb4a4">array</text>
</g>
</g>
</svg>
