<?xml version="1.0" encoding="UTF-8" standalone="no"?>
<!DOCTYPE svg PUBLIC "-//W3C//DTD SVG 1.1//EN"
 "http://www.w3.org/Graphics/SVG/1.1/DTD/svg11.dtd">
<!-- Generated by graphviz version 2.44.1 (20200629.0846)
 -->
<!-- Title: G Pages: 1 -->
<svg width="930pt" height="1114pt"
 viewBox="0.00 0.00 929.50 1114.00" xmlns="http://www.w3.org/2000/svg" xmlns:xlink="http://www.w3.org/1999/xlink">
<g id="graph0" class="graph" transform="scale(1 1) rotate(0) translate(4 1110)">
<title>G</title>
<!-- node0 -->
<g id="node1" class="node">
<title>node0</title>
<polygon fill="#e98693" stroke="black" points="56,-1106 0,-1106 0,-1070 56,-1070 56,-1106"/>
<text text-anchor="middle" x="28" y="-1084.3" font-family="Arial" font-size="14.00" fill="#1a1919">0 Start</text>
</g>
<!-- node2061 -->
<g id="node24" class="node">
<title>node2061</title>
<polygon fill="#da2d4f" stroke="black" points="120.5,-1025 7.5,-1025 7.5,-989 120.5,-989 120.5,-1025"/>
<text text-anchor="middle" x="64" y="-1003.3" font-family="Arial" font-size="14.00" fill="#ffffff">2061 Load T(...)</text>
</g>
<!-- node0&#45;&gt;node2061 -->
<g id="edge38" class="edge">
<title>node0&#45;&gt;node2061</title>
<path fill="none" stroke="#da2d4f" stroke-width="2" d="M35.81,-1069.86C40.53,-1059.51 46.64,-1046.1 51.96,-1034.41"/>
<polygon fill="#da2d4f" stroke="#da2d4f" stroke-width="2" points="55.24,-1035.66 56.2,-1025.11 48.87,-1032.76 55.24,-1035.66"/>
</g>
<!-- node532 -->
<g id="node2" class="node">
<title>node532</title>
<polygon fill="#f9f9f9" stroke="black" points="156,-944 74,-944 74,-908 156,-908 156,-944"/>
<text text-anchor="middle" x="115" y="-922.3" font-family="Arial" font-size="14.00" fill="#1a1919">532 Unbox</text>
</g>
<!-- node794 -->
<g id="node3" class="node">
<title>node794</title>
<polygon fill="#e98693" stroke="black" points="148.5,-871 81.5,-871 81.5,-835 148.5,-835 148.5,-871"/>
<text text-anchor="middle" x="115" y="-849.3" font-family="Arial" font-size="14.00" fill="#1a1919">794 End</text>
</g>
<!-- node532&#45;&gt;node794 -->
<g id="edge1" class="edge">
<title>node532&#45;&gt;node794</title>
<path fill="none" stroke="#da2d4f" stroke-width="2" d="M115,-907.81C115,-899.79 115,-890.05 115,-881.07"/>
<polygon fill="#da2d4f" stroke="#da2d4f" stroke-width="2" points="118.5,-881.03 115,-871.03 111.5,-881.03 118.5,-881.03"/>
</g>
<!-- node2043 -->
<g id="node22" class="node">
<title>node2043</title>
<polygon fill="#f9f9f9" stroke="black" points="316,-123 258,-123 258,-87 316,-87 316,-123"/>
<text text-anchor="middle" x="287" y="-101.3" font-family="Arial" font-size="14.00" fill="#1a1919">2043 ϕ</text>
</g>
<!-- node532&#45;&gt;node2043 -->
<g id="edge32" class="edge">
<title>node532&#45;&gt;node2043</title>
<path fill="none" stroke="#3cb4a4" d="M73.81,-917.11C40.81,-908.13 0,-889.78 0,-854 0,-854 0,-854 0,-191 0,-119.29 193.5,-127.8 247.86,-121.81"/>
<polygon fill="#3cb4a4" stroke="#3cb4a4" points="248.6,-125.23 257.87,-120.1 247.42,-118.33 248.6,-125.23"/>
<text text-anchor="middle" x="27.5" y="-529.3" font-family="arial" font-size="14.00" fill="#3cb4a4">from 794</text>
</g>
<!-- node2060 -->
<g id="node23" class="node">
<title>node2060</title>
<polygon fill="#f9f9f9" stroke="black" points="921.5,-210 726.5,-210 726.5,-174 921.5,-174 921.5,-210"/>
<text text-anchor="middle" x="824" y="-188.3" font-family="Arial" font-size="14.00" fill="#1a1919">2060 BoxNode$AllocatingBox</text>
</g>
<!-- node532&#45;&gt;node2060 -->
<g id="edge34" class="edge">
<title>node532&#45;&gt;node2060</title>
<path fill="none" stroke="#3cb4a4" d="M156.15,-925.25C307.99,-925.63 828,-921.99 828,-854 828,-854 828,-854 828,-278 828,-258.73 826.96,-237.03 825.94,-220.38"/>
<polygon fill="#3cb4a4" stroke="#3cb4a4" points="829.43,-220 825.29,-210.25 822.44,-220.45 829.43,-220"/>
<text text-anchor="middle" x="844.5" y="-572.8" font-family="arial" font-size="14.00" fill="#3cb4a4">value</text>
</g>
<!-- node795 -->
<g id="node4" class="node">
<title>node795</title>
<polygon fill="#e98693" stroke="black" points="168.5,-798 61.5,-798 61.5,-762 168.5,-762 168.5,-798"/>
<text text-anchor="middle" x="115" y="-776.3" font-family="Arial" font-size="14.00" fill="#1a1919">795 LoopBegin</text>
</g>
<!-- node794&#45;&gt;node795 -->
<g id="edge2" class="edge">
<title>node794&#45;&gt;node795</title>
<path fill="none" stroke="#da2d4f" stroke-width="2" d="M115,-834.81C115,-826.79 115,-817.05 115,-808.07"/>
<polygon fill="#da2d4f" stroke="#da2d4f" stroke-width="2" points="118.5,-808.03 115,-798.03 111.5,-808.03 118.5,-808.03"/>
</g>
<!-- node1012 -->
<g id="node6" class="node">
<title>node1012</title>
<polygon fill="#e98693" stroke="black" points="216,-725 158,-725 158,-689 216,-689 216,-725"/>
<text text-anchor="middle" x="187" y="-703.3" font-family="Arial" font-size="14.00" fill="#1a1919">1012 If</text>
</g>
<!-- node795&#45;&gt;node1012 -->
<g id="edge3" class="edge">
<title>node795&#45;&gt;node1012</title>
<path fill="none" stroke="#da2d4f" stroke-width="2" d="M132.43,-761.81C141.45,-752.92 152.61,-741.91 162.49,-732.17"/>
<polygon fill="#da2d4f" stroke="#da2d4f" stroke-width="2" points="165.07,-734.54 169.73,-725.03 160.15,-729.56 165.07,-734.54"/>
</g>
<!-- node795&#45;&gt;node2043 -->
<g id="edge31" class="edge">
<title>node795&#45;&gt;node2043</title>
<path fill="none" stroke="#343d46" stroke-dasharray="5,2" d="M97.03,-753.09C89.74,-740.14 83,-723.88 83,-708 83,-708 83,-708 83,-191 83,-111.27 175.71,-154.39 249,-123 251.92,-121.75 254.96,-120.42 258,-119.09"/>
<polygon fill="#343d46" stroke="#343d46" points="94.18,-755.13 102.35,-761.87 100.17,-751.51 94.18,-755.13"/>
</g>
<!-- node973 -->
<g id="node5" class="node">
<title>node973</title>
<polygon fill="#3cb4a4" stroke="black" points="121,-36 74.25,-18 121,0 167.75,-18 121,-36"/>
<text text-anchor="middle" x="121" y="-14.3" font-family="Arial" font-size="14.00" fill="#1a1919">973 &lt;</text>
</g>
<!-- node973&#45;&gt;node1012 -->
<g id="edge6" class="edge">
<title>node973&#45;&gt;node1012</title>
<path fill="none" stroke="#3cb4a4" d="M121.63,-35.92C123.51,-88.25 129,-252.16 129,-388 129,-621 129,-621 129,-621 129,-644.34 144.1,-665.99 158.89,-681.6"/>
<polygon fill="#3cb4a4" stroke="#3cb4a4" points="156.51,-684.17 166.06,-688.76 161.46,-679.22 156.51,-684.17"/>
<text text-anchor="middle" x="132" y="-348.3" font-family="arial" font-size="14.00" fill="#3cb4a4">?</text>
</g>
<!-- node1015 -->
<g id="node7" class="node">
<title>node1015</title>
<polygon fill="#e98693" stroke="black" points="347.5,-638 262.5,-638 262.5,-602 347.5,-602 347.5,-638"/>
<text text-anchor="middle" x="305" y="-616.3" font-family="Arial" font-size="14.00" fill="#1a1919">1015 Begin</text>
</g>
<!-- node1012&#45;&gt;node1015 -->
<g id="edge8" class="edge">
<title>node1012&#45;&gt;node1015</title>
<path fill="none" stroke="#da2d4f" stroke-width="2" d="M210.88,-688.8C228.71,-675.95 253.28,-658.26 272.84,-644.17"/>
<polygon fill="#da2d4f" stroke="#da2d4f" stroke-width="2" points="275.09,-646.86 281.16,-638.18 271,-641.18 275.09,-646.86"/>
<text text-anchor="middle" x="257.5" y="-659.8" font-family="arial" font-size="14.00" fill="#da2d4f">F</text>
</g>
<!-- node1784 -->
<g id="node16" class="node">
<title>node1784</title>
<polygon fill="#e98693" stroke="black" points="634.5,-638 531.5,-638 531.5,-602 634.5,-602 634.5,-638"/>
<text text-anchor="middle" x="583" y="-616.3" font-family="Arial" font-size="14.00" fill="#1a1919">1784 LoopExit</text>
</g>
<!-- node1012&#45;&gt;node1784 -->
<g id="edge7" class="edge">
<title>node1012&#45;&gt;node1784</title>
<path fill="none" stroke="#da2d4f" stroke-width="2" d="M216.12,-699.75C280.21,-685.99 434.64,-652.85 521.32,-634.24"/>
<polygon fill="#da2d4f" stroke="#da2d4f" stroke-width="2" points="522.25,-637.62 531.29,-632.1 520.78,-630.78 522.25,-637.62"/>
<text text-anchor="middle" x="412.5" y="-659.8" font-family="arial" font-size="14.00" fill="#da2d4f">T</text>
</g>
<!-- node1250 -->
<g id="node9" class="node">
<title>node1250</title>
<polygon fill="#e98693" stroke="black" points="647,-551 589,-551 589,-515 647,-515 647,-551"/>
<text text-anchor="middle" x="618" y="-529.3" font-family="Arial" font-size="14.00" fill="#1a1919">1250 If</text>
</g>
<!-- node1015&#45;&gt;node1250 -->
<g id="edge9" class="edge">
<title>node1015&#45;&gt;node1250</title>
<path fill="none" stroke="#da2d4f" stroke-width="2" d="M347.54,-607.45C408.53,-590.89 519.96,-560.63 578.95,-544.6"/>
<polygon fill="#da2d4f" stroke="#da2d4f" stroke-width="2" points="579.91,-547.97 588.64,-541.97 578.08,-541.21 579.91,-547.97"/>
</g>
<!-- node1207 -->
<g id="node8" class="node">
<title>node1207</title>
<polygon fill="#3cb4a4" stroke="black" points="287,-36 225.33,-18 287,0 348.67,-18 287,-36"/>
<text text-anchor="middle" x="287" y="-14.3" font-family="Arial" font-size="14.00" fill="#1a1919">1207 ==</text>
</g>
<!-- node1207&#45;&gt;node1250 -->
<g id="edge12" class="edge">
<title>node1207&#45;&gt;node1250</title>
<path fill="none" stroke="#3cb4a4" d="M324.61,-25.09C423.46,-41.35 683,-85.78 683,-104 683,-236.5 683,-236.5 683,-236.5 683,-263.42 641.31,-436.77 624.7,-504.73"/>
<polygon fill="#3cb4a4" stroke="#3cb4a4" points="621.24,-504.14 622.26,-514.69 628.04,-505.81 621.24,-504.14"/>
<text text-anchor="middle" x="683" y="-275.3" font-family="arial" font-size="14.00" fill="#3cb4a4">?</text>
</g>
<!-- node1252 -->
<g id="node10" class="node">
<title>node1252</title>
<polygon fill="#e98693" stroke="black" points="579.5,-443 494.5,-443 494.5,-407 579.5,-407 579.5,-443"/>
<text text-anchor="middle" x="537" y="-421.3" font-family="Arial" font-size="14.00" fill="#1a1919">1252 Begin</text>
</g>
<!-- node1250&#45;&gt;node1252 -->
<g id="edge14" class="edge">
<title>node1250&#45;&gt;node1252</title>
<path fill="none" stroke="#da2d4f" stroke-width="2" d="M604.99,-514.97C591.84,-497.76 571.37,-470.98 556.33,-451.29"/>
<polygon fill="#da2d4f" stroke="#da2d4f" stroke-width="2" points="559.1,-449.16 550.25,-443.34 553.54,-453.41 559.1,-449.16"/>
<text text-anchor="middle" x="593.5" y="-475.3" font-family="arial" font-size="14.00" fill="#da2d4f">F</text>
</g>
<!-- node1763 -->
<g id="node15" class="node">
<title>node1763</title>
<polygon fill="#e98693" stroke="black" points="761.5,-443 658.5,-443 658.5,-407 761.5,-407 761.5,-443"/>
<text text-anchor="middle" x="710" y="-421.3" font-family="Arial" font-size="14.00" fill="#1a1919">1763 LoopExit</text>
</g>
<!-- node1250&#45;&gt;node1763 -->
<g id="edge13" class="edge">
<title>node1250&#45;&gt;node1763</title>
<path fill="none" stroke="#da2d4f" stroke-width="2" d="M632.78,-514.97C647.78,-497.69 671.17,-470.74 688.27,-451.03"/>
<polygon fill="#da2d4f" stroke="#da2d4f" stroke-width="2" points="691.04,-453.19 694.95,-443.34 685.75,-448.6 691.04,-453.19"/>
<text text-anchor="middle" x="681.5" y="-475.3" font-family="arial" font-size="14.00" fill="#da2d4f">T</text>
</g>
<!-- node1403 -->
<g id="node11" class="node">
<title>node1403</title>
<ellipse fill="black" stroke="black" cx="514" cy="-352" rx="18" ry="18"/>
</g>
<!-- node1252&#45;&gt;node1403 -->
<g id="edge15" class="edge">
<title>node1252&#45;&gt;node1403</title>
<path fill="none" stroke="#da2d4f" stroke-width="2" d="M531.43,-406.81C528.74,-398.49 525.44,-388.33 522.45,-379.08"/>
<polygon fill="#da2d4f" stroke="#da2d4f" stroke-width="2" points="525.77,-377.97 519.36,-369.54 519.11,-380.13 525.77,-377.97"/>
</g>
<!-- node1663 -->
<g id="node12" class="node">
<title>node1663</title>
<polygon fill="#ffa500" stroke="black" points="647,-297 381,-297 381,-261 647,-261 647,-297"/>
<text text-anchor="middle" x="514" y="-275.3" font-family="Arial" font-size="14.00" fill="#1a1919">1663 Guard not, else ArithmeticException</text>
</g>
<!-- node1403&#45;&gt;node1663 -->
<g id="edge17" class="edge">
<title>node1403&#45;&gt;node1663</title>
<path fill="none" stroke="#da2d4f" stroke-width="2" d="M514,-333.81C514,-325.79 514,-316.05 514,-307.07"/>
<polygon fill="#da2d4f" stroke="#da2d4f" stroke-width="2" points="517.5,-307.03 514,-297.03 510.5,-307.03 517.5,-307.03"/>
</g>
<!-- node1666 -->
<g id="node14" class="node">
<title>node1666</title>
<polygon fill="#3cb4a4" stroke="black" points="287,-210 149.25,-192 287,-174 424.75,-192 287,-210"/>
<text text-anchor="middle" x="287" y="-188.3" font-family="Arial" font-size="14.00" fill="#1a1919">1666 IntegerSubExact</text>
</g>
<!-- node1663&#45;&gt;node1666 -->
<g id="edge24" class="edge">
<title>node1663&#45;&gt;node1666</title>
<path fill="none" stroke="#3cb4a4" d="M478.32,-260.91C456.3,-250.69 427.33,-237.83 401,-228 380.84,-220.48 358.26,-213.29 338.54,-207.41"/>
<polygon fill="#3cb4a4" stroke="#3cb4a4" points="339.4,-204.02 328.82,-204.55 337.43,-210.73 339.4,-204.02"/>
<text text-anchor="middle" x="452.5" y="-231.8" font-family="arial" font-size="14.00" fill="#3cb4a4">guard</text>
</g>
<!-- node1789 -->
<g id="node17" class="node">
<title>node1789</title>
<polygon fill="#e98693" stroke="black" points="585,-210 481,-210 481,-174 585,-174 585,-210"/>
<text text-anchor="middle" x="533" y="-188.3" font-family="Arial" font-size="14.00" fill="#1a1919">1789 LoopEnd</text>
</g>
<!-- node1663&#45;&gt;node1789 -->
<g id="edge19" class="edge">
<title>node1663&#45;&gt;node1789</title>
<path fill="none" stroke="#da2d4f" stroke-width="2" d="M517.84,-260.8C520.45,-249.16 523.94,-233.55 526.91,-220.24"/>
<polygon fill="#da2d4f" stroke="#da2d4f" stroke-width="2" points="530.39,-220.7 529.16,-210.18 523.56,-219.17 530.39,-220.7"/>
</g>
<!-- node1664 -->
<g id="node13" class="node">
<title>node1664</title>
<polygon fill="#3cb4a4" stroke="black" points="613,-36 425.48,-18 613,0 800.52,-18 613,-36"/>
<text text-anchor="middle" x="613" y="-14.3" font-family="Arial" font-size="14.00" fill="#1a1919">1664 IntegerSubExactOverflow</text>
</g>
<!-- node1664&#45;&gt;node1663 -->
<g id="edge18" class="edge">
<title>node1664&#45;&gt;node1663</title>
<path fill="none" stroke="#3cb4a4" d="M615.35,-36.02C619.35,-70.92 624.32,-152.15 594,-210 584.5,-228.12 567.96,-243.42 552.37,-254.89"/>
<polygon fill="#3cb4a4" stroke="#3cb4a4" points="550.04,-252.25 543.86,-260.86 554.06,-257.98 550.04,-252.25"/>
<text text-anchor="middle" x="618" y="-144.8" font-family="arial" font-size="14.00" fill="#3cb4a4">?</text>
</g>
<!-- node1666&#45;&gt;node2043 -->
<g id="edge33" class="edge">
<title>node1666&#45;&gt;node2043</title>
<path fill="none" stroke="#3cb4a4" d="M287,-173.8C287,-162.16 287,-146.55 287,-133.24"/>
<polygon fill="#3cb4a4" stroke="#3cb4a4" points="290.5,-133.18 287,-123.18 283.5,-133.18 290.5,-133.18"/>
<text text-anchor="middle" x="318" y="-144.8" font-family="arial" font-size="14.00" fill="#3cb4a4">from 1789</text>
</g>
<!-- node1854 -->
<g id="node19" class="node">
<title>node1854</title>
<polygon fill="#e98693" stroke="black" points="758,-370 684,-370 684,-334 758,-334 758,-370"/>
<text text-anchor="middle" x="721" y="-348.3" font-family="Arial" font-size="14.00" fill="#1a1919">1854 End</text>
</g>
<!-- node1763&#45;&gt;node1854 -->
<g id="edge25" class="edge">
<title>node1763&#45;&gt;node1854</title>
<path fill="none" stroke="#da2d4f" stroke-width="2" d="M712.66,-406.81C713.91,-398.79 715.42,-389.05 716.81,-380.07"/>
<polygon fill="#da2d4f" stroke="#da2d4f" stroke-width="2" points="720.29,-380.45 718.36,-370.03 713.37,-379.38 720.29,-380.45"/>
</g>
<!-- node1856 -->
<g id="node20" class="node">
<title>node1856</title>
<polygon fill="#e98693" stroke="black" points="799,-497 725,-497 725,-461 799,-461 799,-497"/>
<text text-anchor="middle" x="762" y="-475.3" font-family="Arial" font-size="14.00" fill="#1a1919">1856 End</text>
</g>
<!-- node1784&#45;&gt;node1856 -->
<g id="edge26" class="edge">
<title>node1784&#45;&gt;node1856</title>
<path fill="none" stroke="#da2d4f" stroke-width="2" d="M604.95,-601.96C636.75,-577.26 695.77,-531.43 731.7,-503.53"/>
<polygon fill="#da2d4f" stroke="#da2d4f" stroke-width="2" points="734.12,-506.08 739.87,-497.18 729.83,-500.55 734.12,-506.08"/>
</g>
<!-- node1852 -->
<g id="node18" class="node">
<title>node1852</title>
<polygon fill="#e98693" stroke="black" points="799.5,-297 710.5,-297 710.5,-261 799.5,-261 799.5,-297"/>
<text text-anchor="middle" x="755" y="-275.3" font-family="Arial" font-size="14.00" fill="#1a1919">1852 Merge</text>
</g>
<!-- node1852&#45;&gt;node2060 -->
<g id="edge29" class="edge">
<title>node1852&#45;&gt;node2060</title>
<path fill="none" stroke="#da2d4f" stroke-width="2" d="M768.96,-260.8C778.88,-248.59 792.35,-231.99 803.48,-218.28"/>
<polygon fill="#da2d4f" stroke="#da2d4f" stroke-width="2" points="806.47,-220.15 810.06,-210.18 801.04,-215.73 806.47,-220.15"/>
</g>
<!-- node1854&#45;&gt;node1852 -->
<g id="edge27" class="edge">
<title>node1854&#45;&gt;node1852</title>
<path fill="none" stroke="#da2d4f" stroke-width="2" d="M729.23,-333.81C733.2,-325.53 738.04,-315.41 742.46,-306.19"/>
<polygon fill="#da2d4f" stroke="#da2d4f" stroke-width="2" points="745.68,-307.56 746.85,-297.03 739.37,-304.54 745.68,-307.56"/>
</g>
<!-- node1856&#45;&gt;node1852 -->
<g id="edge28" class="edge">
<title>node1856&#45;&gt;node1852</title>
<path fill="none" stroke="#da2d4f" stroke-width="2" d="M767.36,-460.72C768.85,-455.12 770.26,-448.85 771,-443 774.09,-418.56 767.07,-334.52 767,-334 765.79,-325.21 763.89,-315.72 761.96,-307.2"/>
<polygon fill="#da2d4f" stroke="#da2d4f" stroke-width="2" points="765.34,-306.3 759.62,-297.38 758.53,-307.92 765.34,-306.3"/>
</g>
<!-- node2012 -->
<g id="node21" class="node">
<title>node2012</title>
<polygon fill="#e98693" stroke="black" points="890.5,-123 799.5,-123 799.5,-87 890.5,-87 890.5,-123"/>
<text text-anchor="middle" x="845" y="-101.3" font-family="Arial" font-size="14.00" fill="#1a1919">2012 Return</text>
</g>
<!-- node2043&#45;&gt;node973 -->
<g id="edge4" class="edge">
<title>node2043&#45;&gt;node973</title>
<path fill="none" stroke="#3cb4a4" d="M269.59,-86.8C258.03,-76.15 242.07,-62.86 226,-54 204.89,-42.35 179.25,-33.72 158.59,-27.93"/>
<polygon fill="#3cb4a4" stroke="#3cb4a4" points="159.46,-24.54 148.89,-25.33 157.64,-31.3 159.46,-24.54"/>
<text text-anchor="middle" x="250.5" y="-57.8" font-family="arial" font-size="14.00" fill="#3cb4a4">x</text>
</g>
<!-- node2043&#45;&gt;node1207 -->
<g id="edge10" class="edge">
<title>node2043&#45;&gt;node1207</title>
<path fill="none" stroke="#3cb4a4" d="M287,-86.8C287,-75.16 287,-59.55 287,-46.24"/>
<polygon fill="#3cb4a4" stroke="#3cb4a4" points="290.5,-46.18 287,-36.18 283.5,-46.18 290.5,-46.18"/>
<text text-anchor="middle" x="290.5" y="-57.8" font-family="arial" font-size="14.00" fill="#3cb4a4">x</text>
</g>
<!-- node2043&#45;&gt;node1403 -->
<g id="edge16" class="edge">
<title>node2043&#45;&gt;node1403</title>
<path fill="none" stroke="#3cb4a4" d="M316.29,-110.11C351.21,-116.76 408.1,-133.49 434,-174 442.62,-187.48 443.8,-197.36 434,-210 414.32,-235.39 383.68,-202.61 364,-228 345.08,-252.4 352.65,-272.94 372,-297 399.92,-331.72 452.81,-344.13 485.57,-348.56"/>
<polygon fill="#3cb4a4" stroke="#3cb4a4" points="485.5,-352.07 495.84,-349.77 486.32,-345.12 485.5,-352.07"/>
<text text-anchor="middle" x="380.5" y="-231.8" font-family="arial" font-size="14.00" fill="#3cb4a4">value</text>
</g>
<!-- node2043&#45;&gt;node1664 -->
<g id="edge20" class="edge">
<title>node2043&#45;&gt;node1664</title>
<path fill="none" stroke="#3cb4a4" d="M316.22,-96.38C369.92,-82.38 485.2,-52.32 555.23,-34.06"/>
<polygon fill="#3cb4a4" stroke="#3cb4a4" points="556.43,-37.37 565.22,-31.46 554.66,-30.59 556.43,-37.37"/>
<text text-anchor="middle" x="472.5" y="-57.8" font-family="arial" font-size="14.00" fill="#3cb4a4">x</text>
</g>
<!-- node2043&#45;&gt;node1666 -->
<g id="edge22" class="edge">
<title>node2043&#45;&gt;node1666</title>
<path fill="none" stroke="#3cb4a4" d="M279.43,-123C276.03,-132.62 273.15,-144.9 275,-156 275.49,-158.91 276.18,-161.9 277,-164.86"/>
<polygon fill="#3cb4a4" stroke="#3cb4a4" points="273.72,-166.1 280.11,-174.56 280.39,-163.97 273.72,-166.1"/>
<text text-anchor="middle" x="278.5" y="-144.8" font-family="arial" font-size="14.00" fill="#3cb4a4">x</text>
</g>
<!-- node2060&#45;&gt;node2012 -->
<g id="edge30" class="edge">
<title>node2060&#45;&gt;node2012</title>
<path fill="none" stroke="#3cb4a4" d="M828.25,-173.8C831.12,-162.16 834.98,-146.55 838.27,-133.24"/>
<polygon fill="#3cb4a4" stroke="#3cb4a4" points="841.76,-133.72 840.76,-123.18 834.96,-132.04 841.76,-133.72"/>
<text text-anchor="middle" x="852" y="-144.8" font-family="arial" font-size="14.00" fill="#3cb4a4">result</text>
</g>
<!-- node2060&#45;&gt;node2012 -->
<g id="edge35" class="edge">
<title>node2060&#45;&gt;node2012</title>
<path fill="none" stroke="#da2d4f" stroke-width="2" d="M826.97,-173.77C828.76,-164.09 831.23,-151.8 834,-141 834.67,-138.37 835.43,-135.65 836.22,-132.94"/>
<polygon fill="#da2d4f" stroke="#da2d4f" stroke-width="2" points="839.57,-133.93 839.15,-123.34 832.88,-131.88 839.57,-133.93"/>
</g>
<!-- node2061&#45;&gt;node532 -->
<g id="edge39" class="edge">
<title>node2061&#45;&gt;node532</title>
<path fill="none" stroke="#da2d4f" stroke-width="2" d="M75.07,-988.86C81.88,-978.3 90.75,-964.56 98.4,-952.71"/>
<polygon fill="#da2d4f" stroke="#da2d4f" stroke-width="2" points="101.47,-954.41 103.96,-944.11 95.59,-950.61 101.47,-954.41"/>
</g>
<!-- inline23x973 -->
<g id="node25" class="node">
<title>inline23x973</title>
<ellipse fill="#d7ede7" stroke="black" cx="66" cy="-105" rx="27" ry="18"/>
<text text-anchor="middle" x="66" y="-103.1" font-family="Arial" font-size="8.00" fill="#1a1919">23 C(1)</text>
</g>
<!-- inline23x973&#45;&gt;node973 -->
<g id="edge5" class="edge">
<title>inline23x973&#45;&gt;node973</title>
<path fill="none" stroke="#3cb4a4" d="M76.35,-88.01C86.68,-72.05 102.39,-47.77 112.15,-32.67"/>
<text text-anchor="middle" x="98" y="-59.6" font-family="arial" font-size="8.00" fill="#3cb4a4">y</text>
</g>
<!-- inline105x1207 -->
<g id="node26" class="node">
<title>inline105x1207</title>
<ellipse fill="#d7ede7" stroke="black" cx="212" cy="-105" rx="27.59" ry="18"/>
<text text-anchor="middle" x="212" y="-103.1" font-family="Arial" font-size="8.00" fill="#1a1919">105 C(4)</text>
</g>
<!-- inline105x1207&#45;&gt;node1207 -->
<g id="edge11" class="edge">
<title>inline105x1207&#45;&gt;node1207</title>
<path fill="none" stroke="#3cb4a4" d="M211.87,-86.78C212.61,-76.39 215.05,-63.39 222,-54 231.07,-41.74 245.76,-33.32 258.87,-27.81"/>
<text text-anchor="middle" x="224" y="-59.6" font-family="arial" font-size="8.00" fill="#3cb4a4">y</text>
</g>
<!-- inline23x1664 -->
<g id="node27" class="node">
<title>inline23x1664</title>
<ellipse fill="#d7ede7" stroke="black" cx="738" cy="-105" rx="27" ry="18"/>
<text text-anchor="middle" x="738" y="-103.1" font-family="Arial" font-size="8.00" fill="#1a1919">23 C(1)</text>
</g>
<!-- inline23x1664&#45;&gt;node1664 -->
<g id="edge21" class="edge">
<title>inline23x1664&#45;&gt;node1664</title>
<path fill="none" stroke="#3cb4a4" d="M727.82,-87.82C720.37,-77.05 709.43,-63.24 697,-54 684.58,-44.76 669.35,-37.47 655.3,-31.98"/>
<text text-anchor="middle" x="714" y="-59.6" font-family="arial" font-size="8.00" fill="#3cb4a4">y</text>
</g>
<!-- inline23x1666 -->
<g id="node28" class="node">
<title>inline23x1666</title>
<ellipse fill="#d7ede7" stroke="black" cx="287" cy="-279" rx="27" ry="18"/>
<text text-anchor="middle" x="287" y="-277.1" font-family="Arial" font-size="8.00" fill="#1a1919">23 C(1)</text>
</g>
<!-- inline23x1666&#45;&gt;node1666 -->
<g id="edge23" class="edge">
<title>inline23x1666&#45;&gt;node1666</title>
<path fill="none" stroke="#3cb4a4" d="M287,-260.8C287,-246.05 287,-224.92 287,-210.18"/>
<text text-anchor="middle" x="289" y="-233.6" font-family="arial" font-size="8.00" fill="#3cb4a4">y</text>
</g>
<!-- inline161x532 -->
<g id="node29" class="node">
<title>inline161x532</title>
<ellipse fill="#d7ede7" stroke="black" cx="166" cy="-1007" rx="27.46" ry="18"/>
<text text-anchor="middle" x="166" y="-1005.1" font-family="Arial" font-size="8.00" fill="#1a1919">161 T(7)</text>
</g>
<!-- inline161x532&#45;&gt;node532 -->
<g id="edge36" class="edge">
<title>inline161x532&#45;&gt;node532</title>
<path fill="none" stroke="#3cb4a4" d="M155.68,-990.01C147.06,-976.67 134.81,-957.69 126.01,-944.06"/>
<text text-anchor="middle" x="151.5" y="-964.6" font-family="arial" font-size="8.00" fill="#3cb4a4">value</text>
</g>
<!-- inline2x2061 -->
<g id="node30" class="node">
<title>inline2x2061</title>
<ellipse fill="#d7ede7" stroke="black" cx="101" cy="-1088" rx="27" ry="18"/>
<text text-anchor="middle" x="101" y="-1086.1" font-family="Arial" font-size="8.00" fill="#1a1919">2 P(1)</text>
</g>
<!-- inline2x2061&#45;&gt;node2061 -->
<g id="edge37" class="edge">
<title>inline2x2061&#45;&gt;node2061</title>
<path fill="none" stroke="#3cb4a4" d="M93.33,-1070.63C87.11,-1057.34 78.36,-1038.67 72.04,-1025.17"/>
<text text-anchor="middle" x="93.5" y="-1045.6" font-family="arial" font-size="8.00" fill="#3cb4a4">array</text>
</g>
</g>
</svg>
