<?xml version="1.0" encoding="UTF-8" standalone="no"?>
<!DOCTYPE svg PUBLIC "-//W3C//DTD SVG 1.1//EN"
 "http://www.w3.org/Graphics/SVG/1.1/DTD/svg11.dtd">
<!-- Generated by graphviz version 2.44.1 (20200629.0846)
 -->
<!-- Title: G Pages: 1 -->
<svg width="624pt" height="1290pt"
 viewBox="0.00 0.00 624.00 1290.00" xmlns="http://www.w3.org/2000/svg" xmlns:xlink="http://www.w3.org/1999/xlink">
<g id="graph0" class="graph" transform="scale(1 1) rotate(0) translate(4 1286)">
<title>G</title>
<!-- node0 -->
<g id="node1" class="node">
<title>node0</title>
<polygon fill="#e98693" stroke="black" points="297,-1282 241,-1282 241,-1246 297,-1246 297,-1282"/>
<text text-anchor="middle" x="269" y="-1260.3" font-family="Arial" font-size="14.00" fill="#1a1919">0 Start</text>
</g>
<!-- node3904 -->
<g id="node23" class="node">
<title>node3904</title>
<polygon fill="#da2d4f" stroke="black" points="361.5,-1201 248.5,-1201 248.5,-1165 361.5,-1165 361.5,-1201"/>
<text text-anchor="middle" x="305" y="-1179.3" font-family="Arial" font-size="14.00" fill="#ffffff">3904 Load T(...)</text>
</g>
<!-- node0&#45;&gt;node3904 -->
<g id="edge39" class="edge">
<title>node0&#45;&gt;node3904</title>
<path fill="none" stroke="#da2d4f" stroke-width="2" d="M276.81,-1245.86C281.53,-1235.51 287.64,-1222.1 292.96,-1210.41"/>
<polygon fill="#da2d4f" stroke="#da2d4f" stroke-width="2" points="296.24,-1211.66 297.2,-1201.11 289.87,-1208.76 296.24,-1211.66"/>
</g>
<!-- node583 -->
<g id="node2" class="node">
<title>node583</title>
<polygon fill="#f9f9f9" stroke="black" points="415,-1120 333,-1120 333,-1084 415,-1084 415,-1120"/>
<text text-anchor="middle" x="374" y="-1098.3" font-family="Arial" font-size="14.00" fill="#1a1919">583 Unbox</text>
</g>
<!-- node738 -->
<g id="node3" class="node">
<title>node738</title>
<polygon fill="#f9f9f9" stroke="black" points="560,-1033 478,-1033 478,-997 560,-997 560,-1033"/>
<text text-anchor="middle" x="519" y="-1011.3" font-family="Arial" font-size="14.00" fill="#1a1919">738 Unbox</text>
</g>
<!-- node583&#45;&gt;node738 -->
<g id="edge1" class="edge">
<title>node583&#45;&gt;node738</title>
<path fill="none" stroke="#da2d4f" stroke-width="2" d="M403.34,-1083.8C425.65,-1070.72 456.53,-1052.62 480.77,-1038.41"/>
<polygon fill="#da2d4f" stroke="#da2d4f" stroke-width="2" points="482.84,-1041.25 489.7,-1033.18 479.3,-1035.21 482.84,-1041.25"/>
</g>
<!-- node1462 -->
<g id="node6" class="node">
<title>node1462</title>
<polygon fill="#3cb4a4" stroke="black" points="316,-1033 254.33,-1015 316,-997 377.67,-1015 316,-1033"/>
<text text-anchor="middle" x="316" y="-1011.3" font-family="Arial" font-size="14.00" fill="#1a1919">1462 ==</text>
</g>
<!-- node583&#45;&gt;node1462 -->
<g id="edge5" class="edge">
<title>node583&#45;&gt;node1462</title>
<path fill="none" stroke="#3cb4a4" d="M362.26,-1083.8C353.47,-1070.91 341.33,-1053.13 331.7,-1039.01"/>
<polygon fill="#3cb4a4" stroke="#3cb4a4" points="334.32,-1036.64 325.79,-1030.35 328.54,-1040.59 334.32,-1036.64"/>
<text text-anchor="middle" x="351.5" y="-1054.8" font-family="arial" font-size="14.00" fill="#3cb4a4">x</text>
</g>
<!-- node2273 -->
<g id="node10" class="node">
<title>node2273</title>
<polygon fill="#3cb4a4" stroke="black" points="88,-1033 26.33,-1015 88,-997 149.67,-1015 88,-1033"/>
<text text-anchor="middle" x="88" y="-1011.3" font-family="Arial" font-size="14.00" fill="#1a1919">2273 ==</text>
</g>
<!-- node583&#45;&gt;node2273 -->
<g id="edge12" class="edge">
<title>node583&#45;&gt;node2273</title>
<path fill="none" stroke="#3cb4a4" d="M332.85,-1086.84C329.86,-1085.86 326.89,-1084.91 324,-1084 255.59,-1062.53 175.22,-1039.92 128.12,-1026.94"/>
<polygon fill="#3cb4a4" stroke="#3cb4a4" points="128.88,-1023.52 118.31,-1024.24 127.03,-1030.27 128.88,-1023.52"/>
<text text-anchor="middle" x="263.5" y="-1054.8" font-family="arial" font-size="14.00" fill="#3cb4a4">x</text>
</g>
<!-- node892 -->
<g id="node4" class="node">
<title>node892</title>
<polygon fill="#f9f9f9" stroke="black" points="518,-952 436,-952 436,-916 518,-916 518,-952"/>
<text text-anchor="middle" x="477" y="-930.3" font-family="Arial" font-size="14.00" fill="#1a1919">892 Unbox</text>
</g>
<!-- node738&#45;&gt;node892 -->
<g id="edge2" class="edge">
<title>node738&#45;&gt;node892</title>
<path fill="none" stroke="#da2d4f" stroke-width="2" d="M509.89,-996.86C504.33,-986.4 497.11,-972.83 490.86,-961.06"/>
<polygon fill="#da2d4f" stroke="#da2d4f" stroke-width="2" points="493.88,-959.3 486.1,-952.11 487.7,-962.58 493.88,-959.3"/>
</g>
<!-- node3895 -->
<g id="node21" class="node">
<title>node3895</title>
<polygon fill="#f9f9f9" stroke="black" points="416,-210 358,-210 358,-174 416,-174 416,-210"/>
<text text-anchor="middle" x="387" y="-188.3" font-family="Arial" font-size="14.00" fill="#1a1919">3895 ϕ</text>
</g>
<!-- node738&#45;&gt;node3895 -->
<g id="edge28" class="edge">
<title>node738&#45;&gt;node3895</title>
<path fill="none" stroke="#3cb4a4" d="M531.64,-996.77C541.66,-981.38 554,-957.8 554,-935 554,-935 554,-935 554,-264 554,-208.7 475.5,-195.86 426.14,-193.24"/>
<polygon fill="#3cb4a4" stroke="#3cb4a4" points="426.22,-189.74 416.09,-192.83 425.94,-196.74 426.22,-189.74"/>
<text text-anchor="middle" x="585" y="-602.3" font-family="arial" font-size="14.00" fill="#3cb4a4">from 3506</text>
</g>
<!-- node1046 -->
<g id="node5" class="node">
<title>node1046</title>
<polygon fill="#f9f9f9" stroke="black" points="433.5,-871 344.5,-871 344.5,-835 433.5,-835 433.5,-871"/>
<text text-anchor="middle" x="389" y="-849.3" font-family="Arial" font-size="14.00" fill="#1a1919">1046 Unbox</text>
</g>
<!-- node892&#45;&gt;node1046 -->
<g id="edge3" class="edge">
<title>node892&#45;&gt;node1046</title>
<path fill="none" stroke="#da2d4f" stroke-width="2" d="M457.91,-915.86C445.57,-904.78 429.33,-890.21 415.72,-877.99"/>
<polygon fill="#da2d4f" stroke="#da2d4f" stroke-width="2" points="417.84,-875.18 408.06,-871.11 413.16,-880.39 417.84,-875.18"/>
</g>
<!-- node892&#45;&gt;node3895 -->
<g id="edge29" class="edge">
<title>node892&#45;&gt;node3895</title>
<path fill="none" stroke="#3cb4a4" d="M477,-915.74C477,-899.74 477,-875.26 477,-854 477,-854 477,-854 477,-264 477,-236.24 450.28,-217.65 425.96,-206.48"/>
<polygon fill="#3cb4a4" stroke="#3cb4a4" points="427.04,-203.14 416.47,-202.42 424.29,-209.57 427.04,-203.14"/>
<text text-anchor="middle" x="508" y="-558.8" font-family="arial" font-size="14.00" fill="#3cb4a4">from 3508</text>
</g>
<!-- node3828 -->
<g id="node19" class="node">
<title>node3828</title>
<polygon fill="#ffa500" stroke="black" points="279.5,-784 28.5,-784 28.5,-748 279.5,-748 279.5,-784"/>
<text text-anchor="middle" x="154" y="-762.3" font-family="Arial" font-size="14.00" fill="#1a1919">3828 Guard, else TransferToInterpreter</text>
</g>
<!-- node1046&#45;&gt;node3828 -->
<g id="edge4" class="edge">
<title>node1046&#45;&gt;node3828</title>
<path fill="none" stroke="#da2d4f" stroke-width="2" d="M344.25,-835.81C306.27,-822.08 251.59,-802.3 210.59,-787.47"/>
<polygon fill="#da2d4f" stroke="#da2d4f" stroke-width="2" points="211.6,-784.11 201,-784 209.22,-790.69 211.6,-784.11"/>
</g>
<!-- node1046&#45;&gt;node3895 -->
<g id="edge30" class="edge">
<title>node1046&#45;&gt;node3895</title>
<path fill="none" stroke="#3cb4a4" d="M388.36,-834.75C387.77,-817.58 387,-790.47 387,-767 387,-767 387,-767 387,-264 387,-249.65 387,-233.67 387,-220.51"/>
<polygon fill="#3cb4a4" stroke="#3cb4a4" points="390.5,-220.22 387,-210.22 383.5,-220.22 390.5,-220.22"/>
<text text-anchor="middle" x="418" y="-515.3" font-family="arial" font-size="14.00" fill="#3cb4a4">from 3863</text>
</g>
<!-- node1505 -->
<g id="node7" class="node">
<title>node1505</title>
<polygon fill="#e98693" stroke="black" points="309,-537 251,-537 251,-501 309,-501 309,-537"/>
<text text-anchor="middle" x="280" y="-515.3" font-family="Arial" font-size="14.00" fill="#1a1919">1505 If</text>
</g>
<!-- node1462&#45;&gt;node1505 -->
<g id="edge7" class="edge">
<title>node1462&#45;&gt;node1505</title>
<path fill="none" stroke="#3cb4a4" d="M316,-996.74C316,-980.74 316,-956.26 316,-935 316,-935 316,-935 316,-605 316,-583.97 306.54,-562.16 297.32,-545.9"/>
<polygon fill="#3cb4a4" stroke="#3cb4a4" points="300.13,-543.79 291.99,-537.02 294.13,-547.39 300.13,-543.79"/>
<text text-anchor="middle" x="320" y="-762.3" font-family="arial" font-size="14.00" fill="#3cb4a4">?</text>
</g>
<!-- node1508 -->
<g id="node9" class="node">
<title>node1508</title>
<polygon fill="#e98693" stroke="black" points="255.5,-429 170.5,-429 170.5,-393 255.5,-393 255.5,-429"/>
<text text-anchor="middle" x="213" y="-407.3" font-family="Arial" font-size="14.00" fill="#1a1919">1508 Begin</text>
</g>
<!-- node1505&#45;&gt;node1508 -->
<g id="edge8" class="edge">
<title>node1505&#45;&gt;node1508</title>
<path fill="none" stroke="#da2d4f" stroke-width="2" d="M269.24,-500.97C258.46,-483.92 241.73,-457.46 229.32,-437.82"/>
<polygon fill="#da2d4f" stroke="#da2d4f" stroke-width="2" points="232.26,-435.92 223.96,-429.34 226.34,-439.66 232.26,-435.92"/>
<text text-anchor="middle" x="261.5" y="-461.3" font-family="arial" font-size="14.00" fill="#da2d4f">T</text>
</g>
<!-- node2318 -->
<g id="node12" class="node">
<title>node2318</title>
<polygon fill="#e98693" stroke="black" points="358.5,-429 273.5,-429 273.5,-393 358.5,-393 358.5,-429"/>
<text text-anchor="middle" x="316" y="-407.3" font-family="Arial" font-size="14.00" fill="#1a1919">2318 Begin</text>
</g>
<!-- node1505&#45;&gt;node2318 -->
<g id="edge9" class="edge">
<title>node1505&#45;&gt;node2318</title>
<path fill="none" stroke="#da2d4f" stroke-width="2" d="M285.78,-500.97C291.47,-484.22 300.24,-458.41 306.87,-438.89"/>
<polygon fill="#da2d4f" stroke="#da2d4f" stroke-width="2" points="310.21,-439.93 310.11,-429.34 303.58,-437.68 310.21,-439.93"/>
<text text-anchor="middle" x="308.5" y="-461.3" font-family="arial" font-size="14.00" fill="#da2d4f">F</text>
</g>
<!-- node1507 -->
<g id="node8" class="node">
<title>node1507</title>
<polygon fill="#e98693" stroke="black" points="287.5,-624 202.5,-624 202.5,-588 287.5,-588 287.5,-624"/>
<text text-anchor="middle" x="245" y="-602.3" font-family="Arial" font-size="14.00" fill="#1a1919">1507 Begin</text>
</g>
<!-- node1507&#45;&gt;node1505 -->
<g id="edge10" class="edge">
<title>node1507&#45;&gt;node1505</title>
<path fill="none" stroke="#da2d4f" stroke-width="2" d="M252.08,-587.8C256.97,-575.93 263.56,-559.93 269.11,-546.45"/>
<polygon fill="#da2d4f" stroke="#da2d4f" stroke-width="2" points="272.36,-547.75 272.93,-537.18 265.88,-545.09 272.36,-547.75"/>
</g>
<!-- node3506 -->
<g id="node16" class="node">
<title>node3506</title>
<polygon fill="#e98693" stroke="black" points="256,-356 182,-356 182,-320 256,-320 256,-356"/>
<text text-anchor="middle" x="219" y="-334.3" font-family="Arial" font-size="14.00" fill="#1a1919">3506 End</text>
</g>
<!-- node1508&#45;&gt;node3506 -->
<g id="edge11" class="edge">
<title>node1508&#45;&gt;node3506</title>
<path fill="none" stroke="#da2d4f" stroke-width="2" d="M214.45,-392.81C215.13,-384.79 215.95,-375.05 216.71,-366.07"/>
<polygon fill="#da2d4f" stroke="#da2d4f" stroke-width="2" points="220.21,-366.29 217.56,-356.03 213.23,-365.7 220.21,-366.29"/>
</g>
<!-- node2316 -->
<g id="node11" class="node">
<title>node2316</title>
<polygon fill="#e98693" stroke="black" points="176,-711 118,-711 118,-675 176,-675 176,-711"/>
<text text-anchor="middle" x="147" y="-689.3" font-family="Arial" font-size="14.00" fill="#1a1919">2316 If</text>
</g>
<!-- node2273&#45;&gt;node2316 -->
<g id="edge14" class="edge">
<title>node2273&#45;&gt;node2316</title>
<path fill="none" stroke="#3cb4a4" d="M63.02,-1004.21C37,-992.18 0,-969.08 0,-935 0,-935 0,-935 0,-765 0,-716.98 64.38,-701.43 107.93,-696.39"/>
<polygon fill="#3cb4a4" stroke="#3cb4a4" points="108.36,-699.87 117.96,-695.38 107.66,-692.9 108.36,-699.87"/>
<text text-anchor="middle" x="4" y="-849.3" font-family="arial" font-size="14.00" fill="#3cb4a4">?</text>
</g>
<!-- node2316&#45;&gt;node1507 -->
<g id="edge16" class="edge">
<title>node2316&#45;&gt;node1507</title>
<path fill="none" stroke="#da2d4f" stroke-width="2" d="M166.83,-674.8C181.44,-662.13 201.5,-644.73 217.63,-630.74"/>
<polygon fill="#da2d4f" stroke="#da2d4f" stroke-width="2" points="219.94,-633.37 225.2,-624.18 215.35,-628.08 219.94,-633.37"/>
<text text-anchor="middle" x="206.5" y="-645.8" font-family="arial" font-size="14.00" fill="#da2d4f">F</text>
</g>
<!-- node2319 -->
<g id="node13" class="node">
<title>node2319</title>
<polygon fill="#e98693" stroke="black" points="184.5,-624 99.5,-624 99.5,-588 184.5,-588 184.5,-624"/>
<text text-anchor="middle" x="142" y="-602.3" font-family="Arial" font-size="14.00" fill="#1a1919">2319 Begin</text>
</g>
<!-- node2316&#45;&gt;node2319 -->
<g id="edge15" class="edge">
<title>node2316&#45;&gt;node2319</title>
<path fill="none" stroke="#da2d4f" stroke-width="2" d="M145.99,-674.8C145.3,-663.16 144.39,-647.55 143.6,-634.24"/>
<polygon fill="#da2d4f" stroke="#da2d4f" stroke-width="2" points="147.09,-633.95 143.01,-624.18 140.1,-634.36 147.09,-633.95"/>
<text text-anchor="middle" x="149.5" y="-645.8" font-family="arial" font-size="14.00" fill="#da2d4f">T</text>
</g>
<!-- node3863 -->
<g id="node20" class="node">
<title>node3863</title>
<polygon fill="#e98693" stroke="black" points="353,-356 279,-356 279,-320 353,-320 353,-356"/>
<text text-anchor="middle" x="316" y="-334.3" font-family="Arial" font-size="14.00" fill="#1a1919">3863 End</text>
</g>
<!-- node2318&#45;&gt;node3863 -->
<g id="edge17" class="edge">
<title>node2318&#45;&gt;node3863</title>
<path fill="none" stroke="#da2d4f" stroke-width="2" d="M316,-392.81C316,-384.79 316,-375.05 316,-366.07"/>
<polygon fill="#da2d4f" stroke="#da2d4f" stroke-width="2" points="319.5,-366.03 316,-356.03 312.5,-366.03 319.5,-366.03"/>
</g>
<!-- node3508 -->
<g id="node17" class="node">
<title>node3508</title>
<polygon fill="#e98693" stroke="black" points="179,-483 105,-483 105,-447 179,-447 179,-483"/>
<text text-anchor="middle" x="142" y="-461.3" font-family="Arial" font-size="14.00" fill="#1a1919">3508 End</text>
</g>
<!-- node2319&#45;&gt;node3508 -->
<g id="edge18" class="edge">
<title>node2319&#45;&gt;node3508</title>
<path fill="none" stroke="#da2d4f" stroke-width="2" d="M142,-587.96C142,-564.4 142,-521.64 142,-493.53"/>
<polygon fill="#da2d4f" stroke="#da2d4f" stroke-width="2" points="145.5,-493.18 142,-483.18 138.5,-493.18 145.5,-493.18"/>
</g>
<!-- node3127 -->
<g id="node14" class="node">
<title>node3127</title>
<polygon fill="#3cb4a4" stroke="black" points="154,-871 92.33,-853 154,-835 215.67,-853 154,-871"/>
<text text-anchor="middle" x="154" y="-849.3" font-family="Arial" font-size="14.00" fill="#1a1919">3127 ==</text>
</g>
<!-- node3127&#45;&gt;node3828 -->
<g id="edge25" class="edge">
<title>node3127&#45;&gt;node3828</title>
<path fill="none" stroke="#3cb4a4" d="M154,-834.8C154,-823.16 154,-807.55 154,-794.24"/>
<polygon fill="#3cb4a4" stroke="#3cb4a4" points="157.5,-794.18 154,-784.18 150.5,-794.18 157.5,-794.18"/>
<text text-anchor="middle" x="158" y="-805.8" font-family="arial" font-size="14.00" fill="#3cb4a4">?</text>
</g>
<!-- node3504 -->
<g id="node15" class="node">
<title>node3504</title>
<polygon fill="#e98693" stroke="black" points="358.5,-283 269.5,-283 269.5,-247 358.5,-247 358.5,-283"/>
<text text-anchor="middle" x="314" y="-261.3" font-family="Arial" font-size="14.00" fill="#1a1919">3504 Merge</text>
</g>
<!-- node3504&#45;&gt;node3895 -->
<g id="edge27" class="edge">
<title>node3504&#45;&gt;node3895</title>
<path fill="none" stroke="#343d46" stroke-dasharray="5,2" d="M339.03,-239.65C349.06,-229.9 360.37,-218.9 369.49,-210.03"/>
<polygon fill="#343d46" stroke="#343d46" points="336.4,-237.33 331.67,-246.81 341.28,-242.35 336.4,-237.33"/>
</g>
<!-- node3903 -->
<g id="node22" class="node">
<title>node3903</title>
<polygon fill="#f9f9f9" stroke="black" points="435.5,-123 240.5,-123 240.5,-87 435.5,-87 435.5,-123"/>
<text text-anchor="middle" x="338" y="-101.3" font-family="Arial" font-size="14.00" fill="#1a1919">3903 BoxNode$AllocatingBox</text>
</g>
<!-- node3504&#45;&gt;node3903 -->
<g id="edge23" class="edge">
<title>node3504&#45;&gt;node3903</title>
<path fill="none" stroke="#da2d4f" stroke-width="2" d="M316.61,-246.79C320.76,-219.48 328.89,-165.99 333.84,-133.38"/>
<polygon fill="#da2d4f" stroke="#da2d4f" stroke-width="2" points="337.35,-133.6 335.39,-123.19 330.43,-132.55 337.35,-133.6"/>
</g>
<!-- node3506&#45;&gt;node3504 -->
<g id="edge20" class="edge">
<title>node3506&#45;&gt;node3504</title>
<path fill="none" stroke="#da2d4f" stroke-width="2" d="M242,-319.81C254.37,-310.57 269.79,-299.04 283.18,-289.03"/>
<polygon fill="#da2d4f" stroke="#da2d4f" stroke-width="2" points="285.3,-291.82 291.21,-283.03 281.11,-286.21 285.3,-291.82"/>
</g>
<!-- node3508&#45;&gt;node3504 -->
<g id="edge21" class="edge">
<title>node3508&#45;&gt;node3504</title>
<path fill="none" stroke="#da2d4f" stroke-width="2" d="M140.78,-446.64C139.66,-417.05 141.72,-356.51 173,-320 194.76,-294.61 229.85,-281.11 259.58,-273.96"/>
<polygon fill="#da2d4f" stroke="#da2d4f" stroke-width="2" points="260.43,-277.36 269.43,-271.77 258.91,-270.53 260.43,-277.36"/>
</g>
<!-- node3593 -->
<g id="node18" class="node">
<title>node3593</title>
<polygon fill="#e98693" stroke="black" points="383.5,-36 292.5,-36 292.5,0 383.5,0 383.5,-36"/>
<text text-anchor="middle" x="338" y="-14.3" font-family="Arial" font-size="14.00" fill="#1a1919">3593 Return</text>
</g>
<!-- node3828&#45;&gt;node2316 -->
<g id="edge26" class="edge">
<title>node3828&#45;&gt;node2316</title>
<path fill="none" stroke="#da2d4f" stroke-width="2" d="M152.31,-747.81C151.51,-739.79 150.55,-730.05 149.67,-721.07"/>
<polygon fill="#da2d4f" stroke="#da2d4f" stroke-width="2" points="153.14,-720.64 148.68,-711.03 146.18,-721.32 153.14,-720.64"/>
</g>
<!-- node3863&#45;&gt;node3504 -->
<g id="edge22" class="edge">
<title>node3863&#45;&gt;node3504</title>
<path fill="none" stroke="#da2d4f" stroke-width="2" d="M315.52,-319.81C315.29,-311.79 315.02,-302.05 314.76,-293.07"/>
<polygon fill="#da2d4f" stroke="#da2d4f" stroke-width="2" points="318.26,-292.93 314.48,-283.03 311.26,-293.12 318.26,-292.93"/>
</g>
<!-- node3895&#45;&gt;node3903 -->
<g id="edge31" class="edge">
<title>node3895&#45;&gt;node3903</title>
<path fill="none" stroke="#3cb4a4" d="M377.08,-173.8C370.18,-161.82 360.84,-145.62 353.02,-132.06"/>
<polygon fill="#3cb4a4" stroke="#3cb4a4" points="355.93,-130.09 347.9,-123.18 349.86,-133.59 355.93,-130.09"/>
<text text-anchor="middle" x="381.5" y="-144.8" font-family="arial" font-size="14.00" fill="#3cb4a4">value</text>
</g>
<!-- node3903&#45;&gt;node3593 -->
<g id="edge24" class="edge">
<title>node3903&#45;&gt;node3593</title>
<path fill="none" stroke="#3cb4a4" d="M323.9,-86.84C320.28,-81.46 316.88,-75.27 315,-69 312.59,-60.93 314.56,-52.49 318.19,-44.89"/>
<polygon fill="#3cb4a4" stroke="#3cb4a4" points="321.29,-46.53 323.25,-36.12 315.22,-43.03 321.29,-46.53"/>
<text text-anchor="middle" x="332" y="-57.8" font-family="arial" font-size="14.00" fill="#3cb4a4">result</text>
</g>
<!-- node3903&#45;&gt;node3593 -->
<g id="edge32" class="edge">
<title>node3903&#45;&gt;node3593</title>
<path fill="none" stroke="#da2d4f" stroke-width="2" d="M344.55,-86.8C346.37,-81.21 348.09,-74.92 349,-69 350.17,-61.39 349.29,-53.2 347.61,-45.71"/>
<polygon fill="#da2d4f" stroke="#da2d4f" stroke-width="2" points="350.97,-44.74 344.94,-36.02 344.22,-46.59 350.97,-44.74"/>
</g>
<!-- node3904&#45;&gt;node583 -->
<g id="edge40" class="edge">
<title>node3904&#45;&gt;node583</title>
<path fill="none" stroke="#da2d4f" stroke-width="2" d="M319.97,-1164.86C329.47,-1153.99 341.9,-1139.75 352.45,-1127.67"/>
<polygon fill="#da2d4f" stroke="#da2d4f" stroke-width="2" points="355.12,-1129.94 359.06,-1120.11 349.84,-1125.34 355.12,-1129.94"/>
</g>
<!-- inline5x1462 -->
<g id="node24" class="node">
<title>inline5x1462</title>
<ellipse fill="#d7ede7" stroke="black" cx="288" cy="-1102" rx="27" ry="18"/>
<text text-anchor="middle" x="288" y="-1100.1" font-family="Arial" font-size="8.00" fill="#1a1919">5 C(0)</text>
</g>
<!-- inline5x1462&#45;&gt;node1462 -->
<g id="edge6" class="edge">
<title>inline5x1462&#45;&gt;node1462</title>
<path fill="none" stroke="#3cb4a4" d="M293.53,-1084.21C298.57,-1068.92 305.95,-1046.52 310.86,-1031.61"/>
<text text-anchor="middle" x="306" y="-1056.6" font-family="arial" font-size="8.00" fill="#3cb4a4">y</text>
</g>
<!-- inline23x2273 -->
<g id="node25" class="node">
<title>inline23x2273</title>
<ellipse fill="#d7ede7" stroke="black" cx="88" cy="-1102" rx="27" ry="18"/>
<text text-anchor="middle" x="88" y="-1100.1" font-family="Arial" font-size="8.00" fill="#1a1919">23 C(1)</text>
</g>
<!-- inline23x2273&#45;&gt;node2273 -->
<g id="edge13" class="edge">
<title>inline23x2273&#45;&gt;node2273</title>
<path fill="none" stroke="#3cb4a4" d="M88,-1083.8C88,-1069.05 88,-1047.92 88,-1033.18"/>
<text text-anchor="middle" x="90" y="-1056.6" font-family="arial" font-size="8.00" fill="#3cb4a4">y</text>
</g>
<!-- inline1730x3127 -->
<g id="node26" class="node">
<title>inline1730x3127</title>
<ellipse fill="#d7ede7" stroke="black" cx="122" cy="-934" rx="83.9" ry="18"/>
<text text-anchor="middle" x="122" y="-932.1" font-family="Arial" font-size="8.00" fill="#1a1919">1730 C(RubyBasicObject@7fc889f3)</text>
</g>
<!-- inline1730x3127&#45;&gt;node3127 -->
<g id="edge19" class="edge">
<title>inline1730x3127&#45;&gt;node3127</title>
<path fill="none" stroke="#3cb4a4" d="M128.94,-915.86C134.57,-901.97 142.42,-882.59 147.83,-869.24"/>
<text text-anchor="middle" x="141" y="-891.6" font-family="arial" font-size="8.00" fill="#3cb4a4">y</text>
</g>
<!-- inline125x3127 -->
<g id="node27" class="node">
<title>inline125x3127</title>
<ellipse fill="#d7ede7" stroke="black" cx="251" cy="-934" rx="27.46" ry="18"/>
<text text-anchor="middle" x="251" y="-932.1" font-family="Arial" font-size="8.00" fill="#1a1919">125 T(5)</text>
</g>
<!-- inline125x3127&#45;&gt;node3127 -->
<g id="edge33" class="edge">
<title>inline125x3127&#45;&gt;node3127</title>
<path fill="none" stroke="#3cb4a4" d="M234.55,-919.6C216.38,-904.81 187.37,-881.18 169.57,-866.68"/>
<text text-anchor="middle" x="208" y="-891.6" font-family="arial" font-size="8.00" fill="#3cb4a4">x</text>
</g>
<!-- inline161x583 -->
<g id="node28" class="node">
<title>inline161x583</title>
<ellipse fill="#d7ede7" stroke="black" cx="407" cy="-1183" rx="27.46" ry="18"/>
<text text-anchor="middle" x="407" y="-1181.1" font-family="Arial" font-size="8.00" fill="#1a1919">161 T(7)</text>
</g>
<!-- inline161x583&#45;&gt;node583 -->
<g id="edge34" class="edge">
<title>inline161x583&#45;&gt;node583</title>
<path fill="none" stroke="#3cb4a4" d="M400,-1165.25C394.44,-1151.93 386.69,-1133.38 381.1,-1120"/>
<text text-anchor="middle" x="400.5" y="-1140.6" font-family="arial" font-size="8.00" fill="#3cb4a4">value</text>
</g>
<!-- inline179x738 -->
<g id="node29" class="node">
<title>inline179x738</title>
<ellipse fill="#d7ede7" stroke="black" cx="519" cy="-1102" rx="27.46" ry="18"/>
<text text-anchor="middle" x="519" y="-1100.1" font-family="Arial" font-size="8.00" fill="#1a1919">179 T(8)</text>
</g>
<!-- inline179x738&#45;&gt;node738 -->
<g id="edge35" class="edge">
<title>inline179x738&#45;&gt;node738</title>
<path fill="none" stroke="#3cb4a4" d="M519,-1083.8C519,-1069.05 519,-1047.92 519,-1033.18"/>
<text text-anchor="middle" x="528.5" y="-1056.6" font-family="arial" font-size="8.00" fill="#3cb4a4">value</text>
</g>
<!-- inline196x892 -->
<g id="node30" class="node">
<title>inline196x892</title>
<ellipse fill="#d7ede7" stroke="black" cx="433" cy="-1015" rx="27.46" ry="18"/>
<text text-anchor="middle" x="433" y="-1013.1" font-family="Arial" font-size="8.00" fill="#1a1919">196 T(9)</text>
</g>
<!-- inline196x892&#45;&gt;node892 -->
<g id="edge36" class="edge">
<title>inline196x892&#45;&gt;node892</title>
<path fill="none" stroke="#3cb4a4" d="M442.12,-997.63C449.52,-984.34 459.92,-965.67 467.44,-952.17"/>
<text text-anchor="middle" x="465.5" y="-972.6" font-family="arial" font-size="8.00" fill="#3cb4a4">value</text>
</g>
<!-- inline213x1046 -->
<g id="node31" class="node">
<title>inline213x1046</title>
<ellipse fill="#d7ede7" stroke="black" cx="388" cy="-934" rx="30.13" ry="18"/>
<text text-anchor="middle" x="388" y="-932.1" font-family="Arial" font-size="8.00" fill="#1a1919">213 T(10)</text>
</g>
<!-- inline213x1046&#45;&gt;node1046 -->
<g id="edge37" class="edge">
<title>inline213x1046&#45;&gt;node1046</title>
<path fill="none" stroke="#3cb4a4" d="M388.22,-915.86C388.38,-902.61 388.62,-884.35 388.78,-871.11"/>
<text text-anchor="middle" x="397.5" y="-891.6" font-family="arial" font-size="8.00" fill="#3cb4a4">value</text>
</g>
<!-- inline2x3904 -->
<g id="node32" class="node">
<title>inline2x3904</title>
<ellipse fill="#d7ede7" stroke="black" cx="342" cy="-1264" rx="27" ry="18"/>
<text text-anchor="middle" x="342" y="-1262.1" font-family="Arial" font-size="8.00" fill="#1a1919">2 P(1)</text>
</g>
<!-- inline2x3904&#45;&gt;node3904 -->
<g id="edge38" class="edge">
<title>inline2x3904&#45;&gt;node3904</title>
<path fill="none" stroke="#3cb4a4" d="M334.33,-1246.63C328.11,-1233.34 319.36,-1214.67 313.04,-1201.17"/>
<text text-anchor="middle" x="333.5" y="-1221.6" font-family="arial" font-size="8.00" fill="#3cb4a4">array</text>
</g>
</g>
</svg>
