<?xml version="1.0" encoding="UTF-8" standalone="no"?>
<!DOCTYPE svg PUBLIC "-//W3C//DTD SVG 1.1//EN"
 "http://www.w3.org/Graphics/SVG/1.1/DTD/svg11.dtd">
<!-- Generated by graphviz version 2.44.1 (20200629.0846)
 -->
<!-- Title: G Pages: 1 -->
<svg width="1311pt" height="1919pt"
 viewBox="0.00 0.00 1311.22 1919.00" xmlns="http://www.w3.org/2000/svg" xmlns:xlink="http://www.w3.org/1999/xlink">
<g id="graph0" class="graph" transform="scale(1 1) rotate(0) translate(4 1915)">
<title>G</title>
<!-- node0 -->
<g id="node1" class="node">
<title>node0</title>
<polygon fill="#e98693" stroke="black" points="574,-1911 518,-1911 518,-1875 574,-1875 574,-1911"/>
<text text-anchor="middle" x="546" y="-1889.3" font-family="Arial" font-size="14.00" fill="#1a1919">0 Start</text>
</g>
<!-- node1972 -->
<g id="node32" class="node">
<title>node1972</title>
<polygon fill="#da2d4f" stroke="black" points="638.5,-1830 525.5,-1830 525.5,-1794 638.5,-1794 638.5,-1830"/>
<text text-anchor="middle" x="582" y="-1808.3" font-family="Arial" font-size="14.00" fill="#ffffff">1972 Load T(...)</text>
</g>
<!-- node0&#45;&gt;node1972 -->
<g id="edge56" class="edge">
<title>node0&#45;&gt;node1972</title>
<path fill="none" stroke="#da2d4f" stroke-width="2" d="M553.81,-1874.86C558.53,-1864.51 564.64,-1851.1 569.96,-1839.41"/>
<polygon fill="#da2d4f" stroke="#da2d4f" stroke-width="2" points="573.24,-1840.66 574.2,-1830.11 566.87,-1837.76 573.24,-1840.66"/>
</g>
<!-- node528 -->
<g id="node2" class="node">
<title>node528</title>
<polygon fill="#f9f9f9" stroke="black" points="691,-1749 609,-1749 609,-1713 691,-1713 691,-1749"/>
<text text-anchor="middle" x="650" y="-1727.3" font-family="Arial" font-size="14.00" fill="#1a1919">528 Unbox</text>
</g>
<!-- node1930 -->
<g id="node20" class="node">
<title>node1930</title>
<polygon fill="#ffa500" stroke="black" points="1036.5,-1662 785.5,-1662 785.5,-1626 1036.5,-1626 1036.5,-1662"/>
<text text-anchor="middle" x="911" y="-1640.3" font-family="Arial" font-size="14.00" fill="#1a1919">1930 Guard, else TransferToInterpreter</text>
</g>
<!-- node528&#45;&gt;node1930 -->
<g id="edge1" class="edge">
<title>node528&#45;&gt;node1930</title>
<path fill="none" stroke="#da2d4f" stroke-width="2" d="M691.07,-1716.63C733.46,-1702.82 800.12,-1681.11 848.95,-1665.21"/>
<polygon fill="#da2d4f" stroke="#da2d4f" stroke-width="2" points="850.04,-1668.54 858.46,-1662.11 847.87,-1661.88 850.04,-1668.54"/>
</g>
<!-- node1958 -->
<g id="node28" class="node">
<title>node1958</title>
<polygon fill="#da2d4f" stroke="black" points="624.5,-1488 545.5,-1488 545.5,-1452 624.5,-1452 624.5,-1488"/>
<text text-anchor="middle" x="585" y="-1466.3" font-family="Arial" font-size="14.00" fill="#ffffff">1958 Alloc</text>
</g>
<!-- node528&#45;&gt;node1958 -->
<g id="edge42" class="edge">
<title>node528&#45;&gt;node1958</title>
<path fill="none" stroke="#3cb4a4" d="M630.43,-1712.86C602.06,-1686.55 550.75,-1633.14 531,-1575 521.06,-1545.72 522.85,-1531.73 540,-1506 542.67,-1501.99 545.96,-1498.24 549.52,-1494.8"/>
<polygon fill="#3cb4a4" stroke="#3cb4a4" points="551.89,-1497.38 557.13,-1488.17 547.29,-1492.1 551.89,-1497.38"/>
<text text-anchor="middle" x="565" y="-1596.8" font-family="arial" font-size="14.00" fill="#3cb4a4">values</text>
</g>
<!-- node603 -->
<g id="node3" class="node">
<title>node603</title>
<polygon fill="#3cb4a4" stroke="black" points="911,-1749 840.45,-1731 911,-1713 981.55,-1731 911,-1749"/>
<text text-anchor="middle" x="911" y="-1727.3" font-family="Arial" font-size="14.00" fill="#1a1919">603 IsNull</text>
</g>
<!-- node603&#45;&gt;node1930 -->
<g id="edge27" class="edge">
<title>node603&#45;&gt;node1930</title>
<path fill="none" stroke="#3cb4a4" d="M911,-1712.8C911,-1701.16 911,-1685.55 911,-1672.24"/>
<polygon fill="#3cb4a4" stroke="#3cb4a4" points="914.5,-1672.18 911,-1662.18 907.5,-1672.18 914.5,-1672.18"/>
<text text-anchor="middle" x="915" y="-1683.8" font-family="arial" font-size="14.00" fill="#3cb4a4">?</text>
</g>
<!-- node1154 -->
<g id="node4" class="node">
<title>node1154</title>
<polygon fill="#3cb4a4" stroke="black" points="1166,-1662 1105.17,-1644 1166,-1626 1226.83,-1644 1166,-1662"/>
<text text-anchor="middle" x="1166" y="-1640.3" font-family="Arial" font-size="14.00" fill="#1a1919">1154 ==</text>
</g>
<!-- node1933 -->
<g id="node21" class="node">
<title>node1933</title>
<polygon fill="#ffa500" stroke="black" points="1291.5,-1575 1040.5,-1575 1040.5,-1539 1291.5,-1539 1291.5,-1575"/>
<text text-anchor="middle" x="1166" y="-1553.3" font-family="Arial" font-size="14.00" fill="#1a1919">1933 Guard, else TransferToInterpreter</text>
</g>
<!-- node1154&#45;&gt;node1933 -->
<g id="edge29" class="edge">
<title>node1154&#45;&gt;node1933</title>
<path fill="none" stroke="#3cb4a4" d="M1166,-1625.8C1166,-1614.16 1166,-1598.55 1166,-1585.24"/>
<polygon fill="#3cb4a4" stroke="#3cb4a4" points="1169.5,-1585.18 1166,-1575.18 1162.5,-1585.18 1169.5,-1585.18"/>
<text text-anchor="middle" x="1170" y="-1596.8" font-family="arial" font-size="14.00" fill="#3cb4a4">?</text>
</g>
<!-- node1622 -->
<g id="node5" class="node">
<title>node1622</title>
<polygon fill="#da2d4f" stroke="black" points="494,-1067 188,-1067 188,-1031 494,-1031 494,-1067"/>
<text text-anchor="middle" x="341" y="-1045.3" font-family="Arial" font-size="14.00" fill="#ffffff">1622 LoadField RubyDynamicObject.metaClass</text>
</g>
<!-- node1672 -->
<g id="node6" class="node">
<title>node1672</title>
<polygon fill="#3cb4a4" stroke="black" points="251,-980 189.33,-962 251,-944 312.67,-962 251,-980"/>
<text text-anchor="middle" x="251" y="-958.3" font-family="Arial" font-size="14.00" fill="#1a1919">1672 ==</text>
</g>
<!-- node1622&#45;&gt;node1672 -->
<g id="edge5" class="edge">
<title>node1622&#45;&gt;node1672</title>
<path fill="none" stroke="#3cb4a4" d="M322.79,-1030.8C308.18,-1017 287.65,-997.61 272.28,-983.1"/>
<polygon fill="#3cb4a4" stroke="#3cb4a4" points="274.45,-980.33 264.78,-976.01 269.64,-985.42 274.45,-980.33"/>
<text text-anchor="middle" x="305.5" y="-1001.8" font-family="arial" font-size="14.00" fill="#3cb4a4">x</text>
</g>
<!-- node1935 -->
<g id="node22" class="node">
<title>node1935</title>
<polygon fill="#ffa500" stroke="black" points="438.5,-893 187.5,-893 187.5,-857 438.5,-857 438.5,-893"/>
<text text-anchor="middle" x="313" y="-871.3" font-family="Arial" font-size="14.00" fill="#1a1919">1935 Guard, else TransferToInterpreter</text>
</g>
<!-- node1622&#45;&gt;node1935 -->
<g id="edge4" class="edge">
<title>node1622&#45;&gt;node1935</title>
<path fill="none" stroke="#da2d4f" stroke-width="2" d="M338.21,-1030.88C333.35,-1001 323.27,-939.11 317.44,-903.27"/>
<polygon fill="#da2d4f" stroke="#da2d4f" stroke-width="2" points="320.84,-902.36 315.78,-893.05 313.93,-903.48 320.84,-902.36"/>
</g>
<!-- node1672&#45;&gt;node1935 -->
<g id="edge31" class="edge">
<title>node1672&#45;&gt;node1935</title>
<path fill="none" stroke="#3cb4a4" d="M261.24,-946.96C270.21,-934.67 283.47,-916.48 294.33,-901.6"/>
<polygon fill="#3cb4a4" stroke="#3cb4a4" points="297.32,-903.43 300.39,-893.29 291.67,-899.31 297.32,-903.43"/>
<text text-anchor="middle" x="290" y="-914.8" font-family="arial" font-size="14.00" fill="#3cb4a4">?</text>
</g>
<!-- node1800 -->
<g id="node7" class="node">
<title>node1800</title>
<polygon fill="#da2d4f" stroke="black" points="418,-806 208,-806 208,-770 418,-770 418,-806"/>
<text text-anchor="middle" x="313" y="-784.3" font-family="Arial" font-size="14.00" fill="#ffffff">1800 LoadField RubyArray.store</text>
</g>
<!-- node1804 -->
<g id="node8" class="node">
<title>node1804</title>
<polygon fill="#f9f9f9" stroke="black" points="395,-719 231,-719 231,-683 395,-683 395,-719"/>
<text text-anchor="middle" x="313" y="-697.3" font-family="Arial" font-size="14.00" fill="#1a1919">1804 InstanceOf a!# int[]</text>
</g>
<!-- node1800&#45;&gt;node1804 -->
<g id="edge9" class="edge">
<title>node1800&#45;&gt;node1804</title>
<path fill="none" stroke="#3cb4a4" d="M313,-769.8C313,-758.16 313,-742.55 313,-729.24"/>
<polygon fill="#3cb4a4" stroke="#3cb4a4" points="316.5,-729.18 313,-719.18 309.5,-729.18 316.5,-729.18"/>
<text text-anchor="middle" x="329.5" y="-740.8" font-family="arial" font-size="14.00" fill="#3cb4a4">value</text>
</g>
<!-- node1839 -->
<g id="node12" class="node">
<title>node1839</title>
<polygon fill="#f9f9f9" stroke="black" points="503.5,-665 342.5,-665 342.5,-629 503.5,-629 503.5,-665"/>
<text text-anchor="middle" x="423" y="-643.3" font-family="Arial" font-size="14.00" fill="#1a1919">1839 InstanceOf a# int[]</text>
</g>
<!-- node1800&#45;&gt;node1839 -->
<g id="edge16" class="edge">
<title>node1800&#45;&gt;node1839</title>
<path fill="none" stroke="#3cb4a4" d="M346.09,-769.77C365.66,-757.96 389.4,-740.56 404,-719 412.78,-706.03 417.51,-689.18 420.05,-675.15"/>
<polygon fill="#3cb4a4" stroke="#3cb4a4" points="423.54,-675.5 421.6,-665.08 416.62,-674.43 423.54,-675.5"/>
<text text-anchor="middle" x="405.5" y="-740.8" font-family="arial" font-size="14.00" fill="#3cb4a4">value</text>
</g>
<!-- node1840 -->
<g id="node13" class="node">
<title>node1840</title>
<polygon fill="#da2d4f" stroke="black" points="315,-210 187,-210 187,-174 315,-174 315,-210"/>
<text text-anchor="middle" x="251" y="-188.3" font-family="Arial" font-size="14.00" fill="#ffffff">1840 LoadIndexed</text>
</g>
<!-- node1800&#45;&gt;node1840 -->
<g id="edge50" class="edge">
<title>node1800&#45;&gt;node1840</title>
<path fill="none" stroke="#3cb4a4" d="M216.13,-769.93C151.76,-755.72 79,-732.85 79,-702 79,-702 79,-702 79,-272 79,-226.08 130.25,-206.75 176.8,-198.67"/>
<polygon fill="#3cb4a4" stroke="#3cb4a4" points="177.62,-202.08 186.95,-197.06 176.53,-195.17 177.62,-202.08"/>
<text text-anchor="middle" x="94.5" y="-472.8" font-family="arial" font-size="14.00" fill="#3cb4a4">array</text>
</g>
<!-- node1937 -->
<g id="node24" class="node">
<title>node1937</title>
<polygon fill="#ffa500" stroke="black" points="394.5,-611 143.5,-611 143.5,-575 394.5,-575 394.5,-611"/>
<text text-anchor="middle" x="269" y="-589.3" font-family="Arial" font-size="14.00" fill="#1a1919">1937 Guard, else TransferToInterpreter</text>
</g>
<!-- node1800&#45;&gt;node1937 -->
<g id="edge8" class="edge">
<title>node1800&#45;&gt;node1937</title>
<path fill="none" stroke="#da2d4f" stroke-width="2" d="M275.98,-769.93C256.06,-758.57 233.31,-741.57 222,-719 205.3,-685.67 228.13,-644.88 247.41,-619.16"/>
<polygon fill="#da2d4f" stroke="#da2d4f" stroke-width="2" points="250.35,-621.09 253.76,-611.05 244.84,-616.78 250.35,-621.09"/>
</g>
<!-- node1804&#45;&gt;node1937 -->
<g id="edge35" class="edge">
<title>node1804&#45;&gt;node1937</title>
<path fill="none" stroke="#3cb4a4" d="M305.93,-682.97C298.95,-666.15 288.17,-640.17 280.05,-620.62"/>
<polygon fill="#3cb4a4" stroke="#3cb4a4" points="283.26,-619.23 276.2,-611.34 276.8,-621.92 283.26,-619.23"/>
<text text-anchor="middle" x="302" y="-643.3" font-family="arial" font-size="14.00" fill="#3cb4a4">?</text>
</g>
<!-- node1813 -->
<g id="node9" class="node">
<title>node1813</title>
<polygon fill="#da2d4f" stroke="black" points="383,-538 179,-538 179,-502 383,-502 383,-538"/>
<text text-anchor="middle" x="281" y="-516.3" font-family="Arial" font-size="14.00" fill="#ffffff">1813 LoadField RubyArray.size</text>
</g>
<!-- node1815 -->
<g id="node10" class="node">
<title>node1815</title>
<polygon fill="#3cb4a4" stroke="black" points="199,-451 144.54,-433 199,-415 253.46,-433 199,-451"/>
<text text-anchor="middle" x="199" y="-429.3" font-family="Arial" font-size="14.00" fill="#1a1919">1815 &lt;</text>
</g>
<!-- node1813&#45;&gt;node1815 -->
<g id="edge12" class="edge">
<title>node1813&#45;&gt;node1815</title>
<path fill="none" stroke="#3cb4a4" d="M264.41,-501.8C251.22,-488.13 232.73,-468.97 218.78,-454.5"/>
<polygon fill="#3cb4a4" stroke="#3cb4a4" points="221.01,-451.78 211.55,-447.01 215.98,-456.64 221.01,-451.78"/>
<text text-anchor="middle" x="248.5" y="-472.8" font-family="arial" font-size="14.00" fill="#3cb4a4">x</text>
</g>
<!-- node1936 -->
<g id="node23" class="node">
<title>node1936</title>
<polygon fill="#ffa500" stroke="black" points="388,-364 114,-364 114,-328 388,-328 388,-364"/>
<text text-anchor="middle" x="251" y="-342.3" font-family="Arial" font-size="14.00" fill="#1a1919">1936 Guard not, else TransferToInterpreter</text>
</g>
<!-- node1813&#45;&gt;node1936 -->
<g id="edge11" class="edge">
<title>node1813&#45;&gt;node1936</title>
<path fill="none" stroke="#da2d4f" stroke-width="2" d="M278.01,-501.88C272.8,-472 262.01,-410.11 255.76,-374.27"/>
<polygon fill="#da2d4f" stroke="#da2d4f" stroke-width="2" points="259.14,-373.3 253.97,-364.05 252.24,-374.5 259.14,-373.3"/>
</g>
<!-- node1815&#45;&gt;node1936 -->
<g id="edge33" class="edge">
<title>node1815&#45;&gt;node1936</title>
<path fill="none" stroke="#3cb4a4" d="M207.82,-417.58C215.31,-405.34 226.23,-387.48 235.22,-372.79"/>
<polygon fill="#3cb4a4" stroke="#3cb4a4" points="238.29,-374.49 240.52,-364.13 232.32,-370.83 238.29,-374.49"/>
<text text-anchor="middle" x="233" y="-385.8" font-family="arial" font-size="14.00" fill="#3cb4a4">?</text>
</g>
<!-- node1838 -->
<g id="node11" class="node">
<title>node1838</title>
<polygon fill="#ffa500" stroke="black" points="373.5,-291 128.5,-291 128.5,-255 373.5,-255 373.5,-291"/>
<text text-anchor="middle" x="251" y="-269.3" font-family="Arial" font-size="14.00" fill="#1a1919">1838 Guard, else ClassCastException</text>
</g>
<!-- node1838&#45;&gt;node1840 -->
<g id="edge15" class="edge">
<title>node1838&#45;&gt;node1840</title>
<path fill="none" stroke="#da2d4f" stroke-width="2" d="M251,-254.86C251,-244.71 251,-231.63 251,-220.12"/>
<polygon fill="#da2d4f" stroke="#da2d4f" stroke-width="2" points="254.5,-220.11 251,-210.11 247.5,-220.11 254.5,-220.11"/>
</g>
<!-- node1839&#45;&gt;node1838 -->
<g id="edge14" class="edge">
<title>node1839&#45;&gt;node1838</title>
<path fill="none" stroke="#3cb4a4" d="M423,-628.94C423,-611.02 423,-582.03 423,-557 423,-557 423,-557 423,-345 423,-319.19 406.25,-302.57 383.2,-291.93"/>
<polygon fill="#3cb4a4" stroke="#3cb4a4" points="384.29,-288.59 373.71,-288 381.61,-295.06 384.29,-288.59"/>
<text text-anchor="middle" x="427" y="-472.8" font-family="arial" font-size="14.00" fill="#3cb4a4">?</text>
</g>
<!-- node1971 -->
<g id="node31" class="node">
<title>node1971</title>
<polygon fill="#f9f9f9" stroke="black" points="348.5,-123 153.5,-123 153.5,-87 348.5,-87 348.5,-123"/>
<text text-anchor="middle" x="251" y="-101.3" font-family="Arial" font-size="14.00" fill="#1a1919">1971 BoxNode$AllocatingBox</text>
</g>
<!-- node1840&#45;&gt;node1971 -->
<g id="edge18" class="edge">
<title>node1840&#45;&gt;node1971</title>
<path fill="none" stroke="#da2d4f" stroke-width="2" d="M249.83,-173.92C249.49,-168.22 249.17,-161.84 249,-156 248.79,-148.65 248.94,-140.69 249.23,-133.33"/>
<polygon fill="#da2d4f" stroke="#da2d4f" stroke-width="2" points="252.74,-133.28 249.73,-123.12 245.74,-132.94 252.74,-133.28"/>
</g>
<!-- node1840&#45;&gt;node1971 -->
<g id="edge48" class="edge">
<title>node1840&#45;&gt;node1971</title>
<path fill="none" stroke="#3cb4a4" d="M251,-173.8C251,-162.16 251,-146.55 251,-133.24"/>
<polygon fill="#3cb4a4" stroke="#3cb4a4" points="254.5,-133.18 251,-123.18 247.5,-133.18 254.5,-133.18"/>
<text text-anchor="middle" x="267.5" y="-144.8" font-family="arial" font-size="14.00" fill="#3cb4a4">value</text>
</g>
<!-- node1883 -->
<g id="node14" class="node">
<title>node1883</title>
<polygon fill="#e98693" stroke="black" points="296.5,-36 205.5,-36 205.5,0 296.5,0 296.5,-36"/>
<text text-anchor="middle" x="251" y="-14.3" font-family="Arial" font-size="14.00" fill="#1a1919">1883 Return</text>
</g>
<!-- node1913 -->
<g id="node15" class="node">
<title>node1913</title>
<polygon fill="#da2d4f" stroke="black" points="763,-1241 473,-1241 473,-1205 763,-1205 763,-1241"/>
<text text-anchor="middle" x="618" y="-1219.3" font-family="Arial" font-size="14.00" fill="#ffffff">1913 Call OptimizedCallTarget.callBoundary !</text>
</g>
<!-- node1917 -->
<g id="node17" class="node">
<title>node1917</title>
<polygon fill="#e98693" stroke="black" points="607.5,-1154 486.5,-1154 486.5,-1118 607.5,-1118 607.5,-1154"/>
<text text-anchor="middle" x="547" y="-1132.3" font-family="Arial" font-size="14.00" fill="#1a1919">1917 KillingBegin</text>
</g>
<!-- node1913&#45;&gt;node1917 -->
<g id="edge21" class="edge">
<title>node1913&#45;&gt;node1917</title>
<path fill="none" stroke="#da2d4f" stroke-width="2" d="M603.63,-1204.8C593.33,-1192.47 579.31,-1175.68 567.79,-1161.89"/>
<polygon fill="#da2d4f" stroke="#da2d4f" stroke-width="2" points="570.44,-1159.61 561.35,-1154.18 565.07,-1164.09 570.44,-1159.61"/>
</g>
<!-- node1918 -->
<g id="node18" class="node">
<title>node1918</title>
<polygon fill="#f9f9f9" stroke="black" points="774.5,-1154 625.5,-1154 625.5,-1118 774.5,-1118 774.5,-1154"/>
<text text-anchor="middle" x="700" y="-1132.3" font-family="Arial" font-size="14.00" fill="#1a1919">1918 ExceptionObject</text>
</g>
<!-- node1913&#45;&gt;node1918 -->
<g id="edge22" class="edge">
<title>node1913&#45;&gt;node1918</title>
<path fill="none" stroke="#da2d4f" stroke-width="2" d="M634.59,-1204.8C646.6,-1192.36 662.99,-1175.36 676.36,-1161.5"/>
<polygon fill="#da2d4f" stroke="#da2d4f" stroke-width="2" points="679.01,-1163.8 683.43,-1154.18 673.97,-1158.94 679.01,-1163.8"/>
<text text-anchor="middle" x="684.5" y="-1175.8" font-family="arial" font-size="14.00" fill="#da2d4f">unwind</text>
</g>
<!-- node1914 -->
<g id="node16" class="node">
<title>node1914</title>
<polygon fill="#f9f9f9" stroke="black" points="770.5,-1314 613.5,-1314 613.5,-1278 770.5,-1278 770.5,-1314"/>
<text text-anchor="middle" x="692" y="-1292.3" font-family="Arial" font-size="14.00" fill="#1a1919">1914 MethodCallTarget</text>
</g>
<!-- node1914&#45;&gt;node1913 -->
<g id="edge20" class="edge">
<title>node1914&#45;&gt;node1913</title>
<path fill="none" stroke="#343d46" stroke-dasharray="5,2" d="M666.63,-1270.65C656.46,-1260.9 644.99,-1249.9 635.75,-1241.03"/>
<polygon fill="#343d46" stroke="#343d46" points="664.45,-1273.42 674.09,-1277.81 669.29,-1268.36 664.45,-1273.42"/>
</g>
<!-- node1917&#45;&gt;node1622 -->
<g id="edge25" class="edge">
<title>node1917&#45;&gt;node1622</title>
<path fill="none" stroke="#da2d4f" stroke-width="2" d="M505.31,-1117.8C472.54,-1104.27 426.74,-1085.38 391.81,-1070.97"/>
<polygon fill="#da2d4f" stroke="#da2d4f" stroke-width="2" points="392.85,-1067.61 382.27,-1067.03 390.18,-1074.08 392.85,-1067.61"/>
</g>
<!-- node1923 -->
<g id="node19" class="node">
<title>node1923</title>
<polygon fill="#da2d4f" stroke="black" points="808.5,-1067 591.5,-1067 591.5,-1031 808.5,-1031 808.5,-1067"/>
<text text-anchor="middle" x="700" y="-1045.3" font-family="Arial" font-size="14.00" fill="#ffffff">1923 Deopt TransferToInterpreter</text>
</g>
<!-- node1918&#45;&gt;node1923 -->
<g id="edge26" class="edge">
<title>node1918&#45;&gt;node1923</title>
<path fill="none" stroke="#da2d4f" stroke-width="2" d="M700,-1117.8C700,-1106.16 700,-1090.55 700,-1077.24"/>
<polygon fill="#da2d4f" stroke="#da2d4f" stroke-width="2" points="703.5,-1077.18 700,-1067.18 696.5,-1077.18 703.5,-1077.18"/>
</g>
<!-- node1930&#45;&gt;node1933 -->
<g id="edge28" class="edge">
<title>node1930&#45;&gt;node1933</title>
<path fill="none" stroke="#da2d4f" stroke-width="2" d="M962.3,-1625.9C1003.54,-1612.15 1061.58,-1592.81 1105.16,-1578.28"/>
<polygon fill="#da2d4f" stroke="#da2d4f" stroke-width="2" points="1106.41,-1581.55 1114.79,-1575.07 1104.19,-1574.91 1106.41,-1581.55"/>
</g>
<!-- node1933&#45;&gt;node1958 -->
<g id="edge30" class="edge">
<title>node1933&#45;&gt;node1958</title>
<path fill="none" stroke="#da2d4f" stroke-width="2" d="M1090.28,-1538.97C1040.87,-1528.32 974.85,-1514.98 916,-1506 816.84,-1490.87 699.97,-1480.17 634.99,-1474.84"/>
<polygon fill="#da2d4f" stroke="#da2d4f" stroke-width="2" points="634.89,-1471.32 624.64,-1474 634.32,-1478.3 634.89,-1471.32"/>
</g>
<!-- node1935&#45;&gt;node1800 -->
<g id="edge32" class="edge">
<title>node1935&#45;&gt;node1800</title>
<path fill="none" stroke="#da2d4f" stroke-width="2" d="M313,-856.8C313,-845.16 313,-829.55 313,-816.24"/>
<polygon fill="#da2d4f" stroke="#da2d4f" stroke-width="2" points="316.5,-816.18 313,-806.18 309.5,-816.18 316.5,-816.18"/>
</g>
<!-- node1936&#45;&gt;node1838 -->
<g id="edge34" class="edge">
<title>node1936&#45;&gt;node1838</title>
<path fill="none" stroke="#da2d4f" stroke-width="2" d="M251,-327.81C251,-319.79 251,-310.05 251,-301.07"/>
<polygon fill="#da2d4f" stroke="#da2d4f" stroke-width="2" points="254.5,-301.03 251,-291.03 247.5,-301.03 254.5,-301.03"/>
</g>
<!-- node1937&#45;&gt;node1813 -->
<g id="edge36" class="edge">
<title>node1937&#45;&gt;node1813</title>
<path fill="none" stroke="#da2d4f" stroke-width="2" d="M271.9,-574.81C273.26,-566.79 274.91,-557.05 276.42,-548.07"/>
<polygon fill="#da2d4f" stroke="#da2d4f" stroke-width="2" points="279.91,-548.47 278.12,-538.03 273,-547.31 279.91,-548.47"/>
</g>
<!-- node1950 -->
<g id="node25" class="node">
<title>node1950</title>
<polygon fill="#343d46" stroke="black" points="694,-1575 540,-1575 540,-1539 694,-1539 694,-1575"/>
<text text-anchor="middle" x="617" y="-1553.3" font-family="Arial" font-size="14.00" fill="#ffffff">1950 VirtualArray int[1]</text>
</g>
<!-- node1950&#45;&gt;node1958 -->
<g id="edge39" class="edge">
<title>node1950&#45;&gt;node1958</title>
<path fill="none" stroke="#3cb4a4" d="M564.58,-1538.85C557.19,-1534.21 550.57,-1528.35 546,-1521 540.52,-1512.2 544.36,-1503.1 551.39,-1495.13"/>
<polygon fill="#3cb4a4" stroke="#3cb4a4" points="553.83,-1497.63 558.57,-1488.15 548.95,-1492.61 553.83,-1497.63"/>
<text text-anchor="middle" x="587.5" y="-1509.8" font-family="arial" font-size="14.00" fill="#3cb4a4">virtualObjects</text>
</g>
<!-- node1950&#45;&gt;node1958 -->
<g id="edge41" class="edge">
<title>node1950&#45;&gt;node1958</title>
<path fill="none" stroke="#3cb4a4" d="M626.72,-1538.72C630.96,-1528.79 633.96,-1516.29 629,-1506 627.14,-1502.14 624.62,-1498.58 621.73,-1495.32"/>
<polygon fill="#3cb4a4" stroke="#3cb4a4" points="624.07,-1492.71 614.44,-1488.29 619.21,-1497.75 624.07,-1492.71"/>
<text text-anchor="middle" x="651" y="-1509.8" font-family="arial" font-size="14.00" fill="#3cb4a4">values</text>
</g>
<!-- node1952 -->
<g id="node26" class="node">
<title>node1952</title>
<polygon fill="#f9f9f9" stroke="black" points="484,-1575 110,-1575 110,-1539 484,-1539 484,-1575"/>
<text text-anchor="middle" x="297" y="-1553.3" font-family="Arial" font-size="14.00" fill="#1a1919">1952 VirtualInstance(6) org.truffleruby.core.array.RubyArray</text>
</g>
<!-- node1952&#45;&gt;node1958 -->
<g id="edge38" class="edge">
<title>node1952&#45;&gt;node1958</title>
<path fill="none" stroke="#3cb4a4" d="M344.16,-1538.89C358.1,-1533.51 373.29,-1527.31 387,-1521 399.82,-1515.1 401.73,-1510.81 415,-1506 454.16,-1491.82 500.58,-1482.75 535.01,-1477.41"/>
<polygon fill="#3cb4a4" stroke="#3cb4a4" points="535.92,-1480.81 545.29,-1475.86 534.89,-1473.89 535.92,-1480.81"/>
<text text-anchor="middle" x="456.5" y="-1509.8" font-family="arial" font-size="14.00" fill="#3cb4a4">virtualObjects</text>
</g>
<!-- node1952&#45;&gt;node1958 -->
<g id="edge40" class="edge">
<title>node1952&#45;&gt;node1958</title>
<path fill="none" stroke="#3cb4a4" d="M308.13,-1538.76C316.36,-1527.53 328.6,-1513.59 343,-1506 375.39,-1488.92 474.03,-1478.96 534.91,-1474.29"/>
<polygon fill="#3cb4a4" stroke="#3cb4a4" points="535.37,-1477.76 545.08,-1473.53 534.85,-1470.78 535.37,-1477.76"/>
<text text-anchor="middle" x="363" y="-1509.8" font-family="arial" font-size="14.00" fill="#3cb4a4">values</text>
</g>
<!-- node1960 -->
<g id="node30" class="node">
<title>node1960</title>
<polygon fill="#343d46" stroke="black" points="413.5,-1154 268.5,-1154 268.5,-1118 413.5,-1118 413.5,-1154"/>
<text text-anchor="middle" x="341" y="-1132.3" font-family="Arial" font-size="14.00" fill="#ffffff">1960 AllocatedObject</text>
</g>
<!-- node1952&#45;&gt;node1960 -->
<g id="edge46" class="edge">
<title>node1952&#45;&gt;node1960</title>
<path fill="none" stroke="#3cb4a4" d="M297.97,-1538.75C298.84,-1521.58 300,-1494.48 300,-1471 300,-1471 300,-1471 300,-1222 300,-1200.43 310.84,-1178.57 321.37,-1162.42"/>
<polygon fill="#3cb4a4" stroke="#3cb4a4" points="324.33,-1164.3 327.12,-1154.08 318.56,-1160.33 324.33,-1164.3"/>
<text text-anchor="middle" x="338" y="-1335.8" font-family="arial" font-size="14.00" fill="#3cb4a4">virtualObject</text>
</g>
<!-- node1955 -->
<g id="node27" class="node">
<title>node1955</title>
<polygon fill="#343d46" stroke="black" points="949.5,-1575 712.5,-1575 712.5,-1539 949.5,-1539 949.5,-1575"/>
<text text-anchor="middle" x="831" y="-1553.3" font-family="Arial" font-size="14.00" fill="#ffffff">1955 VirtualArray java.lang.Object[8]</text>
</g>
<!-- node1955&#45;&gt;node1958 -->
<g id="edge37" class="edge">
<title>node1955&#45;&gt;node1958</title>
<path fill="none" stroke="#3cb4a4" d="M771.42,-1538.95C753.22,-1533.49 733.21,-1527.24 715,-1521 706.85,-1518.21 667.53,-1503.04 634.24,-1490.14"/>
<polygon fill="#3cb4a4" stroke="#3cb4a4" points="635.18,-1486.75 624.59,-1486.4 632.65,-1493.28 635.18,-1486.75"/>
<text text-anchor="middle" x="756.5" y="-1509.8" font-family="arial" font-size="14.00" fill="#3cb4a4">virtualObjects</text>
</g>
<!-- node1959 -->
<g id="node29" class="node">
<title>node1959</title>
<polygon fill="#343d46" stroke="black" points="901.5,-1401 756.5,-1401 756.5,-1365 901.5,-1365 901.5,-1401"/>
<text text-anchor="middle" x="829" y="-1379.3" font-family="Arial" font-size="14.00" fill="#ffffff">1959 AllocatedObject</text>
</g>
<!-- node1955&#45;&gt;node1959 -->
<g id="edge44" class="edge">
<title>node1955&#45;&gt;node1959</title>
<path fill="none" stroke="#3cb4a4" d="M838.73,-1538.9C840.88,-1533.31 842.92,-1527 844,-1521 850.79,-1483.2 843.17,-1438.95 836.54,-1411.19"/>
<polygon fill="#3cb4a4" stroke="#3cb4a4" points="839.91,-1410.26 834.08,-1401.41 833.13,-1411.96 839.91,-1410.26"/>
<text text-anchor="middle" x="884" y="-1466.3" font-family="arial" font-size="14.00" fill="#3cb4a4">virtualObject</text>
</g>
<!-- node1958&#45;&gt;node1913 -->
<g id="edge43" class="edge">
<title>node1958&#45;&gt;node1913</title>
<path fill="none" stroke="#da2d4f" stroke-width="2" d="M586.04,-1451.77C588.24,-1418.17 594.07,-1341.58 605,-1278 606.51,-1269.22 608.62,-1259.74 610.71,-1251.21"/>
<polygon fill="#da2d4f" stroke="#da2d4f" stroke-width="2" points="614.13,-1251.94 613.2,-1241.39 607.35,-1250.22 614.13,-1251.94"/>
</g>
<!-- node1958&#45;&gt;node1959 -->
<g id="edge45" class="edge">
<title>node1958&#45;&gt;node1959</title>
<path fill="none" stroke="#3cb4a4" d="M624.75,-1455.15C664.25,-1441.39 725.29,-1420.13 770.36,-1404.43"/>
<polygon fill="#3cb4a4" stroke="#3cb4a4" points="771.72,-1407.66 780.01,-1401.07 769.42,-1401.05 771.72,-1407.66"/>
<text text-anchor="middle" x="744" y="-1422.8" font-family="arial" font-size="14.00" fill="#3cb4a4">commit</text>
</g>
<!-- node1958&#45;&gt;node1960 -->
<g id="edge47" class="edge">
<title>node1958&#45;&gt;node1960</title>
<path fill="none" stroke="#3cb4a4" d="M545.48,-1465.74C496.66,-1459.3 420,-1440.23 420,-1384 420,-1384 420,-1384 420,-1222 420,-1196.26 400.33,-1175.05 380.62,-1160.25"/>
<polygon fill="#3cb4a4" stroke="#3cb4a4" points="382.41,-1157.23 372.22,-1154.3 378.36,-1162.94 382.41,-1157.23"/>
<text text-anchor="middle" x="443" y="-1292.3" font-family="arial" font-size="14.00" fill="#3cb4a4">commit</text>
</g>
<!-- node1959&#45;&gt;node1914 -->
<g id="edge24" class="edge">
<title>node1959&#45;&gt;node1914</title>
<path fill="none" stroke="#3cb4a4" d="M801.28,-1364.8C780.29,-1351.78 751.28,-1333.78 728.43,-1319.6"/>
<polygon fill="#3cb4a4" stroke="#3cb4a4" points="730.03,-1316.47 719.68,-1314.18 726.33,-1322.42 730.03,-1316.47"/>
<text text-anchor="middle" x="785.5" y="-1335.8" font-family="arial" font-size="14.00" fill="#3cb4a4">arg[1]</text>
</g>
<!-- node1960&#45;&gt;node1622 -->
<g id="edge3" class="edge">
<title>node1960&#45;&gt;node1622</title>
<path fill="none" stroke="#3cb4a4" d="M341,-1117.8C341,-1106.16 341,-1090.55 341,-1077.24"/>
<polygon fill="#3cb4a4" stroke="#3cb4a4" points="344.5,-1077.18 341,-1067.18 337.5,-1077.18 344.5,-1077.18"/>
<text text-anchor="middle" x="359.5" y="-1088.8" font-family="arial" font-size="14.00" fill="#3cb4a4">object</text>
</g>
<!-- node1960&#45;&gt;node1800 -->
<g id="edge7" class="edge">
<title>node1960&#45;&gt;node1800</title>
<path fill="none" stroke="#3cb4a4" d="M413.58,-1129.31C463.93,-1120.92 522,-1100.34 522,-1050 522,-1050 522,-1050 522,-874 522,-827.28 476.62,-805.64 428.16,-795.86"/>
<polygon fill="#3cb4a4" stroke="#3cb4a4" points="428.58,-792.38 418.11,-794 427.31,-799.26 428.58,-792.38"/>
<text text-anchor="middle" x="540.5" y="-958.3" font-family="arial" font-size="14.00" fill="#3cb4a4">object</text>
</g>
<!-- node1960&#45;&gt;node1813 -->
<g id="edge10" class="edge">
<title>node1960&#45;&gt;node1813</title>
<path fill="none" stroke="#3cb4a4" d="M268.27,-1131.46C168.12,-1124.57 0,-1104.84 0,-1050 0,-1050 0,-1050 0,-592 0,-573.72 90.51,-553.32 168.79,-539.1"/>
<polygon fill="#3cb4a4" stroke="#3cb4a4" points="169.53,-542.52 178.76,-537.31 168.3,-535.63 169.53,-542.52"/>
<text text-anchor="middle" x="18.5" y="-827.8" font-family="arial" font-size="14.00" fill="#3cb4a4">object</text>
</g>
<!-- node1971&#45;&gt;node1883 -->
<g id="edge19" class="edge">
<title>node1971&#45;&gt;node1883</title>
<path fill="none" stroke="#3cb4a4" d="M236.25,-86.88C229.89,-77.44 224.6,-65.35 228,-54 228.91,-50.96 230.17,-47.95 231.65,-45.03"/>
<polygon fill="#3cb4a4" stroke="#3cb4a4" points="234.82,-46.55 236.9,-36.16 228.79,-42.98 234.82,-46.55"/>
<text text-anchor="middle" x="245" y="-57.8" font-family="arial" font-size="14.00" fill="#3cb4a4">result</text>
</g>
<!-- node1971&#45;&gt;node1883 -->
<g id="edge49" class="edge">
<title>node1971&#45;&gt;node1883</title>
<path fill="none" stroke="#da2d4f" stroke-width="2" d="M257.94,-86.98C261.06,-77.35 263.7,-65.07 262,-54 261.59,-51.32 261.01,-48.56 260.33,-45.83"/>
<polygon fill="#da2d4f" stroke="#da2d4f" stroke-width="2" points="263.69,-44.83 257.55,-36.2 256.96,-46.78 263.69,-44.83"/>
</g>
<!-- node1972&#45;&gt;node528 -->
<g id="edge57" class="edge">
<title>node1972&#45;&gt;node528</title>
<path fill="none" stroke="#da2d4f" stroke-width="2" d="M596.75,-1793.86C606.02,-1783.09 618.13,-1769.02 628.46,-1757.02"/>
<polygon fill="#da2d4f" stroke="#da2d4f" stroke-width="2" points="631.4,-1758.97 635.27,-1749.11 626.1,-1754.4 631.4,-1758.97"/>
</g>
<!-- inline1152x1154 -->
<g id="node33" class="node">
<title>inline1152x1154</title>
<ellipse fill="#d7ede7" stroke="black" cx="1217" cy="-1731" rx="86.44" ry="18"/>
<text text-anchor="middle" x="1217" y="-1729.1" font-family="Arial" font-size="8.00" fill="#1a1919">1152 C(RubyBasicObject@5a620041)</text>
</g>
<!-- inline1152x1154&#45;&gt;node1154 -->
<g id="edge2" class="edge">
<title>inline1152x1154&#45;&gt;node1154</title>
<path fill="none" stroke="#3cb4a4" d="M1206.68,-1712.8C1197.31,-1697.18 1183.63,-1674.39 1174.78,-1659.63"/>
<text text-anchor="middle" x="1196" y="-1685.6" font-family="arial" font-size="8.00" fill="#3cb4a4">y</text>
</g>
<!-- inline794x1672 -->
<g id="node34" class="node">
<title>inline794x1672</title>
<ellipse fill="#d7ede7" stroke="black" cx="99" cy="-1049" rx="71.44" ry="18"/>
<text text-anchor="middle" x="99" y="-1047.1" font-family="Arial" font-size="8.00" fill="#1a1919">794 C(RubyClass@13de4a9c)</text>
</g>
<!-- inline794x1672&#45;&gt;node1672 -->
<g id="edge6" class="edge">
<title>inline794x1672&#45;&gt;node1672</title>
<path fill="none" stroke="#3cb4a4" d="M126.88,-1032.41C156.88,-1015.64 203.86,-989.36 230.59,-974.41"/>
<text text-anchor="middle" x="187" y="-1003.6" font-family="arial" font-size="8.00" fill="#3cb4a4">y</text>
</g>
<!-- inline23x1815 -->
<g id="node35" class="node">
<title>inline23x1815</title>
<ellipse fill="#d7ede7" stroke="black" cx="134" cy="-520" rx="27" ry="18"/>
<text text-anchor="middle" x="134" y="-518.1" font-family="Arial" font-size="8.00" fill="#1a1919">23 C(1)</text>
</g>
<!-- inline23x1815&#45;&gt;node1815 -->
<g id="edge13" class="edge">
<title>inline23x1815&#45;&gt;node1815</title>
<path fill="none" stroke="#3cb4a4" d="M145.92,-503.41C158.09,-487.5 176.8,-463.04 188.44,-447.8"/>
<text text-anchor="middle" x="173" y="-474.6" font-family="arial" font-size="8.00" fill="#3cb4a4">y</text>
</g>
<!-- inline5x1840 -->
<g id="node36" class="node">
<title>inline5x1840</title>
<ellipse fill="#d7ede7" stroke="black" cx="419" cy="-273" rx="27" ry="18"/>
<text text-anchor="middle" x="419" y="-271.1" font-family="Arial" font-size="8.00" fill="#1a1919">5 C(0)</text>
</g>
<!-- inline5x1840&#45;&gt;node1840 -->
<g id="edge17" class="edge">
<title>inline5x1840&#45;&gt;node1840</title>
<path fill="none" stroke="#3cb4a4" d="M397.38,-261.83C369.55,-248.75 320.8,-225.82 287.26,-210.05"/>
<text text-anchor="middle" x="350.5" y="-230.6" font-family="arial" font-size="8.00" fill="#3cb4a4">index</text>
</g>
<!-- inline1364x1914 -->
<g id="node37" class="node">
<title>inline1364x1914</title>
<ellipse fill="#d7ede7" stroke="black" cx="681" cy="-1383" rx="57.08" ry="18"/>
<text text-anchor="middle" x="681" y="-1381.1" font-family="Arial" font-size="8.00" fill="#1a1919">1364 C(Object#escape)</text>
</g>
<!-- inline1364x1914&#45;&gt;node1914 -->
<g id="edge23" class="edge">
<title>inline1364x1914&#45;&gt;node1914</title>
<path fill="none" stroke="#3cb4a4" d="M683.23,-1364.8C685.13,-1350.05 687.87,-1328.92 689.78,-1314.18"/>
<text text-anchor="middle" x="698" y="-1337.6" font-family="arial" font-size="8.00" fill="#3cb4a4">arg[0]</text>
</g>
<!-- inline125x1154 -->
<g id="node38" class="node">
<title>inline125x1154</title>
<ellipse fill="#d7ede7" stroke="black" cx="1086" cy="-1731" rx="27.46" ry="18"/>
<text text-anchor="middle" x="1086" y="-1729.1" font-family="Arial" font-size="8.00" fill="#1a1919">125 T(5)</text>
</g>
<!-- inline125x1154&#45;&gt;node1154 -->
<g id="edge51" class="edge">
<title>inline125x1154&#45;&gt;node1154</title>
<path fill="none" stroke="#3cb4a4" d="M1099.93,-1715.19C1114.98,-1699.21 1138.73,-1673.98 1153.28,-1658.52"/>
<text text-anchor="middle" x="1132" y="-1685.6" font-family="arial" font-size="8.00" fill="#3cb4a4">x</text>
</g>
<!-- inline125x1958 -->
<g id="node39" class="node">
<title>inline125x1958</title>
<ellipse fill="#d7ede7" stroke="black" cx="995" cy="-1557" rx="27.46" ry="18"/>
<text text-anchor="middle" x="995" y="-1555.1" font-family="Arial" font-size="8.00" fill="#1a1919">125 T(5)</text>
</g>
<!-- inline125x1958&#45;&gt;node1958 -->
<g id="edge52" class="edge">
<title>inline125x1958&#45;&gt;node1958</title>
<path fill="none" stroke="#3cb4a4" d="M974.03,-1545.07C969.18,-1542.83 963.98,-1540.66 959,-1539 840.98,-1499.67 693.99,-1481.39 624.68,-1474.49"/>
<text text-anchor="middle" x="900.5" y="-1511.6" font-family="arial" font-size="8.00" fill="#3cb4a4">values</text>
</g>
<!-- inline143x603 -->
<g id="node40" class="node">
<title>inline143x603</title>
<ellipse fill="#d7ede7" stroke="black" cx="911" cy="-1812" rx="27.46" ry="18"/>
<text text-anchor="middle" x="911" y="-1810.1" font-family="Arial" font-size="8.00" fill="#1a1919">143 T(6)</text>
</g>
<!-- inline143x603&#45;&gt;node603 -->
<g id="edge53" class="edge">
<title>inline143x603&#45;&gt;node603</title>
<path fill="none" stroke="#3cb4a4" d="M911,-1793.86C911,-1780.61 911,-1762.35 911,-1749.11"/>
<text text-anchor="middle" x="920.5" y="-1769.6" font-family="arial" font-size="8.00" fill="#3cb4a4">value</text>
</g>
<!-- inline158x528 -->
<g id="node41" class="node">
<title>inline158x528</title>
<ellipse fill="#d7ede7" stroke="black" cx="684" cy="-1812" rx="27.46" ry="18"/>
<text text-anchor="middle" x="684" y="-1810.1" font-family="Arial" font-size="8.00" fill="#1a1919">158 T(7)</text>
</g>
<!-- inline158x528&#45;&gt;node528 -->
<g id="edge54" class="edge">
<title>inline158x528&#45;&gt;node528</title>
<path fill="none" stroke="#3cb4a4" d="M676.79,-1794.25C671.06,-1780.93 663.08,-1762.38 657.32,-1749"/>
<text text-anchor="middle" x="677.5" y="-1769.6" font-family="arial" font-size="8.00" fill="#3cb4a4">value</text>
</g>
<!-- inline2x1972 -->
<g id="node42" class="node">
<title>inline2x1972</title>
<ellipse fill="#d7ede7" stroke="black" cx="619" cy="-1893" rx="27" ry="18"/>
<text text-anchor="middle" x="619" y="-1891.1" font-family="Arial" font-size="8.00" fill="#1a1919">2 P(1)</text>
</g>
<!-- inline2x1972&#45;&gt;node1972 -->
<g id="edge55" class="edge">
<title>inline2x1972&#45;&gt;node1972</title>
<path fill="none" stroke="#3cb4a4" d="M611.33,-1875.63C605.11,-1862.34 596.36,-1843.67 590.04,-1830.17"/>
<text text-anchor="middle" x="610.5" y="-1850.6" font-family="arial" font-size="8.00" fill="#3cb4a4">array</text>
</g>
</g>
</svg>
