<?xml version="1.0" encoding="UTF-8" standalone="no"?>
<!DOCTYPE svg PUBLIC "-//W3C//DTD SVG 1.1//EN"
 "http://www.w3.org/Graphics/SVG/1.1/DTD/svg11.dtd">
<!-- Generated by graphviz version 2.44.1 (20200629.0846)
 -->
<!-- Title: G Pages: 1 -->
<svg width="984pt" height="1586pt"
 viewBox="0.00 0.00 984.00 1586.00" xmlns="http://www.w3.org/2000/svg" xmlns:xlink="http://www.w3.org/1999/xlink">
<g id="graph0" class="graph" transform="scale(1 1) rotate(0) translate(4 1582)">
<title>G</title>
<!-- node0 -->
<g id="node1" class="node">
<title>node0</title>
<polygon fill="#e98693" stroke="black" points="56,-1410 0,-1410 0,-1374 56,-1374 56,-1410"/>
<text text-anchor="middle" x="28" y="-1388.3" font-family="Arial" font-size="14.00" fill="#1a1919">0 Start</text>
</g>
<!-- node43 -->
<g id="node4" class="node">
<title>node43</title>
<polygon fill="#da2d4f" stroke="black" points="155.5,-1323 42.5,-1323 42.5,-1287 155.5,-1287 155.5,-1323"/>
<text text-anchor="middle" x="99" y="-1301.3" font-family="Arial" font-size="14.00" fill="#ffffff">43 LoadIndexed</text>
</g>
<!-- node0&#45;&gt;node43 -->
<g id="edge1" class="edge">
<title>node0&#45;&gt;node43</title>
<path fill="none" stroke="#da2d4f" stroke-width="2" d="M42.37,-1373.8C52.67,-1361.47 66.69,-1344.68 78.21,-1330.89"/>
<polygon fill="#da2d4f" stroke="#da2d4f" stroke-width="2" points="80.93,-1333.09 84.65,-1323.18 75.56,-1328.61 80.93,-1333.09"/>
</g>
<!-- node31 -->
<g id="node2" class="node">
<title>node31</title>
<polygon fill="#f9f9f9" stroke="black" points="546,-1497 466,-1497 466,-1461 546,-1461 546,-1497"/>
<text text-anchor="middle" x="506" y="-1475.3" font-family="Arial" font-size="14.00" fill="#1a1919">31 PiArray</text>
</g>
<!-- node33 -->
<g id="node3" class="node">
<title>node33</title>
<polygon fill="#f9f9f9" stroke="black" points="533,-1410 479,-1410 479,-1374 533,-1374 533,-1410"/>
<text text-anchor="middle" x="506" y="-1388.3" font-family="Arial" font-size="14.00" fill="#1a1919">33 π</text>
</g>
<!-- node31&#45;&gt;node33 -->
<g id="edge4" class="edge">
<title>node31&#45;&gt;node33</title>
<path fill="none" stroke="#3cb4a4" d="M506,-1460.8C506,-1449.16 506,-1433.55 506,-1420.24"/>
<polygon fill="#3cb4a4" stroke="#3cb4a4" points="509.5,-1420.18 506,-1410.18 502.5,-1420.18 509.5,-1420.18"/>
<text text-anchor="middle" x="524.5" y="-1431.8" font-family="arial" font-size="14.00" fill="#3cb4a4">object</text>
</g>
<!-- node33&#45;&gt;node43 -->
<g id="edge5" class="edge">
<title>node33&#45;&gt;node43</title>
<path fill="none" stroke="#3cb4a4" d="M478.79,-1390.76C405.49,-1389.75 205.53,-1384.38 147,-1356 135.44,-1350.4 125.18,-1340.77 117.14,-1331.46"/>
<polygon fill="#3cb4a4" stroke="#3cb4a4" points="119.68,-1329.03 110.67,-1323.46 114.24,-1333.43 119.68,-1329.03"/>
<text text-anchor="middle" x="162.5" y="-1344.8" font-family="arial" font-size="14.00" fill="#3cb4a4">array</text>
</g>
<!-- node59 -->
<g id="node5" class="node">
<title>node59</title>
<polygon fill="#da2d4f" stroke="black" points="271.5,-1236 158.5,-1236 158.5,-1200 271.5,-1200 271.5,-1236"/>
<text text-anchor="middle" x="215" y="-1214.3" font-family="Arial" font-size="14.00" fill="#ffffff">59 LoadIndexed</text>
</g>
<!-- node33&#45;&gt;node59 -->
<g id="edge8" class="edge">
<title>node33&#45;&gt;node59</title>
<path fill="none" stroke="#3cb4a4" d="M478.95,-1389.34C410.62,-1384.5 234.16,-1367.81 201,-1323 184.57,-1300.8 192.51,-1268.43 201.71,-1245.72"/>
<polygon fill="#3cb4a4" stroke="#3cb4a4" points="205.02,-1246.9 205.81,-1236.33 198.6,-1244.1 205.02,-1246.9"/>
<text text-anchor="middle" x="216.5" y="-1301.3" font-family="arial" font-size="14.00" fill="#3cb4a4">array</text>
</g>
<!-- node74 -->
<g id="node6" class="node">
<title>node74</title>
<polygon fill="#da2d4f" stroke="black" points="367.5,-1149 254.5,-1149 254.5,-1113 367.5,-1113 367.5,-1149"/>
<text text-anchor="middle" x="311" y="-1127.3" font-family="Arial" font-size="14.00" fill="#ffffff">74 LoadIndexed</text>
</g>
<!-- node33&#45;&gt;node74 -->
<g id="edge11" class="edge">
<title>node33&#45;&gt;node74</title>
<path fill="none" stroke="#3cb4a4" d="M478.81,-1385.03C459.53,-1379.78 433.84,-1370.65 415,-1356 363.4,-1315.89 355.36,-1296.24 330,-1236 319.58,-1211.25 314.87,-1180.83 312.74,-1159.3"/>
<polygon fill="#3cb4a4" stroke="#3cb4a4" points="316.21,-1158.88 311.87,-1149.22 309.24,-1159.48 316.21,-1158.88"/>
<text text-anchor="middle" x="359.5" y="-1257.8" font-family="arial" font-size="14.00" fill="#3cb4a4">array</text>
</g>
<!-- node92 -->
<g id="node7" class="node">
<title>node92</title>
<polygon fill="#da2d4f" stroke="black" points="452.5,-1062 339.5,-1062 339.5,-1026 452.5,-1026 452.5,-1062"/>
<text text-anchor="middle" x="396" y="-1040.3" font-family="Arial" font-size="14.00" fill="#ffffff">92 LoadIndexed</text>
</g>
<!-- node33&#45;&gt;node92 -->
<g id="edge14" class="edge">
<title>node33&#45;&gt;node92</title>
<path fill="none" stroke="#3cb4a4" d="M498.26,-1373.75C480.96,-1334.57 438.81,-1235.56 415,-1149 407.92,-1123.26 402.75,-1093.2 399.61,-1072.04"/>
<polygon fill="#3cb4a4" stroke="#3cb4a4" points="403.07,-1071.54 398.19,-1062.14 396.14,-1072.53 403.07,-1071.54"/>
<text text-anchor="middle" x="457.5" y="-1214.3" font-family="arial" font-size="14.00" fill="#3cb4a4">array</text>
</g>
<!-- node110 -->
<g id="node8" class="node">
<title>node110</title>
<polygon fill="#da2d4f" stroke="black" points="553,-975 433,-975 433,-939 553,-939 553,-975"/>
<text text-anchor="middle" x="493" y="-953.3" font-family="Arial" font-size="14.00" fill="#ffffff">110 LoadIndexed</text>
</g>
<!-- node33&#45;&gt;node110 -->
<g id="edge17" class="edge">
<title>node33&#45;&gt;node110</title>
<path fill="none" stroke="#3cb4a4" d="M506,-1373.74C506,-1356.57 506,-1329.46 506,-1306 506,-1306 506,-1306 506,-1173.5 506,-1155.18 498.42,-1039.13 494.83,-985.33"/>
<polygon fill="#3cb4a4" stroke="#3cb4a4" points="498.31,-984.89 494.15,-975.14 491.33,-985.35 498.31,-984.89"/>
<text text-anchor="middle" x="521.5" y="-1170.8" font-family="arial" font-size="14.00" fill="#3cb4a4">array</text>
</g>
<!-- node125 -->
<g id="node9" class="node">
<title>node125</title>
<polygon fill="#da2d4f" stroke="black" points="659.5,-894 538.5,-894 538.5,-858 659.5,-858 659.5,-894"/>
<text text-anchor="middle" x="599" y="-872.3" font-family="Arial" font-size="14.00" fill="#ffffff">125 LoadIndexed</text>
</g>
<!-- node33&#45;&gt;node125 -->
<g id="edge20" class="edge">
<title>node33&#45;&gt;node125</title>
<path fill="none" stroke="#3cb4a4" d="M533.05,-1378.62C558.59,-1364.85 593,-1340 593,-1306 593,-1306 593,-1306 593,-1086.5 593,-1021.01 595.97,-944.04 597.73,-904.11"/>
<polygon fill="#3cb4a4" stroke="#3cb4a4" points="601.22,-904.25 598.18,-894.1 594.23,-903.94 601.22,-904.25"/>
<text text-anchor="middle" x="608.5" y="-1127.3" font-family="arial" font-size="14.00" fill="#3cb4a4">array</text>
</g>
<!-- node143 -->
<g id="node10" class="node">
<title>node143</title>
<polygon fill="#da2d4f" stroke="black" points="771.5,-813 650.5,-813 650.5,-777 771.5,-777 771.5,-813"/>
<text text-anchor="middle" x="711" y="-791.3" font-family="Arial" font-size="14.00" fill="#ffffff">143 LoadIndexed</text>
</g>
<!-- node33&#45;&gt;node143 -->
<g id="edge23" class="edge">
<title>node33&#45;&gt;node143</title>
<path fill="none" stroke="#3cb4a4" d="M533.24,-1390.99C586.44,-1389.4 699,-1377.58 699,-1306 699,-1306 699,-1306 699,-875 699,-857.7 701.85,-838.5 704.77,-823.37"/>
<polygon fill="#3cb4a4" stroke="#3cb4a4" points="708.29,-823.65 706.87,-813.15 701.43,-822.24 708.29,-823.65"/>
<text text-anchor="middle" x="714.5" y="-1083.8" font-family="arial" font-size="14.00" fill="#3cb4a4">array</text>
</g>
<!-- node161 -->
<g id="node11" class="node">
<title>node161</title>
<polygon fill="#da2d4f" stroke="black" points="843.5,-732 722.5,-732 722.5,-696 843.5,-696 843.5,-732"/>
<text text-anchor="middle" x="783" y="-710.3" font-family="Arial" font-size="14.00" fill="#ffffff">161 LoadIndexed</text>
</g>
<!-- node33&#45;&gt;node161 -->
<g id="edge26" class="edge">
<title>node33&#45;&gt;node161</title>
<path fill="none" stroke="#3cb4a4" d="M533.07,-1389.27C607.71,-1383.75 811,-1363.44 811,-1306 811,-1306 811,-1306 811,-794 811,-775.74 804.27,-756.39 797.41,-741.42"/>
<polygon fill="#3cb4a4" stroke="#3cb4a4" points="800.48,-739.72 792.95,-732.26 794.18,-742.79 800.48,-739.72"/>
<text text-anchor="middle" x="826.5" y="-1040.3" font-family="arial" font-size="14.00" fill="#3cb4a4">array</text>
</g>
<!-- node179 -->
<g id="node13" class="node">
<title>node179</title>
<polygon fill="#da2d4f" stroke="black" points="949.5,-645 828.5,-645 828.5,-609 949.5,-609 949.5,-645"/>
<text text-anchor="middle" x="889" y="-623.3" font-family="Arial" font-size="14.00" fill="#ffffff">179 LoadIndexed</text>
</g>
<!-- node33&#45;&gt;node179 -->
<g id="edge30" class="edge">
<title>node33&#45;&gt;node179</title>
<path fill="none" stroke="#3cb4a4" d="M533.13,-1391.54C628.84,-1392.74 945,-1390.33 945,-1306 945,-1306 945,-1306 945,-713 945,-689.76 930.23,-667.97 915.86,-652.27"/>
<polygon fill="#3cb4a4" stroke="#3cb4a4" points="918.37,-649.84 908.9,-645.08 913.33,-654.7 918.37,-649.84"/>
<text text-anchor="middle" x="960.5" y="-996.8" font-family="arial" font-size="14.00" fill="#3cb4a4">array</text>
</g>
<!-- node43&#45;&gt;node59 -->
<g id="edge7" class="edge">
<title>node43&#45;&gt;node59</title>
<path fill="none" stroke="#da2d4f" stroke-width="2" d="M122.47,-1286.8C140.01,-1273.95 164.15,-1256.26 183.38,-1242.17"/>
<polygon fill="#da2d4f" stroke="#da2d4f" stroke-width="2" points="185.56,-1244.91 191.56,-1236.18 181.43,-1239.26 185.56,-1244.91"/>
</g>
<!-- node59&#45;&gt;node74 -->
<g id="edge10" class="edge">
<title>node59&#45;&gt;node74</title>
<path fill="none" stroke="#da2d4f" stroke-width="2" d="M234.43,-1199.8C248.61,-1187.24 268.03,-1170.05 283.76,-1156.12"/>
<polygon fill="#da2d4f" stroke="#da2d4f" stroke-width="2" points="286.44,-1158.43 291.6,-1149.18 281.79,-1153.18 286.44,-1158.43"/>
</g>
<!-- node74&#45;&gt;node92 -->
<g id="edge13" class="edge">
<title>node74&#45;&gt;node92</title>
<path fill="none" stroke="#da2d4f" stroke-width="2" d="M328.2,-1112.8C340.64,-1100.36 357.64,-1083.36 371.5,-1069.5"/>
<polygon fill="#da2d4f" stroke="#da2d4f" stroke-width="2" points="374.23,-1071.72 378.82,-1062.18 369.28,-1066.77 374.23,-1071.72"/>
</g>
<!-- node92&#45;&gt;node110 -->
<g id="edge16" class="edge">
<title>node92&#45;&gt;node110</title>
<path fill="none" stroke="#da2d4f" stroke-width="2" d="M415.63,-1025.8C429.96,-1013.24 449.58,-996.05 465.47,-982.12"/>
<polygon fill="#da2d4f" stroke="#da2d4f" stroke-width="2" points="468.19,-984.4 473.4,-975.18 463.57,-979.13 468.19,-984.4"/>
</g>
<!-- node110&#45;&gt;node125 -->
<g id="edge19" class="edge">
<title>node110&#45;&gt;node125</title>
<path fill="none" stroke="#da2d4f" stroke-width="2" d="M516,-938.86C531.14,-927.57 551.15,-912.66 567.73,-900.3"/>
<polygon fill="#da2d4f" stroke="#da2d4f" stroke-width="2" points="570.12,-902.89 576.04,-894.11 565.93,-897.28 570.12,-902.89"/>
</g>
<!-- node125&#45;&gt;node143 -->
<g id="edge22" class="edge">
<title>node125&#45;&gt;node143</title>
<path fill="none" stroke="#da2d4f" stroke-width="2" d="M623.3,-857.86C639.45,-846.47 660.83,-831.39 678.44,-818.96"/>
<polygon fill="#da2d4f" stroke="#da2d4f" stroke-width="2" points="680.59,-821.73 686.75,-813.11 676.56,-816.01 680.59,-821.73"/>
</g>
<!-- node143&#45;&gt;node161 -->
<g id="edge25" class="edge">
<title>node143&#45;&gt;node161</title>
<path fill="none" stroke="#da2d4f" stroke-width="2" d="M726.62,-776.86C736.53,-765.99 749.51,-751.75 760.51,-739.67"/>
<polygon fill="#da2d4f" stroke="#da2d4f" stroke-width="2" points="763.26,-741.86 767.41,-732.11 758.08,-737.14 763.26,-741.86"/>
</g>
<!-- node166 -->
<g id="node12" class="node">
<title>node166</title>
<polygon fill="#f9f9f9" stroke="black" points="810,-645 756,-645 756,-609 810,-609 810,-645"/>
<text text-anchor="middle" x="783" y="-623.3" font-family="Arial" font-size="14.00" fill="#1a1919">166 π</text>
</g>
<!-- node161&#45;&gt;node166 -->
<g id="edge29" class="edge">
<title>node161&#45;&gt;node166</title>
<path fill="none" stroke="#3cb4a4" d="M783,-695.8C783,-684.16 783,-668.55 783,-655.24"/>
<polygon fill="#3cb4a4" stroke="#3cb4a4" points="786.5,-655.18 783,-645.18 779.5,-655.18 786.5,-655.18"/>
<text text-anchor="middle" x="801.5" y="-666.8" font-family="arial" font-size="14.00" fill="#3cb4a4">object</text>
</g>
<!-- node161&#45;&gt;node179 -->
<g id="edge28" class="edge">
<title>node161&#45;&gt;node179</title>
<path fill="none" stroke="#da2d4f" stroke-width="2" d="M804.45,-695.8C820.26,-683.13 841.94,-665.73 859.4,-651.74"/>
<polygon fill="#da2d4f" stroke="#da2d4f" stroke-width="2" points="861.97,-654.16 867.58,-645.18 857.59,-648.7 861.97,-654.16"/>
</g>
<!-- node549 -->
<g id="node15" class="node">
<title>node549</title>
<polygon fill="#f9f9f9" stroke="black" points="827,-558 745,-558 745,-522 827,-522 827,-558"/>
<text text-anchor="middle" x="786" y="-536.3" font-family="Arial" font-size="14.00" fill="#1a1919">549 Unbox</text>
</g>
<!-- node166&#45;&gt;node549 -->
<g id="edge34" class="edge">
<title>node166&#45;&gt;node549</title>
<path fill="none" stroke="#3cb4a4" d="M783.61,-608.8C784.02,-597.16 784.57,-581.55 785.04,-568.24"/>
<polygon fill="#3cb4a4" stroke="#3cb4a4" points="788.54,-568.29 785.39,-558.18 781.54,-568.05 788.54,-568.29"/>
<text text-anchor="middle" x="800.5" y="-579.8" font-family="arial" font-size="14.00" fill="#3cb4a4">value</text>
</g>
<!-- node183 -->
<g id="node14" class="node">
<title>node183</title>
<polygon fill="#f9f9f9" stroke="black" points="916,-558 862,-558 862,-522 916,-522 916,-558"/>
<text text-anchor="middle" x="889" y="-536.3" font-family="Arial" font-size="14.00" fill="#1a1919">183 π</text>
</g>
<!-- node179&#45;&gt;node183 -->
<g id="edge33" class="edge">
<title>node179&#45;&gt;node183</title>
<path fill="none" stroke="#3cb4a4" d="M889,-608.8C889,-597.16 889,-581.55 889,-568.24"/>
<polygon fill="#3cb4a4" stroke="#3cb4a4" points="892.5,-568.18 889,-558.18 885.5,-568.18 892.5,-568.18"/>
<text text-anchor="middle" x="907.5" y="-579.8" font-family="arial" font-size="14.00" fill="#3cb4a4">object</text>
</g>
<!-- node179&#45;&gt;node549 -->
<g id="edge32" class="edge">
<title>node179&#45;&gt;node549</title>
<path fill="none" stroke="#da2d4f" stroke-width="2" d="M868.16,-608.8C852.8,-596.13 831.72,-578.73 814.76,-564.74"/>
<polygon fill="#da2d4f" stroke="#da2d4f" stroke-width="2" points="816.75,-561.84 806.81,-558.18 812.3,-567.24 816.75,-561.84"/>
</g>
<!-- node704 -->
<g id="node16" class="node">
<title>node704</title>
<polygon fill="#f9f9f9" stroke="black" points="827,-471 745,-471 745,-435 827,-435 827,-471"/>
<text text-anchor="middle" x="786" y="-449.3" font-family="Arial" font-size="14.00" fill="#1a1919">704 Unbox</text>
</g>
<!-- node183&#45;&gt;node704 -->
<g id="edge36" class="edge">
<title>node183&#45;&gt;node704</title>
<path fill="none" stroke="#3cb4a4" d="M868.16,-521.8C852.8,-509.13 831.72,-491.73 814.76,-477.74"/>
<polygon fill="#3cb4a4" stroke="#3cb4a4" points="816.75,-474.84 806.81,-471.18 812.3,-480.24 816.75,-474.84"/>
<text text-anchor="middle" x="859.5" y="-492.8" font-family="arial" font-size="14.00" fill="#3cb4a4">value</text>
</g>
<!-- node549&#45;&gt;node704 -->
<g id="edge35" class="edge">
<title>node549&#45;&gt;node704</title>
<path fill="none" stroke="#da2d4f" stroke-width="2" d="M786,-521.8C786,-510.16 786,-494.55 786,-481.24"/>
<polygon fill="#da2d4f" stroke="#da2d4f" stroke-width="2" points="789.5,-481.18 786,-471.18 782.5,-481.18 789.5,-481.18"/>
</g>
<!-- node1113 -->
<g id="node18" class="node">
<title>node1113</title>
<polygon fill="#3cb4a4" stroke="black" points="557,-384 370.32,-366 557,-348 743.68,-366 557,-384"/>
<text text-anchor="middle" x="557" y="-362.3" font-family="Arial" font-size="14.00" fill="#1a1919">1113 IntegerAddExactOverflow</text>
</g>
<!-- node549&#45;&gt;node1113 -->
<g id="edge40" class="edge">
<title>node549&#45;&gt;node1113</title>
<path fill="none" stroke="#3cb4a4" d="M763.21,-521.88C721.03,-490.2 630.95,-422.54 585.09,-388.1"/>
<polygon fill="#3cb4a4" stroke="#3cb4a4" points="587.16,-385.27 577.06,-382.07 582.95,-390.87 587.16,-385.27"/>
<text text-anchor="middle" x="697.5" y="-449.3" font-family="arial" font-size="14.00" fill="#3cb4a4">x</text>
</g>
<!-- node1115 -->
<g id="node19" class="node">
<title>node1115</title>
<polygon fill="#3cb4a4" stroke="black" points="773,-210 636.09,-192 773,-174 909.91,-192 773,-210"/>
<text text-anchor="middle" x="773" y="-188.3" font-family="Arial" font-size="14.00" fill="#1a1919">1115 IntegerAddExact</text>
</g>
<!-- node549&#45;&gt;node1115 -->
<g id="edge42" class="edge">
<title>node549&#45;&gt;node1115</title>
<path fill="none" stroke="#3cb4a4" d="M812.46,-521.79C832.29,-506.61 856,-482.48 856,-454 856,-454 856,-454 856,-278 856,-249.23 831.36,-226.58 808.93,-211.92"/>
<polygon fill="#3cb4a4" stroke="#3cb4a4" points="810.52,-208.79 800.18,-206.51 806.84,-214.74 810.52,-208.79"/>
<text text-anchor="middle" x="859.5" y="-362.3" font-family="arial" font-size="14.00" fill="#3cb4a4">x</text>
</g>
<!-- node1112 -->
<g id="node17" class="node">
<title>node1112</title>
<polygon fill="#ffa500" stroke="black" points="742.5,-297 477.5,-297 477.5,-261 742.5,-261 742.5,-297"/>
<text text-anchor="middle" x="610" y="-275.3" font-family="Arial" font-size="14.00" fill="#1a1919">1112 Guard not, else ArithmeticException</text>
</g>
<!-- node704&#45;&gt;node1112 -->
<g id="edge37" class="edge">
<title>node704&#45;&gt;node1112</title>
<path fill="none" stroke="#da2d4f" stroke-width="2" d="M791.73,-434.91C800.1,-406.4 811.76,-348.95 783,-315 777.56,-308.57 766.48,-303.3 752.43,-298.97"/>
<polygon fill="#da2d4f" stroke="#da2d4f" stroke-width="2" points="753.38,-295.6 742.8,-296.25 751.48,-302.33 753.38,-295.6"/>
</g>
<!-- node704&#45;&gt;node1113 -->
<g id="edge41" class="edge">
<title>node704&#45;&gt;node1113</title>
<path fill="none" stroke="#3cb4a4" d="M744.79,-436.71C704.98,-421.93 644.76,-399.57 603.3,-384.19"/>
<polygon fill="#3cb4a4" stroke="#3cb4a4" points="604.31,-380.83 593.72,-380.63 601.87,-387.39 604.31,-380.83"/>
<text text-anchor="middle" x="688.5" y="-405.8" font-family="arial" font-size="14.00" fill="#3cb4a4">y</text>
</g>
<!-- node704&#45;&gt;node1115 -->
<g id="edge43" class="edge">
<title>node704&#45;&gt;node1115</title>
<path fill="none" stroke="#3cb4a4" d="M785.13,-434.6C782.91,-390.36 777.03,-273.27 774.36,-220.03"/>
<polygon fill="#3cb4a4" stroke="#3cb4a4" points="777.85,-219.79 773.85,-209.98 770.86,-220.14 777.85,-219.79"/>
<text text-anchor="middle" x="782.5" y="-318.8" font-family="arial" font-size="14.00" fill="#3cb4a4">y</text>
</g>
<!-- node1112&#45;&gt;node1115 -->
<g id="edge44" class="edge">
<title>node1112&#45;&gt;node1115</title>
<path fill="none" stroke="#3cb4a4" d="M642.99,-260.8C670.48,-246.46 709.56,-226.08 737.69,-211.41"/>
<polygon fill="#3cb4a4" stroke="#3cb4a4" points="739.53,-214.4 746.77,-206.68 736.29,-208.2 739.53,-214.4"/>
<text text-anchor="middle" x="718.5" y="-231.8" font-family="arial" font-size="14.00" fill="#3cb4a4">guard</text>
</g>
<!-- node1167 -->
<g id="node21" class="node">
<title>node1167</title>
<polygon fill="#f9f9f9" stroke="black" points="721,-123 527,-123 527,-87 721,-87 721,-123"/>
<text text-anchor="middle" x="624" y="-101.3" font-family="Arial" font-size="14.00" fill="#1a1919">1167 BoxNode$AllocatingBox</text>
</g>
<!-- node1112&#45;&gt;node1167 -->
<g id="edge39" class="edge">
<title>node1112&#45;&gt;node1167</title>
<path fill="none" stroke="#da2d4f" stroke-width="2" d="M611.39,-260.88C613.83,-231 618.86,-169.11 621.78,-133.27"/>
<polygon fill="#da2d4f" stroke="#da2d4f" stroke-width="2" points="625.29,-133.3 622.61,-123.05 618.31,-132.73 625.29,-133.3"/>
</g>
<!-- node1113&#45;&gt;node1112 -->
<g id="edge38" class="edge">
<title>node1113&#45;&gt;node1112</title>
<path fill="none" stroke="#3cb4a4" d="M567.22,-348.61C574.77,-336.5 585.2,-319.77 593.87,-305.87"/>
<polygon fill="#3cb4a4" stroke="#3cb4a4" points="596.95,-307.55 599.27,-297.21 591.01,-303.85 596.95,-307.55"/>
<text text-anchor="middle" x="590" y="-318.8" font-family="arial" font-size="14.00" fill="#3cb4a4">?</text>
</g>
<!-- node1115&#45;&gt;node1167 -->
<g id="edge46" class="edge">
<title>node1115&#45;&gt;node1167</title>
<path fill="none" stroke="#3cb4a4" d="M748.73,-177.15C725.47,-163.88 689.97,-143.63 662.79,-128.13"/>
<polygon fill="#3cb4a4" stroke="#3cb4a4" points="664.34,-124.98 653.92,-123.07 660.87,-131.06 664.34,-124.98"/>
<text text-anchor="middle" x="723.5" y="-144.8" font-family="arial" font-size="14.00" fill="#3cb4a4">value</text>
</g>
<!-- node1144 -->
<g id="node20" class="node">
<title>node1144</title>
<polygon fill="#e98693" stroke="black" points="669,-36 579,-36 579,0 669,0 669,-36"/>
<text text-anchor="middle" x="624" y="-14.3" font-family="Arial" font-size="14.00" fill="#1a1919">1144 Return</text>
</g>
<!-- node1167&#45;&gt;node1144 -->
<g id="edge45" class="edge">
<title>node1167&#45;&gt;node1144</title>
<path fill="none" stroke="#3cb4a4" d="M609.9,-86.84C606.28,-81.46 602.88,-75.27 601,-69 598.59,-60.93 600.56,-52.49 604.19,-44.89"/>
<polygon fill="#3cb4a4" stroke="#3cb4a4" points="607.29,-46.53 609.25,-36.12 601.22,-43.03 607.29,-46.53"/>
<text text-anchor="middle" x="618" y="-57.8" font-family="arial" font-size="14.00" fill="#3cb4a4">result</text>
</g>
<!-- node1167&#45;&gt;node1144 -->
<g id="edge47" class="edge">
<title>node1167&#45;&gt;node1144</title>
<path fill="none" stroke="#da2d4f" stroke-width="2" d="M630.55,-86.8C632.37,-81.21 634.09,-74.92 635,-69 636.17,-61.39 635.29,-53.2 633.61,-45.71"/>
<polygon fill="#da2d4f" stroke="#da2d4f" stroke-width="2" points="636.97,-44.74 630.94,-36.02 630.22,-46.59 636.97,-44.74"/>
</g>
<!-- inline2x31 -->
<g id="node22" class="node">
<title>inline2x31</title>
<ellipse fill="#d7ede7" stroke="black" cx="470" cy="-1560" rx="27" ry="18"/>
<text text-anchor="middle" x="470" y="-1558.1" font-family="Arial" font-size="8.00" fill="#1a1919">2 P(1)</text>
</g>
<!-- inline2x31&#45;&gt;node31 -->
<g id="edge2" class="edge">
<title>inline2x31&#45;&gt;node31</title>
<path fill="none" stroke="#3cb4a4" d="M477.46,-1542.63C483.51,-1529.34 492.03,-1510.67 498.18,-1497.17"/>
<text text-anchor="middle" x="500" y="-1517.6" font-family="arial" font-size="8.00" fill="#3cb4a4">object</text>
</g>
<!-- inline30x31 -->
<g id="node23" class="node">
<title>inline30x31</title>
<ellipse fill="#d7ede7" stroke="black" cx="542" cy="-1560" rx="27" ry="18"/>
<text text-anchor="middle" x="542" y="-1558.1" font-family="Arial" font-size="8.00" fill="#1a1919">30 C(9)</text>
</g>
<!-- inline30x31&#45;&gt;node31 -->
<g id="edge3" class="edge">
<title>inline30x31&#45;&gt;node31</title>
<path fill="none" stroke="#3cb4a4" d="M534.54,-1542.63C528.49,-1529.34 519.97,-1510.67 513.82,-1497.17"/>
<text text-anchor="middle" x="536" y="-1517.6" font-family="arial" font-size="8.00" fill="#3cb4a4">length</text>
</g>
<!-- inline5x43 -->
<g id="node24" class="node">
<title>inline5x43</title>
<ellipse fill="#d7ede7" stroke="black" cx="101" cy="-1392" rx="27" ry="18"/>
<text text-anchor="middle" x="101" y="-1390.1" font-family="Arial" font-size="8.00" fill="#1a1919">5 C(0)</text>
</g>
<!-- inline5x43&#45;&gt;node43 -->
<g id="edge6" class="edge">
<title>inline5x43&#45;&gt;node43</title>
<path fill="none" stroke="#3cb4a4" d="M100.6,-1373.8C100.25,-1359.05 99.75,-1337.92 99.4,-1323.18"/>
<text text-anchor="middle" x="109.5" y="-1346.6" font-family="arial" font-size="8.00" fill="#3cb4a4">index</text>
</g>
<!-- inline23x59 -->
<g id="node25" class="node">
<title>inline23x59</title>
<ellipse fill="#d7ede7" stroke="black" cx="268" cy="-1305" rx="27" ry="18"/>
<text text-anchor="middle" x="268" y="-1303.1" font-family="Arial" font-size="8.00" fill="#1a1919">23 C(1)</text>
</g>
<!-- inline23x59&#45;&gt;node59 -->
<g id="edge9" class="edge">
<title>inline23x59&#45;&gt;node59</title>
<path fill="none" stroke="#3cb4a4" d="M258.03,-1288.01C248.8,-1273.2 235.1,-1251.23 225.65,-1236.08"/>
<text text-anchor="middle" x="253.5" y="-1259.6" font-family="arial" font-size="8.00" fill="#3cb4a4">index</text>
</g>
<!-- inline69x74 -->
<g id="node26" class="node">
<title>inline69x74</title>
<ellipse fill="#d7ede7" stroke="black" cx="366" cy="-1218" rx="27" ry="18"/>
<text text-anchor="middle" x="366" y="-1216.1" font-family="Arial" font-size="8.00" fill="#1a1919">69 C(2)</text>
</g>
<!-- inline69x74&#45;&gt;node74 -->
<g id="edge12" class="edge">
<title>inline69x74&#45;&gt;node74</title>
<path fill="none" stroke="#3cb4a4" d="M355.65,-1201.01C346.07,-1186.2 331.86,-1164.23 322.05,-1149.08"/>
<text text-anchor="middle" x="350.5" y="-1172.6" font-family="arial" font-size="8.00" fill="#3cb4a4">index</text>
</g>
<!-- inline87x92 -->
<g id="node27" class="node">
<title>inline87x92</title>
<ellipse fill="#d7ede7" stroke="black" cx="451" cy="-1131" rx="27" ry="18"/>
<text text-anchor="middle" x="451" y="-1129.1" font-family="Arial" font-size="8.00" fill="#1a1919">87 C(3)</text>
</g>
<!-- inline87x92&#45;&gt;node92 -->
<g id="edge15" class="edge">
<title>inline87x92&#45;&gt;node92</title>
<path fill="none" stroke="#3cb4a4" d="M440.65,-1114.01C431.07,-1099.2 416.86,-1077.23 407.05,-1062.08"/>
<text text-anchor="middle" x="435.5" y="-1085.6" font-family="arial" font-size="8.00" fill="#3cb4a4">index</text>
</g>
<!-- inline105x110 -->
<g id="node28" class="node">
<title>inline105x110</title>
<ellipse fill="#d7ede7" stroke="black" cx="537" cy="-1044" rx="27.59" ry="18"/>
<text text-anchor="middle" x="537" y="-1042.1" font-family="Arial" font-size="8.00" fill="#1a1919">105 C(4)</text>
</g>
<!-- inline105x110&#45;&gt;node110 -->
<g id="edge18" class="edge">
<title>inline105x110&#45;&gt;node110</title>
<path fill="none" stroke="#3cb4a4" d="M528.52,-1026.61C520.87,-1011.85 509.68,-990.22 501.91,-975.21"/>
<text text-anchor="middle" x="526.5" y="-998.6" font-family="arial" font-size="8.00" fill="#3cb4a4">index</text>
</g>
<!-- inline120x125 -->
<g id="node29" class="node">
<title>inline120x125</title>
<ellipse fill="#d7ede7" stroke="black" cx="643" cy="-957" rx="27.59" ry="18"/>
<text text-anchor="middle" x="643" y="-955.1" font-family="Arial" font-size="8.00" fill="#1a1919">120 C(5)</text>
</g>
<!-- inline120x125&#45;&gt;node125 -->
<g id="edge21" class="edge">
<title>inline120x125&#45;&gt;node125</title>
<path fill="none" stroke="#3cb4a4" d="M633.88,-939.63C626.48,-926.34 616.08,-907.67 608.56,-894.17"/>
<text text-anchor="middle" x="631.5" y="-914.6" font-family="arial" font-size="8.00" fill="#3cb4a4">index</text>
</g>
<!-- inline138x143 -->
<g id="node30" class="node">
<title>inline138x143</title>
<ellipse fill="#d7ede7" stroke="black" cx="755" cy="-876" rx="27.59" ry="18"/>
<text text-anchor="middle" x="755" y="-874.1" font-family="Arial" font-size="8.00" fill="#1a1919">138 C(6)</text>
</g>
<!-- inline138x143&#45;&gt;node143 -->
<g id="edge24" class="edge">
<title>inline138x143&#45;&gt;node143</title>
<path fill="none" stroke="#3cb4a4" d="M745.88,-858.63C738.48,-845.34 728.08,-826.67 720.56,-813.17"/>
<text text-anchor="middle" x="743.5" y="-833.6" font-family="arial" font-size="8.00" fill="#3cb4a4">index</text>
</g>
<!-- inline156x161 -->
<g id="node31" class="node">
<title>inline156x161</title>
<ellipse fill="#d7ede7" stroke="black" cx="867" cy="-795" rx="27.59" ry="18"/>
<text text-anchor="middle" x="867" y="-793.1" font-family="Arial" font-size="8.00" fill="#1a1919">156 C(7)</text>
</g>
<!-- inline156x161&#45;&gt;node161 -->
<g id="edge27" class="edge">
<title>inline156x161&#45;&gt;node161</title>
<path fill="none" stroke="#3cb4a4" d="M853.41,-778.92C845.37,-770.23 834.87,-759.23 825,-750 818.62,-744.04 811.4,-737.84 804.77,-732.35"/>
<text text-anchor="middle" x="842.5" y="-752.6" font-family="arial" font-size="8.00" fill="#3cb4a4">index</text>
</g>
<!-- inline174x179 -->
<g id="node32" class="node">
<title>inline174x179</title>
<ellipse fill="#d7ede7" stroke="black" cx="889" cy="-714" rx="27.59" ry="18"/>
<text text-anchor="middle" x="889" y="-712.1" font-family="Arial" font-size="8.00" fill="#1a1919">174 C(8)</text>
</g>
<!-- inline174x179&#45;&gt;node179 -->
<g id="edge31" class="edge">
<title>inline174x179&#45;&gt;node179</title>
<path fill="none" stroke="#3cb4a4" d="M889,-695.8C889,-681.05 889,-659.92 889,-645.18"/>
<text text-anchor="middle" x="898.5" y="-668.6" font-family="arial" font-size="8.00" fill="#3cb4a4">index</text>
</g>
</g>
</svg>
