<?xml version="1.0" encoding="UTF-8" standalone="no"?>
<!DOCTYPE svg PUBLIC "-//W3C//DTD SVG 1.1//EN"
 "http://www.w3.org/Graphics/SVG/1.1/DTD/svg11.dtd">
<!-- Generated by graphviz version 2.44.1 (20200629.0846)
 -->
<!-- Title: G Pages: 1 -->
<svg width="728pt" height="1557pt"
 viewBox="0.00 0.00 728.00 1557.00" xmlns="http://www.w3.org/2000/svg" xmlns:xlink="http://www.w3.org/1999/xlink">
<g id="graph0" class="graph" transform="scale(1 1) rotate(0) translate(4 1553)">
<title>G</title>
<!-- node0 -->
<g id="node1" class="node">
<title>node0</title>
<polygon fill="#e98693" stroke="black" points="56,-1549 0,-1549 0,-1513 56,-1513 56,-1549"/>
<text text-anchor="middle" x="28" y="-1527.3" font-family="Arial" font-size="14.00" fill="#1a1919">0 Start</text>
</g>
<!-- node1527 -->
<g id="node22" class="node">
<title>node1527</title>
<polygon fill="#da2d4f" stroke="black" points="120.5,-1468 7.5,-1468 7.5,-1432 120.5,-1432 120.5,-1468"/>
<text text-anchor="middle" x="64" y="-1446.3" font-family="Arial" font-size="14.00" fill="#ffffff">1527 Load T(...)</text>
</g>
<!-- node0&#45;&gt;node1527 -->
<g id="edge39" class="edge">
<title>node0&#45;&gt;node1527</title>
<path fill="none" stroke="#da2d4f" stroke-width="2" d="M35.81,-1512.86C40.53,-1502.51 46.64,-1489.1 51.96,-1477.41"/>
<polygon fill="#da2d4f" stroke="#da2d4f" stroke-width="2" points="55.24,-1478.66 56.2,-1468.11 48.87,-1475.76 55.24,-1478.66"/>
</g>
<!-- node532 -->
<g id="node2" class="node">
<title>node532</title>
<polygon fill="#f9f9f9" stroke="black" points="156,-1387 74,-1387 74,-1351 156,-1351 156,-1387"/>
<text text-anchor="middle" x="115" y="-1365.3" font-family="Arial" font-size="14.00" fill="#1a1919">532 Unbox</text>
</g>
<!-- node1515 -->
<g id="node19" class="node">
<title>node1515</title>
<polygon fill="#da2d4f" stroke="black" points="310.5,-1300 231.5,-1300 231.5,-1264 310.5,-1264 310.5,-1300"/>
<text text-anchor="middle" x="271" y="-1278.3" font-family="Arial" font-size="14.00" fill="#ffffff">1515 Alloc</text>
</g>
<!-- node532&#45;&gt;node1515 -->
<g id="edge1" class="edge">
<title>node532&#45;&gt;node1515</title>
<path fill="none" stroke="#da2d4f" stroke-width="2" d="M125.22,-1350.94C132.53,-1340.07 143.31,-1326.49 156,-1318 175.47,-1304.98 199.96,-1296.64 221.34,-1291.39"/>
<polygon fill="#da2d4f" stroke="#da2d4f" stroke-width="2" points="222.27,-1294.77 231.23,-1289.12 220.7,-1287.95 222.27,-1294.77"/>
</g>
<!-- node532&#45;&gt;node1515 -->
<g id="edge30" class="edge">
<title>node532&#45;&gt;node1515</title>
<path fill="none" stroke="#3cb4a4" d="M143.04,-1350.81C159.46,-1340.91 180.71,-1328.41 200,-1318 208.26,-1313.54 217.17,-1308.97 225.79,-1304.67"/>
<polygon fill="#3cb4a4" stroke="#3cb4a4" points="227.57,-1307.69 234.98,-1300.12 224.47,-1301.41 227.57,-1307.69"/>
<text text-anchor="middle" x="220" y="-1321.8" font-family="arial" font-size="14.00" fill="#3cb4a4">values</text>
</g>
<!-- node1003 -->
<g id="node3" class="node">
<title>node1003</title>
<ellipse fill="black" stroke="black" cx="271" cy="-1108" rx="18" ry="18"/>
</g>
<!-- node1226 -->
<g id="node4" class="node">
<title>node1226</title>
<polygon fill="#da2d4f" stroke="black" points="337,-1053 31,-1053 31,-1017 337,-1017 337,-1053"/>
<text text-anchor="middle" x="184" y="-1031.3" font-family="Arial" font-size="14.00" fill="#ffffff">1226 LoadField RubyDynamicObject.metaClass</text>
</g>
<!-- node1003&#45;&gt;node1226 -->
<g id="edge3" class="edge">
<title>node1003&#45;&gt;node1226</title>
<path fill="none" stroke="#da2d4f" stroke-width="2" d="M257.41,-1095.91C245.55,-1086.23 227.95,-1071.87 212.96,-1059.63"/>
<polygon fill="#da2d4f" stroke="#da2d4f" stroke-width="2" points="214.91,-1056.71 204.95,-1053.1 210.48,-1062.13 214.91,-1056.71"/>
</g>
<!-- node1277 -->
<g id="node5" class="node">
<title>node1277</title>
<polygon fill="#3cb4a4" stroke="black" points="284,-966 222.33,-948 284,-930 345.67,-948 284,-966"/>
<text text-anchor="middle" x="284" y="-944.3" font-family="Arial" font-size="14.00" fill="#1a1919">1277 ==</text>
</g>
<!-- node1226&#45;&gt;node1277 -->
<g id="edge6" class="edge">
<title>node1226&#45;&gt;node1277</title>
<path fill="none" stroke="#3cb4a4" d="M204.24,-1016.8C220.72,-1002.79 243.98,-983.02 261.13,-968.44"/>
<polygon fill="#3cb4a4" stroke="#3cb4a4" points="263.65,-970.89 269,-961.75 259.12,-965.56 263.65,-970.89"/>
<text text-anchor="middle" x="242.5" y="-987.8" font-family="arial" font-size="14.00" fill="#3cb4a4">x</text>
</g>
<!-- node1497 -->
<g id="node14" class="node">
<title>node1497</title>
<polygon fill="#ffa500" stroke="black" points="409.5,-879 158.5,-879 158.5,-843 409.5,-843 409.5,-879"/>
<text text-anchor="middle" x="284" y="-857.3" font-family="Arial" font-size="14.00" fill="#1a1919">1497 Guard, else TransferToInterpreter</text>
</g>
<!-- node1226&#45;&gt;node1497 -->
<g id="edge5" class="edge">
<title>node1226&#45;&gt;node1497</title>
<path fill="none" stroke="#da2d4f" stroke-width="2" d="M185.97,-1016.69C189.04,-995.1 196.44,-957.66 213,-930 223.11,-913.11 238.53,-897.63 252.42,-885.72"/>
<polygon fill="#da2d4f" stroke="#da2d4f" stroke-width="2" points="254.89,-888.22 260.36,-879.14 250.43,-882.83 254.89,-888.22"/>
</g>
<!-- node1277&#45;&gt;node1497 -->
<g id="edge21" class="edge">
<title>node1277&#45;&gt;node1497</title>
<path fill="none" stroke="#3cb4a4" d="M284,-929.8C284,-918.16 284,-902.55 284,-889.24"/>
<polygon fill="#3cb4a4" stroke="#3cb4a4" points="287.5,-889.18 284,-879.18 280.5,-889.18 287.5,-889.18"/>
<text text-anchor="middle" x="288" y="-900.8" font-family="arial" font-size="14.00" fill="#3cb4a4">?</text>
</g>
<!-- node1407 -->
<g id="node6" class="node">
<title>node1407</title>
<polygon fill="#da2d4f" stroke="black" points="421,-806 211,-806 211,-770 421,-770 421,-806"/>
<text text-anchor="middle" x="316" y="-784.3" font-family="Arial" font-size="14.00" fill="#ffffff">1407 LoadField RubyArray.store</text>
</g>
<!-- node1411 -->
<g id="node7" class="node">
<title>node1411</title>
<polygon fill="#f9f9f9" stroke="black" points="550,-719 386,-719 386,-683 550,-683 550,-719"/>
<text text-anchor="middle" x="468" y="-697.3" font-family="Arial" font-size="14.00" fill="#1a1919">1411 InstanceOf a!# int[]</text>
</g>
<!-- node1407&#45;&gt;node1411 -->
<g id="edge10" class="edge">
<title>node1407&#45;&gt;node1411</title>
<path fill="none" stroke="#3cb4a4" d="M346.76,-769.8C370.32,-756.62 403.01,-738.34 428.51,-724.08"/>
<polygon fill="#3cb4a4" stroke="#3cb4a4" points="430.53,-726.97 437.55,-719.03 427.11,-720.86 430.53,-726.97"/>
<text text-anchor="middle" x="417.5" y="-740.8" font-family="arial" font-size="14.00" fill="#3cb4a4">value</text>
</g>
<!-- node1446 -->
<g id="node11" class="node">
<title>node1446</title>
<polygon fill="#f9f9f9" stroke="black" points="342.5,-665 181.5,-665 181.5,-629 342.5,-629 342.5,-665"/>
<text text-anchor="middle" x="262" y="-643.3" font-family="Arial" font-size="14.00" fill="#1a1919">1446 InstanceOf a# int[]</text>
</g>
<!-- node1407&#45;&gt;node1446 -->
<g id="edge17" class="edge">
<title>node1407&#45;&gt;node1446</title>
<path fill="none" stroke="#3cb4a4" d="M309.38,-769.96C300.15,-746.2 283.32,-702.88 272.4,-674.78"/>
<polygon fill="#3cb4a4" stroke="#3cb4a4" points="275.56,-673.24 268.68,-665.18 269.03,-675.77 275.56,-673.24"/>
<text text-anchor="middle" x="318.5" y="-740.8" font-family="arial" font-size="14.00" fill="#3cb4a4">value</text>
</g>
<!-- node1447 -->
<g id="node12" class="node">
<title>node1447</title>
<polygon fill="#da2d4f" stroke="black" points="381,-210 253,-210 253,-174 381,-174 381,-210"/>
<text text-anchor="middle" x="317" y="-188.3" font-family="Arial" font-size="14.00" fill="#ffffff">1447 LoadIndexed</text>
</g>
<!-- node1407&#45;&gt;node1447 -->
<g id="edge36" class="edge">
<title>node1407&#45;&gt;node1447</title>
<path fill="none" stroke="#3cb4a4" d="M230.92,-769.85C197.06,-757.61 166,-736.87 166,-702 166,-702 166,-702 166,-272 166,-233.71 204.6,-213.94 242.77,-203.76"/>
<polygon fill="#3cb4a4" stroke="#3cb4a4" points="244.09,-207.04 252.96,-201.25 242.42,-200.24 244.09,-207.04"/>
<text text-anchor="middle" x="181.5" y="-472.8" font-family="arial" font-size="14.00" fill="#3cb4a4">array</text>
</g>
<!-- node1499 -->
<g id="node16" class="node">
<title>node1499</title>
<polygon fill="#ffa500" stroke="black" points="550.5,-611 299.5,-611 299.5,-575 550.5,-575 550.5,-611"/>
<text text-anchor="middle" x="425" y="-589.3" font-family="Arial" font-size="14.00" fill="#1a1919">1499 Guard, else TransferToInterpreter</text>
</g>
<!-- node1407&#45;&gt;node1499 -->
<g id="edge9" class="edge">
<title>node1407&#45;&gt;node1499</title>
<path fill="none" stroke="#da2d4f" stroke-width="2" d="M327.75,-769.73C331.45,-764.14 335.49,-757.86 339,-752 346.47,-739.54 388.49,-661.77 410.9,-620.18"/>
<polygon fill="#da2d4f" stroke="#da2d4f" stroke-width="2" points="414.1,-621.63 415.76,-611.17 407.94,-618.31 414.1,-621.63"/>
</g>
<!-- node1411&#45;&gt;node1499 -->
<g id="edge25" class="edge">
<title>node1411&#45;&gt;node1499</title>
<path fill="none" stroke="#3cb4a4" d="M461.09,-682.97C454.27,-666.15 443.73,-640.17 435.8,-620.62"/>
<polygon fill="#3cb4a4" stroke="#3cb4a4" points="439.04,-619.29 432.03,-611.34 432.55,-621.92 439.04,-619.29"/>
<text text-anchor="middle" x="456" y="-643.3" font-family="arial" font-size="14.00" fill="#3cb4a4">?</text>
</g>
<!-- node1420 -->
<g id="node8" class="node">
<title>node1420</title>
<polygon fill="#da2d4f" stroke="black" points="529,-538 325,-538 325,-502 529,-502 529,-538"/>
<text text-anchor="middle" x="427" y="-516.3" font-family="Arial" font-size="14.00" fill="#ffffff">1420 LoadField RubyArray.size</text>
</g>
<!-- node1422 -->
<g id="node9" class="node">
<title>node1422</title>
<polygon fill="#3cb4a4" stroke="black" points="509,-451 454.54,-433 509,-415 563.46,-433 509,-451"/>
<text text-anchor="middle" x="509" y="-429.3" font-family="Arial" font-size="14.00" fill="#1a1919">1422 &lt;</text>
</g>
<!-- node1420&#45;&gt;node1422 -->
<g id="edge13" class="edge">
<title>node1420&#45;&gt;node1422</title>
<path fill="none" stroke="#3cb4a4" d="M443.59,-501.8C456.78,-488.13 475.27,-468.97 489.22,-454.5"/>
<polygon fill="#3cb4a4" stroke="#3cb4a4" points="492.02,-456.64 496.45,-447.01 486.99,-451.78 492.02,-456.64"/>
<text text-anchor="middle" x="475.5" y="-472.8" font-family="arial" font-size="14.00" fill="#3cb4a4">x</text>
</g>
<!-- node1498 -->
<g id="node15" class="node">
<title>node1498</title>
<polygon fill="#ffa500" stroke="black" points="564,-364 290,-364 290,-328 564,-328 564,-364"/>
<text text-anchor="middle" x="427" y="-342.3" font-family="Arial" font-size="14.00" fill="#1a1919">1498 Guard not, else TransferToInterpreter</text>
</g>
<!-- node1420&#45;&gt;node1498 -->
<g id="edge12" class="edge">
<title>node1420&#45;&gt;node1498</title>
<path fill="none" stroke="#da2d4f" stroke-width="2" d="M427,-501.88C427,-472 427,-410.11 427,-374.27"/>
<polygon fill="#da2d4f" stroke="#da2d4f" stroke-width="2" points="430.5,-374.05 427,-364.05 423.5,-374.05 430.5,-374.05"/>
</g>
<!-- node1422&#45;&gt;node1498 -->
<g id="edge23" class="edge">
<title>node1422&#45;&gt;node1498</title>
<path fill="none" stroke="#3cb4a4" d="M496.55,-419.09C484.38,-406.48 465.55,-386.96 450.56,-371.42"/>
<polygon fill="#3cb4a4" stroke="#3cb4a4" points="453.01,-368.92 443.55,-364.15 447.97,-373.78 453.01,-368.92"/>
<text text-anchor="middle" x="476" y="-385.8" font-family="arial" font-size="14.00" fill="#3cb4a4">?</text>
</g>
<!-- node1445 -->
<g id="node10" class="node">
<title>node1445</title>
<polygon fill="#ffa500" stroke="black" points="439.5,-291 194.5,-291 194.5,-255 439.5,-255 439.5,-291"/>
<text text-anchor="middle" x="317" y="-269.3" font-family="Arial" font-size="14.00" fill="#1a1919">1445 Guard, else ClassCastException</text>
</g>
<!-- node1445&#45;&gt;node1447 -->
<g id="edge16" class="edge">
<title>node1445&#45;&gt;node1447</title>
<path fill="none" stroke="#da2d4f" stroke-width="2" d="M317,-254.86C317,-244.71 317,-231.63 317,-220.12"/>
<polygon fill="#da2d4f" stroke="#da2d4f" stroke-width="2" points="320.5,-220.11 317,-210.11 313.5,-220.11 320.5,-220.11"/>
</g>
<!-- node1446&#45;&gt;node1445 -->
<g id="edge15" class="edge">
<title>node1446&#45;&gt;node1445</title>
<path fill="none" stroke="#3cb4a4" d="M262,-628.94C262,-611.02 262,-582.03 262,-557 262,-557 262,-557 262,-345 262,-326.75 273.49,-310.35 285.97,-297.92"/>
<polygon fill="#3cb4a4" stroke="#3cb4a4" points="288.4,-300.44 293.36,-291.08 283.64,-295.31 288.4,-300.44"/>
<text text-anchor="middle" x="266" y="-472.8" font-family="arial" font-size="14.00" fill="#3cb4a4">?</text>
</g>
<!-- node1526 -->
<g id="node21" class="node">
<title>node1526</title>
<polygon fill="#f9f9f9" stroke="black" points="414.5,-123 219.5,-123 219.5,-87 414.5,-87 414.5,-123"/>
<text text-anchor="middle" x="317" y="-101.3" font-family="Arial" font-size="14.00" fill="#1a1919">1526 BoxNode$AllocatingBox</text>
</g>
<!-- node1447&#45;&gt;node1526 -->
<g id="edge19" class="edge">
<title>node1447&#45;&gt;node1526</title>
<path fill="none" stroke="#da2d4f" stroke-width="2" d="M315.83,-173.92C315.49,-168.22 315.17,-161.84 315,-156 314.79,-148.65 314.94,-140.69 315.23,-133.33"/>
<polygon fill="#da2d4f" stroke="#da2d4f" stroke-width="2" points="318.74,-133.28 315.73,-123.12 311.74,-132.94 318.74,-133.28"/>
</g>
<!-- node1447&#45;&gt;node1526 -->
<g id="edge34" class="edge">
<title>node1447&#45;&gt;node1526</title>
<path fill="none" stroke="#3cb4a4" d="M317,-173.8C317,-162.16 317,-146.55 317,-133.24"/>
<polygon fill="#3cb4a4" stroke="#3cb4a4" points="320.5,-133.18 317,-123.18 313.5,-133.18 320.5,-133.18"/>
<text text-anchor="middle" x="333.5" y="-144.8" font-family="arial" font-size="14.00" fill="#3cb4a4">value</text>
</g>
<!-- node1490 -->
<g id="node13" class="node">
<title>node1490</title>
<polygon fill="#e98693" stroke="black" points="362.5,-36 271.5,-36 271.5,0 362.5,0 362.5,-36"/>
<text text-anchor="middle" x="317" y="-14.3" font-family="Arial" font-size="14.00" fill="#1a1919">1490 Return</text>
</g>
<!-- node1497&#45;&gt;node1407 -->
<g id="edge22" class="edge">
<title>node1497&#45;&gt;node1407</title>
<path fill="none" stroke="#da2d4f" stroke-width="2" d="M291.75,-842.81C295.48,-834.53 300.04,-824.41 304.19,-815.19"/>
<polygon fill="#da2d4f" stroke="#da2d4f" stroke-width="2" points="307.41,-816.58 308.33,-806.03 301.03,-813.71 307.41,-816.58"/>
</g>
<!-- node1498&#45;&gt;node1445 -->
<g id="edge24" class="edge">
<title>node1498&#45;&gt;node1445</title>
<path fill="none" stroke="#da2d4f" stroke-width="2" d="M400.65,-327.99C386.07,-318.58 367.75,-306.76 351.98,-296.57"/>
<polygon fill="#da2d4f" stroke="#da2d4f" stroke-width="2" points="353.81,-293.6 343.51,-291.11 350.02,-299.48 353.81,-293.6"/>
</g>
<!-- node1499&#45;&gt;node1420 -->
<g id="edge26" class="edge">
<title>node1499&#45;&gt;node1420</title>
<path fill="none" stroke="#da2d4f" stroke-width="2" d="M425.48,-574.81C425.71,-566.79 425.98,-557.05 426.24,-548.07"/>
<polygon fill="#da2d4f" stroke="#da2d4f" stroke-width="2" points="429.74,-548.12 426.52,-538.03 422.74,-547.93 429.74,-548.12"/>
</g>
<!-- node1512 -->
<g id="node17" class="node">
<title>node1512</title>
<polygon fill="#343d46" stroke="black" points="328,-1387 174,-1387 174,-1351 328,-1351 328,-1387"/>
<text text-anchor="middle" x="251" y="-1365.3" font-family="Arial" font-size="14.00" fill="#ffffff">1512 VirtualArray int[1]</text>
</g>
<!-- node1512&#45;&gt;node1515 -->
<g id="edge28" class="edge">
<title>node1512&#45;&gt;node1515</title>
<path fill="none" stroke="#3cb4a4" d="M246.53,-1350.99C244.7,-1341.15 243.7,-1328.65 247,-1318 247.98,-1314.83 249.36,-1311.7 250.96,-1308.68"/>
<polygon fill="#3cb4a4" stroke="#3cb4a4" points="254,-1310.42 256.29,-1300.07 248.05,-1306.74 254,-1310.42"/>
<text text-anchor="middle" x="288.5" y="-1321.8" font-family="arial" font-size="14.00" fill="#3cb4a4">virtualObjects</text>
</g>
<!-- node1512&#45;&gt;node1515 -->
<g id="edge29" class="edge">
<title>node1512&#45;&gt;node1515</title>
<path fill="none" stroke="#3cb4a4" d="M310.77,-1350.9C318.37,-1346.28 325.17,-1340.42 330,-1333 337.07,-1322.13 330.41,-1312.35 319.38,-1304.38"/>
<polygon fill="#3cb4a4" stroke="#3cb4a4" points="321.03,-1301.28 310.7,-1298.91 317.29,-1307.2 321.03,-1301.28"/>
<text text-anchor="middle" x="352" y="-1321.8" font-family="arial" font-size="14.00" fill="#3cb4a4">values</text>
</g>
<!-- node1514 -->
<g id="node18" class="node">
<title>node1514</title>
<polygon fill="#f9f9f9" stroke="black" points="720,-1387 346,-1387 346,-1351 720,-1351 720,-1387"/>
<text text-anchor="middle" x="533" y="-1365.3" font-family="Arial" font-size="14.00" fill="#1a1919">1514 VirtualInstance(6) org.truffleruby.core.array.RubyArray</text>
</g>
<!-- node1514&#45;&gt;node1515 -->
<g id="edge27" class="edge">
<title>node1514&#45;&gt;node1515</title>
<path fill="none" stroke="#3cb4a4" d="M480.3,-1350.9C433.66,-1335.77 366.11,-1313.86 320.47,-1299.05"/>
<polygon fill="#3cb4a4" stroke="#3cb4a4" points="321.39,-1295.67 310.8,-1295.91 319.23,-1302.33 321.39,-1295.67"/>
<text text-anchor="middle" x="458.5" y="-1321.8" font-family="arial" font-size="14.00" fill="#3cb4a4">virtualObjects</text>
</g>
<!-- node1516 -->
<g id="node20" class="node">
<title>node1516</title>
<polygon fill="#343d46" stroke="black" points="580.5,-1213 435.5,-1213 435.5,-1177 580.5,-1177 580.5,-1213"/>
<text text-anchor="middle" x="508" y="-1191.3" font-family="Arial" font-size="14.00" fill="#ffffff">1516 AllocatedObject</text>
</g>
<!-- node1514&#45;&gt;node1516 -->
<g id="edge32" class="edge">
<title>node1514&#45;&gt;node1516</title>
<path fill="none" stroke="#3cb4a4" d="M530.51,-1350.88C526.17,-1321 517.17,-1259.11 511.96,-1223.27"/>
<polygon fill="#3cb4a4" stroke="#3cb4a4" points="515.38,-1222.44 510.48,-1213.05 508.45,-1223.45 515.38,-1222.44"/>
<text text-anchor="middle" x="560" y="-1278.3" font-family="arial" font-size="14.00" fill="#3cb4a4">virtualObject</text>
</g>
<!-- node1515&#45;&gt;node1003 -->
<g id="edge31" class="edge">
<title>node1515&#45;&gt;node1003</title>
<path fill="none" stroke="#da2d4f" stroke-width="2" d="M271,-1263.88C271,-1234 271,-1172.11 271,-1136.27"/>
<polygon fill="#da2d4f" stroke="#da2d4f" stroke-width="2" points="274.5,-1136.05 271,-1126.05 267.5,-1136.05 274.5,-1136.05"/>
</g>
<!-- node1515&#45;&gt;node1516 -->
<g id="edge33" class="edge">
<title>node1515&#45;&gt;node1516</title>
<path fill="none" stroke="#3cb4a4" d="M310.67,-1266.77C349.01,-1253.02 407.51,-1232.04 450.87,-1216.49"/>
<polygon fill="#3cb4a4" stroke="#3cb4a4" points="452.2,-1219.73 460.43,-1213.06 449.84,-1213.14 452.2,-1219.73"/>
<text text-anchor="middle" x="426" y="-1234.8" font-family="arial" font-size="14.00" fill="#3cb4a4">commit</text>
</g>
<!-- node1516&#45;&gt;node1003 -->
<g id="edge2" class="edge">
<title>node1516&#45;&gt;node1003</title>
<path fill="none" stroke="#3cb4a4" d="M449.63,-1176.93C431.98,-1171.5 412.61,-1165.26 395,-1159 360.59,-1146.76 321.65,-1130.68 296.73,-1120.1"/>
<polygon fill="#3cb4a4" stroke="#3cb4a4" points="297.85,-1116.78 287.28,-1116.07 295.1,-1123.21 297.85,-1116.78"/>
<text text-anchor="middle" x="411.5" y="-1147.8" font-family="arial" font-size="14.00" fill="#3cb4a4">value</text>
</g>
<!-- node1516&#45;&gt;node1226 -->
<g id="edge4" class="edge">
<title>node1516&#45;&gt;node1226</title>
<path fill="none" stroke="#3cb4a4" d="M482.61,-1176.84C467.15,-1166.71 446.81,-1153.98 428,-1144 363.98,-1110.05 287.1,-1077.27 236.98,-1056.9"/>
<polygon fill="#3cb4a4" stroke="#3cb4a4" points="238.21,-1053.62 227.63,-1053.12 235.59,-1060.11 238.21,-1053.62"/>
<text text-anchor="middle" x="410.5" y="-1104.3" font-family="arial" font-size="14.00" fill="#3cb4a4">object</text>
</g>
<!-- node1516&#45;&gt;node1407 -->
<g id="edge8" class="edge">
<title>node1516&#45;&gt;node1407</title>
<path fill="none" stroke="#3cb4a4" d="M514.12,-1176.99C519.67,-1160.01 527,-1133.04 527,-1109 527,-1109 527,-1109 527,-860 527,-836.76 480.46,-819.69 431.09,-808.12"/>
<polygon fill="#3cb4a4" stroke="#3cb4a4" points="431.72,-804.68 421.19,-805.88 430.17,-811.5 431.72,-804.68"/>
<text text-anchor="middle" x="545.5" y="-987.8" font-family="arial" font-size="14.00" fill="#3cb4a4">object</text>
</g>
<!-- node1516&#45;&gt;node1420 -->
<g id="edge11" class="edge">
<title>node1516&#45;&gt;node1420</title>
<path fill="none" stroke="#3cb4a4" d="M534.84,-1176.88C554.95,-1161.74 579,-1137.65 579,-1109 579,-1109 579,-1109 579,-592 579,-566.8 561.64,-550.53 538.65,-540.02"/>
<polygon fill="#3cb4a4" stroke="#3cb4a4" points="539.81,-536.71 529.23,-536.13 537.14,-543.18 539.81,-536.71"/>
<text text-anchor="middle" x="597.5" y="-857.3" font-family="arial" font-size="14.00" fill="#3cb4a4">object</text>
</g>
<!-- node1526&#45;&gt;node1490 -->
<g id="edge20" class="edge">
<title>node1526&#45;&gt;node1490</title>
<path fill="none" stroke="#3cb4a4" d="M302.9,-86.84C299.28,-81.46 295.88,-75.27 294,-69 291.59,-60.93 293.56,-52.49 297.19,-44.89"/>
<polygon fill="#3cb4a4" stroke="#3cb4a4" points="300.29,-46.53 302.25,-36.12 294.22,-43.03 300.29,-46.53"/>
<text text-anchor="middle" x="311" y="-57.8" font-family="arial" font-size="14.00" fill="#3cb4a4">result</text>
</g>
<!-- node1526&#45;&gt;node1490 -->
<g id="edge35" class="edge">
<title>node1526&#45;&gt;node1490</title>
<path fill="none" stroke="#da2d4f" stroke-width="2" d="M323.55,-86.8C325.37,-81.21 327.09,-74.92 328,-69 329.17,-61.39 328.29,-53.2 326.61,-45.71"/>
<polygon fill="#da2d4f" stroke="#da2d4f" stroke-width="2" points="329.97,-44.74 323.94,-36.02 323.22,-46.59 329.97,-44.74"/>
</g>
<!-- node1527&#45;&gt;node532 -->
<g id="edge40" class="edge">
<title>node1527&#45;&gt;node532</title>
<path fill="none" stroke="#da2d4f" stroke-width="2" d="M75.07,-1431.86C81.88,-1421.3 90.75,-1407.56 98.4,-1395.71"/>
<polygon fill="#da2d4f" stroke="#da2d4f" stroke-width="2" points="101.47,-1397.41 103.96,-1387.11 95.59,-1393.61 101.47,-1397.41"/>
</g>
<!-- inline780x1277 -->
<g id="node23" class="node">
<title>inline780x1277</title>
<ellipse fill="#d7ede7" stroke="black" cx="427" cy="-1035" rx="72.08" ry="18"/>
<text text-anchor="middle" x="427" y="-1033.1" font-family="Arial" font-size="8.00" fill="#1a1919">780 C(RubyClass@2ea96dd3)</text>
</g>
<!-- inline780x1277&#45;&gt;node1277 -->
<g id="edge7" class="edge">
<title>inline780x1277&#45;&gt;node1277</title>
<path fill="none" stroke="#3cb4a4" d="M400.44,-1018.21C372.33,-1001.5 328.64,-975.53 303.53,-960.61"/>
<text text-anchor="middle" x="366" y="-989.6" font-family="arial" font-size="8.00" fill="#3cb4a4">y</text>
</g>
<!-- inline23x1422 -->
<g id="node24" class="node">
<title>inline23x1422</title>
<ellipse fill="#d7ede7" stroke="black" cx="574" cy="-520" rx="27" ry="18"/>
<text text-anchor="middle" x="574" y="-518.1" font-family="Arial" font-size="8.00" fill="#1a1919">23 C(1)</text>
</g>
<!-- inline23x1422&#45;&gt;node1422 -->
<g id="edge14" class="edge">
<title>inline23x1422&#45;&gt;node1422</title>
<path fill="none" stroke="#3cb4a4" d="M562.08,-503.41C549.91,-487.5 531.2,-463.04 519.56,-447.8"/>
<text text-anchor="middle" x="547" y="-474.6" font-family="arial" font-size="8.00" fill="#3cb4a4">y</text>
</g>
<!-- inline5x1447 -->
<g id="node25" class="node">
<title>inline5x1447</title>
<ellipse fill="#d7ede7" stroke="black" cx="485" cy="-273" rx="27" ry="18"/>
<text text-anchor="middle" x="485" y="-271.1" font-family="Arial" font-size="8.00" fill="#1a1919">5 C(0)</text>
</g>
<!-- inline5x1447&#45;&gt;node1447 -->
<g id="edge18" class="edge">
<title>inline5x1447&#45;&gt;node1447</title>
<path fill="none" stroke="#3cb4a4" d="M463.68,-261.92C458.86,-259.65 453.75,-257.24 449,-255 416.7,-239.79 379.94,-222.53 353.43,-210.09"/>
<text text-anchor="middle" x="418.5" y="-230.6" font-family="arial" font-size="8.00" fill="#3cb4a4">index</text>
</g>
<!-- inline161x532 -->
<g id="node26" class="node">
<title>inline161x532</title>
<ellipse fill="#d7ede7" stroke="black" cx="166" cy="-1450" rx="27.46" ry="18"/>
<text text-anchor="middle" x="166" y="-1448.1" font-family="Arial" font-size="8.00" fill="#1a1919">161 T(7)</text>
</g>
<!-- inline161x532&#45;&gt;node532 -->
<g id="edge37" class="edge">
<title>inline161x532&#45;&gt;node532</title>
<path fill="none" stroke="#3cb4a4" d="M155.68,-1433.01C147.06,-1419.67 134.81,-1400.69 126.01,-1387.06"/>
<text text-anchor="middle" x="151.5" y="-1407.6" font-family="arial" font-size="8.00" fill="#3cb4a4">value</text>
</g>
<!-- inline2x1527 -->
<g id="node27" class="node">
<title>inline2x1527</title>
<ellipse fill="#d7ede7" stroke="black" cx="101" cy="-1531" rx="27" ry="18"/>
<text text-anchor="middle" x="101" y="-1529.1" font-family="Arial" font-size="8.00" fill="#1a1919">2 P(1)</text>
</g>
<!-- inline2x1527&#45;&gt;node1527 -->
<g id="edge38" class="edge">
<title>inline2x1527&#45;&gt;node1527</title>
<path fill="none" stroke="#3cb4a4" d="M93.33,-1513.63C87.11,-1500.34 78.36,-1481.67 72.04,-1468.17"/>
<text text-anchor="middle" x="92.5" y="-1488.6" font-family="arial" font-size="8.00" fill="#3cb4a4">array</text>
</g>
</g>
</svg>
