<?xml version="1.0" encoding="UTF-8" standalone="no"?>
<!DOCTYPE svg PUBLIC "-//W3C//DTD SVG 1.1//EN"
 "http://www.w3.org/Graphics/SVG/1.1/DTD/svg11.dtd">
<!-- Generated by graphviz version 2.44.1 (20200629.0846)
 -->
<!-- Title: G Pages: 1 -->
<svg width="973pt" height="554pt"
 viewBox="0.00 0.00 972.88 554.00" xmlns="http://www.w3.org/2000/svg" xmlns:xlink="http://www.w3.org/1999/xlink">
<g id="graph0" class="graph" transform="scale(1 1) rotate(0) translate(4 550)">
<title>G</title>
<!-- node0 -->
<g id="node1" class="node">
<title>node0</title>
<polygon fill="#e98693" stroke="black" points="151.38,-546 95.38,-546 95.38,-510 151.38,-510 151.38,-546"/>
<text text-anchor="middle" x="123.38" y="-524.3" font-family="Arial" font-size="14.00" fill="#1a1919">0 Start</text>
</g>
<!-- node2178 -->
<g id="node10" class="node">
<title>node2178</title>
<polygon fill="#da2d4f" stroke="black" points="215.88,-465 102.88,-465 102.88,-429 215.88,-429 215.88,-465"/>
<text text-anchor="middle" x="159.38" y="-443.3" font-family="Arial" font-size="14.00" fill="#ffffff">2178 Load T(...)</text>
</g>
<!-- node0&#45;&gt;node2178 -->
<g id="edge14" class="edge">
<title>node0&#45;&gt;node2178</title>
<path fill="none" stroke="#da2d4f" stroke-width="2" d="M131.19,-509.86C135.91,-499.51 142.02,-486.1 147.34,-474.41"/>
<polygon fill="#da2d4f" stroke="#da2d4f" stroke-width="2" points="150.62,-475.66 151.58,-465.11 144.25,-472.76 150.62,-475.66"/>
</g>
<!-- node528 -->
<g id="node2" class="node">
<title>node528</title>
<polygon fill="#f9f9f9" stroke="black" points="262.38,-384 180.38,-384 180.38,-348 262.38,-348 262.38,-384"/>
<text text-anchor="middle" x="221.38" y="-362.3" font-family="Arial" font-size="14.00" fill="#1a1919">528 Unbox</text>
</g>
<!-- node2098 -->
<g id="node5" class="node">
<title>node2098</title>
<polygon fill="#3cb4a4" stroke="black" points="109.38,-297 0.12,-279 109.38,-261 218.64,-279 109.38,-297"/>
<text text-anchor="middle" x="109.38" y="-275.3" font-family="Arial" font-size="14.00" fill="#1a1919">2098 SignExtend</text>
</g>
<!-- node528&#45;&gt;node2098 -->
<g id="edge3" class="edge">
<title>node528&#45;&gt;node2098</title>
<path fill="none" stroke="#3cb4a4" d="M198.71,-347.8C180.56,-334.02 155.06,-314.67 135.95,-300.17"/>
<polygon fill="#3cb4a4" stroke="#3cb4a4" points="138.01,-297.34 127.93,-294.08 133.78,-302.91 138.01,-297.34"/>
<text text-anchor="middle" x="187.88" y="-318.8" font-family="arial" font-size="14.00" fill="#3cb4a4">value</text>
</g>
<!-- node2117 -->
<g id="node6" class="node">
<title>node2117</title>
<polygon fill="#ffa500" stroke="black" points="487.88,-297 236.88,-297 236.88,-261 487.88,-261 487.88,-297"/>
<text text-anchor="middle" x="362.38" y="-275.3" font-family="Arial" font-size="14.00" fill="#1a1919">2117 Guard, else TransferToInterpreter</text>
</g>
<!-- node528&#45;&gt;node2117 -->
<g id="edge1" class="edge">
<title>node528&#45;&gt;node2117</title>
<path fill="none" stroke="#da2d4f" stroke-width="2" d="M249.91,-347.8C271.6,-334.72 301.63,-316.62 325.2,-302.41"/>
<polygon fill="#da2d4f" stroke="#da2d4f" stroke-width="2" points="327.13,-305.34 333.89,-297.18 323.52,-299.34 327.13,-305.34"/>
</g>
<!-- node603 -->
<g id="node3" class="node">
<title>node603</title>
<polygon fill="#3cb4a4" stroke="black" points="362.38,-384 291.83,-366 362.38,-348 432.93,-366 362.38,-384"/>
<text text-anchor="middle" x="362.38" y="-362.3" font-family="Arial" font-size="14.00" fill="#1a1919">603 IsNull</text>
</g>
<!-- node603&#45;&gt;node2117 -->
<g id="edge4" class="edge">
<title>node603&#45;&gt;node2117</title>
<path fill="none" stroke="#3cb4a4" d="M362.38,-347.8C362.38,-336.16 362.38,-320.55 362.38,-307.24"/>
<polygon fill="#3cb4a4" stroke="#3cb4a4" points="365.88,-307.18 362.38,-297.18 358.88,-307.18 365.88,-307.18"/>
<text text-anchor="middle" x="366.38" y="-318.8" font-family="arial" font-size="14.00" fill="#3cb4a4">?</text>
</g>
<!-- node1761 -->
<g id="node4" class="node">
<title>node1761</title>
<polygon fill="#e98693" stroke="black" points="603.88,-36 512.88,-36 512.88,0 603.88,0 603.88,-36"/>
<text text-anchor="middle" x="558.38" y="-14.3" font-family="Arial" font-size="14.00" fill="#1a1919">1761 Return</text>
</g>
<!-- node2176 -->
<g id="node8" class="node">
<title>node2176</title>
<polygon fill="#da2d4f" stroke="black" points="581.88,-210 502.88,-210 502.88,-174 581.88,-174 581.88,-210"/>
<text text-anchor="middle" x="542.38" y="-188.3" font-family="Arial" font-size="14.00" fill="#ffffff">2176 Alloc</text>
</g>
<!-- node2098&#45;&gt;node2176 -->
<g id="edge7" class="edge">
<title>node2098&#45;&gt;node2176</title>
<path fill="none" stroke="#3cb4a4" d="M156.54,-268.74C239,-252.55 408.6,-219.26 492.76,-202.74"/>
<polygon fill="#3cb4a4" stroke="#3cb4a4" points="493.45,-206.17 502.58,-200.81 492.1,-199.3 493.45,-206.17"/>
<text text-anchor="middle" x="371.38" y="-231.8" font-family="arial" font-size="14.00" fill="#3cb4a4">values</text>
</g>
<!-- node2117&#45;&gt;node2176 -->
<g id="edge5" class="edge">
<title>node2117&#45;&gt;node2176</title>
<path fill="none" stroke="#da2d4f" stroke-width="2" d="M398.81,-260.8C427.2,-247.39 466.78,-228.7 497.19,-214.34"/>
<polygon fill="#da2d4f" stroke="#da2d4f" stroke-width="2" points="498.77,-217.47 506.32,-210.03 495.78,-211.14 498.77,-217.47"/>
</g>
<!-- node2170 -->
<g id="node7" class="node">
<title>node2170</title>
<polygon fill="#f9f9f9" stroke="black" points="964.88,-297 505.88,-297 505.88,-261 964.88,-261 964.88,-297"/>
<text text-anchor="middle" x="735.38" y="-275.3" font-family="Arial" font-size="14.00" fill="#1a1919">2170 VirtualInstance(13) org.truffleruby.core.basicobject.RubyBasicObject</text>
</g>
<!-- node2170&#45;&gt;node2176 -->
<g id="edge6" class="edge">
<title>node2170&#45;&gt;node2176</title>
<path fill="none" stroke="#3cb4a4" d="M615.43,-260.99C602.34,-256.34 589.69,-250.46 578.38,-243 569.27,-236.99 561.71,-227.84 555.9,-218.99"/>
<polygon fill="#3cb4a4" stroke="#3cb4a4" points="558.86,-217.12 550.69,-210.38 552.87,-220.75 558.86,-217.12"/>
<text text-anchor="middle" x="619.88" y="-231.8" font-family="arial" font-size="14.00" fill="#3cb4a4">virtualObjects</text>
</g>
<!-- node2177 -->
<g id="node9" class="node">
<title>node2177</title>
<polygon fill="#343d46" stroke="black" points="715.88,-123 570.88,-123 570.88,-87 715.88,-87 715.88,-123"/>
<text text-anchor="middle" x="643.38" y="-101.3" font-family="Arial" font-size="14.00" fill="#ffffff">2177 AllocatedObject</text>
</g>
<!-- node2170&#45;&gt;node2177 -->
<g id="edge9" class="edge">
<title>node2170&#45;&gt;node2177</title>
<path fill="none" stroke="#3cb4a4" d="M726.22,-260.88C710.03,-230.61 676.28,-167.51 657.23,-131.9"/>
<polygon fill="#3cb4a4" stroke="#3cb4a4" points="660.3,-130.22 652.5,-123.05 654.13,-133.52 660.3,-130.22"/>
<text text-anchor="middle" x="736.38" y="-188.3" font-family="arial" font-size="14.00" fill="#3cb4a4">virtualObject</text>
</g>
<!-- node2176&#45;&gt;node1761 -->
<g id="edge8" class="edge">
<title>node2176&#45;&gt;node1761</title>
<path fill="none" stroke="#da2d4f" stroke-width="2" d="M543.97,-173.88C546.75,-144 552.51,-82.11 555.84,-46.27"/>
<polygon fill="#da2d4f" stroke="#da2d4f" stroke-width="2" points="559.35,-46.33 556.79,-36.05 552.38,-45.68 559.35,-46.33"/>
</g>
<!-- node2176&#45;&gt;node2177 -->
<g id="edge10" class="edge">
<title>node2176&#45;&gt;node2177</title>
<path fill="none" stroke="#3cb4a4" d="M562.82,-173.8C577.88,-161.13 598.54,-143.73 615.17,-129.74"/>
<polygon fill="#3cb4a4" stroke="#3cb4a4" points="617.57,-132.29 622.97,-123.18 613.07,-126.94 617.57,-132.29"/>
<text text-anchor="middle" x="621.38" y="-144.8" font-family="arial" font-size="14.00" fill="#3cb4a4">commit</text>
</g>
<!-- node2177&#45;&gt;node1761 -->
<g id="edge2" class="edge">
<title>node2177&#45;&gt;node1761</title>
<path fill="none" stroke="#3cb4a4" d="M626.18,-86.8C613.74,-74.36 596.74,-57.36 582.88,-43.5"/>
<polygon fill="#3cb4a4" stroke="#3cb4a4" points="585.1,-40.77 575.56,-36.18 580.15,-45.72 585.1,-40.77"/>
<text text-anchor="middle" x="622.38" y="-57.8" font-family="arial" font-size="14.00" fill="#3cb4a4">result</text>
</g>
<!-- node2178&#45;&gt;node528 -->
<g id="edge15" class="edge">
<title>node2178&#45;&gt;node528</title>
<path fill="none" stroke="#da2d4f" stroke-width="2" d="M172.83,-428.86C181.28,-418.09 192.33,-404.02 201.74,-392.02"/>
<polygon fill="#da2d4f" stroke="#da2d4f" stroke-width="2" points="204.53,-394.14 207.95,-384.11 199.03,-389.81 204.53,-394.14"/>
</g>
<!-- inline143x603 -->
<g id="node11" class="node">
<title>inline143x603</title>
<ellipse fill="#d7ede7" stroke="black" cx="362.38" cy="-447" rx="27.46" ry="18"/>
<text text-anchor="middle" x="362.38" y="-445.1" font-family="Arial" font-size="8.00" fill="#1a1919">143 T(6)</text>
</g>
<!-- inline143x603&#45;&gt;node603 -->
<g id="edge11" class="edge">
<title>inline143x603&#45;&gt;node603</title>
<path fill="none" stroke="#3cb4a4" d="M362.38,-428.86C362.38,-415.61 362.38,-397.35 362.38,-384.11"/>
<text text-anchor="middle" x="371.88" y="-404.6" font-family="arial" font-size="8.00" fill="#3cb4a4">value</text>
</g>
<!-- inline158x528 -->
<g id="node12" class="node">
<title>inline158x528</title>
<ellipse fill="#d7ede7" stroke="black" cx="261.38" cy="-447" rx="27.46" ry="18"/>
<text text-anchor="middle" x="261.38" y="-445.1" font-family="Arial" font-size="8.00" fill="#1a1919">158 T(7)</text>
</g>
<!-- inline158x528&#45;&gt;node528 -->
<g id="edge12" class="edge">
<title>inline158x528&#45;&gt;node528</title>
<path fill="none" stroke="#3cb4a4" d="M253.09,-429.63C246.36,-416.34 236.91,-397.67 230.07,-384.17"/>
<text text-anchor="middle" x="251.88" y="-404.6" font-family="arial" font-size="8.00" fill="#3cb4a4">value</text>
</g>
<!-- inline2x2178 -->
<g id="node13" class="node">
<title>inline2x2178</title>
<ellipse fill="#d7ede7" stroke="black" cx="196.38" cy="-528" rx="27" ry="18"/>
<text text-anchor="middle" x="196.38" y="-526.1" font-family="Arial" font-size="8.00" fill="#1a1919">2 P(1)</text>
</g>
<!-- inline2x2178&#45;&gt;node2178 -->
<g id="edge13" class="edge">
<title>inline2x2178&#45;&gt;node2178</title>
<path fill="none" stroke="#3cb4a4" d="M188.71,-510.63C182.49,-497.34 173.74,-478.67 167.42,-465.17"/>
<text text-anchor="middle" x="187.88" y="-485.6" font-family="arial" font-size="8.00" fill="#3cb4a4">array</text>
</g>
</g>
</svg>
