<?xml version="1.0" encoding="UTF-8" standalone="no"?>
<!DOCTYPE svg PUBLIC "-//W3C//DTD SVG 1.1//EN"
 "http://www.w3.org/Graphics/SVG/1.1/DTD/svg11.dtd">
<!-- Generated by graphviz version 2.44.1 (20200629.0846)
 -->
<!-- Title: G Pages: 1 -->
<svg width="689pt" height="1640pt"
 viewBox="0.00 0.00 689.38 1639.77" xmlns="http://www.w3.org/2000/svg" xmlns:xlink="http://www.w3.org/1999/xlink">
<g id="graph0" class="graph" transform="scale(1 1) rotate(0) translate(4 1635.77)">
<title>G</title>
<!-- node0 -->
<g id="node1" class="node">
<title>node0</title>
<polygon fill="#e98693" stroke="black" points="429.51,-1631.77 373.51,-1631.77 373.51,-1595.77 429.51,-1595.77 429.51,-1631.77"/>
<text text-anchor="middle" x="401.51" y="-1610.07" font-family="Arial" font-size="14.00" fill="#1a1919">0 Start</text>
</g>
<!-- node1610 -->
<g id="node21" class="node">
<title>node1610</title>
<polygon fill="#da2d4f" stroke="black" points="495.01,-1550.77 382.01,-1550.77 382.01,-1514.77 495.01,-1514.77 495.01,-1550.77"/>
<text text-anchor="middle" x="438.51" y="-1529.07" font-family="Arial" font-size="14.00" fill="#ffffff">1610 Load T(...)</text>
</g>
<!-- node0&#45;&gt;node1610 -->
<g id="edge38" class="edge">
<title>node0&#45;&gt;node1610</title>
<path fill="none" stroke="#da2d4f" stroke-width="2" d="M409.54,-1595.63C414.39,-1585.28 420.66,-1571.87 426.14,-1560.18"/>
<polygon fill="#da2d4f" stroke="#da2d4f" stroke-width="2" points="429.42,-1561.42 430.5,-1550.88 423.08,-1558.45 429.42,-1561.42"/>
</g>
<!-- node677 -->
<g id="node2" class="node">
<title>node677</title>
<polygon fill="#f9f9f9" stroke="black" points="400.51,-1469.77 318.51,-1469.77 318.51,-1433.77 400.51,-1433.77 400.51,-1469.77"/>
<text text-anchor="middle" x="359.51" y="-1448.07" font-family="Arial" font-size="14.00" fill="#1a1919">677 Unbox</text>
</g>
<!-- node1545 -->
<g id="node11" class="node">
<title>node1545</title>
<polygon fill="#3cb4a4" stroke="black" points="187.51,-384 -0.01,-366 187.51,-348 375.02,-366 187.51,-384"/>
<text text-anchor="middle" x="187.51" y="-362.3" font-family="Arial" font-size="14.00" fill="#1a1919">1545 IntegerAddExactOverflow</text>
</g>
<!-- node677&#45;&gt;node1545 -->
<g id="edge12" class="edge">
<title>node677&#45;&gt;node1545</title>
<path fill="none" stroke="#3cb4a4" d="M318.34,-1436.67C315.35,-1435.68 312.39,-1434.71 309.51,-1433.77 226.6,-1406.81 125.51,-1452.95 125.51,-1365.77 125.51,-1365.77 125.51,-1365.77 125.51,-452 125.51,-427.2 142.95,-404.79 159.33,-389.22"/>
<polygon fill="#3cb4a4" stroke="#3cb4a4" points="162.11,-391.43 167.21,-382.14 157.43,-386.22 162.11,-391.43"/>
<text text-anchor="middle" x="129.01" y="-893.8" font-family="arial" font-size="14.00" fill="#3cb4a4">x</text>
</g>
<!-- node1547 -->
<g id="node12" class="node">
<title>node1547</title>
<polygon fill="#3cb4a4" stroke="black" points="543.51,-210 405.76,-192 543.51,-174 681.26,-192 543.51,-210"/>
<text text-anchor="middle" x="543.51" y="-188.3" font-family="Arial" font-size="14.00" fill="#1a1919">1547 IntegerAddExact</text>
</g>
<!-- node677&#45;&gt;node1547 -->
<g id="edge14" class="edge">
<title>node677&#45;&gt;node1547</title>
<path fill="none" stroke="#3cb4a4" d="M400.7,-1447.5C481.61,-1439.95 653.51,-1417.77 653.51,-1365.77 653.51,-1365.77 653.51,-1365.77 653.51,-278 653.51,-244.46 621.1,-222.29 591.46,-209.02"/>
<polygon fill="#3cb4a4" stroke="#3cb4a4" points="592.56,-205.69 581.98,-205.03 589.84,-212.14 592.56,-205.69"/>
<text text-anchor="middle" x="657.01" y="-806.8" font-family="arial" font-size="14.00" fill="#3cb4a4">x</text>
</g>
<!-- node1557 -->
<g id="node13" class="node">
<title>node1557</title>
<polygon fill="#ffa500" stroke="black" points="412.01,-1382.77 161.01,-1382.77 161.01,-1346.77 412.01,-1346.77 412.01,-1382.77"/>
<text text-anchor="middle" x="286.51" y="-1361.07" font-family="Arial" font-size="14.00" fill="#1a1919">1557 Guard, else TransferToInterpreter</text>
</g>
<!-- node677&#45;&gt;node1557 -->
<g id="edge1" class="edge">
<title>node677&#45;&gt;node1557</title>
<path fill="none" stroke="#da2d4f" stroke-width="2" d="M344.74,-1433.57C334.15,-1421.24 319.73,-1404.45 307.88,-1390.66"/>
<polygon fill="#da2d4f" stroke="#da2d4f" stroke-width="2" points="310.43,-1388.25 301.26,-1382.94 305.12,-1392.81 310.43,-1388.25"/>
</g>
<!-- node752 -->
<g id="node3" class="node">
<title>node752</title>
<polygon fill="#3cb4a4" stroke="black" points="229.51,-1469.77 158.96,-1451.77 229.51,-1433.77 300.06,-1451.77 229.51,-1469.77"/>
<text text-anchor="middle" x="229.51" y="-1448.07" font-family="Arial" font-size="14.00" fill="#1a1919">752 IsNull</text>
</g>
<!-- node752&#45;&gt;node1557 -->
<g id="edge17" class="edge">
<title>node752&#45;&gt;node1557</title>
<path fill="none" stroke="#3cb4a4" d="M239.44,-1435.96C247.63,-1423.75 259.44,-1406.14 269.18,-1391.61"/>
<polygon fill="#3cb4a4" stroke="#3cb4a4" points="272.26,-1393.3 274.93,-1383.04 266.45,-1389.4 272.26,-1393.3"/>
<text text-anchor="middle" x="265.51" y="-1404.57" font-family="arial" font-size="14.00" fill="#3cb4a4">?</text>
</g>
<!-- node1033 -->
<g id="node4" class="node">
<title>node1033</title>
<polygon fill="#da2d4f" stroke="black" points="459.51,-1301.77 153.51,-1301.77 153.51,-1265.77 459.51,-1265.77 459.51,-1301.77"/>
<text text-anchor="middle" x="306.51" y="-1280.07" font-family="Arial" font-size="14.00" fill="#ffffff">1033 LoadField RubyDynamicObject.metaClass</text>
</g>
<!-- node1089 -->
<g id="node5" class="node">
<title>node1089</title>
<polygon fill="#3cb4a4" stroke="black" points="392.51,-1214.77 330.84,-1196.77 392.51,-1178.77 454.18,-1196.77 392.51,-1214.77"/>
<text text-anchor="middle" x="392.51" y="-1193.07" font-family="Arial" font-size="14.00" fill="#1a1919">1089 ==</text>
</g>
<!-- node1033&#45;&gt;node1089 -->
<g id="edge3" class="edge">
<title>node1033&#45;&gt;node1089</title>
<path fill="none" stroke="#3cb4a4" d="M323.91,-1265.57C337.79,-1251.85 357.26,-1232.61 371.91,-1218.13"/>
<polygon fill="#3cb4a4" stroke="#3cb4a4" points="374.42,-1220.56 379.08,-1211.04 369.5,-1215.59 374.42,-1220.56"/>
<text text-anchor="middle" x="359.01" y="-1236.57" font-family="arial" font-size="14.00" fill="#3cb4a4">x</text>
</g>
<!-- node1560 -->
<g id="node14" class="node">
<title>node1560</title>
<polygon fill="#ffa500" stroke="black" points="428.01,-1127.77 177.01,-1127.77 177.01,-1091.77 428.01,-1091.77 428.01,-1127.77"/>
<text text-anchor="middle" x="302.51" y="-1106.07" font-family="Arial" font-size="14.00" fill="#1a1919">1560 Guard, else TransferToInterpreter</text>
</g>
<!-- node1033&#45;&gt;node1560 -->
<g id="edge2" class="edge">
<title>node1033&#45;&gt;node1560</title>
<path fill="none" stroke="#da2d4f" stroke-width="2" d="M306.11,-1265.65C305.42,-1235.77 303.98,-1173.88 303.14,-1138.04"/>
<polygon fill="#da2d4f" stroke="#da2d4f" stroke-width="2" points="306.64,-1137.74 302.9,-1127.82 299.64,-1137.9 306.64,-1137.74"/>
</g>
<!-- node1089&#45;&gt;node1560 -->
<g id="edge19" class="edge">
<title>node1089&#45;&gt;node1560</title>
<path fill="none" stroke="#3cb4a4" d="M378.45,-1182.49C365.1,-1169.89 344.73,-1150.65 328.45,-1135.27"/>
<polygon fill="#3cb4a4" stroke="#3cb4a4" points="330.5,-1132.39 320.83,-1128.07 325.7,-1137.48 330.5,-1132.39"/>
<text text-anchor="middle" x="357.51" y="-1149.57" font-family="arial" font-size="14.00" fill="#3cb4a4">?</text>
</g>
<!-- node1306 -->
<g id="node6" class="node">
<title>node1306</title>
<polygon fill="#e98693" stroke="black" points="439.01,-36 348.01,-36 348.01,0 439.01,0 439.01,-36"/>
<text text-anchor="middle" x="393.51" y="-14.3" font-family="Arial" font-size="14.00" fill="#1a1919">1306 Return</text>
</g>
<!-- node1433 -->
<g id="node7" class="node">
<title>node1433</title>
<polygon fill="#da2d4f" stroke="black" points="426.01,-1046.38 179.01,-1046.38 179.01,-1010.38 426.01,-1010.38 426.01,-1046.38"/>
<text text-anchor="middle" x="302.51" y="-1024.68" font-family="Arial" font-size="14.00" fill="#ffffff">1433 LoadField DynamicObject.shape</text>
</g>
<!-- node1435 -->
<g id="node8" class="node">
<title>node1435</title>
<polygon fill="#3cb4a4" stroke="black" points="482.51,-959 420.84,-941 482.51,-923 544.18,-941 482.51,-959"/>
<text text-anchor="middle" x="482.51" y="-937.3" font-family="Arial" font-size="14.00" fill="#1a1919">1435 ==</text>
</g>
<!-- node1433&#45;&gt;node1435 -->
<g id="edge7" class="edge">
<title>node1433&#45;&gt;node1435</title>
<path fill="none" stroke="#3cb4a4" d="M338.5,-1010.31C371.41,-994.7 419.62,-971.83 451.03,-956.93"/>
<polygon fill="#3cb4a4" stroke="#3cb4a4" points="452.67,-960.03 460.21,-952.58 449.67,-953.7 452.67,-960.03"/>
<text text-anchor="middle" x="413.01" y="-980.8" font-family="arial" font-size="14.00" fill="#3cb4a4">x</text>
</g>
<!-- node1569 -->
<g id="node15" class="node">
<title>node1569</title>
<polygon fill="#ffa500" stroke="black" points="428.01,-872 177.01,-872 177.01,-836 428.01,-836 428.01,-872"/>
<text text-anchor="middle" x="302.51" y="-850.3" font-family="Arial" font-size="14.00" fill="#1a1919">1569 Guard, else TransferToInterpreter</text>
</g>
<!-- node1433&#45;&gt;node1569 -->
<g id="edge6" class="edge">
<title>node1433&#45;&gt;node1569</title>
<path fill="none" stroke="#da2d4f" stroke-width="2" d="M302.51,-1010.23C302.51,-980.28 302.51,-918.25 302.51,-882.33"/>
<polygon fill="#da2d4f" stroke="#da2d4f" stroke-width="2" points="306.01,-882.09 302.51,-872.09 299.01,-882.09 306.01,-882.09"/>
</g>
<!-- node1435&#45;&gt;node1569 -->
<g id="edge21" class="edge">
<title>node1435&#45;&gt;node1569</title>
<path fill="none" stroke="#3cb4a4" d="M460.07,-929.41C432.13,-916.21 383.71,-893.35 347.9,-876.43"/>
<polygon fill="#3cb4a4" stroke="#3cb4a4" points="349.16,-873.16 338.63,-872.06 346.17,-879.49 349.16,-873.16"/>
<text text-anchor="middle" x="407.51" y="-893.8" font-family="arial" font-size="14.00" fill="#3cb4a4">?</text>
</g>
<!-- node1570 -->
<g id="node16" class="node">
<title>node1570</title>
<polygon fill="#ffa500" stroke="black" points="472.01,-785 221.01,-785 221.01,-749 472.01,-749 472.01,-785"/>
<text text-anchor="middle" x="346.51" y="-763.3" font-family="Arial" font-size="14.00" fill="#1a1919">1570 Guard, else TransferToInterpreter</text>
</g>
<!-- node1435&#45;&gt;node1570 -->
<g id="edge23" class="edge">
<title>node1435&#45;&gt;node1570</title>
<path fill="none" stroke="#3cb4a4" d="M478.27,-924.23C471.89,-902.62 458.21,-863.39 436.51,-836 422.29,-818.06 402.3,-802.33 384.77,-790.53"/>
<polygon fill="#3cb4a4" stroke="#3cb4a4" points="386.68,-787.6 376.39,-785.06 382.85,-793.46 386.68,-787.6"/>
<text text-anchor="middle" x="462.51" y="-850.3" font-family="arial" font-size="14.00" fill="#3cb4a4">?</text>
</g>
<!-- node1571 -->
<g id="node17" class="node">
<title>node1571</title>
<polygon fill="#ffa500" stroke="black" points="518.01,-712 267.01,-712 267.01,-676 518.01,-676 518.01,-712"/>
<text text-anchor="middle" x="392.51" y="-690.3" font-family="Arial" font-size="14.00" fill="#1a1919">1571 Guard, else TransferToInterpreter</text>
</g>
<!-- node1435&#45;&gt;node1571 -->
<g id="edge25" class="edge">
<title>node1435&#45;&gt;node1571</title>
<path fill="none" stroke="#3cb4a4" d="M487.26,-924.33C496.71,-889.92 514.29,-806.27 481.51,-749 473.78,-735.49 461.17,-724.96 447.85,-716.93"/>
<polygon fill="#3cb4a4" stroke="#3cb4a4" points="449.47,-713.83 439.03,-712.01 446.06,-719.94 449.47,-713.83"/>
<text text-anchor="middle" x="503.51" y="-806.8" font-family="arial" font-size="14.00" fill="#3cb4a4">?</text>
</g>
<!-- node1572 -->
<g id="node18" class="node">
<title>node1572</title>
<polygon fill="#ffa500" stroke="black" points="536.01,-639 285.01,-639 285.01,-603 536.01,-603 536.01,-639"/>
<text text-anchor="middle" x="410.51" y="-617.3" font-family="Arial" font-size="14.00" fill="#1a1919">1572 Guard, else TransferToInterpreter</text>
</g>
<!-- node1435&#45;&gt;node1572 -->
<g id="edge27" class="edge">
<title>node1435&#45;&gt;node1572</title>
<path fill="none" stroke="#3cb4a4" d="M500,-927.77C518.95,-912.94 546.51,-886.03 546.51,-855 546.51,-855 546.51,-855 546.51,-693 546.51,-669.58 530.46,-653.87 509.39,-643.34"/>
<polygon fill="#3cb4a4" stroke="#3cb4a4" points="510.64,-640.06 500.08,-639.14 507.76,-646.44 510.64,-640.06"/>
<text text-anchor="middle" x="550.51" y="-763.3" font-family="arial" font-size="14.00" fill="#3cb4a4">?</text>
</g>
<!-- node1532 -->
<g id="node9" class="node">
<title>node1532</title>
<polygon fill="#3cb4a4" stroke="black" points="517.51,-471 431.21,-453 517.51,-435 603.81,-453 517.51,-471"/>
<text text-anchor="middle" x="517.51" y="-449.3" font-family="Arial" font-size="14.00" fill="#1a1919">1532 Narrow</text>
</g>
<!-- node1532&#45;&gt;node1545 -->
<g id="edge13" class="edge">
<title>node1532&#45;&gt;node1545</title>
<path fill="none" stroke="#3cb4a4" d="M480.93,-442.58C423.91,-427.89 313.34,-399.41 245.41,-381.91"/>
<polygon fill="#3cb4a4" stroke="#3cb4a4" points="246.27,-378.52 235.71,-379.42 244.52,-385.3 246.27,-378.52"/>
<text text-anchor="middle" x="376.01" y="-405.8" font-family="arial" font-size="14.00" fill="#3cb4a4">y</text>
</g>
<!-- node1532&#45;&gt;node1547 -->
<g id="edge15" class="edge">
<title>node1532&#45;&gt;node1547</title>
<path fill="none" stroke="#3cb4a4" d="M519.21,-435.01C523.62,-391.1 535.42,-273.6 540.78,-220.15"/>
<polygon fill="#3cb4a4" stroke="#3cb4a4" points="544.28,-220.36 541.8,-210.06 537.31,-219.66 544.28,-220.36"/>
<text text-anchor="middle" x="534.01" y="-318.8" font-family="arial" font-size="14.00" fill="#3cb4a4">y</text>
</g>
<!-- node1544 -->
<g id="node10" class="node">
<title>node1544</title>
<polygon fill="#ffa500" stroke="black" points="512.51,-297 246.51,-297 246.51,-261 512.51,-261 512.51,-297"/>
<text text-anchor="middle" x="379.51" y="-275.3" font-family="Arial" font-size="14.00" fill="#1a1919">1544 Guard not, else ArithmeticException</text>
</g>
<!-- node1544&#45;&gt;node1547 -->
<g id="edge16" class="edge">
<title>node1544&#45;&gt;node1547</title>
<path fill="none" stroke="#3cb4a4" d="M412.7,-260.8C440.36,-246.46 479.68,-226.08 507.98,-211.41"/>
<polygon fill="#3cb4a4" stroke="#3cb4a4" points="509.85,-214.38 517.12,-206.68 506.63,-208.17 509.85,-214.38"/>
<text text-anchor="middle" x="489.01" y="-231.8" font-family="arial" font-size="14.00" fill="#3cb4a4">guard</text>
</g>
<!-- node1608 -->
<g id="node19" class="node">
<title>node1608</title>
<polygon fill="#f9f9f9" stroke="black" points="491.01,-123 296.01,-123 296.01,-87 491.01,-87 491.01,-123"/>
<text text-anchor="middle" x="393.51" y="-101.3" font-family="Arial" font-size="14.00" fill="#1a1919">1608 BoxNode$AllocatingBox</text>
</g>
<!-- node1544&#45;&gt;node1608 -->
<g id="edge11" class="edge">
<title>node1544&#45;&gt;node1608</title>
<path fill="none" stroke="#da2d4f" stroke-width="2" d="M380.9,-260.88C383.33,-231 388.37,-169.11 391.29,-133.27"/>
<polygon fill="#da2d4f" stroke="#da2d4f" stroke-width="2" points="394.8,-133.3 392.12,-123.05 387.82,-132.73 394.8,-133.3"/>
</g>
<!-- node1545&#45;&gt;node1544 -->
<g id="edge10" class="edge">
<title>node1545&#45;&gt;node1544</title>
<path fill="none" stroke="#3cb4a4" d="M219.21,-350.96C249.69,-337.47 296.15,-316.9 331.23,-301.37"/>
<polygon fill="#3cb4a4" stroke="#3cb4a4" points="333.07,-304.39 340.79,-297.14 330.23,-297.99 333.07,-304.39"/>
<text text-anchor="middle" x="299.51" y="-318.8" font-family="arial" font-size="14.00" fill="#3cb4a4">?</text>
</g>
<!-- node1547&#45;&gt;node1608 -->
<g id="edge29" class="edge">
<title>node1547&#45;&gt;node1608</title>
<path fill="none" stroke="#3cb4a4" d="M519.07,-177.15C495.65,-163.88 459.92,-143.63 432.55,-128.13"/>
<polygon fill="#3cb4a4" stroke="#3cb4a4" points="434.05,-124.95 423.62,-123.07 430.6,-131.04 434.05,-124.95"/>
<text text-anchor="middle" x="493.01" y="-144.8" font-family="arial" font-size="14.00" fill="#3cb4a4">value</text>
</g>
<!-- node1557&#45;&gt;node1033 -->
<g id="edge18" class="edge">
<title>node1557&#45;&gt;node1033</title>
<path fill="none" stroke="#da2d4f" stroke-width="2" d="M290.85,-1346.63C293.42,-1336.48 296.73,-1323.4 299.64,-1311.89"/>
<polygon fill="#da2d4f" stroke="#da2d4f" stroke-width="2" points="303.12,-1312.43 302.18,-1301.88 296.33,-1310.71 303.12,-1312.43"/>
</g>
<!-- node1560&#45;&gt;node1433 -->
<g id="edge20" class="edge">
<title>node1560&#45;&gt;node1433</title>
<path fill="none" stroke="#da2d4f" stroke-width="2" d="M302.51,-1091.54C302.51,-1081.35 302.51,-1068.21 302.51,-1056.63"/>
<polygon fill="#da2d4f" stroke="#da2d4f" stroke-width="2" points="306.01,-1056.58 302.51,-1046.58 299.01,-1056.58 306.01,-1056.58"/>
</g>
<!-- node1569&#45;&gt;node1570 -->
<g id="edge22" class="edge">
<title>node1569&#45;&gt;node1570</title>
<path fill="none" stroke="#da2d4f" stroke-width="2" d="M311.41,-835.8C317.61,-823.82 326,-807.62 333.02,-794.06"/>
<polygon fill="#da2d4f" stroke="#da2d4f" stroke-width="2" points="336.13,-795.67 337.62,-785.18 329.91,-792.45 336.13,-795.67"/>
</g>
<!-- node1570&#45;&gt;node1571 -->
<g id="edge24" class="edge">
<title>node1570&#45;&gt;node1571</title>
<path fill="none" stroke="#da2d4f" stroke-width="2" d="M357.64,-748.81C363.12,-740.35 369.84,-729.98 375.91,-720.61"/>
<polygon fill="#da2d4f" stroke="#da2d4f" stroke-width="2" points="378.98,-722.32 381.48,-712.03 373.1,-718.52 378.98,-722.32"/>
</g>
<!-- node1571&#45;&gt;node1572 -->
<g id="edge26" class="edge">
<title>node1571&#45;&gt;node1572</title>
<path fill="none" stroke="#da2d4f" stroke-width="2" d="M396.87,-675.81C398.92,-667.7 401.42,-657.84 403.72,-648.78"/>
<polygon fill="#da2d4f" stroke="#da2d4f" stroke-width="2" points="407.13,-649.58 406.19,-639.03 400.34,-647.86 407.13,-649.58"/>
</g>
<!-- node1609 -->
<g id="node20" class="node">
<title>node1609</title>
<polygon fill="#da2d4f" stroke="black" points="595.51,-558 315.51,-558 315.51,-522 595.51,-522 595.51,-558"/>
<text text-anchor="middle" x="455.51" y="-536.3" font-family="Arial" font-size="14.00" fill="#ffffff">1609 LoadField RubyBasicObject.primitive1</text>
</g>
<!-- node1572&#45;&gt;node1609 -->
<g id="edge28" class="edge">
<title>node1572&#45;&gt;node1609</title>
<path fill="none" stroke="#da2d4f" stroke-width="2" d="M420.27,-602.86C426.23,-592.4 433.96,-578.83 440.66,-567.06"/>
<polygon fill="#da2d4f" stroke="#da2d4f" stroke-width="2" points="443.85,-568.53 445.76,-558.11 437.77,-565.07 443.85,-568.53"/>
</g>
<!-- node1608&#45;&gt;node1306 -->
<g id="edge5" class="edge">
<title>node1608&#45;&gt;node1306</title>
<path fill="none" stroke="#3cb4a4" d="M379.4,-86.84C375.78,-81.46 372.38,-75.27 370.51,-69 368.09,-60.93 370.07,-52.49 373.7,-44.89"/>
<polygon fill="#3cb4a4" stroke="#3cb4a4" points="376.79,-46.53 378.76,-36.12 370.73,-43.03 376.79,-46.53"/>
<text text-anchor="middle" x="387.51" y="-57.8" font-family="arial" font-size="14.00" fill="#3cb4a4">result</text>
</g>
<!-- node1608&#45;&gt;node1306 -->
<g id="edge30" class="edge">
<title>node1608&#45;&gt;node1306</title>
<path fill="none" stroke="#da2d4f" stroke-width="2" d="M400.45,-86.98C403.57,-77.35 406.21,-65.07 404.51,-54 404.1,-51.32 403.52,-48.56 402.84,-45.83"/>
<polygon fill="#da2d4f" stroke="#da2d4f" stroke-width="2" points="406.2,-44.83 400.06,-36.2 399.47,-46.78 406.2,-44.83"/>
</g>
<!-- node1609&#45;&gt;node1532 -->
<g id="edge9" class="edge">
<title>node1609&#45;&gt;node1532</title>
<path fill="none" stroke="#3cb4a4" d="M468.05,-521.8C477.43,-508.94 490.35,-491.23 500.63,-477.14"/>
<polygon fill="#3cb4a4" stroke="#3cb4a4" points="503.57,-479.04 506.64,-468.9 497.92,-474.92 503.57,-479.04"/>
<text text-anchor="middle" x="506.01" y="-492.8" font-family="arial" font-size="14.00" fill="#3cb4a4">value</text>
</g>
<!-- node1609&#45;&gt;node1544 -->
<g id="edge31" class="edge">
<title>node1609&#45;&gt;node1544</title>
<path fill="none" stroke="#da2d4f" stroke-width="2" d="M445.82,-521.86C438.55,-508.39 428.79,-488.96 422.51,-471 402.68,-414.35 389.75,-344.98 383.63,-307.39"/>
<polygon fill="#da2d4f" stroke="#da2d4f" stroke-width="2" points="387.04,-306.56 382.02,-297.23 380.13,-307.66 387.04,-306.56"/>
</g>
<!-- node1610&#45;&gt;node677 -->
<g id="edge39" class="edge">
<title>node1610&#45;&gt;node677</title>
<path fill="none" stroke="#da2d4f" stroke-width="2" d="M421.37,-1514.63C410.39,-1503.65 395.99,-1489.25 383.84,-1477.1"/>
<polygon fill="#da2d4f" stroke="#da2d4f" stroke-width="2" points="386.16,-1474.47 376.62,-1469.88 381.21,-1479.42 386.16,-1474.47"/>
</g>
<!-- inline1088x1089 -->
<g id="node22" class="node">
<title>inline1088x1089</title>
<ellipse fill="#d7ede7" stroke="black" cx="551.51" cy="-1283.77" rx="74.11" ry="18"/>
<text text-anchor="middle" x="551.51" y="-1281.87" font-family="Arial" font-size="8.00" fill="#1a1919">1088 C(RubyClass@3c77d52e)</text>
</g>
<!-- inline1088x1089&#45;&gt;node1089 -->
<g id="edge4" class="edge">
<title>inline1088x1089&#45;&gt;node1089</title>
<path fill="none" stroke="#3cb4a4" d="M522.35,-1267.18C490.79,-1250.31 441.25,-1223.83 413.38,-1208.93"/>
<text text-anchor="middle" x="483.51" y="-1238.37" font-family="arial" font-size="8.00" fill="#3cb4a4">y</text>
</g>
<!-- inline1430x1435 -->
<g id="node23" class="node">
<title>inline1430x1435</title>
<ellipse fill="#d7ede7" stroke="black" cx="534.51" cy="-1028.38" rx="90.52" ry="18.27"/>
<text text-anchor="middle" x="534.51" y="-1030.98" font-family="Arial" font-size="8.00" fill="#1a1919">1430 C(@5c89c7ff{&quot;@x&quot;:int@0</text>
<text text-anchor="middle" x="534.51" y="-1021.98" font-family="Arial" font-size="8.00" fill="#1a1919">})</text>
</g>
<!-- inline1430x1435&#45;&gt;node1435 -->
<g id="edge8" class="edge">
<title>inline1430x1435&#45;&gt;node1435</title>
<path fill="none" stroke="#3cb4a4" d="M523.99,-1010.11C514.43,-994.41 500.49,-971.52 491.46,-956.69"/>
<text text-anchor="middle" x="513.51" y="-982.6" font-family="arial" font-size="8.00" fill="#3cb4a4">y</text>
</g>
<!-- inline143x752 -->
<g id="node24" class="node">
<title>inline143x752</title>
<ellipse fill="#d7ede7" stroke="black" cx="229.51" cy="-1532.77" rx="27.46" ry="18"/>
<text text-anchor="middle" x="229.51" y="-1530.87" font-family="Arial" font-size="8.00" fill="#1a1919">143 T(6)</text>
</g>
<!-- inline143x752&#45;&gt;node752 -->
<g id="edge32" class="edge">
<title>inline143x752&#45;&gt;node752</title>
<path fill="none" stroke="#3cb4a4" d="M229.51,-1514.63C229.51,-1501.38 229.51,-1483.12 229.51,-1469.88"/>
<text text-anchor="middle" x="239.01" y="-1490.37" font-family="arial" font-size="8.00" fill="#3cb4a4">value</text>
</g>
<!-- inline158x1033 -->
<g id="node25" class="node">
<title>inline158x1033</title>
<ellipse fill="#d7ede7" stroke="black" cx="457.51" cy="-1364.77" rx="27.46" ry="18"/>
<text text-anchor="middle" x="457.51" y="-1362.87" font-family="Arial" font-size="8.00" fill="#1a1919">158 T(7)</text>
</g>
<!-- inline158x1033&#45;&gt;node1033 -->
<g id="edge33" class="edge">
<title>inline158x1033&#45;&gt;node1033</title>
<path fill="none" stroke="#3cb4a4" d="M436.83,-1352.95C411.63,-1339.77 368.75,-1317.33 339.09,-1301.82"/>
<text text-anchor="middle" x="398.51" y="-1322.37" font-family="arial" font-size="8.00" fill="#3cb4a4">object</text>
</g>
<!-- inline158x1433 -->
<g id="node26" class="node">
<title>inline158x1433</title>
<ellipse fill="#d7ede7" stroke="black" cx="473.51" cy="-1109.77" rx="27.46" ry="18"/>
<text text-anchor="middle" x="473.51" y="-1107.87" font-family="Arial" font-size="8.00" fill="#1a1919">158 T(7)</text>
</g>
<!-- inline158x1433&#45;&gt;node1433 -->
<g id="edge34" class="edge">
<title>inline158x1433&#45;&gt;node1433</title>
<path fill="none" stroke="#3cb4a4" d="M451.85,-1098.72C423.54,-1085.57 373.54,-1062.36 339.25,-1046.44"/>
<text text-anchor="middle" x="404.51" y="-1067.37" font-family="arial" font-size="8.00" fill="#3cb4a4">object</text>
</g>
<!-- inline158x1609 -->
<g id="node27" class="node">
<title>inline158x1609</title>
<ellipse fill="#d7ede7" stroke="black" cx="581.51" cy="-621" rx="27.46" ry="18"/>
<text text-anchor="middle" x="581.51" y="-619.1" font-family="Arial" font-size="8.00" fill="#1a1919">158 T(7)</text>
</g>
<!-- inline158x1609&#45;&gt;node1609 -->
<g id="edge35" class="edge">
<title>inline158x1609&#45;&gt;node1609</title>
<path fill="none" stroke="#3cb4a4" d="M562.37,-608C541.17,-594.71 506.8,-573.16 482.79,-558.1"/>
<text text-anchor="middle" x="532.51" y="-578.6" font-family="arial" font-size="8.00" fill="#3cb4a4">object</text>
</g>
<!-- inline175x677 -->
<g id="node28" class="node">
<title>inline175x677</title>
<ellipse fill="#d7ede7" stroke="black" cx="336.51" cy="-1532.77" rx="27.46" ry="18"/>
<text text-anchor="middle" x="336.51" y="-1530.87" font-family="Arial" font-size="8.00" fill="#1a1919">175 T(8)</text>
</g>
<!-- inline175x677&#45;&gt;node677 -->
<g id="edge36" class="edge">
<title>inline175x677&#45;&gt;node677</title>
<path fill="none" stroke="#3cb4a4" d="M341.39,-1515.02C345.26,-1501.7 350.66,-1483.15 354.56,-1469.77"/>
<text text-anchor="middle" x="359.01" y="-1490.37" font-family="arial" font-size="8.00" fill="#3cb4a4">value</text>
</g>
<!-- inline2x1610 -->
<g id="node29" class="node">
<title>inline2x1610</title>
<ellipse fill="#d7ede7" stroke="black" cx="474.51" cy="-1613.77" rx="27" ry="18"/>
<text text-anchor="middle" x="474.51" y="-1611.87" font-family="Arial" font-size="8.00" fill="#1a1919">2 P(1)</text>
</g>
<!-- inline2x1610&#45;&gt;node1610 -->
<g id="edge37" class="edge">
<title>inline2x1610&#45;&gt;node1610</title>
<path fill="none" stroke="#3cb4a4" d="M467.05,-1596.4C460.99,-1583.11 452.48,-1564.43 446.33,-1550.94"/>
<text text-anchor="middle" x="468.01" y="-1571.37" font-family="arial" font-size="8.00" fill="#3cb4a4">array</text>
</g>
</g>
</svg>
