<?xml version="1.0" encoding="UTF-8" standalone="no"?>
<!DOCTYPE svg PUBLIC "-//W3C//DTD SVG 1.1//EN"
 "http://www.w3.org/Graphics/SVG/1.1/DTD/svg11.dtd">
<!-- Generated by graphviz version 2.44.1 (20200629.0846)
 -->
<!-- Title: G Pages: 1 -->
<svg width="1373pt" height="1716pt"
 viewBox="0.00 0.00 1372.79 1716.00" xmlns="http://www.w3.org/2000/svg" xmlns:xlink="http://www.w3.org/1999/xlink">
<g id="graph0" class="graph" transform="scale(1 1) rotate(0) translate(4 1712)">
<title>G</title>
<!-- node0 -->
<g id="node1" class="node">
<title>node0</title>
<polygon fill="#e98693" stroke="black" points="467.79,-1708 411.79,-1708 411.79,-1672 467.79,-1672 467.79,-1708"/>
<text text-anchor="middle" x="439.79" y="-1686.3" font-family="Arial" font-size="14.00" fill="#1a1919">0 Start</text>
</g>
<!-- node2181 -->
<g id="node33" class="node">
<title>node2181</title>
<polygon fill="#da2d4f" stroke="black" points="533.29,-1627 420.29,-1627 420.29,-1591 533.29,-1591 533.29,-1627"/>
<text text-anchor="middle" x="476.79" y="-1605.3" font-family="Arial" font-size="14.00" fill="#ffffff">2181 Load T(...)</text>
</g>
<!-- node0&#45;&gt;node2181 -->
<g id="edge55" class="edge">
<title>node0&#45;&gt;node2181</title>
<path fill="none" stroke="#da2d4f" stroke-width="2" d="M447.81,-1671.86C452.66,-1661.51 458.94,-1648.1 464.41,-1636.41"/>
<polygon fill="#da2d4f" stroke="#da2d4f" stroke-width="2" points="467.7,-1637.65 468.77,-1627.11 461.36,-1634.68 467.7,-1637.65"/>
</g>
<!-- node586 -->
<g id="node2" class="node">
<title>node586</title>
<polygon fill="#f9f9f9" stroke="black" points="491.79,-1546 409.79,-1546 409.79,-1510 491.79,-1510 491.79,-1546"/>
<text text-anchor="middle" x="450.79" y="-1524.3" font-family="Arial" font-size="14.00" fill="#1a1919">586 Unbox</text>
</g>
<!-- node1759 -->
<g id="node10" class="node">
<title>node1759</title>
<polygon fill="#3cb4a4" stroke="black" points="572.79,-1139 518.32,-1121 572.79,-1103 627.25,-1121 572.79,-1139"/>
<text text-anchor="middle" x="572.79" y="-1117.3" font-family="Arial" font-size="14.00" fill="#1a1919">1759 &lt;</text>
</g>
<!-- node586&#45;&gt;node1759 -->
<g id="edge9" class="edge">
<title>node586&#45;&gt;node1759</title>
<path fill="none" stroke="#3cb4a4" d="M450.79,-1509.74C450.79,-1492.57 450.79,-1465.46 450.79,-1442 450.79,-1442 450.79,-1442 450.79,-1193 450.79,-1156.31 492.52,-1138.25 527.16,-1129.58"/>
<polygon fill="#3cb4a4" stroke="#3cb4a4" points="528.21,-1132.93 537.17,-1127.28 526.64,-1126.11 528.21,-1132.93"/>
<text text-anchor="middle" x="454.29" y="-1306.8" font-family="arial" font-size="14.00" fill="#3cb4a4">y</text>
</g>
<!-- node2086 -->
<g id="node24" class="node">
<title>node2086</title>
<polygon fill="#ffa500" stroke="black" points="730.29,-1459 479.29,-1459 479.29,-1423 730.29,-1423 730.29,-1459"/>
<text text-anchor="middle" x="604.79" y="-1437.3" font-family="Arial" font-size="14.00" fill="#1a1919">2086 Guard, else TransferToInterpreter</text>
</g>
<!-- node586&#45;&gt;node2086 -->
<g id="edge1" class="edge">
<title>node586&#45;&gt;node2086</title>
<path fill="none" stroke="#da2d4f" stroke-width="2" d="M481.95,-1509.8C505.93,-1496.56 539.23,-1478.18 565.11,-1463.9"/>
<polygon fill="#da2d4f" stroke="#da2d4f" stroke-width="2" points="566.87,-1466.93 573.93,-1459.03 563.48,-1460.8 566.87,-1466.93"/>
</g>
<!-- node2180 -->
<g id="node32" class="node">
<title>node2180</title>
<polygon fill="#f9f9f9" stroke="black" points="491.29,-878 296.29,-878 296.29,-842 491.29,-842 491.29,-878"/>
<text text-anchor="middle" x="393.79" y="-856.3" font-family="Arial" font-size="14.00" fill="#1a1919">2180 BoxNode$AllocatingBox</text>
</g>
<!-- node586&#45;&gt;node2180 -->
<g id="edge46" class="edge">
<title>node586&#45;&gt;node2180</title>
<path fill="none" stroke="#3cb4a4" d="M428.76,-1509.98C411.29,-1494.4 389.79,-1469.61 389.79,-1442 389.79,-1442 389.79,-1442 389.79,-946 389.79,-926.73 390.82,-905.03 391.84,-888.38"/>
<polygon fill="#3cb4a4" stroke="#3cb4a4" points="395.35,-888.45 392.5,-878.25 388.36,-888 395.35,-888.45"/>
<text text-anchor="middle" x="406.29" y="-1190.3" font-family="arial" font-size="14.00" fill="#3cb4a4">value</text>
</g>
<!-- node687 -->
<g id="node3" class="node">
<title>node687</title>
<polygon fill="#3cb4a4" stroke="black" points="604.79,-1546 534.23,-1528 604.79,-1510 675.34,-1528 604.79,-1546"/>
<text text-anchor="middle" x="604.79" y="-1524.3" font-family="Arial" font-size="14.00" fill="#1a1919">687 IsNull</text>
</g>
<!-- node687&#45;&gt;node2086 -->
<g id="edge30" class="edge">
<title>node687&#45;&gt;node2086</title>
<path fill="none" stroke="#3cb4a4" d="M604.79,-1509.8C604.79,-1498.16 604.79,-1482.55 604.79,-1469.24"/>
<polygon fill="#3cb4a4" stroke="#3cb4a4" points="608.29,-1469.18 604.79,-1459.18 601.29,-1469.18 608.29,-1469.18"/>
<text text-anchor="middle" x="608.79" y="-1480.8" font-family="arial" font-size="14.00" fill="#3cb4a4">?</text>
</g>
<!-- node1201 -->
<g id="node4" class="node">
<title>node1201</title>
<polygon fill="#ffa500" stroke="black" points="1029.29,-1372 784.29,-1372 784.29,-1336 1029.29,-1336 1029.29,-1372"/>
<text text-anchor="middle" x="906.79" y="-1350.3" font-family="Arial" font-size="14.00" fill="#1a1919">1201 Guard, else ClassCastException</text>
</g>
<!-- node2088 -->
<g id="node25" class="node">
<title>node2088</title>
<polygon fill="#ffa500" stroke="black" points="1032.29,-1285 781.29,-1285 781.29,-1249 1032.29,-1249 1032.29,-1285"/>
<text text-anchor="middle" x="906.79" y="-1263.3" font-family="Arial" font-size="14.00" fill="#1a1919">2088 Guard, else TransferToInterpreter</text>
</g>
<!-- node1201&#45;&gt;node2088 -->
<g id="edge3" class="edge">
<title>node1201&#45;&gt;node2088</title>
<path fill="none" stroke="#da2d4f" stroke-width="2" d="M906.79,-1335.8C906.79,-1324.16 906.79,-1308.55 906.79,-1295.24"/>
<polygon fill="#da2d4f" stroke="#da2d4f" stroke-width="2" points="910.29,-1295.18 906.79,-1285.18 903.29,-1295.18 910.29,-1295.18"/>
</g>
<!-- node1202 -->
<g id="node5" class="node">
<title>node1202</title>
<polygon fill="#f9f9f9" stroke="black" points="1092.79,-1459 748.79,-1459 748.79,-1423 1092.79,-1423 1092.79,-1459"/>
<text text-anchor="middle" x="920.79" y="-1437.3" font-family="Arial" font-size="14.00" fill="#1a1919">1202 InstanceOf a# org.truffleruby.core.proc.RubyProc</text>
</g>
<!-- node1202&#45;&gt;node1201 -->
<g id="edge2" class="edge">
<title>node1202&#45;&gt;node1201</title>
<path fill="none" stroke="#3cb4a4" d="M917.95,-1422.8C916.04,-1411.16 913.46,-1395.55 911.27,-1382.24"/>
<polygon fill="#3cb4a4" stroke="#3cb4a4" points="914.69,-1381.47 909.61,-1372.18 907.79,-1382.61 914.69,-1381.47"/>
<text text-anchor="middle" x="917.79" y="-1393.8" font-family="arial" font-size="14.00" fill="#3cb4a4">?</text>
</g>
<!-- node1236 -->
<g id="node6" class="node">
<title>node1236</title>
<polygon fill="#3cb4a4" stroke="black" points="1201.79,-1372 1140.12,-1354 1201.79,-1336 1263.45,-1354 1201.79,-1372"/>
<text text-anchor="middle" x="1201.79" y="-1350.3" font-family="Arial" font-size="14.00" fill="#1a1919">1236 ==</text>
</g>
<!-- node1236&#45;&gt;node2088 -->
<g id="edge32" class="edge">
<title>node1236&#45;&gt;node2088</title>
<path fill="none" stroke="#3cb4a4" d="M1172.42,-1344.54C1126.91,-1331.43 1038.09,-1305.83 975.73,-1287.86"/>
<polygon fill="#3cb4a4" stroke="#3cb4a4" points="976.54,-1284.45 965.96,-1285.05 974.6,-1291.18 976.54,-1284.45"/>
<text text-anchor="middle" x="1075.79" y="-1306.8" font-family="arial" font-size="14.00" fill="#3cb4a4">?</text>
</g>
<!-- node1657 -->
<g id="node7" class="node">
<title>node1657</title>
<polygon fill="#e98693" stroke="black" points="386.29,-791 295.29,-791 295.29,-755 386.29,-755 386.29,-791"/>
<text text-anchor="middle" x="340.79" y="-769.3" font-family="Arial" font-size="14.00" fill="#1a1919">1657 Return</text>
</g>
<!-- node1733 -->
<g id="node8" class="node">
<title>node1733</title>
<polygon fill="#e98693" stroke="black" points="915.79,-1212 841.79,-1212 841.79,-1176 915.79,-1176 915.79,-1212"/>
<text text-anchor="middle" x="878.79" y="-1190.3" font-family="Arial" font-size="14.00" fill="#1a1919">1733 End</text>
</g>
<!-- node1734 -->
<g id="node9" class="node">
<title>node1734</title>
<polygon fill="#e98693" stroke="black" points="881.29,-1139 766.29,-1139 766.29,-1103 881.29,-1103 881.29,-1139"/>
<text text-anchor="middle" x="823.79" y="-1117.3" font-family="Arial" font-size="14.00" fill="#1a1919">1734 LoopBegin</text>
</g>
<!-- node1733&#45;&gt;node1734 -->
<g id="edge6" class="edge">
<title>node1733&#45;&gt;node1734</title>
<path fill="none" stroke="#da2d4f" stroke-width="2" d="M865.47,-1175.81C858.78,-1167.18 850.55,-1156.56 843.18,-1147.03"/>
<polygon fill="#da2d4f" stroke="#da2d4f" stroke-width="2" points="845.87,-1144.79 836.98,-1139.03 840.33,-1149.08 845.87,-1144.79"/>
</g>
<!-- node1764 -->
<g id="node11" class="node">
<title>node1764</title>
<polygon fill="#e98693" stroke="black" points="601.79,-1052 543.79,-1052 543.79,-1016 601.79,-1016 601.79,-1052"/>
<text text-anchor="middle" x="572.79" y="-1030.3" font-family="Arial" font-size="14.00" fill="#1a1919">1764 If</text>
</g>
<!-- node1734&#45;&gt;node1764 -->
<g id="edge7" class="edge">
<title>node1734&#45;&gt;node1764</title>
<path fill="none" stroke="#da2d4f" stroke-width="2" d="M773.29,-1102.9C725.62,-1086.75 655.12,-1062.88 611.67,-1048.17"/>
<polygon fill="#da2d4f" stroke="#da2d4f" stroke-width="2" points="612.63,-1044.8 602.03,-1044.9 610.38,-1051.43 612.63,-1044.8"/>
</g>
<!-- node2138 -->
<g id="node27" class="node">
<title>node2138</title>
<polygon fill="#f9f9f9" stroke="black" points="716.79,-123 658.79,-123 658.79,-87 716.79,-87 716.79,-123"/>
<text text-anchor="middle" x="687.79" y="-101.3" font-family="Arial" font-size="14.00" fill="#1a1919">2138 ϕ</text>
</g>
<!-- node1734&#45;&gt;node2138 -->
<g id="edge36" class="edge">
<title>node1734&#45;&gt;node2138</title>
<path fill="none" stroke="#343d46" stroke-dasharray="5,2" d="M823.79,-1092.6C823.79,-1075.95 823.79,-1054.25 823.79,-1035 823.79,-1035 823.79,-1035 823.79,-191 823.79,-141.02 756.92,-119.34 716.96,-110.85"/>
<polygon fill="#343d46" stroke="#343d46" points="820.29,-1092.74 823.79,-1102.74 827.29,-1092.74 820.29,-1092.74"/>
</g>
<!-- node1759&#45;&gt;node1764 -->
<g id="edge10" class="edge">
<title>node1759&#45;&gt;node1764</title>
<path fill="none" stroke="#3cb4a4" d="M572.79,-1102.8C572.79,-1091.16 572.79,-1075.55 572.79,-1062.24"/>
<polygon fill="#3cb4a4" stroke="#3cb4a4" points="576.29,-1062.18 572.79,-1052.18 569.29,-1062.18 576.29,-1062.18"/>
<text text-anchor="middle" x="576.79" y="-1073.8" font-family="arial" font-size="14.00" fill="#3cb4a4">?</text>
</g>
<!-- node1767 -->
<g id="node12" class="node">
<title>node1767</title>
<polygon fill="#e98693" stroke="black" points="503.29,-965 418.29,-965 418.29,-929 503.29,-929 503.29,-965"/>
<text text-anchor="middle" x="460.79" y="-943.3" font-family="Arial" font-size="14.00" fill="#1a1919">1767 Begin</text>
</g>
<!-- node1764&#45;&gt;node1767 -->
<g id="edge11" class="edge">
<title>node1764&#45;&gt;node1767</title>
<path fill="none" stroke="#da2d4f" stroke-width="2" d="M550.12,-1015.8C533.27,-1003.01 510.09,-985.42 491.56,-971.36"/>
<polygon fill="#da2d4f" stroke="#da2d4f" stroke-width="2" points="493.5,-968.43 483.42,-965.18 489.27,-974.01 493.5,-968.43"/>
<text text-anchor="middle" x="527.29" y="-986.8" font-family="arial" font-size="14.00" fill="#da2d4f">T</text>
</g>
<!-- node1884 -->
<g id="node16" class="node">
<title>node1884</title>
<polygon fill="#e98693" stroke="black" points="624.29,-965 521.29,-965 521.29,-929 624.29,-929 624.29,-965"/>
<text text-anchor="middle" x="572.79" y="-943.3" font-family="Arial" font-size="14.00" fill="#1a1919">1884 LoopExit</text>
</g>
<!-- node1764&#45;&gt;node1884 -->
<g id="edge12" class="edge">
<title>node1764&#45;&gt;node1884</title>
<path fill="none" stroke="#da2d4f" stroke-width="2" d="M572.79,-1015.8C572.79,-1004.16 572.79,-988.55 572.79,-975.24"/>
<polygon fill="#da2d4f" stroke="#da2d4f" stroke-width="2" points="576.29,-975.18 572.79,-965.18 569.29,-975.18 576.29,-975.18"/>
<text text-anchor="middle" x="577.29" y="-986.8" font-family="arial" font-size="14.00" fill="#da2d4f">F</text>
</g>
<!-- node2109 -->
<g id="node26" class="node">
<title>node2109</title>
<polygon fill="#ffa500" stroke="black" points="278.29,-878 27.29,-878 27.29,-842 278.29,-842 278.29,-878"/>
<text text-anchor="middle" x="152.79" y="-856.3" font-family="Arial" font-size="14.00" fill="#1a1919">2109 Guard, else TransferToInterpreter</text>
</g>
<!-- node1767&#45;&gt;node2109 -->
<g id="edge13" class="edge">
<title>node1767&#45;&gt;node2109</title>
<path fill="none" stroke="#da2d4f" stroke-width="2" d="M418.28,-934.27C368.26,-920.47 284.41,-897.32 224.32,-880.74"/>
<polygon fill="#da2d4f" stroke="#da2d4f" stroke-width="2" points="225.08,-877.32 214.51,-878.03 223.22,-884.07 225.08,-877.32"/>
</g>
<!-- node1860 -->
<g id="node13" class="node">
<title>node1860</title>
<polygon fill="#ffa500" stroke="black" points="757.79,-297 491.79,-297 491.79,-261 757.79,-261 757.79,-297"/>
<text text-anchor="middle" x="624.79" y="-275.3" font-family="Arial" font-size="14.00" fill="#1a1919">1860 Guard not, else ArithmeticException</text>
</g>
<!-- node1863 -->
<g id="node15" class="node">
<title>node1863</title>
<polygon fill="#3cb4a4" stroke="black" points="387.79,-210 250.04,-192 387.79,-174 525.53,-192 387.79,-210"/>
<text text-anchor="middle" x="387.79" y="-188.3" font-family="Arial" font-size="14.00" fill="#1a1919">1863 IntegerAddExact</text>
</g>
<!-- node1860&#45;&gt;node1863 -->
<g id="edge20" class="edge">
<title>node1860&#45;&gt;node1863</title>
<path fill="none" stroke="#3cb4a4" d="M577.11,-260.9C534.81,-245.73 473.5,-223.74 432.21,-208.93"/>
<polygon fill="#3cb4a4" stroke="#3cb4a4" points="433.29,-205.6 422.69,-205.52 430.92,-212.19 433.29,-205.6"/>
<text text-anchor="middle" x="537.29" y="-231.8" font-family="arial" font-size="14.00" fill="#3cb4a4">guard</text>
</g>
<!-- node1886 -->
<g id="node17" class="node">
<title>node1886</title>
<polygon fill="#e98693" stroke="black" points="647.79,-210 543.79,-210 543.79,-174 647.79,-174 647.79,-210"/>
<text text-anchor="middle" x="595.79" y="-188.3" font-family="Arial" font-size="14.00" fill="#1a1919">1886 LoopEnd</text>
</g>
<!-- node1860&#45;&gt;node1886 -->
<g id="edge15" class="edge">
<title>node1860&#45;&gt;node1886</title>
<path fill="none" stroke="#da2d4f" stroke-width="2" d="M618.92,-260.8C614.91,-249.05 609.51,-233.24 604.94,-219.84"/>
<polygon fill="#da2d4f" stroke="#da2d4f" stroke-width="2" points="608.19,-218.51 601.65,-210.18 601.56,-220.77 608.19,-218.51"/>
</g>
<!-- node1861 -->
<g id="node14" class="node">
<title>node1861</title>
<polygon fill="#3cb4a4" stroke="black" points="747.79,-36 560.27,-18 747.79,0 935.3,-18 747.79,-36"/>
<text text-anchor="middle" x="747.79" y="-14.3" font-family="Arial" font-size="14.00" fill="#1a1919">1861 IntegerAddExactOverflow</text>
</g>
<!-- node1861&#45;&gt;node1860 -->
<g id="edge14" class="edge">
<title>node1861&#45;&gt;node1860</title>
<path fill="none" stroke="#3cb4a4" d="M750.65,-35.82C755.74,-71.03 762.84,-153.88 728.79,-210 716.65,-229.99 696.15,-245.24 676.54,-256.19"/>
<polygon fill="#3cb4a4" stroke="#3cb4a4" points="674.82,-253.14 667.62,-260.91 678.1,-259.32 674.82,-253.14"/>
<text text-anchor="middle" x="754.79" y="-144.8" font-family="arial" font-size="14.00" fill="#3cb4a4">?</text>
</g>
<!-- node1863&#45;&gt;node2138 -->
<g id="edge38" class="edge">
<title>node1863&#45;&gt;node2138</title>
<path fill="none" stroke="#3cb4a4" d="M436.7,-180.29C465.17,-173.8 501.67,-165.05 533.79,-156 573.46,-144.82 618.21,-130.05 649.2,-119.46"/>
<polygon fill="#3cb4a4" stroke="#3cb4a4" points="650.44,-122.74 658.76,-116.18 648.16,-116.12 650.44,-122.74"/>
<text text-anchor="middle" x="610.79" y="-144.8" font-family="arial" font-size="14.00" fill="#3cb4a4">from 1886</text>
</g>
<!-- node1884&#45;&gt;node2180 -->
<g id="edge21" class="edge">
<title>node1884&#45;&gt;node2180</title>
<path fill="none" stroke="#da2d4f" stroke-width="2" d="M536.56,-928.8C508.33,-915.39 468.97,-896.7 438.72,-882.34"/>
<polygon fill="#da2d4f" stroke="#da2d4f" stroke-width="2" points="440.18,-879.16 429.65,-878.03 437.18,-885.48 440.18,-879.16"/>
</g>
<!-- node1996 -->
<g id="node18" class="node">
<title>node1996</title>
<polygon fill="#3cb4a4" stroke="black" points="152.79,-965 91.12,-947 152.79,-929 214.45,-947 152.79,-965"/>
<text text-anchor="middle" x="152.79" y="-943.3" font-family="Arial" font-size="14.00" fill="#1a1919">1996 ==</text>
</g>
<!-- node1996&#45;&gt;node2109 -->
<g id="edge34" class="edge">
<title>node1996&#45;&gt;node2109</title>
<path fill="none" stroke="#3cb4a4" d="M152.79,-928.8C152.79,-917.16 152.79,-901.55 152.79,-888.24"/>
<polygon fill="#3cb4a4" stroke="#3cb4a4" points="156.29,-888.18 152.79,-878.18 149.29,-888.18 156.29,-888.18"/>
<text text-anchor="middle" x="156.79" y="-899.8" font-family="arial" font-size="14.00" fill="#3cb4a4">?</text>
</g>
<!-- node2069 -->
<g id="node19" class="node">
<title>node2069</title>
<polygon fill="#da2d4f" stroke="black" points="610.79,-457 320.79,-457 320.79,-421 610.79,-421 610.79,-457"/>
<text text-anchor="middle" x="465.79" y="-435.3" font-family="Arial" font-size="14.00" fill="#ffffff">2069 Call OptimizedCallTarget.callBoundary !</text>
</g>
<!-- node2073 -->
<g id="node21" class="node">
<title>node2073</title>
<polygon fill="#e98693" stroke="black" points="645.29,-370 524.29,-370 524.29,-334 645.29,-334 645.29,-370"/>
<text text-anchor="middle" x="584.79" y="-348.3" font-family="Arial" font-size="14.00" fill="#1a1919">2073 KillingBegin</text>
</g>
<!-- node2069&#45;&gt;node2073 -->
<g id="edge24" class="edge">
<title>node2069&#45;&gt;node2073</title>
<path fill="none" stroke="#da2d4f" stroke-width="2" d="M489.87,-420.8C507.85,-407.95 532.62,-390.26 552.35,-376.17"/>
<polygon fill="#da2d4f" stroke="#da2d4f" stroke-width="2" points="554.64,-378.84 560.74,-370.18 550.57,-373.14 554.64,-378.84"/>
</g>
<!-- node2074 -->
<g id="node22" class="node">
<title>node2074</title>
<polygon fill="#f9f9f9" stroke="black" points="453.29,-370 304.29,-370 304.29,-334 453.29,-334 453.29,-370"/>
<text text-anchor="middle" x="378.79" y="-348.3" font-family="Arial" font-size="14.00" fill="#1a1919">2074 ExceptionObject</text>
</g>
<!-- node2069&#45;&gt;node2074 -->
<g id="edge25" class="edge">
<title>node2069&#45;&gt;node2074</title>
<path fill="none" stroke="#da2d4f" stroke-width="2" d="M448.18,-420.8C435.44,-408.36 418.05,-391.36 403.87,-377.5"/>
<polygon fill="#da2d4f" stroke="#da2d4f" stroke-width="2" points="405.96,-374.66 396.37,-370.18 401.07,-379.67 405.96,-374.66"/>
<text text-anchor="middle" x="449.29" y="-391.8" font-family="arial" font-size="14.00" fill="#da2d4f">unwind</text>
</g>
<!-- node2070 -->
<g id="node20" class="node">
<title>node2070</title>
<polygon fill="#f9f9f9" stroke="black" points="617.29,-530 460.29,-530 460.29,-494 617.29,-494 617.29,-530"/>
<text text-anchor="middle" x="538.79" y="-508.3" font-family="Arial" font-size="14.00" fill="#1a1919">2070 MethodCallTarget</text>
</g>
<!-- node2070&#45;&gt;node2069 -->
<g id="edge23" class="edge">
<title>node2070&#45;&gt;node2069</title>
<path fill="none" stroke="#343d46" stroke-dasharray="5,2" d="M513.75,-486.65C503.73,-476.9 492.41,-465.9 483.29,-457.03"/>
<polygon fill="#343d46" stroke="#343d46" points="511.51,-489.35 521.11,-493.81 516.39,-484.33 511.51,-489.35"/>
</g>
<!-- node2073&#45;&gt;node1860 -->
<g id="edge28" class="edge">
<title>node2073&#45;&gt;node1860</title>
<path fill="none" stroke="#da2d4f" stroke-width="2" d="M594.47,-333.81C599.19,-325.44 604.96,-315.2 610.19,-305.9"/>
<polygon fill="#da2d4f" stroke="#da2d4f" stroke-width="2" points="613.33,-307.46 615.19,-297.03 607.23,-304.02 613.33,-307.46"/>
</g>
<!-- node2079 -->
<g id="node23" class="node">
<title>node2079</title>
<polygon fill="#da2d4f" stroke="black" points="473.29,-297 256.29,-297 256.29,-261 473.29,-261 473.29,-297"/>
<text text-anchor="middle" x="364.79" y="-275.3" font-family="Arial" font-size="14.00" fill="#ffffff">2079 Deopt TransferToInterpreter</text>
</g>
<!-- node2074&#45;&gt;node2079 -->
<g id="edge29" class="edge">
<title>node2074&#45;&gt;node2079</title>
<path fill="none" stroke="#da2d4f" stroke-width="2" d="M375.4,-333.81C373.81,-325.79 371.89,-316.05 370.12,-307.07"/>
<polygon fill="#da2d4f" stroke="#da2d4f" stroke-width="2" points="373.51,-306.16 368.14,-297.03 366.64,-307.52 373.51,-306.16"/>
</g>
<!-- node2086&#45;&gt;node1201 -->
<g id="edge31" class="edge">
<title>node2086&#45;&gt;node1201</title>
<path fill="none" stroke="#da2d4f" stroke-width="2" d="M665.54,-1422.9C714.89,-1409.01 784.56,-1389.4 836.35,-1374.82"/>
<polygon fill="#da2d4f" stroke="#da2d4f" stroke-width="2" points="837.45,-1378.15 846.13,-1372.07 835.56,-1371.41 837.45,-1378.15"/>
</g>
<!-- node2088&#45;&gt;node1733 -->
<g id="edge33" class="edge">
<title>node2088&#45;&gt;node1733</title>
<path fill="none" stroke="#da2d4f" stroke-width="2" d="M900.01,-1248.81C896.77,-1240.62 892.83,-1230.62 889.23,-1221.48"/>
<polygon fill="#da2d4f" stroke="#da2d4f" stroke-width="2" points="892.43,-1220.05 885.5,-1212.03 885.91,-1222.62 892.43,-1220.05"/>
</g>
<!-- node2165 -->
<g id="node29" class="node">
<title>node2165</title>
<polygon fill="#f9f9f9" stroke="black" points="273.29,-791 78.29,-791 78.29,-755 273.29,-755 273.29,-791"/>
<text text-anchor="middle" x="175.79" y="-769.3" font-family="Arial" font-size="14.00" fill="#1a1919">2165 BoxNode$AllocatingBox</text>
</g>
<!-- node2109&#45;&gt;node2165 -->
<g id="edge35" class="edge">
<title>node2109&#45;&gt;node2165</title>
<path fill="none" stroke="#da2d4f" stroke-width="2" d="M157.44,-841.8C160.62,-830.05 164.9,-814.24 168.52,-800.84"/>
<polygon fill="#da2d4f" stroke="#da2d4f" stroke-width="2" points="171.9,-801.74 171.14,-791.18 165.15,-799.91 171.9,-801.74"/>
</g>
<!-- node2138&#45;&gt;node1759 -->
<g id="edge8" class="edge">
<title>node2138&#45;&gt;node1759</title>
<path fill="none" stroke="#3cb4a4" d="M717.02,-114.24C732.23,-119.76 750.22,-128.37 762.79,-141 780.03,-158.34 785.79,-166.54 785.79,-191 785.79,-1035 785.79,-1035 785.79,-1035 785.79,-1071.21 678.28,-1098.87 616.02,-1111.85"/>
<polygon fill="#3cb4a4" stroke="#3cb4a4" points="615.17,-1108.46 606.07,-1113.89 616.57,-1115.31 615.17,-1108.46"/>
<text text-anchor="middle" x="789.29" y="-595.3" font-family="arial" font-size="14.00" fill="#3cb4a4">x</text>
</g>
<!-- node2138&#45;&gt;node1861 -->
<g id="edge16" class="edge">
<title>node2138&#45;&gt;node1861</title>
<path fill="none" stroke="#3cb4a4" d="M699.93,-86.8C708.78,-74.27 720.88,-57.12 730.7,-43.2"/>
<polygon fill="#3cb4a4" stroke="#3cb4a4" points="733.57,-45.21 736.47,-35.03 727.85,-41.18 733.57,-45.21"/>
<text text-anchor="middle" x="724.29" y="-57.8" font-family="arial" font-size="14.00" fill="#3cb4a4">x</text>
</g>
<!-- node2138&#45;&gt;node1863 -->
<g id="edge18" class="edge">
<title>node2138&#45;&gt;node1863</title>
<path fill="none" stroke="#3cb4a4" d="M658.71,-111.13C626.24,-117.13 572.29,-127.93 526.79,-141 493.53,-150.55 456.71,-163.93 429.33,-174.44"/>
<polygon fill="#3cb4a4" stroke="#3cb4a4" points="427.76,-171.29 419.69,-178.17 430.28,-177.82 427.76,-171.29"/>
<text text-anchor="middle" x="530.29" y="-144.8" font-family="arial" font-size="14.00" fill="#3cb4a4">x</text>
</g>
<!-- node2138&#45;&gt;node2165 -->
<g id="edge39" class="edge">
<title>node2138&#45;&gt;node2165</title>
<path fill="none" stroke="#3cb4a4" d="M658.43,-107.56C546.9,-113.87 155.79,-139.67 155.79,-191 155.79,-687 155.79,-687 155.79,-687 155.79,-706.84 161.01,-728.6 166.12,-745.14"/>
<polygon fill="#3cb4a4" stroke="#3cb4a4" points="162.81,-746.28 169.24,-754.7 169.46,-744.11 162.81,-746.28"/>
<text text-anchor="middle" x="172.29" y="-435.3" font-family="arial" font-size="14.00" fill="#3cb4a4">value</text>
</g>
<!-- node2162 -->
<g id="node28" class="node">
<title>node2162</title>
<polygon fill="#343d46" stroke="black" points="714.29,-791 477.29,-791 477.29,-755 714.29,-755 714.29,-791"/>
<text text-anchor="middle" x="595.79" y="-769.3" font-family="Arial" font-size="14.00" fill="#ffffff">2162 VirtualArray java.lang.Object[8]</text>
</g>
<!-- node2166 -->
<g id="node30" class="node">
<title>node2166</title>
<polygon fill="#da2d4f" stroke="black" points="471.29,-704 392.29,-704 392.29,-668 471.29,-668 471.29,-704"/>
<text text-anchor="middle" x="431.79" y="-682.3" font-family="Arial" font-size="14.00" fill="#ffffff">2166 Alloc</text>
</g>
<!-- node2162&#45;&gt;node2166 -->
<g id="edge41" class="edge">
<title>node2162&#45;&gt;node2166</title>
<path fill="none" stroke="#3cb4a4" d="M539.68,-754.93C525.96,-749.9 511.56,-743.87 498.79,-737 485.11,-729.64 471.16,-719.69 459.55,-710.61"/>
<polygon fill="#3cb4a4" stroke="#3cb4a4" points="461.54,-707.72 451.55,-704.2 457.17,-713.19 461.54,-707.72"/>
<text text-anchor="middle" x="540.29" y="-725.8" font-family="arial" font-size="14.00" fill="#3cb4a4">virtualObjects</text>
</g>
<!-- node2167 -->
<g id="node31" class="node">
<title>node2167</title>
<polygon fill="#343d46" stroke="black" points="606.29,-617 461.29,-617 461.29,-581 606.29,-581 606.29,-617"/>
<text text-anchor="middle" x="533.79" y="-595.3" font-family="Arial" font-size="14.00" fill="#ffffff">2167 AllocatedObject</text>
</g>
<!-- node2162&#45;&gt;node2167 -->
<g id="edge44" class="edge">
<title>node2162&#45;&gt;node2167</title>
<path fill="none" stroke="#3cb4a4" d="M591.42,-754.74C588.85,-745.05 585.4,-732.77 581.79,-722 570.58,-688.62 555.39,-651.04 545.12,-626.52"/>
<polygon fill="#3cb4a4" stroke="#3cb4a4" points="548.29,-625.03 541.18,-617.17 541.84,-627.74 548.29,-625.03"/>
<text text-anchor="middle" x="612.79" y="-682.3" font-family="arial" font-size="14.00" fill="#3cb4a4">virtualObject</text>
</g>
<!-- node2165&#45;&gt;node2166 -->
<g id="edge40" class="edge">
<title>node2165&#45;&gt;node2166</title>
<path fill="none" stroke="#da2d4f" stroke-width="2" d="M217.96,-754.95C243.71,-744.81 277.42,-732.02 307.79,-722 332.12,-713.97 359.5,-706.12 382.34,-699.9"/>
<polygon fill="#da2d4f" stroke="#da2d4f" stroke-width="2" points="383.41,-703.23 392.15,-697.24 381.58,-696.48 383.41,-703.23"/>
</g>
<!-- node2165&#45;&gt;node2166 -->
<g id="edge42" class="edge">
<title>node2165&#45;&gt;node2166</title>
<path fill="none" stroke="#3cb4a4" d="M241.87,-754.93C261.29,-749.57 282.49,-743.37 301.79,-737 328.85,-728.06 358.54,-716.75 382.71,-707.16"/>
<polygon fill="#3cb4a4" stroke="#3cb4a4" points="384.04,-710.4 392.03,-703.43 381.44,-703.9 384.04,-710.4"/>
<text text-anchor="middle" x="361.79" y="-725.8" font-family="arial" font-size="14.00" fill="#3cb4a4">values</text>
</g>
<!-- node2166&#45;&gt;node2069 -->
<g id="edge43" class="edge">
<title>node2166&#45;&gt;node2069</title>
<path fill="none" stroke="#da2d4f" stroke-width="2" d="M432.5,-668C434.11,-634.47 438.89,-557.54 450.79,-494 452.44,-485.16 454.86,-475.67 457.27,-467.14"/>
<polygon fill="#da2d4f" stroke="#da2d4f" stroke-width="2" points="460.69,-467.91 460.15,-457.33 453.97,-465.94 460.69,-467.91"/>
</g>
<!-- node2166&#45;&gt;node2167 -->
<g id="edge45" class="edge">
<title>node2166&#45;&gt;node2167</title>
<path fill="none" stroke="#3cb4a4" d="M452.43,-667.8C467.64,-655.13 488.51,-637.73 505.3,-623.74"/>
<polygon fill="#3cb4a4" stroke="#3cb4a4" points="507.73,-626.27 513.18,-617.18 503.25,-620.89 507.73,-626.27"/>
<text text-anchor="middle" x="512.79" y="-638.8" font-family="arial" font-size="14.00" fill="#3cb4a4">commit</text>
</g>
<!-- node2167&#45;&gt;node2070 -->
<g id="edge27" class="edge">
<title>node2167&#45;&gt;node2070</title>
<path fill="none" stroke="#3cb4a4" d="M534.8,-580.8C535.48,-569.16 536.4,-553.55 537.18,-540.24"/>
<polygon fill="#3cb4a4" stroke="#3cb4a4" points="540.68,-540.36 537.78,-530.18 533.69,-539.95 540.68,-540.36"/>
<text text-anchor="middle" x="553.29" y="-551.8" font-family="arial" font-size="14.00" fill="#3cb4a4">arg[1]</text>
</g>
<!-- node2180&#45;&gt;node1657 -->
<g id="edge5" class="edge">
<title>node2180&#45;&gt;node1657</title>
<path fill="none" stroke="#3cb4a4" d="M361.24,-841.87C354.77,-836.96 348.75,-831 344.79,-824 340.95,-817.23 339.31,-809.09 338.79,-801.36"/>
<polygon fill="#3cb4a4" stroke="#3cb4a4" points="342.29,-801.22 338.69,-791.25 335.29,-801.29 342.29,-801.22"/>
<text text-anchor="middle" x="361.79" y="-812.8" font-family="arial" font-size="14.00" fill="#3cb4a4">result</text>
</g>
<!-- node2180&#45;&gt;node1657 -->
<g id="edge47" class="edge">
<title>node2180&#45;&gt;node1657</title>
<path fill="none" stroke="#da2d4f" stroke-width="2" d="M391,-841.84C388.8,-831.73 385.03,-818.99 378.79,-809 376.48,-805.32 373.7,-801.78 370.69,-798.46"/>
<polygon fill="#da2d4f" stroke="#da2d4f" stroke-width="2" points="372.93,-795.76 363.39,-791.15 367.98,-800.7 372.93,-795.76"/>
</g>
<!-- node2181&#45;&gt;node586 -->
<g id="edge56" class="edge">
<title>node2181&#45;&gt;node586</title>
<path fill="none" stroke="#da2d4f" stroke-width="2" d="M471.14,-1590.86C467.77,-1580.61 463.41,-1567.37 459.59,-1555.76"/>
<polygon fill="#da2d4f" stroke="#da2d4f" stroke-width="2" points="462.87,-1554.51 456.42,-1546.11 456.22,-1556.7 462.87,-1554.51"/>
</g>
<!-- inline1235x1236 -->
<g id="node34" class="node">
<title>inline1235x1236</title>
<ellipse fill="#d7ede7" stroke="black" cx="1201.79" cy="-1441" rx="91.15" ry="18"/>
<text text-anchor="middle" x="1201.79" y="-1439.1" font-family="Arial" font-size="8.00" fill="#1a1919">1235 C(DeclarationContext@5b432a85)</text>
</g>
<!-- inline1235x1236&#45;&gt;node1236 -->
<g id="edge4" class="edge">
<title>inline1235x1236&#45;&gt;node1236</title>
<path fill="none" stroke="#3cb4a4" d="M1201.79,-1422.8C1201.79,-1408.05 1201.79,-1386.92 1201.79,-1372.18"/>
<text text-anchor="middle" x="1203.79" y="-1395.6" font-family="arial" font-size="8.00" fill="#3cb4a4">y</text>
</g>
<!-- inline23x1861 -->
<g id="node35" class="node">
<title>inline23x1861</title>
<ellipse fill="#d7ede7" stroke="black" cx="802.79" cy="-105" rx="27" ry="18"/>
<text text-anchor="middle" x="802.79" y="-103.1" font-family="Arial" font-size="8.00" fill="#1a1919">23 C(1)</text>
</g>
<!-- inline23x1861&#45;&gt;node1861 -->
<g id="edge17" class="edge">
<title>inline23x1861&#45;&gt;node1861</title>
<path fill="none" stroke="#3cb4a4" d="M792.44,-88.01C782.67,-72.91 768.09,-50.38 758.27,-35.21"/>
<text text-anchor="middle" x="779.79" y="-59.6" font-family="arial" font-size="8.00" fill="#3cb4a4">y</text>
</g>
<!-- inline23x1863 -->
<g id="node36" class="node">
<title>inline23x1863</title>
<ellipse fill="#d7ede7" stroke="black" cx="210.79" cy="-279" rx="27" ry="18"/>
<text text-anchor="middle" x="210.79" y="-277.1" font-family="Arial" font-size="8.00" fill="#1a1919">23 C(1)</text>
</g>
<!-- inline23x1863&#45;&gt;node1863 -->
<g id="edge19" class="edge">
<title>inline23x1863&#45;&gt;node1863</title>
<path fill="none" stroke="#3cb4a4" d="M232.14,-267.75C264.13,-252.38 324.54,-223.37 359.96,-206.36"/>
<text text-anchor="middle" x="312.79" y="-233.6" font-family="arial" font-size="8.00" fill="#3cb4a4">y</text>
</g>
<!-- inline1994x1996 -->
<g id="node37" class="node">
<title>inline1994x1996</title>
<ellipse fill="#d7ede7" stroke="black" cx="86.79" cy="-1034" rx="86.57" ry="18"/>
<text text-anchor="middle" x="86.79" y="-1032.1" font-family="Arial" font-size="8.00" fill="#1a1919">1994 C(RubyBasicObject@5a620041)</text>
</g>
<!-- inline1994x1996&#45;&gt;node1996 -->
<g id="edge22" class="edge">
<title>inline1994x1996&#45;&gt;node1996</title>
<path fill="none" stroke="#3cb4a4" d="M100.14,-1015.8C112.42,-999.98 130.41,-976.82 141.85,-962.08"/>
<text text-anchor="middle" x="125.79" y="-988.6" font-family="arial" font-size="8.00" fill="#3cb4a4">y</text>
</g>
<!-- inline2026x2070 -->
<g id="node38" class="node">
<title>inline2026x2070</title>
<ellipse fill="#d7ede7" stroke="black" cx="681.79" cy="-599" rx="57.08" ry="18"/>
<text text-anchor="middle" x="681.79" y="-597.1" font-family="Arial" font-size="8.00" fill="#1a1919">2026 C(Object#escape)</text>
</g>
<!-- inline2026x2070&#45;&gt;node2070 -->
<g id="edge26" class="edge">
<title>inline2026x2070&#45;&gt;node2070</title>
<path fill="none" stroke="#3cb4a4" d="M656.22,-582.8C631.32,-568 593.52,-545.53 567.57,-530.11"/>
<text text-anchor="middle" x="629.79" y="-553.6" font-family="arial" font-size="8.00" fill="#3cb4a4">arg[0]</text>
</g>
<!-- inline5x2138 -->
<g id="node39" class="node">
<title>inline5x2138</title>
<ellipse fill="#d7ede7" stroke="black" cx="692.79" cy="-192" rx="27" ry="18"/>
<text text-anchor="middle" x="692.79" y="-190.1" font-family="Arial" font-size="8.00" fill="#1a1919">5 C(0)</text>
</g>
<!-- inline5x2138&#45;&gt;node2138 -->
<g id="edge37" class="edge">
<title>inline5x2138&#45;&gt;node2138</title>
<path fill="none" stroke="#3cb4a4" d="M690.51,-173.94C689.84,-168.24 689.18,-161.86 688.79,-156 688.05,-145.08 687.8,-132.8 687.73,-123.14"/>
<text text-anchor="middle" x="707.29" y="-146.6" font-family="arial" font-size="8.00" fill="#3cb4a4">from 1733</text>
</g>
<!-- inline92x1236 -->
<g id="node40" class="node">
<title>inline92x1236</title>
<ellipse fill="#d7ede7" stroke="black" cx="1337.79" cy="-1441" rx="27" ry="18"/>
<text text-anchor="middle" x="1337.79" y="-1439.1" font-family="Arial" font-size="8.00" fill="#1a1919">92 T(3)</text>
</g>
<!-- inline92x1236&#45;&gt;node1236 -->
<g id="edge48" class="edge">
<title>inline92x1236&#45;&gt;node1236</title>
<path fill="none" stroke="#3cb4a4" d="M1318.59,-1428C1292.52,-1411.71 1246.24,-1382.78 1220.45,-1366.66"/>
<text text-anchor="middle" x="1279.79" y="-1395.6" font-family="arial" font-size="8.00" fill="#3cb4a4">x</text>
</g>
<!-- inline125x1996 -->
<g id="node41" class="node">
<title>inline125x1996</title>
<ellipse fill="#d7ede7" stroke="black" cx="218.79" cy="-1034" rx="27.46" ry="18"/>
<text text-anchor="middle" x="218.79" y="-1032.1" font-family="Arial" font-size="8.00" fill="#1a1919">125 T(5)</text>
</g>
<!-- inline125x1996&#45;&gt;node1996 -->
<g id="edge49" class="edge">
<title>inline125x1996&#45;&gt;node1996</title>
<path fill="none" stroke="#3cb4a4" d="M206.68,-1017.41C194.4,-1001.59 175.56,-977.33 163.72,-962.08"/>
<text text-anchor="middle" x="191.79" y="-988.6" font-family="arial" font-size="8.00" fill="#3cb4a4">x</text>
</g>
<!-- inline125x2166 -->
<g id="node42" class="node">
<title>inline125x2166</title>
<ellipse fill="#d7ede7" stroke="black" cx="431.79" cy="-773" rx="27.46" ry="18"/>
<text text-anchor="middle" x="431.79" y="-771.1" font-family="Arial" font-size="8.00" fill="#1a1919">125 T(5)</text>
</g>
<!-- inline125x2166&#45;&gt;node2166 -->
<g id="edge50" class="edge">
<title>inline125x2166&#45;&gt;node2166</title>
<path fill="none" stroke="#3cb4a4" d="M431.79,-754.8C431.79,-740.05 431.79,-718.92 431.79,-704.18"/>
<text text-anchor="middle" x="443.29" y="-727.6" font-family="arial" font-size="8.00" fill="#3cb4a4">values</text>
</g>
<!-- inline143x687 -->
<g id="node43" class="node">
<title>inline143x687</title>
<ellipse fill="#d7ede7" stroke="black" cx="604.79" cy="-1609" rx="27.46" ry="18"/>
<text text-anchor="middle" x="604.79" y="-1607.1" font-family="Arial" font-size="8.00" fill="#1a1919">143 T(6)</text>
</g>
<!-- inline143x687&#45;&gt;node687 -->
<g id="edge51" class="edge">
<title>inline143x687&#45;&gt;node687</title>
<path fill="none" stroke="#3cb4a4" d="M604.79,-1590.86C604.79,-1577.61 604.79,-1559.35 604.79,-1546.11"/>
<text text-anchor="middle" x="614.29" y="-1566.6" font-family="arial" font-size="8.00" fill="#3cb4a4">value</text>
</g>
<!-- inline143x1202 -->
<g id="node44" class="node">
<title>inline143x1202</title>
<ellipse fill="#d7ede7" stroke="black" cx="920.79" cy="-1528" rx="27.46" ry="18"/>
<text text-anchor="middle" x="920.79" y="-1526.1" font-family="Arial" font-size="8.00" fill="#1a1919">143 T(6)</text>
</g>
<!-- inline143x1202&#45;&gt;node1202 -->
<g id="edge52" class="edge">
<title>inline143x1202&#45;&gt;node1202</title>
<path fill="none" stroke="#3cb4a4" d="M920.79,-1509.8C920.79,-1495.05 920.79,-1473.92 920.79,-1459.18"/>
<text text-anchor="middle" x="930.29" y="-1482.6" font-family="arial" font-size="8.00" fill="#3cb4a4">value</text>
</g>
<!-- inline158x586 -->
<g id="node45" class="node">
<title>inline158x586</title>
<ellipse fill="#d7ede7" stroke="black" cx="374.79" cy="-1609" rx="27.46" ry="18"/>
<text text-anchor="middle" x="374.79" y="-1607.1" font-family="Arial" font-size="8.00" fill="#1a1919">158 T(7)</text>
</g>
<!-- inline158x586&#45;&gt;node586 -->
<g id="edge53" class="edge">
<title>inline158x586&#45;&gt;node586</title>
<path fill="none" stroke="#3cb4a4" d="M388.73,-1593.51C401.58,-1580.15 420.68,-1560.3 434.29,-1546.15"/>
<text text-anchor="middle" x="425.29" y="-1566.6" font-family="arial" font-size="8.00" fill="#3cb4a4">value</text>
</g>
<!-- inline2x2181 -->
<g id="node46" class="node">
<title>inline2x2181</title>
<ellipse fill="#d7ede7" stroke="black" cx="512.79" cy="-1690" rx="27" ry="18"/>
<text text-anchor="middle" x="512.79" y="-1688.1" font-family="Arial" font-size="8.00" fill="#1a1919">2 P(1)</text>
</g>
<!-- inline2x2181&#45;&gt;node2181 -->
<g id="edge54" class="edge">
<title>inline2x2181&#45;&gt;node2181</title>
<path fill="none" stroke="#3cb4a4" d="M505.33,-1672.63C499.27,-1659.34 490.76,-1640.67 484.61,-1627.17"/>
<text text-anchor="middle" x="506.29" y="-1647.6" font-family="arial" font-size="8.00" fill="#3cb4a4">array</text>
</g>
</g>
</svg>
