<?xml version="1.0" encoding="UTF-8" standalone="no"?>
<!DOCTYPE svg PUBLIC "-//W3C//DTD SVG 1.1//EN"
 "http://www.w3.org/Graphics/SVG/1.1/DTD/svg11.dtd">
<!-- Generated by graphviz version 2.44.1 (20200629.0846)
 -->
<!-- Title: G Pages: 1 -->
<svg width="1033pt" height="722pt"
 viewBox="0.00 0.00 1032.50 722.00" xmlns="http://www.w3.org/2000/svg" xmlns:xlink="http://www.w3.org/1999/xlink">
<g id="graph0" class="graph" transform="scale(1 1) rotate(0) translate(4 718)">
<title>G</title>
<!-- node0 -->
<g id="node1" class="node">
<title>node0</title>
<polygon fill="#e98693" stroke="black" points="56,-714 0,-714 0,-678 56,-678 56,-714"/>
<text text-anchor="middle" x="28" y="-692.3" font-family="Arial" font-size="14.00" fill="#1a1919">0 Start</text>
</g>
<!-- node1190 -->
<g id="node13" class="node">
<title>node1190</title>
<polygon fill="#da2d4f" stroke="black" points="120,-633 8,-633 8,-597 120,-597 120,-633"/>
<text text-anchor="middle" x="64" y="-611.3" font-family="Arial" font-size="14.00" fill="#ffffff">1190 Load T(...)</text>
</g>
<!-- node0&#45;&gt;node1190 -->
<g id="edge21" class="edge">
<title>node0&#45;&gt;node1190</title>
<path fill="none" stroke="#da2d4f" stroke-width="2" d="M35.81,-677.86C40.53,-667.51 46.64,-654.1 51.96,-642.41"/>
<polygon fill="#da2d4f" stroke="#da2d4f" stroke-width="2" points="55.24,-643.66 56.2,-633.11 48.87,-640.76 55.24,-643.66"/>
</g>
<!-- node562 -->
<g id="node2" class="node">
<title>node562</title>
<polygon fill="#f9f9f9" stroke="black" points="155,-552 73,-552 73,-516 155,-516 155,-552"/>
<text text-anchor="middle" x="114" y="-530.3" font-family="Arial" font-size="14.00" fill="#1a1919">562 Unbox</text>
</g>
<!-- node717 -->
<g id="node3" class="node">
<title>node717</title>
<polygon fill="#f9f9f9" stroke="black" points="224,-471 142,-471 142,-435 224,-435 224,-471"/>
<text text-anchor="middle" x="183" y="-449.3" font-family="Arial" font-size="14.00" fill="#1a1919">717 Unbox</text>
</g>
<!-- node562&#45;&gt;node717 -->
<g id="edge1" class="edge">
<title>node562&#45;&gt;node717</title>
<path fill="none" stroke="#da2d4f" stroke-width="2" d="M128.97,-515.86C138.47,-504.99 150.9,-490.75 161.45,-478.67"/>
<polygon fill="#da2d4f" stroke="#da2d4f" stroke-width="2" points="164.12,-480.94 168.06,-471.11 158.84,-476.34 164.12,-480.94"/>
</g>
<!-- node1188 -->
<g id="node11" class="node">
<title>node1188</title>
<polygon fill="#da2d4f" stroke="black" points="490,-210 412,-210 412,-174 490,-174 490,-210"/>
<text text-anchor="middle" x="451" y="-188.3" font-family="Arial" font-size="14.00" fill="#ffffff">1188 Alloc</text>
</g>
<!-- node562&#45;&gt;node1188 -->
<g id="edge11" class="edge">
<title>node562&#45;&gt;node1188</title>
<path fill="none" stroke="#3cb4a4" d="M114,-515.74C114,-499.74 114,-475.26 114,-454 114,-454 114,-454 114,-278 114,-219.4 307.97,-200.79 401.59,-195.22"/>
<polygon fill="#3cb4a4" stroke="#3cb4a4" points="401.9,-198.71 411.68,-194.65 401.5,-191.72 401.9,-198.71"/>
<text text-anchor="middle" x="134" y="-362.3" font-family="arial" font-size="14.00" fill="#3cb4a4">values</text>
</g>
<!-- node787 -->
<g id="node4" class="node">
<title>node787</title>
<polygon fill="#ffa500" stroke="black" points="456,-384 218,-384 218,-348 456,-348 456,-384"/>
<text text-anchor="middle" x="337" y="-362.3" font-family="Arial" font-size="14.00" fill="#1a1919">787 Guard, else ClassCastException</text>
</g>
<!-- node717&#45;&gt;node787 -->
<g id="edge2" class="edge">
<title>node717&#45;&gt;node787</title>
<path fill="none" stroke="#da2d4f" stroke-width="2" d="M214.16,-434.8C238.14,-421.56 271.45,-403.18 297.33,-388.9"/>
<polygon fill="#da2d4f" stroke="#da2d4f" stroke-width="2" points="299.08,-391.93 306.15,-384.03 295.7,-385.8 299.08,-391.93"/>
</g>
<!-- node717&#45;&gt;node1188 -->
<g id="edge12" class="edge">
<title>node717&#45;&gt;node1188</title>
<path fill="none" stroke="#3cb4a4" d="M179.04,-434.78C171.68,-398.06 160.28,-311.33 203,-261 228.54,-230.91 337.08,-209.95 401.8,-199.86"/>
<polygon fill="#3cb4a4" stroke="#3cb4a4" points="402.44,-203.3 411.79,-198.33 401.38,-196.38 402.44,-203.3"/>
<text text-anchor="middle" x="197" y="-318.8" font-family="arial" font-size="14.00" fill="#3cb4a4">values</text>
</g>
<!-- node1171 -->
<g id="node8" class="node">
<title>node1171</title>
<polygon fill="#ffa500" stroke="black" points="462.5,-297 211.5,-297 211.5,-261 462.5,-261 462.5,-297"/>
<text text-anchor="middle" x="337" y="-275.3" font-family="Arial" font-size="14.00" fill="#1a1919">1171 Guard, else TransferToInterpreter</text>
</g>
<!-- node787&#45;&gt;node1171 -->
<g id="edge4" class="edge">
<title>node787&#45;&gt;node1171</title>
<path fill="none" stroke="#da2d4f" stroke-width="2" d="M337,-347.8C337,-336.16 337,-320.55 337,-307.24"/>
<polygon fill="#da2d4f" stroke="#da2d4f" stroke-width="2" points="340.5,-307.18 337,-297.18 333.5,-307.18 340.5,-307.18"/>
</g>
<!-- node788 -->
<g id="node5" class="node">
<title>node788</title>
<polygon fill="#f9f9f9" stroke="black" points="561.5,-471 242.5,-471 242.5,-435 561.5,-435 561.5,-471"/>
<text text-anchor="middle" x="402" y="-449.3" font-family="Arial" font-size="14.00" fill="#1a1919">788 InstanceOf org/truffleruby/core/proc/RubyProc</text>
</g>
<!-- node788&#45;&gt;node787 -->
<g id="edge3" class="edge">
<title>node788&#45;&gt;node787</title>
<path fill="none" stroke="#3cb4a4" d="M388.85,-434.8C379.51,-422.59 366.82,-405.99 356.33,-392.28"/>
<polygon fill="#3cb4a4" stroke="#3cb4a4" points="358.99,-389.99 350.13,-384.18 353.43,-394.25 358.99,-389.99"/>
<text text-anchor="middle" x="377" y="-405.8" font-family="arial" font-size="14.00" fill="#3cb4a4">?</text>
</g>
<!-- node794 -->
<g id="node6" class="node">
<title>node794</title>
<polygon fill="#3cb4a4" stroke="black" points="576,-384 505.45,-366 576,-348 646.55,-366 576,-384"/>
<text text-anchor="middle" x="576" y="-362.3" font-family="Arial" font-size="14.00" fill="#1a1919">794 IsNull</text>
</g>
<!-- node794&#45;&gt;node1171 -->
<g id="edge6" class="edge">
<title>node794&#45;&gt;node1171</title>
<path fill="none" stroke="#3cb4a4" d="M548.12,-355.08C510.6,-341.74 442.97,-317.69 394.35,-300.4"/>
<polygon fill="#3cb4a4" stroke="#3cb4a4" points="395.49,-297.09 384.9,-297.04 393.15,-303.68 395.49,-297.09"/>
<text text-anchor="middle" x="474" y="-318.8" font-family="arial" font-size="14.00" fill="#3cb4a4">?</text>
</g>
<!-- node1164 -->
<g id="node7" class="node">
<title>node1164</title>
<polygon fill="#e98693" stroke="black" points="512,-36 422,-36 422,0 512,0 512,-36"/>
<text text-anchor="middle" x="467" y="-14.3" font-family="Arial" font-size="14.00" fill="#1a1919">1164 Return</text>
</g>
<!-- node1171&#45;&gt;node1188 -->
<g id="edge7" class="edge">
<title>node1171&#45;&gt;node1188</title>
<path fill="none" stroke="#da2d4f" stroke-width="2" d="M360.07,-260.8C377.3,-247.95 401.03,-230.26 419.93,-216.17"/>
<polygon fill="#da2d4f" stroke="#da2d4f" stroke-width="2" points="422.04,-218.96 427.96,-210.18 417.86,-213.35 422.04,-218.96"/>
</g>
<!-- node1185 -->
<g id="node9" class="node">
<title>node1185</title>
<polygon fill="#343d46" stroke="black" points="633.5,-297 480.5,-297 480.5,-261 633.5,-261 633.5,-297"/>
<text text-anchor="middle" x="557" y="-275.3" font-family="Arial" font-size="14.00" fill="#ffffff">1185 VirtualArray int[2]</text>
</g>
<!-- node1185&#45;&gt;node1188 -->
<g id="edge9" class="edge">
<title>node1185&#45;&gt;node1188</title>
<path fill="none" stroke="#3cb4a4" d="M480.45,-265.06C469.34,-259.93 459.23,-252.83 452,-243 447.28,-236.58 445.81,-228.34 445.88,-220.41"/>
<polygon fill="#3cb4a4" stroke="#3cb4a4" points="449.37,-220.58 446.69,-210.33 442.4,-220.02 449.37,-220.58"/>
<text text-anchor="middle" x="493.5" y="-231.8" font-family="arial" font-size="14.00" fill="#3cb4a4">virtualObjects</text>
</g>
<!-- node1185&#45;&gt;node1188 -->
<g id="edge10" class="edge">
<title>node1185&#45;&gt;node1188</title>
<path fill="none" stroke="#3cb4a4" d="M552.96,-260.82C549.68,-250.18 544.07,-236.9 535,-228 525.2,-218.39 512.38,-211.28 499.72,-206.06"/>
<polygon fill="#3cb4a4" stroke="#3cb4a4" points="500.71,-202.7 490.12,-202.44 498.24,-209.25 500.71,-202.7"/>
<text text-anchor="middle" x="565" y="-231.8" font-family="arial" font-size="14.00" fill="#3cb4a4">values</text>
</g>
<!-- node1187 -->
<g id="node10" class="node">
<title>node1187</title>
<polygon fill="#f9f9f9" stroke="black" points="1024.5,-297 651.5,-297 651.5,-261 1024.5,-261 1024.5,-297"/>
<text text-anchor="middle" x="838" y="-275.3" font-family="Arial" font-size="14.00" fill="#1a1919">1187 VirtualInstance(6) org.truffleruby.core.array.RubyArray</text>
</g>
<!-- node1187&#45;&gt;node1188 -->
<g id="edge8" class="edge">
<title>node1187&#45;&gt;node1188</title>
<path fill="none" stroke="#3cb4a4" d="M760.15,-260.9C682.53,-243.85 565.68,-218.19 500.12,-203.79"/>
<polygon fill="#3cb4a4" stroke="#3cb4a4" points="500.57,-200.3 490.05,-201.58 499.06,-207.14 500.57,-200.3"/>
<text text-anchor="middle" x="708.5" y="-231.8" font-family="arial" font-size="14.00" fill="#3cb4a4">virtualObjects</text>
</g>
<!-- node1189 -->
<g id="node12" class="node">
<title>node1189</title>
<polygon fill="#343d46" stroke="black" points="623,-123 479,-123 479,-87 623,-87 623,-123"/>
<text text-anchor="middle" x="551" y="-101.3" font-family="Arial" font-size="14.00" fill="#ffffff">1189 AllocatedObject</text>
</g>
<!-- node1187&#45;&gt;node1189 -->
<g id="edge14" class="edge">
<title>node1187&#45;&gt;node1189</title>
<path fill="none" stroke="#3cb4a4" d="M809.43,-260.88C757.21,-229.58 646.4,-163.17 588.31,-128.36"/>
<polygon fill="#3cb4a4" stroke="#3cb4a4" points="589.83,-125.19 579.45,-123.05 586.23,-131.19 589.83,-125.19"/>
<text text-anchor="middle" x="761" y="-188.3" font-family="arial" font-size="14.00" fill="#3cb4a4">virtualObject</text>
</g>
<!-- node1188&#45;&gt;node1164 -->
<g id="edge13" class="edge">
<title>node1188&#45;&gt;node1164</title>
<path fill="none" stroke="#da2d4f" stroke-width="2" d="M452.59,-173.88C455.37,-144 461.13,-82.11 464.46,-46.27"/>
<polygon fill="#da2d4f" stroke="#da2d4f" stroke-width="2" points="467.97,-46.33 465.41,-36.05 461,-45.68 467.97,-46.33"/>
</g>
<!-- node1188&#45;&gt;node1189 -->
<g id="edge15" class="edge">
<title>node1188&#45;&gt;node1189</title>
<path fill="none" stroke="#3cb4a4" d="M471.24,-173.8C486.15,-161.13 506.61,-143.73 523.07,-129.74"/>
<polygon fill="#3cb4a4" stroke="#3cb4a4" points="525.44,-132.32 530.79,-123.18 520.91,-126.99 525.44,-132.32"/>
<text text-anchor="middle" x="529" y="-144.8" font-family="arial" font-size="14.00" fill="#3cb4a4">commit</text>
</g>
<!-- node1189&#45;&gt;node1164 -->
<g id="edge5" class="edge">
<title>node1189&#45;&gt;node1164</title>
<path fill="none" stroke="#3cb4a4" d="M534,-86.8C521.7,-74.36 504.91,-57.36 491.22,-43.5"/>
<polygon fill="#3cb4a4" stroke="#3cb4a4" points="493.49,-40.83 483.97,-36.18 488.51,-45.75 493.49,-40.83"/>
<text text-anchor="middle" x="531" y="-57.8" font-family="arial" font-size="14.00" fill="#3cb4a4">result</text>
</g>
<!-- node1190&#45;&gt;node562 -->
<g id="edge22" class="edge">
<title>node1190&#45;&gt;node562</title>
<path fill="none" stroke="#da2d4f" stroke-width="2" d="M74.85,-596.86C81.53,-586.3 90.23,-572.56 97.72,-560.71"/>
<polygon fill="#da2d4f" stroke="#da2d4f" stroke-width="2" points="100.78,-562.43 103.17,-552.11 94.87,-558.69 100.78,-562.43"/>
</g>
<!-- inline158x788 -->
<g id="node14" class="node">
<title>inline158x788</title>
<ellipse fill="#d7ede7" stroke="black" cx="402" cy="-534" rx="27.46" ry="18"/>
<text text-anchor="middle" x="402" y="-532.1" font-family="Arial" font-size="8.00" fill="#1a1919">158 T(7)</text>
</g>
<!-- inline158x788&#45;&gt;node788 -->
<g id="edge16" class="edge">
<title>inline158x788&#45;&gt;node788</title>
<path fill="none" stroke="#3cb4a4" d="M402,-515.86C402,-502.61 402,-484.35 402,-471.11"/>
<text text-anchor="middle" x="411.5" y="-491.6" font-family="arial" font-size="8.00" fill="#3cb4a4">value</text>
</g>
<!-- inline158x794 -->
<g id="node15" class="node">
<title>inline158x794</title>
<ellipse fill="#d7ede7" stroke="black" cx="607" cy="-453" rx="27.46" ry="18"/>
<text text-anchor="middle" x="607" y="-451.1" font-family="Arial" font-size="8.00" fill="#1a1919">158 T(7)</text>
</g>
<!-- inline158x794&#45;&gt;node794 -->
<g id="edge17" class="edge">
<title>inline158x794&#45;&gt;node794</title>
<path fill="none" stroke="#3cb4a4" d="M600.88,-435.21C595.3,-419.92 587.13,-397.52 581.69,-382.61"/>
<text text-anchor="middle" x="602.5" y="-407.6" font-family="arial" font-size="8.00" fill="#3cb4a4">value</text>
</g>
<!-- inline173x562 -->
<g id="node16" class="node">
<title>inline173x562</title>
<ellipse fill="#d7ede7" stroke="black" cx="165" cy="-615" rx="27.46" ry="18"/>
<text text-anchor="middle" x="165" y="-613.1" font-family="Arial" font-size="8.00" fill="#1a1919">173 T(8)</text>
</g>
<!-- inline173x562&#45;&gt;node562 -->
<g id="edge18" class="edge">
<title>inline173x562&#45;&gt;node562</title>
<path fill="none" stroke="#3cb4a4" d="M154.68,-598.01C146.06,-584.67 133.81,-565.69 125.01,-552.06"/>
<text text-anchor="middle" x="150.5" y="-572.6" font-family="arial" font-size="8.00" fill="#3cb4a4">value</text>
</g>
<!-- inline191x717 -->
<g id="node17" class="node">
<title>inline191x717</title>
<ellipse fill="#d7ede7" stroke="black" cx="200" cy="-534" rx="27.46" ry="18"/>
<text text-anchor="middle" x="200" y="-532.1" font-family="Arial" font-size="8.00" fill="#1a1919">191 T(9)</text>
</g>
<!-- inline191x717&#45;&gt;node717 -->
<g id="edge19" class="edge">
<title>inline191x717&#45;&gt;node717</title>
<path fill="none" stroke="#3cb4a4" d="M196.31,-515.86C193.46,-502.61 189.53,-484.35 186.68,-471.11"/>
<text text-anchor="middle" x="201.5" y="-491.6" font-family="arial" font-size="8.00" fill="#3cb4a4">value</text>
</g>
<!-- inline2x1190 -->
<g id="node18" class="node">
<title>inline2x1190</title>
<ellipse fill="#d7ede7" stroke="black" cx="101" cy="-696" rx="27" ry="18"/>
<text text-anchor="middle" x="101" y="-694.1" font-family="Arial" font-size="8.00" fill="#1a1919">2 P(1)</text>
</g>
<!-- inline2x1190&#45;&gt;node1190 -->
<g id="edge20" class="edge">
<title>inline2x1190&#45;&gt;node1190</title>
<path fill="none" stroke="#3cb4a4" d="M93.33,-678.63C87.11,-665.34 78.36,-646.67 72.04,-633.17"/>
<text text-anchor="middle" x="92.5" y="-653.6" font-family="arial" font-size="8.00" fill="#3cb4a4">array</text>
</g>
</g>
</svg>
