<?xml version="1.0" encoding="UTF-8" standalone="no"?>
<!DOCTYPE svg PUBLIC "-//W3C//DTD SVG 1.1//EN"
 "http://www.w3.org/Graphics/SVG/1.1/DTD/svg11.dtd">
<!-- Generated by graphviz version 2.44.1 (20200629.0846)
 -->
<!-- Title: G Pages: 1 -->
<svg width="645pt" height="1404pt"
 viewBox="0.00 0.00 644.97 1404.00" xmlns="http://www.w3.org/2000/svg" xmlns:xlink="http://www.w3.org/1999/xlink">
<g id="graph0" class="graph" transform="scale(1 1) rotate(0) translate(4 1400)">
<title>G</title>
<!-- node0 -->
<g id="node1" class="node">
<title>node0</title>
<polygon fill="#e98693" stroke="black" points="233.47,-1396 177.47,-1396 177.47,-1360 233.47,-1360 233.47,-1396"/>
<text text-anchor="middle" x="205.47" y="-1374.3" font-family="Arial" font-size="14.00" fill="#1a1919">0 Start</text>
</g>
<!-- node1435 -->
<g id="node22" class="node">
<title>node1435</title>
<polygon fill="#da2d4f" stroke="black" points="297.97,-1315 184.97,-1315 184.97,-1279 297.97,-1279 297.97,-1315"/>
<text text-anchor="middle" x="241.47" y="-1293.3" font-family="Arial" font-size="14.00" fill="#ffffff">1435 Load T(...)</text>
</g>
<!-- node0&#45;&gt;node1435 -->
<g id="edge34" class="edge">
<title>node0&#45;&gt;node1435</title>
<path fill="none" stroke="#da2d4f" stroke-width="2" d="M213.28,-1359.86C218,-1349.51 224.11,-1336.1 229.43,-1324.41"/>
<polygon fill="#da2d4f" stroke="#da2d4f" stroke-width="2" points="232.71,-1325.66 233.67,-1315.11 226.34,-1322.76 232.71,-1325.66"/>
</g>
<!-- node912 -->
<g id="node2" class="node">
<title>node912</title>
<polygon fill="#da2d4f" stroke="black" points="459.97,-1234 160.97,-1234 160.97,-1198 459.97,-1198 459.97,-1234"/>
<text text-anchor="middle" x="310.47" y="-1212.3" font-family="Arial" font-size="14.00" fill="#ffffff">912 LoadField RubyDynamicObject.metaClass</text>
</g>
<!-- node976 -->
<g id="node3" class="node">
<title>node976</title>
<polygon fill="#e98693" stroke="black" points="301.47,-1060 247.47,-1060 247.47,-1024 301.47,-1024 301.47,-1060"/>
<text text-anchor="middle" x="274.47" y="-1038.3" font-family="Arial" font-size="14.00" fill="#1a1919">976 If</text>
</g>
<!-- node912&#45;&gt;node976 -->
<g id="edge1" class="edge">
<title>node912&#45;&gt;node976</title>
<path fill="none" stroke="#da2d4f" stroke-width="2" d="M306.89,-1197.88C300.63,-1168 287.68,-1106.11 280.18,-1070.27"/>
<polygon fill="#da2d4f" stroke="#da2d4f" stroke-width="2" points="283.51,-1069.12 278.04,-1060.05 276.66,-1070.56 283.51,-1069.12"/>
</g>
<!-- node977 -->
<g id="node4" class="node">
<title>node977</title>
<polygon fill="#3cb4a4" stroke="black" points="197.47,-1147 143.01,-1129 197.47,-1111 251.93,-1129 197.47,-1147"/>
<text text-anchor="middle" x="197.47" y="-1125.3" font-family="Arial" font-size="14.00" fill="#1a1919">977 ==</text>
</g>
<!-- node912&#45;&gt;node977 -->
<g id="edge5" class="edge">
<title>node912&#45;&gt;node977</title>
<path fill="none" stroke="#3cb4a4" d="M287.6,-1197.8C268.39,-1183.35 241.02,-1162.76 221.49,-1148.07"/>
<polygon fill="#3cb4a4" stroke="#3cb4a4" points="223.48,-1145.19 213.39,-1141.97 219.28,-1150.78 223.48,-1145.19"/>
<text text-anchor="middle" x="263.97" y="-1168.8" font-family="arial" font-size="14.00" fill="#3cb4a4">x</text>
</g>
<!-- node1068 -->
<g id="node7" class="node">
<title>node1068</title>
<polygon fill="#3cb4a4" stroke="black" points="447.47,-973 385.8,-955 447.47,-937 509.14,-955 447.47,-973"/>
<text text-anchor="middle" x="447.47" y="-951.3" font-family="Arial" font-size="14.00" fill="#1a1919">1068 ==</text>
</g>
<!-- node912&#45;&gt;node1068 -->
<g id="edge9" class="edge">
<title>node912&#45;&gt;node1068</title>
<path fill="none" stroke="#3cb4a4" d="M312.15,-1197.79C316.28,-1162.54 329.42,-1080.7 366.47,-1024 379.98,-1003.32 401.67,-985.59 419.2,-973.43"/>
<polygon fill="#3cb4a4" stroke="#3cb4a4" points="421.56,-976.06 427.93,-967.59 417.67,-970.24 421.56,-976.06"/>
<text text-anchor="middle" x="342.97" y="-1081.8" font-family="arial" font-size="14.00" fill="#3cb4a4">x</text>
</g>
<!-- node978 -->
<g id="node5" class="node">
<title>node978</title>
<polygon fill="#e98693" stroke="black" points="272.97,-973 195.97,-973 195.97,-937 272.97,-937 272.97,-973"/>
<text text-anchor="middle" x="234.47" y="-951.3" font-family="Arial" font-size="14.00" fill="#1a1919">978 Begin</text>
</g>
<!-- node976&#45;&gt;node978 -->
<g id="edge3" class="edge">
<title>node976&#45;&gt;node978</title>
<path fill="none" stroke="#da2d4f" stroke-width="2" d="M266.38,-1023.8C260.79,-1011.93 253.26,-995.93 246.92,-982.45"/>
<polygon fill="#da2d4f" stroke="#da2d4f" stroke-width="2" points="249.98,-980.73 242.55,-973.18 243.64,-983.71 249.98,-980.73"/>
<text text-anchor="middle" x="260.97" y="-994.8" font-family="arial" font-size="14.00" fill="#da2d4f">T</text>
</g>
<!-- node979 -->
<g id="node6" class="node">
<title>node979</title>
<polygon fill="#e98693" stroke="black" points="367.97,-973 290.97,-973 290.97,-937 367.97,-937 367.97,-973"/>
<text text-anchor="middle" x="329.47" y="-951.3" font-family="Arial" font-size="14.00" fill="#1a1919">979 Begin</text>
</g>
<!-- node976&#45;&gt;node979 -->
<g id="edge4" class="edge">
<title>node976&#45;&gt;node979</title>
<path fill="none" stroke="#da2d4f" stroke-width="2" d="M285.6,-1023.8C293.43,-1011.7 304.04,-995.3 312.86,-981.67"/>
<polygon fill="#da2d4f" stroke="#da2d4f" stroke-width="2" points="315.86,-983.47 318.36,-973.18 309.99,-979.67 315.86,-983.47"/>
<text text-anchor="middle" x="308.97" y="-994.8" font-family="arial" font-size="14.00" fill="#da2d4f">F</text>
</g>
<!-- node977&#45;&gt;node976 -->
<g id="edge2" class="edge">
<title>node977&#45;&gt;node976</title>
<path fill="none" stroke="#3cb4a4" d="M209.5,-1114.72C220.81,-1102.23 238.03,-1083.23 251.9,-1067.92"/>
<polygon fill="#3cb4a4" stroke="#3cb4a4" points="254.68,-1070.06 258.8,-1060.3 249.49,-1065.36 254.68,-1070.06"/>
<text text-anchor="middle" x="245.47" y="-1081.8" font-family="arial" font-size="14.00" fill="#3cb4a4">?</text>
</g>
<!-- node1243 -->
<g id="node11" class="node">
<title>node1243</title>
<polygon fill="#e98693" stroke="black" points="386.47,-632 328.47,-632 328.47,-596 386.47,-596 386.47,-632"/>
<text text-anchor="middle" x="357.47" y="-610.3" font-family="Arial" font-size="14.00" fill="#1a1919">1243 If</text>
</g>
<!-- node977&#45;&gt;node1243 -->
<g id="edge14" class="edge">
<title>node977&#45;&gt;node1243</title>
<path fill="none" stroke="#3cb4a4" d="M188.95,-1113.5C180.08,-1097.01 167.47,-1068.98 167.47,-1043 167.47,-1043 167.47,-1043 167.47,-686 167.47,-654.09 262.68,-631.78 318.31,-621.47"/>
<polygon fill="#3cb4a4" stroke="#3cb4a4" points="318.98,-624.9 328.2,-619.68 317.74,-618.01 318.98,-624.9"/>
<text text-anchor="middle" x="171.47" y="-864.3" font-family="arial" font-size="14.00" fill="#3cb4a4">?</text>
</g>
<!-- node1125 -->
<g id="node9" class="node">
<title>node1125</title>
<polygon fill="#e98693" stroke="black" points="292.47,-832 218.47,-832 218.47,-796 292.47,-796 292.47,-832"/>
<text text-anchor="middle" x="255.47" y="-810.3" font-family="Arial" font-size="14.00" fill="#1a1919">1125 End</text>
</g>
<!-- node978&#45;&gt;node1125 -->
<g id="edge7" class="edge">
<title>node978&#45;&gt;node1125</title>
<path fill="none" stroke="#da2d4f" stroke-width="2" d="M227.59,-936.77C220.21,-915.58 211,-878.89 222.47,-850 223.85,-846.54 225.74,-843.22 227.94,-840.1"/>
<polygon fill="#da2d4f" stroke="#da2d4f" stroke-width="2" points="230.67,-842.29 234.3,-832.34 225.26,-837.85 230.67,-842.29"/>
</g>
<!-- node1411 -->
<g id="node19" class="node">
<title>node1411</title>
<polygon fill="#ffa500" stroke="black" points="482.97,-886 231.97,-886 231.97,-850 482.97,-850 482.97,-886"/>
<text text-anchor="middle" x="357.47" y="-864.3" font-family="Arial" font-size="14.00" fill="#1a1919">1411 Guard, else TransferToInterpreter</text>
</g>
<!-- node979&#45;&gt;node1411 -->
<g id="edge8" class="edge">
<title>node979&#45;&gt;node1411</title>
<path fill="none" stroke="#da2d4f" stroke-width="2" d="M335.14,-936.8C339.01,-925.05 344.22,-909.24 348.63,-895.84"/>
<polygon fill="#da2d4f" stroke="#da2d4f" stroke-width="2" points="352.01,-896.77 351.81,-886.18 345.36,-894.58 352.01,-896.77"/>
</g>
<!-- node1068&#45;&gt;node1411 -->
<g id="edge26" class="edge">
<title>node1068&#45;&gt;node1411</title>
<path fill="none" stroke="#3cb4a4" d="M433.41,-940.72C420.07,-928.12 399.7,-908.88 383.41,-893.5"/>
<polygon fill="#3cb4a4" stroke="#3cb4a4" points="385.47,-890.63 375.79,-886.3 380.66,-895.71 385.47,-890.63"/>
<text text-anchor="middle" x="411.47" y="-907.8" font-family="arial" font-size="14.00" fill="#3cb4a4">?</text>
</g>
<!-- node1414 -->
<g id="node20" class="node">
<title>node1414</title>
<polygon fill="#ffa500" stroke="black" points="636.97,-472 385.97,-472 385.97,-436 636.97,-436 636.97,-472"/>
<text text-anchor="middle" x="511.47" y="-450.3" font-family="Arial" font-size="14.00" fill="#1a1919">1414 Guard, else TransferToInterpreter</text>
</g>
<!-- node1068&#45;&gt;node1414 -->
<g id="edge28" class="edge">
<title>node1068&#45;&gt;node1414</title>
<path fill="none" stroke="#3cb4a4" d="M464.96,-941.77C483.91,-926.94 511.47,-900.03 511.47,-869 511.47,-869 511.47,-869 511.47,-526 511.47,-511.65 511.47,-495.67 511.47,-482.51"/>
<polygon fill="#3cb4a4" stroke="#3cb4a4" points="514.97,-482.22 511.47,-472.22 507.97,-482.22 514.97,-482.22"/>
<text text-anchor="middle" x="515.47" y="-683.3" font-family="arial" font-size="14.00" fill="#3cb4a4">?</text>
</g>
<!-- node1123 -->
<g id="node8" class="node">
<title>node1123</title>
<polygon fill="#e98693" stroke="black" points="401.97,-705 312.97,-705 312.97,-669 401.97,-669 401.97,-705"/>
<text text-anchor="middle" x="357.47" y="-683.3" font-family="Arial" font-size="14.00" fill="#1a1919">1123 Merge</text>
</g>
<!-- node1123&#45;&gt;node1243 -->
<g id="edge13" class="edge">
<title>node1123&#45;&gt;node1243</title>
<path fill="none" stroke="#da2d4f" stroke-width="2" d="M357.47,-668.81C357.47,-660.79 357.47,-651.05 357.47,-642.07"/>
<polygon fill="#da2d4f" stroke="#da2d4f" stroke-width="2" points="360.97,-642.03 357.47,-632.03 353.97,-642.03 360.97,-642.03"/>
</g>
<!-- node1125&#45;&gt;node1123 -->
<g id="edge11" class="edge">
<title>node1125&#45;&gt;node1123</title>
<path fill="none" stroke="#da2d4f" stroke-width="2" d="M268.64,-795.93C279.88,-781.46 296.54,-760.21 311.47,-742 319.32,-732.42 328.1,-722.04 335.87,-712.96"/>
<polygon fill="#da2d4f" stroke="#da2d4f" stroke-width="2" points="338.53,-715.24 342.39,-705.37 333.22,-710.68 338.53,-715.24"/>
</g>
<!-- node1126 -->
<g id="node10" class="node">
<title>node1126</title>
<polygon fill="#e98693" stroke="black" points="394.47,-778 320.47,-778 320.47,-742 394.47,-742 394.47,-778"/>
<text text-anchor="middle" x="357.47" y="-756.3" font-family="Arial" font-size="14.00" fill="#1a1919">1126 End</text>
</g>
<!-- node1126&#45;&gt;node1123 -->
<g id="edge12" class="edge">
<title>node1126&#45;&gt;node1123</title>
<path fill="none" stroke="#da2d4f" stroke-width="2" d="M357.47,-741.81C357.47,-733.79 357.47,-724.05 357.47,-715.07"/>
<polygon fill="#da2d4f" stroke="#da2d4f" stroke-width="2" points="360.97,-715.03 357.47,-705.03 353.97,-715.03 360.97,-715.03"/>
</g>
<!-- node1245 -->
<g id="node12" class="node">
<title>node1245</title>
<polygon fill="#e98693" stroke="black" points="399.97,-545 314.97,-545 314.97,-509 399.97,-509 399.97,-545"/>
<text text-anchor="middle" x="357.47" y="-523.3" font-family="Arial" font-size="14.00" fill="#1a1919">1245 Begin</text>
</g>
<!-- node1243&#45;&gt;node1245 -->
<g id="edge15" class="edge">
<title>node1243&#45;&gt;node1245</title>
<path fill="none" stroke="#da2d4f" stroke-width="2" d="M357.47,-595.8C357.47,-584.16 357.47,-568.55 357.47,-555.24"/>
<polygon fill="#da2d4f" stroke="#da2d4f" stroke-width="2" points="360.97,-555.18 357.47,-545.18 353.97,-555.18 360.97,-555.18"/>
<text text-anchor="middle" x="361.97" y="-566.8" font-family="arial" font-size="14.00" fill="#da2d4f">T</text>
</g>
<!-- node1246 -->
<g id="node13" class="node">
<title>node1246</title>
<polygon fill="#e98693" stroke="black" points="624.97,-545 539.97,-545 539.97,-509 624.97,-509 624.97,-545"/>
<text text-anchor="middle" x="582.47" y="-523.3" font-family="Arial" font-size="14.00" fill="#1a1919">1246 Begin</text>
</g>
<!-- node1243&#45;&gt;node1246 -->
<g id="edge16" class="edge">
<title>node1243&#45;&gt;node1246</title>
<path fill="none" stroke="#da2d4f" stroke-width="2" d="M386.89,-601.89C423.17,-588.18 485.52,-564.62 530.07,-547.79"/>
<polygon fill="#da2d4f" stroke="#da2d4f" stroke-width="2" points="531.46,-551.01 539.57,-544.21 528.98,-544.47 531.46,-551.01"/>
<text text-anchor="middle" x="486.97" y="-566.8" font-family="arial" font-size="14.00" fill="#da2d4f">F</text>
</g>
<!-- node1374 -->
<g id="node15" class="node">
<title>node1374</title>
<polygon fill="#e98693" stroke="black" points="438.47,-418 364.47,-418 364.47,-382 438.47,-382 438.47,-418"/>
<text text-anchor="middle" x="401.47" y="-396.3" font-family="Arial" font-size="14.00" fill="#1a1919">1374 End</text>
</g>
<!-- node1245&#45;&gt;node1374 -->
<g id="edge17" class="edge">
<title>node1245&#45;&gt;node1374</title>
<path fill="none" stroke="#da2d4f" stroke-width="2" d="M359.31,-508.81C361.74,-490.24 367.01,-460.08 377.47,-436 378.86,-432.79 380.56,-429.58 382.41,-426.46"/>
<polygon fill="#da2d4f" stroke="#da2d4f" stroke-width="2" points="385.37,-428.33 387.87,-418.03 379.49,-424.52 385.37,-428.33"/>
</g>
<!-- node1246&#45;&gt;node1414 -->
<g id="edge18" class="edge">
<title>node1246&#45;&gt;node1414</title>
<path fill="none" stroke="#da2d4f" stroke-width="2" d="M565.28,-508.81C556.39,-499.92 545.38,-488.91 535.64,-479.17"/>
<polygon fill="#da2d4f" stroke="#da2d4f" stroke-width="2" points="538.05,-476.63 528.5,-472.03 533.1,-481.57 538.05,-476.63"/>
</g>
<!-- node1372 -->
<g id="node14" class="node">
<title>node1372</title>
<polygon fill="#e98693" stroke="black" points="479.97,-291 390.97,-291 390.97,-255 479.97,-255 479.97,-291"/>
<text text-anchor="middle" x="435.47" y="-269.3" font-family="Arial" font-size="14.00" fill="#1a1919">1372 Merge</text>
</g>
<!-- node1375 -->
<g id="node16" class="node">
<title>node1375</title>
<polygon fill="#f9f9f9" stroke="black" points="545.47,-210 487.47,-210 487.47,-174 545.47,-174 545.47,-210"/>
<text text-anchor="middle" x="516.47" y="-188.3" font-family="Arial" font-size="14.00" fill="#1a1919">1375 ϕ</text>
</g>
<!-- node1372&#45;&gt;node1375 -->
<g id="edge22" class="edge">
<title>node1372&#45;&gt;node1375</title>
<path fill="none" stroke="#343d46" stroke-dasharray="5,2" d="M460.45,-247.63C472.92,-235.48 487.69,-221.07 498.93,-210.11"/>
<polygon fill="#343d46" stroke="#343d46" points="457.76,-245.37 453.05,-254.86 462.65,-250.38 457.76,-245.37"/>
</g>
<!-- node1434 -->
<g id="node21" class="node">
<title>node1434</title>
<polygon fill="#f9f9f9" stroke="black" points="549.97,-123 384.97,-123 384.97,-87 549.97,-87 549.97,-123"/>
<text text-anchor="middle" x="467.47" y="-101.3" font-family="Arial" font-size="14.00" fill="#1a1919">1434 BoxNode$PureBox</text>
</g>
<!-- node1372&#45;&gt;node1434 -->
<g id="edge21" class="edge">
<title>node1372&#45;&gt;node1434</title>
<path fill="none" stroke="#da2d4f" stroke-width="2" d="M438.77,-254.86C444.33,-226.03 455.59,-167.62 462.23,-133.16"/>
<polygon fill="#da2d4f" stroke="#da2d4f" stroke-width="2" points="465.68,-133.78 464.14,-123.3 458.81,-132.45 465.68,-133.78"/>
</g>
<!-- node1374&#45;&gt;node1372 -->
<g id="edge19" class="edge">
<title>node1374&#45;&gt;node1372</title>
<path fill="none" stroke="#da2d4f" stroke-width="2" d="M406.13,-381.88C411.79,-361.05 421.43,-325.64 428.1,-301.09"/>
<polygon fill="#da2d4f" stroke="#da2d4f" stroke-width="2" points="431.51,-301.88 430.76,-291.31 424.76,-300.04 431.51,-301.88"/>
</g>
<!-- node1375&#45;&gt;node1434 -->
<g id="edge30" class="edge">
<title>node1375&#45;&gt;node1434</title>
<path fill="none" stroke="#3cb4a4" d="M506.55,-173.8C499.65,-161.82 490.31,-145.62 482.49,-132.06"/>
<polygon fill="#3cb4a4" stroke="#3cb4a4" points="485.4,-130.09 477.37,-123.18 479.33,-133.59 485.4,-130.09"/>
<text text-anchor="middle" x="529.97" y="-144.8" font-family="arial" font-size="14.00" fill="#3cb4a4">value [0 &#45; 1]</text>
</g>
<!-- node1376 -->
<g id="node17" class="node">
<title>node1376</title>
<polygon fill="#e98693" stroke="black" points="536.47,-364 462.47,-364 462.47,-328 536.47,-328 536.47,-364"/>
<text text-anchor="middle" x="499.47" y="-342.3" font-family="Arial" font-size="14.00" fill="#1a1919">1376 End</text>
</g>
<!-- node1376&#45;&gt;node1372 -->
<g id="edge20" class="edge">
<title>node1376&#45;&gt;node1372</title>
<path fill="none" stroke="#da2d4f" stroke-width="2" d="M483.98,-327.81C476.04,-319 466.23,-308.13 457.52,-298.46"/>
<polygon fill="#da2d4f" stroke="#da2d4f" stroke-width="2" points="460.12,-296.11 450.82,-291.03 454.92,-300.8 460.12,-296.11"/>
</g>
<!-- node1405 -->
<g id="node18" class="node">
<title>node1405</title>
<polygon fill="#e98693" stroke="black" points="512.97,-36 421.97,-36 421.97,0 512.97,0 512.97,-36"/>
<text text-anchor="middle" x="467.47" y="-14.3" font-family="Arial" font-size="14.00" fill="#1a1919">1405 Return</text>
</g>
<!-- node1411&#45;&gt;node1126 -->
<g id="edge27" class="edge">
<title>node1411&#45;&gt;node1126</title>
<path fill="none" stroke="#da2d4f" stroke-width="2" d="M357.47,-849.97C357.47,-833.38 357.47,-807.88 357.47,-788.43"/>
<polygon fill="#da2d4f" stroke="#da2d4f" stroke-width="2" points="360.97,-788.34 357.47,-778.34 353.97,-788.34 360.97,-788.34"/>
</g>
<!-- node1414&#45;&gt;node1376 -->
<g id="edge29" class="edge">
<title>node1414&#45;&gt;node1376</title>
<path fill="none" stroke="#da2d4f" stroke-width="2" d="M509.54,-435.97C507.66,-419.38 504.78,-393.88 502.58,-374.43"/>
<polygon fill="#da2d4f" stroke="#da2d4f" stroke-width="2" points="506.04,-373.88 501.43,-364.34 499.08,-374.67 506.04,-373.88"/>
</g>
<!-- node1434&#45;&gt;node1405 -->
<g id="edge25" class="edge">
<title>node1434&#45;&gt;node1405</title>
<path fill="none" stroke="#3cb4a4" d="M453.37,-86.84C449.75,-81.46 446.35,-75.27 444.47,-69 442.06,-60.93 444.03,-52.49 447.66,-44.89"/>
<polygon fill="#3cb4a4" stroke="#3cb4a4" points="450.76,-46.53 452.72,-36.12 444.69,-43.03 450.76,-46.53"/>
<text text-anchor="middle" x="461.47" y="-57.8" font-family="arial" font-size="14.00" fill="#3cb4a4">result</text>
</g>
<!-- node1434&#45;&gt;node1405 -->
<g id="edge31" class="edge">
<title>node1434&#45;&gt;node1405</title>
<path fill="none" stroke="#da2d4f" stroke-width="2" d="M474.02,-86.8C475.84,-81.21 477.56,-74.92 478.47,-69 479.64,-61.39 478.76,-53.2 477.08,-45.71"/>
<polygon fill="#da2d4f" stroke="#da2d4f" stroke-width="2" points="480.44,-44.74 474.41,-36.02 473.69,-46.59 480.44,-44.74"/>
</g>
<!-- node1435&#45;&gt;node912 -->
<g id="edge35" class="edge">
<title>node1435&#45;&gt;node912</title>
<path fill="none" stroke="#da2d4f" stroke-width="2" d="M256.44,-1278.86C265.94,-1267.99 278.37,-1253.75 288.92,-1241.67"/>
<polygon fill="#da2d4f" stroke="#da2d4f" stroke-width="2" points="291.59,-1243.94 295.53,-1234.11 286.31,-1239.34 291.59,-1243.94"/>
</g>
<!-- inline691x977 -->
<g id="node23" class="node">
<title>inline691x977</title>
<ellipse fill="#d7ede7" stroke="black" cx="71.47" cy="-1216" rx="71.44" ry="18"/>
<text text-anchor="middle" x="71.47" y="-1214.1" font-family="Arial" font-size="8.00" fill="#1a1919">691 C(RubyClass@48589dcb)</text>
</g>
<!-- inline691x977&#45;&gt;node977 -->
<g id="edge6" class="edge">
<title>inline691x977&#45;&gt;node977</title>
<path fill="none" stroke="#3cb4a4" d="M95.17,-1199.01C119.98,-1182.28 158.32,-1156.41 180.34,-1141.55"/>
<text text-anchor="middle" x="144.47" y="-1170.6" font-family="arial" font-size="8.00" fill="#3cb4a4">y</text>
</g>
<!-- inline789x1068 -->
<g id="node24" class="node">
<title>inline789x1068</title>
<ellipse fill="#d7ede7" stroke="black" cx="447.47" cy="-1042" rx="72.08" ry="18"/>
<text text-anchor="middle" x="447.47" y="-1040.1" font-family="Arial" font-size="8.00" fill="#1a1919">789 C(RubyClass@2379b6d0)</text>
</g>
<!-- inline789x1068&#45;&gt;node1068 -->
<g id="edge10" class="edge">
<title>inline789x1068&#45;&gt;node1068</title>
<path fill="none" stroke="#3cb4a4" d="M447.47,-1023.8C447.47,-1009.05 447.47,-987.92 447.47,-973.18"/>
<text text-anchor="middle" x="449.47" y="-996.6" font-family="arial" font-size="8.00" fill="#3cb4a4">y</text>
</g>
<!-- inline5x1375 -->
<g id="node25" class="node">
<title>inline5x1375</title>
<ellipse fill="#d7ede7" stroke="black" cx="525.47" cy="-273" rx="27" ry="18"/>
<text text-anchor="middle" x="525.47" y="-271.1" font-family="Arial" font-size="8.00" fill="#1a1919">5 C(0)</text>
</g>
<!-- inline5x1375&#45;&gt;node1375 -->
<g id="edge23" class="edge">
<title>inline5x1375&#45;&gt;node1375</title>
<path fill="none" stroke="#3cb4a4" d="M523.52,-254.86C522.01,-241.61 519.93,-223.35 518.42,-210.11"/>
<text text-anchor="middle" x="538.97" y="-230.6" font-family="arial" font-size="8.00" fill="#3cb4a4">from 1374</text>
</g>
<!-- inline23x1375 -->
<g id="node26" class="node">
<title>inline23x1375</title>
<ellipse fill="#d7ede7" stroke="black" cx="597.47" cy="-273" rx="27" ry="18"/>
<text text-anchor="middle" x="597.47" y="-271.1" font-family="Arial" font-size="8.00" fill="#1a1919">23 C(1)</text>
</g>
<!-- inline23x1375&#45;&gt;node1375 -->
<g id="edge24" class="edge">
<title>inline23x1375&#45;&gt;node1375</title>
<path fill="none" stroke="#3cb4a4" d="M586.25,-256.62C579.51,-247.82 570.51,-236.82 561.47,-228 555.09,-221.78 547.64,-215.61 540.65,-210.22"/>
<text text-anchor="middle" x="587.97" y="-230.6" font-family="arial" font-size="8.00" fill="#3cb4a4">from 1376</text>
</g>
<!-- inline161x912 -->
<g id="node27" class="node">
<title>inline161x912</title>
<ellipse fill="#d7ede7" stroke="black" cx="343.47" cy="-1297" rx="27.46" ry="18"/>
<text text-anchor="middle" x="343.47" y="-1295.1" font-family="Arial" font-size="8.00" fill="#1a1919">161 T(7)</text>
</g>
<!-- inline161x912&#45;&gt;node912 -->
<g id="edge32" class="edge">
<title>inline161x912&#45;&gt;node912</title>
<path fill="none" stroke="#3cb4a4" d="M336.47,-1279.25C330.91,-1265.93 323.16,-1247.38 317.57,-1234"/>
<text text-anchor="middle" x="338.47" y="-1254.6" font-family="arial" font-size="8.00" fill="#3cb4a4">object</text>
</g>
<!-- inline2x1435 -->
<g id="node28" class="node">
<title>inline2x1435</title>
<ellipse fill="#d7ede7" stroke="black" cx="278.47" cy="-1378" rx="27" ry="18"/>
<text text-anchor="middle" x="278.47" y="-1376.1" font-family="Arial" font-size="8.00" fill="#1a1919">2 P(1)</text>
</g>
<!-- inline2x1435&#45;&gt;node1435 -->
<g id="edge33" class="edge">
<title>inline2x1435&#45;&gt;node1435</title>
<path fill="none" stroke="#3cb4a4" d="M270.8,-1360.63C264.58,-1347.34 255.83,-1328.67 249.51,-1315.17"/>
<text text-anchor="middle" x="269.97" y="-1335.6" font-family="arial" font-size="8.00" fill="#3cb4a4">array</text>
</g>
</g>
</svg>
