<?xml version="1.0" encoding="UTF-8" standalone="no"?>
<!DOCTYPE svg PUBLIC "-//W3C//DTD SVG 1.1//EN"
 "http://www.w3.org/Graphics/SVG/1.1/DTD/svg11.dtd">
<!-- Generated by graphviz version 2.44.1 (20200629.0846)
 -->
<!-- Title: G Pages: 1 -->
<svg width="574pt" height="1310pt"
 viewBox="0.00 0.00 573.58 1310.00" xmlns="http://www.w3.org/2000/svg" xmlns:xlink="http://www.w3.org/1999/xlink">
<g id="graph0" class="graph" transform="scale(1 1) rotate(0) translate(4 1306)">
<title>G</title>
<!-- node0 -->
<g id="node1" class="node">
<title>node0</title>
<polygon fill="#e98693" stroke="black" points="235,-1302 179,-1302 179,-1266 235,-1266 235,-1302"/>
<text text-anchor="middle" x="207" y="-1280.3" font-family="Arial" font-size="14.00" fill="#1a1919">0 Start</text>
</g>
<!-- node2544 -->
<g id="node24" class="node">
<title>node2544</title>
<polygon fill="#da2d4f" stroke="black" points="299.5,-1221 186.5,-1221 186.5,-1185 299.5,-1185 299.5,-1221"/>
<text text-anchor="middle" x="243" y="-1199.3" font-family="Arial" font-size="14.00" fill="#ffffff">2544 Load T(...)</text>
</g>
<!-- node0&#45;&gt;node2544 -->
<g id="edge41" class="edge">
<title>node0&#45;&gt;node2544</title>
<path fill="none" stroke="#da2d4f" stroke-width="2" d="M214.81,-1265.86C219.53,-1255.51 225.64,-1242.1 230.96,-1230.41"/>
<polygon fill="#da2d4f" stroke="#da2d4f" stroke-width="2" points="234.24,-1231.66 235.2,-1221.11 227.87,-1228.76 234.24,-1231.66"/>
</g>
<!-- node583 -->
<g id="node2" class="node">
<title>node583</title>
<polygon fill="#f9f9f9" stroke="black" points="353,-1140 271,-1140 271,-1104 353,-1104 353,-1140"/>
<text text-anchor="middle" x="312" y="-1118.3" font-family="Arial" font-size="14.00" fill="#1a1919">583 Unbox</text>
</g>
<!-- node738 -->
<g id="node3" class="node">
<title>node738</title>
<polygon fill="#f9f9f9" stroke="black" points="162,-1053 80,-1053 80,-1017 162,-1017 162,-1053"/>
<text text-anchor="middle" x="121" y="-1031.3" font-family="Arial" font-size="14.00" fill="#1a1919">738 Unbox</text>
</g>
<!-- node583&#45;&gt;node738 -->
<g id="edge1" class="edge">
<title>node583&#45;&gt;node738</title>
<path fill="none" stroke="#da2d4f" stroke-width="2" d="M273.35,-1103.8C243.09,-1090.33 200.86,-1071.54 168.53,-1057.15"/>
<polygon fill="#da2d4f" stroke="#da2d4f" stroke-width="2" points="169.83,-1053.9 159.27,-1053.03 166.98,-1060.29 169.83,-1053.9"/>
</g>
<!-- node1462 -->
<g id="node6" class="node">
<title>node1462</title>
<polygon fill="#3cb4a4" stroke="black" points="504,-1053 442.33,-1035 504,-1017 565.67,-1035 504,-1053"/>
<text text-anchor="middle" x="504" y="-1031.3" font-family="Arial" font-size="14.00" fill="#1a1919">1462 ==</text>
</g>
<!-- node583&#45;&gt;node1462 -->
<g id="edge5" class="edge">
<title>node583&#45;&gt;node1462</title>
<path fill="none" stroke="#3cb4a4" d="M323.73,-1103.7C332.05,-1092.73 344.17,-1079.13 358,-1071 366.86,-1065.79 420.25,-1053.71 459.92,-1045.21"/>
<polygon fill="#3cb4a4" stroke="#3cb4a4" points="460.88,-1048.58 469.93,-1043.07 459.42,-1041.73 460.88,-1048.58"/>
<text text-anchor="middle" x="361.5" y="-1074.8" font-family="arial" font-size="14.00" fill="#3cb4a4">x</text>
</g>
<!-- node1893 -->
<g id="node11" class="node">
<title>node1893</title>
<polygon fill="#3cb4a4" stroke="black" points="344,-1053 282.33,-1035 344,-1017 405.67,-1035 344,-1053"/>
<text text-anchor="middle" x="344" y="-1031.3" font-family="Arial" font-size="14.00" fill="#1a1919">1893 ==</text>
</g>
<!-- node583&#45;&gt;node1893 -->
<g id="edge14" class="edge">
<title>node583&#45;&gt;node1893</title>
<path fill="none" stroke="#3cb4a4" d="M315.95,-1103.59C318.39,-1093.85 321.85,-1081.57 326,-1071 327.47,-1067.24 329.23,-1063.36 331.05,-1059.6"/>
<polygon fill="#3cb4a4" stroke="#3cb4a4" points="334.17,-1061.18 335.61,-1050.68 327.94,-1057.99 334.17,-1061.18"/>
<text text-anchor="middle" x="329.5" y="-1074.8" font-family="arial" font-size="14.00" fill="#3cb4a4">x</text>
</g>
<!-- node892 -->
<g id="node4" class="node">
<title>node892</title>
<polygon fill="#f9f9f9" stroke="black" points="278,-972 196,-972 196,-936 278,-936 278,-972"/>
<text text-anchor="middle" x="237" y="-950.3" font-family="Arial" font-size="14.00" fill="#1a1919">892 Unbox</text>
</g>
<!-- node738&#45;&gt;node892 -->
<g id="edge2" class="edge">
<title>node738&#45;&gt;node892</title>
<path fill="none" stroke="#da2d4f" stroke-width="2" d="M146.17,-1016.86C162.89,-1005.47 185.04,-990.39 203.28,-977.96"/>
<polygon fill="#da2d4f" stroke="#da2d4f" stroke-width="2" points="205.58,-980.63 211.88,-972.11 201.64,-974.84 205.58,-980.63"/>
</g>
<!-- node1601 -->
<g id="node10" class="node">
<title>node1601</title>
<ellipse fill="black" stroke="black" cx="258" cy="-411" rx="18" ry="18"/>
</g>
<!-- node738&#45;&gt;node1601 -->
<g id="edge12" class="edge">
<title>node738&#45;&gt;node1601</title>
<path fill="none" stroke="#3cb4a4" d="M109.98,-1016.87C101.07,-1001.36 90,-977.54 90,-955 90,-955 90,-955 90,-605 90,-581.92 86.64,-570.2 104,-555 146.89,-517.44 189.27,-575.84 231,-537 257.66,-512.19 261.24,-467.85 260.37,-439.2"/>
<polygon fill="#3cb4a4" stroke="#3cb4a4" points="263.86,-438.87 259.86,-429.05 256.87,-439.22 263.86,-438.87"/>
<text text-anchor="middle" x="106.5" y="-732.8" font-family="arial" font-size="14.00" fill="#3cb4a4">value</text>
</g>
<!-- node2538 -->
<g id="node22" class="node">
<title>node2538</title>
<polygon fill="#f9f9f9" stroke="black" points="194,-210 136,-210 136,-174 194,-174 194,-210"/>
<text text-anchor="middle" x="165" y="-188.3" font-family="Arial" font-size="14.00" fill="#1a1919">2538 ϕ</text>
</g>
<!-- node738&#45;&gt;node2538 -->
<g id="edge31" class="edge">
<title>node738&#45;&gt;node2538</title>
<path fill="none" stroke="#3cb4a4" d="M79.7,-1025.07C44.64,-1014.78 0,-994.01 0,-955 0,-955 0,-955 0,-264 0,-209.52 76.83,-196.33 125.63,-193.45"/>
<polygon fill="#3cb4a4" stroke="#3cb4a4" points="126.06,-196.93 135.88,-192.97 125.73,-189.94 126.06,-196.93"/>
<text text-anchor="middle" x="31" y="-602.3" font-family="arial" font-size="14.00" fill="#3cb4a4">from 2400</text>
</g>
<!-- node1046 -->
<g id="node5" class="node">
<title>node1046</title>
<polygon fill="#f9f9f9" stroke="black" points="281.5,-885 192.5,-885 192.5,-849 281.5,-849 281.5,-885"/>
<text text-anchor="middle" x="237" y="-863.3" font-family="Arial" font-size="14.00" fill="#1a1919">1046 Unbox</text>
</g>
<!-- node892&#45;&gt;node1046 -->
<g id="edge3" class="edge">
<title>node892&#45;&gt;node1046</title>
<path fill="none" stroke="#da2d4f" stroke-width="2" d="M237,-935.8C237,-924.16 237,-908.55 237,-895.24"/>
<polygon fill="#da2d4f" stroke="#da2d4f" stroke-width="2" points="240.5,-895.18 237,-885.18 233.5,-895.18 240.5,-895.18"/>
</g>
<!-- node2032 -->
<g id="node15" class="node">
<title>node2032</title>
<ellipse fill="black" stroke="black" cx="310" cy="-606" rx="18" ry="18"/>
</g>
<!-- node892&#45;&gt;node2032 -->
<g id="edge21" class="edge">
<title>node892&#45;&gt;node2032</title>
<path fill="none" stroke="#3cb4a4" d="M264.09,-935.98C305.8,-908.8 381,-855.49 381,-824.5 381,-824.5 381,-824.5 381,-692 381,-661.72 354.13,-636.52 333.44,-621.62"/>
<polygon fill="#3cb4a4" stroke="#3cb4a4" points="335.29,-618.64 325.06,-615.88 331.33,-624.41 335.29,-618.64"/>
<text text-anchor="middle" x="397.5" y="-776.3" font-family="arial" font-size="14.00" fill="#3cb4a4">value</text>
</g>
<!-- node892&#45;&gt;node2538 -->
<g id="edge32" class="edge">
<title>node892&#45;&gt;node2538</title>
<path fill="none" stroke="#3cb4a4" d="M219.41,-935.88C207.26,-923.03 191.77,-904.36 183,-885 105.31,-713.38 119,-654.38 119,-466 119,-466 119,-466 119,-264 119,-246.77 128.66,-230.42 139.12,-217.77"/>
<polygon fill="#3cb4a4" stroke="#3cb4a4" points="141.99,-219.81 146.02,-210.01 136.76,-215.16 141.99,-219.81"/>
<text text-anchor="middle" x="150" y="-558.8" font-family="arial" font-size="14.00" fill="#3cb4a4">from 2402</text>
</g>
<!-- node1936 -->
<g id="node12" class="node">
<title>node1936</title>
<polygon fill="#e98693" stroke="black" points="342,-798 284,-798 284,-762 342,-762 342,-798"/>
<text text-anchor="middle" x="313" y="-776.3" font-family="Arial" font-size="14.00" fill="#1a1919">1936 If</text>
</g>
<!-- node1046&#45;&gt;node1936 -->
<g id="edge4" class="edge">
<title>node1046&#45;&gt;node1936</title>
<path fill="none" stroke="#da2d4f" stroke-width="2" d="M252.38,-848.8C263.4,-836.47 278.42,-819.68 290.75,-805.89"/>
<polygon fill="#da2d4f" stroke="#da2d4f" stroke-width="2" points="293.59,-807.96 297.64,-798.18 288.37,-803.3 293.59,-807.96"/>
</g>
<!-- node2258 -->
<g id="node16" class="node">
<title>node2258</title>
<ellipse fill="black" stroke="black" cx="435" cy="-411" rx="18" ry="18"/>
</g>
<!-- node1046&#45;&gt;node2258 -->
<g id="edge23" class="edge">
<title>node1046&#45;&gt;node2258</title>
<path fill="none" stroke="#3cb4a4" d="M238.09,-848.74C240.42,-815.08 246.68,-738.4 259,-675 266.65,-635.63 256.05,-617.7 283,-588 325.54,-541.12 376.3,-586.32 416,-537 438.24,-509.38 439.97,-466.84 438.23,-439.21"/>
<polygon fill="#3cb4a4" stroke="#3cb4a4" points="441.7,-438.74 437.39,-429.06 434.73,-439.32 441.7,-438.74"/>
<text text-anchor="middle" x="278.5" y="-645.8" font-family="arial" font-size="14.00" fill="#3cb4a4">value</text>
</g>
<!-- node1046&#45;&gt;node2538 -->
<g id="edge33" class="edge">
<title>node1046&#45;&gt;node2538</title>
<path fill="none" stroke="#3cb4a4" d="M224.47,-848.72C213.74,-832.18 200,-806.11 200,-781 200,-781 200,-781 200,-605 200,-541.29 165,-529.71 165,-466 165,-466 165,-466 165,-264 165,-249.65 165,-233.67 165,-220.51"/>
<polygon fill="#3cb4a4" stroke="#3cb4a4" points="168.5,-220.22 165,-210.22 161.5,-220.22 168.5,-220.22"/>
<text text-anchor="middle" x="214" y="-515.3" font-family="arial" font-size="14.00" fill="#3cb4a4">from 2515</text>
</g>
<!-- node1505 -->
<g id="node7" class="node">
<title>node1505</title>
<polygon fill="#e98693" stroke="black" points="500,-624 442,-624 442,-588 500,-588 500,-624"/>
<text text-anchor="middle" x="471" y="-602.3" font-family="Arial" font-size="14.00" fill="#1a1919">1505 If</text>
</g>
<!-- node1462&#45;&gt;node1505 -->
<g id="edge7" class="edge">
<title>node1462&#45;&gt;node1505</title>
<path fill="none" stroke="#3cb4a4" d="M510.01,-1018.53C515.58,-1002.79 523,-977.57 523,-955 523,-955 523,-955 523,-692 523,-669.31 509.35,-647.56 496.04,-631.75"/>
<polygon fill="#3cb4a4" stroke="#3cb4a4" points="498.45,-629.18 489.19,-624.04 493.22,-633.84 498.45,-629.18"/>
<text text-anchor="middle" x="527" y="-819.8" font-family="arial" font-size="14.00" fill="#3cb4a4">?</text>
</g>
<!-- node1508 -->
<g id="node9" class="node">
<title>node1508</title>
<polygon fill="#e98693" stroke="black" points="406.5,-537 321.5,-537 321.5,-501 406.5,-501 406.5,-537"/>
<text text-anchor="middle" x="364" y="-515.3" font-family="Arial" font-size="14.00" fill="#1a1919">1508 Begin</text>
</g>
<!-- node1505&#45;&gt;node1508 -->
<g id="edge8" class="edge">
<title>node1505&#45;&gt;node1508</title>
<path fill="none" stroke="#da2d4f" stroke-width="2" d="M449.35,-587.8C433.39,-575.13 411.5,-557.73 393.88,-543.74"/>
<polygon fill="#da2d4f" stroke="#da2d4f" stroke-width="2" points="395.63,-540.66 385.62,-537.18 391.27,-546.14 395.63,-540.66"/>
<text text-anchor="middle" x="427.5" y="-558.8" font-family="arial" font-size="14.00" fill="#da2d4f">T</text>
</g>
<!-- node1938 -->
<g id="node13" class="node">
<title>node1938</title>
<polygon fill="#e98693" stroke="black" points="548.5,-537 463.5,-537 463.5,-501 548.5,-501 548.5,-537"/>
<text text-anchor="middle" x="506" y="-515.3" font-family="Arial" font-size="14.00" fill="#1a1919">1938 Begin</text>
</g>
<!-- node1505&#45;&gt;node1938 -->
<g id="edge9" class="edge">
<title>node1505&#45;&gt;node1938</title>
<path fill="none" stroke="#da2d4f" stroke-width="2" d="M478.08,-587.8C482.97,-575.93 489.56,-559.93 495.11,-546.45"/>
<polygon fill="#da2d4f" stroke="#da2d4f" stroke-width="2" points="498.36,-547.75 498.93,-537.18 491.88,-545.09 498.36,-547.75"/>
<text text-anchor="middle" x="494.5" y="-558.8" font-family="arial" font-size="14.00" fill="#da2d4f">F</text>
</g>
<!-- node1507 -->
<g id="node8" class="node">
<title>node1507</title>
<polygon fill="#e98693" stroke="black" points="494.5,-711 409.5,-711 409.5,-675 494.5,-675 494.5,-711"/>
<text text-anchor="middle" x="452" y="-689.3" font-family="Arial" font-size="14.00" fill="#1a1919">1507 Begin</text>
</g>
<!-- node1507&#45;&gt;node1505 -->
<g id="edge10" class="edge">
<title>node1507&#45;&gt;node1505</title>
<path fill="none" stroke="#da2d4f" stroke-width="2" d="M455.84,-674.8C458.45,-663.16 461.94,-647.55 464.91,-634.24"/>
<polygon fill="#da2d4f" stroke="#da2d4f" stroke-width="2" points="468.39,-634.7 467.16,-624.18 461.56,-633.17 468.39,-634.7"/>
</g>
<!-- node1508&#45;&gt;node1601 -->
<g id="edge11" class="edge">
<title>node1508&#45;&gt;node1601</title>
<path fill="none" stroke="#da2d4f" stroke-width="2" d="M321.16,-501.99C311.43,-496.96 301.71,-490.66 294,-483 281.42,-470.49 272.4,-452.67 266.54,-438.02"/>
<polygon fill="#da2d4f" stroke="#da2d4f" stroke-width="2" points="269.76,-436.62 262.98,-428.48 263.2,-439.07 269.76,-436.62"/>
</g>
<!-- node2400 -->
<g id="node18" class="node">
<title>node2400</title>
<polygon fill="#e98693" stroke="black" points="295,-356 221,-356 221,-320 295,-320 295,-356"/>
<text text-anchor="middle" x="258" y="-334.3" font-family="Arial" font-size="14.00" fill="#1a1919">2400 End</text>
</g>
<!-- node1601&#45;&gt;node2400 -->
<g id="edge13" class="edge">
<title>node1601&#45;&gt;node2400</title>
<path fill="none" stroke="#da2d4f" stroke-width="2" d="M258,-392.81C258,-384.79 258,-375.05 258,-366.07"/>
<polygon fill="#da2d4f" stroke="#da2d4f" stroke-width="2" points="261.5,-366.03 258,-356.03 254.5,-366.03 261.5,-366.03"/>
</g>
<!-- node1893&#45;&gt;node1936 -->
<g id="edge16" class="edge">
<title>node1893&#45;&gt;node1936</title>
<path fill="none" stroke="#3cb4a4" d="M341.97,-1017.4C336.74,-974.72 322.78,-860.83 316.34,-808.27"/>
<polygon fill="#3cb4a4" stroke="#3cb4a4" points="319.81,-807.83 315.12,-798.33 312.87,-808.68 319.81,-807.83"/>
<text text-anchor="middle" x="333" y="-906.8" font-family="arial" font-size="14.00" fill="#3cb4a4">?</text>
</g>
<!-- node1936&#45;&gt;node1507 -->
<g id="edge18" class="edge">
<title>node1936&#45;&gt;node1507</title>
<path fill="none" stroke="#da2d4f" stroke-width="2" d="M341.13,-761.8C362.51,-748.72 392.11,-730.62 415.35,-716.41"/>
<polygon fill="#da2d4f" stroke="#da2d4f" stroke-width="2" points="417.21,-719.38 423.91,-711.18 413.56,-713.41 417.21,-719.38"/>
<text text-anchor="middle" x="394.5" y="-732.8" font-family="arial" font-size="14.00" fill="#da2d4f">F</text>
</g>
<!-- node1939 -->
<g id="node14" class="node">
<title>node1939</title>
<polygon fill="#e98693" stroke="black" points="352.5,-711 267.5,-711 267.5,-675 352.5,-675 352.5,-711"/>
<text text-anchor="middle" x="310" y="-689.3" font-family="Arial" font-size="14.00" fill="#1a1919">1939 Begin</text>
</g>
<!-- node1936&#45;&gt;node1939 -->
<g id="edge17" class="edge">
<title>node1936&#45;&gt;node1939</title>
<path fill="none" stroke="#da2d4f" stroke-width="2" d="M312.39,-761.8C311.98,-750.16 311.43,-734.55 310.96,-721.24"/>
<polygon fill="#da2d4f" stroke="#da2d4f" stroke-width="2" points="314.46,-721.05 310.61,-711.18 307.46,-721.29 314.46,-721.05"/>
<text text-anchor="middle" x="315.5" y="-732.8" font-family="arial" font-size="14.00" fill="#da2d4f">T</text>
</g>
<!-- node1938&#45;&gt;node2258 -->
<g id="edge19" class="edge">
<title>node1938&#45;&gt;node2258</title>
<path fill="none" stroke="#da2d4f" stroke-width="2" d="M494.59,-500.97C482.56,-483 463.53,-454.6 450.22,-434.73"/>
<polygon fill="#da2d4f" stroke="#da2d4f" stroke-width="2" points="453.03,-432.63 444.56,-426.27 447.22,-436.53 453.03,-432.63"/>
</g>
<!-- node1939&#45;&gt;node2032 -->
<g id="edge20" class="edge">
<title>node1939&#45;&gt;node2032</title>
<path fill="none" stroke="#da2d4f" stroke-width="2" d="M310,-674.8C310,-663.16 310,-647.55 310,-634.24"/>
<polygon fill="#da2d4f" stroke="#da2d4f" stroke-width="2" points="313.5,-634.18 310,-624.18 306.5,-634.18 313.5,-634.18"/>
</g>
<!-- node2402 -->
<g id="node19" class="node">
<title>node2402</title>
<polygon fill="#e98693" stroke="black" points="369,-483 295,-483 295,-447 369,-447 369,-483"/>
<text text-anchor="middle" x="332" y="-461.3" font-family="Arial" font-size="14.00" fill="#1a1919">2402 End</text>
</g>
<!-- node2032&#45;&gt;node2402 -->
<g id="edge22" class="edge">
<title>node2032&#45;&gt;node2402</title>
<path fill="none" stroke="#da2d4f" stroke-width="2" d="M308.12,-588.08C306.33,-567.21 304.97,-530.83 313,-501 313.8,-498.02 314.9,-495.03 316.17,-492.1"/>
<polygon fill="#da2d4f" stroke="#da2d4f" stroke-width="2" points="319.31,-493.64 320.63,-483.13 313.04,-490.52 319.31,-493.64"/>
</g>
<!-- node2515 -->
<g id="node21" class="node">
<title>node2515</title>
<polygon fill="#e98693" stroke="black" points="450,-356 376,-356 376,-320 450,-320 450,-356"/>
<text text-anchor="middle" x="413" y="-334.3" font-family="Arial" font-size="14.00" fill="#1a1919">2515 End</text>
</g>
<!-- node2258&#45;&gt;node2515 -->
<g id="edge24" class="edge">
<title>node2258&#45;&gt;node2515</title>
<path fill="none" stroke="#da2d4f" stroke-width="2" d="M429.9,-393.53C427.36,-385.35 424.23,-375.25 421.36,-365.98"/>
<polygon fill="#da2d4f" stroke="#da2d4f" stroke-width="2" points="424.68,-364.88 418.38,-356.37 418,-366.96 424.68,-364.88"/>
</g>
<!-- node2398 -->
<g id="node17" class="node">
<title>node2398</title>
<polygon fill="#e98693" stroke="black" points="302.5,-283 213.5,-283 213.5,-247 302.5,-247 302.5,-283"/>
<text text-anchor="middle" x="258" y="-261.3" font-family="Arial" font-size="14.00" fill="#1a1919">2398 Merge</text>
</g>
<!-- node2398&#45;&gt;node2538 -->
<g id="edge30" class="edge">
<title>node2398&#45;&gt;node2538</title>
<path fill="none" stroke="#343d46" stroke-dasharray="5,2" d="M227.23,-240.51C214.19,-230.55 199.27,-219.16 187.31,-210.03"/>
<polygon fill="#343d46" stroke="#343d46" points="225.41,-243.53 235.49,-246.81 229.66,-237.96 225.41,-243.53"/>
</g>
<!-- node2543 -->
<g id="node23" class="node">
<title>node2543</title>
<polygon fill="#f9f9f9" stroke="black" points="313.5,-123 118.5,-123 118.5,-87 313.5,-87 313.5,-123"/>
<text text-anchor="middle" x="216" y="-101.3" font-family="Arial" font-size="14.00" fill="#1a1919">2543 BoxNode$AllocatingBox</text>
</g>
<!-- node2398&#45;&gt;node2543 -->
<g id="edge28" class="edge">
<title>node2398&#45;&gt;node2543</title>
<path fill="none" stroke="#da2d4f" stroke-width="2" d="M254.94,-246.66C250.5,-222.64 241.54,-178.01 230,-141 229.14,-138.25 228.16,-135.4 227.13,-132.59"/>
<polygon fill="#da2d4f" stroke="#da2d4f" stroke-width="2" points="230.4,-131.32 223.52,-123.25 223.87,-133.84 230.4,-131.32"/>
</g>
<!-- node2400&#45;&gt;node2398 -->
<g id="edge25" class="edge">
<title>node2400&#45;&gt;node2398</title>
<path fill="none" stroke="#da2d4f" stroke-width="2" d="M258,-319.81C258,-311.79 258,-302.05 258,-293.07"/>
<polygon fill="#da2d4f" stroke="#da2d4f" stroke-width="2" points="261.5,-293.03 258,-283.03 254.5,-293.03 261.5,-293.03"/>
</g>
<!-- node2402&#45;&gt;node2398 -->
<g id="edge26" class="edge">
<title>node2402&#45;&gt;node2398</title>
<path fill="none" stroke="#da2d4f" stroke-width="2" d="M331.45,-446.71C329.96,-418.75 324.44,-362.45 304,-320 298.93,-309.47 291.29,-299.32 283.69,-290.72"/>
<polygon fill="#da2d4f" stroke="#da2d4f" stroke-width="2" points="286.16,-288.24 276.79,-283.29 281.03,-293 286.16,-288.24"/>
</g>
<!-- node2487 -->
<g id="node20" class="node">
<title>node2487</title>
<polygon fill="#e98693" stroke="black" points="261.5,-36 170.5,-36 170.5,0 261.5,0 261.5,-36"/>
<text text-anchor="middle" x="216" y="-14.3" font-family="Arial" font-size="14.00" fill="#1a1919">2487 Return</text>
</g>
<!-- node2515&#45;&gt;node2398 -->
<g id="edge27" class="edge">
<title>node2515&#45;&gt;node2398</title>
<path fill="none" stroke="#da2d4f" stroke-width="2" d="M381.22,-319.94C369.34,-313.75 355.65,-306.85 343,-301 332.69,-296.24 321.55,-291.42 310.83,-286.94"/>
<polygon fill="#da2d4f" stroke="#da2d4f" stroke-width="2" points="312.13,-283.69 301.55,-283.11 309.45,-290.16 312.13,-283.69"/>
</g>
<!-- node2538&#45;&gt;node2543 -->
<g id="edge34" class="edge">
<title>node2538&#45;&gt;node2543</title>
<path fill="none" stroke="#3cb4a4" d="M175.32,-173.8C182.51,-161.82 192.23,-145.62 200.37,-132.06"/>
<polygon fill="#3cb4a4" stroke="#3cb4a4" points="203.55,-133.55 205.69,-123.18 197.55,-129.95 203.55,-133.55"/>
<text text-anchor="middle" x="210.5" y="-144.8" font-family="arial" font-size="14.00" fill="#3cb4a4">value</text>
</g>
<!-- node2543&#45;&gt;node2487 -->
<g id="edge29" class="edge">
<title>node2543&#45;&gt;node2487</title>
<path fill="none" stroke="#3cb4a4" d="M201.9,-86.84C198.28,-81.46 194.88,-75.27 193,-69 190.59,-60.93 192.56,-52.49 196.19,-44.89"/>
<polygon fill="#3cb4a4" stroke="#3cb4a4" points="199.29,-46.53 201.25,-36.12 193.22,-43.03 199.29,-46.53"/>
<text text-anchor="middle" x="210" y="-57.8" font-family="arial" font-size="14.00" fill="#3cb4a4">result</text>
</g>
<!-- node2543&#45;&gt;node2487 -->
<g id="edge35" class="edge">
<title>node2543&#45;&gt;node2487</title>
<path fill="none" stroke="#da2d4f" stroke-width="2" d="M222.94,-86.98C226.06,-77.35 228.7,-65.07 227,-54 226.59,-51.32 226.01,-48.56 225.33,-45.83"/>
<polygon fill="#da2d4f" stroke="#da2d4f" stroke-width="2" points="228.69,-44.83 222.55,-36.2 221.96,-46.78 228.69,-44.83"/>
</g>
<!-- node2544&#45;&gt;node583 -->
<g id="edge42" class="edge">
<title>node2544&#45;&gt;node583</title>
<path fill="none" stroke="#da2d4f" stroke-width="2" d="M257.97,-1184.86C267.47,-1173.99 279.9,-1159.75 290.45,-1147.67"/>
<polygon fill="#da2d4f" stroke="#da2d4f" stroke-width="2" points="293.12,-1149.94 297.06,-1140.11 287.84,-1145.34 293.12,-1149.94"/>
</g>
<!-- inline5x1462 -->
<g id="node25" class="node">
<title>inline5x1462</title>
<ellipse fill="#d7ede7" stroke="black" cx="504" cy="-1122" rx="27" ry="18"/>
<text text-anchor="middle" x="504" y="-1120.1" font-family="Arial" font-size="8.00" fill="#1a1919">5 C(0)</text>
</g>
<!-- inline5x1462&#45;&gt;node1462 -->
<g id="edge6" class="edge">
<title>inline5x1462&#45;&gt;node1462</title>
<path fill="none" stroke="#3cb4a4" d="M504,-1103.8C504,-1089.05 504,-1067.92 504,-1053.18"/>
<text text-anchor="middle" x="506" y="-1076.6" font-family="arial" font-size="8.00" fill="#3cb4a4">y</text>
</g>
<!-- inline23x1893 -->
<g id="node26" class="node">
<title>inline23x1893</title>
<ellipse fill="#d7ede7" stroke="black" cx="398" cy="-1122" rx="27" ry="18"/>
<text text-anchor="middle" x="398" y="-1120.1" font-family="Arial" font-size="8.00" fill="#1a1919">23 C(1)</text>
</g>
<!-- inline23x1893&#45;&gt;node1893 -->
<g id="edge15" class="edge">
<title>inline23x1893&#45;&gt;node1893</title>
<path fill="none" stroke="#3cb4a4" d="M387.84,-1105.01C377.88,-1089.33 362.83,-1065.64 353.21,-1050.5"/>
<text text-anchor="middle" x="376" y="-1076.6" font-family="arial" font-size="8.00" fill="#3cb4a4">y</text>
</g>
<!-- inline161x583 -->
<g id="node27" class="node">
<title>inline161x583</title>
<ellipse fill="#d7ede7" stroke="black" cx="345" cy="-1203" rx="27.46" ry="18"/>
<text text-anchor="middle" x="345" y="-1201.1" font-family="Arial" font-size="8.00" fill="#1a1919">161 T(7)</text>
</g>
<!-- inline161x583&#45;&gt;node583 -->
<g id="edge36" class="edge">
<title>inline161x583&#45;&gt;node583</title>
<path fill="none" stroke="#3cb4a4" d="M338,-1185.25C332.44,-1171.93 324.69,-1153.38 319.1,-1140"/>
<text text-anchor="middle" x="338.5" y="-1160.6" font-family="arial" font-size="8.00" fill="#3cb4a4">value</text>
</g>
<!-- inline179x738 -->
<g id="node28" class="node">
<title>inline179x738</title>
<ellipse fill="#d7ede7" stroke="black" cx="121" cy="-1122" rx="27.46" ry="18"/>
<text text-anchor="middle" x="121" y="-1120.1" font-family="Arial" font-size="8.00" fill="#1a1919">179 T(8)</text>
</g>
<!-- inline179x738&#45;&gt;node738 -->
<g id="edge37" class="edge">
<title>inline179x738&#45;&gt;node738</title>
<path fill="none" stroke="#3cb4a4" d="M121,-1103.8C121,-1089.05 121,-1067.92 121,-1053.18"/>
<text text-anchor="middle" x="130.5" y="-1076.6" font-family="arial" font-size="8.00" fill="#3cb4a4">value</text>
</g>
<!-- inline196x892 -->
<g id="node29" class="node">
<title>inline196x892</title>
<ellipse fill="#d7ede7" stroke="black" cx="237" cy="-1035" rx="27.46" ry="18"/>
<text text-anchor="middle" x="237" y="-1033.1" font-family="Arial" font-size="8.00" fill="#1a1919">196 T(9)</text>
</g>
<!-- inline196x892&#45;&gt;node892 -->
<g id="edge38" class="edge">
<title>inline196x892&#45;&gt;node892</title>
<path fill="none" stroke="#3cb4a4" d="M237,-1016.86C237,-1003.61 237,-985.35 237,-972.11"/>
<text text-anchor="middle" x="246.5" y="-992.6" font-family="arial" font-size="8.00" fill="#3cb4a4">value</text>
</g>
<!-- inline213x1046 -->
<g id="node30" class="node">
<title>inline213x1046</title>
<ellipse fill="#d7ede7" stroke="black" cx="148" cy="-954" rx="30.13" ry="18"/>
<text text-anchor="middle" x="148" y="-952.1" font-family="Arial" font-size="8.00" fill="#1a1919">213 T(10)</text>
</g>
<!-- inline213x1046&#45;&gt;node1046 -->
<g id="edge39" class="edge">
<title>inline213x1046&#45;&gt;node1046</title>
<path fill="none" stroke="#3cb4a4" d="M163.5,-938.19C178.94,-923.45 202.63,-900.83 218.92,-885.27"/>
<text text-anchor="middle" x="207.5" y="-908.6" font-family="arial" font-size="8.00" fill="#3cb4a4">value</text>
</g>
<!-- inline2x2544 -->
<g id="node31" class="node">
<title>inline2x2544</title>
<ellipse fill="#d7ede7" stroke="black" cx="280" cy="-1284" rx="27" ry="18"/>
<text text-anchor="middle" x="280" y="-1282.1" font-family="Arial" font-size="8.00" fill="#1a1919">2 P(1)</text>
</g>
<!-- inline2x2544&#45;&gt;node2544 -->
<g id="edge40" class="edge">
<title>inline2x2544&#45;&gt;node2544</title>
<path fill="none" stroke="#3cb4a4" d="M272.33,-1266.63C266.11,-1253.34 257.36,-1234.67 251.04,-1221.17"/>
<text text-anchor="middle" x="271.5" y="-1241.6" font-family="arial" font-size="8.00" fill="#3cb4a4">array</text>
</g>
</g>
</svg>
