<?xml version="1.0" encoding="UTF-8" standalone="no"?>
<!DOCTYPE svg PUBLIC "-//W3C//DTD SVG 1.1//EN"
 "http://www.w3.org/Graphics/SVG/1.1/DTD/svg11.dtd">
<!-- Generated by graphviz version 2.44.1 (20200629.0846)
 -->
<!-- Title: G Pages: 1 -->
<svg width="896pt" height="1457pt"
 viewBox="0.00 0.00 896.45 1457.00" xmlns="http://www.w3.org/2000/svg" xmlns:xlink="http://www.w3.org/1999/xlink">
<g id="graph0" class="graph" transform="scale(1 1) rotate(0) translate(4 1453)">
<title>G</title>
<!-- node0 -->
<g id="node1" class="node">
<title>node0</title>
<polygon fill="#e98693" stroke="black" points="615.23,-1449 559.23,-1449 559.23,-1413 615.23,-1413 615.23,-1449"/>
<text text-anchor="middle" x="587.23" y="-1427.3" font-family="Arial" font-size="14.00" fill="#1a1919">0 Start</text>
</g>
<!-- node1934 -->
<g id="node24" class="node">
<title>node1934</title>
<polygon fill="#da2d4f" stroke="black" points="679.73,-1368 566.73,-1368 566.73,-1332 679.73,-1332 679.73,-1368"/>
<text text-anchor="middle" x="623.23" y="-1346.3" font-family="Arial" font-size="14.00" fill="#ffffff">1934 Load T(...)</text>
</g>
<!-- node0&#45;&gt;node1934 -->
<g id="edge40" class="edge">
<title>node0&#45;&gt;node1934</title>
<path fill="none" stroke="#da2d4f" stroke-width="2" d="M595.04,-1412.86C599.76,-1402.51 605.87,-1389.1 611.19,-1377.41"/>
<polygon fill="#da2d4f" stroke="#da2d4f" stroke-width="2" points="614.47,-1378.66 615.43,-1368.11 608.1,-1375.76 614.47,-1378.66"/>
</g>
<!-- node525 -->
<g id="node2" class="node">
<title>node525</title>
<polygon fill="#f9f9f9" stroke="black" points="715.23,-1287 633.23,-1287 633.23,-1251 715.23,-1251 715.23,-1287"/>
<text text-anchor="middle" x="674.23" y="-1265.3" font-family="Arial" font-size="14.00" fill="#1a1919">525 Unbox</text>
</g>
<!-- node529 -->
<g id="node3" class="node">
<title>node529</title>
<polygon fill="#3cb4a4" stroke="black" points="756.23,-1200 701.77,-1182 756.23,-1164 810.69,-1182 756.23,-1200"/>
<text text-anchor="middle" x="756.23" y="-1178.3" font-family="Arial" font-size="14.00" fill="#1a1919">529 ==</text>
</g>
<!-- node525&#45;&gt;node529 -->
<g id="edge2" class="edge">
<title>node525&#45;&gt;node529</title>
<path fill="none" stroke="#3cb4a4" d="M690.82,-1250.8C704.01,-1237.13 722.49,-1217.97 736.45,-1203.5"/>
<polygon fill="#3cb4a4" stroke="#3cb4a4" points="739.25,-1205.64 743.68,-1196.01 734.21,-1200.78 739.25,-1205.64"/>
<text text-anchor="middle" x="722.73" y="-1221.8" font-family="arial" font-size="14.00" fill="#3cb4a4">x</text>
</g>
<!-- node1887 -->
<g id="node16" class="node">
<title>node1887</title>
<polygon fill="#ffa500" stroke="black" points="815.73,-1113 564.73,-1113 564.73,-1077 815.73,-1077 815.73,-1113"/>
<text text-anchor="middle" x="690.23" y="-1091.3" font-family="Arial" font-size="14.00" fill="#1a1919">1887 Guard, else TransferToInterpreter</text>
</g>
<!-- node525&#45;&gt;node1887 -->
<g id="edge1" class="edge">
<title>node525&#45;&gt;node1887</title>
<path fill="none" stroke="#da2d4f" stroke-width="2" d="M675.82,-1250.88C678.6,-1221 684.36,-1159.11 687.69,-1123.27"/>
<polygon fill="#da2d4f" stroke="#da2d4f" stroke-width="2" points="691.2,-1123.33 688.64,-1113.05 684.23,-1122.68 691.2,-1123.33"/>
</g>
<!-- node529&#45;&gt;node1887 -->
<g id="edge17" class="edge">
<title>node529&#45;&gt;node1887</title>
<path fill="none" stroke="#3cb4a4" d="M745.62,-1167.34C735.97,-1154.91 721.47,-1136.24 709.73,-1121.12"/>
<polygon fill="#3cb4a4" stroke="#3cb4a4" points="712.44,-1118.9 703.54,-1113.15 706.91,-1123.19 712.44,-1118.9"/>
<text text-anchor="middle" x="730.23" y="-1134.8" font-family="arial" font-size="14.00" fill="#3cb4a4">?</text>
</g>
<!-- node703 -->
<g id="node4" class="node">
<title>node703</title>
<polygon fill="#f9f9f9" stroke="black" points="851.23,-1032 769.23,-1032 769.23,-996 851.23,-996 851.23,-1032"/>
<text text-anchor="middle" x="810.23" y="-1010.3" font-family="Arial" font-size="14.00" fill="#1a1919">703 Unbox</text>
</g>
<!-- node858 -->
<g id="node5" class="node">
<title>node858</title>
<polygon fill="#f9f9f9" stroke="black" points="793.23,-951 711.23,-951 711.23,-915 793.23,-915 793.23,-951"/>
<text text-anchor="middle" x="752.23" y="-929.3" font-family="Arial" font-size="14.00" fill="#1a1919">858 Unbox</text>
</g>
<!-- node703&#45;&gt;node858 -->
<g id="edge4" class="edge">
<title>node703&#45;&gt;node858</title>
<path fill="none" stroke="#da2d4f" stroke-width="2" d="M797.64,-995.86C789.81,-985.2 779.61,-971.29 770.85,-959.37"/>
<polygon fill="#da2d4f" stroke="#da2d4f" stroke-width="2" points="773.53,-957.1 764.79,-951.11 767.88,-961.24 773.53,-957.1"/>
</g>
<!-- node928 -->
<g id="node6" class="node">
<title>node928</title>
<polygon fill="#ffa500" stroke="black" points="654.23,-864 416.23,-864 416.23,-828 654.23,-828 654.23,-864"/>
<text text-anchor="middle" x="535.23" y="-842.3" font-family="Arial" font-size="14.00" fill="#1a1919">928 Guard, else ClassCastException</text>
</g>
<!-- node858&#45;&gt;node928 -->
<g id="edge5" class="edge">
<title>node858&#45;&gt;node928</title>
<path fill="none" stroke="#da2d4f" stroke-width="2" d="M711.16,-915.91C676.27,-902.25 625.97,-882.54 588.08,-867.7"/>
<polygon fill="#da2d4f" stroke="#da2d4f" stroke-width="2" points="589.32,-864.43 578.73,-864.04 586.77,-870.95 589.32,-864.43"/>
</g>
<!-- node1922 -->
<g id="node20" class="node">
<title>node1922</title>
<polygon fill="#f9f9f9" stroke="black" points="409.73,-617 214.73,-617 214.73,-581 409.73,-581 409.73,-617"/>
<text text-anchor="middle" x="312.23" y="-595.3" font-family="Arial" font-size="14.00" fill="#1a1919">1922 BoxNode$AllocatingBox</text>
</g>
<!-- node858&#45;&gt;node1922 -->
<g id="edge23" class="edge">
<title>node858&#45;&gt;node1922</title>
<path fill="none" stroke="#3cb4a4" d="M734.39,-914.89C719.68,-898.88 701.23,-873.5 701.23,-847 701.23,-847 701.23,-847 701.23,-671 701.23,-667.41 534.95,-638.16 419.82,-618.35"/>
<polygon fill="#3cb4a4" stroke="#3cb4a4" points="420.33,-614.88 409.89,-616.64 419.15,-621.78 420.33,-614.88"/>
<text text-anchor="middle" x="717.73" y="-755.3" font-family="arial" font-size="14.00" fill="#3cb4a4">value</text>
</g>
<!-- node1933 -->
<g id="node23" class="node">
<title>node1933</title>
<polygon fill="#f9f9f9" stroke="black" points="835.73,-123 640.73,-123 640.73,-87 835.73,-87 835.73,-123"/>
<text text-anchor="middle" x="738.23" y="-101.3" font-family="Arial" font-size="14.00" fill="#1a1919">1933 BoxNode$AllocatingBox</text>
</g>
<!-- node858&#45;&gt;node1933 -->
<g id="edge30" class="edge">
<title>node858&#45;&gt;node1933</title>
<path fill="none" stroke="#3cb4a4" d="M756.73,-914.88C760.83,-897.81 766.23,-870.78 766.23,-847 766.23,-847 766.23,-847 766.23,-177 766.23,-161.33 760.25,-144.98 753.82,-131.93"/>
<polygon fill="#3cb4a4" stroke="#3cb4a4" points="756.9,-130.27 749.13,-123.06 750.71,-133.54 756.9,-130.27"/>
<text text-anchor="middle" x="782.73" y="-508.3" font-family="arial" font-size="14.00" fill="#3cb4a4">value</text>
</g>
<!-- node1892 -->
<g id="node17" class="node">
<title>node1892</title>
<polygon fill="#ffa500" stroke="black" points="476.73,-777 225.73,-777 225.73,-741 476.73,-741 476.73,-777"/>
<text text-anchor="middle" x="351.23" y="-755.3" font-family="Arial" font-size="14.00" fill="#1a1919">1892 Guard, else TransferToInterpreter</text>
</g>
<!-- node928&#45;&gt;node1892 -->
<g id="edge7" class="edge">
<title>node928&#45;&gt;node1892</title>
<path fill="none" stroke="#da2d4f" stroke-width="2" d="M497.99,-827.8C468.97,-814.39 428.51,-795.7 397.42,-781.34"/>
<polygon fill="#da2d4f" stroke="#da2d4f" stroke-width="2" points="398.64,-778.05 388.09,-777.03 395.7,-784.4 398.64,-778.05"/>
</g>
<!-- node929 -->
<g id="node7" class="node">
<title>node929</title>
<polygon fill="#f9f9f9" stroke="black" points="692.73,-951 373.73,-951 373.73,-915 692.73,-915 692.73,-951"/>
<text text-anchor="middle" x="533.23" y="-929.3" font-family="Arial" font-size="14.00" fill="#1a1919">929 InstanceOf org/truffleruby/core/proc/RubyProc</text>
</g>
<!-- node929&#45;&gt;node928 -->
<g id="edge6" class="edge">
<title>node929&#45;&gt;node928</title>
<path fill="none" stroke="#3cb4a4" d="M533.63,-914.8C533.91,-903.16 534.27,-887.55 534.59,-874.24"/>
<polygon fill="#3cb4a4" stroke="#3cb4a4" points="538.09,-874.26 534.82,-864.18 531.09,-874.09 538.09,-874.26"/>
<text text-anchor="middle" x="539.23" y="-885.8" font-family="arial" font-size="14.00" fill="#3cb4a4">?</text>
</g>
<!-- node935 -->
<g id="node8" class="node">
<title>node935</title>
<polygon fill="#3cb4a4" stroke="black" points="327.23,-864 256.68,-846 327.23,-828 397.78,-846 327.23,-864"/>
<text text-anchor="middle" x="327.23" y="-842.3" font-family="Arial" font-size="14.00" fill="#1a1919">935 IsNull</text>
</g>
<!-- node935&#45;&gt;node1892 -->
<g id="edge19" class="edge">
<title>node935&#45;&gt;node1892</title>
<path fill="none" stroke="#3cb4a4" d="M329.29,-828.11C330.73,-818.31 332.98,-805.81 336.23,-795 337.06,-792.21 338.06,-789.34 339.13,-786.51"/>
<polygon fill="#3cb4a4" stroke="#3cb4a4" points="342.41,-787.74 342.95,-777.16 335.93,-785.09 342.41,-787.74"/>
<text text-anchor="middle" x="340.23" y="-798.8" font-family="arial" font-size="14.00" fill="#3cb4a4">?</text>
</g>
<!-- node1319 -->
<g id="node9" class="node">
<title>node1319</title>
<polygon fill="#3cb4a4" stroke="black" points="146.23,-777 84.56,-759 146.23,-741 207.89,-759 146.23,-777"/>
<text text-anchor="middle" x="146.23" y="-755.3" font-family="Arial" font-size="14.00" fill="#1a1919">1319 ==</text>
</g>
<!-- node1897 -->
<g id="node18" class="node">
<title>node1897</title>
<polygon fill="#ffa500" stroke="black" points="437.73,-690 186.73,-690 186.73,-654 437.73,-654 437.73,-690"/>
<text text-anchor="middle" x="312.23" y="-668.3" font-family="Arial" font-size="14.00" fill="#1a1919">1897 Guard, else TransferToInterpreter</text>
</g>
<!-- node1319&#45;&gt;node1897 -->
<g id="edge21" class="edge">
<title>node1319&#45;&gt;node1897</title>
<path fill="none" stroke="#3cb4a4" d="M167.59,-747.06C193.36,-733.86 237.3,-711.37 270,-694.62"/>
<polygon fill="#3cb4a4" stroke="#3cb4a4" points="271.6,-697.74 278.9,-690.06 268.41,-691.51 271.6,-697.74"/>
<text text-anchor="middle" x="243.23" y="-711.8" font-family="arial" font-size="14.00" fill="#3cb4a4">?</text>
</g>
<!-- node1840 -->
<g id="node10" class="node">
<title>node1840</title>
<polygon fill="#e98693" stroke="black" points="782.73,-36 691.73,-36 691.73,0 782.73,0 782.73,-36"/>
<text text-anchor="middle" x="737.23" y="-14.3" font-family="Arial" font-size="14.00" fill="#1a1919">1840 Return</text>
</g>
<!-- node1871 -->
<g id="node11" class="node">
<title>node1871</title>
<polygon fill="#da2d4f" stroke="black" points="618.23,-283 328.23,-283 328.23,-247 618.23,-247 618.23,-283"/>
<text text-anchor="middle" x="473.23" y="-261.3" font-family="Arial" font-size="14.00" fill="#ffffff">1871 Call OptimizedCallTarget.callBoundary !</text>
</g>
<!-- node1875 -->
<g id="node13" class="node">
<title>node1875</title>
<polygon fill="#e98693" stroke="black" points="711.73,-196 590.73,-196 590.73,-160 711.73,-160 711.73,-196"/>
<text text-anchor="middle" x="651.23" y="-174.3" font-family="Arial" font-size="14.00" fill="#1a1919">1875 KillingBegin</text>
</g>
<!-- node1871&#45;&gt;node1875 -->
<g id="edge11" class="edge">
<title>node1871&#45;&gt;node1875</title>
<path fill="none" stroke="#da2d4f" stroke-width="2" d="M509.25,-246.8C537.21,-233.45 576.13,-214.86 606.15,-200.52"/>
<polygon fill="#da2d4f" stroke="#da2d4f" stroke-width="2" points="608.05,-203.5 615.56,-196.03 605.03,-197.18 608.05,-203.5"/>
</g>
<!-- node1876 -->
<g id="node14" class="node">
<title>node1876</title>
<polygon fill="#f9f9f9" stroke="black" points="547.73,-196 398.73,-196 398.73,-160 547.73,-160 547.73,-196"/>
<text text-anchor="middle" x="473.23" y="-174.3" font-family="Arial" font-size="14.00" fill="#1a1919">1876 ExceptionObject</text>
</g>
<!-- node1871&#45;&gt;node1876 -->
<g id="edge12" class="edge">
<title>node1871&#45;&gt;node1876</title>
<path fill="none" stroke="#da2d4f" stroke-width="2" d="M473.23,-246.8C473.23,-235.16 473.23,-219.55 473.23,-206.24"/>
<polygon fill="#da2d4f" stroke="#da2d4f" stroke-width="2" points="476.73,-206.18 473.23,-196.18 469.73,-206.18 476.73,-206.18"/>
<text text-anchor="middle" x="494.73" y="-217.8" font-family="arial" font-size="14.00" fill="#da2d4f">unwind</text>
</g>
<!-- node1872 -->
<g id="node12" class="node">
<title>node1872</title>
<polygon fill="#f9f9f9" stroke="black" points="551.73,-356 394.73,-356 394.73,-320 551.73,-320 551.73,-356"/>
<text text-anchor="middle" x="473.23" y="-334.3" font-family="Arial" font-size="14.00" fill="#1a1919">1872 MethodCallTarget</text>
</g>
<!-- node1872&#45;&gt;node1871 -->
<g id="edge10" class="edge">
<title>node1872&#45;&gt;node1871</title>
<path fill="none" stroke="#343d46" stroke-dasharray="5,2" d="M473.23,-309.75C473.23,-300.77 473.23,-291.03 473.23,-283.03"/>
<polygon fill="#343d46" stroke="#343d46" points="469.73,-309.81 473.23,-319.81 476.73,-309.81 469.73,-309.81"/>
</g>
<!-- node1875&#45;&gt;node1933 -->
<g id="edge15" class="edge">
<title>node1875&#45;&gt;node1933</title>
<path fill="none" stroke="#da2d4f" stroke-width="2" d="M672.29,-159.81C683.4,-150.74 697.21,-139.48 709.31,-129.6"/>
<polygon fill="#da2d4f" stroke="#da2d4f" stroke-width="2" points="711.83,-132.06 717.36,-123.03 707.4,-126.64 711.83,-132.06"/>
</g>
<!-- node1881 -->
<g id="node15" class="node">
<title>node1881</title>
<polygon fill="#da2d4f" stroke="black" points="581.73,-123 364.73,-123 364.73,-87 581.73,-87 581.73,-123"/>
<text text-anchor="middle" x="473.23" y="-101.3" font-family="Arial" font-size="14.00" fill="#ffffff">1881 Deopt TransferToInterpreter</text>
</g>
<!-- node1876&#45;&gt;node1881 -->
<g id="edge16" class="edge">
<title>node1876&#45;&gt;node1881</title>
<path fill="none" stroke="#da2d4f" stroke-width="2" d="M473.23,-159.81C473.23,-151.79 473.23,-142.05 473.23,-133.07"/>
<polygon fill="#da2d4f" stroke="#da2d4f" stroke-width="2" points="476.73,-133.03 473.23,-123.03 469.73,-133.03 476.73,-133.03"/>
</g>
<!-- node1887&#45;&gt;node703 -->
<g id="edge18" class="edge">
<title>node1887&#45;&gt;node703</title>
<path fill="none" stroke="#da2d4f" stroke-width="2" d="M716.27,-1076.86C733.72,-1065.37 756.89,-1050.11 775.86,-1037.63"/>
<polygon fill="#da2d4f" stroke="#da2d4f" stroke-width="2" points="777.81,-1040.53 784.24,-1032.11 773.96,-1034.68 777.81,-1040.53"/>
</g>
<!-- node1892&#45;&gt;node1897 -->
<g id="edge20" class="edge">
<title>node1892&#45;&gt;node1897</title>
<path fill="none" stroke="#da2d4f" stroke-width="2" d="M343.33,-740.8C337.89,-728.93 330.55,-712.93 324.36,-699.45"/>
<polygon fill="#da2d4f" stroke="#da2d4f" stroke-width="2" points="327.46,-697.8 320.11,-690.18 321.1,-700.72 327.46,-697.8"/>
</g>
<!-- node1897&#45;&gt;node1922 -->
<g id="edge22" class="edge">
<title>node1897&#45;&gt;node1922</title>
<path fill="none" stroke="#da2d4f" stroke-width="2" d="M312.23,-653.81C312.23,-645.79 312.23,-636.05 312.23,-627.07"/>
<polygon fill="#da2d4f" stroke="#da2d4f" stroke-width="2" points="315.73,-627.03 312.23,-617.03 308.73,-627.03 315.73,-627.03"/>
</g>
<!-- node1919 -->
<g id="node19" class="node">
<title>node1919</title>
<polygon fill="#343d46" stroke="black" points="737.73,-617 500.73,-617 500.73,-581 737.73,-581 737.73,-617"/>
<text text-anchor="middle" x="619.23" y="-595.3" font-family="Arial" font-size="14.00" fill="#ffffff">1919 VirtualArray java.lang.Object[9]</text>
</g>
<!-- node1923 -->
<g id="node21" class="node">
<title>node1923</title>
<polygon fill="#da2d4f" stroke="black" points="462.73,-530 383.73,-530 383.73,-494 462.73,-494 462.73,-530"/>
<text text-anchor="middle" x="423.23" y="-508.3" font-family="Arial" font-size="14.00" fill="#ffffff">1923 Alloc</text>
</g>
<!-- node1919&#45;&gt;node1923 -->
<g id="edge25" class="edge">
<title>node1919&#45;&gt;node1923</title>
<path fill="none" stroke="#3cb4a4" d="M576.22,-580.89C562.44,-575.3 547.14,-568.99 533.23,-563 512.03,-553.87 488.74,-543.36 469.07,-534.33"/>
<polygon fill="#3cb4a4" stroke="#3cb4a4" points="470.28,-531.04 459.73,-530.04 467.35,-537.4 470.28,-531.04"/>
<text text-anchor="middle" x="574.73" y="-551.8" font-family="arial" font-size="14.00" fill="#3cb4a4">virtualObjects</text>
</g>
<!-- node1924 -->
<g id="node22" class="node">
<title>node1924</title>
<polygon fill="#343d46" stroke="black" points="714.73,-443 569.73,-443 569.73,-407 714.73,-407 714.73,-443"/>
<text text-anchor="middle" x="642.23" y="-421.3" font-family="Arial" font-size="14.00" fill="#ffffff">1924 AllocatedObject</text>
</g>
<!-- node1919&#45;&gt;node1924 -->
<g id="edge28" class="edge">
<title>node1919&#45;&gt;node1924</title>
<path fill="none" stroke="#3cb4a4" d="M621.52,-580.88C625.51,-551 633.79,-489.11 638.58,-453.27"/>
<polygon fill="#3cb4a4" stroke="#3cb4a4" points="642.09,-453.43 639.95,-443.05 635.15,-452.5 642.09,-453.43"/>
<text text-anchor="middle" x="670.23" y="-508.3" font-family="arial" font-size="14.00" fill="#3cb4a4">virtualObject</text>
</g>
<!-- node1922&#45;&gt;node1923 -->
<g id="edge24" class="edge">
<title>node1922&#45;&gt;node1923</title>
<path fill="none" stroke="#da2d4f" stroke-width="2" d="M325.49,-580.89C334.09,-570.55 345.93,-557.55 358.23,-548 364.14,-543.41 370.74,-539.08 377.41,-535.15"/>
<polygon fill="#da2d4f" stroke="#da2d4f" stroke-width="2" points="379.49,-538 386.48,-530.04 376.05,-531.9 379.49,-538"/>
</g>
<!-- node1922&#45;&gt;node1923 -->
<g id="edge26" class="edge">
<title>node1922&#45;&gt;node1923</title>
<path fill="none" stroke="#3cb4a4" d="M334.71,-580.93C342.19,-575.24 350.58,-568.85 358.23,-563 369.58,-554.31 382.03,-544.75 392.96,-536.33"/>
<polygon fill="#3cb4a4" stroke="#3cb4a4" points="395.2,-539.03 400.99,-530.15 390.93,-533.48 395.2,-539.03"/>
<text text-anchor="middle" x="396.23" y="-551.8" font-family="arial" font-size="14.00" fill="#3cb4a4">values</text>
</g>
<!-- node1923&#45;&gt;node1871 -->
<g id="edge27" class="edge">
<title>node1923&#45;&gt;node1871</title>
<path fill="none" stroke="#da2d4f" stroke-width="2" d="M389.07,-493.98C370.02,-482.46 348.01,-465.27 337.23,-443 330.25,-428.6 333.24,-422.49 337.23,-407 348.24,-364.23 354.73,-351.94 385.23,-320 397.22,-307.44 412.74,-296.65 427.4,-288.09"/>
<polygon fill="#da2d4f" stroke="#da2d4f" stroke-width="2" points="429.37,-291 436.38,-283.06 425.94,-284.9 429.37,-291"/>
</g>
<!-- node1923&#45;&gt;node1924 -->
<g id="edge29" class="edge">
<title>node1923&#45;&gt;node1924</title>
<path fill="none" stroke="#3cb4a4" d="M462.89,-495.61C498.11,-481.94 549.89,-461.84 588.76,-446.75"/>
<polygon fill="#3cb4a4" stroke="#3cb4a4" points="590.3,-449.91 598.35,-443.03 587.76,-443.38 590.3,-449.91"/>
<text text-anchor="middle" x="569.23" y="-464.8" font-family="arial" font-size="14.00" fill="#3cb4a4">commit</text>
</g>
<!-- node1924&#45;&gt;node1872 -->
<g id="edge14" class="edge">
<title>node1924&#45;&gt;node1872</title>
<path fill="none" stroke="#3cb4a4" d="M608.03,-406.8C581.48,-393.45 544.53,-374.86 516.02,-360.52"/>
<polygon fill="#3cb4a4" stroke="#3cb4a4" points="517.59,-357.4 507.09,-356.03 514.45,-363.65 517.59,-357.4"/>
<text text-anchor="middle" x="585.73" y="-377.8" font-family="arial" font-size="14.00" fill="#3cb4a4">arg[1]</text>
</g>
<!-- node1933&#45;&gt;node1840 -->
<g id="edge9" class="edge">
<title>node1933&#45;&gt;node1840</title>
<path fill="none" stroke="#3cb4a4" d="M723.52,-86.93C719.74,-81.54 716.19,-75.33 714.23,-69 711.73,-60.95 713.68,-52.52 717.32,-44.92"/>
<polygon fill="#3cb4a4" stroke="#3cb4a4" points="720.41,-46.55 722.39,-36.14 714.35,-43.05 720.41,-46.55"/>
<text text-anchor="middle" x="731.23" y="-57.8" font-family="arial" font-size="14.00" fill="#3cb4a4">result</text>
</g>
<!-- node1933&#45;&gt;node1840 -->
<g id="edge31" class="edge">
<title>node1933&#45;&gt;node1840</title>
<path fill="none" stroke="#da2d4f" stroke-width="2" d="M744.65,-86.94C747.52,-77.31 749.92,-65.03 748.23,-54 747.82,-51.32 747.24,-48.56 746.56,-45.83"/>
<polygon fill="#da2d4f" stroke="#da2d4f" stroke-width="2" points="749.91,-44.83 743.78,-36.2 743.19,-46.78 749.91,-44.83"/>
</g>
<!-- node1934&#45;&gt;node525 -->
<g id="edge41" class="edge">
<title>node1934&#45;&gt;node525</title>
<path fill="none" stroke="#da2d4f" stroke-width="2" d="M634.29,-1331.86C641.11,-1321.3 649.98,-1307.56 657.63,-1295.71"/>
<polygon fill="#da2d4f" stroke="#da2d4f" stroke-width="2" points="660.7,-1297.41 663.18,-1287.11 654.82,-1293.61 660.7,-1297.41"/>
</g>
<!-- inline5x529 -->
<g id="node25" class="node">
<title>inline5x529</title>
<ellipse fill="#d7ede7" stroke="black" cx="760.23" cy="-1269" rx="27" ry="18"/>
<text text-anchor="middle" x="760.23" y="-1267.1" font-family="Arial" font-size="8.00" fill="#1a1919">5 C(0)</text>
</g>
<!-- inline5x529&#45;&gt;node529 -->
<g id="edge3" class="edge">
<title>inline5x529&#45;&gt;node529</title>
<path fill="none" stroke="#3cb4a4" d="M759.42,-1250.8C758.72,-1235.95 757.72,-1214.64 757.02,-1199.89"/>
<text text-anchor="middle" x="760.23" y="-1223.6" font-family="arial" font-size="8.00" fill="#3cb4a4">y</text>
</g>
<!-- inline1317x1319 -->
<g id="node26" class="node">
<title>inline1317x1319</title>
<ellipse fill="#d7ede7" stroke="black" cx="152.23" cy="-846" rx="79.32" ry="18"/>
<text text-anchor="middle" x="152.23" y="-844.1" font-family="Arial" font-size="8.00" fill="#1a1919">1317 C(instance:RubyBasicObject)</text>
</g>
<!-- inline1317x1319&#45;&gt;node1319 -->
<g id="edge8" class="edge">
<title>inline1317x1319&#45;&gt;node1319</title>
<path fill="none" stroke="#3cb4a4" d="M151.01,-827.8C149.96,-812.95 148.46,-791.64 147.42,-776.89"/>
<text text-anchor="middle" x="152.23" y="-800.6" font-family="arial" font-size="8.00" fill="#3cb4a4">y</text>
</g>
<!-- inline1577x1872 -->
<g id="node27" class="node">
<title>inline1577x1872</title>
<ellipse fill="#d7ede7" stroke="black" cx="449.23" cy="-425" rx="102.84" ry="18"/>
<text text-anchor="middle" x="449.23" y="-423.1" font-family="Arial" font-size="8.00" fill="#1a1919">1577 C(instance:HotSpotOptimizedCallTarget)</text>
</g>
<!-- inline1577x1872&#45;&gt;node1872 -->
<g id="edge13" class="edge">
<title>inline1577x1872&#45;&gt;node1872</title>
<path fill="none" stroke="#3cb4a4" d="M454.08,-406.8C458.25,-392.05 464.22,-370.92 468.38,-356.18"/>
<text text-anchor="middle" x="474.23" y="-379.6" font-family="arial" font-size="8.00" fill="#3cb4a4">arg[0]</text>
</g>
<!-- inline140x1319 -->
<g id="node28" class="node">
<title>inline140x1319</title>
<ellipse fill="#d7ede7" stroke="black" cx="27.23" cy="-846" rx="27.46" ry="18"/>
<text text-anchor="middle" x="27.23" y="-844.1" font-family="Arial" font-size="8.00" fill="#1a1919">140 T(6)</text>
</g>
<!-- inline140x1319&#45;&gt;node1319 -->
<g id="edge32" class="edge">
<title>inline140x1319&#45;&gt;node1319</title>
<path fill="none" stroke="#3cb4a4" d="M45.04,-832.27C67.74,-816.07 106.69,-788.24 129.06,-772.26"/>
<text text-anchor="middle" x="96.23" y="-800.6" font-family="arial" font-size="8.00" fill="#3cb4a4">x</text>
</g>
<!-- inline140x1923 -->
<g id="node29" class="node">
<title>inline140x1923</title>
<ellipse fill="#d7ede7" stroke="black" cx="455.23" cy="-599" rx="27.46" ry="18"/>
<text text-anchor="middle" x="455.23" y="-597.1" font-family="Arial" font-size="8.00" fill="#1a1919">140 T(6)</text>
</g>
<!-- inline140x1923&#45;&gt;node1923 -->
<g id="edge33" class="edge">
<title>inline140x1923&#45;&gt;node1923</title>
<path fill="none" stroke="#3cb4a4" d="M448.9,-581.21C443.33,-566.4 435.25,-544.93 429.65,-530.05"/>
<text text-anchor="middle" x="452.73" y="-553.6" font-family="arial" font-size="8.00" fill="#3cb4a4">values</text>
</g>
<!-- inline158x929 -->
<g id="node30" class="node">
<title>inline158x929</title>
<ellipse fill="#d7ede7" stroke="black" cx="533.23" cy="-1014" rx="27.46" ry="18"/>
<text text-anchor="middle" x="533.23" y="-1012.1" font-family="Arial" font-size="8.00" fill="#1a1919">158 T(7)</text>
</g>
<!-- inline158x929&#45;&gt;node929 -->
<g id="edge34" class="edge">
<title>inline158x929&#45;&gt;node929</title>
<path fill="none" stroke="#3cb4a4" d="M533.23,-995.86C533.23,-982.61 533.23,-964.35 533.23,-951.11"/>
<text text-anchor="middle" x="542.73" y="-971.6" font-family="arial" font-size="8.00" fill="#3cb4a4">value</text>
</g>
<!-- inline158x935 -->
<g id="node31" class="node">
<title>inline158x935</title>
<ellipse fill="#d7ede7" stroke="black" cx="327.23" cy="-933" rx="27.46" ry="18"/>
<text text-anchor="middle" x="327.23" y="-931.1" font-family="Arial" font-size="8.00" fill="#1a1919">158 T(7)</text>
</g>
<!-- inline158x935&#45;&gt;node935 -->
<g id="edge35" class="edge">
<title>inline158x935&#45;&gt;node935</title>
<path fill="none" stroke="#3cb4a4" d="M327.23,-914.8C327.23,-900.05 327.23,-878.92 327.23,-864.18"/>
<text text-anchor="middle" x="336.73" y="-887.6" font-family="arial" font-size="8.00" fill="#3cb4a4">value</text>
</g>
<!-- inline173x525 -->
<g id="node32" class="node">
<title>inline173x525</title>
<ellipse fill="#d7ede7" stroke="black" cx="725.23" cy="-1350" rx="27.46" ry="18"/>
<text text-anchor="middle" x="725.23" y="-1348.1" font-family="Arial" font-size="8.00" fill="#1a1919">173 T(8)</text>
</g>
<!-- inline173x525&#45;&gt;node525 -->
<g id="edge36" class="edge">
<title>inline173x525&#45;&gt;node525</title>
<path fill="none" stroke="#3cb4a4" d="M714.91,-1333.01C706.29,-1319.67 694.04,-1300.69 685.24,-1287.06"/>
<text text-anchor="middle" x="710.73" y="-1307.6" font-family="arial" font-size="8.00" fill="#3cb4a4">value</text>
</g>
<!-- inline191x703 -->
<g id="node33" class="node">
<title>inline191x703</title>
<ellipse fill="#d7ede7" stroke="black" cx="861.23" cy="-1095" rx="27.46" ry="18"/>
<text text-anchor="middle" x="861.23" y="-1093.1" font-family="Arial" font-size="8.00" fill="#1a1919">191 T(9)</text>
</g>
<!-- inline191x703&#45;&gt;node703 -->
<g id="edge37" class="edge">
<title>inline191x703&#45;&gt;node703</title>
<path fill="none" stroke="#3cb4a4" d="M850.91,-1078.01C842.29,-1064.67 830.04,-1045.69 821.24,-1032.06"/>
<text text-anchor="middle" x="846.73" y="-1052.6" font-family="arial" font-size="8.00" fill="#3cb4a4">value</text>
</g>
<!-- inline209x858 -->
<g id="node34" class="node">
<title>inline209x858</title>
<ellipse fill="#d7ede7" stroke="black" cx="721.23" cy="-1014" rx="30.13" ry="18"/>
<text text-anchor="middle" x="721.23" y="-1012.1" font-family="Arial" font-size="8.00" fill="#1a1919">209 T(10)</text>
</g>
<!-- inline209x858&#45;&gt;node858 -->
<g id="edge38" class="edge">
<title>inline209x858&#45;&gt;node858</title>
<path fill="none" stroke="#3cb4a4" d="M727.8,-996.25C733.03,-982.93 740.3,-964.38 745.56,-951"/>
<text text-anchor="middle" x="746.73" y="-971.6" font-family="arial" font-size="8.00" fill="#3cb4a4">value</text>
</g>
<!-- inline2x1934 -->
<g id="node35" class="node">
<title>inline2x1934</title>
<ellipse fill="#d7ede7" stroke="black" cx="660.23" cy="-1431" rx="27" ry="18"/>
<text text-anchor="middle" x="660.23" y="-1429.1" font-family="Arial" font-size="8.00" fill="#1a1919">2 P(1)</text>
</g>
<!-- inline2x1934&#45;&gt;node1934 -->
<g id="edge39" class="edge">
<title>inline2x1934&#45;&gt;node1934</title>
<path fill="none" stroke="#3cb4a4" d="M652.56,-1413.63C646.34,-1400.34 637.59,-1381.67 631.27,-1368.17"/>
<text text-anchor="middle" x="651.73" y="-1388.6" font-family="arial" font-size="8.00" fill="#3cb4a4">array</text>
</g>
</g>
</svg>
