<?xml version="1.0" encoding="UTF-8" standalone="no"?>
<!DOCTYPE svg PUBLIC "-//W3C//DTD SVG 1.1//EN"
 "http://www.w3.org/Graphics/SVG/1.1/DTD/svg11.dtd">
<!-- Generated by graphviz version 2.44.1 (20200629.0846)
 -->
<!-- Title: G Pages: 1 -->
<svg width="386pt" height="789pt"
 viewBox="0.00 0.00 385.50 789.00" xmlns="http://www.w3.org/2000/svg" xmlns:xlink="http://www.w3.org/1999/xlink">
<g id="graph0" class="graph" transform="scale(1 1) rotate(0) translate(4 785)">
<title>G</title>
<!-- node0 -->
<g id="node1" class="node">
<title>node0</title>
<polygon fill="#e98693" stroke="black" points="56,-781 0,-781 0,-745 56,-745 56,-781"/>
<text text-anchor="middle" x="28" y="-759.3" font-family="Arial" font-size="14.00" fill="#1a1919">0 Start</text>
</g>
<!-- node1415 -->
<g id="node10" class="node">
<title>node1415</title>
<polygon fill="#da2d4f" stroke="black" points="120.5,-700 7.5,-700 7.5,-664 120.5,-664 120.5,-700"/>
<text text-anchor="middle" x="64" y="-678.3" font-family="Arial" font-size="14.00" fill="#ffffff">1415 Load T(...)</text>
</g>
<!-- node0&#45;&gt;node1415 -->
<g id="edge17" class="edge">
<title>node0&#45;&gt;node1415</title>
<path fill="none" stroke="#da2d4f" stroke-width="2" d="M35.81,-744.86C40.53,-734.51 46.64,-721.1 51.96,-709.41"/>
<polygon fill="#da2d4f" stroke="#da2d4f" stroke-width="2" points="55.24,-710.66 56.2,-700.11 48.87,-707.76 55.24,-710.66"/>
</g>
<!-- node512 -->
<g id="node2" class="node">
<title>node512</title>
<polygon fill="#f9f9f9" stroke="black" points="156,-619 74,-619 74,-583 156,-583 156,-619"/>
<text text-anchor="middle" x="115" y="-597.3" font-family="Arial" font-size="14.00" fill="#1a1919">512 Unbox</text>
</g>
<!-- node516 -->
<g id="node3" class="node">
<title>node516</title>
<polygon fill="#3cb4a4" stroke="black" points="197,-532 142.54,-514 197,-496 251.46,-514 197,-532"/>
<text text-anchor="middle" x="197" y="-510.3" font-family="Arial" font-size="14.00" fill="#1a1919">516 ==</text>
</g>
<!-- node512&#45;&gt;node516 -->
<g id="edge2" class="edge">
<title>node512&#45;&gt;node516</title>
<path fill="none" stroke="#3cb4a4" d="M131.59,-582.8C144.78,-569.13 163.27,-549.97 177.22,-535.5"/>
<polygon fill="#3cb4a4" stroke="#3cb4a4" points="180.02,-537.64 184.45,-528.01 174.99,-532.78 180.02,-537.64"/>
<text text-anchor="middle" x="163.5" y="-553.8" font-family="arial" font-size="14.00" fill="#3cb4a4">x</text>
</g>
<!-- node1382 -->
<g id="node8" class="node">
<title>node1382</title>
<polygon fill="#ffa500" stroke="black" points="256.5,-445 5.5,-445 5.5,-409 256.5,-409 256.5,-445"/>
<text text-anchor="middle" x="131" y="-423.3" font-family="Arial" font-size="14.00" fill="#1a1919">1382 Guard, else TransferToInterpreter</text>
</g>
<!-- node512&#45;&gt;node1382 -->
<g id="edge1" class="edge">
<title>node512&#45;&gt;node1382</title>
<path fill="none" stroke="#da2d4f" stroke-width="2" d="M116.59,-582.88C119.37,-553 125.13,-491.11 128.46,-455.27"/>
<polygon fill="#da2d4f" stroke="#da2d4f" stroke-width="2" points="131.97,-455.33 129.41,-445.05 125,-454.68 131.97,-455.33"/>
</g>
<!-- node516&#45;&gt;node1382 -->
<g id="edge9" class="edge">
<title>node516&#45;&gt;node1382</title>
<path fill="none" stroke="#3cb4a4" d="M186.4,-499.34C176.74,-486.91 162.25,-468.24 150.5,-453.12"/>
<polygon fill="#3cb4a4" stroke="#3cb4a4" points="153.21,-450.9 144.31,-445.15 147.68,-455.19 153.21,-450.9"/>
<text text-anchor="middle" x="171" y="-466.8" font-family="arial" font-size="14.00" fill="#3cb4a4">?</text>
</g>
<!-- node690 -->
<g id="node4" class="node">
<title>node690</title>
<polygon fill="#f9f9f9" stroke="black" points="257,-364 175,-364 175,-328 257,-328 257,-364"/>
<text text-anchor="middle" x="216" y="-342.3" font-family="Arial" font-size="14.00" fill="#1a1919">690 Unbox</text>
</g>
<!-- node845 -->
<g id="node5" class="node">
<title>node845</title>
<polygon fill="#f9f9f9" stroke="black" points="300,-283 218,-283 218,-247 300,-247 300,-283"/>
<text text-anchor="middle" x="259" y="-261.3" font-family="Arial" font-size="14.00" fill="#1a1919">845 Unbox</text>
</g>
<!-- node690&#45;&gt;node845 -->
<g id="edge4" class="edge">
<title>node690&#45;&gt;node845</title>
<path fill="none" stroke="#da2d4f" stroke-width="2" d="M225.33,-327.86C231.02,-317.4 238.41,-303.83 244.81,-292.06"/>
<polygon fill="#da2d4f" stroke="#da2d4f" stroke-width="2" points="247.98,-293.56 249.69,-283.11 241.83,-290.22 247.98,-293.56"/>
</g>
<!-- node1159 -->
<g id="node6" class="node">
<title>node1159</title>
<ellipse fill="black" stroke="black" cx="253" cy="-178" rx="18" ry="18"/>
</g>
<!-- node845&#45;&gt;node1159 -->
<g id="edge5" class="edge">
<title>node845&#45;&gt;node1159</title>
<path fill="none" stroke="#da2d4f" stroke-width="2" d="M247.53,-246.9C244.46,-241.42 241.57,-235.17 240,-229 237.92,-220.81 239.13,-211.87 241.49,-203.85"/>
<polygon fill="#da2d4f" stroke="#da2d4f" stroke-width="2" points="244.84,-204.9 244.94,-194.31 238.25,-202.52 244.84,-204.9"/>
</g>
<!-- node845&#45;&gt;node1159 -->
<g id="edge6" class="edge">
<title>node845&#45;&gt;node1159</title>
<path fill="none" stroke="#3cb4a4" d="M257.79,-246.8C256.96,-235.16 255.86,-219.55 254.92,-206.24"/>
<polygon fill="#3cb4a4" stroke="#3cb4a4" points="258.41,-205.9 254.21,-196.18 251.43,-206.4 258.41,-205.9"/>
<text text-anchor="middle" x="272.5" y="-217.8" font-family="arial" font-size="14.00" fill="#3cb4a4">value</text>
</g>
<!-- node1414 -->
<g id="node9" class="node">
<title>node1414</title>
<polygon fill="#f9f9f9" stroke="black" points="377.5,-123 182.5,-123 182.5,-87 377.5,-87 377.5,-123"/>
<text text-anchor="middle" x="280" y="-101.3" font-family="Arial" font-size="14.00" fill="#1a1919">1414 BoxNode$AllocatingBox</text>
</g>
<!-- node845&#45;&gt;node1414 -->
<g id="edge11" class="edge">
<title>node845&#45;&gt;node1414</title>
<path fill="none" stroke="#3cb4a4" d="M280.8,-246.76C285.74,-241.63 290.32,-235.59 293,-229 305.7,-197.7 297.88,-158.41 289.97,-132.78"/>
<polygon fill="#3cb4a4" stroke="#3cb4a4" points="293.2,-131.42 286.74,-123.02 286.56,-133.62 293.2,-131.42"/>
<text text-anchor="middle" x="315.5" y="-174.3" font-family="arial" font-size="14.00" fill="#3cb4a4">value</text>
</g>
<!-- node1159&#45;&gt;node1414 -->
<g id="edge7" class="edge">
<title>node1159&#45;&gt;node1414</title>
<path fill="none" stroke="#da2d4f" stroke-width="2" d="M259.13,-160.89C262.31,-152.51 266.29,-142.05 269.92,-132.51"/>
<polygon fill="#da2d4f" stroke="#da2d4f" stroke-width="2" points="273.24,-133.63 273.52,-123.04 266.7,-131.14 273.24,-133.63"/>
</g>
<!-- node1378 -->
<g id="node7" class="node">
<title>node1378</title>
<polygon fill="#e98693" stroke="black" points="325.5,-36 234.5,-36 234.5,0 325.5,0 325.5,-36"/>
<text text-anchor="middle" x="280" y="-14.3" font-family="Arial" font-size="14.00" fill="#1a1919">1378 Return</text>
</g>
<!-- node1382&#45;&gt;node690 -->
<g id="edge10" class="edge">
<title>node1382&#45;&gt;node690</title>
<path fill="none" stroke="#da2d4f" stroke-width="2" d="M149.44,-408.86C161.36,-397.78 177.04,-383.21 190.19,-370.99"/>
<polygon fill="#da2d4f" stroke="#da2d4f" stroke-width="2" points="192.65,-373.48 197.59,-364.11 187.88,-368.35 192.65,-373.48"/>
</g>
<!-- node1414&#45;&gt;node1378 -->
<g id="edge8" class="edge">
<title>node1414&#45;&gt;node1378</title>
<path fill="none" stroke="#3cb4a4" d="M265.9,-86.84C262.28,-81.46 258.88,-75.27 257,-69 254.59,-60.93 256.56,-52.49 260.19,-44.89"/>
<polygon fill="#3cb4a4" stroke="#3cb4a4" points="263.29,-46.53 265.25,-36.12 257.22,-43.03 263.29,-46.53"/>
<text text-anchor="middle" x="274" y="-57.8" font-family="arial" font-size="14.00" fill="#3cb4a4">result</text>
</g>
<!-- node1414&#45;&gt;node1378 -->
<g id="edge12" class="edge">
<title>node1414&#45;&gt;node1378</title>
<path fill="none" stroke="#da2d4f" stroke-width="2" d="M286.55,-86.8C288.37,-81.21 290.09,-74.92 291,-69 292.17,-61.39 291.29,-53.2 289.61,-45.71"/>
<polygon fill="#da2d4f" stroke="#da2d4f" stroke-width="2" points="292.97,-44.74 286.94,-36.02 286.22,-46.59 292.97,-44.74"/>
</g>
<!-- node1415&#45;&gt;node512 -->
<g id="edge18" class="edge">
<title>node1415&#45;&gt;node512</title>
<path fill="none" stroke="#da2d4f" stroke-width="2" d="M75.07,-663.86C81.88,-653.3 90.75,-639.56 98.4,-627.71"/>
<polygon fill="#da2d4f" stroke="#da2d4f" stroke-width="2" points="101.47,-629.41 103.96,-619.11 95.59,-625.61 101.47,-629.41"/>
</g>
<!-- inline5x516 -->
<g id="node11" class="node">
<title>inline5x516</title>
<ellipse fill="#d7ede7" stroke="black" cx="201" cy="-601" rx="27" ry="18"/>
<text text-anchor="middle" x="201" y="-599.1" font-family="Arial" font-size="8.00" fill="#1a1919">5 C(0)</text>
</g>
<!-- inline5x516&#45;&gt;node516 -->
<g id="edge3" class="edge">
<title>inline5x516&#45;&gt;node516</title>
<path fill="none" stroke="#3cb4a4" d="M200.19,-582.8C199.49,-567.95 198.49,-546.64 197.79,-531.89"/>
<text text-anchor="middle" x="201" y="-555.6" font-family="arial" font-size="8.00" fill="#3cb4a4">y</text>
</g>
<!-- inline161x512 -->
<g id="node12" class="node">
<title>inline161x512</title>
<ellipse fill="#d7ede7" stroke="black" cx="166" cy="-682" rx="27.46" ry="18"/>
<text text-anchor="middle" x="166" y="-680.1" font-family="Arial" font-size="8.00" fill="#1a1919">161 T(7)</text>
</g>
<!-- inline161x512&#45;&gt;node512 -->
<g id="edge13" class="edge">
<title>inline161x512&#45;&gt;node512</title>
<path fill="none" stroke="#3cb4a4" d="M155.68,-665.01C147.06,-651.67 134.81,-632.69 126.01,-619.06"/>
<text text-anchor="middle" x="151.5" y="-639.6" font-family="arial" font-size="8.00" fill="#3cb4a4">value</text>
</g>
<!-- inline179x690 -->
<g id="node13" class="node">
<title>inline179x690</title>
<ellipse fill="#d7ede7" stroke="black" cx="302" cy="-427" rx="27.46" ry="18"/>
<text text-anchor="middle" x="302" y="-425.1" font-family="Arial" font-size="8.00" fill="#1a1919">179 T(8)</text>
</g>
<!-- inline179x690&#45;&gt;node690 -->
<g id="edge14" class="edge">
<title>inline179x690&#45;&gt;node690</title>
<path fill="none" stroke="#3cb4a4" d="M286.62,-411.88C272.03,-398.47 250.08,-378.31 234.53,-364.02"/>
<text text-anchor="middle" x="270.5" y="-384.6" font-family="arial" font-size="8.00" fill="#3cb4a4">value</text>
</g>
<!-- inline197x845 -->
<g id="node14" class="node">
<title>inline197x845</title>
<ellipse fill="#d7ede7" stroke="black" cx="302" cy="-346" rx="27.46" ry="18"/>
<text text-anchor="middle" x="302" y="-344.1" font-family="Arial" font-size="8.00" fill="#1a1919">197 T(9)</text>
</g>
<!-- inline197x845&#45;&gt;node845 -->
<g id="edge15" class="edge">
<title>inline197x845&#45;&gt;node845</title>
<path fill="none" stroke="#3cb4a4" d="M293.09,-328.63C285.86,-315.34 275.69,-296.67 268.34,-283.17"/>
<text text-anchor="middle" x="290.5" y="-303.6" font-family="arial" font-size="8.00" fill="#3cb4a4">value</text>
</g>
<!-- inline2x1415 -->
<g id="node15" class="node">
<title>inline2x1415</title>
<ellipse fill="#d7ede7" stroke="black" cx="101" cy="-763" rx="27" ry="18"/>
<text text-anchor="middle" x="101" y="-761.1" font-family="Arial" font-size="8.00" fill="#1a1919">2 P(1)</text>
</g>
<!-- inline2x1415&#45;&gt;node1415 -->
<g id="edge16" class="edge">
<title>inline2x1415&#45;&gt;node1415</title>
<path fill="none" stroke="#3cb4a4" d="M93.33,-745.63C87.11,-732.34 78.36,-713.67 72.04,-700.17"/>
<text text-anchor="middle" x="92.5" y="-720.6" font-family="arial" font-size="8.00" fill="#3cb4a4">array</text>
</g>
</g>
</svg>
