<?xml version="1.0" encoding="UTF-8" standalone="no"?>
<!DOCTYPE svg PUBLIC "-//W3C//DTD SVG 1.1//EN"
 "http://www.w3.org/Graphics/SVG/1.1/DTD/svg11.dtd">
<!-- Generated by graphviz version 2.44.1 (20200629.0846)
 -->
<!-- Title: G Pages: 1 -->
<svg width="603pt" height="540pt"
 viewBox="0.00 0.00 602.78 540.00" xmlns="http://www.w3.org/2000/svg" xmlns:xlink="http://www.w3.org/1999/xlink">
<g id="graph0" class="graph" transform="scale(1 1) rotate(0) translate(4 536)">
<title>G</title>
<!-- node0 -->
<g id="node1" class="node">
<title>node0</title>
<polygon fill="#e98693" stroke="black" points="522.78,-532 466.78,-532 466.78,-496 522.78,-496 522.78,-532"/>
<text text-anchor="middle" x="494.78" y="-510.3" font-family="Arial" font-size="14.00" fill="#1a1919">0 Start</text>
</g>
<!-- node1454 -->
<g id="node9" class="node">
<title>node1454</title>
<polygon fill="#da2d4f" stroke="black" points="588.28,-451 475.28,-451 475.28,-415 588.28,-415 588.28,-451"/>
<text text-anchor="middle" x="531.78" y="-429.3" font-family="Arial" font-size="14.00" fill="#ffffff">1454 Load T(...)</text>
</g>
<!-- node0&#45;&gt;node1454 -->
<g id="edge13" class="edge">
<title>node0&#45;&gt;node1454</title>
<path fill="none" stroke="#da2d4f" stroke-width="2" d="M502.8,-495.86C507.65,-485.51 513.93,-472.1 519.4,-460.41"/>
<polygon fill="#da2d4f" stroke="#da2d4f" stroke-width="2" points="522.69,-461.65 523.76,-451.11 516.35,-458.68 522.69,-461.65"/>
</g>
<!-- node545 -->
<g id="node2" class="node">
<title>node545</title>
<polygon fill="#f9f9f9" stroke="black" points="504.78,-370 422.78,-370 422.78,-334 504.78,-334 504.78,-370"/>
<text text-anchor="middle" x="463.78" y="-348.3" font-family="Arial" font-size="14.00" fill="#1a1919">545 Unbox</text>
</g>
<!-- node616 -->
<g id="node3" class="node">
<title>node616</title>
<polygon fill="#ffa500" stroke="black" points="405.78,-283 167.78,-283 167.78,-247 405.78,-247 405.78,-283"/>
<text text-anchor="middle" x="286.78" y="-261.3" font-family="Arial" font-size="14.00" fill="#1a1919">616 Guard, else ClassCastException</text>
</g>
<!-- node545&#45;&gt;node616 -->
<g id="edge1" class="edge">
<title>node545&#45;&gt;node616</title>
<path fill="none" stroke="#da2d4f" stroke-width="2" d="M427.96,-333.8C400.16,-320.45 361.45,-301.86 331.59,-287.52"/>
<polygon fill="#da2d4f" stroke="#da2d4f" stroke-width="2" points="332.77,-284.2 322.24,-283.03 329.74,-290.51 332.77,-284.2"/>
</g>
<!-- node1453 -->
<g id="node8" class="node">
<title>node1453</title>
<polygon fill="#f9f9f9" stroke="black" points="476.28,-123 281.28,-123 281.28,-87 476.28,-87 476.28,-123"/>
<text text-anchor="middle" x="378.78" y="-101.3" font-family="Arial" font-size="14.00" fill="#1a1919">1453 BoxNode$AllocatingBox</text>
</g>
<!-- node545&#45;&gt;node1453 -->
<g id="edge7" class="edge">
<title>node545&#45;&gt;node1453</title>
<path fill="none" stroke="#3cb4a4" d="M462.44,-333.84C459.21,-299.38 449.08,-219.93 420.78,-160 415.93,-149.75 408.86,-139.63 401.89,-130.97"/>
<polygon fill="#3cb4a4" stroke="#3cb4a4" points="404.44,-128.56 395.32,-123.16 399.08,-133.07 404.44,-128.56"/>
<text text-anchor="middle" x="461.28" y="-217.8" font-family="arial" font-size="14.00" fill="#3cb4a4">value</text>
</g>
<!-- node1430 -->
<g id="node7" class="node">
<title>node1430</title>
<polygon fill="#ffa500" stroke="black" points="412.28,-196 161.28,-196 161.28,-160 412.28,-160 412.28,-196"/>
<text text-anchor="middle" x="286.78" y="-174.3" font-family="Arial" font-size="14.00" fill="#1a1919">1430 Guard, else TransferToInterpreter</text>
</g>
<!-- node616&#45;&gt;node1430 -->
<g id="edge3" class="edge">
<title>node616&#45;&gt;node1430</title>
<path fill="none" stroke="#da2d4f" stroke-width="2" d="M286.78,-246.8C286.78,-235.16 286.78,-219.55 286.78,-206.24"/>
<polygon fill="#da2d4f" stroke="#da2d4f" stroke-width="2" points="290.28,-206.18 286.78,-196.18 283.28,-206.18 290.28,-206.18"/>
</g>
<!-- node617 -->
<g id="node4" class="node">
<title>node617</title>
<polygon fill="#f9f9f9" stroke="black" points="404.28,-370 85.28,-370 85.28,-334 404.28,-334 404.28,-370"/>
<text text-anchor="middle" x="244.78" y="-348.3" font-family="Arial" font-size="14.00" fill="#1a1919">617 InstanceOf org/truffleruby/core/proc/RubyProc</text>
</g>
<!-- node617&#45;&gt;node616 -->
<g id="edge2" class="edge">
<title>node617&#45;&gt;node616</title>
<path fill="none" stroke="#3cb4a4" d="M253.27,-333.8C259.14,-321.93 267.05,-305.93 273.71,-292.45"/>
<polygon fill="#3cb4a4" stroke="#3cb4a4" points="277,-293.69 278.29,-283.18 270.72,-290.59 277,-293.69"/>
<text text-anchor="middle" x="272.78" y="-304.8" font-family="arial" font-size="14.00" fill="#3cb4a4">?</text>
</g>
<!-- node623 -->
<g id="node5" class="node">
<title>node623</title>
<polygon fill="#3cb4a4" stroke="black" points="70.78,-283 0.22,-265 70.78,-247 141.33,-265 70.78,-283"/>
<text text-anchor="middle" x="70.78" y="-261.3" font-family="Arial" font-size="14.00" fill="#1a1919">623 IsNull</text>
</g>
<!-- node623&#45;&gt;node1430 -->
<g id="edge5" class="edge">
<title>node623&#45;&gt;node1430</title>
<path fill="none" stroke="#3cb4a4" d="M97.26,-253.58C131.09,-240.27 190.43,-216.91 233.71,-199.88"/>
<polygon fill="#3cb4a4" stroke="#3cb4a4" points="235.22,-203.05 243.24,-196.13 232.66,-196.54 235.22,-203.05"/>
<text text-anchor="middle" x="195.78" y="-217.8" font-family="arial" font-size="14.00" fill="#3cb4a4">?</text>
</g>
<!-- node1425 -->
<g id="node6" class="node">
<title>node1425</title>
<polygon fill="#e98693" stroke="black" points="424.28,-36 333.28,-36 333.28,0 424.28,0 424.28,-36"/>
<text text-anchor="middle" x="378.78" y="-14.3" font-family="Arial" font-size="14.00" fill="#1a1919">1425 Return</text>
</g>
<!-- node1430&#45;&gt;node1453 -->
<g id="edge6" class="edge">
<title>node1430&#45;&gt;node1453</title>
<path fill="none" stroke="#da2d4f" stroke-width="2" d="M309.05,-159.81C320.91,-150.66 335.68,-139.26 348.56,-129.32"/>
<polygon fill="#da2d4f" stroke="#da2d4f" stroke-width="2" points="350.93,-131.91 356.71,-123.03 346.65,-126.37 350.93,-131.91"/>
</g>
<!-- node1453&#45;&gt;node1425 -->
<g id="edge4" class="edge">
<title>node1453&#45;&gt;node1425</title>
<path fill="none" stroke="#3cb4a4" d="M364.67,-86.84C361.05,-81.46 357.65,-75.27 355.78,-69 353.36,-60.93 355.34,-52.49 358.97,-44.89"/>
<polygon fill="#3cb4a4" stroke="#3cb4a4" points="362.06,-46.53 364.03,-36.12 356,-43.03 362.06,-46.53"/>
<text text-anchor="middle" x="372.78" y="-57.8" font-family="arial" font-size="14.00" fill="#3cb4a4">result</text>
</g>
<!-- node1453&#45;&gt;node1425 -->
<g id="edge8" class="edge">
<title>node1453&#45;&gt;node1425</title>
<path fill="none" stroke="#da2d4f" stroke-width="2" d="M385.72,-86.98C388.84,-77.35 391.47,-65.07 389.78,-54 389.36,-51.32 388.78,-48.56 388.11,-45.83"/>
<polygon fill="#da2d4f" stroke="#da2d4f" stroke-width="2" points="391.46,-44.83 385.32,-36.2 384.74,-46.78 391.46,-44.83"/>
</g>
<!-- node1454&#45;&gt;node545 -->
<g id="edge14" class="edge">
<title>node1454&#45;&gt;node545</title>
<path fill="none" stroke="#da2d4f" stroke-width="2" d="M517.02,-414.86C507.75,-404.09 495.64,-390.02 485.31,-378.02"/>
<polygon fill="#da2d4f" stroke="#da2d4f" stroke-width="2" points="487.68,-375.4 478.5,-370.11 482.37,-379.97 487.68,-375.4"/>
</g>
<!-- inline158x617 -->
<g id="node10" class="node">
<title>inline158x617</title>
<ellipse fill="#d7ede7" stroke="black" cx="244.78" cy="-433" rx="27.46" ry="18"/>
<text text-anchor="middle" x="244.78" y="-431.1" font-family="Arial" font-size="8.00" fill="#1a1919">158 T(7)</text>
</g>
<!-- inline158x617&#45;&gt;node617 -->
<g id="edge9" class="edge">
<title>inline158x617&#45;&gt;node617</title>
<path fill="none" stroke="#3cb4a4" d="M244.78,-414.86C244.78,-401.61 244.78,-383.35 244.78,-370.11"/>
<text text-anchor="middle" x="254.28" y="-390.6" font-family="arial" font-size="8.00" fill="#3cb4a4">value</text>
</g>
<!-- inline158x623 -->
<g id="node11" class="node">
<title>inline158x623</title>
<ellipse fill="#d7ede7" stroke="black" cx="39.78" cy="-352" rx="27.46" ry="18"/>
<text text-anchor="middle" x="39.78" y="-350.1" font-family="Arial" font-size="8.00" fill="#1a1919">158 T(7)</text>
</g>
<!-- inline158x623&#45;&gt;node623 -->
<g id="edge10" class="edge">
<title>inline158x623&#45;&gt;node623</title>
<path fill="none" stroke="#3cb4a4" d="M45.9,-334.21C51.48,-318.92 59.64,-296.52 65.08,-281.61"/>
<text text-anchor="middle" x="67.28" y="-306.6" font-family="arial" font-size="8.00" fill="#3cb4a4">value</text>
</g>
<!-- inline173x545 -->
<g id="node12" class="node">
<title>inline173x545</title>
<ellipse fill="#d7ede7" stroke="black" cx="429.78" cy="-433" rx="27.46" ry="18"/>
<text text-anchor="middle" x="429.78" y="-431.1" font-family="Arial" font-size="8.00" fill="#1a1919">173 T(8)</text>
</g>
<!-- inline173x545&#45;&gt;node545 -->
<g id="edge11" class="edge">
<title>inline173x545&#45;&gt;node545</title>
<path fill="none" stroke="#3cb4a4" d="M436.99,-415.25C442.72,-401.93 450.7,-383.38 456.46,-370"/>
<text text-anchor="middle" x="458.28" y="-390.6" font-family="arial" font-size="8.00" fill="#3cb4a4">value</text>
</g>
<!-- inline2x1454 -->
<g id="node13" class="node">
<title>inline2x1454</title>
<ellipse fill="#d7ede7" stroke="black" cx="567.78" cy="-514" rx="27" ry="18"/>
<text text-anchor="middle" x="567.78" y="-512.1" font-family="Arial" font-size="8.00" fill="#1a1919">2 P(1)</text>
</g>
<!-- inline2x1454&#45;&gt;node1454 -->
<g id="edge12" class="edge">
<title>inline2x1454&#45;&gt;node1454</title>
<path fill="none" stroke="#3cb4a4" d="M560.32,-496.63C554.26,-483.34 545.75,-464.67 539.6,-451.17"/>
<text text-anchor="middle" x="561.28" y="-471.6" font-family="arial" font-size="8.00" fill="#3cb4a4">array</text>
</g>
</g>
</svg>
