<?xml version="1.0" encoding="UTF-8" standalone="no"?>
<!DOCTYPE svg PUBLIC "-//W3C//DTD SVG 1.1//EN"
 "http://www.w3.org/Graphics/SVG/1.1/DTD/svg11.dtd">
<!-- Generated by graphviz version 2.44.1 (20200629.0846)
 -->
<!-- Title: G Pages: 1 -->
<svg width="638pt" height="1048pt"
 viewBox="0.00 0.00 637.51 1048.00" xmlns="http://www.w3.org/2000/svg" xmlns:xlink="http://www.w3.org/1999/xlink">
<g id="graph0" class="graph" transform="scale(1 1) rotate(0) translate(4 1044)">
<title>G</title>
<!-- node0 -->
<g id="node1" class="node">
<title>node0</title>
<polygon fill="#e98693" stroke="black" points="457,-1040 401,-1040 401,-1004 457,-1004 457,-1040"/>
<text text-anchor="middle" x="429" y="-1018.3" font-family="Arial" font-size="14.00" fill="#1a1919">0 Start</text>
</g>
<!-- node2040 -->
<g id="node19" class="node">
<title>node2040</title>
<polygon fill="#da2d4f" stroke="black" points="522.5,-959 409.5,-959 409.5,-923 522.5,-923 522.5,-959"/>
<text text-anchor="middle" x="466" y="-937.3" font-family="Arial" font-size="14.00" fill="#ffffff">2040 Load T(...)</text>
</g>
<!-- node0&#45;&gt;node2040 -->
<g id="edge32" class="edge">
<title>node0&#45;&gt;node2040</title>
<path fill="none" stroke="#da2d4f" stroke-width="2" d="M437.03,-1003.86C441.88,-993.51 448.16,-980.1 453.63,-968.41"/>
<polygon fill="#da2d4f" stroke="#da2d4f" stroke-width="2" points="456.92,-969.65 457.99,-959.11 450.58,-966.68 456.92,-969.65"/>
</g>
<!-- node590 -->
<g id="node2" class="node">
<title>node590</title>
<polygon fill="#f9f9f9" stroke="black" points="527,-878 445,-878 445,-842 527,-842 527,-878"/>
<text text-anchor="middle" x="486" y="-856.3" font-family="Arial" font-size="14.00" fill="#1a1919">590 Unbox</text>
</g>
<!-- node1733 -->
<g id="node7" class="node">
<title>node1733</title>
<polygon fill="#3cb4a4" stroke="black" points="474,-631 419.54,-613 474,-595 528.46,-613 474,-631"/>
<text text-anchor="middle" x="474" y="-609.3" font-family="Arial" font-size="14.00" fill="#1a1919">1733 &lt;</text>
</g>
<!-- node590&#45;&gt;node1733 -->
<g id="edge7" class="edge">
<title>node590&#45;&gt;node1733</title>
<path fill="none" stroke="#3cb4a4" d="M485.16,-841.77C483.1,-799.76 477.81,-691.79 475.33,-641.07"/>
<polygon fill="#3cb4a4" stroke="#3cb4a4" points="478.81,-640.7 474.83,-630.88 471.82,-641.04 478.81,-640.7"/>
<text text-anchor="middle" x="483.5" y="-725.8" font-family="arial" font-size="14.00" fill="#3cb4a4">y</text>
</g>
<!-- node1960 -->
<g id="node16" class="node">
<title>node1960</title>
<polygon fill="#ffa500" stroke="black" points="457.5,-791 206.5,-791 206.5,-755 457.5,-755 457.5,-791"/>
<text text-anchor="middle" x="332" y="-769.3" font-family="Arial" font-size="14.00" fill="#1a1919">1960 Guard, else TransferToInterpreter</text>
</g>
<!-- node590&#45;&gt;node1960 -->
<g id="edge1" class="edge">
<title>node590&#45;&gt;node1960</title>
<path fill="none" stroke="#da2d4f" stroke-width="2" d="M454.84,-841.8C430.86,-828.56 397.55,-810.18 371.67,-795.9"/>
<polygon fill="#da2d4f" stroke="#da2d4f" stroke-width="2" points="373.3,-792.8 362.85,-791.03 369.92,-798.93 373.3,-792.8"/>
</g>
<!-- node2039 -->
<g id="node18" class="node">
<title>node2039</title>
<polygon fill="#f9f9f9" stroke="black" points="565.5,-384 370.5,-384 370.5,-348 565.5,-348 565.5,-384"/>
<text text-anchor="middle" x="468" y="-362.3" font-family="Arial" font-size="14.00" fill="#1a1919">2039 BoxNode$AllocatingBox</text>
</g>
<!-- node590&#45;&gt;node2039 -->
<g id="edge27" class="edge">
<title>node590&#45;&gt;node2039</title>
<path fill="none" stroke="#3cb4a4" d="M516.38,-841.91C538.28,-827.1 564,-803.44 564,-774 564,-774 564,-774 564,-438 564,-415.98 547.47,-400.01 528.13,-388.86"/>
<polygon fill="#3cb4a4" stroke="#3cb4a4" points="529.57,-385.66 519.09,-384.07 526.29,-391.84 529.57,-385.66"/>
<text text-anchor="middle" x="580.5" y="-609.3" font-family="arial" font-size="14.00" fill="#3cb4a4">value</text>
</g>
<!-- node1212 -->
<g id="node3" class="node">
<title>node1212</title>
<polygon fill="#3cb4a4" stroke="black" points="332,-878 270.33,-860 332,-842 393.67,-860 332,-878"/>
<text text-anchor="middle" x="332" y="-856.3" font-family="Arial" font-size="14.00" fill="#1a1919">1212 ==</text>
</g>
<!-- node1212&#45;&gt;node1960 -->
<g id="edge22" class="edge">
<title>node1212&#45;&gt;node1960</title>
<path fill="none" stroke="#3cb4a4" d="M332,-841.8C332,-830.16 332,-814.55 332,-801.24"/>
<polygon fill="#3cb4a4" stroke="#3cb4a4" points="335.5,-801.18 332,-791.18 328.5,-801.18 335.5,-801.18"/>
<text text-anchor="middle" x="336" y="-812.8" font-family="arial" font-size="14.00" fill="#3cb4a4">?</text>
</g>
<!-- node1618 -->
<g id="node4" class="node">
<title>node1618</title>
<polygon fill="#e98693" stroke="black" points="570.5,-297 479.5,-297 479.5,-261 570.5,-261 570.5,-297"/>
<text text-anchor="middle" x="525" y="-275.3" font-family="Arial" font-size="14.00" fill="#1a1919">1618 Return</text>
</g>
<!-- node1707 -->
<g id="node5" class="node">
<title>node1707</title>
<polygon fill="#e98693" stroke="black" points="369,-704 295,-704 295,-668 369,-668 369,-704"/>
<text text-anchor="middle" x="332" y="-682.3" font-family="Arial" font-size="14.00" fill="#1a1919">1707 End</text>
</g>
<!-- node1708 -->
<g id="node6" class="node">
<title>node1708</title>
<polygon fill="#e98693" stroke="black" points="389.5,-631 274.5,-631 274.5,-595 389.5,-595 389.5,-631"/>
<text text-anchor="middle" x="332" y="-609.3" font-family="Arial" font-size="14.00" fill="#1a1919">1708 LoopBegin</text>
</g>
<!-- node1707&#45;&gt;node1708 -->
<g id="edge4" class="edge">
<title>node1707&#45;&gt;node1708</title>
<path fill="none" stroke="#da2d4f" stroke-width="2" d="M332,-667.81C332,-659.79 332,-650.05 332,-641.07"/>
<polygon fill="#da2d4f" stroke="#da2d4f" stroke-width="2" points="335.5,-641.03 332,-631.03 328.5,-641.03 335.5,-641.03"/>
</g>
<!-- node1738 -->
<g id="node8" class="node">
<title>node1738</title>
<polygon fill="#e98693" stroke="black" points="445,-544 387,-544 387,-508 445,-508 445,-544"/>
<text text-anchor="middle" x="416" y="-522.3" font-family="Arial" font-size="14.00" fill="#1a1919">1738 If</text>
</g>
<!-- node1708&#45;&gt;node1738 -->
<g id="edge5" class="edge">
<title>node1708&#45;&gt;node1738</title>
<path fill="none" stroke="#da2d4f" stroke-width="2" d="M349,-594.8C361.3,-582.36 378.09,-565.36 391.78,-551.5"/>
<polygon fill="#da2d4f" stroke="#da2d4f" stroke-width="2" points="394.49,-553.75 399.03,-544.18 389.51,-548.83 394.49,-553.75"/>
</g>
<!-- node2008 -->
<g id="node17" class="node">
<title>node2008</title>
<polygon fill="#f9f9f9" stroke="black" points="318,-123 260,-123 260,-87 318,-87 318,-123"/>
<text text-anchor="middle" x="289" y="-101.3" font-family="Arial" font-size="14.00" fill="#1a1919">2008 ϕ</text>
</g>
<!-- node1708&#45;&gt;node2008 -->
<g id="edge24" class="edge">
<title>node1708&#45;&gt;node2008</title>
<path fill="none" stroke="#343d46" stroke-dasharray="5,2" d="M264.13,-608.32C167.02,-601.17 0,-581.02 0,-527 0,-527 0,-527 0,-191 0,-137.2 186.68,-114.97 259.97,-108.32"/>
<polygon fill="#343d46" stroke="#343d46" points="263.95,-611.82 274.17,-609.03 264.44,-604.83 263.95,-611.82"/>
</g>
<!-- node1733&#45;&gt;node1738 -->
<g id="edge8" class="edge">
<title>node1733&#45;&gt;node1738</title>
<path fill="none" stroke="#3cb4a4" d="M464.42,-597.96C456.03,-585.67 443.62,-567.48 433.47,-552.6"/>
<polygon fill="#3cb4a4" stroke="#3cb4a4" points="436.33,-550.58 427.8,-544.29 430.54,-554.52 436.33,-550.58"/>
<text text-anchor="middle" x="453" y="-565.8" font-family="arial" font-size="14.00" fill="#3cb4a4">?</text>
</g>
<!-- node1741 -->
<g id="node9" class="node">
<title>node1741</title>
<polygon fill="#e98693" stroke="black" points="381.5,-457 296.5,-457 296.5,-421 381.5,-421 381.5,-457"/>
<text text-anchor="middle" x="339" y="-435.3" font-family="Arial" font-size="14.00" fill="#1a1919">1741 Begin</text>
</g>
<!-- node1738&#45;&gt;node1741 -->
<g id="edge9" class="edge">
<title>node1738&#45;&gt;node1741</title>
<path fill="none" stroke="#da2d4f" stroke-width="2" d="M400.42,-507.8C389.25,-495.47 374.04,-478.68 361.55,-464.89"/>
<polygon fill="#da2d4f" stroke="#da2d4f" stroke-width="2" points="363.87,-462.24 354.56,-457.18 358.68,-466.94 363.87,-462.24"/>
<text text-anchor="middle" x="387.5" y="-478.8" font-family="arial" font-size="14.00" fill="#da2d4f">T</text>
</g>
<!-- node1858 -->
<g id="node13" class="node">
<title>node1858</title>
<polygon fill="#e98693" stroke="black" points="505.5,-457 402.5,-457 402.5,-421 505.5,-421 505.5,-457"/>
<text text-anchor="middle" x="454" y="-435.3" font-family="Arial" font-size="14.00" fill="#1a1919">1858 LoopExit</text>
</g>
<!-- node1738&#45;&gt;node1858 -->
<g id="edge10" class="edge">
<title>node1738&#45;&gt;node1858</title>
<path fill="none" stroke="#da2d4f" stroke-width="2" d="M423.69,-507.8C429,-495.93 436.15,-479.93 442.18,-466.45"/>
<polygon fill="#da2d4f" stroke="#da2d4f" stroke-width="2" points="445.44,-467.73 446.32,-457.18 439.04,-464.88 445.44,-467.73"/>
<text text-anchor="middle" x="442.5" y="-478.8" font-family="arial" font-size="14.00" fill="#da2d4f">F</text>
</g>
<!-- node1947 -->
<g id="node15" class="node">
<title>node1947</title>
<ellipse fill="black" stroke="black" cx="328" cy="-366" rx="18" ry="18"/>
</g>
<!-- node1741&#45;&gt;node1947 -->
<g id="edge11" class="edge">
<title>node1741&#45;&gt;node1947</title>
<path fill="none" stroke="#da2d4f" stroke-width="2" d="M336.34,-420.81C335.09,-412.79 333.58,-403.05 332.19,-394.07"/>
<polygon fill="#da2d4f" stroke="#da2d4f" stroke-width="2" points="335.63,-393.38 330.64,-384.03 328.71,-394.45 335.63,-393.38"/>
</g>
<!-- node1834 -->
<g id="node10" class="node">
<title>node1834</title>
<polygon fill="#ffa500" stroke="black" points="461,-297 195,-297 195,-261 461,-261 461,-297"/>
<text text-anchor="middle" x="328" y="-275.3" font-family="Arial" font-size="14.00" fill="#1a1919">1834 Guard not, else ArithmeticException</text>
</g>
<!-- node1837 -->
<g id="node12" class="node">
<title>node1837</title>
<polygon fill="#3cb4a4" stroke="black" points="204,-210 66.25,-192 204,-174 341.75,-192 204,-210"/>
<text text-anchor="middle" x="204" y="-188.3" font-family="Arial" font-size="14.00" fill="#1a1919">1837 IntegerAddExact</text>
</g>
<!-- node1834&#45;&gt;node1837 -->
<g id="edge18" class="edge">
<title>node1834&#45;&gt;node1837</title>
<path fill="none" stroke="#3cb4a4" d="M302.91,-260.8C282.75,-246.98 254.42,-227.56 233.24,-213.05"/>
<polygon fill="#3cb4a4" stroke="#3cb4a4" points="235.17,-210.12 224.94,-207.35 231.21,-215.89 235.17,-210.12"/>
<text text-anchor="middle" x="291.5" y="-231.8" font-family="arial" font-size="14.00" fill="#3cb4a4">guard</text>
</g>
<!-- node1860 -->
<g id="node14" class="node">
<title>node1860</title>
<polygon fill="#e98693" stroke="black" points="574,-210 470,-210 470,-174 574,-174 574,-210"/>
<text text-anchor="middle" x="522" y="-188.3" font-family="Arial" font-size="14.00" fill="#1a1919">1860 LoopEnd</text>
</g>
<!-- node1834&#45;&gt;node1860 -->
<g id="edge13" class="edge">
<title>node1834&#45;&gt;node1860</title>
<path fill="none" stroke="#da2d4f" stroke-width="2" d="M408.93,-260.91C424.95,-256.14 441.33,-250.23 456,-243 470.01,-236.1 484.01,-226.05 495.49,-216.77"/>
<polygon fill="#da2d4f" stroke="#da2d4f" stroke-width="2" points="497.93,-219.3 503.37,-210.2 493.45,-213.92 497.93,-219.3"/>
</g>
<!-- node1835 -->
<g id="node11" class="node">
<title>node1835</title>
<polygon fill="#3cb4a4" stroke="black" points="442,-36 254.48,-18 442,0 629.52,-18 442,-36"/>
<text text-anchor="middle" x="442" y="-14.3" font-family="Arial" font-size="14.00" fill="#1a1919">1835 IntegerAddExactOverflow</text>
</g>
<!-- node1835&#45;&gt;node1834 -->
<g id="edge12" class="edge">
<title>node1835&#45;&gt;node1834</title>
<path fill="none" stroke="#3cb4a4" d="M444.71,-35.97C449.43,-71.12 455.78,-153.32 423,-210 411.83,-229.31 392.72,-244.58 374.55,-255.72"/>
<polygon fill="#3cb4a4" stroke="#3cb4a4" points="372.63,-252.79 365.75,-260.86 376.15,-258.84 372.63,-252.79"/>
<text text-anchor="middle" x="450" y="-144.8" font-family="arial" font-size="14.00" fill="#3cb4a4">?</text>
</g>
<!-- node1837&#45;&gt;node2008 -->
<g id="edge26" class="edge">
<title>node1837&#45;&gt;node2008</title>
<path fill="none" stroke="#3cb4a4" d="M198.15,-174.33C195.59,-163.89 194.46,-150.64 201,-141 212.06,-124.7 232.04,-115.99 250.17,-111.34"/>
<polygon fill="#3cb4a4" stroke="#3cb4a4" points="250.99,-114.74 259.99,-109.15 249.47,-107.91 250.99,-114.74"/>
<text text-anchor="middle" x="232" y="-144.8" font-family="arial" font-size="14.00" fill="#3cb4a4">from 1860</text>
</g>
<!-- node1858&#45;&gt;node2039 -->
<g id="edge19" class="edge">
<title>node1858&#45;&gt;node2039</title>
<path fill="none" stroke="#da2d4f" stroke-width="2" d="M457.39,-420.81C458.97,-412.79 460.89,-403.05 462.66,-394.07"/>
<polygon fill="#da2d4f" stroke="#da2d4f" stroke-width="2" points="466.14,-394.52 464.64,-384.03 459.27,-393.16 466.14,-394.52"/>
</g>
<!-- node1947&#45;&gt;node1834 -->
<g id="edge21" class="edge">
<title>node1947&#45;&gt;node1834</title>
<path fill="none" stroke="#da2d4f" stroke-width="2" d="M328,-347.8C328,-336.16 328,-320.55 328,-307.24"/>
<polygon fill="#da2d4f" stroke="#da2d4f" stroke-width="2" points="331.5,-307.18 328,-297.18 324.5,-307.18 331.5,-307.18"/>
</g>
<!-- node1960&#45;&gt;node1707 -->
<g id="edge23" class="edge">
<title>node1960&#45;&gt;node1707</title>
<path fill="none" stroke="#da2d4f" stroke-width="2" d="M332,-754.8C332,-743.16 332,-727.55 332,-714.24"/>
<polygon fill="#da2d4f" stroke="#da2d4f" stroke-width="2" points="335.5,-714.18 332,-704.18 328.5,-714.18 335.5,-714.18"/>
</g>
<!-- node2008&#45;&gt;node1733 -->
<g id="edge6" class="edge">
<title>node2008&#45;&gt;node1733</title>
<path fill="none" stroke="#3cb4a4" d="M318.14,-116.48C354.78,-129.52 415.71,-150.72 439,-156 470.45,-163.13 558.24,-153.34 583,-174 604.64,-192.06 602,-206.32 602,-234.5 602,-403 602,-403 602,-403 602,-482.91 533.12,-558.05 496.41,-592.42"/>
<polygon fill="#3cb4a4" stroke="#3cb4a4" points="493.69,-590.16 488.68,-599.5 498.42,-595.32 493.69,-590.16"/>
<text text-anchor="middle" x="605.5" y="-362.3" font-family="arial" font-size="14.00" fill="#3cb4a4">x</text>
</g>
<!-- node2008&#45;&gt;node1835 -->
<g id="edge14" class="edge">
<title>node2008&#45;&gt;node1835</title>
<path fill="none" stroke="#3cb4a4" d="M318.14,-87.81C343.34,-73.81 379.86,-53.52 406.72,-38.6"/>
<polygon fill="#3cb4a4" stroke="#3cb4a4" points="408.74,-41.48 415.78,-33.57 405.34,-35.36 408.74,-41.48"/>
<text text-anchor="middle" x="378.5" y="-57.8" font-family="arial" font-size="14.00" fill="#3cb4a4">x</text>
</g>
<!-- node2008&#45;&gt;node1837 -->
<g id="edge16" class="edge">
<title>node2008&#45;&gt;node1837</title>
<path fill="none" stroke="#3cb4a4" d="M284.45,-123.32C281.02,-133.74 275.43,-146.75 267,-156 260.88,-162.72 253.15,-168.44 245.23,-173.2"/>
<polygon fill="#3cb4a4" stroke="#3cb4a4" points="243.34,-170.25 236.28,-178.15 246.73,-176.37 243.34,-170.25"/>
<text text-anchor="middle" x="280.5" y="-144.8" font-family="arial" font-size="14.00" fill="#3cb4a4">x</text>
</g>
<!-- node2008&#45;&gt;node1947 -->
<g id="edge20" class="edge">
<title>node2008&#45;&gt;node1947</title>
<path fill="none" stroke="#3cb4a4" d="M259.94,-110.16C203.3,-118.94 81.53,-141.25 57,-174 47.41,-186.81 52.42,-194.67 57,-210 70.22,-254.3 77.18,-269.05 114,-297 170.97,-340.24 256.18,-356.43 299.91,-362.13"/>
<polygon fill="#3cb4a4" stroke="#3cb4a4" points="299.74,-365.63 310.09,-363.36 300.58,-358.69 299.74,-365.63"/>
<text text-anchor="middle" x="84.5" y="-231.8" font-family="arial" font-size="14.00" fill="#3cb4a4">value</text>
</g>
<!-- node2039&#45;&gt;node1618 -->
<g id="edge3" class="edge">
<title>node2039&#45;&gt;node1618</title>
<path fill="none" stroke="#3cb4a4" d="M467.53,-347.65C468.01,-337.46 469.98,-324.72 476,-315 478.55,-310.88 481.78,-307.11 485.36,-303.69"/>
<polygon fill="#3cb4a4" stroke="#3cb4a4" points="487.71,-306.3 493.1,-297.18 483.2,-300.94 487.71,-306.3"/>
<text text-anchor="middle" x="493" y="-318.8" font-family="arial" font-size="14.00" fill="#3cb4a4">result</text>
</g>
<!-- node2039&#45;&gt;node1618 -->
<g id="edge28" class="edge">
<title>node2039&#45;&gt;node1618</title>
<path fill="none" stroke="#da2d4f" stroke-width="2" d="M493.45,-347.84C499.57,-342.71 505.61,-336.65 510,-330 514.52,-323.16 517.71,-314.92 519.96,-307.12"/>
<polygon fill="#da2d4f" stroke="#da2d4f" stroke-width="2" points="523.39,-307.82 522.39,-297.27 516.6,-306.14 523.39,-307.82"/>
</g>
<!-- node2040&#45;&gt;node590 -->
<g id="edge33" class="edge">
<title>node2040&#45;&gt;node590</title>
<path fill="none" stroke="#da2d4f" stroke-width="2" d="M470.34,-922.86C472.91,-912.71 476.22,-899.63 479.13,-888.12"/>
<polygon fill="#da2d4f" stroke="#da2d4f" stroke-width="2" points="482.61,-888.66 481.67,-878.11 475.82,-886.94 482.61,-888.66"/>
</g>
<!-- inline1211x1212 -->
<g id="node20" class="node">
<title>inline1211x1212</title>
<ellipse fill="#d7ede7" stroke="black" cx="203" cy="-941" rx="89.74" ry="18"/>
<text text-anchor="middle" x="203" y="-939.1" font-family="Arial" font-size="8.00" fill="#1a1919">1211 C(DeclarationContext@4f369572)</text>
</g>
<!-- inline1211x1212&#45;&gt;node1212 -->
<g id="edge2" class="edge">
<title>inline1211x1212&#45;&gt;node1212</title>
<path fill="none" stroke="#3cb4a4" d="M229.73,-923.63C254.53,-908.45 290.82,-886.22 312.84,-872.73"/>
<text text-anchor="middle" x="274" y="-898.6" font-family="arial" font-size="8.00" fill="#3cb4a4">y</text>
</g>
<!-- inline23x1835 -->
<g id="node21" class="node">
<title>inline23x1835</title>
<ellipse fill="#d7ede7" stroke="black" cx="497" cy="-105" rx="27" ry="18"/>
<text text-anchor="middle" x="497" y="-103.1" font-family="Arial" font-size="8.00" fill="#1a1919">23 C(1)</text>
</g>
<!-- inline23x1835&#45;&gt;node1835 -->
<g id="edge15" class="edge">
<title>inline23x1835&#45;&gt;node1835</title>
<path fill="none" stroke="#3cb4a4" d="M486.65,-88.01C476.88,-72.91 462.3,-50.38 452.49,-35.21"/>
<text text-anchor="middle" x="475" y="-59.6" font-family="arial" font-size="8.00" fill="#3cb4a4">y</text>
</g>
<!-- inline23x1837 -->
<g id="node22" class="node">
<title>inline23x1837</title>
<ellipse fill="#d7ede7" stroke="black" cx="150" cy="-279" rx="27" ry="18"/>
<text text-anchor="middle" x="150" y="-277.1" font-family="Arial" font-size="8.00" fill="#1a1919">23 C(1)</text>
</g>
<!-- inline23x1837&#45;&gt;node1837 -->
<g id="edge17" class="edge">
<title>inline23x1837&#45;&gt;node1837</title>
<path fill="none" stroke="#3cb4a4" d="M160.16,-262.01C169.81,-246.82 184.25,-224.09 193.89,-208.92"/>
<text text-anchor="middle" x="183" y="-233.6" font-family="arial" font-size="8.00" fill="#3cb4a4">y</text>
</g>
<!-- inline5x2008 -->
<g id="node23" class="node">
<title>inline5x2008</title>
<ellipse fill="#d7ede7" stroke="black" cx="387" cy="-192" rx="27" ry="18"/>
<text text-anchor="middle" x="387" y="-190.1" font-family="Arial" font-size="8.00" fill="#1a1919">5 C(0)</text>
</g>
<!-- inline5x2008&#45;&gt;node2008 -->
<g id="edge25" class="edge">
<title>inline5x2008&#45;&gt;node2008</title>
<path fill="none" stroke="#3cb4a4" d="M371.25,-177.34C354.27,-162.61 327.18,-139.11 308.77,-123.15"/>
<text text-anchor="middle" x="362.5" y="-146.6" font-family="arial" font-size="8.00" fill="#3cb4a4">from 1707</text>
</g>
<!-- inline92x1212 -->
<g id="node24" class="node">
<title>inline92x1212</title>
<ellipse fill="#d7ede7" stroke="black" cx="338" cy="-941" rx="27" ry="18"/>
<text text-anchor="middle" x="338" y="-939.1" font-family="Arial" font-size="8.00" fill="#1a1919">92 T(3)</text>
</g>
<!-- inline92x1212&#45;&gt;node1212 -->
<g id="edge29" class="edge">
<title>inline92x1212&#45;&gt;node1212</title>
<path fill="none" stroke="#3cb4a4" d="M336.7,-922.86C335.68,-909.52 334.29,-891.1 333.28,-877.84"/>
<text text-anchor="middle" x="338" y="-898.6" font-family="arial" font-size="8.00" fill="#3cb4a4">x</text>
</g>
<!-- inline161x590 -->
<g id="node25" class="node">
<title>inline161x590</title>
<ellipse fill="#d7ede7" stroke="black" cx="568" cy="-941" rx="27.46" ry="18"/>
<text text-anchor="middle" x="568" y="-939.1" font-family="Arial" font-size="8.00" fill="#1a1919">161 T(7)</text>
</g>
<!-- inline161x590&#45;&gt;node590 -->
<g id="edge30" class="edge">
<title>inline161x590&#45;&gt;node590</title>
<path fill="none" stroke="#3cb4a4" d="M552.96,-925.51C539.09,-912.15 518.48,-892.3 503.8,-878.15"/>
<text text-anchor="middle" x="538.5" y="-898.6" font-family="arial" font-size="8.00" fill="#3cb4a4">value</text>
</g>
<!-- inline2x2040 -->
<g id="node26" class="node">
<title>inline2x2040</title>
<ellipse fill="#d7ede7" stroke="black" cx="502" cy="-1022" rx="27" ry="18"/>
<text text-anchor="middle" x="502" y="-1020.1" font-family="Arial" font-size="8.00" fill="#1a1919">2 P(1)</text>
</g>
<!-- inline2x2040&#45;&gt;node2040 -->
<g id="edge31" class="edge">
<title>inline2x2040&#45;&gt;node2040</title>
<path fill="none" stroke="#3cb4a4" d="M494.54,-1004.63C488.49,-991.34 479.97,-972.67 473.82,-959.17"/>
<text text-anchor="middle" x="495.5" y="-979.6" font-family="arial" font-size="8.00" fill="#3cb4a4">array</text>
</g>
</g>
</svg>
