<?xml version="1.0" encoding="UTF-8" standalone="no"?>
<!DOCTYPE svg PUBLIC "-//W3C//DTD SVG 1.1//EN"
 "http://www.w3.org/Graphics/SVG/1.1/DTD/svg11.dtd">
<!-- Generated by graphviz version 2.44.1 (20200629.0846)
 -->
<!-- Title: G Pages: 1 -->
<svg width="798pt" height="1959pt"
 viewBox="0.00 0.00 797.50 1959.00" xmlns="http://www.w3.org/2000/svg" xmlns:xlink="http://www.w3.org/1999/xlink">
<g id="graph0" class="graph" transform="scale(1 1) rotate(0) translate(4 1955)">
<title>G</title>
<!-- node0 -->
<g id="node1" class="node">
<title>node0</title>
<polygon fill="#e98693" stroke="black" points="627.5,-1951 571.5,-1951 571.5,-1915 627.5,-1915 627.5,-1951"/>
<text text-anchor="middle" x="599.5" y="-1929.3" font-family="Arial" font-size="14.00" fill="#1a1919">0 Start</text>
</g>
<!-- node1734 -->
<g id="node28" class="node">
<title>node1734</title>
<polygon fill="#da2d4f" stroke="black" points="692,-1870 579,-1870 579,-1834 692,-1834 692,-1870"/>
<text text-anchor="middle" x="635.5" y="-1848.3" font-family="Arial" font-size="14.00" fill="#ffffff">1734 Load T(...)</text>
</g>
<!-- node0&#45;&gt;node1734 -->
<g id="edge51" class="edge">
<title>node0&#45;&gt;node1734</title>
<path fill="none" stroke="#da2d4f" stroke-width="2" d="M607.31,-1914.86C612.03,-1904.51 618.14,-1891.1 623.46,-1879.41"/>
<polygon fill="#da2d4f" stroke="#da2d4f" stroke-width="2" points="626.74,-1880.66 627.7,-1870.11 620.37,-1877.76 626.74,-1880.66"/>
</g>
<!-- node713 -->
<g id="node2" class="node">
<title>node713</title>
<polygon fill="#f9f9f9" stroke="black" points="745.5,-1789 663.5,-1789 663.5,-1753 745.5,-1753 745.5,-1789"/>
<text text-anchor="middle" x="704.5" y="-1767.3" font-family="Arial" font-size="14.00" fill="#1a1919">713 Unbox</text>
</g>
<!-- node868 -->
<g id="node3" class="node">
<title>node868</title>
<polygon fill="#f9f9f9" stroke="black" points="140.5,-1702 58.5,-1702 58.5,-1666 140.5,-1666 140.5,-1702"/>
<text text-anchor="middle" x="99.5" y="-1680.3" font-family="Arial" font-size="14.00" fill="#1a1919">868 Unbox</text>
</g>
<!-- node713&#45;&gt;node868 -->
<g id="edge1" class="edge">
<title>node713&#45;&gt;node868</title>
<path fill="none" stroke="#da2d4f" stroke-width="2" d="M663.23,-1755.18C660.3,-1754.37 657.37,-1753.63 654.5,-1753 517.88,-1722.97 480.69,-1733.86 341.5,-1720 259.38,-1711.82 235.1,-1719.32 150.78,-1701.98"/>
<polygon fill="#da2d4f" stroke="#da2d4f" stroke-width="2" points="151.27,-1698.5 140.76,-1699.86 149.82,-1705.35 151.27,-1698.5"/>
</g>
<!-- node1431 -->
<g id="node9" class="node">
<title>node1431</title>
<polygon fill="#3cb4a4" stroke="black" points="622.5,-1702 568.04,-1684 622.5,-1666 676.96,-1684 622.5,-1702"/>
<text text-anchor="middle" x="622.5" y="-1680.3" font-family="Arial" font-size="14.00" fill="#1a1919">1431 &lt;</text>
</g>
<!-- node713&#45;&gt;node1431 -->
<g id="edge8" class="edge">
<title>node713&#45;&gt;node1431</title>
<path fill="none" stroke="#3cb4a4" d="M687.91,-1752.8C674.72,-1739.13 656.23,-1719.97 642.28,-1705.5"/>
<polygon fill="#3cb4a4" stroke="#3cb4a4" points="644.51,-1702.78 635.05,-1698.01 639.48,-1707.64 644.51,-1702.78"/>
<text text-anchor="middle" x="671" y="-1723.8" font-family="arial" font-size="14.00" fill="#3cb4a4">x</text>
</g>
<!-- node1488 -->
<g id="node13" class="node">
<title>node1488</title>
<polygon fill="#3cb4a4" stroke="black" points="520.5,-771 466.04,-753 520.5,-735 574.96,-753 520.5,-771"/>
<text text-anchor="middle" x="520.5" y="-749.3" font-family="Arial" font-size="14.00" fill="#1a1919">1488 &lt;</text>
</g>
<!-- node713&#45;&gt;node1488 -->
<g id="edge13" class="edge">
<title>node713&#45;&gt;node1488</title>
<path fill="none" stroke="#3cb4a4" d="M704.5,-1752.74C704.5,-1735.57 704.5,-1708.46 704.5,-1685 704.5,-1685 704.5,-1685 704.5,-926 704.5,-844.49 606.95,-790.49 553.91,-767.15"/>
<polygon fill="#3cb4a4" stroke="#3cb4a4" points="555.13,-763.87 544.55,-763.15 552.37,-770.3 555.13,-763.87"/>
<text text-anchor="middle" x="708" y="-1251.3" font-family="arial" font-size="14.00" fill="#3cb4a4">x</text>
</g>
<!-- node1616 -->
<g id="node19" class="node">
<title>node1616</title>
<polygon fill="#da2d4f" stroke="black" points="261,-196 130,-196 130,-160 261,-160 261,-196"/>
<text text-anchor="middle" x="195.5" y="-174.3" font-family="Arial" font-size="14.00" fill="#ffffff">1616 StoreIndexed</text>
</g>
<!-- node713&#45;&gt;node1616 -->
<g id="edge23" class="edge">
<title>node713&#45;&gt;node1616</title>
<path fill="none" stroke="#3cb4a4" d="M722.69,-1752.96C737.68,-1736.99 756.5,-1711.64 756.5,-1685 756.5,-1685 756.5,-1685 756.5,-250 756.5,-201.69 424.79,-185.69 271.5,-180.88"/>
<polygon fill="#3cb4a4" stroke="#3cb4a4" points="271.33,-177.37 261.23,-180.57 271.12,-184.37 271.33,-177.37"/>
<text text-anchor="middle" x="773" y="-966.8" font-family="arial" font-size="14.00" fill="#3cb4a4">index</text>
</g>
<!-- node938 -->
<g id="node4" class="node">
<title>node938</title>
<polygon fill="#ffa500" stroke="black" points="434.5,-1615 196.5,-1615 196.5,-1579 434.5,-1579 434.5,-1615"/>
<text text-anchor="middle" x="315.5" y="-1593.3" font-family="Arial" font-size="14.00" fill="#1a1919">938 Guard, else ClassCastException</text>
</g>
<!-- node868&#45;&gt;node938 -->
<g id="edge2" class="edge">
<title>node868&#45;&gt;node938</title>
<path fill="none" stroke="#da2d4f" stroke-width="2" d="M140.64,-1666.81C175.24,-1653.19 224.95,-1633.63 262.53,-1618.84"/>
<polygon fill="#da2d4f" stroke="#da2d4f" stroke-width="2" points="264.27,-1621.92 272.3,-1615 261.71,-1615.41 264.27,-1621.92"/>
</g>
<!-- node868&#45;&gt;node1616 -->
<g id="edge24" class="edge">
<title>node868&#45;&gt;node1616</title>
<path fill="none" stroke="#3cb4a4" d="M110.82,-1665.89C120.71,-1649.27 133.5,-1622.95 133.5,-1598 133.5,-1598 133.5,-1598 133.5,-250 133.5,-231.08 146.14,-214.77 160.01,-202.57"/>
<polygon fill="#3cb4a4" stroke="#3cb4a4" points="162.24,-205.27 167.76,-196.23 157.81,-199.85 162.24,-205.27"/>
<text text-anchor="middle" x="150" y="-923.3" font-family="arial" font-size="14.00" fill="#3cb4a4">value</text>
</g>
<!-- node1733 -->
<g id="node27" class="node">
<title>node1733</title>
<polygon fill="#f9f9f9" stroke="black" points="195,-123 0,-123 0,-87 195,-87 195,-123"/>
<text text-anchor="middle" x="97.5" y="-101.3" font-family="Arial" font-size="14.00" fill="#1a1919">1733 BoxNode$AllocatingBox</text>
</g>
<!-- node868&#45;&gt;node1733 -->
<g id="edge39" class="edge">
<title>node868&#45;&gt;node1733</title>
<path fill="none" stroke="#3cb4a4" d="M94.99,-1665.88C90.9,-1648.81 85.5,-1621.78 85.5,-1598 85.5,-1598 85.5,-1598 85.5,-177 85.5,-162.3 88.03,-146.13 90.77,-132.94"/>
<polygon fill="#3cb4a4" stroke="#3cb4a4" points="94.21,-133.6 92.96,-123.08 87.37,-132.08 94.21,-133.6"/>
<text text-anchor="middle" x="102" y="-879.8" font-family="arial" font-size="14.00" fill="#3cb4a4">value</text>
</g>
<!-- node1697 -->
<g id="node21" class="node">
<title>node1697</title>
<polygon fill="#ffa500" stroke="black" points="507,-1528 256,-1528 256,-1492 507,-1492 507,-1528"/>
<text text-anchor="middle" x="381.5" y="-1506.3" font-family="Arial" font-size="14.00" fill="#1a1919">1697 Guard, else TransferToInterpreter</text>
</g>
<!-- node938&#45;&gt;node1697 -->
<g id="edge4" class="edge">
<title>node938&#45;&gt;node1697</title>
<path fill="none" stroke="#da2d4f" stroke-width="2" d="M328.86,-1578.8C338.34,-1566.59 351.22,-1549.99 361.87,-1536.28"/>
<polygon fill="#da2d4f" stroke="#da2d4f" stroke-width="2" points="364.8,-1538.22 368.16,-1528.18 359.27,-1533.93 364.8,-1538.22"/>
</g>
<!-- node939 -->
<g id="node5" class="node">
<title>node939</title>
<polygon fill="#f9f9f9" stroke="black" points="478,-1702 159,-1702 159,-1666 478,-1666 478,-1702"/>
<text text-anchor="middle" x="318.5" y="-1680.3" font-family="Arial" font-size="14.00" fill="#1a1919">939 InstanceOf org/truffleruby/core/proc/RubyProc</text>
</g>
<!-- node939&#45;&gt;node938 -->
<g id="edge3" class="edge">
<title>node939&#45;&gt;node938</title>
<path fill="none" stroke="#3cb4a4" d="M317.89,-1665.8C317.48,-1654.16 316.93,-1638.55 316.46,-1625.24"/>
<polygon fill="#3cb4a4" stroke="#3cb4a4" points="319.96,-1625.05 316.11,-1615.18 312.96,-1625.29 319.96,-1625.05"/>
<text text-anchor="middle" x="321.5" y="-1636.8" font-family="arial" font-size="14.00" fill="#3cb4a4">?</text>
</g>
<!-- node945 -->
<g id="node6" class="node">
<title>node945</title>
<polygon fill="#3cb4a4" stroke="black" points="523.5,-1615 452.95,-1597 523.5,-1579 594.05,-1597 523.5,-1615"/>
<text text-anchor="middle" x="523.5" y="-1593.3" font-family="Arial" font-size="14.00" fill="#1a1919">945 IsNull</text>
</g>
<!-- node945&#45;&gt;node1697 -->
<g id="edge27" class="edge">
<title>node945&#45;&gt;node1697</title>
<path fill="none" stroke="#3cb4a4" d="M503.46,-1584C481.55,-1570.89 445.95,-1549.58 418.86,-1533.36"/>
<polygon fill="#3cb4a4" stroke="#3cb4a4" points="420.4,-1530.21 410.03,-1528.08 416.81,-1536.22 420.4,-1530.21"/>
<text text-anchor="middle" x="465.5" y="-1549.8" font-family="arial" font-size="14.00" fill="#3cb4a4">?</text>
</g>
<!-- node1303 -->
<g id="node7" class="node">
<title>node1303</title>
<polygon fill="#da2d4f" stroke="black" points="621.5,-1447 315.5,-1447 315.5,-1411 621.5,-1411 621.5,-1447"/>
<text text-anchor="middle" x="468.5" y="-1425.3" font-family="Arial" font-size="14.00" fill="#ffffff">1303 LoadField RubyDynamicObject.metaClass</text>
</g>
<!-- node1355 -->
<g id="node8" class="node">
<title>node1355</title>
<polygon fill="#3cb4a4" stroke="black" points="378.5,-1360 316.83,-1342 378.5,-1324 440.17,-1342 378.5,-1360"/>
<text text-anchor="middle" x="378.5" y="-1338.3" font-family="Arial" font-size="14.00" fill="#1a1919">1355 ==</text>
</g>
<!-- node1303&#45;&gt;node1355 -->
<g id="edge6" class="edge">
<title>node1303&#45;&gt;node1355</title>
<path fill="none" stroke="#3cb4a4" d="M450.29,-1410.8C435.68,-1397 415.15,-1377.61 399.78,-1363.1"/>
<polygon fill="#3cb4a4" stroke="#3cb4a4" points="401.95,-1360.33 392.28,-1356.01 397.14,-1365.42 401.95,-1360.33"/>
<text text-anchor="middle" x="433" y="-1381.8" font-family="arial" font-size="14.00" fill="#3cb4a4">x</text>
</g>
<!-- node1701 -->
<g id="node22" class="node">
<title>node1701</title>
<polygon fill="#ffa500" stroke="black" points="593,-1273 342,-1273 342,-1237 593,-1237 593,-1273"/>
<text text-anchor="middle" x="467.5" y="-1251.3" font-family="Arial" font-size="14.00" fill="#1a1919">1701 Guard, else TransferToInterpreter</text>
</g>
<!-- node1303&#45;&gt;node1701 -->
<g id="edge5" class="edge">
<title>node1303&#45;&gt;node1701</title>
<path fill="none" stroke="#da2d4f" stroke-width="2" d="M468.4,-1410.88C468.23,-1381 467.87,-1319.11 467.66,-1283.27"/>
<polygon fill="#da2d4f" stroke="#da2d4f" stroke-width="2" points="471.16,-1283.03 467.6,-1273.05 464.16,-1283.07 471.16,-1283.03"/>
</g>
<!-- node1355&#45;&gt;node1701 -->
<g id="edge29" class="edge">
<title>node1355&#45;&gt;node1701</title>
<path fill="none" stroke="#3cb4a4" d="M392.41,-1327.72C405.6,-1315.12 425.74,-1295.88 441.85,-1280.5"/>
<polygon fill="#3cb4a4" stroke="#3cb4a4" points="444.57,-1282.74 449.38,-1273.3 439.73,-1277.68 444.57,-1282.74"/>
<text text-anchor="middle" x="432.5" y="-1294.8" font-family="arial" font-size="14.00" fill="#3cb4a4">?</text>
</g>
<!-- node1702 -->
<g id="node23" class="node">
<title>node1702</title>
<polygon fill="#ffa500" stroke="black" points="604.5,-1200 330.5,-1200 330.5,-1164 604.5,-1164 604.5,-1200"/>
<text text-anchor="middle" x="467.5" y="-1178.3" font-family="Arial" font-size="14.00" fill="#1a1919">1702 Guard not, else TransferToInterpreter</text>
</g>
<!-- node1431&#45;&gt;node1702 -->
<g id="edge31" class="edge">
<title>node1431&#45;&gt;node1702</title>
<path fill="none" stroke="#3cb4a4" d="M632.25,-1668.99C642.61,-1652.7 657.5,-1624.65 657.5,-1598 657.5,-1598 657.5,-1598 657.5,-1254 657.5,-1232.06 612.46,-1214.65 566.25,-1202.56"/>
<polygon fill="#3cb4a4" stroke="#3cb4a4" points="566.93,-1199.13 556.38,-1200.07 565.22,-1205.91 566.93,-1199.13"/>
<text text-anchor="middle" x="661.5" y="-1425.3" font-family="arial" font-size="14.00" fill="#3cb4a4">?</text>
</g>
<!-- node1472 -->
<g id="node10" class="node">
<title>node1472</title>
<polygon fill="#da2d4f" stroke="black" points="602.5,-1119 392.5,-1119 392.5,-1083 602.5,-1083 602.5,-1119"/>
<text text-anchor="middle" x="497.5" y="-1097.3" font-family="Arial" font-size="14.00" fill="#ffffff">1472 LoadField RubyArray.store</text>
</g>
<!-- node1476 -->
<g id="node11" class="node">
<title>node1476</title>
<polygon fill="#f9f9f9" stroke="black" points="611.5,-1032 461.5,-1032 461.5,-996 611.5,-996 611.5,-1032"/>
<text text-anchor="middle" x="536.5" y="-1010.3" font-family="Arial" font-size="14.00" fill="#1a1919">1476 InstanceOf a!# [I</text>
</g>
<!-- node1472&#45;&gt;node1476 -->
<g id="edge11" class="edge">
<title>node1472&#45;&gt;node1476</title>
<path fill="none" stroke="#3cb4a4" d="M505.39,-1082.8C510.84,-1070.93 518.18,-1054.93 524.36,-1041.45"/>
<polygon fill="#3cb4a4" stroke="#3cb4a4" points="527.63,-1042.72 528.62,-1032.18 521.27,-1039.8 527.63,-1042.72"/>
<text text-anchor="middle" x="536" y="-1053.8" font-family="arial" font-size="14.00" fill="#3cb4a4">value</text>
</g>
<!-- node1610 -->
<g id="node18" class="node">
<title>node1610</title>
<polygon fill="#f9f9f9" stroke="black" points="728.5,-684 582.5,-684 582.5,-648 728.5,-648 728.5,-684"/>
<text text-anchor="middle" x="655.5" y="-662.3" font-family="Arial" font-size="14.00" fill="#1a1919">1610 InstanceOf a# [I</text>
</g>
<!-- node1472&#45;&gt;node1610 -->
<g id="edge22" class="edge">
<title>node1472&#45;&gt;node1610</title>
<path fill="none" stroke="#3cb4a4" d="M591.83,-1082.85C626.07,-1070.71 656.5,-1050.06 656.5,-1015 656.5,-1015 656.5,-1015 656.5,-752 656.5,-732.75 656.24,-711.05 655.99,-694.4"/>
<polygon fill="#3cb4a4" stroke="#3cb4a4" points="659.48,-694.2 655.82,-684.26 652.48,-694.31 659.48,-694.2"/>
<text text-anchor="middle" x="673" y="-879.8" font-family="arial" font-size="14.00" fill="#3cb4a4">value</text>
</g>
<!-- node1472&#45;&gt;node1616 -->
<g id="edge41" class="edge">
<title>node1472&#45;&gt;node1616</title>
<path fill="none" stroke="#3cb4a4" d="M392.3,-1090.3C305.14,-1079.25 195.5,-1057.01 195.5,-1015 195.5,-1015 195.5,-1015 195.5,-250 195.5,-235.65 195.5,-219.67 195.5,-206.51"/>
<polygon fill="#3cb4a4" stroke="#3cb4a4" points="199,-206.22 195.5,-196.22 192,-206.22 199,-206.22"/>
<text text-anchor="middle" x="211" y="-618.8" font-family="arial" font-size="14.00" fill="#3cb4a4">array</text>
</g>
<!-- node1705 -->
<g id="node26" class="node">
<title>node1705</title>
<polygon fill="#ffa500" stroke="black" points="612,-945 361,-945 361,-909 612,-909 612,-945"/>
<text text-anchor="middle" x="486.5" y="-923.3" font-family="Arial" font-size="14.00" fill="#1a1919">1705 Guard, else TransferToInterpreter</text>
</g>
<!-- node1472&#45;&gt;node1705 -->
<g id="edge10" class="edge">
<title>node1472&#45;&gt;node1705</title>
<path fill="none" stroke="#da2d4f" stroke-width="2" d="M481.9,-1082.73C471.32,-1069.8 458.25,-1051.11 452.5,-1032 444.44,-1005.22 456.89,-974.85 468.93,-953.87"/>
<polygon fill="#da2d4f" stroke="#da2d4f" stroke-width="2" points="471.99,-955.58 474.18,-945.22 466,-951.95 471.99,-955.58"/>
</g>
<!-- node1476&#45;&gt;node1705 -->
<g id="edge37" class="edge">
<title>node1476&#45;&gt;node1705</title>
<path fill="none" stroke="#3cb4a4" d="M526.38,-995.8C519.33,-983.82 509.8,-967.62 501.83,-954.06"/>
<polygon fill="#3cb4a4" stroke="#3cb4a4" points="504.69,-952.02 496.6,-945.18 498.66,-955.57 504.69,-952.02"/>
<text text-anchor="middle" x="518.5" y="-966.8" font-family="arial" font-size="14.00" fill="#3cb4a4">?</text>
</g>
<!-- node1486 -->
<g id="node12" class="node">
<title>node1486</title>
<polygon fill="#da2d4f" stroke="black" points="573.5,-858 369.5,-858 369.5,-822 573.5,-822 573.5,-858"/>
<text text-anchor="middle" x="471.5" y="-836.3" font-family="Arial" font-size="14.00" fill="#ffffff">1486 LoadField RubyArray.size</text>
</g>
<!-- node1486&#45;&gt;node1488 -->
<g id="edge14" class="edge">
<title>node1486&#45;&gt;node1488</title>
<path fill="none" stroke="#3cb4a4" d="M481.42,-821.8C488.78,-809.03 498.9,-791.47 507,-777.42"/>
<polygon fill="#3cb4a4" stroke="#3cb4a4" points="510.26,-778.76 512.23,-768.35 504.2,-775.27 510.26,-778.76"/>
<text text-anchor="middle" x="503" y="-792.8" font-family="arial" font-size="14.00" fill="#3cb4a4">y</text>
</g>
<!-- node1704 -->
<g id="node25" class="node">
<title>node1704</title>
<polygon fill="#ffa500" stroke="black" points="564,-684 313,-684 313,-648 564,-648 564,-684"/>
<text text-anchor="middle" x="438.5" y="-662.3" font-family="Arial" font-size="14.00" fill="#1a1919">1704 Guard, else TransferToInterpreter</text>
</g>
<!-- node1486&#45;&gt;node1704 -->
<g id="edge12" class="edge">
<title>node1486&#45;&gt;node1704</title>
<path fill="none" stroke="#da2d4f" stroke-width="2" d="M467.88,-821.97C464.99,-808.23 460.88,-788.39 457.5,-771 452.46,-745.07 447.08,-715.43 443.34,-694.44"/>
<polygon fill="#da2d4f" stroke="#da2d4f" stroke-width="2" points="446.74,-693.55 441.54,-684.32 439.85,-694.78 446.74,-693.55"/>
</g>
<!-- node1488&#45;&gt;node1704 -->
<g id="edge35" class="edge">
<title>node1488&#45;&gt;node1704</title>
<path fill="none" stroke="#3cb4a4" d="M508.05,-739.09C495.88,-726.48 477.05,-706.96 462.06,-691.42"/>
<polygon fill="#3cb4a4" stroke="#3cb4a4" points="464.51,-688.92 455.05,-684.15 459.47,-693.78 464.51,-688.92"/>
<text text-anchor="middle" x="488.5" y="-705.8" font-family="arial" font-size="14.00" fill="#3cb4a4">?</text>
</g>
<!-- node1503 -->
<g id="node14" class="node">
<title>node1503</title>
<polygon fill="#ffa500" stroke="black" points="627,-597 382,-597 382,-561 627,-561 627,-597"/>
<text text-anchor="middle" x="504.5" y="-575.3" font-family="Arial" font-size="14.00" fill="#1a1919">1503 Guard, else ClassCastException</text>
</g>
<!-- node1560 -->
<g id="node15" class="node">
<title>node1560</title>
<polygon fill="#da2d4f" stroke="black" points="627,-516 380,-516 380,-480 627,-480 627,-516"/>
<text text-anchor="middle" x="503.5" y="-494.3" font-family="Arial" font-size="14.00" fill="#ffffff">1560 LoadField DynamicObject.shape</text>
</g>
<!-- node1503&#45;&gt;node1560 -->
<g id="edge16" class="edge">
<title>node1503&#45;&gt;node1560</title>
<path fill="none" stroke="#da2d4f" stroke-width="2" d="M504.28,-560.86C504.15,-550.71 503.99,-537.63 503.84,-526.12"/>
<polygon fill="#da2d4f" stroke="#da2d4f" stroke-width="2" points="507.34,-526.06 503.72,-516.11 500.34,-526.15 507.34,-526.06"/>
</g>
<!-- node1565 -->
<g id="node16" class="node">
<title>node1565</title>
<polygon fill="#3cb4a4" stroke="black" points="413.5,-429 351.83,-411 413.5,-393 475.17,-411 413.5,-429"/>
<text text-anchor="middle" x="413.5" y="-407.3" font-family="Arial" font-size="14.00" fill="#1a1919">1565 ==</text>
</g>
<!-- node1560&#45;&gt;node1565 -->
<g id="edge18" class="edge">
<title>node1560&#45;&gt;node1565</title>
<path fill="none" stroke="#3cb4a4" d="M485.29,-479.8C470.68,-466 450.15,-446.61 434.78,-432.1"/>
<polygon fill="#3cb4a4" stroke="#3cb4a4" points="436.95,-429.33 427.28,-425.01 432.14,-434.42 436.95,-429.33"/>
<text text-anchor="middle" x="468" y="-450.8" font-family="arial" font-size="14.00" fill="#3cb4a4">x</text>
</g>
<!-- node1703 -->
<g id="node24" class="node">
<title>node1703</title>
<polygon fill="#ffa500" stroke="black" points="583,-342 332,-342 332,-306 583,-306 583,-342"/>
<text text-anchor="middle" x="457.5" y="-320.3" font-family="Arial" font-size="14.00" fill="#1a1919">1703 Guard, else TransferToInterpreter</text>
</g>
<!-- node1560&#45;&gt;node1703 -->
<g id="edge17" class="edge">
<title>node1560&#45;&gt;node1703</title>
<path fill="none" stroke="#da2d4f" stroke-width="2" d="M501.42,-479.83C498.66,-459.01 493.1,-422.99 484.5,-393 480.47,-378.93 474.59,-363.76 469.36,-351.32"/>
<polygon fill="#da2d4f" stroke="#da2d4f" stroke-width="2" points="472.51,-349.8 465.34,-342 466.09,-352.57 472.51,-349.8"/>
</g>
<!-- node1565&#45;&gt;node1703 -->
<g id="edge33" class="edge">
<title>node1565&#45;&gt;node1703</title>
<path fill="none" stroke="#3cb4a4" d="M421.16,-395.19C427.43,-383.1 436.43,-365.7 443.91,-351.25"/>
<polygon fill="#3cb4a4" stroke="#3cb4a4" points="447.07,-352.76 448.56,-342.27 440.85,-349.54 447.07,-352.76"/>
<text text-anchor="middle" x="442.5" y="-363.8" font-family="arial" font-size="14.00" fill="#3cb4a4">?</text>
</g>
<!-- node1609 -->
<g id="node17" class="node">
<title>node1609</title>
<polygon fill="#ffa500" stroke="black" points="580,-269 335,-269 335,-233 580,-233 580,-269"/>
<text text-anchor="middle" x="457.5" y="-247.3" font-family="Arial" font-size="14.00" fill="#1a1919">1609 Guard, else ClassCastException</text>
</g>
<!-- node1609&#45;&gt;node1616 -->
<g id="edge21" class="edge">
<title>node1609&#45;&gt;node1616</title>
<path fill="none" stroke="#da2d4f" stroke-width="2" d="M394.74,-232.99C356.78,-222.71 308.22,-209.55 268.54,-198.79"/>
<polygon fill="#da2d4f" stroke="#da2d4f" stroke-width="2" points="269.22,-195.35 258.65,-196.11 267.39,-202.11 269.22,-195.35"/>
</g>
<!-- node1610&#45;&gt;node1503 -->
<g id="edge15" class="edge">
<title>node1610&#45;&gt;node1503</title>
<path fill="none" stroke="#3cb4a4" d="M624.94,-647.8C601.53,-634.62 569.06,-616.34 543.73,-602.08"/>
<polygon fill="#3cb4a4" stroke="#3cb4a4" points="545.18,-598.89 534.75,-597.03 541.75,-604.99 545.18,-598.89"/>
<text text-anchor="middle" x="593.5" y="-618.8" font-family="arial" font-size="14.00" fill="#3cb4a4">?</text>
</g>
<!-- node1610&#45;&gt;node1609 -->
<g id="edge20" class="edge">
<title>node1610&#45;&gt;node1609</title>
<path fill="none" stroke="#3cb4a4" d="M655.5,-647.74C655.5,-630.57 655.5,-603.46 655.5,-580 655.5,-580 655.5,-580 655.5,-323 655.5,-300.54 609.77,-283.27 562.27,-271.39"/>
<polygon fill="#3cb4a4" stroke="#3cb4a4" points="562.98,-267.96 552.44,-269.01 561.34,-274.76 562.98,-267.96"/>
<text text-anchor="middle" x="659.5" y="-450.8" font-family="arial" font-size="14.00" fill="#3cb4a4">?</text>
</g>
<!-- node1616&#45;&gt;node1733 -->
<g id="edge25" class="edge">
<title>node1616&#45;&gt;node1733</title>
<path fill="none" stroke="#da2d4f" stroke-width="2" d="M171.78,-159.81C159.02,-150.57 143.11,-139.04 129.29,-129.03"/>
<polygon fill="#da2d4f" stroke="#da2d4f" stroke-width="2" points="131.16,-126.06 121,-123.03 127.05,-131.73 131.16,-126.06"/>
</g>
<!-- node1688 -->
<g id="node20" class="node">
<title>node1688</title>
<polygon fill="#e98693" stroke="black" points="143,-36 52,-36 52,0 143,0 143,-36"/>
<text text-anchor="middle" x="97.5" y="-14.3" font-family="Arial" font-size="14.00" fill="#1a1919">1688 Return</text>
</g>
<!-- node1697&#45;&gt;node1303 -->
<g id="edge28" class="edge">
<title>node1697&#45;&gt;node1303</title>
<path fill="none" stroke="#da2d4f" stroke-width="2" d="M400.38,-1491.86C412.58,-1480.78 428.63,-1466.21 442.08,-1453.99"/>
<polygon fill="#da2d4f" stroke="#da2d4f" stroke-width="2" points="444.61,-1456.42 449.66,-1447.11 439.9,-1451.24 444.61,-1456.42"/>
</g>
<!-- node1701&#45;&gt;node1702 -->
<g id="edge30" class="edge">
<title>node1701&#45;&gt;node1702</title>
<path fill="none" stroke="#da2d4f" stroke-width="2" d="M467.5,-1236.81C467.5,-1228.79 467.5,-1219.05 467.5,-1210.07"/>
<polygon fill="#da2d4f" stroke="#da2d4f" stroke-width="2" points="471,-1210.03 467.5,-1200.03 464,-1210.03 471,-1210.03"/>
</g>
<!-- node1702&#45;&gt;node1472 -->
<g id="edge32" class="edge">
<title>node1702&#45;&gt;node1472</title>
<path fill="none" stroke="#da2d4f" stroke-width="2" d="M474.01,-1163.86C477.9,-1153.61 482.93,-1140.37 487.34,-1128.76"/>
<polygon fill="#da2d4f" stroke="#da2d4f" stroke-width="2" points="490.72,-1129.7 491,-1119.11 484.18,-1127.21 490.72,-1129.7"/>
</g>
<!-- node1703&#45;&gt;node1609 -->
<g id="edge34" class="edge">
<title>node1703&#45;&gt;node1609</title>
<path fill="none" stroke="#da2d4f" stroke-width="2" d="M457.5,-305.81C457.5,-297.79 457.5,-288.05 457.5,-279.07"/>
<polygon fill="#da2d4f" stroke="#da2d4f" stroke-width="2" points="461,-279.03 457.5,-269.03 454,-279.03 461,-279.03"/>
</g>
<!-- node1704&#45;&gt;node1503 -->
<g id="edge36" class="edge">
<title>node1704&#45;&gt;node1503</title>
<path fill="none" stroke="#da2d4f" stroke-width="2" d="M451.86,-647.8C461.34,-635.59 474.22,-618.99 484.87,-605.28"/>
<polygon fill="#da2d4f" stroke="#da2d4f" stroke-width="2" points="487.8,-607.22 491.16,-597.18 482.27,-602.93 487.8,-607.22"/>
</g>
<!-- node1705&#45;&gt;node1486 -->
<g id="edge38" class="edge">
<title>node1705&#45;&gt;node1486</title>
<path fill="none" stroke="#da2d4f" stroke-width="2" d="M483.46,-908.8C481.41,-897.16 478.66,-881.55 476.31,-868.24"/>
<polygon fill="#da2d4f" stroke="#da2d4f" stroke-width="2" points="479.72,-867.41 474.53,-858.18 472.82,-868.63 479.72,-867.41"/>
</g>
<!-- node1733&#45;&gt;node1688 -->
<g id="edge26" class="edge">
<title>node1733&#45;&gt;node1688</title>
<path fill="none" stroke="#3cb4a4" d="M83.4,-86.84C79.78,-81.46 76.38,-75.27 74.5,-69 72.09,-60.93 74.06,-52.49 77.69,-44.89"/>
<polygon fill="#3cb4a4" stroke="#3cb4a4" points="80.79,-46.53 82.75,-36.12 74.72,-43.03 80.79,-46.53"/>
<text text-anchor="middle" x="91.5" y="-57.8" font-family="arial" font-size="14.00" fill="#3cb4a4">result</text>
</g>
<!-- node1733&#45;&gt;node1688 -->
<g id="edge40" class="edge">
<title>node1733&#45;&gt;node1688</title>
<path fill="none" stroke="#da2d4f" stroke-width="2" d="M104.44,-86.98C107.56,-77.35 110.2,-65.07 108.5,-54 108.09,-51.32 107.51,-48.56 106.83,-45.83"/>
<polygon fill="#da2d4f" stroke="#da2d4f" stroke-width="2" points="110.19,-44.83 104.05,-36.2 103.46,-46.78 110.19,-44.83"/>
</g>
<!-- node1734&#45;&gt;node713 -->
<g id="edge52" class="edge">
<title>node1734&#45;&gt;node713</title>
<path fill="none" stroke="#da2d4f" stroke-width="2" d="M650.47,-1833.86C659.97,-1822.99 672.4,-1808.75 682.95,-1796.67"/>
<polygon fill="#da2d4f" stroke="#da2d4f" stroke-width="2" points="685.62,-1798.94 689.56,-1789.11 680.34,-1794.34 685.62,-1798.94"/>
</g>
<!-- inline1354x1355 -->
<g id="node29" class="node">
<title>inline1354x1355</title>
<ellipse fill="#d7ede7" stroke="black" cx="229.5" cy="-1429" rx="67.5" ry="18"/>
<text text-anchor="middle" x="229.5" y="-1427.1" font-family="Arial" font-size="8.00" fill="#1a1919">1354 C(instance:RubyClass)</text>
</g>
<!-- inline1354x1355&#45;&gt;node1355 -->
<g id="edge7" class="edge">
<title>inline1354x1355&#45;&gt;node1355</title>
<path fill="none" stroke="#3cb4a4" d="M256.83,-1412.41C286.23,-1395.64 332.29,-1369.36 358.5,-1354.41"/>
<text text-anchor="middle" x="315.5" y="-1383.6" font-family="arial" font-size="8.00" fill="#3cb4a4">y</text>
</g>
<!-- inline5x1431 -->
<g id="node30" class="node">
<title>inline5x1431</title>
<ellipse fill="#d7ede7" stroke="black" cx="618.5" cy="-1771" rx="27" ry="18"/>
<text text-anchor="middle" x="618.5" y="-1769.1" font-family="Arial" font-size="8.00" fill="#1a1919">5 C(0)</text>
</g>
<!-- inline5x1431&#45;&gt;node1431 -->
<g id="edge9" class="edge">
<title>inline5x1431&#45;&gt;node1431</title>
<path fill="none" stroke="#3cb4a4" d="M619.31,-1752.8C620.01,-1737.95 621.01,-1716.64 621.71,-1701.89"/>
<text text-anchor="middle" x="623.5" y="-1725.6" font-family="arial" font-size="8.00" fill="#3cb4a4">y</text>
</g>
<!-- inline1564x1565 -->
<g id="node31" class="node">
<title>inline1564x1565</title>
<ellipse fill="#d7ede7" stroke="black" cx="292.5" cy="-498" rx="69.4" ry="18"/>
<text text-anchor="middle" x="292.5" y="-496.1" font-family="Arial" font-size="8.00" fill="#1a1919">1564 C(instance:ShapeBasic)</text>
</g>
<!-- inline1564x1565&#45;&gt;node1565 -->
<g id="edge19" class="edge">
<title>inline1564x1565&#45;&gt;node1565</title>
<path fill="none" stroke="#3cb4a4" d="M315.54,-480.81C339.13,-464.24 375.24,-438.88 396.4,-424.01"/>
<text text-anchor="middle" x="362.5" y="-452.6" font-family="arial" font-size="8.00" fill="#3cb4a4">y</text>
</g>
<!-- inline158x939 -->
<g id="node32" class="node">
<title>inline158x939</title>
<ellipse fill="#d7ede7" stroke="black" cx="318.5" cy="-1771" rx="27.46" ry="18"/>
<text text-anchor="middle" x="318.5" y="-1769.1" font-family="Arial" font-size="8.00" fill="#1a1919">158 T(7)</text>
</g>
<!-- inline158x939&#45;&gt;node939 -->
<g id="edge42" class="edge">
<title>inline158x939&#45;&gt;node939</title>
<path fill="none" stroke="#3cb4a4" d="M318.5,-1752.8C318.5,-1738.05 318.5,-1716.92 318.5,-1702.18"/>
<text text-anchor="middle" x="328" y="-1725.6" font-family="arial" font-size="8.00" fill="#3cb4a4">value</text>
</g>
<!-- inline158x945 -->
<g id="node33" class="node">
<title>inline158x945</title>
<ellipse fill="#d7ede7" stroke="black" cx="523.5" cy="-1684" rx="27.46" ry="18"/>
<text text-anchor="middle" x="523.5" y="-1682.1" font-family="Arial" font-size="8.00" fill="#1a1919">158 T(7)</text>
</g>
<!-- inline158x945&#45;&gt;node945 -->
<g id="edge43" class="edge">
<title>inline158x945&#45;&gt;node945</title>
<path fill="none" stroke="#3cb4a4" d="M523.5,-1665.8C523.5,-1651.05 523.5,-1629.92 523.5,-1615.18"/>
<text text-anchor="middle" x="533" y="-1638.6" font-family="arial" font-size="8.00" fill="#3cb4a4">value</text>
</g>
<!-- inline173x1303 -->
<g id="node34" class="node">
<title>inline173x1303</title>
<ellipse fill="#d7ede7" stroke="black" cx="552.5" cy="-1510" rx="27.46" ry="18"/>
<text text-anchor="middle" x="552.5" y="-1508.1" font-family="Arial" font-size="8.00" fill="#1a1919">173 T(8)</text>
</g>
<!-- inline173x1303&#45;&gt;node1303 -->
<g id="edge44" class="edge">
<title>inline173x1303&#45;&gt;node1303</title>
<path fill="none" stroke="#3cb4a4" d="M537.48,-1494.88C523.23,-1481.47 501.79,-1461.31 486.6,-1447.02"/>
<text text-anchor="middle" x="524.5" y="-1467.6" font-family="arial" font-size="8.00" fill="#3cb4a4">object</text>
</g>
<!-- inline173x1472 -->
<g id="node35" class="node">
<title>inline173x1472</title>
<ellipse fill="#d7ede7" stroke="black" cx="649.5" cy="-1182" rx="27.46" ry="18"/>
<text text-anchor="middle" x="649.5" y="-1180.1" font-family="Arial" font-size="8.00" fill="#1a1919">173 T(8)</text>
</g>
<!-- inline173x1472&#45;&gt;node1472 -->
<g id="edge45" class="edge">
<title>inline173x1472&#45;&gt;node1472</title>
<path fill="none" stroke="#3cb4a4" d="M628.68,-1170.18C603.32,-1157 560.15,-1134.56 530.3,-1119.05"/>
<text text-anchor="middle" x="589.5" y="-1139.6" font-family="arial" font-size="8.00" fill="#3cb4a4">object</text>
</g>
<!-- inline173x1486 -->
<g id="node36" class="node">
<title>inline173x1486</title>
<ellipse fill="#d7ede7" stroke="black" cx="315.5" cy="-927" rx="27.46" ry="18"/>
<text text-anchor="middle" x="315.5" y="-925.1" font-family="Arial" font-size="8.00" fill="#1a1919">173 T(8)</text>
</g>
<!-- inline173x1486&#45;&gt;node1486 -->
<g id="edge46" class="edge">
<title>inline173x1486&#45;&gt;node1486</title>
<path fill="none" stroke="#3cb4a4" d="M335.89,-914.89C362.41,-900.44 408.98,-875.07 440.03,-858.15"/>
<text text-anchor="middle" x="414.5" y="-881.6" font-family="arial" font-size="8.00" fill="#3cb4a4">object</text>
</g>
<!-- inline173x1560 -->
<g id="node37" class="node">
<title>inline173x1560</title>
<ellipse fill="#d7ede7" stroke="black" cx="336.5" cy="-579" rx="27.46" ry="18"/>
<text text-anchor="middle" x="336.5" y="-577.1" font-family="Arial" font-size="8.00" fill="#1a1919">173 T(8)</text>
</g>
<!-- inline173x1560&#45;&gt;node1560 -->
<g id="edge47" class="edge">
<title>inline173x1560&#45;&gt;node1560</title>
<path fill="none" stroke="#3cb4a4" d="M357.99,-567.83C385.65,-554.75 434.11,-531.82 467.46,-516.05"/>
<text text-anchor="middle" x="436.5" y="-536.6" font-family="arial" font-size="8.00" fill="#3cb4a4">object</text>
</g>
<!-- inline191x713 -->
<g id="node38" class="node">
<title>inline191x713</title>
<ellipse fill="#d7ede7" stroke="black" cx="737.5" cy="-1852" rx="27.46" ry="18"/>
<text text-anchor="middle" x="737.5" y="-1850.1" font-family="Arial" font-size="8.00" fill="#1a1919">191 T(9)</text>
</g>
<!-- inline191x713&#45;&gt;node713 -->
<g id="edge48" class="edge">
<title>inline191x713&#45;&gt;node713</title>
<path fill="none" stroke="#3cb4a4" d="M730.5,-1834.25C724.94,-1820.93 717.19,-1802.38 711.6,-1789"/>
<text text-anchor="middle" x="731" y="-1809.6" font-family="arial" font-size="8.00" fill="#3cb4a4">value</text>
</g>
<!-- inline209x868 -->
<g id="node39" class="node">
<title>inline209x868</title>
<ellipse fill="#d7ede7" stroke="black" cx="99.5" cy="-1771" rx="30.13" ry="18"/>
<text text-anchor="middle" x="99.5" y="-1769.1" font-family="Arial" font-size="8.00" fill="#1a1919">209 T(10)</text>
</g>
<!-- inline209x868&#45;&gt;node868 -->
<g id="edge49" class="edge">
<title>inline209x868&#45;&gt;node868</title>
<path fill="none" stroke="#3cb4a4" d="M99.5,-1752.8C99.5,-1738.05 99.5,-1716.92 99.5,-1702.18"/>
<text text-anchor="middle" x="109" y="-1725.6" font-family="arial" font-size="8.00" fill="#3cb4a4">value</text>
</g>
<!-- inline2x1734 -->
<g id="node40" class="node">
<title>inline2x1734</title>
<ellipse fill="#d7ede7" stroke="black" cx="672.5" cy="-1933" rx="27" ry="18"/>
<text text-anchor="middle" x="672.5" y="-1931.1" font-family="Arial" font-size="8.00" fill="#1a1919">2 P(1)</text>
</g>
<!-- inline2x1734&#45;&gt;node1734 -->
<g id="edge50" class="edge">
<title>inline2x1734&#45;&gt;node1734</title>
<path fill="none" stroke="#3cb4a4" d="M664.83,-1915.63C658.61,-1902.34 649.86,-1883.67 643.54,-1870.17"/>
<text text-anchor="middle" x="664" y="-1890.6" font-family="arial" font-size="8.00" fill="#3cb4a4">array</text>
</g>
</g>
</svg>
