<?xml version="1.0" encoding="UTF-8" standalone="no"?>
<!DOCTYPE svg PUBLIC "-//W3C//DTD SVG 1.1//EN"
 "http://www.w3.org/Graphics/SVG/1.1/DTD/svg11.dtd">
<!-- Generated by graphviz version 2.44.1 (20200629.0846)
 -->
<!-- Title: G Pages: 1 -->
<svg width="536pt" height="635pt"
 viewBox="0.00 0.00 535.73 635.00" xmlns="http://www.w3.org/2000/svg" xmlns:xlink="http://www.w3.org/1999/xlink">
<g id="graph0" class="graph" transform="scale(1 1) rotate(0) translate(4 631)">
<title>G</title>
<!-- node0 -->
<g id="node1" class="node">
<title>node0</title>
<polygon fill="#e98693" stroke="black" points="390.5,-627 334.5,-627 334.5,-591 390.5,-591 390.5,-627"/>
<text text-anchor="middle" x="362.5" y="-605.3" font-family="Arial" font-size="14.00" fill="#1a1919">0 Start</text>
</g>
<!-- node1096 -->
<g id="node10" class="node">
<title>node1096</title>
<polygon fill="#da2d4f" stroke="black" points="455,-546 342,-546 342,-510 455,-510 455,-546"/>
<text text-anchor="middle" x="398.5" y="-524.3" font-family="Arial" font-size="14.00" fill="#ffffff">1096 Load T(...)</text>
</g>
<!-- node0&#45;&gt;node1096 -->
<g id="edge17" class="edge">
<title>node0&#45;&gt;node1096</title>
<path fill="none" stroke="#da2d4f" stroke-width="2" d="M370.31,-590.86C375.03,-580.51 381.14,-567.1 386.46,-555.41"/>
<polygon fill="#da2d4f" stroke="#da2d4f" stroke-width="2" points="389.74,-556.66 390.7,-546.11 383.37,-553.76 389.74,-556.66"/>
</g>
<!-- node545 -->
<g id="node2" class="node">
<title>node545</title>
<polygon fill="#f9f9f9" stroke="black" points="508.5,-465 426.5,-465 426.5,-429 508.5,-429 508.5,-465"/>
<text text-anchor="middle" x="467.5" y="-443.3" font-family="Arial" font-size="14.00" fill="#1a1919">545 Unbox</text>
</g>
<!-- node700 -->
<g id="node3" class="node">
<title>node700</title>
<polygon fill="#f9f9f9" stroke="black" points="427.5,-384 345.5,-384 345.5,-348 427.5,-348 427.5,-384"/>
<text text-anchor="middle" x="386.5" y="-362.3" font-family="Arial" font-size="14.00" fill="#1a1919">700 Unbox</text>
</g>
<!-- node545&#45;&gt;node700 -->
<g id="edge1" class="edge">
<title>node545&#45;&gt;node700</title>
<path fill="none" stroke="#da2d4f" stroke-width="2" d="M449.92,-428.86C438.67,-417.88 423.9,-403.48 411.45,-391.33"/>
<polygon fill="#da2d4f" stroke="#da2d4f" stroke-width="2" points="413.64,-388.58 404.04,-384.11 408.76,-393.6 413.64,-388.58"/>
</g>
<!-- node1042 -->
<g id="node5" class="node">
<title>node1042</title>
<polygon fill="#3cb4a4" stroke="black" points="467.5,-297 413.04,-279 467.5,-261 521.96,-279 467.5,-297"/>
<text text-anchor="middle" x="467.5" y="-275.3" font-family="Arial" font-size="14.00" fill="#1a1919">1042 &lt;</text>
</g>
<!-- node545&#45;&gt;node1042 -->
<g id="edge4" class="edge">
<title>node545&#45;&gt;node1042</title>
<path fill="none" stroke="#3cb4a4" d="M467.5,-428.86C467.5,-400.16 467.5,-342.13 467.5,-307.61"/>
<polygon fill="#3cb4a4" stroke="#3cb4a4" points="471,-307.3 467.5,-297.3 464,-307.3 471,-307.3"/>
<text text-anchor="middle" x="471" y="-362.3" font-family="arial" font-size="14.00" fill="#3cb4a4">y</text>
</g>
<!-- node700&#45;&gt;node1042 -->
<g id="edge3" class="edge">
<title>node700&#45;&gt;node1042</title>
<path fill="none" stroke="#3cb4a4" d="M402.89,-347.8C415.92,-334.13 434.18,-314.97 447.96,-300.5"/>
<polygon fill="#3cb4a4" stroke="#3cb4a4" points="450.74,-302.66 455.1,-293.01 445.67,-297.84 450.74,-302.66"/>
<text text-anchor="middle" x="435" y="-318.8" font-family="arial" font-size="14.00" fill="#3cb4a4">x</text>
</g>
<!-- node1079 -->
<g id="node8" class="node">
<title>node1079</title>
<polygon fill="#ffa500" stroke="black" points="251,-297 0,-297 0,-261 251,-261 251,-297"/>
<text text-anchor="middle" x="125.5" y="-275.3" font-family="Arial" font-size="14.00" fill="#1a1919">1079 Guard, else TransferToInterpreter</text>
</g>
<!-- node700&#45;&gt;node1079 -->
<g id="edge2" class="edge">
<title>node700&#45;&gt;node1079</title>
<path fill="none" stroke="#da2d4f" stroke-width="2" d="M345.43,-351.63C303.04,-337.82 236.38,-316.11 187.55,-300.21"/>
<polygon fill="#da2d4f" stroke="#da2d4f" stroke-width="2" points="188.63,-296.88 178.04,-297.11 186.46,-303.54 188.63,-296.88"/>
</g>
<!-- node774 -->
<g id="node4" class="node">
<title>node774</title>
<polygon fill="#3cb4a4" stroke="black" points="125.5,-384 54.95,-366 125.5,-348 196.05,-366 125.5,-384"/>
<text text-anchor="middle" x="125.5" y="-362.3" font-family="Arial" font-size="14.00" fill="#1a1919">774 IsNull</text>
</g>
<!-- node774&#45;&gt;node1079 -->
<g id="edge9" class="edge">
<title>node774&#45;&gt;node1079</title>
<path fill="none" stroke="#3cb4a4" d="M125.5,-347.8C125.5,-336.16 125.5,-320.55 125.5,-307.24"/>
<polygon fill="#3cb4a4" stroke="#3cb4a4" points="129,-307.18 125.5,-297.18 122,-307.18 129,-307.18"/>
<text text-anchor="middle" x="129.5" y="-318.8" font-family="arial" font-size="14.00" fill="#3cb4a4">?</text>
</g>
<!-- node1043 -->
<g id="node6" class="node">
<title>node1043</title>
<polygon fill="#3cb4a4" stroke="black" points="341.5,-210 233.08,-192 341.5,-174 449.92,-192 341.5,-210"/>
<text text-anchor="middle" x="341.5" y="-188.3" font-family="Arial" font-size="14.00" fill="#1a1919">1043 Conditional</text>
</g>
<!-- node1042&#45;&gt;node1043 -->
<g id="edge5" class="edge">
<title>node1042&#45;&gt;node1043</title>
<path fill="none" stroke="#3cb4a4" d="M451.85,-266.13C438.02,-255.77 417.2,-240.49 398.5,-228 390.34,-222.55 381.37,-216.89 373,-211.75"/>
<polygon fill="#3cb4a4" stroke="#3cb4a4" points="374.58,-208.62 364.22,-206.41 370.94,-214.6 374.58,-208.62"/>
<text text-anchor="middle" x="423.5" y="-231.8" font-family="arial" font-size="14.00" fill="#3cb4a4">?</text>
</g>
<!-- node1095 -->
<g id="node9" class="node">
<title>node1095</title>
<polygon fill="#f9f9f9" stroke="black" points="251,-123 86,-123 86,-87 251,-87 251,-123"/>
<text text-anchor="middle" x="168.5" y="-101.3" font-family="Arial" font-size="14.00" fill="#1a1919">1095 BoxNode$PureBox</text>
</g>
<!-- node1043&#45;&gt;node1095 -->
<g id="edge11" class="edge">
<title>node1043&#45;&gt;node1095</title>
<path fill="none" stroke="#3cb4a4" d="M315.6,-178.27C288.4,-164.91 245.15,-143.66 212.57,-127.65"/>
<polygon fill="#3cb4a4" stroke="#3cb4a4" points="213.78,-124.35 203.26,-123.08 210.69,-130.63 213.78,-124.35"/>
<text text-anchor="middle" x="301" y="-144.8" font-family="arial" font-size="14.00" fill="#3cb4a4">value [0 &#45; 1]</text>
</g>
<!-- node1072 -->
<g id="node7" class="node">
<title>node1072</title>
<polygon fill="#e98693" stroke="black" points="214,-36 123,-36 123,0 214,0 214,-36"/>
<text text-anchor="middle" x="168.5" y="-14.3" font-family="Arial" font-size="14.00" fill="#1a1919">1072 Return</text>
</g>
<!-- node1079&#45;&gt;node1095 -->
<g id="edge10" class="edge">
<title>node1079&#45;&gt;node1095</title>
<path fill="none" stroke="#da2d4f" stroke-width="2" d="M129.78,-260.88C137.28,-230.87 152.86,-168.58 161.8,-132.81"/>
<polygon fill="#da2d4f" stroke="#da2d4f" stroke-width="2" points="165.21,-133.6 164.24,-123.05 158.42,-131.9 165.21,-133.6"/>
</g>
<!-- node1095&#45;&gt;node1072 -->
<g id="edge8" class="edge">
<title>node1095&#45;&gt;node1072</title>
<path fill="none" stroke="#3cb4a4" d="M154.4,-86.84C150.78,-81.46 147.38,-75.27 145.5,-69 143.09,-60.93 145.06,-52.49 148.69,-44.89"/>
<polygon fill="#3cb4a4" stroke="#3cb4a4" points="151.79,-46.53 153.75,-36.12 145.72,-43.03 151.79,-46.53"/>
<text text-anchor="middle" x="162.5" y="-57.8" font-family="arial" font-size="14.00" fill="#3cb4a4">result</text>
</g>
<!-- node1095&#45;&gt;node1072 -->
<g id="edge12" class="edge">
<title>node1095&#45;&gt;node1072</title>
<path fill="none" stroke="#da2d4f" stroke-width="2" d="M175.44,-86.98C178.56,-77.35 181.2,-65.07 179.5,-54 179.09,-51.32 178.51,-48.56 177.83,-45.83"/>
<polygon fill="#da2d4f" stroke="#da2d4f" stroke-width="2" points="181.19,-44.83 175.05,-36.2 174.46,-46.78 181.19,-44.83"/>
</g>
<!-- node1096&#45;&gt;node545 -->
<g id="edge18" class="edge">
<title>node1096&#45;&gt;node545</title>
<path fill="none" stroke="#da2d4f" stroke-width="2" d="M413.47,-509.86C422.97,-498.99 435.4,-484.75 445.95,-472.67"/>
<polygon fill="#da2d4f" stroke="#da2d4f" stroke-width="2" points="448.62,-474.94 452.56,-465.11 443.34,-470.34 448.62,-474.94"/>
</g>
<!-- inline5x1043 -->
<g id="node11" class="node">
<title>inline5x1043</title>
<ellipse fill="#d7ede7" stroke="black" cx="296.5" cy="-279" rx="27" ry="18"/>
<text text-anchor="middle" x="296.5" y="-277.1" font-family="Arial" font-size="8.00" fill="#1a1919">5 C(0)</text>
</g>
<!-- inline5x1043&#45;&gt;node1043 -->
<g id="edge6" class="edge">
<title>inline5x1043&#45;&gt;node1043</title>
<path fill="none" stroke="#3cb4a4" d="M301.56,-261.28C304.89,-251.32 309.7,-238.59 315.5,-228 319.28,-221.1 324.28,-214.02 328.89,-208.06"/>
<text text-anchor="middle" x="332.5" y="-233.6" font-family="arial" font-size="8.00" fill="#3cb4a4">trueValue</text>
</g>
<!-- inline23x1043 -->
<g id="node12" class="node">
<title>inline23x1043</title>
<ellipse fill="#d7ede7" stroke="black" cx="368.5" cy="-279" rx="27" ry="18"/>
<text text-anchor="middle" x="368.5" y="-277.1" font-family="Arial" font-size="8.00" fill="#1a1919">23 C(1)</text>
</g>
<!-- inline23x1043&#45;&gt;node1043 -->
<g id="edge7" class="edge">
<title>inline23x1043&#45;&gt;node1043</title>
<path fill="none" stroke="#3cb4a4" d="M363.17,-261.21C358.37,-246.11 351.37,-224.09 346.64,-209.18"/>
<text text-anchor="middle" x="376" y="-233.6" font-family="arial" font-size="8.00" fill="#3cb4a4">falseValue</text>
</g>
<!-- inline143x774 -->
<g id="node13" class="node">
<title>inline143x774</title>
<ellipse fill="#d7ede7" stroke="black" cx="125.5" cy="-447" rx="27.46" ry="18"/>
<text text-anchor="middle" x="125.5" y="-445.1" font-family="Arial" font-size="8.00" fill="#1a1919">143 T(6)</text>
</g>
<!-- inline143x774&#45;&gt;node774 -->
<g id="edge13" class="edge">
<title>inline143x774&#45;&gt;node774</title>
<path fill="none" stroke="#3cb4a4" d="M125.5,-428.86C125.5,-415.61 125.5,-397.35 125.5,-384.11"/>
<text text-anchor="middle" x="135" y="-404.6" font-family="arial" font-size="8.00" fill="#3cb4a4">value</text>
</g>
<!-- inline158x545 -->
<g id="node14" class="node">
<title>inline158x545</title>
<ellipse fill="#d7ede7" stroke="black" cx="500.5" cy="-528" rx="27.46" ry="18"/>
<text text-anchor="middle" x="500.5" y="-526.1" font-family="Arial" font-size="8.00" fill="#1a1919">158 T(7)</text>
</g>
<!-- inline158x545&#45;&gt;node545 -->
<g id="edge14" class="edge">
<title>inline158x545&#45;&gt;node545</title>
<path fill="none" stroke="#3cb4a4" d="M493.5,-510.25C487.94,-496.93 480.19,-478.38 474.6,-465"/>
<text text-anchor="middle" x="494" y="-485.6" font-family="arial" font-size="8.00" fill="#3cb4a4">value</text>
</g>
<!-- inline176x700 -->
<g id="node15" class="node">
<title>inline176x700</title>
<ellipse fill="#d7ede7" stroke="black" cx="381.5" cy="-447" rx="27.46" ry="18"/>
<text text-anchor="middle" x="381.5" y="-445.1" font-family="Arial" font-size="8.00" fill="#1a1919">176 T(8)</text>
</g>
<!-- inline176x700&#45;&gt;node700 -->
<g id="edge15" class="edge">
<title>inline176x700&#45;&gt;node700</title>
<path fill="none" stroke="#3cb4a4" d="M382.58,-428.86C383.42,-415.61 384.58,-397.35 385.42,-384.11"/>
<text text-anchor="middle" x="394" y="-404.6" font-family="arial" font-size="8.00" fill="#3cb4a4">value</text>
</g>
<!-- inline2x1096 -->
<g id="node16" class="node">
<title>inline2x1096</title>
<ellipse fill="#d7ede7" stroke="black" cx="435.5" cy="-609" rx="27" ry="18"/>
<text text-anchor="middle" x="435.5" y="-607.1" font-family="Arial" font-size="8.00" fill="#1a1919">2 P(1)</text>
</g>
<!-- inline2x1096&#45;&gt;node1096 -->
<g id="edge16" class="edge">
<title>inline2x1096&#45;&gt;node1096</title>
<path fill="none" stroke="#3cb4a4" d="M427.83,-591.63C421.61,-578.34 412.86,-559.67 406.54,-546.17"/>
<text text-anchor="middle" x="427" y="-566.6" font-family="arial" font-size="8.00" fill="#3cb4a4">array</text>
</g>
</g>
</svg>
