<?xml version="1.0" encoding="UTF-8" standalone="no"?>
<!DOCTYPE svg PUBLIC "-//W3C//DTD SVG 1.1//EN"
 "http://www.w3.org/Graphics/SVG/1.1/DTD/svg11.dtd">
<!-- Generated by graphviz version 2.44.1 (20200629.0846)
 -->
<!-- Title: G Pages: 1 -->
<svg width="264pt" height="467pt"
 viewBox="0.00 0.00 264.00 467.00" xmlns="http://www.w3.org/2000/svg" xmlns:xlink="http://www.w3.org/1999/xlink">
<g id="graph0" class="graph" transform="scale(1 1) rotate(0) translate(4 463)">
<title>G</title>
<!-- node0 -->
<g id="node1" class="node">
<title>node0</title>
<polygon fill="#e98693" stroke="black" points="56,-459 0,-459 0,-423 56,-423 56,-459"/>
<text text-anchor="middle" x="28" y="-437.3" font-family="Arial" font-size="14.00" fill="#1a1919">0 Start</text>
</g>
<!-- node937 -->
<g id="node6" class="node">
<title>node937</title>
<polygon fill="#da2d4f" stroke="black" points="116.5,-378 11.5,-378 11.5,-342 116.5,-342 116.5,-378"/>
<text text-anchor="middle" x="64" y="-356.3" font-family="Arial" font-size="14.00" fill="#ffffff">937 Load T(...)</text>
</g>
<!-- node0&#45;&gt;node937 -->
<g id="edge9" class="edge">
<title>node0&#45;&gt;node937</title>
<path fill="none" stroke="#da2d4f" stroke-width="2" d="M35.81,-422.86C40.53,-412.51 46.64,-399.1 51.96,-387.41"/>
<polygon fill="#da2d4f" stroke="#da2d4f" stroke-width="2" points="55.24,-388.66 56.2,-378.11 48.87,-385.76 55.24,-388.66"/>
</g>
<!-- node532 -->
<g id="node2" class="node">
<title>node532</title>
<polygon fill="#f9f9f9" stroke="black" points="154,-297 72,-297 72,-261 154,-261 154,-297"/>
<text text-anchor="middle" x="113" y="-275.3" font-family="Arial" font-size="14.00" fill="#1a1919">532 Unbox</text>
</g>
<!-- node889 -->
<g id="node3" class="node">
<title>node889</title>
<polygon fill="#3cb4a4" stroke="black" points="189,-210 141.41,-192 189,-174 236.59,-192 189,-210"/>
<text text-anchor="middle" x="189" y="-188.3" font-family="Arial" font-size="14.00" fill="#1a1919">889 &amp;</text>
</g>
<!-- node532&#45;&gt;node889 -->
<g id="edge2" class="edge">
<title>node532&#45;&gt;node889</title>
<path fill="none" stroke="#3cb4a4" d="M128.38,-260.8C140.68,-247.05 157.94,-227.74 170.9,-213.24"/>
<polygon fill="#3cb4a4" stroke="#3cb4a4" points="173.55,-215.54 177.6,-205.75 168.33,-210.87 173.55,-215.54"/>
<text text-anchor="middle" x="158.5" y="-231.8" font-family="arial" font-size="14.00" fill="#3cb4a4">x</text>
</g>
<!-- node936 -->
<g id="node5" class="node">
<title>node936</title>
<polygon fill="#f9f9f9" stroke="black" points="223,-123 35,-123 35,-87 223,-87 223,-123"/>
<text text-anchor="middle" x="129" y="-101.3" font-family="Arial" font-size="14.00" fill="#1a1919">936 BoxNode$AllocatingBox</text>
</g>
<!-- node532&#45;&gt;node936 -->
<g id="edge1" class="edge">
<title>node532&#45;&gt;node936</title>
<path fill="none" stroke="#da2d4f" stroke-width="2" d="M114.59,-260.88C117.37,-231 123.13,-169.11 126.46,-133.27"/>
<polygon fill="#da2d4f" stroke="#da2d4f" stroke-width="2" points="129.97,-133.33 127.41,-123.05 123,-132.68 129.97,-133.33"/>
</g>
<!-- node889&#45;&gt;node936 -->
<g id="edge5" class="edge">
<title>node889&#45;&gt;node936</title>
<path fill="none" stroke="#3cb4a4" d="M179.36,-177.34C170.66,-165.03 157.65,-146.59 147.03,-131.54"/>
<polygon fill="#3cb4a4" stroke="#3cb4a4" points="149.73,-129.3 141.1,-123.15 144.01,-133.33 149.73,-129.3"/>
<text text-anchor="middle" x="209" y="-144.8" font-family="arial" font-size="14.00" fill="#3cb4a4">value [0 &#45; 4660]</text>
</g>
<!-- node918 -->
<g id="node4" class="node">
<title>node918</title>
<polygon fill="#e98693" stroke="black" points="170.5,-36 87.5,-36 87.5,0 170.5,0 170.5,-36"/>
<text text-anchor="middle" x="129" y="-14.3" font-family="Arial" font-size="14.00" fill="#1a1919">918 Return</text>
</g>
<!-- node936&#45;&gt;node918 -->
<g id="edge4" class="edge">
<title>node936&#45;&gt;node918</title>
<path fill="none" stroke="#3cb4a4" d="M114.9,-86.84C111.28,-81.46 107.88,-75.27 106,-69 103.59,-60.93 105.56,-52.49 109.19,-44.89"/>
<polygon fill="#3cb4a4" stroke="#3cb4a4" points="112.29,-46.53 114.25,-36.12 106.22,-43.03 112.29,-46.53"/>
<text text-anchor="middle" x="123" y="-57.8" font-family="arial" font-size="14.00" fill="#3cb4a4">result</text>
</g>
<!-- node936&#45;&gt;node918 -->
<g id="edge6" class="edge">
<title>node936&#45;&gt;node918</title>
<path fill="none" stroke="#da2d4f" stroke-width="2" d="M135.55,-86.8C137.37,-81.21 139.09,-74.92 140,-69 141.17,-61.39 140.29,-53.2 138.61,-45.71"/>
<polygon fill="#da2d4f" stroke="#da2d4f" stroke-width="2" points="141.97,-44.74 135.94,-36.02 135.22,-46.59 141.97,-44.74"/>
</g>
<!-- node937&#45;&gt;node532 -->
<g id="edge10" class="edge">
<title>node937&#45;&gt;node532</title>
<path fill="none" stroke="#da2d4f" stroke-width="2" d="M74.63,-341.86C81.18,-331.3 89.7,-317.56 97.05,-305.71"/>
<polygon fill="#da2d4f" stroke="#da2d4f" stroke-width="2" points="100.09,-307.45 102.39,-297.11 94.14,-303.76 100.09,-307.45"/>
</g>
<!-- inline719x889 -->
<g id="node7" class="node">
<title>inline719x889</title>
<ellipse fill="#d7ede7" stroke="black" cx="207" cy="-279" rx="35.34" ry="18"/>
<text text-anchor="middle" x="207" y="-277.1" font-family="Arial" font-size="8.00" fill="#1a1919">719 C(4660)</text>
</g>
<!-- inline719x889&#45;&gt;node889 -->
<g id="edge3" class="edge">
<title>inline719x889&#45;&gt;node889</title>
<path fill="none" stroke="#3cb4a4" d="M203.36,-260.8C200.13,-245.57 195.46,-223.52 192.33,-208.74"/>
<text text-anchor="middle" x="201" y="-233.6" font-family="arial" font-size="8.00" fill="#3cb4a4">y</text>
</g>
<!-- inline161x532 -->
<g id="node8" class="node">
<title>inline161x532</title>
<ellipse fill="#d7ede7" stroke="black" cx="162" cy="-360" rx="27.46" ry="18"/>
<text text-anchor="middle" x="162" y="-358.1" font-family="Arial" font-size="8.00" fill="#1a1919">161 T(7)</text>
</g>
<!-- inline161x532&#45;&gt;node532 -->
<g id="edge7" class="edge">
<title>inline161x532&#45;&gt;node532</title>
<path fill="none" stroke="#3cb4a4" d="M152.08,-343.01C143.81,-329.67 132.04,-310.69 123.58,-297.06"/>
<text text-anchor="middle" x="147.5" y="-317.6" font-family="arial" font-size="8.00" fill="#3cb4a4">value</text>
</g>
<!-- inline2x937 -->
<g id="node9" class="node">
<title>inline2x937</title>
<ellipse fill="#d7ede7" stroke="black" cx="101" cy="-441" rx="27" ry="18"/>
<text text-anchor="middle" x="101" y="-439.1" font-family="Arial" font-size="8.00" fill="#1a1919">2 P(1)</text>
</g>
<!-- inline2x937&#45;&gt;node937 -->
<g id="edge8" class="edge">
<title>inline2x937&#45;&gt;node937</title>
<path fill="none" stroke="#3cb4a4" d="M93.33,-423.63C87.11,-410.34 78.36,-391.67 72.04,-378.17"/>
<text text-anchor="middle" x="92.5" y="-398.6" font-family="arial" font-size="8.00" fill="#3cb4a4">array</text>
</g>
</g>
</svg>
