<?xml version="1.0" encoding="UTF-8" standalone="no"?>
<!DOCTYPE svg PUBLIC "-//W3C//DTD SVG 1.1//EN"
 "http://www.w3.org/Graphics/SVG/1.1/DTD/svg11.dtd">
<!-- Generated by graphviz version 2.44.1 (20200629.0846)
 -->
<!-- Title: G Pages: 1 -->
<svg width="633pt" height="540pt"
 viewBox="0.00 0.00 632.94 540.00" xmlns="http://www.w3.org/2000/svg" xmlns:xlink="http://www.w3.org/1999/xlink">
<g id="graph0" class="graph" transform="scale(1 1) rotate(0) translate(4 536)">
<title>G</title>
<!-- node0 -->
<g id="node1" class="node">
<title>node0</title>
<polygon fill="#e98693" stroke="black" points="185.17,-532 129.17,-532 129.17,-496 185.17,-496 185.17,-532"/>
<text text-anchor="middle" x="157.17" y="-510.3" font-family="Arial" font-size="14.00" fill="#1a1919">0 Start</text>
</g>
<!-- node973 -->
<g id="node10" class="node">
<title>node973</title>
<polygon fill="#da2d4f" stroke="black" points="246.67,-451 141.67,-451 141.67,-415 246.67,-415 246.67,-451"/>
<text text-anchor="middle" x="194.17" y="-429.3" font-family="Arial" font-size="14.00" fill="#ffffff">973 Load T(...)</text>
</g>
<!-- node0&#45;&gt;node973 -->
<g id="edge15" class="edge">
<title>node0&#45;&gt;node973</title>
<path fill="none" stroke="#da2d4f" stroke-width="2" d="M165.2,-495.86C170.05,-485.51 176.32,-472.1 181.8,-460.41"/>
<polygon fill="#da2d4f" stroke="#da2d4f" stroke-width="2" points="185.08,-461.65 186.16,-451.11 178.74,-458.68 185.08,-461.65"/>
</g>
<!-- node545 -->
<g id="node2" class="node">
<title>node545</title>
<polygon fill="#f9f9f9" stroke="black" points="170.17,-370 88.17,-370 88.17,-334 170.17,-334 170.17,-370"/>
<text text-anchor="middle" x="129.17" y="-348.3" font-family="Arial" font-size="14.00" fill="#1a1919">545 Unbox</text>
</g>
<!-- node616 -->
<g id="node3" class="node">
<title>node616</title>
<polygon fill="#ffa500" stroke="black" points="465.17,-283 227.17,-283 227.17,-247 465.17,-247 465.17,-283"/>
<text text-anchor="middle" x="346.17" y="-261.3" font-family="Arial" font-size="14.00" fill="#1a1919">616 Guard, else ClassCastException</text>
</g>
<!-- node545&#45;&gt;node616 -->
<g id="edge1" class="edge">
<title>node545&#45;&gt;node616</title>
<path fill="none" stroke="#da2d4f" stroke-width="2" d="M170.24,-334.91C205.13,-321.25 255.43,-301.54 293.31,-286.7"/>
<polygon fill="#da2d4f" stroke="#da2d4f" stroke-width="2" points="294.63,-289.95 302.66,-283.04 292.07,-283.43 294.63,-289.95"/>
</g>
<!-- node925 -->
<g id="node6" class="node">
<title>node925</title>
<polygon fill="#3cb4a4" stroke="black" points="117.17,-283 69.57,-265 117.17,-247 164.76,-265 117.17,-283"/>
<text text-anchor="middle" x="117.17" y="-261.3" font-family="Arial" font-size="14.00" fill="#1a1919">925 &amp;</text>
</g>
<!-- node545&#45;&gt;node925 -->
<g id="edge4" class="edge">
<title>node545&#45;&gt;node925</title>
<path fill="none" stroke="#3cb4a4" d="M126.74,-333.8C125.06,-321.93 122.81,-305.93 120.9,-292.45"/>
<polygon fill="#3cb4a4" stroke="#3cb4a4" points="124.33,-291.72 119.47,-282.31 117.4,-292.7 124.33,-291.72"/>
<text text-anchor="middle" x="127.67" y="-304.8" font-family="arial" font-size="14.00" fill="#3cb4a4">x</text>
</g>
<!-- node959 -->
<g id="node8" class="node">
<title>node959</title>
<polygon fill="#ffa500" stroke="black" points="473.17,-196 229.17,-196 229.17,-160 473.17,-160 473.17,-196"/>
<text text-anchor="middle" x="351.17" y="-174.3" font-family="Arial" font-size="14.00" fill="#1a1919">959 Guard, else TransferToInterpreter</text>
</g>
<!-- node616&#45;&gt;node959 -->
<g id="edge3" class="edge">
<title>node616&#45;&gt;node959</title>
<path fill="none" stroke="#da2d4f" stroke-width="2" d="M347.18,-246.8C347.86,-235.16 348.78,-219.55 349.57,-206.24"/>
<polygon fill="#da2d4f" stroke="#da2d4f" stroke-width="2" points="353.06,-206.36 350.16,-196.18 346.08,-205.95 353.06,-206.36"/>
</g>
<!-- node617 -->
<g id="node4" class="node">
<title>node617</title>
<polygon fill="#f9f9f9" stroke="black" points="507.67,-370 188.67,-370 188.67,-334 507.67,-334 507.67,-370"/>
<text text-anchor="middle" x="348.17" y="-348.3" font-family="Arial" font-size="14.00" fill="#1a1919">617 InstanceOf org/truffleruby/core/proc/RubyProc</text>
</g>
<!-- node617&#45;&gt;node616 -->
<g id="edge2" class="edge">
<title>node617&#45;&gt;node616</title>
<path fill="none" stroke="#3cb4a4" d="M347.76,-333.8C347.49,-322.16 347.12,-306.55 346.81,-293.24"/>
<polygon fill="#3cb4a4" stroke="#3cb4a4" points="350.31,-293.09 346.57,-283.18 343.31,-293.26 350.31,-293.09"/>
<text text-anchor="middle" x="351.17" y="-304.8" font-family="arial" font-size="14.00" fill="#3cb4a4">?</text>
</g>
<!-- node623 -->
<g id="node5" class="node">
<title>node623</title>
<polygon fill="#3cb4a4" stroke="black" points="554.17,-283 483.62,-265 554.17,-247 624.72,-265 554.17,-283"/>
<text text-anchor="middle" x="554.17" y="-261.3" font-family="Arial" font-size="14.00" fill="#1a1919">623 IsNull</text>
</g>
<!-- node623&#45;&gt;node959 -->
<g id="edge7" class="edge">
<title>node623&#45;&gt;node959</title>
<path fill="none" stroke="#3cb4a4" d="M528.87,-253.41C497.09,-240.1 441.81,-216.96 401.33,-200"/>
<polygon fill="#3cb4a4" stroke="#3cb4a4" points="402.48,-196.69 391.9,-196.06 399.77,-203.15 402.48,-196.69"/>
<text text-anchor="middle" x="468.17" y="-217.8" font-family="arial" font-size="14.00" fill="#3cb4a4">?</text>
</g>
<!-- node972 -->
<g id="node9" class="node">
<title>node972</title>
<polygon fill="#f9f9f9" stroke="black" points="223.17,-123 35.17,-123 35.17,-87 223.17,-87 223.17,-123"/>
<text text-anchor="middle" x="129.17" y="-101.3" font-family="Arial" font-size="14.00" fill="#1a1919">972 BoxNode$AllocatingBox</text>
</g>
<!-- node925&#45;&gt;node972 -->
<g id="edge9" class="edge">
<title>node925&#45;&gt;node972</title>
<path fill="none" stroke="#3cb4a4" d="M118.43,-247.39C120.48,-220.34 124.57,-166.5 127.07,-133.62"/>
<polygon fill="#3cb4a4" stroke="#3cb4a4" points="130.58,-133.58 127.85,-123.34 123.6,-133.05 130.58,-133.58"/>
<text text-anchor="middle" x="172.17" y="-174.3" font-family="arial" font-size="14.00" fill="#3cb4a4">value [0 &#45; 4660]</text>
</g>
<!-- node954 -->
<g id="node7" class="node">
<title>node954</title>
<polygon fill="#e98693" stroke="black" points="170.67,-36 87.67,-36 87.67,0 170.67,0 170.67,-36"/>
<text text-anchor="middle" x="129.17" y="-14.3" font-family="Arial" font-size="14.00" fill="#1a1919">954 Return</text>
</g>
<!-- node959&#45;&gt;node972 -->
<g id="edge8" class="edge">
<title>node959&#45;&gt;node972</title>
<path fill="none" stroke="#da2d4f" stroke-width="2" d="M297.99,-159.99C266.24,-149.84 225.72,-136.88 192.34,-126.2"/>
<polygon fill="#da2d4f" stroke="#da2d4f" stroke-width="2" points="193.27,-122.83 182.68,-123.11 191.14,-129.49 193.27,-122.83"/>
</g>
<!-- node972&#45;&gt;node954 -->
<g id="edge6" class="edge">
<title>node972&#45;&gt;node954</title>
<path fill="none" stroke="#3cb4a4" d="M114.42,-86.88C108.06,-77.44 102.77,-65.35 106.17,-54 107.08,-50.96 108.34,-47.95 109.82,-45.03"/>
<polygon fill="#3cb4a4" stroke="#3cb4a4" points="112.99,-46.55 115.06,-36.16 106.96,-42.98 112.99,-46.55"/>
<text text-anchor="middle" x="123.17" y="-57.8" font-family="arial" font-size="14.00" fill="#3cb4a4">result</text>
</g>
<!-- node972&#45;&gt;node954 -->
<g id="edge10" class="edge">
<title>node972&#45;&gt;node954</title>
<path fill="none" stroke="#da2d4f" stroke-width="2" d="M136.11,-86.98C139.23,-77.35 141.87,-65.07 140.17,-54 139.76,-51.32 139.18,-48.56 138.5,-45.83"/>
<polygon fill="#da2d4f" stroke="#da2d4f" stroke-width="2" points="141.86,-44.83 135.72,-36.2 135.13,-46.78 141.86,-44.83"/>
</g>
<!-- node973&#45;&gt;node545 -->
<g id="edge16" class="edge">
<title>node973&#45;&gt;node545</title>
<path fill="none" stroke="#da2d4f" stroke-width="2" d="M180.06,-414.86C171.21,-404.09 159.63,-390.02 149.75,-378.02"/>
<polygon fill="#da2d4f" stroke="#da2d4f" stroke-width="2" points="152.3,-375.61 143.24,-370.11 146.9,-380.05 152.3,-375.61"/>
</g>
<!-- inline755x925 -->
<g id="node11" class="node">
<title>inline755x925</title>
<ellipse fill="#d7ede7" stroke="black" cx="35.17" cy="-352" rx="35.34" ry="18"/>
<text text-anchor="middle" x="35.17" y="-350.1" font-family="Arial" font-size="8.00" fill="#1a1919">755 C(4660)</text>
</g>
<!-- inline755x925&#45;&gt;node925 -->
<g id="edge5" class="edge">
<title>inline755x925&#45;&gt;node925</title>
<path fill="none" stroke="#3cb4a4" d="M50.21,-335.41C65.93,-319.11 90.3,-293.85 104.9,-278.72"/>
<text text-anchor="middle" x="83.17" y="-306.6" font-family="arial" font-size="8.00" fill="#3cb4a4">y</text>
</g>
<!-- inline158x617 -->
<g id="node12" class="node">
<title>inline158x617</title>
<ellipse fill="#d7ede7" stroke="black" cx="348.17" cy="-433" rx="27.46" ry="18"/>
<text text-anchor="middle" x="348.17" y="-431.1" font-family="Arial" font-size="8.00" fill="#1a1919">158 T(7)</text>
</g>
<!-- inline158x617&#45;&gt;node617 -->
<g id="edge11" class="edge">
<title>inline158x617&#45;&gt;node617</title>
<path fill="none" stroke="#3cb4a4" d="M348.17,-414.86C348.17,-401.61 348.17,-383.35 348.17,-370.11"/>
<text text-anchor="middle" x="357.67" y="-390.6" font-family="arial" font-size="8.00" fill="#3cb4a4">value</text>
</g>
<!-- inline158x623 -->
<g id="node13" class="node">
<title>inline158x623</title>
<ellipse fill="#d7ede7" stroke="black" cx="554.17" cy="-352" rx="27.46" ry="18"/>
<text text-anchor="middle" x="554.17" y="-350.1" font-family="Arial" font-size="8.00" fill="#1a1919">158 T(7)</text>
</g>
<!-- inline158x623&#45;&gt;node623 -->
<g id="edge12" class="edge">
<title>inline158x623&#45;&gt;node623</title>
<path fill="none" stroke="#3cb4a4" d="M554.17,-333.8C554.17,-319.05 554.17,-297.92 554.17,-283.18"/>
<text text-anchor="middle" x="563.67" y="-306.6" font-family="arial" font-size="8.00" fill="#3cb4a4">value</text>
</g>
<!-- inline173x545 -->
<g id="node14" class="node">
<title>inline173x545</title>
<ellipse fill="#d7ede7" stroke="black" cx="96.17" cy="-433" rx="27.46" ry="18"/>
<text text-anchor="middle" x="96.17" y="-431.1" font-family="Arial" font-size="8.00" fill="#1a1919">173 T(8)</text>
</g>
<!-- inline173x545&#45;&gt;node545 -->
<g id="edge13" class="edge">
<title>inline173x545&#45;&gt;node545</title>
<path fill="none" stroke="#3cb4a4" d="M103.17,-415.25C108.73,-401.93 116.48,-383.38 122.07,-370"/>
<text text-anchor="middle" x="123.67" y="-390.6" font-family="arial" font-size="8.00" fill="#3cb4a4">value</text>
</g>
<!-- inline2x973 -->
<g id="node15" class="node">
<title>inline2x973</title>
<ellipse fill="#d7ede7" stroke="black" cx="230.17" cy="-514" rx="27" ry="18"/>
<text text-anchor="middle" x="230.17" y="-512.1" font-family="Arial" font-size="8.00" fill="#1a1919">2 P(1)</text>
</g>
<!-- inline2x973&#45;&gt;node973 -->
<g id="edge14" class="edge">
<title>inline2x973&#45;&gt;node973</title>
<path fill="none" stroke="#3cb4a4" d="M222.71,-496.63C216.65,-483.34 208.14,-464.67 201.99,-451.17"/>
<text text-anchor="middle" x="223.67" y="-471.6" font-family="arial" font-size="8.00" fill="#3cb4a4">array</text>
</g>
</g>
</svg>
