<?xml version="1.0" encoding="UTF-8" standalone="no"?>
<!DOCTYPE svg PUBLIC "-//W3C//DTD SVG 1.1//EN"
 "http://www.w3.org/Graphics/SVG/1.1/DTD/svg11.dtd">
<!-- Generated by graphviz version 2.44.1 (20200629.0846)
 -->
<!-- Title: G Pages: 1 -->
<svg width="824pt" height="1297pt"
 viewBox="0.00 0.00 823.66 1297.00" xmlns="http://www.w3.org/2000/svg" xmlns:xlink="http://www.w3.org/1999/xlink">
<g id="graph0" class="graph" transform="scale(1 1) rotate(0) translate(4 1293)">
<title>G</title>
<!-- node0 -->
<g id="node1" class="node">
<title>node0</title>
<polygon fill="#e98693" stroke="black" points="56,-1289 0,-1289 0,-1253 56,-1253 56,-1289"/>
<text text-anchor="middle" x="28" y="-1267.3" font-family="Arial" font-size="14.00" fill="#1a1919">0 Start</text>
</g>
<!-- node1274 -->
<g id="node19" class="node">
<title>node1274</title>
<polygon fill="#da2d4f" stroke="black" points="120.5,-1208 7.5,-1208 7.5,-1172 120.5,-1172 120.5,-1208"/>
<text text-anchor="middle" x="64" y="-1186.3" font-family="Arial" font-size="14.00" fill="#ffffff">1274 Load T(...)</text>
</g>
<!-- node0&#45;&gt;node1274 -->
<g id="edge32" class="edge">
<title>node0&#45;&gt;node1274</title>
<path fill="none" stroke="#da2d4f" stroke-width="2" d="M35.81,-1252.86C40.53,-1242.51 46.64,-1229.1 51.96,-1217.41"/>
<polygon fill="#da2d4f" stroke="#da2d4f" stroke-width="2" points="55.24,-1218.66 56.2,-1208.11 48.87,-1215.76 55.24,-1218.66"/>
</g>
<!-- node589 -->
<g id="node2" class="node">
<title>node589</title>
<polygon fill="#ffa500" stroke="black" points="415,-1121 177,-1121 177,-1085 415,-1085 415,-1121"/>
<text text-anchor="middle" x="296" y="-1099.3" font-family="Arial" font-size="14.00" fill="#1a1919">589 Guard, else ClassCastException</text>
</g>
<!-- node1242 -->
<g id="node12" class="node">
<title>node1242</title>
<polygon fill="#ffa500" stroke="black" points="524.5,-1034 273.5,-1034 273.5,-998 524.5,-998 524.5,-1034"/>
<text text-anchor="middle" x="399" y="-1012.3" font-family="Arial" font-size="14.00" fill="#1a1919">1242 Guard, else TransferToInterpreter</text>
</g>
<!-- node589&#45;&gt;node1242 -->
<g id="edge2" class="edge">
<title>node589&#45;&gt;node1242</title>
<path fill="none" stroke="#da2d4f" stroke-width="2" d="M316.84,-1084.8C332.2,-1072.13 353.28,-1054.73 370.24,-1040.74"/>
<polygon fill="#da2d4f" stroke="#da2d4f" stroke-width="2" points="372.7,-1043.24 378.19,-1034.18 368.25,-1037.84 372.7,-1043.24"/>
</g>
<!-- node590 -->
<g id="node3" class="node">
<title>node590</title>
<polygon fill="#f9f9f9" stroke="black" points="457.5,-1208 138.5,-1208 138.5,-1172 457.5,-1172 457.5,-1208"/>
<text text-anchor="middle" x="298" y="-1186.3" font-family="Arial" font-size="14.00" fill="#1a1919">590 InstanceOf org/truffleruby/core/proc/RubyProc</text>
</g>
<!-- node590&#45;&gt;node589 -->
<g id="edge1" class="edge">
<title>node590&#45;&gt;node589</title>
<path fill="none" stroke="#3cb4a4" d="M297.6,-1171.8C297.32,-1160.16 296.95,-1144.55 296.64,-1131.24"/>
<polygon fill="#3cb4a4" stroke="#3cb4a4" points="300.14,-1131.09 296.4,-1121.18 293.14,-1131.26 300.14,-1131.09"/>
<text text-anchor="middle" x="301" y="-1142.8" font-family="arial" font-size="14.00" fill="#3cb4a4">?</text>
</g>
<!-- node596 -->
<g id="node4" class="node">
<title>node596</title>
<polygon fill="#3cb4a4" stroke="black" points="504,-1121 433.45,-1103 504,-1085 574.55,-1103 504,-1121"/>
<text text-anchor="middle" x="504" y="-1099.3" font-family="Arial" font-size="14.00" fill="#1a1919">596 IsNull</text>
</g>
<!-- node596&#45;&gt;node1242 -->
<g id="edge13" class="edge">
<title>node596&#45;&gt;node1242</title>
<path fill="none" stroke="#3cb4a4" d="M487.59,-1088.72C471.75,-1075.89 447.4,-1056.18 428.23,-1040.66"/>
<polygon fill="#3cb4a4" stroke="#3cb4a4" points="430.35,-1037.88 420.37,-1034.3 425.95,-1043.32 430.35,-1037.88"/>
<text text-anchor="middle" x="461" y="-1055.8" font-family="arial" font-size="14.00" fill="#3cb4a4">?</text>
</g>
<!-- node816 -->
<g id="node5" class="node">
<title>node816</title>
<polygon fill="#da2d4f" stroke="black" points="668.5,-953 369.5,-953 369.5,-917 668.5,-917 668.5,-953"/>
<text text-anchor="middle" x="519" y="-931.3" font-family="Arial" font-size="14.00" fill="#ffffff">816 LoadField RubyDynamicObject.metaClass</text>
</g>
<!-- node847 -->
<g id="node6" class="node">
<title>node847</title>
<polygon fill="#3cb4a4" stroke="black" points="601,-866 546.54,-848 601,-830 655.46,-848 601,-866"/>
<text text-anchor="middle" x="601" y="-844.3" font-family="Arial" font-size="14.00" fill="#1a1919">847 ==</text>
</g>
<!-- node816&#45;&gt;node847 -->
<g id="edge4" class="edge">
<title>node816&#45;&gt;node847</title>
<path fill="none" stroke="#3cb4a4" d="M535.59,-916.8C548.78,-903.13 567.27,-883.97 581.22,-869.5"/>
<polygon fill="#3cb4a4" stroke="#3cb4a4" points="584.02,-871.64 588.45,-862.01 578.99,-866.78 584.02,-871.64"/>
<text text-anchor="middle" x="567.5" y="-887.8" font-family="arial" font-size="14.00" fill="#3cb4a4">x</text>
</g>
<!-- node911 -->
<g id="node7" class="node">
<title>node911</title>
<polygon fill="#3cb4a4" stroke="black" points="384,-866 329.54,-848 384,-830 438.46,-848 384,-866"/>
<text text-anchor="middle" x="384" y="-844.3" font-family="Arial" font-size="14.00" fill="#1a1919">911 ==</text>
</g>
<!-- node816&#45;&gt;node911 -->
<g id="edge6" class="edge">
<title>node816&#45;&gt;node911</title>
<path fill="none" stroke="#3cb4a4" d="M491.68,-916.8C468.01,-901.9 433.98,-880.47 410.54,-865.71"/>
<polygon fill="#3cb4a4" stroke="#3cb4a4" points="412.14,-862.58 401.81,-860.22 408.41,-868.51 412.14,-862.58"/>
<text text-anchor="middle" x="462.5" y="-887.8" font-family="arial" font-size="14.00" fill="#3cb4a4">x</text>
</g>
<!-- node1244 -->
<g id="node13" class="node">
<title>node1244</title>
<polygon fill="#ffa500" stroke="black" points="684,-779 410,-779 410,-743 684,-743 684,-779"/>
<text text-anchor="middle" x="547" y="-757.3" font-family="Arial" font-size="14.00" fill="#1a1919">1244 Guard not, else TransferToInterpreter</text>
</g>
<!-- node816&#45;&gt;node1244 -->
<g id="edge3" class="edge">
<title>node816&#45;&gt;node1244</title>
<path fill="none" stroke="#da2d4f" stroke-width="2" d="M521.79,-916.88C526.65,-887 536.73,-825.11 542.56,-789.27"/>
<polygon fill="#da2d4f" stroke="#da2d4f" stroke-width="2" points="546.07,-789.48 544.22,-779.05 539.16,-788.36 546.07,-789.48"/>
</g>
<!-- node847&#45;&gt;node1244 -->
<g id="edge15" class="edge">
<title>node847&#45;&gt;node1244</title>
<path fill="none" stroke="#3cb4a4" d="M591.84,-832.58C584.06,-820.34 572.72,-802.48 563.38,-787.79"/>
<polygon fill="#3cb4a4" stroke="#3cb4a4" points="566.2,-785.69 557.88,-779.13 560.29,-789.45 566.2,-785.69"/>
<text text-anchor="middle" x="581" y="-800.8" font-family="arial" font-size="14.00" fill="#3cb4a4">?</text>
</g>
<!-- node1245 -->
<g id="node14" class="node">
<title>node1245</title>
<polygon fill="#ffa500" stroke="black" points="521.5,-706 270.5,-706 270.5,-670 521.5,-670 521.5,-706"/>
<text text-anchor="middle" x="396" y="-684.3" font-family="Arial" font-size="14.00" fill="#1a1919">1245 Guard, else TransferToInterpreter</text>
</g>
<!-- node911&#45;&gt;node1245 -->
<g id="edge17" class="edge">
<title>node911&#45;&gt;node1245</title>
<path fill="none" stroke="#3cb4a4" d="M385.26,-830.39C387.32,-803.34 391.41,-749.5 393.9,-716.62"/>
<polygon fill="#3cb4a4" stroke="#3cb4a4" points="397.42,-716.58 394.68,-706.34 390.44,-716.05 397.42,-716.58"/>
<text text-anchor="middle" x="395" y="-757.3" font-family="arial" font-size="14.00" fill="#3cb4a4">?</text>
</g>
<!-- node1143 -->
<g id="node8" class="node">
<title>node1143</title>
<polygon fill="#e98693" stroke="black" points="541,-36 451,-36 451,0 541,0 541,-36"/>
<text text-anchor="middle" x="496" y="-14.3" font-family="Arial" font-size="14.00" fill="#1a1919">1143 Return</text>
</g>
<!-- node1182 -->
<g id="node9" class="node">
<title>node1182</title>
<polygon fill="#da2d4f" stroke="black" points="639,-625 393,-625 393,-589 639,-589 639,-625"/>
<text text-anchor="middle" x="516" y="-603.3" font-family="Arial" font-size="14.00" fill="#ffffff">1182 LoadField DynamicObject.shape</text>
</g>
<!-- node1184 -->
<g id="node10" class="node">
<title>node1184</title>
<polygon fill="#3cb4a4" stroke="black" points="395,-538 334.17,-520 395,-502 455.83,-520 395,-538"/>
<text text-anchor="middle" x="395" y="-516.3" font-family="Arial" font-size="14.00" fill="#1a1919">1184 ==</text>
</g>
<!-- node1182&#45;&gt;node1184 -->
<g id="edge10" class="edge">
<title>node1182&#45;&gt;node1184</title>
<path fill="none" stroke="#3cb4a4" d="M491.51,-588.8C470.85,-574.28 441.37,-553.57 420.44,-538.87"/>
<polygon fill="#3cb4a4" stroke="#3cb4a4" points="422.24,-535.86 412.04,-532.97 418.21,-541.59 422.24,-535.86"/>
<text text-anchor="middle" x="465.5" y="-559.8" font-family="arial" font-size="14.00" fill="#3cb4a4">x</text>
</g>
<!-- node1248 -->
<g id="node15" class="node">
<title>node1248</title>
<polygon fill="#ffa500" stroke="black" points="641.5,-451 390.5,-451 390.5,-415 641.5,-415 641.5,-451"/>
<text text-anchor="middle" x="516" y="-429.3" font-family="Arial" font-size="14.00" fill="#1a1919">1248 Guard, else TransferToInterpreter</text>
</g>
<!-- node1182&#45;&gt;node1248 -->
<g id="edge9" class="edge">
<title>node1182&#45;&gt;node1248</title>
<path fill="none" stroke="#da2d4f" stroke-width="2" d="M516,-588.88C516,-559 516,-497.11 516,-461.27"/>
<polygon fill="#da2d4f" stroke="#da2d4f" stroke-width="2" points="519.5,-461.05 516,-451.05 512.5,-461.05 519.5,-461.05"/>
</g>
<!-- node1184&#45;&gt;node1248 -->
<g id="edge19" class="edge">
<title>node1184&#45;&gt;node1248</title>
<path fill="none" stroke="#3cb4a4" d="M412.08,-507C430.45,-494.1 460.1,-473.27 483.04,-457.15"/>
<polygon fill="#3cb4a4" stroke="#3cb4a4" points="485.3,-459.84 491.47,-451.23 481.27,-454.12 485.3,-459.84"/>
<text text-anchor="middle" x="466" y="-472.8" font-family="arial" font-size="14.00" fill="#3cb4a4">?</text>
</g>
<!-- node1249 -->
<g id="node16" class="node">
<title>node1249</title>
<polygon fill="#ffa500" stroke="black" points="501.5,-378 250.5,-378 250.5,-342 501.5,-342 501.5,-378"/>
<text text-anchor="middle" x="376" y="-356.3" font-family="Arial" font-size="14.00" fill="#1a1919">1249 Guard, else TransferToInterpreter</text>
</g>
<!-- node1184&#45;&gt;node1249 -->
<g id="edge21" class="edge">
<title>node1184&#45;&gt;node1249</title>
<path fill="none" stroke="#3cb4a4" d="M388.81,-503.64C383.68,-490.06 376.8,-469.57 374,-451 371.61,-435.18 373.7,-431 374,-415 374.16,-406.29 374.47,-396.8 374.79,-388.24"/>
<polygon fill="#3cb4a4" stroke="#3cb4a4" points="378.3,-388.15 375.21,-378.02 371.31,-387.87 378.3,-388.15"/>
<text text-anchor="middle" x="378" y="-429.3" font-family="arial" font-size="14.00" fill="#3cb4a4">?</text>
</g>
<!-- node1233 -->
<g id="node11" class="node">
<title>node1233</title>
<polygon fill="#3cb4a4" stroke="black" points="439,-210 352.7,-192 439,-174 525.3,-192 439,-210"/>
<text text-anchor="middle" x="439" y="-188.3" font-family="Arial" font-size="14.00" fill="#1a1919">1233 Narrow</text>
</g>
<!-- node1272 -->
<g id="node17" class="node">
<title>node1272</title>
<polygon fill="#f9f9f9" stroke="black" points="593.5,-123 398.5,-123 398.5,-87 593.5,-87 593.5,-123"/>
<text text-anchor="middle" x="496" y="-101.3" font-family="Arial" font-size="14.00" fill="#1a1919">1272 BoxNode$AllocatingBox</text>
</g>
<!-- node1233&#45;&gt;node1272 -->
<g id="edge23" class="edge">
<title>node1233&#45;&gt;node1272</title>
<path fill="none" stroke="#3cb4a4" d="M449.19,-175.8C457.41,-163.54 469.16,-146.03 478.82,-131.61"/>
<polygon fill="#3cb4a4" stroke="#3cb4a4" points="481.86,-133.36 484.53,-123.11 476.05,-129.47 481.86,-133.36"/>
<text text-anchor="middle" x="486.5" y="-144.8" font-family="arial" font-size="14.00" fill="#3cb4a4">value</text>
</g>
<!-- node1242&#45;&gt;node816 -->
<g id="edge14" class="edge">
<title>node1242&#45;&gt;node816</title>
<path fill="none" stroke="#da2d4f" stroke-width="2" d="M425.04,-997.86C442.49,-986.37 465.67,-971.11 484.63,-958.63"/>
<polygon fill="#da2d4f" stroke="#da2d4f" stroke-width="2" points="486.58,-961.53 493.01,-953.11 482.74,-955.68 486.58,-961.53"/>
</g>
<!-- node1244&#45;&gt;node1245 -->
<g id="edge16" class="edge">
<title>node1244&#45;&gt;node1245</title>
<path fill="none" stroke="#da2d4f" stroke-width="2" d="M510.83,-742.99C490.07,-733.23 463.79,-720.88 441.62,-710.45"/>
<polygon fill="#da2d4f" stroke="#da2d4f" stroke-width="2" points="442.94,-707.2 432.4,-706.11 439.96,-713.54 442.94,-707.2"/>
</g>
<!-- node1245&#45;&gt;node1182 -->
<g id="edge18" class="edge">
<title>node1245&#45;&gt;node1182</title>
<path fill="none" stroke="#da2d4f" stroke-width="2" d="M422.04,-669.86C439.49,-658.37 462.67,-643.11 481.63,-630.63"/>
<polygon fill="#da2d4f" stroke="#da2d4f" stroke-width="2" points="483.58,-633.53 490.01,-625.11 479.74,-627.68 483.58,-633.53"/>
</g>
<!-- node1248&#45;&gt;node1249 -->
<g id="edge20" class="edge">
<title>node1248&#45;&gt;node1249</title>
<path fill="none" stroke="#da2d4f" stroke-width="2" d="M482.47,-414.99C463.39,-405.32 439.29,-393.1 418.85,-382.73"/>
<polygon fill="#da2d4f" stroke="#da2d4f" stroke-width="2" points="420.25,-379.52 409.75,-378.11 417.08,-385.76 420.25,-379.52"/>
</g>
<!-- node1273 -->
<g id="node18" class="node">
<title>node1273</title>
<polygon fill="#da2d4f" stroke="black" points="636,-297 356,-297 356,-261 636,-261 636,-297"/>
<text text-anchor="middle" x="496" y="-275.3" font-family="Arial" font-size="14.00" fill="#ffffff">1273 LoadField RubyBasicObject.primitive1</text>
</g>
<!-- node1249&#45;&gt;node1273 -->
<g id="edge22" class="edge">
<title>node1249&#45;&gt;node1273</title>
<path fill="none" stroke="#da2d4f" stroke-width="2" d="M402.04,-341.86C419.49,-330.37 442.67,-315.11 461.63,-302.63"/>
<polygon fill="#da2d4f" stroke="#da2d4f" stroke-width="2" points="463.58,-305.53 470.01,-297.11 459.74,-299.68 463.58,-305.53"/>
</g>
<!-- node1272&#45;&gt;node1143 -->
<g id="edge8" class="edge">
<title>node1272&#45;&gt;node1143</title>
<path fill="none" stroke="#3cb4a4" d="M481.25,-86.88C474.89,-77.44 469.6,-65.35 473,-54 473.91,-50.96 475.17,-47.95 476.65,-45.03"/>
<polygon fill="#3cb4a4" stroke="#3cb4a4" points="479.82,-46.55 481.9,-36.16 473.79,-42.98 479.82,-46.55"/>
<text text-anchor="middle" x="490" y="-57.8" font-family="arial" font-size="14.00" fill="#3cb4a4">result</text>
</g>
<!-- node1272&#45;&gt;node1143 -->
<g id="edge24" class="edge">
<title>node1272&#45;&gt;node1143</title>
<path fill="none" stroke="#da2d4f" stroke-width="2" d="M502.55,-86.8C504.37,-81.21 506.09,-74.92 507,-69 508.17,-61.39 507.29,-53.2 505.61,-45.71"/>
<polygon fill="#da2d4f" stroke="#da2d4f" stroke-width="2" points="508.97,-44.74 502.94,-36.02 502.22,-46.59 508.97,-44.74"/>
</g>
<!-- node1273&#45;&gt;node1233 -->
<g id="edge12" class="edge">
<title>node1273&#45;&gt;node1233</title>
<path fill="none" stroke="#3cb4a4" d="M484.47,-260.8C475.98,-248.14 464.34,-230.79 454.96,-216.8"/>
<polygon fill="#3cb4a4" stroke="#3cb4a4" points="457.66,-214.54 449.18,-208.18 451.84,-218.44 457.66,-214.54"/>
<text text-anchor="middle" x="486.5" y="-231.8" font-family="arial" font-size="14.00" fill="#3cb4a4">value</text>
</g>
<!-- node1273&#45;&gt;node1272 -->
<g id="edge25" class="edge">
<title>node1273&#45;&gt;node1272</title>
<path fill="none" stroke="#da2d4f" stroke-width="2" d="M508.83,-260.89C517.84,-247.74 529.13,-228.71 534,-210 538.03,-194.52 538.03,-189.48 534,-174 530.12,-159.09 522.16,-143.98 514.53,-131.8"/>
<polygon fill="#da2d4f" stroke="#da2d4f" stroke-width="2" points="517.24,-129.55 508.83,-123.11 511.39,-133.39 517.24,-129.55"/>
</g>
<!-- node1274&#45;&gt;node589 -->
<g id="edge33" class="edge">
<title>node1274&#45;&gt;node589</title>
<path fill="none" stroke="#da2d4f" stroke-width="2" d="M110.67,-1171.9C147.95,-1158.24 200.33,-1139.05 239.9,-1124.56"/>
<polygon fill="#da2d4f" stroke="#da2d4f" stroke-width="2" points="241.22,-1127.8 249.4,-1121.07 238.81,-1121.23 241.22,-1127.8"/>
</g>
<!-- inline846x847 -->
<g id="node20" class="node">
<title>inline846x847</title>
<ellipse fill="#d7ede7" stroke="black" cx="751" cy="-935" rx="64.83" ry="18"/>
<text text-anchor="middle" x="751" y="-933.1" font-family="Arial" font-size="8.00" fill="#1a1919">846 C(instance:RubyClass)</text>
</g>
<!-- inline846x847&#45;&gt;node847 -->
<g id="edge5" class="edge">
<title>inline846x847&#45;&gt;node847</title>
<path fill="none" stroke="#3cb4a4" d="M723.84,-918.61C693.95,-901.67 646.67,-874.88 620.34,-859.96"/>
<text text-anchor="middle" x="686" y="-889.6" font-family="arial" font-size="8.00" fill="#3cb4a4">y</text>
</g>
<!-- inline910x911 -->
<g id="node21" class="node">
<title>inline910x911</title>
<ellipse fill="#d7ede7" stroke="black" cx="287" cy="-935" rx="64.83" ry="18"/>
<text text-anchor="middle" x="287" y="-933.1" font-family="Arial" font-size="8.00" fill="#1a1919">910 C(instance:RubyClass)</text>
</g>
<!-- inline910x911&#45;&gt;node911 -->
<g id="edge7" class="edge">
<title>inline910x911&#45;&gt;node911</title>
<path fill="none" stroke="#3cb4a4" d="M305.7,-917.61C324.42,-901.21 352.81,-876.33 369.77,-861.47"/>
<text text-anchor="middle" x="343" y="-889.6" font-family="arial" font-size="8.00" fill="#3cb4a4">y</text>
</g>
<!-- inline1179x1184 -->
<g id="node22" class="node">
<title>inline1179x1184</title>
<ellipse fill="#d7ede7" stroke="black" cx="306" cy="-607" rx="69.4" ry="18"/>
<text text-anchor="middle" x="306" y="-605.1" font-family="Arial" font-size="8.00" fill="#1a1919">1179 C(instance:ShapeBasic)</text>
</g>
<!-- inline1179x1184&#45;&gt;node1184 -->
<g id="edge11" class="edge">
<title>inline1179x1184&#45;&gt;node1184</title>
<path fill="none" stroke="#3cb4a4" d="M323.58,-589.21C340.5,-573.05 365.74,-548.95 381.24,-534.14"/>
<text text-anchor="middle" x="357" y="-561.6" font-family="arial" font-size="8.00" fill="#3cb4a4">y</text>
</g>
<!-- inline158x590 -->
<g id="node23" class="node">
<title>inline158x590</title>
<ellipse fill="#d7ede7" stroke="black" cx="298" cy="-1271" rx="27.46" ry="18"/>
<text text-anchor="middle" x="298" y="-1269.1" font-family="Arial" font-size="8.00" fill="#1a1919">158 T(7)</text>
</g>
<!-- inline158x590&#45;&gt;node590 -->
<g id="edge26" class="edge">
<title>inline158x590&#45;&gt;node590</title>
<path fill="none" stroke="#3cb4a4" d="M298,-1252.86C298,-1239.61 298,-1221.35 298,-1208.11"/>
<text text-anchor="middle" x="307.5" y="-1228.6" font-family="arial" font-size="8.00" fill="#3cb4a4">value</text>
</g>
<!-- inline158x596 -->
<g id="node24" class="node">
<title>inline158x596</title>
<ellipse fill="#d7ede7" stroke="black" cx="504" cy="-1190" rx="27.46" ry="18"/>
<text text-anchor="middle" x="504" y="-1188.1" font-family="Arial" font-size="8.00" fill="#1a1919">158 T(7)</text>
</g>
<!-- inline158x596&#45;&gt;node596 -->
<g id="edge27" class="edge">
<title>inline158x596&#45;&gt;node596</title>
<path fill="none" stroke="#3cb4a4" d="M504,-1171.8C504,-1157.05 504,-1135.92 504,-1121.18"/>
<text text-anchor="middle" x="513.5" y="-1144.6" font-family="arial" font-size="8.00" fill="#3cb4a4">value</text>
</g>
<!-- inline173x816 -->
<g id="node25" class="node">
<title>inline173x816</title>
<ellipse fill="#d7ede7" stroke="black" cx="570" cy="-1016" rx="27.46" ry="18"/>
<text text-anchor="middle" x="570" y="-1014.1" font-family="Arial" font-size="8.00" fill="#1a1919">173 T(8)</text>
</g>
<!-- inline173x816&#45;&gt;node816 -->
<g id="edge28" class="edge">
<title>inline173x816&#45;&gt;node816</title>
<path fill="none" stroke="#3cb4a4" d="M559.68,-999.01C551.06,-985.67 538.81,-966.69 530.01,-953.06"/>
<text text-anchor="middle" x="557" y="-973.6" font-family="arial" font-size="8.00" fill="#3cb4a4">object</text>
</g>
<!-- inline173x1182 -->
<g id="node26" class="node">
<title>inline173x1182</title>
<ellipse fill="#d7ede7" stroke="black" cx="567" cy="-688" rx="27.46" ry="18"/>
<text text-anchor="middle" x="567" y="-686.1" font-family="Arial" font-size="8.00" fill="#1a1919">173 T(8)</text>
</g>
<!-- inline173x1182&#45;&gt;node1182 -->
<g id="edge29" class="edge">
<title>inline173x1182&#45;&gt;node1182</title>
<path fill="none" stroke="#3cb4a4" d="M556.68,-671.01C548.06,-657.67 535.81,-638.69 527.01,-625.06"/>
<text text-anchor="middle" x="554" y="-645.6" font-family="arial" font-size="8.00" fill="#3cb4a4">object</text>
</g>
<!-- inline173x1273 -->
<g id="node27" class="node">
<title>inline173x1273</title>
<ellipse fill="#d7ede7" stroke="black" cx="547" cy="-360" rx="27.46" ry="18"/>
<text text-anchor="middle" x="547" y="-358.1" font-family="Arial" font-size="8.00" fill="#1a1919">173 T(8)</text>
</g>
<!-- inline173x1273&#45;&gt;node1273 -->
<g id="edge30" class="edge">
<title>inline173x1273&#45;&gt;node1273</title>
<path fill="none" stroke="#3cb4a4" d="M536.68,-343.01C528.06,-329.67 515.81,-310.69 507.01,-297.06"/>
<text text-anchor="middle" x="534" y="-317.6" font-family="arial" font-size="8.00" fill="#3cb4a4">object</text>
</g>
<!-- inline2x1274 -->
<g id="node28" class="node">
<title>inline2x1274</title>
<ellipse fill="#d7ede7" stroke="black" cx="101" cy="-1271" rx="27" ry="18"/>
<text text-anchor="middle" x="101" y="-1269.1" font-family="Arial" font-size="8.00" fill="#1a1919">2 P(1)</text>
</g>
<!-- inline2x1274&#45;&gt;node1274 -->
<g id="edge31" class="edge">
<title>inline2x1274&#45;&gt;node1274</title>
<path fill="none" stroke="#3cb4a4" d="M93.33,-1253.63C87.11,-1240.34 78.36,-1221.67 72.04,-1208.17"/>
<text text-anchor="middle" x="92.5" y="-1228.6" font-family="arial" font-size="8.00" fill="#3cb4a4">array</text>
</g>
</g>
</svg>
