<?xml version="1.0" encoding="UTF-8" standalone="no"?>
<!DOCTYPE svg PUBLIC "-//W3C//DTD SVG 1.1//EN"
 "http://www.w3.org/Graphics/SVG/1.1/DTD/svg11.dtd">
<!-- Generated by graphviz version 2.44.1 (20200629.0846)
 -->
<!-- Title: G Pages: 1 -->
<svg width="681pt" height="728pt"
 viewBox="0.00 0.00 681.45 728.00" xmlns="http://www.w3.org/2000/svg" xmlns:xlink="http://www.w3.org/1999/xlink">
<g id="graph0" class="graph" transform="scale(1 1) rotate(0) translate(4 724)">
<title>G</title>
<!-- node0 -->
<g id="node1" class="node">
<title>node0</title>
<polygon fill="#e98693" stroke="black" points="323.95,-720 267.95,-720 267.95,-684 323.95,-684 323.95,-720"/>
<text text-anchor="middle" x="295.95" y="-698.3" font-family="Arial" font-size="14.00" fill="#1a1919">0 Start</text>
</g>
<!-- node2711 -->
<g id="node14" class="node">
<title>node2711</title>
<polygon fill="#da2d4f" stroke="black" points="387.95,-639 275.95,-639 275.95,-603 387.95,-603 387.95,-639"/>
<text text-anchor="middle" x="331.95" y="-617.3" font-family="Arial" font-size="14.00" fill="#ffffff">2711 Load T(...)</text>
</g>
<!-- node0&#45;&gt;node2711 -->
<g id="edge23" class="edge">
<title>node0&#45;&gt;node2711</title>
<path fill="none" stroke="#da2d4f" stroke-width="2" d="M303.76,-683.86C308.48,-673.51 314.59,-660.1 319.91,-648.41"/>
<polygon fill="#da2d4f" stroke="#da2d4f" stroke-width="2" points="323.19,-649.66 324.15,-639.11 316.82,-646.76 323.19,-649.66"/>
</g>
<!-- node521 -->
<g id="node2" class="node">
<title>node521</title>
<polygon fill="#f9f9f9" stroke="black" points="439.95,-558 357.95,-558 357.95,-522 439.95,-522 439.95,-558"/>
<text text-anchor="middle" x="398.95" y="-536.3" font-family="Arial" font-size="14.00" fill="#1a1919">521 Unbox</text>
</g>
<!-- node680 -->
<g id="node3" class="node">
<title>node680</title>
<polygon fill="#f9f9f9" stroke="black" points="499.95,-471 417.95,-471 417.95,-435 499.95,-435 499.95,-471"/>
<text text-anchor="middle" x="458.95" y="-449.3" font-family="Arial" font-size="14.00" fill="#1a1919">680 Unbox</text>
</g>
<!-- node521&#45;&gt;node680 -->
<g id="edge1" class="edge">
<title>node521&#45;&gt;node680</title>
<path fill="none" stroke="#da2d4f" stroke-width="2" d="M411.09,-521.8C419.63,-509.7 431.21,-493.3 440.83,-479.67"/>
<polygon fill="#da2d4f" stroke="#da2d4f" stroke-width="2" points="443.92,-481.36 446.83,-471.18 438.2,-477.33 443.92,-481.36"/>
</g>
<!-- node1190 -->
<g id="node5" class="node">
<title>node1190</title>
<polygon fill="#3cb4a4" stroke="black" points="338.95,-471 278.12,-453 338.95,-435 399.78,-453 338.95,-471"/>
<text text-anchor="middle" x="338.95" y="-449.3" font-family="Arial" font-size="14.00" fill="#1a1919">1190 ==</text>
</g>
<!-- node521&#45;&gt;node1190 -->
<g id="edge18" class="edge">
<title>node521&#45;&gt;node1190</title>
<path fill="none" stroke="#3cb4a4" d="M386.81,-521.8C377.56,-508.7 364.76,-490.57 354.72,-476.35"/>
<polygon fill="#3cb4a4" stroke="#3cb4a4" points="357.52,-474.23 348.89,-468.08 351.8,-478.27 357.52,-474.23"/>
<text text-anchor="middle" x="375.45" y="-492.8" font-family="arial" font-size="14.00" fill="#3cb4a4">x</text>
</g>
<!-- node1189 -->
<g id="node4" class="node">
<title>node1189</title>
<polygon fill="#e98693" stroke="black" points="390.45,-384 333.45,-384 333.45,-348 390.45,-348 390.45,-384"/>
<text text-anchor="middle" x="361.95" y="-362.3" font-family="Arial" font-size="14.00" fill="#1a1919">1189 If</text>
</g>
<!-- node680&#45;&gt;node1189 -->
<g id="edge2" class="edge">
<title>node680&#45;&gt;node1189</title>
<path fill="none" stroke="#da2d4f" stroke-width="2" d="M439.32,-434.8C424.99,-422.24 405.37,-405.05 389.48,-391.12"/>
<polygon fill="#da2d4f" stroke="#da2d4f" stroke-width="2" points="391.38,-388.13 381.55,-384.18 386.76,-393.4 391.38,-388.13"/>
</g>
<!-- node2704 -->
<g id="node12" class="node">
<title>node2704</title>
<polygon fill="#f9f9f9" stroke="black" points="673.45,-210 478.45,-210 478.45,-174 673.45,-174 673.45,-210"/>
<text text-anchor="middle" x="575.95" y="-188.3" font-family="Arial" font-size="14.00" fill="#1a1919">2704 BoxNode$AllocatingBox</text>
</g>
<!-- node680&#45;&gt;node2704 -->
<g id="edge14" class="edge">
<title>node680&#45;&gt;node2704</title>
<path fill="none" stroke="#3cb4a4" d="M466.81,-434.6C486.83,-390.28 539.88,-272.85 563.87,-219.75"/>
<polygon fill="#3cb4a4" stroke="#3cb4a4" points="567.2,-220.87 568.13,-210.32 560.82,-217.99 567.2,-220.87"/>
<text text-anchor="middle" x="536.45" y="-318.8" font-family="arial" font-size="14.00" fill="#3cb4a4">value</text>
</g>
<!-- node2710 -->
<g id="node13" class="node">
<title>node2710</title>
<polygon fill="#f9f9f9" stroke="black" points="476.45,-123 281.45,-123 281.45,-87 476.45,-87 476.45,-123"/>
<text text-anchor="middle" x="378.95" y="-101.3" font-family="Arial" font-size="14.00" fill="#1a1919">2710 BoxNode$AllocatingBox</text>
</g>
<!-- node680&#45;&gt;node2710 -->
<g id="edge16" class="edge">
<title>node680&#45;&gt;node2710</title>
<path fill="none" stroke="#3cb4a4" d="M456.05,-434.8C453.42,-417.67 449.95,-390.59 449.95,-367 449.95,-367 449.95,-367 449.95,-191 449.95,-166.16 431.86,-144.74 413.95,-129.61"/>
<polygon fill="#3cb4a4" stroke="#3cb4a4" points="415.79,-126.61 405.79,-123.12 411.43,-132.09 415.79,-126.61"/>
<text text-anchor="middle" x="466.45" y="-275.3" font-family="arial" font-size="14.00" fill="#3cb4a4">value</text>
</g>
<!-- node1191 -->
<g id="node6" class="node">
<title>node1191</title>
<polygon fill="#e98693" stroke="black" points="413.95,-297 329.95,-297 329.95,-261 413.95,-261 413.95,-297"/>
<text text-anchor="middle" x="371.95" y="-275.3" font-family="Arial" font-size="14.00" fill="#1a1919">1191 Begin</text>
</g>
<!-- node1189&#45;&gt;node1191 -->
<g id="edge4" class="edge">
<title>node1189&#45;&gt;node1191</title>
<path fill="none" stroke="#da2d4f" stroke-width="2" d="M363.97,-347.8C365.34,-336.16 367.18,-320.55 368.75,-307.24"/>
<polygon fill="#da2d4f" stroke="#da2d4f" stroke-width="2" points="372.24,-307.52 369.93,-297.18 365.28,-306.7 372.24,-307.52"/>
<text text-anchor="middle" x="371.45" y="-318.8" font-family="arial" font-size="14.00" fill="#da2d4f">T</text>
</g>
<!-- node1192 -->
<g id="node7" class="node">
<title>node1192</title>
<polygon fill="#e98693" stroke="black" points="311.95,-297 227.95,-297 227.95,-261 311.95,-261 311.95,-297"/>
<text text-anchor="middle" x="269.95" y="-275.3" font-family="Arial" font-size="14.00" fill="#1a1919">1192 Begin</text>
</g>
<!-- node1189&#45;&gt;node1192 -->
<g id="edge5" class="edge">
<title>node1189&#45;&gt;node1192</title>
<path fill="none" stroke="#da2d4f" stroke-width="2" d="M343.33,-347.8C329.74,-335.24 311.13,-318.05 296.06,-304.12"/>
<polygon fill="#da2d4f" stroke="#da2d4f" stroke-width="2" points="298.26,-301.39 288.54,-297.18 293.51,-306.53 298.26,-301.39"/>
<text text-anchor="middle" x="326.45" y="-318.8" font-family="arial" font-size="14.00" fill="#da2d4f">F</text>
</g>
<!-- node1190&#45;&gt;node1189 -->
<g id="edge3" class="edge">
<title>node1190&#45;&gt;node1189</title>
<path fill="none" stroke="#3cb4a4" d="M343.28,-436.01C346.47,-424.21 350.89,-407.86 354.63,-394.04"/>
<polygon fill="#3cb4a4" stroke="#3cb4a4" points="358.09,-394.65 357.33,-384.08 351.34,-392.82 358.09,-394.65"/>
<text text-anchor="middle" x="354.95" y="-405.8" font-family="arial" font-size="14.00" fill="#3cb4a4">?</text>
</g>
<!-- node1191&#45;&gt;node2704 -->
<g id="edge7" class="edge">
<title>node1191&#45;&gt;node2704</title>
<path fill="none" stroke="#da2d4f" stroke-width="2" d="M413.23,-260.8C445.69,-247.27 491.05,-228.38 525.63,-213.97"/>
<polygon fill="#da2d4f" stroke="#da2d4f" stroke-width="2" points="527.19,-217.11 535.08,-210.03 524.5,-210.65 527.19,-217.11"/>
</g>
<!-- node2662 -->
<g id="node9" class="node">
<title>node2662</title>
<polygon fill="#ffa500" stroke="black" points="395.45,-210 144.45,-210 144.45,-174 395.45,-174 395.45,-210"/>
<text text-anchor="middle" x="269.95" y="-188.3" font-family="Arial" font-size="14.00" fill="#1a1919">2662 Guard, else TransferToInterpreter</text>
</g>
<!-- node1192&#45;&gt;node2662 -->
<g id="edge8" class="edge">
<title>node1192&#45;&gt;node2662</title>
<path fill="none" stroke="#da2d4f" stroke-width="2" d="M269.95,-260.8C269.95,-249.16 269.95,-233.55 269.95,-220.24"/>
<polygon fill="#da2d4f" stroke="#da2d4f" stroke-width="2" points="273.45,-220.18 269.95,-210.18 266.45,-220.18 273.45,-220.18"/>
</g>
<!-- node1412 -->
<g id="node8" class="node">
<title>node1412</title>
<polygon fill="#3cb4a4" stroke="black" points="147.95,-297 86.28,-279 147.95,-261 209.62,-279 147.95,-297"/>
<text text-anchor="middle" x="147.95" y="-275.3" font-family="Arial" font-size="14.00" fill="#1a1919">1412 ==</text>
</g>
<!-- node1412&#45;&gt;node2662 -->
<g id="edge10" class="edge">
<title>node1412&#45;&gt;node2662</title>
<path fill="none" stroke="#3cb4a4" d="M165.17,-266C183.69,-253.1 213.59,-232.27 236.72,-216.15"/>
<polygon fill="#3cb4a4" stroke="#3cb4a4" points="239.01,-218.82 245.22,-210.23 235.01,-213.08 239.01,-218.82"/>
<text text-anchor="middle" x="220.95" y="-231.8" font-family="arial" font-size="14.00" fill="#3cb4a4">?</text>
</g>
<!-- node2662&#45;&gt;node2710 -->
<g id="edge11" class="edge">
<title>node2662&#45;&gt;node2710</title>
<path fill="none" stroke="#da2d4f" stroke-width="2" d="M292.01,-173.8C308.41,-161.01 330.97,-143.42 349,-129.36"/>
<polygon fill="#da2d4f" stroke="#da2d4f" stroke-width="2" points="351.19,-132.08 356.92,-123.18 346.89,-126.56 351.19,-132.08"/>
</g>
<!-- node2685 -->
<g id="node10" class="node">
<title>node2685</title>
<polygon fill="#e98693" stroke="black" points="424.45,-36 333.45,-36 333.45,0 424.45,0 424.45,-36"/>
<text text-anchor="middle" x="378.95" y="-14.3" font-family="Arial" font-size="14.00" fill="#1a1919">2685 Return</text>
</g>
<!-- node2686 -->
<g id="node11" class="node">
<title>node2686</title>
<polygon fill="#e98693" stroke="black" points="621.45,-123 530.45,-123 530.45,-87 621.45,-87 621.45,-123"/>
<text text-anchor="middle" x="575.95" y="-101.3" font-family="Arial" font-size="14.00" fill="#1a1919">2686 Return</text>
</g>
<!-- node2704&#45;&gt;node2686 -->
<g id="edge13" class="edge">
<title>node2704&#45;&gt;node2686</title>
<path fill="none" stroke="#3cb4a4" d="M575.95,-173.8C575.95,-162.16 575.95,-146.55 575.95,-133.24"/>
<polygon fill="#3cb4a4" stroke="#3cb4a4" points="579.45,-133.18 575.95,-123.18 572.45,-133.18 579.45,-133.18"/>
<text text-anchor="middle" x="592.95" y="-144.8" font-family="arial" font-size="14.00" fill="#3cb4a4">result</text>
</g>
<!-- node2704&#45;&gt;node2686 -->
<g id="edge15" class="edge">
<title>node2704&#45;&gt;node2686</title>
<path fill="none" stroke="#da2d4f" stroke-width="2" d="M574.19,-173.93C573.68,-168.23 573.2,-161.85 572.95,-156 572.64,-148.64 572.86,-140.69 573.29,-133.33"/>
<polygon fill="#da2d4f" stroke="#da2d4f" stroke-width="2" points="576.8,-133.35 574.05,-123.12 569.82,-132.83 576.8,-133.35"/>
</g>
<!-- node2710&#45;&gt;node2685 -->
<g id="edge12" class="edge">
<title>node2710&#45;&gt;node2685</title>
<path fill="none" stroke="#3cb4a4" d="M364.84,-86.84C361.22,-81.46 357.83,-75.27 355.95,-69 353.54,-60.93 355.51,-52.49 359.14,-44.89"/>
<polygon fill="#3cb4a4" stroke="#3cb4a4" points="362.24,-46.53 364.2,-36.12 356.17,-43.03 362.24,-46.53"/>
<text text-anchor="middle" x="372.95" y="-57.8" font-family="arial" font-size="14.00" fill="#3cb4a4">result</text>
</g>
<!-- node2710&#45;&gt;node2685 -->
<g id="edge17" class="edge">
<title>node2710&#45;&gt;node2685</title>
<path fill="none" stroke="#da2d4f" stroke-width="2" d="M385.5,-86.8C387.32,-81.21 389.04,-74.92 389.95,-69 391.12,-61.39 390.24,-53.2 388.56,-45.71"/>
<polygon fill="#da2d4f" stroke="#da2d4f" stroke-width="2" points="391.92,-44.74 385.89,-36.02 385.17,-46.59 391.92,-44.74"/>
</g>
<!-- node2711&#45;&gt;node521 -->
<g id="edge24" class="edge">
<title>node2711&#45;&gt;node521</title>
<path fill="none" stroke="#da2d4f" stroke-width="2" d="M346.49,-602.86C355.62,-592.09 367.55,-578.02 377.73,-566.02"/>
<polygon fill="#da2d4f" stroke="#da2d4f" stroke-width="2" points="380.64,-568 384.44,-558.11 375.3,-563.47 380.64,-568"/>
</g>
<!-- inline5x1190 -->
<g id="node15" class="node">
<title>inline5x1190</title>
<ellipse fill="#d7ede7" stroke="black" cx="312.95" cy="-540" rx="27" ry="18"/>
<text text-anchor="middle" x="312.95" y="-538.1" font-family="Arial" font-size="8.00" fill="#1a1919">5 C(0)</text>
</g>
<!-- inline5x1190&#45;&gt;node1190 -->
<g id="edge6" class="edge">
<title>inline5x1190&#45;&gt;node1190</title>
<path fill="none" stroke="#3cb4a4" d="M318.09,-522.21C322.76,-506.92 329.61,-484.52 334.17,-469.61"/>
<text text-anchor="middle" x="329.95" y="-494.6" font-family="arial" font-size="8.00" fill="#3cb4a4">y</text>
</g>
<!-- inline1410x1412 -->
<g id="node16" class="node">
<title>inline1410x1412</title>
<ellipse fill="#d7ede7" stroke="black" cx="83.95" cy="-366" rx="83.9" ry="18"/>
<text text-anchor="middle" x="83.95" y="-364.1" font-family="Arial" font-size="8.00" fill="#1a1919">1410 C(RubyBasicObject@7fc889f3)</text>
</g>
<!-- inline1410x1412&#45;&gt;node1412 -->
<g id="edge9" class="edge">
<title>inline1410x1412&#45;&gt;node1412</title>
<path fill="none" stroke="#3cb4a4" d="M96.9,-347.8C108.81,-331.98 126.25,-308.82 137.35,-294.08"/>
<text text-anchor="middle" x="121.95" y="-320.6" font-family="arial" font-size="8.00" fill="#3cb4a4">y</text>
</g>
<!-- inline125x1412 -->
<g id="node17" class="node">
<title>inline125x1412</title>
<ellipse fill="#d7ede7" stroke="black" cx="212.95" cy="-366" rx="27.46" ry="18"/>
<text text-anchor="middle" x="212.95" y="-364.1" font-family="Arial" font-size="8.00" fill="#1a1919">125 T(5)</text>
</g>
<!-- inline125x1412&#45;&gt;node1412 -->
<g id="edge19" class="edge">
<title>inline125x1412&#45;&gt;node1412</title>
<path fill="none" stroke="#3cb4a4" d="M201.03,-349.41C188.93,-333.59 170.38,-309.33 158.72,-294.08"/>
<text text-anchor="middle" x="186.95" y="-320.6" font-family="arial" font-size="8.00" fill="#3cb4a4">x</text>
</g>
<!-- inline161x521 -->
<g id="node18" class="node">
<title>inline161x521</title>
<ellipse fill="#d7ede7" stroke="black" cx="432.95" cy="-621" rx="27.46" ry="18"/>
<text text-anchor="middle" x="432.95" y="-619.1" font-family="Arial" font-size="8.00" fill="#1a1919">161 T(7)</text>
</g>
<!-- inline161x521&#45;&gt;node521 -->
<g id="edge20" class="edge">
<title>inline161x521&#45;&gt;node521</title>
<path fill="none" stroke="#3cb4a4" d="M425.74,-603.25C420.01,-589.93 412.03,-571.38 406.27,-558"/>
<text text-anchor="middle" x="426.45" y="-578.6" font-family="arial" font-size="8.00" fill="#3cb4a4">value</text>
</g>
<!-- inline179x680 -->
<g id="node19" class="node">
<title>inline179x680</title>
<ellipse fill="#d7ede7" stroke="black" cx="484.95" cy="-540" rx="27.46" ry="18"/>
<text text-anchor="middle" x="484.95" y="-538.1" font-family="Arial" font-size="8.00" fill="#1a1919">179 T(8)</text>
</g>
<!-- inline179x680&#45;&gt;node680 -->
<g id="edge21" class="edge">
<title>inline179x680&#45;&gt;node680</title>
<path fill="none" stroke="#3cb4a4" d="M479.81,-522.21C475.28,-507.4 468.72,-485.93 464.16,-471.05"/>
<text text-anchor="middle" x="482.45" y="-494.6" font-family="arial" font-size="8.00" fill="#3cb4a4">value</text>
</g>
<!-- inline2x2711 -->
<g id="node20" class="node">
<title>inline2x2711</title>
<ellipse fill="#d7ede7" stroke="black" cx="368.95" cy="-702" rx="27" ry="18"/>
<text text-anchor="middle" x="368.95" y="-700.1" font-family="Arial" font-size="8.00" fill="#1a1919">2 P(1)</text>
</g>
<!-- inline2x2711&#45;&gt;node2711 -->
<g id="edge22" class="edge">
<title>inline2x2711&#45;&gt;node2711</title>
<path fill="none" stroke="#3cb4a4" d="M361.28,-684.63C355.06,-671.34 346.31,-652.67 339.99,-639.17"/>
<text text-anchor="middle" x="360.45" y="-659.6" font-family="arial" font-size="8.00" fill="#3cb4a4">array</text>
</g>
</g>
</svg>
