<?xml version="1.0" encoding="UTF-8" standalone="no"?>
<!DOCTYPE svg PUBLIC "-//W3C//DTD SVG 1.1//EN"
 "http://www.w3.org/Graphics/SVG/1.1/DTD/svg11.dtd">
<!-- Generated by graphviz version 2.44.1 (20200629.0846)
 -->
<!-- Title: G Pages: 1 -->
<svg width="1403pt" height="2166pt"
 viewBox="0.00 0.00 1402.50 2166.00" xmlns="http://www.w3.org/2000/svg" xmlns:xlink="http://www.w3.org/1999/xlink">
<g id="graph0" class="graph" transform="scale(1 1) rotate(0) translate(4 2162)">
<title>G</title>
<!-- node0 -->
<g id="node1" class="node">
<title>node0</title>
<polygon fill="#e98693" stroke="black" points="690,-2158 634,-2158 634,-2122 690,-2122 690,-2158"/>
<text text-anchor="middle" x="662" y="-2136.3" font-family="Arial" font-size="14.00" fill="#1a1919">0 Start</text>
</g>
<!-- node2683 -->
<g id="node39" class="node">
<title>node2683</title>
<polygon fill="#da2d4f" stroke="black" points="754.5,-2077 641.5,-2077 641.5,-2041 754.5,-2041 754.5,-2077"/>
<text text-anchor="middle" x="698" y="-2055.3" font-family="Arial" font-size="14.00" fill="#ffffff">2683 Load T(...)</text>
</g>
<!-- node0&#45;&gt;node2683 -->
<g id="edge68" class="edge">
<title>node0&#45;&gt;node2683</title>
<path fill="none" stroke="#da2d4f" stroke-width="2" d="M669.81,-2121.86C674.53,-2111.51 680.64,-2098.1 685.96,-2086.41"/>
<polygon fill="#da2d4f" stroke="#da2d4f" stroke-width="2" points="689.24,-2087.66 690.2,-2077.11 682.87,-2084.76 689.24,-2087.66"/>
</g>
<!-- node517 -->
<g id="node2" class="node">
<title>node517</title>
<polygon fill="#f9f9f9" stroke="black" points="807,-1996 725,-1996 725,-1960 807,-1960 807,-1996"/>
<text text-anchor="middle" x="766" y="-1974.3" font-family="Arial" font-size="14.00" fill="#1a1919">517 Unbox</text>
</g>
<!-- node676 -->
<g id="node3" class="node">
<title>node676</title>
<polygon fill="#f9f9f9" stroke="black" points="885,-1909 803,-1909 803,-1873 885,-1873 885,-1909"/>
<text text-anchor="middle" x="844" y="-1887.3" font-family="Arial" font-size="14.00" fill="#1a1919">676 Unbox</text>
</g>
<!-- node517&#45;&gt;node676 -->
<g id="edge1" class="edge">
<title>node517&#45;&gt;node676</title>
<path fill="none" stroke="#da2d4f" stroke-width="2" d="M781.78,-1959.8C793.1,-1947.47 808.51,-1930.68 821.16,-1916.89"/>
<polygon fill="#da2d4f" stroke="#da2d4f" stroke-width="2" points="824.06,-1918.91 828.24,-1909.18 818.9,-1914.18 824.06,-1918.91"/>
</g>
<!-- node1201 -->
<g id="node6" class="node">
<title>node1201</title>
<polygon fill="#3cb4a4" stroke="black" points="539,-1909 477.33,-1891 539,-1873 600.67,-1891 539,-1909"/>
<text text-anchor="middle" x="539" y="-1887.3" font-family="Arial" font-size="14.00" fill="#1a1919">1201 ==</text>
</g>
<!-- node517&#45;&gt;node1201 -->
<g id="edge61" class="edge">
<title>node517&#45;&gt;node1201</title>
<path fill="none" stroke="#3cb4a4" d="M724.89,-1961.61C681.81,-1945.48 614.85,-1920.4 574.14,-1905.16"/>
<polygon fill="#3cb4a4" stroke="#3cb4a4" points="575.23,-1901.83 564.64,-1901.6 572.78,-1908.38 575.23,-1901.83"/>
<text text-anchor="middle" x="670.5" y="-1930.8" font-family="arial" font-size="14.00" fill="#3cb4a4">x</text>
</g>
<!-- node2625 -->
<g id="node24" class="node">
<title>node2625</title>
<polygon fill="#ffa500" stroke="black" points="815.5,-1822 564.5,-1822 564.5,-1786 815.5,-1786 815.5,-1822"/>
<text text-anchor="middle" x="690" y="-1800.3" font-family="Arial" font-size="14.00" fill="#1a1919">2625 Guard, else TransferToInterpreter</text>
</g>
<!-- node676&#45;&gt;node2625 -->
<g id="edge2" class="edge">
<title>node676&#45;&gt;node2625</title>
<path fill="none" stroke="#da2d4f" stroke-width="2" d="M812.84,-1872.8C788.86,-1859.56 755.55,-1841.18 729.67,-1826.9"/>
<polygon fill="#da2d4f" stroke="#da2d4f" stroke-width="2" points="731.3,-1823.8 720.85,-1822.03 727.92,-1829.93 731.3,-1823.8"/>
</g>
<!-- node2663 -->
<g id="node33" class="node">
<title>node2663</title>
<polygon fill="#f9f9f9" stroke="black" points="1394.5,-1575 1199.5,-1575 1199.5,-1539 1394.5,-1539 1394.5,-1575"/>
<text text-anchor="middle" x="1297" y="-1553.3" font-family="Arial" font-size="14.00" fill="#1a1919">2663 BoxNode$AllocatingBox</text>
</g>
<!-- node676&#45;&gt;node2663 -->
<g id="edge45" class="edge">
<title>node676&#45;&gt;node2663</title>
<path fill="none" stroke="#3cb4a4" d="M885.2,-1889.3C982.62,-1886.54 1219,-1872.84 1219,-1805 1219,-1805 1219,-1805 1219,-1643 1219,-1617.24 1238.69,-1595.91 1258.29,-1581.06"/>
<polygon fill="#3cb4a4" stroke="#3cb4a4" points="1260.52,-1583.76 1266.62,-1575.09 1256.45,-1578.07 1260.52,-1583.76"/>
<text text-anchor="middle" x="1235.5" y="-1727.3" font-family="arial" font-size="14.00" fill="#3cb4a4">value</text>
</g>
<!-- node2669 -->
<g id="node35" class="node">
<title>node2669</title>
<polygon fill="#da2d4f" stroke="black" points="729.5,-1488 650.5,-1488 650.5,-1452 729.5,-1452 729.5,-1488"/>
<text text-anchor="middle" x="690" y="-1466.3" font-family="Arial" font-size="14.00" fill="#ffffff">2669 Alloc</text>
</g>
<!-- node676&#45;&gt;node2669 -->
<g id="edge52" class="edge">
<title>node676&#45;&gt;node2669</title>
<path fill="none" stroke="#3cb4a4" d="M844,-1872.74C844,-1855.57 844,-1828.46 844,-1805 844,-1805 844,-1805 844,-1556 844,-1507.45 784.61,-1486.42 739.59,-1477.45"/>
<polygon fill="#3cb4a4" stroke="#3cb4a4" points="740.13,-1473.99 729.66,-1475.62 738.86,-1480.88 740.13,-1473.99"/>
<text text-anchor="middle" x="864" y="-1683.8" font-family="arial" font-size="14.00" fill="#3cb4a4">values</text>
</g>
<!-- node751 -->
<g id="node4" class="node">
<title>node751</title>
<polygon fill="#3cb4a4" stroke="black" points="689,-1909 618.45,-1891 689,-1873 759.55,-1891 689,-1909"/>
<text text-anchor="middle" x="689" y="-1887.3" font-family="Arial" font-size="14.00" fill="#1a1919">751 IsNull</text>
</g>
<!-- node751&#45;&gt;node2625 -->
<g id="edge33" class="edge">
<title>node751&#45;&gt;node2625</title>
<path fill="none" stroke="#3cb4a4" d="M689.2,-1872.8C689.34,-1861.16 689.52,-1845.55 689.68,-1832.24"/>
<polygon fill="#3cb4a4" stroke="#3cb4a4" points="693.18,-1832.22 689.8,-1822.18 686.18,-1832.13 693.18,-1832.22"/>
<text text-anchor="middle" x="694" y="-1843.8" font-family="arial" font-size="14.00" fill="#3cb4a4">?</text>
</g>
<!-- node1200 -->
<g id="node5" class="node">
<title>node1200</title>
<polygon fill="#e98693" stroke="black" points="719,-1749 661,-1749 661,-1713 719,-1713 719,-1749"/>
<text text-anchor="middle" x="690" y="-1727.3" font-family="Arial" font-size="14.00" fill="#1a1919">1200 If</text>
</g>
<!-- node1202 -->
<g id="node7" class="node">
<title>node1202</title>
<polygon fill="#e98693" stroke="black" points="1112.5,-1662 1027.5,-1662 1027.5,-1626 1112.5,-1626 1112.5,-1662"/>
<text text-anchor="middle" x="1070" y="-1640.3" font-family="Arial" font-size="14.00" fill="#1a1919">1202 Begin</text>
</g>
<!-- node1200&#45;&gt;node1202 -->
<g id="edge4" class="edge">
<title>node1200&#45;&gt;node1202</title>
<path fill="none" stroke="#da2d4f" stroke-width="2" d="M719.02,-1725.74C757.76,-1719.85 828.4,-1708.42 888,-1695 931.98,-1685.1 981.24,-1671.4 1017.42,-1660.84"/>
<polygon fill="#da2d4f" stroke="#da2d4f" stroke-width="2" points="1018.65,-1664.13 1027.26,-1657.96 1016.68,-1657.41 1018.65,-1664.13"/>
<text text-anchor="middle" x="952.5" y="-1683.8" font-family="arial" font-size="14.00" fill="#da2d4f">T</text>
</g>
<!-- node1203 -->
<g id="node8" class="node">
<title>node1203</title>
<polygon fill="#e98693" stroke="black" points="732.5,-1662 647.5,-1662 647.5,-1626 732.5,-1626 732.5,-1662"/>
<text text-anchor="middle" x="690" y="-1640.3" font-family="Arial" font-size="14.00" fill="#1a1919">1203 Begin</text>
</g>
<!-- node1200&#45;&gt;node1203 -->
<g id="edge5" class="edge">
<title>node1200&#45;&gt;node1203</title>
<path fill="none" stroke="#da2d4f" stroke-width="2" d="M690,-1712.8C690,-1701.16 690,-1685.55 690,-1672.24"/>
<polygon fill="#da2d4f" stroke="#da2d4f" stroke-width="2" points="693.5,-1672.18 690,-1662.18 686.5,-1672.18 693.5,-1672.18"/>
<text text-anchor="middle" x="694.5" y="-1683.8" font-family="arial" font-size="14.00" fill="#da2d4f">F</text>
</g>
<!-- node1201&#45;&gt;node1200 -->
<g id="edge3" class="edge">
<title>node1201&#45;&gt;node1200</title>
<path fill="none" stroke="#3cb4a4" d="M535.31,-1874.04C531.18,-1851.86 527.38,-1811.58 547,-1786 575.29,-1749.12 602.54,-1765.07 651,-1748.96"/>
<polygon fill="#3cb4a4" stroke="#3cb4a4" points="652.46,-1752.15 660.64,-1745.42 650.05,-1745.58 652.46,-1752.15"/>
<text text-anchor="middle" x="551" y="-1800.3" font-family="arial" font-size="14.00" fill="#3cb4a4">?</text>
</g>
<!-- node1202&#45;&gt;node2663 -->
<g id="edge7" class="edge">
<title>node1202&#45;&gt;node2663</title>
<path fill="none" stroke="#da2d4f" stroke-width="2" d="M1112.7,-1627.01C1149.24,-1613.33 1202.09,-1593.54 1241.83,-1578.66"/>
<polygon fill="#da2d4f" stroke="#da2d4f" stroke-width="2" points="1243.24,-1581.87 1251.38,-1575.08 1240.79,-1575.31 1243.24,-1581.87"/>
</g>
<!-- node2629 -->
<g id="node25" class="node">
<title>node2629</title>
<polygon fill="#ffa500" stroke="black" points="815.5,-1575 564.5,-1575 564.5,-1539 815.5,-1539 815.5,-1575"/>
<text text-anchor="middle" x="690" y="-1553.3" font-family="Arial" font-size="14.00" fill="#1a1919">2629 Guard, else TransferToInterpreter</text>
</g>
<!-- node1203&#45;&gt;node2629 -->
<g id="edge8" class="edge">
<title>node1203&#45;&gt;node2629</title>
<path fill="none" stroke="#da2d4f" stroke-width="2" d="M690,-1625.8C690,-1614.16 690,-1598.55 690,-1585.24"/>
<polygon fill="#da2d4f" stroke="#da2d4f" stroke-width="2" points="693.5,-1585.18 690,-1575.18 686.5,-1585.18 693.5,-1585.18"/>
</g>
<!-- node1420 -->
<g id="node9" class="node">
<title>node1420</title>
<polygon fill="#3cb4a4" stroke="black" points="556,-1662 494.33,-1644 556,-1626 617.67,-1644 556,-1662"/>
<text text-anchor="middle" x="556" y="-1640.3" font-family="Arial" font-size="14.00" fill="#1a1919">1420 ==</text>
</g>
<!-- node1420&#45;&gt;node2629 -->
<g id="edge35" class="edge">
<title>node1420&#45;&gt;node2629</title>
<path fill="none" stroke="#3cb4a4" d="M574.63,-1631.18C595.09,-1618.2 628.43,-1597.06 654.02,-1580.83"/>
<polygon fill="#3cb4a4" stroke="#3cb4a4" points="656.14,-1583.62 662.71,-1575.31 652.39,-1577.71 656.14,-1583.62"/>
<text text-anchor="middle" x="636" y="-1596.8" font-family="arial" font-size="14.00" fill="#3cb4a4">?</text>
</g>
<!-- node1887 -->
<g id="node10" class="node">
<title>node1887</title>
<polygon fill="#da2d4f" stroke="black" points="890,-1067 584,-1067 584,-1031 890,-1031 890,-1067"/>
<text text-anchor="middle" x="737" y="-1045.3" font-family="Arial" font-size="14.00" fill="#ffffff">1887 LoadField RubyDynamicObject.metaClass</text>
</g>
<!-- node1937 -->
<g id="node11" class="node">
<title>node1937</title>
<polygon fill="#3cb4a4" stroke="black" points="814,-980 752.33,-962 814,-944 875.67,-962 814,-980"/>
<text text-anchor="middle" x="814" y="-958.3" font-family="Arial" font-size="14.00" fill="#1a1919">1937 ==</text>
</g>
<!-- node1887&#45;&gt;node1937 -->
<g id="edge12" class="edge">
<title>node1887&#45;&gt;node1937</title>
<path fill="none" stroke="#3cb4a4" d="M752.58,-1030.8C764.82,-1017.29 781.91,-998.42 794.96,-984.02"/>
<polygon fill="#3cb4a4" stroke="#3cb4a4" points="797.61,-986.3 801.73,-976.54 792.42,-981.6 797.61,-986.3"/>
<text text-anchor="middle" x="783.5" y="-1001.8" font-family="arial" font-size="14.00" fill="#3cb4a4">x</text>
</g>
<!-- node2631 -->
<g id="node26" class="node">
<title>node2631</title>
<polygon fill="#ffa500" stroke="black" points="849.5,-893 598.5,-893 598.5,-857 849.5,-857 849.5,-893"/>
<text text-anchor="middle" x="724" y="-871.3" font-family="Arial" font-size="14.00" fill="#1a1919">2631 Guard, else TransferToInterpreter</text>
</g>
<!-- node1887&#45;&gt;node2631 -->
<g id="edge11" class="edge">
<title>node1887&#45;&gt;node2631</title>
<path fill="none" stroke="#da2d4f" stroke-width="2" d="M735.71,-1030.88C733.45,-1001 728.77,-939.11 726.06,-903.27"/>
<polygon fill="#da2d4f" stroke="#da2d4f" stroke-width="2" points="729.53,-902.76 725.29,-893.05 722.55,-903.29 729.53,-902.76"/>
</g>
<!-- node1937&#45;&gt;node2631 -->
<g id="edge37" class="edge">
<title>node1937&#45;&gt;node2631</title>
<path fill="none" stroke="#3cb4a4" d="M799.94,-947.72C786.6,-935.12 766.23,-915.88 749.94,-900.5"/>
<polygon fill="#3cb4a4" stroke="#3cb4a4" points="751.99,-897.63 742.32,-893.3 747.19,-902.71 751.99,-897.63"/>
<text text-anchor="middle" x="778" y="-914.8" font-family="arial" font-size="14.00" fill="#3cb4a4">?</text>
</g>
<!-- node2065 -->
<g id="node12" class="node">
<title>node2065</title>
<polygon fill="#da2d4f" stroke="black" points="784,-806 574,-806 574,-770 784,-770 784,-806"/>
<text text-anchor="middle" x="679" y="-784.3" font-family="Arial" font-size="14.00" fill="#ffffff">2065 LoadField RubyArray.store</text>
</g>
<!-- node2069 -->
<g id="node13" class="node">
<title>node2069</title>
<polygon fill="#f9f9f9" stroke="black" points="913,-719 749,-719 749,-683 913,-683 913,-719"/>
<text text-anchor="middle" x="831" y="-697.3" font-family="Arial" font-size="14.00" fill="#1a1919">2069 InstanceOf a!# int[]</text>
</g>
<!-- node2065&#45;&gt;node2069 -->
<g id="edge16" class="edge">
<title>node2065&#45;&gt;node2069</title>
<path fill="none" stroke="#3cb4a4" d="M709.76,-769.8C733.32,-756.62 766.01,-738.34 791.51,-724.08"/>
<polygon fill="#3cb4a4" stroke="#3cb4a4" points="793.53,-726.97 800.55,-719.03 790.11,-720.86 793.53,-726.97"/>
<text text-anchor="middle" x="780.5" y="-740.8" font-family="arial" font-size="14.00" fill="#3cb4a4">value</text>
</g>
<!-- node2104 -->
<g id="node17" class="node">
<title>node2104</title>
<polygon fill="#f9f9f9" stroke="black" points="705.5,-665 544.5,-665 544.5,-629 705.5,-629 705.5,-665"/>
<text text-anchor="middle" x="625" y="-643.3" font-family="Arial" font-size="14.00" fill="#1a1919">2104 InstanceOf a# int[]</text>
</g>
<!-- node2065&#45;&gt;node2104 -->
<g id="edge23" class="edge">
<title>node2065&#45;&gt;node2104</title>
<path fill="none" stroke="#3cb4a4" d="M672.38,-769.96C663.15,-746.2 646.32,-702.88 635.4,-674.78"/>
<polygon fill="#3cb4a4" stroke="#3cb4a4" points="638.56,-673.24 631.68,-665.18 632.03,-675.77 638.56,-673.24"/>
<text text-anchor="middle" x="682.5" y="-740.8" font-family="arial" font-size="14.00" fill="#3cb4a4">value</text>
</g>
<!-- node2105 -->
<g id="node18" class="node">
<title>node2105</title>
<polygon fill="#da2d4f" stroke="black" points="744,-210 616,-210 616,-174 744,-174 744,-210"/>
<text text-anchor="middle" x="680" y="-188.3" font-family="Arial" font-size="14.00" fill="#ffffff">2105 LoadIndexed</text>
</g>
<!-- node2065&#45;&gt;node2105 -->
<g id="edge60" class="edge">
<title>node2065&#45;&gt;node2105</title>
<path fill="none" stroke="#3cb4a4" d="M650.9,-769.9C619.38,-749.16 569.27,-711.18 543,-665 527.1,-637.04 529,-626.16 529,-594 529,-594 529,-594 529,-272 529,-233.71 567.6,-213.94 605.77,-203.76"/>
<polygon fill="#3cb4a4" stroke="#3cb4a4" points="607.09,-207.04 615.96,-201.25 605.42,-200.24 607.09,-207.04"/>
<text text-anchor="middle" x="544.5" y="-472.8" font-family="arial" font-size="14.00" fill="#3cb4a4">array</text>
</g>
<!-- node2633 -->
<g id="node28" class="node">
<title>node2633</title>
<polygon fill="#ffa500" stroke="black" points="900.5,-611 649.5,-611 649.5,-575 900.5,-575 900.5,-611"/>
<text text-anchor="middle" x="775" y="-589.3" font-family="Arial" font-size="14.00" fill="#1a1919">2633 Guard, else TransferToInterpreter</text>
</g>
<!-- node2065&#45;&gt;node2633 -->
<g id="edge15" class="edge">
<title>node2065&#45;&gt;node2633</title>
<path fill="none" stroke="#da2d4f" stroke-width="2" d="M691.58,-769.94C695.45,-764.35 699.59,-758.03 703,-752 728.16,-707.48 751.59,-652.58 764.54,-620.61"/>
<polygon fill="#da2d4f" stroke="#da2d4f" stroke-width="2" points="767.89,-621.66 768.36,-611.08 761.39,-619.06 767.89,-621.66"/>
</g>
<!-- node2069&#45;&gt;node2633 -->
<g id="edge41" class="edge">
<title>node2069&#45;&gt;node2633</title>
<path fill="none" stroke="#3cb4a4" d="M822,-682.97C813.08,-666.07 799.27,-639.94 788.92,-620.36"/>
<polygon fill="#3cb4a4" stroke="#3cb4a4" points="791.93,-618.55 784.16,-611.34 785.74,-621.82 791.93,-618.55"/>
<text text-anchor="middle" x="815" y="-643.3" font-family="arial" font-size="14.00" fill="#3cb4a4">?</text>
</g>
<!-- node2078 -->
<g id="node14" class="node">
<title>node2078</title>
<polygon fill="#da2d4f" stroke="black" points="831,-538 627,-538 627,-502 831,-502 831,-538"/>
<text text-anchor="middle" x="729" y="-516.3" font-family="Arial" font-size="14.00" fill="#ffffff">2078 LoadField RubyArray.size</text>
</g>
<!-- node2080 -->
<g id="node15" class="node">
<title>node2080</title>
<polygon fill="#3cb4a4" stroke="black" points="811,-451 756.54,-433 811,-415 865.46,-433 811,-451"/>
<text text-anchor="middle" x="811" y="-429.3" font-family="Arial" font-size="14.00" fill="#1a1919">2080 &lt;</text>
</g>
<!-- node2078&#45;&gt;node2080 -->
<g id="edge19" class="edge">
<title>node2078&#45;&gt;node2080</title>
<path fill="none" stroke="#3cb4a4" d="M745.59,-501.8C758.78,-488.13 777.27,-468.97 791.22,-454.5"/>
<polygon fill="#3cb4a4" stroke="#3cb4a4" points="794.02,-456.64 798.45,-447.01 788.99,-451.78 794.02,-456.64"/>
<text text-anchor="middle" x="777.5" y="-472.8" font-family="arial" font-size="14.00" fill="#3cb4a4">x</text>
</g>
<!-- node2632 -->
<g id="node27" class="node">
<title>node2632</title>
<polygon fill="#ffa500" stroke="black" points="885,-364 611,-364 611,-328 885,-328 885,-364"/>
<text text-anchor="middle" x="748" y="-342.3" font-family="Arial" font-size="14.00" fill="#1a1919">2632 Guard not, else TransferToInterpreter</text>
</g>
<!-- node2078&#45;&gt;node2632 -->
<g id="edge18" class="edge">
<title>node2078&#45;&gt;node2632</title>
<path fill="none" stroke="#da2d4f" stroke-width="2" d="M730.89,-501.88C734.19,-472 741.03,-410.11 744.99,-374.27"/>
<polygon fill="#da2d4f" stroke="#da2d4f" stroke-width="2" points="748.5,-374.38 746.12,-364.05 741.54,-373.61 748.5,-374.38"/>
</g>
<!-- node2080&#45;&gt;node2632 -->
<g id="edge39" class="edge">
<title>node2080&#45;&gt;node2632</title>
<path fill="none" stroke="#3cb4a4" d="M800.88,-418.34C791.75,-406.03 778.08,-387.59 766.93,-372.54"/>
<polygon fill="#3cb4a4" stroke="#3cb4a4" points="769.47,-370.09 760.71,-364.15 763.85,-374.26 769.47,-370.09"/>
<text text-anchor="middle" x="787" y="-385.8" font-family="arial" font-size="14.00" fill="#3cb4a4">?</text>
</g>
<!-- node2103 -->
<g id="node16" class="node">
<title>node2103</title>
<polygon fill="#ffa500" stroke="black" points="802.5,-291 557.5,-291 557.5,-255 802.5,-255 802.5,-291"/>
<text text-anchor="middle" x="680" y="-269.3" font-family="Arial" font-size="14.00" fill="#1a1919">2103 Guard, else ClassCastException</text>
</g>
<!-- node2103&#45;&gt;node2105 -->
<g id="edge22" class="edge">
<title>node2103&#45;&gt;node2105</title>
<path fill="none" stroke="#da2d4f" stroke-width="2" d="M680,-254.86C680,-244.71 680,-231.63 680,-220.12"/>
<polygon fill="#da2d4f" stroke="#da2d4f" stroke-width="2" points="683.5,-220.11 680,-210.11 676.5,-220.11 683.5,-220.11"/>
</g>
<!-- node2104&#45;&gt;node2103 -->
<g id="edge21" class="edge">
<title>node2104&#45;&gt;node2103</title>
<path fill="none" stroke="#3cb4a4" d="M611.25,-628.73C599,-611.57 583,-584 583,-557 583,-557 583,-557 583,-345 583,-322.92 599.57,-306.96 619.01,-295.84"/>
<polygon fill="#3cb4a4" stroke="#3cb4a4" points="620.87,-298.82 628.09,-291.07 617.61,-292.62 620.87,-298.82"/>
<text text-anchor="middle" x="587" y="-472.8" font-family="arial" font-size="14.00" fill="#3cb4a4">?</text>
</g>
<!-- node2682 -->
<g id="node38" class="node">
<title>node2682</title>
<polygon fill="#f9f9f9" stroke="black" points="777.5,-123 582.5,-123 582.5,-87 777.5,-87 777.5,-123"/>
<text text-anchor="middle" x="680" y="-101.3" font-family="Arial" font-size="14.00" fill="#1a1919">2682 BoxNode$AllocatingBox</text>
</g>
<!-- node2105&#45;&gt;node2682 -->
<g id="edge25" class="edge">
<title>node2105&#45;&gt;node2682</title>
<path fill="none" stroke="#da2d4f" stroke-width="2" d="M678.83,-173.92C678.49,-168.22 678.17,-161.84 678,-156 677.79,-148.65 677.94,-140.69 678.23,-133.33"/>
<polygon fill="#da2d4f" stroke="#da2d4f" stroke-width="2" points="681.74,-133.28 678.73,-123.12 674.74,-132.94 681.74,-133.28"/>
</g>
<!-- node2105&#45;&gt;node2682 -->
<g id="edge58" class="edge">
<title>node2105&#45;&gt;node2682</title>
<path fill="none" stroke="#3cb4a4" d="M680,-173.8C680,-162.16 680,-146.55 680,-133.24"/>
<polygon fill="#3cb4a4" stroke="#3cb4a4" points="683.5,-133.18 680,-123.18 676.5,-133.18 683.5,-133.18"/>
<text text-anchor="middle" x="696.5" y="-144.8" font-family="arial" font-size="14.00" fill="#3cb4a4">value</text>
</g>
<!-- node2607 -->
<g id="node19" class="node">
<title>node2607</title>
<polygon fill="#da2d4f" stroke="black" points="1169,-1241 879,-1241 879,-1205 1169,-1205 1169,-1241"/>
<text text-anchor="middle" x="1024" y="-1219.3" font-family="Arial" font-size="14.00" fill="#ffffff">2607 Call OptimizedCallTarget.callBoundary !</text>
</g>
<!-- node2611 -->
<g id="node21" class="node">
<title>node2611</title>
<polygon fill="#e98693" stroke="black" points="961,-1154 841,-1154 841,-1118 961,-1118 961,-1154"/>
<text text-anchor="middle" x="901" y="-1132.3" font-family="Arial" font-size="14.00" fill="#1a1919">2611 KillingBegin</text>
</g>
<!-- node2607&#45;&gt;node2611 -->
<g id="edge27" class="edge">
<title>node2607&#45;&gt;node2611</title>
<path fill="none" stroke="#da2d4f" stroke-width="2" d="M999.11,-1204.8C980.44,-1191.9 954.69,-1174.1 934.25,-1159.98"/>
<polygon fill="#da2d4f" stroke="#da2d4f" stroke-width="2" points="936.07,-1156.98 925.85,-1154.18 932.09,-1162.74 936.07,-1156.98"/>
</g>
<!-- node2612 -->
<g id="node22" class="node">
<title>node2612</title>
<polygon fill="#f9f9f9" stroke="black" points="1200.5,-1154 1051.5,-1154 1051.5,-1118 1200.5,-1118 1200.5,-1154"/>
<text text-anchor="middle" x="1126" y="-1132.3" font-family="Arial" font-size="14.00" fill="#1a1919">2612 ExceptionObject</text>
</g>
<!-- node2607&#45;&gt;node2612 -->
<g id="edge28" class="edge">
<title>node2607&#45;&gt;node2612</title>
<path fill="none" stroke="#da2d4f" stroke-width="2" d="M1044.64,-1204.8C1059.85,-1192.13 1080.72,-1174.73 1097.51,-1160.74"/>
<polygon fill="#da2d4f" stroke="#da2d4f" stroke-width="2" points="1099.95,-1163.27 1105.39,-1154.18 1095.47,-1157.89 1099.95,-1163.27"/>
<text text-anchor="middle" x="1102.5" y="-1175.8" font-family="arial" font-size="14.00" fill="#da2d4f">unwind</text>
</g>
<!-- node2608 -->
<g id="node20" class="node">
<title>node2608</title>
<polygon fill="#f9f9f9" stroke="black" points="1028.5,-1314 871.5,-1314 871.5,-1278 1028.5,-1278 1028.5,-1314"/>
<text text-anchor="middle" x="950" y="-1292.3" font-family="Arial" font-size="14.00" fill="#1a1919">2608 MethodCallTarget</text>
</g>
<!-- node2608&#45;&gt;node2607 -->
<g id="edge26" class="edge">
<title>node2608&#45;&gt;node2607</title>
<path fill="none" stroke="#343d46" stroke-dasharray="5,2" d="M975.37,-1270.65C985.54,-1260.9 997.01,-1249.9 1006.25,-1241.03"/>
<polygon fill="#343d46" stroke="#343d46" points="972.71,-1268.36 967.91,-1277.81 977.55,-1273.42 972.71,-1268.36"/>
</g>
<!-- node2611&#45;&gt;node1887 -->
<g id="edge31" class="edge">
<title>node2611&#45;&gt;node1887</title>
<path fill="none" stroke="#da2d4f" stroke-width="2" d="M867.81,-1117.8C842.16,-1104.51 806.5,-1086.02 778.89,-1071.71"/>
<polygon fill="#da2d4f" stroke="#da2d4f" stroke-width="2" points="780.35,-1068.52 769.86,-1067.03 777.13,-1074.74 780.35,-1068.52"/>
</g>
<!-- node2617 -->
<g id="node23" class="node">
<title>node2617</title>
<polygon fill="#da2d4f" stroke="black" points="1285.5,-1067 1068.5,-1067 1068.5,-1031 1285.5,-1031 1285.5,-1067"/>
<text text-anchor="middle" x="1177" y="-1045.3" font-family="Arial" font-size="14.00" fill="#ffffff">2617 Deopt TransferToInterpreter</text>
</g>
<!-- node2612&#45;&gt;node2617 -->
<g id="edge32" class="edge">
<title>node2612&#45;&gt;node2617</title>
<path fill="none" stroke="#da2d4f" stroke-width="2" d="M1136.32,-1117.8C1143.51,-1105.82 1153.23,-1089.62 1161.37,-1076.06"/>
<polygon fill="#da2d4f" stroke="#da2d4f" stroke-width="2" points="1164.55,-1077.55 1166.69,-1067.18 1158.55,-1073.95 1164.55,-1077.55"/>
</g>
<!-- node2625&#45;&gt;node1200 -->
<g id="edge34" class="edge">
<title>node2625&#45;&gt;node1200</title>
<path fill="none" stroke="#da2d4f" stroke-width="2" d="M690,-1785.81C690,-1777.79 690,-1768.05 690,-1759.07"/>
<polygon fill="#da2d4f" stroke="#da2d4f" stroke-width="2" points="693.5,-1759.03 690,-1749.03 686.5,-1759.03 693.5,-1759.03"/>
</g>
<!-- node2629&#45;&gt;node2669 -->
<g id="edge36" class="edge">
<title>node2629&#45;&gt;node2669</title>
<path fill="none" stroke="#da2d4f" stroke-width="2" d="M690,-1538.8C690,-1527.16 690,-1511.55 690,-1498.24"/>
<polygon fill="#da2d4f" stroke="#da2d4f" stroke-width="2" points="693.5,-1498.18 690,-1488.18 686.5,-1498.18 693.5,-1498.18"/>
</g>
<!-- node2631&#45;&gt;node2065 -->
<g id="edge38" class="edge">
<title>node2631&#45;&gt;node2065</title>
<path fill="none" stroke="#da2d4f" stroke-width="2" d="M714.89,-856.8C708.55,-844.82 699.97,-828.62 692.79,-815.06"/>
<polygon fill="#da2d4f" stroke="#da2d4f" stroke-width="2" points="695.87,-813.38 688.09,-806.18 689.68,-816.65 695.87,-813.38"/>
</g>
<!-- node2632&#45;&gt;node2103 -->
<g id="edge40" class="edge">
<title>node2632&#45;&gt;node2103</title>
<path fill="none" stroke="#da2d4f" stroke-width="2" d="M731.54,-327.81C723.1,-319 712.68,-308.13 703.42,-298.46"/>
<polygon fill="#da2d4f" stroke="#da2d4f" stroke-width="2" points="705.75,-295.83 696.31,-291.03 700.7,-300.67 705.75,-295.83"/>
</g>
<!-- node2633&#45;&gt;node2078 -->
<g id="edge42" class="edge">
<title>node2633&#45;&gt;node2078</title>
<path fill="none" stroke="#da2d4f" stroke-width="2" d="M763.86,-574.81C758.38,-566.35 751.67,-555.98 745.59,-546.61"/>
<polygon fill="#da2d4f" stroke="#da2d4f" stroke-width="2" points="748.41,-544.52 740.03,-538.03 742.53,-548.32 748.41,-544.52"/>
</g>
<!-- node2646 -->
<g id="node29" class="node">
<title>node2646</title>
<polygon fill="#e98693" stroke="black" points="725.5,-36 634.5,-36 634.5,0 725.5,0 725.5,-36"/>
<text text-anchor="middle" x="680" y="-14.3" font-family="Arial" font-size="14.00" fill="#1a1919">2646 Return</text>
</g>
<!-- node2647 -->
<g id="node30" class="node">
<title>node2647</title>
<polygon fill="#e98693" stroke="black" points="1341.5,-1488 1250.5,-1488 1250.5,-1452 1341.5,-1452 1341.5,-1488"/>
<text text-anchor="middle" x="1296" y="-1466.3" font-family="Arial" font-size="14.00" fill="#1a1919">2647 Return</text>
</g>
<!-- node2656 -->
<g id="node31" class="node">
<title>node2656</title>
<polygon fill="#343d46" stroke="black" points="546,-1575 392,-1575 392,-1539 546,-1539 546,-1575"/>
<text text-anchor="middle" x="469" y="-1553.3" font-family="Arial" font-size="14.00" fill="#ffffff">2656 VirtualArray int[1]</text>
</g>
<!-- node2656&#45;&gt;node2669 -->
<g id="edge49" class="edge">
<title>node2656&#45;&gt;node2669</title>
<path fill="none" stroke="#3cb4a4" d="M513.46,-1538.9C550.41,-1524.69 602.92,-1504.49 641.06,-1489.82"/>
<polygon fill="#3cb4a4" stroke="#3cb4a4" points="642.36,-1493.07 650.43,-1486.22 639.84,-1486.54 642.36,-1493.07"/>
<text text-anchor="middle" x="634.5" y="-1509.8" font-family="arial" font-size="14.00" fill="#3cb4a4">virtualObjects</text>
</g>
<!-- node2656&#45;&gt;node2669 -->
<g id="edge51" class="edge">
<title>node2656&#45;&gt;node2669</title>
<path fill="none" stroke="#3cb4a4" d="M483.3,-1538.6C493.29,-1527.59 507.56,-1513.97 523,-1506 559.49,-1487.15 605.45,-1478.45 639.91,-1474.44"/>
<polygon fill="#3cb4a4" stroke="#3cb4a4" points="640.64,-1477.88 650.21,-1473.34 639.89,-1470.92 640.64,-1477.88"/>
<text text-anchor="middle" x="543" y="-1509.8" font-family="arial" font-size="14.00" fill="#3cb4a4">values</text>
</g>
<!-- node2658 -->
<g id="node32" class="node">
<title>node2658</title>
<polygon fill="#f9f9f9" stroke="black" points="374,-1575 0,-1575 0,-1539 374,-1539 374,-1575"/>
<text text-anchor="middle" x="187" y="-1553.3" font-family="Arial" font-size="14.00" fill="#1a1919">2658 VirtualInstance(6) org.truffleruby.core.array.RubyArray</text>
</g>
<!-- node2658&#45;&gt;node2669 -->
<g id="edge48" class="edge">
<title>node2658&#45;&gt;node2669</title>
<path fill="none" stroke="#3cb4a4" d="M261.25,-1538.97C316.03,-1526.54 385.9,-1511.03 415,-1506 493.19,-1492.48 584.73,-1481.86 639.99,-1476.01"/>
<polygon fill="#3cb4a4" stroke="#3cb4a4" points="640.63,-1479.46 650.21,-1474.94 639.9,-1472.5 640.63,-1479.46"/>
<text text-anchor="middle" x="456.5" y="-1509.8" font-family="arial" font-size="14.00" fill="#3cb4a4">virtualObjects</text>
</g>
<!-- node2658&#45;&gt;node2669 -->
<g id="edge50" class="edge">
<title>node2658&#45;&gt;node2669</title>
<path fill="none" stroke="#3cb4a4" d="M230.03,-1538.87C243.27,-1533.39 257.83,-1527.14 271,-1521 284.15,-1514.87 286.07,-1510.06 300,-1506 362.53,-1487.79 549.95,-1477.23 640.27,-1473.07"/>
<polygon fill="#3cb4a4" stroke="#3cb4a4" points="640.43,-1476.57 650.26,-1472.62 640.12,-1469.58 640.43,-1476.57"/>
<text text-anchor="middle" x="320" y="-1509.8" font-family="arial" font-size="14.00" fill="#3cb4a4">values</text>
</g>
<!-- node2671 -->
<g id="node37" class="node">
<title>node2671</title>
<polygon fill="#343d46" stroke="black" points="628.5,-1154 483.5,-1154 483.5,-1118 628.5,-1118 628.5,-1154"/>
<text text-anchor="middle" x="556" y="-1132.3" font-family="Arial" font-size="14.00" fill="#ffffff">2671 AllocatedObject</text>
</g>
<!-- node2658&#45;&gt;node2671 -->
<g id="edge56" class="edge">
<title>node2658&#45;&gt;node2671</title>
<path fill="none" stroke="#3cb4a4" d="M213.46,-1538.79C233.29,-1523.61 257,-1499.48 257,-1471 257,-1471 257,-1471 257,-1222 257,-1176.86 384.7,-1154.41 473.19,-1144.28"/>
<polygon fill="#3cb4a4" stroke="#3cb4a4" points="473.69,-1147.75 483.24,-1143.17 472.91,-1140.79 473.69,-1147.75"/>
<text text-anchor="middle" x="295" y="-1335.8" font-family="arial" font-size="14.00" fill="#3cb4a4">virtualObject</text>
</g>
<!-- node2663&#45;&gt;node2647 -->
<g id="edge44" class="edge">
<title>node2663&#45;&gt;node2647</title>
<path fill="none" stroke="#3cb4a4" d="M1296.8,-1538.8C1296.66,-1527.16 1296.48,-1511.55 1296.32,-1498.24"/>
<polygon fill="#3cb4a4" stroke="#3cb4a4" points="1299.82,-1498.13 1296.2,-1488.18 1292.82,-1498.22 1299.82,-1498.13"/>
<text text-anchor="middle" x="1313" y="-1509.8" font-family="arial" font-size="14.00" fill="#3cb4a4">result</text>
</g>
<!-- node2663&#45;&gt;node2647 -->
<g id="edge46" class="edge">
<title>node2663&#45;&gt;node2647</title>
<path fill="none" stroke="#da2d4f" stroke-width="2" d="M1295.24,-1538.93C1294.73,-1533.23 1294.25,-1526.85 1294,-1521 1293.69,-1513.65 1293.8,-1505.7 1294.09,-1498.34"/>
<polygon fill="#da2d4f" stroke="#da2d4f" stroke-width="2" points="1297.6,-1498.29 1294.61,-1488.13 1290.61,-1497.93 1297.6,-1498.29"/>
</g>
<!-- node2666 -->
<g id="node34" class="node">
<title>node2666</title>
<polygon fill="#343d46" stroke="black" points="1181.5,-1575 944.5,-1575 944.5,-1539 1181.5,-1539 1181.5,-1575"/>
<text text-anchor="middle" x="1063" y="-1553.3" font-family="Arial" font-size="14.00" fill="#ffffff">2666 VirtualArray java.lang.Object[8]</text>
</g>
<!-- node2666&#45;&gt;node2669 -->
<g id="edge47" class="edge">
<title>node2666&#45;&gt;node2669</title>
<path fill="none" stroke="#3cb4a4" d="M992.61,-1538.92C973.71,-1533.75 953.42,-1527.66 935,-1521 919.85,-1515.52 917.41,-1510.69 902,-1506 847.81,-1489.53 783.33,-1480.28 739.82,-1475.49"/>
<polygon fill="#3cb4a4" stroke="#3cb4a4" points="740.1,-1472 729.78,-1474.42 739.35,-1478.96 740.1,-1472"/>
<text text-anchor="middle" x="976.5" y="-1509.8" font-family="arial" font-size="14.00" fill="#3cb4a4">virtualObjects</text>
</g>
<!-- node2670 -->
<g id="node36" class="node">
<title>node2670</title>
<polygon fill="#343d46" stroke="black" points="1026.5,-1401 881.5,-1401 881.5,-1365 1026.5,-1365 1026.5,-1401"/>
<text text-anchor="middle" x="954" y="-1379.3" font-family="Arial" font-size="14.00" fill="#ffffff">2670 AllocatedObject</text>
</g>
<!-- node2666&#45;&gt;node2670 -->
<g id="edge54" class="edge">
<title>node2666&#45;&gt;node2670</title>
<path fill="none" stroke="#3cb4a4" d="M1052.15,-1538.88C1032.97,-1508.61 992.98,-1445.51 970.41,-1409.9"/>
<polygon fill="#3cb4a4" stroke="#3cb4a4" points="973.12,-1407.62 964.81,-1401.05 967.2,-1411.37 973.12,-1407.62"/>
<text text-anchor="middle" x="1057" y="-1466.3" font-family="arial" font-size="14.00" fill="#3cb4a4">virtualObject</text>
</g>
<!-- node2669&#45;&gt;node2607 -->
<g id="edge53" class="edge">
<title>node2669&#45;&gt;node2607</title>
<path fill="none" stroke="#da2d4f" stroke-width="2" d="M729.62,-1467.3C812.05,-1462.86 997.57,-1447.76 1036,-1401 1071.09,-1358.3 1051.09,-1288.48 1035.99,-1250.55"/>
<polygon fill="#da2d4f" stroke="#da2d4f" stroke-width="2" points="1039.17,-1249.08 1032.1,-1241.19 1032.7,-1251.77 1039.17,-1249.08"/>
</g>
<!-- node2669&#45;&gt;node2670 -->
<g id="edge55" class="edge">
<title>node2669&#45;&gt;node2670</title>
<path fill="none" stroke="#3cb4a4" d="M729.52,-1456.27C772.27,-1442.51 841.02,-1420.38 891.19,-1404.22"/>
<polygon fill="#3cb4a4" stroke="#3cb4a4" points="892.52,-1407.47 900.96,-1401.08 890.37,-1400.81 892.52,-1407.47"/>
<text text-anchor="middle" x="860" y="-1422.8" font-family="arial" font-size="14.00" fill="#3cb4a4">commit</text>
</g>
<!-- node2669&#45;&gt;node2671 -->
<g id="edge57" class="edge">
<title>node2669&#45;&gt;node2671</title>
<path fill="none" stroke="#3cb4a4" d="M672.16,-1451.89C657.46,-1435.88 639,-1410.5 639,-1384 639,-1384 639,-1384 639,-1222 639,-1195.71 618.43,-1174.54 597.77,-1159.89"/>
<polygon fill="#3cb4a4" stroke="#3cb4a4" points="599.54,-1156.86 589.28,-1154.22 595.65,-1162.68 599.54,-1156.86"/>
<text text-anchor="middle" x="662" y="-1292.3" font-family="arial" font-size="14.00" fill="#3cb4a4">commit</text>
</g>
<!-- node2670&#45;&gt;node2608 -->
<g id="edge30" class="edge">
<title>node2670&#45;&gt;node2608</title>
<path fill="none" stroke="#3cb4a4" d="M953.19,-1364.8C952.64,-1353.16 951.91,-1337.55 951.28,-1324.24"/>
<polygon fill="#3cb4a4" stroke="#3cb4a4" points="954.77,-1324 950.81,-1314.18 947.78,-1324.33 954.77,-1324"/>
<text text-anchor="middle" x="969.5" y="-1335.8" font-family="arial" font-size="14.00" fill="#3cb4a4">arg[1]</text>
</g>
<!-- node2671&#45;&gt;node1887 -->
<g id="edge10" class="edge">
<title>node2671&#45;&gt;node1887</title>
<path fill="none" stroke="#3cb4a4" d="M592.63,-1117.8C621.18,-1104.39 660.98,-1085.7 691.56,-1071.34"/>
<polygon fill="#3cb4a4" stroke="#3cb4a4" points="693.17,-1074.45 700.74,-1067.03 690.2,-1068.11 693.17,-1074.45"/>
<text text-anchor="middle" x="676.5" y="-1088.8" font-family="arial" font-size="14.00" fill="#3cb4a4">object</text>
</g>
<!-- node2671&#45;&gt;node2065 -->
<g id="edge14" class="edge">
<title>node2671&#45;&gt;node2065</title>
<path fill="none" stroke="#3cb4a4" d="M556,-1117.74C556,-1100.57 556,-1073.46 556,-1050 556,-1050 556,-1050 556,-874 556,-843.8 581.41,-823.49 609.13,-810.33"/>
<polygon fill="#3cb4a4" stroke="#3cb4a4" points="610.86,-813.38 618.58,-806.13 608.02,-806.99 610.86,-813.38"/>
<text text-anchor="middle" x="574.5" y="-958.3" font-family="arial" font-size="14.00" fill="#3cb4a4">object</text>
</g>
<!-- node2671&#45;&gt;node2078 -->
<g id="edge17" class="edge">
<title>node2671&#45;&gt;node2078</title>
<path fill="none" stroke="#3cb4a4" d="M537.81,-1117.96C522.82,-1101.99 504,-1076.64 504,-1050 504,-1050 504,-1050 504,-700 504,-617.69 597.35,-567.15 663.79,-541.6"/>
<polygon fill="#3cb4a4" stroke="#3cb4a4" points="665.24,-544.8 673.38,-538.01 662.79,-538.24 665.24,-544.8"/>
<text text-anchor="middle" x="522.5" y="-827.8" font-family="arial" font-size="14.00" fill="#3cb4a4">object</text>
</g>
<!-- node2682&#45;&gt;node2646 -->
<g id="edge43" class="edge">
<title>node2682&#45;&gt;node2646</title>
<path fill="none" stroke="#3cb4a4" d="M665.9,-86.84C662.28,-81.46 658.88,-75.27 657,-69 654.59,-60.93 656.56,-52.49 660.19,-44.89"/>
<polygon fill="#3cb4a4" stroke="#3cb4a4" points="663.29,-46.53 665.25,-36.12 657.22,-43.03 663.29,-46.53"/>
<text text-anchor="middle" x="674" y="-57.8" font-family="arial" font-size="14.00" fill="#3cb4a4">result</text>
</g>
<!-- node2682&#45;&gt;node2646 -->
<g id="edge59" class="edge">
<title>node2682&#45;&gt;node2646</title>
<path fill="none" stroke="#da2d4f" stroke-width="2" d="M686.94,-86.98C690.06,-77.35 692.7,-65.07 691,-54 690.59,-51.32 690.01,-48.56 689.33,-45.83"/>
<polygon fill="#da2d4f" stroke="#da2d4f" stroke-width="2" points="692.69,-44.83 686.55,-36.2 685.96,-46.78 692.69,-44.83"/>
</g>
<!-- node2683&#45;&gt;node517 -->
<g id="edge69" class="edge">
<title>node2683&#45;&gt;node517</title>
<path fill="none" stroke="#da2d4f" stroke-width="2" d="M712.75,-2040.86C722.02,-2030.09 734.13,-2016.02 744.46,-2004.02"/>
<polygon fill="#da2d4f" stroke="#da2d4f" stroke-width="2" points="747.4,-2005.97 751.27,-1996.11 742.1,-2001.4 747.4,-2005.97"/>
</g>
<!-- inline5x1201 -->
<g id="node40" class="node">
<title>inline5x1201</title>
<ellipse fill="#d7ede7" stroke="black" cx="539" cy="-1978" rx="27" ry="18"/>
<text text-anchor="middle" x="539" y="-1976.1" font-family="Arial" font-size="8.00" fill="#1a1919">5 C(0)</text>
</g>
<!-- inline5x1201&#45;&gt;node1201 -->
<g id="edge6" class="edge">
<title>inline5x1201&#45;&gt;node1201</title>
<path fill="none" stroke="#3cb4a4" d="M539,-1959.8C539,-1945.05 539,-1923.92 539,-1909.18"/>
<text text-anchor="middle" x="541" y="-1932.6" font-family="arial" font-size="8.00" fill="#3cb4a4">y</text>
</g>
<!-- inline1418x1420 -->
<g id="node41" class="node">
<title>inline1418x1420</title>
<ellipse fill="#d7ede7" stroke="black" cx="556" cy="-1731" rx="86.57" ry="18"/>
<text text-anchor="middle" x="556" y="-1729.1" font-family="Arial" font-size="8.00" fill="#1a1919">1418 C(RubyBasicObject@5a620041)</text>
</g>
<!-- inline1418x1420&#45;&gt;node1420 -->
<g id="edge9" class="edge">
<title>inline1418x1420&#45;&gt;node1420</title>
<path fill="none" stroke="#3cb4a4" d="M556,-1712.8C556,-1698.05 556,-1676.92 556,-1662.18"/>
<text text-anchor="middle" x="558" y="-1685.6" font-family="arial" font-size="8.00" fill="#3cb4a4">y</text>
</g>
<!-- inline942x1937 -->
<g id="node42" class="node">
<title>inline942x1937</title>
<ellipse fill="#d7ede7" stroke="black" cx="979" cy="-1049" rx="71.44" ry="18"/>
<text text-anchor="middle" x="979" y="-1047.1" font-family="Arial" font-size="8.00" fill="#1a1919">942 C(RubyClass@13de4a9c)</text>
</g>
<!-- inline942x1937&#45;&gt;node1937 -->
<g id="edge13" class="edge">
<title>inline942x1937&#45;&gt;node1937</title>
<path fill="none" stroke="#3cb4a4" d="M949.12,-1032.61C916.24,-1015.67 864.24,-988.88 835.27,-973.96"/>
<text text-anchor="middle" x="908" y="-1003.6" font-family="arial" font-size="8.00" fill="#3cb4a4">y</text>
</g>
<!-- inline23x2080 -->
<g id="node43" class="node">
<title>inline23x2080</title>
<ellipse fill="#d7ede7" stroke="black" cx="876" cy="-520" rx="27" ry="18"/>
<text text-anchor="middle" x="876" y="-518.1" font-family="Arial" font-size="8.00" fill="#1a1919">23 C(1)</text>
</g>
<!-- inline23x2080&#45;&gt;node2080 -->
<g id="edge20" class="edge">
<title>inline23x2080&#45;&gt;node2080</title>
<path fill="none" stroke="#3cb4a4" d="M864.08,-503.41C851.91,-487.5 833.2,-463.04 821.56,-447.8"/>
<text text-anchor="middle" x="849" y="-474.6" font-family="arial" font-size="8.00" fill="#3cb4a4">y</text>
</g>
<!-- inline5x2105 -->
<g id="node44" class="node">
<title>inline5x2105</title>
<ellipse fill="#d7ede7" stroke="black" cx="848" cy="-273" rx="27" ry="18"/>
<text text-anchor="middle" x="848" y="-271.1" font-family="Arial" font-size="8.00" fill="#1a1919">5 C(0)</text>
</g>
<!-- inline5x2105&#45;&gt;node2105 -->
<g id="edge24" class="edge">
<title>inline5x2105&#45;&gt;node2105</title>
<path fill="none" stroke="#3cb4a4" d="M826.68,-261.92C821.86,-259.65 816.75,-257.24 812,-255 779.7,-239.79 742.94,-222.53 716.43,-210.09"/>
<text text-anchor="middle" x="781.5" y="-230.6" font-family="arial" font-size="8.00" fill="#3cb4a4">index</text>
</g>
<!-- inline1630x2608 -->
<g id="node45" class="node">
<title>inline1630x2608</title>
<ellipse fill="#d7ede7" stroke="black" cx="806" cy="-1383" rx="57.08" ry="18"/>
<text text-anchor="middle" x="806" y="-1381.1" font-family="Arial" font-size="8.00" fill="#1a1919">1630 C(Object#escape)</text>
</g>
<!-- inline1630x2608&#45;&gt;node2608 -->
<g id="edge29" class="edge">
<title>inline1630x2608&#45;&gt;node2608</title>
<path fill="none" stroke="#3cb4a4" d="M831.74,-1366.8C856.82,-1352 894.88,-1329.53 921.01,-1314.11"/>
<text text-anchor="middle" x="897" y="-1337.6" font-family="arial" font-size="8.00" fill="#3cb4a4">arg[0]</text>
</g>
<!-- inline125x1420 -->
<g id="node46" class="node">
<title>inline125x1420</title>
<ellipse fill="#d7ede7" stroke="black" cx="424" cy="-1731" rx="27.46" ry="18"/>
<text text-anchor="middle" x="424" y="-1729.1" font-family="Arial" font-size="8.00" fill="#1a1919">125 T(5)</text>
</g>
<!-- inline125x1420&#45;&gt;node1420 -->
<g id="edge62" class="edge">
<title>inline125x1420&#45;&gt;node1420</title>
<path fill="none" stroke="#3cb4a4" d="M442.91,-1717.82C468.15,-1701.57 512.55,-1672.98 537.55,-1656.88"/>
<text text-anchor="middle" x="500" y="-1685.6" font-family="arial" font-size="8.00" fill="#3cb4a4">x</text>
</g>
<!-- inline125x2669 -->
<g id="node47" class="node">
<title>inline125x2669</title>
<ellipse fill="#d7ede7" stroke="black" cx="899" cy="-1557" rx="27.46" ry="18"/>
<text text-anchor="middle" x="899" y="-1555.1" font-family="Arial" font-size="8.00" fill="#1a1919">125 T(5)</text>
</g>
<!-- inline125x2669&#45;&gt;node2669 -->
<g id="edge63" class="edge">
<title>inline125x2669&#45;&gt;node2669</title>
<path fill="none" stroke="#3cb4a4" d="M889.96,-1540C882.76,-1528.74 871.63,-1514.26 858,-1506 818.63,-1482.15 765.59,-1474.34 729.72,-1471.9"/>
<text text-anchor="middle" x="886.5" y="-1511.6" font-family="arial" font-size="8.00" fill="#3cb4a4">values</text>
</g>
<!-- inline143x751 -->
<g id="node48" class="node">
<title>inline143x751</title>
<ellipse fill="#d7ede7" stroke="black" cx="680" cy="-1978" rx="27.46" ry="18"/>
<text text-anchor="middle" x="680" y="-1976.1" font-family="Arial" font-size="8.00" fill="#1a1919">143 T(6)</text>
</g>
<!-- inline143x751&#45;&gt;node751 -->
<g id="edge64" class="edge">
<title>inline143x751&#45;&gt;node751</title>
<path fill="none" stroke="#3cb4a4" d="M681.82,-1959.8C683.4,-1944.86 685.68,-1923.36 687.24,-1908.6"/>
<text text-anchor="middle" x="695.5" y="-1932.6" font-family="arial" font-size="8.00" fill="#3cb4a4">value</text>
</g>
<!-- inline158x517 -->
<g id="node49" class="node">
<title>inline158x517</title>
<ellipse fill="#d7ede7" stroke="black" cx="800" cy="-2059" rx="27.46" ry="18"/>
<text text-anchor="middle" x="800" y="-2057.1" font-family="Arial" font-size="8.00" fill="#1a1919">158 T(7)</text>
</g>
<!-- inline158x517&#45;&gt;node517 -->
<g id="edge65" class="edge">
<title>inline158x517&#45;&gt;node517</title>
<path fill="none" stroke="#3cb4a4" d="M792.79,-2041.25C787.06,-2027.93 779.08,-2009.38 773.32,-1996"/>
<text text-anchor="middle" x="793.5" y="-2016.6" font-family="arial" font-size="8.00" fill="#3cb4a4">value</text>
</g>
<!-- inline176x676 -->
<g id="node50" class="node">
<title>inline176x676</title>
<ellipse fill="#d7ede7" stroke="black" cx="852" cy="-1978" rx="27.46" ry="18"/>
<text text-anchor="middle" x="852" y="-1976.1" font-family="Arial" font-size="8.00" fill="#1a1919">176 T(8)</text>
</g>
<!-- inline176x676&#45;&gt;node676 -->
<g id="edge66" class="edge">
<title>inline176x676&#45;&gt;node676</title>
<path fill="none" stroke="#3cb4a4" d="M850.38,-1959.8C848.99,-1945.05 847,-1923.92 845.62,-1909.18"/>
<text text-anchor="middle" x="857.5" y="-1932.6" font-family="arial" font-size="8.00" fill="#3cb4a4">value</text>
</g>
<!-- inline2x2683 -->
<g id="node51" class="node">
<title>inline2x2683</title>
<ellipse fill="#d7ede7" stroke="black" cx="735" cy="-2140" rx="27" ry="18"/>
<text text-anchor="middle" x="735" y="-2138.1" font-family="Arial" font-size="8.00" fill="#1a1919">2 P(1)</text>
</g>
<!-- inline2x2683&#45;&gt;node2683 -->
<g id="edge67" class="edge">
<title>inline2x2683&#45;&gt;node2683</title>
<path fill="none" stroke="#3cb4a4" d="M727.33,-2122.63C721.11,-2109.34 712.36,-2090.67 706.04,-2077.17"/>
<text text-anchor="middle" x="726.5" y="-2097.6" font-family="arial" font-size="8.00" fill="#3cb4a4">array</text>
</g>
</g>
</svg>
