<?xml version="1.0" encoding="UTF-8" standalone="no"?>
<!DOCTYPE svg PUBLIC "-//W3C//DTD SVG 1.1//EN"
 "http://www.w3.org/Graphics/SVG/1.1/DTD/svg11.dtd">
<!-- Generated by graphviz version 2.44.1 (20200629.0846)
 -->
<!-- Title: G Pages: 1 -->
<svg width="863pt" height="1244pt"
 viewBox="0.00 0.00 862.90 1244.00" xmlns="http://www.w3.org/2000/svg" xmlns:xlink="http://www.w3.org/1999/xlink">
<g id="graph0" class="graph" transform="scale(1 1) rotate(0) translate(4 1240)">
<title>G</title>
<!-- node0 -->
<g id="node1" class="node">
<title>node0</title>
<polygon fill="#e98693" stroke="black" points="493.78,-1236 437.78,-1236 437.78,-1200 493.78,-1200 493.78,-1236"/>
<text text-anchor="middle" x="465.78" y="-1214.3" font-family="Arial" font-size="14.00" fill="#1a1919">0 Start</text>
</g>
<!-- node1721 -->
<g id="node17" class="node">
<title>node1721</title>
<polygon fill="#da2d4f" stroke="black" points="558.28,-1155 445.28,-1155 445.28,-1119 558.28,-1119 558.28,-1155"/>
<text text-anchor="middle" x="501.78" y="-1133.3" font-family="Arial" font-size="14.00" fill="#ffffff">1721 Load T(...)</text>
</g>
<!-- node0&#45;&gt;node1721 -->
<g id="edge33" class="edge">
<title>node0&#45;&gt;node1721</title>
<path fill="none" stroke="#da2d4f" stroke-width="2" d="M473.59,-1199.86C478.3,-1189.51 484.41,-1176.1 489.74,-1164.41"/>
<polygon fill="#da2d4f" stroke="#da2d4f" stroke-width="2" points="493.02,-1165.66 493.98,-1155.11 486.65,-1162.76 493.02,-1165.66"/>
</g>
<!-- node545 -->
<g id="node2" class="node">
<title>node545</title>
<polygon fill="#f9f9f9" stroke="black" points="610.78,-1074 528.78,-1074 528.78,-1038 610.78,-1038 610.78,-1074"/>
<text text-anchor="middle" x="569.78" y="-1052.3" font-family="Arial" font-size="14.00" fill="#1a1919">545 Unbox</text>
</g>
<!-- node700 -->
<g id="node3" class="node">
<title>node700</title>
<polygon fill="#f9f9f9" stroke="black" points="691.78,-993 609.78,-993 609.78,-957 691.78,-957 691.78,-993"/>
<text text-anchor="middle" x="650.78" y="-971.3" font-family="Arial" font-size="14.00" fill="#1a1919">700 Unbox</text>
</g>
<!-- node545&#45;&gt;node700 -->
<g id="edge1" class="edge">
<title>node545&#45;&gt;node700</title>
<path fill="none" stroke="#da2d4f" stroke-width="2" d="M587.35,-1037.86C598.6,-1026.88 613.37,-1012.48 625.83,-1000.33"/>
<polygon fill="#da2d4f" stroke="#da2d4f" stroke-width="2" points="628.52,-1002.6 633.23,-993.11 623.63,-997.58 628.52,-1002.6"/>
</g>
<!-- node1134 -->
<g id="node6" class="node">
<title>node1134</title>
<polygon fill="#3cb4a4" stroke="black" points="650.78,-906 464.1,-888 650.78,-870 837.45,-888 650.78,-906"/>
<text text-anchor="middle" x="650.78" y="-884.3" font-family="Arial" font-size="14.00" fill="#1a1919">1134 IntegerAddExactOverflow</text>
</g>
<!-- node545&#45;&gt;node1134 -->
<g id="edge5" class="edge">
<title>node545&#45;&gt;node1134</title>
<path fill="none" stroke="#3cb4a4" d="M571.57,-1037.89C574.22,-1017.66 580.4,-983.41 593.78,-957 602.25,-940.27 615.55,-924.08 627.18,-911.69"/>
<polygon fill="#3cb4a4" stroke="#3cb4a4" points="629.7,-914.12 634.14,-904.5 624.67,-909.25 629.7,-914.12"/>
<text text-anchor="middle" x="597.28" y="-971.3" font-family="arial" font-size="14.00" fill="#3cb4a4">x</text>
</g>
<!-- node1136 -->
<g id="node7" class="node">
<title>node1136</title>
<polygon fill="#3cb4a4" stroke="black" points="452.78,-732 315.87,-714 452.78,-696 589.68,-714 452.78,-732"/>
<text text-anchor="middle" x="452.78" y="-710.3" font-family="Arial" font-size="14.00" fill="#1a1919">1136 IntegerAddExact</text>
</g>
<!-- node545&#45;&gt;node1136 -->
<g id="edge7" class="edge">
<title>node545&#45;&gt;node1136</title>
<path fill="none" stroke="#3cb4a4" d="M528.47,-1055.48C426.28,-1055.57 169.78,-1048.56 169.78,-976 169.78,-976 169.78,-976 169.78,-800 169.78,-757.91 286.03,-734.86 369.52,-723.73"/>
<polygon fill="#3cb4a4" stroke="#3cb4a4" points="370.06,-727.19 379.53,-722.43 369.16,-720.25 370.06,-727.19"/>
<text text-anchor="middle" x="173.28" y="-884.3" font-family="arial" font-size="14.00" fill="#3cb4a4">x</text>
</g>
<!-- node700&#45;&gt;node1134 -->
<g id="edge6" class="edge">
<title>node700&#45;&gt;node1134</title>
<path fill="none" stroke="#3cb4a4" d="M650.78,-956.8C650.78,-945.16 650.78,-929.55 650.78,-916.24"/>
<polygon fill="#3cb4a4" stroke="#3cb4a4" points="654.28,-916.18 650.78,-906.18 647.28,-916.18 654.28,-916.18"/>
<text text-anchor="middle" x="654.28" y="-927.8" font-family="arial" font-size="14.00" fill="#3cb4a4">y</text>
</g>
<!-- node700&#45;&gt;node1136 -->
<g id="edge8" class="edge">
<title>node700&#45;&gt;node1136</title>
<path fill="none" stroke="#3cb4a4" d="M691.9,-968.81C760.73,-958.33 887.87,-930.33 846.78,-870 779.7,-771.53 639.6,-735.62 545.85,-722.52"/>
<polygon fill="#3cb4a4" stroke="#3cb4a4" points="546.17,-719.03 535.79,-721.18 545.24,-725.97 546.17,-719.03"/>
<text text-anchor="middle" x="834.28" y="-840.8" font-family="arial" font-size="14.00" fill="#3cb4a4">y</text>
</g>
<!-- node1702 -->
<g id="node15" class="node">
<title>node1702</title>
<polygon fill="#ffa500" stroke="black" points="446.28,-906 195.28,-906 195.28,-870 446.28,-870 446.28,-906"/>
<text text-anchor="middle" x="320.78" y="-884.3" font-family="Arial" font-size="14.00" fill="#1a1919">1702 Guard, else TransferToInterpreter</text>
</g>
<!-- node700&#45;&gt;node1702 -->
<g id="edge2" class="edge">
<title>node700&#45;&gt;node1702</title>
<path fill="none" stroke="#da2d4f" stroke-width="2" d="M609.52,-963.18C601.64,-961.12 593.45,-958.99 585.78,-957 522.39,-940.58 450.42,-922.12 397.49,-908.59"/>
<polygon fill="#da2d4f" stroke="#da2d4f" stroke-width="2" points="398.06,-905.12 387.5,-906.03 396.32,-911.9 398.06,-905.12"/>
</g>
<!-- node774 -->
<g id="node4" class="node">
<title>node774</title>
<polygon fill="#3cb4a4" stroke="black" points="70.78,-993 0.22,-975 70.78,-957 141.33,-975 70.78,-993"/>
<text text-anchor="middle" x="70.78" y="-971.3" font-family="Arial" font-size="14.00" fill="#1a1919">774 IsNull</text>
</g>
<!-- node774&#45;&gt;node1702 -->
<g id="edge25" class="edge">
<title>node774&#45;&gt;node1702</title>
<path fill="none" stroke="#3cb4a4" d="M99.45,-964.25C138.61,-950.94 209.77,-926.74 260.84,-909.38"/>
<polygon fill="#3cb4a4" stroke="#3cb4a4" points="262.11,-912.64 270.45,-906.11 259.86,-906.02 262.11,-912.64"/>
<text text-anchor="middle" x="214.78" y="-927.8" font-family="arial" font-size="14.00" fill="#3cb4a4">?</text>
</g>
<!-- node1133 -->
<g id="node5" class="node">
<title>node1133</title>
<polygon fill="#ffa500" stroke="black" points="494.78,-819 228.78,-819 228.78,-783 494.78,-783 494.78,-819"/>
<text text-anchor="middle" x="361.78" y="-797.3" font-family="Arial" font-size="14.00" fill="#1a1919">1133 Guard not, else ArithmeticException</text>
</g>
<!-- node1133&#45;&gt;node1136 -->
<g id="edge9" class="edge">
<title>node1133&#45;&gt;node1136</title>
<path fill="none" stroke="#3cb4a4" d="M380.19,-782.8C394.34,-769.58 413.99,-751.23 429.28,-736.95"/>
<polygon fill="#3cb4a4" stroke="#3cb4a4" points="431.9,-739.29 436.82,-729.9 427.12,-734.17 431.9,-739.29"/>
<text text-anchor="middle" x="430.28" y="-753.8" font-family="arial" font-size="14.00" fill="#3cb4a4">guard</text>
</g>
<!-- node1443 -->
<g id="node8" class="node">
<title>node1443</title>
<polygon fill="#ffa500" stroke="black" points="354.78,-558 88.78,-558 88.78,-522 354.78,-522 354.78,-558"/>
<text text-anchor="middle" x="221.78" y="-536.3" font-family="Arial" font-size="14.00" fill="#1a1919">1443 Guard not, else ArithmeticException</text>
</g>
<!-- node1133&#45;&gt;node1443 -->
<g id="edge4" class="edge">
<title>node1133&#45;&gt;node1443</title>
<path fill="none" stroke="#da2d4f" stroke-width="2" d="M265.81,-782.93C189.81,-763.73 88.86,-724.19 41.78,-645 16.94,-603.22 68.04,-576.62 122.06,-560.79"/>
<polygon fill="#da2d4f" stroke="#da2d4f" stroke-width="2" points="123.12,-564.12 131.81,-558.05 121.23,-557.39 123.12,-564.12"/>
</g>
<!-- node1134&#45;&gt;node1133 -->
<g id="edge3" class="edge">
<title>node1134&#45;&gt;node1133</title>
<path fill="none" stroke="#3cb4a4" d="M607.2,-874.18C560.04,-860.31 484.25,-838.02 429.35,-821.88"/>
<polygon fill="#3cb4a4" stroke="#3cb4a4" points="430.29,-818.5 419.7,-819.04 428.31,-825.22 430.29,-818.5"/>
<text text-anchor="middle" x="526.78" y="-840.8" font-family="arial" font-size="14.00" fill="#3cb4a4">?</text>
</g>
<!-- node1444 -->
<g id="node9" class="node">
<title>node1444</title>
<polygon fill="#3cb4a4" stroke="black" points="237.78,-645 51.1,-627 237.78,-609 424.45,-627 237.78,-645"/>
<text text-anchor="middle" x="237.78" y="-623.3" font-family="Arial" font-size="14.00" fill="#1a1919">1444 IntegerMulExactOverflow</text>
</g>
<!-- node1136&#45;&gt;node1444 -->
<g id="edge12" class="edge">
<title>node1136&#45;&gt;node1444</title>
<path fill="none" stroke="#3cb4a4" d="M420.12,-700.09C383.25,-685.51 323.07,-661.72 282.01,-645.49"/>
<polygon fill="#3cb4a4" stroke="#3cb4a4" points="283.11,-642.16 272.52,-641.74 280.53,-648.67 283.11,-642.16"/>
<text text-anchor="middle" x="362.28" y="-666.8" font-family="arial" font-size="14.00" fill="#3cb4a4">x</text>
</g>
<!-- node1446 -->
<g id="node10" class="node">
<title>node1446</title>
<polygon fill="#3cb4a4" stroke="black" points="408.78,-471 271.87,-453 408.78,-435 545.68,-453 408.78,-471"/>
<text text-anchor="middle" x="408.78" y="-449.3" font-family="Arial" font-size="14.00" fill="#1a1919">1446 IntegerMulExact</text>
</g>
<!-- node1136&#45;&gt;node1446 -->
<g id="edge14" class="edge">
<title>node1136&#45;&gt;node1446</title>
<path fill="none" stroke="#3cb4a4" d="M449.89,-696.01C442.41,-652 422.37,-534.04 413.32,-480.76"/>
<polygon fill="#3cb4a4" stroke="#3cb4a4" points="416.74,-479.99 411.62,-470.72 409.84,-481.16 416.74,-479.99"/>
<text text-anchor="middle" x="436.28" y="-579.8" font-family="arial" font-size="14.00" fill="#3cb4a4">x</text>
</g>
<!-- node1664 -->
<g id="node12" class="node">
<title>node1664</title>
<polygon fill="#3cb4a4" stroke="black" points="573.78,-384 386.26,-366 573.78,-348 761.29,-366 573.78,-384"/>
<text text-anchor="middle" x="573.78" y="-362.3" font-family="Arial" font-size="14.00" fill="#1a1919">1664 IntegerAddExactOverflow</text>
</g>
<!-- node1136&#45;&gt;node1664 -->
<g id="edge19" class="edge">
<title>node1136&#45;&gt;node1664</title>
<path fill="none" stroke="#3cb4a4" d="M496.46,-701.63C531.12,-689.67 573.78,-667.02 573.78,-628 573.78,-628 573.78,-628 573.78,-452 573.78,-432.75 573.78,-411.05 573.78,-394.4"/>
<polygon fill="#3cb4a4" stroke="#3cb4a4" points="577.28,-394.26 573.78,-384.26 570.28,-394.26 577.28,-394.26"/>
<text text-anchor="middle" x="577.28" y="-536.3" font-family="arial" font-size="14.00" fill="#3cb4a4">x</text>
</g>
<!-- node1666 -->
<g id="node13" class="node">
<title>node1666</title>
<polygon fill="#3cb4a4" stroke="black" points="360.78,-210 223.03,-192 360.78,-174 498.52,-192 360.78,-210"/>
<text text-anchor="middle" x="360.78" y="-188.3" font-family="Arial" font-size="14.00" fill="#1a1919">1666 IntegerAddExact</text>
</g>
<!-- node1136&#45;&gt;node1666 -->
<g id="edge21" class="edge">
<title>node1136&#45;&gt;node1666</title>
<path fill="none" stroke="#3cb4a4" d="M543.53,-707.85C643.34,-699.64 789.78,-678.91 789.78,-628 789.78,-628 789.78,-628 789.78,-278 789.78,-216.97 620.58,-199.07 494.7,-194.2"/>
<polygon fill="#3cb4a4" stroke="#3cb4a4" points="494.69,-190.7 484.57,-193.83 494.44,-197.69 494.69,-190.7"/>
<text text-anchor="middle" x="793.28" y="-449.3" font-family="arial" font-size="14.00" fill="#3cb4a4">x</text>
</g>
<!-- node1443&#45;&gt;node1446 -->
<g id="edge16" class="edge">
<title>node1443&#45;&gt;node1446</title>
<path fill="none" stroke="#3cb4a4" d="M259.62,-521.8C291.87,-507.14 338,-486.17 370.4,-471.44"/>
<polygon fill="#3cb4a4" stroke="#3cb4a4" points="371.91,-474.6 379.57,-467.28 369.02,-468.23 371.91,-474.6"/>
<text text-anchor="middle" x="344.28" y="-492.8" font-family="arial" font-size="14.00" fill="#3cb4a4">guard</text>
</g>
<!-- node1663 -->
<g id="node11" class="node">
<title>node1663</title>
<polygon fill="#ffa500" stroke="black" points="329.78,-297 63.78,-297 63.78,-261 329.78,-261 329.78,-297"/>
<text text-anchor="middle" x="196.78" y="-275.3" font-family="Arial" font-size="14.00" fill="#1a1919">1663 Guard not, else ArithmeticException</text>
</g>
<!-- node1443&#45;&gt;node1663 -->
<g id="edge11" class="edge">
<title>node1443&#45;&gt;node1663</title>
<path fill="none" stroke="#da2d4f" stroke-width="2" d="M220.1,-521.6C215.84,-477.46 204.58,-360.83 199.42,-307.42"/>
<polygon fill="#da2d4f" stroke="#da2d4f" stroke-width="2" points="202.89,-306.94 198.45,-297.32 195.92,-307.61 202.89,-306.94"/>
</g>
<!-- node1444&#45;&gt;node1443 -->
<g id="edge10" class="edge">
<title>node1444&#45;&gt;node1443</title>
<path fill="none" stroke="#3cb4a4" d="M234.61,-609.21C232.42,-597.52 229.43,-581.69 226.9,-568.22"/>
<polygon fill="#3cb4a4" stroke="#3cb4a4" points="230.27,-567.23 224.98,-558.05 223.39,-568.52 230.27,-567.23"/>
<text text-anchor="middle" x="234.78" y="-579.8" font-family="arial" font-size="14.00" fill="#3cb4a4">?</text>
</g>
<!-- node1446&#45;&gt;node1664 -->
<g id="edge20" class="edge">
<title>node1446&#45;&gt;node1664</title>
<path fill="none" stroke="#3cb4a4" d="M435.29,-438.34C462.78,-424.18 505.97,-401.93 536.81,-386.04"/>
<polygon fill="#3cb4a4" stroke="#3cb4a4" points="538.67,-389.02 545.95,-381.33 535.46,-382.8 538.67,-389.02"/>
<text text-anchor="middle" x="505.28" y="-405.8" font-family="arial" font-size="14.00" fill="#3cb4a4">y</text>
</g>
<!-- node1446&#45;&gt;node1666 -->
<g id="edge22" class="edge">
<title>node1446&#45;&gt;node1666</title>
<path fill="none" stroke="#3cb4a4" d="M399.31,-436.13C391.82,-422.73 381.81,-402.78 376.78,-384 361.53,-327.1 359.72,-257.56 360.05,-220.07"/>
<polygon fill="#3cb4a4" stroke="#3cb4a4" points="363.55,-220 360.2,-209.95 356.55,-219.9 363.55,-220"/>
<text text-anchor="middle" x="370.28" y="-318.8" font-family="arial" font-size="14.00" fill="#3cb4a4">y</text>
</g>
<!-- node1663&#45;&gt;node1666 -->
<g id="edge23" class="edge">
<title>node1663&#45;&gt;node1666</title>
<path fill="none" stroke="#3cb4a4" d="M229.96,-260.8C257.63,-246.46 296.95,-226.08 325.25,-211.41"/>
<polygon fill="#3cb4a4" stroke="#3cb4a4" points="327.12,-214.38 334.39,-206.68 323.9,-208.17 327.12,-214.38"/>
<text text-anchor="middle" x="306.28" y="-231.8" font-family="arial" font-size="14.00" fill="#3cb4a4">guard</text>
</g>
<!-- node1720 -->
<g id="node16" class="node">
<title>node1720</title>
<polygon fill="#f9f9f9" stroke="black" points="308.28,-123 113.28,-123 113.28,-87 308.28,-87 308.28,-123"/>
<text text-anchor="middle" x="210.78" y="-101.3" font-family="Arial" font-size="14.00" fill="#1a1919">1720 BoxNode$AllocatingBox</text>
</g>
<!-- node1663&#45;&gt;node1720 -->
<g id="edge18" class="edge">
<title>node1663&#45;&gt;node1720</title>
<path fill="none" stroke="#da2d4f" stroke-width="2" d="M198.17,-260.88C200.6,-231 205.64,-169.11 208.56,-133.27"/>
<polygon fill="#da2d4f" stroke="#da2d4f" stroke-width="2" points="212.06,-133.3 209.39,-123.05 205.09,-132.73 212.06,-133.3"/>
</g>
<!-- node1664&#45;&gt;node1663 -->
<g id="edge17" class="edge">
<title>node1664&#45;&gt;node1663</title>
<path fill="none" stroke="#3cb4a4" d="M481.69,-356.83C435.08,-351.46 377.89,-342.96 327.78,-330 299.37,-322.66 268.68,-311.15 244.15,-301.02"/>
<polygon fill="#3cb4a4" stroke="#3cb4a4" points="245.31,-297.71 234.73,-297.08 242.6,-304.17 245.31,-297.71"/>
<text text-anchor="middle" x="331.78" y="-318.8" font-family="arial" font-size="14.00" fill="#3cb4a4">?</text>
</g>
<!-- node1666&#45;&gt;node1720 -->
<g id="edge27" class="edge">
<title>node1666&#45;&gt;node1720</title>
<path fill="none" stroke="#3cb4a4" d="M336.34,-177.15C312.92,-163.88 277.19,-143.63 249.82,-128.13"/>
<polygon fill="#3cb4a4" stroke="#3cb4a4" points="251.32,-124.95 240.89,-123.07 247.87,-131.04 251.32,-124.95"/>
<text text-anchor="middle" x="311.28" y="-144.8" font-family="arial" font-size="14.00" fill="#3cb4a4">value</text>
</g>
<!-- node1695 -->
<g id="node14" class="node">
<title>node1695</title>
<polygon fill="#e98693" stroke="black" points="256.28,-36 165.28,-36 165.28,0 256.28,0 256.28,-36"/>
<text text-anchor="middle" x="210.78" y="-14.3" font-family="Arial" font-size="14.00" fill="#1a1919">1695 Return</text>
</g>
<!-- node1702&#45;&gt;node1133 -->
<g id="edge26" class="edge">
<title>node1702&#45;&gt;node1133</title>
<path fill="none" stroke="#da2d4f" stroke-width="2" d="M329.07,-869.8C334.8,-857.93 342.52,-841.93 349.02,-828.45"/>
<polygon fill="#da2d4f" stroke="#da2d4f" stroke-width="2" points="352.3,-829.7 353.49,-819.18 345.99,-826.66 352.3,-829.7"/>
</g>
<!-- node1720&#45;&gt;node1695 -->
<g id="edge24" class="edge">
<title>node1720&#45;&gt;node1695</title>
<path fill="none" stroke="#3cb4a4" d="M196.67,-86.84C193.05,-81.46 189.65,-75.27 187.78,-69 185.36,-60.93 187.34,-52.49 190.97,-44.89"/>
<polygon fill="#3cb4a4" stroke="#3cb4a4" points="194.06,-46.53 196.03,-36.12 188,-43.03 194.06,-46.53"/>
<text text-anchor="middle" x="204.78" y="-57.8" font-family="arial" font-size="14.00" fill="#3cb4a4">result</text>
</g>
<!-- node1720&#45;&gt;node1695 -->
<g id="edge28" class="edge">
<title>node1720&#45;&gt;node1695</title>
<path fill="none" stroke="#da2d4f" stroke-width="2" d="M217.72,-86.98C220.84,-77.35 223.47,-65.07 221.78,-54 221.36,-51.32 220.78,-48.56 220.11,-45.83"/>
<polygon fill="#da2d4f" stroke="#da2d4f" stroke-width="2" points="223.46,-44.83 217.32,-36.2 216.74,-46.78 223.46,-44.83"/>
</g>
<!-- node1721&#45;&gt;node545 -->
<g id="edge34" class="edge">
<title>node1721&#45;&gt;node545</title>
<path fill="none" stroke="#da2d4f" stroke-width="2" d="M516.53,-1118.86C525.8,-1108.09 537.91,-1094.02 548.24,-1082.02"/>
<polygon fill="#da2d4f" stroke="#da2d4f" stroke-width="2" points="551.18,-1083.97 555.05,-1074.11 545.87,-1079.4 551.18,-1083.97"/>
</g>
<!-- inline69x1444 -->
<g id="node18" class="node">
<title>inline69x1444</title>
<ellipse fill="#d7ede7" stroke="black" cx="237.78" cy="-714" rx="27" ry="18"/>
<text text-anchor="middle" x="237.78" y="-712.1" font-family="Arial" font-size="8.00" fill="#1a1919">69 C(2)</text>
</g>
<!-- inline69x1444&#45;&gt;node1444 -->
<g id="edge13" class="edge">
<title>inline69x1444&#45;&gt;node1444</title>
<path fill="none" stroke="#3cb4a4" d="M237.78,-695.8C237.78,-681.05 237.78,-659.92 237.78,-645.18"/>
<text text-anchor="middle" x="239.78" y="-668.6" font-family="arial" font-size="8.00" fill="#3cb4a4">y</text>
</g>
<!-- inline69x1446 -->
<g id="node19" class="node">
<title>inline69x1446</title>
<ellipse fill="#d7ede7" stroke="black" cx="507.78" cy="-540" rx="27" ry="18"/>
<text text-anchor="middle" x="507.78" y="-538.1" font-family="Arial" font-size="8.00" fill="#1a1919">69 C(2)</text>
</g>
<!-- inline69x1446&#45;&gt;node1446 -->
<g id="edge15" class="edge">
<title>inline69x1446&#45;&gt;node1446</title>
<path fill="none" stroke="#3cb4a4" d="M497.14,-523.39C489.49,-512.88 478.49,-499.14 466.78,-489 457.35,-480.84 445.79,-473.44 435.47,-467.56"/>
<text text-anchor="middle" x="482.78" y="-494.6" font-family="arial" font-size="8.00" fill="#3cb4a4">y</text>
</g>
<!-- inline143x774 -->
<g id="node20" class="node">
<title>inline143x774</title>
<ellipse fill="#d7ede7" stroke="black" cx="70.78" cy="-1056" rx="27.46" ry="18"/>
<text text-anchor="middle" x="70.78" y="-1054.1" font-family="Arial" font-size="8.00" fill="#1a1919">143 T(6)</text>
</g>
<!-- inline143x774&#45;&gt;node774 -->
<g id="edge29" class="edge">
<title>inline143x774&#45;&gt;node774</title>
<path fill="none" stroke="#3cb4a4" d="M70.78,-1037.86C70.78,-1024.61 70.78,-1006.35 70.78,-993.11"/>
<text text-anchor="middle" x="80.28" y="-1013.6" font-family="arial" font-size="8.00" fill="#3cb4a4">value</text>
</g>
<!-- inline158x545 -->
<g id="node21" class="node">
<title>inline158x545</title>
<ellipse fill="#d7ede7" stroke="black" cx="603.78" cy="-1137" rx="27.46" ry="18"/>
<text text-anchor="middle" x="603.78" y="-1135.1" font-family="Arial" font-size="8.00" fill="#1a1919">158 T(7)</text>
</g>
<!-- inline158x545&#45;&gt;node545 -->
<g id="edge30" class="edge">
<title>inline158x545&#45;&gt;node545</title>
<path fill="none" stroke="#3cb4a4" d="M596.56,-1119.25C590.83,-1105.93 582.85,-1087.38 577.09,-1074"/>
<text text-anchor="middle" x="597.28" y="-1094.6" font-family="arial" font-size="8.00" fill="#3cb4a4">value</text>
</g>
<!-- inline176x700 -->
<g id="node22" class="node">
<title>inline176x700</title>
<ellipse fill="#d7ede7" stroke="black" cx="655.78" cy="-1056" rx="27.46" ry="18"/>
<text text-anchor="middle" x="655.78" y="-1054.1" font-family="Arial" font-size="8.00" fill="#1a1919">176 T(8)</text>
</g>
<!-- inline176x700&#45;&gt;node700 -->
<g id="edge31" class="edge">
<title>inline176x700&#45;&gt;node700</title>
<path fill="none" stroke="#3cb4a4" d="M654.69,-1037.86C653.85,-1024.61 652.7,-1006.35 651.86,-993.11"/>
<text text-anchor="middle" x="662.28" y="-1013.6" font-family="arial" font-size="8.00" fill="#3cb4a4">value</text>
</g>
<!-- inline2x1721 -->
<g id="node23" class="node">
<title>inline2x1721</title>
<ellipse fill="#d7ede7" stroke="black" cx="538.78" cy="-1218" rx="27" ry="18"/>
<text text-anchor="middle" x="538.78" y="-1216.1" font-family="Arial" font-size="8.00" fill="#1a1919">2 P(1)</text>
</g>
<!-- inline2x1721&#45;&gt;node1721 -->
<g id="edge32" class="edge">
<title>inline2x1721&#45;&gt;node1721</title>
<path fill="none" stroke="#3cb4a4" d="M531.11,-1200.63C524.89,-1187.34 516.14,-1168.67 509.82,-1155.17"/>
<text text-anchor="middle" x="530.28" y="-1175.6" font-family="arial" font-size="8.00" fill="#3cb4a4">array</text>
</g>
</g>
</svg>
