<?xml version="1.0" encoding="UTF-8" standalone="no"?>
<!DOCTYPE svg PUBLIC "-//W3C//DTD SVG 1.1//EN"
 "http://www.w3.org/Graphics/SVG/1.1/DTD/svg11.dtd">
<!-- Generated by graphviz version 2.44.1 (20200629.0846)
 -->
<!-- Title: G Pages: 1 -->
<svg width="647pt" height="1491pt"
 viewBox="0.00 0.00 646.54 1491.00" xmlns="http://www.w3.org/2000/svg" xmlns:xlink="http://www.w3.org/1999/xlink">
<g id="graph0" class="graph" transform="scale(1 1) rotate(0) translate(4 1487)">
<title>G</title>
<!-- node0 -->
<g id="node1" class="node">
<title>node0</title>
<polygon fill="#e98693" stroke="black" points="257.04,-1483 201.04,-1483 201.04,-1447 257.04,-1447 257.04,-1483"/>
<text text-anchor="middle" x="229.04" y="-1461.3" font-family="Arial" font-size="14.00" fill="#1a1919">0 Start</text>
</g>
<!-- node1439 -->
<g id="node24" class="node">
<title>node1439</title>
<polygon fill="#da2d4f" stroke="black" points="321.54,-1402 208.54,-1402 208.54,-1366 321.54,-1366 321.54,-1402"/>
<text text-anchor="middle" x="265.04" y="-1380.3" font-family="Arial" font-size="14.00" fill="#ffffff">1439 Load T(...)</text>
</g>
<!-- node0&#45;&gt;node1439 -->
<g id="edge37" class="edge">
<title>node0&#45;&gt;node1439</title>
<path fill="none" stroke="#da2d4f" stroke-width="2" d="M236.85,-1446.86C241.57,-1436.51 247.68,-1423.1 253,-1411.41"/>
<polygon fill="#da2d4f" stroke="#da2d4f" stroke-width="2" points="256.28,-1412.66 257.24,-1402.11 249.91,-1409.76 256.28,-1412.66"/>
</g>
<!-- node575 -->
<g id="node2" class="node">
<title>node575</title>
<polygon fill="#3cb4a4" stroke="black" points="120.04,-1402 49.49,-1384 120.04,-1366 190.59,-1384 120.04,-1402"/>
<text text-anchor="middle" x="120.04" y="-1380.3" font-family="Arial" font-size="14.00" fill="#1a1919">575 IsNull</text>
</g>
<!-- node1414 -->
<g id="node20" class="node">
<title>node1414</title>
<polygon fill="#ffa500" stroke="black" points="317.54,-1315 66.54,-1315 66.54,-1279 317.54,-1279 317.54,-1315"/>
<text text-anchor="middle" x="192.04" y="-1293.3" font-family="Arial" font-size="14.00" fill="#1a1919">1414 Guard, else TransferToInterpreter</text>
</g>
<!-- node575&#45;&gt;node1414 -->
<g id="edge26" class="edge">
<title>node575&#45;&gt;node1414</title>
<path fill="none" stroke="#3cb4a4" d="M131.93,-1368.96C142.44,-1356.55 158.04,-1338.14 170.7,-1323.19"/>
<polygon fill="#3cb4a4" stroke="#3cb4a4" points="173.6,-1325.18 177.39,-1315.29 168.26,-1320.66 173.6,-1325.18"/>
<text text-anchor="middle" x="165.04" y="-1336.8" font-family="arial" font-size="14.00" fill="#3cb4a4">?</text>
</g>
<!-- node925 -->
<g id="node3" class="node">
<title>node925</title>
<polygon fill="#da2d4f" stroke="black" points="461.54,-1234 162.54,-1234 162.54,-1198 461.54,-1198 461.54,-1234"/>
<text text-anchor="middle" x="312.04" y="-1212.3" font-family="Arial" font-size="14.00" fill="#ffffff">925 LoadField RubyDynamicObject.metaClass</text>
</g>
<!-- node989 -->
<g id="node4" class="node">
<title>node989</title>
<polygon fill="#e98693" stroke="black" points="303.04,-1060 249.04,-1060 249.04,-1024 303.04,-1024 303.04,-1060"/>
<text text-anchor="middle" x="276.04" y="-1038.3" font-family="Arial" font-size="14.00" fill="#1a1919">989 If</text>
</g>
<!-- node925&#45;&gt;node989 -->
<g id="edge1" class="edge">
<title>node925&#45;&gt;node989</title>
<path fill="none" stroke="#da2d4f" stroke-width="2" d="M308.45,-1197.88C302.2,-1168 289.25,-1106.11 281.75,-1070.27"/>
<polygon fill="#da2d4f" stroke="#da2d4f" stroke-width="2" points="285.08,-1069.12 279.61,-1060.05 278.23,-1070.56 285.08,-1069.12"/>
</g>
<!-- node990 -->
<g id="node5" class="node">
<title>node990</title>
<polygon fill="#3cb4a4" stroke="black" points="199.04,-1147 144.58,-1129 199.04,-1111 253.5,-1129 199.04,-1147"/>
<text text-anchor="middle" x="199.04" y="-1125.3" font-family="Arial" font-size="14.00" fill="#1a1919">990 ==</text>
</g>
<!-- node925&#45;&gt;node990 -->
<g id="edge5" class="edge">
<title>node925&#45;&gt;node990</title>
<path fill="none" stroke="#3cb4a4" d="M289.17,-1197.8C269.96,-1183.35 242.59,-1162.76 223.06,-1148.07"/>
<polygon fill="#3cb4a4" stroke="#3cb4a4" points="225.05,-1145.19 214.95,-1141.97 220.84,-1150.78 225.05,-1145.19"/>
<text text-anchor="middle" x="266.54" y="-1168.8" font-family="arial" font-size="14.00" fill="#3cb4a4">x</text>
</g>
<!-- node1082 -->
<g id="node8" class="node">
<title>node1082</title>
<polygon fill="#3cb4a4" stroke="black" points="449.04,-973 387.37,-955 449.04,-937 510.71,-955 449.04,-973"/>
<text text-anchor="middle" x="449.04" y="-951.3" font-family="Arial" font-size="14.00" fill="#1a1919">1082 ==</text>
</g>
<!-- node925&#45;&gt;node1082 -->
<g id="edge9" class="edge">
<title>node925&#45;&gt;node1082</title>
<path fill="none" stroke="#3cb4a4" d="M313.72,-1197.79C317.84,-1162.54 330.99,-1080.7 368.04,-1024 381.55,-1003.32 403.24,-985.59 420.77,-973.43"/>
<polygon fill="#3cb4a4" stroke="#3cb4a4" points="423.13,-976.06 429.49,-967.59 419.24,-970.24 423.13,-976.06"/>
<text text-anchor="middle" x="344.54" y="-1081.8" font-family="arial" font-size="14.00" fill="#3cb4a4">x</text>
</g>
<!-- node991 -->
<g id="node6" class="node">
<title>node991</title>
<polygon fill="#e98693" stroke="black" points="274.54,-973 197.54,-973 197.54,-937 274.54,-937 274.54,-973"/>
<text text-anchor="middle" x="236.04" y="-951.3" font-family="Arial" font-size="14.00" fill="#1a1919">991 Begin</text>
</g>
<!-- node989&#45;&gt;node991 -->
<g id="edge3" class="edge">
<title>node989&#45;&gt;node991</title>
<path fill="none" stroke="#da2d4f" stroke-width="2" d="M267.94,-1023.8C262.36,-1011.93 254.83,-995.93 248.48,-982.45"/>
<polygon fill="#da2d4f" stroke="#da2d4f" stroke-width="2" points="251.55,-980.73 244.12,-973.18 245.21,-983.71 251.55,-980.73"/>
<text text-anchor="middle" x="263.54" y="-994.8" font-family="arial" font-size="14.00" fill="#da2d4f">T</text>
</g>
<!-- node992 -->
<g id="node7" class="node">
<title>node992</title>
<polygon fill="#e98693" stroke="black" points="369.54,-973 292.54,-973 292.54,-937 369.54,-937 369.54,-973"/>
<text text-anchor="middle" x="331.04" y="-951.3" font-family="Arial" font-size="14.00" fill="#1a1919">992 Begin</text>
</g>
<!-- node989&#45;&gt;node992 -->
<g id="edge4" class="edge">
<title>node989&#45;&gt;node992</title>
<path fill="none" stroke="#da2d4f" stroke-width="2" d="M287.17,-1023.8C295,-1011.7 305.61,-995.3 314.43,-981.67"/>
<polygon fill="#da2d4f" stroke="#da2d4f" stroke-width="2" points="317.43,-983.47 319.92,-973.18 311.55,-979.67 317.43,-983.47"/>
<text text-anchor="middle" x="310.54" y="-994.8" font-family="arial" font-size="14.00" fill="#da2d4f">F</text>
</g>
<!-- node990&#45;&gt;node989 -->
<g id="edge2" class="edge">
<title>node990&#45;&gt;node989</title>
<path fill="none" stroke="#3cb4a4" d="M211.07,-1114.72C222.38,-1102.23 239.6,-1083.23 253.46,-1067.92"/>
<polygon fill="#3cb4a4" stroke="#3cb4a4" points="256.24,-1070.06 260.36,-1060.3 251.06,-1065.36 256.24,-1070.06"/>
<text text-anchor="middle" x="247.04" y="-1081.8" font-family="arial" font-size="14.00" fill="#3cb4a4">?</text>
</g>
<!-- node1251 -->
<g id="node12" class="node">
<title>node1251</title>
<polygon fill="#e98693" stroke="black" points="388.04,-632 330.04,-632 330.04,-596 388.04,-596 388.04,-632"/>
<text text-anchor="middle" x="359.04" y="-610.3" font-family="Arial" font-size="14.00" fill="#1a1919">1251 If</text>
</g>
<!-- node990&#45;&gt;node1251 -->
<g id="edge14" class="edge">
<title>node990&#45;&gt;node1251</title>
<path fill="none" stroke="#3cb4a4" d="M190.52,-1113.5C181.65,-1097.01 169.04,-1068.98 169.04,-1043 169.04,-1043 169.04,-1043 169.04,-686 169.04,-654.09 264.25,-631.78 319.87,-621.47"/>
<polygon fill="#3cb4a4" stroke="#3cb4a4" points="320.55,-624.9 329.77,-619.68 319.3,-618.01 320.55,-624.9"/>
<text text-anchor="middle" x="173.04" y="-864.3" font-family="arial" font-size="14.00" fill="#3cb4a4">?</text>
</g>
<!-- node1139 -->
<g id="node10" class="node">
<title>node1139</title>
<polygon fill="#e98693" stroke="black" points="276.04,-832 202.04,-832 202.04,-796 276.04,-796 276.04,-832"/>
<text text-anchor="middle" x="239.04" y="-810.3" font-family="Arial" font-size="14.00" fill="#1a1919">1139 End</text>
</g>
<!-- node991&#45;&gt;node1139 -->
<g id="edge7" class="edge">
<title>node991&#45;&gt;node1139</title>
<path fill="none" stroke="#da2d4f" stroke-width="2" d="M230.78,-936.92C225.16,-916.2 217.83,-880.27 224.04,-850 224.59,-847.3 225.36,-844.55 226.27,-841.84"/>
<polygon fill="#da2d4f" stroke="#da2d4f" stroke-width="2" points="229.59,-842.94 229.96,-832.35 223.07,-840.4 229.59,-842.94"/>
</g>
<!-- node1416 -->
<g id="node21" class="node">
<title>node1416</title>
<polygon fill="#ffa500" stroke="black" points="484.54,-886 233.54,-886 233.54,-850 484.54,-850 484.54,-886"/>
<text text-anchor="middle" x="359.04" y="-864.3" font-family="Arial" font-size="14.00" fill="#1a1919">1416 Guard, else TransferToInterpreter</text>
</g>
<!-- node992&#45;&gt;node1416 -->
<g id="edge8" class="edge">
<title>node992&#45;&gt;node1416</title>
<path fill="none" stroke="#da2d4f" stroke-width="2" d="M336.7,-936.8C340.58,-925.05 345.78,-909.24 350.2,-895.84"/>
<polygon fill="#da2d4f" stroke="#da2d4f" stroke-width="2" points="353.58,-896.77 353.38,-886.18 346.93,-894.58 353.58,-896.77"/>
</g>
<!-- node1082&#45;&gt;node1416 -->
<g id="edge28" class="edge">
<title>node1082&#45;&gt;node1416</title>
<path fill="none" stroke="#3cb4a4" d="M434.98,-940.72C421.63,-928.12 401.26,-908.88 384.98,-893.5"/>
<polygon fill="#3cb4a4" stroke="#3cb4a4" points="387.03,-890.63 377.36,-886.3 382.23,-895.71 387.03,-890.63"/>
<text text-anchor="middle" x="413.04" y="-907.8" font-family="arial" font-size="14.00" fill="#3cb4a4">?</text>
</g>
<!-- node1419 -->
<g id="node22" class="node">
<title>node1419</title>
<polygon fill="#ffa500" stroke="black" points="638.54,-472 387.54,-472 387.54,-436 638.54,-436 638.54,-472"/>
<text text-anchor="middle" x="513.04" y="-450.3" font-family="Arial" font-size="14.00" fill="#1a1919">1419 Guard, else TransferToInterpreter</text>
</g>
<!-- node1082&#45;&gt;node1419 -->
<g id="edge30" class="edge">
<title>node1082&#45;&gt;node1419</title>
<path fill="none" stroke="#3cb4a4" d="M466.53,-941.77C485.48,-926.94 513.04,-900.03 513.04,-869 513.04,-869 513.04,-869 513.04,-526 513.04,-511.65 513.04,-495.67 513.04,-482.51"/>
<polygon fill="#3cb4a4" stroke="#3cb4a4" points="516.54,-482.22 513.04,-472.22 509.54,-482.22 516.54,-482.22"/>
<text text-anchor="middle" x="517.04" y="-683.3" font-family="arial" font-size="14.00" fill="#3cb4a4">?</text>
</g>
<!-- node1137 -->
<g id="node9" class="node">
<title>node1137</title>
<polygon fill="#e98693" stroke="black" points="403.54,-705 314.54,-705 314.54,-669 403.54,-669 403.54,-705"/>
<text text-anchor="middle" x="359.04" y="-683.3" font-family="Arial" font-size="14.00" fill="#1a1919">1137 Merge</text>
</g>
<!-- node1137&#45;&gt;node1251 -->
<g id="edge13" class="edge">
<title>node1137&#45;&gt;node1251</title>
<path fill="none" stroke="#da2d4f" stroke-width="2" d="M359.04,-668.81C359.04,-660.79 359.04,-651.05 359.04,-642.07"/>
<polygon fill="#da2d4f" stroke="#da2d4f" stroke-width="2" points="362.54,-642.03 359.04,-632.03 355.54,-642.03 362.54,-642.03"/>
</g>
<!-- node1139&#45;&gt;node1137 -->
<g id="edge11" class="edge">
<title>node1139&#45;&gt;node1137</title>
<path fill="none" stroke="#da2d4f" stroke-width="2" d="M255.47,-795.88C276.09,-774.4 311.61,-737.41 335.21,-712.82"/>
<polygon fill="#da2d4f" stroke="#da2d4f" stroke-width="2" points="338.02,-714.95 342.42,-705.31 332.97,-710.1 338.02,-714.95"/>
</g>
<!-- node1140 -->
<g id="node11" class="node">
<title>node1140</title>
<polygon fill="#e98693" stroke="black" points="396.04,-778 322.04,-778 322.04,-742 396.04,-742 396.04,-778"/>
<text text-anchor="middle" x="359.04" y="-756.3" font-family="Arial" font-size="14.00" fill="#1a1919">1140 End</text>
</g>
<!-- node1140&#45;&gt;node1137 -->
<g id="edge12" class="edge">
<title>node1140&#45;&gt;node1137</title>
<path fill="none" stroke="#da2d4f" stroke-width="2" d="M359.04,-741.81C359.04,-733.79 359.04,-724.05 359.04,-715.07"/>
<polygon fill="#da2d4f" stroke="#da2d4f" stroke-width="2" points="362.54,-715.03 359.04,-705.03 355.54,-715.03 362.54,-715.03"/>
</g>
<!-- node1253 -->
<g id="node13" class="node">
<title>node1253</title>
<polygon fill="#e98693" stroke="black" points="401.54,-545 316.54,-545 316.54,-509 401.54,-509 401.54,-545"/>
<text text-anchor="middle" x="359.04" y="-523.3" font-family="Arial" font-size="14.00" fill="#1a1919">1253 Begin</text>
</g>
<!-- node1251&#45;&gt;node1253 -->
<g id="edge15" class="edge">
<title>node1251&#45;&gt;node1253</title>
<path fill="none" stroke="#da2d4f" stroke-width="2" d="M359.04,-595.8C359.04,-584.16 359.04,-568.55 359.04,-555.24"/>
<polygon fill="#da2d4f" stroke="#da2d4f" stroke-width="2" points="362.54,-555.18 359.04,-545.18 355.54,-555.18 362.54,-555.18"/>
<text text-anchor="middle" x="363.54" y="-566.8" font-family="arial" font-size="14.00" fill="#da2d4f">T</text>
</g>
<!-- node1254 -->
<g id="node14" class="node">
<title>node1254</title>
<polygon fill="#e98693" stroke="black" points="626.54,-545 541.54,-545 541.54,-509 626.54,-509 626.54,-545"/>
<text text-anchor="middle" x="584.04" y="-523.3" font-family="Arial" font-size="14.00" fill="#1a1919">1254 Begin</text>
</g>
<!-- node1251&#45;&gt;node1254 -->
<g id="edge16" class="edge">
<title>node1251&#45;&gt;node1254</title>
<path fill="none" stroke="#da2d4f" stroke-width="2" d="M388.45,-601.89C424.74,-588.18 487.09,-564.62 531.64,-547.79"/>
<polygon fill="#da2d4f" stroke="#da2d4f" stroke-width="2" points="533.02,-551.01 541.14,-544.21 530.55,-544.47 533.02,-551.01"/>
<text text-anchor="middle" x="488.54" y="-566.8" font-family="arial" font-size="14.00" fill="#da2d4f">F</text>
</g>
<!-- node1378 -->
<g id="node16" class="node">
<title>node1378</title>
<polygon fill="#e98693" stroke="black" points="440.04,-418 366.04,-418 366.04,-382 440.04,-382 440.04,-418"/>
<text text-anchor="middle" x="403.04" y="-396.3" font-family="Arial" font-size="14.00" fill="#1a1919">1378 End</text>
</g>
<!-- node1253&#45;&gt;node1378 -->
<g id="edge17" class="edge">
<title>node1253&#45;&gt;node1378</title>
<path fill="none" stroke="#da2d4f" stroke-width="2" d="M360.88,-508.81C363.31,-490.24 368.58,-460.08 379.04,-436 380.43,-432.79 382.13,-429.58 383.98,-426.46"/>
<polygon fill="#da2d4f" stroke="#da2d4f" stroke-width="2" points="386.94,-428.33 389.43,-418.03 381.06,-424.52 386.94,-428.33"/>
</g>
<!-- node1254&#45;&gt;node1419 -->
<g id="edge18" class="edge">
<title>node1254&#45;&gt;node1419</title>
<path fill="none" stroke="#da2d4f" stroke-width="2" d="M566.85,-508.81C557.96,-499.92 546.95,-488.91 537.21,-479.17"/>
<polygon fill="#da2d4f" stroke="#da2d4f" stroke-width="2" points="539.61,-476.63 530.07,-472.03 534.66,-481.57 539.61,-476.63"/>
</g>
<!-- node1376 -->
<g id="node15" class="node">
<title>node1376</title>
<polygon fill="#e98693" stroke="black" points="481.54,-291 392.54,-291 392.54,-255 481.54,-255 481.54,-291"/>
<text text-anchor="middle" x="437.04" y="-269.3" font-family="Arial" font-size="14.00" fill="#1a1919">1376 Merge</text>
</g>
<!-- node1379 -->
<g id="node17" class="node">
<title>node1379</title>
<polygon fill="#f9f9f9" stroke="black" points="531.04,-210 473.04,-210 473.04,-174 531.04,-174 531.04,-210"/>
<text text-anchor="middle" x="502.04" y="-188.3" font-family="Arial" font-size="14.00" fill="#1a1919">1379 ϕ</text>
</g>
<!-- node1376&#45;&gt;node1379 -->
<g id="edge22" class="edge">
<title>node1376&#45;&gt;node1379</title>
<path fill="none" stroke="#343d46" stroke-dasharray="5,2" d="M457.65,-246.94C467.53,-234.94 479.11,-220.87 487.96,-210.11"/>
<polygon fill="#343d46" stroke="#343d46" points="454.79,-244.91 451.14,-254.86 460.2,-249.36 454.79,-244.91"/>
</g>
<!-- node1438 -->
<g id="node23" class="node">
<title>node1438</title>
<polygon fill="#f9f9f9" stroke="black" points="543.54,-123 378.54,-123 378.54,-87 543.54,-87 543.54,-123"/>
<text text-anchor="middle" x="461.04" y="-101.3" font-family="Arial" font-size="14.00" fill="#1a1919">1438 BoxNode$PureBox</text>
</g>
<!-- node1376&#45;&gt;node1438 -->
<g id="edge21" class="edge">
<title>node1376&#45;&gt;node1438</title>
<path fill="none" stroke="#da2d4f" stroke-width="2" d="M439.52,-254.86C443.67,-226.16 452.06,-168.13 457.05,-133.61"/>
<polygon fill="#da2d4f" stroke="#da2d4f" stroke-width="2" points="460.57,-133.69 458.54,-123.3 453.64,-132.69 460.57,-133.69"/>
</g>
<!-- node1378&#45;&gt;node1376 -->
<g id="edge19" class="edge">
<title>node1378&#45;&gt;node1376</title>
<path fill="none" stroke="#da2d4f" stroke-width="2" d="M407.69,-381.88C413.36,-361.05 422.99,-325.64 429.67,-301.09"/>
<polygon fill="#da2d4f" stroke="#da2d4f" stroke-width="2" points="433.08,-301.88 432.33,-291.31 426.33,-300.04 433.08,-301.88"/>
</g>
<!-- node1379&#45;&gt;node1438 -->
<g id="edge32" class="edge">
<title>node1379&#45;&gt;node1438</title>
<path fill="none" stroke="#3cb4a4" d="M493.74,-173.8C488.02,-161.93 480.3,-145.93 473.8,-132.45"/>
<polygon fill="#3cb4a4" stroke="#3cb4a4" points="476.82,-130.66 469.32,-123.18 470.51,-133.7 476.82,-130.66"/>
<text text-anchor="middle" x="518.54" y="-144.8" font-family="arial" font-size="14.00" fill="#3cb4a4">value [0 &#45; 1]</text>
</g>
<!-- node1380 -->
<g id="node18" class="node">
<title>node1380</title>
<polygon fill="#e98693" stroke="black" points="538.04,-364 464.04,-364 464.04,-328 538.04,-328 538.04,-364"/>
<text text-anchor="middle" x="501.04" y="-342.3" font-family="Arial" font-size="14.00" fill="#1a1919">1380 End</text>
</g>
<!-- node1380&#45;&gt;node1376 -->
<g id="edge20" class="edge">
<title>node1380&#45;&gt;node1376</title>
<path fill="none" stroke="#da2d4f" stroke-width="2" d="M485.55,-327.81C477.61,-319 467.8,-308.13 459.09,-298.46"/>
<polygon fill="#da2d4f" stroke="#da2d4f" stroke-width="2" points="461.68,-296.11 452.39,-291.03 456.48,-300.8 461.68,-296.11"/>
</g>
<!-- node1409 -->
<g id="node19" class="node">
<title>node1409</title>
<polygon fill="#e98693" stroke="black" points="506.54,-36 415.54,-36 415.54,0 506.54,0 506.54,-36"/>
<text text-anchor="middle" x="461.04" y="-14.3" font-family="Arial" font-size="14.00" fill="#1a1919">1409 Return</text>
</g>
<!-- node1414&#45;&gt;node925 -->
<g id="edge27" class="edge">
<title>node1414&#45;&gt;node925</title>
<path fill="none" stroke="#da2d4f" stroke-width="2" d="M218.08,-1278.86C235.53,-1267.37 258.7,-1252.11 277.67,-1239.63"/>
<polygon fill="#da2d4f" stroke="#da2d4f" stroke-width="2" points="279.62,-1242.53 286.05,-1234.11 275.77,-1236.68 279.62,-1242.53"/>
</g>
<!-- node1416&#45;&gt;node1140 -->
<g id="edge29" class="edge">
<title>node1416&#45;&gt;node1140</title>
<path fill="none" stroke="#da2d4f" stroke-width="2" d="M359.04,-849.97C359.04,-833.38 359.04,-807.88 359.04,-788.43"/>
<polygon fill="#da2d4f" stroke="#da2d4f" stroke-width="2" points="362.54,-788.34 359.04,-778.34 355.54,-788.34 362.54,-788.34"/>
</g>
<!-- node1419&#45;&gt;node1380 -->
<g id="edge31" class="edge">
<title>node1419&#45;&gt;node1380</title>
<path fill="none" stroke="#da2d4f" stroke-width="2" d="M511.11,-435.97C509.23,-419.38 506.35,-393.88 504.14,-374.43"/>
<polygon fill="#da2d4f" stroke="#da2d4f" stroke-width="2" points="507.6,-373.88 503,-364.34 500.65,-374.67 507.6,-373.88"/>
</g>
<!-- node1438&#45;&gt;node1409 -->
<g id="edge25" class="edge">
<title>node1438&#45;&gt;node1409</title>
<path fill="none" stroke="#3cb4a4" d="M446.93,-86.84C443.31,-81.46 439.91,-75.27 438.04,-69 435.62,-60.93 437.6,-52.49 441.23,-44.89"/>
<polygon fill="#3cb4a4" stroke="#3cb4a4" points="444.32,-46.53 446.29,-36.12 438.26,-43.03 444.32,-46.53"/>
<text text-anchor="middle" x="455.04" y="-57.8" font-family="arial" font-size="14.00" fill="#3cb4a4">result</text>
</g>
<!-- node1438&#45;&gt;node1409 -->
<g id="edge33" class="edge">
<title>node1438&#45;&gt;node1409</title>
<path fill="none" stroke="#da2d4f" stroke-width="2" d="M467.59,-86.8C469.41,-81.21 471.13,-74.92 472.04,-69 473.21,-61.39 472.32,-53.2 470.65,-45.71"/>
<polygon fill="#da2d4f" stroke="#da2d4f" stroke-width="2" points="474.01,-44.74 467.98,-36.02 467.26,-46.59 474.01,-44.74"/>
</g>
<!-- node1439&#45;&gt;node1414 -->
<g id="edge38" class="edge">
<title>node1439&#45;&gt;node1414</title>
<path fill="none" stroke="#da2d4f" stroke-width="2" d="M250.27,-1365.8C239.68,-1353.47 225.26,-1336.68 213.41,-1322.89"/>
<polygon fill="#da2d4f" stroke="#da2d4f" stroke-width="2" points="215.96,-1320.48 206.79,-1315.18 210.65,-1325.04 215.96,-1320.48"/>
</g>
<!-- inline706x990 -->
<g id="node25" class="node">
<title>inline706x990</title>
<ellipse fill="#d7ede7" stroke="black" cx="72.04" cy="-1216" rx="72.08" ry="18"/>
<text text-anchor="middle" x="72.04" y="-1214.1" font-family="Arial" font-size="8.00" fill="#1a1919">706 C(RubyClass@2a6534a5)</text>
</g>
<!-- inline706x990&#45;&gt;node990 -->
<g id="edge6" class="edge">
<title>inline706x990&#45;&gt;node990</title>
<path fill="none" stroke="#3cb4a4" d="M95.93,-1199.01C120.93,-1182.28 159.58,-1156.41 181.77,-1141.55"/>
<text text-anchor="middle" x="146.04" y="-1170.6" font-family="arial" font-size="8.00" fill="#3cb4a4">y</text>
</g>
<!-- inline807x1082 -->
<g id="node26" class="node">
<title>inline807x1082</title>
<ellipse fill="#d7ede7" stroke="black" cx="449.04" cy="-1042" rx="72.08" ry="18"/>
<text text-anchor="middle" x="449.04" y="-1040.1" font-family="Arial" font-size="8.00" fill="#1a1919">807 C(RubyClass@53131465)</text>
</g>
<!-- inline807x1082&#45;&gt;node1082 -->
<g id="edge10" class="edge">
<title>inline807x1082&#45;&gt;node1082</title>
<path fill="none" stroke="#3cb4a4" d="M449.04,-1023.8C449.04,-1009.05 449.04,-987.92 449.04,-973.18"/>
<text text-anchor="middle" x="451.04" y="-996.6" font-family="arial" font-size="8.00" fill="#3cb4a4">y</text>
</g>
<!-- inline5x1379 -->
<g id="node27" class="node">
<title>inline5x1379</title>
<ellipse fill="#d7ede7" stroke="black" cx="527.04" cy="-273" rx="27" ry="18"/>
<text text-anchor="middle" x="527.04" y="-271.1" font-family="Arial" font-size="8.00" fill="#1a1919">5 C(0)</text>
</g>
<!-- inline5x1379&#45;&gt;node1379 -->
<g id="edge23" class="edge">
<title>inline5x1379&#45;&gt;node1379</title>
<path fill="none" stroke="#3cb4a4" d="M521.74,-255.25C517.52,-241.93 511.65,-223.38 507.42,-210"/>
<text text-anchor="middle" x="533.54" y="-230.6" font-family="arial" font-size="8.00" fill="#3cb4a4">from 1378</text>
</g>
<!-- inline23x1379 -->
<g id="node28" class="node">
<title>inline23x1379</title>
<ellipse fill="#d7ede7" stroke="black" cx="599.04" cy="-273" rx="27" ry="18"/>
<text text-anchor="middle" x="599.04" y="-271.1" font-family="Arial" font-size="8.00" fill="#1a1919">23 C(1)</text>
</g>
<!-- inline23x1379&#45;&gt;node1379 -->
<g id="edge24" class="edge">
<title>inline23x1379&#45;&gt;node1379</title>
<path fill="none" stroke="#3cb4a4" d="M585.85,-256.91C577.7,-248 566.78,-236.8 556.04,-228 548.26,-221.63 539.27,-215.41 530.89,-210.03"/>
<text text-anchor="middle" x="584.54" y="-230.6" font-family="arial" font-size="8.00" fill="#3cb4a4">from 1380</text>
</g>
<!-- inline143x575 -->
<g id="node29" class="node">
<title>inline143x575</title>
<ellipse fill="#d7ede7" stroke="black" cx="120.04" cy="-1465" rx="27.46" ry="18"/>
<text text-anchor="middle" x="120.04" y="-1463.1" font-family="Arial" font-size="8.00" fill="#1a1919">143 T(6)</text>
</g>
<!-- inline143x575&#45;&gt;node575 -->
<g id="edge34" class="edge">
<title>inline143x575&#45;&gt;node575</title>
<path fill="none" stroke="#3cb4a4" d="M120.04,-1446.86C120.04,-1433.61 120.04,-1415.35 120.04,-1402.11"/>
<text text-anchor="middle" x="129.54" y="-1422.6" font-family="arial" font-size="8.00" fill="#3cb4a4">value</text>
</g>
<!-- inline158x925 -->
<g id="node30" class="node">
<title>inline158x925</title>
<ellipse fill="#d7ede7" stroke="black" cx="363.04" cy="-1297" rx="27.46" ry="18"/>
<text text-anchor="middle" x="363.04" y="-1295.1" font-family="Arial" font-size="8.00" fill="#1a1919">158 T(7)</text>
</g>
<!-- inline158x925&#45;&gt;node925 -->
<g id="edge35" class="edge">
<title>inline158x925&#45;&gt;node925</title>
<path fill="none" stroke="#3cb4a4" d="M352.72,-1280.01C344.1,-1266.67 331.85,-1247.69 323.05,-1234.06"/>
<text text-anchor="middle" x="350.04" y="-1254.6" font-family="arial" font-size="8.00" fill="#3cb4a4">object</text>
</g>
<!-- inline2x1439 -->
<g id="node31" class="node">
<title>inline2x1439</title>
<ellipse fill="#d7ede7" stroke="black" cx="302.04" cy="-1465" rx="27" ry="18"/>
<text text-anchor="middle" x="302.04" y="-1463.1" font-family="Arial" font-size="8.00" fill="#1a1919">2 P(1)</text>
</g>
<!-- inline2x1439&#45;&gt;node1439 -->
<g id="edge36" class="edge">
<title>inline2x1439&#45;&gt;node1439</title>
<path fill="none" stroke="#3cb4a4" d="M294.37,-1447.63C288.15,-1434.34 279.4,-1415.67 273.08,-1402.17"/>
<text text-anchor="middle" x="294.54" y="-1422.6" font-family="arial" font-size="8.00" fill="#3cb4a4">array</text>
</g>
</g>
</svg>
