<?xml version="1.0" encoding="UTF-8" standalone="no"?>
<!DOCTYPE svg PUBLIC "-//W3C//DTD SVG 1.1//EN"
 "http://www.w3.org/Graphics/SVG/1.1/DTD/svg11.dtd">
<!-- Generated by graphviz version 2.44.1 (20200629.0846)
 -->
<!-- Title: G Pages: 1 -->
<svg width="615pt" height="801pt"
 viewBox="0.00 0.00 615.36 801.00" xmlns="http://www.w3.org/2000/svg" xmlns:xlink="http://www.w3.org/1999/xlink">
<g id="graph0" class="graph" transform="scale(1 1) rotate(0) translate(4 797)">
<title>G</title>
<!-- node0 -->
<g id="node1" class="node">
<title>node0</title>
<polygon fill="#e98693" stroke="black" points="72.58,-793 16.58,-793 16.58,-757 72.58,-757 72.58,-793"/>
<text text-anchor="middle" x="44.58" y="-771.3" font-family="Arial" font-size="14.00" fill="#1a1919">0 Start</text>
</g>
<!-- node2717 -->
<g id="node16" class="node">
<title>node2717</title>
<polygon fill="#da2d4f" stroke="black" points="137.08,-712 24.08,-712 24.08,-676 137.08,-676 137.08,-712"/>
<text text-anchor="middle" x="80.58" y="-690.3" font-family="Arial" font-size="14.00" fill="#ffffff">2717 Load T(...)</text>
</g>
<!-- node0&#45;&gt;node2717 -->
<g id="edge26" class="edge">
<title>node0&#45;&gt;node2717</title>
<path fill="none" stroke="#da2d4f" stroke-width="2" d="M52.4,-756.86C57.11,-746.51 63.22,-733.1 68.55,-721.41"/>
<polygon fill="#da2d4f" stroke="#da2d4f" stroke-width="2" points="71.83,-722.66 72.79,-712.11 65.46,-719.76 71.83,-722.66"/>
</g>
<!-- node517 -->
<g id="node2" class="node">
<title>node517</title>
<polygon fill="#f9f9f9" stroke="black" points="190.58,-631 108.58,-631 108.58,-595 190.58,-595 190.58,-631"/>
<text text-anchor="middle" x="149.58" y="-609.3" font-family="Arial" font-size="14.00" fill="#1a1919">517 Unbox</text>
</g>
<!-- node676 -->
<g id="node3" class="node">
<title>node676</title>
<polygon fill="#f9f9f9" stroke="black" points="280.58,-544 198.58,-544 198.58,-508 280.58,-508 280.58,-544"/>
<text text-anchor="middle" x="239.58" y="-522.3" font-family="Arial" font-size="14.00" fill="#1a1919">676 Unbox</text>
</g>
<!-- node517&#45;&gt;node676 -->
<g id="edge1" class="edge">
<title>node517&#45;&gt;node676</title>
<path fill="none" stroke="#da2d4f" stroke-width="2" d="M167.8,-594.8C181.09,-582.24 199.3,-565.05 214.04,-551.12"/>
<polygon fill="#da2d4f" stroke="#da2d4f" stroke-width="2" points="216.53,-553.59 221.4,-544.18 211.72,-548.5 216.53,-553.59"/>
</g>
<!-- node1201 -->
<g id="node6" class="node">
<title>node1201</title>
<polygon fill="#3cb4a4" stroke="black" points="61.58,-544 -0.08,-526 61.58,-508 123.25,-526 61.58,-544"/>
<text text-anchor="middle" x="61.58" y="-522.3" font-family="Arial" font-size="14.00" fill="#1a1919">1201 ==</text>
</g>
<!-- node517&#45;&gt;node1201 -->
<g id="edge20" class="edge">
<title>node517&#45;&gt;node1201</title>
<path fill="none" stroke="#3cb4a4" d="M131.78,-594.8C117.58,-581.08 97.66,-561.84 82.66,-547.36"/>
<polygon fill="#3cb4a4" stroke="#3cb4a4" points="84.95,-544.71 75.33,-540.28 80.09,-549.74 84.95,-544.71"/>
<text text-anchor="middle" x="114.08" y="-565.8" font-family="arial" font-size="14.00" fill="#3cb4a4">x</text>
</g>
<!-- node2664 -->
<g id="node10" class="node">
<title>node2664</title>
<polygon fill="#ffa500" stroke="black" points="375.08,-457 124.08,-457 124.08,-421 375.08,-421 375.08,-457"/>
<text text-anchor="middle" x="249.58" y="-435.3" font-family="Arial" font-size="14.00" fill="#1a1919">2664 Guard, else TransferToInterpreter</text>
</g>
<!-- node676&#45;&gt;node2664 -->
<g id="edge2" class="edge">
<title>node676&#45;&gt;node2664</title>
<path fill="none" stroke="#da2d4f" stroke-width="2" d="M241.61,-507.8C242.98,-496.16 244.81,-480.55 246.38,-467.24"/>
<polygon fill="#da2d4f" stroke="#da2d4f" stroke-width="2" points="249.87,-467.52 247.56,-457.18 242.92,-466.7 249.87,-467.52"/>
</g>
<!-- node2710 -->
<g id="node14" class="node">
<title>node2710</title>
<polygon fill="#f9f9f9" stroke="black" points="203.08,-210 8.08,-210 8.08,-174 203.08,-174 203.08,-210"/>
<text text-anchor="middle" x="105.58" y="-188.3" font-family="Arial" font-size="14.00" fill="#1a1919">2710 BoxNode$AllocatingBox</text>
</g>
<!-- node676&#45;&gt;node2710 -->
<g id="edge16" class="edge">
<title>node676&#45;&gt;node2710</title>
<path fill="none" stroke="#3cb4a4" d="M198.32,-518.66C155.77,-509.49 95.58,-488.05 95.58,-440 95.58,-440 95.58,-440 95.58,-278 95.58,-258.62 98.18,-236.92 100.73,-220.3"/>
<polygon fill="#3cb4a4" stroke="#3cb4a4" points="104.22,-220.62 102.36,-210.19 97.31,-219.5 104.22,-220.62"/>
<text text-anchor="middle" x="112.08" y="-362.3" font-family="arial" font-size="14.00" fill="#3cb4a4">value</text>
</g>
<!-- node2716 -->
<g id="node15" class="node">
<title>node2716</title>
<polygon fill="#f9f9f9" stroke="black" points="556.08,-123 361.08,-123 361.08,-87 556.08,-87 556.08,-123"/>
<text text-anchor="middle" x="458.58" y="-101.3" font-family="Arial" font-size="14.00" fill="#1a1919">2716 BoxNode$AllocatingBox</text>
</g>
<!-- node676&#45;&gt;node2716 -->
<g id="edge18" class="edge">
<title>node676&#45;&gt;node2716</title>
<path fill="none" stroke="#3cb4a4" d="M280.83,-520.39C355.08,-510.92 503.58,-486.22 503.58,-440 503.58,-440 503.58,-440 503.58,-191 503.58,-169.16 491.84,-147.45 480.35,-131.44"/>
<polygon fill="#3cb4a4" stroke="#3cb4a4" points="482.9,-129.02 474.07,-123.17 477.33,-133.25 482.9,-129.02"/>
<text text-anchor="middle" x="520.08" y="-318.8" font-family="arial" font-size="14.00" fill="#3cb4a4">value</text>
</g>
<!-- node751 -->
<g id="node4" class="node">
<title>node751</title>
<polygon fill="#3cb4a4" stroke="black" points="536.58,-544 466.03,-526 536.58,-508 607.13,-526 536.58,-544"/>
<text text-anchor="middle" x="536.58" y="-522.3" font-family="Arial" font-size="14.00" fill="#1a1919">751 IsNull</text>
</g>
<!-- node751&#45;&gt;node2664 -->
<g id="edge10" class="edge">
<title>node751&#45;&gt;node2664</title>
<path fill="none" stroke="#3cb4a4" d="M505.6,-515.82C460.7,-502.53 376.42,-477.57 316.85,-459.92"/>
<polygon fill="#3cb4a4" stroke="#3cb4a4" points="317.72,-456.53 307.14,-457.05 315.73,-463.24 317.72,-456.53"/>
<text text-anchor="middle" x="413.58" y="-478.8" font-family="arial" font-size="14.00" fill="#3cb4a4">?</text>
</g>
<!-- node1200 -->
<g id="node5" class="node">
<title>node1200</title>
<polygon fill="#e98693" stroke="black" points="209.58,-384 151.58,-384 151.58,-348 209.58,-348 209.58,-384"/>
<text text-anchor="middle" x="180.58" y="-362.3" font-family="Arial" font-size="14.00" fill="#1a1919">1200 If</text>
</g>
<!-- node1202 -->
<g id="node7" class="node">
<title>node1202</title>
<polygon fill="#e98693" stroke="black" points="209.08,-297 124.08,-297 124.08,-261 209.08,-261 209.08,-297"/>
<text text-anchor="middle" x="166.58" y="-275.3" font-family="Arial" font-size="14.00" fill="#1a1919">1202 Begin</text>
</g>
<!-- node1200&#45;&gt;node1202 -->
<g id="edge4" class="edge">
<title>node1200&#45;&gt;node1202</title>
<path fill="none" stroke="#da2d4f" stroke-width="2" d="M177.75,-347.8C175.83,-336.16 173.26,-320.55 171.07,-307.24"/>
<polygon fill="#da2d4f" stroke="#da2d4f" stroke-width="2" points="174.49,-306.47 169.41,-297.18 167.58,-307.61 174.49,-306.47"/>
<text text-anchor="middle" x="178.08" y="-318.8" font-family="arial" font-size="14.00" fill="#da2d4f">T</text>
</g>
<!-- node1203 -->
<g id="node8" class="node">
<title>node1203</title>
<polygon fill="#e98693" stroke="black" points="312.08,-297 227.08,-297 227.08,-261 312.08,-261 312.08,-297"/>
<text text-anchor="middle" x="269.58" y="-275.3" font-family="Arial" font-size="14.00" fill="#1a1919">1203 Begin</text>
</g>
<!-- node1200&#45;&gt;node1203 -->
<g id="edge5" class="edge">
<title>node1200&#45;&gt;node1203</title>
<path fill="none" stroke="#da2d4f" stroke-width="2" d="M194.92,-347.68C203.45,-337.74 214.7,-325.24 225.58,-315 229.67,-311.15 234.14,-307.27 238.62,-303.56"/>
<polygon fill="#da2d4f" stroke="#da2d4f" stroke-width="2" points="241.02,-306.12 246.6,-297.11 236.62,-300.67 241.02,-306.12"/>
<text text-anchor="middle" x="230.08" y="-318.8" font-family="arial" font-size="14.00" fill="#da2d4f">F</text>
</g>
<!-- node1201&#45;&gt;node1200 -->
<g id="edge3" class="edge">
<title>node1201&#45;&gt;node1200</title>
<path fill="none" stroke="#3cb4a4" d="M65.66,-509.09C71.84,-487.33 85.3,-447.92 107.58,-421 117.46,-409.06 130.52,-398.33 142.86,-389.63"/>
<polygon fill="#3cb4a4" stroke="#3cb4a4" points="144.93,-392.46 151.24,-383.95 141,-386.67 144.93,-392.46"/>
<text text-anchor="middle" x="111.58" y="-435.3" font-family="arial" font-size="14.00" fill="#3cb4a4">?</text>
</g>
<!-- node1202&#45;&gt;node2710 -->
<g id="edge7" class="edge">
<title>node1202&#45;&gt;node2710</title>
<path fill="none" stroke="#da2d4f" stroke-width="2" d="M154.24,-260.8C145.56,-248.7 133.79,-232.3 124,-218.67"/>
<polygon fill="#da2d4f" stroke="#da2d4f" stroke-width="2" points="126.58,-216.26 117.91,-210.18 120.9,-220.34 126.58,-216.26"/>
</g>
<!-- node2668 -->
<g id="node11" class="node">
<title>node2668</title>
<polygon fill="#ffa500" stroke="black" points="475.08,-210 224.08,-210 224.08,-174 475.08,-174 475.08,-210"/>
<text text-anchor="middle" x="349.58" y="-188.3" font-family="Arial" font-size="14.00" fill="#1a1919">2668 Guard, else TransferToInterpreter</text>
</g>
<!-- node1203&#45;&gt;node2668 -->
<g id="edge8" class="edge">
<title>node1203&#45;&gt;node2668</title>
<path fill="none" stroke="#da2d4f" stroke-width="2" d="M285.77,-260.8C297.48,-248.36 313.48,-231.36 326.52,-217.5"/>
<polygon fill="#da2d4f" stroke="#da2d4f" stroke-width="2" points="329.11,-219.86 333.42,-210.18 324.02,-215.06 329.11,-219.86"/>
</g>
<!-- node1420 -->
<g id="node9" class="node">
<title>node1420</title>
<polygon fill="#3cb4a4" stroke="black" points="391.58,-297 329.92,-279 391.58,-261 453.25,-279 391.58,-297"/>
<text text-anchor="middle" x="391.58" y="-275.3" font-family="Arial" font-size="14.00" fill="#1a1919">1420 ==</text>
</g>
<!-- node1420&#45;&gt;node2668 -->
<g id="edge12" class="edge">
<title>node1420&#45;&gt;node2668</title>
<path fill="none" stroke="#3cb4a4" d="M384.07,-262.8C378.13,-250.78 369.69,-233.69 362.64,-219.43"/>
<polygon fill="#3cb4a4" stroke="#3cb4a4" points="365.61,-217.52 358.04,-210.11 359.33,-220.63 365.61,-217.52"/>
<text text-anchor="middle" x="376.58" y="-231.8" font-family="arial" font-size="14.00" fill="#3cb4a4">?</text>
</g>
<!-- node2664&#45;&gt;node1200 -->
<g id="edge11" class="edge">
<title>node2664&#45;&gt;node1200</title>
<path fill="none" stroke="#da2d4f" stroke-width="2" d="M232.88,-420.81C224.32,-412 213.75,-401.13 204.35,-391.46"/>
<polygon fill="#da2d4f" stroke="#da2d4f" stroke-width="2" points="206.61,-388.76 197.13,-384.03 201.59,-393.64 206.61,-388.76"/>
</g>
<!-- node2668&#45;&gt;node2716 -->
<g id="edge13" class="edge">
<title>node2668&#45;&gt;node2716</title>
<path fill="none" stroke="#da2d4f" stroke-width="2" d="M371.64,-173.8C388.04,-161.01 410.6,-143.42 428.63,-129.36"/>
<polygon fill="#da2d4f" stroke="#da2d4f" stroke-width="2" points="430.83,-132.08 436.56,-123.18 426.52,-126.56 430.83,-132.08"/>
</g>
<!-- node2692 -->
<g id="node12" class="node">
<title>node2692</title>
<polygon fill="#e98693" stroke="black" points="503.08,-36 412.08,-36 412.08,0 503.08,0 503.08,-36"/>
<text text-anchor="middle" x="457.58" y="-14.3" font-family="Arial" font-size="14.00" fill="#1a1919">2692 Return</text>
</g>
<!-- node2693 -->
<g id="node13" class="node">
<title>node2693</title>
<polygon fill="#e98693" stroke="black" points="152.08,-123 61.08,-123 61.08,-87 152.08,-87 152.08,-123"/>
<text text-anchor="middle" x="106.58" y="-101.3" font-family="Arial" font-size="14.00" fill="#1a1919">2693 Return</text>
</g>
<!-- node2710&#45;&gt;node2693 -->
<g id="edge15" class="edge">
<title>node2710&#45;&gt;node2693</title>
<path fill="none" stroke="#3cb4a4" d="M90.75,-173.86C84.36,-164.4 79.08,-152.32 82.58,-141 83.57,-137.83 84.94,-134.7 86.55,-131.68"/>
<polygon fill="#3cb4a4" stroke="#3cb4a4" points="89.59,-133.42 91.87,-123.07 83.64,-129.74 89.59,-133.42"/>
<text text-anchor="middle" x="99.58" y="-144.8" font-family="arial" font-size="14.00" fill="#3cb4a4">result</text>
</g>
<!-- node2710&#45;&gt;node2693 -->
<g id="edge17" class="edge">
<title>node2710&#45;&gt;node2693</title>
<path fill="none" stroke="#da2d4f" stroke-width="2" d="M112.13,-173.8C113.95,-168.21 115.68,-161.92 116.58,-156 117.73,-148.51 116.99,-140.43 115.5,-133"/>
<polygon fill="#da2d4f" stroke="#da2d4f" stroke-width="2" points="118.84,-131.91 113.01,-123.06 112.05,-133.61 118.84,-131.91"/>
</g>
<!-- node2716&#45;&gt;node2692 -->
<g id="edge14" class="edge">
<title>node2716&#45;&gt;node2692</title>
<path fill="none" stroke="#3cb4a4" d="M443.87,-86.93C440.1,-81.54 436.55,-75.33 434.58,-69 432.09,-60.95 434.04,-52.52 437.67,-44.92"/>
<polygon fill="#3cb4a4" stroke="#3cb4a4" points="440.77,-46.55 442.75,-36.14 434.71,-43.05 440.77,-46.55"/>
<text text-anchor="middle" x="451.58" y="-57.8" font-family="arial" font-size="14.00" fill="#3cb4a4">result</text>
</g>
<!-- node2716&#45;&gt;node2692 -->
<g id="edge19" class="edge">
<title>node2716&#45;&gt;node2692</title>
<path fill="none" stroke="#da2d4f" stroke-width="2" d="M465.01,-86.94C467.88,-77.31 470.28,-65.03 468.58,-54 468.17,-51.32 467.59,-48.56 466.91,-45.83"/>
<polygon fill="#da2d4f" stroke="#da2d4f" stroke-width="2" points="470.27,-44.83 464.13,-36.2 463.55,-46.78 470.27,-44.83"/>
</g>
<!-- node2717&#45;&gt;node517 -->
<g id="edge27" class="edge">
<title>node2717&#45;&gt;node517</title>
<path fill="none" stroke="#da2d4f" stroke-width="2" d="M95.56,-675.86C105.05,-664.99 117.49,-650.75 128.03,-638.67"/>
<polygon fill="#da2d4f" stroke="#da2d4f" stroke-width="2" points="130.7,-640.94 134.64,-631.11 125.43,-636.34 130.7,-640.94"/>
</g>
<!-- inline5x1201 -->
<g id="node17" class="node">
<title>inline5x1201</title>
<ellipse fill="#d7ede7" stroke="black" cx="61.58" cy="-613" rx="27" ry="18"/>
<text text-anchor="middle" x="61.58" y="-611.1" font-family="Arial" font-size="8.00" fill="#1a1919">5 C(0)</text>
</g>
<!-- inline5x1201&#45;&gt;node1201 -->
<g id="edge6" class="edge">
<title>inline5x1201&#45;&gt;node1201</title>
<path fill="none" stroke="#3cb4a4" d="M61.58,-594.8C61.58,-580.05 61.58,-558.92 61.58,-544.18"/>
<text text-anchor="middle" x="63.58" y="-567.6" font-family="arial" font-size="8.00" fill="#3cb4a4">y</text>
</g>
<!-- inline1418x1420 -->
<g id="node18" class="node">
<title>inline1418x1420</title>
<ellipse fill="#d7ede7" stroke="black" cx="388.58" cy="-366" rx="86.57" ry="18"/>
<text text-anchor="middle" x="388.58" y="-364.1" font-family="Arial" font-size="8.00" fill="#1a1919">1418 C(RubyBasicObject@414ae92d)</text>
</g>
<!-- inline1418x1420&#45;&gt;node1420 -->
<g id="edge9" class="edge">
<title>inline1418x1420&#45;&gt;node1420</title>
<path fill="none" stroke="#3cb4a4" d="M389.19,-347.8C389.71,-332.95 390.47,-311.64 390.99,-296.89"/>
<text text-anchor="middle" x="391.58" y="-320.6" font-family="arial" font-size="8.00" fill="#3cb4a4">y</text>
</g>
<!-- inline125x1420 -->
<g id="node19" class="node">
<title>inline125x1420</title>
<ellipse fill="#d7ede7" stroke="black" cx="256.58" cy="-366" rx="27.46" ry="18"/>
<text text-anchor="middle" x="256.58" y="-364.1" font-family="Arial" font-size="8.00" fill="#1a1919">125 T(5)</text>
</g>
<!-- inline125x1420&#45;&gt;node1420 -->
<g id="edge21" class="edge">
<title>inline125x1420&#45;&gt;node1420</title>
<path fill="none" stroke="#3cb4a4" d="M275.64,-353C301.51,-336.71 347.46,-307.78 373.06,-291.66"/>
<text text-anchor="middle" x="333.58" y="-320.6" font-family="arial" font-size="8.00" fill="#3cb4a4">x</text>
</g>
<!-- inline143x751 -->
<g id="node20" class="node">
<title>inline143x751</title>
<ellipse fill="#d7ede7" stroke="black" cx="536.58" cy="-613" rx="27.46" ry="18"/>
<text text-anchor="middle" x="536.58" y="-611.1" font-family="Arial" font-size="8.00" fill="#1a1919">143 T(6)</text>
</g>
<!-- inline143x751&#45;&gt;node751 -->
<g id="edge22" class="edge">
<title>inline143x751&#45;&gt;node751</title>
<path fill="none" stroke="#3cb4a4" d="M536.58,-594.8C536.58,-580.05 536.58,-558.92 536.58,-544.18"/>
<text text-anchor="middle" x="546.08" y="-567.6" font-family="arial" font-size="8.00" fill="#3cb4a4">value</text>
</g>
<!-- inline158x517 -->
<g id="node21" class="node">
<title>inline158x517</title>
<ellipse fill="#d7ede7" stroke="black" cx="182.58" cy="-694" rx="27.46" ry="18"/>
<text text-anchor="middle" x="182.58" y="-692.1" font-family="Arial" font-size="8.00" fill="#1a1919">158 T(7)</text>
</g>
<!-- inline158x517&#45;&gt;node517 -->
<g id="edge23" class="edge">
<title>inline158x517&#45;&gt;node517</title>
<path fill="none" stroke="#3cb4a4" d="M175.59,-676.25C170.02,-662.93 162.27,-644.38 156.69,-631"/>
<text text-anchor="middle" x="176.08" y="-651.6" font-family="arial" font-size="8.00" fill="#3cb4a4">value</text>
</g>
<!-- inline176x676 -->
<g id="node22" class="node">
<title>inline176x676</title>
<ellipse fill="#d7ede7" stroke="black" cx="239.58" cy="-613" rx="27.46" ry="18"/>
<text text-anchor="middle" x="239.58" y="-611.1" font-family="Arial" font-size="8.00" fill="#1a1919">176 T(8)</text>
</g>
<!-- inline176x676&#45;&gt;node676 -->
<g id="edge24" class="edge">
<title>inline176x676&#45;&gt;node676</title>
<path fill="none" stroke="#3cb4a4" d="M239.58,-594.8C239.58,-580.05 239.58,-558.92 239.58,-544.18"/>
<text text-anchor="middle" x="249.08" y="-567.6" font-family="arial" font-size="8.00" fill="#3cb4a4">value</text>
</g>
<!-- inline2x2717 -->
<g id="node23" class="node">
<title>inline2x2717</title>
<ellipse fill="#d7ede7" stroke="black" cx="117.58" cy="-775" rx="27" ry="18"/>
<text text-anchor="middle" x="117.58" y="-773.1" font-family="Arial" font-size="8.00" fill="#1a1919">2 P(1)</text>
</g>
<!-- inline2x2717&#45;&gt;node2717 -->
<g id="edge25" class="edge">
<title>inline2x2717&#45;&gt;node2717</title>
<path fill="none" stroke="#3cb4a4" d="M109.92,-757.63C103.69,-744.34 94.95,-725.67 88.62,-712.17"/>
<text text-anchor="middle" x="109.08" y="-732.6" font-family="arial" font-size="8.00" fill="#3cb4a4">array</text>
</g>
</g>
</svg>
