<?xml version="1.0" encoding="UTF-8" standalone="no"?>
<!DOCTYPE svg PUBLIC "-//W3C//DTD SVG 1.1//EN"
 "http://www.w3.org/Graphics/SVG/1.1/DTD/svg11.dtd">
<!-- Generated by graphviz version 2.44.0 (20200408.0750)
 -->
<!-- Title: G Pages: 1 -->
<svg width="362pt" height="358pt"
 viewBox="0.00 0.00 361.50 358.00" xmlns="http://www.w3.org/2000/svg" xmlns:xlink="http://www.w3.org/1999/xlink">
<g id="graph0" class="graph" transform="scale(1 1) rotate(0) translate(4 354)">
<title>G</title>
<!-- node0 -->
<g id="node1" class="node">
<title>node0</title>
<polygon fill="#e98693" stroke="black" points="156.5,-350 100.5,-350 100.5,-314 156.5,-314 156.5,-350"/>
<text text-anchor="middle" x="128.5" y="-328.3" font-family="Arial" font-size="14.00" fill="#1a1919">0 Start</text>
</g>
<!-- node2 -->
<g id="node2" class="node">
<title>node2</title>
<polygon fill="#da2d4f" stroke="black" points="252.5,-277 4.5,-277 4.5,-241 252.5,-241 252.5,-277"/>
<text text-anchor="middle" x="128.5" y="-255.3" font-family="Arial" font-size="14.00" fill="#ffffff">2 New JavaExamples$ExampleObject</text>
</g>
<!-- node0&#45;&gt;node2 -->
<g id="edge1" class="edge">
<title>node0&#45;&gt;node2</title>
<path fill="none" stroke="#da2d4f" stroke-width="2" d="M128.5,-313.81C128.5,-305.79 128.5,-296.05 128.5,-287.07"/>
<polygon fill="#da2d4f" stroke="#da2d4f" stroke-width="2" points="132,-287.03 128.5,-277.03 125,-287.03 132,-287.03"/>
</g>
<!-- node4 -->
<g id="node3" class="node">
<title>node4</title>
<polygon fill="#f9f9f9" stroke="black" points="290.5,-190 156.5,-190 156.5,-154 290.5,-154 290.5,-190"/>
<text text-anchor="middle" x="223.5" y="-168.3" font-family="Arial" font-size="14.00" fill="#1a1919">4 MethodCallTarget</text>
</g>
<!-- node2&#45;&gt;node4 -->
<g id="edge3" class="edge">
<title>node2&#45;&gt;node4</title>
<path fill="none" stroke="#3cb4a4" d="M147.72,-240.8C161.76,-228.24 180.97,-211.05 196.54,-197.12"/>
<polygon fill="#3cb4a4" stroke="#3cb4a4" points="199.19,-199.45 204.3,-190.18 194.52,-194.24 199.19,-199.45"/>
<text text-anchor="middle" x="200" y="-211.8" font-family="arial" font-size="14.00" fill="#3cb4a4">arg[0]</text>
</g>
<!-- node5 -->
<g id="node4" class="node">
<title>node5</title>
<polygon fill="#da2d4f" stroke="black" points="281,-117 0,-117 0,-81 281,-81 281,-117"/>
<text text-anchor="middle" x="140.5" y="-95.3" font-family="Arial" font-size="14.00" fill="#ffffff">5 Call JavaExamples$ExampleObject.&lt;init&gt;</text>
</g>
<!-- node2&#45;&gt;node5 -->
<g id="edge2" class="edge">
<title>node2&#45;&gt;node5</title>
<path fill="none" stroke="#da2d4f" stroke-width="2" d="M129.81,-240.79C131.88,-213.48 135.94,-159.99 138.42,-127.38"/>
<polygon fill="#da2d4f" stroke="#da2d4f" stroke-width="2" points="141.93,-127.42 139.19,-117.19 134.95,-126.89 141.93,-127.42"/>
</g>
<!-- node4&#45;&gt;node5 -->
<g id="edge5" class="edge">
<title>node4&#45;&gt;node5</title>
<path fill="none" stroke="#343d46" stroke-dasharray="5,2" d="M195.71,-147.23C184.14,-137.33 170.98,-126.07 160.41,-117.03"/>
<polygon fill="#343d46" stroke="#343d46" points="193.53,-149.97 203.41,-153.81 198.08,-144.65 193.53,-149.97"/>
</g>
<!-- node9 -->
<g id="node5" class="node">
<title>node9</title>
<polygon fill="#e98693" stroke="black" points="267.5,-36 199.5,-36 199.5,0 267.5,0 267.5,-36"/>
<text text-anchor="middle" x="233.5" y="-14.3" font-family="Arial" font-size="14.00" fill="#1a1919">9 Return</text>
</g>
<!-- node5&#45;&gt;node9 -->
<g id="edge6" class="edge">
<title>node5&#45;&gt;node9</title>
<path fill="none" stroke="#da2d4f" stroke-width="2" d="M160.68,-80.86C173.84,-69.68 191.2,-54.93 205.66,-42.64"/>
<polygon fill="#da2d4f" stroke="#da2d4f" stroke-width="2" points="208,-45.25 213.36,-36.11 203.47,-39.92 208,-45.25"/>
</g>
<!-- inline3x4 -->
<g id="node6" class="node">
<title>inline3x4</title>
<ellipse fill="#d7ede7" stroke="black" cx="297.5" cy="-259" rx="27" ry="18"/>
<text text-anchor="middle" x="297.5" y="-257.1" font-family="Arial" font-size="8.00" fill="#1a1919">3 C(1)</text>
</g>
<!-- inline3x4&#45;&gt;node4 -->
<g id="edge4" class="edge">
<title>inline3x4&#45;&gt;node4</title>
<path fill="none" stroke="#3cb4a4" d="M284.27,-242.8C271.38,-228 251.82,-205.53 238.4,-190.11"/>
<text text-anchor="middle" x="276.5" y="-213.6" font-family="arial" font-size="8.00" fill="#3cb4a4">arg[1]</text>
</g>
<!-- inline3x9 -->
<g id="node7" class="node">
<title>inline3x9</title>
<ellipse fill="#d7ede7" stroke="black" cx="326.5" cy="-99" rx="27" ry="18"/>
<text text-anchor="middle" x="326.5" y="-97.1" font-family="Arial" font-size="8.00" fill="#1a1919">3 C(1)</text>
</g>
<!-- inline3x9&#45;&gt;node9 -->
<g id="edge7" class="edge">
<title>inline3x9&#45;&gt;node9</title>
<path fill="none" stroke="#3cb4a4" d="M310.3,-84.24C294.58,-70.89 270.69,-50.59 253.73,-36.18"/>
<text text-anchor="middle" x="293.5" y="-56.6" font-family="arial" font-size="8.00" fill="#3cb4a4">result</text>
</g>
</g>
</svg>
