<?xml version="1.0" encoding="UTF-8" standalone="no"?>
<!DOCTYPE svg PUBLIC "-//W3C//DTD SVG 1.1//EN"
 "http://www.w3.org/Graphics/SVG/1.1/DTD/svg11.dtd">
<!-- Generated by graphviz version 2.44.1 (20200629.0846)
 -->
<!-- Title: G Pages: 1 -->
<svg width="646pt" height="540pt"
 viewBox="0.00 0.00 646.22 540.00" xmlns="http://www.w3.org/2000/svg" xmlns:xlink="http://www.w3.org/1999/xlink">
<g id="graph0" class="graph" transform="scale(1 1) rotate(0) translate(4 536)">
<title>G</title>
<!-- node0 -->
<g id="node1" class="node">
<title>node0</title>
<polygon fill="#e98693" stroke="black" points="56,-532 0,-532 0,-496 56,-496 56,-532"/>
<text text-anchor="middle" x="28" y="-510.3" font-family="Arial" font-size="14.00" fill="#1a1919">0 Start</text>
</g>
<!-- node2009 -->
<g id="node9" class="node">
<title>node2009</title>
<polygon fill="#da2d4f" stroke="black" points="120.5,-451 7.5,-451 7.5,-415 120.5,-415 120.5,-451"/>
<text text-anchor="middle" x="64" y="-429.3" font-family="Arial" font-size="14.00" fill="#ffffff">2009 Load T(...)</text>
</g>
<!-- node0&#45;&gt;node2009 -->
<g id="edge14" class="edge">
<title>node0&#45;&gt;node2009</title>
<path fill="none" stroke="#da2d4f" stroke-width="2" d="M35.81,-495.86C40.53,-485.51 46.64,-472.1 51.96,-460.41"/>
<polygon fill="#da2d4f" stroke="#da2d4f" stroke-width="2" points="55.24,-461.66 56.2,-451.11 48.87,-458.76 55.24,-461.66"/>
</g>
<!-- node528 -->
<g id="node2" class="node">
<title>node528</title>
<polygon fill="#f9f9f9" stroke="black" points="160,-370 78,-370 78,-334 160,-334 160,-370"/>
<text text-anchor="middle" x="119" y="-348.3" font-family="Arial" font-size="14.00" fill="#1a1919">528 Unbox</text>
</g>
<!-- node1970 -->
<g id="node6" class="node">
<title>node1970</title>
<polygon fill="#ffa500" stroke="black" points="386.5,-283 135.5,-283 135.5,-247 386.5,-247 386.5,-283"/>
<text text-anchor="middle" x="261" y="-261.3" font-family="Arial" font-size="14.00" fill="#1a1919">1970 Guard, else TransferToInterpreter</text>
</g>
<!-- node528&#45;&gt;node1970 -->
<g id="edge1" class="edge">
<title>node528&#45;&gt;node1970</title>
<path fill="none" stroke="#da2d4f" stroke-width="2" d="M147.74,-333.8C169.58,-320.72 199.82,-302.62 223.56,-288.41"/>
<polygon fill="#da2d4f" stroke="#da2d4f" stroke-width="2" points="225.52,-291.31 232.31,-283.18 221.93,-285.31 225.52,-291.31"/>
</g>
<!-- node2008 -->
<g id="node8" class="node">
<title>node2008</title>
<polygon fill="#f9f9f9" stroke="black" points="216.5,-123 21.5,-123 21.5,-87 216.5,-87 216.5,-123"/>
<text text-anchor="middle" x="119" y="-101.3" font-family="Arial" font-size="14.00" fill="#1a1919">2008 BoxNode$AllocatingBox</text>
</g>
<!-- node528&#45;&gt;node2008 -->
<g id="edge8" class="edge">
<title>node528&#45;&gt;node2008</title>
<path fill="none" stroke="#3cb4a4" d="M119,-333.77C119,-291.86 119,-184.31 119,-133.44"/>
<polygon fill="#3cb4a4" stroke="#3cb4a4" points="122.5,-133.21 119,-123.21 115.5,-133.21 122.5,-133.21"/>
<text text-anchor="middle" x="135.5" y="-217.8" font-family="arial" font-size="14.00" fill="#3cb4a4">value</text>
</g>
<!-- node603 -->
<g id="node3" class="node">
<title>node603</title>
<polygon fill="#3cb4a4" stroke="black" points="261,-370 190.45,-352 261,-334 331.55,-352 261,-370"/>
<text text-anchor="middle" x="261" y="-348.3" font-family="Arial" font-size="14.00" fill="#1a1919">603 IsNull</text>
</g>
<!-- node603&#45;&gt;node1970 -->
<g id="edge4" class="edge">
<title>node603&#45;&gt;node1970</title>
<path fill="none" stroke="#3cb4a4" d="M261,-333.8C261,-322.16 261,-306.55 261,-293.24"/>
<polygon fill="#3cb4a4" stroke="#3cb4a4" points="264.5,-293.18 261,-283.18 257.5,-293.18 264.5,-293.18"/>
<text text-anchor="middle" x="265" y="-304.8" font-family="arial" font-size="14.00" fill="#3cb4a4">?</text>
</g>
<!-- node1154 -->
<g id="node4" class="node">
<title>node1154</title>
<polygon fill="#3cb4a4" stroke="black" points="465,-283 404.17,-265 465,-247 525.83,-265 465,-283"/>
<text text-anchor="middle" x="465" y="-261.3" font-family="Arial" font-size="14.00" fill="#1a1919">1154 ==</text>
</g>
<!-- node1973 -->
<g id="node7" class="node">
<title>node1973</title>
<polygon fill="#ffa500" stroke="black" points="386.5,-196 135.5,-196 135.5,-160 386.5,-160 386.5,-196"/>
<text text-anchor="middle" x="261" y="-174.3" font-family="Arial" font-size="14.00" fill="#1a1919">1973 Guard, else TransferToInterpreter</text>
</g>
<!-- node1154&#45;&gt;node1973 -->
<g id="edge6" class="edge">
<title>node1154&#45;&gt;node1973</title>
<path fill="none" stroke="#3cb4a4" d="M440.8,-253.92C409.07,-240.7 352.63,-217.18 311.42,-200.01"/>
<polygon fill="#3cb4a4" stroke="#3cb4a4" points="312.67,-196.74 302.09,-196.12 309.98,-203.2 312.67,-196.74"/>
<text text-anchor="middle" x="379" y="-217.8" font-family="arial" font-size="14.00" fill="#3cb4a4">?</text>
</g>
<!-- node1883 -->
<g id="node5" class="node">
<title>node1883</title>
<polygon fill="#e98693" stroke="black" points="164.5,-36 73.5,-36 73.5,0 164.5,0 164.5,-36"/>
<text text-anchor="middle" x="119" y="-14.3" font-family="Arial" font-size="14.00" fill="#1a1919">1883 Return</text>
</g>
<!-- node1970&#45;&gt;node1973 -->
<g id="edge5" class="edge">
<title>node1970&#45;&gt;node1973</title>
<path fill="none" stroke="#da2d4f" stroke-width="2" d="M261,-246.8C261,-235.16 261,-219.55 261,-206.24"/>
<polygon fill="#da2d4f" stroke="#da2d4f" stroke-width="2" points="264.5,-206.18 261,-196.18 257.5,-206.18 264.5,-206.18"/>
</g>
<!-- node1973&#45;&gt;node2008 -->
<g id="edge7" class="edge">
<title>node1973&#45;&gt;node2008</title>
<path fill="none" stroke="#da2d4f" stroke-width="2" d="M226.99,-159.99C207.55,-150.27 182.97,-137.99 162.18,-127.59"/>
<polygon fill="#da2d4f" stroke="#da2d4f" stroke-width="2" points="163.74,-124.46 153.23,-123.11 160.61,-130.72 163.74,-124.46"/>
</g>
<!-- node2008&#45;&gt;node1883 -->
<g id="edge3" class="edge">
<title>node2008&#45;&gt;node1883</title>
<path fill="none" stroke="#3cb4a4" d="M104.9,-86.84C101.28,-81.46 97.88,-75.27 96,-69 93.59,-60.93 95.56,-52.49 99.19,-44.89"/>
<polygon fill="#3cb4a4" stroke="#3cb4a4" points="102.29,-46.53 104.25,-36.12 96.22,-43.03 102.29,-46.53"/>
<text text-anchor="middle" x="113" y="-57.8" font-family="arial" font-size="14.00" fill="#3cb4a4">result</text>
</g>
<!-- node2008&#45;&gt;node1883 -->
<g id="edge9" class="edge">
<title>node2008&#45;&gt;node1883</title>
<path fill="none" stroke="#da2d4f" stroke-width="2" d="M125.55,-86.8C127.37,-81.21 129.09,-74.92 130,-69 131.17,-61.39 130.29,-53.2 128.61,-45.71"/>
<polygon fill="#da2d4f" stroke="#da2d4f" stroke-width="2" points="131.97,-44.74 125.94,-36.02 125.22,-46.59 131.97,-44.74"/>
</g>
<!-- node2009&#45;&gt;node528 -->
<g id="edge15" class="edge">
<title>node2009&#45;&gt;node528</title>
<path fill="none" stroke="#da2d4f" stroke-width="2" d="M75.93,-414.86C83.36,-404.2 93.04,-390.29 101.34,-378.37"/>
<polygon fill="#da2d4f" stroke="#da2d4f" stroke-width="2" points="104.25,-380.32 107.09,-370.11 98.5,-376.32 104.25,-380.32"/>
</g>
<!-- inline1152x1154 -->
<g id="node10" class="node">
<title>inline1152x1154</title>
<ellipse fill="#d7ede7" stroke="black" cx="552" cy="-352" rx="86.44" ry="18"/>
<text text-anchor="middle" x="552" y="-350.1" font-family="Arial" font-size="8.00" fill="#1a1919">1152 C(RubyBasicObject@414ae92d)</text>
</g>
<!-- inline1152x1154&#45;&gt;node1154 -->
<g id="edge2" class="edge">
<title>inline1152x1154&#45;&gt;node1154</title>
<path fill="none" stroke="#3cb4a4" d="M534.81,-334.21C518.27,-318.05 493.6,-293.95 478.45,-279.14"/>
<text text-anchor="middle" x="515" y="-306.6" font-family="arial" font-size="8.00" fill="#3cb4a4">y</text>
</g>
<!-- inline125x1154 -->
<g id="node11" class="node">
<title>inline125x1154</title>
<ellipse fill="#d7ede7" stroke="black" cx="421" cy="-352" rx="27.46" ry="18"/>
<text text-anchor="middle" x="421" y="-350.1" font-family="Arial" font-size="8.00" fill="#1a1919">125 T(5)</text>
</g>
<!-- inline125x1154&#45;&gt;node1154 -->
<g id="edge10" class="edge">
<title>inline125x1154&#45;&gt;node1154</title>
<path fill="none" stroke="#3cb4a4" d="M429.48,-334.61C437.52,-319.08 449.5,-295.94 457.28,-280.92"/>
<text text-anchor="middle" x="447" y="-306.6" font-family="arial" font-size="8.00" fill="#3cb4a4">x</text>
</g>
<!-- inline143x603 -->
<g id="node12" class="node">
<title>inline143x603</title>
<ellipse fill="#d7ede7" stroke="black" cx="261" cy="-433" rx="27.46" ry="18"/>
<text text-anchor="middle" x="261" y="-431.1" font-family="Arial" font-size="8.00" fill="#1a1919">143 T(6)</text>
</g>
<!-- inline143x603&#45;&gt;node603 -->
<g id="edge11" class="edge">
<title>inline143x603&#45;&gt;node603</title>
<path fill="none" stroke="#3cb4a4" d="M261,-414.86C261,-401.61 261,-383.35 261,-370.11"/>
<text text-anchor="middle" x="270.5" y="-390.6" font-family="arial" font-size="8.00" fill="#3cb4a4">value</text>
</g>
<!-- inline158x528 -->
<g id="node13" class="node">
<title>inline158x528</title>
<ellipse fill="#d7ede7" stroke="black" cx="166" cy="-433" rx="27.46" ry="18"/>
<text text-anchor="middle" x="166" y="-431.1" font-family="Arial" font-size="8.00" fill="#1a1919">158 T(7)</text>
</g>
<!-- inline158x528&#45;&gt;node528 -->
<g id="edge12" class="edge">
<title>inline158x528&#45;&gt;node528</title>
<path fill="none" stroke="#3cb4a4" d="M156.49,-416.01C148.55,-402.67 137.26,-383.69 129.15,-370.06"/>
<text text-anchor="middle" x="152.5" y="-390.6" font-family="arial" font-size="8.00" fill="#3cb4a4">value</text>
</g>
<!-- inline2x2009 -->
<g id="node14" class="node">
<title>inline2x2009</title>
<ellipse fill="#d7ede7" stroke="black" cx="101" cy="-514" rx="27" ry="18"/>
<text text-anchor="middle" x="101" y="-512.1" font-family="Arial" font-size="8.00" fill="#1a1919">2 P(1)</text>
</g>
<!-- inline2x2009&#45;&gt;node2009 -->
<g id="edge13" class="edge">
<title>inline2x2009&#45;&gt;node2009</title>
<path fill="none" stroke="#3cb4a4" d="M93.33,-496.63C87.11,-483.34 78.36,-464.67 72.04,-451.17"/>
<text text-anchor="middle" x="92.5" y="-471.6" font-family="arial" font-size="8.00" fill="#3cb4a4">array</text>
</g>
</g>
</svg>
