<?xml version="1.0" encoding="UTF-8" standalone="no"?>
<!DOCTYPE svg PUBLIC "-//W3C//DTD SVG 1.1//EN"
 "http://www.w3.org/Graphics/SVG/1.1/DTD/svg11.dtd">
<!-- Generated by graphviz version 2.44.1 (20200629.0846)
 -->
<!-- Title: G Pages: 1 -->
<svg width="1296pt" height="2137pt"
 viewBox="0.00 0.00 1296.28 2137.00" xmlns="http://www.w3.org/2000/svg" xmlns:xlink="http://www.w3.org/1999/xlink">
<g id="graph0" class="graph" transform="scale(1 1) rotate(0) translate(4 2133)">
<title>G</title>
<!-- node0 -->
<g id="node1" class="node">
<title>node0</title>
<polygon fill="#e98693" stroke="black" points="612.51,-2129 556.51,-2129 556.51,-2093 612.51,-2093 612.51,-2129"/>
<text text-anchor="middle" x="584.51" y="-2107.3" font-family="Arial" font-size="14.00" fill="#1a1919">0 Start</text>
</g>
<!-- node2879 -->
<g id="node42" class="node">
<title>node2879</title>
<polygon fill="#da2d4f" stroke="black" points="678.01,-2048 565.01,-2048 565.01,-2012 678.01,-2012 678.01,-2048"/>
<text text-anchor="middle" x="621.51" y="-2026.3" font-family="Arial" font-size="14.00" fill="#ffffff">2879 Load T(...)</text>
</g>
<!-- node0&#45;&gt;node2879 -->
<g id="edge70" class="edge">
<title>node0&#45;&gt;node2879</title>
<path fill="none" stroke="#da2d4f" stroke-width="2" d="M592.54,-2092.86C597.39,-2082.51 603.66,-2069.1 609.14,-2057.41"/>
<polygon fill="#da2d4f" stroke="#da2d4f" stroke-width="2" points="612.42,-2058.65 613.5,-2048.11 606.08,-2055.68 612.42,-2058.65"/>
</g>
<!-- node545 -->
<g id="node2" class="node">
<title>node545</title>
<polygon fill="#f9f9f9" stroke="black" points="611.51,-1967 529.51,-1967 529.51,-1931 611.51,-1931 611.51,-1967"/>
<text text-anchor="middle" x="570.51" y="-1945.3" font-family="Arial" font-size="14.00" fill="#1a1919">545 Unbox</text>
</g>
<!-- node616 -->
<g id="node3" class="node">
<title>node616</title>
<polygon fill="#ffa500" stroke="black" points="995.51,-1880 757.51,-1880 757.51,-1844 995.51,-1844 995.51,-1880"/>
<text text-anchor="middle" x="876.51" y="-1858.3" font-family="Arial" font-size="14.00" fill="#1a1919">616 Guard, else ClassCastException</text>
</g>
<!-- node545&#45;&gt;node616 -->
<g id="edge1" class="edge">
<title>node545&#45;&gt;node616</title>
<path fill="none" stroke="#da2d4f" stroke-width="2" d="M611.78,-1936.54C661.3,-1922.78 745.18,-1899.48 805.25,-1882.79"/>
<polygon fill="#da2d4f" stroke="#da2d4f" stroke-width="2" points="806.35,-1886.12 815.05,-1880.07 804.48,-1879.38 806.35,-1886.12"/>
</g>
<!-- node2848 -->
<g id="node35" class="node">
<title>node2848</title>
<polygon fill="#f9f9f9" stroke="black" points="524.51,-878 466.51,-878 466.51,-842 524.51,-842 524.51,-878"/>
<text text-anchor="middle" x="495.51" y="-856.3" font-family="Arial" font-size="14.00" fill="#1a1919">2848 ϕ</text>
</g>
<!-- node545&#45;&gt;node2848 -->
<g id="edge50" class="edge">
<title>node545&#45;&gt;node2848</title>
<path fill="none" stroke="#3cb4a4" d="M529.51,-1943.01C484.19,-1934.95 417.51,-1914.35 417.51,-1863 417.51,-1863 417.51,-1863 417.51,-946 417.51,-919.6 438.19,-897.84 458.26,-882.96"/>
<polygon fill="#3cb4a4" stroke="#3cb4a4" points="460.29,-885.81 466.46,-877.2 456.27,-880.08 460.29,-885.81"/>
<text text-anchor="middle" x="445.01" y="-1407.8" font-family="arial" font-size="14.00" fill="#3cb4a4">from 830</text>
</g>
<!-- node2856 -->
<g id="node36" class="node">
<title>node2856</title>
<polygon fill="#f9f9f9" stroke="black" points="311.51,-123 253.51,-123 253.51,-87 311.51,-87 311.51,-123"/>
<text text-anchor="middle" x="282.51" y="-101.3" font-family="Arial" font-size="14.00" fill="#1a1919">2856 ϕ</text>
</g>
<!-- node545&#45;&gt;node2856 -->
<g id="edge53" class="edge">
<title>node545&#45;&gt;node2856</title>
<path fill="none" stroke="#3cb4a4" d="M529.47,-1945.51C407.98,-1937.58 58.51,-1910.64 58.51,-1863 58.51,-1863 58.51,-1863 58.51,-234.5 58.51,-192.37 179.24,-142.84 243.43,-119.48"/>
<polygon fill="#3cb4a4" stroke="#3cb4a4" points="245,-122.64 253.22,-115.96 242.63,-116.05 245,-122.64"/>
<text text-anchor="middle" x="89.01" y="-1030.3" font-family="arial" font-size="14.00" fill="#3cb4a4">from 1211</text>
</g>
<!-- node2878 -->
<g id="node41" class="node">
<title>node2878</title>
<polygon fill="#f9f9f9" stroke="black" points="1146.01,-1386 951.01,-1386 951.01,-1350 1146.01,-1350 1146.01,-1386"/>
<text text-anchor="middle" x="1048.51" y="-1364.3" font-family="Arial" font-size="14.00" fill="#1a1919">2878 BoxNode$AllocatingBox</text>
</g>
<!-- node545&#45;&gt;node2878 -->
<g id="edge62" class="edge">
<title>node545&#45;&gt;node2878</title>
<path fill="none" stroke="#3cb4a4" d="M611.76,-1945.02C727.95,-1936.06 1049.51,-1907.29 1049.51,-1863 1049.51,-1863 1049.51,-1863 1049.51,-1454 1049.51,-1434.75 1049.25,-1413.05 1048.99,-1396.4"/>
<polygon fill="#3cb4a4" stroke="#3cb4a4" points="1052.49,-1396.2 1048.83,-1386.26 1045.49,-1396.31 1052.49,-1396.2"/>
<text text-anchor="middle" x="1066.01" y="-1654.8" font-family="arial" font-size="14.00" fill="#3cb4a4">value</text>
</g>
<!-- node2826 -->
<g id="node33" class="node">
<title>node2826</title>
<polygon fill="#ffa500" stroke="black" points="1002.01,-1793 751.01,-1793 751.01,-1757 1002.01,-1757 1002.01,-1793"/>
<text text-anchor="middle" x="876.51" y="-1771.3" font-family="Arial" font-size="14.00" fill="#1a1919">2826 Guard, else TransferToInterpreter</text>
</g>
<!-- node616&#45;&gt;node2826 -->
<g id="edge3" class="edge">
<title>node616&#45;&gt;node2826</title>
<path fill="none" stroke="#da2d4f" stroke-width="2" d="M876.51,-1843.8C876.51,-1832.16 876.51,-1816.55 876.51,-1803.24"/>
<polygon fill="#da2d4f" stroke="#da2d4f" stroke-width="2" points="880.01,-1803.18 876.51,-1793.18 873.01,-1803.18 880.01,-1803.18"/>
</g>
<!-- node617 -->
<g id="node4" class="node">
<title>node617</title>
<polygon fill="#f9f9f9" stroke="black" points="1207.01,-1967 888.01,-1967 888.01,-1931 1207.01,-1931 1207.01,-1967"/>
<text text-anchor="middle" x="1047.51" y="-1945.3" font-family="Arial" font-size="14.00" fill="#1a1919">617 InstanceOf org/truffleruby/core/proc/RubyProc</text>
</g>
<!-- node617&#45;&gt;node616 -->
<g id="edge2" class="edge">
<title>node617&#45;&gt;node616</title>
<path fill="none" stroke="#3cb4a4" d="M1012.9,-1930.8C986.05,-1917.45 948.65,-1898.86 919.81,-1884.52"/>
<polygon fill="#3cb4a4" stroke="#3cb4a4" points="921.28,-1881.35 910.77,-1880.03 918.17,-1887.62 921.28,-1881.35"/>
<text text-anchor="middle" x="975.51" y="-1901.8" font-family="arial" font-size="14.00" fill="#3cb4a4">?</text>
</g>
<!-- node623 -->
<g id="node5" class="node">
<title>node623</title>
<polygon fill="#3cb4a4" stroke="black" points="1217.51,-1880 1146.96,-1862 1217.51,-1844 1288.06,-1862 1217.51,-1880"/>
<text text-anchor="middle" x="1217.51" y="-1858.3" font-family="Arial" font-size="14.00" fill="#1a1919">623 IsNull</text>
</g>
<!-- node623&#45;&gt;node2826 -->
<g id="edge45" class="edge">
<title>node623&#45;&gt;node2826</title>
<path fill="none" stroke="#3cb4a4" d="M1183.57,-1852.54C1130.63,-1839.34 1027.02,-1813.52 954.87,-1795.53"/>
<polygon fill="#3cb4a4" stroke="#3cb4a4" points="955.46,-1792.07 944.91,-1793.05 953.76,-1798.86 955.46,-1792.07"/>
<text text-anchor="middle" x="1070.51" y="-1814.8" font-family="arial" font-size="14.00" fill="#3cb4a4">?</text>
</g>
<!-- node830 -->
<g id="node6" class="node">
<title>node830</title>
<polygon fill="#e98693" stroke="black" points="899.01,-1720 832.01,-1720 832.01,-1684 899.01,-1684 899.01,-1720"/>
<text text-anchor="middle" x="865.51" y="-1698.3" font-family="Arial" font-size="14.00" fill="#1a1919">830 End</text>
</g>
<!-- node831 -->
<g id="node7" class="node">
<title>node831</title>
<polygon fill="#e98693" stroke="black" points="911.01,-1633 804.01,-1633 804.01,-1597 911.01,-1597 911.01,-1633"/>
<text text-anchor="middle" x="857.51" y="-1611.3" font-family="Arial" font-size="14.00" fill="#1a1919">831 LoopBegin</text>
</g>
<!-- node830&#45;&gt;node831 -->
<g id="edge4" class="edge">
<title>node830&#45;&gt;node831</title>
<path fill="none" stroke="#da2d4f" stroke-width="2" d="M863.89,-1683.8C862.79,-1672.16 861.32,-1656.55 860.07,-1643.24"/>
<polygon fill="#da2d4f" stroke="#da2d4f" stroke-width="2" points="863.55,-1642.8 859.12,-1633.18 856.58,-1643.46 863.55,-1642.8"/>
</g>
<!-- node1048 -->
<g id="node9" class="node">
<title>node1048</title>
<polygon fill="#e98693" stroke="black" points="886.51,-1560 828.51,-1560 828.51,-1524 886.51,-1524 886.51,-1560"/>
<text text-anchor="middle" x="857.51" y="-1538.3" font-family="Arial" font-size="14.00" fill="#1a1919">1048 If</text>
</g>
<!-- node831&#45;&gt;node1048 -->
<g id="edge5" class="edge">
<title>node831&#45;&gt;node1048</title>
<path fill="none" stroke="#da2d4f" stroke-width="2" d="M857.51,-1596.81C857.51,-1588.79 857.51,-1579.05 857.51,-1570.07"/>
<polygon fill="#da2d4f" stroke="#da2d4f" stroke-width="2" points="861.01,-1570.03 857.51,-1560.03 854.01,-1570.03 861.01,-1570.03"/>
</g>
<!-- node831&#45;&gt;node2848 -->
<g id="edge49" class="edge">
<title>node831&#45;&gt;node2848</title>
<path fill="none" stroke="#343d46" stroke-dasharray="5,2" d="M793.45,-1614.65C687.54,-1613.98 487.51,-1604.56 487.51,-1543 487.51,-1543 487.51,-1543 487.51,-1410.5 487.51,-1212.42 477.4,-1163.06 474.51,-965 474.27,-949 472.12,-944.82 474.51,-929 477.18,-911.28 483.56,-891.82 488.6,-878.27"/>
<polygon fill="#343d46" stroke="#343d46" points="793.69,-1618.15 803.71,-1614.69 793.72,-1611.15 793.69,-1618.15"/>
</g>
<!-- node1009 -->
<g id="node8" class="node">
<title>node1009</title>
<polygon fill="#3cb4a4" stroke="black" points="433.51,-791 379.05,-773 433.51,-755 487.97,-773 433.51,-791"/>
<text text-anchor="middle" x="433.51" y="-769.3" font-family="Arial" font-size="14.00" fill="#1a1919">1009 &lt;</text>
</g>
<!-- node1009&#45;&gt;node1048 -->
<g id="edge8" class="edge">
<title>node1009&#45;&gt;node1048</title>
<path fill="none" stroke="#3cb4a4" d="M459.37,-782.47C530.73,-806.35 727.79,-875.93 768.51,-929 797.06,-966.22 786.51,-986.09 786.51,-1033 786.51,-1456 786.51,-1456 786.51,-1456 786.51,-1480.84 804.6,-1502.26 822.51,-1517.39"/>
<polygon fill="#3cb4a4" stroke="#3cb4a4" points="820.66,-1520.39 830.67,-1523.88 825.02,-1514.91 820.66,-1520.39"/>
<text text-anchor="middle" x="790.51" y="-1160.8" font-family="arial" font-size="14.00" fill="#3cb4a4">?</text>
</g>
<!-- node1051 -->
<g id="node10" class="node">
<title>node1051</title>
<polygon fill="#e98693" stroke="black" points="900.01,-1473 815.01,-1473 815.01,-1437 900.01,-1437 900.01,-1473"/>
<text text-anchor="middle" x="857.51" y="-1451.3" font-family="Arial" font-size="14.00" fill="#1a1919">1051 Begin</text>
</g>
<!-- node1048&#45;&gt;node1051 -->
<g id="edge10" class="edge">
<title>node1048&#45;&gt;node1051</title>
<path fill="none" stroke="#da2d4f" stroke-width="2" d="M857.51,-1523.8C857.51,-1512.16 857.51,-1496.55 857.51,-1483.24"/>
<polygon fill="#da2d4f" stroke="#da2d4f" stroke-width="2" points="861.01,-1483.18 857.51,-1473.18 854.01,-1483.18 861.01,-1483.18"/>
<text text-anchor="middle" x="862.01" y="-1494.8" font-family="arial" font-size="14.00" fill="#da2d4f">F</text>
</g>
<!-- node2675 -->
<g id="node25" class="node">
<title>node2675</title>
<polygon fill="#e98693" stroke="black" points="1021.01,-1473 918.01,-1473 918.01,-1437 1021.01,-1437 1021.01,-1473"/>
<text text-anchor="middle" x="969.51" y="-1451.3" font-family="Arial" font-size="14.00" fill="#1a1919">2675 LoopExit</text>
</g>
<!-- node1048&#45;&gt;node2675 -->
<g id="edge9" class="edge">
<title>node1048&#45;&gt;node2675</title>
<path fill="none" stroke="#da2d4f" stroke-width="2" d="M880.17,-1523.8C897.02,-1511.01 920.21,-1493.42 938.73,-1479.36"/>
<polygon fill="#da2d4f" stroke="#da2d4f" stroke-width="2" points="941.03,-1482.01 946.88,-1473.18 936.8,-1476.43 941.03,-1482.01"/>
<text text-anchor="middle" x="924.01" y="-1494.8" font-family="arial" font-size="14.00" fill="#da2d4f">T</text>
</g>
<!-- node1211 -->
<g id="node11" class="node">
<title>node1211</title>
<polygon fill="#e98693" stroke="black" points="913.51,-1386 839.51,-1386 839.51,-1350 913.51,-1350 913.51,-1386"/>
<text text-anchor="middle" x="876.51" y="-1364.3" font-family="Arial" font-size="14.00" fill="#1a1919">1211 End</text>
</g>
<!-- node1051&#45;&gt;node1211 -->
<g id="edge11" class="edge">
<title>node1051&#45;&gt;node1211</title>
<path fill="none" stroke="#da2d4f" stroke-width="2" d="M861.35,-1436.8C863.95,-1425.16 867.44,-1409.55 870.42,-1396.24"/>
<polygon fill="#da2d4f" stroke="#da2d4f" stroke-width="2" points="873.9,-1396.7 872.67,-1386.18 867.07,-1395.17 873.9,-1396.7"/>
</g>
<!-- node1212 -->
<g id="node12" class="node">
<title>node1212</title>
<polygon fill="#e98693" stroke="black" points="1027.01,-1299 912.01,-1299 912.01,-1263 1027.01,-1263 1027.01,-1299"/>
<text text-anchor="middle" x="969.51" y="-1277.3" font-family="Arial" font-size="14.00" fill="#1a1919">1212 LoopBegin</text>
</g>
<!-- node1211&#45;&gt;node1212 -->
<g id="edge12" class="edge">
<title>node1211&#45;&gt;node1212</title>
<path fill="none" stroke="#da2d4f" stroke-width="2" d="M895.33,-1349.8C909.07,-1337.24 927.88,-1320.05 943.12,-1306.12"/>
<polygon fill="#da2d4f" stroke="#da2d4f" stroke-width="2" points="945.7,-1308.51 950.72,-1299.18 940.97,-1303.34 945.7,-1308.51"/>
</g>
<!-- node1422 -->
<g id="node14" class="node">
<title>node1422</title>
<polygon fill="#e98693" stroke="black" points="998.51,-1226 940.51,-1226 940.51,-1190 998.51,-1190 998.51,-1226"/>
<text text-anchor="middle" x="969.51" y="-1204.3" font-family="Arial" font-size="14.00" fill="#1a1919">1422 If</text>
</g>
<!-- node1212&#45;&gt;node1422 -->
<g id="edge13" class="edge">
<title>node1212&#45;&gt;node1422</title>
<path fill="none" stroke="#da2d4f" stroke-width="2" d="M969.51,-1262.81C969.51,-1254.79 969.51,-1245.05 969.51,-1236.07"/>
<polygon fill="#da2d4f" stroke="#da2d4f" stroke-width="2" points="973.01,-1236.03 969.51,-1226.03 966.01,-1236.03 973.01,-1236.03"/>
</g>
<!-- node1212&#45;&gt;node2856 -->
<g id="edge52" class="edge">
<title>node1212&#45;&gt;node2856</title>
<path fill="none" stroke="#343d46" stroke-dasharray="5,2" d="M1037.24,-1263.77C1038.34,-1263.51 1039.43,-1263.25 1040.51,-1263 1092.67,-1250.76 1275.51,-1262.58 1275.51,-1209 1275.51,-1209 1275.51,-1209 1275.51,-234.5 1275.51,-134.65 475.71,-110.53 311.69,-106.63"/>
<polygon fill="#343d46" stroke="#343d46" points="1036.16,-1260.43 1027.23,-1266.13 1037.77,-1267.24 1036.16,-1260.43"/>
</g>
<!-- node1384 -->
<g id="node13" class="node">
<title>node1384</title>
<polygon fill="#3cb4a4" stroke="black" points="807.51,-36 753.05,-18 807.51,0 861.97,-18 807.51,-36"/>
<text text-anchor="middle" x="807.51" y="-14.3" font-family="Arial" font-size="14.00" fill="#1a1919">1384 &lt;</text>
</g>
<!-- node1384&#45;&gt;node1422 -->
<g id="edge16" class="edge">
<title>node1384&#45;&gt;node1422</title>
<path fill="none" stroke="#3cb4a4" d="M860.67,-18.5C975.71,-18.85 1237.51,-28 1237.51,-104 1237.51,-1122 1237.51,-1122 1237.51,-1122 1237.51,-1169.44 1083.03,-1193.84 1008.64,-1202.84"/>
<polygon fill="#3cb4a4" stroke="#3cb4a4" points="1008.22,-1199.36 998.7,-1204.01 1009.04,-1206.32 1008.22,-1199.36"/>
<text text-anchor="middle" x="1241.51" y="-595.3" font-family="arial" font-size="14.00" fill="#3cb4a4">?</text>
</g>
<!-- node1425 -->
<g id="node15" class="node">
<title>node1425</title>
<polygon fill="#e98693" stroke="black" points="900.01,-1139 815.01,-1139 815.01,-1103 900.01,-1103 900.01,-1139"/>
<text text-anchor="middle" x="857.51" y="-1117.3" font-family="Arial" font-size="14.00" fill="#1a1919">1425 Begin</text>
</g>
<!-- node1422&#45;&gt;node1425 -->
<g id="edge18" class="edge">
<title>node1422&#45;&gt;node1425</title>
<path fill="none" stroke="#da2d4f" stroke-width="2" d="M946.84,-1189.8C929.99,-1177.01 906.81,-1159.42 888.28,-1145.36"/>
<polygon fill="#da2d4f" stroke="#da2d4f" stroke-width="2" points="890.22,-1142.43 880.14,-1139.18 885.99,-1148.01 890.22,-1142.43"/>
<text text-anchor="middle" x="924.01" y="-1160.8" font-family="arial" font-size="14.00" fill="#da2d4f">F</text>
</g>
<!-- node2317 -->
<g id="node20" class="node">
<title>node2317</title>
<polygon fill="#e98693" stroke="black" points="1021.01,-1139 918.01,-1139 918.01,-1103 1021.01,-1103 1021.01,-1139"/>
<text text-anchor="middle" x="969.51" y="-1117.3" font-family="Arial" font-size="14.00" fill="#1a1919">2317 LoopExit</text>
</g>
<!-- node1422&#45;&gt;node2317 -->
<g id="edge17" class="edge">
<title>node1422&#45;&gt;node2317</title>
<path fill="none" stroke="#da2d4f" stroke-width="2" d="M969.51,-1189.8C969.51,-1178.16 969.51,-1162.55 969.51,-1149.24"/>
<polygon fill="#da2d4f" stroke="#da2d4f" stroke-width="2" points="973.01,-1149.18 969.51,-1139.18 966.01,-1149.18 973.01,-1149.18"/>
<text text-anchor="middle" x="974.01" y="-1160.8" font-family="arial" font-size="14.00" fill="#da2d4f">T</text>
</g>
<!-- node2833 -->
<g id="node34" class="node">
<title>node2833</title>
<polygon fill="#ffa500" stroke="black" points="389.01,-1052 138.01,-1052 138.01,-1016 389.01,-1016 389.01,-1052"/>
<text text-anchor="middle" x="263.51" y="-1030.3" font-family="Arial" font-size="14.00" fill="#1a1919">2833 Guard, else TransferToInterpreter</text>
</g>
<!-- node1425&#45;&gt;node2833 -->
<g id="edge19" class="edge">
<title>node1425&#45;&gt;node2833</title>
<path fill="none" stroke="#da2d4f" stroke-width="2" d="M814.79,-1113.89C727.59,-1101.41 526.08,-1072.57 392.37,-1053.44"/>
<polygon fill="#da2d4f" stroke="#da2d4f" stroke-width="2" points="392.86,-1049.97 382.46,-1052.02 391.87,-1056.9 392.86,-1049.97"/>
</g>
<!-- node1653 -->
<g id="node16" class="node">
<title>node1653</title>
<polygon fill="#3cb4a4" stroke="black" points="263.51,-1139 201.84,-1121 263.51,-1103 325.18,-1121 263.51,-1139"/>
<text text-anchor="middle" x="263.51" y="-1117.3" font-family="Arial" font-size="14.00" fill="#1a1919">1653 ==</text>
</g>
<!-- node1653&#45;&gt;node2833 -->
<g id="edge47" class="edge">
<title>node1653&#45;&gt;node2833</title>
<path fill="none" stroke="#3cb4a4" d="M263.51,-1102.8C263.51,-1091.16 263.51,-1075.55 263.51,-1062.24"/>
<polygon fill="#3cb4a4" stroke="#3cb4a4" points="267.01,-1062.18 263.51,-1052.18 260.01,-1062.18 267.01,-1062.18"/>
<text text-anchor="middle" x="267.51" y="-1073.8" font-family="arial" font-size="14.00" fill="#3cb4a4">?</text>
</g>
<!-- node2217 -->
<g id="node17" class="node">
<title>node2217</title>
<polygon fill="#ffa500" stroke="black" points="608.51,-297 342.51,-297 342.51,-261 608.51,-261 608.51,-297"/>
<text text-anchor="middle" x="475.51" y="-275.3" font-family="Arial" font-size="14.00" fill="#1a1919">2217 Guard not, else ArithmeticException</text>
</g>
<!-- node2220 -->
<g id="node19" class="node">
<title>node2220</title>
<polygon fill="#3cb4a4" stroke="black" points="282.51,-210 144.76,-192 282.51,-174 420.26,-192 282.51,-210"/>
<text text-anchor="middle" x="282.51" y="-188.3" font-family="Arial" font-size="14.00" fill="#1a1919">2220 IntegerSubExact</text>
</g>
<!-- node2217&#45;&gt;node2220 -->
<g id="edge27" class="edge">
<title>node2217&#45;&gt;node2220</title>
<path fill="none" stroke="#3cb4a4" d="M436.45,-260.8C403.07,-246.1 355.26,-225.04 321.81,-210.31"/>
<polygon fill="#3cb4a4" stroke="#3cb4a4" points="322.91,-206.97 312.35,-206.14 320.09,-213.38 322.91,-206.97"/>
<text text-anchor="middle" x="409.01" y="-231.8" font-family="arial" font-size="14.00" fill="#3cb4a4">guard</text>
</g>
<!-- node2322 -->
<g id="node21" class="node">
<title>node2322</title>
<polygon fill="#e98693" stroke="black" points="542.51,-210 438.51,-210 438.51,-174 542.51,-174 542.51,-210"/>
<text text-anchor="middle" x="490.51" y="-188.3" font-family="Arial" font-size="14.00" fill="#1a1919">2322 LoopEnd</text>
</g>
<!-- node2217&#45;&gt;node2322 -->
<g id="edge22" class="edge">
<title>node2217&#45;&gt;node2322</title>
<path fill="none" stroke="#da2d4f" stroke-width="2" d="M478.54,-260.8C480.6,-249.16 483.35,-233.55 485.7,-220.24"/>
<polygon fill="#da2d4f" stroke="#da2d4f" stroke-width="2" points="489.19,-220.63 487.48,-210.18 482.29,-219.41 489.19,-220.63"/>
</g>
<!-- node2218 -->
<g id="node18" class="node">
<title>node2218</title>
<polygon fill="#3cb4a4" stroke="black" points="187.51,-36 -0.01,-18 187.51,0 375.02,-18 187.51,-36"/>
<text text-anchor="middle" x="187.51" y="-14.3" font-family="Arial" font-size="14.00" fill="#1a1919">2218 IntegerSubExactOverflow</text>
</g>
<!-- node2218&#45;&gt;node2217 -->
<g id="edge21" class="edge">
<title>node2218&#45;&gt;node2217</title>
<path fill="none" stroke="#3cb4a4" d="M174.79,-34.96C148.25,-70.32 92.83,-156.35 135.51,-210 148.78,-226.69 251.52,-245.73 340.61,-259.41"/>
<polygon fill="#3cb4a4" stroke="#3cb4a4" points="340.16,-262.89 350.57,-260.93 341.21,-255.97 340.16,-262.89"/>
<text text-anchor="middle" x="126.51" y="-144.8" font-family="arial" font-size="14.00" fill="#3cb4a4">?</text>
</g>
<!-- node2220&#45;&gt;node2856 -->
<g id="edge54" class="edge">
<title>node2220&#45;&gt;node2856</title>
<path fill="none" stroke="#3cb4a4" d="M282.51,-173.8C282.51,-162.16 282.51,-146.55 282.51,-133.24"/>
<polygon fill="#3cb4a4" stroke="#3cb4a4" points="286.01,-133.18 282.51,-123.18 279.01,-133.18 286.01,-133.18"/>
<text text-anchor="middle" x="313.51" y="-144.8" font-family="arial" font-size="14.00" fill="#3cb4a4">from 2322</text>
</g>
<!-- node2577 -->
<g id="node22" class="node">
<title>node2577</title>
<polygon fill="#ffa500" stroke="black" points="1080.51,-1052 814.51,-1052 814.51,-1016 1080.51,-1016 1080.51,-1052"/>
<text text-anchor="middle" x="947.51" y="-1030.3" font-family="Arial" font-size="14.00" fill="#1a1919">2577 Guard not, else ArithmeticException</text>
</g>
<!-- node2317&#45;&gt;node2577 -->
<g id="edge28" class="edge">
<title>node2317&#45;&gt;node2577</title>
<path fill="none" stroke="#da2d4f" stroke-width="2" d="M965.06,-1102.8C962.04,-1091.16 958,-1075.55 954.56,-1062.24"/>
<polygon fill="#da2d4f" stroke="#da2d4f" stroke-width="2" points="957.85,-1060.98 951.95,-1052.18 951.07,-1062.73 957.85,-1060.98"/>
</g>
<!-- node2580 -->
<g id="node24" class="node">
<title>node2580</title>
<polygon fill="#3cb4a4" stroke="black" points="621.51,-965 483.76,-947 621.51,-929 759.26,-947 621.51,-965"/>
<text text-anchor="middle" x="621.51" y="-943.3" font-family="Arial" font-size="14.00" fill="#1a1919">2580 IntegerSubExact</text>
</g>
<!-- node2577&#45;&gt;node2580 -->
<g id="edge35" class="edge">
<title>node2577&#45;&gt;node2580</title>
<path fill="none" stroke="#3cb4a4" d="M881.93,-1015.9C821.07,-1000.03 731.58,-976.7 674.94,-961.93"/>
<polygon fill="#3cb4a4" stroke="#3cb4a4" points="675.67,-958.51 665.11,-959.37 673.91,-965.28 675.67,-958.51"/>
<text text-anchor="middle" x="821.01" y="-986.8" font-family="arial" font-size="14.00" fill="#3cb4a4">guard</text>
</g>
<!-- node2680 -->
<g id="node26" class="node">
<title>node2680</title>
<polygon fill="#e98693" stroke="black" points="919.51,-965 815.51,-965 815.51,-929 919.51,-929 919.51,-965"/>
<text text-anchor="middle" x="867.51" y="-943.3" font-family="Arial" font-size="14.00" fill="#1a1919">2680 LoopEnd</text>
</g>
<!-- node2577&#45;&gt;node2680 -->
<g id="edge30" class="edge">
<title>node2577&#45;&gt;node2680</title>
<path fill="none" stroke="#da2d4f" stroke-width="2" d="M931.32,-1015.8C919.61,-1003.36 903.62,-986.36 890.57,-972.5"/>
<polygon fill="#da2d4f" stroke="#da2d4f" stroke-width="2" points="893.08,-970.06 883.67,-965.18 887.98,-974.86 893.08,-970.06"/>
</g>
<!-- node2578 -->
<g id="node23" class="node">
<title>node2578</title>
<polygon fill="#3cb4a4" stroke="black" points="693.51,-791 505.99,-773 693.51,-755 881.02,-773 693.51,-791"/>
<text text-anchor="middle" x="693.51" y="-769.3" font-family="Arial" font-size="14.00" fill="#1a1919">2578 IntegerSubExactOverflow</text>
</g>
<!-- node2578&#45;&gt;node2577 -->
<g id="edge29" class="edge">
<title>node2578&#45;&gt;node2577</title>
<path fill="none" stroke="#3cb4a4" d="M731.03,-787.6C784.22,-808.95 880.4,-855.64 928.51,-929 943.47,-951.82 947.46,-983.21 948.18,-1005.52"/>
<polygon fill="#3cb4a4" stroke="#3cb4a4" points="944.68,-1005.71 948.3,-1015.67 951.68,-1005.62 944.68,-1005.71"/>
<text text-anchor="middle" x="918.51" y="-899.8" font-family="arial" font-size="14.00" fill="#3cb4a4">?</text>
</g>
<!-- node2580&#45;&gt;node2848 -->
<g id="edge51" class="edge">
<title>node2580&#45;&gt;node2848</title>
<path fill="none" stroke="#3cb4a4" d="M604.44,-931.19C592.08,-920.8 574.76,-906.86 558.51,-896 550.64,-890.74 541.92,-885.54 533.54,-880.81"/>
<polygon fill="#3cb4a4" stroke="#3cb4a4" points="535.08,-877.66 524.64,-875.89 531.7,-883.79 535.08,-877.66"/>
<text text-anchor="middle" x="609.51" y="-899.8" font-family="arial" font-size="14.00" fill="#3cb4a4">from 2680</text>
</g>
<!-- node2675&#45;&gt;node2878 -->
<g id="edge36" class="edge">
<title>node2675&#45;&gt;node2878</title>
<path fill="none" stroke="#da2d4f" stroke-width="2" d="M985.49,-1436.8C997.06,-1424.36 1012.85,-1407.36 1025.73,-1393.5"/>
<polygon fill="#da2d4f" stroke="#da2d4f" stroke-width="2" points="1028.3,-1395.88 1032.55,-1386.18 1023.17,-1391.12 1028.3,-1395.88"/>
</g>
<!-- node2776 -->
<g id="node27" class="node">
<title>node2776</title>
<polygon fill="#e98693" stroke="black" points="1140.01,-1299 1049.01,-1299 1049.01,-1263 1140.01,-1263 1140.01,-1299"/>
<text text-anchor="middle" x="1094.51" y="-1277.3" font-family="Arial" font-size="14.00" fill="#1a1919">2776 Return</text>
</g>
<!-- node2809 -->
<g id="node28" class="node">
<title>node2809</title>
<polygon fill="#da2d4f" stroke="black" points="898.51,-457 608.51,-457 608.51,-421 898.51,-421 898.51,-457"/>
<text text-anchor="middle" x="753.51" y="-435.3" font-family="Arial" font-size="14.00" fill="#ffffff">2809 Call OptimizedCallTarget.callBoundary !</text>
</g>
<!-- node2813 -->
<g id="node30" class="node">
<title>node2813</title>
<polygon fill="#e98693" stroke="black" points="630.01,-370 509.01,-370 509.01,-334 630.01,-334 630.01,-370"/>
<text text-anchor="middle" x="569.51" y="-348.3" font-family="Arial" font-size="14.00" fill="#1a1919">2813 KillingBegin</text>
</g>
<!-- node2809&#45;&gt;node2813 -->
<g id="edge39" class="edge">
<title>node2809&#45;&gt;node2813</title>
<path fill="none" stroke="#da2d4f" stroke-width="2" d="M716.27,-420.8C687.25,-407.39 646.79,-388.7 615.7,-374.34"/>
<polygon fill="#da2d4f" stroke="#da2d4f" stroke-width="2" points="616.92,-371.05 606.37,-370.03 613.98,-377.4 616.92,-371.05"/>
</g>
<!-- node2814 -->
<g id="node31" class="node">
<title>node2814</title>
<polygon fill="#f9f9f9" stroke="black" points="828.01,-370 679.01,-370 679.01,-334 828.01,-334 828.01,-370"/>
<text text-anchor="middle" x="753.51" y="-348.3" font-family="Arial" font-size="14.00" fill="#1a1919">2814 ExceptionObject</text>
</g>
<!-- node2809&#45;&gt;node2814 -->
<g id="edge40" class="edge">
<title>node2809&#45;&gt;node2814</title>
<path fill="none" stroke="#da2d4f" stroke-width="2" d="M753.51,-420.8C753.51,-409.16 753.51,-393.55 753.51,-380.24"/>
<polygon fill="#da2d4f" stroke="#da2d4f" stroke-width="2" points="757.01,-380.18 753.51,-370.18 750.01,-380.18 757.01,-380.18"/>
<text text-anchor="middle" x="775.01" y="-391.8" font-family="arial" font-size="14.00" fill="#da2d4f">unwind</text>
</g>
<!-- node2810 -->
<g id="node29" class="node">
<title>node2810</title>
<polygon fill="#f9f9f9" stroke="black" points="962.01,-530 805.01,-530 805.01,-494 962.01,-494 962.01,-530"/>
<text text-anchor="middle" x="883.51" y="-508.3" font-family="Arial" font-size="14.00" fill="#1a1919">2810 MethodCallTarget</text>
</g>
<!-- node2810&#45;&gt;node2809 -->
<g id="edge38" class="edge">
<title>node2810&#45;&gt;node2809</title>
<path fill="none" stroke="#343d46" stroke-dasharray="5,2" d="M843.42,-489.1C824.57,-478.81 802.44,-466.72 784.84,-457.11"/>
<polygon fill="#343d46" stroke="#343d46" points="841.92,-492.27 852.37,-493.99 845.27,-486.13 841.92,-492.27"/>
</g>
<!-- node2813&#45;&gt;node2217 -->
<g id="edge43" class="edge">
<title>node2813&#45;&gt;node2217</title>
<path fill="none" stroke="#da2d4f" stroke-width="2" d="M546.75,-333.81C534.63,-324.66 519.54,-313.26 506.38,-303.32"/>
<polygon fill="#da2d4f" stroke="#da2d4f" stroke-width="2" points="508.14,-300.26 498.05,-297.03 503.92,-305.85 508.14,-300.26"/>
</g>
<!-- node2819 -->
<g id="node32" class="node">
<title>node2819</title>
<polygon fill="#da2d4f" stroke="black" points="862.01,-297 645.01,-297 645.01,-261 862.01,-261 862.01,-297"/>
<text text-anchor="middle" x="753.51" y="-275.3" font-family="Arial" font-size="14.00" fill="#ffffff">2819 Deopt TransferToInterpreter</text>
</g>
<!-- node2814&#45;&gt;node2819 -->
<g id="edge44" class="edge">
<title>node2814&#45;&gt;node2819</title>
<path fill="none" stroke="#da2d4f" stroke-width="2" d="M753.51,-333.81C753.51,-325.79 753.51,-316.05 753.51,-307.07"/>
<polygon fill="#da2d4f" stroke="#da2d4f" stroke-width="2" points="757.01,-307.03 753.51,-297.03 750.01,-307.03 757.01,-307.03"/>
</g>
<!-- node2826&#45;&gt;node830 -->
<g id="edge46" class="edge">
<title>node2826&#45;&gt;node830</title>
<path fill="none" stroke="#da2d4f" stroke-width="2" d="M873.85,-1756.81C872.6,-1748.79 871.09,-1739.05 869.7,-1730.07"/>
<polygon fill="#da2d4f" stroke="#da2d4f" stroke-width="2" points="873.14,-1729.38 868.15,-1720.03 866.22,-1730.45 873.14,-1729.38"/>
</g>
<!-- node2865 -->
<g id="node38" class="node">
<title>node2865</title>
<polygon fill="#f9f9f9" stroke="black" points="361.01,-791 166.01,-791 166.01,-755 361.01,-755 361.01,-791"/>
<text text-anchor="middle" x="263.51" y="-769.3" font-family="Arial" font-size="14.00" fill="#1a1919">2865 BoxNode$AllocatingBox</text>
</g>
<!-- node2833&#45;&gt;node2865 -->
<g id="edge48" class="edge">
<title>node2833&#45;&gt;node2865</title>
<path fill="none" stroke="#da2d4f" stroke-width="2" d="M263.51,-1015.6C263.51,-971.46 263.51,-854.83 263.51,-801.42"/>
<polygon fill="#da2d4f" stroke="#da2d4f" stroke-width="2" points="267.01,-801.32 263.51,-791.32 260.01,-801.32 267.01,-801.32"/>
</g>
<!-- node2848&#45;&gt;node1009 -->
<g id="edge6" class="edge">
<title>node2848&#45;&gt;node1009</title>
<path fill="none" stroke="#3cb4a4" d="M482.96,-841.8C473.35,-828.62 460.02,-810.34 449.62,-796.09"/>
<polygon fill="#3cb4a4" stroke="#3cb4a4" points="452.3,-793.83 443.58,-787.81 446.65,-797.95 452.3,-793.83"/>
<text text-anchor="middle" x="472.01" y="-812.8" font-family="arial" font-size="14.00" fill="#3cb4a4">x</text>
</g>
<!-- node2848&#45;&gt;node2578 -->
<g id="edge31" class="edge">
<title>node2848&#45;&gt;node2578</title>
<path fill="none" stroke="#3cb4a4" d="M524.72,-846.46C558.24,-832.07 613.48,-808.36 651.58,-792"/>
<polygon fill="#3cb4a4" stroke="#3cb4a4" points="653.07,-795.17 660.87,-788.01 650.31,-788.74 653.07,-795.17"/>
<text text-anchor="middle" x="610.01" y="-812.8" font-family="arial" font-size="14.00" fill="#3cb4a4">x</text>
</g>
<!-- node2848&#45;&gt;node2580 -->
<g id="edge33" class="edge">
<title>node2848&#45;&gt;node2580</title>
<path fill="none" stroke="#3cb4a4" d="M512.18,-878.03C522.83,-888.35 537.27,-901.34 551.51,-911 560.89,-917.37 571.59,-923.3 581.76,-928.41"/>
<polygon fill="#3cb4a4" stroke="#3cb4a4" points="580.37,-931.63 590.89,-932.86 583.44,-925.33 580.37,-931.63"/>
<text text-anchor="middle" x="555.01" y="-899.8" font-family="arial" font-size="14.00" fill="#3cb4a4">x</text>
</g>
<!-- node2848&#45;&gt;node2865 -->
<g id="edge55" class="edge">
<title>node2848&#45;&gt;node2865</title>
<path fill="none" stroke="#3cb4a4" d="M466.24,-845.35C463.31,-844.16 460.37,-843.02 457.51,-842 428.46,-831.67 419.79,-833.66 390.51,-824 364.5,-815.42 336.09,-804.39 312.75,-794.88"/>
<polygon fill="#3cb4a4" stroke="#3cb4a4" points="313.99,-791.61 303.41,-791.05 311.33,-798.08 313.99,-791.61"/>
<text text-anchor="middle" x="407.01" y="-812.8" font-family="arial" font-size="14.00" fill="#3cb4a4">value</text>
</g>
<!-- node2856&#45;&gt;node1384 -->
<g id="edge14" class="edge">
<title>node2856&#45;&gt;node1384</title>
<path fill="none" stroke="#3cb4a4" d="M311.86,-99.25C399.21,-85.1 657.94,-43.22 762.71,-26.25"/>
<polygon fill="#3cb4a4" stroke="#3cb4a4" points="763.34,-29.7 772.65,-24.64 762.22,-22.79 763.34,-29.7"/>
<text text-anchor="middle" x="580.01" y="-57.8" font-family="arial" font-size="14.00" fill="#3cb4a4">x</text>
</g>
<!-- node2856&#45;&gt;node2218 -->
<g id="edge23" class="edge">
<title>node2856&#45;&gt;node2218</title>
<path fill="none" stroke="#3cb4a4" d="M263.28,-86.8C248.69,-73.75 228.51,-55.68 212.64,-41.49"/>
<polygon fill="#3cb4a4" stroke="#3cb4a4" points="214.57,-38.52 204.79,-34.46 209.91,-43.74 214.57,-38.52"/>
<text text-anchor="middle" x="245.01" y="-57.8" font-family="arial" font-size="14.00" fill="#3cb4a4">x</text>
</g>
<!-- node2856&#45;&gt;node2220 -->
<g id="edge25" class="edge">
<title>node2856&#45;&gt;node2220</title>
<path fill="none" stroke="#3cb4a4" d="M274.94,-123C271.54,-132.62 268.66,-144.9 270.51,-156 270.99,-158.91 271.69,-161.9 272.51,-164.86"/>
<polygon fill="#3cb4a4" stroke="#3cb4a4" points="269.23,-166.1 275.62,-174.56 275.9,-163.97 269.23,-166.1"/>
<text text-anchor="middle" x="274.01" y="-144.8" font-family="arial" font-size="14.00" fill="#3cb4a4">x</text>
</g>
<!-- node2862 -->
<g id="node37" class="node">
<title>node2862</title>
<polygon fill="#343d46" stroke="black" points="1209.01,-791 972.01,-791 972.01,-755 1209.01,-755 1209.01,-791"/>
<text text-anchor="middle" x="1090.51" y="-769.3" font-family="Arial" font-size="14.00" fill="#ffffff">2862 VirtualArray java.lang.Object[9]</text>
</g>
<!-- node2866 -->
<g id="node39" class="node">
<title>node2866</title>
<polygon fill="#da2d4f" stroke="black" points="896.01,-704 817.01,-704 817.01,-668 896.01,-668 896.01,-704"/>
<text text-anchor="middle" x="856.51" y="-682.3" font-family="Arial" font-size="14.00" fill="#ffffff">2866 Alloc</text>
</g>
<!-- node2862&#45;&gt;node2866 -->
<g id="edge57" class="edge">
<title>node2862&#45;&gt;node2866</title>
<path fill="none" stroke="#3cb4a4" d="M1039.81,-754.96C1023.4,-749.35 1005.15,-743.01 988.51,-737 961.04,-727.09 930.53,-715.57 905.78,-706.08"/>
<polygon fill="#3cb4a4" stroke="#3cb4a4" points="906.83,-702.74 896.24,-702.43 904.33,-709.28 906.83,-702.74"/>
<text text-anchor="middle" x="1030.01" y="-725.8" font-family="arial" font-size="14.00" fill="#3cb4a4">virtualObjects</text>
</g>
<!-- node2867 -->
<g id="node40" class="node">
<title>node2867</title>
<polygon fill="#343d46" stroke="black" points="1149.01,-617 1004.01,-617 1004.01,-581 1149.01,-581 1149.01,-617"/>
<text text-anchor="middle" x="1076.51" y="-595.3" font-family="Arial" font-size="14.00" fill="#ffffff">2867 AllocatedObject</text>
</g>
<!-- node2862&#45;&gt;node2867 -->
<g id="edge60" class="edge">
<title>node2862&#45;&gt;node2867</title>
<path fill="none" stroke="#3cb4a4" d="M1089.11,-754.88C1086.68,-725 1081.65,-663.11 1078.73,-627.27"/>
<polygon fill="#3cb4a4" stroke="#3cb4a4" points="1082.2,-626.73 1077.9,-617.05 1075.22,-627.3 1082.2,-626.73"/>
<text text-anchor="middle" x="1122.51" y="-682.3" font-family="arial" font-size="14.00" fill="#3cb4a4">virtualObject</text>
</g>
<!-- node2865&#45;&gt;node2866 -->
<g id="edge56" class="edge">
<title>node2865&#45;&gt;node2866</title>
<path fill="none" stroke="#da2d4f" stroke-width="2" d="M361.17,-756.41C364.32,-755.93 367.44,-755.46 370.51,-755 529.78,-731.21 718.8,-705.48 806.81,-693.64"/>
<polygon fill="#da2d4f" stroke="#da2d4f" stroke-width="2" points="807.34,-697.1 816.78,-692.3 806.41,-690.17 807.34,-697.1"/>
</g>
<!-- node2865&#45;&gt;node2866 -->
<g id="edge58" class="edge">
<title>node2865&#45;&gt;node2866</title>
<path fill="none" stroke="#3cb4a4" d="M320.74,-754.88C359.78,-743.85 412.85,-730.1 460.51,-722 583.98,-701.01 731.38,-692.19 806.75,-688.84"/>
<polygon fill="#3cb4a4" stroke="#3cb4a4" points="807.06,-692.33 816.9,-688.4 806.75,-685.33 807.06,-692.33"/>
<text text-anchor="middle" x="480.51" y="-725.8" font-family="arial" font-size="14.00" fill="#3cb4a4">values</text>
</g>
<!-- node2866&#45;&gt;node2809 -->
<g id="edge59" class="edge">
<title>node2866&#45;&gt;node2809</title>
<path fill="none" stroke="#da2d4f" stroke-width="2" d="M824.81,-667.9C806.31,-656.15 784.35,-638.75 772.51,-617 746.59,-569.4 747.27,-503.96 750.26,-467.46"/>
<polygon fill="#da2d4f" stroke="#da2d4f" stroke-width="2" points="753.78,-467.39 751.24,-457.11 746.81,-466.73 753.78,-467.39"/>
</g>
<!-- node2866&#45;&gt;node2867 -->
<g id="edge61" class="edge">
<title>node2866&#45;&gt;node2867</title>
<path fill="none" stroke="#3cb4a4" d="M896.09,-669.71C931.45,-656.05 983.54,-635.92 1022.68,-620.8"/>
<polygon fill="#3cb4a4" stroke="#3cb4a4" points="1024.26,-623.94 1032.33,-617.07 1021.74,-617.41 1024.26,-623.94"/>
<text text-anchor="middle" x="1002.51" y="-638.8" font-family="arial" font-size="14.00" fill="#3cb4a4">commit</text>
</g>
<!-- node2867&#45;&gt;node2810 -->
<g id="edge42" class="edge">
<title>node2867&#45;&gt;node2810</title>
<path fill="none" stroke="#3cb4a4" d="M1037.45,-580.8C1006.88,-567.33 964.2,-548.54 931.54,-534.15"/>
<polygon fill="#3cb4a4" stroke="#3cb4a4" points="932.74,-530.86 922.18,-530.03 929.92,-537.26 932.74,-530.86"/>
<text text-anchor="middle" x="1009.01" y="-551.8" font-family="arial" font-size="14.00" fill="#3cb4a4">arg[1]</text>
</g>
<!-- node2878&#45;&gt;node2776 -->
<g id="edge37" class="edge">
<title>node2878&#45;&gt;node2776</title>
<path fill="none" stroke="#3cb4a4" d="M1044.87,-1349.93C1043.57,-1339.85 1043.5,-1327.11 1048.51,-1317 1050.52,-1312.95 1053.25,-1309.23 1056.38,-1305.87"/>
<polygon fill="#3cb4a4" stroke="#3cb4a4" points="1058.78,-1308.41 1063.76,-1299.06 1054.04,-1303.27 1058.78,-1308.41"/>
<text text-anchor="middle" x="1065.51" y="-1320.8" font-family="arial" font-size="14.00" fill="#3cb4a4">result</text>
</g>
<!-- node2878&#45;&gt;node2776 -->
<g id="edge63" class="edge">
<title>node2878&#45;&gt;node2776</title>
<path fill="none" stroke="#da2d4f" stroke-width="2" d="M1068.93,-1349.64C1074,-1344.43 1078.99,-1338.38 1082.51,-1332 1086.36,-1325.01 1088.98,-1316.81 1090.76,-1309.09"/>
<polygon fill="#da2d4f" stroke="#da2d4f" stroke-width="2" points="1094.25,-1309.51 1092.72,-1299.03 1087.38,-1308.18 1094.25,-1309.51"/>
</g>
<!-- node2879&#45;&gt;node545 -->
<g id="edge71" class="edge">
<title>node2879&#45;&gt;node545</title>
<path fill="none" stroke="#da2d4f" stroke-width="2" d="M610.44,-2011.86C603.63,-2001.3 594.76,-1987.56 587.11,-1975.71"/>
<polygon fill="#da2d4f" stroke="#da2d4f" stroke-width="2" points="589.92,-1973.61 581.55,-1967.11 584.04,-1977.41 589.92,-1973.61"/>
</g>
<!-- inline23x1009 -->
<g id="node43" class="node">
<title>inline23x1009</title>
<ellipse fill="#d7ede7" stroke="black" cx="421.51" cy="-860" rx="27" ry="18"/>
<text text-anchor="middle" x="421.51" y="-858.1" font-family="Arial" font-size="8.00" fill="#1a1919">23 C(1)</text>
</g>
<!-- inline23x1009&#45;&gt;node1009 -->
<g id="edge7" class="edge">
<title>inline23x1009&#45;&gt;node1009</title>
<path fill="none" stroke="#3cb4a4" d="M423.94,-841.8C426.06,-826.76 429.12,-805.08 431.21,-790.31"/>
<text text-anchor="middle" x="430.51" y="-814.6" font-family="arial" font-size="8.00" fill="#3cb4a4">y</text>
</g>
<!-- inline23x1384 -->
<g id="node44" class="node">
<title>inline23x1384</title>
<ellipse fill="#d7ede7" stroke="black" cx="807.51" cy="-105" rx="27" ry="18"/>
<text text-anchor="middle" x="807.51" y="-103.1" font-family="Arial" font-size="8.00" fill="#1a1919">23 C(1)</text>
</g>
<!-- inline23x1384&#45;&gt;node1384 -->
<g id="edge15" class="edge">
<title>inline23x1384&#45;&gt;node1384</title>
<path fill="none" stroke="#3cb4a4" d="M807.51,-86.8C807.51,-72.05 807.51,-50.92 807.51,-36.18"/>
<text text-anchor="middle" x="809.51" y="-59.6" font-family="arial" font-size="8.00" fill="#3cb4a4">y</text>
</g>
<!-- inline1651x1653 -->
<g id="node45" class="node">
<title>inline1651x1653</title>
<ellipse fill="#d7ede7" stroke="black" cx="287.51" cy="-1208" rx="79.32" ry="18"/>
<text text-anchor="middle" x="287.51" y="-1206.1" font-family="Arial" font-size="8.00" fill="#1a1919">1651 C(instance:RubyBasicObject)</text>
</g>
<!-- inline1651x1653&#45;&gt;node1653 -->
<g id="edge20" class="edge">
<title>inline1651x1653&#45;&gt;node1653</title>
<path fill="none" stroke="#3cb4a4" d="M282.65,-1189.8C278.35,-1174.57 272.12,-1152.52 267.95,-1137.74"/>
<text text-anchor="middle" x="279.51" y="-1162.6" font-family="arial" font-size="8.00" fill="#3cb4a4">y</text>
</g>
<!-- inline23x2218 -->
<g id="node46" class="node">
<title>inline23x2218</title>
<ellipse fill="#d7ede7" stroke="black" cx="187.51" cy="-105" rx="27" ry="18"/>
<text text-anchor="middle" x="187.51" y="-103.1" font-family="Arial" font-size="8.00" fill="#1a1919">23 C(1)</text>
</g>
<!-- inline23x2218&#45;&gt;node2218 -->
<g id="edge24" class="edge">
<title>inline23x2218&#45;&gt;node2218</title>
<path fill="none" stroke="#3cb4a4" d="M187.51,-86.8C187.51,-72.05 187.51,-50.92 187.51,-36.18"/>
<text text-anchor="middle" x="189.51" y="-59.6" font-family="arial" font-size="8.00" fill="#3cb4a4">y</text>
</g>
<!-- inline23x2220 -->
<g id="node47" class="node">
<title>inline23x2220</title>
<ellipse fill="#d7ede7" stroke="black" cx="282.51" cy="-279" rx="27" ry="18"/>
<text text-anchor="middle" x="282.51" y="-277.1" font-family="Arial" font-size="8.00" fill="#1a1919">23 C(1)</text>
</g>
<!-- inline23x2220&#45;&gt;node2220 -->
<g id="edge26" class="edge">
<title>inline23x2220&#45;&gt;node2220</title>
<path fill="none" stroke="#3cb4a4" d="M282.51,-260.8C282.51,-246.05 282.51,-224.92 282.51,-210.18"/>
<text text-anchor="middle" x="284.51" y="-233.6" font-family="arial" font-size="8.00" fill="#3cb4a4">y</text>
</g>
<!-- inline23x2578 -->
<g id="node48" class="node">
<title>inline23x2578</title>
<ellipse fill="#d7ede7" stroke="black" cx="755.51" cy="-860" rx="27" ry="18"/>
<text text-anchor="middle" x="755.51" y="-858.1" font-family="Arial" font-size="8.00" fill="#1a1919">23 C(1)</text>
</g>
<!-- inline23x2578&#45;&gt;node2578 -->
<g id="edge32" class="edge">
<title>inline23x2578&#45;&gt;node2578</title>
<path fill="none" stroke="#3cb4a4" d="M750.24,-842.27C746.53,-832.07 740.92,-819.09 733.51,-809 728.16,-801.71 721.04,-794.87 714.3,-789.21"/>
<text text-anchor="middle" x="743.51" y="-814.6" font-family="arial" font-size="8.00" fill="#3cb4a4">y</text>
</g>
<!-- inline23x2580 -->
<g id="node49" class="node">
<title>inline23x2580</title>
<ellipse fill="#d7ede7" stroke="black" cx="621.51" cy="-1034" rx="27" ry="18"/>
<text text-anchor="middle" x="621.51" y="-1032.1" font-family="Arial" font-size="8.00" fill="#1a1919">23 C(1)</text>
</g>
<!-- inline23x2580&#45;&gt;node2580 -->
<g id="edge34" class="edge">
<title>inline23x2580&#45;&gt;node2580</title>
<path fill="none" stroke="#3cb4a4" d="M621.51,-1015.8C621.51,-1001.05 621.51,-979.92 621.51,-965.18"/>
<text text-anchor="middle" x="623.51" y="-988.6" font-family="arial" font-size="8.00" fill="#3cb4a4">y</text>
</g>
<!-- inline1911x2810 -->
<g id="node50" class="node">
<title>inline1911x2810</title>
<ellipse fill="#d7ede7" stroke="black" cx="883.51" cy="-599" rx="102.2" ry="18"/>
<text text-anchor="middle" x="883.51" y="-597.1" font-family="Arial" font-size="8.00" fill="#1a1919">1911 C(instance:HotSpotOptimizedCallTarget)</text>
</g>
<!-- inline1911x2810&#45;&gt;node2810 -->
<g id="edge41" class="edge">
<title>inline1911x2810&#45;&gt;node2810</title>
<path fill="none" stroke="#3cb4a4" d="M883.51,-580.8C883.51,-566.05 883.51,-544.92 883.51,-530.18"/>
<text text-anchor="middle" x="894.51" y="-553.6" font-family="arial" font-size="8.00" fill="#3cb4a4">arg[0]</text>
</g>
<!-- inline140x1653 -->
<g id="node51" class="node">
<title>inline140x1653</title>
<ellipse fill="#d7ede7" stroke="black" cx="162.51" cy="-1208" rx="27.46" ry="18"/>
<text text-anchor="middle" x="162.51" y="-1206.1" font-family="Arial" font-size="8.00" fill="#1a1919">140 T(6)</text>
</g>
<!-- inline140x1653&#45;&gt;node1653 -->
<g id="edge64" class="edge">
<title>inline140x1653&#45;&gt;node1653</title>
<path fill="none" stroke="#3cb4a4" d="M178.74,-1193.34C197.92,-1177.2 229.59,-1150.54 248.31,-1134.79"/>
<text text-anchor="middle" x="221.51" y="-1162.6" font-family="arial" font-size="8.00" fill="#3cb4a4">x</text>
</g>
<!-- inline140x2866 -->
<g id="node52" class="node">
<title>inline140x2866</title>
<ellipse fill="#d7ede7" stroke="black" cx="926.51" cy="-773" rx="27.46" ry="18"/>
<text text-anchor="middle" x="926.51" y="-771.1" font-family="Arial" font-size="8.00" fill="#1a1919">140 T(6)</text>
</g>
<!-- inline140x2866&#45;&gt;node2866 -->
<g id="edge65" class="edge">
<title>inline140x2866&#45;&gt;node2866</title>
<path fill="none" stroke="#3cb4a4" d="M913.99,-756.8C901.8,-742 883.3,-719.53 870.6,-704.11"/>
<text text-anchor="middle" x="907.01" y="-727.6" font-family="arial" font-size="8.00" fill="#3cb4a4">values</text>
</g>
<!-- inline158x617 -->
<g id="node53" class="node">
<title>inline158x617</title>
<ellipse fill="#d7ede7" stroke="black" cx="1047.51" cy="-2030" rx="27.46" ry="18"/>
<text text-anchor="middle" x="1047.51" y="-2028.1" font-family="Arial" font-size="8.00" fill="#1a1919">158 T(7)</text>
</g>
<!-- inline158x617&#45;&gt;node617 -->
<g id="edge66" class="edge">
<title>inline158x617&#45;&gt;node617</title>
<path fill="none" stroke="#3cb4a4" d="M1047.51,-2011.86C1047.51,-1998.61 1047.51,-1980.35 1047.51,-1967.11"/>
<text text-anchor="middle" x="1057.01" y="-1987.6" font-family="arial" font-size="8.00" fill="#3cb4a4">value</text>
</g>
<!-- inline158x623 -->
<g id="node54" class="node">
<title>inline158x623</title>
<ellipse fill="#d7ede7" stroke="black" cx="1252.51" cy="-1949" rx="27.46" ry="18"/>
<text text-anchor="middle" x="1252.51" y="-1947.1" font-family="Arial" font-size="8.00" fill="#1a1919">158 T(7)</text>
</g>
<!-- inline158x623&#45;&gt;node623 -->
<g id="edge67" class="edge">
<title>inline158x623&#45;&gt;node623</title>
<path fill="none" stroke="#3cb4a4" d="M1245.59,-1931.21C1239.3,-1915.92 1230.08,-1893.52 1223.94,-1878.61"/>
<text text-anchor="middle" x="1246.01" y="-1903.6" font-family="arial" font-size="8.00" fill="#3cb4a4">value</text>
</g>
<!-- inline173x545 -->
<g id="node55" class="node">
<title>inline173x545</title>
<ellipse fill="#d7ede7" stroke="black" cx="519.51" cy="-2030" rx="27.46" ry="18"/>
<text text-anchor="middle" x="519.51" y="-2028.1" font-family="Arial" font-size="8.00" fill="#1a1919">173 T(8)</text>
</g>
<!-- inline173x545&#45;&gt;node545 -->
<g id="edge68" class="edge">
<title>inline173x545&#45;&gt;node545</title>
<path fill="none" stroke="#3cb4a4" d="M529.83,-2013.01C538.44,-1999.67 550.69,-1980.69 559.5,-1967.06"/>
<text text-anchor="middle" x="557.01" y="-1987.6" font-family="arial" font-size="8.00" fill="#3cb4a4">value</text>
</g>
<!-- inline2x2879 -->
<g id="node56" class="node">
<title>inline2x2879</title>
<ellipse fill="#d7ede7" stroke="black" cx="657.51" cy="-2111" rx="27" ry="18"/>
<text text-anchor="middle" x="657.51" y="-2109.1" font-family="Arial" font-size="8.00" fill="#1a1919">2 P(1)</text>
</g>
<!-- inline2x2879&#45;&gt;node2879 -->
<g id="edge69" class="edge">
<title>inline2x2879&#45;&gt;node2879</title>
<path fill="none" stroke="#3cb4a4" d="M650.05,-2093.63C643.99,-2080.34 635.48,-2061.67 629.33,-2048.17"/>
<text text-anchor="middle" x="651.01" y="-2068.6" font-family="arial" font-size="8.00" fill="#3cb4a4">array</text>
</g>
</g>
</svg>
