<?xml version="1.0" encoding="UTF-8" standalone="no"?>
<!DOCTYPE svg PUBLIC "-//W3C//DTD SVG 1.1//EN"
 "http://www.w3.org/Graphics/SVG/1.1/DTD/svg11.dtd">
<!-- Generated by graphviz version 2.44.1 (20200629.0846)
 -->
<!-- Title: G Pages: 1 -->
<svg width="841pt" height="1578pt"
 viewBox="0.00 0.00 841.00 1578.00" xmlns="http://www.w3.org/2000/svg" xmlns:xlink="http://www.w3.org/1999/xlink">
<g id="graph0" class="graph" transform="scale(1 1) rotate(0) translate(4 1574)">
<title>G</title>
<!-- node0 -->
<g id="node1" class="node">
<title>node0</title>
<polygon fill="#e98693" stroke="black" points="384.5,-1570 328.5,-1570 328.5,-1534 384.5,-1534 384.5,-1570"/>
<text text-anchor="middle" x="356.5" y="-1548.3" font-family="Arial" font-size="14.00" fill="#1a1919">0 Start</text>
</g>
<!-- node1443 -->
<g id="node26" class="node">
<title>node1443</title>
<polygon fill="#da2d4f" stroke="black" points="450,-1489 337,-1489 337,-1453 450,-1453 450,-1489"/>
<text text-anchor="middle" x="393.5" y="-1467.3" font-family="Arial" font-size="14.00" fill="#ffffff">1443 Load T(...)</text>
</g>
<!-- node0&#45;&gt;node1443 -->
<g id="edge40" class="edge">
<title>node0&#45;&gt;node1443</title>
<path fill="none" stroke="#da2d4f" stroke-width="2" d="M364.53,-1533.86C369.38,-1523.51 375.66,-1510.1 381.13,-1498.41"/>
<polygon fill="#da2d4f" stroke="#da2d4f" stroke-width="2" points="384.42,-1499.65 385.49,-1489.11 378.08,-1496.68 384.42,-1499.65"/>
</g>
<!-- node589 -->
<g id="node2" class="node">
<title>node589</title>
<polygon fill="#ffa500" stroke="black" points="429.5,-1402 191.5,-1402 191.5,-1366 429.5,-1366 429.5,-1402"/>
<text text-anchor="middle" x="310.5" y="-1380.3" font-family="Arial" font-size="14.00" fill="#1a1919">589 Guard, else ClassCastException</text>
</g>
<!-- node1418 -->
<g id="node22" class="node">
<title>node1418</title>
<polygon fill="#ffa500" stroke="black" points="539,-1315 288,-1315 288,-1279 539,-1279 539,-1315"/>
<text text-anchor="middle" x="413.5" y="-1293.3" font-family="Arial" font-size="14.00" fill="#1a1919">1418 Guard, else TransferToInterpreter</text>
</g>
<!-- node589&#45;&gt;node1418 -->
<g id="edge2" class="edge">
<title>node589&#45;&gt;node1418</title>
<path fill="none" stroke="#da2d4f" stroke-width="2" d="M331.34,-1365.8C346.7,-1353.13 367.78,-1335.73 384.74,-1321.74"/>
<polygon fill="#da2d4f" stroke="#da2d4f" stroke-width="2" points="387.2,-1324.24 392.69,-1315.18 382.75,-1318.84 387.2,-1324.24"/>
</g>
<!-- node590 -->
<g id="node3" class="node">
<title>node590</title>
<polygon fill="#f9f9f9" stroke="black" points="319,-1489 0,-1489 0,-1453 319,-1453 319,-1489"/>
<text text-anchor="middle" x="159.5" y="-1467.3" font-family="Arial" font-size="14.00" fill="#1a1919">590 InstanceOf org/truffleruby/core/proc/RubyProc</text>
</g>
<!-- node590&#45;&gt;node589 -->
<g id="edge1" class="edge">
<title>node590&#45;&gt;node589</title>
<path fill="none" stroke="#3cb4a4" d="M190.06,-1452.8C213.47,-1439.62 245.94,-1421.34 271.27,-1407.08"/>
<polygon fill="#3cb4a4" stroke="#3cb4a4" points="273.25,-1409.99 280.25,-1402.03 269.82,-1403.89 273.25,-1409.99"/>
<text text-anchor="middle" x="248.5" y="-1423.8" font-family="arial" font-size="14.00" fill="#3cb4a4">?</text>
</g>
<!-- node596 -->
<g id="node4" class="node">
<title>node596</title>
<polygon fill="#3cb4a4" stroke="black" points="518.5,-1402 447.95,-1384 518.5,-1366 589.05,-1384 518.5,-1402"/>
<text text-anchor="middle" x="518.5" y="-1380.3" font-family="Arial" font-size="14.00" fill="#1a1919">596 IsNull</text>
</g>
<!-- node596&#45;&gt;node1418 -->
<g id="edge28" class="edge">
<title>node596&#45;&gt;node1418</title>
<path fill="none" stroke="#3cb4a4" d="M502.09,-1369.72C486.25,-1356.89 461.9,-1337.18 442.73,-1321.66"/>
<polygon fill="#3cb4a4" stroke="#3cb4a4" points="444.85,-1318.88 434.87,-1315.3 440.45,-1324.32 444.85,-1318.88"/>
<text text-anchor="middle" x="475.5" y="-1336.8" font-family="arial" font-size="14.00" fill="#3cb4a4">?</text>
</g>
<!-- node942 -->
<g id="node5" class="node">
<title>node942</title>
<polygon fill="#da2d4f" stroke="black" points="683,-1234 384,-1234 384,-1198 683,-1198 683,-1234"/>
<text text-anchor="middle" x="533.5" y="-1212.3" font-family="Arial" font-size="14.00" fill="#ffffff">942 LoadField RubyDynamicObject.metaClass</text>
</g>
<!-- node1020 -->
<g id="node6" class="node">
<title>node1020</title>
<polygon fill="#e98693" stroke="black" points="527.5,-1060 469.5,-1060 469.5,-1024 527.5,-1024 527.5,-1060"/>
<text text-anchor="middle" x="498.5" y="-1038.3" font-family="Arial" font-size="14.00" fill="#1a1919">1020 If</text>
</g>
<!-- node942&#45;&gt;node1020 -->
<g id="edge3" class="edge">
<title>node942&#45;&gt;node1020</title>
<path fill="none" stroke="#da2d4f" stroke-width="2" d="M530.02,-1197.88C523.94,-1168 511.34,-1106.11 504.05,-1070.27"/>
<polygon fill="#da2d4f" stroke="#da2d4f" stroke-width="2" points="507.39,-1069.15 501.97,-1060.05 500.53,-1070.55 507.39,-1069.15"/>
</g>
<!-- node1021 -->
<g id="node7" class="node">
<title>node1021</title>
<polygon fill="#3cb4a4" stroke="black" points="400.5,-1147 338.83,-1129 400.5,-1111 462.17,-1129 400.5,-1147"/>
<text text-anchor="middle" x="400.5" y="-1125.3" font-family="Arial" font-size="14.00" fill="#1a1919">1021 ==</text>
</g>
<!-- node942&#45;&gt;node1021 -->
<g id="edge7" class="edge">
<title>node942&#45;&gt;node1021</title>
<path fill="none" stroke="#3cb4a4" d="M506.59,-1197.8C483.53,-1183.07 450.51,-1161.96 427.45,-1147.22"/>
<polygon fill="#3cb4a4" stroke="#3cb4a4" points="429.15,-1144.15 418.84,-1141.72 425.38,-1150.05 429.15,-1144.15"/>
<text text-anchor="middle" x="478" y="-1168.8" font-family="arial" font-size="14.00" fill="#3cb4a4">x</text>
</g>
<!-- node1098 -->
<g id="node10" class="node">
<title>node1098</title>
<polygon fill="#3cb4a4" stroke="black" points="659.5,-973 597.83,-955 659.5,-937 721.17,-955 659.5,-973"/>
<text text-anchor="middle" x="659.5" y="-951.3" font-family="Arial" font-size="14.00" fill="#1a1919">1098 ==</text>
</g>
<!-- node942&#45;&gt;node1098 -->
<g id="edge11" class="edge">
<title>node942&#45;&gt;node1098</title>
<path fill="none" stroke="#3cb4a4" d="M536.87,-1197.96C545.18,-1156.94 567.32,-1053.87 585.5,-1024 597.59,-1004.13 617.16,-986.51 633.13,-974.19"/>
<polygon fill="#3cb4a4" stroke="#3cb4a4" points="635.64,-976.69 641.57,-967.91 631.46,-971.08 635.64,-976.69"/>
<text text-anchor="middle" x="568" y="-1081.8" font-family="arial" font-size="14.00" fill="#3cb4a4">x</text>
</g>
<!-- node1022 -->
<g id="node8" class="node">
<title>node1022</title>
<polygon fill="#e98693" stroke="black" points="477,-973 392,-973 392,-937 477,-937 477,-973"/>
<text text-anchor="middle" x="434.5" y="-951.3" font-family="Arial" font-size="14.00" fill="#1a1919">1022 Begin</text>
</g>
<!-- node1020&#45;&gt;node1022 -->
<g id="edge5" class="edge">
<title>node1020&#45;&gt;node1022</title>
<path fill="none" stroke="#da2d4f" stroke-width="2" d="M485.55,-1023.8C476.35,-1011.59 463.86,-994.99 453.53,-981.28"/>
<polygon fill="#da2d4f" stroke="#da2d4f" stroke-width="2" points="456.24,-979.06 447.43,-973.18 450.65,-983.27 456.24,-979.06"/>
<text text-anchor="middle" x="474" y="-994.8" font-family="arial" font-size="14.00" fill="#da2d4f">T</text>
</g>
<!-- node1023 -->
<g id="node9" class="node">
<title>node1023</title>
<polygon fill="#e98693" stroke="black" points="580,-973 495,-973 495,-937 580,-937 580,-973"/>
<text text-anchor="middle" x="537.5" y="-951.3" font-family="Arial" font-size="14.00" fill="#1a1919">1023 Begin</text>
</g>
<!-- node1020&#45;&gt;node1023 -->
<g id="edge6" class="edge">
<title>node1020&#45;&gt;node1023</title>
<path fill="none" stroke="#da2d4f" stroke-width="2" d="M506.39,-1023.8C511.84,-1011.93 519.18,-995.93 525.36,-982.45"/>
<polygon fill="#da2d4f" stroke="#da2d4f" stroke-width="2" points="528.63,-983.72 529.62,-973.18 522.27,-980.8 528.63,-983.72"/>
<text text-anchor="middle" x="524" y="-994.8" font-family="arial" font-size="14.00" fill="#da2d4f">F</text>
</g>
<!-- node1021&#45;&gt;node1020 -->
<g id="edge4" class="edge">
<title>node1021&#45;&gt;node1020</title>
<path fill="none" stroke="#3cb4a4" d="M415.38,-1115.09C430.06,-1102.36 452.83,-1082.61 470.83,-1067"/>
<polygon fill="#3cb4a4" stroke="#3cb4a4" points="473.46,-1069.35 478.72,-1060.15 468.88,-1064.06 473.46,-1069.35"/>
<text text-anchor="middle" x="458.5" y="-1081.8" font-family="arial" font-size="14.00" fill="#3cb4a4">?</text>
</g>
<!-- node1263 -->
<g id="node14" class="node">
<title>node1263</title>
<polygon fill="#e98693" stroke="black" points="582.5,-632 524.5,-632 524.5,-596 582.5,-596 582.5,-632"/>
<text text-anchor="middle" x="553.5" y="-610.3" font-family="Arial" font-size="14.00" fill="#1a1919">1263 If</text>
</g>
<!-- node1021&#45;&gt;node1263 -->
<g id="edge16" class="edge">
<title>node1021&#45;&gt;node1263</title>
<path fill="none" stroke="#3cb4a4" d="M390,-1113.78C379.06,-1097.53 363.5,-1069.72 363.5,-1043 363.5,-1043 363.5,-1043 363.5,-686 363.5,-654.09 458.71,-631.78 514.34,-621.47"/>
<polygon fill="#3cb4a4" stroke="#3cb4a4" points="515.01,-624.9 524.23,-619.68 513.77,-618.01 515.01,-624.9"/>
<text text-anchor="middle" x="367.5" y="-864.3" font-family="arial" font-size="14.00" fill="#3cb4a4">?</text>
</g>
<!-- node1155 -->
<g id="node12" class="node">
<title>node1155</title>
<polygon fill="#e98693" stroke="black" points="488.5,-832 414.5,-832 414.5,-796 488.5,-796 488.5,-832"/>
<text text-anchor="middle" x="451.5" y="-810.3" font-family="Arial" font-size="14.00" fill="#1a1919">1155 End</text>
</g>
<!-- node1022&#45;&gt;node1155 -->
<g id="edge9" class="edge">
<title>node1022&#45;&gt;node1155</title>
<path fill="none" stroke="#da2d4f" stroke-width="2" d="M426.57,-936.82C417.98,-915.68 406.97,-879.03 418.5,-850 419.88,-846.54 421.77,-843.22 423.97,-840.1"/>
<polygon fill="#da2d4f" stroke="#da2d4f" stroke-width="2" points="426.7,-842.29 430.33,-832.34 421.29,-837.85 426.7,-842.29"/>
</g>
<!-- node1420 -->
<g id="node23" class="node">
<title>node1420</title>
<polygon fill="#ffa500" stroke="black" points="679,-886 428,-886 428,-850 679,-850 679,-886"/>
<text text-anchor="middle" x="553.5" y="-864.3" font-family="Arial" font-size="14.00" fill="#1a1919">1420 Guard, else TransferToInterpreter</text>
</g>
<!-- node1023&#45;&gt;node1420 -->
<g id="edge10" class="edge">
<title>node1023&#45;&gt;node1420</title>
<path fill="none" stroke="#da2d4f" stroke-width="2" d="M540.74,-936.8C542.93,-925.16 545.87,-909.55 548.37,-896.24"/>
<polygon fill="#da2d4f" stroke="#da2d4f" stroke-width="2" points="551.86,-896.65 550.27,-886.18 544.98,-895.36 551.86,-896.65"/>
</g>
<!-- node1098&#45;&gt;node1420 -->
<g id="edge30" class="edge">
<title>node1098&#45;&gt;node1420</title>
<path fill="none" stroke="#3cb4a4" d="M643.86,-941.46C627.86,-928.63 602.63,-908.4 582.89,-892.57"/>
<polygon fill="#3cb4a4" stroke="#3cb4a4" points="585.08,-889.84 575.09,-886.31 580.7,-895.3 585.08,-889.84"/>
<text text-anchor="middle" x="616.5" y="-907.8" font-family="arial" font-size="14.00" fill="#3cb4a4">?</text>
</g>
<!-- node1423 -->
<g id="node24" class="node">
<title>node1423</title>
<polygon fill="#ffa500" stroke="black" points="833,-472 582,-472 582,-436 833,-436 833,-472"/>
<text text-anchor="middle" x="707.5" y="-450.3" font-family="Arial" font-size="14.00" fill="#1a1919">1423 Guard, else TransferToInterpreter</text>
</g>
<!-- node1098&#45;&gt;node1423 -->
<g id="edge32" class="edge">
<title>node1098&#45;&gt;node1423</title>
<path fill="none" stroke="#3cb4a4" d="M672.87,-940.58C687.07,-924.85 707.5,-897.3 707.5,-869 707.5,-869 707.5,-869 707.5,-526 707.5,-511.65 707.5,-495.67 707.5,-482.51"/>
<polygon fill="#3cb4a4" stroke="#3cb4a4" points="711,-482.22 707.5,-472.22 704,-482.22 711,-482.22"/>
<text text-anchor="middle" x="711.5" y="-683.3" font-family="arial" font-size="14.00" fill="#3cb4a4">?</text>
</g>
<!-- node1153 -->
<g id="node11" class="node">
<title>node1153</title>
<polygon fill="#e98693" stroke="black" points="598,-705 509,-705 509,-669 598,-669 598,-705"/>
<text text-anchor="middle" x="553.5" y="-683.3" font-family="Arial" font-size="14.00" fill="#1a1919">1153 Merge</text>
</g>
<!-- node1153&#45;&gt;node1263 -->
<g id="edge15" class="edge">
<title>node1153&#45;&gt;node1263</title>
<path fill="none" stroke="#da2d4f" stroke-width="2" d="M553.5,-668.81C553.5,-660.79 553.5,-651.05 553.5,-642.07"/>
<polygon fill="#da2d4f" stroke="#da2d4f" stroke-width="2" points="557,-642.03 553.5,-632.03 550,-642.03 557,-642.03"/>
</g>
<!-- node1155&#45;&gt;node1153 -->
<g id="edge13" class="edge">
<title>node1155&#45;&gt;node1153</title>
<path fill="none" stroke="#da2d4f" stroke-width="2" d="M464.67,-795.93C475.91,-781.46 492.57,-760.21 507.5,-742 515.35,-732.42 524.13,-722.04 531.9,-712.96"/>
<polygon fill="#da2d4f" stroke="#da2d4f" stroke-width="2" points="534.56,-715.24 538.42,-705.37 529.25,-710.68 534.56,-715.24"/>
</g>
<!-- node1156 -->
<g id="node13" class="node">
<title>node1156</title>
<polygon fill="#e98693" stroke="black" points="590.5,-778 516.5,-778 516.5,-742 590.5,-742 590.5,-778"/>
<text text-anchor="middle" x="553.5" y="-756.3" font-family="Arial" font-size="14.00" fill="#1a1919">1156 End</text>
</g>
<!-- node1156&#45;&gt;node1153 -->
<g id="edge14" class="edge">
<title>node1156&#45;&gt;node1153</title>
<path fill="none" stroke="#da2d4f" stroke-width="2" d="M553.5,-741.81C553.5,-733.79 553.5,-724.05 553.5,-715.07"/>
<polygon fill="#da2d4f" stroke="#da2d4f" stroke-width="2" points="557,-715.03 553.5,-705.03 550,-715.03 557,-715.03"/>
</g>
<!-- node1265 -->
<g id="node15" class="node">
<title>node1265</title>
<polygon fill="#e98693" stroke="black" points="596,-545 511,-545 511,-509 596,-509 596,-545"/>
<text text-anchor="middle" x="553.5" y="-523.3" font-family="Arial" font-size="14.00" fill="#1a1919">1265 Begin</text>
</g>
<!-- node1263&#45;&gt;node1265 -->
<g id="edge17" class="edge">
<title>node1263&#45;&gt;node1265</title>
<path fill="none" stroke="#da2d4f" stroke-width="2" d="M553.5,-595.8C553.5,-584.16 553.5,-568.55 553.5,-555.24"/>
<polygon fill="#da2d4f" stroke="#da2d4f" stroke-width="2" points="557,-555.18 553.5,-545.18 550,-555.18 557,-555.18"/>
<text text-anchor="middle" x="558" y="-566.8" font-family="arial" font-size="14.00" fill="#da2d4f">T</text>
</g>
<!-- node1266 -->
<g id="node16" class="node">
<title>node1266</title>
<polygon fill="#e98693" stroke="black" points="821,-545 736,-545 736,-509 821,-509 821,-545"/>
<text text-anchor="middle" x="778.5" y="-523.3" font-family="Arial" font-size="14.00" fill="#1a1919">1266 Begin</text>
</g>
<!-- node1263&#45;&gt;node1266 -->
<g id="edge18" class="edge">
<title>node1263&#45;&gt;node1266</title>
<path fill="none" stroke="#da2d4f" stroke-width="2" d="M582.91,-601.89C619.2,-588.18 681.55,-564.62 726.1,-547.79"/>
<polygon fill="#da2d4f" stroke="#da2d4f" stroke-width="2" points="727.49,-551.01 735.6,-544.21 725.01,-544.47 727.49,-551.01"/>
<text text-anchor="middle" x="683" y="-566.8" font-family="arial" font-size="14.00" fill="#da2d4f">F</text>
</g>
<!-- node1382 -->
<g id="node18" class="node">
<title>node1382</title>
<polygon fill="#e98693" stroke="black" points="634.5,-418 560.5,-418 560.5,-382 634.5,-382 634.5,-418"/>
<text text-anchor="middle" x="597.5" y="-396.3" font-family="Arial" font-size="14.00" fill="#1a1919">1382 End</text>
</g>
<!-- node1265&#45;&gt;node1382 -->
<g id="edge19" class="edge">
<title>node1265&#45;&gt;node1382</title>
<path fill="none" stroke="#da2d4f" stroke-width="2" d="M555.34,-508.81C557.77,-490.24 563.04,-460.08 573.5,-436 574.89,-432.79 576.59,-429.58 578.44,-426.46"/>
<polygon fill="#da2d4f" stroke="#da2d4f" stroke-width="2" points="581.4,-428.33 583.9,-418.03 575.52,-424.52 581.4,-428.33"/>
</g>
<!-- node1266&#45;&gt;node1423 -->
<g id="edge20" class="edge">
<title>node1266&#45;&gt;node1423</title>
<path fill="none" stroke="#da2d4f" stroke-width="2" d="M761.31,-508.81C752.42,-499.92 741.41,-488.91 731.67,-479.17"/>
<polygon fill="#da2d4f" stroke="#da2d4f" stroke-width="2" points="734.07,-476.63 724.53,-472.03 729.13,-481.57 734.07,-476.63"/>
</g>
<!-- node1380 -->
<g id="node17" class="node">
<title>node1380</title>
<polygon fill="#e98693" stroke="black" points="676,-291 587,-291 587,-255 676,-255 676,-291"/>
<text text-anchor="middle" x="631.5" y="-269.3" font-family="Arial" font-size="14.00" fill="#1a1919">1380 Merge</text>
</g>
<!-- node1383 -->
<g id="node19" class="node">
<title>node1383</title>
<polygon fill="#f9f9f9" stroke="black" points="725.5,-210 667.5,-210 667.5,-174 725.5,-174 725.5,-210"/>
<text text-anchor="middle" x="696.5" y="-188.3" font-family="Arial" font-size="14.00" fill="#1a1919">1383 ϕ</text>
</g>
<!-- node1380&#45;&gt;node1383 -->
<g id="edge24" class="edge">
<title>node1380&#45;&gt;node1383</title>
<path fill="none" stroke="#343d46" stroke-dasharray="5,2" d="M652.12,-246.94C661.99,-234.94 673.57,-220.87 682.42,-210.11"/>
<polygon fill="#343d46" stroke="#343d46" points="649.25,-244.91 645.6,-254.86 654.66,-249.36 649.25,-244.91"/>
</g>
<!-- node1442 -->
<g id="node25" class="node">
<title>node1442</title>
<polygon fill="#f9f9f9" stroke="black" points="738,-123 573,-123 573,-87 738,-87 738,-123"/>
<text text-anchor="middle" x="655.5" y="-101.3" font-family="Arial" font-size="14.00" fill="#1a1919">1442 BoxNode$PureBox</text>
</g>
<!-- node1380&#45;&gt;node1442 -->
<g id="edge23" class="edge">
<title>node1380&#45;&gt;node1442</title>
<path fill="none" stroke="#da2d4f" stroke-width="2" d="M633.98,-254.86C638.13,-226.16 646.52,-168.13 651.51,-133.61"/>
<polygon fill="#da2d4f" stroke="#da2d4f" stroke-width="2" points="655.03,-133.69 653,-123.3 648.1,-132.69 655.03,-133.69"/>
</g>
<!-- node1382&#45;&gt;node1380 -->
<g id="edge21" class="edge">
<title>node1382&#45;&gt;node1380</title>
<path fill="none" stroke="#da2d4f" stroke-width="2" d="M602.16,-381.88C607.82,-361.05 617.45,-325.64 624.13,-301.09"/>
<polygon fill="#da2d4f" stroke="#da2d4f" stroke-width="2" points="627.54,-301.88 626.79,-291.31 620.79,-300.04 627.54,-301.88"/>
</g>
<!-- node1383&#45;&gt;node1442 -->
<g id="edge34" class="edge">
<title>node1383&#45;&gt;node1442</title>
<path fill="none" stroke="#3cb4a4" d="M688.2,-173.8C682.48,-161.93 674.76,-145.93 668.26,-132.45"/>
<polygon fill="#3cb4a4" stroke="#3cb4a4" points="671.28,-130.66 663.78,-123.18 664.98,-133.7 671.28,-130.66"/>
<text text-anchor="middle" x="713" y="-144.8" font-family="arial" font-size="14.00" fill="#3cb4a4">value [0 &#45; 1]</text>
</g>
<!-- node1384 -->
<g id="node20" class="node">
<title>node1384</title>
<polygon fill="#e98693" stroke="black" points="732.5,-364 658.5,-364 658.5,-328 732.5,-328 732.5,-364"/>
<text text-anchor="middle" x="695.5" y="-342.3" font-family="Arial" font-size="14.00" fill="#1a1919">1384 End</text>
</g>
<!-- node1384&#45;&gt;node1380 -->
<g id="edge22" class="edge">
<title>node1384&#45;&gt;node1380</title>
<path fill="none" stroke="#da2d4f" stroke-width="2" d="M680.01,-327.81C672.07,-319 662.26,-308.13 653.55,-298.46"/>
<polygon fill="#da2d4f" stroke="#da2d4f" stroke-width="2" points="656.15,-296.11 646.85,-291.03 650.95,-300.8 656.15,-296.11"/>
</g>
<!-- node1413 -->
<g id="node21" class="node">
<title>node1413</title>
<polygon fill="#e98693" stroke="black" points="701,-36 610,-36 610,0 701,0 701,-36"/>
<text text-anchor="middle" x="655.5" y="-14.3" font-family="Arial" font-size="14.00" fill="#1a1919">1413 Return</text>
</g>
<!-- node1418&#45;&gt;node942 -->
<g id="edge29" class="edge">
<title>node1418&#45;&gt;node942</title>
<path fill="none" stroke="#da2d4f" stroke-width="2" d="M439.54,-1278.86C456.99,-1267.37 480.17,-1252.11 499.13,-1239.63"/>
<polygon fill="#da2d4f" stroke="#da2d4f" stroke-width="2" points="501.08,-1242.53 507.51,-1234.11 497.24,-1236.68 501.08,-1242.53"/>
</g>
<!-- node1420&#45;&gt;node1156 -->
<g id="edge31" class="edge">
<title>node1420&#45;&gt;node1156</title>
<path fill="none" stroke="#da2d4f" stroke-width="2" d="M553.5,-849.97C553.5,-833.38 553.5,-807.88 553.5,-788.43"/>
<polygon fill="#da2d4f" stroke="#da2d4f" stroke-width="2" points="557,-788.34 553.5,-778.34 550,-788.34 557,-788.34"/>
</g>
<!-- node1423&#45;&gt;node1384 -->
<g id="edge33" class="edge">
<title>node1423&#45;&gt;node1384</title>
<path fill="none" stroke="#da2d4f" stroke-width="2" d="M705.57,-435.97C703.69,-419.38 700.81,-393.88 698.61,-374.43"/>
<polygon fill="#da2d4f" stroke="#da2d4f" stroke-width="2" points="702.07,-373.88 697.46,-364.34 695.11,-374.67 702.07,-373.88"/>
</g>
<!-- node1442&#45;&gt;node1413 -->
<g id="edge27" class="edge">
<title>node1442&#45;&gt;node1413</title>
<path fill="none" stroke="#3cb4a4" d="M641.4,-86.84C637.78,-81.46 634.38,-75.27 632.5,-69 630.09,-60.93 632.06,-52.49 635.69,-44.89"/>
<polygon fill="#3cb4a4" stroke="#3cb4a4" points="638.79,-46.53 640.75,-36.12 632.72,-43.03 638.79,-46.53"/>
<text text-anchor="middle" x="649.5" y="-57.8" font-family="arial" font-size="14.00" fill="#3cb4a4">result</text>
</g>
<!-- node1442&#45;&gt;node1413 -->
<g id="edge35" class="edge">
<title>node1442&#45;&gt;node1413</title>
<path fill="none" stroke="#da2d4f" stroke-width="2" d="M662.44,-86.98C665.56,-77.35 668.2,-65.07 666.5,-54 666.09,-51.32 665.51,-48.56 664.83,-45.83"/>
<polygon fill="#da2d4f" stroke="#da2d4f" stroke-width="2" points="668.19,-44.83 662.05,-36.2 661.46,-46.78 668.19,-44.83"/>
</g>
<!-- node1443&#45;&gt;node589 -->
<g id="edge41" class="edge">
<title>node1443&#45;&gt;node589</title>
<path fill="none" stroke="#da2d4f" stroke-width="2" d="M376.7,-1452.8C364.55,-1440.36 347.96,-1423.36 334.43,-1409.5"/>
<polygon fill="#da2d4f" stroke="#da2d4f" stroke-width="2" points="336.76,-1406.88 327.27,-1402.18 331.75,-1411.78 336.76,-1406.88"/>
</g>
<!-- inline829x1021 -->
<g id="node27" class="node">
<title>inline829x1021</title>
<ellipse fill="#d7ede7" stroke="black" cx="301.5" cy="-1216" rx="64.83" ry="18"/>
<text text-anchor="middle" x="301.5" y="-1214.1" font-family="Arial" font-size="8.00" fill="#1a1919">829 C(instance:RubyClass)</text>
</g>
<!-- inline829x1021&#45;&gt;node1021 -->
<g id="edge8" class="edge">
<title>inline829x1021&#45;&gt;node1021</title>
<path fill="none" stroke="#3cb4a4" d="M320.59,-1198.61C339.58,-1182.31 368.32,-1157.63 385.67,-1142.74"/>
<text text-anchor="middle" x="359.5" y="-1170.6" font-family="arial" font-size="8.00" fill="#3cb4a4">y</text>
</g>
<!-- inline728x1098 -->
<g id="node28" class="node">
<title>inline728x1098</title>
<ellipse fill="#d7ede7" stroke="black" cx="659.5" cy="-1042" rx="64.83" ry="18"/>
<text text-anchor="middle" x="659.5" y="-1040.1" font-family="Arial" font-size="8.00" fill="#1a1919">728 C(instance:RubyClass)</text>
</g>
<!-- inline728x1098&#45;&gt;node1098 -->
<g id="edge12" class="edge">
<title>inline728x1098&#45;&gt;node1098</title>
<path fill="none" stroke="#3cb4a4" d="M659.5,-1023.8C659.5,-1009.05 659.5,-987.92 659.5,-973.18"/>
<text text-anchor="middle" x="661.5" y="-996.6" font-family="arial" font-size="8.00" fill="#3cb4a4">y</text>
</g>
<!-- inline23x1383 -->
<g id="node29" class="node">
<title>inline23x1383</title>
<ellipse fill="#d7ede7" stroke="black" cx="721.5" cy="-273" rx="27" ry="18"/>
<text text-anchor="middle" x="721.5" y="-271.1" font-family="Arial" font-size="8.00" fill="#1a1919">23 C(1)</text>
</g>
<!-- inline23x1383&#45;&gt;node1383 -->
<g id="edge25" class="edge">
<title>inline23x1383&#45;&gt;node1383</title>
<path fill="none" stroke="#3cb4a4" d="M716.2,-255.25C711.98,-241.93 706.11,-223.38 701.88,-210"/>
<text text-anchor="middle" x="728" y="-230.6" font-family="arial" font-size="8.00" fill="#3cb4a4">from 1382</text>
</g>
<!-- inline5x1383 -->
<g id="node30" class="node">
<title>inline5x1383</title>
<ellipse fill="#d7ede7" stroke="black" cx="793.5" cy="-273" rx="27" ry="18"/>
<text text-anchor="middle" x="793.5" y="-271.1" font-family="Arial" font-size="8.00" fill="#1a1919">5 C(0)</text>
</g>
<!-- inline5x1383&#45;&gt;node1383 -->
<g id="edge26" class="edge">
<title>inline5x1383&#45;&gt;node1383</title>
<path fill="none" stroke="#3cb4a4" d="M780.31,-256.91C772.17,-248 761.24,-236.8 750.5,-228 742.72,-221.63 733.74,-215.41 725.36,-210.03"/>
<text text-anchor="middle" x="779" y="-230.6" font-family="arial" font-size="8.00" fill="#3cb4a4">from 1384</text>
</g>
<!-- inline158x590 -->
<g id="node31" class="node">
<title>inline158x590</title>
<ellipse fill="#d7ede7" stroke="black" cx="159.5" cy="-1552" rx="27.46" ry="18"/>
<text text-anchor="middle" x="159.5" y="-1550.1" font-family="Arial" font-size="8.00" fill="#1a1919">158 T(7)</text>
</g>
<!-- inline158x590&#45;&gt;node590 -->
<g id="edge36" class="edge">
<title>inline158x590&#45;&gt;node590</title>
<path fill="none" stroke="#3cb4a4" d="M159.5,-1533.86C159.5,-1520.61 159.5,-1502.35 159.5,-1489.11"/>
<text text-anchor="middle" x="169" y="-1509.6" font-family="arial" font-size="8.00" fill="#3cb4a4">value</text>
</g>
<!-- inline158x596 -->
<g id="node32" class="node">
<title>inline158x596</title>
<ellipse fill="#d7ede7" stroke="black" cx="518.5" cy="-1471" rx="27.46" ry="18"/>
<text text-anchor="middle" x="518.5" y="-1469.1" font-family="Arial" font-size="8.00" fill="#1a1919">158 T(7)</text>
</g>
<!-- inline158x596&#45;&gt;node596 -->
<g id="edge37" class="edge">
<title>inline158x596&#45;&gt;node596</title>
<path fill="none" stroke="#3cb4a4" d="M518.5,-1452.8C518.5,-1438.05 518.5,-1416.92 518.5,-1402.18"/>
<text text-anchor="middle" x="528" y="-1425.6" font-family="arial" font-size="8.00" fill="#3cb4a4">value</text>
</g>
<!-- inline173x942 -->
<g id="node33" class="node">
<title>inline173x942</title>
<ellipse fill="#d7ede7" stroke="black" cx="584.5" cy="-1297" rx="27.46" ry="18"/>
<text text-anchor="middle" x="584.5" y="-1295.1" font-family="Arial" font-size="8.00" fill="#1a1919">173 T(8)</text>
</g>
<!-- inline173x942&#45;&gt;node942 -->
<g id="edge38" class="edge">
<title>inline173x942&#45;&gt;node942</title>
<path fill="none" stroke="#3cb4a4" d="M574.18,-1280.01C565.56,-1266.67 553.31,-1247.69 544.51,-1234.06"/>
<text text-anchor="middle" x="571.5" y="-1254.6" font-family="arial" font-size="8.00" fill="#3cb4a4">object</text>
</g>
<!-- inline2x1443 -->
<g id="node34" class="node">
<title>inline2x1443</title>
<ellipse fill="#d7ede7" stroke="black" cx="429.5" cy="-1552" rx="27" ry="18"/>
<text text-anchor="middle" x="429.5" y="-1550.1" font-family="Arial" font-size="8.00" fill="#1a1919">2 P(1)</text>
</g>
<!-- inline2x1443&#45;&gt;node1443 -->
<g id="edge39" class="edge">
<title>inline2x1443&#45;&gt;node1443</title>
<path fill="none" stroke="#3cb4a4" d="M422.04,-1534.63C415.99,-1521.34 407.47,-1502.67 401.32,-1489.17"/>
<text text-anchor="middle" x="423" y="-1509.6" font-family="arial" font-size="8.00" fill="#3cb4a4">array</text>
</g>
</g>
</svg>
