<?xml version="1.0" encoding="UTF-8" standalone="no"?>
<!DOCTYPE svg PUBLIC "-//W3C//DTD SVG 1.1//EN"
 "http://www.w3.org/Graphics/SVG/1.1/DTD/svg11.dtd">
<!-- Generated by graphviz version 2.44.1 (20200629.0846)
 -->
<!-- Title: G Pages: 1 -->
<svg width="685pt" height="1101pt"
 viewBox="0.00 0.00 684.58 1101.00" xmlns="http://www.w3.org/2000/svg" xmlns:xlink="http://www.w3.org/1999/xlink">
<g id="graph0" class="graph" transform="scale(1 1) rotate(0) translate(4 1097)">
<title>G</title>
<!-- node0 -->
<g id="node1" class="node">
<title>node0</title>
<polygon fill="#e98693" stroke="black" points="442,-1093 386,-1093 386,-1057 442,-1057 442,-1093"/>
<text text-anchor="middle" x="414" y="-1071.3" font-family="Arial" font-size="14.00" fill="#1a1919">0 Start</text>
</g>
<!-- node2619 -->
<g id="node20" class="node">
<title>node2619</title>
<polygon fill="#da2d4f" stroke="black" points="506.5,-1012 393.5,-1012 393.5,-976 506.5,-976 506.5,-1012"/>
<text text-anchor="middle" x="450" y="-990.3" font-family="Arial" font-size="14.00" fill="#ffffff">2619 Load T(...)</text>
</g>
<!-- node0&#45;&gt;node2619 -->
<g id="edge33" class="edge">
<title>node0&#45;&gt;node2619</title>
<path fill="none" stroke="#da2d4f" stroke-width="2" d="M421.81,-1056.86C426.53,-1046.51 432.64,-1033.1 437.96,-1021.41"/>
<polygon fill="#da2d4f" stroke="#da2d4f" stroke-width="2" points="441.24,-1022.66 442.2,-1012.11 434.87,-1019.76 441.24,-1022.66"/>
</g>
<!-- node534 -->
<g id="node2" class="node">
<title>node534</title>
<polygon fill="#f9f9f9" stroke="black" points="560,-931 478,-931 478,-895 560,-895 560,-931"/>
<text text-anchor="middle" x="519" y="-909.3" font-family="Arial" font-size="14.00" fill="#1a1919">534 Unbox</text>
</g>
<!-- node693 -->
<g id="node3" class="node">
<title>node693</title>
<polygon fill="#f9f9f9" stroke="black" points="463,-844 381,-844 381,-808 463,-808 463,-844"/>
<text text-anchor="middle" x="422" y="-822.3" font-family="Arial" font-size="14.00" fill="#1a1919">693 Unbox</text>
</g>
<!-- node534&#45;&gt;node693 -->
<g id="edge1" class="edge">
<title>node534&#45;&gt;node693</title>
<path fill="none" stroke="#da2d4f" stroke-width="2" d="M499.37,-894.8C485.04,-882.24 465.42,-865.05 449.53,-851.12"/>
<polygon fill="#da2d4f" stroke="#da2d4f" stroke-width="2" points="451.43,-848.13 441.6,-844.18 446.81,-853.4 451.43,-848.13"/>
</g>
<!-- node1095 -->
<g id="node7" class="node">
<title>node1095</title>
<polygon fill="#3cb4a4" stroke="black" points="615,-844 553.33,-826 615,-808 676.67,-826 615,-844"/>
<text text-anchor="middle" x="615" y="-822.3" font-family="Arial" font-size="14.00" fill="#1a1919">1095 ==</text>
</g>
<!-- node534&#45;&gt;node1095 -->
<g id="edge26" class="edge">
<title>node534&#45;&gt;node1095</title>
<path fill="none" stroke="#3cb4a4" d="M538.43,-894.8C554.15,-880.88 576.31,-861.25 592.75,-846.7"/>
<polygon fill="#3cb4a4" stroke="#3cb4a4" points="595.14,-849.26 600.31,-840.01 590.5,-844.02 595.14,-849.26"/>
<text text-anchor="middle" x="575.5" y="-865.8" font-family="arial" font-size="14.00" fill="#3cb4a4">x</text>
</g>
<!-- node848 -->
<g id="node4" class="node">
<title>node848</title>
<polygon fill="#f9f9f9" stroke="black" points="383,-763 301,-763 301,-727 383,-727 383,-763"/>
<text text-anchor="middle" x="342" y="-741.3" font-family="Arial" font-size="14.00" fill="#1a1919">848 Unbox</text>
</g>
<!-- node693&#45;&gt;node848 -->
<g id="edge2" class="edge">
<title>node693&#45;&gt;node848</title>
<path fill="none" stroke="#da2d4f" stroke-width="2" d="M404.64,-807.86C393.53,-796.88 378.94,-782.48 366.64,-770.33"/>
<polygon fill="#da2d4f" stroke="#da2d4f" stroke-width="2" points="368.9,-767.64 359.32,-763.11 363.98,-772.63 368.9,-767.64"/>
</g>
<!-- node2610 -->
<g id="node18" class="node">
<title>node2610</title>
<polygon fill="#f9f9f9" stroke="black" points="330,-210 272,-210 272,-174 330,-174 330,-210"/>
<text text-anchor="middle" x="301" y="-188.3" font-family="Arial" font-size="14.00" fill="#1a1919">2610 ϕ</text>
</g>
<!-- node693&#45;&gt;node2610 -->
<g id="edge22" class="edge">
<title>node693&#45;&gt;node2610</title>
<path fill="none" stroke="#3cb4a4" d="M463.1,-810.6C483.38,-803.27 505.5,-794.91 515,-790 534.06,-780.16 537.62,-775.56 555,-763 565.02,-755.76 577,-758.36 577,-746 577,-746 577,-746 577,-264 577,-215.68 416.35,-199.76 340.18,-194.93"/>
<polygon fill="#3cb4a4" stroke="#3cb4a4" points="340.21,-191.43 330.02,-194.32 339.79,-198.42 340.21,-191.43"/>
<text text-anchor="middle" x="608" y="-494.3" font-family="arial" font-size="14.00" fill="#3cb4a4">from 2305</text>
</g>
<!-- node2554 -->
<g id="node15" class="node">
<title>node2554</title>
<polygon fill="#ffa500" stroke="black" points="548.5,-676 297.5,-676 297.5,-640 548.5,-640 548.5,-676"/>
<text text-anchor="middle" x="423" y="-654.3" font-family="Arial" font-size="14.00" fill="#1a1919">2554 Guard, else TransferToInterpreter</text>
</g>
<!-- node848&#45;&gt;node2554 -->
<g id="edge3" class="edge">
<title>node848&#45;&gt;node2554</title>
<path fill="none" stroke="#da2d4f" stroke-width="2" d="M358.39,-726.8C370.25,-714.36 386.44,-697.36 399.65,-683.5"/>
<polygon fill="#da2d4f" stroke="#da2d4f" stroke-width="2" points="402.27,-685.83 406.63,-676.18 397.2,-681 402.27,-685.83"/>
</g>
<!-- node848&#45;&gt;node2610 -->
<g id="edge23" class="edge">
<title>node848&#45;&gt;node2610</title>
<path fill="none" stroke="#3cb4a4" d="M300.75,-742.4C209.79,-737.73 0,-720.33 0,-659 0,-659 0,-659 0,-264 0,-210.88 179.82,-197.46 261.48,-194.1"/>
<polygon fill="#3cb4a4" stroke="#3cb4a4" points="262.01,-197.59 271.87,-193.71 261.74,-190.59 262.01,-197.59"/>
<text text-anchor="middle" x="31" y="-450.8" font-family="arial" font-size="14.00" fill="#3cb4a4">from 2307</text>
</g>
<!-- node922 -->
<g id="node5" class="node">
<title>node922</title>
<polygon fill="#3cb4a4" stroke="black" points="475,-763 404.45,-745 475,-727 545.55,-745 475,-763"/>
<text text-anchor="middle" x="475" y="-741.3" font-family="Arial" font-size="14.00" fill="#1a1919">922 IsNull</text>
</g>
<!-- node922&#45;&gt;node2554 -->
<g id="edge15" class="edge">
<title>node922&#45;&gt;node2554</title>
<path fill="none" stroke="#3cb4a4" d="M465.94,-729.19C458.47,-716.98 447.7,-699.37 438.81,-684.84"/>
<polygon fill="#3cb4a4" stroke="#3cb4a4" points="441.77,-682.98 433.57,-676.27 435.8,-686.63 441.77,-682.98"/>
<text text-anchor="middle" x="457" y="-697.8" font-family="arial" font-size="14.00" fill="#3cb4a4">?</text>
</g>
<!-- node1094 -->
<g id="node6" class="node">
<title>node1094</title>
<polygon fill="#e98693" stroke="black" points="452,-603 394,-603 394,-567 452,-567 452,-603"/>
<text text-anchor="middle" x="423" y="-581.3" font-family="Arial" font-size="14.00" fill="#1a1919">1094 If</text>
</g>
<!-- node1096 -->
<g id="node8" class="node">
<title>node1096</title>
<polygon fill="#e98693" stroke="black" points="351.5,-516 266.5,-516 266.5,-480 351.5,-480 351.5,-516"/>
<text text-anchor="middle" x="309" y="-494.3" font-family="Arial" font-size="14.00" fill="#1a1919">1096 Begin</text>
</g>
<!-- node1094&#45;&gt;node1096 -->
<g id="edge5" class="edge">
<title>node1094&#45;&gt;node1096</title>
<path fill="none" stroke="#da2d4f" stroke-width="2" d="M399.93,-566.8C382.7,-553.95 358.97,-536.26 340.07,-522.17"/>
<polygon fill="#da2d4f" stroke="#da2d4f" stroke-width="2" points="342.14,-519.35 332.04,-516.18 337.96,-524.96 342.14,-519.35"/>
<text text-anchor="middle" x="377.5" y="-537.8" font-family="arial" font-size="14.00" fill="#da2d4f">T</text>
</g>
<!-- node1097 -->
<g id="node9" class="node">
<title>node1097</title>
<polygon fill="#e98693" stroke="black" points="465.5,-516 380.5,-516 380.5,-480 465.5,-480 465.5,-516"/>
<text text-anchor="middle" x="423" y="-494.3" font-family="Arial" font-size="14.00" fill="#1a1919">1097 Begin</text>
</g>
<!-- node1094&#45;&gt;node1097 -->
<g id="edge6" class="edge">
<title>node1094&#45;&gt;node1097</title>
<path fill="none" stroke="#da2d4f" stroke-width="2" d="M423,-566.8C423,-555.16 423,-539.55 423,-526.24"/>
<polygon fill="#da2d4f" stroke="#da2d4f" stroke-width="2" points="426.5,-526.18 423,-516.18 419.5,-526.18 426.5,-526.18"/>
<text text-anchor="middle" x="427.5" y="-537.8" font-family="arial" font-size="14.00" fill="#da2d4f">F</text>
</g>
<!-- node1095&#45;&gt;node1094 -->
<g id="edge4" class="edge">
<title>node1095&#45;&gt;node1094</title>
<path fill="none" stroke="#3cb4a4" d="M615.38,-807.99C615.2,-771.01 609.09,-683.16 558,-640 530.23,-616.54 490.98,-602.39 461.95,-594.49"/>
<polygon fill="#3cb4a4" stroke="#3cb4a4" points="462.71,-591.07 452.15,-591.96 460.95,-597.85 462.71,-591.07"/>
<text text-anchor="middle" x="604" y="-697.8" font-family="arial" font-size="14.00" fill="#3cb4a4">?</text>
</g>
<!-- node2562 -->
<g id="node17" class="node">
<title>node2562</title>
<polygon fill="#ffa500" stroke="black" points="279.5,-429 28.5,-429 28.5,-393 279.5,-393 279.5,-429"/>
<text text-anchor="middle" x="154" y="-407.3" font-family="Arial" font-size="14.00" fill="#1a1919">2562 Guard, else TransferToInterpreter</text>
</g>
<!-- node1096&#45;&gt;node2562 -->
<g id="edge8" class="edge">
<title>node1096&#45;&gt;node2562</title>
<path fill="none" stroke="#da2d4f" stroke-width="2" d="M280.94,-479.85C264.51,-469.96 243.26,-457.46 224,-447 215.85,-442.57 207.06,-438.01 198.56,-433.71"/>
<polygon fill="#da2d4f" stroke="#da2d4f" stroke-width="2" points="200,-430.52 189.49,-429.16 196.86,-436.77 200,-430.52"/>
</g>
<!-- node2558 -->
<g id="node16" class="node">
<title>node2558</title>
<polygon fill="#ffa500" stroke="black" points="548.5,-429 297.5,-429 297.5,-393 548.5,-393 548.5,-429"/>
<text text-anchor="middle" x="423" y="-407.3" font-family="Arial" font-size="14.00" fill="#1a1919">2558 Guard, else TransferToInterpreter</text>
</g>
<!-- node1097&#45;&gt;node2558 -->
<g id="edge9" class="edge">
<title>node1097&#45;&gt;node2558</title>
<path fill="none" stroke="#da2d4f" stroke-width="2" d="M423,-479.8C423,-468.16 423,-452.55 423,-439.24"/>
<polygon fill="#da2d4f" stroke="#da2d4f" stroke-width="2" points="426.5,-439.18 423,-429.18 419.5,-439.18 426.5,-439.18"/>
</g>
<!-- node1319 -->
<g id="node10" class="node">
<title>node1319</title>
<polygon fill="#3cb4a4" stroke="black" points="165,-516 103.33,-498 165,-480 226.67,-498 165,-516"/>
<text text-anchor="middle" x="165" y="-494.3" font-family="Arial" font-size="14.00" fill="#1a1919">1319 ==</text>
</g>
<!-- node1319&#45;&gt;node2558 -->
<g id="edge17" class="edge">
<title>node1319&#45;&gt;node2558</title>
<path fill="none" stroke="#3cb4a4" d="M192.61,-487.9C232.63,-474.72 307.81,-449.95 361.41,-432.29"/>
<polygon fill="#3cb4a4" stroke="#3cb4a4" points="362.75,-435.54 371.15,-429.08 360.56,-428.89 362.75,-435.54"/>
<text text-anchor="middle" x="314" y="-450.8" font-family="arial" font-size="14.00" fill="#3cb4a4">?</text>
</g>
<!-- node1319&#45;&gt;node2562 -->
<g id="edge19" class="edge">
<title>node1319&#45;&gt;node2562</title>
<path fill="none" stroke="#3cb4a4" d="M162.88,-480.61C161.37,-468.96 159.31,-453.04 157.55,-439.47"/>
<polygon fill="#3cb4a4" stroke="#3cb4a4" points="160.98,-438.68 156.23,-429.21 154.04,-439.58 160.98,-438.68"/>
<text text-anchor="middle" x="165" y="-450.8" font-family="arial" font-size="14.00" fill="#3cb4a4">?</text>
</g>
<!-- node2303 -->
<g id="node11" class="node">
<title>node2303</title>
<polygon fill="#e98693" stroke="black" points="303.5,-283 214.5,-283 214.5,-247 303.5,-247 303.5,-283"/>
<text text-anchor="middle" x="259" y="-261.3" font-family="Arial" font-size="14.00" fill="#1a1919">2303 Merge</text>
</g>
<!-- node2303&#45;&gt;node2610 -->
<g id="edge21" class="edge">
<title>node2303&#45;&gt;node2610</title>
<path fill="none" stroke="#343d46" stroke-dasharray="5,2" d="M274.43,-237.92C279.93,-228.61 285.99,-218.38 290.93,-210.03"/>
<polygon fill="#343d46" stroke="#343d46" points="271.25,-236.42 269.17,-246.81 277.27,-239.99 271.25,-236.42"/>
</g>
<!-- node2618 -->
<g id="node19" class="node">
<title>node2618</title>
<polygon fill="#f9f9f9" stroke="black" points="357.5,-123 162.5,-123 162.5,-87 357.5,-87 357.5,-123"/>
<text text-anchor="middle" x="260" y="-101.3" font-family="Arial" font-size="14.00" fill="#1a1919">2618 BoxNode$AllocatingBox</text>
</g>
<!-- node2303&#45;&gt;node2618 -->
<g id="edge13" class="edge">
<title>node2303&#45;&gt;node2618</title>
<path fill="none" stroke="#da2d4f" stroke-width="2" d="M259.11,-246.79C259.28,-219.48 259.62,-165.99 259.83,-133.38"/>
<polygon fill="#da2d4f" stroke="#da2d4f" stroke-width="2" points="263.33,-133.21 259.89,-123.19 256.33,-133.17 263.33,-133.21"/>
</g>
<!-- node2305 -->
<g id="node12" class="node">
<title>node2305</title>
<polygon fill="#e98693" stroke="black" points="421,-356 347,-356 347,-320 421,-320 421,-356"/>
<text text-anchor="middle" x="384" y="-334.3" font-family="Arial" font-size="14.00" fill="#1a1919">2305 End</text>
</g>
<!-- node2305&#45;&gt;node2303 -->
<g id="edge11" class="edge">
<title>node2305&#45;&gt;node2303</title>
<path fill="none" stroke="#da2d4f" stroke-width="2" d="M354.06,-319.99C337.33,-310.49 316.28,-298.54 298.25,-288.29"/>
<polygon fill="#da2d4f" stroke="#da2d4f" stroke-width="2" points="299.55,-285.01 289.13,-283.11 296.1,-291.1 299.55,-285.01"/>
</g>
<!-- node2307 -->
<g id="node13" class="node">
<title>node2307</title>
<polygon fill="#e98693" stroke="black" points="218,-356 144,-356 144,-320 218,-320 218,-356"/>
<text text-anchor="middle" x="181" y="-334.3" font-family="Arial" font-size="14.00" fill="#1a1919">2307 End</text>
</g>
<!-- node2307&#45;&gt;node2303 -->
<g id="edge12" class="edge">
<title>node2307&#45;&gt;node2303</title>
<path fill="none" stroke="#da2d4f" stroke-width="2" d="M199.88,-319.81C209.75,-310.83 221.98,-299.69 232.76,-289.89"/>
<polygon fill="#da2d4f" stroke="#da2d4f" stroke-width="2" points="235.25,-292.35 240.29,-283.03 230.54,-287.17 235.25,-292.35"/>
</g>
<!-- node2392 -->
<g id="node14" class="node">
<title>node2392</title>
<polygon fill="#e98693" stroke="black" points="305.5,-36 214.5,-36 214.5,0 305.5,0 305.5,-36"/>
<text text-anchor="middle" x="260" y="-14.3" font-family="Arial" font-size="14.00" fill="#1a1919">2392 Return</text>
</g>
<!-- node2554&#45;&gt;node1094 -->
<g id="edge16" class="edge">
<title>node2554&#45;&gt;node1094</title>
<path fill="none" stroke="#da2d4f" stroke-width="2" d="M423,-639.81C423,-631.79 423,-622.05 423,-613.07"/>
<polygon fill="#da2d4f" stroke="#da2d4f" stroke-width="2" points="426.5,-613.03 423,-603.03 419.5,-613.03 426.5,-613.03"/>
</g>
<!-- node2558&#45;&gt;node2305 -->
<g id="edge18" class="edge">
<title>node2558&#45;&gt;node2305</title>
<path fill="none" stroke="#da2d4f" stroke-width="2" d="M413.56,-392.81C408.96,-384.44 403.33,-374.2 398.23,-364.9"/>
<polygon fill="#da2d4f" stroke="#da2d4f" stroke-width="2" points="401.24,-363.11 393.35,-356.03 395.1,-366.48 401.24,-363.11"/>
</g>
<!-- node2562&#45;&gt;node2307 -->
<g id="edge20" class="edge">
<title>node2562&#45;&gt;node2307</title>
<path fill="none" stroke="#da2d4f" stroke-width="2" d="M160.54,-392.81C163.65,-384.62 167.45,-374.62 170.93,-365.48"/>
<polygon fill="#da2d4f" stroke="#da2d4f" stroke-width="2" points="174.24,-366.62 174.52,-356.03 167.7,-364.13 174.24,-366.62"/>
</g>
<!-- node2610&#45;&gt;node2618 -->
<g id="edge24" class="edge">
<title>node2610&#45;&gt;node2618</title>
<path fill="none" stroke="#3cb4a4" d="M292.7,-173.8C286.98,-161.93 279.26,-145.93 272.76,-132.45"/>
<polygon fill="#3cb4a4" stroke="#3cb4a4" points="275.78,-130.66 268.28,-123.18 269.48,-133.7 275.78,-130.66"/>
<text text-anchor="middle" x="299.5" y="-144.8" font-family="arial" font-size="14.00" fill="#3cb4a4">value</text>
</g>
<!-- node2618&#45;&gt;node2392 -->
<g id="edge14" class="edge">
<title>node2618&#45;&gt;node2392</title>
<path fill="none" stroke="#3cb4a4" d="M245.9,-86.84C242.28,-81.46 238.88,-75.27 237,-69 234.59,-60.93 236.56,-52.49 240.19,-44.89"/>
<polygon fill="#3cb4a4" stroke="#3cb4a4" points="243.29,-46.53 245.25,-36.12 237.22,-43.03 243.29,-46.53"/>
<text text-anchor="middle" x="254" y="-57.8" font-family="arial" font-size="14.00" fill="#3cb4a4">result</text>
</g>
<!-- node2618&#45;&gt;node2392 -->
<g id="edge25" class="edge">
<title>node2618&#45;&gt;node2392</title>
<path fill="none" stroke="#da2d4f" stroke-width="2" d="M266.94,-86.98C270.06,-77.35 272.7,-65.07 271,-54 270.59,-51.32 270.01,-48.56 269.33,-45.83"/>
<polygon fill="#da2d4f" stroke="#da2d4f" stroke-width="2" points="272.69,-44.83 266.55,-36.2 265.96,-46.78 272.69,-44.83"/>
</g>
<!-- node2619&#45;&gt;node534 -->
<g id="edge34" class="edge">
<title>node2619&#45;&gt;node534</title>
<path fill="none" stroke="#da2d4f" stroke-width="2" d="M464.97,-975.86C474.47,-964.99 486.9,-950.75 497.45,-938.67"/>
<polygon fill="#da2d4f" stroke="#da2d4f" stroke-width="2" points="500.12,-940.94 504.06,-931.11 494.84,-936.34 500.12,-940.94"/>
</g>
<!-- inline5x1095 -->
<g id="node21" class="node">
<title>inline5x1095</title>
<ellipse fill="#d7ede7" stroke="black" cx="615" cy="-913" rx="27" ry="18"/>
<text text-anchor="middle" x="615" y="-911.1" font-family="Arial" font-size="8.00" fill="#1a1919">5 C(0)</text>
</g>
<!-- inline5x1095&#45;&gt;node1095 -->
<g id="edge7" class="edge">
<title>inline5x1095&#45;&gt;node1095</title>
<path fill="none" stroke="#3cb4a4" d="M615,-894.8C615,-880.05 615,-858.92 615,-844.18"/>
<text text-anchor="middle" x="617" y="-867.6" font-family="arial" font-size="8.00" fill="#3cb4a4">y</text>
</g>
<!-- inline1317x1319 -->
<g id="node22" class="node">
<title>inline1317x1319</title>
<ellipse fill="#d7ede7" stroke="black" cx="140" cy="-585" rx="86.57" ry="18"/>
<text text-anchor="middle" x="140" y="-583.1" font-family="Arial" font-size="8.00" fill="#1a1919">1317 C(RubyBasicObject@414ae92d)</text>
</g>
<!-- inline1317x1319&#45;&gt;node1319 -->
<g id="edge10" class="edge">
<title>inline1317x1319&#45;&gt;node1319</title>
<path fill="none" stroke="#3cb4a4" d="M145.06,-566.8C149.54,-551.57 156.02,-529.52 160.37,-514.74"/>
<text text-anchor="middle" x="156" y="-539.6" font-family="arial" font-size="8.00" fill="#3cb4a4">y</text>
</g>
<!-- inline125x1319 -->
<g id="node23" class="node">
<title>inline125x1319</title>
<ellipse fill="#d7ede7" stroke="black" cx="272" cy="-585" rx="27.46" ry="18"/>
<text text-anchor="middle" x="272" y="-583.1" font-family="Arial" font-size="8.00" fill="#1a1919">125 T(5)</text>
</g>
<!-- inline125x1319&#45;&gt;node1319 -->
<g id="edge27" class="edge">
<title>inline125x1319&#45;&gt;node1319</title>
<path fill="none" stroke="#3cb4a4" d="M255.28,-570.72C234.94,-554.56 200.86,-527.49 180.9,-511.63"/>
<text text-anchor="middle" x="227" y="-539.6" font-family="arial" font-size="8.00" fill="#3cb4a4">x</text>
</g>
<!-- inline143x922 -->
<g id="node24" class="node">
<title>inline143x922</title>
<ellipse fill="#d7ede7" stroke="black" cx="508" cy="-826" rx="27.46" ry="18"/>
<text text-anchor="middle" x="508" y="-824.1" font-family="Arial" font-size="8.00" fill="#1a1919">143 T(6)</text>
</g>
<!-- inline143x922&#45;&gt;node922 -->
<g id="edge28" class="edge">
<title>inline143x922&#45;&gt;node922</title>
<path fill="none" stroke="#3cb4a4" d="M501,-808.25C495.21,-794.39 487.06,-774.86 481.43,-761.39"/>
<text text-anchor="middle" x="501.5" y="-783.6" font-family="arial" font-size="8.00" fill="#3cb4a4">value</text>
</g>
<!-- inline158x534 -->
<g id="node25" class="node">
<title>inline158x534</title>
<ellipse fill="#d7ede7" stroke="black" cx="552" cy="-994" rx="27.46" ry="18"/>
<text text-anchor="middle" x="552" y="-992.1" font-family="Arial" font-size="8.00" fill="#1a1919">158 T(7)</text>
</g>
<!-- inline158x534&#45;&gt;node534 -->
<g id="edge29" class="edge">
<title>inline158x534&#45;&gt;node534</title>
<path fill="none" stroke="#3cb4a4" d="M545,-976.25C539.44,-962.93 531.69,-944.38 526.1,-931"/>
<text text-anchor="middle" x="545.5" y="-951.6" font-family="arial" font-size="8.00" fill="#3cb4a4">value</text>
</g>
<!-- inline176x693 -->
<g id="node26" class="node">
<title>inline176x693</title>
<ellipse fill="#d7ede7" stroke="black" cx="422" cy="-913" rx="27.46" ry="18"/>
<text text-anchor="middle" x="422" y="-911.1" font-family="Arial" font-size="8.00" fill="#1a1919">176 T(8)</text>
</g>
<!-- inline176x693&#45;&gt;node693 -->
<g id="edge30" class="edge">
<title>inline176x693&#45;&gt;node693</title>
<path fill="none" stroke="#3cb4a4" d="M422,-894.8C422,-880.05 422,-858.92 422,-844.18"/>
<text text-anchor="middle" x="431.5" y="-867.6" font-family="arial" font-size="8.00" fill="#3cb4a4">value</text>
</g>
<!-- inline194x848 -->
<g id="node27" class="node">
<title>inline194x848</title>
<ellipse fill="#d7ede7" stroke="black" cx="336" cy="-826" rx="27.46" ry="18"/>
<text text-anchor="middle" x="336" y="-824.1" font-family="Arial" font-size="8.00" fill="#1a1919">194 T(9)</text>
</g>
<!-- inline194x848&#45;&gt;node848 -->
<g id="edge31" class="edge">
<title>inline194x848&#45;&gt;node848</title>
<path fill="none" stroke="#3cb4a4" d="M337.3,-807.86C338.31,-794.61 339.69,-776.35 340.7,-763.11"/>
<text text-anchor="middle" x="349.5" y="-783.6" font-family="arial" font-size="8.00" fill="#3cb4a4">value</text>
</g>
<!-- inline2x2619 -->
<g id="node28" class="node">
<title>inline2x2619</title>
<ellipse fill="#d7ede7" stroke="black" cx="487" cy="-1075" rx="27" ry="18"/>
<text text-anchor="middle" x="487" y="-1073.1" font-family="Arial" font-size="8.00" fill="#1a1919">2 P(1)</text>
</g>
<!-- inline2x2619&#45;&gt;node2619 -->
<g id="edge32" class="edge">
<title>inline2x2619&#45;&gt;node2619</title>
<path fill="none" stroke="#3cb4a4" d="M479.33,-1057.63C473.11,-1044.34 464.36,-1025.67 458.04,-1012.17"/>
<text text-anchor="middle" x="478.5" y="-1032.6" font-family="arial" font-size="8.00" fill="#3cb4a4">array</text>
</g>
</g>
</svg>
