<?xml version="1.0" encoding="UTF-8" standalone="no"?>
<!DOCTYPE svg PUBLIC "-//W3C//DTD SVG 1.1//EN"
 "http://www.w3.org/Graphics/SVG/1.1/DTD/svg11.dtd">
<!-- Generated by graphviz version 2.44.1 (20200629.0846)
 -->
<!-- Title: G Pages: 1 -->
<svg width="852pt" height="1370pt"
 viewBox="0.00 0.00 852.29 1370.00" xmlns="http://www.w3.org/2000/svg" xmlns:xlink="http://www.w3.org/1999/xlink">
<g id="graph0" class="graph" transform="scale(1 1) rotate(0) translate(4 1366)">
<title>G</title>
<!-- node0 -->
<g id="node1" class="node">
<title>node0</title>
<polygon fill="#e98693" stroke="black" points="316.79,-1362 260.79,-1362 260.79,-1326 316.79,-1326 316.79,-1362"/>
<text text-anchor="middle" x="288.79" y="-1340.3" font-family="Arial" font-size="14.00" fill="#1a1919">0 Start</text>
</g>
<!-- node1872 -->
<g id="node22" class="node">
<title>node1872</title>
<polygon fill="#da2d4f" stroke="black" points="381.29,-1281 268.29,-1281 268.29,-1245 381.29,-1245 381.29,-1281"/>
<text text-anchor="middle" x="324.79" y="-1259.3" font-family="Arial" font-size="14.00" fill="#ffffff">1872 Load T(...)</text>
</g>
<!-- node0&#45;&gt;node1872 -->
<g id="edge37" class="edge">
<title>node0&#45;&gt;node1872</title>
<path fill="none" stroke="#da2d4f" stroke-width="2" d="M296.6,-1325.86C301.31,-1315.51 307.42,-1302.1 312.75,-1290.41"/>
<polygon fill="#da2d4f" stroke="#da2d4f" stroke-width="2" points="316.03,-1291.66 316.99,-1281.11 309.66,-1288.76 316.03,-1291.66"/>
</g>
<!-- node508 -->
<g id="node2" class="node">
<title>node508</title>
<polygon fill="#f9f9f9" stroke="black" points="416.79,-1200 334.79,-1200 334.79,-1164 416.79,-1164 416.79,-1200"/>
<text text-anchor="middle" x="375.79" y="-1178.3" font-family="Arial" font-size="14.00" fill="#1a1919">508 Unbox</text>
</g>
<!-- node512 -->
<g id="node3" class="node">
<title>node512</title>
<polygon fill="#3cb4a4" stroke="black" points="457.79,-1113 403.32,-1095 457.79,-1077 512.25,-1095 457.79,-1113"/>
<text text-anchor="middle" x="457.79" y="-1091.3" font-family="Arial" font-size="14.00" fill="#1a1919">512 ==</text>
</g>
<!-- node508&#45;&gt;node512 -->
<g id="edge2" class="edge">
<title>node508&#45;&gt;node512</title>
<path fill="none" stroke="#3cb4a4" d="M392.38,-1163.8C405.57,-1150.13 424.05,-1130.97 438.01,-1116.5"/>
<polygon fill="#3cb4a4" stroke="#3cb4a4" points="440.81,-1118.64 445.23,-1109.01 435.77,-1113.78 440.81,-1118.64"/>
<text text-anchor="middle" x="424.29" y="-1134.8" font-family="arial" font-size="14.00" fill="#3cb4a4">x</text>
</g>
<!-- node1825 -->
<g id="node14" class="node">
<title>node1825</title>
<polygon fill="#ffa500" stroke="black" points="517.29,-1026 266.29,-1026 266.29,-990 517.29,-990 517.29,-1026"/>
<text text-anchor="middle" x="391.79" y="-1004.3" font-family="Arial" font-size="14.00" fill="#1a1919">1825 Guard, else TransferToInterpreter</text>
</g>
<!-- node508&#45;&gt;node1825 -->
<g id="edge1" class="edge">
<title>node508&#45;&gt;node1825</title>
<path fill="none" stroke="#da2d4f" stroke-width="2" d="M377.38,-1163.88C380.16,-1134 385.91,-1072.11 389.25,-1036.27"/>
<polygon fill="#da2d4f" stroke="#da2d4f" stroke-width="2" points="392.76,-1036.33 390.2,-1026.05 385.79,-1035.68 392.76,-1036.33"/>
</g>
<!-- node512&#45;&gt;node1825 -->
<g id="edge15" class="edge">
<title>node512&#45;&gt;node1825</title>
<path fill="none" stroke="#3cb4a4" d="M447.18,-1080.34C437.53,-1067.91 423.03,-1049.24 411.29,-1034.12"/>
<polygon fill="#3cb4a4" stroke="#3cb4a4" points="414,-1031.9 405.1,-1026.15 408.47,-1036.19 414,-1031.9"/>
<text text-anchor="middle" x="431.79" y="-1047.8" font-family="arial" font-size="14.00" fill="#3cb4a4">?</text>
</g>
<!-- node686 -->
<g id="node4" class="node">
<title>node686</title>
<polygon fill="#f9f9f9" stroke="black" points="552.79,-945 470.79,-945 470.79,-909 552.79,-909 552.79,-945"/>
<text text-anchor="middle" x="511.79" y="-923.3" font-family="Arial" font-size="14.00" fill="#1a1919">686 Unbox</text>
</g>
<!-- node841 -->
<g id="node5" class="node">
<title>node841</title>
<polygon fill="#f9f9f9" stroke="black" points="574.79,-864 492.79,-864 492.79,-828 574.79,-828 574.79,-864"/>
<text text-anchor="middle" x="533.79" y="-842.3" font-family="Arial" font-size="14.00" fill="#1a1919">841 Unbox</text>
</g>
<!-- node686&#45;&gt;node841 -->
<g id="edge4" class="edge">
<title>node686&#45;&gt;node841</title>
<path fill="none" stroke="#da2d4f" stroke-width="2" d="M516.56,-908.86C519.41,-898.61 523.1,-885.37 526.33,-873.76"/>
<polygon fill="#da2d4f" stroke="#da2d4f" stroke-width="2" points="529.71,-874.68 529.02,-864.11 522.97,-872.8 529.71,-874.68"/>
</g>
<!-- node1830 -->
<g id="node15" class="node">
<title>node1830</title>
<polygon fill="#ffa500" stroke="black" points="552.29,-777 301.29,-777 301.29,-741 552.29,-741 552.29,-777"/>
<text text-anchor="middle" x="426.79" y="-755.3" font-family="Arial" font-size="14.00" fill="#1a1919">1830 Guard, else TransferToInterpreter</text>
</g>
<!-- node841&#45;&gt;node1830 -->
<g id="edge5" class="edge">
<title>node841&#45;&gt;node1830</title>
<path fill="none" stroke="#da2d4f" stroke-width="2" d="M512.13,-827.8C496.18,-815.13 474.29,-797.73 456.67,-783.74"/>
<polygon fill="#da2d4f" stroke="#da2d4f" stroke-width="2" points="458.41,-780.66 448.41,-777.18 454.06,-786.14 458.41,-780.66"/>
</g>
<!-- node1860 -->
<g id="node18" class="node">
<title>node1860</title>
<polygon fill="#f9f9f9" stroke="black" points="589.29,-617 394.29,-617 394.29,-581 589.29,-581 589.29,-617"/>
<text text-anchor="middle" x="491.79" y="-595.3" font-family="Arial" font-size="14.00" fill="#1a1919">1860 BoxNode$AllocatingBox</text>
</g>
<!-- node841&#45;&gt;node1860 -->
<g id="edge21" class="edge">
<title>node841&#45;&gt;node1860</title>
<path fill="none" stroke="#3cb4a4" d="M542.58,-827.89C559.12,-793.18 590.69,-712.8 561.79,-654 555.69,-641.6 545.22,-631.24 534.21,-623.02"/>
<polygon fill="#3cb4a4" stroke="#3cb4a4" points="535.96,-619.97 525.75,-617.15 531.97,-625.73 535.96,-619.97"/>
<text text-anchor="middle" x="589.29" y="-711.8" font-family="arial" font-size="14.00" fill="#3cb4a4">value</text>
</g>
<!-- node1871 -->
<g id="node21" class="node">
<title>node1871</title>
<polygon fill="#f9f9f9" stroke="black" points="379.29,-123 184.29,-123 184.29,-87 379.29,-87 379.29,-123"/>
<text text-anchor="middle" x="281.79" y="-101.3" font-family="Arial" font-size="14.00" fill="#1a1919">1871 BoxNode$AllocatingBox</text>
</g>
<!-- node841&#45;&gt;node1871 -->
<g id="edge28" class="edge">
<title>node841&#45;&gt;node1871</title>
<path fill="none" stroke="#3cb4a4" d="M492.68,-830.7C489.68,-829.76 486.69,-828.85 483.79,-828 389.18,-800.47 272.79,-858.53 272.79,-760 272.79,-760 272.79,-760 272.79,-177 272.79,-162.39 274.68,-146.23 276.74,-133.02"/>
<polygon fill="#3cb4a4" stroke="#3cb4a4" points="280.19,-133.58 278.38,-123.14 273.29,-132.43 280.19,-133.58"/>
<text text-anchor="middle" x="289.29" y="-464.8" font-family="arial" font-size="14.00" fill="#3cb4a4">value</text>
</g>
<!-- node915 -->
<g id="node6" class="node">
<title>node915</title>
<polygon fill="#3cb4a4" stroke="black" points="403.79,-864 333.23,-846 403.79,-828 474.34,-846 403.79,-864"/>
<text text-anchor="middle" x="403.79" y="-842.3" font-family="Arial" font-size="14.00" fill="#1a1919">915 IsNull</text>
</g>
<!-- node915&#45;&gt;node1830 -->
<g id="edge17" class="edge">
<title>node915&#45;&gt;node1830</title>
<path fill="none" stroke="#3cb4a4" d="M408.11,-829.01C411.31,-817.21 415.73,-800.86 419.47,-787.04"/>
<polygon fill="#3cb4a4" stroke="#3cb4a4" points="422.93,-787.65 422.16,-777.08 416.17,-785.82 422.93,-787.65"/>
<text text-anchor="middle" x="419.79" y="-798.8" font-family="arial" font-size="14.00" fill="#3cb4a4">?</text>
</g>
<!-- node1303 -->
<g id="node7" class="node">
<title>node1303</title>
<polygon fill="#3cb4a4" stroke="black" points="182.79,-777 121.12,-759 182.79,-741 244.45,-759 182.79,-777"/>
<text text-anchor="middle" x="182.79" y="-755.3" font-family="Arial" font-size="14.00" fill="#1a1919">1303 ==</text>
</g>
<!-- node1835 -->
<g id="node16" class="node">
<title>node1835</title>
<polygon fill="#ffa500" stroke="black" points="552.29,-690 301.29,-690 301.29,-654 552.29,-654 552.29,-690"/>
<text text-anchor="middle" x="426.79" y="-668.3" font-family="Arial" font-size="14.00" fill="#1a1919">1835 Guard, else TransferToInterpreter</text>
</g>
<!-- node1303&#45;&gt;node1835 -->
<g id="edge19" class="edge">
<title>node1303&#45;&gt;node1835</title>
<path fill="none" stroke="#3cb4a4" d="M209.36,-748.74C247.31,-735.52 317.99,-710.9 368.47,-693.32"/>
<polygon fill="#3cb4a4" stroke="#3cb4a4" points="369.67,-696.6 377.96,-690.01 367.37,-689.99 369.67,-696.6"/>
<text text-anchor="middle" x="323.79" y="-711.8" font-family="arial" font-size="14.00" fill="#3cb4a4">?</text>
</g>
<!-- node1779 -->
<g id="node8" class="node">
<title>node1779</title>
<polygon fill="#e98693" stroke="black" points="327.29,-36 236.29,-36 236.29,0 327.29,0 327.29,-36"/>
<text text-anchor="middle" x="281.79" y="-14.3" font-family="Arial" font-size="14.00" fill="#1a1919">1779 Return</text>
</g>
<!-- node1809 -->
<g id="node9" class="node">
<title>node1809</title>
<polygon fill="#da2d4f" stroke="black" points="642.79,-283 352.79,-283 352.79,-247 642.79,-247 642.79,-283"/>
<text text-anchor="middle" x="497.79" y="-261.3" font-family="Arial" font-size="14.00" fill="#ffffff">1809 Call OptimizedCallTarget.callBoundary !</text>
</g>
<!-- node1813 -->
<g id="node11" class="node">
<title>node1813</title>
<polygon fill="#e98693" stroke="black" points="422.29,-196 301.29,-196 301.29,-160 422.29,-160 422.29,-196"/>
<text text-anchor="middle" x="361.79" y="-174.3" font-family="Arial" font-size="14.00" fill="#1a1919">1813 KillingBegin</text>
</g>
<!-- node1809&#45;&gt;node1813 -->
<g id="edge9" class="edge">
<title>node1809&#45;&gt;node1813</title>
<path fill="none" stroke="#da2d4f" stroke-width="2" d="M470.26,-246.8C449.43,-233.78 420.64,-215.78 397.95,-201.6"/>
<polygon fill="#da2d4f" stroke="#da2d4f" stroke-width="2" points="399.6,-198.51 389.27,-196.18 395.89,-204.44 399.6,-198.51"/>
</g>
<!-- node1814 -->
<g id="node12" class="node">
<title>node1814</title>
<polygon fill="#f9f9f9" stroke="black" points="589.29,-196 440.29,-196 440.29,-160 589.29,-160 589.29,-196"/>
<text text-anchor="middle" x="514.79" y="-174.3" font-family="Arial" font-size="14.00" fill="#1a1919">1814 ExceptionObject</text>
</g>
<!-- node1809&#45;&gt;node1814 -->
<g id="edge10" class="edge">
<title>node1809&#45;&gt;node1814</title>
<path fill="none" stroke="#da2d4f" stroke-width="2" d="M501.23,-246.8C503.55,-235.16 506.68,-219.55 509.34,-206.24"/>
<polygon fill="#da2d4f" stroke="#da2d4f" stroke-width="2" points="512.82,-206.67 511.35,-196.18 505.96,-205.29 512.82,-206.67"/>
<text text-anchor="middle" x="528.29" y="-217.8" font-family="arial" font-size="14.00" fill="#da2d4f">unwind</text>
</g>
<!-- node1810 -->
<g id="node10" class="node">
<title>node1810</title>
<polygon fill="#f9f9f9" stroke="black" points="678.29,-356 521.29,-356 521.29,-320 678.29,-320 678.29,-356"/>
<text text-anchor="middle" x="599.79" y="-334.3" font-family="Arial" font-size="14.00" fill="#1a1919">1810 MethodCallTarget</text>
</g>
<!-- node1810&#45;&gt;node1809 -->
<g id="edge8" class="edge">
<title>node1810&#45;&gt;node1809</title>
<path fill="none" stroke="#343d46" stroke-dasharray="5,2" d="M567.11,-314.26C552.6,-304.15 535.8,-292.46 522.37,-283.11"/>
<polygon fill="#343d46" stroke="#343d46" points="565.15,-317.15 575.35,-319.99 569.15,-311.41 565.15,-317.15"/>
</g>
<!-- node1813&#45;&gt;node1871 -->
<g id="edge13" class="edge">
<title>node1813&#45;&gt;node1871</title>
<path fill="none" stroke="#da2d4f" stroke-width="2" d="M342.42,-159.81C332.3,-150.83 319.75,-139.69 308.7,-129.89"/>
<polygon fill="#da2d4f" stroke="#da2d4f" stroke-width="2" points="310.78,-127.05 300.97,-123.03 306.13,-132.28 310.78,-127.05"/>
</g>
<!-- node1819 -->
<g id="node13" class="node">
<title>node1819</title>
<polygon fill="#da2d4f" stroke="black" points="623.29,-123 406.29,-123 406.29,-87 623.29,-87 623.29,-123"/>
<text text-anchor="middle" x="514.79" y="-101.3" font-family="Arial" font-size="14.00" fill="#ffffff">1819 Deopt TransferToInterpreter</text>
</g>
<!-- node1814&#45;&gt;node1819 -->
<g id="edge14" class="edge">
<title>node1814&#45;&gt;node1819</title>
<path fill="none" stroke="#da2d4f" stroke-width="2" d="M514.79,-159.81C514.79,-151.79 514.79,-142.05 514.79,-133.07"/>
<polygon fill="#da2d4f" stroke="#da2d4f" stroke-width="2" points="518.29,-133.03 514.79,-123.03 511.29,-133.03 518.29,-133.03"/>
</g>
<!-- node1825&#45;&gt;node686 -->
<g id="edge16" class="edge">
<title>node1825&#45;&gt;node686</title>
<path fill="none" stroke="#da2d4f" stroke-width="2" d="M417.82,-989.86C435.28,-978.37 458.45,-963.11 477.42,-950.63"/>
<polygon fill="#da2d4f" stroke="#da2d4f" stroke-width="2" points="479.37,-953.53 485.8,-945.11 475.52,-947.68 479.37,-953.53"/>
</g>
<!-- node1830&#45;&gt;node1835 -->
<g id="edge18" class="edge">
<title>node1830&#45;&gt;node1835</title>
<path fill="none" stroke="#da2d4f" stroke-width="2" d="M426.79,-740.8C426.79,-729.16 426.79,-713.55 426.79,-700.24"/>
<polygon fill="#da2d4f" stroke="#da2d4f" stroke-width="2" points="430.29,-700.18 426.79,-690.18 423.29,-700.18 430.29,-700.18"/>
</g>
<!-- node1835&#45;&gt;node1860 -->
<g id="edge20" class="edge">
<title>node1835&#45;&gt;node1860</title>
<path fill="none" stroke="#da2d4f" stroke-width="2" d="M442.52,-653.81C450.58,-645 460.54,-634.13 469.39,-624.46"/>
<polygon fill="#da2d4f" stroke="#da2d4f" stroke-width="2" points="472.03,-626.77 476.2,-617.03 466.86,-622.04 472.03,-626.77"/>
</g>
<!-- node1857 -->
<g id="node17" class="node">
<title>node1857</title>
<polygon fill="#343d46" stroke="black" points="844.29,-617 607.29,-617 607.29,-581 844.29,-581 844.29,-617"/>
<text text-anchor="middle" x="725.79" y="-595.3" font-family="Arial" font-size="14.00" fill="#ffffff">1857 VirtualArray java.lang.Object[8]</text>
</g>
<!-- node1861 -->
<g id="node19" class="node">
<title>node1861</title>
<polygon fill="#da2d4f" stroke="black" points="540.29,-530 461.29,-530 461.29,-494 540.29,-494 540.29,-530"/>
<text text-anchor="middle" x="500.79" y="-508.3" font-family="Arial" font-size="14.00" fill="#ffffff">1861 Alloc</text>
</g>
<!-- node1857&#45;&gt;node1861 -->
<g id="edge23" class="edge">
<title>node1857&#45;&gt;node1861</title>
<path fill="none" stroke="#3cb4a4" d="M677.84,-580.98C662.17,-575.34 644.71,-568.98 628.79,-563 602.68,-553.19 573.73,-541.92 549.97,-532.56"/>
<polygon fill="#3cb4a4" stroke="#3cb4a4" points="551.05,-529.22 540.47,-528.81 548.48,-535.73 551.05,-529.22"/>
<text text-anchor="middle" x="670.29" y="-551.8" font-family="arial" font-size="14.00" fill="#3cb4a4">virtualObjects</text>
</g>
<!-- node1862 -->
<g id="node20" class="node">
<title>node1862</title>
<polygon fill="#343d46" stroke="black" points="798.29,-443 653.29,-443 653.29,-407 798.29,-407 798.29,-443"/>
<text text-anchor="middle" x="725.79" y="-421.3" font-family="Arial" font-size="14.00" fill="#ffffff">1862 AllocatedObject</text>
</g>
<!-- node1857&#45;&gt;node1862 -->
<g id="edge26" class="edge">
<title>node1857&#45;&gt;node1862</title>
<path fill="none" stroke="#3cb4a4" d="M725.79,-580.88C725.79,-551 725.79,-489.11 725.79,-453.27"/>
<polygon fill="#3cb4a4" stroke="#3cb4a4" points="729.29,-453.05 725.79,-443.05 722.29,-453.05 729.29,-453.05"/>
<text text-anchor="middle" x="763.79" y="-508.3" font-family="arial" font-size="14.00" fill="#3cb4a4">virtualObject</text>
</g>
<!-- node1860&#45;&gt;node1861 -->
<g id="edge22" class="edge">
<title>node1860&#45;&gt;node1861</title>
<path fill="none" stroke="#da2d4f" stroke-width="2" d="M489.48,-580.78C488.58,-571.1 488.13,-558.82 489.79,-548 490.2,-545.32 490.78,-542.56 491.46,-539.83"/>
<polygon fill="#da2d4f" stroke="#da2d4f" stroke-width="2" points="494.82,-540.78 494.24,-530.2 488.1,-538.83 494.82,-540.78"/>
</g>
<!-- node1860&#45;&gt;node1861 -->
<g id="edge24" class="edge">
<title>node1860&#45;&gt;node1861</title>
<path fill="none" stroke="#3cb4a4" d="M493.61,-580.8C494.84,-569.16 496.49,-553.55 497.9,-540.24"/>
<polygon fill="#3cb4a4" stroke="#3cb4a4" points="501.39,-540.49 498.97,-530.18 494.43,-539.75 501.39,-540.49"/>
<text text-anchor="middle" x="516.79" y="-551.8" font-family="arial" font-size="14.00" fill="#3cb4a4">values</text>
</g>
<!-- node1861&#45;&gt;node1809 -->
<g id="edge25" class="edge">
<title>node1861&#45;&gt;node1809</title>
<path fill="none" stroke="#da2d4f" stroke-width="2" d="M500.57,-493.77C500.06,-451.86 498.74,-344.31 498.12,-293.44"/>
<polygon fill="#da2d4f" stroke="#da2d4f" stroke-width="2" points="501.62,-293.17 498,-283.21 494.62,-293.25 501.62,-293.17"/>
</g>
<!-- node1861&#45;&gt;node1862 -->
<g id="edge27" class="edge">
<title>node1861&#45;&gt;node1862</title>
<path fill="none" stroke="#3cb4a4" d="M540.49,-496C576.82,-482.28 630.88,-461.85 671.25,-446.6"/>
<polygon fill="#3cb4a4" stroke="#3cb4a4" points="672.56,-449.85 680.68,-443.04 670.09,-443.3 672.56,-449.85"/>
<text text-anchor="middle" x="648.79" y="-464.8" font-family="arial" font-size="14.00" fill="#3cb4a4">commit</text>
</g>
<!-- node1862&#45;&gt;node1810 -->
<g id="edge12" class="edge">
<title>node1862&#45;&gt;node1810</title>
<path fill="none" stroke="#3cb4a4" d="M700.29,-406.8C681.07,-393.84 654.54,-375.94 633.57,-361.79"/>
<polygon fill="#3cb4a4" stroke="#3cb4a4" points="635.49,-358.87 625.25,-356.18 631.58,-364.67 635.49,-358.87"/>
<text text-anchor="middle" x="687.29" y="-377.8" font-family="arial" font-size="14.00" fill="#3cb4a4">arg[1]</text>
</g>
<!-- node1871&#45;&gt;node1779 -->
<g id="edge7" class="edge">
<title>node1871&#45;&gt;node1779</title>
<path fill="none" stroke="#3cb4a4" d="M267.68,-86.84C264.06,-81.46 260.66,-75.27 258.79,-69 256.37,-60.93 258.35,-52.49 261.98,-44.89"/>
<polygon fill="#3cb4a4" stroke="#3cb4a4" points="265.07,-46.53 267.04,-36.12 259.01,-43.03 265.07,-46.53"/>
<text text-anchor="middle" x="275.79" y="-57.8" font-family="arial" font-size="14.00" fill="#3cb4a4">result</text>
</g>
<!-- node1871&#45;&gt;node1779 -->
<g id="edge29" class="edge">
<title>node1871&#45;&gt;node1779</title>
<path fill="none" stroke="#da2d4f" stroke-width="2" d="M288.73,-86.98C291.85,-77.35 294.48,-65.07 292.79,-54 292.37,-51.32 291.8,-48.56 291.12,-45.83"/>
<polygon fill="#da2d4f" stroke="#da2d4f" stroke-width="2" points="294.47,-44.83 288.33,-36.2 287.75,-46.78 294.47,-44.83"/>
</g>
<!-- node1872&#45;&gt;node508 -->
<g id="edge38" class="edge">
<title>node1872&#45;&gt;node508</title>
<path fill="none" stroke="#da2d4f" stroke-width="2" d="M335.85,-1244.86C342.67,-1234.3 351.54,-1220.56 359.19,-1208.71"/>
<polygon fill="#da2d4f" stroke="#da2d4f" stroke-width="2" points="362.26,-1210.41 364.74,-1200.11 356.38,-1206.61 362.26,-1210.41"/>
</g>
<!-- inline5x512 -->
<g id="node23" class="node">
<title>inline5x512</title>
<ellipse fill="#d7ede7" stroke="black" cx="461.79" cy="-1182" rx="27" ry="18"/>
<text text-anchor="middle" x="461.79" y="-1180.1" font-family="Arial" font-size="8.00" fill="#1a1919">5 C(0)</text>
</g>
<!-- inline5x512&#45;&gt;node512 -->
<g id="edge3" class="edge">
<title>inline5x512&#45;&gt;node512</title>
<path fill="none" stroke="#3cb4a4" d="M460.98,-1163.8C460.28,-1148.95 459.27,-1127.64 458.58,-1112.89"/>
<text text-anchor="middle" x="461.79" y="-1136.6" font-family="arial" font-size="8.00" fill="#3cb4a4">y</text>
</g>
<!-- inline1301x1303 -->
<g id="node24" class="node">
<title>inline1301x1303</title>
<ellipse fill="#d7ede7" stroke="black" cx="86.79" cy="-846" rx="86.57" ry="18"/>
<text text-anchor="middle" x="86.79" y="-844.1" font-family="Arial" font-size="8.00" fill="#1a1919">1301 C(RubyBasicObject@5a620041)</text>
</g>
<!-- inline1301x1303&#45;&gt;node1303 -->
<g id="edge6" class="edge">
<title>inline1301x1303&#45;&gt;node1303</title>
<path fill="none" stroke="#3cb4a4" d="M105.75,-828.21C124.11,-811.95 151.55,-787.66 168.24,-772.88"/>
<text text-anchor="middle" x="142.79" y="-800.6" font-family="arial" font-size="8.00" fill="#3cb4a4">y</text>
</g>
<!-- inline1516x1810 -->
<g id="node25" class="node">
<title>inline1516x1810</title>
<ellipse fill="#d7ede7" stroke="black" cx="577.79" cy="-425" rx="57.08" ry="18"/>
<text text-anchor="middle" x="577.79" y="-423.1" font-family="Arial" font-size="8.00" fill="#1a1919">1516 C(Object#escape)</text>
</g>
<!-- inline1516x1810&#45;&gt;node1810 -->
<g id="edge11" class="edge">
<title>inline1516x1810&#45;&gt;node1810</title>
<path fill="none" stroke="#3cb4a4" d="M582.24,-406.8C586.05,-392.05 591.53,-370.92 595.34,-356.18"/>
<text text-anchor="middle" x="600.79" y="-379.6" font-family="arial" font-size="8.00" fill="#3cb4a4">arg[0]</text>
</g>
<!-- inline125x1303 -->
<g id="node26" class="node">
<title>inline125x1303</title>
<ellipse fill="#d7ede7" stroke="black" cx="218.79" cy="-846" rx="27.46" ry="18"/>
<text text-anchor="middle" x="218.79" y="-844.1" font-family="Arial" font-size="8.00" fill="#1a1919">125 T(5)</text>
</g>
<!-- inline125x1303&#45;&gt;node1303 -->
<g id="edge30" class="edge">
<title>inline125x1303&#45;&gt;node1303</title>
<path fill="none" stroke="#3cb4a4" d="M211.67,-828.21C205.16,-812.82 195.59,-790.24 189.28,-775.33"/>
<text text-anchor="middle" x="205.79" y="-800.6" font-family="arial" font-size="8.00" fill="#3cb4a4">x</text>
</g>
<!-- inline125x1861 -->
<g id="node27" class="node">
<title>inline125x1861</title>
<ellipse fill="#d7ede7" stroke="black" cx="348.79" cy="-599" rx="27.46" ry="18"/>
<text text-anchor="middle" x="348.79" y="-597.1" font-family="Arial" font-size="8.00" fill="#1a1919">125 T(5)</text>
</g>
<!-- inline125x1861&#45;&gt;node1861 -->
<g id="edge31" class="edge">
<title>inline125x1861&#45;&gt;node1861</title>
<path fill="none" stroke="#3cb4a4" d="M368.97,-586.71C394.89,-572.22 440.12,-546.92 470.26,-530.07"/>
<text text-anchor="middle" x="445.29" y="-553.6" font-family="arial" font-size="8.00" fill="#3cb4a4">values</text>
</g>
<!-- inline143x915 -->
<g id="node28" class="node">
<title>inline143x915</title>
<ellipse fill="#d7ede7" stroke="black" cx="403.79" cy="-927" rx="27.46" ry="18"/>
<text text-anchor="middle" x="403.79" y="-925.1" font-family="Arial" font-size="8.00" fill="#1a1919">143 T(6)</text>
</g>
<!-- inline143x915&#45;&gt;node915 -->
<g id="edge32" class="edge">
<title>inline143x915&#45;&gt;node915</title>
<path fill="none" stroke="#3cb4a4" d="M403.79,-908.86C403.79,-895.61 403.79,-877.35 403.79,-864.11"/>
<text text-anchor="middle" x="413.29" y="-884.6" font-family="arial" font-size="8.00" fill="#3cb4a4">value</text>
</g>
<!-- inline158x508 -->
<g id="node29" class="node">
<title>inline158x508</title>
<ellipse fill="#d7ede7" stroke="black" cx="426.79" cy="-1263" rx="27.46" ry="18"/>
<text text-anchor="middle" x="426.79" y="-1261.1" font-family="Arial" font-size="8.00" fill="#1a1919">158 T(7)</text>
</g>
<!-- inline158x508&#45;&gt;node508 -->
<g id="edge33" class="edge">
<title>inline158x508&#45;&gt;node508</title>
<path fill="none" stroke="#3cb4a4" d="M416.47,-1246.01C407.85,-1232.67 395.6,-1213.69 386.8,-1200.06"/>
<text text-anchor="middle" x="412.29" y="-1220.6" font-family="arial" font-size="8.00" fill="#3cb4a4">value</text>
</g>
<!-- inline176x686 -->
<g id="node30" class="node">
<title>inline176x686</title>
<ellipse fill="#d7ede7" stroke="black" cx="562.79" cy="-1008" rx="27.46" ry="18"/>
<text text-anchor="middle" x="562.79" y="-1006.1" font-family="Arial" font-size="8.00" fill="#1a1919">176 T(8)</text>
</g>
<!-- inline176x686&#45;&gt;node686 -->
<g id="edge34" class="edge">
<title>inline176x686&#45;&gt;node686</title>
<path fill="none" stroke="#3cb4a4" d="M552.47,-991.01C543.85,-977.67 531.6,-958.69 522.8,-945.06"/>
<text text-anchor="middle" x="548.29" y="-965.6" font-family="arial" font-size="8.00" fill="#3cb4a4">value</text>
</g>
<!-- inline194x841 -->
<g id="node31" class="node">
<title>inline194x841</title>
<ellipse fill="#d7ede7" stroke="black" cx="597.79" cy="-927" rx="27.46" ry="18"/>
<text text-anchor="middle" x="597.79" y="-925.1" font-family="Arial" font-size="8.00" fill="#1a1919">194 T(9)</text>
</g>
<!-- inline194x841&#45;&gt;node841 -->
<g id="edge35" class="edge">
<title>inline194x841&#45;&gt;node841</title>
<path fill="none" stroke="#3cb4a4" d="M585.45,-910.77C574.62,-897.41 558.9,-878 547.64,-864.11"/>
<text text-anchor="middle" x="576.29" y="-884.6" font-family="arial" font-size="8.00" fill="#3cb4a4">value</text>
</g>
<!-- inline2x1872 -->
<g id="node32" class="node">
<title>inline2x1872</title>
<ellipse fill="#d7ede7" stroke="black" cx="361.79" cy="-1344" rx="27" ry="18"/>
<text text-anchor="middle" x="361.79" y="-1342.1" font-family="Arial" font-size="8.00" fill="#1a1919">2 P(1)</text>
</g>
<!-- inline2x1872&#45;&gt;node1872 -->
<g id="edge36" class="edge">
<title>inline2x1872&#45;&gt;node1872</title>
<path fill="none" stroke="#3cb4a4" d="M354.12,-1326.63C347.9,-1313.34 339.15,-1294.67 332.83,-1281.17"/>
<text text-anchor="middle" x="353.29" y="-1301.6" font-family="arial" font-size="8.00" fill="#3cb4a4">array</text>
</g>
</g>
</svg>
