<?xml version="1.0" encoding="UTF-8" standalone="no"?>
<!DOCTYPE svg PUBLIC "-//W3C//DTD SVG 1.1//EN"
 "http://www.w3.org/Graphics/SVG/1.1/DTD/svg11.dtd">
<!-- Generated by graphviz version 2.44.1 (20200629.0846)
 -->
<!-- Title: G Pages: 1 -->
<svg width="584pt" height="1051pt"
 viewBox="0.00 0.00 584.13 1050.77" xmlns="http://www.w3.org/2000/svg" xmlns:xlink="http://www.w3.org/1999/xlink">
<g id="graph0" class="graph" transform="scale(1 1) rotate(0) translate(4 1046.77)">
<title>G</title>
<!-- node0 -->
<g id="node1" class="node">
<title>node0</title>
<polygon fill="#e98693" stroke="black" points="91.5,-1042.77 35.5,-1042.77 35.5,-1006.77 91.5,-1006.77 91.5,-1042.77"/>
<text text-anchor="middle" x="63.5" y="-1021.07" font-family="Arial" font-size="14.00" fill="#1a1919">0 Start</text>
</g>
<!-- node1196 -->
<g id="node13" class="node">
<title>node1196</title>
<polygon fill="#da2d4f" stroke="black" points="155.5,-961.77 43.5,-961.77 43.5,-925.77 155.5,-925.77 155.5,-961.77"/>
<text text-anchor="middle" x="99.5" y="-940.07" font-family="Arial" font-size="14.00" fill="#ffffff">1196 Load T(...)</text>
</g>
<!-- node0&#45;&gt;node1196 -->
<g id="edge22" class="edge">
<title>node0&#45;&gt;node1196</title>
<path fill="none" stroke="#da2d4f" stroke-width="2" d="M71.31,-1006.63C76.03,-996.28 82.14,-982.87 87.46,-971.18"/>
<polygon fill="#da2d4f" stroke="#da2d4f" stroke-width="2" points="90.74,-972.43 91.7,-961.88 84.37,-969.53 90.74,-972.43"/>
</g>
<!-- node787 -->
<g id="node2" class="node">
<title>node787</title>
<polygon fill="#da2d4f" stroke="black" points="299,-880.77 0,-880.77 0,-844.77 299,-844.77 299,-880.77"/>
<text text-anchor="middle" x="149.5" y="-859.07" font-family="Arial" font-size="14.00" fill="#ffffff">787 LoadField RubyDynamicObject.metaClass</text>
</g>
<!-- node843 -->
<g id="node3" class="node">
<title>node843</title>
<polygon fill="#3cb4a4" stroke="black" points="231.5,-793.77 177.04,-775.77 231.5,-757.77 285.96,-775.77 231.5,-793.77"/>
<text text-anchor="middle" x="231.5" y="-772.07" font-family="Arial" font-size="14.00" fill="#1a1919">843 ==</text>
</g>
<!-- node787&#45;&gt;node843 -->
<g id="edge2" class="edge">
<title>node787&#45;&gt;node843</title>
<path fill="none" stroke="#3cb4a4" d="M166.09,-844.57C179.28,-830.9 197.77,-811.74 211.72,-797.27"/>
<polygon fill="#3cb4a4" stroke="#3cb4a4" points="214.52,-799.41 218.95,-789.78 209.49,-794.55 214.52,-799.41"/>
<text text-anchor="middle" x="198" y="-815.57" font-family="arial" font-size="14.00" fill="#3cb4a4">x</text>
</g>
<!-- node1165 -->
<g id="node8" class="node">
<title>node1165</title>
<polygon fill="#ffa500" stroke="black" points="291,-706.77 40,-706.77 40,-670.77 291,-670.77 291,-706.77"/>
<text text-anchor="middle" x="165.5" y="-685.07" font-family="Arial" font-size="14.00" fill="#1a1919">1165 Guard, else TransferToInterpreter</text>
</g>
<!-- node787&#45;&gt;node1165 -->
<g id="edge1" class="edge">
<title>node787&#45;&gt;node1165</title>
<path fill="none" stroke="#da2d4f" stroke-width="2" d="M151.09,-844.65C153.87,-814.77 159.63,-752.88 162.96,-717.04"/>
<polygon fill="#da2d4f" stroke="#da2d4f" stroke-width="2" points="166.47,-717.1 163.91,-706.82 159.5,-716.45 166.47,-717.1"/>
</g>
<!-- node843&#45;&gt;node1165 -->
<g id="edge9" class="edge">
<title>node843&#45;&gt;node1165</title>
<path fill="none" stroke="#3cb4a4" d="M220.9,-761.11C211.24,-748.68 196.75,-730.01 185,-714.89"/>
<polygon fill="#3cb4a4" stroke="#3cb4a4" points="187.71,-712.67 178.81,-706.91 182.18,-716.96 187.71,-712.67"/>
<text text-anchor="middle" x="205.5" y="-728.57" font-family="arial" font-size="14.00" fill="#3cb4a4">?</text>
</g>
<!-- node1053 -->
<g id="node4" class="node">
<title>node1053</title>
<polygon fill="#e98693" stroke="black" points="462,-36 371,-36 371,0 462,0 462,-36"/>
<text text-anchor="middle" x="416.5" y="-14.3" font-family="Arial" font-size="14.00" fill="#1a1919">1053 Return</text>
</g>
<!-- node1110 -->
<g id="node5" class="node">
<title>node1110</title>
<polygon fill="#da2d4f" stroke="black" points="373,-625.38 128,-625.38 128,-589.38 373,-589.38 373,-625.38"/>
<text text-anchor="middle" x="250.5" y="-603.68" font-family="Arial" font-size="14.00" fill="#ffffff">1110 LoadField DynamicObject.shape</text>
</g>
<!-- node1112 -->
<g id="node6" class="node">
<title>node1112</title>
<polygon fill="#3cb4a4" stroke="black" points="375.5,-538 315.51,-520 375.5,-502 435.49,-520 375.5,-538"/>
<text text-anchor="middle" x="375.5" y="-516.3" font-family="Arial" font-size="14.00" fill="#1a1919">1112 ==</text>
</g>
<!-- node1110&#45;&gt;node1112 -->
<g id="edge6" class="edge">
<title>node1110&#45;&gt;node1112</title>
<path fill="none" stroke="#3cb4a4" d="M275.5,-589.31C297.04,-574.6 328.01,-553.44 349.76,-538.58"/>
<polygon fill="#3cb4a4" stroke="#3cb4a4" points="351.9,-541.36 358.18,-532.83 347.95,-535.58 351.9,-541.36"/>
<text text-anchor="middle" x="327" y="-559.8" font-family="arial" font-size="14.00" fill="#3cb4a4">x</text>
</g>
<!-- node1168 -->
<g id="node9" class="node">
<title>node1168</title>
<polygon fill="#ffa500" stroke="black" points="376,-451 125,-451 125,-415 376,-415 376,-451"/>
<text text-anchor="middle" x="250.5" y="-429.3" font-family="Arial" font-size="14.00" fill="#1a1919">1168 Guard, else TransferToInterpreter</text>
</g>
<!-- node1110&#45;&gt;node1168 -->
<g id="edge5" class="edge">
<title>node1110&#45;&gt;node1168</title>
<path fill="none" stroke="#da2d4f" stroke-width="2" d="M250.5,-589.23C250.5,-559.28 250.5,-497.25 250.5,-461.33"/>
<polygon fill="#da2d4f" stroke="#da2d4f" stroke-width="2" points="254,-461.09 250.5,-451.09 247,-461.09 254,-461.09"/>
</g>
<!-- node1112&#45;&gt;node1168 -->
<g id="edge11" class="edge">
<title>node1112&#45;&gt;node1168</title>
<path fill="none" stroke="#3cb4a4" d="M358.12,-507.18C339.12,-494.26 308.21,-473.24 284.38,-457.04"/>
<polygon fill="#3cb4a4" stroke="#3cb4a4" points="286.19,-454.04 275.96,-451.31 282.26,-459.83 286.19,-454.04"/>
<text text-anchor="middle" x="323.5" y="-472.8" font-family="arial" font-size="14.00" fill="#3cb4a4">?</text>
</g>
<!-- node1169 -->
<g id="node10" class="node">
<title>node1169</title>
<polygon fill="#ffa500" stroke="black" points="457,-378 206,-378 206,-342 457,-342 457,-378"/>
<text text-anchor="middle" x="331.5" y="-356.3" font-family="Arial" font-size="14.00" fill="#1a1919">1169 Guard, else TransferToInterpreter</text>
</g>
<!-- node1112&#45;&gt;node1169 -->
<g id="edge13" class="edge">
<title>node1112&#45;&gt;node1169</title>
<path fill="none" stroke="#3cb4a4" d="M381.4,-503.52C388.41,-482.59 397.72,-444.49 385.5,-415 380.74,-403.52 372.23,-393.2 363.35,-384.74"/>
<polygon fill="#3cb4a4" stroke="#3cb4a4" points="365.67,-382.12 355.87,-378.08 361.01,-387.35 365.67,-382.12"/>
<text text-anchor="middle" x="394.5" y="-429.3" font-family="arial" font-size="14.00" fill="#3cb4a4">?</text>
</g>
<!-- node1155 -->
<g id="node7" class="node">
<title>node1155</title>
<polygon fill="#3cb4a4" stroke="black" points="359.5,-210 274.04,-192 359.5,-174 444.96,-192 359.5,-210"/>
<text text-anchor="middle" x="359.5" y="-188.3" font-family="Arial" font-size="14.00" fill="#1a1919">1155 Narrow</text>
</g>
<!-- node1194 -->
<g id="node11" class="node">
<title>node1194</title>
<polygon fill="#f9f9f9" stroke="black" points="513.5,-123 319.5,-123 319.5,-87 513.5,-87 513.5,-123"/>
<text text-anchor="middle" x="416.5" y="-101.3" font-family="Arial" font-size="14.00" fill="#1a1919">1194 BoxNode$AllocatingBox</text>
</g>
<!-- node1155&#45;&gt;node1194 -->
<g id="edge15" class="edge">
<title>node1155&#45;&gt;node1194</title>
<path fill="none" stroke="#3cb4a4" d="M369.69,-175.8C377.91,-163.54 389.66,-146.03 399.32,-131.61"/>
<polygon fill="#3cb4a4" stroke="#3cb4a4" points="402.36,-133.36 405.03,-123.11 396.55,-129.47 402.36,-133.36"/>
<text text-anchor="middle" x="407" y="-144.8" font-family="arial" font-size="14.00" fill="#3cb4a4">value</text>
</g>
<!-- node1165&#45;&gt;node1110 -->
<g id="edge10" class="edge">
<title>node1165&#45;&gt;node1110</title>
<path fill="none" stroke="#da2d4f" stroke-width="2" d="M183.94,-670.54C195.86,-659.41 211.54,-644.77 224.69,-632.49"/>
<polygon fill="#da2d4f" stroke="#da2d4f" stroke-width="2" points="227.17,-634.96 232.09,-625.58 222.39,-629.84 227.17,-634.96"/>
</g>
<!-- node1168&#45;&gt;node1169 -->
<g id="edge12" class="edge">
<title>node1168&#45;&gt;node1169</title>
<path fill="none" stroke="#da2d4f" stroke-width="2" d="M270.11,-414.81C280.36,-405.83 293.06,-394.69 304.25,-384.89"/>
<polygon fill="#da2d4f" stroke="#da2d4f" stroke-width="2" points="306.86,-387.25 312.07,-378.03 302.25,-381.99 306.86,-387.25"/>
</g>
<!-- node1195 -->
<g id="node12" class="node">
<title>node1195</title>
<polygon fill="#da2d4f" stroke="black" points="556,-297 277,-297 277,-261 556,-261 556,-297"/>
<text text-anchor="middle" x="416.5" y="-275.3" font-family="Arial" font-size="14.00" fill="#ffffff">1195 LoadField RubyBasicObject.primitive1</text>
</g>
<!-- node1169&#45;&gt;node1195 -->
<g id="edge14" class="edge">
<title>node1169&#45;&gt;node1195</title>
<path fill="none" stroke="#da2d4f" stroke-width="2" d="M349.94,-341.86C361.86,-330.78 377.54,-316.21 390.69,-303.99"/>
<polygon fill="#da2d4f" stroke="#da2d4f" stroke-width="2" points="393.15,-306.48 398.09,-297.11 388.38,-301.35 393.15,-306.48"/>
</g>
<!-- node1194&#45;&gt;node1053 -->
<g id="edge4" class="edge">
<title>node1194&#45;&gt;node1053</title>
<path fill="none" stroke="#3cb4a4" d="M402.4,-86.84C398.78,-81.46 395.38,-75.27 393.5,-69 391.09,-60.93 393.06,-52.49 396.69,-44.89"/>
<polygon fill="#3cb4a4" stroke="#3cb4a4" points="399.79,-46.53 401.75,-36.12 393.72,-43.03 399.79,-46.53"/>
<text text-anchor="middle" x="410.5" y="-57.8" font-family="arial" font-size="14.00" fill="#3cb4a4">result</text>
</g>
<!-- node1194&#45;&gt;node1053 -->
<g id="edge16" class="edge">
<title>node1194&#45;&gt;node1053</title>
<path fill="none" stroke="#da2d4f" stroke-width="2" d="M423.05,-86.8C424.87,-81.21 426.59,-74.92 427.5,-69 428.67,-61.39 427.79,-53.2 426.11,-45.71"/>
<polygon fill="#da2d4f" stroke="#da2d4f" stroke-width="2" points="429.47,-44.74 423.44,-36.02 422.72,-46.59 429.47,-44.74"/>
</g>
<!-- node1195&#45;&gt;node1155 -->
<g id="edge8" class="edge">
<title>node1195&#45;&gt;node1155</title>
<path fill="none" stroke="#3cb4a4" d="M404.97,-260.8C396.43,-248.07 384.69,-230.57 375.28,-216.54"/>
<polygon fill="#3cb4a4" stroke="#3cb4a4" points="377.97,-214.26 369.49,-207.9 372.16,-218.16 377.97,-214.26"/>
<text text-anchor="middle" x="407" y="-231.8" font-family="arial" font-size="14.00" fill="#3cb4a4">value</text>
</g>
<!-- node1195&#45;&gt;node1194 -->
<g id="edge17" class="edge">
<title>node1195&#45;&gt;node1194</title>
<path fill="none" stroke="#da2d4f" stroke-width="2" d="M428.99,-260.84C437.77,-247.66 448.76,-228.63 453.5,-210 457.45,-194.49 457.45,-189.51 453.5,-174 449.72,-159.16 441.98,-144.06 434.54,-131.87"/>
<polygon fill="#da2d4f" stroke="#da2d4f" stroke-width="2" points="437.32,-129.71 428.99,-123.16 431.42,-133.48 437.32,-129.71"/>
</g>
<!-- node1196&#45;&gt;node787 -->
<g id="edge23" class="edge">
<title>node1196&#45;&gt;node787</title>
<path fill="none" stroke="#da2d4f" stroke-width="2" d="M110.35,-925.63C117.03,-915.07 125.73,-901.33 133.22,-889.48"/>
<polygon fill="#da2d4f" stroke="#da2d4f" stroke-width="2" points="136.28,-891.2 138.67,-880.88 130.37,-887.46 136.28,-891.2"/>
</g>
<!-- inline842x843 -->
<g id="node14" class="node">
<title>inline842x843</title>
<ellipse fill="#d7ede7" stroke="black" cx="388.5" cy="-862.77" rx="71.44" ry="18"/>
<text text-anchor="middle" x="388.5" y="-860.87" font-family="Arial" font-size="8.00" fill="#1a1919">842 C(RubyClass@56cbb949)</text>
</g>
<!-- inline842x843&#45;&gt;node843 -->
<g id="edge3" class="edge">
<title>inline842x843&#45;&gt;node843</title>
<path fill="none" stroke="#3cb4a4" d="M359.7,-846.18C328.19,-829.12 278.52,-802.23 251.18,-787.42"/>
<text text-anchor="middle" x="320.5" y="-817.37" font-family="arial" font-size="8.00" fill="#3cb4a4">y</text>
</g>
<!-- inline1107x1112 -->
<g id="node15" class="node">
<title>inline1107x1112</title>
<ellipse fill="#d7ede7" stroke="black" cx="483.5" cy="-607.38" rx="92.76" ry="18.27"/>
<text text-anchor="middle" x="483.5" y="-609.98" font-family="Arial" font-size="8.00" fill="#1a1919">1107 C(@1a5ae5fa{&quot;@x&quot;:int@0</text>
<text text-anchor="middle" x="483.5" y="-600.98" font-family="Arial" font-size="8.00" fill="#1a1919">})</text>
</g>
<!-- inline1107x1112&#45;&gt;node1112 -->
<g id="edge7" class="edge">
<title>inline1107x1112&#45;&gt;node1112</title>
<path fill="none" stroke="#3cb4a4" d="M461.9,-589.31C440.97,-572.76 409.74,-548.07 391.12,-533.35"/>
<text text-anchor="middle" x="437.5" y="-561.6" font-family="arial" font-size="8.00" fill="#3cb4a4">y</text>
</g>
<!-- inline161x787 -->
<g id="node16" class="node">
<title>inline161x787</title>
<ellipse fill="#d7ede7" stroke="black" cx="200.5" cy="-943.77" rx="27.46" ry="18"/>
<text text-anchor="middle" x="200.5" y="-941.87" font-family="Arial" font-size="8.00" fill="#1a1919">161 T(7)</text>
</g>
<!-- inline161x787&#45;&gt;node787 -->
<g id="edge18" class="edge">
<title>inline161x787&#45;&gt;node787</title>
<path fill="none" stroke="#3cb4a4" d="M190.18,-926.78C181.56,-913.44 169.31,-894.46 160.51,-880.83"/>
<text text-anchor="middle" x="187.5" y="-901.37" font-family="arial" font-size="8.00" fill="#3cb4a4">object</text>
</g>
<!-- inline161x1110 -->
<g id="node17" class="node">
<title>inline161x1110</title>
<ellipse fill="#d7ede7" stroke="black" cx="336.5" cy="-688.77" rx="27.46" ry="18"/>
<text text-anchor="middle" x="336.5" y="-686.87" font-family="Arial" font-size="8.00" fill="#1a1919">161 T(7)</text>
</g>
<!-- inline161x1110&#45;&gt;node1110 -->
<g id="edge19" class="edge">
<title>inline161x1110&#45;&gt;node1110</title>
<path fill="none" stroke="#3cb4a4" d="M321.12,-673.58C306.53,-660.11 284.58,-639.85 269.03,-625.49"/>
<text text-anchor="middle" x="306.5" y="-646.37" font-family="arial" font-size="8.00" fill="#3cb4a4">object</text>
</g>
<!-- inline161x1195 -->
<g id="node18" class="node">
<title>inline161x1195</title>
<ellipse fill="#d7ede7" stroke="black" cx="502.5" cy="-360" rx="27.46" ry="18"/>
<text text-anchor="middle" x="502.5" y="-358.1" font-family="Arial" font-size="8.00" fill="#1a1919">161 T(7)</text>
</g>
<!-- inline161x1195&#45;&gt;node1195 -->
<g id="edge20" class="edge">
<title>inline161x1195&#45;&gt;node1195</title>
<path fill="none" stroke="#3cb4a4" d="M487.12,-344.88C472.53,-331.47 450.58,-311.31 435.03,-297.02"/>
<text text-anchor="middle" x="472.5" y="-317.6" font-family="arial" font-size="8.00" fill="#3cb4a4">object</text>
</g>
<!-- inline2x1196 -->
<g id="node19" class="node">
<title>inline2x1196</title>
<ellipse fill="#d7ede7" stroke="black" cx="136.5" cy="-1024.77" rx="27" ry="18"/>
<text text-anchor="middle" x="136.5" y="-1022.87" font-family="Arial" font-size="8.00" fill="#1a1919">2 P(1)</text>
</g>
<!-- inline2x1196&#45;&gt;node1196 -->
<g id="edge21" class="edge">
<title>inline2x1196&#45;&gt;node1196</title>
<path fill="none" stroke="#3cb4a4" d="M128.83,-1007.4C122.61,-994.11 113.86,-975.43 107.54,-961.94"/>
<text text-anchor="middle" x="128" y="-982.37" font-family="arial" font-size="8.00" fill="#3cb4a4">array</text>
</g>
</g>
</svg>
