<?xml version="1.0" encoding="UTF-8" standalone="no"?>
<!DOCTYPE svg PUBLIC "-//W3C//DTD SVG 1.1//EN"
 "http://www.w3.org/Graphics/SVG/1.1/DTD/svg11.dtd">
<!-- Generated by graphviz version 2.44.0 (20200408.0750)
 -->
<!-- Title: G Pages: 1 -->
<svg width="412pt" height="364pt"
 viewBox="0.00 0.00 411.50 364.00" xmlns="http://www.w3.org/2000/svg" xmlns:xlink="http://www.w3.org/1999/xlink">
<g id="graph0" class="graph" transform="scale(1 1) rotate(0) translate(4 360)">
<title>G</title>
<!-- node0 -->
<g id="node1" class="node">
<title>node0</title>
<polygon fill="#e98693" stroke="black" points="152,-356 96,-356 96,-320 152,-320 152,-356"/>
<text text-anchor="middle" x="124" y="-334.3" font-family="Arial" font-size="14.00" fill="#1a1919">0 Start</text>
</g>
<!-- node3 -->
<g id="node2" class="node">
<title>node3</title>
<polygon fill="#da2d4f" stroke="black" points="248,-283 0,-283 0,-247 248,-247 248,-283"/>
<text text-anchor="middle" x="124" y="-261.3" font-family="Arial" font-size="14.00" fill="#ffffff">3 New JavaExamples$ExampleObject</text>
</g>
<!-- node0&#45;&gt;node3 -->
<g id="edge1" class="edge">
<title>node0&#45;&gt;node3</title>
<path fill="none" stroke="#da2d4f" stroke-width="2" d="M124,-319.81C124,-311.79 124,-302.05 124,-293.07"/>
<polygon fill="#da2d4f" stroke="#da2d4f" stroke-width="2" points="127.5,-293.03 124,-283.03 120.5,-293.03 127.5,-293.03"/>
</g>
<!-- node4 -->
<g id="node3" class="node">
<title>node4</title>
<polygon fill="#f9f9f9" stroke="black" points="330,-196 196,-196 196,-160 330,-160 330,-196"/>
<text text-anchor="middle" x="263" y="-174.3" font-family="Arial" font-size="14.00" fill="#1a1919">4 MethodCallTarget</text>
</g>
<!-- node3&#45;&gt;node4 -->
<g id="edge3" class="edge">
<title>node3&#45;&gt;node4</title>
<path fill="none" stroke="#3cb4a4" d="M152.13,-246.8C173.51,-233.72 203.11,-215.62 226.35,-201.41"/>
<polygon fill="#3cb4a4" stroke="#3cb4a4" points="228.21,-204.38 234.91,-196.18 224.56,-198.41 228.21,-204.38"/>
<text text-anchor="middle" x="219.5" y="-217.8" font-family="arial" font-size="14.00" fill="#3cb4a4">arg[0]</text>
</g>
<!-- node5 -->
<g id="node4" class="node">
<title>node5</title>
<polygon fill="#da2d4f" stroke="black" points="403.5,-109 122.5,-109 122.5,-73 403.5,-73 403.5,-109"/>
<text text-anchor="middle" x="263" y="-87.3" font-family="Arial" font-size="14.00" fill="#ffffff">5 Call JavaExamples$ExampleObject.&lt;init&gt;</text>
</g>
<!-- node3&#45;&gt;node5 -->
<g id="edge2" class="edge">
<title>node3&#45;&gt;node5</title>
<path fill="none" stroke="#da2d4f" stroke-width="2" d="M132.41,-246.78C143.34,-225.28 163.81,-187.94 187,-160 200.45,-143.79 217.82,-127.96 232.55,-115.66"/>
<polygon fill="#da2d4f" stroke="#da2d4f" stroke-width="2" points="234.91,-118.25 240.42,-109.21 230.47,-112.84 234.91,-118.25"/>
</g>
<!-- node7 -->
<g id="node5" class="node">
<title>node7</title>
<polygon fill="#e98693" stroke="black" points="140,-36 72,-36 72,0 140,0 140,-36"/>
<text text-anchor="middle" x="106" y="-14.3" font-family="Arial" font-size="14.00" fill="#1a1919">7 Return</text>
</g>
<!-- node3&#45;&gt;node7 -->
<g id="edge7" class="edge">
<title>node3&#45;&gt;node7</title>
<path fill="none" stroke="#3cb4a4" d="M122.73,-246.77C119.66,-204.86 111.75,-97.31 108.02,-46.44"/>
<polygon fill="#3cb4a4" stroke="#3cb4a4" points="111.49,-45.93 107.26,-36.21 104.51,-46.44 111.49,-45.93"/>
<text text-anchor="middle" x="132" y="-130.8" font-family="arial" font-size="14.00" fill="#3cb4a4">result</text>
</g>
<!-- node4&#45;&gt;node5 -->
<g id="edge5" class="edge">
<title>node4&#45;&gt;node5</title>
<path fill="none" stroke="#343d46" stroke-dasharray="5,2" d="M263,-149.73C263,-136.42 263,-120.81 263,-109.18"/>
<polygon fill="#343d46" stroke="#343d46" points="259.5,-149.8 263,-159.8 266.5,-149.8 259.5,-149.8"/>
</g>
<!-- node5&#45;&gt;node7 -->
<g id="edge6" class="edge">
<title>node5&#45;&gt;node7</title>
<path fill="none" stroke="#da2d4f" stroke-width="2" d="M225.39,-72.99C202.49,-62.64 173.14,-49.36 149.27,-38.57"/>
<polygon fill="#da2d4f" stroke="#da2d4f" stroke-width="2" points="150.64,-35.35 140.09,-34.41 147.76,-41.72 150.64,-35.35"/>
</g>
<!-- inline1x4 -->
<g id="node6" class="node">
<title>inline1x4</title>
<ellipse fill="#d7ede7" stroke="black" cx="293" cy="-265" rx="27" ry="18"/>
<text text-anchor="middle" x="293" y="-263.1" font-family="Arial" font-size="8.00" fill="#1a1919">1 P(0)</text>
</g>
<!-- inline1x4&#45;&gt;node4 -->
<g id="edge4" class="edge">
<title>inline1x4&#45;&gt;node4</title>
<path fill="none" stroke="#3cb4a4" d="M287.07,-247.21C281.85,-232.4 274.27,-210.93 269.02,-196.05"/>
<text text-anchor="middle" x="291" y="-219.6" font-family="arial" font-size="8.00" fill="#3cb4a4">arg[1]</text>
</g>
</g>
</svg>
