<?xml version="1.0" encoding="UTF-8" standalone="no"?>
<!DOCTYPE svg PUBLIC "-//W3C//DTD SVG 1.1//EN"
 "http://www.w3.org/Graphics/SVG/1.1/DTD/svg11.dtd">
<!-- Generated by graphviz version 2.44.0 (20200408.0750)
 -->
<!-- Title: G Pages: 1 -->
<svg width="329pt" height="285pt"
 viewBox="0.00 0.00 329.00 285.00" xmlns="http://www.w3.org/2000/svg" xmlns:xlink="http://www.w3.org/1999/xlink">
<g id="graph0" class="graph" transform="scale(1 1) rotate(0) translate(4 281)">
<title>G</title>
<!-- node0 -->
<g id="node1" class="node">
<title>node0</title>
<polygon fill="#e98693" stroke="black" points="154.5,-196 98.5,-196 98.5,-160 154.5,-160 154.5,-196"/>
<text text-anchor="middle" x="126.5" y="-174.3" font-family="Arial" font-size="14.00" fill="#1a1919">0 Start</text>
</g>
<!-- node5 -->
<g id="node3" class="node">
<title>node5</title>
<polygon fill="#da2d4f" stroke="black" points="321,-123 0,-123 0,-87 321,-87 321,-123"/>
<text text-anchor="middle" x="160.5" y="-101.3" font-family="Arial" font-size="14.00" fill="#ffffff">5 Call JavaExamples$ExampleObject.instanceCall</text>
</g>
<!-- node0&#45;&gt;node5 -->
<g id="edge1" class="edge">
<title>node0&#45;&gt;node5</title>
<path fill="none" stroke="#da2d4f" stroke-width="2" d="M134.73,-159.81C138.7,-151.53 143.54,-141.41 147.96,-132.19"/>
<polygon fill="#da2d4f" stroke="#da2d4f" stroke-width="2" points="151.18,-133.56 152.35,-123.03 144.87,-130.54 151.18,-133.56"/>
</g>
<!-- node4 -->
<g id="node2" class="node">
<title>node4</title>
<polygon fill="#f9f9f9" stroke="black" points="306.5,-196 172.5,-196 172.5,-160 306.5,-160 306.5,-196"/>
<text text-anchor="middle" x="239.5" y="-174.3" font-family="Arial" font-size="14.00" fill="#1a1919">4 MethodCallTarget</text>
</g>
<!-- node4&#45;&gt;node5 -->
<g id="edge4" class="edge">
<title>node4&#45;&gt;node5</title>
<path fill="none" stroke="#343d46" stroke-dasharray="5,2" d="M212.73,-152.94C201.8,-143.12 189.41,-131.99 179.45,-123.03"/>
<polygon fill="#343d46" stroke="#343d46" points="210.6,-155.73 220.38,-159.81 215.28,-150.53 210.6,-155.73"/>
</g>
<!-- node7 -->
<g id="node4" class="node">
<title>node7</title>
<polygon fill="#e98693" stroke="black" points="194.5,-36 126.5,-36 126.5,0 194.5,0 194.5,-36"/>
<text text-anchor="middle" x="160.5" y="-14.3" font-family="Arial" font-size="14.00" fill="#1a1919">7 Return</text>
</g>
<!-- node5&#45;&gt;node7 -->
<g id="edge5" class="edge">
<title>node5&#45;&gt;node7</title>
<path fill="none" stroke="#da2d4f" stroke-width="2" d="M159.33,-86.92C158.99,-81.22 158.67,-74.84 158.5,-69 158.29,-61.65 158.44,-53.69 158.73,-46.33"/>
<polygon fill="#da2d4f" stroke="#da2d4f" stroke-width="2" points="162.24,-46.28 159.23,-36.12 155.24,-45.94 162.24,-46.28"/>
</g>
<!-- node5&#45;&gt;node7 -->
<g id="edge6" class="edge">
<title>node5&#45;&gt;node7</title>
<path fill="none" stroke="#3cb4a4" d="M160.5,-86.8C160.5,-75.16 160.5,-59.55 160.5,-46.24"/>
<polygon fill="#3cb4a4" stroke="#3cb4a4" points="164,-46.18 160.5,-36.18 157,-46.18 164,-46.18"/>
<text text-anchor="middle" x="177.5" y="-57.8" font-family="arial" font-size="14.00" fill="#3cb4a4">result</text>
</g>
<!-- inline1x4 -->
<g id="node5" class="node">
<title>inline1x4</title>
<ellipse fill="#d7ede7" stroke="black" cx="203.5" cy="-259" rx="27" ry="18"/>
<text text-anchor="middle" x="203.5" y="-257.1" font-family="Arial" font-size="8.00" fill="#1a1919">1 P(0)</text>
</g>
<!-- inline1x4&#45;&gt;node4 -->
<g id="edge2" class="edge">
<title>inline1x4&#45;&gt;node4</title>
<path fill="none" stroke="#3cb4a4" d="M210.96,-241.63C217.01,-228.34 225.53,-209.67 231.68,-196.17"/>
<text text-anchor="middle" x="233.5" y="-216.6" font-family="arial" font-size="8.00" fill="#3cb4a4">arg[0]</text>
</g>
<!-- inline2x4 -->
<g id="node6" class="node">
<title>inline2x4</title>
<ellipse fill="#d7ede7" stroke="black" cx="275.5" cy="-259" rx="27" ry="18"/>
<text text-anchor="middle" x="275.5" y="-257.1" font-family="Arial" font-size="8.00" fill="#1a1919">2 P(1)</text>
</g>
<!-- inline2x4&#45;&gt;node4 -->
<g id="edge3" class="edge">
<title>inline2x4&#45;&gt;node4</title>
<path fill="none" stroke="#3cb4a4" d="M268.04,-241.63C261.99,-228.34 253.47,-209.67 247.32,-196.17"/>
<text text-anchor="middle" x="269.5" y="-216.6" font-family="arial" font-size="8.00" fill="#3cb4a4">arg[1]</text>
</g>
</g>
</svg>
