<?xml version="1.0" encoding="UTF-8" standalone="no"?>
<!DOCTYPE svg PUBLIC "-//W3C//DTD SVG 1.1//EN"
 "http://www.w3.org/Graphics/SVG/1.1/DTD/svg11.dtd">
<!-- Generated by graphviz version 2.44.1 (20200629.0846)
 -->
<!-- Title: G Pages: 1 -->
<svg width="1362pt" height="1629pt"
 viewBox="0.00 0.00 1361.51 1629.00" xmlns="http://www.w3.org/2000/svg" xmlns:xlink="http://www.w3.org/1999/xlink">
<g id="graph0" class="graph" transform="scale(1 1) rotate(0) translate(4 1625)">
<title>G</title>
<!-- node0 -->
<g id="node1" class="node">
<title>node0</title>
<polygon fill="#e98693" stroke="black" points="56,-1621 0,-1621 0,-1585 56,-1585 56,-1621"/>
<text text-anchor="middle" x="28" y="-1599.3" font-family="Arial" font-size="14.00" fill="#1a1919">0 Start</text>
</g>
<!-- node2133 -->
<g id="node31" class="node">
<title>node2133</title>
<polygon fill="#da2d4f" stroke="black" points="120.5,-1540 7.5,-1540 7.5,-1504 120.5,-1504 120.5,-1540"/>
<text text-anchor="middle" x="64" y="-1518.3" font-family="Arial" font-size="14.00" fill="#ffffff">2133 Load T(...)</text>
</g>
<!-- node0&#45;&gt;node2133 -->
<g id="edge51" class="edge">
<title>node0&#45;&gt;node2133</title>
<path fill="none" stroke="#da2d4f" stroke-width="2" d="M35.81,-1584.86C40.53,-1574.51 46.64,-1561.1 51.96,-1549.41"/>
<polygon fill="#da2d4f" stroke="#da2d4f" stroke-width="2" points="55.24,-1550.66 56.2,-1540.11 48.87,-1547.76 55.24,-1550.66"/>
</g>
<!-- node545 -->
<g id="node2" class="node">
<title>node545</title>
<polygon fill="#f9f9f9" stroke="black" points="173,-1459 91,-1459 91,-1423 173,-1423 173,-1459"/>
<text text-anchor="middle" x="132" y="-1437.3" font-family="Arial" font-size="14.00" fill="#1a1919">545 Unbox</text>
</g>
<!-- node616 -->
<g id="node3" class="node">
<title>node616</title>
<polygon fill="#ffa500" stroke="black" points="558,-1372 320,-1372 320,-1336 558,-1336 558,-1372"/>
<text text-anchor="middle" x="439" y="-1350.3" font-family="Arial" font-size="14.00" fill="#1a1919">616 Guard, else ClassCastException</text>
</g>
<!-- node545&#45;&gt;node616 -->
<g id="edge1" class="edge">
<title>node545&#45;&gt;node616</title>
<path fill="none" stroke="#da2d4f" stroke-width="2" d="M158.81,-1422.9C177.29,-1411.88 202.79,-1398.13 227,-1390 243.29,-1384.53 275.33,-1378.46 309.66,-1372.93"/>
<polygon fill="#da2d4f" stroke="#da2d4f" stroke-width="2" points="310.55,-1376.34 319.88,-1371.31 309.46,-1369.42 310.55,-1376.34"/>
</g>
<!-- node2112 -->
<g id="node25" class="node">
<title>node2112</title>
<polygon fill="#f9f9f9" stroke="black" points="601.5,-123 544.5,-123 544.5,-87 601.5,-87 601.5,-123"/>
<text text-anchor="middle" x="573" y="-101.3" font-family="Arial" font-size="14.00" fill="#1a1919">2112 ϕ</text>
</g>
<!-- node545&#45;&gt;node2112 -->
<g id="edge34" class="edge">
<title>node545&#45;&gt;node2112</title>
<path fill="none" stroke="#3cb4a4" d="M118.12,-1422.92C106.22,-1406.53 91,-1380.56 91,-1355 91,-1355 91,-1355 91,-191 91,-168.55 419.68,-125.21 534.21,-110.8"/>
<polygon fill="#3cb4a4" stroke="#3cb4a4" points="534.81,-114.25 544.29,-109.53 533.93,-107.3 534.81,-114.25"/>
<text text-anchor="middle" x="118.5" y="-769.3" font-family="arial" font-size="14.00" fill="#3cb4a4">from 830</text>
</g>
<!-- node2132 -->
<g id="node30" class="node">
<title>node2132</title>
<polygon fill="#f9f9f9" stroke="black" points="397.5,-878 202.5,-878 202.5,-842 397.5,-842 397.5,-878"/>
<text text-anchor="middle" x="300" y="-856.3" font-family="Arial" font-size="14.00" fill="#1a1919">2132 BoxNode$AllocatingBox</text>
</g>
<!-- node545&#45;&gt;node2132 -->
<g id="edge43" class="edge">
<title>node545&#45;&gt;node2132</title>
<path fill="none" stroke="#3cb4a4" d="M132,-1422.74C132,-1405.57 132,-1378.46 132,-1355 132,-1355 132,-1355 132,-946 132,-912.08 159.6,-891.7 192.42,-879.45"/>
<polygon fill="#3cb4a4" stroke="#3cb4a4" points="193.96,-882.62 202.27,-876.05 191.68,-876 193.96,-882.62"/>
<text text-anchor="middle" x="148.5" y="-1146.8" font-family="arial" font-size="14.00" fill="#3cb4a4">value</text>
</g>
<!-- node2093 -->
<g id="node23" class="node">
<title>node2093</title>
<polygon fill="#ffa500" stroke="black" points="439.5,-1285 188.5,-1285 188.5,-1249 439.5,-1249 439.5,-1285"/>
<text text-anchor="middle" x="314" y="-1263.3" font-family="Arial" font-size="14.00" fill="#1a1919">2093 Guard, else TransferToInterpreter</text>
</g>
<!-- node616&#45;&gt;node2093 -->
<g id="edge3" class="edge">
<title>node616&#45;&gt;node2093</title>
<path fill="none" stroke="#da2d4f" stroke-width="2" d="M413.7,-1335.8C394.73,-1322.9 368.56,-1305.1 347.79,-1290.98"/>
<polygon fill="#da2d4f" stroke="#da2d4f" stroke-width="2" points="349.5,-1287.9 339.26,-1285.18 345.56,-1293.69 349.5,-1287.9"/>
</g>
<!-- node617 -->
<g id="node4" class="node">
<title>node617</title>
<polygon fill="#f9f9f9" stroke="black" points="598.5,-1459 279.5,-1459 279.5,-1423 598.5,-1423 598.5,-1459"/>
<text text-anchor="middle" x="439" y="-1437.3" font-family="Arial" font-size="14.00" fill="#1a1919">617 InstanceOf org/truffleruby/core/proc/RubyProc</text>
</g>
<!-- node617&#45;&gt;node616 -->
<g id="edge2" class="edge">
<title>node617&#45;&gt;node616</title>
<path fill="none" stroke="#3cb4a4" d="M439,-1422.8C439,-1411.16 439,-1395.55 439,-1382.24"/>
<polygon fill="#3cb4a4" stroke="#3cb4a4" points="442.5,-1382.18 439,-1372.18 435.5,-1382.18 442.5,-1382.18"/>
<text text-anchor="middle" x="443" y="-1393.8" font-family="arial" font-size="14.00" fill="#3cb4a4">?</text>
</g>
<!-- node623 -->
<g id="node5" class="node">
<title>node623</title>
<polygon fill="#3cb4a4" stroke="black" points="231,-1372 160.45,-1354 231,-1336 301.55,-1354 231,-1372"/>
<text text-anchor="middle" x="231" y="-1350.3" font-family="Arial" font-size="14.00" fill="#1a1919">623 IsNull</text>
</g>
<!-- node623&#45;&gt;node2093 -->
<g id="edge29" class="edge">
<title>node623&#45;&gt;node2093</title>
<path fill="none" stroke="#3cb4a4" d="M244.34,-1339.34C256.59,-1326.79 275.04,-1307.89 289.88,-1292.7"/>
<polygon fill="#3cb4a4" stroke="#3cb4a4" points="292.78,-1294.75 297.26,-1285.15 287.77,-1289.85 292.78,-1294.75"/>
<text text-anchor="middle" x="281" y="-1306.8" font-family="arial" font-size="14.00" fill="#3cb4a4">?</text>
</g>
<!-- node830 -->
<g id="node6" class="node">
<title>node830</title>
<polygon fill="#e98693" stroke="black" points="347.5,-1212 280.5,-1212 280.5,-1176 347.5,-1176 347.5,-1212"/>
<text text-anchor="middle" x="314" y="-1190.3" font-family="Arial" font-size="14.00" fill="#1a1919">830 End</text>
</g>
<!-- node831 -->
<g id="node7" class="node">
<title>node831</title>
<polygon fill="#e98693" stroke="black" points="367.5,-1125 260.5,-1125 260.5,-1089 367.5,-1089 367.5,-1125"/>
<text text-anchor="middle" x="314" y="-1103.3" font-family="Arial" font-size="14.00" fill="#1a1919">831 LoopBegin</text>
</g>
<!-- node830&#45;&gt;node831 -->
<g id="edge4" class="edge">
<title>node830&#45;&gt;node831</title>
<path fill="none" stroke="#da2d4f" stroke-width="2" d="M314,-1175.8C314,-1164.16 314,-1148.55 314,-1135.24"/>
<polygon fill="#da2d4f" stroke="#da2d4f" stroke-width="2" points="317.5,-1135.18 314,-1125.18 310.5,-1135.18 317.5,-1135.18"/>
</g>
<!-- node1048 -->
<g id="node9" class="node">
<title>node1048</title>
<polygon fill="#e98693" stroke="black" points="317,-1052 259,-1052 259,-1016 317,-1016 317,-1052"/>
<text text-anchor="middle" x="288" y="-1030.3" font-family="Arial" font-size="14.00" fill="#1a1919">1048 If</text>
</g>
<!-- node831&#45;&gt;node1048 -->
<g id="edge5" class="edge">
<title>node831&#45;&gt;node1048</title>
<path fill="none" stroke="#da2d4f" stroke-width="2" d="M307.71,-1088.81C304.7,-1080.62 301.05,-1070.62 297.7,-1061.48"/>
<polygon fill="#da2d4f" stroke="#da2d4f" stroke-width="2" points="300.96,-1060.22 294.24,-1052.03 294.39,-1062.62 300.96,-1060.22"/>
</g>
<!-- node831&#45;&gt;node2112 -->
<g id="edge33" class="edge">
<title>node831&#45;&gt;node2112</title>
<path fill="none" stroke="#343d46" stroke-dasharray="5,2" d="M377.35,-1093.57C407.47,-1083.59 437,-1065.93 437,-1035 437,-1035 437,-1035 437,-191 437,-140.74 504.61,-119.1 544.49,-110.7"/>
<polygon fill="#343d46" stroke="#343d46" points="376.14,-1090.28 367.59,-1096.54 378.18,-1096.97 376.14,-1090.28"/>
</g>
<!-- node1009 -->
<g id="node8" class="node">
<title>node1009</title>
<polygon fill="#3cb4a4" stroke="black" points="364,-36 309.54,-18 364,0 418.46,-18 364,-36"/>
<text text-anchor="middle" x="364" y="-14.3" font-family="Arial" font-size="14.00" fill="#1a1919">1009 &lt;</text>
</g>
<!-- node1009&#45;&gt;node1048 -->
<g id="edge8" class="edge">
<title>node1009&#45;&gt;node1048</title>
<path fill="none" stroke="#3cb4a4" d="M316.55,-20.33C260.27,-24.74 174,-41.66 174,-104 174,-948 174,-948 174,-948 174,-986.54 216.38,-1009.68 249.46,-1021.87"/>
<polygon fill="#3cb4a4" stroke="#3cb4a4" points="248.34,-1025.19 258.94,-1025.17 250.64,-1018.58 248.34,-1025.19"/>
<text text-anchor="middle" x="178" y="-508.3" font-family="arial" font-size="14.00" fill="#3cb4a4">?</text>
</g>
<!-- node1051 -->
<g id="node10" class="node">
<title>node1051</title>
<polygon fill="#e98693" stroke="black" points="408.5,-965 323.5,-965 323.5,-929 408.5,-929 408.5,-965"/>
<text text-anchor="middle" x="366" y="-943.3" font-family="Arial" font-size="14.00" fill="#1a1919">1051 Begin</text>
</g>
<!-- node1048&#45;&gt;node1051 -->
<g id="edge10" class="edge">
<title>node1048&#45;&gt;node1051</title>
<path fill="none" stroke="#da2d4f" stroke-width="2" d="M303.78,-1015.8C315.1,-1003.47 330.51,-986.68 343.16,-972.89"/>
<polygon fill="#da2d4f" stroke="#da2d4f" stroke-width="2" points="346.06,-974.91 350.24,-965.18 340.9,-970.18 346.06,-974.91"/>
<text text-anchor="middle" x="335.5" y="-986.8" font-family="arial" font-size="14.00" fill="#da2d4f">F</text>
</g>
<!-- node1943 -->
<g id="node15" class="node">
<title>node1943</title>
<polygon fill="#e98693" stroke="black" points="305.5,-965 202.5,-965 202.5,-929 305.5,-929 305.5,-965"/>
<text text-anchor="middle" x="254" y="-943.3" font-family="Arial" font-size="14.00" fill="#1a1919">1943 LoopExit</text>
</g>
<!-- node1048&#45;&gt;node1943 -->
<g id="edge9" class="edge">
<title>node1048&#45;&gt;node1943</title>
<path fill="none" stroke="#da2d4f" stroke-width="2" d="M281.12,-1015.8C276.42,-1004.05 270.1,-988.24 264.74,-974.84"/>
<polygon fill="#da2d4f" stroke="#da2d4f" stroke-width="2" points="267.83,-973.16 260.87,-965.18 261.33,-975.76 267.83,-973.16"/>
<text text-anchor="middle" x="277.5" y="-986.8" font-family="arial" font-size="14.00" fill="#da2d4f">T</text>
</g>
<!-- node2098 -->
<g id="node24" class="node">
<title>node2098</title>
<polygon fill="#ffa500" stroke="black" points="759.5,-878 508.5,-878 508.5,-842 759.5,-842 759.5,-878"/>
<text text-anchor="middle" x="634" y="-856.3" font-family="Arial" font-size="14.00" fill="#1a1919">2098 Guard, else TransferToInterpreter</text>
</g>
<!-- node1051&#45;&gt;node2098 -->
<g id="edge11" class="edge">
<title>node1051&#45;&gt;node2098</title>
<path fill="none" stroke="#da2d4f" stroke-width="2" d="M408.76,-932.44C452.4,-918.6 520.63,-896.96 570.57,-881.12"/>
<polygon fill="#da2d4f" stroke="#da2d4f" stroke-width="2" points="571.83,-884.39 580.3,-878.03 569.71,-877.72 571.83,-884.39"/>
</g>
<!-- node1279 -->
<g id="node11" class="node">
<title>node1279</title>
<polygon fill="#3cb4a4" stroke="black" points="634,-965 572.33,-947 634,-929 695.67,-947 634,-965"/>
<text text-anchor="middle" x="634" y="-943.3" font-family="Arial" font-size="14.00" fill="#1a1919">1279 ==</text>
</g>
<!-- node1279&#45;&gt;node2098 -->
<g id="edge31" class="edge">
<title>node1279&#45;&gt;node2098</title>
<path fill="none" stroke="#3cb4a4" d="M634,-928.8C634,-917.16 634,-901.55 634,-888.24"/>
<polygon fill="#3cb4a4" stroke="#3cb4a4" points="637.5,-888.18 634,-878.18 630.5,-888.18 637.5,-888.18"/>
<text text-anchor="middle" x="638" y="-899.8" font-family="arial" font-size="14.00" fill="#3cb4a4">?</text>
</g>
<!-- node1843 -->
<g id="node12" class="node">
<title>node1843</title>
<polygon fill="#ffa500" stroke="black" points="1299,-297 1033,-297 1033,-261 1299,-261 1299,-297"/>
<text text-anchor="middle" x="1166" y="-275.3" font-family="Arial" font-size="14.00" fill="#1a1919">1843 Guard not, else ArithmeticException</text>
</g>
<!-- node1846 -->
<g id="node14" class="node">
<title>node1846</title>
<polygon fill="#3cb4a4" stroke="black" points="603,-210 465.25,-192 603,-174 740.75,-192 603,-210"/>
<text text-anchor="middle" x="603" y="-188.3" font-family="Arial" font-size="14.00" fill="#1a1919">1846 IntegerSubExact</text>
</g>
<!-- node1843&#45;&gt;node1846 -->
<g id="edge19" class="edge">
<title>node1843&#45;&gt;node1846</title>
<path fill="none" stroke="#3cb4a4" d="M1053.08,-260.95C939.88,-243.86 769.1,-218.08 673.76,-203.68"/>
<polygon fill="#3cb4a4" stroke="#3cb4a4" points="674.05,-200.19 663.64,-202.16 673.01,-207.11 674.05,-200.19"/>
<text text-anchor="middle" x="935.5" y="-231.8" font-family="arial" font-size="14.00" fill="#3cb4a4">guard</text>
</g>
<!-- node1948 -->
<g id="node16" class="node">
<title>node1948</title>
<polygon fill="#e98693" stroke="black" points="1138,-210 1034,-210 1034,-174 1138,-174 1138,-210"/>
<text text-anchor="middle" x="1086" y="-188.3" font-family="Arial" font-size="14.00" fill="#1a1919">1948 LoopEnd</text>
</g>
<!-- node1843&#45;&gt;node1948 -->
<g id="edge14" class="edge">
<title>node1843&#45;&gt;node1948</title>
<path fill="none" stroke="#da2d4f" stroke-width="2" d="M1149.81,-260.8C1138.1,-248.36 1122.11,-231.36 1109.06,-217.5"/>
<polygon fill="#da2d4f" stroke="#da2d4f" stroke-width="2" points="1111.57,-215.06 1102.17,-210.18 1106.47,-219.86 1111.57,-215.06"/>
</g>
<!-- node1844 -->
<g id="node13" class="node">
<title>node1844</title>
<polygon fill="#3cb4a4" stroke="black" points="1166,-36 978.48,-18 1166,0 1353.52,-18 1166,-36"/>
<text text-anchor="middle" x="1166" y="-14.3" font-family="Arial" font-size="14.00" fill="#1a1919">1844 IntegerSubExactOverflow</text>
</g>
<!-- node1844&#45;&gt;node1843 -->
<g id="edge13" class="edge">
<title>node1844&#45;&gt;node1843</title>
<path fill="none" stroke="#3cb4a4" d="M1166,-36.32C1166,-80.38 1166,-197.01 1166,-250.49"/>
<polygon fill="#3cb4a4" stroke="#3cb4a4" points="1162.5,-250.6 1166,-260.6 1169.5,-250.6 1162.5,-250.6"/>
<text text-anchor="middle" x="1170" y="-144.8" font-family="arial" font-size="14.00" fill="#3cb4a4">?</text>
</g>
<!-- node1846&#45;&gt;node2112 -->
<g id="edge35" class="edge">
<title>node1846&#45;&gt;node2112</title>
<path fill="none" stroke="#3cb4a4" d="M597.22,-174.61C593.02,-162.73 587.26,-146.41 582.41,-132.67"/>
<polygon fill="#3cb4a4" stroke="#3cb4a4" points="585.7,-131.48 579.08,-123.21 579.1,-133.81 585.7,-131.48"/>
<text text-anchor="middle" x="620" y="-144.8" font-family="arial" font-size="14.00" fill="#3cb4a4">from 1948</text>
</g>
<!-- node1943&#45;&gt;node2132 -->
<g id="edge20" class="edge">
<title>node1943&#45;&gt;node2132</title>
<path fill="none" stroke="#da2d4f" stroke-width="2" d="M263.31,-928.8C269.79,-916.82 278.56,-900.62 285.9,-887.06"/>
<polygon fill="#da2d4f" stroke="#da2d4f" stroke-width="2" points="289.02,-888.64 290.71,-878.18 282.87,-885.3 289.02,-888.64"/>
</g>
<!-- node2044 -->
<g id="node17" class="node">
<title>node2044</title>
<polygon fill="#e98693" stroke="black" points="346.5,-791 255.5,-791 255.5,-755 346.5,-755 346.5,-791"/>
<text text-anchor="middle" x="301" y="-769.3" font-family="Arial" font-size="14.00" fill="#1a1919">2044 Return</text>
</g>
<!-- node2076 -->
<g id="node18" class="node">
<title>node2076</title>
<polygon fill="#da2d4f" stroke="black" points="1241,-457 951,-457 951,-421 1241,-421 1241,-457"/>
<text text-anchor="middle" x="1096" y="-435.3" font-family="Arial" font-size="14.00" fill="#ffffff">2076 Call OptimizedCallTarget.callBoundary !</text>
</g>
<!-- node2080 -->
<g id="node20" class="node">
<title>node2080</title>
<polygon fill="#e98693" stroke="black" points="1196.5,-370 1075.5,-370 1075.5,-334 1196.5,-334 1196.5,-370"/>
<text text-anchor="middle" x="1136" y="-348.3" font-family="Arial" font-size="14.00" fill="#1a1919">2080 KillingBegin</text>
</g>
<!-- node2076&#45;&gt;node2080 -->
<g id="edge23" class="edge">
<title>node2076&#45;&gt;node2080</title>
<path fill="none" stroke="#da2d4f" stroke-width="2" d="M1104.09,-420.8C1109.68,-408.93 1117.21,-392.93 1123.55,-379.45"/>
<polygon fill="#da2d4f" stroke="#da2d4f" stroke-width="2" points="1126.83,-380.71 1127.92,-370.18 1120.49,-377.73 1126.83,-380.71"/>
</g>
<!-- node2081 -->
<g id="node21" class="node">
<title>node2081</title>
<polygon fill="#f9f9f9" stroke="black" points="1043.5,-370 894.5,-370 894.5,-334 1043.5,-334 1043.5,-370"/>
<text text-anchor="middle" x="969" y="-348.3" font-family="Arial" font-size="14.00" fill="#1a1919">2081 ExceptionObject</text>
</g>
<!-- node2076&#45;&gt;node2081 -->
<g id="edge24" class="edge">
<title>node2076&#45;&gt;node2081</title>
<path fill="none" stroke="#da2d4f" stroke-width="2" d="M1070.3,-420.8C1050.93,-407.84 1024.19,-389.94 1003.05,-375.79"/>
<polygon fill="#da2d4f" stroke="#da2d4f" stroke-width="2" points="1004.92,-372.83 994.66,-370.18 1001.03,-378.65 1004.92,-372.83"/>
<text text-anchor="middle" x="1061.5" y="-391.8" font-family="arial" font-size="14.00" fill="#da2d4f">unwind</text>
</g>
<!-- node2077 -->
<g id="node19" class="node">
<title>node2077</title>
<polygon fill="#f9f9f9" stroke="black" points="1165.5,-530 1008.5,-530 1008.5,-494 1165.5,-494 1165.5,-530"/>
<text text-anchor="middle" x="1087" y="-508.3" font-family="Arial" font-size="14.00" fill="#1a1919">2077 MethodCallTarget</text>
</g>
<!-- node2077&#45;&gt;node2076 -->
<g id="edge22" class="edge">
<title>node2077&#45;&gt;node2076</title>
<path fill="none" stroke="#343d46" stroke-dasharray="5,2" d="M1090.45,-483.75C1091.59,-474.77 1092.83,-465.03 1093.84,-457.03"/>
<polygon fill="#343d46" stroke="#343d46" points="1086.96,-483.45 1089.18,-493.81 1093.91,-484.33 1086.96,-483.45"/>
</g>
<!-- node2080&#45;&gt;node1843 -->
<g id="edge27" class="edge">
<title>node2080&#45;&gt;node1843</title>
<path fill="none" stroke="#da2d4f" stroke-width="2" d="M1143.26,-333.81C1146.73,-325.62 1150.95,-315.62 1154.81,-306.48"/>
<polygon fill="#da2d4f" stroke="#da2d4f" stroke-width="2" points="1158.14,-307.6 1158.8,-297.03 1151.69,-304.88 1158.14,-307.6"/>
</g>
<!-- node2086 -->
<g id="node22" class="node">
<title>node2086</title>
<polygon fill="#da2d4f" stroke="black" points="1014.5,-297 797.5,-297 797.5,-261 1014.5,-261 1014.5,-297"/>
<text text-anchor="middle" x="906" y="-275.3" font-family="Arial" font-size="14.00" fill="#ffffff">2086 Deopt TransferToInterpreter</text>
</g>
<!-- node2081&#45;&gt;node2086 -->
<g id="edge28" class="edge">
<title>node2081&#45;&gt;node2086</title>
<path fill="none" stroke="#da2d4f" stroke-width="2" d="M953.75,-333.81C946.01,-325.09 936.47,-314.34 927.96,-304.75"/>
<polygon fill="#da2d4f" stroke="#da2d4f" stroke-width="2" points="930.37,-302.19 921.11,-297.03 925.13,-306.83 930.37,-302.19"/>
</g>
<!-- node2093&#45;&gt;node830 -->
<g id="edge30" class="edge">
<title>node2093&#45;&gt;node830</title>
<path fill="none" stroke="#da2d4f" stroke-width="2" d="M314,-1248.81C314,-1240.79 314,-1231.05 314,-1222.07"/>
<polygon fill="#da2d4f" stroke="#da2d4f" stroke-width="2" points="317.5,-1222.03 314,-1212.03 310.5,-1222.03 317.5,-1222.03"/>
</g>
<!-- node2124 -->
<g id="node27" class="node">
<title>node2124</title>
<polygon fill="#f9f9f9" stroke="black" points="950.5,-791 755.5,-791 755.5,-755 950.5,-755 950.5,-791"/>
<text text-anchor="middle" x="853" y="-769.3" font-family="Arial" font-size="14.00" fill="#1a1919">2124 BoxNode$AllocatingBox</text>
</g>
<!-- node2098&#45;&gt;node2124 -->
<g id="edge32" class="edge">
<title>node2098&#45;&gt;node2124</title>
<path fill="none" stroke="#da2d4f" stroke-width="2" d="M678.05,-841.9C713.03,-828.33 762.06,-809.29 799.33,-794.83"/>
<polygon fill="#da2d4f" stroke="#da2d4f" stroke-width="2" points="800.96,-797.95 809.02,-791.07 798.43,-791.43 800.96,-797.95"/>
</g>
<!-- node2112&#45;&gt;node1009 -->
<g id="edge6" class="edge">
<title>node2112&#45;&gt;node1009</title>
<path fill="none" stroke="#3cb4a4" d="M544.38,-92.36C505.75,-76.65 437.11,-48.74 396.56,-32.24"/>
<polygon fill="#3cb4a4" stroke="#3cb4a4" points="397.72,-28.93 387.14,-28.41 395.08,-35.42 397.72,-28.93"/>
<text text-anchor="middle" x="484.5" y="-57.8" font-family="arial" font-size="14.00" fill="#3cb4a4">x</text>
</g>
<!-- node2112&#45;&gt;node1844 -->
<g id="edge15" class="edge">
<title>node2112&#45;&gt;node1844</title>
<path fill="none" stroke="#3cb4a4" d="M601.6,-99.9C688.24,-87.48 950.09,-49.95 1084.49,-30.68"/>
<polygon fill="#3cb4a4" stroke="#3cb4a4" points="1085.32,-34.1 1094.73,-29.22 1084.33,-27.17 1085.32,-34.1"/>
<text text-anchor="middle" x="908.5" y="-57.8" font-family="arial" font-size="14.00" fill="#3cb4a4">x</text>
</g>
<!-- node2112&#45;&gt;node1846 -->
<g id="edge17" class="edge">
<title>node2112&#45;&gt;node1846</title>
<path fill="none" stroke="#3cb4a4" d="M571.57,-123.18C571.34,-133.08 572.09,-145.58 576,-156 577.51,-160.04 579.67,-164 582.1,-167.71"/>
<polygon fill="#3cb4a4" stroke="#3cb4a4" points="579.37,-169.9 588.14,-175.86 585,-165.74 579.37,-169.9"/>
<text text-anchor="middle" x="579.5" y="-144.8" font-family="arial" font-size="14.00" fill="#3cb4a4">x</text>
</g>
<!-- node2112&#45;&gt;node2124 -->
<g id="edge36" class="edge">
<title>node2112&#45;&gt;node2124</title>
<path fill="none" stroke="#3cb4a4" d="M601.5,-105.87C655.86,-107.27 769,-118.86 769,-191 769,-687 769,-687 769,-687 769,-713.44 789.82,-734.62 810.73,-749.23"/>
<polygon fill="#3cb4a4" stroke="#3cb4a4" points="809.04,-752.31 819.32,-754.88 812.89,-746.46 809.04,-752.31"/>
<text text-anchor="middle" x="785.5" y="-435.3" font-family="arial" font-size="14.00" fill="#3cb4a4">value</text>
</g>
<!-- node2121 -->
<g id="node26" class="node">
<title>node2121</title>
<polygon fill="#343d46" stroke="black" points="1337.5,-791 1100.5,-791 1100.5,-755 1337.5,-755 1337.5,-791"/>
<text text-anchor="middle" x="1219" y="-769.3" font-family="Arial" font-size="14.00" fill="#ffffff">2121 VirtualArray java.lang.Object[9]</text>
</g>
<!-- node2125 -->
<g id="node28" class="node">
<title>node2125</title>
<polygon fill="#da2d4f" stroke="black" points="1103.5,-704 1024.5,-704 1024.5,-668 1103.5,-668 1103.5,-704"/>
<text text-anchor="middle" x="1064" y="-682.3" font-family="Arial" font-size="14.00" fill="#ffffff">2125 Alloc</text>
</g>
<!-- node2121&#45;&gt;node2125 -->
<g id="edge38" class="edge">
<title>node2121&#45;&gt;node2125</title>
<path fill="none" stroke="#3cb4a4" d="M1161.01,-754.99C1147.77,-750.05 1134.06,-744.05 1122,-737 1109.86,-729.91 1097.86,-720.14 1087.95,-711.13"/>
<polygon fill="#3cb4a4" stroke="#3cb4a4" points="1090.17,-708.41 1080.48,-704.12 1085.38,-713.52 1090.17,-708.41"/>
<text text-anchor="middle" x="1163.5" y="-725.8" font-family="arial" font-size="14.00" fill="#3cb4a4">virtualObjects</text>
</g>
<!-- node2126 -->
<g id="node29" class="node">
<title>node2126</title>
<polygon fill="#343d46" stroke="black" points="1165.5,-617 1020.5,-617 1020.5,-581 1165.5,-581 1165.5,-617"/>
<text text-anchor="middle" x="1093" y="-595.3" font-family="Arial" font-size="14.00" fill="#ffffff">2126 AllocatedObject</text>
</g>
<!-- node2121&#45;&gt;node2126 -->
<g id="edge41" class="edge">
<title>node2121&#45;&gt;node2126</title>
<path fill="none" stroke="#3cb4a4" d="M1216.09,-754.63C1213.95,-744.67 1210.45,-732.17 1205,-722 1183.94,-682.73 1147.34,-646.3 1121.72,-623.66"/>
<polygon fill="#3cb4a4" stroke="#3cb4a4" points="1124,-621 1114.16,-617.09 1119.41,-626.29 1124,-621"/>
<text text-anchor="middle" x="1231" y="-682.3" font-family="arial" font-size="14.00" fill="#3cb4a4">virtualObject</text>
</g>
<!-- node2124&#45;&gt;node2125 -->
<g id="edge37" class="edge">
<title>node2124&#45;&gt;node2125</title>
<path fill="none" stroke="#da2d4f" stroke-width="2" d="M874.5,-754.82C888.91,-744.05 908.71,-730.61 928,-722 955.42,-709.76 987.93,-701.2 1014.29,-695.6"/>
<polygon fill="#da2d4f" stroke="#da2d4f" stroke-width="2" points="1015.34,-698.96 1024.43,-693.53 1013.94,-692.1 1015.34,-698.96"/>
</g>
<!-- node2124&#45;&gt;node2125 -->
<g id="edge39" class="edge">
<title>node2124&#45;&gt;node2125</title>
<path fill="none" stroke="#3cb4a4" d="M895.45,-754.9C930.02,-740.97 978.87,-721.29 1015.09,-706.7"/>
<polygon fill="#3cb4a4" stroke="#3cb4a4" points="1016.51,-709.91 1024.48,-702.92 1013.89,-703.41 1016.51,-709.91"/>
<text text-anchor="middle" x="991" y="-725.8" font-family="arial" font-size="14.00" fill="#3cb4a4">values</text>
</g>
<!-- node2125&#45;&gt;node2076 -->
<g id="edge40" class="edge">
<title>node2125&#45;&gt;node2076</title>
<path fill="none" stroke="#da2d4f" stroke-width="2" d="M1103.74,-672.82C1129.52,-662.53 1160.85,-644.92 1175,-617 1199.71,-568.24 1200.52,-542.35 1175,-494 1168.2,-481.11 1156.78,-470.72 1144.72,-462.62"/>
<polygon fill="#da2d4f" stroke="#da2d4f" stroke-width="2" points="1146.21,-459.43 1135.87,-457.13 1142.52,-465.37 1146.21,-459.43"/>
</g>
<!-- node2125&#45;&gt;node2126 -->
<g id="edge42" class="edge">
<title>node2125&#45;&gt;node2126</title>
<path fill="none" stroke="#3cb4a4" d="M1069.87,-667.8C1073.88,-656.05 1079.27,-640.24 1083.84,-626.84"/>
<polygon fill="#3cb4a4" stroke="#3cb4a4" points="1087.22,-627.77 1087.14,-617.18 1080.6,-625.51 1087.22,-627.77"/>
<text text-anchor="middle" x="1103" y="-638.8" font-family="arial" font-size="14.00" fill="#3cb4a4">commit</text>
</g>
<!-- node2126&#45;&gt;node2077 -->
<g id="edge26" class="edge">
<title>node2126&#45;&gt;node2077</title>
<path fill="none" stroke="#3cb4a4" d="M1091.79,-580.8C1090.96,-569.16 1089.86,-553.55 1088.92,-540.24"/>
<polygon fill="#3cb4a4" stroke="#3cb4a4" points="1092.41,-539.9 1088.21,-530.18 1085.43,-540.4 1092.41,-539.9"/>
<text text-anchor="middle" x="1107.5" y="-551.8" font-family="arial" font-size="14.00" fill="#3cb4a4">arg[1]</text>
</g>
<!-- node2132&#45;&gt;node2044 -->
<g id="edge21" class="edge">
<title>node2132&#45;&gt;node2044</title>
<path fill="none" stroke="#3cb4a4" d="M300.2,-841.8C300.34,-830.16 300.52,-814.55 300.68,-801.24"/>
<polygon fill="#3cb4a4" stroke="#3cb4a4" points="304.18,-801.22 300.8,-791.18 297.18,-801.13 304.18,-801.22"/>
<text text-anchor="middle" x="317" y="-812.8" font-family="arial" font-size="14.00" fill="#3cb4a4">result</text>
</g>
<!-- node2132&#45;&gt;node2044 -->
<g id="edge44" class="edge">
<title>node2132&#45;&gt;node2044</title>
<path fill="none" stroke="#da2d4f" stroke-width="2" d="M298.61,-841.87C298.01,-832.22 297.53,-819.94 298,-809 298.11,-806.44 298.26,-803.78 298.45,-801.12"/>
<polygon fill="#da2d4f" stroke="#da2d4f" stroke-width="2" points="301.94,-801.32 299.24,-791.07 294.96,-800.76 301.94,-801.32"/>
</g>
<!-- node2133&#45;&gt;node545 -->
<g id="edge52" class="edge">
<title>node2133&#45;&gt;node545</title>
<path fill="none" stroke="#da2d4f" stroke-width="2" d="M78.75,-1503.86C88.02,-1493.09 100.13,-1479.02 110.46,-1467.02"/>
<polygon fill="#da2d4f" stroke="#da2d4f" stroke-width="2" points="113.4,-1468.97 117.27,-1459.11 108.1,-1464.4 113.4,-1468.97"/>
</g>
<!-- inline23x1009 -->
<g id="node32" class="node">
<title>inline23x1009</title>
<ellipse fill="#d7ede7" stroke="black" cx="364" cy="-105" rx="27" ry="18"/>
<text text-anchor="middle" x="364" y="-103.1" font-family="Arial" font-size="8.00" fill="#1a1919">23 C(1)</text>
</g>
<!-- inline23x1009&#45;&gt;node1009 -->
<g id="edge7" class="edge">
<title>inline23x1009&#45;&gt;node1009</title>
<path fill="none" stroke="#3cb4a4" d="M364,-86.8C364,-72.05 364,-50.92 364,-36.18"/>
<text text-anchor="middle" x="366" y="-59.6" font-family="arial" font-size="8.00" fill="#3cb4a4">y</text>
</g>
<!-- inline1277x1279 -->
<g id="node33" class="node">
<title>inline1277x1279</title>
<ellipse fill="#d7ede7" stroke="black" cx="676" cy="-1034" rx="79.32" ry="18"/>
<text text-anchor="middle" x="676" y="-1032.1" font-family="Arial" font-size="8.00" fill="#1a1919">1277 C(instance:RubyBasicObject)</text>
</g>
<!-- inline1277x1279&#45;&gt;node1279 -->
<g id="edge12" class="edge">
<title>inline1277x1279&#45;&gt;node1279</title>
<path fill="none" stroke="#3cb4a4" d="M667.5,-1015.8C659.83,-1000.28 648.66,-977.67 641.36,-962.9"/>
<text text-anchor="middle" x="659" y="-988.6" font-family="arial" font-size="8.00" fill="#3cb4a4">y</text>
</g>
<!-- inline23x1844 -->
<g id="node34" class="node">
<title>inline23x1844</title>
<ellipse fill="#d7ede7" stroke="black" cx="1221" cy="-105" rx="27" ry="18"/>
<text text-anchor="middle" x="1221" y="-103.1" font-family="Arial" font-size="8.00" fill="#1a1919">23 C(1)</text>
</g>
<!-- inline23x1844&#45;&gt;node1844 -->
<g id="edge16" class="edge">
<title>inline23x1844&#45;&gt;node1844</title>
<path fill="none" stroke="#3cb4a4" d="M1210.65,-88.01C1200.88,-72.91 1186.3,-50.38 1176.49,-35.21"/>
<text text-anchor="middle" x="1198" y="-59.6" font-family="arial" font-size="8.00" fill="#3cb4a4">y</text>
</g>
<!-- inline23x1846 -->
<g id="node35" class="node">
<title>inline23x1846</title>
<ellipse fill="#d7ede7" stroke="black" cx="603" cy="-279" rx="27" ry="18"/>
<text text-anchor="middle" x="603" y="-277.1" font-family="Arial" font-size="8.00" fill="#1a1919">23 C(1)</text>
</g>
<!-- inline23x1846&#45;&gt;node1846 -->
<g id="edge18" class="edge">
<title>inline23x1846&#45;&gt;node1846</title>
<path fill="none" stroke="#3cb4a4" d="M603,-260.8C603,-246.05 603,-224.92 603,-210.18"/>
<text text-anchor="middle" x="605" y="-233.6" font-family="arial" font-size="8.00" fill="#3cb4a4">y</text>
</g>
<!-- inline1537x2077 -->
<g id="node36" class="node">
<title>inline1537x2077</title>
<ellipse fill="#d7ede7" stroke="black" cx="900" cy="-599" rx="102.84" ry="18"/>
<text text-anchor="middle" x="900" y="-597.1" font-family="Arial" font-size="8.00" fill="#1a1919">1537 C(instance:HotSpotOptimizedCallTarget)</text>
</g>
<!-- inline1537x2077&#45;&gt;node2077 -->
<g id="edge25" class="edge">
<title>inline1537x2077&#45;&gt;node2077</title>
<path fill="none" stroke="#3cb4a4" d="M935.17,-582.01C967.76,-567.2 1016.08,-545.23 1049.42,-530.08"/>
<text text-anchor="middle" x="1015" y="-553.6" font-family="arial" font-size="8.00" fill="#3cb4a4">arg[0]</text>
</g>
<!-- inline140x1279 -->
<g id="node37" class="node">
<title>inline140x1279</title>
<ellipse fill="#d7ede7" stroke="black" cx="551" cy="-1034" rx="27.46" ry="18"/>
<text text-anchor="middle" x="551" y="-1032.1" font-family="Arial" font-size="8.00" fill="#1a1919">140 T(6)</text>
</g>
<!-- inline140x1279&#45;&gt;node1279 -->
<g id="edge45" class="edge">
<title>inline140x1279&#45;&gt;node1279</title>
<path fill="none" stroke="#3cb4a4" d="M565.08,-1018.58C580.71,-1002.57 605.74,-976.94 620.95,-961.37"/>
<text text-anchor="middle" x="599" y="-988.6" font-family="arial" font-size="8.00" fill="#3cb4a4">x</text>
</g>
<!-- inline140x2125 -->
<g id="node38" class="node">
<title>inline140x2125</title>
<ellipse fill="#d7ede7" stroke="black" cx="1055" cy="-773" rx="27.46" ry="18"/>
<text text-anchor="middle" x="1055" y="-771.1" font-family="Arial" font-size="8.00" fill="#1a1919">140 T(6)</text>
</g>
<!-- inline140x2125&#45;&gt;node2125 -->
<g id="edge46" class="edge">
<title>inline140x2125&#45;&gt;node2125</title>
<path fill="none" stroke="#3cb4a4" d="M1056.82,-754.8C1058.38,-740.05 1060.62,-718.92 1062.18,-704.18"/>
<text text-anchor="middle" x="1071.5" y="-727.6" font-family="arial" font-size="8.00" fill="#3cb4a4">values</text>
</g>
<!-- inline158x617 -->
<g id="node39" class="node">
<title>inline158x617</title>
<ellipse fill="#d7ede7" stroke="black" cx="439" cy="-1522" rx="27.46" ry="18"/>
<text text-anchor="middle" x="439" y="-1520.1" font-family="Arial" font-size="8.00" fill="#1a1919">158 T(7)</text>
</g>
<!-- inline158x617&#45;&gt;node617 -->
<g id="edge47" class="edge">
<title>inline158x617&#45;&gt;node617</title>
<path fill="none" stroke="#3cb4a4" d="M439,-1503.86C439,-1490.61 439,-1472.35 439,-1459.11"/>
<text text-anchor="middle" x="448.5" y="-1479.6" font-family="arial" font-size="8.00" fill="#3cb4a4">value</text>
</g>
<!-- inline158x623 -->
<g id="node40" class="node">
<title>inline158x623</title>
<ellipse fill="#d7ede7" stroke="black" cx="231" cy="-1441" rx="27.46" ry="18"/>
<text text-anchor="middle" x="231" y="-1439.1" font-family="Arial" font-size="8.00" fill="#1a1919">158 T(7)</text>
</g>
<!-- inline158x623&#45;&gt;node623 -->
<g id="edge48" class="edge">
<title>inline158x623&#45;&gt;node623</title>
<path fill="none" stroke="#3cb4a4" d="M231,-1422.8C231,-1408.05 231,-1386.92 231,-1372.18"/>
<text text-anchor="middle" x="240.5" y="-1395.6" font-family="arial" font-size="8.00" fill="#3cb4a4">value</text>
</g>
<!-- inline173x545 -->
<g id="node41" class="node">
<title>inline173x545</title>
<ellipse fill="#d7ede7" stroke="black" cx="166" cy="-1522" rx="27.46" ry="18"/>
<text text-anchor="middle" x="166" y="-1520.1" font-family="Arial" font-size="8.00" fill="#1a1919">173 T(8)</text>
</g>
<!-- inline173x545&#45;&gt;node545 -->
<g id="edge49" class="edge">
<title>inline173x545&#45;&gt;node545</title>
<path fill="none" stroke="#3cb4a4" d="M158.79,-1504.25C153.06,-1490.93 145.08,-1472.38 139.32,-1459"/>
<text text-anchor="middle" x="159.5" y="-1479.6" font-family="arial" font-size="8.00" fill="#3cb4a4">value</text>
</g>
<!-- inline2x2133 -->
<g id="node42" class="node">
<title>inline2x2133</title>
<ellipse fill="#d7ede7" stroke="black" cx="101" cy="-1603" rx="27" ry="18"/>
<text text-anchor="middle" x="101" y="-1601.1" font-family="Arial" font-size="8.00" fill="#1a1919">2 P(1)</text>
</g>
<!-- inline2x2133&#45;&gt;node2133 -->
<g id="edge50" class="edge">
<title>inline2x2133&#45;&gt;node2133</title>
<path fill="none" stroke="#3cb4a4" d="M93.33,-1585.63C87.11,-1572.34 78.36,-1553.67 72.04,-1540.17"/>
<text text-anchor="middle" x="92.5" y="-1560.6" font-family="arial" font-size="8.00" fill="#3cb4a4">array</text>
</g>
</g>
</svg>
