<?xml version="1.0" encoding="UTF-8" standalone="no"?>
<!DOCTYPE svg PUBLIC "-//W3C//DTD SVG 1.1//EN"
 "http://www.w3.org/Graphics/SVG/1.1/DTD/svg11.dtd">
<!-- Generated by graphviz version 2.44.1 (20200629.0846)
 -->
<!-- Title: G Pages: 1 -->
<svg width="1023pt" height="1275pt"
 viewBox="0.00 0.00 1023.43 1275.00" xmlns="http://www.w3.org/2000/svg" xmlns:xlink="http://www.w3.org/1999/xlink">
<g id="graph0" class="graph" transform="scale(1 1) rotate(0) translate(4 1271)">
<title>G</title>
<!-- node0 -->
<g id="node1" class="node">
<title>node0</title>
<polygon fill="#e98693" stroke="black" points="698.93,-1267 642.93,-1267 642.93,-1231 698.93,-1231 698.93,-1267"/>
<text text-anchor="middle" x="670.93" y="-1245.3" font-family="Arial" font-size="14.00" fill="#1a1919">0 Start</text>
</g>
<!-- node1467 -->
<g id="node21" class="node">
<title>node1467</title>
<polygon fill="#da2d4f" stroke="black" points="764.43,-1186 651.43,-1186 651.43,-1150 764.43,-1150 764.43,-1186"/>
<text text-anchor="middle" x="707.93" y="-1164.3" font-family="Arial" font-size="14.00" fill="#ffffff">1467 Load T(...)</text>
</g>
<!-- node0&#45;&gt;node1467 -->
<g id="edge34" class="edge">
<title>node0&#45;&gt;node1467</title>
<path fill="none" stroke="#da2d4f" stroke-width="2" d="M678.96,-1230.86C683.81,-1220.51 690.09,-1207.1 695.56,-1195.41"/>
<polygon fill="#da2d4f" stroke="#da2d4f" stroke-width="2" points="698.85,-1196.65 699.92,-1186.11 692.51,-1193.68 698.85,-1196.65"/>
</g>
<!-- node695 -->
<g id="node2" class="node">
<title>node695</title>
<polygon fill="#f9f9f9" stroke="black" points="680.93,-1105 598.93,-1105 598.93,-1069 680.93,-1069 680.93,-1105"/>
<text text-anchor="middle" x="639.93" y="-1083.3" font-family="Arial" font-size="14.00" fill="#1a1919">695 Unbox</text>
</g>
<!-- node766 -->
<g id="node3" class="node">
<title>node766</title>
<polygon fill="#ffa500" stroke="black" points="541.93,-1018 303.93,-1018 303.93,-982 541.93,-982 541.93,-1018"/>
<text text-anchor="middle" x="422.93" y="-996.3" font-family="Arial" font-size="14.00" fill="#1a1919">766 Guard, else ClassCastException</text>
</g>
<!-- node695&#45;&gt;node766 -->
<g id="edge1" class="edge">
<title>node695&#45;&gt;node766</title>
<path fill="none" stroke="#da2d4f" stroke-width="2" d="M598.86,-1069.91C563.97,-1056.25 513.68,-1036.54 475.79,-1021.7"/>
<polygon fill="#da2d4f" stroke="#da2d4f" stroke-width="2" points="477.03,-1018.43 466.44,-1018.04 474.48,-1024.95 477.03,-1018.43"/>
</g>
<!-- node1457 -->
<g id="node18" class="node">
<title>node1457</title>
<polygon fill="#f9f9f9" stroke="black" points="687.43,-530 492.43,-530 492.43,-494 687.43,-494 687.43,-530"/>
<text text-anchor="middle" x="589.93" y="-508.3" font-family="Arial" font-size="14.00" fill="#1a1919">1457 BoxNode$AllocatingBox</text>
</g>
<!-- node695&#45;&gt;node1457 -->
<g id="edge20" class="edge">
<title>node695&#45;&gt;node1457</title>
<path fill="none" stroke="#3cb4a4" d="M639.93,-1068.74C639.93,-1051.57 639.93,-1024.46 639.93,-1001 639.93,-1001 639.93,-1001 639.93,-584 639.93,-566.4 629.53,-550.08 618.22,-537.54"/>
<polygon fill="#3cb4a4" stroke="#3cb4a4" points="620.61,-534.98 611.14,-530.24 615.59,-539.86 620.61,-534.98"/>
<text text-anchor="middle" x="656.43" y="-784.8" font-family="arial" font-size="14.00" fill="#3cb4a4">value</text>
</g>
<!-- node1432 -->
<g id="node14" class="node">
<title>node1432</title>
<polygon fill="#ffa500" stroke="black" points="407.43,-931 156.43,-931 156.43,-895 407.43,-895 407.43,-931"/>
<text text-anchor="middle" x="281.93" y="-909.3" font-family="Arial" font-size="14.00" fill="#1a1919">1432 Guard, else TransferToInterpreter</text>
</g>
<!-- node766&#45;&gt;node1432 -->
<g id="edge3" class="edge">
<title>node766&#45;&gt;node1432</title>
<path fill="none" stroke="#da2d4f" stroke-width="2" d="M394.4,-981.8C372.71,-968.72 342.68,-950.62 319.11,-936.41"/>
<polygon fill="#da2d4f" stroke="#da2d4f" stroke-width="2" points="320.8,-933.34 310.42,-931.18 317.18,-939.34 320.8,-933.34"/>
</g>
<!-- node767 -->
<g id="node4" class="node">
<title>node767</title>
<polygon fill="#f9f9f9" stroke="black" points="580.43,-1105 261.43,-1105 261.43,-1069 580.43,-1069 580.43,-1105"/>
<text text-anchor="middle" x="420.93" y="-1083.3" font-family="Arial" font-size="14.00" fill="#1a1919">767 InstanceOf org/truffleruby/core/proc/RubyProc</text>
</g>
<!-- node767&#45;&gt;node766 -->
<g id="edge2" class="edge">
<title>node767&#45;&gt;node766</title>
<path fill="none" stroke="#3cb4a4" d="M421.34,-1068.8C421.61,-1057.16 421.98,-1041.55 422.29,-1028.24"/>
<polygon fill="#3cb4a4" stroke="#3cb4a4" points="425.79,-1028.26 422.53,-1018.18 418.79,-1028.09 425.79,-1028.26"/>
<text text-anchor="middle" x="426.93" y="-1039.8" font-family="arial" font-size="14.00" fill="#3cb4a4">?</text>
</g>
<!-- node773 -->
<g id="node5" class="node">
<title>node773</title>
<polygon fill="#3cb4a4" stroke="black" points="214.93,-1018 144.38,-1000 214.93,-982 285.48,-1000 214.93,-1018"/>
<text text-anchor="middle" x="214.93" y="-996.3" font-family="Arial" font-size="14.00" fill="#1a1919">773 IsNull</text>
</g>
<!-- node773&#45;&gt;node1432 -->
<g id="edge14" class="edge">
<title>node773&#45;&gt;node1432</title>
<path fill="none" stroke="#3cb4a4" d="M226.3,-984.58C236.04,-972.23 250.29,-954.14 261.93,-939.38"/>
<polygon fill="#3cb4a4" stroke="#3cb4a4" points="264.99,-941.15 268.43,-931.13 259.49,-936.82 264.99,-941.15"/>
<text text-anchor="middle" x="256.93" y="-952.8" font-family="arial" font-size="14.00" fill="#3cb4a4">?</text>
</g>
<!-- node1050 -->
<g id="node6" class="node">
<title>node1050</title>
<polygon fill="#da2d4f" stroke="black" points="457.93,-850 151.93,-850 151.93,-814 457.93,-814 457.93,-850"/>
<text text-anchor="middle" x="304.93" y="-828.3" font-family="Arial" font-size="14.00" fill="#ffffff">1050 LoadField RubyDynamicObject.metaClass</text>
</g>
<!-- node1081 -->
<g id="node7" class="node">
<title>node1081</title>
<polygon fill="#3cb4a4" stroke="black" points="479.93,-763 418.27,-745 479.93,-727 541.6,-745 479.93,-763"/>
<text text-anchor="middle" x="479.93" y="-741.3" font-family="Arial" font-size="14.00" fill="#1a1919">1081 ==</text>
</g>
<!-- node1050&#45;&gt;node1081 -->
<g id="edge5" class="edge">
<title>node1050&#45;&gt;node1081</title>
<path fill="none" stroke="#3cb4a4" d="M360.64,-813.96C375.03,-808.85 390.3,-802.77 403.93,-796 421.97,-787.04 440.9,-774.6 455.35,-764.37"/>
<polygon fill="#3cb4a4" stroke="#3cb4a4" points="457.66,-767.02 463.73,-758.34 453.57,-761.34 457.66,-767.02"/>
<text text-anchor="middle" x="434.43" y="-784.8" font-family="arial" font-size="14.00" fill="#3cb4a4">x</text>
</g>
<!-- node1145 -->
<g id="node8" class="node">
<title>node1145</title>
<polygon fill="#3cb4a4" stroke="black" points="300.93,-763 240.1,-745 300.93,-727 361.76,-745 300.93,-763"/>
<text text-anchor="middle" x="300.93" y="-741.3" font-family="Arial" font-size="14.00" fill="#1a1919">1145 ==</text>
</g>
<!-- node1050&#45;&gt;node1145 -->
<g id="edge7" class="edge">
<title>node1050&#45;&gt;node1145</title>
<path fill="none" stroke="#3cb4a4" d="M304.12,-813.8C303.57,-802.09 302.83,-786.34 302.2,-772.97"/>
<polygon fill="#3cb4a4" stroke="#3cb4a4" points="305.69,-772.71 301.73,-762.89 298.7,-773.04 305.69,-772.71"/>
<text text-anchor="middle" x="307.43" y="-784.8" font-family="arial" font-size="14.00" fill="#3cb4a4">x</text>
</g>
<!-- node1435 -->
<g id="node15" class="node">
<title>node1435</title>
<polygon fill="#ffa500" stroke="black" points="609.93,-676 335.93,-676 335.93,-640 609.93,-640 609.93,-676"/>
<text text-anchor="middle" x="472.93" y="-654.3" font-family="Arial" font-size="14.00" fill="#1a1919">1435 Guard not, else TransferToInterpreter</text>
</g>
<!-- node1050&#45;&gt;node1435 -->
<g id="edge4" class="edge">
<title>node1050&#45;&gt;node1435</title>
<path fill="none" stroke="#da2d4f" stroke-width="2" d="M321.66,-813.88C351.59,-783.23 414.44,-718.89 448.96,-683.55"/>
<polygon fill="#da2d4f" stroke="#da2d4f" stroke-width="2" points="451.79,-685.65 456.28,-676.05 446.79,-680.76 451.79,-685.65"/>
</g>
<!-- node1081&#45;&gt;node1435 -->
<g id="edge16" class="edge">
<title>node1081&#45;&gt;node1435</title>
<path fill="none" stroke="#3cb4a4" d="M478.55,-727.21C477.59,-715.52 476.28,-699.69 475.17,-686.22"/>
<polygon fill="#3cb4a4" stroke="#3cb4a4" points="478.65,-685.73 474.34,-676.05 471.67,-686.3 478.65,-685.73"/>
<text text-anchor="middle" x="480.93" y="-697.8" font-family="arial" font-size="14.00" fill="#3cb4a4">?</text>
</g>
<!-- node1436 -->
<g id="node16" class="node">
<title>node1436</title>
<polygon fill="#ffa500" stroke="black" points="598.43,-603 347.43,-603 347.43,-567 598.43,-567 598.43,-603"/>
<text text-anchor="middle" x="472.93" y="-581.3" font-family="Arial" font-size="14.00" fill="#1a1919">1436 Guard, else TransferToInterpreter</text>
</g>
<!-- node1145&#45;&gt;node1436 -->
<g id="edge18" class="edge">
<title>node1145&#45;&gt;node1436</title>
<path fill="none" stroke="#3cb4a4" d="M299.03,-727.47C297.39,-704.99 297.98,-664.75 318.93,-640 331.33,-625.36 347.93,-614.69 365.66,-606.91"/>
<polygon fill="#3cb4a4" stroke="#3cb4a4" points="367.08,-610.11 375.02,-603.1 364.43,-603.63 367.08,-610.11"/>
<text text-anchor="middle" x="322.93" y="-654.3" font-family="arial" font-size="14.00" fill="#3cb4a4">?</text>
</g>
<!-- node1376 -->
<g id="node9" class="node">
<title>node1376</title>
<polygon fill="#e98693" stroke="black" points="597.43,-109 506.43,-109 506.43,-73 597.43,-73 597.43,-109"/>
<text text-anchor="middle" x="551.93" y="-87.3" font-family="Arial" font-size="14.00" fill="#1a1919">1376 Return</text>
</g>
<!-- node1413 -->
<g id="node10" class="node">
<title>node1413</title>
<polygon fill="#da2d4f" stroke="black" points="729.93,-196 439.93,-196 439.93,-160 729.93,-160 729.93,-196"/>
<text text-anchor="middle" x="584.93" y="-174.3" font-family="Arial" font-size="14.00" fill="#ffffff">1413 Call OptimizedCallTarget.callBoundary !</text>
</g>
<!-- node1413&#45;&gt;node1376 -->
<g id="edge27" class="edge">
<title>node1413&#45;&gt;node1376</title>
<path fill="none" stroke="#3cb4a4" d="M578.25,-159.8C573.69,-148.05 567.55,-132.24 562.35,-118.84"/>
<polygon fill="#3cb4a4" stroke="#3cb4a4" points="565.48,-117.23 558.6,-109.18 558.96,-119.76 565.48,-117.23"/>
<text text-anchor="middle" x="587.93" y="-130.8" font-family="arial" font-size="14.00" fill="#3cb4a4">result</text>
</g>
<!-- node1413&#45;&gt;node1376 -->
<g id="edge36" class="edge">
<title>node1413&#45;&gt;node1376</title>
<path fill="none" stroke="#da2d4f" stroke-width="2" d="M574.67,-159.93C571.59,-154.34 568.37,-148.02 565.93,-142 563,-134.76 560.45,-126.7 558.36,-119.2"/>
<polygon fill="#da2d4f" stroke="#da2d4f" stroke-width="2" points="561.72,-118.23 555.8,-109.44 554.95,-120 561.72,-118.23"/>
</g>
<!-- node1418 -->
<g id="node12" class="node">
<title>node1418</title>
<polygon fill="#f9f9f9" stroke="black" points="764.43,-109 615.43,-109 615.43,-73 764.43,-73 764.43,-109"/>
<text text-anchor="middle" x="689.93" y="-87.3" font-family="Arial" font-size="14.00" fill="#1a1919">1418 ExceptionObject</text>
</g>
<!-- node1413&#45;&gt;node1418 -->
<g id="edge10" class="edge">
<title>node1413&#45;&gt;node1418</title>
<path fill="none" stroke="#da2d4f" stroke-width="2" d="M606.18,-159.8C621.84,-147.13 643.32,-129.73 660.61,-115.74"/>
<polygon fill="#da2d4f" stroke="#da2d4f" stroke-width="2" points="663.15,-118.19 668.72,-109.18 658.74,-112.75 663.15,-118.19"/>
<text text-anchor="middle" x="665.43" y="-130.8" font-family="arial" font-size="14.00" fill="#da2d4f">unwind</text>
</g>
<!-- node1414 -->
<g id="node11" class="node">
<title>node1414</title>
<polygon fill="#f9f9f9" stroke="black" points="782.43,-269 625.43,-269 625.43,-233 782.43,-233 782.43,-269"/>
<text text-anchor="middle" x="703.93" y="-247.3" font-family="Arial" font-size="14.00" fill="#1a1919">1414 MethodCallTarget</text>
</g>
<!-- node1414&#45;&gt;node1413 -->
<g id="edge9" class="edge">
<title>node1414&#45;&gt;node1413</title>
<path fill="none" stroke="#343d46" stroke-dasharray="5,2" d="M666.76,-227.82C649.62,-217.59 629.57,-205.63 613.62,-196.11"/>
<polygon fill="#343d46" stroke="#343d46" points="665.05,-230.88 675.43,-232.99 668.64,-224.86 665.05,-230.88"/>
</g>
<!-- node1423 -->
<g id="node13" class="node">
<title>node1423</title>
<polygon fill="#da2d4f" stroke="black" points="798.43,-36 581.43,-36 581.43,0 798.43,0 798.43,-36"/>
<text text-anchor="middle" x="689.93" y="-14.3" font-family="Arial" font-size="14.00" fill="#ffffff">1423 Deopt TransferToInterpreter</text>
</g>
<!-- node1418&#45;&gt;node1423 -->
<g id="edge13" class="edge">
<title>node1418&#45;&gt;node1423</title>
<path fill="none" stroke="#da2d4f" stroke-width="2" d="M689.93,-72.81C689.93,-64.79 689.93,-55.05 689.93,-46.07"/>
<polygon fill="#da2d4f" stroke="#da2d4f" stroke-width="2" points="693.43,-46.03 689.93,-36.03 686.43,-46.03 693.43,-46.03"/>
</g>
<!-- node1432&#45;&gt;node1050 -->
<g id="edge15" class="edge">
<title>node1432&#45;&gt;node1050</title>
<path fill="none" stroke="#da2d4f" stroke-width="2" d="M286.92,-894.86C289.91,-884.61 293.76,-871.37 297.14,-859.76"/>
<polygon fill="#da2d4f" stroke="#da2d4f" stroke-width="2" points="300.52,-860.69 299.95,-850.11 293.8,-858.73 300.52,-860.69"/>
</g>
<!-- node1435&#45;&gt;node1436 -->
<g id="edge17" class="edge">
<title>node1435&#45;&gt;node1436</title>
<path fill="none" stroke="#da2d4f" stroke-width="2" d="M472.93,-639.81C472.93,-631.79 472.93,-622.05 472.93,-613.07"/>
<polygon fill="#da2d4f" stroke="#da2d4f" stroke-width="2" points="476.43,-613.03 472.93,-603.03 469.43,-613.03 476.43,-613.03"/>
</g>
<!-- node1436&#45;&gt;node1457 -->
<g id="edge19" class="edge">
<title>node1436&#45;&gt;node1457</title>
<path fill="none" stroke="#da2d4f" stroke-width="2" d="M500.96,-566.99C516.47,-557.58 535.96,-545.76 552.73,-535.57"/>
<polygon fill="#da2d4f" stroke="#da2d4f" stroke-width="2" points="555,-538.29 561.73,-530.11 551.37,-532.31 555,-538.29"/>
</g>
<!-- node1454 -->
<g id="node17" class="node">
<title>node1454</title>
<polygon fill="#343d46" stroke="black" points="1015.43,-530 778.43,-530 778.43,-494 1015.43,-494 1015.43,-530"/>
<text text-anchor="middle" x="896.93" y="-508.3" font-family="Arial" font-size="14.00" fill="#ffffff">1454 VirtualArray java.lang.Object[9]</text>
</g>
<!-- node1458 -->
<g id="node19" class="node">
<title>node1458</title>
<polygon fill="#da2d4f" stroke="black" points="740.43,-443 661.43,-443 661.43,-407 740.43,-407 740.43,-443"/>
<text text-anchor="middle" x="700.93" y="-421.3" font-family="Arial" font-size="14.00" fill="#ffffff">1458 Alloc</text>
</g>
<!-- node1454&#45;&gt;node1458 -->
<g id="edge22" class="edge">
<title>node1454&#45;&gt;node1458</title>
<path fill="none" stroke="#3cb4a4" d="M846.13,-493.98C831.11,-488.6 814.73,-482.38 799.93,-476 780.36,-467.56 759.2,-457.07 741.49,-447.88"/>
<polygon fill="#3cb4a4" stroke="#3cb4a4" points="743.05,-444.75 732.57,-443.21 739.8,-450.95 743.05,-444.75"/>
<text text-anchor="middle" x="841.43" y="-464.8" font-family="arial" font-size="14.00" fill="#3cb4a4">virtualObjects</text>
</g>
<!-- node1459 -->
<g id="node20" class="node">
<title>node1459</title>
<polygon fill="#343d46" stroke="black" points="969.43,-356 824.43,-356 824.43,-320 969.43,-320 969.43,-356"/>
<text text-anchor="middle" x="896.93" y="-334.3" font-family="Arial" font-size="14.00" fill="#ffffff">1459 AllocatedObject</text>
</g>
<!-- node1454&#45;&gt;node1459 -->
<g id="edge25" class="edge">
<title>node1454&#45;&gt;node1459</title>
<path fill="none" stroke="#3cb4a4" d="M896.93,-493.88C896.93,-464 896.93,-402.11 896.93,-366.27"/>
<polygon fill="#3cb4a4" stroke="#3cb4a4" points="900.43,-366.05 896.93,-356.05 893.43,-366.05 900.43,-366.05"/>
<text text-anchor="middle" x="934.93" y="-421.3" font-family="arial" font-size="14.00" fill="#3cb4a4">virtualObject</text>
</g>
<!-- node1457&#45;&gt;node1458 -->
<g id="edge21" class="edge">
<title>node1457&#45;&gt;node1458</title>
<path fill="none" stroke="#da2d4f" stroke-width="2" d="M603.2,-493.89C611.79,-483.55 623.64,-470.55 635.93,-461 641.85,-456.41 648.45,-452.08 655.12,-448.15"/>
<polygon fill="#da2d4f" stroke="#da2d4f" stroke-width="2" points="657.19,-451 664.19,-443.04 653.76,-444.9 657.19,-451"/>
</g>
<!-- node1457&#45;&gt;node1458 -->
<g id="edge23" class="edge">
<title>node1457&#45;&gt;node1458</title>
<path fill="none" stroke="#3cb4a4" d="M612.41,-493.93C619.9,-488.24 628.28,-481.85 635.93,-476 647.29,-467.31 659.73,-457.75 670.67,-449.33"/>
<polygon fill="#3cb4a4" stroke="#3cb4a4" points="672.91,-452.03 678.69,-443.15 668.63,-446.48 672.91,-452.03"/>
<text text-anchor="middle" x="673.93" y="-464.8" font-family="arial" font-size="14.00" fill="#3cb4a4">values</text>
</g>
<!-- node1458&#45;&gt;node1413 -->
<g id="edge24" class="edge">
<title>node1458&#45;&gt;node1413</title>
<path fill="none" stroke="#da2d4f" stroke-width="2" d="M661.31,-410.35C636.76,-399.65 607.11,-382.13 591.93,-356 564.66,-309.05 571.68,-242.66 578.66,-205.98"/>
<polygon fill="#da2d4f" stroke="#da2d4f" stroke-width="2" points="582.12,-206.54 580.69,-196.04 575.26,-205.14 582.12,-206.54"/>
</g>
<!-- node1458&#45;&gt;node1459 -->
<g id="edge26" class="edge">
<title>node1458&#45;&gt;node1459</title>
<path fill="none" stroke="#3cb4a4" d="M740.6,-406.8C771.65,-393.33 814.99,-374.54 848.16,-360.15"/>
<polygon fill="#3cb4a4" stroke="#3cb4a4" points="849.88,-363.22 857.66,-356.03 847.1,-356.8 849.88,-363.22"/>
<text text-anchor="middle" x="832.93" y="-377.8" font-family="arial" font-size="14.00" fill="#3cb4a4">commit</text>
</g>
<!-- node1459&#45;&gt;node1414 -->
<g id="edge12" class="edge">
<title>node1459&#45;&gt;node1414</title>
<path fill="none" stroke="#3cb4a4" d="M857.88,-319.8C827.3,-306.33 784.63,-287.54 751.96,-273.15"/>
<polygon fill="#3cb4a4" stroke="#3cb4a4" points="753.16,-269.86 742.6,-269.03 750.34,-276.26 753.16,-269.86"/>
<text text-anchor="middle" x="829.43" y="-290.8" font-family="arial" font-size="14.00" fill="#3cb4a4">arg[1]</text>
</g>
<!-- node1467&#45;&gt;node695 -->
<g id="edge35" class="edge">
<title>node1467&#45;&gt;node695</title>
<path fill="none" stroke="#da2d4f" stroke-width="2" d="M693.18,-1149.86C683.91,-1139.09 671.8,-1125.02 661.47,-1113.02"/>
<polygon fill="#da2d4f" stroke="#da2d4f" stroke-width="2" points="663.84,-1110.4 654.66,-1105.11 658.53,-1114.97 663.84,-1110.4"/>
</g>
<!-- inline1080x1081 -->
<g id="node22" class="node">
<title>inline1080x1081</title>
<ellipse fill="#d7ede7" stroke="black" cx="543.93" cy="-832" rx="67.5" ry="18"/>
<text text-anchor="middle" x="543.93" y="-830.1" font-family="Arial" font-size="8.00" fill="#1a1919">1080 C(instance:RubyClass)</text>
</g>
<!-- inline1080x1081&#45;&gt;node1081 -->
<g id="edge6" class="edge">
<title>inline1080x1081&#45;&gt;node1081</title>
<path fill="none" stroke="#3cb4a4" d="M531.29,-814.21C519.34,-798.34 501.62,-774.81 490.43,-759.95"/>
<text text-anchor="middle" x="517.93" y="-786.6" font-family="arial" font-size="8.00" fill="#3cb4a4">y</text>
</g>
<!-- inline1144x1145 -->
<g id="node23" class="node">
<title>inline1144x1145</title>
<ellipse fill="#d7ede7" stroke="black" cx="66.93" cy="-832" rx="66.87" ry="18"/>
<text text-anchor="middle" x="66.93" y="-830.1" font-family="Arial" font-size="8.00" fill="#1a1919">1144 C(instance:RubyClass)</text>
</g>
<!-- inline1144x1145&#45;&gt;node1145 -->
<g id="edge8" class="edge">
<title>inline1144x1145&#45;&gt;node1145</title>
<path fill="none" stroke="#3cb4a4" d="M105.05,-817.15C152.84,-799.8 233.49,-770.5 274.81,-755.49"/>
<text text-anchor="middle" x="200.93" y="-786.6" font-family="arial" font-size="8.00" fill="#3cb4a4">y</text>
</g>
<!-- inline1296x1414 -->
<g id="node24" class="node">
<title>inline1296x1414</title>
<ellipse fill="#d7ede7" stroke="black" cx="703.93" cy="-338" rx="102.84" ry="18"/>
<text text-anchor="middle" x="703.93" y="-336.1" font-family="Arial" font-size="8.00" fill="#1a1919">1296 C(instance:HotSpotOptimizedCallTarget)</text>
</g>
<!-- inline1296x1414&#45;&gt;node1414 -->
<g id="edge11" class="edge">
<title>inline1296x1414&#45;&gt;node1414</title>
<path fill="none" stroke="#3cb4a4" d="M703.93,-319.8C703.93,-305.05 703.93,-283.92 703.93,-269.18"/>
<text text-anchor="middle" x="714.93" y="-292.6" font-family="arial" font-size="8.00" fill="#3cb4a4">arg[0]</text>
</g>
<!-- inline158x767 -->
<g id="node25" class="node">
<title>inline158x767</title>
<ellipse fill="#d7ede7" stroke="black" cx="420.93" cy="-1168" rx="27.46" ry="18"/>
<text text-anchor="middle" x="420.93" y="-1166.1" font-family="Arial" font-size="8.00" fill="#1a1919">158 T(7)</text>
</g>
<!-- inline158x767&#45;&gt;node767 -->
<g id="edge28" class="edge">
<title>inline158x767&#45;&gt;node767</title>
<path fill="none" stroke="#3cb4a4" d="M420.93,-1149.86C420.93,-1136.61 420.93,-1118.35 420.93,-1105.11"/>
<text text-anchor="middle" x="430.43" y="-1125.6" font-family="arial" font-size="8.00" fill="#3cb4a4">value</text>
</g>
<!-- inline158x773 -->
<g id="node26" class="node">
<title>inline158x773</title>
<ellipse fill="#d7ede7" stroke="black" cx="214.93" cy="-1087" rx="27.46" ry="18"/>
<text text-anchor="middle" x="214.93" y="-1085.1" font-family="Arial" font-size="8.00" fill="#1a1919">158 T(7)</text>
</g>
<!-- inline158x773&#45;&gt;node773 -->
<g id="edge29" class="edge">
<title>inline158x773&#45;&gt;node773</title>
<path fill="none" stroke="#3cb4a4" d="M214.93,-1068.8C214.93,-1054.05 214.93,-1032.92 214.93,-1018.18"/>
<text text-anchor="middle" x="224.43" y="-1041.6" font-family="arial" font-size="8.00" fill="#3cb4a4">value</text>
</g>
<!-- inline173x1050 -->
<g id="node27" class="node">
<title>inline173x1050</title>
<ellipse fill="#d7ede7" stroke="black" cx="452.93" cy="-913" rx="27.46" ry="18"/>
<text text-anchor="middle" x="452.93" y="-911.1" font-family="Arial" font-size="8.00" fill="#1a1919">173 T(8)</text>
</g>
<!-- inline173x1050&#45;&gt;node1050 -->
<g id="edge30" class="edge">
<title>inline173x1050&#45;&gt;node1050</title>
<path fill="none" stroke="#3cb4a4" d="M432.35,-901.02C407.65,-887.83 365.95,-865.57 337.01,-850.12"/>
<text text-anchor="middle" x="394.93" y="-870.6" font-family="arial" font-size="8.00" fill="#3cb4a4">object</text>
</g>
<!-- inline173x1458 -->
<g id="node28" class="node">
<title>inline173x1458</title>
<ellipse fill="#d7ede7" stroke="black" cx="732.93" cy="-512" rx="27.46" ry="18"/>
<text text-anchor="middle" x="732.93" y="-510.1" font-family="Arial" font-size="8.00" fill="#1a1919">173 T(8)</text>
</g>
<!-- inline173x1458&#45;&gt;node1458 -->
<g id="edge31" class="edge">
<title>inline173x1458&#45;&gt;node1458</title>
<path fill="none" stroke="#3cb4a4" d="M726.61,-494.21C721.04,-479.4 712.95,-457.93 707.35,-443.05"/>
<text text-anchor="middle" x="730.43" y="-466.6" font-family="arial" font-size="8.00" fill="#3cb4a4">values</text>
</g>
<!-- inline190x695 -->
<g id="node29" class="node">
<title>inline190x695</title>
<ellipse fill="#d7ede7" stroke="black" cx="605.93" cy="-1168" rx="27.46" ry="18"/>
<text text-anchor="middle" x="605.93" y="-1166.1" font-family="Arial" font-size="8.00" fill="#1a1919">190 T(9)</text>
</g>
<!-- inline190x695&#45;&gt;node695 -->
<g id="edge32" class="edge">
<title>inline190x695&#45;&gt;node695</title>
<path fill="none" stroke="#3cb4a4" d="M613.14,-1150.25C618.87,-1136.93 626.86,-1118.38 632.62,-1105"/>
<text text-anchor="middle" x="634.43" y="-1125.6" font-family="arial" font-size="8.00" fill="#3cb4a4">value</text>
</g>
<!-- inline2x1467 -->
<g id="node30" class="node">
<title>inline2x1467</title>
<ellipse fill="#d7ede7" stroke="black" cx="743.93" cy="-1249" rx="27" ry="18"/>
<text text-anchor="middle" x="743.93" y="-1247.1" font-family="Arial" font-size="8.00" fill="#1a1919">2 P(1)</text>
</g>
<!-- inline2x1467&#45;&gt;node1467 -->
<g id="edge33" class="edge">
<title>inline2x1467&#45;&gt;node1467</title>
<path fill="none" stroke="#3cb4a4" d="M736.47,-1231.63C730.42,-1218.34 721.91,-1199.67 715.76,-1186.17"/>
<text text-anchor="middle" x="737.43" y="-1206.6" font-family="arial" font-size="8.00" fill="#3cb4a4">array</text>
</g>
</g>
</svg>
