<?xml version="1.0" encoding="UTF-8" standalone="no"?>
<!DOCTYPE svg PUBLIC "-//W3C//DTD SVG 1.1//EN"
 "http://www.w3.org/Graphics/SVG/1.1/DTD/svg11.dtd">
<!-- Generated by graphviz version 2.44.1 (20200629.0846)
 -->
<!-- Title: G Pages: 1 -->
<svg width="603pt" height="708pt"
 viewBox="0.00 0.00 603.23 708.00" xmlns="http://www.w3.org/2000/svg" xmlns:xlink="http://www.w3.org/1999/xlink">
<g id="graph0" class="graph" transform="scale(1 1) rotate(0) translate(4 704)">
<title>G</title>
<!-- node0 -->
<g id="node1" class="node">
<title>node0</title>
<polygon fill="#e98693" stroke="black" points="56,-700 0,-700 0,-664 56,-664 56,-700"/>
<text text-anchor="middle" x="28" y="-678.3" font-family="Arial" font-size="14.00" fill="#1a1919">0 Start</text>
</g>
<!-- node1885 -->
<g id="node10" class="node">
<title>node1885</title>
<polygon fill="#da2d4f" stroke="black" points="120.5,-619 7.5,-619 7.5,-583 120.5,-583 120.5,-619"/>
<text text-anchor="middle" x="64" y="-597.3" font-family="Arial" font-size="14.00" fill="#ffffff">1885 Load T(...)</text>
</g>
<!-- node0&#45;&gt;node1885 -->
<g id="edge17" class="edge">
<title>node0&#45;&gt;node1885</title>
<path fill="none" stroke="#da2d4f" stroke-width="2" d="M35.81,-663.86C40.53,-653.51 46.64,-640.1 51.96,-628.41"/>
<polygon fill="#da2d4f" stroke="#da2d4f" stroke-width="2" points="55.24,-629.66 56.2,-619.11 48.87,-626.76 55.24,-629.66"/>
</g>
<!-- node512 -->
<g id="node2" class="node">
<title>node512</title>
<polygon fill="#f9f9f9" stroke="black" points="156,-538 74,-538 74,-502 156,-502 156,-538"/>
<text text-anchor="middle" x="115" y="-516.3" font-family="Arial" font-size="14.00" fill="#1a1919">512 Unbox</text>
</g>
<!-- node516 -->
<g id="node3" class="node">
<title>node516</title>
<polygon fill="#3cb4a4" stroke="black" points="197,-451 142.54,-433 197,-415 251.46,-433 197,-451"/>
<text text-anchor="middle" x="197" y="-429.3" font-family="Arial" font-size="14.00" fill="#1a1919">516 ==</text>
</g>
<!-- node512&#45;&gt;node516 -->
<g id="edge2" class="edge">
<title>node512&#45;&gt;node516</title>
<path fill="none" stroke="#3cb4a4" d="M131.59,-501.8C144.78,-488.13 163.27,-468.97 177.22,-454.5"/>
<polygon fill="#3cb4a4" stroke="#3cb4a4" points="180.02,-456.64 184.45,-447.01 174.99,-451.78 180.02,-456.64"/>
<text text-anchor="middle" x="163.5" y="-472.8" font-family="arial" font-size="14.00" fill="#3cb4a4">x</text>
</g>
<!-- node1842 -->
<g id="node7" class="node">
<title>node1842</title>
<polygon fill="#ffa500" stroke="black" points="256.5,-364 5.5,-364 5.5,-328 256.5,-328 256.5,-364"/>
<text text-anchor="middle" x="131" y="-342.3" font-family="Arial" font-size="14.00" fill="#1a1919">1842 Guard, else TransferToInterpreter</text>
</g>
<!-- node512&#45;&gt;node1842 -->
<g id="edge1" class="edge">
<title>node512&#45;&gt;node1842</title>
<path fill="none" stroke="#da2d4f" stroke-width="2" d="M116.59,-501.88C119.37,-472 125.13,-410.11 128.46,-374.27"/>
<polygon fill="#da2d4f" stroke="#da2d4f" stroke-width="2" points="131.97,-374.33 129.41,-364.05 125,-373.68 131.97,-374.33"/>
</g>
<!-- node516&#45;&gt;node1842 -->
<g id="edge7" class="edge">
<title>node516&#45;&gt;node1842</title>
<path fill="none" stroke="#3cb4a4" d="M186.4,-418.34C176.74,-405.91 162.25,-387.24 150.5,-372.12"/>
<polygon fill="#3cb4a4" stroke="#3cb4a4" points="153.21,-369.9 144.31,-364.15 147.68,-374.19 153.21,-369.9"/>
<text text-anchor="middle" x="171" y="-385.8" font-family="arial" font-size="14.00" fill="#3cb4a4">?</text>
</g>
<!-- node845 -->
<g id="node4" class="node">
<title>node845</title>
<polygon fill="#f9f9f9" stroke="black" points="311,-283 229,-283 229,-247 311,-247 311,-283"/>
<text text-anchor="middle" x="270" y="-261.3" font-family="Arial" font-size="14.00" fill="#1a1919">845 Unbox</text>
</g>
<!-- node1851 -->
<g id="node8" class="node">
<title>node1851</title>
<polygon fill="#ffa500" stroke="black" points="568.5,-196 317.5,-196 317.5,-160 568.5,-160 568.5,-196"/>
<text text-anchor="middle" x="443" y="-174.3" font-family="Arial" font-size="14.00" fill="#1a1919">1851 Guard, else TransferToInterpreter</text>
</g>
<!-- node845&#45;&gt;node1851 -->
<g id="edge4" class="edge">
<title>node845&#45;&gt;node1851</title>
<path fill="none" stroke="#da2d4f" stroke-width="2" d="M305.01,-246.8C332.18,-233.45 370.01,-214.86 399.19,-200.52"/>
<polygon fill="#da2d4f" stroke="#da2d4f" stroke-width="2" points="400.91,-203.58 408.34,-196.03 397.82,-197.3 400.91,-203.58"/>
</g>
<!-- node1884 -->
<g id="node9" class="node">
<title>node1884</title>
<polygon fill="#f9f9f9" stroke="black" points="375.5,-123 180.5,-123 180.5,-87 375.5,-87 375.5,-123"/>
<text text-anchor="middle" x="278" y="-101.3" font-family="Arial" font-size="14.00" fill="#1a1919">1884 BoxNode$AllocatingBox</text>
</g>
<!-- node845&#45;&gt;node1884 -->
<g id="edge11" class="edge">
<title>node845&#45;&gt;node1884</title>
<path fill="none" stroke="#3cb4a4" d="M270.87,-246.79C272.25,-219.48 274.96,-165.99 276.61,-133.38"/>
<polygon fill="#3cb4a4" stroke="#3cb4a4" points="280.12,-133.35 277.13,-123.19 273.13,-133 280.12,-133.35"/>
<text text-anchor="middle" x="291.5" y="-174.3" font-family="arial" font-size="14.00" fill="#3cb4a4">value</text>
</g>
<!-- node1291 -->
<g id="node5" class="node">
<title>node1291</title>
<polygon fill="#3cb4a4" stroke="black" points="443,-283 381.33,-265 443,-247 504.67,-265 443,-283"/>
<text text-anchor="middle" x="443" y="-261.3" font-family="Arial" font-size="14.00" fill="#1a1919">1291 ==</text>
</g>
<!-- node1291&#45;&gt;node1851 -->
<g id="edge9" class="edge">
<title>node1291&#45;&gt;node1851</title>
<path fill="none" stroke="#3cb4a4" d="M443,-246.8C443,-235.16 443,-219.55 443,-206.24"/>
<polygon fill="#3cb4a4" stroke="#3cb4a4" points="446.5,-206.18 443,-196.18 439.5,-206.18 446.5,-206.18"/>
<text text-anchor="middle" x="447" y="-217.8" font-family="arial" font-size="14.00" fill="#3cb4a4">?</text>
</g>
<!-- node1759 -->
<g id="node6" class="node">
<title>node1759</title>
<polygon fill="#e98693" stroke="black" points="323.5,-36 232.5,-36 232.5,0 323.5,0 323.5,-36"/>
<text text-anchor="middle" x="278" y="-14.3" font-family="Arial" font-size="14.00" fill="#1a1919">1759 Return</text>
</g>
<!-- node1842&#45;&gt;node845 -->
<g id="edge8" class="edge">
<title>node1842&#45;&gt;node845</title>
<path fill="none" stroke="#da2d4f" stroke-width="2" d="M161.16,-327.86C181.65,-316.21 208.95,-300.7 231.08,-288.12"/>
<polygon fill="#da2d4f" stroke="#da2d4f" stroke-width="2" points="232.93,-291.09 239.9,-283.11 229.47,-285.01 232.93,-291.09"/>
</g>
<!-- node1851&#45;&gt;node1884 -->
<g id="edge10" class="edge">
<title>node1851&#45;&gt;node1884</title>
<path fill="none" stroke="#da2d4f" stroke-width="2" d="M403.48,-159.99C380.59,-150.14 351.57,-137.66 327.2,-127.17"/>
<polygon fill="#da2d4f" stroke="#da2d4f" stroke-width="2" points="328.34,-123.85 317.77,-123.11 325.57,-130.28 328.34,-123.85"/>
</g>
<!-- node1884&#45;&gt;node1759 -->
<g id="edge6" class="edge">
<title>node1884&#45;&gt;node1759</title>
<path fill="none" stroke="#3cb4a4" d="M263.9,-86.84C260.28,-81.46 256.88,-75.27 255,-69 252.59,-60.93 254.56,-52.49 258.19,-44.89"/>
<polygon fill="#3cb4a4" stroke="#3cb4a4" points="261.29,-46.53 263.25,-36.12 255.22,-43.03 261.29,-46.53"/>
<text text-anchor="middle" x="272" y="-57.8" font-family="arial" font-size="14.00" fill="#3cb4a4">result</text>
</g>
<!-- node1884&#45;&gt;node1759 -->
<g id="edge12" class="edge">
<title>node1884&#45;&gt;node1759</title>
<path fill="none" stroke="#da2d4f" stroke-width="2" d="M284.55,-86.8C286.37,-81.21 288.09,-74.92 289,-69 290.17,-61.39 289.29,-53.2 287.61,-45.71"/>
<polygon fill="#da2d4f" stroke="#da2d4f" stroke-width="2" points="290.97,-44.74 284.94,-36.02 284.22,-46.59 290.97,-44.74"/>
</g>
<!-- node1885&#45;&gt;node512 -->
<g id="edge18" class="edge">
<title>node1885&#45;&gt;node512</title>
<path fill="none" stroke="#da2d4f" stroke-width="2" d="M75.07,-582.86C81.88,-572.3 90.75,-558.56 98.4,-546.71"/>
<polygon fill="#da2d4f" stroke="#da2d4f" stroke-width="2" points="101.47,-548.41 103.96,-538.11 95.59,-544.61 101.47,-548.41"/>
</g>
<!-- inline5x516 -->
<g id="node11" class="node">
<title>inline5x516</title>
<ellipse fill="#d7ede7" stroke="black" cx="201" cy="-520" rx="27" ry="18"/>
<text text-anchor="middle" x="201" y="-518.1" font-family="Arial" font-size="8.00" fill="#1a1919">5 C(0)</text>
</g>
<!-- inline5x516&#45;&gt;node516 -->
<g id="edge3" class="edge">
<title>inline5x516&#45;&gt;node516</title>
<path fill="none" stroke="#3cb4a4" d="M200.19,-501.8C199.49,-486.95 198.49,-465.64 197.79,-450.89"/>
<text text-anchor="middle" x="201" y="-474.6" font-family="arial" font-size="8.00" fill="#3cb4a4">y</text>
</g>
<!-- inline1289x1291 -->
<g id="node12" class="node">
<title>inline1289x1291</title>
<ellipse fill="#d7ede7" stroke="black" cx="439" cy="-346" rx="83.9" ry="18"/>
<text text-anchor="middle" x="439" y="-344.1" font-family="Arial" font-size="8.00" fill="#1a1919">1289 C(RubyBasicObject@7fc889f3)</text>
</g>
<!-- inline1289x1291&#45;&gt;node1291 -->
<g id="edge5" class="edge">
<title>inline1289x1291&#45;&gt;node1291</title>
<path fill="none" stroke="#3cb4a4" d="M439.87,-327.86C440.54,-314.52 441.48,-296.1 442.15,-282.84"/>
<text text-anchor="middle" x="443" y="-303.6" font-family="arial" font-size="8.00" fill="#3cb4a4">y</text>
</g>
<!-- inline125x1291 -->
<g id="node13" class="node">
<title>inline125x1291</title>
<ellipse fill="#d7ede7" stroke="black" cx="568" cy="-346" rx="27.46" ry="18"/>
<text text-anchor="middle" x="568" y="-344.1" font-family="Arial" font-size="8.00" fill="#1a1919">125 T(5)</text>
</g>
<!-- inline125x1291&#45;&gt;node1291 -->
<g id="edge13" class="edge">
<title>inline125x1291&#45;&gt;node1291</title>
<path fill="none" stroke="#3cb4a4" d="M549.02,-333C525.38,-318.07 485.28,-292.72 461.75,-277.85"/>
<text text-anchor="middle" x="511" y="-303.6" font-family="arial" font-size="8.00" fill="#3cb4a4">x</text>
</g>
<!-- inline161x512 -->
<g id="node14" class="node">
<title>inline161x512</title>
<ellipse fill="#d7ede7" stroke="black" cx="166" cy="-601" rx="27.46" ry="18"/>
<text text-anchor="middle" x="166" y="-599.1" font-family="Arial" font-size="8.00" fill="#1a1919">161 T(7)</text>
</g>
<!-- inline161x512&#45;&gt;node512 -->
<g id="edge14" class="edge">
<title>inline161x512&#45;&gt;node512</title>
<path fill="none" stroke="#3cb4a4" d="M155.68,-584.01C147.06,-570.67 134.81,-551.69 126.01,-538.06"/>
<text text-anchor="middle" x="151.5" y="-558.6" font-family="arial" font-size="8.00" fill="#3cb4a4">value</text>
</g>
<!-- inline197x845 -->
<g id="node15" class="node">
<title>inline197x845</title>
<ellipse fill="#d7ede7" stroke="black" cx="302" cy="-346" rx="27.46" ry="18"/>
<text text-anchor="middle" x="302" y="-344.1" font-family="Arial" font-size="8.00" fill="#1a1919">197 T(9)</text>
</g>
<!-- inline197x845&#45;&gt;node845 -->
<g id="edge15" class="edge">
<title>inline197x845&#45;&gt;node845</title>
<path fill="none" stroke="#3cb4a4" d="M295.21,-328.25C289.82,-314.93 282.31,-296.38 276.89,-283"/>
<text text-anchor="middle" x="295.5" y="-303.6" font-family="arial" font-size="8.00" fill="#3cb4a4">value</text>
</g>
<!-- inline2x1885 -->
<g id="node16" class="node">
<title>inline2x1885</title>
<ellipse fill="#d7ede7" stroke="black" cx="101" cy="-682" rx="27" ry="18"/>
<text text-anchor="middle" x="101" y="-680.1" font-family="Arial" font-size="8.00" fill="#1a1919">2 P(1)</text>
</g>
<!-- inline2x1885&#45;&gt;node1885 -->
<g id="edge16" class="edge">
<title>inline2x1885&#45;&gt;node1885</title>
<path fill="none" stroke="#3cb4a4" d="M93.33,-664.63C87.11,-651.34 78.36,-632.67 72.04,-619.17"/>
<text text-anchor="middle" x="92.5" y="-639.6" font-family="arial" font-size="8.00" fill="#3cb4a4">array</text>
</g>
</g>
</svg>
