<?xml version="1.0" encoding="UTF-8" standalone="no"?>
<!DOCTYPE svg PUBLIC "-//W3C//DTD SVG 1.1//EN"
 "http://www.w3.org/Graphics/SVG/1.1/DTD/svg11.dtd">
<!-- Generated by graphviz version 2.44.1 (20200629.0846)
 -->
<!-- Title: G Pages: 1 -->
<svg width="796pt" height="795pt"
 viewBox="0.00 0.00 795.79 795.00" xmlns="http://www.w3.org/2000/svg" xmlns:xlink="http://www.w3.org/1999/xlink">
<g id="graph0" class="graph" transform="scale(1 1) rotate(0) translate(4 791)">
<title>G</title>
<!-- node0 -->
<g id="node1" class="node">
<title>node0</title>
<polygon fill="#e98693" stroke="black" points="56,-787 0,-787 0,-751 56,-751 56,-787"/>
<text text-anchor="middle" x="28" y="-765.3" font-family="Arial" font-size="14.00" fill="#1a1919">0 Start</text>
</g>
<!-- node1908 -->
<g id="node12" class="node">
<title>node1908</title>
<polygon fill="#da2d4f" stroke="black" points="120.5,-706 7.5,-706 7.5,-670 120.5,-670 120.5,-706"/>
<text text-anchor="middle" x="64" y="-684.3" font-family="Arial" font-size="14.00" fill="#ffffff">1908 Load T(...)</text>
</g>
<!-- node0&#45;&gt;node1908 -->
<g id="edge20" class="edge">
<title>node0&#45;&gt;node1908</title>
<path fill="none" stroke="#da2d4f" stroke-width="2" d="M35.81,-750.86C40.53,-740.51 46.64,-727.1 51.96,-715.41"/>
<polygon fill="#da2d4f" stroke="#da2d4f" stroke-width="2" points="55.24,-716.66 56.2,-706.11 48.87,-713.76 55.24,-716.66"/>
</g>
<!-- node508 -->
<g id="node2" class="node">
<title>node508</title>
<polygon fill="#f9f9f9" stroke="black" points="156,-625 74,-625 74,-589 156,-589 156,-625"/>
<text text-anchor="middle" x="115" y="-603.3" font-family="Arial" font-size="14.00" fill="#1a1919">508 Unbox</text>
</g>
<!-- node512 -->
<g id="node3" class="node">
<title>node512</title>
<polygon fill="#3cb4a4" stroke="black" points="197,-538 142.54,-520 197,-502 251.46,-520 197,-538"/>
<text text-anchor="middle" x="197" y="-516.3" font-family="Arial" font-size="14.00" fill="#1a1919">512 ==</text>
</g>
<!-- node508&#45;&gt;node512 -->
<g id="edge2" class="edge">
<title>node508&#45;&gt;node512</title>
<path fill="none" stroke="#3cb4a4" d="M131.59,-588.8C144.78,-575.13 163.27,-555.97 177.22,-541.5"/>
<polygon fill="#3cb4a4" stroke="#3cb4a4" points="180.02,-543.64 184.45,-534.01 174.99,-538.78 180.02,-543.64"/>
<text text-anchor="middle" x="163.5" y="-559.8" font-family="arial" font-size="14.00" fill="#3cb4a4">x</text>
</g>
<!-- node1864 -->
<g id="node8" class="node">
<title>node1864</title>
<polygon fill="#ffa500" stroke="black" points="256.5,-451 5.5,-451 5.5,-415 256.5,-415 256.5,-451"/>
<text text-anchor="middle" x="131" y="-429.3" font-family="Arial" font-size="14.00" fill="#1a1919">1864 Guard, else TransferToInterpreter</text>
</g>
<!-- node508&#45;&gt;node1864 -->
<g id="edge1" class="edge">
<title>node508&#45;&gt;node1864</title>
<path fill="none" stroke="#da2d4f" stroke-width="2" d="M116.59,-588.88C119.37,-559 125.13,-497.11 128.46,-461.27"/>
<polygon fill="#da2d4f" stroke="#da2d4f" stroke-width="2" points="131.97,-461.33 129.41,-451.05 125,-460.68 131.97,-461.33"/>
</g>
<!-- node512&#45;&gt;node1864 -->
<g id="edge7" class="edge">
<title>node512&#45;&gt;node1864</title>
<path fill="none" stroke="#3cb4a4" d="M186.4,-505.34C176.74,-492.91 162.25,-474.24 150.5,-459.12"/>
<polygon fill="#3cb4a4" stroke="#3cb4a4" points="153.21,-456.9 144.31,-451.15 147.68,-461.19 153.21,-456.9"/>
<text text-anchor="middle" x="171" y="-472.8" font-family="arial" font-size="14.00" fill="#3cb4a4">?</text>
</g>
<!-- node841 -->
<g id="node4" class="node">
<title>node841</title>
<polygon fill="#f9f9f9" stroke="black" points="308,-370 226,-370 226,-334 308,-334 308,-370"/>
<text text-anchor="middle" x="267" y="-348.3" font-family="Arial" font-size="14.00" fill="#1a1919">841 Unbox</text>
</g>
<!-- node1869 -->
<g id="node9" class="node">
<title>node1869</title>
<polygon fill="#ffa500" stroke="black" points="534.5,-283 283.5,-283 283.5,-247 534.5,-247 534.5,-283"/>
<text text-anchor="middle" x="409" y="-261.3" font-family="Arial" font-size="14.00" fill="#1a1919">1869 Guard, else TransferToInterpreter</text>
</g>
<!-- node841&#45;&gt;node1869 -->
<g id="edge4" class="edge">
<title>node841&#45;&gt;node1869</title>
<path fill="none" stroke="#da2d4f" stroke-width="2" d="M295.74,-333.8C317.58,-320.72 347.82,-302.62 371.56,-288.41"/>
<polygon fill="#da2d4f" stroke="#da2d4f" stroke-width="2" points="373.52,-291.31 380.31,-283.18 369.93,-285.31 373.52,-291.31"/>
</g>
<!-- node1907 -->
<g id="node11" class="node">
<title>node1907</title>
<polygon fill="#f9f9f9" stroke="black" points="364.5,-123 169.5,-123 169.5,-87 364.5,-87 364.5,-123"/>
<text text-anchor="middle" x="267" y="-101.3" font-family="Arial" font-size="14.00" fill="#1a1919">1907 BoxNode$AllocatingBox</text>
</g>
<!-- node841&#45;&gt;node1907 -->
<g id="edge13" class="edge">
<title>node841&#45;&gt;node1907</title>
<path fill="none" stroke="#3cb4a4" d="M267,-333.77C267,-291.86 267,-184.31 267,-133.44"/>
<polygon fill="#3cb4a4" stroke="#3cb4a4" points="270.5,-133.21 267,-123.21 263.5,-133.21 270.5,-133.21"/>
<text text-anchor="middle" x="283.5" y="-217.8" font-family="arial" font-size="14.00" fill="#3cb4a4">value</text>
</g>
<!-- node915 -->
<g id="node5" class="node">
<title>node915</title>
<polygon fill="#3cb4a4" stroke="black" points="409,-370 338.45,-352 409,-334 479.55,-352 409,-370"/>
<text text-anchor="middle" x="409" y="-348.3" font-family="Arial" font-size="14.00" fill="#1a1919">915 IsNull</text>
</g>
<!-- node915&#45;&gt;node1869 -->
<g id="edge9" class="edge">
<title>node915&#45;&gt;node1869</title>
<path fill="none" stroke="#3cb4a4" d="M409,-333.8C409,-322.16 409,-306.55 409,-293.24"/>
<polygon fill="#3cb4a4" stroke="#3cb4a4" points="412.5,-293.18 409,-283.18 405.5,-293.18 412.5,-293.18"/>
<text text-anchor="middle" x="413" y="-304.8" font-family="arial" font-size="14.00" fill="#3cb4a4">?</text>
</g>
<!-- node1303 -->
<g id="node6" class="node">
<title>node1303</title>
<polygon fill="#3cb4a4" stroke="black" points="614,-283 552.33,-265 614,-247 675.67,-265 614,-283"/>
<text text-anchor="middle" x="614" y="-261.3" font-family="Arial" font-size="14.00" fill="#1a1919">1303 ==</text>
</g>
<!-- node1874 -->
<g id="node10" class="node">
<title>node1874</title>
<polygon fill="#ffa500" stroke="black" points="534.5,-196 283.5,-196 283.5,-160 534.5,-160 534.5,-196"/>
<text text-anchor="middle" x="409" y="-174.3" font-family="Arial" font-size="14.00" fill="#1a1919">1874 Guard, else TransferToInterpreter</text>
</g>
<!-- node1303&#45;&gt;node1874 -->
<g id="edge11" class="edge">
<title>node1303&#45;&gt;node1874</title>
<path fill="none" stroke="#3cb4a4" d="M589.68,-253.92C557.8,-240.7 501.08,-217.18 459.67,-200.01"/>
<polygon fill="#3cb4a4" stroke="#3cb4a4" points="460.87,-196.72 450.29,-196.12 458.19,-203.18 460.87,-196.72"/>
<text text-anchor="middle" x="527" y="-217.8" font-family="arial" font-size="14.00" fill="#3cb4a4">?</text>
</g>
<!-- node1779 -->
<g id="node7" class="node">
<title>node1779</title>
<polygon fill="#e98693" stroke="black" points="312.5,-36 221.5,-36 221.5,0 312.5,0 312.5,-36"/>
<text text-anchor="middle" x="267" y="-14.3" font-family="Arial" font-size="14.00" fill="#1a1919">1779 Return</text>
</g>
<!-- node1864&#45;&gt;node841 -->
<g id="edge8" class="edge">
<title>node1864&#45;&gt;node841</title>
<path fill="none" stroke="#da2d4f" stroke-width="2" d="M160.51,-414.86C180.47,-403.26 207.03,-387.84 228.63,-375.29"/>
<polygon fill="#da2d4f" stroke="#da2d4f" stroke-width="2" points="230.66,-378.16 237.55,-370.11 227.14,-372.1 230.66,-378.16"/>
</g>
<!-- node1869&#45;&gt;node1874 -->
<g id="edge10" class="edge">
<title>node1869&#45;&gt;node1874</title>
<path fill="none" stroke="#da2d4f" stroke-width="2" d="M409,-246.8C409,-235.16 409,-219.55 409,-206.24"/>
<polygon fill="#da2d4f" stroke="#da2d4f" stroke-width="2" points="412.5,-206.18 409,-196.18 405.5,-206.18 412.5,-206.18"/>
</g>
<!-- node1874&#45;&gt;node1907 -->
<g id="edge12" class="edge">
<title>node1874&#45;&gt;node1907</title>
<path fill="none" stroke="#da2d4f" stroke-width="2" d="M374.99,-159.99C355.55,-150.27 330.97,-137.99 310.18,-127.59"/>
<polygon fill="#da2d4f" stroke="#da2d4f" stroke-width="2" points="311.74,-124.46 301.23,-123.11 308.61,-130.72 311.74,-124.46"/>
</g>
<!-- node1907&#45;&gt;node1779 -->
<g id="edge6" class="edge">
<title>node1907&#45;&gt;node1779</title>
<path fill="none" stroke="#3cb4a4" d="M252.9,-86.84C249.28,-81.46 245.88,-75.27 244,-69 241.59,-60.93 243.56,-52.49 247.19,-44.89"/>
<polygon fill="#3cb4a4" stroke="#3cb4a4" points="250.29,-46.53 252.25,-36.12 244.22,-43.03 250.29,-46.53"/>
<text text-anchor="middle" x="261" y="-57.8" font-family="arial" font-size="14.00" fill="#3cb4a4">result</text>
</g>
<!-- node1907&#45;&gt;node1779 -->
<g id="edge14" class="edge">
<title>node1907&#45;&gt;node1779</title>
<path fill="none" stroke="#da2d4f" stroke-width="2" d="M273.55,-86.8C275.37,-81.21 277.09,-74.92 278,-69 279.17,-61.39 278.29,-53.2 276.61,-45.71"/>
<polygon fill="#da2d4f" stroke="#da2d4f" stroke-width="2" points="279.97,-44.74 273.94,-36.02 273.22,-46.59 279.97,-44.74"/>
</g>
<!-- node1908&#45;&gt;node508 -->
<g id="edge21" class="edge">
<title>node1908&#45;&gt;node508</title>
<path fill="none" stroke="#da2d4f" stroke-width="2" d="M75.07,-669.86C81.88,-659.3 90.75,-645.56 98.4,-633.71"/>
<polygon fill="#da2d4f" stroke="#da2d4f" stroke-width="2" points="101.47,-635.41 103.96,-625.11 95.59,-631.61 101.47,-635.41"/>
</g>
<!-- inline5x512 -->
<g id="node13" class="node">
<title>inline5x512</title>
<ellipse fill="#d7ede7" stroke="black" cx="201" cy="-607" rx="27" ry="18"/>
<text text-anchor="middle" x="201" y="-605.1" font-family="Arial" font-size="8.00" fill="#1a1919">5 C(0)</text>
</g>
<!-- inline5x512&#45;&gt;node512 -->
<g id="edge3" class="edge">
<title>inline5x512&#45;&gt;node512</title>
<path fill="none" stroke="#3cb4a4" d="M200.19,-588.8C199.49,-573.95 198.49,-552.64 197.79,-537.89"/>
<text text-anchor="middle" x="201" y="-561.6" font-family="arial" font-size="8.00" fill="#3cb4a4">y</text>
</g>
<!-- inline1301x1303 -->
<g id="node14" class="node">
<title>inline1301x1303</title>
<ellipse fill="#d7ede7" stroke="black" cx="701" cy="-352" rx="86.57" ry="18"/>
<text text-anchor="middle" x="701" y="-350.1" font-family="Arial" font-size="8.00" fill="#1a1919">1301 C(RubyBasicObject@414ae92d)</text>
</g>
<!-- inline1301x1303&#45;&gt;node1303 -->
<g id="edge5" class="edge">
<title>inline1301x1303&#45;&gt;node1303</title>
<path fill="none" stroke="#3cb4a4" d="M683.81,-334.21C667.27,-318.05 642.6,-293.95 627.45,-279.14"/>
<text text-anchor="middle" x="664" y="-306.6" font-family="arial" font-size="8.00" fill="#3cb4a4">y</text>
</g>
<!-- inline125x1303 -->
<g id="node15" class="node">
<title>inline125x1303</title>
<ellipse fill="#d7ede7" stroke="black" cx="569" cy="-352" rx="27.46" ry="18"/>
<text text-anchor="middle" x="569" y="-350.1" font-family="Arial" font-size="8.00" fill="#1a1919">125 T(5)</text>
</g>
<!-- inline125x1303&#45;&gt;node1303 -->
<g id="edge15" class="edge">
<title>inline125x1303&#45;&gt;node1303</title>
<path fill="none" stroke="#3cb4a4" d="M577.68,-334.61C585.9,-319.08 598.15,-295.94 606.1,-280.92"/>
<text text-anchor="middle" x="596" y="-306.6" font-family="arial" font-size="8.00" fill="#3cb4a4">x</text>
</g>
<!-- inline143x915 -->
<g id="node16" class="node">
<title>inline143x915</title>
<ellipse fill="#d7ede7" stroke="black" cx="409" cy="-433" rx="27.46" ry="18"/>
<text text-anchor="middle" x="409" y="-431.1" font-family="Arial" font-size="8.00" fill="#1a1919">143 T(6)</text>
</g>
<!-- inline143x915&#45;&gt;node915 -->
<g id="edge16" class="edge">
<title>inline143x915&#45;&gt;node915</title>
<path fill="none" stroke="#3cb4a4" d="M409,-414.86C409,-401.61 409,-383.35 409,-370.11"/>
<text text-anchor="middle" x="418.5" y="-390.6" font-family="arial" font-size="8.00" fill="#3cb4a4">value</text>
</g>
<!-- inline158x508 -->
<g id="node17" class="node">
<title>inline158x508</title>
<ellipse fill="#d7ede7" stroke="black" cx="166" cy="-688" rx="27.46" ry="18"/>
<text text-anchor="middle" x="166" y="-686.1" font-family="Arial" font-size="8.00" fill="#1a1919">158 T(7)</text>
</g>
<!-- inline158x508&#45;&gt;node508 -->
<g id="edge17" class="edge">
<title>inline158x508&#45;&gt;node508</title>
<path fill="none" stroke="#3cb4a4" d="M155.68,-671.01C147.06,-657.67 134.81,-638.69 126.01,-625.06"/>
<text text-anchor="middle" x="151.5" y="-645.6" font-family="arial" font-size="8.00" fill="#3cb4a4">value</text>
</g>
<!-- inline194x841 -->
<g id="node18" class="node">
<title>inline194x841</title>
<ellipse fill="#d7ede7" stroke="black" cx="302" cy="-433" rx="27.46" ry="18"/>
<text text-anchor="middle" x="302" y="-431.1" font-family="Arial" font-size="8.00" fill="#1a1919">194 T(9)</text>
</g>
<!-- inline194x841&#45;&gt;node841 -->
<g id="edge18" class="edge">
<title>inline194x841&#45;&gt;node841</title>
<path fill="none" stroke="#3cb4a4" d="M294.75,-415.63C288.86,-402.34 280.59,-383.67 274.61,-370.17"/>
<text text-anchor="middle" x="294.5" y="-390.6" font-family="arial" font-size="8.00" fill="#3cb4a4">value</text>
</g>
<!-- inline2x1908 -->
<g id="node19" class="node">
<title>inline2x1908</title>
<ellipse fill="#d7ede7" stroke="black" cx="101" cy="-769" rx="27" ry="18"/>
<text text-anchor="middle" x="101" y="-767.1" font-family="Arial" font-size="8.00" fill="#1a1919">2 P(1)</text>
</g>
<!-- inline2x1908&#45;&gt;node1908 -->
<g id="edge19" class="edge">
<title>inline2x1908&#45;&gt;node1908</title>
<path fill="none" stroke="#3cb4a4" d="M93.33,-751.63C87.11,-738.34 78.36,-719.67 72.04,-706.17"/>
<text text-anchor="middle" x="92.5" y="-726.6" font-family="arial" font-size="8.00" fill="#3cb4a4">array</text>
</g>
</g>
</svg>
