<?xml version="1.0" encoding="UTF-8" standalone="no"?>
<!DOCTYPE svg PUBLIC "-//W3C//DTD SVG 1.1//EN"
 "http://www.w3.org/Graphics/SVG/1.1/DTD/svg11.dtd">
<!-- Generated by graphviz version 2.44.0 (20200408.0750)
 -->
<!-- Title: G Pages: 1 -->
<svg width="384pt" height="372pt"
 viewBox="0.00 0.00 384.00 372.00" xmlns="http://www.w3.org/2000/svg" xmlns:xlink="http://www.w3.org/1999/xlink">
<g id="graph0" class="graph" transform="scale(1 1) rotate(0) translate(4 368)">
<title>G</title>
<!-- node0 -->
<g id="node1" class="node">
<title>node0</title>
<polygon fill="#e98693" stroke="black" points="79,-364 23,-364 23,-328 79,-328 79,-364"/>
<text text-anchor="middle" x="51" y="-342.3" font-family="Arial" font-size="14.00" fill="#1a1919">0 Start</text>
</g>
<!-- node5 -->
<g id="node2" class="node">
<title>node5</title>
<polygon fill="#da2d4f" stroke="black" points="130.5,-283 43.5,-283 43.5,-247 130.5,-247 130.5,-283"/>
<text text-anchor="middle" x="87" y="-261.3" font-family="Arial" font-size="14.00" fill="#ffffff">5 NewArray</text>
</g>
<!-- node0&#45;&gt;node5 -->
<g id="edge1" class="edge">
<title>node0&#45;&gt;node5</title>
<path fill="none" stroke="#da2d4f" stroke-width="2" d="M58.81,-327.86C63.53,-317.51 69.64,-304.1 74.96,-292.41"/>
<polygon fill="#da2d4f" stroke="#da2d4f" stroke-width="2" points="78.24,-293.66 79.2,-283.11 71.87,-290.76 78.24,-293.66"/>
</g>
<!-- node7 -->
<g id="node3" class="node">
<title>node7</title>
<polygon fill="#da2d4f" stroke="black" points="232,-196 124,-196 124,-160 232,-160 232,-196"/>
<text text-anchor="middle" x="178" y="-174.3" font-family="Arial" font-size="14.00" fill="#ffffff">7 StoreIndexed</text>
</g>
<!-- node5&#45;&gt;node7 -->
<g id="edge3" class="edge">
<title>node5&#45;&gt;node7</title>
<path fill="none" stroke="#da2d4f" stroke-width="2" d="M93.4,-246.67C97.92,-236.24 104.82,-223.23 114,-214 118.57,-209.4 123.87,-205.25 129.43,-201.54"/>
<polygon fill="#da2d4f" stroke="#da2d4f" stroke-width="2" points="131.62,-204.3 138.31,-196.07 127.96,-198.33 131.62,-204.3"/>
</g>
<!-- node5&#45;&gt;node7 -->
<g id="edge4" class="edge">
<title>node5&#45;&gt;node7</title>
<path fill="none" stroke="#3cb4a4" d="M105.42,-246.8C118.86,-234.24 137.26,-217.05 152.18,-203.12"/>
<polygon fill="#3cb4a4" stroke="#3cb4a4" points="154.69,-205.56 159.61,-196.18 149.92,-200.44 154.69,-205.56"/>
<text text-anchor="middle" x="152.5" y="-217.8" font-family="arial" font-size="14.00" fill="#3cb4a4">array</text>
</g>
<!-- node10 -->
<g id="node4" class="node">
<title>node10</title>
<polygon fill="#da2d4f" stroke="black" points="236,-109 120,-109 120,-73 236,-73 236,-109"/>
<text text-anchor="middle" x="178" y="-87.3" font-family="Arial" font-size="14.00" fill="#ffffff">10 StoreIndexed</text>
</g>
<!-- node5&#45;&gt;node10 -->
<g id="edge8" class="edge">
<title>node5&#45;&gt;node10</title>
<path fill="none" stroke="#3cb4a4" d="M81.68,-246.69C76.08,-225.1 69.87,-187.67 84,-160 94,-140.42 112.56,-125.18 130.56,-114.13"/>
<polygon fill="#3cb4a4" stroke="#3cb4a4" points="132.43,-117.1 139.31,-109.05 128.91,-111.04 132.43,-117.1"/>
<text text-anchor="middle" x="99.5" y="-174.3" font-family="arial" font-size="14.00" fill="#3cb4a4">array</text>
</g>
<!-- node12 -->
<g id="node5" class="node">
<title>node12</title>
<polygon fill="#e98693" stroke="black" points="76,-36 0,-36 0,0 76,0 76,-36"/>
<text text-anchor="middle" x="38" y="-14.3" font-family="Arial" font-size="14.00" fill="#1a1919">12 Return</text>
</g>
<!-- node5&#45;&gt;node12 -->
<g id="edge12" class="edge">
<title>node5&#45;&gt;node12</title>
<path fill="none" stroke="#3cb4a4" d="M78.66,-246.86C76.22,-241.27 73.73,-234.97 72,-229 53.41,-165 44.13,-86.88 40.28,-46.35"/>
<polygon fill="#3cb4a4" stroke="#3cb4a4" points="43.75,-45.83 39.35,-36.19 36.77,-46.46 43.75,-45.83"/>
<text text-anchor="middle" x="70" y="-130.8" font-family="arial" font-size="14.00" fill="#3cb4a4">result</text>
</g>
<!-- node7&#45;&gt;node10 -->
<g id="edge7" class="edge">
<title>node7&#45;&gt;node10</title>
<path fill="none" stroke="#da2d4f" stroke-width="2" d="M178,-159.8C178,-148.16 178,-132.55 178,-119.24"/>
<polygon fill="#da2d4f" stroke="#da2d4f" stroke-width="2" points="181.5,-119.18 178,-109.18 174.5,-119.18 181.5,-119.18"/>
</g>
<!-- node10&#45;&gt;node12 -->
<g id="edge11" class="edge">
<title>node10&#45;&gt;node12</title>
<path fill="none" stroke="#da2d4f" stroke-width="2" d="M144.47,-72.99C125.39,-63.32 101.29,-51.1 80.85,-40.73"/>
<polygon fill="#da2d4f" stroke="#da2d4f" stroke-width="2" points="82.25,-37.52 71.75,-36.11 79.08,-43.76 82.25,-37.52"/>
</g>
<!-- inline4x5 -->
<g id="node6" class="node">
<title>inline4x5</title>
<ellipse fill="#d7ede7" stroke="black" cx="124" cy="-346" rx="27" ry="18"/>
<text text-anchor="middle" x="124" y="-344.1" font-family="Arial" font-size="8.00" fill="#1a1919">4 C(2)</text>
</g>
<!-- inline4x5&#45;&gt;node5 -->
<g id="edge2" class="edge">
<title>inline4x5&#45;&gt;node5</title>
<path fill="none" stroke="#3cb4a4" d="M116.33,-328.63C110.11,-315.34 101.36,-296.67 95.04,-283.17"/>
<text text-anchor="middle" x="117" y="-303.6" font-family="arial" font-size="8.00" fill="#3cb4a4">length</text>
</g>
<!-- inline6x7 -->
<g id="node7" class="node">
<title>inline6x7</title>
<ellipse fill="#d7ede7" stroke="black" cx="187" cy="-265" rx="27" ry="18"/>
<text text-anchor="middle" x="187" y="-263.1" font-family="Arial" font-size="8.00" fill="#1a1919">6 C(0)</text>
</g>
<!-- inline6x7&#45;&gt;node7 -->
<g id="edge5" class="edge">
<title>inline6x7&#45;&gt;node7</title>
<path fill="none" stroke="#3cb4a4" d="M185.18,-246.8C183.62,-232.05 181.38,-210.92 179.82,-196.18"/>
<text text-anchor="middle" x="192.5" y="-219.6" font-family="arial" font-size="8.00" fill="#3cb4a4">index</text>
</g>
<!-- inline1x7 -->
<g id="node8" class="node">
<title>inline1x7</title>
<ellipse fill="#d7ede7" stroke="black" cx="259" cy="-265" rx="27" ry="18"/>
<text text-anchor="middle" x="259" y="-263.1" font-family="Arial" font-size="8.00" fill="#1a1919">1 P(0)</text>
</g>
<!-- inline1x7&#45;&gt;node7 -->
<g id="edge6" class="edge">
<title>inline1x7&#45;&gt;node7</title>
<path fill="none" stroke="#3cb4a4" d="M244.89,-249.19C230.84,-234.45 209.28,-211.83 194.46,-196.27"/>
<text text-anchor="middle" x="232.5" y="-219.6" font-family="arial" font-size="8.00" fill="#3cb4a4">value</text>
</g>
<!-- inline9x10 -->
<g id="node9" class="node">
<title>inline9x10</title>
<ellipse fill="#d7ede7" stroke="black" cx="277" cy="-178" rx="27" ry="18"/>
<text text-anchor="middle" x="277" y="-176.1" font-family="Arial" font-size="8.00" fill="#1a1919">9 C(1)</text>
</g>
<!-- inline9x10&#45;&gt;node10 -->
<g id="edge9" class="edge">
<title>inline9x10&#45;&gt;node10</title>
<path fill="none" stroke="#3cb4a4" d="M261.09,-163.34C243.93,-148.61 216.57,-125.11 197.97,-109.15"/>
<text text-anchor="middle" x="242.5" y="-132.6" font-family="arial" font-size="8.00" fill="#3cb4a4">index</text>
</g>
<!-- inline2x10 -->
<g id="node10" class="node">
<title>inline2x10</title>
<ellipse fill="#d7ede7" stroke="black" cx="349" cy="-178" rx="27" ry="18"/>
<text text-anchor="middle" x="349" y="-176.1" font-family="Arial" font-size="8.00" fill="#1a1919">2 P(1)</text>
</g>
<!-- inline2x10&#45;&gt;node10 -->
<g id="edge10" class="edge">
<title>inline2x10&#45;&gt;node10</title>
<path fill="none" stroke="#3cb4a4" d="M328.9,-165.65C310.21,-155.23 281.49,-139.55 256,-127 243.62,-120.9 229.94,-114.62 217.54,-109.08"/>
<text text-anchor="middle" x="293.5" y="-132.6" font-family="arial" font-size="8.00" fill="#3cb4a4">value</text>
</g>
</g>
</svg>
