<?xml version="1.0" encoding="UTF-8" standalone="no"?>
<!DOCTYPE svg PUBLIC "-//W3C//DTD SVG 1.1//EN"
 "http://www.w3.org/Graphics/SVG/1.1/DTD/svg11.dtd">
<!-- Generated by graphviz version 2.44.1 (20200629.0846)
 -->
<!-- Title: G Pages: 1 -->
<svg width="695pt" height="635pt"
 viewBox="0.00 0.00 694.78 635.00" xmlns="http://www.w3.org/2000/svg" xmlns:xlink="http://www.w3.org/1999/xlink">
<g id="graph0" class="graph" transform="scale(1 1) rotate(0) translate(4 631)">
<title>G</title>
<!-- node0 -->
<g id="node1" class="node">
<title>node0</title>
<polygon fill="#e98693" stroke="black" points="74,-627 18,-627 18,-591 74,-591 74,-627"/>
<text text-anchor="middle" x="46" y="-605.3" font-family="Arial" font-size="14.00" fill="#1a1919">0 Start</text>
</g>
<!-- node1117 -->
<g id="node12" class="node">
<title>node1117</title>
<polygon fill="#da2d4f" stroke="black" points="137.5,-546 26.5,-546 26.5,-510 137.5,-510 137.5,-546"/>
<text text-anchor="middle" x="82" y="-524.3" font-family="Arial" font-size="14.00" fill="#ffffff">1117 Load T(...)</text>
</g>
<!-- node0&#45;&gt;node1117 -->
<g id="edge20" class="edge">
<title>node0&#45;&gt;node1117</title>
<path fill="none" stroke="#da2d4f" stroke-width="2" d="M53.81,-590.86C58.53,-580.51 64.64,-567.1 69.96,-555.41"/>
<polygon fill="#da2d4f" stroke="#da2d4f" stroke-width="2" points="73.24,-556.66 74.2,-546.11 66.87,-553.76 73.24,-556.66"/>
</g>
<!-- node562 -->
<g id="node2" class="node">
<title>node562</title>
<polygon fill="#f9f9f9" stroke="black" points="173,-465 91,-465 91,-429 173,-429 173,-465"/>
<text text-anchor="middle" x="132" y="-443.3" font-family="Arial" font-size="14.00" fill="#1a1919">562 Unbox</text>
</g>
<!-- node717 -->
<g id="node3" class="node">
<title>node717</title>
<polygon fill="#f9f9f9" stroke="black" points="239,-384 157,-384 157,-348 239,-348 239,-384"/>
<text text-anchor="middle" x="198" y="-362.3" font-family="Arial" font-size="14.00" fill="#1a1919">717 Unbox</text>
</g>
<!-- node562&#45;&gt;node717 -->
<g id="edge1" class="edge">
<title>node562&#45;&gt;node717</title>
<path fill="none" stroke="#da2d4f" stroke-width="2" d="M146.32,-428.86C155.32,-418.09 167.07,-404.02 177.1,-392.02"/>
<polygon fill="#da2d4f" stroke="#da2d4f" stroke-width="2" points="179.98,-394.03 183.71,-384.11 174.61,-389.54 179.98,-394.03"/>
</g>
<!-- node1063 -->
<g id="node7" class="node">
<title>node1063</title>
<polygon fill="#3cb4a4" stroke="black" points="198,-297 143.54,-279 198,-261 252.46,-279 198,-297"/>
<text text-anchor="middle" x="198" y="-275.3" font-family="Arial" font-size="14.00" fill="#1a1919">1063 &lt;</text>
</g>
<!-- node562&#45;&gt;node1063 -->
<g id="edge6" class="edge">
<title>node562&#45;&gt;node1063</title>
<path fill="none" stroke="#3cb4a4" d="M130.57,-428.97C129.53,-408.83 129.9,-374.66 141,-348 148.75,-329.39 163.47,-312.04 176.01,-299.53"/>
<polygon fill="#3cb4a4" stroke="#3cb4a4" points="178.65,-301.84 183.45,-292.39 173.81,-296.78 178.65,-301.84"/>
<text text-anchor="middle" x="144.5" y="-362.3" font-family="arial" font-size="14.00" fill="#3cb4a4">y</text>
</g>
<!-- node787 -->
<g id="node4" class="node">
<title>node787</title>
<polygon fill="#ffa500" stroke="black" points="515,-297 277,-297 277,-261 515,-261 515,-297"/>
<text text-anchor="middle" x="396" y="-275.3" font-family="Arial" font-size="14.00" fill="#1a1919">787 Guard, else ClassCastException</text>
</g>
<!-- node717&#45;&gt;node787 -->
<g id="edge2" class="edge">
<title>node717&#45;&gt;node787</title>
<path fill="none" stroke="#da2d4f" stroke-width="2" d="M238.07,-347.8C269.44,-334.33 313.22,-315.54 346.73,-301.15"/>
<polygon fill="#da2d4f" stroke="#da2d4f" stroke-width="2" points="348.52,-304.19 356.33,-297.03 345.76,-297.76 348.52,-304.19"/>
</g>
<!-- node717&#45;&gt;node1063 -->
<g id="edge5" class="edge">
<title>node717&#45;&gt;node1063</title>
<path fill="none" stroke="#3cb4a4" d="M198,-347.8C198,-336.16 198,-320.55 198,-307.24"/>
<polygon fill="#3cb4a4" stroke="#3cb4a4" points="201.5,-307.18 198,-297.18 194.5,-307.18 201.5,-307.18"/>
<text text-anchor="middle" x="201.5" y="-318.8" font-family="arial" font-size="14.00" fill="#3cb4a4">x</text>
</g>
<!-- node1100 -->
<g id="node10" class="node">
<title>node1100</title>
<polygon fill="#ffa500" stroke="black" points="521.5,-210 270.5,-210 270.5,-174 521.5,-174 521.5,-210"/>
<text text-anchor="middle" x="396" y="-188.3" font-family="Arial" font-size="14.00" fill="#1a1919">1100 Guard, else TransferToInterpreter</text>
</g>
<!-- node787&#45;&gt;node1100 -->
<g id="edge4" class="edge">
<title>node787&#45;&gt;node1100</title>
<path fill="none" stroke="#da2d4f" stroke-width="2" d="M396,-260.8C396,-249.16 396,-233.55 396,-220.24"/>
<polygon fill="#da2d4f" stroke="#da2d4f" stroke-width="2" points="399.5,-220.18 396,-210.18 392.5,-220.18 399.5,-220.18"/>
</g>
<!-- node788 -->
<g id="node5" class="node">
<title>node788</title>
<polygon fill="#f9f9f9" stroke="black" points="576.5,-384 257.5,-384 257.5,-348 576.5,-348 576.5,-384"/>
<text text-anchor="middle" x="417" y="-362.3" font-family="Arial" font-size="14.00" fill="#1a1919">788 InstanceOf org/truffleruby/core/proc/RubyProc</text>
</g>
<!-- node788&#45;&gt;node787 -->
<g id="edge3" class="edge">
<title>node788&#45;&gt;node787</title>
<path fill="none" stroke="#3cb4a4" d="M412.75,-347.8C409.88,-336.16 406.02,-320.55 402.73,-307.24"/>
<polygon fill="#3cb4a4" stroke="#3cb4a4" points="406.04,-306.04 400.24,-297.18 399.24,-307.72 406.04,-306.04"/>
<text text-anchor="middle" x="411" y="-318.8" font-family="arial" font-size="14.00" fill="#3cb4a4">?</text>
</g>
<!-- node794 -->
<g id="node6" class="node">
<title>node794</title>
<polygon fill="#3cb4a4" stroke="black" points="616,-297 545.45,-279 616,-261 686.55,-279 616,-297"/>
<text text-anchor="middle" x="616" y="-275.3" font-family="Arial" font-size="14.00" fill="#1a1919">794 IsNull</text>
</g>
<!-- node794&#45;&gt;node1100 -->
<g id="edge11" class="edge">
<title>node794&#45;&gt;node1100</title>
<path fill="none" stroke="#3cb4a4" d="M589.46,-267.75C554.97,-254.42 493.9,-230.83 449.59,-213.7"/>
<polygon fill="#3cb4a4" stroke="#3cb4a4" points="450.71,-210.39 440.12,-210.05 448.19,-216.91 450.71,-210.39"/>
<text text-anchor="middle" x="523" y="-231.8" font-family="arial" font-size="14.00" fill="#3cb4a4">?</text>
</g>
<!-- node1064 -->
<g id="node8" class="node">
<title>node1064</title>
<polygon fill="#3cb4a4" stroke="black" points="119,-210 10.58,-192 119,-174 227.42,-192 119,-210"/>
<text text-anchor="middle" x="119" y="-188.3" font-family="Arial" font-size="14.00" fill="#1a1919">1064 Conditional</text>
</g>
<!-- node1063&#45;&gt;node1064 -->
<g id="edge7" class="edge">
<title>node1063&#45;&gt;node1064</title>
<path fill="none" stroke="#3cb4a4" d="M185.66,-264.72C173.46,-251.6 154.57,-231.27 140.01,-215.61"/>
<polygon fill="#3cb4a4" stroke="#3cb4a4" points="142.22,-212.85 132.85,-207.9 137.1,-217.61 142.22,-212.85"/>
<text text-anchor="middle" x="167" y="-231.8" font-family="arial" font-size="14.00" fill="#3cb4a4">?</text>
</g>
<!-- node1116 -->
<g id="node11" class="node">
<title>node1116</title>
<polygon fill="#f9f9f9" stroke="black" points="327,-123 163,-123 163,-87 327,-87 327,-123"/>
<text text-anchor="middle" x="245" y="-101.3" font-family="Arial" font-size="14.00" fill="#1a1919">1116 BoxNode$PureBox</text>
</g>
<!-- node1064&#45;&gt;node1116 -->
<g id="edge13" class="edge">
<title>node1064&#45;&gt;node1116</title>
<path fill="none" stroke="#3cb4a4" d="M139.24,-177.34C158.61,-164.28 188.19,-144.32 211.15,-128.84"/>
<polygon fill="#3cb4a4" stroke="#3cb4a4" points="213.25,-131.64 219.58,-123.15 209.34,-125.84 213.25,-131.64"/>
<text text-anchor="middle" x="224.5" y="-144.8" font-family="arial" font-size="14.00" fill="#3cb4a4">value [0 &#45; 1]</text>
</g>
<!-- node1093 -->
<g id="node9" class="node">
<title>node1093</title>
<polygon fill="#e98693" stroke="black" points="290.5,-36 199.5,-36 199.5,0 290.5,0 290.5,-36"/>
<text text-anchor="middle" x="245" y="-14.3" font-family="Arial" font-size="14.00" fill="#1a1919">1093 Return</text>
</g>
<!-- node1100&#45;&gt;node1116 -->
<g id="edge12" class="edge">
<title>node1100&#45;&gt;node1116</title>
<path fill="none" stroke="#da2d4f" stroke-width="2" d="M365.44,-173.8C342.03,-160.62 309.56,-142.34 284.23,-128.08"/>
<polygon fill="#da2d4f" stroke="#da2d4f" stroke-width="2" points="285.68,-124.89 275.25,-123.03 282.25,-130.99 285.68,-124.89"/>
</g>
<!-- node1116&#45;&gt;node1093 -->
<g id="edge10" class="edge">
<title>node1116&#45;&gt;node1093</title>
<path fill="none" stroke="#3cb4a4" d="M230.9,-86.84C227.28,-81.46 223.88,-75.27 222,-69 219.59,-60.93 221.56,-52.49 225.19,-44.89"/>
<polygon fill="#3cb4a4" stroke="#3cb4a4" points="228.29,-46.53 230.25,-36.12 222.22,-43.03 228.29,-46.53"/>
<text text-anchor="middle" x="239" y="-57.8" font-family="arial" font-size="14.00" fill="#3cb4a4">result</text>
</g>
<!-- node1116&#45;&gt;node1093 -->
<g id="edge14" class="edge">
<title>node1116&#45;&gt;node1093</title>
<path fill="none" stroke="#da2d4f" stroke-width="2" d="M251.55,-86.8C253.37,-81.21 255.09,-74.92 256,-69 257.17,-61.39 256.29,-53.2 254.61,-45.71"/>
<polygon fill="#da2d4f" stroke="#da2d4f" stroke-width="2" points="257.97,-44.74 251.94,-36.02 251.22,-46.59 257.97,-44.74"/>
</g>
<!-- node1117&#45;&gt;node562 -->
<g id="edge21" class="edge">
<title>node1117&#45;&gt;node562</title>
<path fill="none" stroke="#da2d4f" stroke-width="2" d="M92.85,-509.86C99.53,-499.3 108.23,-485.56 115.72,-473.71"/>
<polygon fill="#da2d4f" stroke="#da2d4f" stroke-width="2" points="118.78,-475.43 121.17,-465.11 112.87,-471.69 118.78,-475.43"/>
</g>
<!-- inline5x1064 -->
<g id="node13" class="node">
<title>inline5x1064</title>
<ellipse fill="#d7ede7" stroke="black" cx="27" cy="-279" rx="27" ry="18"/>
<text text-anchor="middle" x="27" y="-277.1" font-family="Arial" font-size="8.00" fill="#1a1919">5 C(0)</text>
</g>
<!-- inline5x1064&#45;&gt;node1064 -->
<g id="edge8" class="edge">
<title>inline5x1064&#45;&gt;node1064</title>
<path fill="none" stroke="#3cb4a4" d="M38.54,-262.2C46.49,-251.87 57.63,-238.41 69,-228 77.6,-220.13 88.04,-212.56 97.15,-206.49"/>
<text text-anchor="middle" x="86" y="-233.6" font-family="arial" font-size="8.00" fill="#3cb4a4">trueValue</text>
</g>
<!-- inline23x1064 -->
<g id="node14" class="node">
<title>inline23x1064</title>
<ellipse fill="#d7ede7" stroke="black" cx="99" cy="-279" rx="27" ry="18"/>
<text text-anchor="middle" x="99" y="-277.1" font-family="Arial" font-size="8.00" fill="#1a1919">23 C(1)</text>
</g>
<!-- inline23x1064&#45;&gt;node1064 -->
<g id="edge9" class="edge">
<title>inline23x1064&#45;&gt;node1064</title>
<path fill="none" stroke="#3cb4a4" d="M103.05,-260.8C106.56,-245.86 111.62,-224.36 115.09,-209.6"/>
<text text-anchor="middle" x="128.5" y="-233.6" font-family="arial" font-size="8.00" fill="#3cb4a4">falseValue</text>
</g>
<!-- inline158x788 -->
<g id="node15" class="node">
<title>inline158x788</title>
<ellipse fill="#d7ede7" stroke="black" cx="417" cy="-447" rx="27.46" ry="18"/>
<text text-anchor="middle" x="417" y="-445.1" font-family="Arial" font-size="8.00" fill="#1a1919">158 T(7)</text>
</g>
<!-- inline158x788&#45;&gt;node788 -->
<g id="edge15" class="edge">
<title>inline158x788&#45;&gt;node788</title>
<path fill="none" stroke="#3cb4a4" d="M417,-428.86C417,-415.61 417,-397.35 417,-384.11"/>
<text text-anchor="middle" x="426.5" y="-404.6" font-family="arial" font-size="8.00" fill="#3cb4a4">value</text>
</g>
<!-- inline158x794 -->
<g id="node16" class="node">
<title>inline158x794</title>
<ellipse fill="#d7ede7" stroke="black" cx="622" cy="-366" rx="27.46" ry="18"/>
<text text-anchor="middle" x="622" y="-364.1" font-family="Arial" font-size="8.00" fill="#1a1919">158 T(7)</text>
</g>
<!-- inline158x794&#45;&gt;node794 -->
<g id="edge16" class="edge">
<title>inline158x794&#45;&gt;node794</title>
<path fill="none" stroke="#3cb4a4" d="M620.79,-347.8C619.74,-332.95 618.23,-311.64 617.19,-296.89"/>
<text text-anchor="middle" x="628.5" y="-320.6" font-family="arial" font-size="8.00" fill="#3cb4a4">value</text>
</g>
<!-- inline173x562 -->
<g id="node17" class="node">
<title>inline173x562</title>
<ellipse fill="#d7ede7" stroke="black" cx="183" cy="-528" rx="27.46" ry="18"/>
<text text-anchor="middle" x="183" y="-526.1" font-family="Arial" font-size="8.00" fill="#1a1919">173 T(8)</text>
</g>
<!-- inline173x562&#45;&gt;node562 -->
<g id="edge17" class="edge">
<title>inline173x562&#45;&gt;node562</title>
<path fill="none" stroke="#3cb4a4" d="M172.68,-511.01C164.06,-497.67 151.81,-478.69 143.01,-465.06"/>
<text text-anchor="middle" x="168.5" y="-485.6" font-family="arial" font-size="8.00" fill="#3cb4a4">value</text>
</g>
<!-- inline191x717 -->
<g id="node18" class="node">
<title>inline191x717</title>
<ellipse fill="#d7ede7" stroke="black" cx="218" cy="-447" rx="27.46" ry="18"/>
<text text-anchor="middle" x="218" y="-445.1" font-family="Arial" font-size="8.00" fill="#1a1919">191 T(9)</text>
</g>
<!-- inline191x717&#45;&gt;node717 -->
<g id="edge18" class="edge">
<title>inline191x717&#45;&gt;node717</title>
<path fill="none" stroke="#3cb4a4" d="M213.66,-428.86C210.31,-415.61 205.68,-397.35 202.33,-384.11"/>
<text text-anchor="middle" x="217.5" y="-404.6" font-family="arial" font-size="8.00" fill="#3cb4a4">value</text>
</g>
<!-- inline2x1117 -->
<g id="node19" class="node">
<title>inline2x1117</title>
<ellipse fill="#d7ede7" stroke="black" cx="119" cy="-609" rx="27" ry="18"/>
<text text-anchor="middle" x="119" y="-607.1" font-family="Arial" font-size="8.00" fill="#1a1919">2 P(1)</text>
</g>
<!-- inline2x1117&#45;&gt;node1117 -->
<g id="edge19" class="edge">
<title>inline2x1117&#45;&gt;node1117</title>
<path fill="none" stroke="#3cb4a4" d="M111.33,-591.63C105.11,-578.34 96.36,-559.67 90.04,-546.17"/>
<text text-anchor="middle" x="110.5" y="-566.6" font-family="arial" font-size="8.00" fill="#3cb4a4">array</text>
</g>
</g>
</svg>
