<?xml version="1.0" encoding="UTF-8" standalone="no"?>
<!DOCTYPE svg PUBLIC "-//W3C//DTD SVG 1.1//EN"
 "http://www.w3.org/Graphics/SVG/1.1/DTD/svg11.dtd">
<!-- Generated by graphviz version 2.44.0 (20200408.0750)
 -->
<!-- Title: G Pages: 1 -->
<svg width="301pt" height="198pt"
 viewBox="0.00 0.00 301.00 198.00" xmlns="http://www.w3.org/2000/svg" xmlns:xlink="http://www.w3.org/1999/xlink">
<g id="graph0" class="graph" transform="scale(1 1) rotate(0) translate(4 194)">
<title>G</title>
<!-- node0 -->
<g id="node1" class="node">
<title>node0</title>
<polygon fill="#e98693" stroke="black" points="101.5,-190 45.5,-190 45.5,-154 101.5,-154 101.5,-190"/>
<text text-anchor="middle" x="73.5" y="-168.3" font-family="Arial" font-size="14.00" fill="#1a1919">0 Start</text>
</g>
<!-- node4 -->
<g id="node2" class="node">
<title>node4</title>
<polygon fill="#da2d4f" stroke="black" points="293,-109 0,-109 0,-73 293,-73 293,-109"/>
<text text-anchor="middle" x="146.5" y="-87.3" font-family="Arial" font-size="14.00" fill="#ffffff">4 StoreField JavaExamples$ExampleObject.x</text>
</g>
<!-- node0&#45;&gt;node4 -->
<g id="edge1" class="edge">
<title>node0&#45;&gt;node4</title>
<path fill="none" stroke="#da2d4f" stroke-width="2" d="M89.34,-153.86C99.38,-142.99 112.54,-128.75 123.7,-116.67"/>
<polygon fill="#da2d4f" stroke="#da2d4f" stroke-width="2" points="126.47,-118.83 130.69,-109.11 121.33,-114.08 126.47,-118.83"/>
</g>
<!-- node6 -->
<g id="node3" class="node">
<title>node6</title>
<polygon fill="#e98693" stroke="black" points="180.5,-36 112.5,-36 112.5,0 180.5,0 180.5,-36"/>
<text text-anchor="middle" x="146.5" y="-14.3" font-family="Arial" font-size="14.00" fill="#1a1919">6 Return</text>
</g>
<!-- node4&#45;&gt;node6 -->
<g id="edge4" class="edge">
<title>node4&#45;&gt;node6</title>
<path fill="none" stroke="#da2d4f" stroke-width="2" d="M146.5,-72.81C146.5,-64.79 146.5,-55.05 146.5,-46.07"/>
<polygon fill="#da2d4f" stroke="#da2d4f" stroke-width="2" points="150,-46.03 146.5,-36.03 143,-46.03 150,-46.03"/>
</g>
<!-- inline1x4 -->
<g id="node4" class="node">
<title>inline1x4</title>
<ellipse fill="#d7ede7" stroke="black" cx="146.5" cy="-172" rx="27" ry="18"/>
<text text-anchor="middle" x="146.5" y="-170.1" font-family="Arial" font-size="8.00" fill="#1a1919">1 P(0)</text>
</g>
<!-- inline1x4&#45;&gt;node4 -->
<g id="edge2" class="edge">
<title>inline1x4&#45;&gt;node4</title>
<path fill="none" stroke="#3cb4a4" d="M146.5,-153.86C146.5,-140.61 146.5,-122.35 146.5,-109.11"/>
<text text-anchor="middle" x="157.5" y="-129.6" font-family="arial" font-size="8.00" fill="#3cb4a4">object</text>
</g>
<!-- inline2x4 -->
<g id="node5" class="node">
<title>inline2x4</title>
<ellipse fill="#d7ede7" stroke="black" cx="218.5" cy="-172" rx="27" ry="18"/>
<text text-anchor="middle" x="218.5" y="-170.1" font-family="Arial" font-size="8.00" fill="#1a1919">2 P(1)</text>
</g>
<!-- inline2x4&#45;&gt;node4 -->
<g id="edge3" class="edge">
<title>inline2x4&#45;&gt;node4</title>
<path fill="none" stroke="#3cb4a4" d="M204.96,-156.14C192.82,-142.82 175.01,-123.28 162.24,-109.27"/>
<text text-anchor="middle" x="194" y="-129.6" font-family="arial" font-size="8.00" fill="#3cb4a4">value</text>
</g>
</g>
</svg>
