<?xml version="1.0" encoding="UTF-8" standalone="no"?>
<!DOCTYPE svg PUBLIC "-//W3C//DTD SVG 1.1//EN"
 "http://www.w3.org/Graphics/SVG/1.1/DTD/svg11.dtd">
<!-- Generated by graphviz version 2.44.1 (20200629.0846)
 -->
<!-- Title: G Pages: 1 -->
<svg width="1470pt" height="2022pt"
 viewBox="0.00 0.00 1469.88 2022.00" xmlns="http://www.w3.org/2000/svg" xmlns:xlink="http://www.w3.org/1999/xlink">
<g id="graph0" class="graph" transform="scale(1 1) rotate(0) translate(4 2018)">
<title>G</title>
<!-- node0 -->
<g id="node1" class="node">
<title>node0</title>
<polygon fill="#e98693" stroke="black" points="685,-2014 629,-2014 629,-1978 685,-1978 685,-2014"/>
<text text-anchor="middle" x="657" y="-1992.3" font-family="Arial" font-size="14.00" fill="#1a1919">0 Start</text>
</g>
<!-- node2824 -->
<g id="node40" class="node">
<title>node2824</title>
<polygon fill="#da2d4f" stroke="black" points="750.5,-1933 637.5,-1933 637.5,-1897 750.5,-1897 750.5,-1933"/>
<text text-anchor="middle" x="694" y="-1911.3" font-family="Arial" font-size="14.00" fill="#ffffff">2824 Load T(...)</text>
</g>
<!-- node0&#45;&gt;node2824 -->
<g id="edge67" class="edge">
<title>node0&#45;&gt;node2824</title>
<path fill="none" stroke="#da2d4f" stroke-width="2" d="M665.03,-1977.86C669.88,-1967.51 676.16,-1954.1 681.63,-1942.41"/>
<polygon fill="#da2d4f" stroke="#da2d4f" stroke-width="2" points="684.92,-1943.65 685.99,-1933.11 678.58,-1940.68 684.92,-1943.65"/>
</g>
<!-- node528 -->
<g id="node2" class="node">
<title>node528</title>
<polygon fill="#f9f9f9" stroke="black" points="684,-1852 602,-1852 602,-1816 684,-1816 684,-1852"/>
<text text-anchor="middle" x="643" y="-1830.3" font-family="Arial" font-size="14.00" fill="#1a1919">528 Unbox</text>
</g>
<!-- node2771 -->
<g id="node31" class="node">
<title>node2771</title>
<polygon fill="#ffa500" stroke="black" points="1003.5,-1765 752.5,-1765 752.5,-1729 1003.5,-1729 1003.5,-1765"/>
<text text-anchor="middle" x="878" y="-1743.3" font-family="Arial" font-size="14.00" fill="#1a1919">2771 Guard, else TransferToInterpreter</text>
</g>
<!-- node528&#45;&gt;node2771 -->
<g id="edge1" class="edge">
<title>node528&#45;&gt;node2771</title>
<path fill="none" stroke="#da2d4f" stroke-width="2" d="M684.2,-1818.1C722.18,-1804.36 778.9,-1783.84 821.18,-1768.55"/>
<polygon fill="#da2d4f" stroke="#da2d4f" stroke-width="2" points="822.56,-1771.77 830.78,-1765.08 820.18,-1765.19 822.56,-1771.77"/>
</g>
<!-- node2793 -->
<g id="node33" class="node">
<title>node2793</title>
<polygon fill="#f9f9f9" stroke="black" points="940,-878 882,-878 882,-842 940,-842 940,-878"/>
<text text-anchor="middle" x="911" y="-856.3" font-family="Arial" font-size="14.00" fill="#1a1919">2793 ϕ</text>
</g>
<!-- node528&#45;&gt;node2793 -->
<g id="edge48" class="edge">
<title>node528&#45;&gt;node2793</title>
<path fill="none" stroke="#3cb4a4" d="M670.22,-1815.97C690.61,-1800.88 715,-1776.82 715,-1748 715,-1748 715,-1748 715,-946 715,-878.44 814.24,-863.99 871.49,-861.27"/>
<polygon fill="#3cb4a4" stroke="#3cb4a4" points="871.79,-864.76 881.66,-860.89 871.53,-857.77 871.79,-864.76"/>
<text text-anchor="middle" x="742.5" y="-1364.3" font-family="arial" font-size="14.00" fill="#3cb4a4">from 809</text>
</g>
<!-- node2801 -->
<g id="node34" class="node">
<title>node2801</title>
<polygon fill="#f9f9f9" stroke="black" points="257,-123 199,-123 199,-87 257,-87 257,-123"/>
<text text-anchor="middle" x="228" y="-101.3" font-family="Arial" font-size="14.00" fill="#1a1919">2801 ϕ</text>
</g>
<!-- node528&#45;&gt;node2801 -->
<g id="edge51" class="edge">
<title>node528&#45;&gt;node2801</title>
<path fill="none" stroke="#3cb4a4" d="M601.8,-1831.91C459.88,-1827.6 0,-1808.95 0,-1748 0,-1748 0,-1748 0,-191 0,-104.38 98.35,-149.53 189.13,-122.78"/>
<polygon fill="#3cb4a4" stroke="#3cb4a4" points="190.3,-126.07 198.73,-119.66 188.14,-119.42 190.3,-126.07"/>
<text text-anchor="middle" x="30.5" y="-986.8" font-family="arial" font-size="14.00" fill="#3cb4a4">from 1194</text>
</g>
<!-- node2823 -->
<g id="node39" class="node">
<title>node2823</title>
<polygon fill="#f9f9f9" stroke="black" points="586.5,-1386 391.5,-1386 391.5,-1350 586.5,-1350 586.5,-1386"/>
<text text-anchor="middle" x="489" y="-1364.3" font-family="Arial" font-size="14.00" fill="#1a1919">2823 BoxNode$AllocatingBox</text>
</g>
<!-- node528&#45;&gt;node2823 -->
<g id="edge60" class="edge">
<title>node528&#45;&gt;node2823</title>
<path fill="none" stroke="#3cb4a4" d="M615.78,-1815.97C595.39,-1800.88 571,-1776.82 571,-1748 571,-1748 571,-1748 571,-1440 571,-1419.12 555.62,-1403.01 538.19,-1391.46"/>
<polygon fill="#3cb4a4" stroke="#3cb4a4" points="539.88,-1388.39 529.52,-1386.15 536.22,-1394.36 539.88,-1388.39"/>
<text text-anchor="middle" x="587.5" y="-1597.3" font-family="arial" font-size="14.00" fill="#3cb4a4">value</text>
</g>
<!-- node603 -->
<g id="node3" class="node">
<title>node603</title>
<polygon fill="#3cb4a4" stroke="black" points="878,-1852 807.45,-1834 878,-1816 948.55,-1834 878,-1852"/>
<text text-anchor="middle" x="878" y="-1830.3" font-family="Arial" font-size="14.00" fill="#1a1919">603 IsNull</text>
</g>
<!-- node603&#45;&gt;node2771 -->
<g id="edge43" class="edge">
<title>node603&#45;&gt;node2771</title>
<path fill="none" stroke="#3cb4a4" d="M878,-1815.8C878,-1804.16 878,-1788.55 878,-1775.24"/>
<polygon fill="#3cb4a4" stroke="#3cb4a4" points="881.5,-1775.18 878,-1765.18 874.5,-1775.18 881.5,-1775.18"/>
<text text-anchor="middle" x="882" y="-1786.8" font-family="arial" font-size="14.00" fill="#3cb4a4">?</text>
</g>
<!-- node809 -->
<g id="node4" class="node">
<title>node809</title>
<polygon fill="#e98693" stroke="black" points="935.5,-1692 868.5,-1692 868.5,-1656 935.5,-1656 935.5,-1692"/>
<text text-anchor="middle" x="902" y="-1670.3" font-family="Arial" font-size="14.00" fill="#1a1919">809 End</text>
</g>
<!-- node810 -->
<g id="node5" class="node">
<title>node810</title>
<polygon fill="#e98693" stroke="black" points="960.5,-1619 853.5,-1619 853.5,-1583 960.5,-1583 960.5,-1619"/>
<text text-anchor="middle" x="907" y="-1597.3" font-family="Arial" font-size="14.00" fill="#1a1919">810 LoopBegin</text>
</g>
<!-- node809&#45;&gt;node810 -->
<g id="edge2" class="edge">
<title>node809&#45;&gt;node810</title>
<path fill="none" stroke="#da2d4f" stroke-width="2" d="M903.21,-1655.81C903.78,-1647.79 904.46,-1638.05 905.09,-1629.07"/>
<polygon fill="#da2d4f" stroke="#da2d4f" stroke-width="2" points="908.59,-1629.25 905.8,-1619.03 901.61,-1628.76 908.59,-1629.25"/>
</g>
<!-- node1027 -->
<g id="node7" class="node">
<title>node1027</title>
<polygon fill="#e98693" stroke="black" points="936,-1546 878,-1546 878,-1510 936,-1510 936,-1546"/>
<text text-anchor="middle" x="907" y="-1524.3" font-family="Arial" font-size="14.00" fill="#1a1919">1027 If</text>
</g>
<!-- node810&#45;&gt;node1027 -->
<g id="edge3" class="edge">
<title>node810&#45;&gt;node1027</title>
<path fill="none" stroke="#da2d4f" stroke-width="2" d="M907,-1582.81C907,-1574.79 907,-1565.05 907,-1556.07"/>
<polygon fill="#da2d4f" stroke="#da2d4f" stroke-width="2" points="910.5,-1556.03 907,-1546.03 903.5,-1556.03 910.5,-1556.03"/>
</g>
<!-- node810&#45;&gt;node2793 -->
<g id="edge47" class="edge">
<title>node810&#45;&gt;node2793</title>
<path fill="none" stroke="#343d46" stroke-dasharray="5,2" d="M970.88,-1598.27C1062.16,-1594.03 1219,-1579.41 1219,-1529 1219,-1529 1219,-1529 1219,-1033 1219,-906.07 1017.14,-871.93 940.25,-863.53"/>
<polygon fill="#343d46" stroke="#343d46" points="970.47,-1594.78 960.63,-1598.71 970.78,-1601.78 970.47,-1594.78"/>
</g>
<!-- node988 -->
<g id="node6" class="node">
<title>node988</title>
<polygon fill="#3cb4a4" stroke="black" points="1415,-791 1368.25,-773 1415,-755 1461.75,-773 1415,-791"/>
<text text-anchor="middle" x="1415" y="-769.3" font-family="Arial" font-size="14.00" fill="#1a1919">988 &lt;</text>
</g>
<!-- node988&#45;&gt;node1027 -->
<g id="edge6" class="edge">
<title>node988&#45;&gt;node1027</title>
<path fill="none" stroke="#3cb4a4" d="M1397.79,-784.52C1343.75,-819.03 1181,-934.74 1181,-1076.5 1181,-1442 1181,-1442 1181,-1442 1181,-1490.58 1021.9,-1514.48 946.17,-1523.1"/>
<polygon fill="#3cb4a4" stroke="#3cb4a4" points="945.62,-1519.64 936.06,-1524.22 946.39,-1526.6 945.62,-1519.64"/>
<text text-anchor="middle" x="1185" y="-1160.8" font-family="arial" font-size="14.00" fill="#3cb4a4">?</text>
</g>
<!-- node1030 -->
<g id="node8" class="node">
<title>node1030</title>
<polygon fill="#e98693" stroke="black" points="949.5,-1459 864.5,-1459 864.5,-1423 949.5,-1423 949.5,-1459"/>
<text text-anchor="middle" x="907" y="-1437.3" font-family="Arial" font-size="14.00" fill="#1a1919">1030 Begin</text>
</g>
<!-- node1027&#45;&gt;node1030 -->
<g id="edge8" class="edge">
<title>node1027&#45;&gt;node1030</title>
<path fill="none" stroke="#da2d4f" stroke-width="2" d="M907,-1509.8C907,-1498.16 907,-1482.55 907,-1469.24"/>
<polygon fill="#da2d4f" stroke="#da2d4f" stroke-width="2" points="910.5,-1469.18 907,-1459.18 903.5,-1469.18 910.5,-1469.18"/>
<text text-anchor="middle" x="911.5" y="-1480.8" font-family="arial" font-size="14.00" fill="#da2d4f">F</text>
</g>
<!-- node2621 -->
<g id="node23" class="node">
<title>node2621</title>
<polygon fill="#e98693" stroke="black" points="846.5,-1459 743.5,-1459 743.5,-1423 846.5,-1423 846.5,-1459"/>
<text text-anchor="middle" x="795" y="-1437.3" font-family="Arial" font-size="14.00" fill="#1a1919">2621 LoopExit</text>
</g>
<!-- node1027&#45;&gt;node2621 -->
<g id="edge7" class="edge">
<title>node1027&#45;&gt;node2621</title>
<path fill="none" stroke="#da2d4f" stroke-width="2" d="M884.34,-1509.8C867.48,-1497.01 844.3,-1479.42 825.78,-1465.36"/>
<polygon fill="#da2d4f" stroke="#da2d4f" stroke-width="2" points="827.71,-1462.43 817.63,-1459.18 823.48,-1468.01 827.71,-1462.43"/>
<text text-anchor="middle" x="861.5" y="-1480.8" font-family="arial" font-size="14.00" fill="#da2d4f">T</text>
</g>
<!-- node1194 -->
<g id="node9" class="node">
<title>node1194</title>
<polygon fill="#e98693" stroke="black" points="679,-1386 605,-1386 605,-1350 679,-1350 679,-1386"/>
<text text-anchor="middle" x="642" y="-1364.3" font-family="Arial" font-size="14.00" fill="#1a1919">1194 End</text>
</g>
<!-- node1030&#45;&gt;node1194 -->
<g id="edge9" class="edge">
<title>node1030&#45;&gt;node1194</title>
<path fill="none" stroke="#da2d4f" stroke-width="2" d="M864.24,-1425.41C861.46,-1424.56 858.7,-1423.75 856,-1423 784.45,-1403.01 764.55,-1405.99 693,-1386 691.74,-1385.65 690.46,-1385.28 689.17,-1384.91"/>
<polygon fill="#da2d4f" stroke="#da2d4f" stroke-width="2" points="689.78,-1381.43 679.19,-1381.87 687.74,-1388.13 689.78,-1381.43"/>
</g>
<!-- node1195 -->
<g id="node10" class="node">
<title>node1195</title>
<polygon fill="#e98693" stroke="black" points="634,-1299 520,-1299 520,-1263 634,-1263 634,-1299"/>
<text text-anchor="middle" x="577" y="-1277.3" font-family="Arial" font-size="14.00" fill="#1a1919">1195 LoopBegin</text>
</g>
<!-- node1194&#45;&gt;node1195 -->
<g id="edge10" class="edge">
<title>node1194&#45;&gt;node1195</title>
<path fill="none" stroke="#da2d4f" stroke-width="2" d="M628.85,-1349.8C619.51,-1337.59 606.82,-1320.99 596.33,-1307.28"/>
<polygon fill="#da2d4f" stroke="#da2d4f" stroke-width="2" points="598.99,-1304.99 590.13,-1299.18 593.43,-1309.25 598.99,-1304.99"/>
</g>
<!-- node1405 -->
<g id="node12" class="node">
<title>node1405</title>
<polygon fill="#e98693" stroke="black" points="604,-1226 546,-1226 546,-1190 604,-1190 604,-1226"/>
<text text-anchor="middle" x="575" y="-1204.3" font-family="Arial" font-size="14.00" fill="#1a1919">1405 If</text>
</g>
<!-- node1195&#45;&gt;node1405 -->
<g id="edge11" class="edge">
<title>node1195&#45;&gt;node1405</title>
<path fill="none" stroke="#da2d4f" stroke-width="2" d="M576.52,-1262.81C576.29,-1254.79 576.02,-1245.05 575.76,-1236.07"/>
<polygon fill="#da2d4f" stroke="#da2d4f" stroke-width="2" points="579.26,-1235.93 575.48,-1226.03 572.26,-1236.12 579.26,-1235.93"/>
</g>
<!-- node1195&#45;&gt;node2801 -->
<g id="edge50" class="edge">
<title>node1195&#45;&gt;node2801</title>
<path fill="none" stroke="#343d46" stroke-dasharray="5,2" d="M509.55,-1263.51C426.78,-1254.83 76,-1255.32 76,-1209 76,-1209 76,-1209 76,-191 76,-177.09 154.52,-139.27 198.69,-119.09"/>
<polygon fill="#343d46" stroke="#343d46" points="509.37,-1267.01 519.74,-1264.86 510.29,-1260.08 509.37,-1267.01"/>
</g>
<!-- node1367 -->
<g id="node11" class="node">
<title>node1367</title>
<polygon fill="#3cb4a4" stroke="black" points="228,-36 173.54,-18 228,0 282.46,-18 228,-36"/>
<text text-anchor="middle" x="228" y="-14.3" font-family="Arial" font-size="14.00" fill="#1a1919">1367 &lt;</text>
</g>
<!-- node1367&#45;&gt;node1405 -->
<g id="edge14" class="edge">
<title>node1367&#45;&gt;node1405</title>
<path fill="none" stroke="#3cb4a4" d="M270.01,-22.14C313.77,-26.37 378.15,-35.58 394,-54 459.04,-129.59 407,-178.28 407,-278 407,-1122 407,-1122 407,-1122 407,-1179.37 485.97,-1198.03 535.62,-1204.09"/>
<polygon fill="#3cb4a4" stroke="#3cb4a4" points="535.41,-1207.59 545.74,-1205.2 536.18,-1200.63 535.41,-1207.59"/>
<text text-anchor="middle" x="411" y="-595.3" font-family="arial" font-size="14.00" fill="#3cb4a4">?</text>
</g>
<!-- node1408 -->
<g id="node13" class="node">
<title>node1408</title>
<polygon fill="#e98693" stroke="black" points="612.5,-1139 527.5,-1139 527.5,-1103 612.5,-1103 612.5,-1139"/>
<text text-anchor="middle" x="570" y="-1117.3" font-family="Arial" font-size="14.00" fill="#1a1919">1408 Begin</text>
</g>
<!-- node1405&#45;&gt;node1408 -->
<g id="edge16" class="edge">
<title>node1405&#45;&gt;node1408</title>
<path fill="none" stroke="#da2d4f" stroke-width="2" d="M573.99,-1189.8C573.3,-1178.16 572.39,-1162.55 571.6,-1149.24"/>
<polygon fill="#da2d4f" stroke="#da2d4f" stroke-width="2" points="575.09,-1148.95 571.01,-1139.18 568.1,-1149.36 575.09,-1148.95"/>
<text text-anchor="middle" x="577.5" y="-1160.8" font-family="arial" font-size="14.00" fill="#da2d4f">F</text>
</g>
<!-- node2263 -->
<g id="node18" class="node">
<title>node2263</title>
<polygon fill="#e98693" stroke="black" points="903.5,-1139 800.5,-1139 800.5,-1103 903.5,-1103 903.5,-1139"/>
<text text-anchor="middle" x="852" y="-1117.3" font-family="Arial" font-size="14.00" fill="#1a1919">2263 LoopExit</text>
</g>
<!-- node1405&#45;&gt;node2263 -->
<g id="edge15" class="edge">
<title>node1405&#45;&gt;node2263</title>
<path fill="none" stroke="#da2d4f" stroke-width="2" d="M604.12,-1198.06C648.11,-1184.57 732.51,-1158.67 790.51,-1140.87"/>
<polygon fill="#da2d4f" stroke="#da2d4f" stroke-width="2" points="791.76,-1144.15 800.29,-1137.87 789.71,-1137.45 791.76,-1144.15"/>
<text text-anchor="middle" x="734.5" y="-1160.8" font-family="arial" font-size="14.00" fill="#da2d4f">T</text>
</g>
<!-- node2778 -->
<g id="node32" class="node">
<title>node2778</title>
<polygon fill="#ffa500" stroke="black" points="686.5,-1052 435.5,-1052 435.5,-1016 686.5,-1016 686.5,-1052"/>
<text text-anchor="middle" x="561" y="-1030.3" font-family="Arial" font-size="14.00" fill="#1a1919">2778 Guard, else TransferToInterpreter</text>
</g>
<!-- node1408&#45;&gt;node2778 -->
<g id="edge17" class="edge">
<title>node1408&#45;&gt;node2778</title>
<path fill="none" stroke="#da2d4f" stroke-width="2" d="M568.18,-1102.8C566.95,-1091.16 565.29,-1075.55 563.88,-1062.24"/>
<polygon fill="#da2d4f" stroke="#da2d4f" stroke-width="2" points="567.35,-1061.75 562.82,-1052.18 560.39,-1062.49 567.35,-1061.75"/>
</g>
<!-- node1645 -->
<g id="node14" class="node">
<title>node1645</title>
<polygon fill="#3cb4a4" stroke="black" points="317,-1139 255.33,-1121 317,-1103 378.67,-1121 317,-1139"/>
<text text-anchor="middle" x="317" y="-1117.3" font-family="Arial" font-size="14.00" fill="#1a1919">1645 ==</text>
</g>
<!-- node1645&#45;&gt;node2778 -->
<g id="edge45" class="edge">
<title>node1645&#45;&gt;node2778</title>
<path fill="none" stroke="#3cb4a4" d="M343.58,-1110.74C381.52,-1097.52 452.2,-1072.9 502.68,-1055.32"/>
<polygon fill="#3cb4a4" stroke="#3cb4a4" points="503.88,-1058.6 512.17,-1052.01 501.58,-1051.99 503.88,-1058.6"/>
<text text-anchor="middle" x="458" y="-1073.8" font-family="arial" font-size="14.00" fill="#3cb4a4">?</text>
</g>
<!-- node2163 -->
<g id="node15" class="node">
<title>node2163</title>
<polygon fill="#ffa500" stroke="black" points="701,-297 435,-297 435,-261 701,-261 701,-297"/>
<text text-anchor="middle" x="568" y="-275.3" font-family="Arial" font-size="14.00" fill="#1a1919">2163 Guard not, else ArithmeticException</text>
</g>
<!-- node2166 -->
<g id="node17" class="node">
<title>node2166</title>
<polygon fill="#3cb4a4" stroke="black" points="242,-210 104.25,-192 242,-174 379.75,-192 242,-210"/>
<text text-anchor="middle" x="242" y="-188.3" font-family="Arial" font-size="14.00" fill="#1a1919">2166 IntegerSubExact</text>
</g>
<!-- node2163&#45;&gt;node2166 -->
<g id="edge25" class="edge">
<title>node2163&#45;&gt;node2166</title>
<path fill="none" stroke="#3cb4a4" d="M502.42,-260.9C441.56,-245.03 352.07,-221.7 295.44,-206.93"/>
<polygon fill="#3cb4a4" stroke="#3cb4a4" points="296.16,-203.51 285.6,-204.37 294.4,-210.28 296.16,-203.51"/>
<text text-anchor="middle" x="442.5" y="-231.8" font-family="arial" font-size="14.00" fill="#3cb4a4">guard</text>
</g>
<!-- node2268 -->
<g id="node19" class="node">
<title>node2268</title>
<polygon fill="#e98693" stroke="black" points="541,-210 437,-210 437,-174 541,-174 541,-210"/>
<text text-anchor="middle" x="489" y="-188.3" font-family="Arial" font-size="14.00" fill="#1a1919">2268 LoopEnd</text>
</g>
<!-- node2163&#45;&gt;node2268 -->
<g id="edge20" class="edge">
<title>node2163&#45;&gt;node2268</title>
<path fill="none" stroke="#da2d4f" stroke-width="2" d="M552.01,-260.8C540.45,-248.36 524.66,-231.36 511.77,-217.5"/>
<polygon fill="#da2d4f" stroke="#da2d4f" stroke-width="2" points="514.33,-215.12 504.96,-210.18 509.21,-219.88 514.33,-215.12"/>
</g>
<!-- node2164 -->
<g id="node16" class="node">
<title>node2164</title>
<polygon fill="#3cb4a4" stroke="black" points="569,-36 381.48,-18 569,0 756.52,-18 569,-36"/>
<text text-anchor="middle" x="569" y="-14.3" font-family="Arial" font-size="14.00" fill="#1a1919">2164 IntegerSubExactOverflow</text>
</g>
<!-- node2164&#45;&gt;node2163 -->
<g id="edge19" class="edge">
<title>node2164&#45;&gt;node2163</title>
<path fill="none" stroke="#3cb4a4" d="M568.93,-36.32C568.76,-80.38 568.31,-197.01 568.11,-250.49"/>
<polygon fill="#3cb4a4" stroke="#3cb4a4" points="564.61,-250.59 568.07,-260.6 571.61,-250.62 564.61,-250.59"/>
<text text-anchor="middle" x="573" y="-144.8" font-family="arial" font-size="14.00" fill="#3cb4a4">?</text>
</g>
<!-- node2166&#45;&gt;node2801 -->
<g id="edge52" class="edge">
<title>node2166&#45;&gt;node2801</title>
<path fill="none" stroke="#3cb4a4" d="M215.57,-177.19C207.82,-171.71 200.28,-164.63 196,-156 191.83,-147.59 194.68,-138.84 200.08,-131.05"/>
<polygon fill="#3cb4a4" stroke="#3cb4a4" points="203.03,-132.97 206.72,-123.04 197.64,-128.5 203.03,-132.97"/>
<text text-anchor="middle" x="227" y="-144.8" font-family="arial" font-size="14.00" fill="#3cb4a4">from 2268</text>
</g>
<!-- node2523 -->
<g id="node20" class="node">
<title>node2523</title>
<polygon fill="#ffa500" stroke="black" points="1153,-1052 887,-1052 887,-1016 1153,-1016 1153,-1052"/>
<text text-anchor="middle" x="1020" y="-1030.3" font-family="Arial" font-size="14.00" fill="#1a1919">2523 Guard not, else ArithmeticException</text>
</g>
<!-- node2263&#45;&gt;node2523 -->
<g id="edge26" class="edge">
<title>node2263&#45;&gt;node2523</title>
<path fill="none" stroke="#da2d4f" stroke-width="2" d="M886,-1102.8C912.27,-1089.51 948.8,-1071.02 977.09,-1056.71"/>
<polygon fill="#da2d4f" stroke="#da2d4f" stroke-width="2" points="979,-1059.67 986.34,-1052.03 975.84,-1053.42 979,-1059.67"/>
</g>
<!-- node2526 -->
<g id="node22" class="node">
<title>node2526</title>
<polygon fill="#3cb4a4" stroke="black" points="881,-965 743.25,-947 881,-929 1018.75,-947 881,-965"/>
<text text-anchor="middle" x="881" y="-943.3" font-family="Arial" font-size="14.00" fill="#1a1919">2526 IntegerSubExact</text>
</g>
<!-- node2523&#45;&gt;node2526 -->
<g id="edge33" class="edge">
<title>node2523&#45;&gt;node2526</title>
<path fill="none" stroke="#3cb4a4" d="M991.87,-1015.8C968.94,-1001.78 936.56,-981.98 912.71,-967.39"/>
<polygon fill="#3cb4a4" stroke="#3cb4a4" points="914.38,-964.31 904.03,-962.08 910.73,-970.28 914.38,-964.31"/>
<text text-anchor="middle" x="975.5" y="-986.8" font-family="arial" font-size="14.00" fill="#3cb4a4">guard</text>
</g>
<!-- node2626 -->
<g id="node24" class="node">
<title>node2626</title>
<polygon fill="#e98693" stroke="black" points="1141,-965 1037,-965 1037,-929 1141,-929 1141,-965"/>
<text text-anchor="middle" x="1089" y="-943.3" font-family="Arial" font-size="14.00" fill="#1a1919">2626 LoopEnd</text>
</g>
<!-- node2523&#45;&gt;node2626 -->
<g id="edge28" class="edge">
<title>node2523&#45;&gt;node2626</title>
<path fill="none" stroke="#da2d4f" stroke-width="2" d="M1033.96,-1015.8C1043.88,-1003.59 1057.35,-986.99 1068.48,-973.28"/>
<polygon fill="#da2d4f" stroke="#da2d4f" stroke-width="2" points="1071.47,-975.15 1075.06,-965.18 1066.04,-970.73 1071.47,-975.15"/>
</g>
<!-- node2524 -->
<g id="node21" class="node">
<title>node2524</title>
<polygon fill="#3cb4a4" stroke="black" points="1163,-791 975.48,-773 1163,-755 1350.52,-773 1163,-791"/>
<text text-anchor="middle" x="1163" y="-769.3" font-family="Arial" font-size="14.00" fill="#1a1919">2524 IntegerSubExactOverflow</text>
</g>
<!-- node2524&#45;&gt;node2523 -->
<g id="edge27" class="edge">
<title>node2524&#45;&gt;node2523</title>
<path fill="none" stroke="#3cb4a4" d="M1166.9,-790.75C1174.14,-826.2 1185.89,-910.04 1150,-965 1136.05,-986.37 1113.1,-1001.43 1090.34,-1011.84"/>
<polygon fill="#3cb4a4" stroke="#3cb4a4" points="1088.76,-1008.71 1080.97,-1015.89 1091.54,-1015.14 1088.76,-1008.71"/>
<text text-anchor="middle" x="1176" y="-899.8" font-family="arial" font-size="14.00" fill="#3cb4a4">?</text>
</g>
<!-- node2526&#45;&gt;node2793 -->
<g id="edge49" class="edge">
<title>node2526&#45;&gt;node2793</title>
<path fill="none" stroke="#3cb4a4" d="M886.78,-929.61C890.98,-917.73 896.74,-901.41 901.59,-887.67"/>
<polygon fill="#3cb4a4" stroke="#3cb4a4" points="904.9,-888.81 904.92,-878.21 898.3,-886.48 904.9,-888.81"/>
<text text-anchor="middle" x="928" y="-899.8" font-family="arial" font-size="14.00" fill="#3cb4a4">from 2626</text>
</g>
<!-- node2621&#45;&gt;node2823 -->
<g id="edge34" class="edge">
<title>node2621&#45;&gt;node2823</title>
<path fill="none" stroke="#da2d4f" stroke-width="2" d="M743.44,-1428.04C696.7,-1417.19 626.97,-1401.01 572.32,-1388.33"/>
<polygon fill="#da2d4f" stroke="#da2d4f" stroke-width="2" points="572.83,-1384.86 562.3,-1386.01 571.25,-1391.68 572.83,-1384.86"/>
</g>
<!-- node2722 -->
<g id="node25" class="node">
<title>node2722</title>
<polygon fill="#e98693" stroke="black" points="501.5,-1299 410.5,-1299 410.5,-1263 501.5,-1263 501.5,-1299"/>
<text text-anchor="middle" x="456" y="-1277.3" font-family="Arial" font-size="14.00" fill="#1a1919">2722 Return</text>
</g>
<!-- node2754 -->
<g id="node26" class="node">
<title>node2754</title>
<polygon fill="#da2d4f" stroke="black" points="782,-457 492,-457 492,-421 782,-421 782,-457"/>
<text text-anchor="middle" x="637" y="-435.3" font-family="Arial" font-size="14.00" fill="#ffffff">2754 Call OptimizedCallTarget.callBoundary !</text>
</g>
<!-- node2758 -->
<g id="node28" class="node">
<title>node2758</title>
<polygon fill="#e98693" stroke="black" points="665.5,-370 544.5,-370 544.5,-334 665.5,-334 665.5,-370"/>
<text text-anchor="middle" x="605" y="-348.3" font-family="Arial" font-size="14.00" fill="#1a1919">2758 KillingBegin</text>
</g>
<!-- node2754&#45;&gt;node2758 -->
<g id="edge37" class="edge">
<title>node2754&#45;&gt;node2758</title>
<path fill="none" stroke="#da2d4f" stroke-width="2" d="M630.52,-420.8C626.1,-409.05 620.15,-393.24 615.11,-379.84"/>
<polygon fill="#da2d4f" stroke="#da2d4f" stroke-width="2" points="618.26,-378.3 611.47,-370.18 611.71,-380.77 618.26,-378.3"/>
</g>
<!-- node2759 -->
<g id="node29" class="node">
<title>node2759</title>
<polygon fill="#f9f9f9" stroke="black" points="854.5,-370 705.5,-370 705.5,-334 854.5,-334 854.5,-370"/>
<text text-anchor="middle" x="780" y="-348.3" font-family="Arial" font-size="14.00" fill="#1a1919">2759 ExceptionObject</text>
</g>
<!-- node2754&#45;&gt;node2759 -->
<g id="edge38" class="edge">
<title>node2754&#45;&gt;node2759</title>
<path fill="none" stroke="#da2d4f" stroke-width="2" d="M665.94,-420.8C687.94,-407.72 718.39,-389.62 742.29,-375.41"/>
<polygon fill="#da2d4f" stroke="#da2d4f" stroke-width="2" points="744.3,-378.29 751.1,-370.18 740.72,-372.28 744.3,-378.29"/>
<text text-anchor="middle" x="739.5" y="-391.8" font-family="arial" font-size="14.00" fill="#da2d4f">unwind</text>
</g>
<!-- node2755 -->
<g id="node27" class="node">
<title>node2755</title>
<polygon fill="#f9f9f9" stroke="black" points="791.5,-530 634.5,-530 634.5,-494 791.5,-494 791.5,-530"/>
<text text-anchor="middle" x="713" y="-508.3" font-family="Arial" font-size="14.00" fill="#1a1919">2755 MethodCallTarget</text>
</g>
<!-- node2755&#45;&gt;node2754 -->
<g id="edge36" class="edge">
<title>node2755&#45;&gt;node2754</title>
<path fill="none" stroke="#343d46" stroke-dasharray="5,2" d="M687.25,-486.94C676.73,-477.12 664.82,-465.99 655.23,-457.03"/>
<polygon fill="#343d46" stroke="#343d46" points="684.91,-489.54 694.6,-493.81 689.68,-484.43 684.91,-489.54"/>
</g>
<!-- node2758&#45;&gt;node2163 -->
<g id="edge41" class="edge">
<title>node2758&#45;&gt;node2163</title>
<path fill="none" stroke="#da2d4f" stroke-width="2" d="M596.04,-333.81C591.68,-325.44 586.34,-315.2 581.5,-305.9"/>
<polygon fill="#da2d4f" stroke="#da2d4f" stroke-width="2" points="584.6,-304.28 576.87,-297.03 578.39,-307.51 584.6,-304.28"/>
</g>
<!-- node2764 -->
<g id="node30" class="node">
<title>node2764</title>
<polygon fill="#da2d4f" stroke="black" points="936.5,-297 719.5,-297 719.5,-261 936.5,-261 936.5,-297"/>
<text text-anchor="middle" x="828" y="-275.3" font-family="Arial" font-size="14.00" fill="#ffffff">2764 Deopt TransferToInterpreter</text>
</g>
<!-- node2759&#45;&gt;node2764 -->
<g id="edge42" class="edge">
<title>node2759&#45;&gt;node2764</title>
<path fill="none" stroke="#da2d4f" stroke-width="2" d="M791.62,-333.81C797.4,-325.27 804.49,-314.77 810.88,-305.32"/>
<polygon fill="#da2d4f" stroke="#da2d4f" stroke-width="2" points="813.79,-307.27 816.49,-297.03 807.99,-303.35 813.79,-307.27"/>
</g>
<!-- node2771&#45;&gt;node809 -->
<g id="edge44" class="edge">
<title>node2771&#45;&gt;node809</title>
<path fill="none" stroke="#da2d4f" stroke-width="2" d="M883.81,-1728.81C886.55,-1720.7 889.89,-1710.84 892.95,-1701.78"/>
<polygon fill="#da2d4f" stroke="#da2d4f" stroke-width="2" points="896.36,-1702.62 896.24,-1692.03 889.73,-1700.38 896.36,-1702.62"/>
</g>
<!-- node2810 -->
<g id="node36" class="node">
<title>node2810</title>
<polygon fill="#f9f9f9" stroke="black" points="702.5,-791 507.5,-791 507.5,-755 702.5,-755 702.5,-791"/>
<text text-anchor="middle" x="605" y="-769.3" font-family="Arial" font-size="14.00" fill="#1a1919">2810 BoxNode$AllocatingBox</text>
</g>
<!-- node2778&#45;&gt;node2810 -->
<g id="edge46" class="edge">
<title>node2778&#45;&gt;node2810</title>
<path fill="none" stroke="#da2d4f" stroke-width="2" d="M563.96,-1015.6C571.45,-971.46 591.27,-854.83 600.34,-801.42"/>
<polygon fill="#da2d4f" stroke="#da2d4f" stroke-width="2" points="603.83,-801.77 602.06,-791.32 596.93,-800.59 603.83,-801.77"/>
</g>
<!-- node2793&#45;&gt;node988 -->
<g id="edge4" class="edge">
<title>node2793&#45;&gt;node988</title>
<path fill="none" stroke="#3cb4a4" d="M940.02,-855.22C984.92,-849.27 1073.9,-837.02 1149,-824 1182.49,-818.19 1190.47,-814.57 1224,-809 1284.15,-799.02 1300.44,-804.05 1360,-791 1367.08,-789.45 1374.57,-787.41 1381.66,-785.29"/>
<polygon fill="#3cb4a4" stroke="#3cb4a4" points="1383.18,-788.48 1391.68,-782.16 1381.09,-781.8 1383.18,-788.48"/>
<text text-anchor="middle" x="1227.5" y="-812.8" font-family="arial" font-size="14.00" fill="#3cb4a4">x</text>
</g>
<!-- node2793&#45;&gt;node2524 -->
<g id="edge29" class="edge">
<title>node2793&#45;&gt;node2524</title>
<path fill="none" stroke="#3cb4a4" d="M940.4,-849.08C982.97,-834.72 1062.3,-807.97 1113.85,-790.58"/>
<polygon fill="#3cb4a4" stroke="#3cb4a4" points="1115.1,-793.85 1123.46,-787.34 1112.87,-787.22 1115.1,-793.85"/>
<text text-anchor="middle" x="1055.5" y="-812.8" font-family="arial" font-size="14.00" fill="#3cb4a4">x</text>
</g>
<!-- node2793&#45;&gt;node2526 -->
<g id="edge31" class="edge">
<title>node2793&#45;&gt;node2526</title>
<path fill="none" stroke="#3cb4a4" d="M894.44,-878.27C890.3,-883.56 886.37,-889.68 884,-896 881.35,-903.08 880.15,-911.13 879.73,-918.66"/>
<polygon fill="#3cb4a4" stroke="#3cb4a4" points="876.22,-918.77 879.57,-928.82 883.22,-918.87 876.22,-918.77"/>
<text text-anchor="middle" x="887.5" y="-899.8" font-family="arial" font-size="14.00" fill="#3cb4a4">x</text>
</g>
<!-- node2793&#45;&gt;node2810 -->
<g id="edge53" class="edge">
<title>node2793&#45;&gt;node2810</title>
<path fill="none" stroke="#3cb4a4" d="M881.94,-850.93C835.11,-837.92 741.61,-811.95 676.27,-793.8"/>
<polygon fill="#3cb4a4" stroke="#3cb4a4" points="677.01,-790.37 666.44,-791.07 675.14,-797.12 677.01,-790.37"/>
<text text-anchor="middle" x="792.5" y="-812.8" font-family="arial" font-size="14.00" fill="#3cb4a4">value</text>
</g>
<!-- node2801&#45;&gt;node1367 -->
<g id="edge12" class="edge">
<title>node2801&#45;&gt;node1367</title>
<path fill="none" stroke="#3cb4a4" d="M228,-86.8C228,-75.16 228,-59.55 228,-46.24"/>
<polygon fill="#3cb4a4" stroke="#3cb4a4" points="231.5,-46.18 228,-36.18 224.5,-46.18 231.5,-46.18"/>
<text text-anchor="middle" x="231.5" y="-57.8" font-family="arial" font-size="14.00" fill="#3cb4a4">x</text>
</g>
<!-- node2801&#45;&gt;node2164 -->
<g id="edge21" class="edge">
<title>node2801&#45;&gt;node2164</title>
<path fill="none" stroke="#3cb4a4" d="M257.07,-96.75C312.84,-82.85 435.81,-52.2 509.61,-33.8"/>
<polygon fill="#3cb4a4" stroke="#3cb4a4" points="510.82,-37.11 519.68,-31.29 509.13,-30.32 510.82,-37.11"/>
<text text-anchor="middle" x="422.5" y="-57.8" font-family="arial" font-size="14.00" fill="#3cb4a4">x</text>
</g>
<!-- node2801&#45;&gt;node2166 -->
<g id="edge23" class="edge">
<title>node2801&#45;&gt;node2166</title>
<path fill="none" stroke="#3cb4a4" d="M249.8,-123.24C254.74,-128.37 259.32,-134.41 262,-141 265.33,-149.22 263.45,-158.21 259.76,-166.28"/>
<polygon fill="#3cb4a4" stroke="#3cb4a4" points="256.59,-164.78 254.8,-175.22 262.71,-168.17 256.59,-164.78"/>
<text text-anchor="middle" x="267.5" y="-144.8" font-family="arial" font-size="14.00" fill="#3cb4a4">x</text>
</g>
<!-- node2807 -->
<g id="node35" class="node">
<title>node2807</title>
<polygon fill="#343d46" stroke="black" points="957.5,-791 720.5,-791 720.5,-755 957.5,-755 957.5,-791"/>
<text text-anchor="middle" x="839" y="-769.3" font-family="Arial" font-size="14.00" fill="#ffffff">2807 VirtualArray java.lang.Object[8]</text>
</g>
<!-- node2811 -->
<g id="node37" class="node">
<title>node2811</title>
<polygon fill="#da2d4f" stroke="black" points="653,-704 575,-704 575,-668 653,-668 653,-704"/>
<text text-anchor="middle" x="614" y="-682.3" font-family="Arial" font-size="14.00" fill="#ffffff">2811 Alloc</text>
</g>
<!-- node2807&#45;&gt;node2811 -->
<g id="edge55" class="edge">
<title>node2807&#45;&gt;node2811</title>
<path fill="none" stroke="#3cb4a4" d="M791.05,-754.98C775.38,-749.34 757.92,-742.98 742,-737 715.7,-727.12 686.5,-715.75 662.65,-706.35"/>
<polygon fill="#3cb4a4" stroke="#3cb4a4" points="663.7,-703 653.11,-702.58 661.13,-709.51 663.7,-703"/>
<text text-anchor="middle" x="783.5" y="-725.8" font-family="arial" font-size="14.00" fill="#3cb4a4">virtualObjects</text>
</g>
<!-- node2812 -->
<g id="node38" class="node">
<title>node2812</title>
<polygon fill="#343d46" stroke="black" points="911.5,-617 766.5,-617 766.5,-581 911.5,-581 911.5,-617"/>
<text text-anchor="middle" x="839" y="-595.3" font-family="Arial" font-size="14.00" fill="#ffffff">2812 AllocatedObject</text>
</g>
<!-- node2807&#45;&gt;node2812 -->
<g id="edge58" class="edge">
<title>node2807&#45;&gt;node2812</title>
<path fill="none" stroke="#3cb4a4" d="M839,-754.88C839,-725 839,-663.11 839,-627.27"/>
<polygon fill="#3cb4a4" stroke="#3cb4a4" points="842.5,-627.05 839,-617.05 835.5,-627.05 842.5,-627.05"/>
<text text-anchor="middle" x="877" y="-682.3" font-family="arial" font-size="14.00" fill="#3cb4a4">virtualObject</text>
</g>
<!-- node2810&#45;&gt;node2811 -->
<g id="edge54" class="edge">
<title>node2810&#45;&gt;node2811</title>
<path fill="none" stroke="#da2d4f" stroke-width="2" d="M602.69,-754.78C601.8,-745.1 601.34,-732.82 603,-722 603.41,-719.32 603.99,-716.56 604.67,-713.83"/>
<polygon fill="#da2d4f" stroke="#da2d4f" stroke-width="2" points="608.04,-714.78 607.45,-704.2 601.31,-712.83 608.04,-714.78"/>
</g>
<!-- node2810&#45;&gt;node2811 -->
<g id="edge56" class="edge">
<title>node2810&#45;&gt;node2811</title>
<path fill="none" stroke="#3cb4a4" d="M606.82,-754.8C608.05,-743.16 609.71,-727.55 611.12,-714.24"/>
<polygon fill="#3cb4a4" stroke="#3cb4a4" points="614.61,-714.49 612.18,-704.18 607.65,-713.75 614.61,-714.49"/>
<text text-anchor="middle" x="631" y="-725.8" font-family="arial" font-size="14.00" fill="#3cb4a4">values</text>
</g>
<!-- node2811&#45;&gt;node2754 -->
<g id="edge57" class="edge">
<title>node2811&#45;&gt;node2754</title>
<path fill="none" stroke="#da2d4f" stroke-width="2" d="M614.06,-667.79C614.4,-634.21 616.15,-557.66 625,-494 626.22,-485.21 628.13,-475.73 630.06,-467.2"/>
<polygon fill="#da2d4f" stroke="#da2d4f" stroke-width="2" points="633.49,-467.92 632.39,-457.38 626.68,-466.3 633.49,-467.92"/>
</g>
<!-- node2811&#45;&gt;node2812 -->
<g id="edge59" class="edge">
<title>node2811&#45;&gt;node2812</title>
<path fill="none" stroke="#3cb4a4" d="M653.19,-670.19C689.44,-656.5 743.68,-636.01 784.21,-620.7"/>
<polygon fill="#3cb4a4" stroke="#3cb4a4" points="785.56,-623.93 793.68,-617.12 783.09,-617.38 785.56,-623.93"/>
<text text-anchor="middle" x="762" y="-638.8" font-family="arial" font-size="14.00" fill="#3cb4a4">commit</text>
</g>
<!-- node2812&#45;&gt;node2755 -->
<g id="edge40" class="edge">
<title>node2812&#45;&gt;node2755</title>
<path fill="none" stroke="#3cb4a4" d="M813.5,-580.8C794.29,-567.84 767.76,-549.94 746.78,-535.79"/>
<polygon fill="#3cb4a4" stroke="#3cb4a4" points="748.71,-532.87 738.46,-530.18 744.79,-538.67 748.71,-532.87"/>
<text text-anchor="middle" x="800.5" y="-551.8" font-family="arial" font-size="14.00" fill="#3cb4a4">arg[1]</text>
</g>
<!-- node2823&#45;&gt;node2722 -->
<g id="edge35" class="edge">
<title>node2823&#45;&gt;node2722</title>
<path fill="none" stroke="#3cb4a4" d="M482.32,-1349.8C477.76,-1338.05 471.62,-1322.24 466.42,-1308.84"/>
<polygon fill="#3cb4a4" stroke="#3cb4a4" points="469.55,-1307.23 462.67,-1299.18 463.02,-1309.76 469.55,-1307.23"/>
<text text-anchor="middle" x="492" y="-1320.8" font-family="arial" font-size="14.00" fill="#3cb4a4">result</text>
</g>
<!-- node2823&#45;&gt;node2722 -->
<g id="edge61" class="edge">
<title>node2823&#45;&gt;node2722</title>
<path fill="none" stroke="#da2d4f" stroke-width="2" d="M478.74,-1349.93C475.65,-1344.34 472.44,-1338.02 470,-1332 467.07,-1324.76 464.51,-1316.7 462.42,-1309.2"/>
<polygon fill="#da2d4f" stroke="#da2d4f" stroke-width="2" points="465.79,-1308.23 459.86,-1299.44 459.02,-1310 465.79,-1308.23"/>
</g>
<!-- node2824&#45;&gt;node528 -->
<g id="edge68" class="edge">
<title>node2824&#45;&gt;node528</title>
<path fill="none" stroke="#da2d4f" stroke-width="2" d="M682.93,-1896.86C676.12,-1886.3 667.25,-1872.56 659.6,-1860.71"/>
<polygon fill="#da2d4f" stroke="#da2d4f" stroke-width="2" points="662.41,-1858.61 654.04,-1852.11 656.53,-1862.41 662.41,-1858.61"/>
</g>
<!-- inline23x988 -->
<g id="node41" class="node">
<title>inline23x988</title>
<ellipse fill="#d7ede7" stroke="black" cx="1415" cy="-860" rx="27" ry="18"/>
<text text-anchor="middle" x="1415" y="-858.1" font-family="Arial" font-size="8.00" fill="#1a1919">23 C(1)</text>
</g>
<!-- inline23x988&#45;&gt;node988 -->
<g id="edge5" class="edge">
<title>inline23x988&#45;&gt;node988</title>
<path fill="none" stroke="#3cb4a4" d="M1415,-841.8C1415,-827.05 1415,-805.92 1415,-791.18"/>
<text text-anchor="middle" x="1417" y="-814.6" font-family="arial" font-size="8.00" fill="#3cb4a4">y</text>
</g>
<!-- inline23x1367 -->
<g id="node42" class="node">
<title>inline23x1367</title>
<ellipse fill="#d7ede7" stroke="black" cx="154" cy="-105" rx="27" ry="18"/>
<text text-anchor="middle" x="154" y="-103.1" font-family="Arial" font-size="8.00" fill="#1a1919">23 C(1)</text>
</g>
<!-- inline23x1367&#45;&gt;node1367 -->
<g id="edge13" class="edge">
<title>inline23x1367&#45;&gt;node1367</title>
<path fill="none" stroke="#3cb4a4" d="M167.23,-88.8C181.2,-72.76 203,-47.71 216.35,-32.39"/>
<text text-anchor="middle" x="198" y="-59.6" font-family="arial" font-size="8.00" fill="#3cb4a4">y</text>
</g>
<!-- inline1643x1645 -->
<g id="node43" class="node">
<title>inline1643x1645</title>
<ellipse fill="#d7ede7" stroke="black" cx="223" cy="-1208" rx="86.57" ry="18"/>
<text text-anchor="middle" x="223" y="-1206.1" font-family="Arial" font-size="8.00" fill="#1a1919">1643 C(RubyBasicObject@5a620041)</text>
</g>
<!-- inline1643x1645&#45;&gt;node1645 -->
<g id="edge18" class="edge">
<title>inline1643x1645&#45;&gt;node1645</title>
<path fill="none" stroke="#3cb4a4" d="M241.57,-1190.21C259.55,-1173.95 286.42,-1149.66 302.76,-1134.88"/>
<text text-anchor="middle" x="278" y="-1162.6" font-family="arial" font-size="8.00" fill="#3cb4a4">y</text>
</g>
<!-- inline23x2164 -->
<g id="node44" class="node">
<title>inline23x2164</title>
<ellipse fill="#d7ede7" stroke="black" cx="624" cy="-105" rx="27" ry="18"/>
<text text-anchor="middle" x="624" y="-103.1" font-family="Arial" font-size="8.00" fill="#1a1919">23 C(1)</text>
</g>
<!-- inline23x2164&#45;&gt;node2164 -->
<g id="edge22" class="edge">
<title>inline23x2164&#45;&gt;node2164</title>
<path fill="none" stroke="#3cb4a4" d="M613.65,-88.01C603.88,-72.91 589.3,-50.38 579.49,-35.21"/>
<text text-anchor="middle" x="602" y="-59.6" font-family="arial" font-size="8.00" fill="#3cb4a4">y</text>
</g>
<!-- inline23x2166 -->
<g id="node45" class="node">
<title>inline23x2166</title>
<ellipse fill="#d7ede7" stroke="black" cx="242" cy="-279" rx="27" ry="18"/>
<text text-anchor="middle" x="242" y="-277.1" font-family="Arial" font-size="8.00" fill="#1a1919">23 C(1)</text>
</g>
<!-- inline23x2166&#45;&gt;node2166 -->
<g id="edge24" class="edge">
<title>inline23x2166&#45;&gt;node2166</title>
<path fill="none" stroke="#3cb4a4" d="M242,-260.8C242,-246.05 242,-224.92 242,-210.18"/>
<text text-anchor="middle" x="244" y="-233.6" font-family="arial" font-size="8.00" fill="#3cb4a4">y</text>
</g>
<!-- inline23x2524 -->
<g id="node46" class="node">
<title>inline23x2524</title>
<ellipse fill="#d7ede7" stroke="black" cx="1114" cy="-860" rx="27" ry="18"/>
<text text-anchor="middle" x="1114" y="-858.1" font-family="Arial" font-size="8.00" fill="#1a1919">23 C(1)</text>
</g>
<!-- inline23x2524&#45;&gt;node2524 -->
<g id="edge30" class="edge">
<title>inline23x2524&#45;&gt;node2524</title>
<path fill="none" stroke="#3cb4a4" d="M1123.22,-843.01C1131.92,-827.91 1144.91,-805.38 1153.66,-790.21"/>
<text text-anchor="middle" x="1143" y="-814.6" font-family="arial" font-size="8.00" fill="#3cb4a4">y</text>
</g>
<!-- inline23x2526 -->
<g id="node47" class="node">
<title>inline23x2526</title>
<ellipse fill="#d7ede7" stroke="black" cx="842" cy="-1034" rx="27" ry="18"/>
<text text-anchor="middle" x="842" y="-1032.1" font-family="Arial" font-size="8.00" fill="#1a1919">23 C(1)</text>
</g>
<!-- inline23x2526&#45;&gt;node2526 -->
<g id="edge32" class="edge">
<title>inline23x2526&#45;&gt;node2526</title>
<path fill="none" stroke="#3cb4a4" d="M849.52,-1016.61C856.47,-1001.46 866.74,-979.09 873.64,-964.05"/>
<text text-anchor="middle" x="865" y="-988.6" font-family="arial" font-size="8.00" fill="#3cb4a4">y</text>
</g>
<!-- inline1858x2755 -->
<g id="node48" class="node">
<title>inline1858x2755</title>
<ellipse fill="#d7ede7" stroke="black" cx="691" cy="-599" rx="57.08" ry="18"/>
<text text-anchor="middle" x="691" y="-597.1" font-family="Arial" font-size="8.00" fill="#1a1919">1858 C(Object#escape)</text>
</g>
<!-- inline1858x2755&#45;&gt;node2755 -->
<g id="edge39" class="edge">
<title>inline1858x2755&#45;&gt;node2755</title>
<path fill="none" stroke="#3cb4a4" d="M695.45,-580.8C699.27,-566.05 704.74,-544.92 708.55,-530.18"/>
<text text-anchor="middle" x="715" y="-553.6" font-family="arial" font-size="8.00" fill="#3cb4a4">arg[0]</text>
</g>
<!-- inline125x1645 -->
<g id="node49" class="node">
<title>inline125x1645</title>
<ellipse fill="#d7ede7" stroke="black" cx="355" cy="-1208" rx="27.46" ry="18"/>
<text text-anchor="middle" x="355" y="-1206.1" font-family="Arial" font-size="8.00" fill="#1a1919">125 T(5)</text>
</g>
<!-- inline125x1645&#45;&gt;node1645 -->
<g id="edge62" class="edge">
<title>inline125x1645&#45;&gt;node1645</title>
<path fill="none" stroke="#3cb4a4" d="M347.67,-1190.61C340.77,-1175.17 330.52,-1152.23 323.79,-1137.2"/>
<text text-anchor="middle" x="341" y="-1162.6" font-family="arial" font-size="8.00" fill="#3cb4a4">x</text>
</g>
<!-- inline125x2811 -->
<g id="node50" class="node">
<title>inline125x2811</title>
<ellipse fill="#d7ede7" stroke="black" cx="462" cy="-773" rx="27.46" ry="18"/>
<text text-anchor="middle" x="462" y="-771.1" font-family="Arial" font-size="8.00" fill="#1a1919">125 T(5)</text>
</g>
<!-- inline125x2811&#45;&gt;node2811 -->
<g id="edge63" class="edge">
<title>inline125x2811&#45;&gt;node2811</title>
<path fill="none" stroke="#3cb4a4" d="M482.18,-760.71C508.11,-746.22 553.34,-720.92 583.48,-704.07"/>
<text text-anchor="middle" x="559.5" y="-727.6" font-family="arial" font-size="8.00" fill="#3cb4a4">values</text>
</g>
<!-- inline143x603 -->
<g id="node51" class="node">
<title>inline143x603</title>
<ellipse fill="#d7ede7" stroke="black" cx="878" cy="-1915" rx="27.46" ry="18"/>
<text text-anchor="middle" x="878" y="-1913.1" font-family="Arial" font-size="8.00" fill="#1a1919">143 T(6)</text>
</g>
<!-- inline143x603&#45;&gt;node603 -->
<g id="edge64" class="edge">
<title>inline143x603&#45;&gt;node603</title>
<path fill="none" stroke="#3cb4a4" d="M878,-1896.86C878,-1883.61 878,-1865.35 878,-1852.11"/>
<text text-anchor="middle" x="887.5" y="-1872.6" font-family="arial" font-size="8.00" fill="#3cb4a4">value</text>
</g>
<!-- inline158x528 -->
<g id="node52" class="node">
<title>inline158x528</title>
<ellipse fill="#d7ede7" stroke="black" cx="592" cy="-1915" rx="27.46" ry="18"/>
<text text-anchor="middle" x="592" y="-1913.1" font-family="Arial" font-size="8.00" fill="#1a1919">158 T(7)</text>
</g>
<!-- inline158x528&#45;&gt;node528 -->
<g id="edge65" class="edge">
<title>inline158x528&#45;&gt;node528</title>
<path fill="none" stroke="#3cb4a4" d="M602.32,-1898.01C610.94,-1884.67 623.19,-1865.69 631.99,-1852.06"/>
<text text-anchor="middle" x="629.5" y="-1872.6" font-family="arial" font-size="8.00" fill="#3cb4a4">value</text>
</g>
<!-- inline2x2824 -->
<g id="node53" class="node">
<title>inline2x2824</title>
<ellipse fill="#d7ede7" stroke="black" cx="730" cy="-1996" rx="27" ry="18"/>
<text text-anchor="middle" x="730" y="-1994.1" font-family="Arial" font-size="8.00" fill="#1a1919">2 P(1)</text>
</g>
<!-- inline2x2824&#45;&gt;node2824 -->
<g id="edge66" class="edge">
<title>inline2x2824&#45;&gt;node2824</title>
<path fill="none" stroke="#3cb4a4" d="M722.54,-1978.63C716.49,-1965.34 707.97,-1946.67 701.82,-1933.17"/>
<text text-anchor="middle" x="723.5" y="-1953.6" font-family="arial" font-size="8.00" fill="#3cb4a4">array</text>
</g>
</g>
</svg>
