<?xml version="1.0" encoding="UTF-8" standalone="no"?>
<!DOCTYPE svg PUBLIC "-//W3C//DTD SVG 1.1//EN"
 "http://www.w3.org/Graphics/SVG/1.1/DTD/svg11.dtd">
<!-- Generated by graphviz version 2.44.1 (20200629.0846)
 -->
<!-- Title: G Pages: 1 -->
<svg width="734pt" height="554pt"
 viewBox="0.00 0.00 734.38 554.00" xmlns="http://www.w3.org/2000/svg" xmlns:xlink="http://www.w3.org/1999/xlink">
<g id="graph0" class="graph" transform="scale(1 1) rotate(0) translate(4 550)">
<title>G</title>
<!-- node0 -->
<g id="node1" class="node">
<title>node0</title>
<polygon fill="#e98693" stroke="black" points="120.38,-546 64.38,-546 64.38,-510 120.38,-510 120.38,-546"/>
<text text-anchor="middle" x="92.38" y="-524.3" font-family="Arial" font-size="14.00" fill="#1a1919">0 Start</text>
</g>
<!-- node2113 -->
<g id="node8" class="node">
<title>node2113</title>
<polygon fill="#da2d4f" stroke="black" points="184.38,-465 72.38,-465 72.38,-429 184.38,-429 184.38,-465"/>
<text text-anchor="middle" x="128.38" y="-443.3" font-family="Arial" font-size="14.00" fill="#ffffff">2113 Load T(...)</text>
</g>
<!-- node0&#45;&gt;node2113 -->
<g id="edge11" class="edge">
<title>node0&#45;&gt;node2113</title>
<path fill="none" stroke="#da2d4f" stroke-width="2" d="M100.19,-509.86C104.91,-499.51 111.02,-486.1 116.34,-474.41"/>
<polygon fill="#da2d4f" stroke="#da2d4f" stroke-width="2" points="119.62,-475.66 120.58,-465.11 113.25,-472.76 119.62,-475.66"/>
</g>
<!-- node532 -->
<g id="node2" class="node">
<title>node532</title>
<polygon fill="#f9f9f9" stroke="black" points="219.38,-384 137.38,-384 137.38,-348 219.38,-348 219.38,-384"/>
<text text-anchor="middle" x="178.38" y="-362.3" font-family="Arial" font-size="14.00" fill="#1a1919">532 Unbox</text>
</g>
<!-- node2044 -->
<g id="node4" class="node">
<title>node2044</title>
<polygon fill="#3cb4a4" stroke="black" points="109.38,-297 0.12,-279 109.38,-261 218.64,-279 109.38,-297"/>
<text text-anchor="middle" x="109.38" y="-275.3" font-family="Arial" font-size="14.00" fill="#1a1919">2044 SignExtend</text>
</g>
<!-- node532&#45;&gt;node2044 -->
<g id="edge3" class="edge">
<title>node532&#45;&gt;node2044</title>
<path fill="none" stroke="#3cb4a4" d="M164.42,-347.8C153.95,-334.9 139.51,-317.12 128.05,-303.01"/>
<polygon fill="#3cb4a4" stroke="#3cb4a4" points="130.72,-300.74 121.7,-295.18 125.29,-305.15 130.72,-300.74"/>
<text text-anchor="middle" x="163.88" y="-318.8" font-family="arial" font-size="14.00" fill="#3cb4a4">value</text>
</g>
<!-- node2111 -->
<g id="node6" class="node">
<title>node2111</title>
<polygon fill="#da2d4f" stroke="black" points="345.88,-210 268.88,-210 268.88,-174 345.88,-174 345.88,-210"/>
<text text-anchor="middle" x="307.38" y="-188.3" font-family="Arial" font-size="14.00" fill="#ffffff">2111 Alloc</text>
</g>
<!-- node532&#45;&gt;node2111 -->
<g id="edge1" class="edge">
<title>node532&#45;&gt;node2111</title>
<path fill="none" stroke="#da2d4f" stroke-width="2" d="M191.22,-347.88C214.02,-317.49 261.65,-253.97 288.3,-218.44"/>
<polygon fill="#da2d4f" stroke="#da2d4f" stroke-width="2" points="291.39,-220.15 294.59,-210.05 285.79,-215.95 291.39,-220.15"/>
</g>
<!-- node1786 -->
<g id="node3" class="node">
<title>node1786</title>
<polygon fill="#e98693" stroke="black" points="368.88,-36 277.88,-36 277.88,0 368.88,0 368.88,-36"/>
<text text-anchor="middle" x="323.38" y="-14.3" font-family="Arial" font-size="14.00" fill="#1a1919">1786 Return</text>
</g>
<!-- node2044&#45;&gt;node2111 -->
<g id="edge5" class="edge">
<title>node2044&#45;&gt;node2111</title>
<path fill="none" stroke="#3cb4a4" d="M129.09,-264.22C145.45,-253.25 169.63,-238.13 192.38,-228 213.52,-218.59 237.91,-210.77 258.78,-204.92"/>
<polygon fill="#3cb4a4" stroke="#3cb4a4" points="259.99,-208.22 268.71,-202.21 258.14,-201.47 259.99,-208.22"/>
<text text-anchor="middle" x="212.38" y="-231.8" font-family="arial" font-size="14.00" fill="#3cb4a4">values</text>
</g>
<!-- node2105 -->
<g id="node5" class="node">
<title>node2105</title>
<polygon fill="#f9f9f9" stroke="black" points="726.38,-297 274.38,-297 274.38,-261 726.38,-261 726.38,-297"/>
<text text-anchor="middle" x="500.38" y="-275.3" font-family="Arial" font-size="14.00" fill="#1a1919">2105 VirtualInstance(8) org.truffleruby.core.basicobject.RubyBasicObject</text>
</g>
<!-- node2105&#45;&gt;node2111 -->
<g id="edge4" class="edge">
<title>node2105&#45;&gt;node2111</title>
<path fill="none" stroke="#3cb4a4" d="M378.76,-260.92C365.89,-256.28 353.48,-250.41 342.38,-243 333.49,-237.06 326.17,-228.03 320.56,-219.27"/>
<polygon fill="#3cb4a4" stroke="#3cb4a4" points="323.42,-217.24 315.34,-210.38 317.39,-220.78 323.42,-217.24"/>
<text text-anchor="middle" x="383.88" y="-231.8" font-family="arial" font-size="14.00" fill="#3cb4a4">virtualObjects</text>
</g>
<!-- node2112 -->
<g id="node7" class="node">
<title>node2112</title>
<polygon fill="#343d46" stroke="black" points="479.38,-123 335.38,-123 335.38,-87 479.38,-87 479.38,-123"/>
<text text-anchor="middle" x="407.38" y="-101.3" font-family="Arial" font-size="14.00" fill="#ffffff">2112 AllocatedObject</text>
</g>
<!-- node2105&#45;&gt;node2112 -->
<g id="edge7" class="edge">
<title>node2105&#45;&gt;node2112</title>
<path fill="none" stroke="#3cb4a4" d="M491.12,-260.88C474.76,-230.61 440.64,-167.51 421.38,-131.9"/>
<polygon fill="#3cb4a4" stroke="#3cb4a4" points="424.43,-130.18 416.6,-123.05 418.28,-133.51 424.43,-130.18"/>
<text text-anchor="middle" x="500.38" y="-188.3" font-family="arial" font-size="14.00" fill="#3cb4a4">virtualObject</text>
</g>
<!-- node2111&#45;&gt;node1786 -->
<g id="edge6" class="edge">
<title>node2111&#45;&gt;node1786</title>
<path fill="none" stroke="#da2d4f" stroke-width="2" d="M308.97,-173.88C311.75,-144 317.51,-82.11 320.84,-46.27"/>
<polygon fill="#da2d4f" stroke="#da2d4f" stroke-width="2" points="324.35,-46.33 321.79,-36.05 317.38,-45.68 324.35,-46.33"/>
</g>
<!-- node2111&#45;&gt;node2112 -->
<g id="edge8" class="edge">
<title>node2111&#45;&gt;node2112</title>
<path fill="none" stroke="#3cb4a4" d="M327.62,-173.8C342.53,-161.13 362.99,-143.73 379.45,-129.74"/>
<polygon fill="#3cb4a4" stroke="#3cb4a4" points="381.82,-132.32 387.17,-123.18 377.29,-126.99 381.82,-132.32"/>
<text text-anchor="middle" x="385.38" y="-144.8" font-family="arial" font-size="14.00" fill="#3cb4a4">commit</text>
</g>
<!-- node2112&#45;&gt;node1786 -->
<g id="edge2" class="edge">
<title>node2112&#45;&gt;node1786</title>
<path fill="none" stroke="#3cb4a4" d="M390.38,-86.8C378.08,-74.36 361.29,-57.36 347.6,-43.5"/>
<polygon fill="#3cb4a4" stroke="#3cb4a4" points="349.87,-40.83 340.35,-36.18 344.89,-45.75 349.87,-40.83"/>
<text text-anchor="middle" x="387.38" y="-57.8" font-family="arial" font-size="14.00" fill="#3cb4a4">result</text>
</g>
<!-- node2113&#45;&gt;node532 -->
<g id="edge12" class="edge">
<title>node2113&#45;&gt;node532</title>
<path fill="none" stroke="#da2d4f" stroke-width="2" d="M139.23,-428.86C145.91,-418.3 154.61,-404.56 162.1,-392.71"/>
<polygon fill="#da2d4f" stroke="#da2d4f" stroke-width="2" points="165.16,-394.43 167.55,-384.11 159.25,-390.69 165.16,-394.43"/>
</g>
<!-- inline161x532 -->
<g id="node9" class="node">
<title>inline161x532</title>
<ellipse fill="#d7ede7" stroke="black" cx="229.38" cy="-447" rx="27.46" ry="18"/>
<text text-anchor="middle" x="229.38" y="-445.1" font-family="Arial" font-size="8.00" fill="#1a1919">161 T(7)</text>
</g>
<!-- inline161x532&#45;&gt;node532 -->
<g id="edge9" class="edge">
<title>inline161x532&#45;&gt;node532</title>
<path fill="none" stroke="#3cb4a4" d="M219.06,-430.01C210.44,-416.67 198.19,-397.69 189.39,-384.06"/>
<text text-anchor="middle" x="214.88" y="-404.6" font-family="arial" font-size="8.00" fill="#3cb4a4">value</text>
</g>
<!-- inline2x2113 -->
<g id="node10" class="node">
<title>inline2x2113</title>
<ellipse fill="#d7ede7" stroke="black" cx="165.38" cy="-528" rx="27" ry="18"/>
<text text-anchor="middle" x="165.38" y="-526.1" font-family="Arial" font-size="8.00" fill="#1a1919">2 P(1)</text>
</g>
<!-- inline2x2113&#45;&gt;node2113 -->
<g id="edge10" class="edge">
<title>inline2x2113&#45;&gt;node2113</title>
<path fill="none" stroke="#3cb4a4" d="M157.71,-510.63C151.49,-497.34 142.74,-478.67 136.42,-465.17"/>
<text text-anchor="middle" x="156.88" y="-485.6" font-family="arial" font-size="8.00" fill="#3cb4a4">array</text>
</g>
</g>
</svg>
