<?xml version="1.0" encoding="UTF-8" standalone="no"?>
<!DOCTYPE svg PUBLIC "-//W3C//DTD SVG 1.1//EN"
 "http://www.w3.org/Graphics/SVG/1.1/DTD/svg11.dtd">
<!-- Generated by graphviz version 2.44.1 (20200629.0846)
 -->
<!-- Title: G Pages: 1 -->
<svg width="1063pt" height="1528pt"
 viewBox="0.00 0.00 1062.74 1528.00" xmlns="http://www.w3.org/2000/svg" xmlns:xlink="http://www.w3.org/1999/xlink">
<g id="graph0" class="graph" transform="scale(1 1) rotate(0) translate(4 1524)">
<title>G</title>
<!-- node0 -->
<g id="node1" class="node">
<title>node0</title>
<polygon fill="#e98693" stroke="black" points="120.23,-1520 64.23,-1520 64.23,-1484 120.23,-1484 120.23,-1520"/>
<text text-anchor="middle" x="92.23" y="-1498.3" font-family="Arial" font-size="14.00" fill="#1a1919">0 Start</text>
</g>
<!-- node2073 -->
<g id="node29" class="node">
<title>node2073</title>
<polygon fill="#da2d4f" stroke="black" points="185.73,-1439 72.73,-1439 72.73,-1403 185.73,-1403 185.73,-1439"/>
<text text-anchor="middle" x="129.23" y="-1417.3" font-family="Arial" font-size="14.00" fill="#ffffff">2073 Load T(...)</text>
</g>
<!-- node0&#45;&gt;node2073 -->
<g id="edge48" class="edge">
<title>node0&#45;&gt;node2073</title>
<path fill="none" stroke="#da2d4f" stroke-width="2" d="M100.26,-1483.86C105.1,-1473.51 111.38,-1460.1 116.86,-1448.41"/>
<polygon fill="#da2d4f" stroke="#da2d4f" stroke-width="2" points="120.14,-1449.65 121.21,-1439.11 113.8,-1446.68 120.14,-1449.65"/>
</g>
<!-- node528 -->
<g id="node2" class="node">
<title>node528</title>
<polygon fill="#f9f9f9" stroke="black" points="148.23,-1358 66.23,-1358 66.23,-1322 148.23,-1322 148.23,-1358"/>
<text text-anchor="middle" x="107.23" y="-1336.3" font-family="Arial" font-size="14.00" fill="#1a1919">528 Unbox</text>
</g>
<!-- node2033 -->
<g id="node21" class="node">
<title>node2033</title>
<polygon fill="#ffa500" stroke="black" points="387.73,-1271 136.73,-1271 136.73,-1235 387.73,-1235 387.73,-1271"/>
<text text-anchor="middle" x="262.23" y="-1249.3" font-family="Arial" font-size="14.00" fill="#1a1919">2033 Guard, else TransferToInterpreter</text>
</g>
<!-- node528&#45;&gt;node2033 -->
<g id="edge1" class="edge">
<title>node528&#45;&gt;node2033</title>
<path fill="none" stroke="#da2d4f" stroke-width="2" d="M138.59,-1321.8C162.73,-1308.56 196.25,-1290.18 222.3,-1275.9"/>
<polygon fill="#da2d4f" stroke="#da2d4f" stroke-width="2" points="224.09,-1278.91 231.17,-1271.03 220.72,-1272.77 224.09,-1278.91"/>
</g>
<!-- node2052 -->
<g id="node23" class="node">
<title>node2052</title>
<polygon fill="#f9f9f9" stroke="black" points="363.23,-123 305.23,-123 305.23,-87 363.23,-87 363.23,-123"/>
<text text-anchor="middle" x="334.23" y="-101.3" font-family="Arial" font-size="14.00" fill="#1a1919">2052 ϕ</text>
</g>
<!-- node528&#45;&gt;node2052 -->
<g id="edge32" class="edge">
<title>node528&#45;&gt;node2052</title>
<path fill="none" stroke="#3cb4a4" d="M91.4,-1321.89C78.09,-1305.68 61.23,-1280.01 61.23,-1254 61.23,-1254 61.23,-1254 61.23,-191 61.23,-178.91 219.36,-135.99 294.92,-116.17"/>
<polygon fill="#3cb4a4" stroke="#3cb4a4" points="296.22,-119.45 305.01,-113.53 294.45,-112.67 296.22,-119.45"/>
<text text-anchor="middle" x="88.73" y="-725.8" font-family="arial" font-size="14.00" fill="#3cb4a4">from 809</text>
</g>
<!-- node2072 -->
<g id="node28" class="node">
<title>node2072</title>
<polygon fill="#f9f9f9" stroke="black" points="361.73,-878 166.73,-878 166.73,-842 361.73,-842 361.73,-878"/>
<text text-anchor="middle" x="264.23" y="-856.3" font-family="Arial" font-size="14.00" fill="#1a1919">2072 BoxNode$AllocatingBox</text>
</g>
<!-- node528&#45;&gt;node2072 -->
<g id="edge41" class="edge">
<title>node528&#45;&gt;node2072</title>
<path fill="none" stroke="#3cb4a4" d="M107.23,-1321.74C107.23,-1304.57 107.23,-1277.46 107.23,-1254 107.23,-1254 107.23,-1254 107.23,-946 107.23,-914.26 132.35,-894.31 162.5,-881.8"/>
<polygon fill="#3cb4a4" stroke="#3cb4a4" points="163.91,-885 171.99,-878.15 161.4,-878.47 163.91,-885"/>
<text text-anchor="middle" x="123.73" y="-1103.3" font-family="arial" font-size="14.00" fill="#3cb4a4">value</text>
</g>
<!-- node603 -->
<g id="node3" class="node">
<title>node603</title>
<polygon fill="#3cb4a4" stroke="black" points="262.23,-1358 191.68,-1340 262.23,-1322 332.78,-1340 262.23,-1358"/>
<text text-anchor="middle" x="262.23" y="-1336.3" font-family="Arial" font-size="14.00" fill="#1a1919">603 IsNull</text>
</g>
<!-- node603&#45;&gt;node2033 -->
<g id="edge27" class="edge">
<title>node603&#45;&gt;node2033</title>
<path fill="none" stroke="#3cb4a4" d="M262.23,-1321.8C262.23,-1310.16 262.23,-1294.55 262.23,-1281.24"/>
<polygon fill="#3cb4a4" stroke="#3cb4a4" points="265.73,-1281.18 262.23,-1271.18 258.73,-1281.18 265.73,-1281.18"/>
<text text-anchor="middle" x="266.23" y="-1292.8" font-family="arial" font-size="14.00" fill="#3cb4a4">?</text>
</g>
<!-- node809 -->
<g id="node4" class="node">
<title>node809</title>
<polygon fill="#e98693" stroke="black" points="296.73,-1198 229.73,-1198 229.73,-1162 296.73,-1162 296.73,-1198"/>
<text text-anchor="middle" x="263.23" y="-1176.3" font-family="Arial" font-size="14.00" fill="#1a1919">809 End</text>
</g>
<!-- node810 -->
<g id="node5" class="node">
<title>node810</title>
<polygon fill="#e98693" stroke="black" points="317.73,-1125 210.73,-1125 210.73,-1089 317.73,-1089 317.73,-1125"/>
<text text-anchor="middle" x="264.23" y="-1103.3" font-family="Arial" font-size="14.00" fill="#1a1919">810 LoopBegin</text>
</g>
<!-- node809&#45;&gt;node810 -->
<g id="edge2" class="edge">
<title>node809&#45;&gt;node810</title>
<path fill="none" stroke="#da2d4f" stroke-width="2" d="M263.47,-1161.81C263.58,-1153.79 263.72,-1144.05 263.85,-1135.07"/>
<polygon fill="#da2d4f" stroke="#da2d4f" stroke-width="2" points="267.35,-1135.08 263.99,-1125.03 260.35,-1134.98 267.35,-1135.08"/>
</g>
<!-- node1026 -->
<g id="node7" class="node">
<title>node1026</title>
<polygon fill="#e98693" stroke="black" points="293.23,-1052 235.23,-1052 235.23,-1016 293.23,-1016 293.23,-1052"/>
<text text-anchor="middle" x="264.23" y="-1030.3" font-family="Arial" font-size="14.00" fill="#1a1919">1026 If</text>
</g>
<!-- node810&#45;&gt;node1026 -->
<g id="edge3" class="edge">
<title>node810&#45;&gt;node1026</title>
<path fill="none" stroke="#da2d4f" stroke-width="2" d="M264.23,-1088.81C264.23,-1080.79 264.23,-1071.05 264.23,-1062.07"/>
<polygon fill="#da2d4f" stroke="#da2d4f" stroke-width="2" points="267.73,-1062.03 264.23,-1052.03 260.73,-1062.03 267.73,-1062.03"/>
</g>
<!-- node810&#45;&gt;node2052 -->
<g id="edge31" class="edge">
<title>node810&#45;&gt;node2052</title>
<path fill="none" stroke="#343d46" stroke-dasharray="5,2" d="M328,-1106.71C511.57,-1107.92 1028.23,-1105.11 1028.23,-1035 1028.23,-1035 1028.23,-1035 1028.23,-191 1028.23,-122.95 495.7,-108.9 363.6,-106.46"/>
<polygon fill="#343d46" stroke="#343d46" points="327.98,-1103.21 317.95,-1106.64 327.92,-1110.21 327.98,-1103.21"/>
</g>
<!-- node988 -->
<g id="node6" class="node">
<title>node988</title>
<polygon fill="#3cb4a4" stroke="black" points="227.23,-36 180.47,-18 227.23,0 273.98,-18 227.23,-36"/>
<text text-anchor="middle" x="227.23" y="-14.3" font-family="Arial" font-size="14.00" fill="#1a1919">988 &lt;</text>
</g>
<!-- node988&#45;&gt;node1026 -->
<g id="edge6" class="edge">
<title>node988&#45;&gt;node1026</title>
<path fill="none" stroke="#3cb4a4" d="M206.14,-27.91C179.82,-40.62 138.23,-66.61 138.23,-104 138.23,-817.5 138.23,-817.5 138.23,-817.5 138.23,-895.99 201.3,-971.29 238.19,-1008.62"/>
<polygon fill="#3cb4a4" stroke="#3cb4a4" points="236.07,-1011.44 245.64,-1016 241,-1006.47 236.07,-1011.44"/>
<text text-anchor="middle" x="142.23" y="-508.3" font-family="arial" font-size="14.00" fill="#3cb4a4">?</text>
</g>
<!-- node1029 -->
<g id="node8" class="node">
<title>node1029</title>
<polygon fill="#e98693" stroke="black" points="422.73,-965 337.73,-965 337.73,-929 422.73,-929 422.73,-965"/>
<text text-anchor="middle" x="380.23" y="-943.3" font-family="Arial" font-size="14.00" fill="#1a1919">1029 Begin</text>
</g>
<!-- node1026&#45;&gt;node1029 -->
<g id="edge8" class="edge">
<title>node1026&#45;&gt;node1029</title>
<path fill="none" stroke="#da2d4f" stroke-width="2" d="M287.7,-1015.8C305.23,-1002.95 329.38,-985.26 348.61,-971.17"/>
<polygon fill="#da2d4f" stroke="#da2d4f" stroke-width="2" points="350.79,-973.91 356.79,-965.18 346.65,-968.26 350.79,-973.91"/>
<text text-anchor="middle" x="332.73" y="-986.8" font-family="arial" font-size="14.00" fill="#da2d4f">F</text>
</g>
<!-- node1884 -->
<g id="node13" class="node">
<title>node1884</title>
<polygon fill="#e98693" stroke="black" points="315.73,-965 212.73,-965 212.73,-929 315.73,-929 315.73,-965"/>
<text text-anchor="middle" x="264.23" y="-943.3" font-family="Arial" font-size="14.00" fill="#1a1919">1884 LoopExit</text>
</g>
<!-- node1026&#45;&gt;node1884 -->
<g id="edge7" class="edge">
<title>node1026&#45;&gt;node1884</title>
<path fill="none" stroke="#da2d4f" stroke-width="2" d="M264.23,-1015.8C264.23,-1004.16 264.23,-988.55 264.23,-975.24"/>
<polygon fill="#da2d4f" stroke="#da2d4f" stroke-width="2" points="267.73,-975.18 264.23,-965.18 260.73,-975.18 267.73,-975.18"/>
<text text-anchor="middle" x="268.73" y="-986.8" font-family="arial" font-size="14.00" fill="#da2d4f">T</text>
</g>
<!-- node2038 -->
<g id="node22" class="node">
<title>node2038</title>
<polygon fill="#ffa500" stroke="black" points="630.73,-878 379.73,-878 379.73,-842 630.73,-842 630.73,-878"/>
<text text-anchor="middle" x="505.23" y="-856.3" font-family="Arial" font-size="14.00" fill="#1a1919">2038 Guard, else TransferToInterpreter</text>
</g>
<!-- node1029&#45;&gt;node2038 -->
<g id="edge9" class="edge">
<title>node1029&#45;&gt;node2038</title>
<path fill="none" stroke="#da2d4f" stroke-width="2" d="M405.52,-928.8C424.5,-915.9 450.67,-898.1 471.44,-883.98"/>
<polygon fill="#da2d4f" stroke="#da2d4f" stroke-width="2" points="473.67,-886.69 479.97,-878.18 469.73,-880.9 473.67,-886.69"/>
</g>
<!-- node1266 -->
<g id="node9" class="node">
<title>node1266</title>
<polygon fill="#3cb4a4" stroke="black" points="505.23,-965 443.56,-947 505.23,-929 566.89,-947 505.23,-965"/>
<text text-anchor="middle" x="505.23" y="-943.3" font-family="Arial" font-size="14.00" fill="#1a1919">1266 ==</text>
</g>
<!-- node1266&#45;&gt;node2038 -->
<g id="edge29" class="edge">
<title>node1266&#45;&gt;node2038</title>
<path fill="none" stroke="#3cb4a4" d="M505.23,-928.8C505.23,-917.16 505.23,-901.55 505.23,-888.24"/>
<polygon fill="#3cb4a4" stroke="#3cb4a4" points="508.73,-888.18 505.23,-878.18 501.73,-888.18 508.73,-888.18"/>
<text text-anchor="middle" x="509.23" y="-899.8" font-family="arial" font-size="14.00" fill="#3cb4a4">?</text>
</g>
<!-- node1784 -->
<g id="node10" class="node">
<title>node1784</title>
<polygon fill="#ffa500" stroke="black" points="1000.23,-297 734.23,-297 734.23,-261 1000.23,-261 1000.23,-297"/>
<text text-anchor="middle" x="867.23" y="-275.3" font-family="Arial" font-size="14.00" fill="#1a1919">1784 Guard not, else ArithmeticException</text>
</g>
<!-- node1787 -->
<g id="node12" class="node">
<title>node1787</title>
<polygon fill="#3cb4a4" stroke="black" points="304.23,-210 166.48,-192 304.23,-174 441.97,-192 304.23,-210"/>
<text text-anchor="middle" x="304.23" y="-188.3" font-family="Arial" font-size="14.00" fill="#1a1919">1787 IntegerSubExact</text>
</g>
<!-- node1784&#45;&gt;node1787 -->
<g id="edge17" class="edge">
<title>node1784&#45;&gt;node1787</title>
<path fill="none" stroke="#3cb4a4" d="M754.31,-260.95C641.11,-243.86 470.33,-218.08 374.99,-203.68"/>
<polygon fill="#3cb4a4" stroke="#3cb4a4" points="375.28,-200.19 364.87,-202.16 374.24,-207.11 375.28,-200.19"/>
<text text-anchor="middle" x="636.73" y="-231.8" font-family="arial" font-size="14.00" fill="#3cb4a4">guard</text>
</g>
<!-- node1889 -->
<g id="node14" class="node">
<title>node1889</title>
<polygon fill="#e98693" stroke="black" points="839.23,-210 735.23,-210 735.23,-174 839.23,-174 839.23,-210"/>
<text text-anchor="middle" x="787.23" y="-188.3" font-family="Arial" font-size="14.00" fill="#1a1919">1889 LoopEnd</text>
</g>
<!-- node1784&#45;&gt;node1889 -->
<g id="edge12" class="edge">
<title>node1784&#45;&gt;node1889</title>
<path fill="none" stroke="#da2d4f" stroke-width="2" d="M851.04,-260.8C839.33,-248.36 823.33,-231.36 810.29,-217.5"/>
<polygon fill="#da2d4f" stroke="#da2d4f" stroke-width="2" points="812.79,-215.06 803.39,-210.18 807.7,-219.86 812.79,-215.06"/>
</g>
<!-- node1785 -->
<g id="node11" class="node">
<title>node1785</title>
<polygon fill="#3cb4a4" stroke="black" points="867.23,-36 679.71,-18 867.23,0 1054.74,-18 867.23,-36"/>
<text text-anchor="middle" x="867.23" y="-14.3" font-family="Arial" font-size="14.00" fill="#1a1919">1785 IntegerSubExactOverflow</text>
</g>
<!-- node1785&#45;&gt;node1784 -->
<g id="edge11" class="edge">
<title>node1785&#45;&gt;node1784</title>
<path fill="none" stroke="#3cb4a4" d="M867.23,-36.32C867.23,-80.38 867.23,-197.01 867.23,-250.49"/>
<polygon fill="#3cb4a4" stroke="#3cb4a4" points="863.73,-250.6 867.23,-260.6 870.73,-250.6 863.73,-250.6"/>
<text text-anchor="middle" x="871.23" y="-144.8" font-family="arial" font-size="14.00" fill="#3cb4a4">?</text>
</g>
<!-- node1787&#45;&gt;node2052 -->
<g id="edge33" class="edge">
<title>node1787&#45;&gt;node2052</title>
<path fill="none" stroke="#3cb4a4" d="M310.01,-174.61C314.2,-162.73 319.96,-146.41 324.82,-132.67"/>
<polygon fill="#3cb4a4" stroke="#3cb4a4" points="328.12,-133.81 328.15,-123.21 321.52,-131.48 328.12,-133.81"/>
<text text-anchor="middle" x="351.23" y="-144.8" font-family="arial" font-size="14.00" fill="#3cb4a4">from 1889</text>
</g>
<!-- node1884&#45;&gt;node2072 -->
<g id="edge18" class="edge">
<title>node1884&#45;&gt;node2072</title>
<path fill="none" stroke="#da2d4f" stroke-width="2" d="M264.23,-928.8C264.23,-917.16 264.23,-901.55 264.23,-888.24"/>
<polygon fill="#da2d4f" stroke="#da2d4f" stroke-width="2" points="267.73,-888.18 264.23,-878.18 260.73,-888.18 267.73,-888.18"/>
</g>
<!-- node1985 -->
<g id="node15" class="node">
<title>node1985</title>
<polygon fill="#e98693" stroke="black" points="308.73,-791 217.73,-791 217.73,-755 308.73,-755 308.73,-791"/>
<text text-anchor="middle" x="263.23" y="-769.3" font-family="Arial" font-size="14.00" fill="#1a1919">1985 Return</text>
</g>
<!-- node2016 -->
<g id="node16" class="node">
<title>node2016</title>
<polygon fill="#da2d4f" stroke="black" points="842.23,-457 552.23,-457 552.23,-421 842.23,-421 842.23,-457"/>
<text text-anchor="middle" x="697.23" y="-435.3" font-family="Arial" font-size="14.00" fill="#ffffff">2016 Call OptimizedCallTarget.callBoundary !</text>
</g>
<!-- node2020 -->
<g id="node18" class="node">
<title>node2020</title>
<polygon fill="#e98693" stroke="black" points="866.73,-370 745.73,-370 745.73,-334 866.73,-334 866.73,-370"/>
<text text-anchor="middle" x="806.23" y="-348.3" font-family="Arial" font-size="14.00" fill="#1a1919">2020 KillingBegin</text>
</g>
<!-- node2016&#45;&gt;node2020 -->
<g id="edge21" class="edge">
<title>node2016&#45;&gt;node2020</title>
<path fill="none" stroke="#da2d4f" stroke-width="2" d="M719.28,-420.8C735.68,-408.01 758.25,-390.42 776.28,-376.36"/>
<polygon fill="#da2d4f" stroke="#da2d4f" stroke-width="2" points="778.47,-379.08 784.2,-370.18 774.16,-373.56 778.47,-379.08"/>
</g>
<!-- node2021 -->
<g id="node19" class="node">
<title>node2021</title>
<polygon fill="#f9f9f9" stroke="black" points="710.73,-370 561.73,-370 561.73,-334 710.73,-334 710.73,-370"/>
<text text-anchor="middle" x="636.23" y="-348.3" font-family="Arial" font-size="14.00" fill="#1a1919">2021 ExceptionObject</text>
</g>
<!-- node2016&#45;&gt;node2021 -->
<g id="edge22" class="edge">
<title>node2016&#45;&gt;node2021</title>
<path fill="none" stroke="#da2d4f" stroke-width="2" d="M684.88,-420.8C676.2,-408.7 664.43,-392.3 654.65,-378.67"/>
<polygon fill="#da2d4f" stroke="#da2d4f" stroke-width="2" points="657.23,-376.26 648.55,-370.18 651.54,-380.34 657.23,-376.26"/>
<text text-anchor="middle" x="691.73" y="-391.8" font-family="arial" font-size="14.00" fill="#da2d4f">unwind</text>
</g>
<!-- node2017 -->
<g id="node17" class="node">
<title>node2017</title>
<polygon fill="#f9f9f9" stroke="black" points="815.73,-530 658.73,-530 658.73,-494 815.73,-494 815.73,-530"/>
<text text-anchor="middle" x="737.23" y="-508.3" font-family="Arial" font-size="14.00" fill="#1a1919">2017 MethodCallTarget</text>
</g>
<!-- node2017&#45;&gt;node2016 -->
<g id="edge20" class="edge">
<title>node2017&#45;&gt;node2016</title>
<path fill="none" stroke="#343d46" stroke-dasharray="5,2" d="M722.53,-484.92C717.29,-475.61 711.52,-465.38 706.82,-457.03"/>
<polygon fill="#343d46" stroke="#343d46" points="719.59,-486.82 727.54,-493.81 725.68,-483.38 719.59,-486.82"/>
</g>
<!-- node2020&#45;&gt;node1784 -->
<g id="edge25" class="edge">
<title>node2020&#45;&gt;node1784</title>
<path fill="none" stroke="#da2d4f" stroke-width="2" d="M820.99,-333.81C828.49,-325.09 837.72,-314.34 845.97,-304.75"/>
<polygon fill="#da2d4f" stroke="#da2d4f" stroke-width="2" points="848.73,-306.89 852.6,-297.03 843.43,-302.33 848.73,-306.89"/>
</g>
<!-- node2026 -->
<g id="node20" class="node">
<title>node2026</title>
<polygon fill="#da2d4f" stroke="black" points="715.73,-297 498.73,-297 498.73,-261 715.73,-261 715.73,-297"/>
<text text-anchor="middle" x="607.23" y="-275.3" font-family="Arial" font-size="14.00" fill="#ffffff">2026 Deopt TransferToInterpreter</text>
</g>
<!-- node2021&#45;&gt;node2026 -->
<g id="edge26" class="edge">
<title>node2021&#45;&gt;node2026</title>
<path fill="none" stroke="#da2d4f" stroke-width="2" d="M629.21,-333.81C625.86,-325.62 621.78,-315.62 618.04,-306.48"/>
<polygon fill="#da2d4f" stroke="#da2d4f" stroke-width="2" points="621.2,-304.96 614.18,-297.03 614.72,-307.61 621.2,-304.96"/>
</g>
<!-- node2033&#45;&gt;node809 -->
<g id="edge28" class="edge">
<title>node2033&#45;&gt;node809</title>
<path fill="none" stroke="#da2d4f" stroke-width="2" d="M262.47,-1234.81C262.58,-1226.79 262.72,-1217.05 262.85,-1208.07"/>
<polygon fill="#da2d4f" stroke="#da2d4f" stroke-width="2" points="266.35,-1208.08 262.99,-1198.03 259.35,-1207.98 266.35,-1208.08"/>
</g>
<!-- node2064 -->
<g id="node25" class="node">
<title>node2064</title>
<polygon fill="#f9f9f9" stroke="black" points="584.73,-791 389.73,-791 389.73,-755 584.73,-755 584.73,-791"/>
<text text-anchor="middle" x="487.23" y="-769.3" font-family="Arial" font-size="14.00" fill="#1a1919">2064 BoxNode$AllocatingBox</text>
</g>
<!-- node2038&#45;&gt;node2064 -->
<g id="edge30" class="edge">
<title>node2038&#45;&gt;node2064</title>
<path fill="none" stroke="#da2d4f" stroke-width="2" d="M501.58,-841.8C499.12,-830.16 495.81,-814.55 492.99,-801.24"/>
<polygon fill="#da2d4f" stroke="#da2d4f" stroke-width="2" points="496.36,-800.23 490.86,-791.18 489.51,-801.68 496.36,-800.23"/>
</g>
<!-- node2052&#45;&gt;node988 -->
<g id="edge4" class="edge">
<title>node2052&#45;&gt;node988</title>
<path fill="none" stroke="#3cb4a4" d="M312.57,-86.8C294.25,-72.24 268.09,-51.46 249.58,-36.75"/>
<polygon fill="#3cb4a4" stroke="#3cb4a4" points="251.67,-33.95 241.66,-30.47 247.31,-39.43 251.67,-33.95"/>
<text text-anchor="middle" x="289.73" y="-57.8" font-family="arial" font-size="14.00" fill="#3cb4a4">x</text>
</g>
<!-- node2052&#45;&gt;node1785 -->
<g id="edge13" class="edge">
<title>node2052&#45;&gt;node1785</title>
<path fill="none" stroke="#3cb4a4" d="M363.26,-99.37C443.47,-86.58 670.1,-50.44 790.24,-31.28"/>
<polygon fill="#3cb4a4" stroke="#3cb4a4" points="791.14,-34.68 800.47,-29.65 790.04,-27.76 791.14,-34.68"/>
<text text-anchor="middle" x="635.73" y="-57.8" font-family="arial" font-size="14.00" fill="#3cb4a4">x</text>
</g>
<!-- node2052&#45;&gt;node1787 -->
<g id="edge15" class="edge">
<title>node2052&#45;&gt;node1787</title>
<path fill="none" stroke="#3cb4a4" d="M317.67,-123.27C313.53,-128.56 309.6,-134.68 307.23,-141 304.57,-148.08 303.38,-156.13 302.95,-163.66"/>
<polygon fill="#3cb4a4" stroke="#3cb4a4" points="299.45,-163.77 302.8,-173.82 306.45,-163.87 299.45,-163.77"/>
<text text-anchor="middle" x="310.73" y="-144.8" font-family="arial" font-size="14.00" fill="#3cb4a4">x</text>
</g>
<!-- node2052&#45;&gt;node2064 -->
<g id="edge34" class="edge">
<title>node2052&#45;&gt;node2064</title>
<path fill="none" stroke="#3cb4a4" d="M363.4,-110.85C403.36,-119.34 470.23,-141.02 470.23,-191 470.23,-687 470.23,-687 470.23,-687 470.23,-706.63 474.64,-728.32 478.97,-744.88"/>
<polygon fill="#3cb4a4" stroke="#3cb4a4" points="475.71,-746.24 481.75,-754.94 482.46,-744.37 475.71,-746.24"/>
<text text-anchor="middle" x="486.73" y="-435.3" font-family="arial" font-size="14.00" fill="#3cb4a4">value</text>
</g>
<!-- node2061 -->
<g id="node24" class="node">
<title>node2061</title>
<polygon fill="#343d46" stroke="black" points="912.73,-791 675.73,-791 675.73,-755 912.73,-755 912.73,-791"/>
<text text-anchor="middle" x="794.23" y="-769.3" font-family="Arial" font-size="14.00" fill="#ffffff">2061 VirtualArray java.lang.Object[8]</text>
</g>
<!-- node2065 -->
<g id="node26" class="node">
<title>node2065</title>
<polygon fill="#da2d4f" stroke="black" points="669.73,-704 590.73,-704 590.73,-668 669.73,-668 669.73,-704"/>
<text text-anchor="middle" x="630.23" y="-682.3" font-family="Arial" font-size="14.00" fill="#ffffff">2065 Alloc</text>
</g>
<!-- node2061&#45;&gt;node2065 -->
<g id="edge36" class="edge">
<title>node2061&#45;&gt;node2065</title>
<path fill="none" stroke="#3cb4a4" d="M733.14,-754.91C719.29,-749.99 704.93,-744.01 692.23,-737 679.3,-729.86 666.37,-719.98 655.69,-710.88"/>
<polygon fill="#3cb4a4" stroke="#3cb4a4" points="657.82,-708.1 648,-704.14 653.21,-713.36 657.82,-708.1"/>
<text text-anchor="middle" x="733.73" y="-725.8" font-family="arial" font-size="14.00" fill="#3cb4a4">virtualObjects</text>
</g>
<!-- node2066 -->
<g id="node27" class="node">
<title>node2066</title>
<polygon fill="#343d46" stroke="black" points="805.73,-617 660.73,-617 660.73,-581 805.73,-581 805.73,-617"/>
<text text-anchor="middle" x="733.23" y="-595.3" font-family="Arial" font-size="14.00" fill="#ffffff">2066 AllocatedObject</text>
</g>
<!-- node2061&#45;&gt;node2066 -->
<g id="edge39" class="edge">
<title>node2061&#45;&gt;node2066</title>
<path fill="none" stroke="#3cb4a4" d="M788.16,-754.88C777.51,-724.87 755.42,-662.58 742.74,-626.81"/>
<polygon fill="#3cb4a4" stroke="#3cb4a4" points="745.92,-625.31 739.27,-617.05 739.32,-627.65 745.92,-625.31"/>
<text text-anchor="middle" x="807.23" y="-682.3" font-family="arial" font-size="14.00" fill="#3cb4a4">virtualObject</text>
</g>
<!-- node2064&#45;&gt;node2065 -->
<g id="edge35" class="edge">
<title>node2064&#45;&gt;node2065</title>
<path fill="none" stroke="#da2d4f" stroke-width="2" d="M523.7,-754.94C534.65,-749.51 546.57,-743.27 557.23,-737 571.21,-728.77 586.08,-718.82 598.73,-709.97"/>
<polygon fill="#da2d4f" stroke="#da2d4f" stroke-width="2" points="600.95,-712.68 607.09,-704.05 596.9,-706.97 600.95,-712.68"/>
</g>
<!-- node2064&#45;&gt;node2065 -->
<g id="edge37" class="edge">
<title>node2064&#45;&gt;node2065</title>
<path fill="none" stroke="#3cb4a4" d="M492.25,-754.93C496.28,-744.06 502.97,-730.48 513.23,-722 532.14,-706.36 557.88,-697.71 580.39,-692.92"/>
<polygon fill="#3cb4a4" stroke="#3cb4a4" points="581.32,-696.31 590.48,-690.98 580,-689.43 581.32,-696.31"/>
<text text-anchor="middle" x="533.23" y="-725.8" font-family="arial" font-size="14.00" fill="#3cb4a4">values</text>
</g>
<!-- node2065&#45;&gt;node2016 -->
<g id="edge38" class="edge">
<title>node2065&#45;&gt;node2016</title>
<path fill="none" stroke="#da2d4f" stroke-width="2" d="M628.68,-667.79C626.26,-633.23 624.3,-553.62 650.23,-494 654.86,-483.35 662.37,-473.29 670.04,-464.8"/>
<polygon fill="#da2d4f" stroke="#da2d4f" stroke-width="2" points="672.66,-467.11 677.05,-457.47 667.6,-462.27 672.66,-467.11"/>
</g>
<!-- node2065&#45;&gt;node2066 -->
<g id="edge40" class="edge">
<title>node2065&#45;&gt;node2066</title>
<path fill="none" stroke="#3cb4a4" d="M651.07,-667.8C666.43,-655.13 687.5,-637.73 704.46,-623.74"/>
<polygon fill="#3cb4a4" stroke="#3cb4a4" points="706.93,-626.24 712.41,-617.18 702.47,-620.84 706.93,-626.24"/>
<text text-anchor="middle" x="710.23" y="-638.8" font-family="arial" font-size="14.00" fill="#3cb4a4">commit</text>
</g>
<!-- node2066&#45;&gt;node2017 -->
<g id="edge24" class="edge">
<title>node2066&#45;&gt;node2017</title>
<path fill="none" stroke="#3cb4a4" d="M734.04,-580.8C734.58,-569.16 735.32,-553.55 735.95,-540.24"/>
<polygon fill="#3cb4a4" stroke="#3cb4a4" points="739.44,-540.33 736.42,-530.18 732.45,-540 739.44,-540.33"/>
<text text-anchor="middle" x="752.73" y="-551.8" font-family="arial" font-size="14.00" fill="#3cb4a4">arg[1]</text>
</g>
<!-- node2072&#45;&gt;node1985 -->
<g id="edge19" class="edge">
<title>node2072&#45;&gt;node1985</title>
<path fill="none" stroke="#3cb4a4" d="M249.52,-841.93C245.74,-836.54 242.19,-830.33 240.23,-824 237.73,-815.95 239.68,-807.52 243.32,-799.92"/>
<polygon fill="#3cb4a4" stroke="#3cb4a4" points="246.41,-801.55 248.39,-791.14 240.35,-798.05 246.41,-801.55"/>
<text text-anchor="middle" x="257.23" y="-812.8" font-family="arial" font-size="14.00" fill="#3cb4a4">result</text>
</g>
<!-- node2072&#45;&gt;node1985 -->
<g id="edge42" class="edge">
<title>node2072&#45;&gt;node1985</title>
<path fill="none" stroke="#da2d4f" stroke-width="2" d="M270.65,-841.94C273.52,-832.31 275.92,-820.03 274.23,-809 273.82,-806.32 273.24,-803.56 272.56,-800.83"/>
<polygon fill="#da2d4f" stroke="#da2d4f" stroke-width="2" points="275.91,-799.83 269.78,-791.2 269.19,-801.78 275.91,-799.83"/>
</g>
<!-- node2073&#45;&gt;node528 -->
<g id="edge49" class="edge">
<title>node2073&#45;&gt;node528</title>
<path fill="none" stroke="#da2d4f" stroke-width="2" d="M124.45,-1402.86C121.6,-1392.61 117.91,-1379.37 114.68,-1367.76"/>
<polygon fill="#da2d4f" stroke="#da2d4f" stroke-width="2" points="118.05,-1366.8 111.99,-1358.11 111.3,-1368.68 118.05,-1366.8"/>
</g>
<!-- inline23x988 -->
<g id="node30" class="node">
<title>inline23x988</title>
<ellipse fill="#d7ede7" stroke="black" cx="227.23" cy="-105" rx="27" ry="18"/>
<text text-anchor="middle" x="227.23" y="-103.1" font-family="Arial" font-size="8.00" fill="#1a1919">23 C(1)</text>
</g>
<!-- inline23x988&#45;&gt;node988 -->
<g id="edge5" class="edge">
<title>inline23x988&#45;&gt;node988</title>
<path fill="none" stroke="#3cb4a4" d="M227.23,-86.8C227.23,-72.05 227.23,-50.92 227.23,-36.18"/>
<text text-anchor="middle" x="229.23" y="-59.6" font-family="arial" font-size="8.00" fill="#3cb4a4">y</text>
</g>
<!-- inline1264x1266 -->
<g id="node31" class="node">
<title>inline1264x1266</title>
<ellipse fill="#d7ede7" stroke="black" cx="535.23" cy="-1034" rx="86.57" ry="18"/>
<text text-anchor="middle" x="535.23" y="-1032.1" font-family="Arial" font-size="8.00" fill="#1a1919">1264 C(RubyBasicObject@5a620041)</text>
</g>
<!-- inline1264x1266&#45;&gt;node1266 -->
<g id="edge10" class="edge">
<title>inline1264x1266&#45;&gt;node1266</title>
<path fill="none" stroke="#3cb4a4" d="M529.16,-1015.8C523.75,-1000.47 515.9,-978.24 510.68,-963.46"/>
<text text-anchor="middle" x="523.23" y="-988.6" font-family="arial" font-size="8.00" fill="#3cb4a4">y</text>
</g>
<!-- inline23x1785 -->
<g id="node32" class="node">
<title>inline23x1785</title>
<ellipse fill="#d7ede7" stroke="black" cx="922.23" cy="-105" rx="27" ry="18"/>
<text text-anchor="middle" x="922.23" y="-103.1" font-family="Arial" font-size="8.00" fill="#1a1919">23 C(1)</text>
</g>
<!-- inline23x1785&#45;&gt;node1785 -->
<g id="edge14" class="edge">
<title>inline23x1785&#45;&gt;node1785</title>
<path fill="none" stroke="#3cb4a4" d="M911.88,-88.01C902.11,-72.91 887.53,-50.38 877.71,-35.21"/>
<text text-anchor="middle" x="899.23" y="-59.6" font-family="arial" font-size="8.00" fill="#3cb4a4">y</text>
</g>
<!-- inline23x1787 -->
<g id="node33" class="node">
<title>inline23x1787</title>
<ellipse fill="#d7ede7" stroke="black" cx="304.23" cy="-279" rx="27" ry="18"/>
<text text-anchor="middle" x="304.23" y="-277.1" font-family="Arial" font-size="8.00" fill="#1a1919">23 C(1)</text>
</g>
<!-- inline23x1787&#45;&gt;node1787 -->
<g id="edge16" class="edge">
<title>inline23x1787&#45;&gt;node1787</title>
<path fill="none" stroke="#3cb4a4" d="M304.23,-260.8C304.23,-246.05 304.23,-224.92 304.23,-210.18"/>
<text text-anchor="middle" x="306.23" y="-233.6" font-family="arial" font-size="8.00" fill="#3cb4a4">y</text>
</g>
<!-- inline1479x2017 -->
<g id="node34" class="node">
<title>inline1479x2017</title>
<ellipse fill="#d7ede7" stroke="black" cx="881.23" cy="-599" rx="57.08" ry="18"/>
<text text-anchor="middle" x="881.23" y="-597.1" font-family="Arial" font-size="8.00" fill="#1a1919">1479 C(Object#escape)</text>
</g>
<!-- inline1479x2017&#45;&gt;node2017 -->
<g id="edge23" class="edge">
<title>inline1479x2017&#45;&gt;node2017</title>
<path fill="none" stroke="#3cb4a4" d="M855.48,-582.8C830.4,-568 792.34,-545.53 766.21,-530.11"/>
<text text-anchor="middle" x="828.23" y="-553.6" font-family="arial" font-size="8.00" fill="#3cb4a4">arg[0]</text>
</g>
<!-- inline125x1266 -->
<g id="node35" class="node">
<title>inline125x1266</title>
<ellipse fill="#d7ede7" stroke="black" cx="403.23" cy="-1034" rx="27.46" ry="18"/>
<text text-anchor="middle" x="403.23" y="-1032.1" font-family="Arial" font-size="8.00" fill="#1a1919">125 T(5)</text>
</g>
<!-- inline125x1266&#45;&gt;node1266 -->
<g id="edge43" class="edge">
<title>inline125x1266&#45;&gt;node1266</title>
<path fill="none" stroke="#3cb4a4" d="M419.62,-1019.34C438.99,-1003.2 470.97,-976.54 489.88,-960.79"/>
<text text-anchor="middle" x="462.23" y="-988.6" font-family="arial" font-size="8.00" fill="#3cb4a4">x</text>
</g>
<!-- inline125x2065 -->
<g id="node36" class="node">
<title>inline125x2065</title>
<ellipse fill="#d7ede7" stroke="black" cx="630.23" cy="-773" rx="27.46" ry="18"/>
<text text-anchor="middle" x="630.23" y="-771.1" font-family="Arial" font-size="8.00" fill="#1a1919">125 T(5)</text>
</g>
<!-- inline125x2065&#45;&gt;node2065 -->
<g id="edge44" class="edge">
<title>inline125x2065&#45;&gt;node2065</title>
<path fill="none" stroke="#3cb4a4" d="M630.23,-754.8C630.23,-740.05 630.23,-718.92 630.23,-704.18"/>
<text text-anchor="middle" x="641.73" y="-727.6" font-family="arial" font-size="8.00" fill="#3cb4a4">values</text>
</g>
<!-- inline143x603 -->
<g id="node37" class="node">
<title>inline143x603</title>
<ellipse fill="#d7ede7" stroke="black" cx="262.23" cy="-1421" rx="27.46" ry="18"/>
<text text-anchor="middle" x="262.23" y="-1419.1" font-family="Arial" font-size="8.00" fill="#1a1919">143 T(6)</text>
</g>
<!-- inline143x603&#45;&gt;node603 -->
<g id="edge45" class="edge">
<title>inline143x603&#45;&gt;node603</title>
<path fill="none" stroke="#3cb4a4" d="M262.23,-1402.86C262.23,-1389.61 262.23,-1371.35 262.23,-1358.11"/>
<text text-anchor="middle" x="271.73" y="-1378.6" font-family="arial" font-size="8.00" fill="#3cb4a4">value</text>
</g>
<!-- inline158x528 -->
<g id="node38" class="node">
<title>inline158x528</title>
<ellipse fill="#d7ede7" stroke="black" cx="27.23" cy="-1421" rx="27.46" ry="18"/>
<text text-anchor="middle" x="27.23" y="-1419.1" font-family="Arial" font-size="8.00" fill="#1a1919">158 T(7)</text>
</g>
<!-- inline158x528&#45;&gt;node528 -->
<g id="edge46" class="edge">
<title>inline158x528&#45;&gt;node528</title>
<path fill="none" stroke="#3cb4a4" d="M41.9,-1405.51C55.43,-1392.15 75.53,-1372.3 89.86,-1358.15"/>
<text text-anchor="middle" x="79.73" y="-1378.6" font-family="arial" font-size="8.00" fill="#3cb4a4">value</text>
</g>
<!-- inline2x2073 -->
<g id="node39" class="node">
<title>inline2x2073</title>
<ellipse fill="#d7ede7" stroke="black" cx="165.23" cy="-1502" rx="27" ry="18"/>
<text text-anchor="middle" x="165.23" y="-1500.1" font-family="Arial" font-size="8.00" fill="#1a1919">2 P(1)</text>
</g>
<!-- inline2x2073&#45;&gt;node2073 -->
<g id="edge47" class="edge">
<title>inline2x2073&#45;&gt;node2073</title>
<path fill="none" stroke="#3cb4a4" d="M157.77,-1484.63C151.71,-1471.34 143.2,-1452.67 137.05,-1439.17"/>
<text text-anchor="middle" x="158.73" y="-1459.6" font-family="arial" font-size="8.00" fill="#3cb4a4">array</text>
</g>
</g>
</svg>
