<?xml version="1.0" encoding="UTF-8" standalone="no"?>
<!DOCTYPE svg PUBLIC "-//W3C//DTD SVG 1.1//EN"
 "http://www.w3.org/Graphics/SVG/1.1/DTD/svg11.dtd">
<!-- Generated by graphviz version 2.44.1 (20200629.0846)
 -->
<!-- Title: G Pages: 1 -->
<svg width="473pt" height="722pt"
 viewBox="0.00 0.00 473.21 722.00" xmlns="http://www.w3.org/2000/svg" xmlns:xlink="http://www.w3.org/1999/xlink">
<g id="graph0" class="graph" transform="scale(1 1) rotate(0) translate(4 718)">
<title>G</title>
<!-- node0 -->
<g id="node1" class="node">
<title>node0</title>
<polygon fill="#e98693" stroke="black" points="159.21,-714 103.21,-714 103.21,-678 159.21,-678 159.21,-714"/>
<text text-anchor="middle" x="131.21" y="-692.3" font-family="Arial" font-size="14.00" fill="#1a1919">0 Start</text>
</g>
<!-- node1168 -->
<g id="node9" class="node">
<title>node1168</title>
<polygon fill="#da2d4f" stroke="black" points="223.21,-633 111.21,-633 111.21,-597 223.21,-597 223.21,-633"/>
<text text-anchor="middle" x="167.21" y="-611.3" font-family="Arial" font-size="14.00" fill="#ffffff">1168 Load T(...)</text>
</g>
<!-- node0&#45;&gt;node1168 -->
<g id="edge16" class="edge">
<title>node0&#45;&gt;node1168</title>
<path fill="none" stroke="#da2d4f" stroke-width="2" d="M139.02,-677.86C143.74,-667.51 149.85,-654.1 155.17,-642.41"/>
<polygon fill="#da2d4f" stroke="#da2d4f" stroke-width="2" points="158.45,-643.66 159.41,-633.11 152.08,-640.76 158.45,-643.66"/>
</g>
<!-- node549 -->
<g id="node2" class="node">
<title>node549</title>
<polygon fill="#f9f9f9" stroke="black" points="276.21,-552 194.21,-552 194.21,-516 276.21,-516 276.21,-552"/>
<text text-anchor="middle" x="235.21" y="-530.3" font-family="Arial" font-size="14.00" fill="#1a1919">549 Unbox</text>
</g>
<!-- node704 -->
<g id="node3" class="node">
<title>node704</title>
<polygon fill="#f9f9f9" stroke="black" points="125.21,-471 43.21,-471 43.21,-435 125.21,-435 125.21,-471"/>
<text text-anchor="middle" x="84.21" y="-449.3" font-family="Arial" font-size="14.00" fill="#1a1919">704 Unbox</text>
</g>
<!-- node549&#45;&gt;node704 -->
<g id="edge1" class="edge">
<title>node549&#45;&gt;node704</title>
<path fill="none" stroke="#da2d4f" stroke-width="2" d="M202.44,-515.86C179.99,-504.11 150.01,-488.42 125.85,-475.79"/>
<polygon fill="#da2d4f" stroke="#da2d4f" stroke-width="2" points="127.39,-472.64 116.91,-471.11 124.15,-478.85 127.39,-472.64"/>
</g>
<!-- node1113 -->
<g id="node5" class="node">
<title>node1113</title>
<polygon fill="#3cb4a4" stroke="black" points="235.21,-384 48.53,-366 235.21,-348 421.89,-366 235.21,-384"/>
<text text-anchor="middle" x="235.21" y="-362.3" font-family="Arial" font-size="14.00" fill="#1a1919">1113 IntegerAddExactOverflow</text>
</g>
<!-- node549&#45;&gt;node1113 -->
<g id="edge5" class="edge">
<title>node549&#45;&gt;node1113</title>
<path fill="none" stroke="#3cb4a4" d="M235.21,-515.86C235.21,-487.16 235.21,-429.13 235.21,-394.61"/>
<polygon fill="#3cb4a4" stroke="#3cb4a4" points="238.71,-394.3 235.21,-384.3 231.71,-394.3 238.71,-394.3"/>
<text text-anchor="middle" x="238.71" y="-449.3" font-family="arial" font-size="14.00" fill="#3cb4a4">x</text>
</g>
<!-- node1115 -->
<g id="node6" class="node">
<title>node1115</title>
<polygon fill="#3cb4a4" stroke="black" points="282.21,-210 145.3,-192 282.21,-174 419.12,-192 282.21,-210"/>
<text text-anchor="middle" x="282.21" y="-188.3" font-family="Arial" font-size="14.00" fill="#1a1919">1115 IntegerAddExact</text>
</g>
<!-- node549&#45;&gt;node1115 -->
<g id="edge7" class="edge">
<title>node549&#45;&gt;node1115</title>
<path fill="none" stroke="#3cb4a4" d="M276.37,-527.04C340.81,-516.53 458.21,-492.15 458.21,-454 458.21,-454 458.21,-454 458.21,-278 458.21,-233.58 412.2,-212.37 367.22,-202.24"/>
<polygon fill="#3cb4a4" stroke="#3cb4a4" points="367.86,-198.79 357.36,-200.18 366.44,-205.65 367.86,-198.79"/>
<text text-anchor="middle" x="461.71" y="-362.3" font-family="arial" font-size="14.00" fill="#3cb4a4">x</text>
</g>
<!-- node1112 -->
<g id="node4" class="node">
<title>node1112</title>
<polygon fill="#ffa500" stroke="black" points="298.71,-297 33.71,-297 33.71,-261 298.71,-261 298.71,-297"/>
<text text-anchor="middle" x="166.21" y="-275.3" font-family="Arial" font-size="14.00" fill="#1a1919">1112 Guard not, else ArithmeticException</text>
</g>
<!-- node704&#45;&gt;node1112 -->
<g id="edge2" class="edge">
<title>node704&#45;&gt;node1112</title>
<path fill="none" stroke="#da2d4f" stroke-width="2" d="M66.9,-434.76C47.81,-413.57 21.92,-376.86 39.21,-348 52.03,-326.6 74.14,-311.55 96.36,-301.15"/>
<polygon fill="#da2d4f" stroke="#da2d4f" stroke-width="2" points="97.78,-304.35 105.52,-297.12 94.96,-297.94 97.78,-304.35"/>
</g>
<!-- node704&#45;&gt;node1113 -->
<g id="edge6" class="edge">
<title>node704&#45;&gt;node1113</title>
<path fill="none" stroke="#3cb4a4" d="M114.77,-434.8C139.59,-420.83 174.6,-401.12 200.48,-386.55"/>
<polygon fill="#3cb4a4" stroke="#3cb4a4" points="202.23,-389.58 209.22,-381.63 198.79,-383.48 202.23,-389.58"/>
<text text-anchor="middle" x="172.71" y="-405.8" font-family="arial" font-size="14.00" fill="#3cb4a4">y</text>
</g>
<!-- node704&#45;&gt;node1115 -->
<g id="edge8" class="edge">
<title>node704&#45;&gt;node1115</title>
<path fill="none" stroke="#3cb4a4" d="M57.09,-434.65C50.84,-429.59 44.71,-423.62 40.21,-417 1.06,-359.34 -18.33,-316.21 24.21,-261 46.33,-232.29 137.79,-213.28 205.57,-202.83"/>
<polygon fill="#3cb4a4" stroke="#3cb4a4" points="206.44,-206.24 215.8,-201.29 205.39,-199.31 206.44,-206.24"/>
<text text-anchor="middle" x="4.71" y="-318.8" font-family="arial" font-size="14.00" fill="#3cb4a4">y</text>
</g>
<!-- node1112&#45;&gt;node1115 -->
<g id="edge9" class="edge">
<title>node1112&#45;&gt;node1115</title>
<path fill="none" stroke="#3cb4a4" d="M189.68,-260.8C208.25,-247.19 234.25,-228.15 253.96,-213.7"/>
<polygon fill="#3cb4a4" stroke="#3cb4a4" points="256.25,-216.36 262.25,-207.63 252.11,-210.71 256.25,-216.36"/>
<text text-anchor="middle" x="247.71" y="-231.8" font-family="arial" font-size="14.00" fill="#3cb4a4">guard</text>
</g>
<!-- node1167 -->
<g id="node8" class="node">
<title>node1167</title>
<polygon fill="#f9f9f9" stroke="black" points="230.21,-123 36.21,-123 36.21,-87 230.21,-87 230.21,-123"/>
<text text-anchor="middle" x="133.21" y="-101.3" font-family="Arial" font-size="14.00" fill="#1a1919">1167 BoxNode$AllocatingBox</text>
</g>
<!-- node1112&#45;&gt;node1167 -->
<g id="edge4" class="edge">
<title>node1112&#45;&gt;node1167</title>
<path fill="none" stroke="#da2d4f" stroke-width="2" d="M156.36,-260.75C149.28,-247.37 140.3,-228.12 136.21,-210 130.45,-184.49 130.24,-154.58 131.15,-133.4"/>
<polygon fill="#da2d4f" stroke="#da2d4f" stroke-width="2" points="134.66,-133.36 131.71,-123.18 127.67,-132.98 134.66,-133.36"/>
</g>
<!-- node1113&#45;&gt;node1112 -->
<g id="edge3" class="edge">
<title>node1113&#45;&gt;node1112</title>
<path fill="none" stroke="#3cb4a4" d="M222.23,-349.01C212.18,-336.63 198.07,-319.25 186.53,-305.03"/>
<polygon fill="#3cb4a4" stroke="#3cb4a4" points="189.1,-302.64 180.08,-297.08 183.66,-307.05 189.1,-302.64"/>
<text text-anchor="middle" x="208.21" y="-318.8" font-family="arial" font-size="14.00" fill="#3cb4a4">?</text>
</g>
<!-- node1115&#45;&gt;node1167 -->
<g id="edge11" class="edge">
<title>node1115&#45;&gt;node1167</title>
<path fill="none" stroke="#3cb4a4" d="M257.94,-177.15C234.68,-163.88 199.18,-143.63 172,-128.13"/>
<polygon fill="#3cb4a4" stroke="#3cb4a4" points="173.55,-124.98 163.13,-123.07 170.08,-131.06 173.55,-124.98"/>
<text text-anchor="middle" x="232.71" y="-144.8" font-family="arial" font-size="14.00" fill="#3cb4a4">value</text>
</g>
<!-- node1144 -->
<g id="node7" class="node">
<title>node1144</title>
<polygon fill="#e98693" stroke="black" points="178.21,-36 88.21,-36 88.21,0 178.21,0 178.21,-36"/>
<text text-anchor="middle" x="133.21" y="-14.3" font-family="Arial" font-size="14.00" fill="#1a1919">1144 Return</text>
</g>
<!-- node1167&#45;&gt;node1144 -->
<g id="edge10" class="edge">
<title>node1167&#45;&gt;node1144</title>
<path fill="none" stroke="#3cb4a4" d="M119.1,-86.84C115.48,-81.46 112.09,-75.27 110.21,-69 107.8,-60.93 109.77,-52.49 113.4,-44.89"/>
<polygon fill="#3cb4a4" stroke="#3cb4a4" points="116.5,-46.53 118.46,-36.12 110.43,-43.03 116.5,-46.53"/>
<text text-anchor="middle" x="127.21" y="-57.8" font-family="arial" font-size="14.00" fill="#3cb4a4">result</text>
</g>
<!-- node1167&#45;&gt;node1144 -->
<g id="edge12" class="edge">
<title>node1167&#45;&gt;node1144</title>
<path fill="none" stroke="#da2d4f" stroke-width="2" d="M140.15,-86.98C143.27,-77.35 145.91,-65.07 144.21,-54 143.8,-51.32 143.22,-48.56 142.54,-45.83"/>
<polygon fill="#da2d4f" stroke="#da2d4f" stroke-width="2" points="145.9,-44.83 139.76,-36.2 139.17,-46.78 145.9,-44.83"/>
</g>
<!-- node1168&#45;&gt;node549 -->
<g id="edge17" class="edge">
<title>node1168&#45;&gt;node549</title>
<path fill="none" stroke="#da2d4f" stroke-width="2" d="M181.96,-596.86C191.23,-586.09 203.34,-572.02 213.67,-560.02"/>
<polygon fill="#da2d4f" stroke="#da2d4f" stroke-width="2" points="216.61,-561.97 220.48,-552.11 211.31,-557.4 216.61,-561.97"/>
</g>
<!-- inline161x549 -->
<g id="node10" class="node">
<title>inline161x549</title>
<ellipse fill="#d7ede7" stroke="black" cx="268.21" cy="-615" rx="27.46" ry="18"/>
<text text-anchor="middle" x="268.21" y="-613.1" font-family="Arial" font-size="8.00" fill="#1a1919">161 T(7)</text>
</g>
<!-- inline161x549&#45;&gt;node549 -->
<g id="edge13" class="edge">
<title>inline161x549&#45;&gt;node549</title>
<path fill="none" stroke="#3cb4a4" d="M261.21,-597.25C255.65,-583.93 247.9,-565.38 242.31,-552"/>
<text text-anchor="middle" x="261.71" y="-572.6" font-family="arial" font-size="8.00" fill="#3cb4a4">value</text>
</g>
<!-- inline179x704 -->
<g id="node11" class="node">
<title>inline179x704</title>
<ellipse fill="#d7ede7" stroke="black" cx="84.21" cy="-534" rx="27.46" ry="18"/>
<text text-anchor="middle" x="84.21" y="-532.1" font-family="Arial" font-size="8.00" fill="#1a1919">179 T(8)</text>
</g>
<!-- inline179x704&#45;&gt;node704 -->
<g id="edge14" class="edge">
<title>inline179x704&#45;&gt;node704</title>
<path fill="none" stroke="#3cb4a4" d="M84.21,-515.86C84.21,-502.61 84.21,-484.35 84.21,-471.11"/>
<text text-anchor="middle" x="93.71" y="-491.6" font-family="arial" font-size="8.00" fill="#3cb4a4">value</text>
</g>
<!-- inline2x1168 -->
<g id="node12" class="node">
<title>inline2x1168</title>
<ellipse fill="#d7ede7" stroke="black" cx="204.21" cy="-696" rx="27" ry="18"/>
<text text-anchor="middle" x="204.21" y="-694.1" font-family="Arial" font-size="8.00" fill="#1a1919">2 P(1)</text>
</g>
<!-- inline2x1168&#45;&gt;node1168 -->
<g id="edge15" class="edge">
<title>inline2x1168&#45;&gt;node1168</title>
<path fill="none" stroke="#3cb4a4" d="M196.54,-678.63C190.32,-665.34 181.57,-646.67 175.25,-633.17"/>
<text text-anchor="middle" x="195.71" y="-653.6" font-family="arial" font-size="8.00" fill="#3cb4a4">array</text>
</g>
</g>
</svg>
