<?xml version="1.0" encoding="UTF-8" standalone="no"?>
<!DOCTYPE svg PUBLIC "-//W3C//DTD SVG 1.1//EN"
 "http://www.w3.org/Graphics/SVG/1.1/DTD/svg11.dtd">
<!-- Generated by graphviz version 2.44.1 (20200629.0846)
 -->
<!-- Title: G Pages: 1 -->
<svg width="841pt" height="1391pt"
 viewBox="0.00 0.00 840.50 1391.00" xmlns="http://www.w3.org/2000/svg" xmlns:xlink="http://www.w3.org/1999/xlink">
<g id="graph0" class="graph" transform="scale(1 1) rotate(0) translate(4 1387)">
<title>G</title>
<!-- node0 -->
<g id="node1" class="node">
<title>node0</title>
<polygon fill="#e98693" stroke="black" points="56,-1383 0,-1383 0,-1347 56,-1347 56,-1383"/>
<text text-anchor="middle" x="28" y="-1361.3" font-family="Arial" font-size="14.00" fill="#1a1919">0 Start</text>
</g>
<!-- node1611 -->
<g id="node21" class="node">
<title>node1611</title>
<polygon fill="#da2d4f" stroke="black" points="120,-1302 8,-1302 8,-1266 120,-1266 120,-1302"/>
<text text-anchor="middle" x="64" y="-1280.3" font-family="Arial" font-size="14.00" fill="#ffffff">1611 Load T(...)</text>
</g>
<!-- node0&#45;&gt;node1611 -->
<g id="edge37" class="edge">
<title>node0&#45;&gt;node1611</title>
<path fill="none" stroke="#da2d4f" stroke-width="2" d="M35.81,-1346.86C40.53,-1336.51 46.64,-1323.1 51.96,-1311.41"/>
<polygon fill="#da2d4f" stroke="#da2d4f" stroke-width="2" points="55.24,-1312.66 56.2,-1302.11 48.87,-1309.76 55.24,-1312.66"/>
</g>
<!-- node695 -->
<g id="node2" class="node">
<title>node695</title>
<polygon fill="#f9f9f9" stroke="black" points="172,-1221 90,-1221 90,-1185 172,-1185 172,-1221"/>
<text text-anchor="middle" x="131" y="-1199.3" font-family="Arial" font-size="14.00" fill="#1a1919">695 Unbox</text>
</g>
<!-- node766 -->
<g id="node3" class="node">
<title>node766</title>
<polygon fill="#ffa500" stroke="black" points="467,-1134 229,-1134 229,-1098 467,-1098 467,-1134"/>
<text text-anchor="middle" x="348" y="-1112.3" font-family="Arial" font-size="14.00" fill="#1a1919">766 Guard, else ClassCastException</text>
</g>
<!-- node695&#45;&gt;node766 -->
<g id="edge1" class="edge">
<title>node695&#45;&gt;node766</title>
<path fill="none" stroke="#da2d4f" stroke-width="2" d="M172.07,-1185.91C206.96,-1172.25 257.26,-1152.54 295.14,-1137.7"/>
<polygon fill="#da2d4f" stroke="#da2d4f" stroke-width="2" points="296.46,-1140.95 304.49,-1134.04 293.9,-1134.43 296.46,-1140.95"/>
</g>
<!-- node1531 -->
<g id="node12" class="node">
<title>node1531</title>
<polygon fill="#3cb4a4" stroke="black" points="239,-1080 129.74,-1062 239,-1044 348.26,-1062 239,-1080"/>
<text text-anchor="middle" x="239" y="-1058.3" font-family="Arial" font-size="14.00" fill="#1a1919">1531 SignExtend</text>
</g>
<!-- node695&#45;&gt;node1531 -->
<g id="edge13" class="edge">
<title>node695&#45;&gt;node1531</title>
<path fill="none" stroke="#3cb4a4" d="M144.24,-1184.96C163.44,-1160.25 199.05,-1114.41 220.73,-1086.51"/>
<polygon fill="#3cb4a4" stroke="#3cb4a4" points="223.61,-1088.52 226.98,-1078.47 218.08,-1084.22 223.61,-1088.52"/>
<text text-anchor="middle" x="185.5" y="-1155.8" font-family="arial" font-size="14.00" fill="#3cb4a4">value</text>
</g>
<!-- node1609 -->
<g id="node19" class="node">
<title>node1609</title>
<polygon fill="#f9f9f9" stroke="black" points="224.5,-123 29.5,-123 29.5,-87 224.5,-87 224.5,-123"/>
<text text-anchor="middle" x="127" y="-101.3" font-family="Arial" font-size="14.00" fill="#1a1919">1609 BoxNode$AllocatingBox</text>
</g>
<!-- node695&#45;&gt;node1609 -->
<g id="edge26" class="edge">
<title>node695&#45;&gt;node1609</title>
<path fill="none" stroke="#3cb4a4" d="M125.85,-1184.92C121.17,-1167.88 115,-1140.88 115,-1117 115,-1117 115,-1117 115,-177 115,-162.3 117.53,-146.13 120.27,-132.94"/>
<polygon fill="#3cb4a4" stroke="#3cb4a4" points="123.71,-133.6 122.46,-123.08 116.87,-132.08 123.71,-133.6"/>
<text text-anchor="middle" x="131.5" y="-632.8" font-family="arial" font-size="14.00" fill="#3cb4a4">value</text>
</g>
<!-- node1556 -->
<g id="node13" class="node">
<title>node1556</title>
<polygon fill="#ffa500" stroke="black" points="603.5,-1026 352.5,-1026 352.5,-990 603.5,-990 603.5,-1026"/>
<text text-anchor="middle" x="478" y="-1004.3" font-family="Arial" font-size="14.00" fill="#1a1919">1556 Guard, else TransferToInterpreter</text>
</g>
<!-- node766&#45;&gt;node1556 -->
<g id="edge3" class="edge">
<title>node766&#45;&gt;node1556</title>
<path fill="none" stroke="#da2d4f" stroke-width="2" d="M368.89,-1097.97C390.55,-1080.3 424.6,-1052.54 448.9,-1032.73"/>
<polygon fill="#da2d4f" stroke="#da2d4f" stroke-width="2" points="451.19,-1035.37 456.73,-1026.34 446.77,-1029.95 451.19,-1035.37"/>
</g>
<!-- node767 -->
<g id="node4" class="node">
<title>node767</title>
<polygon fill="#f9f9f9" stroke="black" points="509.5,-1221 190.5,-1221 190.5,-1185 509.5,-1185 509.5,-1221"/>
<text text-anchor="middle" x="350" y="-1199.3" font-family="Arial" font-size="14.00" fill="#1a1919">767 InstanceOf org/truffleruby/core/proc/RubyProc</text>
</g>
<!-- node767&#45;&gt;node766 -->
<g id="edge2" class="edge">
<title>node767&#45;&gt;node766</title>
<path fill="none" stroke="#3cb4a4" d="M349.6,-1184.8C349.32,-1173.16 348.95,-1157.55 348.64,-1144.24"/>
<polygon fill="#3cb4a4" stroke="#3cb4a4" points="352.14,-1144.09 348.4,-1134.18 345.14,-1144.26 352.14,-1144.09"/>
<text text-anchor="middle" x="353" y="-1155.8" font-family="arial" font-size="14.00" fill="#3cb4a4">?</text>
</g>
<!-- node773 -->
<g id="node5" class="node">
<title>node773</title>
<polygon fill="#3cb4a4" stroke="black" points="556,-1134 485.45,-1116 556,-1098 626.55,-1116 556,-1134"/>
<text text-anchor="middle" x="556" y="-1112.3" font-family="Arial" font-size="14.00" fill="#1a1919">773 IsNull</text>
</g>
<!-- node773&#45;&gt;node1556 -->
<g id="edge14" class="edge">
<title>node773&#45;&gt;node1556</title>
<path fill="none" stroke="#3cb4a4" d="M545.15,-1100.26C532.63,-1083.24 511.8,-1054.94 496.66,-1034.36"/>
<polygon fill="#3cb4a4" stroke="#3cb4a4" points="499.3,-1032.05 490.56,-1026.07 493.67,-1036.2 499.3,-1032.05"/>
<text text-anchor="middle" x="532" y="-1058.3" font-family="arial" font-size="14.00" fill="#3cb4a4">?</text>
</g>
<!-- node1050 -->
<g id="node6" class="node">
<title>node1050</title>
<polygon fill="#da2d4f" stroke="black" points="679,-945 373,-945 373,-909 679,-909 679,-945"/>
<text text-anchor="middle" x="526" y="-923.3" font-family="Arial" font-size="14.00" fill="#ffffff">1050 LoadField RubyDynamicObject.metaClass</text>
</g>
<!-- node1081 -->
<g id="node7" class="node">
<title>node1081</title>
<polygon fill="#3cb4a4" stroke="black" points="616,-858 554.33,-840 616,-822 677.67,-840 616,-858"/>
<text text-anchor="middle" x="616" y="-836.3" font-family="Arial" font-size="14.00" fill="#1a1919">1081 ==</text>
</g>
<!-- node1050&#45;&gt;node1081 -->
<g id="edge5" class="edge">
<title>node1050&#45;&gt;node1081</title>
<path fill="none" stroke="#3cb4a4" d="M544.21,-908.8C558.82,-895 579.35,-875.61 594.72,-861.1"/>
<polygon fill="#3cb4a4" stroke="#3cb4a4" points="597.36,-863.42 602.22,-854.01 592.55,-858.33 597.36,-863.42"/>
<text text-anchor="middle" x="579.5" y="-879.8" font-family="arial" font-size="14.00" fill="#3cb4a4">x</text>
</g>
<!-- node1145 -->
<g id="node8" class="node">
<title>node1145</title>
<polygon fill="#3cb4a4" stroke="black" points="369,-858 308.17,-840 369,-822 429.83,-840 369,-858"/>
<text text-anchor="middle" x="369" y="-836.3" font-family="Arial" font-size="14.00" fill="#1a1919">1145 ==</text>
</g>
<!-- node1050&#45;&gt;node1145 -->
<g id="edge7" class="edge">
<title>node1050&#45;&gt;node1145</title>
<path fill="none" stroke="#3cb4a4" d="M494.23,-908.8C466.34,-893.7 426.07,-871.9 398.78,-857.13"/>
<polygon fill="#3cb4a4" stroke="#3cb4a4" points="400.18,-853.9 389.72,-852.22 396.84,-860.06 400.18,-853.9"/>
<text text-anchor="middle" x="459.5" y="-879.8" font-family="arial" font-size="14.00" fill="#3cb4a4">x</text>
</g>
<!-- node1559 -->
<g id="node14" class="node">
<title>node1559</title>
<polygon fill="#ffa500" stroke="black" points="669,-771 395,-771 395,-735 669,-735 669,-771"/>
<text text-anchor="middle" x="532" y="-749.3" font-family="Arial" font-size="14.00" fill="#1a1919">1559 Guard not, else TransferToInterpreter</text>
</g>
<!-- node1050&#45;&gt;node1559 -->
<g id="edge4" class="edge">
<title>node1050&#45;&gt;node1559</title>
<path fill="none" stroke="#da2d4f" stroke-width="2" d="M526.6,-908.88C527.64,-879 529.8,-817.11 531.05,-781.27"/>
<polygon fill="#da2d4f" stroke="#da2d4f" stroke-width="2" points="534.55,-781.17 531.41,-771.05 527.56,-780.92 534.55,-781.17"/>
</g>
<!-- node1081&#45;&gt;node1559 -->
<g id="edge16" class="edge">
<title>node1081&#45;&gt;node1559</title>
<path fill="none" stroke="#3cb4a4" d="M602.88,-825.72C590.42,-813.12 571.41,-793.88 556.21,-778.5"/>
<polygon fill="#3cb4a4" stroke="#3cb4a4" points="558.62,-775.96 549.1,-771.3 553.64,-780.88 558.62,-775.96"/>
<text text-anchor="middle" x="583" y="-792.8" font-family="arial" font-size="14.00" fill="#3cb4a4">?</text>
</g>
<!-- node1560 -->
<g id="node15" class="node">
<title>node1560</title>
<polygon fill="#ffa500" stroke="black" points="505.5,-698 254.5,-698 254.5,-662 505.5,-662 505.5,-698"/>
<text text-anchor="middle" x="380" y="-676.3" font-family="Arial" font-size="14.00" fill="#1a1919">1560 Guard, else TransferToInterpreter</text>
</g>
<!-- node1145&#45;&gt;node1560 -->
<g id="edge18" class="edge">
<title>node1145&#45;&gt;node1560</title>
<path fill="none" stroke="#3cb4a4" d="M370.18,-822.09C372.07,-794.91 375.81,-741.25 378.09,-708.5"/>
<polygon fill="#3cb4a4" stroke="#3cb4a4" points="381.59,-708.49 378.8,-698.27 374.61,-708 381.59,-708.49"/>
<text text-anchor="middle" x="380" y="-749.3" font-family="arial" font-size="14.00" fill="#3cb4a4">?</text>
</g>
<!-- node1378 -->
<g id="node9" class="node">
<title>node1378</title>
<polygon fill="#e98693" stroke="black" points="172.5,-36 81.5,-36 81.5,0 172.5,0 172.5,-36"/>
<text text-anchor="middle" x="127" y="-14.3" font-family="Arial" font-size="14.00" fill="#1a1919">1378 Return</text>
</g>
<!-- node1445 -->
<g id="node10" class="node">
<title>node1445</title>
<polygon fill="#da2d4f" stroke="black" points="504.5,-611 257.5,-611 257.5,-575 504.5,-575 504.5,-611"/>
<text text-anchor="middle" x="381" y="-589.3" font-family="Arial" font-size="14.00" fill="#ffffff">1445 LoadField DynamicObject.shape</text>
</g>
<!-- node1447 -->
<g id="node11" class="node">
<title>node1447</title>
<polygon fill="#3cb4a4" stroke="black" points="385,-524 323.33,-506 385,-488 446.67,-506 385,-524"/>
<text text-anchor="middle" x="385" y="-502.3" font-family="Arial" font-size="14.00" fill="#1a1919">1447 ==</text>
</g>
<!-- node1445&#45;&gt;node1447 -->
<g id="edge11" class="edge">
<title>node1445&#45;&gt;node1447</title>
<path fill="none" stroke="#3cb4a4" d="M381.81,-574.8C382.36,-563.09 383.1,-547.34 383.73,-533.97"/>
<polygon fill="#3cb4a4" stroke="#3cb4a4" points="387.23,-534.04 384.21,-523.89 380.24,-533.71 387.23,-534.04"/>
<text text-anchor="middle" x="386.5" y="-545.8" font-family="arial" font-size="14.00" fill="#3cb4a4">x</text>
</g>
<!-- node1568 -->
<g id="node18" class="node">
<title>node1568</title>
<polygon fill="#ffa500" stroke="black" points="662.5,-437 411.5,-437 411.5,-401 662.5,-401 662.5,-437"/>
<text text-anchor="middle" x="537" y="-415.3" font-family="Arial" font-size="14.00" fill="#1a1919">1568 Guard, else TransferToInterpreter</text>
</g>
<!-- node1445&#45;&gt;node1568 -->
<g id="edge10" class="edge">
<title>node1445&#45;&gt;node1568</title>
<path fill="none" stroke="#da2d4f" stroke-width="2" d="M483.54,-574.98C492.64,-570.3 501.02,-564.41 508,-557 535.88,-527.39 539.7,-477.98 539.01,-447.29"/>
<polygon fill="#da2d4f" stroke="#da2d4f" stroke-width="2" points="542.51,-447.13 538.61,-437.28 535.51,-447.41 542.51,-447.13"/>
</g>
<!-- node1564 -->
<g id="node16" class="node">
<title>node1564</title>
<polygon fill="#ffa500" stroke="black" points="618.5,-350 367.5,-350 367.5,-314 618.5,-314 618.5,-350"/>
<text text-anchor="middle" x="493" y="-328.3" font-family="Arial" font-size="14.00" fill="#1a1919">1564 Guard, else TransferToInterpreter</text>
</g>
<!-- node1447&#45;&gt;node1564 -->
<g id="edge20" class="edge">
<title>node1447&#45;&gt;node1564</title>
<path fill="none" stroke="#3cb4a4" d="M382.55,-488.58C380.17,-466.93 378.95,-428.39 395,-401 406.48,-381.41 426.1,-366.13 444.78,-355.06"/>
<polygon fill="#3cb4a4" stroke="#3cb4a4" points="446.56,-358.07 453.55,-350.11 443.12,-351.97 446.56,-358.07"/>
<text text-anchor="middle" x="399" y="-415.3" font-family="arial" font-size="14.00" fill="#3cb4a4">?</text>
</g>
<!-- node1567 -->
<g id="node17" class="node">
<title>node1567</title>
<polygon fill="#ffa500" stroke="black" points="465.5,-277 214.5,-277 214.5,-241 465.5,-241 465.5,-277"/>
<text text-anchor="middle" x="340" y="-255.3" font-family="Arial" font-size="14.00" fill="#1a1919">1567 Guard, else TransferToInterpreter</text>
</g>
<!-- node1447&#45;&gt;node1567 -->
<g id="edge22" class="edge">
<title>node1447&#45;&gt;node1567</title>
<path fill="none" stroke="#3cb4a4" d="M381.17,-489.01C379.79,-483.05 378.26,-476.23 377,-470 363.79,-404.69 350.87,-327.4 344.35,-287.27"/>
<polygon fill="#3cb4a4" stroke="#3cb4a4" points="347.78,-286.52 342.73,-277.2 340.87,-287.63 347.78,-286.52"/>
<text text-anchor="middle" x="364" y="-371.8" font-family="arial" font-size="14.00" fill="#3cb4a4">?</text>
</g>
<!-- node1447&#45;&gt;node1568 -->
<g id="edge24" class="edge">
<title>node1447&#45;&gt;node1568</title>
<path fill="none" stroke="#3cb4a4" d="M405.18,-493.71C428.68,-480.58 468.03,-458.57 497.63,-442.02"/>
<polygon fill="#3cb4a4" stroke="#3cb4a4" points="499.46,-445 506.48,-437.07 496.04,-438.89 499.46,-445"/>
<text text-anchor="middle" x="474" y="-458.8" font-family="arial" font-size="14.00" fill="#3cb4a4">?</text>
</g>
<!-- node1610 -->
<g id="node20" class="node">
<title>node1610</title>
<polygon fill="#da2d4f" stroke="black" points="445,-196 163,-196 163,-160 445,-160 445,-196"/>
<text text-anchor="middle" x="304" y="-174.3" font-family="Arial" font-size="14.00" fill="#ffffff">1610 StoreField RubyBasicObject.primitive1</text>
</g>
<!-- node1531&#45;&gt;node1610 -->
<g id="edge28" class="edge">
<title>node1531&#45;&gt;node1610</title>
<path fill="none" stroke="#3cb4a4" d="M223.95,-1046.13C208.28,-1029 186,-999.22 186,-968.5 186,-968.5 186,-968.5 186,-258 186,-230.88 207.78,-212.48 232.63,-200.32"/>
<polygon fill="#3cb4a4" stroke="#3cb4a4" points="234.23,-203.44 241.89,-196.11 231.34,-197.06 234.23,-203.44"/>
<text text-anchor="middle" x="202.5" y="-632.8" font-family="arial" font-size="14.00" fill="#3cb4a4">value</text>
</g>
<!-- node1556&#45;&gt;node1050 -->
<g id="edge15" class="edge">
<title>node1556&#45;&gt;node1050</title>
<path fill="none" stroke="#da2d4f" stroke-width="2" d="M488.42,-989.86C494.83,-979.3 503.18,-965.56 510.38,-953.71"/>
<polygon fill="#da2d4f" stroke="#da2d4f" stroke-width="2" points="513.4,-955.47 515.61,-945.11 507.42,-951.84 513.4,-955.47"/>
</g>
<!-- node1559&#45;&gt;node1560 -->
<g id="edge17" class="edge">
<title>node1559&#45;&gt;node1560</title>
<path fill="none" stroke="#da2d4f" stroke-width="2" d="M495.59,-734.99C474.69,-725.23 448.24,-712.88 425.92,-702.45"/>
<polygon fill="#da2d4f" stroke="#da2d4f" stroke-width="2" points="427.18,-699.17 416.64,-698.11 424.22,-705.52 427.18,-699.17"/>
</g>
<!-- node1560&#45;&gt;node1445 -->
<g id="edge19" class="edge">
<title>node1560&#45;&gt;node1445</title>
<path fill="none" stroke="#da2d4f" stroke-width="2" d="M380.2,-661.8C380.34,-650.16 380.52,-634.55 380.68,-621.24"/>
<polygon fill="#da2d4f" stroke="#da2d4f" stroke-width="2" points="384.18,-621.22 380.8,-611.18 377.18,-621.13 384.18,-621.22"/>
</g>
<!-- node1564&#45;&gt;node1567 -->
<g id="edge21" class="edge">
<title>node1564&#45;&gt;node1567</title>
<path fill="none" stroke="#da2d4f" stroke-width="2" d="M456.35,-313.99C435.31,-304.23 408.69,-291.88 386.22,-281.45"/>
<polygon fill="#da2d4f" stroke="#da2d4f" stroke-width="2" points="387.42,-278.15 376.88,-277.11 384.48,-284.5 387.42,-278.15"/>
</g>
<!-- node1567&#45;&gt;node1610 -->
<g id="edge23" class="edge">
<title>node1567&#45;&gt;node1610</title>
<path fill="none" stroke="#da2d4f" stroke-width="2" d="M332.19,-240.86C327.47,-230.51 321.36,-217.1 316.04,-205.41"/>
<polygon fill="#da2d4f" stroke="#da2d4f" stroke-width="2" points="319.13,-203.76 311.8,-196.11 312.76,-206.66 319.13,-203.76"/>
</g>
<!-- node1568&#45;&gt;node1564 -->
<g id="edge25" class="edge">
<title>node1568&#45;&gt;node1564</title>
<path fill="none" stroke="#da2d4f" stroke-width="2" d="M528.1,-400.8C521.89,-388.82 513.51,-372.62 506.49,-359.06"/>
<polygon fill="#da2d4f" stroke="#da2d4f" stroke-width="2" points="509.6,-357.45 501.89,-350.18 503.38,-360.67 509.6,-357.45"/>
</g>
<!-- node1609&#45;&gt;node1378 -->
<g id="edge9" class="edge">
<title>node1609&#45;&gt;node1378</title>
<path fill="none" stroke="#3cb4a4" d="M112.9,-86.84C109.28,-81.46 105.88,-75.27 104,-69 101.59,-60.93 103.56,-52.49 107.19,-44.89"/>
<polygon fill="#3cb4a4" stroke="#3cb4a4" points="110.29,-46.53 112.25,-36.12 104.22,-43.03 110.29,-46.53"/>
<text text-anchor="middle" x="121" y="-57.8" font-family="arial" font-size="14.00" fill="#3cb4a4">result</text>
</g>
<!-- node1609&#45;&gt;node1378 -->
<g id="edge27" class="edge">
<title>node1609&#45;&gt;node1378</title>
<path fill="none" stroke="#da2d4f" stroke-width="2" d="M133.55,-86.8C135.37,-81.21 137.09,-74.92 138,-69 139.17,-61.39 138.29,-53.2 136.61,-45.71"/>
<polygon fill="#da2d4f" stroke="#da2d4f" stroke-width="2" points="139.97,-44.74 133.94,-36.02 133.22,-46.59 139.97,-44.74"/>
</g>
<!-- node1610&#45;&gt;node1609 -->
<g id="edge29" class="edge">
<title>node1610&#45;&gt;node1609</title>
<path fill="none" stroke="#da2d4f" stroke-width="2" d="M261.6,-159.99C236.83,-150.06 205.36,-137.43 179.09,-126.89"/>
<polygon fill="#da2d4f" stroke="#da2d4f" stroke-width="2" points="180.25,-123.59 169.66,-123.11 177.64,-130.08 180.25,-123.59"/>
</g>
<!-- node1611&#45;&gt;node695 -->
<g id="edge38" class="edge">
<title>node1611&#45;&gt;node695</title>
<path fill="none" stroke="#da2d4f" stroke-width="2" d="M78.54,-1265.86C87.67,-1255.09 99.6,-1241.02 109.78,-1229.02"/>
<polygon fill="#da2d4f" stroke="#da2d4f" stroke-width="2" points="112.69,-1231 116.49,-1221.11 107.35,-1226.47 112.69,-1231"/>
</g>
<!-- inline1080x1081 -->
<g id="node22" class="node">
<title>inline1080x1081</title>
<ellipse fill="#d7ede7" stroke="black" cx="765" cy="-927" rx="67.5" ry="18"/>
<text text-anchor="middle" x="765" y="-925.1" font-family="Arial" font-size="8.00" fill="#1a1919">1080 C(instance:RubyClass)</text>
</g>
<!-- inline1080x1081&#45;&gt;node1081 -->
<g id="edge6" class="edge">
<title>inline1080x1081&#45;&gt;node1081</title>
<path fill="none" stroke="#3cb4a4" d="M737.67,-910.41C708.27,-893.64 662.21,-867.36 636,-852.41"/>
<text text-anchor="middle" x="701" y="-881.6" font-family="arial" font-size="8.00" fill="#3cb4a4">y</text>
</g>
<!-- inline1144x1145 -->
<g id="node23" class="node">
<title>inline1144x1145</title>
<ellipse fill="#d7ede7" stroke="black" cx="288" cy="-927" rx="66.87" ry="18"/>
<text text-anchor="middle" x="288" y="-925.1" font-family="Arial" font-size="8.00" fill="#1a1919">1144 C(instance:RubyClass)</text>
</g>
<!-- inline1144x1145&#45;&gt;node1145 -->
<g id="edge8" class="edge">
<title>inline1144x1145&#45;&gt;node1145</title>
<path fill="none" stroke="#3cb4a4" d="M304,-909.21C319.31,-893.14 342.1,-869.23 356.22,-854.41"/>
<text text-anchor="middle" x="335" y="-881.6" font-family="arial" font-size="8.00" fill="#3cb4a4">y</text>
</g>
<!-- inline1442x1447 -->
<g id="node24" class="node">
<title>inline1442x1447</title>
<ellipse fill="#d7ede7" stroke="black" cx="592" cy="-593" rx="69.4" ry="18"/>
<text text-anchor="middle" x="592" y="-591.1" font-family="Arial" font-size="8.00" fill="#1a1919">1442 C(instance:ShapeBasic)</text>
</g>
<!-- inline1442x1447&#45;&gt;node1447 -->
<g id="edge12" class="edge">
<title>inline1442x1447&#45;&gt;node1447</title>
<path fill="none" stroke="#3cb4a4" d="M556.42,-577.39C514.45,-560.16 445.83,-531.98 409.44,-517.04"/>
<text text-anchor="middle" x="502" y="-547.6" font-family="arial" font-size="8.00" fill="#3cb4a4">y</text>
</g>
<!-- inline158x767 -->
<g id="node25" class="node">
<title>inline158x767</title>
<ellipse fill="#d7ede7" stroke="black" cx="350" cy="-1284" rx="27.46" ry="18"/>
<text text-anchor="middle" x="350" y="-1282.1" font-family="Arial" font-size="8.00" fill="#1a1919">158 T(7)</text>
</g>
<!-- inline158x767&#45;&gt;node767 -->
<g id="edge30" class="edge">
<title>inline158x767&#45;&gt;node767</title>
<path fill="none" stroke="#3cb4a4" d="M350,-1265.86C350,-1252.61 350,-1234.35 350,-1221.11"/>
<text text-anchor="middle" x="359.5" y="-1241.6" font-family="arial" font-size="8.00" fill="#3cb4a4">value</text>
</g>
<!-- inline158x773 -->
<g id="node26" class="node">
<title>inline158x773</title>
<ellipse fill="#d7ede7" stroke="black" cx="556" cy="-1203" rx="27.46" ry="18"/>
<text text-anchor="middle" x="556" y="-1201.1" font-family="Arial" font-size="8.00" fill="#1a1919">158 T(7)</text>
</g>
<!-- inline158x773&#45;&gt;node773 -->
<g id="edge31" class="edge">
<title>inline158x773&#45;&gt;node773</title>
<path fill="none" stroke="#3cb4a4" d="M556,-1184.8C556,-1170.05 556,-1148.92 556,-1134.18"/>
<text text-anchor="middle" x="565.5" y="-1157.6" font-family="arial" font-size="8.00" fill="#3cb4a4">value</text>
</g>
<!-- inline173x1050 -->
<g id="node27" class="node">
<title>inline173x1050</title>
<ellipse fill="#d7ede7" stroke="black" cx="649" cy="-1008" rx="27.46" ry="18"/>
<text text-anchor="middle" x="649" y="-1006.1" font-family="Arial" font-size="8.00" fill="#1a1919">173 T(8)</text>
</g>
<!-- inline173x1050&#45;&gt;node1050 -->
<g id="edge32" class="edge">
<title>inline173x1050&#45;&gt;node1050</title>
<path fill="none" stroke="#3cb4a4" d="M630.05,-994.83C609.3,-981.5 575.86,-960.02 552.51,-945.02"/>
<text text-anchor="middle" x="602" y="-965.6" font-family="arial" font-size="8.00" fill="#3cb4a4">object</text>
</g>
<!-- inline173x1445 -->
<g id="node28" class="node">
<title>inline173x1445</title>
<ellipse fill="#d7ede7" stroke="black" cx="551" cy="-680" rx="27.46" ry="18"/>
<text text-anchor="middle" x="551" y="-678.1" font-family="Arial" font-size="8.00" fill="#1a1919">173 T(8)</text>
</g>
<!-- inline173x1445&#45;&gt;node1445 -->
<g id="edge33" class="edge">
<title>inline173x1445&#45;&gt;node1445</title>
<path fill="none" stroke="#3cb4a4" d="M529.81,-668.41C501.06,-654.03 449.36,-628.18 415.11,-611.06"/>
<text text-anchor="middle" x="487" y="-634.6" font-family="arial" font-size="8.00" fill="#3cb4a4">object</text>
</g>
<!-- inline173x1610 -->
<g id="node29" class="node">
<title>inline173x1610</title>
<ellipse fill="#d7ede7" stroke="black" cx="511" cy="-259" rx="27.46" ry="18"/>
<text text-anchor="middle" x="511" y="-257.1" font-family="Arial" font-size="8.00" fill="#1a1919">173 T(8)</text>
</g>
<!-- inline173x1610&#45;&gt;node1610 -->
<g id="edge34" class="edge">
<title>inline173x1610&#45;&gt;node1610</title>
<path fill="none" stroke="#3cb4a4" d="M489.83,-247.6C484.99,-245.34 479.85,-243.02 475,-241 435.21,-224.43 389.23,-207.91 354.98,-196.09"/>
<text text-anchor="middle" x="439" y="-216.6" font-family="arial" font-size="8.00" fill="#3cb4a4">object</text>
</g>
<!-- inline190x695 -->
<g id="node30" class="node">
<title>inline190x695</title>
<ellipse fill="#d7ede7" stroke="black" cx="165" cy="-1284" rx="27.46" ry="18"/>
<text text-anchor="middle" x="165" y="-1282.1" font-family="Arial" font-size="8.00" fill="#1a1919">190 T(9)</text>
</g>
<!-- inline190x695&#45;&gt;node695 -->
<g id="edge35" class="edge">
<title>inline190x695&#45;&gt;node695</title>
<path fill="none" stroke="#3cb4a4" d="M157.79,-1266.25C152.06,-1252.93 144.08,-1234.38 138.32,-1221"/>
<text text-anchor="middle" x="158.5" y="-1241.6" font-family="arial" font-size="8.00" fill="#3cb4a4">value</text>
</g>
<!-- inline2x1611 -->
<g id="node31" class="node">
<title>inline2x1611</title>
<ellipse fill="#d7ede7" stroke="black" cx="101" cy="-1365" rx="27" ry="18"/>
<text text-anchor="middle" x="101" y="-1363.1" font-family="Arial" font-size="8.00" fill="#1a1919">2 P(1)</text>
</g>
<!-- inline2x1611&#45;&gt;node1611 -->
<g id="edge36" class="edge">
<title>inline2x1611&#45;&gt;node1611</title>
<path fill="none" stroke="#3cb4a4" d="M93.33,-1347.63C87.11,-1334.34 78.36,-1315.67 72.04,-1302.17"/>
<text text-anchor="middle" x="92.5" y="-1322.6" font-family="arial" font-size="8.00" fill="#3cb4a4">array</text>
</g>
</g>
</svg>
