<?xml version="1.0" encoding="UTF-8" standalone="no"?>
<!DOCTYPE svg PUBLIC "-//W3C//DTD SVG 1.1//EN"
 "http://www.w3.org/Graphics/SVG/1.1/DTD/svg11.dtd">
<!-- Generated by graphviz version 2.44.1 (20200629.0846)
 -->
<!-- Title: G Pages: 1 -->
<svg width="477pt" height="1014pt"
 viewBox="0.00 0.00 476.58 1014.00" xmlns="http://www.w3.org/2000/svg" xmlns:xlink="http://www.w3.org/1999/xlink">
<g id="graph0" class="graph" transform="scale(1 1) rotate(0) translate(4 1010)">
<title>G</title>
<!-- node0 -->
<g id="node1" class="node">
<title>node0</title>
<polygon fill="#e98693" stroke="black" points="85.58,-1006 29.58,-1006 29.58,-970 85.58,-970 85.58,-1006"/>
<text text-anchor="middle" x="57.58" y="-984.3" font-family="Arial" font-size="14.00" fill="#1a1919">0 Start</text>
</g>
<!-- node1670 -->
<g id="node17" class="node">
<title>node1670</title>
<polygon fill="#da2d4f" stroke="black" points="150.08,-925 37.08,-925 37.08,-889 150.08,-889 150.08,-925"/>
<text text-anchor="middle" x="93.58" y="-903.3" font-family="Arial" font-size="14.00" fill="#ffffff">1670 Load T(...)</text>
</g>
<!-- node0&#45;&gt;node1670 -->
<g id="edge28" class="edge">
<title>node0&#45;&gt;node1670</title>
<path fill="none" stroke="#da2d4f" stroke-width="2" d="M65.4,-969.86C70.11,-959.51 76.22,-946.1 81.55,-934.41"/>
<polygon fill="#da2d4f" stroke="#da2d4f" stroke-width="2" points="84.83,-935.66 85.79,-925.11 78.46,-932.76 84.83,-935.66"/>
</g>
<!-- node538 -->
<g id="node2" class="node">
<title>node538</title>
<polygon fill="#f9f9f9" stroke="black" points="203.58,-844 121.58,-844 121.58,-808 203.58,-808 203.58,-844"/>
<text text-anchor="middle" x="162.58" y="-822.3" font-family="Arial" font-size="14.00" fill="#1a1919">538 Unbox</text>
</g>
<!-- node697 -->
<g id="node3" class="node">
<title>node697</title>
<polygon fill="#f9f9f9" stroke="black" points="299.58,-757 217.58,-757 217.58,-721 299.58,-721 299.58,-757"/>
<text text-anchor="middle" x="258.58" y="-735.3" font-family="Arial" font-size="14.00" fill="#1a1919">697 Unbox</text>
</g>
<!-- node538&#45;&gt;node697 -->
<g id="edge1" class="edge">
<title>node538&#45;&gt;node697</title>
<path fill="none" stroke="#da2d4f" stroke-width="2" d="M182.01,-807.8C196.19,-795.24 215.61,-778.05 231.34,-764.12"/>
<polygon fill="#da2d4f" stroke="#da2d4f" stroke-width="2" points="234.02,-766.43 239.19,-757.18 229.38,-761.18 234.02,-766.43"/>
</g>
<!-- node1080 -->
<g id="node6" class="node">
<title>node1080</title>
<polygon fill="#3cb4a4" stroke="black" points="61.58,-757 -0.08,-739 61.58,-721 123.25,-739 61.58,-757"/>
<text text-anchor="middle" x="61.58" y="-735.3" font-family="Arial" font-size="14.00" fill="#1a1919">1080 ==</text>
</g>
<!-- node538&#45;&gt;node1080 -->
<g id="edge23" class="edge">
<title>node538&#45;&gt;node1080</title>
<path fill="none" stroke="#3cb4a4" d="M142.14,-807.8C125.5,-793.79 102.01,-774.02 84.68,-759.44"/>
<polygon fill="#3cb4a4" stroke="#3cb4a4" points="86.64,-756.51 76.73,-752.75 82.13,-761.87 86.64,-756.51"/>
<text text-anchor="middle" x="121.08" y="-778.8" font-family="arial" font-size="14.00" fill="#3cb4a4">x</text>
</g>
<!-- node852 -->
<g id="node4" class="node">
<title>node852</title>
<polygon fill="#f9f9f9" stroke="black" points="299.58,-676 217.58,-676 217.58,-640 299.58,-640 299.58,-676"/>
<text text-anchor="middle" x="258.58" y="-654.3" font-family="Arial" font-size="14.00" fill="#1a1919">852 Unbox</text>
</g>
<!-- node697&#45;&gt;node852 -->
<g id="edge2" class="edge">
<title>node697&#45;&gt;node852</title>
<path fill="none" stroke="#da2d4f" stroke-width="2" d="M258.58,-720.86C258.58,-710.71 258.58,-697.63 258.58,-686.12"/>
<polygon fill="#da2d4f" stroke="#da2d4f" stroke-width="2" points="262.08,-686.11 258.58,-676.11 255.08,-686.11 262.08,-686.11"/>
</g>
<!-- node1175 -->
<g id="node9" class="node">
<title>node1175</title>
<ellipse fill="black" stroke="black" cx="99.58" cy="-411" rx="18" ry="18"/>
</g>
<!-- node697&#45;&gt;node1175 -->
<g id="edge10" class="edge">
<title>node697&#45;&gt;node1175</title>
<path fill="none" stroke="#3cb4a4" d="M227.48,-720.88C189.15,-698.37 124.23,-655.47 84.58,-603 50.17,-557.46 29.28,-534.07 47.58,-480 53.9,-461.35 67.61,-443.79 79.36,-431.19"/>
<polygon fill="#3cb4a4" stroke="#3cb4a4" points="81.88,-433.62 86.35,-424.01 76.86,-428.74 81.88,-433.62"/>
<text text-anchor="middle" x="101.08" y="-581.3" font-family="arial" font-size="14.00" fill="#3cb4a4">value</text>
</g>
<!-- node1664 -->
<g id="node15" class="node">
<title>node1664</title>
<polygon fill="#f9f9f9" stroke="black" points="341.58,-210 283.58,-210 283.58,-174 341.58,-174 341.58,-210"/>
<text text-anchor="middle" x="312.58" y="-188.3" font-family="Arial" font-size="14.00" fill="#1a1919">1664 ϕ</text>
</g>
<!-- node697&#45;&gt;node1664 -->
<g id="edge19" class="edge">
<title>node697&#45;&gt;node1664</title>
<path fill="none" stroke="#3cb4a4" d="M299.81,-733.63C343.6,-726.44 406.58,-707.64 406.58,-659 406.58,-659 406.58,-659 406.58,-264 406.58,-234.67 377.09,-215.93 351.15,-205.11"/>
<polygon fill="#3cb4a4" stroke="#3cb4a4" points="352.4,-201.84 341.81,-201.47 349.86,-208.36 352.4,-201.84"/>
<text text-anchor="middle" x="437.58" y="-450.8" font-family="arial" font-size="14.00" fill="#3cb4a4">from 1538</text>
</g>
<!-- node1079 -->
<g id="node5" class="node">
<title>node1079</title>
<polygon fill="#e98693" stroke="black" points="184.58,-603 126.58,-603 126.58,-567 184.58,-567 184.58,-603"/>
<text text-anchor="middle" x="155.58" y="-581.3" font-family="Arial" font-size="14.00" fill="#1a1919">1079 If</text>
</g>
<!-- node852&#45;&gt;node1079 -->
<g id="edge3" class="edge">
<title>node852&#45;&gt;node1079</title>
<path fill="none" stroke="#da2d4f" stroke-width="2" d="M233.91,-639.99C220.38,-630.67 203.42,-618.97 188.74,-608.86"/>
<polygon fill="#da2d4f" stroke="#da2d4f" stroke-width="2" points="190.63,-605.91 180.41,-603.11 186.66,-611.67 190.63,-605.91"/>
</g>
<!-- node1402 -->
<g id="node10" class="node">
<title>node1402</title>
<ellipse fill="black" stroke="black" cx="243.58" cy="-411" rx="18" ry="18"/>
</g>
<!-- node852&#45;&gt;node1402 -->
<g id="edge12" class="edge">
<title>node852&#45;&gt;node1402</title>
<path fill="none" stroke="#3cb4a4" d="M258.98,-639.87C259.53,-608.22 259.95,-538.46 254.58,-480 253.33,-466.37 251,-451.33 248.81,-438.87"/>
<polygon fill="#3cb4a4" stroke="#3cb4a4" points="252.18,-437.89 246.94,-428.69 245.3,-439.15 252.18,-437.89"/>
<text text-anchor="middle" x="274.08" y="-537.8" font-family="arial" font-size="14.00" fill="#3cb4a4">value</text>
</g>
<!-- node852&#45;&gt;node1664 -->
<g id="edge20" class="edge">
<title>node852&#45;&gt;node1664</title>
<path fill="none" stroke="#3cb4a4" d="M283.85,-639.93C299.48,-627.15 316.58,-608.12 316.58,-586 316.58,-586 316.58,-586 316.58,-264 316.58,-249.63 315.76,-233.65 314.85,-220.49"/>
<polygon fill="#3cb4a4" stroke="#3cb4a4" points="318.32,-219.92 314.1,-210.2 311.34,-220.43 318.32,-219.92"/>
<text text-anchor="middle" x="347.58" y="-407.3" font-family="arial" font-size="14.00" fill="#3cb4a4">from 1540</text>
</g>
<!-- node1081 -->
<g id="node7" class="node">
<title>node1081</title>
<polygon fill="#e98693" stroke="black" points="245.08,-516 160.08,-516 160.08,-480 245.08,-480 245.08,-516"/>
<text text-anchor="middle" x="202.58" y="-494.3" font-family="Arial" font-size="14.00" fill="#1a1919">1081 Begin</text>
</g>
<!-- node1079&#45;&gt;node1081 -->
<g id="edge5" class="edge">
<title>node1079&#45;&gt;node1081</title>
<path fill="none" stroke="#da2d4f" stroke-width="2" d="M165.09,-566.8C171.72,-554.82 180.68,-538.62 188.18,-525.06"/>
<polygon fill="#da2d4f" stroke="#da2d4f" stroke-width="2" points="191.31,-526.62 193.09,-516.18 185.18,-523.23 191.31,-526.62"/>
<text text-anchor="middle" x="186.08" y="-537.8" font-family="arial" font-size="14.00" fill="#da2d4f">T</text>
</g>
<!-- node1082 -->
<g id="node8" class="node">
<title>node1082</title>
<polygon fill="#e98693" stroke="black" points="142.08,-516 57.08,-516 57.08,-480 142.08,-480 142.08,-516"/>
<text text-anchor="middle" x="99.58" y="-494.3" font-family="Arial" font-size="14.00" fill="#1a1919">1082 Begin</text>
</g>
<!-- node1079&#45;&gt;node1082 -->
<g id="edge6" class="edge">
<title>node1079&#45;&gt;node1082</title>
<path fill="none" stroke="#da2d4f" stroke-width="2" d="M144.25,-566.8C136.28,-554.7 125.48,-538.3 116.49,-524.67"/>
<polygon fill="#da2d4f" stroke="#da2d4f" stroke-width="2" points="119.32,-522.6 110.9,-516.18 113.48,-526.45 119.32,-522.6"/>
<text text-anchor="middle" x="135.08" y="-537.8" font-family="arial" font-size="14.00" fill="#da2d4f">F</text>
</g>
<!-- node1080&#45;&gt;node1079 -->
<g id="edge4" class="edge">
<title>node1080&#45;&gt;node1079</title>
<path fill="none" stroke="#3cb4a4" d="M70.6,-723.43C86.49,-697.73 119.69,-644.04 139.57,-611.9"/>
<polygon fill="#3cb4a4" stroke="#3cb4a4" points="142.75,-613.41 145.03,-603.06 136.8,-609.73 142.75,-613.41"/>
<text text-anchor="middle" x="125.58" y="-654.3" font-family="arial" font-size="14.00" fill="#3cb4a4">?</text>
</g>
<!-- node1081&#45;&gt;node1402 -->
<g id="edge8" class="edge">
<title>node1081&#45;&gt;node1402</title>
<path fill="none" stroke="#da2d4f" stroke-width="2" d="M210.88,-479.8C216.83,-467.46 224.94,-450.66 231.59,-436.86"/>
<polygon fill="#da2d4f" stroke="#da2d4f" stroke-width="2" points="234.93,-437.99 236.13,-427.46 228.63,-434.95 234.93,-437.99"/>
</g>
<!-- node1082&#45;&gt;node1175 -->
<g id="edge9" class="edge">
<title>node1082&#45;&gt;node1175</title>
<path fill="none" stroke="#da2d4f" stroke-width="2" d="M99.58,-479.8C99.58,-468.16 99.58,-452.55 99.58,-439.24"/>
<polygon fill="#da2d4f" stroke="#da2d4f" stroke-width="2" points="103.08,-439.18 99.58,-429.18 96.08,-439.18 103.08,-439.18"/>
</g>
<!-- node1538 -->
<g id="node12" class="node">
<title>node1538</title>
<polygon fill="#e98693" stroke="black" points="176.58,-356 102.58,-356 102.58,-320 176.58,-320 176.58,-356"/>
<text text-anchor="middle" x="139.58" y="-334.3" font-family="Arial" font-size="14.00" fill="#1a1919">1538 End</text>
</g>
<!-- node1175&#45;&gt;node1538 -->
<g id="edge11" class="edge">
<title>node1175&#45;&gt;node1538</title>
<path fill="none" stroke="#da2d4f" stroke-width="2" d="M108.07,-394.94C112.98,-386.22 119.31,-374.99 125,-364.89"/>
<polygon fill="#da2d4f" stroke="#da2d4f" stroke-width="2" points="128.13,-366.46 129.99,-356.03 122.03,-363.02 128.13,-366.46"/>
</g>
<!-- node1540 -->
<g id="node13" class="node">
<title>node1540</title>
<polygon fill="#e98693" stroke="black" points="280.58,-356 206.58,-356 206.58,-320 280.58,-320 280.58,-356"/>
<text text-anchor="middle" x="243.58" y="-334.3" font-family="Arial" font-size="14.00" fill="#1a1919">1540 End</text>
</g>
<!-- node1402&#45;&gt;node1540 -->
<g id="edge13" class="edge">
<title>node1402&#45;&gt;node1540</title>
<path fill="none" stroke="#da2d4f" stroke-width="2" d="M243.58,-392.81C243.58,-384.79 243.58,-375.05 243.58,-366.07"/>
<polygon fill="#da2d4f" stroke="#da2d4f" stroke-width="2" points="247.08,-366.03 243.58,-356.03 240.08,-366.03 247.08,-366.03"/>
</g>
<!-- node1536 -->
<g id="node11" class="node">
<title>node1536</title>
<polygon fill="#e98693" stroke="black" points="288.08,-283 199.08,-283 199.08,-247 288.08,-247 288.08,-283"/>
<text text-anchor="middle" x="243.58" y="-261.3" font-family="Arial" font-size="14.00" fill="#1a1919">1536 Merge</text>
</g>
<!-- node1536&#45;&gt;node1664 -->
<g id="edge18" class="edge">
<title>node1536&#45;&gt;node1664</title>
<path fill="none" stroke="#343d46" stroke-dasharray="5,2" d="M267.52,-239.37C276.93,-229.69 287.5,-218.81 296.03,-210.03"/>
<polygon fill="#343d46" stroke="#343d46" points="264.75,-237.2 260.29,-246.81 269.77,-242.08 264.75,-237.2"/>
</g>
<!-- node1669 -->
<g id="node16" class="node">
<title>node1669</title>
<polygon fill="#f9f9f9" stroke="black" points="365.08,-123 170.08,-123 170.08,-87 365.08,-87 365.08,-123"/>
<text text-anchor="middle" x="267.58" y="-101.3" font-family="Arial" font-size="14.00" fill="#1a1919">1669 BoxNode$AllocatingBox</text>
</g>
<!-- node1536&#45;&gt;node1669 -->
<g id="edge16" class="edge">
<title>node1536&#45;&gt;node1669</title>
<path fill="none" stroke="#da2d4f" stroke-width="2" d="M246.2,-246.79C250.35,-219.48 258.47,-165.99 263.42,-133.38"/>
<polygon fill="#da2d4f" stroke="#da2d4f" stroke-width="2" points="266.93,-133.6 264.97,-123.19 260.01,-132.55 266.93,-133.6"/>
</g>
<!-- node1538&#45;&gt;node1536 -->
<g id="edge14" class="edge">
<title>node1538&#45;&gt;node1536</title>
<path fill="none" stroke="#da2d4f" stroke-width="2" d="M164.49,-319.99C178.16,-310.67 195.28,-298.97 210.1,-288.86"/>
<polygon fill="#da2d4f" stroke="#da2d4f" stroke-width="2" points="212.23,-291.64 218.52,-283.11 208.28,-285.86 212.23,-291.64"/>
</g>
<!-- node1540&#45;&gt;node1536 -->
<g id="edge15" class="edge">
<title>node1540&#45;&gt;node1536</title>
<path fill="none" stroke="#da2d4f" stroke-width="2" d="M243.58,-319.81C243.58,-311.79 243.58,-302.05 243.58,-293.07"/>
<polygon fill="#da2d4f" stroke="#da2d4f" stroke-width="2" points="247.08,-293.03 243.58,-283.03 240.08,-293.03 247.08,-293.03"/>
</g>
<!-- node1625 -->
<g id="node14" class="node">
<title>node1625</title>
<polygon fill="#e98693" stroke="black" points="313.08,-36 222.08,-36 222.08,0 313.08,0 313.08,-36"/>
<text text-anchor="middle" x="267.58" y="-14.3" font-family="Arial" font-size="14.00" fill="#1a1919">1625 Return</text>
</g>
<!-- node1664&#45;&gt;node1669 -->
<g id="edge21" class="edge">
<title>node1664&#45;&gt;node1669</title>
<path fill="none" stroke="#3cb4a4" d="M303.48,-173.8C297.13,-161.82 288.56,-145.62 281.38,-132.06"/>
<polygon fill="#3cb4a4" stroke="#3cb4a4" points="284.45,-130.38 276.68,-123.18 278.26,-133.65 284.45,-130.38"/>
<text text-anchor="middle" x="309.08" y="-144.8" font-family="arial" font-size="14.00" fill="#3cb4a4">value</text>
</g>
<!-- node1669&#45;&gt;node1625 -->
<g id="edge17" class="edge">
<title>node1669&#45;&gt;node1625</title>
<path fill="none" stroke="#3cb4a4" d="M252.84,-86.88C246.48,-77.44 241.19,-65.35 244.58,-54 245.49,-50.96 246.76,-47.95 248.23,-45.03"/>
<polygon fill="#3cb4a4" stroke="#3cb4a4" points="251.4,-46.55 253.48,-36.16 245.38,-42.98 251.4,-46.55"/>
<text text-anchor="middle" x="261.58" y="-57.8" font-family="arial" font-size="14.00" fill="#3cb4a4">result</text>
</g>
<!-- node1669&#45;&gt;node1625 -->
<g id="edge22" class="edge">
<title>node1669&#45;&gt;node1625</title>
<path fill="none" stroke="#da2d4f" stroke-width="2" d="M274.13,-86.8C275.95,-81.21 277.68,-74.92 278.58,-69 279.75,-61.39 278.87,-53.2 277.19,-45.71"/>
<polygon fill="#da2d4f" stroke="#da2d4f" stroke-width="2" points="280.55,-44.74 274.53,-36.02 273.81,-46.59 280.55,-44.74"/>
</g>
<!-- node1670&#45;&gt;node538 -->
<g id="edge29" class="edge">
<title>node1670&#45;&gt;node538</title>
<path fill="none" stroke="#da2d4f" stroke-width="2" d="M108.56,-888.86C118.05,-877.99 130.49,-863.75 141.03,-851.67"/>
<polygon fill="#da2d4f" stroke="#da2d4f" stroke-width="2" points="143.7,-853.94 147.64,-844.11 138.43,-849.34 143.7,-853.94"/>
</g>
<!-- inline5x1080 -->
<g id="node18" class="node">
<title>inline5x1080</title>
<ellipse fill="#d7ede7" stroke="black" cx="61.58" cy="-826" rx="27" ry="18"/>
<text text-anchor="middle" x="61.58" y="-824.1" font-family="Arial" font-size="8.00" fill="#1a1919">5 C(0)</text>
</g>
<!-- inline5x1080&#45;&gt;node1080 -->
<g id="edge7" class="edge">
<title>inline5x1080&#45;&gt;node1080</title>
<path fill="none" stroke="#3cb4a4" d="M61.58,-807.8C61.58,-793.05 61.58,-771.92 61.58,-757.18"/>
<text text-anchor="middle" x="63.58" y="-780.6" font-family="arial" font-size="8.00" fill="#3cb4a4">y</text>
</g>
<!-- inline161x538 -->
<g id="node19" class="node">
<title>inline161x538</title>
<ellipse fill="#d7ede7" stroke="black" cx="195.58" cy="-907" rx="27.46" ry="18"/>
<text text-anchor="middle" x="195.58" y="-905.1" font-family="Arial" font-size="8.00" fill="#1a1919">161 T(7)</text>
</g>
<!-- inline161x538&#45;&gt;node538 -->
<g id="edge24" class="edge">
<title>inline161x538&#45;&gt;node538</title>
<path fill="none" stroke="#3cb4a4" d="M188.59,-889.25C183.02,-875.93 175.27,-857.38 169.69,-844"/>
<text text-anchor="middle" x="189.08" y="-864.6" font-family="arial" font-size="8.00" fill="#3cb4a4">value</text>
</g>
<!-- inline179x697 -->
<g id="node20" class="node">
<title>inline179x697</title>
<ellipse fill="#d7ede7" stroke="black" cx="258.58" cy="-826" rx="27.46" ry="18"/>
<text text-anchor="middle" x="258.58" y="-824.1" font-family="Arial" font-size="8.00" fill="#1a1919">179 T(8)</text>
</g>
<!-- inline179x697&#45;&gt;node697 -->
<g id="edge25" class="edge">
<title>inline179x697&#45;&gt;node697</title>
<path fill="none" stroke="#3cb4a4" d="M258.58,-807.8C258.58,-793.05 258.58,-771.92 258.58,-757.18"/>
<text text-anchor="middle" x="268.08" y="-780.6" font-family="arial" font-size="8.00" fill="#3cb4a4">value</text>
</g>
<!-- inline197x852 -->
<g id="node21" class="node">
<title>inline197x852</title>
<ellipse fill="#d7ede7" stroke="black" cx="172.58" cy="-739" rx="27.46" ry="18"/>
<text text-anchor="middle" x="172.58" y="-737.1" font-family="Arial" font-size="8.00" fill="#1a1919">197 T(9)</text>
</g>
<!-- inline197x852&#45;&gt;node852 -->
<g id="edge26" class="edge">
<title>inline197x852&#45;&gt;node852</title>
<path fill="none" stroke="#3cb4a4" d="M187.96,-723.88C202.55,-710.47 224.5,-690.31 240.05,-676.02"/>
<text text-anchor="middle" x="227.08" y="-696.6" font-family="arial" font-size="8.00" fill="#3cb4a4">value</text>
</g>
<!-- inline2x1670 -->
<g id="node22" class="node">
<title>inline2x1670</title>
<ellipse fill="#d7ede7" stroke="black" cx="130.58" cy="-988" rx="27" ry="18"/>
<text text-anchor="middle" x="130.58" y="-986.1" font-family="Arial" font-size="8.00" fill="#1a1919">2 P(1)</text>
</g>
<!-- inline2x1670&#45;&gt;node1670 -->
<g id="edge27" class="edge">
<title>inline2x1670&#45;&gt;node1670</title>
<path fill="none" stroke="#3cb4a4" d="M122.92,-970.63C116.69,-957.34 107.95,-938.67 101.62,-925.17"/>
<text text-anchor="middle" x="122.08" y="-945.6" font-family="arial" font-size="8.00" fill="#3cb4a4">array</text>
</g>
</g>
</svg>
