<?xml version="1.0" encoding="UTF-8" standalone="no"?>
<!DOCTYPE svg PUBLIC "-//W3C//DTD SVG 1.1//EN"
 "http://www.w3.org/Graphics/SVG/1.1/DTD/svg11.dtd">
<!-- Generated by graphviz version 2.44.1 (20200629.0846)
 -->
<!-- Title: G Pages: 1 -->
<svg width="365pt" height="635pt"
 viewBox="0.00 0.00 364.73 635.00" xmlns="http://www.w3.org/2000/svg" xmlns:xlink="http://www.w3.org/1999/xlink">
<g id="graph0" class="graph" transform="scale(1 1) rotate(0) translate(4 631)">
<title>G</title>
<!-- node0 -->
<g id="node1" class="node">
<title>node0</title>
<polygon fill="#e98693" stroke="black" points="219.5,-627 163.5,-627 163.5,-591 219.5,-591 219.5,-627"/>
<text text-anchor="middle" x="191.5" y="-605.3" font-family="Arial" font-size="14.00" fill="#1a1919">0 Start</text>
</g>
<!-- node1081 -->
<g id="node8" class="node">
<title>node1081</title>
<polygon fill="#da2d4f" stroke="black" points="284,-546 171,-546 171,-510 284,-510 284,-546"/>
<text text-anchor="middle" x="227.5" y="-524.3" font-family="Arial" font-size="14.00" fill="#ffffff">1081 Load T(...)</text>
</g>
<!-- node0&#45;&gt;node1081 -->
<g id="edge14" class="edge">
<title>node0&#45;&gt;node1081</title>
<path fill="none" stroke="#da2d4f" stroke-width="2" d="M199.31,-590.86C204.03,-580.51 210.14,-567.1 215.46,-555.41"/>
<polygon fill="#da2d4f" stroke="#da2d4f" stroke-width="2" points="218.74,-556.66 219.7,-546.11 212.37,-553.76 218.74,-556.66"/>
</g>
<!-- node549 -->
<g id="node2" class="node">
<title>node549</title>
<polygon fill="#f9f9f9" stroke="black" points="337.5,-465 255.5,-465 255.5,-429 337.5,-429 337.5,-465"/>
<text text-anchor="middle" x="296.5" y="-443.3" font-family="Arial" font-size="14.00" fill="#1a1919">549 Unbox</text>
</g>
<!-- node704 -->
<g id="node3" class="node">
<title>node704</title>
<polygon fill="#f9f9f9" stroke="black" points="255.5,-384 173.5,-384 173.5,-348 255.5,-348 255.5,-384"/>
<text text-anchor="middle" x="214.5" y="-362.3" font-family="Arial" font-size="14.00" fill="#1a1919">704 Unbox</text>
</g>
<!-- node549&#45;&gt;node704 -->
<g id="edge1" class="edge">
<title>node549&#45;&gt;node704</title>
<path fill="none" stroke="#da2d4f" stroke-width="2" d="M278.71,-428.86C267.32,-417.88 252.36,-403.48 239.75,-391.33"/>
<polygon fill="#da2d4f" stroke="#da2d4f" stroke-width="2" points="241.89,-388.53 232.26,-384.11 237.03,-393.57 241.89,-388.53"/>
</g>
<!-- node1027 -->
<g id="node4" class="node">
<title>node1027</title>
<polygon fill="#3cb4a4" stroke="black" points="296.5,-297 242.04,-279 296.5,-261 350.96,-279 296.5,-297"/>
<text text-anchor="middle" x="296.5" y="-275.3" font-family="Arial" font-size="14.00" fill="#1a1919">1027 &lt;</text>
</g>
<!-- node549&#45;&gt;node1027 -->
<g id="edge4" class="edge">
<title>node549&#45;&gt;node1027</title>
<path fill="none" stroke="#3cb4a4" d="M296.5,-428.86C296.5,-400.16 296.5,-342.13 296.5,-307.61"/>
<polygon fill="#3cb4a4" stroke="#3cb4a4" points="300,-307.3 296.5,-297.3 293,-307.3 300,-307.3"/>
<text text-anchor="middle" x="300" y="-362.3" font-family="arial" font-size="14.00" fill="#3cb4a4">y</text>
</g>
<!-- node704&#45;&gt;node1027 -->
<g id="edge3" class="edge">
<title>node704&#45;&gt;node1027</title>
<path fill="none" stroke="#3cb4a4" d="M231.09,-347.8C244.28,-334.13 262.77,-314.97 276.72,-300.5"/>
<polygon fill="#3cb4a4" stroke="#3cb4a4" points="279.52,-302.64 283.95,-293.01 274.49,-297.78 279.52,-302.64"/>
<text text-anchor="middle" x="263" y="-318.8" font-family="arial" font-size="14.00" fill="#3cb4a4">x</text>
</g>
<!-- node1080 -->
<g id="node7" class="node">
<title>node1080</title>
<polygon fill="#f9f9f9" stroke="black" points="165,-123 0,-123 0,-87 165,-87 165,-123"/>
<text text-anchor="middle" x="82.5" y="-101.3" font-family="Arial" font-size="14.00" fill="#1a1919">1080 BoxNode$PureBox</text>
</g>
<!-- node704&#45;&gt;node1080 -->
<g id="edge2" class="edge">
<title>node704&#45;&gt;node1080</title>
<path fill="none" stroke="#da2d4f" stroke-width="2" d="M173.29,-354.25C144.54,-344.41 108.11,-326.74 89.5,-297 57.81,-246.37 67.22,-172.51 75.61,-133.12"/>
<polygon fill="#da2d4f" stroke="#da2d4f" stroke-width="2" points="79.06,-133.73 77.85,-123.2 72.23,-132.18 79.06,-133.73"/>
</g>
<!-- node1028 -->
<g id="node5" class="node">
<title>node1028</title>
<polygon fill="#3cb4a4" stroke="black" points="202.5,-210 94.08,-192 202.5,-174 310.92,-192 202.5,-210"/>
<text text-anchor="middle" x="202.5" y="-188.3" font-family="Arial" font-size="14.00" fill="#1a1919">1028 Conditional</text>
</g>
<!-- node1027&#45;&gt;node1028 -->
<g id="edge5" class="edge">
<title>node1027&#45;&gt;node1028</title>
<path fill="none" stroke="#3cb4a4" d="M282.51,-265.23C271.4,-255.12 255.48,-240.63 241.5,-228 236.63,-223.6 231.4,-218.9 226.41,-214.41"/>
<polygon fill="#3cb4a4" stroke="#3cb4a4" points="228.62,-211.69 218.84,-207.62 223.95,-216.91 228.62,-211.69"/>
<text text-anchor="middle" x="260.5" y="-231.8" font-family="arial" font-size="14.00" fill="#3cb4a4">?</text>
</g>
<!-- node1028&#45;&gt;node1080 -->
<g id="edge9" class="edge">
<title>node1028&#45;&gt;node1080</title>
<path fill="none" stroke="#3cb4a4" d="M182.95,-177.15C164.54,-164.11 136.62,-144.34 114.89,-128.94"/>
<polygon fill="#3cb4a4" stroke="#3cb4a4" points="116.78,-125.99 106.59,-123.07 112.73,-131.7 116.78,-125.99"/>
<text text-anchor="middle" x="186" y="-144.8" font-family="arial" font-size="14.00" fill="#3cb4a4">value [0 &#45; 1]</text>
</g>
<!-- node1057 -->
<g id="node6" class="node">
<title>node1057</title>
<polygon fill="#e98693" stroke="black" points="128,-36 37,-36 37,0 128,0 128,-36"/>
<text text-anchor="middle" x="82.5" y="-14.3" font-family="Arial" font-size="14.00" fill="#1a1919">1057 Return</text>
</g>
<!-- node1080&#45;&gt;node1057 -->
<g id="edge8" class="edge">
<title>node1080&#45;&gt;node1057</title>
<path fill="none" stroke="#3cb4a4" d="M68.4,-86.84C64.78,-81.46 61.38,-75.27 59.5,-69 57.09,-60.93 59.06,-52.49 62.69,-44.89"/>
<polygon fill="#3cb4a4" stroke="#3cb4a4" points="65.79,-46.53 67.75,-36.12 59.72,-43.03 65.79,-46.53"/>
<text text-anchor="middle" x="76.5" y="-57.8" font-family="arial" font-size="14.00" fill="#3cb4a4">result</text>
</g>
<!-- node1080&#45;&gt;node1057 -->
<g id="edge10" class="edge">
<title>node1080&#45;&gt;node1057</title>
<path fill="none" stroke="#da2d4f" stroke-width="2" d="M89.44,-86.98C92.56,-77.35 95.2,-65.07 93.5,-54 93.09,-51.32 92.51,-48.56 91.83,-45.83"/>
<polygon fill="#da2d4f" stroke="#da2d4f" stroke-width="2" points="95.19,-44.83 89.05,-36.2 88.46,-46.78 95.19,-44.83"/>
</g>
<!-- node1081&#45;&gt;node549 -->
<g id="edge15" class="edge">
<title>node1081&#45;&gt;node549</title>
<path fill="none" stroke="#da2d4f" stroke-width="2" d="M242.47,-509.86C251.97,-498.99 264.4,-484.75 274.95,-472.67"/>
<polygon fill="#da2d4f" stroke="#da2d4f" stroke-width="2" points="277.62,-474.94 281.56,-465.11 272.34,-470.34 277.62,-474.94"/>
</g>
<!-- inline5x1028 -->
<g id="node9" class="node">
<title>inline5x1028</title>
<ellipse fill="#d7ede7" stroke="black" cx="125.5" cy="-279" rx="27" ry="18"/>
<text text-anchor="middle" x="125.5" y="-277.1" font-family="Arial" font-size="8.00" fill="#1a1919">5 C(0)</text>
</g>
<!-- inline5x1028&#45;&gt;node1028 -->
<g id="edge6" class="edge">
<title>inline5x1028&#45;&gt;node1028</title>
<path fill="none" stroke="#3cb4a4" d="M136.02,-262.01C143.02,-251.84 152.69,-238.64 162.5,-228 169.25,-220.67 177.43,-213.3 184.62,-207.22"/>
<text text-anchor="middle" x="179.5" y="-233.6" font-family="arial" font-size="8.00" fill="#3cb4a4">trueValue</text>
</g>
<!-- inline23x1028 -->
<g id="node10" class="node">
<title>inline23x1028</title>
<ellipse fill="#d7ede7" stroke="black" cx="197.5" cy="-279" rx="27" ry="18"/>
<text text-anchor="middle" x="197.5" y="-277.1" font-family="Arial" font-size="8.00" fill="#1a1919">23 C(1)</text>
</g>
<!-- inline23x1028&#45;&gt;node1028 -->
<g id="edge7" class="edge">
<title>inline23x1028&#45;&gt;node1028</title>
<path fill="none" stroke="#3cb4a4" d="M198.51,-260.8C199.39,-245.95 200.64,-224.64 201.51,-209.89"/>
<text text-anchor="middle" x="219" y="-233.6" font-family="arial" font-size="8.00" fill="#3cb4a4">falseValue</text>
</g>
<!-- inline161x549 -->
<g id="node11" class="node">
<title>inline161x549</title>
<ellipse fill="#d7ede7" stroke="black" cx="329.5" cy="-528" rx="27.46" ry="18"/>
<text text-anchor="middle" x="329.5" y="-526.1" font-family="Arial" font-size="8.00" fill="#1a1919">161 T(7)</text>
</g>
<!-- inline161x549&#45;&gt;node549 -->
<g id="edge11" class="edge">
<title>inline161x549&#45;&gt;node549</title>
<path fill="none" stroke="#3cb4a4" d="M322.5,-510.25C316.94,-496.93 309.19,-478.38 303.6,-465"/>
<text text-anchor="middle" x="323" y="-485.6" font-family="arial" font-size="8.00" fill="#3cb4a4">value</text>
</g>
<!-- inline179x704 -->
<g id="node12" class="node">
<title>inline179x704</title>
<ellipse fill="#d7ede7" stroke="black" cx="210.5" cy="-447" rx="27.46" ry="18"/>
<text text-anchor="middle" x="210.5" y="-445.1" font-family="Arial" font-size="8.00" fill="#1a1919">179 T(8)</text>
</g>
<!-- inline179x704&#45;&gt;node704 -->
<g id="edge12" class="edge">
<title>inline179x704&#45;&gt;node704</title>
<path fill="none" stroke="#3cb4a4" d="M211.37,-428.86C212.04,-415.61 212.96,-397.35 213.63,-384.11"/>
<text text-anchor="middle" x="223" y="-404.6" font-family="arial" font-size="8.00" fill="#3cb4a4">value</text>
</g>
<!-- inline2x1081 -->
<g id="node13" class="node">
<title>inline2x1081</title>
<ellipse fill="#d7ede7" stroke="black" cx="264.5" cy="-609" rx="27" ry="18"/>
<text text-anchor="middle" x="264.5" y="-607.1" font-family="Arial" font-size="8.00" fill="#1a1919">2 P(1)</text>
</g>
<!-- inline2x1081&#45;&gt;node1081 -->
<g id="edge13" class="edge">
<title>inline2x1081&#45;&gt;node1081</title>
<path fill="none" stroke="#3cb4a4" d="M256.83,-591.63C250.61,-578.34 241.86,-559.67 235.54,-546.17"/>
<text text-anchor="middle" x="256" y="-566.6" font-family="arial" font-size="8.00" fill="#3cb4a4">array</text>
</g>
</g>
</svg>
