<?xml version="1.0" encoding="UTF-8" standalone="no"?>
<!DOCTYPE svg PUBLIC "-//W3C//DTD SVG 1.1//EN"
 "http://www.w3.org/Graphics/SVG/1.1/DTD/svg11.dtd">
<!-- Generated by graphviz version 2.44.1 (20200629.0846)
 -->
<!-- Title: G Pages: 1 -->
<svg width="371pt" height="467pt"
 viewBox="0.00 0.00 371.00 467.00" xmlns="http://www.w3.org/2000/svg" xmlns:xlink="http://www.w3.org/1999/xlink">
<g id="graph0" class="graph" transform="scale(1 1) rotate(0) translate(4 463)">
<title>G</title>
<!-- node0 -->
<g id="node1" class="node">
<title>node0</title>
<polygon fill="#e98693" stroke="black" points="291,-459 235,-459 235,-423 291,-423 291,-459"/>
<text text-anchor="middle" x="263" y="-437.3" font-family="Arial" font-size="14.00" fill="#1a1919">0 Start</text>
</g>
<!-- node952 -->
<g id="node8" class="node">
<title>node952</title>
<polygon fill="#da2d4f" stroke="black" points="352.5,-378 247.5,-378 247.5,-342 352.5,-342 352.5,-378"/>
<text text-anchor="middle" x="300" y="-356.3" font-family="Arial" font-size="14.00" fill="#ffffff">952 Load T(...)</text>
</g>
<!-- node0&#45;&gt;node952 -->
<g id="edge12" class="edge">
<title>node0&#45;&gt;node952</title>
<path fill="none" stroke="#da2d4f" stroke-width="2" d="M271.03,-422.86C275.88,-412.51 282.16,-399.1 287.63,-387.41"/>
<polygon fill="#da2d4f" stroke="#da2d4f" stroke-width="2" points="290.92,-388.65 291.99,-378.11 284.58,-385.68 290.92,-388.65"/>
</g>
<!-- node528 -->
<g id="node2" class="node">
<title>node528</title>
<polygon fill="#f9f9f9" stroke="black" points="266,-297 184,-297 184,-261 266,-261 266,-297"/>
<text text-anchor="middle" x="225" y="-275.3" font-family="Arial" font-size="14.00" fill="#1a1919">528 Unbox</text>
</g>
<!-- node904 -->
<g id="node4" class="node">
<title>node904</title>
<polygon fill="#3cb4a4" stroke="black" points="310,-210 262.41,-192 310,-174 357.59,-192 310,-210"/>
<text text-anchor="middle" x="310" y="-188.3" font-family="Arial" font-size="14.00" fill="#1a1919">904 &amp;</text>
</g>
<!-- node528&#45;&gt;node904 -->
<g id="edge2" class="edge">
<title>node528&#45;&gt;node904</title>
<path fill="none" stroke="#3cb4a4" d="M242.2,-260.8C256.16,-246.84 275.85,-227.15 290.42,-212.58"/>
<polygon fill="#3cb4a4" stroke="#3cb4a4" points="292.92,-215.03 297.51,-205.49 287.97,-210.08 292.92,-215.03"/>
<text text-anchor="middle" x="276.5" y="-231.8" font-family="arial" font-size="14.00" fill="#3cb4a4">x</text>
</g>
<!-- node938 -->
<g id="node6" class="node">
<title>node938</title>
<polygon fill="#ffa500" stroke="black" points="244,-210 0,-210 0,-174 244,-174 244,-210"/>
<text text-anchor="middle" x="122" y="-188.3" font-family="Arial" font-size="14.00" fill="#1a1919">938 Guard, else TransferToInterpreter</text>
</g>
<!-- node528&#45;&gt;node938 -->
<g id="edge1" class="edge">
<title>node528&#45;&gt;node938</title>
<path fill="none" stroke="#da2d4f" stroke-width="2" d="M204.16,-260.8C188.8,-248.13 167.72,-230.73 150.76,-216.74"/>
<polygon fill="#da2d4f" stroke="#da2d4f" stroke-width="2" points="152.75,-213.84 142.81,-210.18 148.3,-219.24 152.75,-213.84"/>
</g>
<!-- node603 -->
<g id="node3" class="node">
<title>node603</title>
<polygon fill="#3cb4a4" stroke="black" points="95,-297 24.45,-279 95,-261 165.55,-279 95,-297"/>
<text text-anchor="middle" x="95" y="-275.3" font-family="Arial" font-size="14.00" fill="#1a1919">603 IsNull</text>
</g>
<!-- node603&#45;&gt;node938 -->
<g id="edge5" class="edge">
<title>node603&#45;&gt;node938</title>
<path fill="none" stroke="#3cb4a4" d="M100.08,-262.01C103.86,-250.09 109.12,-233.54 113.54,-219.64"/>
<polygon fill="#3cb4a4" stroke="#3cb4a4" points="116.88,-220.67 116.57,-210.08 110.21,-218.55 116.88,-220.67"/>
<text text-anchor="middle" x="115" y="-231.8" font-family="arial" font-size="14.00" fill="#3cb4a4">?</text>
</g>
<!-- node951 -->
<g id="node7" class="node">
<title>node951</title>
<polygon fill="#f9f9f9" stroke="black" points="309,-123 121,-123 121,-87 309,-87 309,-123"/>
<text text-anchor="middle" x="215" y="-101.3" font-family="Arial" font-size="14.00" fill="#1a1919">951 BoxNode$AllocatingBox</text>
</g>
<!-- node904&#45;&gt;node951 -->
<g id="edge7" class="edge">
<title>node904&#45;&gt;node951</title>
<path fill="none" stroke="#3cb4a4" d="M296.39,-178.82C282.24,-166.16 259.72,-146.01 241.95,-130.12"/>
<polygon fill="#3cb4a4" stroke="#3cb4a4" points="243.96,-127.21 234.17,-123.15 239.29,-132.43 243.96,-127.21"/>
<text text-anchor="middle" x="316" y="-144.8" font-family="arial" font-size="14.00" fill="#3cb4a4">value [0 &#45; 4660]</text>
</g>
<!-- node933 -->
<g id="node5" class="node">
<title>node933</title>
<polygon fill="#e98693" stroke="black" points="256.5,-36 173.5,-36 173.5,0 256.5,0 256.5,-36"/>
<text text-anchor="middle" x="215" y="-14.3" font-family="Arial" font-size="14.00" fill="#1a1919">933 Return</text>
</g>
<!-- node938&#45;&gt;node951 -->
<g id="edge6" class="edge">
<title>node938&#45;&gt;node951</title>
<path fill="none" stroke="#da2d4f" stroke-width="2" d="M140.82,-173.8C154.56,-161.24 173.37,-144.05 188.61,-130.12"/>
<polygon fill="#da2d4f" stroke="#da2d4f" stroke-width="2" points="191.19,-132.51 196.21,-123.18 186.47,-127.34 191.19,-132.51"/>
</g>
<!-- node951&#45;&gt;node933 -->
<g id="edge4" class="edge">
<title>node951&#45;&gt;node933</title>
<path fill="none" stroke="#3cb4a4" d="M200.9,-86.84C197.28,-81.46 193.88,-75.27 192,-69 189.59,-60.93 191.56,-52.49 195.19,-44.89"/>
<polygon fill="#3cb4a4" stroke="#3cb4a4" points="198.29,-46.53 200.25,-36.12 192.22,-43.03 198.29,-46.53"/>
<text text-anchor="middle" x="209" y="-57.8" font-family="arial" font-size="14.00" fill="#3cb4a4">result</text>
</g>
<!-- node951&#45;&gt;node933 -->
<g id="edge8" class="edge">
<title>node951&#45;&gt;node933</title>
<path fill="none" stroke="#da2d4f" stroke-width="2" d="M221.94,-86.98C225.06,-77.35 227.7,-65.07 226,-54 225.59,-51.32 225.01,-48.56 224.33,-45.83"/>
<polygon fill="#da2d4f" stroke="#da2d4f" stroke-width="2" points="227.69,-44.83 221.55,-36.2 220.96,-46.78 227.69,-44.83"/>
</g>
<!-- node952&#45;&gt;node528 -->
<g id="edge13" class="edge">
<title>node952&#45;&gt;node528</title>
<path fill="none" stroke="#da2d4f" stroke-width="2" d="M283.73,-341.86C273.41,-330.99 259.89,-316.75 248.43,-304.67"/>
<polygon fill="#da2d4f" stroke="#da2d4f" stroke-width="2" points="250.67,-301.95 241.24,-297.11 245.59,-306.77 250.67,-301.95"/>
</g>
<!-- inline734x904 -->
<g id="node9" class="node">
<title>inline734x904</title>
<ellipse fill="#d7ede7" stroke="black" cx="319" cy="-279" rx="35.34" ry="18"/>
<text text-anchor="middle" x="319" y="-277.1" font-family="Arial" font-size="8.00" fill="#1a1919">734 C(4660)</text>
</g>
<!-- inline734x904&#45;&gt;node904 -->
<g id="edge3" class="edge">
<title>inline734x904&#45;&gt;node904</title>
<path fill="none" stroke="#3cb4a4" d="M317.18,-260.8C315.6,-245.86 313.32,-224.36 311.76,-209.6"/>
<text text-anchor="middle" x="318" y="-233.6" font-family="arial" font-size="8.00" fill="#3cb4a4">y</text>
</g>
<!-- inline143x603 -->
<g id="node10" class="node">
<title>inline143x603</title>
<ellipse fill="#d7ede7" stroke="black" cx="95" cy="-360" rx="27.46" ry="18"/>
<text text-anchor="middle" x="95" y="-358.1" font-family="Arial" font-size="8.00" fill="#1a1919">143 T(6)</text>
</g>
<!-- inline143x603&#45;&gt;node603 -->
<g id="edge9" class="edge">
<title>inline143x603&#45;&gt;node603</title>
<path fill="none" stroke="#3cb4a4" d="M95,-341.86C95,-328.61 95,-310.35 95,-297.11"/>
<text text-anchor="middle" x="104.5" y="-317.6" font-family="arial" font-size="8.00" fill="#3cb4a4">value</text>
</g>
<!-- inline158x528 -->
<g id="node11" class="node">
<title>inline158x528</title>
<ellipse fill="#d7ede7" stroke="black" cx="202" cy="-360" rx="27.46" ry="18"/>
<text text-anchor="middle" x="202" y="-358.1" font-family="Arial" font-size="8.00" fill="#1a1919">158 T(7)</text>
</g>
<!-- inline158x528&#45;&gt;node528 -->
<g id="edge10" class="edge">
<title>inline158x528&#45;&gt;node528</title>
<path fill="none" stroke="#3cb4a4" d="M206.88,-342.25C210.75,-328.93 216.15,-310.38 220.05,-297"/>
<text text-anchor="middle" x="224.5" y="-317.6" font-family="arial" font-size="8.00" fill="#3cb4a4">value</text>
</g>
<!-- inline2x952 -->
<g id="node12" class="node">
<title>inline2x952</title>
<ellipse fill="#d7ede7" stroke="black" cx="336" cy="-441" rx="27" ry="18"/>
<text text-anchor="middle" x="336" y="-439.1" font-family="Arial" font-size="8.00" fill="#1a1919">2 P(1)</text>
</g>
<!-- inline2x952&#45;&gt;node952 -->
<g id="edge11" class="edge">
<title>inline2x952&#45;&gt;node952</title>
<path fill="none" stroke="#3cb4a4" d="M328.54,-423.63C322.49,-410.34 313.97,-391.67 307.82,-378.17"/>
<text text-anchor="middle" x="329.5" y="-398.6" font-family="arial" font-size="8.00" fill="#3cb4a4">array</text>
</g>
</g>
</svg>
