<?xml version="1.0" encoding="UTF-8" standalone="no"?>
<!DOCTYPE svg PUBLIC "-//W3C//DTD SVG 1.1//EN"
 "http://www.w3.org/Graphics/SVG/1.1/DTD/svg11.dtd">
<!-- Generated by graphviz version 2.44.1 (20200629.0846)
 -->
<!-- Title: G Pages: 1 -->
<svg width="957pt" height="795pt"
 viewBox="0.00 0.00 956.73 795.00" xmlns="http://www.w3.org/2000/svg" xmlns:xlink="http://www.w3.org/1999/xlink">
<g id="graph0" class="graph" transform="scale(1 1) rotate(0) translate(4 791)">
<title>G</title>
<!-- node0 -->
<g id="node1" class="node">
<title>node0</title>
<polygon fill="#e98693" stroke="black" points="651.78,-787 595.78,-787 595.78,-751 651.78,-751 651.78,-787"/>
<text text-anchor="middle" x="623.78" y="-765.3" font-family="Arial" font-size="14.00" fill="#1a1919">0 Start</text>
</g>
<!-- node1203 -->
<g id="node13" class="node">
<title>node1203</title>
<polygon fill="#da2d4f" stroke="black" points="716.28,-706 603.28,-706 603.28,-670 716.28,-670 716.28,-706"/>
<text text-anchor="middle" x="659.78" y="-684.3" font-family="Arial" font-size="14.00" fill="#ffffff">1203 Load T(...)</text>
</g>
<!-- node0&#45;&gt;node1203 -->
<g id="edge22" class="edge">
<title>node0&#45;&gt;node1203</title>
<path fill="none" stroke="#da2d4f" stroke-width="2" d="M631.59,-750.86C636.3,-740.51 642.41,-727.1 647.74,-715.41"/>
<polygon fill="#da2d4f" stroke="#da2d4f" stroke-width="2" points="651.02,-716.66 651.98,-706.11 644.65,-713.76 651.02,-716.66"/>
</g>
<!-- node562 -->
<g id="node2" class="node">
<title>node562</title>
<polygon fill="#f9f9f9" stroke="black" points="768.78,-625 686.78,-625 686.78,-589 768.78,-589 768.78,-625"/>
<text text-anchor="middle" x="727.78" y="-603.3" font-family="Arial" font-size="14.00" fill="#1a1919">562 Unbox</text>
</g>
<!-- node717 -->
<g id="node3" class="node">
<title>node717</title>
<polygon fill="#f9f9f9" stroke="black" points="768.78,-544 686.78,-544 686.78,-508 768.78,-508 768.78,-544"/>
<text text-anchor="middle" x="727.78" y="-522.3" font-family="Arial" font-size="14.00" fill="#1a1919">717 Unbox</text>
</g>
<!-- node562&#45;&gt;node717 -->
<g id="edge1" class="edge">
<title>node562&#45;&gt;node717</title>
<path fill="none" stroke="#da2d4f" stroke-width="2" d="M727.78,-588.86C727.78,-578.71 727.78,-565.63 727.78,-554.12"/>
<polygon fill="#da2d4f" stroke="#da2d4f" stroke-width="2" points="731.28,-554.11 727.78,-544.11 724.28,-554.11 731.28,-554.11"/>
</g>
<!-- node1148 -->
<g id="node8" class="node">
<title>node1148</title>
<polygon fill="#3cb4a4" stroke="black" points="602.78,-457 416.1,-439 602.78,-421 789.45,-439 602.78,-457"/>
<text text-anchor="middle" x="602.78" y="-435.3" font-family="Arial" font-size="14.00" fill="#1a1919">1148 IntegerAddExactOverflow</text>
</g>
<!-- node562&#45;&gt;node1148 -->
<g id="edge7" class="edge">
<title>node562&#45;&gt;node1148</title>
<path fill="none" stroke="#3cb4a4" d="M710.51,-588.78C698.76,-576.7 683.17,-559.92 670.78,-544 650.72,-518.23 630.61,-486.57 617.52,-465"/>
<polygon fill="#3cb4a4" stroke="#3cb4a4" points="620.51,-463.19 612.36,-456.42 614.51,-466.79 620.51,-463.19"/>
<text text-anchor="middle" x="674.28" y="-522.3" font-family="arial" font-size="14.00" fill="#3cb4a4">x</text>
</g>
<!-- node1150 -->
<g id="node9" class="node">
<title>node1150</title>
<polygon fill="#3cb4a4" stroke="black" points="811.78,-210 674.87,-192 811.78,-174 948.68,-192 811.78,-210"/>
<text text-anchor="middle" x="811.78" y="-188.3" font-family="Arial" font-size="14.00" fill="#1a1919">1150 IntegerAddExact</text>
</g>
<!-- node562&#45;&gt;node1150 -->
<g id="edge9" class="edge">
<title>node562&#45;&gt;node1150</title>
<path fill="none" stroke="#3cb4a4" d="M768.98,-598.45C806.4,-588.94 855.78,-568.52 855.78,-527 855.78,-527 855.78,-527 855.78,-278 855.78,-255.43 843.39,-232.88 831.76,-216.68"/>
<polygon fill="#3cb4a4" stroke="#3cb4a4" points="834.29,-214.23 825.46,-208.38 828.71,-218.46 834.29,-214.23"/>
<text text-anchor="middle" x="859.28" y="-391.8" font-family="arial" font-size="14.00" fill="#3cb4a4">x</text>
</g>
<!-- node787 -->
<g id="node4" class="node">
<title>node787</title>
<polygon fill="#ffa500" stroke="black" points="397.78,-457 159.78,-457 159.78,-421 397.78,-421 397.78,-457"/>
<text text-anchor="middle" x="278.78" y="-435.3" font-family="Arial" font-size="14.00" fill="#1a1919">787 Guard, else ClassCastException</text>
</g>
<!-- node717&#45;&gt;node787 -->
<g id="edge2" class="edge">
<title>node717&#45;&gt;node787</title>
<path fill="none" stroke="#da2d4f" stroke-width="2" d="M686.74,-517.23C617.53,-504.13 475.7,-477.28 378.92,-458.96"/>
<polygon fill="#da2d4f" stroke="#da2d4f" stroke-width="2" points="379.29,-455.47 368.82,-457.05 377.99,-462.34 379.29,-455.47"/>
</g>
<!-- node717&#45;&gt;node1148 -->
<g id="edge8" class="edge">
<title>node717&#45;&gt;node1148</title>
<path fill="none" stroke="#3cb4a4" d="M715.5,-508C707.2,-497.43 695.46,-484.16 682.78,-475 673.27,-468.14 662.2,-462.23 651.39,-457.32"/>
<polygon fill="#3cb4a4" stroke="#3cb4a4" points="652.57,-454.02 642,-453.27 649.79,-460.44 652.57,-454.02"/>
<text text-anchor="middle" x="702.28" y="-478.8" font-family="arial" font-size="14.00" fill="#3cb4a4">y</text>
</g>
<!-- node717&#45;&gt;node1150 -->
<g id="edge10" class="edge">
<title>node717&#45;&gt;node1150</title>
<path fill="none" stroke="#3cb4a4" d="M764.9,-507.9C789.69,-493.65 817.78,-470.73 817.78,-440 817.78,-440 817.78,-440 817.78,-278 817.78,-258.58 816.2,-236.73 814.66,-220.05"/>
<polygon fill="#3cb4a4" stroke="#3cb4a4" points="818.13,-219.52 813.67,-209.91 811.16,-220.2 818.13,-219.52"/>
<text text-anchor="middle" x="821.28" y="-348.3" font-family="arial" font-size="14.00" fill="#3cb4a4">y</text>
</g>
<!-- node1186 -->
<g id="node11" class="node">
<title>node1186</title>
<polygon fill="#ffa500" stroke="black" points="404.28,-370 153.28,-370 153.28,-334 404.28,-334 404.28,-370"/>
<text text-anchor="middle" x="278.78" y="-348.3" font-family="Arial" font-size="14.00" fill="#1a1919">1186 Guard, else TransferToInterpreter</text>
</g>
<!-- node787&#45;&gt;node1186 -->
<g id="edge4" class="edge">
<title>node787&#45;&gt;node1186</title>
<path fill="none" stroke="#da2d4f" stroke-width="2" d="M278.78,-420.8C278.78,-409.16 278.78,-393.55 278.78,-380.24"/>
<polygon fill="#da2d4f" stroke="#da2d4f" stroke-width="2" points="282.28,-380.18 278.78,-370.18 275.28,-380.18 282.28,-380.18"/>
</g>
<!-- node788 -->
<g id="node5" class="node">
<title>node788</title>
<polygon fill="#f9f9f9" stroke="black" points="438.28,-544 119.28,-544 119.28,-508 438.28,-508 438.28,-544"/>
<text text-anchor="middle" x="278.78" y="-522.3" font-family="Arial" font-size="14.00" fill="#1a1919">788 InstanceOf org/truffleruby/core/proc/RubyProc</text>
</g>
<!-- node788&#45;&gt;node787 -->
<g id="edge3" class="edge">
<title>node788&#45;&gt;node787</title>
<path fill="none" stroke="#3cb4a4" d="M278.78,-507.8C278.78,-496.16 278.78,-480.55 278.78,-467.24"/>
<polygon fill="#3cb4a4" stroke="#3cb4a4" points="282.28,-467.18 278.78,-457.18 275.28,-467.18 282.28,-467.18"/>
<text text-anchor="middle" x="282.78" y="-478.8" font-family="arial" font-size="14.00" fill="#3cb4a4">?</text>
</g>
<!-- node794 -->
<g id="node6" class="node">
<title>node794</title>
<polygon fill="#3cb4a4" stroke="black" points="70.78,-457 0.22,-439 70.78,-421 141.33,-439 70.78,-457"/>
<text text-anchor="middle" x="70.78" y="-435.3" font-family="Arial" font-size="14.00" fill="#1a1919">794 IsNull</text>
</g>
<!-- node794&#45;&gt;node1186 -->
<g id="edge13" class="edge">
<title>node794&#45;&gt;node1186</title>
<path fill="none" stroke="#3cb4a4" d="M96.7,-427.41C129.33,-414.07 186.13,-390.86 227.64,-373.9"/>
<polygon fill="#3cb4a4" stroke="#3cb4a4" points="229.11,-377.08 237.04,-370.06 226.46,-370.6 229.11,-377.08"/>
<text text-anchor="middle" x="191.78" y="-391.8" font-family="arial" font-size="14.00" fill="#3cb4a4">?</text>
</g>
<!-- node1147 -->
<g id="node7" class="node">
<title>node1147</title>
<polygon fill="#ffa500" stroke="black" points="742.78,-297 476.78,-297 476.78,-261 742.78,-261 742.78,-297"/>
<text text-anchor="middle" x="609.78" y="-275.3" font-family="Arial" font-size="14.00" fill="#1a1919">1147 Guard not, else ArithmeticException</text>
</g>
<!-- node1147&#45;&gt;node1150 -->
<g id="edge11" class="edge">
<title>node1147&#45;&gt;node1150</title>
<path fill="none" stroke="#3cb4a4" d="M650.65,-260.8C685.85,-245.99 736.36,-224.73 771.41,-209.99"/>
<polygon fill="#3cb4a4" stroke="#3cb4a4" points="773,-213.12 780.86,-206.01 770.28,-206.66 773,-213.12"/>
<text text-anchor="middle" x="740.28" y="-231.8" font-family="arial" font-size="14.00" fill="#3cb4a4">guard</text>
</g>
<!-- node1202 -->
<g id="node12" class="node">
<title>node1202</title>
<polygon fill="#f9f9f9" stroke="black" points="748.28,-123 553.28,-123 553.28,-87 748.28,-87 748.28,-123"/>
<text text-anchor="middle" x="650.78" y="-101.3" font-family="Arial" font-size="14.00" fill="#1a1919">1202 BoxNode$AllocatingBox</text>
</g>
<!-- node1147&#45;&gt;node1202 -->
<g id="edge6" class="edge">
<title>node1147&#45;&gt;node1202</title>
<path fill="none" stroke="#da2d4f" stroke-width="2" d="M613.86,-260.88C621.01,-230.87 635.86,-168.58 644.38,-132.81"/>
<polygon fill="#da2d4f" stroke="#da2d4f" stroke-width="2" points="647.8,-133.59 646.71,-123.05 640.99,-131.97 647.8,-133.59"/>
</g>
<!-- node1148&#45;&gt;node1147 -->
<g id="edge5" class="edge">
<title>node1148&#45;&gt;node1147</title>
<path fill="none" stroke="#3cb4a4" d="M603.54,-420.79C604.75,-393.48 607.12,-339.99 608.56,-307.38"/>
<polygon fill="#3cb4a4" stroke="#3cb4a4" points="612.07,-307.33 609.01,-297.19 605.07,-307.02 612.07,-307.33"/>
<text text-anchor="middle" x="611.78" y="-348.3" font-family="arial" font-size="14.00" fill="#3cb4a4">?</text>
</g>
<!-- node1150&#45;&gt;node1202 -->
<g id="edge15" class="edge">
<title>node1150&#45;&gt;node1202</title>
<path fill="none" stroke="#3cb4a4" d="M785.91,-177.34C760.61,-163.99 721.69,-143.44 692.11,-127.82"/>
<polygon fill="#3cb4a4" stroke="#3cb4a4" points="693.73,-124.72 683.25,-123.15 690.46,-130.91 693.73,-124.72"/>
<text text-anchor="middle" x="757.28" y="-144.8" font-family="arial" font-size="14.00" fill="#3cb4a4">value</text>
</g>
<!-- node1179 -->
<g id="node10" class="node">
<title>node1179</title>
<polygon fill="#e98693" stroke="black" points="695.78,-36 605.78,-36 605.78,0 695.78,0 695.78,-36"/>
<text text-anchor="middle" x="650.78" y="-14.3" font-family="Arial" font-size="14.00" fill="#1a1919">1179 Return</text>
</g>
<!-- node1186&#45;&gt;node1147 -->
<g id="edge14" class="edge">
<title>node1186&#45;&gt;node1147</title>
<path fill="none" stroke="#da2d4f" stroke-width="2" d="M358.06,-333.99C406.92,-323.51 469.69,-310.05 520.32,-299.19"/>
<polygon fill="#da2d4f" stroke="#da2d4f" stroke-width="2" points="521.24,-302.57 530.28,-297.05 519.77,-295.73 521.24,-302.57"/>
</g>
<!-- node1202&#45;&gt;node1179 -->
<g id="edge12" class="edge">
<title>node1202&#45;&gt;node1179</title>
<path fill="none" stroke="#3cb4a4" d="M636.67,-86.84C633.05,-81.46 629.65,-75.27 627.78,-69 625.36,-60.93 627.34,-52.49 630.97,-44.89"/>
<polygon fill="#3cb4a4" stroke="#3cb4a4" points="634.06,-46.53 636.03,-36.12 628,-43.03 634.06,-46.53"/>
<text text-anchor="middle" x="644.78" y="-57.8" font-family="arial" font-size="14.00" fill="#3cb4a4">result</text>
</g>
<!-- node1202&#45;&gt;node1179 -->
<g id="edge16" class="edge">
<title>node1202&#45;&gt;node1179</title>
<path fill="none" stroke="#da2d4f" stroke-width="2" d="M657.72,-86.98C660.84,-77.35 663.47,-65.07 661.78,-54 661.36,-51.32 660.78,-48.56 660.11,-45.83"/>
<polygon fill="#da2d4f" stroke="#da2d4f" stroke-width="2" points="663.46,-44.83 657.32,-36.2 656.74,-46.78 663.46,-44.83"/>
</g>
<!-- node1203&#45;&gt;node562 -->
<g id="edge23" class="edge">
<title>node1203&#45;&gt;node562</title>
<path fill="none" stroke="#da2d4f" stroke-width="2" d="M674.53,-669.86C683.8,-659.09 695.91,-645.02 706.24,-633.02"/>
<polygon fill="#da2d4f" stroke="#da2d4f" stroke-width="2" points="709.18,-634.97 713.05,-625.11 703.87,-630.4 709.18,-634.97"/>
</g>
<!-- inline158x788 -->
<g id="node14" class="node">
<title>inline158x788</title>
<ellipse fill="#d7ede7" stroke="black" cx="278.78" cy="-607" rx="27.46" ry="18"/>
<text text-anchor="middle" x="278.78" y="-605.1" font-family="Arial" font-size="8.00" fill="#1a1919">158 T(7)</text>
</g>
<!-- inline158x788&#45;&gt;node788 -->
<g id="edge17" class="edge">
<title>inline158x788&#45;&gt;node788</title>
<path fill="none" stroke="#3cb4a4" d="M278.78,-588.86C278.78,-575.61 278.78,-557.35 278.78,-544.11"/>
<text text-anchor="middle" x="288.28" y="-564.6" font-family="arial" font-size="8.00" fill="#3cb4a4">value</text>
</g>
<!-- inline158x794 -->
<g id="node15" class="node">
<title>inline158x794</title>
<ellipse fill="#d7ede7" stroke="black" cx="70.78" cy="-526" rx="27.46" ry="18"/>
<text text-anchor="middle" x="70.78" y="-524.1" font-family="Arial" font-size="8.00" fill="#1a1919">158 T(7)</text>
</g>
<!-- inline158x794&#45;&gt;node794 -->
<g id="edge18" class="edge">
<title>inline158x794&#45;&gt;node794</title>
<path fill="none" stroke="#3cb4a4" d="M70.78,-507.8C70.78,-493.05 70.78,-471.92 70.78,-457.18"/>
<text text-anchor="middle" x="80.28" y="-480.6" font-family="arial" font-size="8.00" fill="#3cb4a4">value</text>
</g>
<!-- inline173x562 -->
<g id="node16" class="node">
<title>inline173x562</title>
<ellipse fill="#d7ede7" stroke="black" cx="761.78" cy="-688" rx="27.46" ry="18"/>
<text text-anchor="middle" x="761.78" y="-686.1" font-family="Arial" font-size="8.00" fill="#1a1919">173 T(8)</text>
</g>
<!-- inline173x562&#45;&gt;node562 -->
<g id="edge19" class="edge">
<title>inline173x562&#45;&gt;node562</title>
<path fill="none" stroke="#3cb4a4" d="M754.56,-670.25C748.83,-656.93 740.85,-638.38 735.09,-625"/>
<text text-anchor="middle" x="755.28" y="-645.6" font-family="arial" font-size="8.00" fill="#3cb4a4">value</text>
</g>
<!-- inline191x717 -->
<g id="node17" class="node">
<title>inline191x717</title>
<ellipse fill="#d7ede7" stroke="black" cx="888.78" cy="-607" rx="27.46" ry="18"/>
<text text-anchor="middle" x="888.78" y="-605.1" font-family="Arial" font-size="8.00" fill="#1a1919">191 T(9)</text>
</g>
<!-- inline191x717&#45;&gt;node717 -->
<g id="edge20" class="edge">
<title>inline191x717&#45;&gt;node717</title>
<path fill="none" stroke="#3cb4a4" d="M867.4,-595.51C840.62,-582.37 794.4,-559.69 762.52,-544.05"/>
<text text-anchor="middle" x="822.28" y="-564.6" font-family="arial" font-size="8.00" fill="#3cb4a4">value</text>
</g>
<!-- inline2x1203 -->
<g id="node18" class="node">
<title>inline2x1203</title>
<ellipse fill="#d7ede7" stroke="black" cx="696.78" cy="-769" rx="27" ry="18"/>
<text text-anchor="middle" x="696.78" y="-767.1" font-family="Arial" font-size="8.00" fill="#1a1919">2 P(1)</text>
</g>
<!-- inline2x1203&#45;&gt;node1203 -->
<g id="edge21" class="edge">
<title>inline2x1203&#45;&gt;node1203</title>
<path fill="none" stroke="#3cb4a4" d="M689.11,-751.63C682.89,-738.34 674.14,-719.67 667.82,-706.17"/>
<text text-anchor="middle" x="688.28" y="-726.6" font-family="arial" font-size="8.00" fill="#3cb4a4">array</text>
</g>
</g>
</svg>
