<?xml version="1.0" encoding="UTF-8" standalone="no"?>
<!DOCTYPE svg PUBLIC "-//W3C//DTD SVG 1.1//EN"
 "http://www.w3.org/Graphics/SVG/1.1/DTD/svg11.dtd">
<!-- Generated by graphviz version 2.44.1 (20200629.0846)
 -->
<!-- Title: G Pages: 1 -->
<svg width="830pt" height="1215pt"
 viewBox="0.00 0.00 830.00 1215.00" xmlns="http://www.w3.org/2000/svg" xmlns:xlink="http://www.w3.org/1999/xlink">
<g id="graph0" class="graph" transform="scale(1 1) rotate(0) translate(4 1211)">
<title>G</title>
<!-- node0 -->
<g id="node1" class="node">
<title>node0</title>
<polygon fill="#e98693" stroke="black" points="304,-1207 248,-1207 248,-1171 304,-1171 304,-1207"/>
<text text-anchor="middle" x="276" y="-1185.3" font-family="Arial" font-size="14.00" fill="#1a1919">0 Start</text>
</g>
<!-- node2558 -->
<g id="node27" class="node">
<title>node2558</title>
<polygon fill="#da2d4f" stroke="black" points="369.5,-1126 256.5,-1126 256.5,-1090 369.5,-1090 369.5,-1126"/>
<text text-anchor="middle" x="313" y="-1104.3" font-family="Arial" font-size="14.00" fill="#ffffff">2558 Load T(...)</text>
</g>
<!-- node0&#45;&gt;node2558 -->
<g id="edge43" class="edge">
<title>node0&#45;&gt;node2558</title>
<path fill="none" stroke="#da2d4f" stroke-width="2" d="M284.03,-1170.86C288.88,-1160.51 295.16,-1147.1 300.63,-1135.41"/>
<polygon fill="#da2d4f" stroke="#da2d4f" stroke-width="2" points="303.92,-1136.65 304.99,-1126.11 297.58,-1133.68 303.92,-1136.65"/>
</g>
<!-- node528 -->
<g id="node2" class="node">
<title>node528</title>
<polygon fill="#f9f9f9" stroke="black" points="275,-1045 193,-1045 193,-1009 275,-1009 275,-1045"/>
<text text-anchor="middle" x="234" y="-1023.3" font-family="Arial" font-size="14.00" fill="#1a1919">528 Unbox</text>
</g>
<!-- node2500 -->
<g id="node23" class="node">
<title>node2500</title>
<polygon fill="#ffa500" stroke="black" points="294.5,-958 43.5,-958 43.5,-922 294.5,-922 294.5,-958"/>
<text text-anchor="middle" x="169" y="-936.3" font-family="Arial" font-size="14.00" fill="#1a1919">2500 Guard, else TransferToInterpreter</text>
</g>
<!-- node528&#45;&gt;node2500 -->
<g id="edge1" class="edge">
<title>node528&#45;&gt;node2500</title>
<path fill="none" stroke="#da2d4f" stroke-width="2" d="M220.85,-1008.8C211.51,-996.59 198.82,-979.99 188.33,-966.28"/>
<polygon fill="#da2d4f" stroke="#da2d4f" stroke-width="2" points="190.99,-963.99 182.13,-958.18 185.43,-968.25 190.99,-963.99"/>
</g>
<!-- node2535 -->
<g id="node25" class="node">
<title>node2535</title>
<polygon fill="#f9f9f9" stroke="black" points="218,-123 160,-123 160,-87 218,-87 218,-123"/>
<text text-anchor="middle" x="189" y="-101.3" font-family="Arial" font-size="14.00" fill="#1a1919">2535 ϕ</text>
</g>
<!-- node528&#45;&gt;node2535 -->
<g id="edge35" class="edge">
<title>node528&#45;&gt;node2535</title>
<path fill="none" stroke="#3cb4a4" d="M192.81,-1011.95C189.83,-1010.95 186.87,-1009.96 184,-1009 101.3,-981.41 0,-1028.18 0,-941 0,-941 0,-941 0,-191 0,-158.4 94.71,-129.36 150.04,-115.18"/>
<polygon fill="#3cb4a4" stroke="#3cb4a4" points="151.04,-118.53 159.88,-112.7 149.33,-111.75 151.04,-118.53"/>
<text text-anchor="middle" x="27.5" y="-586.8" font-family="arial" font-size="14.00" fill="#3cb4a4">from 809</text>
</g>
<!-- node2557 -->
<g id="node26" class="node">
<title>node2557</title>
<polygon fill="#f9f9f9" stroke="black" points="785.5,-210 590.5,-210 590.5,-174 785.5,-174 785.5,-210"/>
<text text-anchor="middle" x="688" y="-188.3" font-family="Arial" font-size="14.00" fill="#1a1919">2557 BoxNode$AllocatingBox</text>
</g>
<!-- node528&#45;&gt;node2557 -->
<g id="edge37" class="edge">
<title>node528&#45;&gt;node2557</title>
<path fill="none" stroke="#3cb4a4" d="M275.26,-1024.03C403.88,-1017.34 789,-992.97 789,-941 789,-941 789,-941 789,-278 789,-249.63 765.38,-228.82 740.99,-214.89"/>
<polygon fill="#3cb4a4" stroke="#3cb4a4" points="742.47,-211.72 732.01,-210.07 739.16,-217.89 742.47,-211.72"/>
<text text-anchor="middle" x="805.5" y="-630.3" font-family="arial" font-size="14.00" fill="#3cb4a4">value</text>
</g>
<!-- node603 -->
<g id="node3" class="node">
<title>node603</title>
<polygon fill="#3cb4a4" stroke="black" points="104,-1045 33.45,-1027 104,-1009 174.55,-1027 104,-1045"/>
<text text-anchor="middle" x="104" y="-1023.3" font-family="Arial" font-size="14.00" fill="#1a1919">603 IsNull</text>
</g>
<!-- node603&#45;&gt;node2500 -->
<g id="edge30" class="edge">
<title>node603&#45;&gt;node2500</title>
<path fill="none" stroke="#3cb4a4" d="M115.03,-1011.58C124.47,-999.23 138.3,-981.14 149.6,-966.38"/>
<polygon fill="#3cb4a4" stroke="#3cb4a4" points="152.61,-968.2 155.9,-958.13 147.05,-963.95 152.61,-968.2"/>
<text text-anchor="middle" x="145" y="-979.8" font-family="arial" font-size="14.00" fill="#3cb4a4">?</text>
</g>
<!-- node809 -->
<g id="node4" class="node">
<title>node809</title>
<polygon fill="#e98693" stroke="black" points="202.5,-885 135.5,-885 135.5,-849 202.5,-849 202.5,-885"/>
<text text-anchor="middle" x="169" y="-863.3" font-family="Arial" font-size="14.00" fill="#1a1919">809 End</text>
</g>
<!-- node810 -->
<g id="node5" class="node">
<title>node810</title>
<polygon fill="#e98693" stroke="black" points="222.5,-812 115.5,-812 115.5,-776 222.5,-776 222.5,-812"/>
<text text-anchor="middle" x="169" y="-790.3" font-family="Arial" font-size="14.00" fill="#1a1919">810 LoopBegin</text>
</g>
<!-- node809&#45;&gt;node810 -->
<g id="edge2" class="edge">
<title>node809&#45;&gt;node810</title>
<path fill="none" stroke="#da2d4f" stroke-width="2" d="M169,-848.81C169,-840.79 169,-831.05 169,-822.07"/>
<polygon fill="#da2d4f" stroke="#da2d4f" stroke-width="2" points="172.5,-822.03 169,-812.03 165.5,-822.03 172.5,-822.03"/>
</g>
<!-- node1027 -->
<g id="node7" class="node">
<title>node1027</title>
<polygon fill="#e98693" stroke="black" points="281,-739 223,-739 223,-703 281,-703 281,-739"/>
<text text-anchor="middle" x="252" y="-717.3" font-family="Arial" font-size="14.00" fill="#1a1919">1027 If</text>
</g>
<!-- node810&#45;&gt;node1027 -->
<g id="edge3" class="edge">
<title>node810&#45;&gt;node1027</title>
<path fill="none" stroke="#da2d4f" stroke-width="2" d="M189.09,-775.81C199.69,-766.74 212.87,-755.48 224.41,-745.6"/>
<polygon fill="#da2d4f" stroke="#da2d4f" stroke-width="2" points="226.77,-748.19 232.09,-739.03 222.22,-742.87 226.77,-748.19"/>
</g>
<!-- node810&#45;&gt;node2535 -->
<g id="edge34" class="edge">
<title>node810&#45;&gt;node2535</title>
<path fill="none" stroke="#343d46" stroke-dasharray="5,2" d="M106.53,-771.34C86.78,-760.26 70,-744.29 70,-722 70,-722 70,-722 70,-234.5 70,-181.75 124.66,-141.48 159.89,-121"/>
<polygon fill="#343d46" stroke="#343d46" points="104.95,-774.47 115.44,-775.94 108.16,-768.25 104.95,-774.47"/>
</g>
<!-- node988 -->
<g id="node6" class="node">
<title>node988</title>
<polygon fill="#3cb4a4" stroke="black" points="108,-36 61.25,-18 108,0 154.75,-18 108,-36"/>
<text text-anchor="middle" x="108" y="-14.3" font-family="Arial" font-size="14.00" fill="#1a1919">988 &lt;</text>
</g>
<!-- node988&#45;&gt;node1027 -->
<g id="edge6" class="edge">
<title>node988&#45;&gt;node1027</title>
<path fill="none" stroke="#3cb4a4" d="M108.61,-35.84C110.49,-88.68 116,-255.94 116,-394.5 116,-635 116,-635 116,-635 116,-681.07 172.82,-703.1 213.01,-712.91"/>
<polygon fill="#3cb4a4" stroke="#3cb4a4" points="212.3,-716.34 222.82,-715.15 213.85,-709.52 212.3,-716.34"/>
<text text-anchor="middle" x="120" y="-348.3" font-family="arial" font-size="14.00" fill="#3cb4a4">?</text>
</g>
<!-- node1030 -->
<g id="node8" class="node">
<title>node1030</title>
<polygon fill="#e98693" stroke="black" points="474.5,-652 389.5,-652 389.5,-616 474.5,-616 474.5,-652"/>
<text text-anchor="middle" x="432" y="-630.3" font-family="Arial" font-size="14.00" fill="#1a1919">1030 Begin</text>
</g>
<!-- node1027&#45;&gt;node1030 -->
<g id="edge8" class="edge">
<title>node1027&#45;&gt;node1030</title>
<path fill="none" stroke="#da2d4f" stroke-width="2" d="M281.32,-706.15C309.79,-692.71 353.42,-672.11 386.42,-656.52"/>
<polygon fill="#da2d4f" stroke="#da2d4f" stroke-width="2" points="388.31,-659.5 395.86,-652.07 385.32,-653.17 388.31,-659.5"/>
<text text-anchor="middle" x="356.5" y="-673.8" font-family="arial" font-size="14.00" fill="#da2d4f">F</text>
</g>
<!-- node2183 -->
<g id="node17" class="node">
<title>node2183</title>
<polygon fill="#e98693" stroke="black" points="332.5,-652 229.5,-652 229.5,-616 332.5,-616 332.5,-652"/>
<text text-anchor="middle" x="281" y="-630.3" font-family="Arial" font-size="14.00" fill="#1a1919">2183 LoopExit</text>
</g>
<!-- node1027&#45;&gt;node2183 -->
<g id="edge7" class="edge">
<title>node1027&#45;&gt;node2183</title>
<path fill="none" stroke="#da2d4f" stroke-width="2" d="M257.87,-702.8C261.88,-691.05 267.27,-675.24 271.84,-661.84"/>
<polygon fill="#da2d4f" stroke="#da2d4f" stroke-width="2" points="275.22,-662.77 275.14,-652.18 268.6,-660.51 275.22,-662.77"/>
<text text-anchor="middle" x="273.5" y="-673.8" font-family="arial" font-size="14.00" fill="#da2d4f">T</text>
</g>
<!-- node1266 -->
<g id="node10" class="node">
<title>node1266</title>
<polygon fill="#e98693" stroke="black" points="644,-565 586,-565 586,-529 644,-529 644,-565"/>
<text text-anchor="middle" x="615" y="-543.3" font-family="Arial" font-size="14.00" fill="#1a1919">1266 If</text>
</g>
<!-- node1030&#45;&gt;node1266 -->
<g id="edge9" class="edge">
<title>node1030&#45;&gt;node1266</title>
<path fill="none" stroke="#da2d4f" stroke-width="2" d="M469.03,-615.8C500.27,-601.29 544.81,-580.6 576.47,-565.9"/>
<polygon fill="#da2d4f" stroke="#da2d4f" stroke-width="2" points="578.25,-568.93 585.85,-561.54 575.3,-562.58 578.25,-568.93"/>
</g>
<!-- node1223 -->
<g id="node9" class="node">
<title>node1223</title>
<polygon fill="#3cb4a4" stroke="black" points="751,-36 689.33,-18 751,0 812.67,-18 751,-36"/>
<text text-anchor="middle" x="751" y="-14.3" font-family="Arial" font-size="14.00" fill="#1a1919">1223 ==</text>
</g>
<!-- node1223&#45;&gt;node1266 -->
<g id="edge12" class="edge">
<title>node1223&#45;&gt;node1266</title>
<path fill="none" stroke="#3cb4a4" d="M761.13,-33.34C769.91,-46.58 782.1,-67.16 788,-87 799.07,-124.18 793.44,-135.24 795,-174 795.64,-189.99 796.99,-194.12 795,-210 787.95,-266.21 762.79,-409.45 732,-457 712.52,-487.08 679.2,-510.95 653.09,-526.36"/>
<polygon fill="#3cb4a4" stroke="#3cb4a4" points="651.13,-523.45 644.19,-531.45 654.6,-529.52 651.13,-523.45"/>
<text text-anchor="middle" x="791" y="-275.3" font-family="arial" font-size="14.00" fill="#3cb4a4">?</text>
</g>
<!-- node1268 -->
<g id="node11" class="node">
<title>node1268</title>
<polygon fill="#e98693" stroke="black" points="601.5,-457 516.5,-457 516.5,-421 601.5,-421 601.5,-457"/>
<text text-anchor="middle" x="559" y="-435.3" font-family="Arial" font-size="14.00" fill="#1a1919">1268 Begin</text>
</g>
<!-- node1266&#45;&gt;node1268 -->
<g id="edge14" class="edge">
<title>node1266&#45;&gt;node1268</title>
<path fill="none" stroke="#da2d4f" stroke-width="2" d="M606,-528.97C597.08,-512.07 583.27,-485.94 572.92,-466.36"/>
<polygon fill="#da2d4f" stroke="#da2d4f" stroke-width="2" points="575.93,-464.55 568.16,-457.34 569.74,-467.82 575.93,-464.55"/>
<text text-anchor="middle" x="599.5" y="-489.3" font-family="arial" font-size="14.00" fill="#da2d4f">F</text>
</g>
<!-- node2162 -->
<g id="node16" class="node">
<title>node2162</title>
<polygon fill="#e98693" stroke="black" points="722.5,-457 619.5,-457 619.5,-421 722.5,-421 722.5,-457"/>
<text text-anchor="middle" x="671" y="-435.3" font-family="Arial" font-size="14.00" fill="#1a1919">2162 LoopExit</text>
</g>
<!-- node1266&#45;&gt;node2162 -->
<g id="edge13" class="edge">
<title>node1266&#45;&gt;node2162</title>
<path fill="none" stroke="#da2d4f" stroke-width="2" d="M624,-528.97C632.92,-512.07 646.73,-485.94 657.08,-466.36"/>
<polygon fill="#da2d4f" stroke="#da2d4f" stroke-width="2" points="660.26,-467.82 661.84,-457.34 654.07,-464.55 660.26,-467.82"/>
<text text-anchor="middle" x="655.5" y="-489.3" font-family="arial" font-size="14.00" fill="#da2d4f">T</text>
</g>
<!-- node2506 -->
<g id="node24" class="node">
<title>node2506</title>
<polygon fill="#ffa500" stroke="black" points="459.5,-370 208.5,-370 208.5,-334 459.5,-334 459.5,-370"/>
<text text-anchor="middle" x="334" y="-348.3" font-family="Arial" font-size="14.00" fill="#1a1919">2506 Guard, else TransferToInterpreter</text>
</g>
<!-- node1268&#45;&gt;node2506 -->
<g id="edge15" class="edge">
<title>node1268&#45;&gt;node2506</title>
<path fill="none" stroke="#da2d4f" stroke-width="2" d="M516.41,-421.91C480.24,-408.25 428.09,-388.54 388.8,-373.7"/>
<polygon fill="#da2d4f" stroke="#da2d4f" stroke-width="2" points="389.7,-370.3 379.11,-370.04 387.23,-376.85 389.7,-370.3"/>
</g>
<!-- node1545 -->
<g id="node12" class="node">
<title>node1545</title>
<polygon fill="#3cb4a4" stroke="black" points="334,-457 272.33,-439 334,-421 395.67,-439 334,-457"/>
<text text-anchor="middle" x="334" y="-435.3" font-family="Arial" font-size="14.00" fill="#1a1919">1545 ==</text>
</g>
<!-- node1545&#45;&gt;node2506 -->
<g id="edge32" class="edge">
<title>node1545&#45;&gt;node2506</title>
<path fill="none" stroke="#3cb4a4" d="M334,-420.8C334,-409.16 334,-393.55 334,-380.24"/>
<polygon fill="#3cb4a4" stroke="#3cb4a4" points="337.5,-380.18 334,-370.18 330.5,-380.18 337.5,-380.18"/>
<text text-anchor="middle" x="338" y="-391.8" font-family="arial" font-size="14.00" fill="#3cb4a4">?</text>
</g>
<!-- node2062 -->
<g id="node13" class="node">
<title>node2062</title>
<polygon fill="#ffa500" stroke="black" points="573,-297 307,-297 307,-261 573,-261 573,-297"/>
<text text-anchor="middle" x="440" y="-275.3" font-family="Arial" font-size="14.00" fill="#1a1919">2062 Guard not, else ArithmeticException</text>
</g>
<!-- node2065 -->
<g id="node15" class="node">
<title>node2065</title>
<polygon fill="#3cb4a4" stroke="black" points="274,-210 136.25,-192 274,-174 411.75,-192 274,-210"/>
<text text-anchor="middle" x="274" y="-188.3" font-family="Arial" font-size="14.00" fill="#1a1919">2065 IntegerSubExact</text>
</g>
<!-- node2062&#45;&gt;node2065 -->
<g id="edge23" class="edge">
<title>node2062&#45;&gt;node2065</title>
<path fill="none" stroke="#3cb4a4" d="M406.41,-260.8C378.4,-246.46 338.6,-226.08 309.96,-211.41"/>
<polygon fill="#3cb4a4" stroke="#3cb4a4" points="311.2,-208.12 300.71,-206.68 308.01,-214.35 311.2,-208.12"/>
<text text-anchor="middle" x="383.5" y="-231.8" font-family="arial" font-size="14.00" fill="#3cb4a4">guard</text>
</g>
<!-- node2188 -->
<g id="node18" class="node">
<title>node2188</title>
<polygon fill="#e98693" stroke="black" points="572,-210 468,-210 468,-174 572,-174 572,-210"/>
<text text-anchor="middle" x="520" y="-188.3" font-family="Arial" font-size="14.00" fill="#1a1919">2188 LoopEnd</text>
</g>
<!-- node2062&#45;&gt;node2188 -->
<g id="edge18" class="edge">
<title>node2062&#45;&gt;node2188</title>
<path fill="none" stroke="#da2d4f" stroke-width="2" d="M456.19,-260.8C467.9,-248.36 483.89,-231.36 496.94,-217.5"/>
<polygon fill="#da2d4f" stroke="#da2d4f" stroke-width="2" points="499.53,-219.86 503.83,-210.18 494.43,-215.06 499.53,-219.86"/>
</g>
<!-- node2063 -->
<g id="node14" class="node">
<title>node2063</title>
<polygon fill="#3cb4a4" stroke="black" points="373,-36 185.48,-18 373,0 560.52,-18 373,-36"/>
<text text-anchor="middle" x="373" y="-14.3" font-family="Arial" font-size="14.00" fill="#1a1919">2063 IntegerSubExactOverflow</text>
</g>
<!-- node2063&#45;&gt;node2062 -->
<g id="edge17" class="edge">
<title>node2063&#45;&gt;node2062</title>
<path fill="none" stroke="#3cb4a4" d="M383.46,-35.09C391.66,-48.46 402.71,-68.26 409,-87 427.93,-143.38 435.5,-213.12 438.37,-250.78"/>
<polygon fill="#3cb4a4" stroke="#3cb4a4" points="434.9,-251.22 439.09,-260.95 441.88,-250.73 434.9,-251.22"/>
<text text-anchor="middle" x="429" y="-144.8" font-family="arial" font-size="14.00" fill="#3cb4a4">?</text>
</g>
<!-- node2065&#45;&gt;node2535 -->
<g id="edge36" class="edge">
<title>node2065&#45;&gt;node2535</title>
<path fill="none" stroke="#3cb4a4" d="M220.08,-180.86C206.77,-175.67 194.03,-167.84 186,-156 181.52,-149.4 180.64,-141.1 181.35,-133.17"/>
<polygon fill="#3cb4a4" stroke="#3cb4a4" points="184.83,-133.58 183.03,-123.14 177.93,-132.42 184.83,-133.58"/>
<text text-anchor="middle" x="217" y="-144.8" font-family="arial" font-size="14.00" fill="#3cb4a4">from 2188</text>
</g>
<!-- node2253 -->
<g id="node20" class="node">
<title>node2253</title>
<polygon fill="#e98693" stroke="black" points="708,-370 634,-370 634,-334 708,-334 708,-370"/>
<text text-anchor="middle" x="671" y="-348.3" font-family="Arial" font-size="14.00" fill="#1a1919">2253 End</text>
</g>
<!-- node2162&#45;&gt;node2253 -->
<g id="edge24" class="edge">
<title>node2162&#45;&gt;node2253</title>
<path fill="none" stroke="#da2d4f" stroke-width="2" d="M671,-420.8C671,-409.16 671,-393.55 671,-380.24"/>
<polygon fill="#da2d4f" stroke="#da2d4f" stroke-width="2" points="674.5,-380.18 671,-370.18 667.5,-380.18 674.5,-380.18"/>
</g>
<!-- node2255 -->
<g id="node21" class="node">
<title>node2255</title>
<polygon fill="#e98693" stroke="black" points="520,-511 446,-511 446,-475 520,-475 520,-511"/>
<text text-anchor="middle" x="483" y="-489.3" font-family="Arial" font-size="14.00" fill="#1a1919">2255 End</text>
</g>
<!-- node2183&#45;&gt;node2255 -->
<g id="edge25" class="edge">
<title>node2183&#45;&gt;node2255</title>
<path fill="none" stroke="#da2d4f" stroke-width="2" d="M332.74,-619.83C366.23,-609.29 409.17,-591.78 440,-565 453.92,-552.91 464.67,-535.16 471.94,-520.44"/>
<polygon fill="#da2d4f" stroke="#da2d4f" stroke-width="2" points="475.15,-521.83 476.21,-511.29 468.81,-518.87 475.15,-521.83"/>
</g>
<!-- node2251 -->
<g id="node19" class="node">
<title>node2251</title>
<polygon fill="#e98693" stroke="black" points="715.5,-297 626.5,-297 626.5,-261 715.5,-261 715.5,-297"/>
<text text-anchor="middle" x="671" y="-275.3" font-family="Arial" font-size="14.00" fill="#1a1919">2251 Merge</text>
</g>
<!-- node2251&#45;&gt;node2557 -->
<g id="edge28" class="edge">
<title>node2251&#45;&gt;node2557</title>
<path fill="none" stroke="#da2d4f" stroke-width="2" d="M674.44,-260.8C676.77,-249.16 679.89,-233.55 682.55,-220.24"/>
<polygon fill="#da2d4f" stroke="#da2d4f" stroke-width="2" points="686.04,-220.67 684.56,-210.18 679.17,-219.29 686.04,-220.67"/>
</g>
<!-- node2253&#45;&gt;node2251 -->
<g id="edge26" class="edge">
<title>node2253&#45;&gt;node2251</title>
<path fill="none" stroke="#da2d4f" stroke-width="2" d="M671,-333.81C671,-325.79 671,-316.05 671,-307.07"/>
<polygon fill="#da2d4f" stroke="#da2d4f" stroke-width="2" points="674.5,-307.03 671,-297.03 667.5,-307.03 674.5,-307.03"/>
</g>
<!-- node2255&#45;&gt;node2251 -->
<g id="edge27" class="edge">
<title>node2255&#45;&gt;node2251</title>
<path fill="none" stroke="#da2d4f" stroke-width="2" d="M486.42,-474.79C490.01,-459.66 496.74,-437.52 508,-421 542.13,-370.9 598.35,-327.74 635.02,-302.8"/>
<polygon fill="#da2d4f" stroke="#da2d4f" stroke-width="2" points="637.08,-305.64 643.44,-297.16 633.19,-299.82 637.08,-305.64"/>
</g>
<!-- node2411 -->
<g id="node22" class="node">
<title>node2411</title>
<polygon fill="#e98693" stroke="black" points="691,-123 601,-123 601,-87 691,-87 691,-123"/>
<text text-anchor="middle" x="646" y="-101.3" font-family="Arial" font-size="14.00" fill="#1a1919">2411 Return</text>
</g>
<!-- node2500&#45;&gt;node809 -->
<g id="edge31" class="edge">
<title>node2500&#45;&gt;node809</title>
<path fill="none" stroke="#da2d4f" stroke-width="2" d="M169,-921.81C169,-913.79 169,-904.05 169,-895.07"/>
<polygon fill="#da2d4f" stroke="#da2d4f" stroke-width="2" points="172.5,-895.03 169,-885.03 165.5,-895.03 172.5,-895.03"/>
</g>
<!-- node2506&#45;&gt;node2062 -->
<g id="edge33" class="edge">
<title>node2506&#45;&gt;node2062</title>
<path fill="none" stroke="#da2d4f" stroke-width="2" d="M359.39,-333.99C373.32,-324.67 390.77,-312.97 405.87,-302.86"/>
<polygon fill="#da2d4f" stroke="#da2d4f" stroke-width="2" points="408.09,-305.59 414.45,-297.11 404.19,-299.77 408.09,-305.59"/>
</g>
<!-- node2535&#45;&gt;node988 -->
<g id="edge4" class="edge">
<title>node2535&#45;&gt;node988</title>
<path fill="none" stroke="#3cb4a4" d="M172.61,-86.8C159.42,-72.96 140.88,-53.51 127.04,-38.98"/>
<polygon fill="#3cb4a4" stroke="#3cb4a4" points="129.33,-36.31 119.9,-31.49 124.27,-41.14 129.33,-36.31"/>
<text text-anchor="middle" x="157.5" y="-57.8" font-family="arial" font-size="14.00" fill="#3cb4a4">x</text>
</g>
<!-- node2535&#45;&gt;node1223 -->
<g id="edge10" class="edge">
<title>node2535&#45;&gt;node1223</title>
<path fill="none" stroke="#3cb4a4" d="M218.27,-93.64C252.34,-82.02 310.52,-63.57 362,-54 453.23,-37.04 477.59,-44.34 570,-36 612.63,-32.15 660.89,-27.61 696.85,-24.19"/>
<polygon fill="#3cb4a4" stroke="#3cb4a4" points="697.5,-27.64 707.12,-23.21 696.83,-20.68 697.5,-27.64"/>
<text text-anchor="middle" x="365.5" y="-57.8" font-family="arial" font-size="14.00" fill="#3cb4a4">x</text>
</g>
<!-- node2535&#45;&gt;node2063 -->
<g id="edge19" class="edge">
<title>node2535&#45;&gt;node2063</title>
<path fill="none" stroke="#3cb4a4" d="M218.03,-87.9C236.88,-77.69 262.1,-64.48 285,-54 298.35,-47.89 313.1,-41.78 326.64,-36.42"/>
<polygon fill="#3cb4a4" stroke="#3cb4a4" points="328.22,-39.56 336.26,-32.65 325.67,-33.04 328.22,-39.56"/>
<text text-anchor="middle" x="288.5" y="-57.8" font-family="arial" font-size="14.00" fill="#3cb4a4">x</text>
</g>
<!-- node2535&#45;&gt;node2065 -->
<g id="edge21" class="edge">
<title>node2535&#45;&gt;node2065</title>
<path fill="none" stroke="#3cb4a4" d="M218.05,-117.24C229.79,-122.94 242.73,-130.83 252,-141 258.09,-147.68 262.69,-156.31 266.07,-164.52"/>
<polygon fill="#3cb4a4" stroke="#3cb4a4" points="262.88,-165.97 269.61,-174.16 269.45,-163.56 262.88,-165.97"/>
<text text-anchor="middle" x="265.5" y="-144.8" font-family="arial" font-size="14.00" fill="#3cb4a4">x</text>
</g>
<!-- node2557&#45;&gt;node2411 -->
<g id="edge29" class="edge">
<title>node2557&#45;&gt;node2411</title>
<path fill="none" stroke="#3cb4a4" d="M658.56,-173.71C652.68,-168.79 647.31,-162.86 644,-156 640.63,-149.01 639.85,-140.8 640.27,-133.08"/>
<polygon fill="#3cb4a4" stroke="#3cb4a4" points="643.77,-133.36 641.46,-123.02 636.81,-132.54 643.77,-133.36"/>
<text text-anchor="middle" x="661" y="-144.8" font-family="arial" font-size="14.00" fill="#3cb4a4">result</text>
</g>
<!-- node2557&#45;&gt;node2411 -->
<g id="edge38" class="edge">
<title>node2557&#45;&gt;node2411</title>
<path fill="none" stroke="#da2d4f" stroke-width="2" d="M686.84,-173.58C685.62,-163.61 683.12,-151.11 678,-141 676.21,-137.47 673.96,-134.02 671.49,-130.76"/>
<polygon fill="#da2d4f" stroke="#da2d4f" stroke-width="2" points="674.14,-128.48 665.02,-123.09 668.79,-132.99 674.14,-128.48"/>
</g>
<!-- node2558&#45;&gt;node528 -->
<g id="edge44" class="edge">
<title>node2558&#45;&gt;node528</title>
<path fill="none" stroke="#da2d4f" stroke-width="2" d="M295.86,-1089.86C284.88,-1078.88 270.48,-1064.48 258.33,-1052.33"/>
<polygon fill="#da2d4f" stroke="#da2d4f" stroke-width="2" points="260.65,-1049.7 251.11,-1045.11 255.7,-1054.65 260.65,-1049.7"/>
</g>
<!-- inline23x988 -->
<g id="node28" class="node">
<title>inline23x988</title>
<ellipse fill="#d7ede7" stroke="black" cx="53" cy="-105" rx="27" ry="18"/>
<text text-anchor="middle" x="53" y="-103.1" font-family="Arial" font-size="8.00" fill="#1a1919">23 C(1)</text>
</g>
<!-- inline23x988&#45;&gt;node988 -->
<g id="edge5" class="edge">
<title>inline23x988&#45;&gt;node988</title>
<path fill="none" stroke="#3cb4a4" d="M63.35,-88.01C73.68,-72.05 89.39,-47.77 99.15,-32.67"/>
<text text-anchor="middle" x="86" y="-59.6" font-family="arial" font-size="8.00" fill="#3cb4a4">y</text>
</g>
<!-- inline105x1223 -->
<g id="node29" class="node">
<title>inline105x1223</title>
<ellipse fill="#d7ede7" stroke="black" cx="751" cy="-105" rx="27.59" ry="18"/>
<text text-anchor="middle" x="751" y="-103.1" font-family="Arial" font-size="8.00" fill="#1a1919">105 C(4)</text>
</g>
<!-- inline105x1223&#45;&gt;node1223 -->
<g id="edge11" class="edge">
<title>inline105x1223&#45;&gt;node1223</title>
<path fill="none" stroke="#3cb4a4" d="M751,-86.8C751,-72.05 751,-50.92 751,-36.18"/>
<text text-anchor="middle" x="753" y="-59.6" font-family="arial" font-size="8.00" fill="#3cb4a4">y</text>
</g>
<!-- inline1543x1545 -->
<g id="node30" class="node">
<title>inline1543x1545</title>
<ellipse fill="#d7ede7" stroke="black" cx="344" cy="-547" rx="86.57" ry="18"/>
<text text-anchor="middle" x="344" y="-545.1" font-family="Arial" font-size="8.00" fill="#1a1919">1543 C(RubyBasicObject@414ae92d)</text>
</g>
<!-- inline1543x1545&#45;&gt;node1545 -->
<g id="edge16" class="edge">
<title>inline1543x1545&#45;&gt;node1545</title>
<path fill="none" stroke="#3cb4a4" d="M342.39,-528.97C340.52,-509.07 337.43,-476.37 335.57,-456.64"/>
<text text-anchor="middle" x="343" y="-491.1" font-family="arial" font-size="8.00" fill="#3cb4a4">y</text>
</g>
<!-- inline23x2063 -->
<g id="node31" class="node">
<title>inline23x2063</title>
<ellipse fill="#d7ede7" stroke="black" cx="373" cy="-105" rx="27" ry="18"/>
<text text-anchor="middle" x="373" y="-103.1" font-family="Arial" font-size="8.00" fill="#1a1919">23 C(1)</text>
</g>
<!-- inline23x2063&#45;&gt;node2063 -->
<g id="edge20" class="edge">
<title>inline23x2063&#45;&gt;node2063</title>
<path fill="none" stroke="#3cb4a4" d="M373,-86.8C373,-72.05 373,-50.92 373,-36.18"/>
<text text-anchor="middle" x="375" y="-59.6" font-family="arial" font-size="8.00" fill="#3cb4a4">y</text>
</g>
<!-- inline23x2065 -->
<g id="node32" class="node">
<title>inline23x2065</title>
<ellipse fill="#d7ede7" stroke="black" cx="262" cy="-279" rx="27" ry="18"/>
<text text-anchor="middle" x="262" y="-277.1" font-family="Arial" font-size="8.00" fill="#1a1919">23 C(1)</text>
</g>
<!-- inline23x2065&#45;&gt;node2065 -->
<g id="edge22" class="edge">
<title>inline23x2065&#45;&gt;node2065</title>
<path fill="none" stroke="#3cb4a4" d="M264.43,-260.8C266.52,-245.95 269.53,-224.64 271.62,-209.89"/>
<text text-anchor="middle" x="271" y="-233.6" font-family="arial" font-size="8.00" fill="#3cb4a4">y</text>
</g>
<!-- inline125x1545 -->
<g id="node33" class="node">
<title>inline125x1545</title>
<ellipse fill="#d7ede7" stroke="black" cx="212" cy="-547" rx="27.46" ry="18"/>
<text text-anchor="middle" x="212" y="-545.1" font-family="Arial" font-size="8.00" fill="#1a1919">125 T(5)</text>
</g>
<!-- inline125x1545&#45;&gt;node1545 -->
<g id="edge39" class="edge">
<title>inline125x1545&#45;&gt;node1545</title>
<path fill="none" stroke="#3cb4a4" d="M227.95,-532.14C251.72,-511.49 296.11,-472.92 319.19,-452.87"/>
<text text-anchor="middle" x="294" y="-491.1" font-family="arial" font-size="8.00" fill="#3cb4a4">x</text>
</g>
<!-- inline143x603 -->
<g id="node34" class="node">
<title>inline143x603</title>
<ellipse fill="#d7ede7" stroke="black" cx="104" cy="-1108" rx="27.46" ry="18"/>
<text text-anchor="middle" x="104" y="-1106.1" font-family="Arial" font-size="8.00" fill="#1a1919">143 T(6)</text>
</g>
<!-- inline143x603&#45;&gt;node603 -->
<g id="edge40" class="edge">
<title>inline143x603&#45;&gt;node603</title>
<path fill="none" stroke="#3cb4a4" d="M104,-1089.86C104,-1076.61 104,-1058.35 104,-1045.11"/>
<text text-anchor="middle" x="113.5" y="-1065.6" font-family="arial" font-size="8.00" fill="#3cb4a4">value</text>
</g>
<!-- inline158x528 -->
<g id="node35" class="node">
<title>inline158x528</title>
<ellipse fill="#d7ede7" stroke="black" cx="211" cy="-1108" rx="27.46" ry="18"/>
<text text-anchor="middle" x="211" y="-1106.1" font-family="Arial" font-size="8.00" fill="#1a1919">158 T(7)</text>
</g>
<!-- inline158x528&#45;&gt;node528 -->
<g id="edge41" class="edge">
<title>inline158x528&#45;&gt;node528</title>
<path fill="none" stroke="#3cb4a4" d="M215.88,-1090.25C219.75,-1076.93 225.15,-1058.38 229.05,-1045"/>
<text text-anchor="middle" x="233.5" y="-1065.6" font-family="arial" font-size="8.00" fill="#3cb4a4">value</text>
</g>
<!-- inline2x2558 -->
<g id="node36" class="node">
<title>inline2x2558</title>
<ellipse fill="#d7ede7" stroke="black" cx="349" cy="-1189" rx="27" ry="18"/>
<text text-anchor="middle" x="349" y="-1187.1" font-family="Arial" font-size="8.00" fill="#1a1919">2 P(1)</text>
</g>
<!-- inline2x2558&#45;&gt;node2558 -->
<g id="edge42" class="edge">
<title>inline2x2558&#45;&gt;node2558</title>
<path fill="none" stroke="#3cb4a4" d="M341.54,-1171.63C335.49,-1158.34 326.97,-1139.67 320.82,-1126.17"/>
<text text-anchor="middle" x="342.5" y="-1146.6" font-family="arial" font-size="8.00" fill="#3cb4a4">array</text>
</g>
</g>
</svg>
