<?xml version="1.0" encoding="UTF-8" standalone="no"?>
<!DOCTYPE svg PUBLIC "-//W3C//DTD SVG 1.1//EN"
 "http://www.w3.org/Graphics/SVG/1.1/DTD/svg11.dtd">
<!-- Generated by graphviz version 2.44.1 (20200629.0846)
 -->
<!-- Title: G Pages: 1 -->
<svg width="764pt" height="1397pt"
 viewBox="0.00 0.00 764.31 1397.00" xmlns="http://www.w3.org/2000/svg" xmlns:xlink="http://www.w3.org/1999/xlink">
<g id="graph0" class="graph" transform="scale(1 1) rotate(0) translate(4 1393)">
<title>G</title>
<!-- node0 -->
<g id="node1" class="node">
<title>node0</title>
<polygon fill="#e98693" stroke="black" points="56,-1389 0,-1389 0,-1353 56,-1353 56,-1389"/>
<text text-anchor="middle" x="28" y="-1367.3" font-family="Arial" font-size="14.00" fill="#1a1919">0 Start</text>
</g>
<!-- node1372 -->
<g id="node19" class="node">
<title>node1372</title>
<polygon fill="#da2d4f" stroke="black" points="120.5,-1308 7.5,-1308 7.5,-1272 120.5,-1272 120.5,-1308"/>
<text text-anchor="middle" x="64" y="-1286.3" font-family="Arial" font-size="14.00" fill="#ffffff">1372 Load T(...)</text>
</g>
<!-- node0&#45;&gt;node1372 -->
<g id="edge34" class="edge">
<title>node0&#45;&gt;node1372</title>
<path fill="none" stroke="#da2d4f" stroke-width="2" d="M35.81,-1352.86C40.53,-1342.51 46.64,-1329.1 51.96,-1317.41"/>
<polygon fill="#da2d4f" stroke="#da2d4f" stroke-width="2" points="55.24,-1318.66 56.2,-1308.11 48.87,-1315.76 55.24,-1318.66"/>
</g>
<!-- node682 -->
<g id="node2" class="node">
<title>node682</title>
<polygon fill="#f9f9f9" stroke="black" points="173,-1227 91,-1227 91,-1191 173,-1191 173,-1227"/>
<text text-anchor="middle" x="132" y="-1205.3" font-family="Arial" font-size="14.00" fill="#1a1919">682 Unbox</text>
</g>
<!-- node1057 -->
<g id="node3" class="node">
<title>node1057</title>
<polygon fill="#da2d4f" stroke="black" points="590,-1140 284,-1140 284,-1104 590,-1104 590,-1140"/>
<text text-anchor="middle" x="437" y="-1118.3" font-family="Arial" font-size="14.00" fill="#ffffff">1057 LoadField RubyDynamicObject.metaClass</text>
</g>
<!-- node682&#45;&gt;node1057 -->
<g id="edge1" class="edge">
<title>node682&#45;&gt;node1057</title>
<path fill="none" stroke="#da2d4f" stroke-width="2" d="M173.13,-1193.77C176.12,-1192.81 179.1,-1191.88 182,-1191 240.68,-1173.22 307.7,-1155.45 358.3,-1142.53"/>
<polygon fill="#da2d4f" stroke="#da2d4f" stroke-width="2" points="359.36,-1145.87 368.19,-1140.02 357.64,-1139.09 359.36,-1145.87"/>
</g>
<!-- node1190 -->
<g id="node5" class="node">
<title>node1190</title>
<polygon fill="#3cb4a4" stroke="black" points="213,-1140 159.88,-1122 213,-1104 266.12,-1122 213,-1140"/>
<text text-anchor="middle" x="213" y="-1118.3" font-family="Arial" font-size="14.00" fill="#1a1919">1190 &lt;</text>
</g>
<!-- node682&#45;&gt;node1190 -->
<g id="edge5" class="edge">
<title>node682&#45;&gt;node1190</title>
<path fill="none" stroke="#3cb4a4" d="M148.39,-1190.8C161.42,-1177.13 179.68,-1157.97 193.46,-1143.5"/>
<polygon fill="#3cb4a4" stroke="#3cb4a4" points="196.24,-1145.66 200.6,-1136.01 191.17,-1140.84 196.24,-1145.66"/>
<text text-anchor="middle" x="180.5" y="-1161.8" font-family="arial" font-size="14.00" fill="#3cb4a4">x</text>
</g>
<!-- node1265 -->
<g id="node9" class="node">
<title>node1265</title>
<polygon fill="#3cb4a4" stroke="black" points="243,-443 188.54,-425 243,-407 297.46,-425 243,-443"/>
<text text-anchor="middle" x="243" y="-421.3" font-family="Arial" font-size="14.00" fill="#1a1919">1265 &lt;</text>
</g>
<!-- node682&#45;&gt;node1265 -->
<g id="edge10" class="edge">
<title>node682&#45;&gt;node1265</title>
<path fill="none" stroke="#3cb4a4" d="M132,-1190.74C132,-1173.57 132,-1146.46 132,-1123 132,-1123 132,-1123 132,-551.5 132,-501.78 181.49,-462.51 214.37,-441.89"/>
<polygon fill="#3cb4a4" stroke="#3cb4a4" points="216.41,-444.75 223.16,-436.58 212.79,-438.76 216.41,-444.75"/>
<text text-anchor="middle" x="135.5" y="-827.8" font-family="arial" font-size="14.00" fill="#3cb4a4">x</text>
</g>
<!-- node1296 -->
<g id="node12" class="node">
<title>node1296</title>
<polygon fill="#da2d4f" stroke="black" points="320,-210 192,-210 192,-174 320,-174 320,-210"/>
<text text-anchor="middle" x="256" y="-188.3" font-family="Arial" font-size="14.00" fill="#ffffff">1296 LoadIndexed</text>
</g>
<!-- node682&#45;&gt;node1296 -->
<g id="edge15" class="edge">
<title>node682&#45;&gt;node1296</title>
<path fill="none" stroke="#3cb4a4" d="M109.98,-1190.98C92.5,-1175.4 71,-1150.61 71,-1123 71,-1123 71,-1123 71,-264 71,-239.03 130.47,-219.55 181.97,-207.37"/>
<polygon fill="#3cb4a4" stroke="#3cb4a4" points="182.86,-210.75 191.82,-205.1 181.28,-203.93 182.86,-210.75"/>
<text text-anchor="middle" x="87.5" y="-697.3" font-family="arial" font-size="14.00" fill="#3cb4a4">index</text>
</g>
<!-- node1109 -->
<g id="node4" class="node">
<title>node1109</title>
<polygon fill="#3cb4a4" stroke="black" points="509,-1053 448.17,-1035 509,-1017 569.83,-1035 509,-1053"/>
<text text-anchor="middle" x="509" y="-1031.3" font-family="Arial" font-size="14.00" fill="#1a1919">1109 ==</text>
</g>
<!-- node1057&#45;&gt;node1109 -->
<g id="edge3" class="edge">
<title>node1057&#45;&gt;node1109</title>
<path fill="none" stroke="#3cb4a4" d="M451.57,-1103.8C462.84,-1090.5 478.51,-1072 490.63,-1057.68"/>
<polygon fill="#3cb4a4" stroke="#3cb4a4" points="493.51,-1059.7 497.3,-1049.81 488.17,-1055.18 493.51,-1059.7"/>
<text text-anchor="middle" x="480.5" y="-1074.8" font-family="arial" font-size="14.00" fill="#3cb4a4">x</text>
</g>
<!-- node1348 -->
<g id="node14" class="node">
<title>node1348</title>
<polygon fill="#ffa500" stroke="black" points="545.5,-966 294.5,-966 294.5,-930 545.5,-930 545.5,-966"/>
<text text-anchor="middle" x="420" y="-944.3" font-family="Arial" font-size="14.00" fill="#1a1919">1348 Guard, else TransferToInterpreter</text>
</g>
<!-- node1057&#45;&gt;node1348 -->
<g id="edge2" class="edge">
<title>node1057&#45;&gt;node1348</title>
<path fill="none" stroke="#da2d4f" stroke-width="2" d="M435.31,-1103.88C432.35,-1074 426.24,-1012.11 422.7,-976.27"/>
<polygon fill="#da2d4f" stroke="#da2d4f" stroke-width="2" points="426.15,-975.66 421.69,-966.05 419.19,-976.35 426.15,-975.66"/>
</g>
<!-- node1109&#45;&gt;node1348 -->
<g id="edge18" class="edge">
<title>node1109&#45;&gt;node1348</title>
<path fill="none" stroke="#3cb4a4" d="M495.09,-1020.72C481.9,-1008.12 461.76,-988.88 445.65,-973.5"/>
<polygon fill="#3cb4a4" stroke="#3cb4a4" points="447.77,-970.68 438.12,-966.3 442.93,-975.74 447.77,-970.68"/>
<text text-anchor="middle" x="473" y="-987.8" font-family="arial" font-size="14.00" fill="#3cb4a4">?</text>
</g>
<!-- node1349 -->
<g id="node15" class="node">
<title>node1349</title>
<polygon fill="#ffa500" stroke="black" points="540,-893 266,-893 266,-857 540,-857 540,-893"/>
<text text-anchor="middle" x="403" y="-871.3" font-family="Arial" font-size="14.00" fill="#1a1919">1349 Guard not, else TransferToInterpreter</text>
</g>
<!-- node1190&#45;&gt;node1349 -->
<g id="edge20" class="edge">
<title>node1190&#45;&gt;node1349</title>
<path fill="none" stroke="#3cb4a4" d="M215.07,-1104.48C220.41,-1068.39 237.76,-981.61 286,-930 299.27,-915.8 317,-905.03 334.65,-896.98"/>
<polygon fill="#3cb4a4" stroke="#3cb4a4" points="336.04,-900.19 343.84,-893.02 333.27,-893.76 336.04,-900.19"/>
<text text-anchor="middle" x="253" y="-987.8" font-family="arial" font-size="14.00" fill="#3cb4a4">?</text>
</g>
<!-- node1249 -->
<g id="node6" class="node">
<title>node1249</title>
<polygon fill="#da2d4f" stroke="black" points="452,-806 242,-806 242,-770 452,-770 452,-806"/>
<text text-anchor="middle" x="347" y="-784.3" font-family="Arial" font-size="14.00" fill="#ffffff">1249 LoadField RubyArray.store</text>
</g>
<!-- node1253 -->
<g id="node7" class="node">
<title>node1253</title>
<polygon fill="#f9f9f9" stroke="black" points="520,-719 356,-719 356,-683 520,-683 520,-719"/>
<text text-anchor="middle" x="438" y="-697.3" font-family="Arial" font-size="14.00" fill="#1a1919">1253 InstanceOf a!# int[]</text>
</g>
<!-- node1249&#45;&gt;node1253 -->
<g id="edge8" class="edge">
<title>node1249&#45;&gt;node1253</title>
<path fill="none" stroke="#3cb4a4" d="M365.42,-769.8C378.86,-757.24 397.26,-740.05 412.18,-726.12"/>
<polygon fill="#3cb4a4" stroke="#3cb4a4" points="414.69,-728.56 419.61,-719.18 409.92,-723.44 414.69,-728.56"/>
<text text-anchor="middle" x="413.5" y="-740.8" font-family="arial" font-size="14.00" fill="#3cb4a4">value</text>
</g>
<!-- node1295 -->
<g id="node11" class="node">
<title>node1295</title>
<polygon fill="#f9f9f9" stroke="black" points="311.5,-665 150.5,-665 150.5,-629 311.5,-629 311.5,-665"/>
<text text-anchor="middle" x="231" y="-643.3" font-family="Arial" font-size="14.00" fill="#1a1919">1295 InstanceOf a# int[]</text>
</g>
<!-- node1249&#45;&gt;node1295 -->
<g id="edge14" class="edge">
<title>node1249&#45;&gt;node1295</title>
<path fill="none" stroke="#3cb4a4" d="M305.13,-769.96C296.42,-765.08 287.83,-759.11 281,-752 259.93,-730.08 246.27,-697.6 238.64,-674.79"/>
<polygon fill="#3cb4a4" stroke="#3cb4a4" points="241.91,-673.53 235.55,-665.06 235.24,-675.65 241.91,-673.53"/>
<text text-anchor="middle" x="297.5" y="-740.8" font-family="arial" font-size="14.00" fill="#3cb4a4">value</text>
</g>
<!-- node1249&#45;&gt;node1296 -->
<g id="edge28" class="edge">
<title>node1249&#45;&gt;node1296</title>
<path fill="none" stroke="#3cb4a4" d="M452.07,-780.52C501.6,-771.14 550,-749.76 550,-702 550,-702 550,-702 550,-264 550,-218.86 417.37,-202.33 330.28,-196.34"/>
<polygon fill="#3cb4a4" stroke="#3cb4a4" points="330.36,-192.83 320.16,-195.67 329.91,-199.82 330.36,-192.83"/>
<text text-anchor="middle" x="565.5" y="-464.8" font-family="arial" font-size="14.00" fill="#3cb4a4">array</text>
</g>
<!-- node1351 -->
<g id="node17" class="node">
<title>node1351</title>
<polygon fill="#ffa500" stroke="black" points="521.5,-611 270.5,-611 270.5,-575 521.5,-575 521.5,-611"/>
<text text-anchor="middle" x="396" y="-589.3" font-family="Arial" font-size="14.00" fill="#1a1919">1351 Guard, else TransferToInterpreter</text>
</g>
<!-- node1249&#45;&gt;node1351 -->
<g id="edge7" class="edge">
<title>node1249&#45;&gt;node1351</title>
<path fill="none" stroke="#da2d4f" stroke-width="2" d="M344.41,-769.74C341.87,-748.84 339.36,-712.73 347,-683 352.91,-660.02 366.14,-636.61 377.37,-619.57"/>
<polygon fill="#da2d4f" stroke="#da2d4f" stroke-width="2" points="380.28,-621.51 383.01,-611.28 374.49,-617.58 380.28,-621.51"/>
</g>
<!-- node1253&#45;&gt;node1351 -->
<g id="edge24" class="edge">
<title>node1253&#45;&gt;node1351</title>
<path fill="none" stroke="#3cb4a4" d="M431.25,-682.97C424.62,-666.22 414.39,-640.41 406.66,-620.89"/>
<polygon fill="#3cb4a4" stroke="#3cb4a4" points="409.81,-619.35 402.87,-611.34 403.3,-621.93 409.81,-619.35"/>
<text text-anchor="middle" x="427" y="-643.3" font-family="arial" font-size="14.00" fill="#3cb4a4">?</text>
</g>
<!-- node1263 -->
<g id="node8" class="node">
<title>node1263</title>
<polygon fill="#da2d4f" stroke="black" points="419,-530 215,-530 215,-494 419,-494 419,-530"/>
<text text-anchor="middle" x="317" y="-508.3" font-family="Arial" font-size="14.00" fill="#ffffff">1263 LoadField RubyArray.size</text>
</g>
<!-- node1263&#45;&gt;node1265 -->
<g id="edge11" class="edge">
<title>node1263&#45;&gt;node1265</title>
<path fill="none" stroke="#3cb4a4" d="M302.02,-493.8C290.3,-480.34 273.95,-461.55 261.42,-447.16"/>
<polygon fill="#3cb4a4" stroke="#3cb4a4" points="263.76,-444.52 254.56,-439.28 258.48,-449.12 263.76,-444.52"/>
<text text-anchor="middle" x="287.5" y="-464.8" font-family="arial" font-size="14.00" fill="#3cb4a4">y</text>
</g>
<!-- node1350 -->
<g id="node16" class="node">
<title>node1350</title>
<polygon fill="#ffa500" stroke="black" points="440.5,-356 189.5,-356 189.5,-320 440.5,-320 440.5,-356"/>
<text text-anchor="middle" x="315" y="-334.3" font-family="Arial" font-size="14.00" fill="#1a1919">1350 Guard, else TransferToInterpreter</text>
</g>
<!-- node1263&#45;&gt;node1350 -->
<g id="edge9" class="edge">
<title>node1263&#45;&gt;node1350</title>
<path fill="none" stroke="#da2d4f" stroke-width="2" d="M316.8,-493.88C316.45,-464 315.73,-402.11 315.32,-366.27"/>
<polygon fill="#da2d4f" stroke="#da2d4f" stroke-width="2" points="318.81,-366.01 315.2,-356.05 311.81,-366.09 318.81,-366.01"/>
</g>
<!-- node1265&#45;&gt;node1350 -->
<g id="edge22" class="edge">
<title>node1265&#45;&gt;node1350</title>
<path fill="none" stroke="#3cb4a4" d="M254.57,-410.34C265.1,-397.91 280.91,-379.24 293.72,-364.12"/>
<polygon fill="#3cb4a4" stroke="#3cb4a4" points="296.68,-366.04 300.48,-356.15 291.34,-361.51 296.68,-366.04"/>
<text text-anchor="middle" x="287" y="-377.8" font-family="arial" font-size="14.00" fill="#3cb4a4">?</text>
</g>
<!-- node1294 -->
<g id="node10" class="node">
<title>node1294</title>
<polygon fill="#ffa500" stroke="black" points="378.5,-283 133.5,-283 133.5,-247 378.5,-247 378.5,-283"/>
<text text-anchor="middle" x="256" y="-261.3" font-family="Arial" font-size="14.00" fill="#1a1919">1294 Guard, else ClassCastException</text>
</g>
<!-- node1294&#45;&gt;node1296 -->
<g id="edge13" class="edge">
<title>node1294&#45;&gt;node1296</title>
<path fill="none" stroke="#da2d4f" stroke-width="2" d="M256,-246.81C256,-238.79 256,-229.05 256,-220.07"/>
<polygon fill="#da2d4f" stroke="#da2d4f" stroke-width="2" points="259.5,-220.03 256,-210.03 252.5,-220.03 259.5,-220.03"/>
</g>
<!-- node1295&#45;&gt;node1294 -->
<g id="edge12" class="edge">
<title>node1295&#45;&gt;node1294</title>
<path fill="none" stroke="#3cb4a4" d="M203.57,-628.74C197.78,-623.75 192.4,-617.79 189,-611 131.01,-495.34 121.35,-434.81 181,-320 187.61,-307.28 198.73,-296.87 210.42,-288.69"/>
<polygon fill="#3cb4a4" stroke="#3cb4a4" points="212.5,-291.52 218.98,-283.14 208.68,-285.65 212.5,-291.52"/>
<text text-anchor="middle" x="145" y="-464.8" font-family="arial" font-size="14.00" fill="#3cb4a4">?</text>
</g>
<!-- node1371 -->
<g id="node18" class="node">
<title>node1371</title>
<polygon fill="#f9f9f9" stroke="black" points="353.5,-123 158.5,-123 158.5,-87 353.5,-87 353.5,-123"/>
<text text-anchor="middle" x="256" y="-101.3" font-family="Arial" font-size="14.00" fill="#1a1919">1371 BoxNode$AllocatingBox</text>
</g>
<!-- node1296&#45;&gt;node1371 -->
<g id="edge16" class="edge">
<title>node1296&#45;&gt;node1371</title>
<path fill="none" stroke="#da2d4f" stroke-width="2" d="M254.83,-173.92C254.49,-168.22 254.17,-161.84 254,-156 253.79,-148.65 253.94,-140.69 254.23,-133.33"/>
<polygon fill="#da2d4f" stroke="#da2d4f" stroke-width="2" points="257.74,-133.28 254.73,-123.12 250.74,-132.94 257.74,-133.28"/>
</g>
<!-- node1296&#45;&gt;node1371 -->
<g id="edge26" class="edge">
<title>node1296&#45;&gt;node1371</title>
<path fill="none" stroke="#3cb4a4" d="M256,-173.8C256,-162.16 256,-146.55 256,-133.24"/>
<polygon fill="#3cb4a4" stroke="#3cb4a4" points="259.5,-133.18 256,-123.18 252.5,-133.18 259.5,-133.18"/>
<text text-anchor="middle" x="272.5" y="-144.8" font-family="arial" font-size="14.00" fill="#3cb4a4">value</text>
</g>
<!-- node1339 -->
<g id="node13" class="node">
<title>node1339</title>
<polygon fill="#e98693" stroke="black" points="301.5,-36 210.5,-36 210.5,0 301.5,0 301.5,-36"/>
<text text-anchor="middle" x="256" y="-14.3" font-family="Arial" font-size="14.00" fill="#1a1919">1339 Return</text>
</g>
<!-- node1348&#45;&gt;node1349 -->
<g id="edge19" class="edge">
<title>node1348&#45;&gt;node1349</title>
<path fill="none" stroke="#da2d4f" stroke-width="2" d="M415.88,-929.81C413.94,-921.7 411.58,-911.84 409.41,-902.78"/>
<polygon fill="#da2d4f" stroke="#da2d4f" stroke-width="2" points="412.81,-901.94 407.08,-893.03 406,-903.57 412.81,-901.94"/>
</g>
<!-- node1349&#45;&gt;node1249 -->
<g id="edge21" class="edge">
<title>node1349&#45;&gt;node1249</title>
<path fill="none" stroke="#da2d4f" stroke-width="2" d="M391.67,-856.8C383.7,-844.7 372.89,-828.3 363.91,-814.67"/>
<polygon fill="#da2d4f" stroke="#da2d4f" stroke-width="2" points="366.74,-812.6 358.32,-806.18 360.89,-816.45 366.74,-812.6"/>
</g>
<!-- node1350&#45;&gt;node1294 -->
<g id="edge23" class="edge">
<title>node1350&#45;&gt;node1294</title>
<path fill="none" stroke="#da2d4f" stroke-width="2" d="M300.72,-319.81C293.47,-311.09 284.54,-300.34 276.56,-290.75"/>
<polygon fill="#da2d4f" stroke="#da2d4f" stroke-width="2" points="279.23,-288.48 270.15,-283.03 273.85,-292.96 279.23,-288.48"/>
</g>
<!-- node1351&#45;&gt;node1263 -->
<g id="edge25" class="edge">
<title>node1351&#45;&gt;node1263</title>
<path fill="none" stroke="#da2d4f" stroke-width="2" d="M378.86,-574.86C367.88,-563.88 353.48,-549.48 341.33,-537.33"/>
<polygon fill="#da2d4f" stroke="#da2d4f" stroke-width="2" points="343.65,-534.7 334.11,-530.11 338.7,-539.65 343.65,-534.7"/>
</g>
<!-- node1371&#45;&gt;node1339 -->
<g id="edge17" class="edge">
<title>node1371&#45;&gt;node1339</title>
<path fill="none" stroke="#3cb4a4" d="M241.9,-86.84C238.28,-81.46 234.88,-75.27 233,-69 230.59,-60.93 232.56,-52.49 236.19,-44.89"/>
<polygon fill="#3cb4a4" stroke="#3cb4a4" points="239.29,-46.53 241.25,-36.12 233.22,-43.03 239.29,-46.53"/>
<text text-anchor="middle" x="250" y="-57.8" font-family="arial" font-size="14.00" fill="#3cb4a4">result</text>
</g>
<!-- node1371&#45;&gt;node1339 -->
<g id="edge27" class="edge">
<title>node1371&#45;&gt;node1339</title>
<path fill="none" stroke="#da2d4f" stroke-width="2" d="M262.55,-86.8C264.37,-81.21 266.09,-74.92 267,-69 268.17,-61.39 267.29,-53.2 265.61,-45.71"/>
<polygon fill="#da2d4f" stroke="#da2d4f" stroke-width="2" points="268.97,-44.74 262.94,-36.02 262.22,-46.59 268.97,-44.74"/>
</g>
<!-- node1372&#45;&gt;node682 -->
<g id="edge35" class="edge">
<title>node1372&#45;&gt;node682</title>
<path fill="none" stroke="#da2d4f" stroke-width="2" d="M78.75,-1271.86C88.02,-1261.09 100.13,-1247.02 110.46,-1235.02"/>
<polygon fill="#da2d4f" stroke="#da2d4f" stroke-width="2" points="113.4,-1236.97 117.27,-1227.11 108.1,-1232.4 113.4,-1236.97"/>
</g>
<!-- inline1108x1109 -->
<g id="node20" class="node">
<title>inline1108x1109</title>
<ellipse fill="#d7ede7" stroke="black" cx="682" cy="-1122" rx="74.11" ry="18"/>
<text text-anchor="middle" x="682" y="-1120.1" font-family="Arial" font-size="8.00" fill="#1a1919">1108 C(RubyClass@2ea96dd3)</text>
</g>
<!-- inline1108x1109&#45;&gt;node1109 -->
<g id="edge4" class="edge">
<title>inline1108x1109&#45;&gt;node1109</title>
<path fill="none" stroke="#3cb4a4" d="M650.67,-1105.61C616.01,-1088.58 561.06,-1061.58 530.79,-1046.7"/>
<text text-anchor="middle" x="607" y="-1076.6" font-family="arial" font-size="8.00" fill="#3cb4a4">y</text>
</g>
<!-- inline5x1190 -->
<g id="node21" class="node">
<title>inline5x1190</title>
<ellipse fill="#d7ede7" stroke="black" cx="218" cy="-1209" rx="27" ry="18"/>
<text text-anchor="middle" x="218" y="-1207.1" font-family="Arial" font-size="8.00" fill="#1a1919">5 C(0)</text>
</g>
<!-- inline5x1190&#45;&gt;node1190 -->
<g id="edge6" class="edge">
<title>inline5x1190&#45;&gt;node1190</title>
<path fill="none" stroke="#3cb4a4" d="M216.99,-1190.8C216.11,-1175.95 214.86,-1154.64 213.99,-1139.89"/>
<text text-anchor="middle" x="217" y="-1163.6" font-family="arial" font-size="8.00" fill="#3cb4a4">y</text>
</g>
<!-- inline161x1057 -->
<g id="node22" class="node">
<title>inline161x1057</title>
<ellipse fill="#d7ede7" stroke="black" cx="437" cy="-1209" rx="27.46" ry="18"/>
<text text-anchor="middle" x="437" y="-1207.1" font-family="Arial" font-size="8.00" fill="#1a1919">161 T(7)</text>
</g>
<!-- inline161x1057&#45;&gt;node1057 -->
<g id="edge29" class="edge">
<title>inline161x1057&#45;&gt;node1057</title>
<path fill="none" stroke="#3cb4a4" d="M437,-1190.8C437,-1176.05 437,-1154.92 437,-1140.18"/>
<text text-anchor="middle" x="448" y="-1163.6" font-family="arial" font-size="8.00" fill="#3cb4a4">object</text>
</g>
<!-- inline161x1249 -->
<g id="node23" class="node">
<title>inline161x1249</title>
<ellipse fill="#d7ede7" stroke="black" cx="221" cy="-875" rx="27.46" ry="18"/>
<text text-anchor="middle" x="221" y="-873.1" font-family="Arial" font-size="8.00" fill="#1a1919">161 T(7)</text>
</g>
<!-- inline161x1249&#45;&gt;node1249 -->
<g id="edge30" class="edge">
<title>inline161x1249&#45;&gt;node1249</title>
<path fill="none" stroke="#3cb4a4" d="M239.32,-861.64C261.03,-847 297.31,-822.52 321.69,-806.08"/>
<text text-anchor="middle" x="302" y="-829.6" font-family="arial" font-size="8.00" fill="#3cb4a4">object</text>
</g>
<!-- inline161x1263 -->
<g id="node24" class="node">
<title>inline161x1263</title>
<ellipse fill="#d7ede7" stroke="black" cx="225" cy="-593" rx="27.46" ry="18"/>
<text text-anchor="middle" x="225" y="-591.1" font-family="Arial" font-size="8.00" fill="#1a1919">161 T(7)</text>
</g>
<!-- inline161x1263&#45;&gt;node1263 -->
<g id="edge31" class="edge">
<title>inline161x1263&#45;&gt;node1263</title>
<path fill="none" stroke="#3cb4a4" d="M241.03,-578.24C256.57,-564.89 280.21,-544.59 296.99,-530.18"/>
<text text-anchor="middle" x="284" y="-550.6" font-family="arial" font-size="8.00" fill="#3cb4a4">object</text>
</g>
<!-- inline179x682 -->
<g id="node25" class="node">
<title>inline179x682</title>
<ellipse fill="#d7ede7" stroke="black" cx="166" cy="-1290" rx="27.46" ry="18"/>
<text text-anchor="middle" x="166" y="-1288.1" font-family="Arial" font-size="8.00" fill="#1a1919">179 T(8)</text>
</g>
<!-- inline179x682&#45;&gt;node682 -->
<g id="edge32" class="edge">
<title>inline179x682&#45;&gt;node682</title>
<path fill="none" stroke="#3cb4a4" d="M158.79,-1272.25C153.06,-1258.93 145.08,-1240.38 139.32,-1227"/>
<text text-anchor="middle" x="159.5" y="-1247.6" font-family="arial" font-size="8.00" fill="#3cb4a4">value</text>
</g>
<!-- inline2x1372 -->
<g id="node26" class="node">
<title>inline2x1372</title>
<ellipse fill="#d7ede7" stroke="black" cx="101" cy="-1371" rx="27" ry="18"/>
<text text-anchor="middle" x="101" y="-1369.1" font-family="Arial" font-size="8.00" fill="#1a1919">2 P(1)</text>
</g>
<!-- inline2x1372&#45;&gt;node1372 -->
<g id="edge33" class="edge">
<title>inline2x1372&#45;&gt;node1372</title>
<path fill="none" stroke="#3cb4a4" d="M93.33,-1353.63C87.11,-1340.34 78.36,-1321.67 72.04,-1308.17"/>
<text text-anchor="middle" x="92.5" y="-1328.6" font-family="arial" font-size="8.00" fill="#3cb4a4">array</text>
</g>
</g>
</svg>
