<?xml version="1.0" encoding="UTF-8" standalone="no"?>
<!DOCTYPE svg PUBLIC "-//W3C//DTD SVG 1.1//EN"
 "http://www.w3.org/Graphics/SVG/1.1/DTD/svg11.dtd">
<!-- Generated by graphviz version 2.44.0 (20200408.0750)
 -->
<!-- Title: G Pages: 1 -->
<svg width="398pt" height="299pt"
 viewBox="0.00 0.00 398.00 299.00" xmlns="http://www.w3.org/2000/svg" xmlns:xlink="http://www.w3.org/1999/xlink">
<g id="graph0" class="graph" transform="scale(1 1) rotate(0) translate(4 295)">
<title>G</title>
<!-- node0 -->
<g id="node1" class="node">
<title>node0</title>
<polygon fill="#e98693" stroke="black" points="186,-123 130,-123 130,-87 186,-87 186,-123"/>
<text text-anchor="middle" x="158" y="-101.3" font-family="Arial" font-size="14.00" fill="#1a1919">0 Start</text>
</g>
<!-- node7 -->
<g id="node4" class="node">
<title>node7</title>
<polygon fill="#e98693" stroke="black" points="233,-36 165,-36 165,0 233,0 233,-36"/>
<text text-anchor="middle" x="199" y="-14.3" font-family="Arial" font-size="14.00" fill="#1a1919">7 Return</text>
</g>
<!-- node0&#45;&gt;node7 -->
<g id="edge1" class="edge">
<title>node0&#45;&gt;node7</title>
<path fill="none" stroke="#da2d4f" stroke-width="2" d="M166.3,-86.8C172.02,-74.93 179.74,-58.93 186.24,-45.45"/>
<polygon fill="#da2d4f" stroke="#da2d4f" stroke-width="2" points="189.52,-46.7 190.72,-36.18 183.22,-43.66 189.52,-46.7"/>
</g>
<!-- node3 -->
<g id="node2" class="node">
<title>node3</title>
<polygon fill="#f9f9f9" stroke="black" points="246,-210 0,-210 0,-174 246,-174 246,-210"/>
<text text-anchor="middle" x="123" y="-188.3" font-family="Arial" font-size="14.00" fill="#1a1919">3 InstanceOf JavaExamples$OneImpl</text>
</g>
<!-- node6 -->
<g id="node3" class="node">
<title>node6</title>
<polygon fill="#3cb4a4" stroke="black" points="291,-123 203.86,-105 291,-87 378.14,-105 291,-123"/>
<text text-anchor="middle" x="291" y="-101.3" font-family="Arial" font-size="14.00" fill="#1a1919">6 Conditional</text>
</g>
<!-- node3&#45;&gt;node6 -->
<g id="edge3" class="edge">
<title>node3&#45;&gt;node6</title>
<path fill="none" stroke="#3cb4a4" d="M157,-173.8C186.5,-158.87 228.94,-137.4 258.11,-122.64"/>
<polygon fill="#3cb4a4" stroke="#3cb4a4" points="259.74,-125.74 267.08,-118.1 256.58,-119.49 259.74,-125.74"/>
<text text-anchor="middle" x="222" y="-144.8" font-family="arial" font-size="14.00" fill="#3cb4a4">?</text>
</g>
<!-- node6&#45;&gt;node7 -->
<g id="edge6" class="edge">
<title>node6&#45;&gt;node7</title>
<path fill="none" stroke="#3cb4a4" d="M275.81,-89.96C262.12,-77.32 241.71,-58.46 225.36,-43.36"/>
<polygon fill="#3cb4a4" stroke="#3cb4a4" points="227.43,-40.51 217.71,-36.29 222.68,-45.65 227.43,-40.51"/>
<text text-anchor="middle" x="286" y="-57.8" font-family="arial" font-size="14.00" fill="#3cb4a4">result [0 &#45; 1]</text>
</g>
<!-- inline1x3 -->
<g id="node5" class="node">
<title>inline1x3</title>
<ellipse fill="#d7ede7" stroke="black" cx="123" cy="-273" rx="27" ry="18"/>
<text text-anchor="middle" x="123" y="-271.1" font-family="Arial" font-size="8.00" fill="#1a1919">1 P(0)</text>
</g>
<!-- inline1x3&#45;&gt;node3 -->
<g id="edge2" class="edge">
<title>inline1x3&#45;&gt;node3</title>
<path fill="none" stroke="#3cb4a4" d="M123,-254.86C123,-241.61 123,-223.35 123,-210.11"/>
<text text-anchor="middle" x="132.5" y="-230.6" font-family="arial" font-size="8.00" fill="#3cb4a4">value</text>
</g>
<!-- inline4x6 -->
<g id="node6" class="node">
<title>inline4x6</title>
<ellipse fill="#d7ede7" stroke="black" cx="291" cy="-192" rx="27" ry="18"/>
<text text-anchor="middle" x="291" y="-190.1" font-family="Arial" font-size="8.00" fill="#1a1919">4 C(1)</text>
</g>
<!-- inline4x6&#45;&gt;node6 -->
<g id="edge4" class="edge">
<title>inline4x6&#45;&gt;node6</title>
<path fill="none" stroke="#3cb4a4" d="M291,-173.8C291,-159.05 291,-137.92 291,-123.18"/>
<text text-anchor="middle" x="308" y="-146.6" font-family="arial" font-size="8.00" fill="#3cb4a4">trueValue</text>
</g>
<!-- inline5x6 -->
<g id="node7" class="node">
<title>inline5x6</title>
<ellipse fill="#d7ede7" stroke="black" cx="363" cy="-192" rx="27" ry="18"/>
<text text-anchor="middle" x="363" y="-190.1" font-family="Arial" font-size="8.00" fill="#1a1919">5 C(0)</text>
</g>
<!-- inline5x6&#45;&gt;node6 -->
<g id="edge5" class="edge">
<title>inline5x6&#45;&gt;node6</title>
<path fill="none" stroke="#3cb4a4" d="M353.45,-175.01C347.07,-164.85 338.19,-151.65 329,-141 322.56,-133.53 314.63,-126.02 307.69,-119.88"/>
<text text-anchor="middle" x="358.5" y="-146.6" font-family="arial" font-size="8.00" fill="#3cb4a4">falseValue</text>
</g>
</g>
</svg>
