<?xml version="1.0" encoding="UTF-8" standalone="no"?>
<!DOCTYPE svg PUBLIC "-//W3C//DTD SVG 1.1//EN"
 "http://www.w3.org/Graphics/SVG/1.1/DTD/svg11.dtd">
<!-- Generated by graphviz version 2.44.1 (20200629.0846)
 -->
<!-- Title: G Pages: 1 -->
<svg width="1096pt" height="1578pt"
 viewBox="0.00 0.00 1095.50 1578.00" xmlns="http://www.w3.org/2000/svg" xmlns:xlink="http://www.w3.org/1999/xlink">
<g id="graph0" class="graph" transform="scale(1 1) rotate(0) translate(4 1574)">
<title>G</title>
<!-- node0 -->
<g id="node1" class="node">
<title>node0</title>
<polygon fill="#e98693" stroke="black" points="875.5,-1570 819.5,-1570 819.5,-1534 875.5,-1534 875.5,-1570"/>
<text text-anchor="middle" x="847.5" y="-1548.3" font-family="Arial" font-size="14.00" fill="#1a1919">0 Start</text>
</g>
<!-- node2201 -->
<g id="node27" class="node">
<title>node2201</title>
<polygon fill="#da2d4f" stroke="black" points="940,-1489 827,-1489 827,-1453 940,-1453 940,-1489"/>
<text text-anchor="middle" x="883.5" y="-1467.3" font-family="Arial" font-size="14.00" fill="#ffffff">2201 Load T(...)</text>
</g>
<!-- node0&#45;&gt;node2201 -->
<g id="edge49" class="edge">
<title>node0&#45;&gt;node2201</title>
<path fill="none" stroke="#da2d4f" stroke-width="2" d="M855.31,-1533.86C860.03,-1523.51 866.14,-1510.1 871.46,-1498.41"/>
<polygon fill="#da2d4f" stroke="#da2d4f" stroke-width="2" points="874.74,-1499.66 875.7,-1489.11 868.37,-1496.76 874.74,-1499.66"/>
</g>
<!-- node545 -->
<g id="node2" class="node">
<title>node545</title>
<polygon fill="#f9f9f9" stroke="black" points="992.5,-1408 910.5,-1408 910.5,-1372 992.5,-1372 992.5,-1408"/>
<text text-anchor="middle" x="951.5" y="-1386.3" font-family="Arial" font-size="14.00" fill="#1a1919">545 Unbox</text>
</g>
<!-- node700 -->
<g id="node3" class="node">
<title>node700</title>
<polygon fill="#f9f9f9" stroke="black" points="705.5,-1327 623.5,-1327 623.5,-1291 705.5,-1291 705.5,-1327"/>
<text text-anchor="middle" x="664.5" y="-1305.3" font-family="Arial" font-size="14.00" fill="#1a1919">700 Unbox</text>
</g>
<!-- node545&#45;&gt;node700 -->
<g id="edge1" class="edge">
<title>node545&#45;&gt;node700</title>
<path fill="none" stroke="#da2d4f" stroke-width="2" d="M910.38,-1377.68C858.91,-1363.51 770.78,-1339.25 715.19,-1323.95"/>
<polygon fill="#da2d4f" stroke="#da2d4f" stroke-width="2" points="716.11,-1320.58 705.54,-1321.3 714.26,-1327.33 716.11,-1320.58"/>
</g>
<!-- node1134 -->
<g id="node6" class="node">
<title>node1134</title>
<polygon fill="#3cb4a4" stroke="black" points="455.5,-1240 268.82,-1222 455.5,-1204 642.18,-1222 455.5,-1240"/>
<text text-anchor="middle" x="455.5" y="-1218.3" font-family="Arial" font-size="14.00" fill="#1a1919">1134 IntegerAddExactOverflow</text>
</g>
<!-- node545&#45;&gt;node1134 -->
<g id="edge5" class="edge">
<title>node545&#45;&gt;node1134</title>
<path fill="none" stroke="#3cb4a4" d="M914.74,-1371.97C868.64,-1351.05 786.88,-1315.34 714.5,-1291 648.89,-1268.93 571.98,-1249.53 519.11,-1237.16"/>
<polygon fill="#3cb4a4" stroke="#3cb4a4" points="519.73,-1233.71 509.2,-1234.86 518.15,-1240.53 519.73,-1233.71"/>
<text text-anchor="middle" x="814" y="-1305.3" font-family="arial" font-size="14.00" fill="#3cb4a4">x</text>
</g>
<!-- node1136 -->
<g id="node7" class="node">
<title>node1136</title>
<polygon fill="#3cb4a4" stroke="black" points="933.5,-732 796.59,-714 933.5,-696 1070.41,-714 933.5,-732"/>
<text text-anchor="middle" x="933.5" y="-710.3" font-family="Arial" font-size="14.00" fill="#1a1919">1136 IntegerAddExact</text>
</g>
<!-- node545&#45;&gt;node1136 -->
<g id="edge7" class="edge">
<title>node545&#45;&gt;node1136</title>
<path fill="none" stroke="#3cb4a4" d="M964.14,-1371.77C974.16,-1356.38 986.5,-1332.8 986.5,-1310 986.5,-1310 986.5,-1310 986.5,-786 986.5,-766.71 973.78,-749.29 960.81,-736.52"/>
<polygon fill="#3cb4a4" stroke="#3cb4a4" points="962.97,-733.75 953.24,-729.57 958.24,-738.91 962.97,-733.75"/>
<text text-anchor="middle" x="990" y="-1044.3" font-family="arial" font-size="14.00" fill="#3cb4a4">x</text>
</g>
<!-- node700&#45;&gt;node1134 -->
<g id="edge6" class="edge">
<title>node700&#45;&gt;node1134</title>
<path fill="none" stroke="#3cb4a4" d="M623.21,-1291.21C587.28,-1276.59 535.38,-1255.49 498.86,-1240.63"/>
<polygon fill="#3cb4a4" stroke="#3cb4a4" points="500.04,-1237.34 489.46,-1236.81 497.4,-1243.82 500.04,-1237.34"/>
<text text-anchor="middle" x="577" y="-1261.8" font-family="arial" font-size="14.00" fill="#3cb4a4">y</text>
</g>
<!-- node700&#45;&gt;node1136 -->
<g id="edge8" class="edge">
<title>node700&#45;&gt;node1136</title>
<path fill="none" stroke="#3cb4a4" d="M705.55,-1292.58C707.22,-1292.03 708.87,-1291.5 710.5,-1291 799.8,-1263.43 846.49,-1304.1 914.5,-1240 935.01,-1220.67 933.5,-1207.68 933.5,-1179.5 933.5,-1179.5 933.5,-1179.5 933.5,-786 933.5,-771.65 933.5,-755.67 933.5,-742.51"/>
<polygon fill="#3cb4a4" stroke="#3cb4a4" points="937,-742.22 933.5,-732.22 930,-742.22 937,-742.22"/>
<text text-anchor="middle" x="937" y="-1000.8" font-family="arial" font-size="14.00" fill="#3cb4a4">y</text>
</g>
<!-- node2165 -->
<g id="node21" class="node">
<title>node2165</title>
<polygon fill="#ffa500" stroke="black" points="251,-1240 0,-1240 0,-1204 251,-1204 251,-1240"/>
<text text-anchor="middle" x="125.5" y="-1218.3" font-family="Arial" font-size="14.00" fill="#1a1919">2165 Guard, else TransferToInterpreter</text>
</g>
<!-- node700&#45;&gt;node2165 -->
<g id="edge2" class="edge">
<title>node700&#45;&gt;node2165</title>
<path fill="none" stroke="#da2d4f" stroke-width="2" d="M623.1,-1301.47C542.84,-1288.81 363.42,-1260.52 243.43,-1241.6"/>
<polygon fill="#da2d4f" stroke="#da2d4f" stroke-width="2" points="243.87,-1238.12 233.45,-1240.02 242.78,-1245.04 243.87,-1238.12"/>
</g>
<!-- node774 -->
<g id="node4" class="node">
<title>node774</title>
<polygon fill="#3cb4a4" stroke="black" points="125.5,-1327 54.95,-1309 125.5,-1291 196.05,-1309 125.5,-1327"/>
<text text-anchor="middle" x="125.5" y="-1305.3" font-family="Arial" font-size="14.00" fill="#1a1919">774 IsNull</text>
</g>
<!-- node774&#45;&gt;node2165 -->
<g id="edge33" class="edge">
<title>node774&#45;&gt;node2165</title>
<path fill="none" stroke="#3cb4a4" d="M125.5,-1290.8C125.5,-1279.16 125.5,-1263.55 125.5,-1250.24"/>
<polygon fill="#3cb4a4" stroke="#3cb4a4" points="129,-1250.18 125.5,-1240.18 122,-1250.18 129,-1250.18"/>
<text text-anchor="middle" x="129.5" y="-1261.8" font-family="arial" font-size="14.00" fill="#3cb4a4">?</text>
</g>
<!-- node1133 -->
<g id="node5" class="node">
<title>node1133</title>
<polygon fill="#ffa500" stroke="black" points="568.5,-1153 302.5,-1153 302.5,-1117 568.5,-1117 568.5,-1153"/>
<text text-anchor="middle" x="435.5" y="-1131.3" font-family="Arial" font-size="14.00" fill="#1a1919">1133 Guard not, else ArithmeticException</text>
</g>
<!-- node1133&#45;&gt;node1136 -->
<g id="edge9" class="edge">
<title>node1133&#45;&gt;node1136</title>
<path fill="none" stroke="#3cb4a4" d="M568.5,-1128.88C677.38,-1120.93 813.5,-1100.67 813.5,-1049 813.5,-1049 813.5,-1049 813.5,-786 813.5,-755.99 841.65,-738.39 870.68,-728.23"/>
<polygon fill="#3cb4a4" stroke="#3cb4a4" points="872.07,-731.45 880.52,-725.06 869.93,-724.79 872.07,-731.45"/>
<text text-anchor="middle" x="831" y="-913.8" font-family="arial" font-size="14.00" fill="#3cb4a4">guard</text>
</g>
<!-- node2169 -->
<g id="node22" class="node">
<title>node2169</title>
<polygon fill="#ffa500" stroke="black" points="530,-1066 279,-1066 279,-1030 530,-1030 530,-1066"/>
<text text-anchor="middle" x="404.5" y="-1044.3" font-family="Arial" font-size="14.00" fill="#1a1919">2169 Guard, else TransferToInterpreter</text>
</g>
<!-- node1133&#45;&gt;node2169 -->
<g id="edge4" class="edge">
<title>node1133&#45;&gt;node2169</title>
<path fill="none" stroke="#da2d4f" stroke-width="2" d="M429.23,-1116.8C424.94,-1105.05 419.18,-1089.24 414.29,-1075.84"/>
<polygon fill="#da2d4f" stroke="#da2d4f" stroke-width="2" points="417.48,-1074.37 410.76,-1066.18 410.9,-1076.77 417.48,-1074.37"/>
</g>
<!-- node1134&#45;&gt;node1133 -->
<g id="edge3" class="edge">
<title>node1134&#45;&gt;node1133</title>
<path fill="none" stroke="#3cb4a4" d="M451.55,-1204.21C448.77,-1192.41 445,-1176.38 441.81,-1162.82"/>
<polygon fill="#3cb4a4" stroke="#3cb4a4" points="445.21,-1161.98 439.51,-1153.05 438.4,-1163.59 445.21,-1161.98"/>
<text text-anchor="middle" x="451.5" y="-1174.8" font-family="arial" font-size="14.00" fill="#3cb4a4">?</text>
</g>
<!-- node1866 -->
<g id="node10" class="node">
<title>node1866</title>
<polygon fill="#3cb4a4" stroke="black" points="711.5,-645 524.82,-627 711.5,-609 898.18,-627 711.5,-645"/>
<text text-anchor="middle" x="711.5" y="-623.3" font-family="Arial" font-size="14.00" fill="#1a1919">1866 IntegerMulExactOverflow</text>
</g>
<!-- node1136&#45;&gt;node1866 -->
<g id="edge13" class="edge">
<title>node1136&#45;&gt;node1866</title>
<path fill="none" stroke="#3cb4a4" d="M900.26,-700.27C862.11,-685.67 799.32,-661.63 756.74,-645.32"/>
<polygon fill="#3cb4a4" stroke="#3cb4a4" points="757.76,-641.97 747.17,-641.66 755.26,-648.5 757.76,-641.97"/>
<text text-anchor="middle" x="840" y="-666.8" font-family="arial" font-size="14.00" fill="#3cb4a4">x</text>
</g>
<!-- node1868 -->
<g id="node11" class="node">
<title>node1868</title>
<polygon fill="#3cb4a4" stroke="black" points="483.5,-471 346.59,-453 483.5,-435 620.41,-453 483.5,-471"/>
<text text-anchor="middle" x="483.5" y="-449.3" font-family="Arial" font-size="14.00" fill="#1a1919">1868 IntegerMulExact</text>
</g>
<!-- node1136&#45;&gt;node1868 -->
<g id="edge15" class="edge">
<title>node1136&#45;&gt;node1868</title>
<path fill="none" stroke="#3cb4a4" d="M933.27,-695.74C932.12,-673.52 927.19,-634.71 907.5,-609 830.33,-508.23 681.13,-472.93 581.91,-460.59"/>
<polygon fill="#3cb4a4" stroke="#3cb4a4" points="582.21,-457.1 571.87,-459.4 581.38,-464.05 582.21,-457.1"/>
<text text-anchor="middle" x="893" y="-579.8" font-family="arial" font-size="14.00" fill="#3cb4a4">x</text>
</g>
<!-- node2086 -->
<g id="node13" class="node">
<title>node2086</title>
<polygon fill="#3cb4a4" stroke="black" points="864.5,-384 676.98,-366 864.5,-348 1052.02,-366 864.5,-384"/>
<text text-anchor="middle" x="864.5" y="-362.3" font-family="Arial" font-size="14.00" fill="#1a1919">2086 IntegerAddExactOverflow</text>
</g>
<!-- node1136&#45;&gt;node2086 -->
<g id="edge20" class="edge">
<title>node1136&#45;&gt;node2086</title>
<path fill="none" stroke="#3cb4a4" d="M945.63,-697.37C957.07,-681.02 972.5,-654.14 972.5,-628 972.5,-628 972.5,-628 972.5,-452 972.5,-419.7 942.31,-397.8 913.85,-384.32"/>
<polygon fill="#3cb4a4" stroke="#3cb4a4" points="915.27,-381.12 904.72,-380.24 912.42,-387.52 915.27,-381.12"/>
<text text-anchor="middle" x="976" y="-536.3" font-family="arial" font-size="14.00" fill="#3cb4a4">x</text>
</g>
<!-- node2088 -->
<g id="node14" class="node">
<title>node2088</title>
<polygon fill="#3cb4a4" stroke="black" points="603.5,-210 465.75,-192 603.5,-174 741.25,-192 603.5,-210"/>
<text text-anchor="middle" x="603.5" y="-188.3" font-family="Arial" font-size="14.00" fill="#1a1919">2088 IntegerAddExact</text>
</g>
<!-- node1136&#45;&gt;node2088 -->
<g id="edge22" class="edge">
<title>node1136&#45;&gt;node2088</title>
<path fill="none" stroke="#3cb4a4" d="M990.75,-703.46C1032.03,-692.93 1080.5,-671.34 1080.5,-628 1080.5,-628 1080.5,-628 1080.5,-278 1080.5,-239.3 834.03,-212.32 695.43,-200.2"/>
<polygon fill="#3cb4a4" stroke="#3cb4a4" points="695.49,-196.7 685.23,-199.32 694.89,-203.67 695.49,-196.7"/>
<text text-anchor="middle" x="1084" y="-449.3" font-family="arial" font-size="14.00" fill="#3cb4a4">x</text>
</g>
<!-- node1359 -->
<g id="node8" class="node">
<title>node1359</title>
<polygon fill="#3cb4a4" stroke="black" points="843.5,-1153 781.83,-1135 843.5,-1117 905.17,-1135 843.5,-1153"/>
<text text-anchor="middle" x="843.5" y="-1131.3" font-family="Arial" font-size="14.00" fill="#1a1919">1359 ==</text>
</g>
<!-- node1359&#45;&gt;node2169 -->
<g id="edge35" class="edge">
<title>node1359&#45;&gt;node2169</title>
<path fill="none" stroke="#3cb4a4" d="M808.32,-1127.19C742.62,-1114.47 599.17,-1086.69 502.17,-1067.91"/>
<polygon fill="#3cb4a4" stroke="#3cb4a4" points="502.83,-1064.47 492.34,-1066.01 501.5,-1071.35 502.83,-1064.47"/>
<text text-anchor="middle" x="654.5" y="-1087.8" font-family="arial" font-size="14.00" fill="#3cb4a4">?</text>
</g>
<!-- node1865 -->
<g id="node9" class="node">
<title>node1865</title>
<polygon fill="#ffa500" stroke="black" points="742.5,-558 476.5,-558 476.5,-522 742.5,-522 742.5,-558"/>
<text text-anchor="middle" x="609.5" y="-536.3" font-family="Arial" font-size="14.00" fill="#1a1919">1865 Guard not, else ArithmeticException</text>
</g>
<!-- node1865&#45;&gt;node1868 -->
<g id="edge17" class="edge">
<title>node1865&#45;&gt;node1868</title>
<path fill="none" stroke="#3cb4a4" d="M584,-521.8C563.52,-507.98 534.74,-488.56 513.22,-474.05"/>
<polygon fill="#3cb4a4" stroke="#3cb4a4" points="515.02,-471.04 504.78,-468.35 511.11,-476.85 515.02,-471.04"/>
<text text-anchor="middle" x="572" y="-492.8" font-family="arial" font-size="14.00" fill="#3cb4a4">guard</text>
</g>
<!-- node2085 -->
<g id="node12" class="node">
<title>node2085</title>
<polygon fill="#ffa500" stroke="black" points="860.5,-297 594.5,-297 594.5,-261 860.5,-261 860.5,-297"/>
<text text-anchor="middle" x="727.5" y="-275.3" font-family="Arial" font-size="14.00" fill="#1a1919">2085 Guard not, else ArithmeticException</text>
</g>
<!-- node1865&#45;&gt;node2085 -->
<g id="edge12" class="edge">
<title>node1865&#45;&gt;node2085</title>
<path fill="none" stroke="#da2d4f" stroke-width="2" d="M614.62,-521.79C628.39,-475.57 665.31,-351.93 667.5,-348 676.46,-331.95 689.73,-316.39 701.51,-304.22"/>
<polygon fill="#da2d4f" stroke="#da2d4f" stroke-width="2" points="704.02,-306.66 708.6,-297.1 699.06,-301.71 704.02,-306.66"/>
</g>
<!-- node1866&#45;&gt;node1865 -->
<g id="edge11" class="edge">
<title>node1866&#45;&gt;node1865</title>
<path fill="none" stroke="#3cb4a4" d="M692.79,-610.41C677.43,-597.61 655.43,-579.27 637.9,-564.66"/>
<polygon fill="#3cb4a4" stroke="#3cb4a4" points="640.12,-561.96 630.19,-558.25 635.64,-567.34 640.12,-561.96"/>
<text text-anchor="middle" x="671.5" y="-579.8" font-family="arial" font-size="14.00" fill="#3cb4a4">?</text>
</g>
<!-- node1868&#45;&gt;node2086 -->
<g id="edge21" class="edge">
<title>node1868&#45;&gt;node2086</title>
<path fill="none" stroke="#3cb4a4" d="M531.75,-441.23C600.17,-425.97 725.45,-398.02 801.23,-381.11"/>
<polygon fill="#3cb4a4" stroke="#3cb4a4" points="802.13,-384.5 811.13,-378.91 800.61,-377.67 802.13,-384.5"/>
<text text-anchor="middle" x="701" y="-405.8" font-family="arial" font-size="14.00" fill="#3cb4a4">y</text>
</g>
<!-- node1868&#45;&gt;node2088 -->
<g id="edge23" class="edge">
<title>node1868&#45;&gt;node2088</title>
<path fill="none" stroke="#3cb4a4" d="M491.01,-435.8C511.25,-392.1 567.1,-271.56 591.66,-218.56"/>
<polygon fill="#3cb4a4" stroke="#3cb4a4" points="594.97,-219.74 596,-209.2 588.62,-216.8 594.97,-219.74"/>
<text text-anchor="middle" x="550" y="-318.8" font-family="arial" font-size="14.00" fill="#3cb4a4">y</text>
</g>
<!-- node2085&#45;&gt;node2088 -->
<g id="edge24" class="edge">
<title>node2085&#45;&gt;node2088</title>
<path fill="none" stroke="#3cb4a4" d="M702.41,-260.8C682.25,-246.98 653.92,-227.56 632.74,-213.05"/>
<polygon fill="#3cb4a4" stroke="#3cb4a4" points="634.67,-210.12 624.44,-207.35 630.71,-215.89 634.67,-210.12"/>
<text text-anchor="middle" x="691" y="-231.8" font-family="arial" font-size="14.00" fill="#3cb4a4">guard</text>
</g>
<!-- node2200 -->
<g id="node26" class="node">
<title>node2200</title>
<polygon fill="#f9f9f9" stroke="black" points="784,-123 589,-123 589,-87 784,-87 784,-123"/>
<text text-anchor="middle" x="686.5" y="-101.3" font-family="Arial" font-size="14.00" fill="#1a1919">2200 BoxNode$AllocatingBox</text>
</g>
<!-- node2085&#45;&gt;node2200 -->
<g id="edge19" class="edge">
<title>node2085&#45;&gt;node2200</title>
<path fill="none" stroke="#da2d4f" stroke-width="2" d="M737.28,-260.94C747.98,-239.92 762.16,-203.39 750.5,-174 743.72,-156.9 730.38,-141.6 717.62,-129.87"/>
<polygon fill="#da2d4f" stroke="#da2d4f" stroke-width="2" points="719.65,-126.99 709.82,-123.04 715.04,-132.26 719.65,-126.99"/>
</g>
<!-- node2086&#45;&gt;node2085 -->
<g id="edge18" class="edge">
<title>node2086&#45;&gt;node2085</title>
<path fill="none" stroke="#3cb4a4" d="M840.64,-350.19C819.47,-337.06 788.23,-317.68 763.94,-302.61"/>
<polygon fill="#3cb4a4" stroke="#3cb4a4" points="765.68,-299.57 755.34,-297.27 761.99,-305.52 765.68,-299.57"/>
<text text-anchor="middle" x="808.5" y="-318.8" font-family="arial" font-size="14.00" fill="#3cb4a4">?</text>
</g>
<!-- node2088&#45;&gt;node2200 -->
<g id="edge41" class="edge">
<title>node2088&#45;&gt;node2200</title>
<path fill="none" stroke="#3cb4a4" d="M618.34,-175.8C630.65,-163.2 648.38,-145.03 662.68,-130.4"/>
<polygon fill="#3cb4a4" stroke="#3cb4a4" points="665.31,-132.71 669.79,-123.11 660.3,-127.82 665.31,-132.71"/>
<text text-anchor="middle" x="667" y="-144.8" font-family="arial" font-size="14.00" fill="#3cb4a4">value</text>
</g>
<!-- node2117 -->
<g id="node15" class="node">
<title>node2117</title>
<polygon fill="#e98693" stroke="black" points="731.5,-36 641.5,-36 641.5,0 731.5,0 731.5,-36"/>
<text text-anchor="middle" x="686.5" y="-14.3" font-family="Arial" font-size="14.00" fill="#1a1919">2117 Return</text>
</g>
<!-- node2146 -->
<g id="node16" class="node">
<title>node2146</title>
<polygon fill="#da2d4f" stroke="black" points="563.5,-732 273.5,-732 273.5,-696 563.5,-696 563.5,-732"/>
<text text-anchor="middle" x="418.5" y="-710.3" font-family="Arial" font-size="14.00" fill="#ffffff">2146 Call OptimizedCallTarget.callBoundary !</text>
</g>
<!-- node2150 -->
<g id="node18" class="node">
<title>node2150</title>
<polygon fill="#e98693" stroke="black" points="507,-645 386,-645 386,-609 507,-609 507,-645"/>
<text text-anchor="middle" x="446.5" y="-623.3" font-family="Arial" font-size="14.00" fill="#1a1919">2150 KillingBegin</text>
</g>
<!-- node2146&#45;&gt;node2150 -->
<g id="edge27" class="edge">
<title>node2146&#45;&gt;node2150</title>
<path fill="none" stroke="#da2d4f" stroke-width="2" d="M424.17,-695.8C428.04,-684.05 433.25,-668.24 437.66,-654.84"/>
<polygon fill="#da2d4f" stroke="#da2d4f" stroke-width="2" points="441.04,-655.77 440.84,-645.18 434.39,-653.58 441.04,-655.77"/>
</g>
<!-- node2151 -->
<g id="node19" class="node">
<title>node2151</title>
<polygon fill="#f9f9f9" stroke="black" points="368,-645 219,-645 219,-609 368,-609 368,-645"/>
<text text-anchor="middle" x="293.5" y="-623.3" font-family="Arial" font-size="14.00" fill="#1a1919">2151 ExceptionObject</text>
</g>
<!-- node2146&#45;&gt;node2151 -->
<g id="edge28" class="edge">
<title>node2146&#45;&gt;node2151</title>
<path fill="none" stroke="#da2d4f" stroke-width="2" d="M393.2,-695.8C374.23,-682.9 348.06,-665.1 327.29,-650.98"/>
<polygon fill="#da2d4f" stroke="#da2d4f" stroke-width="2" points="329,-647.9 318.76,-645.18 325.06,-653.69 329,-647.9"/>
<text text-anchor="middle" x="385" y="-666.8" font-family="arial" font-size="14.00" fill="#da2d4f">unwind</text>
</g>
<!-- node2147 -->
<g id="node17" class="node">
<title>node2147</title>
<polygon fill="#f9f9f9" stroke="black" points="592,-805 435,-805 435,-769 592,-769 592,-805"/>
<text text-anchor="middle" x="513.5" y="-783.3" font-family="Arial" font-size="14.00" fill="#1a1919">2147 MethodCallTarget</text>
</g>
<!-- node2147&#45;&gt;node2146 -->
<g id="edge26" class="edge">
<title>node2147&#45;&gt;node2146</title>
<path fill="none" stroke="#343d46" stroke-dasharray="5,2" d="M482.45,-762.8C469.04,-752.77 453.62,-741.25 441.29,-732.03"/>
<polygon fill="#343d46" stroke="#343d46" points="480.4,-765.63 490.5,-768.81 484.59,-760.02 480.4,-765.63"/>
</g>
<!-- node2150&#45;&gt;node1865 -->
<g id="edge31" class="edge">
<title>node2150&#45;&gt;node1865</title>
<path fill="none" stroke="#da2d4f" stroke-width="2" d="M479.49,-608.8C504.98,-595.51 540.42,-577.02 567.87,-562.71"/>
<polygon fill="#da2d4f" stroke="#da2d4f" stroke-width="2" points="569.59,-565.76 576.84,-558.03 566.36,-559.55 569.59,-565.76"/>
</g>
<!-- node2156 -->
<g id="node20" class="node">
<title>node2156</title>
<polygon fill="#da2d4f" stroke="black" points="442,-558 225,-558 225,-522 442,-522 442,-558"/>
<text text-anchor="middle" x="333.5" y="-536.3" font-family="Arial" font-size="14.00" fill="#ffffff">2156 Deopt TransferToInterpreter</text>
</g>
<!-- node2151&#45;&gt;node2156 -->
<g id="edge32" class="edge">
<title>node2151&#45;&gt;node2156</title>
<path fill="none" stroke="#da2d4f" stroke-width="2" d="M301.59,-608.8C307.18,-596.93 314.71,-580.93 321.05,-567.45"/>
<polygon fill="#da2d4f" stroke="#da2d4f" stroke-width="2" points="324.33,-568.71 325.42,-558.18 317.99,-565.73 324.33,-568.71"/>
</g>
<!-- node2165&#45;&gt;node1133 -->
<g id="edge34" class="edge">
<title>node2165&#45;&gt;node1133</title>
<path fill="none" stroke="#da2d4f" stroke-width="2" d="M187.86,-1203.9C238.63,-1189.98 310.34,-1170.32 363.53,-1155.73"/>
<polygon fill="#da2d4f" stroke="#da2d4f" stroke-width="2" points="364.52,-1159.09 373.24,-1153.07 362.67,-1152.34 364.52,-1159.09"/>
</g>
<!-- node2190 -->
<g id="node24" class="node">
<title>node2190</title>
<polygon fill="#da2d4f" stroke="black" points="446,-979 367,-979 367,-943 446,-943 446,-979"/>
<text text-anchor="middle" x="406.5" y="-957.3" font-family="Arial" font-size="14.00" fill="#ffffff">2190 Alloc</text>
</g>
<!-- node2169&#45;&gt;node2190 -->
<g id="edge36" class="edge">
<title>node2169&#45;&gt;node2190</title>
<path fill="none" stroke="#da2d4f" stroke-width="2" d="M404.9,-1029.8C405.18,-1018.16 405.55,-1002.55 405.86,-989.24"/>
<polygon fill="#da2d4f" stroke="#da2d4f" stroke-width="2" points="409.36,-989.26 406.1,-979.18 402.36,-989.09 409.36,-989.26"/>
</g>
<!-- node2187 -->
<g id="node23" class="node">
<title>node2187</title>
<polygon fill="#343d46" stroke="black" points="785,-1066 548,-1066 548,-1030 785,-1030 785,-1066"/>
<text text-anchor="middle" x="666.5" y="-1044.3" font-family="Arial" font-size="14.00" fill="#ffffff">2187 VirtualArray java.lang.Object[7]</text>
</g>
<!-- node2187&#45;&gt;node2190 -->
<g id="edge37" class="edge">
<title>node2187&#45;&gt;node2190</title>
<path fill="none" stroke="#3cb4a4" d="M614.2,-1029.9C568.05,-1014.82 501.28,-992.99 456,-978.18"/>
<polygon fill="#3cb4a4" stroke="#3cb4a4" points="456.99,-974.82 446.4,-975.04 454.81,-981.48 456.99,-974.82"/>
<text text-anchor="middle" x="594" y="-1000.8" font-family="arial" font-size="14.00" fill="#3cb4a4">virtualObjects</text>
</g>
<!-- node2191 -->
<g id="node25" class="node">
<title>node2191</title>
<polygon fill="#343d46" stroke="black" points="737,-892 592,-892 592,-856 737,-856 737,-892"/>
<text text-anchor="middle" x="664.5" y="-870.3" font-family="Arial" font-size="14.00" fill="#ffffff">2191 AllocatedObject</text>
</g>
<!-- node2187&#45;&gt;node2191 -->
<g id="edge39" class="edge">
<title>node2187&#45;&gt;node2191</title>
<path fill="none" stroke="#3cb4a4" d="M666.3,-1029.88C665.95,-1000 665.23,-938.11 664.82,-902.27"/>
<polygon fill="#3cb4a4" stroke="#3cb4a4" points="668.31,-902.01 664.7,-892.05 661.31,-902.09 668.31,-902.01"/>
<text text-anchor="middle" x="704.5" y="-957.3" font-family="arial" font-size="14.00" fill="#3cb4a4">virtualObject</text>
</g>
<!-- node2190&#45;&gt;node2146 -->
<g id="edge38" class="edge">
<title>node2190&#45;&gt;node2146</title>
<path fill="none" stroke="#da2d4f" stroke-width="2" d="M407.34,-942.77C409.4,-900.86 414.66,-793.31 417.16,-742.44"/>
<polygon fill="#da2d4f" stroke="#da2d4f" stroke-width="2" points="420.66,-742.37 417.66,-732.21 413.67,-742.03 420.66,-742.37"/>
</g>
<!-- node2190&#45;&gt;node2191 -->
<g id="edge40" class="edge">
<title>node2190&#45;&gt;node2191</title>
<path fill="none" stroke="#3cb4a4" d="M446.25,-946.91C488.03,-933.14 554.33,-911.3 602.9,-895.29"/>
<polygon fill="#3cb4a4" stroke="#3cb4a4" points="604.27,-898.53 612.67,-892.07 602.08,-891.88 604.27,-898.53"/>
<text text-anchor="middle" x="574.5" y="-913.8" font-family="arial" font-size="14.00" fill="#3cb4a4">commit</text>
</g>
<!-- node2191&#45;&gt;node2147 -->
<g id="edge30" class="edge">
<title>node2191&#45;&gt;node2147</title>
<path fill="none" stroke="#3cb4a4" d="M633.94,-855.8C610.53,-842.62 578.06,-824.34 552.73,-810.08"/>
<polygon fill="#3cb4a4" stroke="#3cb4a4" points="554.18,-806.89 543.75,-805.03 550.75,-812.99 554.18,-806.89"/>
<text text-anchor="middle" x="616" y="-826.8" font-family="arial" font-size="14.00" fill="#3cb4a4">arg[1]</text>
</g>
<!-- node2200&#45;&gt;node2117 -->
<g id="edge25" class="edge">
<title>node2200&#45;&gt;node2117</title>
<path fill="none" stroke="#3cb4a4" d="M671.75,-86.88C665.39,-77.44 660.1,-65.35 663.5,-54 664.41,-50.96 665.67,-47.95 667.15,-45.03"/>
<polygon fill="#3cb4a4" stroke="#3cb4a4" points="670.32,-46.55 672.4,-36.16 664.29,-42.98 670.32,-46.55"/>
<text text-anchor="middle" x="680.5" y="-57.8" font-family="arial" font-size="14.00" fill="#3cb4a4">result</text>
</g>
<!-- node2200&#45;&gt;node2117 -->
<g id="edge42" class="edge">
<title>node2200&#45;&gt;node2117</title>
<path fill="none" stroke="#da2d4f" stroke-width="2" d="M693.44,-86.98C696.56,-77.35 699.2,-65.07 697.5,-54 697.09,-51.32 696.51,-48.56 695.83,-45.83"/>
<polygon fill="#da2d4f" stroke="#da2d4f" stroke-width="2" points="699.19,-44.83 693.05,-36.2 692.46,-46.78 699.19,-44.83"/>
</g>
<!-- node2201&#45;&gt;node545 -->
<g id="edge50" class="edge">
<title>node2201&#45;&gt;node545</title>
<path fill="none" stroke="#da2d4f" stroke-width="2" d="M898.25,-1452.86C907.52,-1442.09 919.63,-1428.02 929.96,-1416.02"/>
<polygon fill="#da2d4f" stroke="#da2d4f" stroke-width="2" points="932.9,-1417.97 936.77,-1408.11 927.6,-1413.4 932.9,-1417.97"/>
</g>
<!-- inline1357x1359 -->
<g id="node28" class="node">
<title>inline1357x1359</title>
<ellipse fill="#d7ede7" stroke="black" cx="746.5" cy="-1222" rx="86.57" ry="18"/>
<text text-anchor="middle" x="746.5" y="-1220.1" font-family="Arial" font-size="8.00" fill="#1a1919">1357 C(RubyBasicObject@5a620041)</text>
</g>
<!-- inline1357x1359&#45;&gt;node1359 -->
<g id="edge10" class="edge">
<title>inline1357x1359&#45;&gt;node1359</title>
<path fill="none" stroke="#3cb4a4" d="M765.66,-1204.21C784.22,-1187.95 811.94,-1163.66 828.81,-1148.88"/>
<text text-anchor="middle" x="803.5" y="-1176.6" font-family="arial" font-size="8.00" fill="#3cb4a4">y</text>
</g>
<!-- inline69x1866 -->
<g id="node29" class="node">
<title>inline69x1866</title>
<ellipse fill="#d7ede7" stroke="black" cx="711.5" cy="-714" rx="27" ry="18"/>
<text text-anchor="middle" x="711.5" y="-712.1" font-family="Arial" font-size="8.00" fill="#1a1919">69 C(2)</text>
</g>
<!-- inline69x1866&#45;&gt;node1866 -->
<g id="edge14" class="edge">
<title>inline69x1866&#45;&gt;node1866</title>
<path fill="none" stroke="#3cb4a4" d="M711.5,-695.8C711.5,-681.05 711.5,-659.92 711.5,-645.18"/>
<text text-anchor="middle" x="713.5" y="-668.6" font-family="arial" font-size="8.00" fill="#3cb4a4">y</text>
</g>
<!-- inline69x1868 -->
<g id="node30" class="node">
<title>inline69x1868</title>
<ellipse fill="#d7ede7" stroke="black" cx="179.5" cy="-540" rx="27" ry="18"/>
<text text-anchor="middle" x="179.5" y="-538.1" font-family="Arial" font-size="8.00" fill="#1a1919">69 C(2)</text>
</g>
<!-- inline69x1868&#45;&gt;node1868 -->
<g id="edge16" class="edge">
<title>inline69x1868&#45;&gt;node1868</title>
<path fill="none" stroke="#3cb4a4" d="M200.53,-528.24C205.38,-526 210.56,-523.78 215.5,-522 288.69,-495.71 376.57,-475.46 431.24,-464.14"/>
<text text-anchor="middle" x="319.5" y="-494.6" font-family="arial" font-size="8.00" fill="#3cb4a4">y</text>
</g>
<!-- inline1571x2147 -->
<g id="node31" class="node">
<title>inline1571x2147</title>
<ellipse fill="#d7ede7" stroke="black" cx="506.5" cy="-874" rx="67.5" ry="18"/>
<text text-anchor="middle" x="506.5" y="-872.1" font-family="Arial" font-size="8.00" fill="#1a1919">1571 C(Object#opaque_call)</text>
</g>
<!-- inline1571x2147&#45;&gt;node2147 -->
<g id="edge29" class="edge">
<title>inline1571x2147&#45;&gt;node2147</title>
<path fill="none" stroke="#3cb4a4" d="M507.92,-855.8C509.13,-841.05 510.87,-819.92 512.09,-805.18"/>
<text text-anchor="middle" x="521.5" y="-828.6" font-family="arial" font-size="8.00" fill="#3cb4a4">arg[0]</text>
</g>
<!-- inline125x1359 -->
<g id="node32" class="node">
<title>inline125x1359</title>
<ellipse fill="#d7ede7" stroke="black" cx="878.5" cy="-1222" rx="27.46" ry="18"/>
<text text-anchor="middle" x="878.5" y="-1220.1" font-family="Arial" font-size="8.00" fill="#1a1919">125 T(5)</text>
</g>
<!-- inline125x1359&#45;&gt;node1359 -->
<g id="edge43" class="edge">
<title>inline125x1359&#45;&gt;node1359</title>
<path fill="none" stroke="#3cb4a4" d="M871.59,-1204.21C865.25,-1188.82 855.95,-1166.24 849.81,-1151.33"/>
<text text-anchor="middle" x="865.5" y="-1176.6" font-family="arial" font-size="8.00" fill="#3cb4a4">x</text>
</g>
<!-- inline125x2190 -->
<g id="node33" class="node">
<title>inline125x2190</title>
<ellipse fill="#d7ede7" stroke="black" cx="233.5" cy="-1048" rx="27.46" ry="18"/>
<text text-anchor="middle" x="233.5" y="-1046.1" font-family="Arial" font-size="8.00" fill="#1a1919">125 T(5)</text>
</g>
<!-- inline125x2190&#45;&gt;node2190 -->
<g id="edge44" class="edge">
<title>inline125x2190&#45;&gt;node2190</title>
<path fill="none" stroke="#3cb4a4" d="M254.71,-1036.58C283.86,-1022.26 336.64,-996.33 371.63,-979.13"/>
<text text-anchor="middle" x="342" y="-1002.6" font-family="arial" font-size="8.00" fill="#3cb4a4">values</text>
</g>
<!-- inline143x774 -->
<g id="node34" class="node">
<title>inline143x774</title>
<ellipse fill="#d7ede7" stroke="black" cx="125.5" cy="-1390" rx="27.46" ry="18"/>
<text text-anchor="middle" x="125.5" y="-1388.1" font-family="Arial" font-size="8.00" fill="#1a1919">143 T(6)</text>
</g>
<!-- inline143x774&#45;&gt;node774 -->
<g id="edge45" class="edge">
<title>inline143x774&#45;&gt;node774</title>
<path fill="none" stroke="#3cb4a4" d="M125.5,-1371.86C125.5,-1358.61 125.5,-1340.35 125.5,-1327.11"/>
<text text-anchor="middle" x="135" y="-1347.6" font-family="arial" font-size="8.00" fill="#3cb4a4">value</text>
</g>
<!-- inline158x545 -->
<g id="node35" class="node">
<title>inline158x545</title>
<ellipse fill="#d7ede7" stroke="black" cx="985.5" cy="-1471" rx="27.46" ry="18"/>
<text text-anchor="middle" x="985.5" y="-1469.1" font-family="Arial" font-size="8.00" fill="#1a1919">158 T(7)</text>
</g>
<!-- inline158x545&#45;&gt;node545 -->
<g id="edge46" class="edge">
<title>inline158x545&#45;&gt;node545</title>
<path fill="none" stroke="#3cb4a4" d="M978.29,-1453.25C972.56,-1439.93 964.58,-1421.38 958.82,-1408"/>
<text text-anchor="middle" x="979" y="-1428.6" font-family="arial" font-size="8.00" fill="#3cb4a4">value</text>
</g>
<!-- inline176x700 -->
<g id="node36" class="node">
<title>inline176x700</title>
<ellipse fill="#d7ede7" stroke="black" cx="664.5" cy="-1390" rx="27.46" ry="18"/>
<text text-anchor="middle" x="664.5" y="-1388.1" font-family="Arial" font-size="8.00" fill="#1a1919">176 T(8)</text>
</g>
<!-- inline176x700&#45;&gt;node700 -->
<g id="edge47" class="edge">
<title>inline176x700&#45;&gt;node700</title>
<path fill="none" stroke="#3cb4a4" d="M664.5,-1371.86C664.5,-1358.61 664.5,-1340.35 664.5,-1327.11"/>
<text text-anchor="middle" x="674" y="-1347.6" font-family="arial" font-size="8.00" fill="#3cb4a4">value</text>
</g>
<!-- inline2x2201 -->
<g id="node37" class="node">
<title>inline2x2201</title>
<ellipse fill="#d7ede7" stroke="black" cx="920.5" cy="-1552" rx="27" ry="18"/>
<text text-anchor="middle" x="920.5" y="-1550.1" font-family="Arial" font-size="8.00" fill="#1a1919">2 P(1)</text>
</g>
<!-- inline2x2201&#45;&gt;node2201 -->
<g id="edge48" class="edge">
<title>inline2x2201&#45;&gt;node2201</title>
<path fill="none" stroke="#3cb4a4" d="M912.83,-1534.63C906.61,-1521.34 897.86,-1502.67 891.54,-1489.17"/>
<text text-anchor="middle" x="912" y="-1509.6" font-family="arial" font-size="8.00" fill="#3cb4a4">array</text>
</g>
</g>
</svg>
