<?xml version="1.0" encoding="UTF-8" standalone="no"?>
<!DOCTYPE svg PUBLIC "-//W3C//DTD SVG 1.1//EN"
 "http://www.w3.org/Graphics/SVG/1.1/DTD/svg11.dtd">
<!-- Generated by graphviz version 2.44.1 (20200629.0846)
 -->
<!-- Title: G Pages: 1 -->
<svg width="626pt" height="1115pt"
 viewBox="0.00 0.00 625.50 1115.00" xmlns="http://www.w3.org/2000/svg" xmlns:xlink="http://www.w3.org/1999/xlink">
<g id="graph0" class="graph" transform="scale(1 1) rotate(0) translate(4 1111)">
<title>G</title>
<!-- node0 -->
<g id="node1" class="node">
<title>node0</title>
<polygon fill="#e98693" stroke="black" points="253.5,-1107 197.5,-1107 197.5,-1071 253.5,-1071 253.5,-1107"/>
<text text-anchor="middle" x="225.5" y="-1085.3" font-family="Arial" font-size="14.00" fill="#1a1919">0 Start</text>
</g>
<!-- node1395 -->
<g id="node18" class="node">
<title>node1395</title>
<polygon fill="#da2d4f" stroke="black" points="318,-1026 205,-1026 205,-990 318,-990 318,-1026"/>
<text text-anchor="middle" x="261.5" y="-1004.3" font-family="Arial" font-size="14.00" fill="#ffffff">1395 Load T(...)</text>
</g>
<!-- node0&#45;&gt;node1395 -->
<g id="edge29" class="edge">
<title>node0&#45;&gt;node1395</title>
<path fill="none" stroke="#da2d4f" stroke-width="2" d="M233.31,-1070.86C238.03,-1060.51 244.14,-1047.1 249.46,-1035.41"/>
<polygon fill="#da2d4f" stroke="#da2d4f" stroke-width="2" points="252.74,-1036.66 253.7,-1026.11 246.37,-1033.76 252.74,-1036.66"/>
</g>
<!-- node677 -->
<g id="node2" class="node">
<title>node677</title>
<polygon fill="#f9f9f9" stroke="black" points="364.5,-945 282.5,-945 282.5,-909 364.5,-909 364.5,-945"/>
<text text-anchor="middle" x="323.5" y="-923.3" font-family="Arial" font-size="14.00" fill="#1a1919">677 Unbox</text>
</g>
<!-- node1361 -->
<g id="node12" class="node">
<title>node1361</title>
<polygon fill="#ffa500" stroke="black" points="590,-858 339,-858 339,-822 590,-822 590,-858"/>
<text text-anchor="middle" x="464.5" y="-836.3" font-family="Arial" font-size="14.00" fill="#1a1919">1361 Guard, else TransferToInterpreter</text>
</g>
<!-- node677&#45;&gt;node1361 -->
<g id="edge1" class="edge">
<title>node677&#45;&gt;node1361</title>
<path fill="none" stroke="#da2d4f" stroke-width="2" d="M352.03,-908.8C373.73,-895.72 403.75,-877.62 427.32,-863.41"/>
<polygon fill="#da2d4f" stroke="#da2d4f" stroke-width="2" points="429.25,-866.34 436.01,-858.18 425.64,-860.34 429.25,-866.34"/>
</g>
<!-- node1385 -->
<g id="node15" class="node">
<title>node1385</title>
<polygon fill="#f9f9f9" stroke="black" points="227,-530 32,-530 32,-494 227,-494 227,-530"/>
<text text-anchor="middle" x="129.5" y="-508.3" font-family="Arial" font-size="14.00" fill="#1a1919">1385 BoxNode$AllocatingBox</text>
</g>
<!-- node677&#45;&gt;node1385 -->
<g id="edge16" class="edge">
<title>node677&#45;&gt;node1385</title>
<path fill="none" stroke="#3cb4a4" d="M282.31,-926.46C222.19,-924.74 117.5,-911.61 117.5,-841 117.5,-841 117.5,-841 117.5,-584 117.5,-569.3 120.03,-553.13 122.77,-539.94"/>
<polygon fill="#3cb4a4" stroke="#3cb4a4" points="126.21,-540.6 124.96,-530.08 119.37,-539.08 126.21,-540.6"/>
<text text-anchor="middle" x="134" y="-711.8" font-family="arial" font-size="14.00" fill="#3cb4a4">value</text>
</g>
<!-- node752 -->
<g id="node3" class="node">
<title>node752</title>
<polygon fill="#3cb4a4" stroke="black" points="464.5,-945 393.95,-927 464.5,-909 535.05,-927 464.5,-945"/>
<text text-anchor="middle" x="464.5" y="-923.3" font-family="Arial" font-size="14.00" fill="#1a1919">752 IsNull</text>
</g>
<!-- node752&#45;&gt;node1361 -->
<g id="edge12" class="edge">
<title>node752&#45;&gt;node1361</title>
<path fill="none" stroke="#3cb4a4" d="M464.5,-908.8C464.5,-897.16 464.5,-881.55 464.5,-868.24"/>
<polygon fill="#3cb4a4" stroke="#3cb4a4" points="468,-868.18 464.5,-858.18 461,-868.18 468,-868.18"/>
<text text-anchor="middle" x="468.5" y="-879.8" font-family="arial" font-size="14.00" fill="#3cb4a4">?</text>
</g>
<!-- node1033 -->
<g id="node4" class="node">
<title>node1033</title>
<polygon fill="#da2d4f" stroke="black" points="617.5,-777 311.5,-777 311.5,-741 617.5,-741 617.5,-777"/>
<text text-anchor="middle" x="464.5" y="-755.3" font-family="Arial" font-size="14.00" fill="#ffffff">1033 LoadField RubyDynamicObject.metaClass</text>
</g>
<!-- node1089 -->
<g id="node5" class="node">
<title>node1089</title>
<polygon fill="#3cb4a4" stroke="black" points="322.5,-690 260.83,-672 322.5,-654 384.17,-672 322.5,-690"/>
<text text-anchor="middle" x="322.5" y="-668.3" font-family="Arial" font-size="14.00" fill="#1a1919">1089 ==</text>
</g>
<!-- node1033&#45;&gt;node1089 -->
<g id="edge3" class="edge">
<title>node1033&#45;&gt;node1089</title>
<path fill="none" stroke="#3cb4a4" d="M435.76,-740.8C410.9,-725.92 375.16,-704.52 350.51,-689.77"/>
<polygon fill="#3cb4a4" stroke="#3cb4a4" points="352.03,-686.6 341.66,-684.47 348.44,-692.61 352.03,-686.6"/>
<text text-anchor="middle" x="405" y="-711.8" font-family="arial" font-size="14.00" fill="#3cb4a4">x</text>
</g>
<!-- node1364 -->
<g id="node13" class="node">
<title>node1364</title>
<polygon fill="#ffa500" stroke="black" points="448,-603 197,-603 197,-567 448,-567 448,-603"/>
<text text-anchor="middle" x="322.5" y="-581.3" font-family="Arial" font-size="14.00" fill="#1a1919">1364 Guard, else TransferToInterpreter</text>
</g>
<!-- node1033&#45;&gt;node1364 -->
<g id="edge2" class="edge">
<title>node1033&#45;&gt;node1364</title>
<path fill="none" stroke="#da2d4f" stroke-width="2" d="M454.21,-740.65C441.23,-719.34 417.67,-682.52 393.5,-654 380.31,-638.43 363.96,-622.58 350.27,-610.1"/>
<polygon fill="#da2d4f" stroke="#da2d4f" stroke-width="2" points="352.34,-607.25 342.57,-603.17 347.66,-612.46 352.34,-607.25"/>
</g>
<!-- node1089&#45;&gt;node1364 -->
<g id="edge14" class="edge">
<title>node1089&#45;&gt;node1364</title>
<path fill="none" stroke="#3cb4a4" d="M322.5,-653.8C322.5,-642.16 322.5,-626.55 322.5,-613.24"/>
<polygon fill="#3cb4a4" stroke="#3cb4a4" points="326,-613.18 322.5,-603.18 319,-613.18 326,-613.18"/>
<text text-anchor="middle" x="326.5" y="-624.8" font-family="arial" font-size="14.00" fill="#3cb4a4">?</text>
</g>
<!-- node1306 -->
<g id="node6" class="node">
<title>node1306</title>
<polygon fill="#e98693" stroke="black" points="145,-36 54,-36 54,0 145,0 145,-36"/>
<text text-anchor="middle" x="99.5" y="-14.3" font-family="Arial" font-size="14.00" fill="#1a1919">1306 Return</text>
</g>
<!-- node1342 -->
<g id="node7" class="node">
<title>node1342</title>
<polygon fill="#da2d4f" stroke="black" points="302.5,-196 12.5,-196 12.5,-160 302.5,-160 302.5,-196"/>
<text text-anchor="middle" x="157.5" y="-174.3" font-family="Arial" font-size="14.00" fill="#ffffff">1342 Call OptimizedCallTarget.callBoundary !</text>
</g>
<!-- node1342&#45;&gt;node1306 -->
<g id="edge23" class="edge">
<title>node1342&#45;&gt;node1306</title>
<path fill="none" stroke="#3cb4a4" d="M154.19,-159.65C149.87,-138.66 141.44,-102.46 129.5,-73 125.71,-63.66 120.66,-53.89 115.79,-45.28"/>
<polygon fill="#3cb4a4" stroke="#3cb4a4" points="118.7,-43.33 110.63,-36.46 112.66,-46.86 118.7,-43.33"/>
<text text-anchor="middle" x="159.5" y="-87.3" font-family="arial" font-size="14.00" fill="#3cb4a4">result</text>
</g>
<!-- node1346 -->
<g id="node9" class="node">
<title>node1346</title>
<polygon fill="#e98693" stroke="black" points="121,-109 0,-109 0,-73 121,-73 121,-109"/>
<text text-anchor="middle" x="60.5" y="-87.3" font-family="Arial" font-size="14.00" fill="#1a1919">1346 KillingBegin</text>
</g>
<!-- node1342&#45;&gt;node1346 -->
<g id="edge6" class="edge">
<title>node1342&#45;&gt;node1346</title>
<path fill="none" stroke="#da2d4f" stroke-width="2" d="M137.87,-159.8C123.54,-147.24 103.92,-130.05 88.03,-116.12"/>
<polygon fill="#da2d4f" stroke="#da2d4f" stroke-width="2" points="89.93,-113.13 80.1,-109.18 85.31,-118.4 89.93,-113.13"/>
</g>
<!-- node1347 -->
<g id="node10" class="node">
<title>node1347</title>
<polygon fill="#f9f9f9" stroke="black" points="359,-109 210,-109 210,-73 359,-73 359,-109"/>
<text text-anchor="middle" x="284.5" y="-87.3" font-family="Arial" font-size="14.00" fill="#1a1919">1347 ExceptionObject</text>
</g>
<!-- node1342&#45;&gt;node1347 -->
<g id="edge7" class="edge">
<title>node1342&#45;&gt;node1347</title>
<path fill="none" stroke="#da2d4f" stroke-width="2" d="M183.2,-159.8C202.57,-146.84 229.31,-128.94 250.45,-114.79"/>
<polygon fill="#da2d4f" stroke="#da2d4f" stroke-width="2" points="252.47,-117.65 258.84,-109.18 248.58,-111.83 252.47,-117.65"/>
<text text-anchor="middle" x="251" y="-130.8" font-family="arial" font-size="14.00" fill="#da2d4f">unwind</text>
</g>
<!-- node1343 -->
<g id="node8" class="node">
<title>node1343</title>
<polygon fill="#f9f9f9" stroke="black" points="338,-269 181,-269 181,-233 338,-233 338,-269"/>
<text text-anchor="middle" x="259.5" y="-247.3" font-family="Arial" font-size="14.00" fill="#1a1919">1343 MethodCallTarget</text>
</g>
<!-- node1343&#45;&gt;node1342 -->
<g id="edge5" class="edge">
<title>node1343&#45;&gt;node1342</title>
<path fill="none" stroke="#343d46" stroke-dasharray="5,2" d="M226.83,-227.26C212.31,-217.15 195.51,-205.46 182.09,-196.11"/>
<polygon fill="#343d46" stroke="#343d46" points="224.86,-230.15 235.07,-232.99 228.86,-224.41 224.86,-230.15"/>
</g>
<!-- node1346&#45;&gt;node1306 -->
<g id="edge10" class="edge">
<title>node1346&#45;&gt;node1306</title>
<path fill="none" stroke="#da2d4f" stroke-width="2" d="M69.94,-72.81C74.54,-64.44 80.17,-54.2 85.27,-44.9"/>
<polygon fill="#da2d4f" stroke="#da2d4f" stroke-width="2" points="88.4,-46.48 90.15,-36.03 82.26,-43.11 88.4,-46.48"/>
</g>
<!-- node1352 -->
<g id="node11" class="node">
<title>node1352</title>
<polygon fill="#da2d4f" stroke="black" points="393,-36 176,-36 176,0 393,0 393,-36"/>
<text text-anchor="middle" x="284.5" y="-14.3" font-family="Arial" font-size="14.00" fill="#ffffff">1352 Deopt TransferToInterpreter</text>
</g>
<!-- node1347&#45;&gt;node1352 -->
<g id="edge11" class="edge">
<title>node1347&#45;&gt;node1352</title>
<path fill="none" stroke="#da2d4f" stroke-width="2" d="M284.5,-72.81C284.5,-64.79 284.5,-55.05 284.5,-46.07"/>
<polygon fill="#da2d4f" stroke="#da2d4f" stroke-width="2" points="288,-46.03 284.5,-36.03 281,-46.03 288,-46.03"/>
</g>
<!-- node1361&#45;&gt;node1033 -->
<g id="edge13" class="edge">
<title>node1361&#45;&gt;node1033</title>
<path fill="none" stroke="#da2d4f" stroke-width="2" d="M464.5,-821.86C464.5,-811.71 464.5,-798.63 464.5,-787.12"/>
<polygon fill="#da2d4f" stroke="#da2d4f" stroke-width="2" points="468,-787.11 464.5,-777.11 461,-787.11 468,-787.11"/>
</g>
<!-- node1364&#45;&gt;node1385 -->
<g id="edge15" class="edge">
<title>node1364&#45;&gt;node1385</title>
<path fill="none" stroke="#da2d4f" stroke-width="2" d="M276.27,-566.99C249.02,-556.97 214.35,-544.21 185.54,-533.62"/>
<polygon fill="#da2d4f" stroke="#da2d4f" stroke-width="2" points="186.61,-530.28 176.02,-530.11 184.2,-536.85 186.61,-530.28"/>
</g>
<!-- node1382 -->
<g id="node14" class="node">
<title>node1382</title>
<polygon fill="#343d46" stroke="black" points="555,-530 318,-530 318,-494 555,-494 555,-530"/>
<text text-anchor="middle" x="436.5" y="-508.3" font-family="Arial" font-size="14.00" fill="#ffffff">1382 VirtualArray java.lang.Object[8]</text>
</g>
<!-- node1386 -->
<g id="node16" class="node">
<title>node1386</title>
<polygon fill="#da2d4f" stroke="black" points="280,-443 201,-443 201,-407 280,-407 280,-443"/>
<text text-anchor="middle" x="240.5" y="-421.3" font-family="Arial" font-size="14.00" fill="#ffffff">1386 Alloc</text>
</g>
<!-- node1382&#45;&gt;node1386 -->
<g id="edge18" class="edge">
<title>node1382&#45;&gt;node1386</title>
<path fill="none" stroke="#3cb4a4" d="M385.7,-493.98C370.68,-488.6 354.3,-482.38 339.5,-476 319.93,-467.56 298.77,-457.07 281.06,-447.88"/>
<polygon fill="#3cb4a4" stroke="#3cb4a4" points="282.62,-444.75 272.13,-443.21 279.37,-450.95 282.62,-444.75"/>
<text text-anchor="middle" x="381" y="-464.8" font-family="arial" font-size="14.00" fill="#3cb4a4">virtualObjects</text>
</g>
<!-- node1387 -->
<g id="node17" class="node">
<title>node1387</title>
<polygon fill="#343d46" stroke="black" points="509,-356 364,-356 364,-320 509,-320 509,-356"/>
<text text-anchor="middle" x="436.5" y="-334.3" font-family="Arial" font-size="14.00" fill="#ffffff">1387 AllocatedObject</text>
</g>
<!-- node1382&#45;&gt;node1387 -->
<g id="edge21" class="edge">
<title>node1382&#45;&gt;node1387</title>
<path fill="none" stroke="#3cb4a4" d="M436.5,-493.88C436.5,-464 436.5,-402.11 436.5,-366.27"/>
<polygon fill="#3cb4a4" stroke="#3cb4a4" points="440,-366.05 436.5,-356.05 433,-366.05 440,-366.05"/>
<text text-anchor="middle" x="474.5" y="-421.3" font-family="arial" font-size="14.00" fill="#3cb4a4">virtualObject</text>
</g>
<!-- node1385&#45;&gt;node1386 -->
<g id="edge17" class="edge">
<title>node1385&#45;&gt;node1386</title>
<path fill="none" stroke="#da2d4f" stroke-width="2" d="M142.77,-493.89C151.36,-483.55 163.2,-470.55 175.5,-461 181.41,-456.41 188.02,-452.08 194.68,-448.15"/>
<polygon fill="#da2d4f" stroke="#da2d4f" stroke-width="2" points="196.76,-451 203.75,-443.04 193.32,-444.9 196.76,-451"/>
</g>
<!-- node1385&#45;&gt;node1386 -->
<g id="edge19" class="edge">
<title>node1385&#45;&gt;node1386</title>
<path fill="none" stroke="#3cb4a4" d="M151.98,-493.93C159.47,-488.24 167.85,-481.85 175.5,-476 186.85,-467.31 199.3,-457.75 210.24,-449.33"/>
<polygon fill="#3cb4a4" stroke="#3cb4a4" points="212.47,-452.03 218.26,-443.15 208.2,-446.48 212.47,-452.03"/>
<text text-anchor="middle" x="213.5" y="-464.8" font-family="arial" font-size="14.00" fill="#3cb4a4">values</text>
</g>
<!-- node1386&#45;&gt;node1342 -->
<g id="edge20" class="edge">
<title>node1386&#45;&gt;node1342</title>
<path fill="none" stroke="#da2d4f" stroke-width="2" d="M211.67,-406.74C194.66,-394.82 174.53,-377.3 164.5,-356 141.58,-307.34 146.71,-242.55 152.26,-206.38"/>
<polygon fill="#da2d4f" stroke="#da2d4f" stroke-width="2" points="155.78,-206.57 153.97,-196.13 148.87,-205.42 155.78,-206.57"/>
</g>
<!-- node1386&#45;&gt;node1387 -->
<g id="edge22" class="edge">
<title>node1386&#45;&gt;node1387</title>
<path fill="none" stroke="#3cb4a4" d="M280.16,-406.8C311.22,-393.33 354.55,-374.54 387.73,-360.15"/>
<polygon fill="#3cb4a4" stroke="#3cb4a4" points="389.45,-363.22 397.23,-356.03 386.66,-356.8 389.45,-363.22"/>
<text text-anchor="middle" x="372.5" y="-377.8" font-family="arial" font-size="14.00" fill="#3cb4a4">commit</text>
</g>
<!-- node1387&#45;&gt;node1343 -->
<g id="edge9" class="edge">
<title>node1387&#45;&gt;node1343</title>
<path fill="none" stroke="#3cb4a4" d="M400.68,-319.8C372.88,-306.45 334.17,-287.86 304.32,-273.52"/>
<polygon fill="#3cb4a4" stroke="#3cb4a4" points="305.49,-270.2 294.96,-269.03 302.46,-276.51 305.49,-270.2"/>
<text text-anchor="middle" x="376" y="-290.8" font-family="arial" font-size="14.00" fill="#3cb4a4">arg[1]</text>
</g>
<!-- node1395&#45;&gt;node677 -->
<g id="edge30" class="edge">
<title>node1395&#45;&gt;node677</title>
<path fill="none" stroke="#da2d4f" stroke-width="2" d="M274.95,-989.86C283.4,-979.09 294.45,-965.02 303.86,-953.02"/>
<polygon fill="#da2d4f" stroke="#da2d4f" stroke-width="2" points="306.65,-955.14 310.07,-945.11 301.15,-950.81 306.65,-955.14"/>
</g>
<!-- inline1088x1089 -->
<g id="node19" class="node">
<title>inline1088x1089</title>
<ellipse fill="#d7ede7" stroke="black" cx="219.5" cy="-759" rx="74.11" ry="18"/>
<text text-anchor="middle" x="219.5" y="-757.1" font-family="Arial" font-size="8.00" fill="#1a1919">1088 C(RubyClass@53131465)</text>
</g>
<!-- inline1088x1089&#45;&gt;node1089 -->
<g id="edge4" class="edge">
<title>inline1088x1089&#45;&gt;node1089</title>
<path fill="none" stroke="#3cb4a4" d="M239.36,-741.61C259.12,-725.31 289.02,-700.63 307.07,-685.74"/>
<text text-anchor="middle" x="278.5" y="-713.6" font-family="arial" font-size="8.00" fill="#3cb4a4">y</text>
</g>
<!-- inline1226x1343 -->
<g id="node20" class="node">
<title>inline1226x1343</title>
<ellipse fill="#d7ede7" stroke="black" cx="259.5" cy="-338" rx="86.44" ry="18"/>
<text text-anchor="middle" x="259.5" y="-336.1" font-family="Arial" font-size="8.00" fill="#1a1919">1226 C(ExampleObject#instance_call)</text>
</g>
<!-- inline1226x1343&#45;&gt;node1343 -->
<g id="edge8" class="edge">
<title>inline1226x1343&#45;&gt;node1343</title>
<path fill="none" stroke="#3cb4a4" d="M259.5,-319.8C259.5,-305.05 259.5,-283.92 259.5,-269.18"/>
<text text-anchor="middle" x="270.5" y="-292.6" font-family="arial" font-size="8.00" fill="#3cb4a4">arg[0]</text>
</g>
<!-- inline143x752 -->
<g id="node21" class="node">
<title>inline143x752</title>
<ellipse fill="#d7ede7" stroke="black" cx="464.5" cy="-1008" rx="27.46" ry="18"/>
<text text-anchor="middle" x="464.5" y="-1006.1" font-family="Arial" font-size="8.00" fill="#1a1919">143 T(6)</text>
</g>
<!-- inline143x752&#45;&gt;node752 -->
<g id="edge24" class="edge">
<title>inline143x752&#45;&gt;node752</title>
<path fill="none" stroke="#3cb4a4" d="M464.5,-989.86C464.5,-976.61 464.5,-958.35 464.5,-945.11"/>
<text text-anchor="middle" x="474" y="-965.6" font-family="arial" font-size="8.00" fill="#3cb4a4">value</text>
</g>
<!-- inline158x1033 -->
<g id="node22" class="node">
<title>inline158x1033</title>
<ellipse fill="#d7ede7" stroke="black" cx="293.5" cy="-840" rx="27.46" ry="18"/>
<text text-anchor="middle" x="293.5" y="-838.1" font-family="Arial" font-size="8.00" fill="#1a1919">158 T(7)</text>
</g>
<!-- inline158x1033&#45;&gt;node1033 -->
<g id="edge25" class="edge">
<title>inline158x1033&#45;&gt;node1033</title>
<path fill="none" stroke="#3cb4a4" d="M315.16,-828.99C343.38,-815.96 393.15,-792.96 427.43,-777.13"/>
<text text-anchor="middle" x="394.5" y="-797.6" font-family="arial" font-size="8.00" fill="#3cb4a4">object</text>
</g>
<!-- inline158x1386 -->
<g id="node23" class="node">
<title>inline158x1386</title>
<ellipse fill="#d7ede7" stroke="black" cx="272.5" cy="-512" rx="27.46" ry="18"/>
<text text-anchor="middle" x="272.5" y="-510.1" font-family="Arial" font-size="8.00" fill="#1a1919">158 T(7)</text>
</g>
<!-- inline158x1386&#45;&gt;node1386 -->
<g id="edge26" class="edge">
<title>inline158x1386&#45;&gt;node1386</title>
<path fill="none" stroke="#3cb4a4" d="M266.18,-494.21C260.6,-479.4 252.52,-457.93 246.92,-443.05"/>
<text text-anchor="middle" x="270" y="-466.6" font-family="arial" font-size="8.00" fill="#3cb4a4">values</text>
</g>
<!-- inline175x677 -->
<g id="node24" class="node">
<title>inline175x677</title>
<ellipse fill="#d7ede7" stroke="black" cx="363.5" cy="-1008" rx="27.46" ry="18"/>
<text text-anchor="middle" x="363.5" y="-1006.1" font-family="Arial" font-size="8.00" fill="#1a1919">175 T(8)</text>
</g>
<!-- inline175x677&#45;&gt;node677 -->
<g id="edge27" class="edge">
<title>inline175x677&#45;&gt;node677</title>
<path fill="none" stroke="#3cb4a4" d="M355.21,-990.63C348.48,-977.34 339.03,-958.67 332.19,-945.17"/>
<text text-anchor="middle" x="354" y="-965.6" font-family="arial" font-size="8.00" fill="#3cb4a4">value</text>
</g>
<!-- inline2x1395 -->
<g id="node25" class="node">
<title>inline2x1395</title>
<ellipse fill="#d7ede7" stroke="black" cx="298.5" cy="-1089" rx="27" ry="18"/>
<text text-anchor="middle" x="298.5" y="-1087.1" font-family="Arial" font-size="8.00" fill="#1a1919">2 P(1)</text>
</g>
<!-- inline2x1395&#45;&gt;node1395 -->
<g id="edge28" class="edge">
<title>inline2x1395&#45;&gt;node1395</title>
<path fill="none" stroke="#3cb4a4" d="M290.83,-1071.63C284.61,-1058.34 275.86,-1039.67 269.54,-1026.17"/>
<text text-anchor="middle" x="290" y="-1046.6" font-family="arial" font-size="8.00" fill="#3cb4a4">array</text>
</g>
</g>
</svg>
