<?xml version="1.0" encoding="UTF-8" standalone="no"?>
<!DOCTYPE svg PUBLIC "-//W3C//DTD SVG 1.1//EN"
 "http://www.w3.org/Graphics/SVG/1.1/DTD/svg11.dtd">
<!-- Generated by graphviz version 2.44.0 (20200408.0750)
 -->
<!-- Title: G Pages: 1 -->
<svg width="136pt" height="125pt"
 viewBox="0.00 0.00 136.00 125.00" xmlns="http://www.w3.org/2000/svg" xmlns:xlink="http://www.w3.org/1999/xlink">
<g id="graph0" class="graph" transform="scale(1 1) rotate(0) translate(4 121)">
<title>G</title>
<!-- node0 -->
<g id="node1" class="node">
<title>node0</title>
<polygon fill="#e98693" stroke="black" points="56,-117 0,-117 0,-81 56,-81 56,-117"/>
<text text-anchor="middle" x="28" y="-95.3" font-family="Arial" font-size="14.00" fill="#1a1919">0 Start</text>
</g>
<!-- node9 -->
<g id="node2" class="node">
<title>node9</title>
<polygon fill="#e98693" stroke="black" points="98,-36 30,-36 30,0 98,0 98,-36"/>
<text text-anchor="middle" x="64" y="-14.3" font-family="Arial" font-size="14.00" fill="#1a1919">9 Return</text>
</g>
<!-- node0&#45;&gt;node9 -->
<g id="edge1" class="edge">
<title>node0&#45;&gt;node9</title>
<path fill="none" stroke="#da2d4f" stroke-width="2" d="M35.81,-80.86C40.53,-70.51 46.64,-57.1 51.96,-45.41"/>
<polygon fill="#da2d4f" stroke="#da2d4f" stroke-width="2" points="55.24,-46.66 56.2,-36.11 48.87,-43.76 55.24,-46.66"/>
</g>
<!-- inline1x9 -->
<g id="node3" class="node">
<title>inline1x9</title>
<ellipse fill="#d7ede7" stroke="black" cx="101" cy="-99" rx="27" ry="18"/>
<text text-anchor="middle" x="101" y="-97.1" font-family="Arial" font-size="8.00" fill="#1a1919">1 P(0)</text>
</g>
<!-- inline1x9&#45;&gt;node9 -->
<g id="edge2" class="edge">
<title>inline1x9&#45;&gt;node9</title>
<path fill="none" stroke="#3cb4a4" d="M93.33,-81.63C87.11,-68.34 78.36,-49.67 72.04,-36.17"/>
<text text-anchor="middle" x="93" y="-56.6" font-family="arial" font-size="8.00" fill="#3cb4a4">result</text>
</g>
</g>
</svg>
