<?xml version="1.0" encoding="UTF-8" standalone="no"?>
<!DOCTYPE svg PUBLIC "-//W3C//DTD SVG 1.1//EN"
 "http://www.w3.org/Graphics/SVG/1.1/DTD/svg11.dtd">
<!-- Generated by graphviz version 2.44.1 (20200629.0846)
 -->
<!-- Title: G Pages: 1 -->
<svg width="803pt" height="1886pt"
 viewBox="0.00 0.00 802.50 1886.00" xmlns="http://www.w3.org/2000/svg" xmlns:xlink="http://www.w3.org/1999/xlink">
<g id="graph0" class="graph" transform="scale(1 1) rotate(0) translate(4 1882)">
<title>G</title>
<!-- node0 -->
<g id="node1" class="node">
<title>node0</title>
<polygon fill="#e98693" stroke="black" points="568.5,-1878 512.5,-1878 512.5,-1842 568.5,-1842 568.5,-1878"/>
<text text-anchor="middle" x="540.5" y="-1856.3" font-family="Arial" font-size="14.00" fill="#1a1919">0 Start</text>
</g>
<!-- node1703 -->
<g id="node26" class="node">
<title>node1703</title>
<polygon fill="#da2d4f" stroke="black" points="633,-1797 520,-1797 520,-1761 633,-1761 633,-1797"/>
<text text-anchor="middle" x="576.5" y="-1775.3" font-family="Arial" font-size="14.00" fill="#ffffff">1703 Load T(...)</text>
</g>
<!-- node0&#45;&gt;node1703 -->
<g id="edge48" class="edge">
<title>node0&#45;&gt;node1703</title>
<path fill="none" stroke="#da2d4f" stroke-width="2" d="M548.31,-1841.86C553.03,-1831.51 559.14,-1818.1 564.46,-1806.41"/>
<polygon fill="#da2d4f" stroke="#da2d4f" stroke-width="2" points="567.74,-1807.66 568.7,-1797.11 561.37,-1804.76 567.74,-1807.66"/>
</g>
<!-- node695 -->
<g id="node2" class="node">
<title>node695</title>
<polygon fill="#f9f9f9" stroke="black" points="686.5,-1716 604.5,-1716 604.5,-1680 686.5,-1680 686.5,-1716"/>
<text text-anchor="middle" x="645.5" y="-1694.3" font-family="Arial" font-size="14.00" fill="#1a1919">695 Unbox</text>
</g>
<!-- node850 -->
<g id="node3" class="node">
<title>node850</title>
<polygon fill="#f9f9f9" stroke="black" points="199.5,-1629 117.5,-1629 117.5,-1593 199.5,-1593 199.5,-1629"/>
<text text-anchor="middle" x="158.5" y="-1607.3" font-family="Arial" font-size="14.00" fill="#1a1919">850 Unbox</text>
</g>
<!-- node695&#45;&gt;node850 -->
<g id="edge1" class="edge">
<title>node695&#45;&gt;node850</title>
<path fill="none" stroke="#da2d4f" stroke-width="2" d="M604.4,-1696.16C538.61,-1694.09 405.9,-1686.9 296.5,-1662 265.96,-1655.05 232.94,-1643.25 206.85,-1632.86"/>
<polygon fill="#da2d4f" stroke="#da2d4f" stroke-width="2" points="208.16,-1629.61 197.58,-1629.1 205.53,-1636.1 208.16,-1629.61"/>
</g>
<!-- node1415 -->
<g id="node7" class="node">
<title>node1415</title>
<polygon fill="#3cb4a4" stroke="black" points="630.5,-1629 576.04,-1611 630.5,-1593 684.96,-1611 630.5,-1629"/>
<text text-anchor="middle" x="630.5" y="-1607.3" font-family="Arial" font-size="14.00" fill="#1a1919">1415 &lt;</text>
</g>
<!-- node695&#45;&gt;node1415 -->
<g id="edge6" class="edge">
<title>node695&#45;&gt;node1415</title>
<path fill="none" stroke="#3cb4a4" d="M642.46,-1679.8C640.37,-1667.93 637.55,-1651.93 635.17,-1638.45"/>
<polygon fill="#3cb4a4" stroke="#3cb4a4" points="638.56,-1637.55 633.38,-1628.31 631.67,-1638.77 638.56,-1637.55"/>
<text text-anchor="middle" x="642" y="-1650.8" font-family="arial" font-size="14.00" fill="#3cb4a4">x</text>
</g>
<!-- node1472 -->
<g id="node11" class="node">
<title>node1472</title>
<polygon fill="#3cb4a4" stroke="black" points="592.5,-771 538.04,-753 592.5,-735 646.96,-753 592.5,-771"/>
<text text-anchor="middle" x="592.5" y="-749.3" font-family="Arial" font-size="14.00" fill="#1a1919">1472 &lt;</text>
</g>
<!-- node695&#45;&gt;node1472 -->
<g id="edge11" class="edge">
<title>node695&#45;&gt;node1472</title>
<path fill="none" stroke="#3cb4a4" d="M661.38,-1679.77C681.19,-1656.41 712.5,-1612.53 712.5,-1568.5 712.5,-1568.5 712.5,-1568.5 712.5,-882.5 712.5,-829.82 657.97,-789.77 622.42,-769.26"/>
<polygon fill="#3cb4a4" stroke="#3cb4a4" points="623.84,-766.05 613.4,-764.24 620.44,-772.16 623.84,-766.05"/>
<text text-anchor="middle" x="716" y="-1221.8" font-family="arial" font-size="14.00" fill="#3cb4a4">x</text>
</g>
<!-- node1585 -->
<g id="node17" class="node">
<title>node1585</title>
<polygon fill="#da2d4f" stroke="black" points="396,-196 265,-196 265,-160 396,-160 396,-196"/>
<text text-anchor="middle" x="330.5" y="-174.3" font-family="Arial" font-size="14.00" fill="#ffffff">1585 StoreIndexed</text>
</g>
<!-- node695&#45;&gt;node1585 -->
<g id="edge21" class="edge">
<title>node695&#45;&gt;node1585</title>
<path fill="none" stroke="#3cb4a4" d="M686.72,-1685.34C720.07,-1673.1 761.5,-1650.2 761.5,-1612 761.5,-1612 761.5,-1612 761.5,-250 761.5,-214.46 530.34,-192.89 406.6,-183.9"/>
<polygon fill="#3cb4a4" stroke="#3cb4a4" points="406.65,-180.39 396.43,-183.17 406.15,-187.37 406.65,-180.39"/>
<text text-anchor="middle" x="778" y="-923.3" font-family="arial" font-size="14.00" fill="#3cb4a4">index</text>
</g>
<!-- node850&#45;&gt;node1585 -->
<g id="edge22" class="edge">
<title>node850&#45;&gt;node1585</title>
<path fill="none" stroke="#3cb4a4" d="M154.64,-1592.84C151.13,-1575.75 146.5,-1548.7 146.5,-1525 146.5,-1525 146.5,-1525 146.5,-250 146.5,-225.48 204.08,-206.18 254.81,-193.93"/>
<polygon fill="#3cb4a4" stroke="#3cb4a4" points="255.92,-197.26 264.85,-191.57 254.32,-190.45 255.92,-197.26"/>
<text text-anchor="middle" x="163" y="-879.8" font-family="arial" font-size="14.00" fill="#3cb4a4">value</text>
</g>
<!-- node1666 -->
<g id="node19" class="node">
<title>node1666</title>
<polygon fill="#ffa500" stroke="black" points="426,-1542 175,-1542 175,-1506 426,-1506 426,-1542"/>
<text text-anchor="middle" x="300.5" y="-1520.3" font-family="Arial" font-size="14.00" fill="#1a1919">1666 Guard, else TransferToInterpreter</text>
</g>
<!-- node850&#45;&gt;node1666 -->
<g id="edge2" class="edge">
<title>node850&#45;&gt;node1666</title>
<path fill="none" stroke="#da2d4f" stroke-width="2" d="M187.24,-1592.8C209.08,-1579.72 239.32,-1561.62 263.06,-1547.41"/>
<polygon fill="#da2d4f" stroke="#da2d4f" stroke-width="2" points="265.02,-1550.31 271.81,-1542.18 261.43,-1544.31 265.02,-1550.31"/>
</g>
<!-- node1702 -->
<g id="node25" class="node">
<title>node1702</title>
<polygon fill="#f9f9f9" stroke="black" points="195,-123 0,-123 0,-87 195,-87 195,-123"/>
<text text-anchor="middle" x="97.5" y="-101.3" font-family="Arial" font-size="14.00" fill="#1a1919">1702 BoxNode$AllocatingBox</text>
</g>
<!-- node850&#45;&gt;node1702 -->
<g id="edge37" class="edge">
<title>node850&#45;&gt;node1702</title>
<path fill="none" stroke="#3cb4a4" d="M130.49,-1592.75C109.9,-1577.7 85.5,-1553.79 85.5,-1525 85.5,-1525 85.5,-1525 85.5,-177 85.5,-162.3 88.03,-146.13 90.77,-132.94"/>
<polygon fill="#3cb4a4" stroke="#3cb4a4" points="94.21,-133.6 92.96,-123.08 87.37,-132.08 94.21,-133.6"/>
<text text-anchor="middle" x="102" y="-836.3" font-family="arial" font-size="14.00" fill="#3cb4a4">value</text>
</g>
<!-- node924 -->
<g id="node4" class="node">
<title>node924</title>
<polygon fill="#3cb4a4" stroke="black" points="300.5,-1629 229.95,-1611 300.5,-1593 371.05,-1611 300.5,-1629"/>
<text text-anchor="middle" x="300.5" y="-1607.3" font-family="Arial" font-size="14.00" fill="#1a1919">924 IsNull</text>
</g>
<!-- node924&#45;&gt;node1666 -->
<g id="edge25" class="edge">
<title>node924&#45;&gt;node1666</title>
<path fill="none" stroke="#3cb4a4" d="M300.5,-1592.8C300.5,-1581.16 300.5,-1565.55 300.5,-1552.24"/>
<polygon fill="#3cb4a4" stroke="#3cb4a4" points="304,-1552.18 300.5,-1542.18 297,-1552.18 304,-1552.18"/>
<text text-anchor="middle" x="304.5" y="-1563.8" font-family="arial" font-size="14.00" fill="#3cb4a4">?</text>
</g>
<!-- node1286 -->
<g id="node5" class="node">
<title>node1286</title>
<polygon fill="#da2d4f" stroke="black" points="480.5,-1461 174.5,-1461 174.5,-1425 480.5,-1425 480.5,-1461"/>
<text text-anchor="middle" x="327.5" y="-1439.3" font-family="Arial" font-size="14.00" fill="#ffffff">1286 LoadField RubyDynamicObject.metaClass</text>
</g>
<!-- node1338 -->
<g id="node6" class="node">
<title>node1338</title>
<polygon fill="#3cb4a4" stroke="black" points="450.5,-1374 388.83,-1356 450.5,-1338 512.17,-1356 450.5,-1374"/>
<text text-anchor="middle" x="450.5" y="-1352.3" font-family="Arial" font-size="14.00" fill="#1a1919">1338 ==</text>
</g>
<!-- node1286&#45;&gt;node1338 -->
<g id="edge4" class="edge">
<title>node1286&#45;&gt;node1338</title>
<path fill="none" stroke="#3cb4a4" d="M352.39,-1424.8C373.49,-1410.22 403.63,-1389.39 424.92,-1374.67"/>
<polygon fill="#3cb4a4" stroke="#3cb4a4" points="426.94,-1377.54 433.17,-1368.97 422.96,-1371.78 426.94,-1377.54"/>
<text text-anchor="middle" x="400" y="-1395.8" font-family="arial" font-size="14.00" fill="#3cb4a4">x</text>
</g>
<!-- node1670 -->
<g id="node20" class="node">
<title>node1670</title>
<polygon fill="#ffa500" stroke="black" points="576,-1287 325,-1287 325,-1251 576,-1251 576,-1287"/>
<text text-anchor="middle" x="450.5" y="-1265.3" font-family="Arial" font-size="14.00" fill="#1a1919">1670 Guard, else TransferToInterpreter</text>
</g>
<!-- node1286&#45;&gt;node1670 -->
<g id="edge3" class="edge">
<title>node1286&#45;&gt;node1670</title>
<path fill="none" stroke="#da2d4f" stroke-width="2" d="M333.97,-1424.78C342.5,-1403.29 358.9,-1365.95 379.5,-1338 391.44,-1321.81 407.43,-1306.11 421.22,-1293.89"/>
<polygon fill="#da2d4f" stroke="#da2d4f" stroke-width="2" points="423.77,-1296.31 429.04,-1287.11 419.19,-1291.02 423.77,-1296.31"/>
</g>
<!-- node1338&#45;&gt;node1670 -->
<g id="edge27" class="edge">
<title>node1338&#45;&gt;node1670</title>
<path fill="none" stroke="#3cb4a4" d="M450.5,-1337.8C450.5,-1326.16 450.5,-1310.55 450.5,-1297.24"/>
<polygon fill="#3cb4a4" stroke="#3cb4a4" points="454,-1297.18 450.5,-1287.18 447,-1297.18 454,-1297.18"/>
<text text-anchor="middle" x="454.5" y="-1308.8" font-family="arial" font-size="14.00" fill="#3cb4a4">?</text>
</g>
<!-- node1671 -->
<g id="node21" class="node">
<title>node1671</title>
<polygon fill="#ffa500" stroke="black" points="608.5,-1200 334.5,-1200 334.5,-1164 608.5,-1164 608.5,-1200"/>
<text text-anchor="middle" x="471.5" y="-1178.3" font-family="Arial" font-size="14.00" fill="#1a1919">1671 Guard not, else TransferToInterpreter</text>
</g>
<!-- node1415&#45;&gt;node1671 -->
<g id="edge29" class="edge">
<title>node1415&#45;&gt;node1671</title>
<path fill="none" stroke="#3cb4a4" d="M642.52,-1596.67C655.55,-1580.8 674.5,-1552.92 674.5,-1525 674.5,-1525 674.5,-1525 674.5,-1268 674.5,-1234.09 650.11,-1213.48 618.23,-1201.02"/>
<polygon fill="#3cb4a4" stroke="#3cb4a4" points="619.19,-1197.64 608.59,-1197.56 616.82,-1204.23 619.19,-1197.64"/>
<text text-anchor="middle" x="678.5" y="-1395.8" font-family="arial" font-size="14.00" fill="#3cb4a4">?</text>
</g>
<!-- node1456 -->
<g id="node8" class="node">
<title>node1456</title>
<polygon fill="#da2d4f" stroke="black" points="669.5,-1119 459.5,-1119 459.5,-1083 669.5,-1083 669.5,-1119"/>
<text text-anchor="middle" x="564.5" y="-1097.3" font-family="Arial" font-size="14.00" fill="#ffffff">1456 LoadField RubyArray.store</text>
</g>
<!-- node1460 -->
<g id="node9" class="node">
<title>node1460</title>
<polygon fill="#f9f9f9" stroke="black" points="567.5,-1032 403.5,-1032 403.5,-996 567.5,-996 567.5,-1032"/>
<text text-anchor="middle" x="485.5" y="-1010.3" font-family="Arial" font-size="14.00" fill="#1a1919">1460 InstanceOf a!# int[]</text>
</g>
<!-- node1456&#45;&gt;node1460 -->
<g id="edge9" class="edge">
<title>node1456&#45;&gt;node1460</title>
<path fill="none" stroke="#3cb4a4" d="M548.51,-1082.8C536.95,-1070.36 521.16,-1053.36 508.27,-1039.5"/>
<polygon fill="#3cb4a4" stroke="#3cb4a4" points="510.83,-1037.12 501.46,-1032.18 505.71,-1041.88 510.83,-1037.12"/>
<text text-anchor="middle" x="547" y="-1053.8" font-family="arial" font-size="14.00" fill="#3cb4a4">value</text>
</g>
<!-- node1579 -->
<g id="node16" class="node">
<title>node1579</title>
<polygon fill="#f9f9f9" stroke="black" points="374,-684 213,-684 213,-648 374,-648 374,-684"/>
<text text-anchor="middle" x="293.5" y="-662.3" font-family="Arial" font-size="14.00" fill="#1a1919">1579 InstanceOf a# int[]</text>
</g>
<!-- node1456&#45;&gt;node1579 -->
<g id="edge20" class="edge">
<title>node1456&#45;&gt;node1579</title>
<path fill="none" stroke="#3cb4a4" d="M459.34,-1086.67C383.16,-1073.97 293.5,-1051.3 293.5,-1015 293.5,-1015 293.5,-1015 293.5,-752 293.5,-732.75 293.5,-711.05 293.5,-694.4"/>
<polygon fill="#3cb4a4" stroke="#3cb4a4" points="297,-694.26 293.5,-684.26 290,-694.26 297,-694.26"/>
<text text-anchor="middle" x="310" y="-879.8" font-family="arial" font-size="14.00" fill="#3cb4a4">value</text>
</g>
<!-- node1456&#45;&gt;node1585 -->
<g id="edge39" class="edge">
<title>node1456&#45;&gt;node1585</title>
<path fill="none" stroke="#3cb4a4" d="M614.67,-1082.97C643.68,-1069.6 674.5,-1047.7 674.5,-1015 674.5,-1015 674.5,-1015 674.5,-250 674.5,-195.61 507.49,-182.55 406.21,-179.62"/>
<polygon fill="#3cb4a4" stroke="#3cb4a4" points="406.1,-176.12 396.01,-179.36 405.92,-183.12 406.1,-176.12"/>
<text text-anchor="middle" x="690" y="-618.8" font-family="arial" font-size="14.00" fill="#3cb4a4">array</text>
</g>
<!-- node1674 -->
<g id="node24" class="node">
<title>node1674</title>
<polygon fill="#ffa500" stroke="black" points="646,-945 395,-945 395,-909 646,-909 646,-945"/>
<text text-anchor="middle" x="520.5" y="-923.3" font-family="Arial" font-size="14.00" fill="#1a1919">1674 Guard, else TransferToInterpreter</text>
</g>
<!-- node1456&#45;&gt;node1674 -->
<g id="edge8" class="edge">
<title>node1456&#45;&gt;node1674</title>
<path fill="none" stroke="#da2d4f" stroke-width="2" d="M571.06,-1082.89C578.12,-1061.83 587,-1025.25 576.5,-996 570.61,-979.59 558.86,-964.3 547.63,-952.4"/>
<polygon fill="#da2d4f" stroke="#da2d4f" stroke-width="2" points="549.92,-949.74 540.4,-945.09 544.95,-954.66 549.92,-949.74"/>
</g>
<!-- node1460&#45;&gt;node1674 -->
<g id="edge35" class="edge">
<title>node1460&#45;&gt;node1674</title>
<path fill="none" stroke="#3cb4a4" d="M492.58,-995.8C497.47,-983.93 504.06,-967.93 509.61,-954.45"/>
<polygon fill="#3cb4a4" stroke="#3cb4a4" points="512.86,-955.75 513.43,-945.18 506.38,-953.09 512.86,-955.75"/>
<text text-anchor="middle" x="509.5" y="-966.8" font-family="arial" font-size="14.00" fill="#3cb4a4">?</text>
</g>
<!-- node1470 -->
<g id="node10" class="node">
<title>node1470</title>
<polygon fill="#da2d4f" stroke="black" points="614.5,-858 410.5,-858 410.5,-822 614.5,-822 614.5,-858"/>
<text text-anchor="middle" x="512.5" y="-836.3" font-family="Arial" font-size="14.00" fill="#ffffff">1470 LoadField RubyArray.size</text>
</g>
<!-- node1470&#45;&gt;node1472 -->
<g id="edge12" class="edge">
<title>node1470&#45;&gt;node1472</title>
<path fill="none" stroke="#3cb4a4" d="M528.69,-821.8C541.56,-808.13 559.59,-788.97 573.21,-774.5"/>
<polygon fill="#3cb4a4" stroke="#3cb4a4" points="575.95,-776.69 580.25,-767.01 570.85,-771.89 575.95,-776.69"/>
<text text-anchor="middle" x="561" y="-792.8" font-family="arial" font-size="14.00" fill="#3cb4a4">y</text>
</g>
<!-- node1673 -->
<g id="node23" class="node">
<title>node1673</title>
<polygon fill="#ffa500" stroke="black" points="644,-684 393,-684 393,-648 644,-648 644,-684"/>
<text text-anchor="middle" x="518.5" y="-662.3" font-family="Arial" font-size="14.00" fill="#1a1919">1673 Guard, else TransferToInterpreter</text>
</g>
<!-- node1470&#45;&gt;node1673 -->
<g id="edge10" class="edge">
<title>node1470&#45;&gt;node1673</title>
<path fill="none" stroke="#da2d4f" stroke-width="2" d="M513.1,-821.88C514.14,-792 516.3,-730.11 517.55,-694.27"/>
<polygon fill="#da2d4f" stroke="#da2d4f" stroke-width="2" points="521.05,-694.17 517.91,-684.05 514.06,-693.92 521.05,-694.17"/>
</g>
<!-- node1472&#45;&gt;node1673 -->
<g id="edge33" class="edge">
<title>node1472&#45;&gt;node1673</title>
<path fill="none" stroke="#3cb4a4" d="M580.94,-738.72C570.07,-726.23 553.52,-707.23 540.19,-691.92"/>
<polygon fill="#3cb4a4" stroke="#3cb4a4" points="542.77,-689.55 533.56,-684.3 537.49,-694.14 542.77,-689.55"/>
<text text-anchor="middle" x="564.5" y="-705.8" font-family="arial" font-size="14.00" fill="#3cb4a4">?</text>
</g>
<!-- node1487 -->
<g id="node12" class="node">
<title>node1487</title>
<polygon fill="#ffa500" stroke="black" points="641,-597 396,-597 396,-561 641,-561 641,-597"/>
<text text-anchor="middle" x="518.5" y="-575.3" font-family="Arial" font-size="14.00" fill="#1a1919">1487 Guard, else ClassCastException</text>
</g>
<!-- node1544 -->
<g id="node13" class="node">
<title>node1544</title>
<polygon fill="#da2d4f" stroke="black" points="642,-516 395,-516 395,-480 642,-480 642,-516"/>
<text text-anchor="middle" x="518.5" y="-494.3" font-family="Arial" font-size="14.00" fill="#ffffff">1544 LoadField DynamicObject.shape</text>
</g>
<!-- node1487&#45;&gt;node1544 -->
<g id="edge14" class="edge">
<title>node1487&#45;&gt;node1544</title>
<path fill="none" stroke="#da2d4f" stroke-width="2" d="M518.5,-560.86C518.5,-550.71 518.5,-537.63 518.5,-526.12"/>
<polygon fill="#da2d4f" stroke="#da2d4f" stroke-width="2" points="522,-526.11 518.5,-516.11 515,-526.11 522,-526.11"/>
</g>
<!-- node1549 -->
<g id="node14" class="node">
<title>node1549</title>
<polygon fill="#3cb4a4" stroke="black" points="399.5,-429 337.83,-411 399.5,-393 461.17,-411 399.5,-429"/>
<text text-anchor="middle" x="399.5" y="-407.3" font-family="Arial" font-size="14.00" fill="#1a1919">1549 ==</text>
</g>
<!-- node1544&#45;&gt;node1549 -->
<g id="edge16" class="edge">
<title>node1544&#45;&gt;node1549</title>
<path fill="none" stroke="#3cb4a4" d="M494.42,-479.8C474.21,-465.37 445.44,-444.82 424.88,-430.13"/>
<polygon fill="#3cb4a4" stroke="#3cb4a4" points="426.79,-427.19 416.62,-424.23 422.72,-432.89 426.79,-427.19"/>
<text text-anchor="middle" x="470" y="-450.8" font-family="arial" font-size="14.00" fill="#3cb4a4">x</text>
</g>
<!-- node1672 -->
<g id="node22" class="node">
<title>node1672</title>
<polygon fill="#ffa500" stroke="black" points="525,-342 274,-342 274,-306 525,-306 525,-342"/>
<text text-anchor="middle" x="399.5" y="-320.3" font-family="Arial" font-size="14.00" fill="#1a1919">1672 Guard, else TransferToInterpreter</text>
</g>
<!-- node1544&#45;&gt;node1672 -->
<g id="edge15" class="edge">
<title>node1544&#45;&gt;node1672</title>
<path fill="none" stroke="#da2d4f" stroke-width="2" d="M512.8,-479.75C505.2,-458.22 490.36,-420.84 470.5,-393 458.9,-376.74 443.07,-361.13 429.3,-348.98"/>
<polygon fill="#da2d4f" stroke="#da2d4f" stroke-width="2" points="431.34,-346.12 421.47,-342.25 426.77,-351.43 431.34,-346.12"/>
</g>
<!-- node1549&#45;&gt;node1672 -->
<g id="edge31" class="edge">
<title>node1549&#45;&gt;node1672</title>
<path fill="none" stroke="#3cb4a4" d="M399.5,-392.8C399.5,-381.16 399.5,-365.55 399.5,-352.24"/>
<polygon fill="#3cb4a4" stroke="#3cb4a4" points="403,-352.18 399.5,-342.18 396,-352.18 403,-352.18"/>
<text text-anchor="middle" x="403.5" y="-363.8" font-family="arial" font-size="14.00" fill="#3cb4a4">?</text>
</g>
<!-- node1578 -->
<g id="node15" class="node">
<title>node1578</title>
<polygon fill="#ffa500" stroke="black" points="453,-269 208,-269 208,-233 453,-233 453,-269"/>
<text text-anchor="middle" x="330.5" y="-247.3" font-family="Arial" font-size="14.00" fill="#1a1919">1578 Guard, else ClassCastException</text>
</g>
<!-- node1578&#45;&gt;node1585 -->
<g id="edge19" class="edge">
<title>node1578&#45;&gt;node1585</title>
<path fill="none" stroke="#da2d4f" stroke-width="2" d="M330.5,-232.81C330.5,-224.79 330.5,-215.05 330.5,-206.07"/>
<polygon fill="#da2d4f" stroke="#da2d4f" stroke-width="2" points="334,-206.03 330.5,-196.03 327,-206.03 334,-206.03"/>
</g>
<!-- node1579&#45;&gt;node1487 -->
<g id="edge13" class="edge">
<title>node1579&#45;&gt;node1487</title>
<path fill="none" stroke="#3cb4a4" d="M338.76,-647.9C374.84,-634.27 425.5,-615.13 463.84,-600.65"/>
<polygon fill="#3cb4a4" stroke="#3cb4a4" points="465.19,-603.88 473.31,-597.07 462.72,-597.33 465.19,-603.88"/>
<text text-anchor="middle" x="423.5" y="-618.8" font-family="arial" font-size="14.00" fill="#3cb4a4">?</text>
</g>
<!-- node1579&#45;&gt;node1578 -->
<g id="edge18" class="edge">
<title>node1579&#45;&gt;node1578</title>
<path fill="none" stroke="#3cb4a4" d="M273.24,-647.99C256.86,-632.24 236.5,-607.18 236.5,-580 236.5,-580 236.5,-580 236.5,-323 236.5,-301.1 252.95,-285.09 272.09,-273.89"/>
<polygon fill="#3cb4a4" stroke="#3cb4a4" points="273.88,-276.9 281.02,-269.07 270.56,-270.74 273.88,-276.9"/>
<text text-anchor="middle" x="240.5" y="-450.8" font-family="arial" font-size="14.00" fill="#3cb4a4">?</text>
</g>
<!-- node1585&#45;&gt;node1702 -->
<g id="edge23" class="edge">
<title>node1585&#45;&gt;node1702</title>
<path fill="none" stroke="#da2d4f" stroke-width="2" d="M274.69,-159.99C241.22,-149.79 198.47,-136.77 163.35,-126.07"/>
<polygon fill="#da2d4f" stroke="#da2d4f" stroke-width="2" points="164.25,-122.68 153.66,-123.11 162.21,-129.38 164.25,-122.68"/>
</g>
<!-- node1657 -->
<g id="node18" class="node">
<title>node1657</title>
<polygon fill="#e98693" stroke="black" points="143,-36 52,-36 52,0 143,0 143,-36"/>
<text text-anchor="middle" x="97.5" y="-14.3" font-family="Arial" font-size="14.00" fill="#1a1919">1657 Return</text>
</g>
<!-- node1666&#45;&gt;node1286 -->
<g id="edge26" class="edge">
<title>node1666&#45;&gt;node1286</title>
<path fill="none" stroke="#da2d4f" stroke-width="2" d="M306.36,-1505.86C309.86,-1495.61 314.39,-1482.37 318.35,-1470.76"/>
<polygon fill="#da2d4f" stroke="#da2d4f" stroke-width="2" points="321.73,-1471.7 321.65,-1461.11 315.11,-1469.44 321.73,-1471.7"/>
</g>
<!-- node1670&#45;&gt;node1671 -->
<g id="edge28" class="edge">
<title>node1670&#45;&gt;node1671</title>
<path fill="none" stroke="#da2d4f" stroke-width="2" d="M454.75,-1250.8C457.62,-1239.16 461.48,-1223.55 464.77,-1210.24"/>
<polygon fill="#da2d4f" stroke="#da2d4f" stroke-width="2" points="468.26,-1210.72 467.26,-1200.18 461.46,-1209.04 468.26,-1210.72"/>
</g>
<!-- node1671&#45;&gt;node1456 -->
<g id="edge30" class="edge">
<title>node1671&#45;&gt;node1456</title>
<path fill="none" stroke="#da2d4f" stroke-width="2" d="M491.68,-1163.86C504.84,-1152.68 522.2,-1137.93 536.66,-1125.64"/>
<polygon fill="#da2d4f" stroke="#da2d4f" stroke-width="2" points="539,-1128.25 544.36,-1119.11 534.47,-1122.92 539,-1128.25"/>
</g>
<!-- node1672&#45;&gt;node1578 -->
<g id="edge32" class="edge">
<title>node1672&#45;&gt;node1578</title>
<path fill="none" stroke="#da2d4f" stroke-width="2" d="M382.8,-305.81C374.24,-297 363.66,-286.13 354.27,-276.46"/>
<polygon fill="#da2d4f" stroke="#da2d4f" stroke-width="2" points="356.53,-273.76 347.05,-269.03 351.51,-278.64 356.53,-273.76"/>
</g>
<!-- node1673&#45;&gt;node1487 -->
<g id="edge34" class="edge">
<title>node1673&#45;&gt;node1487</title>
<path fill="none" stroke="#da2d4f" stroke-width="2" d="M518.5,-647.8C518.5,-636.16 518.5,-620.55 518.5,-607.24"/>
<polygon fill="#da2d4f" stroke="#da2d4f" stroke-width="2" points="522,-607.18 518.5,-597.18 515,-607.18 522,-607.18"/>
</g>
<!-- node1674&#45;&gt;node1470 -->
<g id="edge36" class="edge">
<title>node1674&#45;&gt;node1470</title>
<path fill="none" stroke="#da2d4f" stroke-width="2" d="M518.88,-908.8C517.79,-897.16 516.32,-881.55 515.06,-868.24"/>
<polygon fill="#da2d4f" stroke="#da2d4f" stroke-width="2" points="518.54,-867.8 514.12,-858.18 511.57,-868.46 518.54,-867.8"/>
</g>
<!-- node1702&#45;&gt;node1657 -->
<g id="edge24" class="edge">
<title>node1702&#45;&gt;node1657</title>
<path fill="none" stroke="#3cb4a4" d="M83.4,-86.84C79.78,-81.46 76.38,-75.27 74.5,-69 72.09,-60.93 74.06,-52.49 77.69,-44.89"/>
<polygon fill="#3cb4a4" stroke="#3cb4a4" points="80.79,-46.53 82.75,-36.12 74.72,-43.03 80.79,-46.53"/>
<text text-anchor="middle" x="91.5" y="-57.8" font-family="arial" font-size="14.00" fill="#3cb4a4">result</text>
</g>
<!-- node1702&#45;&gt;node1657 -->
<g id="edge38" class="edge">
<title>node1702&#45;&gt;node1657</title>
<path fill="none" stroke="#da2d4f" stroke-width="2" d="M104.44,-86.98C107.56,-77.35 110.2,-65.07 108.5,-54 108.09,-51.32 107.51,-48.56 106.83,-45.83"/>
<polygon fill="#da2d4f" stroke="#da2d4f" stroke-width="2" points="110.19,-44.83 104.05,-36.2 103.46,-46.78 110.19,-44.83"/>
</g>
<!-- node1703&#45;&gt;node695 -->
<g id="edge49" class="edge">
<title>node1703&#45;&gt;node695</title>
<path fill="none" stroke="#da2d4f" stroke-width="2" d="M591.47,-1760.86C600.97,-1749.99 613.4,-1735.75 623.95,-1723.67"/>
<polygon fill="#da2d4f" stroke="#da2d4f" stroke-width="2" points="626.62,-1725.94 630.56,-1716.11 621.34,-1721.34 626.62,-1725.94"/>
</g>
<!-- inline1337x1338 -->
<g id="node27" class="node">
<title>inline1337x1338</title>
<ellipse fill="#d7ede7" stroke="black" cx="572.5" cy="-1443" rx="74.11" ry="18"/>
<text text-anchor="middle" x="572.5" y="-1441.1" font-family="Arial" font-size="8.00" fill="#1a1919">1337 C(RubyClass@13de4a9c)</text>
</g>
<!-- inline1337x1338&#45;&gt;node1338 -->
<g id="edge5" class="edge">
<title>inline1337x1338&#45;&gt;node1338</title>
<path fill="none" stroke="#3cb4a4" d="M549.27,-1425.81C525.48,-1409.24 489.07,-1383.88 467.74,-1369.01"/>
<text text-anchor="middle" x="521.5" y="-1397.6" font-family="arial" font-size="8.00" fill="#3cb4a4">y</text>
</g>
<!-- inline5x1415 -->
<g id="node28" class="node">
<title>inline5x1415</title>
<ellipse fill="#d7ede7" stroke="black" cx="742.5" cy="-1698" rx="27" ry="18"/>
<text text-anchor="middle" x="742.5" y="-1696.1" font-family="Arial" font-size="8.00" fill="#1a1919">5 C(0)</text>
</g>
<!-- inline5x1415&#45;&gt;node1415 -->
<g id="edge7" class="edge">
<title>inline5x1415&#45;&gt;node1415</title>
<path fill="none" stroke="#3cb4a4" d="M725,-1683.72C703.47,-1667.38 667.21,-1639.86 646.43,-1624.09"/>
<text text-anchor="middle" x="694.5" y="-1652.6" font-family="arial" font-size="8.00" fill="#3cb4a4">y</text>
</g>
<!-- inline1548x1549 -->
<g id="node29" class="node">
<title>inline1548x1549</title>
<ellipse fill="#d7ede7" stroke="black" cx="320.5" cy="-498" rx="56.31" ry="18"/>
<text text-anchor="middle" x="320.5" y="-496.1" font-family="Arial" font-size="8.00" fill="#1a1919">1548 C(@2ddd3596{})</text>
</g>
<!-- inline1548x1549&#45;&gt;node1549 -->
<g id="edge17" class="edge">
<title>inline1548x1549&#45;&gt;node1549</title>
<path fill="none" stroke="#3cb4a4" d="M335.73,-480.61C350.62,-464.59 373.01,-440.5 386.92,-425.54"/>
<text text-anchor="middle" x="367.5" y="-452.6" font-family="arial" font-size="8.00" fill="#3cb4a4">y</text>
</g>
<!-- inline143x924 -->
<g id="node30" class="node">
<title>inline143x924</title>
<ellipse fill="#d7ede7" stroke="black" cx="300.5" cy="-1698" rx="27.46" ry="18"/>
<text text-anchor="middle" x="300.5" y="-1696.1" font-family="Arial" font-size="8.00" fill="#1a1919">143 T(6)</text>
</g>
<!-- inline143x924&#45;&gt;node924 -->
<g id="edge40" class="edge">
<title>inline143x924&#45;&gt;node924</title>
<path fill="none" stroke="#3cb4a4" d="M300.5,-1679.8C300.5,-1665.05 300.5,-1643.92 300.5,-1629.18"/>
<text text-anchor="middle" x="310" y="-1652.6" font-family="arial" font-size="8.00" fill="#3cb4a4">value</text>
</g>
<!-- inline158x1286 -->
<g id="node31" class="node">
<title>inline158x1286</title>
<ellipse fill="#d7ede7" stroke="black" cx="471.5" cy="-1524" rx="27.46" ry="18"/>
<text text-anchor="middle" x="471.5" y="-1522.1" font-family="Arial" font-size="8.00" fill="#1a1919">158 T(7)</text>
</g>
<!-- inline158x1286&#45;&gt;node1286 -->
<g id="edge41" class="edge">
<title>inline158x1286&#45;&gt;node1286</title>
<path fill="none" stroke="#3cb4a4" d="M451.17,-1511.85C427.06,-1498.62 386.61,-1476.43 358.57,-1461.04"/>
<text text-anchor="middle" x="415.5" y="-1481.6" font-family="arial" font-size="8.00" fill="#3cb4a4">object</text>
</g>
<!-- inline158x1456 -->
<g id="node32" class="node">
<title>inline158x1456</title>
<ellipse fill="#d7ede7" stroke="black" cx="653.5" cy="-1182" rx="27.46" ry="18"/>
<text text-anchor="middle" x="653.5" y="-1180.1" font-family="Arial" font-size="8.00" fill="#1a1919">158 T(7)</text>
</g>
<!-- inline158x1456&#45;&gt;node1456 -->
<g id="edge42" class="edge">
<title>inline158x1456&#45;&gt;node1456</title>
<path fill="none" stroke="#3cb4a4" d="M637.59,-1166.88C622.49,-1153.47 599.77,-1133.31 583.68,-1119.02"/>
<text text-anchor="middle" x="622.5" y="-1139.6" font-family="arial" font-size="8.00" fill="#3cb4a4">object</text>
</g>
<!-- inline158x1470 -->
<g id="node33" class="node">
<title>inline158x1470</title>
<ellipse fill="#d7ede7" stroke="black" cx="349.5" cy="-927" rx="27.46" ry="18"/>
<text text-anchor="middle" x="349.5" y="-925.1" font-family="Arial" font-size="8.00" fill="#1a1919">158 T(7)</text>
</g>
<!-- inline158x1470&#45;&gt;node1470 -->
<g id="edge43" class="edge">
<title>inline158x1470&#45;&gt;node1470</title>
<path fill="none" stroke="#3cb4a4" d="M370.14,-915.23C397.73,-900.85 446.92,-875.2 479.63,-858.14"/>
<text text-anchor="middle" x="452.5" y="-881.6" font-family="arial" font-size="8.00" fill="#3cb4a4">object</text>
</g>
<!-- inline158x1544 -->
<g id="node34" class="node">
<title>inline158x1544</title>
<ellipse fill="#d7ede7" stroke="black" cx="350.5" cy="-579" rx="27.46" ry="18"/>
<text text-anchor="middle" x="350.5" y="-577.1" font-family="Arial" font-size="8.00" fill="#1a1919">158 T(7)</text>
</g>
<!-- inline158x1544&#45;&gt;node1544 -->
<g id="edge44" class="edge">
<title>inline158x1544&#45;&gt;node1544</title>
<path fill="none" stroke="#3cb4a4" d="M372.2,-567.74C376.91,-565.52 381.87,-563.18 386.5,-561 418.8,-545.79 455.56,-528.53 482.07,-516.09"/>
<text text-anchor="middle" x="452.5" y="-536.6" font-family="arial" font-size="8.00" fill="#3cb4a4">object</text>
</g>
<!-- inline176x695 -->
<g id="node35" class="node">
<title>inline176x695</title>
<ellipse fill="#d7ede7" stroke="black" cx="678.5" cy="-1779" rx="27.46" ry="18"/>
<text text-anchor="middle" x="678.5" y="-1777.1" font-family="Arial" font-size="8.00" fill="#1a1919">176 T(8)</text>
</g>
<!-- inline176x695&#45;&gt;node695 -->
<g id="edge45" class="edge">
<title>inline176x695&#45;&gt;node695</title>
<path fill="none" stroke="#3cb4a4" d="M671.5,-1761.25C665.94,-1747.93 658.19,-1729.38 652.6,-1716"/>
<text text-anchor="middle" x="672" y="-1736.6" font-family="arial" font-size="8.00" fill="#3cb4a4">value</text>
</g>
<!-- inline194x850 -->
<g id="node36" class="node">
<title>inline194x850</title>
<ellipse fill="#d7ede7" stroke="black" cx="158.5" cy="-1698" rx="27.46" ry="18"/>
<text text-anchor="middle" x="158.5" y="-1696.1" font-family="Arial" font-size="8.00" fill="#1a1919">194 T(9)</text>
</g>
<!-- inline194x850&#45;&gt;node850 -->
<g id="edge46" class="edge">
<title>inline194x850&#45;&gt;node850</title>
<path fill="none" stroke="#3cb4a4" d="M158.5,-1679.8C158.5,-1665.05 158.5,-1643.92 158.5,-1629.18"/>
<text text-anchor="middle" x="168" y="-1652.6" font-family="arial" font-size="8.00" fill="#3cb4a4">value</text>
</g>
<!-- inline2x1703 -->
<g id="node37" class="node">
<title>inline2x1703</title>
<ellipse fill="#d7ede7" stroke="black" cx="613.5" cy="-1860" rx="27" ry="18"/>
<text text-anchor="middle" x="613.5" y="-1858.1" font-family="Arial" font-size="8.00" fill="#1a1919">2 P(1)</text>
</g>
<!-- inline2x1703&#45;&gt;node1703 -->
<g id="edge47" class="edge">
<title>inline2x1703&#45;&gt;node1703</title>
<path fill="none" stroke="#3cb4a4" d="M605.83,-1842.63C599.61,-1829.34 590.86,-1810.67 584.54,-1797.17"/>
<text text-anchor="middle" x="605" y="-1817.6" font-family="arial" font-size="8.00" fill="#3cb4a4">array</text>
</g>
</g>
</svg>
