<?xml version="1.0" encoding="UTF-8" standalone="no"?>
<!DOCTYPE svg PUBLIC "-//W3C//DTD SVG 1.1//EN"
 "http://www.w3.org/Graphics/SVG/1.1/DTD/svg11.dtd">
<!-- Generated by graphviz version 2.44.1 (20200629.0846)
 -->
<!-- Title: G Pages: 1 -->
<svg width="960pt" height="1818pt"
 viewBox="0.00 0.00 959.50 1818.00" xmlns="http://www.w3.org/2000/svg" xmlns:xlink="http://www.w3.org/1999/xlink">
<g id="graph0" class="graph" transform="scale(1 1) rotate(0) translate(4 1814)">
<title>G</title>
<!-- node0 -->
<g id="node1" class="node">
<title>node0</title>
<polygon fill="#e98693" stroke="black" points="223,-1810 167,-1810 167,-1774 223,-1774 223,-1810"/>
<text text-anchor="middle" x="195" y="-1788.3" font-family="Arial" font-size="14.00" fill="#1a1919">0 Start</text>
</g>
<!-- node2244 -->
<g id="node29" class="node">
<title>node2244</title>
<polygon fill="#da2d4f" stroke="black" points="287.5,-1729 174.5,-1729 174.5,-1693 287.5,-1693 287.5,-1729"/>
<text text-anchor="middle" x="231" y="-1707.3" font-family="Arial" font-size="14.00" fill="#ffffff">2244 Load T(...)</text>
</g>
<!-- node0&#45;&gt;node2244 -->
<g id="edge51" class="edge">
<title>node0&#45;&gt;node2244</title>
<path fill="none" stroke="#da2d4f" stroke-width="2" d="M202.81,-1773.86C207.53,-1763.51 213.64,-1750.1 218.96,-1738.41"/>
<polygon fill="#da2d4f" stroke="#da2d4f" stroke-width="2" points="222.24,-1739.66 223.2,-1729.11 215.87,-1736.76 222.24,-1739.66"/>
</g>
<!-- node521 -->
<g id="node2" class="node">
<title>node521</title>
<polygon fill="#f9f9f9" stroke="black" points="340,-1648 258,-1648 258,-1612 340,-1612 340,-1648"/>
<text text-anchor="middle" x="299" y="-1626.3" font-family="Arial" font-size="14.00" fill="#1a1919">521 Unbox</text>
</g>
<!-- node680 -->
<g id="node3" class="node">
<title>node680</title>
<polygon fill="#f9f9f9" stroke="black" points="400,-1561 318,-1561 318,-1525 400,-1525 400,-1561"/>
<text text-anchor="middle" x="359" y="-1539.3" font-family="Arial" font-size="14.00" fill="#1a1919">680 Unbox</text>
</g>
<!-- node521&#45;&gt;node680 -->
<g id="edge1" class="edge">
<title>node521&#45;&gt;node680</title>
<path fill="none" stroke="#da2d4f" stroke-width="2" d="M311.14,-1611.8C319.68,-1599.7 331.26,-1583.3 340.88,-1569.67"/>
<polygon fill="#da2d4f" stroke="#da2d4f" stroke-width="2" points="343.97,-1571.36 346.88,-1561.18 338.25,-1567.33 343.97,-1571.36"/>
</g>
<!-- node1190 -->
<g id="node5" class="node">
<title>node1190</title>
<polygon fill="#3cb4a4" stroke="black" points="239,-1561 178.17,-1543 239,-1525 299.83,-1543 239,-1561"/>
<text text-anchor="middle" x="239" y="-1539.3" font-family="Arial" font-size="14.00" fill="#1a1919">1190 ==</text>
</g>
<!-- node521&#45;&gt;node1190 -->
<g id="edge47" class="edge">
<title>node521&#45;&gt;node1190</title>
<path fill="none" stroke="#3cb4a4" d="M286.86,-1611.8C277.61,-1598.7 264.81,-1580.57 254.78,-1566.35"/>
<polygon fill="#3cb4a4" stroke="#3cb4a4" points="257.57,-1564.23 248.94,-1558.08 251.85,-1568.27 257.57,-1564.23"/>
<text text-anchor="middle" x="275.5" y="-1582.8" font-family="arial" font-size="14.00" fill="#3cb4a4">x</text>
</g>
<!-- node1189 -->
<g id="node4" class="node">
<title>node1189</title>
<polygon fill="#e98693" stroke="black" points="314.5,-1474 257.5,-1474 257.5,-1438 314.5,-1438 314.5,-1474"/>
<text text-anchor="middle" x="286" y="-1452.3" font-family="Arial" font-size="14.00" fill="#1a1919">1189 If</text>
</g>
<!-- node680&#45;&gt;node1189 -->
<g id="edge2" class="edge">
<title>node680&#45;&gt;node1189</title>
<path fill="none" stroke="#da2d4f" stroke-width="2" d="M344.23,-1524.8C333.64,-1512.47 319.22,-1495.68 307.38,-1481.89"/>
<polygon fill="#da2d4f" stroke="#da2d4f" stroke-width="2" points="309.92,-1479.48 300.75,-1474.18 304.61,-1484.04 309.92,-1479.48"/>
</g>
<!-- node2231 -->
<g id="node25" class="node">
<title>node2231</title>
<polygon fill="#f9f9f9" stroke="black" points="951.5,-1300 756.5,-1300 756.5,-1264 951.5,-1264 951.5,-1300"/>
<text text-anchor="middle" x="854" y="-1278.3" font-family="Arial" font-size="14.00" fill="#1a1919">2231 BoxNode$AllocatingBox</text>
</g>
<!-- node680&#45;&gt;node2231 -->
<g id="edge35" class="edge">
<title>node680&#45;&gt;node2231</title>
<path fill="none" stroke="#3cb4a4" d="M400.02,-1535.59C509.31,-1517.59 803.06,-1462.9 859,-1387 875.18,-1365.04 870.55,-1332.84 864.02,-1310.1"/>
<polygon fill="#3cb4a4" stroke="#3cb4a4" points="867.3,-1308.86 860.95,-1300.38 860.63,-1310.97 867.3,-1308.86"/>
<text text-anchor="middle" x="855.5" y="-1408.8" font-family="arial" font-size="14.00" fill="#3cb4a4">value</text>
</g>
<!-- node2232 -->
<g id="node26" class="node">
<title>node2232</title>
<polygon fill="#da2d4f" stroke="black" points="362.5,-1300 283.5,-1300 283.5,-1264 362.5,-1264 362.5,-1300"/>
<text text-anchor="middle" x="323" y="-1278.3" font-family="Arial" font-size="14.00" fill="#ffffff">2232 Alloc</text>
</g>
<!-- node680&#45;&gt;node2232 -->
<g id="edge40" class="edge">
<title>node680&#45;&gt;node2232</title>
<path fill="none" stroke="#3cb4a4" d="M356.58,-1524.6C350.45,-1480.46 334.23,-1363.83 326.81,-1310.42"/>
<polygon fill="#3cb4a4" stroke="#3cb4a4" points="330.25,-1309.74 325.41,-1300.32 323.32,-1310.71 330.25,-1309.74"/>
<text text-anchor="middle" x="361" y="-1408.8" font-family="arial" font-size="14.00" fill="#3cb4a4">values</text>
</g>
<!-- node1191 -->
<g id="node6" class="node">
<title>node1191</title>
<polygon fill="#e98693" stroke="black" points="850,-1387 766,-1387 766,-1351 850,-1351 850,-1387"/>
<text text-anchor="middle" x="808" y="-1365.3" font-family="Arial" font-size="14.00" fill="#1a1919">1191 Begin</text>
</g>
<!-- node1189&#45;&gt;node1191 -->
<g id="edge4" class="edge">
<title>node1189&#45;&gt;node1191</title>
<path fill="none" stroke="#da2d4f" stroke-width="2" d="M314.74,-1452.65C387.4,-1446.33 584.3,-1426.84 755.9,-1387.03"/>
<polygon fill="#da2d4f" stroke="#da2d4f" stroke-width="2" points="756.93,-1390.38 765.87,-1384.69 755.33,-1383.57 756.93,-1390.38"/>
<text text-anchor="middle" x="671.5" y="-1408.8" font-family="arial" font-size="14.00" fill="#da2d4f">T</text>
</g>
<!-- node1192 -->
<g id="node7" class="node">
<title>node1192</title>
<polygon fill="#e98693" stroke="black" points="318,-1387 234,-1387 234,-1351 318,-1351 318,-1387"/>
<text text-anchor="middle" x="276" y="-1365.3" font-family="Arial" font-size="14.00" fill="#1a1919">1192 Begin</text>
</g>
<!-- node1189&#45;&gt;node1192 -->
<g id="edge5" class="edge">
<title>node1189&#45;&gt;node1192</title>
<path fill="none" stroke="#da2d4f" stroke-width="2" d="M283.98,-1437.8C282.61,-1426.16 280.77,-1410.55 279.2,-1397.24"/>
<polygon fill="#da2d4f" stroke="#da2d4f" stroke-width="2" points="282.67,-1396.7 278.02,-1387.18 275.71,-1397.52 282.67,-1396.7"/>
<text text-anchor="middle" x="285.5" y="-1408.8" font-family="arial" font-size="14.00" fill="#da2d4f">F</text>
</g>
<!-- node1190&#45;&gt;node1189 -->
<g id="edge3" class="edge">
<title>node1190&#45;&gt;node1189</title>
<path fill="none" stroke="#3cb4a4" d="M247.19,-1527.19C253.87,-1515.1 263.49,-1497.7 271.48,-1483.25"/>
<polygon fill="#3cb4a4" stroke="#3cb4a4" points="274.67,-1484.72 276.45,-1474.27 268.55,-1481.33 274.67,-1484.72"/>
<text text-anchor="middle" x="269" y="-1495.8" font-family="arial" font-size="14.00" fill="#3cb4a4">?</text>
</g>
<!-- node1191&#45;&gt;node2231 -->
<g id="edge7" class="edge">
<title>node1191&#45;&gt;node2231</title>
<path fill="none" stroke="#da2d4f" stroke-width="2" d="M817.31,-1350.8C823.79,-1338.82 832.56,-1322.62 839.9,-1309.06"/>
<polygon fill="#da2d4f" stroke="#da2d4f" stroke-width="2" points="843.02,-1310.64 844.71,-1300.18 836.87,-1307.3 843.02,-1310.64"/>
</g>
<!-- node1192&#45;&gt;node2232 -->
<g id="edge8" class="edge">
<title>node1192&#45;&gt;node2232</title>
<path fill="none" stroke="#da2d4f" stroke-width="2" d="M291.38,-1350.97C295.83,-1345.49 300.45,-1339.22 304,-1333 308.1,-1325.82 311.64,-1317.59 314.53,-1309.91"/>
<polygon fill="#da2d4f" stroke="#da2d4f" stroke-width="2" points="317.9,-1310.85 317.92,-1300.26 311.3,-1308.53 317.9,-1310.85"/>
</g>
<!-- node1268 -->
<g id="node8" class="node">
<title>node1268</title>
<ellipse fill="black" stroke="black" cx="323" cy="-1108" rx="18" ry="18"/>
</g>
<!-- node1491 -->
<g id="node9" class="node">
<title>node1491</title>
<polygon fill="#da2d4f" stroke="black" points="306,-1053 0,-1053 0,-1017 306,-1017 306,-1053"/>
<text text-anchor="middle" x="153" y="-1031.3" font-family="Arial" font-size="14.00" fill="#ffffff">1491 LoadField RubyDynamicObject.metaClass</text>
</g>
<!-- node1268&#45;&gt;node1491 -->
<g id="edge10" class="edge">
<title>node1268&#45;&gt;node1491</title>
<path fill="none" stroke="#da2d4f" stroke-width="2" d="M306.7,-1100.19C283.15,-1090.36 238.59,-1071.75 203.49,-1057.09"/>
<polygon fill="#da2d4f" stroke="#da2d4f" stroke-width="2" points="204.44,-1053.69 193.86,-1053.07 201.74,-1060.15 204.44,-1053.69"/>
</g>
<!-- node1542 -->
<g id="node10" class="node">
<title>node1542</title>
<polygon fill="#3cb4a4" stroke="black" points="258,-966 196.33,-948 258,-930 319.67,-948 258,-966"/>
<text text-anchor="middle" x="258" y="-944.3" font-family="Arial" font-size="14.00" fill="#1a1919">1542 ==</text>
</g>
<!-- node1491&#45;&gt;node1542 -->
<g id="edge13" class="edge">
<title>node1491&#45;&gt;node1542</title>
<path fill="none" stroke="#3cb4a4" d="M174.25,-1016.8C191.71,-1002.66 216.42,-982.66 234.48,-968.04"/>
<polygon fill="#3cb4a4" stroke="#3cb4a4" points="236.68,-970.76 242.25,-961.75 232.28,-965.32 236.68,-970.76"/>
<text text-anchor="middle" x="215.5" y="-987.8" font-family="arial" font-size="14.00" fill="#3cb4a4">x</text>
</g>
<!-- node2199 -->
<g id="node18" class="node">
<title>node2199</title>
<polygon fill="#ffa500" stroke="black" points="383.5,-879 132.5,-879 132.5,-843 383.5,-843 383.5,-879"/>
<text text-anchor="middle" x="258" y="-857.3" font-family="Arial" font-size="14.00" fill="#1a1919">2199 Guard, else TransferToInterpreter</text>
</g>
<!-- node1491&#45;&gt;node2199 -->
<g id="edge12" class="edge">
<title>node1491&#45;&gt;node2199</title>
<path fill="none" stroke="#da2d4f" stroke-width="2" d="M155.96,-1016.69C160.24,-995.1 169.6,-957.66 187,-930 197.56,-913.21 213.16,-897.66 227.05,-885.67"/>
<polygon fill="#da2d4f" stroke="#da2d4f" stroke-width="2" points="229.55,-888.14 234.98,-879.04 225.06,-882.77 229.55,-888.14"/>
</g>
<!-- node1542&#45;&gt;node2199 -->
<g id="edge27" class="edge">
<title>node1542&#45;&gt;node2199</title>
<path fill="none" stroke="#3cb4a4" d="M258,-929.8C258,-918.16 258,-902.55 258,-889.24"/>
<polygon fill="#3cb4a4" stroke="#3cb4a4" points="261.5,-889.18 258,-879.18 254.5,-889.18 261.5,-889.18"/>
<text text-anchor="middle" x="262" y="-900.8" font-family="arial" font-size="14.00" fill="#3cb4a4">?</text>
</g>
<!-- node1672 -->
<g id="node11" class="node">
<title>node1672</title>
<polygon fill="#da2d4f" stroke="black" points="426,-806 216,-806 216,-770 426,-770 426,-806"/>
<text text-anchor="middle" x="321" y="-784.3" font-family="Arial" font-size="14.00" fill="#ffffff">1672 LoadField RubyArray.store</text>
</g>
<!-- node1676 -->
<g id="node12" class="node">
<title>node1676</title>
<polygon fill="#f9f9f9" stroke="black" points="518,-719 354,-719 354,-683 518,-683 518,-719"/>
<text text-anchor="middle" x="436" y="-697.3" font-family="Arial" font-size="14.00" fill="#1a1919">1676 InstanceOf a!# int[]</text>
</g>
<!-- node1672&#45;&gt;node1676 -->
<g id="edge17" class="edge">
<title>node1672&#45;&gt;node1676</title>
<path fill="none" stroke="#3cb4a4" d="M344.27,-769.8C361.65,-756.95 385.59,-739.26 404.66,-725.17"/>
<polygon fill="#3cb4a4" stroke="#3cb4a4" points="406.8,-727.93 412.76,-719.18 402.64,-722.3 406.8,-727.93"/>
<text text-anchor="middle" x="401.5" y="-740.8" font-family="arial" font-size="14.00" fill="#3cb4a4">value</text>
</g>
<!-- node1711 -->
<g id="node16" class="node">
<title>node1711</title>
<polygon fill="#f9f9f9" stroke="black" points="311,-665 151,-665 151,-629 311,-629 311,-665"/>
<text text-anchor="middle" x="231" y="-643.3" font-family="Arial" font-size="14.00" fill="#1a1919">1711 InstanceOf a# int[]</text>
</g>
<!-- node1672&#45;&gt;node1711 -->
<g id="edge24" class="edge">
<title>node1672&#45;&gt;node1711</title>
<path fill="none" stroke="#3cb4a4" d="M296.61,-769.76C290.34,-764.55 283.97,-758.48 279,-752 260.93,-728.43 247.6,-696.97 239.64,-674.84"/>
<polygon fill="#3cb4a4" stroke="#3cb4a4" points="242.85,-673.4 236.26,-665.1 236.23,-675.69 242.85,-673.4"/>
<text text-anchor="middle" x="295.5" y="-740.8" font-family="arial" font-size="14.00" fill="#3cb4a4">value</text>
</g>
<!-- node1712 -->
<g id="node17" class="node">
<title>node1712</title>
<polygon fill="#da2d4f" stroke="black" points="351,-210 223,-210 223,-174 351,-174 351,-210"/>
<text text-anchor="middle" x="287" y="-188.3" font-family="Arial" font-size="14.00" fill="#ffffff">1712 LoadIndexed</text>
</g>
<!-- node1672&#45;&gt;node1712 -->
<g id="edge46" class="edge">
<title>node1672&#45;&gt;node1712</title>
<path fill="none" stroke="#3cb4a4" d="M215.8,-775.4C174.15,-764.39 136,-743.09 136,-702 136,-702 136,-702 136,-272 136,-233.71 174.6,-213.94 212.77,-203.76"/>
<polygon fill="#3cb4a4" stroke="#3cb4a4" points="214.09,-207.04 222.96,-201.25 212.42,-200.24 214.09,-207.04"/>
<text text-anchor="middle" x="151.5" y="-472.8" font-family="arial" font-size="14.00" fill="#3cb4a4">array</text>
</g>
<!-- node2201 -->
<g id="node20" class="node">
<title>node2201</title>
<polygon fill="#ffa500" stroke="black" points="519.5,-611 268.5,-611 268.5,-575 519.5,-575 519.5,-611"/>
<text text-anchor="middle" x="394" y="-589.3" font-family="Arial" font-size="14.00" fill="#1a1919">2201 Guard, else TransferToInterpreter</text>
</g>
<!-- node1672&#45;&gt;node2201 -->
<g id="edge16" class="edge">
<title>node1672&#45;&gt;node2201</title>
<path fill="none" stroke="#da2d4f" stroke-width="2" d="M323.5,-769.64C326.86,-748.63 333.75,-712.43 345,-683 353.5,-660.76 366.66,-637.22 377.2,-619.95"/>
<polygon fill="#da2d4f" stroke="#da2d4f" stroke-width="2" points="380.44,-621.38 382.75,-611.04 374.49,-617.68 380.44,-621.38"/>
</g>
<!-- node1676&#45;&gt;node2201 -->
<g id="edge31" class="edge">
<title>node1676&#45;&gt;node2201</title>
<path fill="none" stroke="#3cb4a4" d="M429.25,-682.97C422.62,-666.22 412.39,-640.41 404.66,-620.89"/>
<polygon fill="#3cb4a4" stroke="#3cb4a4" points="407.81,-619.35 400.87,-611.34 401.3,-621.93 407.81,-619.35"/>
<text text-anchor="middle" x="425" y="-643.3" font-family="arial" font-size="14.00" fill="#3cb4a4">?</text>
</g>
<!-- node1685 -->
<g id="node13" class="node">
<title>node1685</title>
<polygon fill="#da2d4f" stroke="black" points="497,-538 293,-538 293,-502 497,-502 497,-538"/>
<text text-anchor="middle" x="395" y="-516.3" font-family="Arial" font-size="14.00" fill="#ffffff">1685 LoadField RubyArray.size</text>
</g>
<!-- node1687 -->
<g id="node14" class="node">
<title>node1687</title>
<polygon fill="#3cb4a4" stroke="black" points="477,-451 422.54,-433 477,-415 531.46,-433 477,-451"/>
<text text-anchor="middle" x="477" y="-429.3" font-family="Arial" font-size="14.00" fill="#1a1919">1687 &lt;</text>
</g>
<!-- node1685&#45;&gt;node1687 -->
<g id="edge20" class="edge">
<title>node1685&#45;&gt;node1687</title>
<path fill="none" stroke="#3cb4a4" d="M411.59,-501.8C424.78,-488.13 443.27,-468.97 457.22,-454.5"/>
<polygon fill="#3cb4a4" stroke="#3cb4a4" points="460.02,-456.64 464.45,-447.01 454.99,-451.78 460.02,-456.64"/>
<text text-anchor="middle" x="443.5" y="-472.8" font-family="arial" font-size="14.00" fill="#3cb4a4">x</text>
</g>
<!-- node2200 -->
<g id="node19" class="node">
<title>node2200</title>
<polygon fill="#ffa500" stroke="black" points="533,-364 259,-364 259,-328 533,-328 533,-364"/>
<text text-anchor="middle" x="396" y="-342.3" font-family="Arial" font-size="14.00" fill="#1a1919">2200 Guard not, else TransferToInterpreter</text>
</g>
<!-- node1685&#45;&gt;node2200 -->
<g id="edge19" class="edge">
<title>node1685&#45;&gt;node2200</title>
<path fill="none" stroke="#da2d4f" stroke-width="2" d="M395.1,-501.88C395.27,-472 395.63,-410.11 395.84,-374.27"/>
<polygon fill="#da2d4f" stroke="#da2d4f" stroke-width="2" points="399.34,-374.07 395.9,-364.05 392.34,-374.03 399.34,-374.07"/>
</g>
<!-- node1687&#45;&gt;node2200 -->
<g id="edge29" class="edge">
<title>node1687&#45;&gt;node2200</title>
<path fill="none" stroke="#3cb4a4" d="M464.34,-418.72C452.45,-406.23 434.34,-387.23 419.75,-371.92"/>
<polygon fill="#3cb4a4" stroke="#3cb4a4" points="421.92,-369.13 412.49,-364.3 416.85,-373.96 421.92,-369.13"/>
<text text-anchor="middle" x="445" y="-385.8" font-family="arial" font-size="14.00" fill="#3cb4a4">?</text>
</g>
<!-- node1710 -->
<g id="node15" class="node">
<title>node1710</title>
<polygon fill="#ffa500" stroke="black" points="409.5,-291 164.5,-291 164.5,-255 409.5,-255 409.5,-291"/>
<text text-anchor="middle" x="287" y="-269.3" font-family="Arial" font-size="14.00" fill="#1a1919">1710 Guard, else ClassCastException</text>
</g>
<!-- node1710&#45;&gt;node1712 -->
<g id="edge23" class="edge">
<title>node1710&#45;&gt;node1712</title>
<path fill="none" stroke="#da2d4f" stroke-width="2" d="M287,-254.86C287,-244.71 287,-231.63 287,-220.12"/>
<polygon fill="#da2d4f" stroke="#da2d4f" stroke-width="2" points="290.5,-220.11 287,-210.11 283.5,-220.11 290.5,-220.11"/>
</g>
<!-- node1711&#45;&gt;node1710 -->
<g id="edge22" class="edge">
<title>node1711&#45;&gt;node1710</title>
<path fill="none" stroke="#3cb4a4" d="M231,-628.94C231,-611.02 231,-582.03 231,-557 231,-557 231,-557 231,-345 231,-326.76 242.54,-310.45 255.14,-298.08"/>
<polygon fill="#3cb4a4" stroke="#3cb4a4" points="257.58,-300.59 262.6,-291.26 252.86,-295.42 257.58,-300.59"/>
<text text-anchor="middle" x="235" y="-472.8" font-family="arial" font-size="14.00" fill="#3cb4a4">?</text>
</g>
<!-- node2243 -->
<g id="node28" class="node">
<title>node2243</title>
<polygon fill="#f9f9f9" stroke="black" points="384.5,-123 189.5,-123 189.5,-87 384.5,-87 384.5,-123"/>
<text text-anchor="middle" x="287" y="-101.3" font-family="Arial" font-size="14.00" fill="#1a1919">2243 BoxNode$AllocatingBox</text>
</g>
<!-- node1712&#45;&gt;node2243 -->
<g id="edge26" class="edge">
<title>node1712&#45;&gt;node2243</title>
<path fill="none" stroke="#da2d4f" stroke-width="2" d="M285.83,-173.92C285.49,-168.22 285.17,-161.84 285,-156 284.79,-148.65 284.94,-140.69 285.23,-133.33"/>
<polygon fill="#da2d4f" stroke="#da2d4f" stroke-width="2" points="288.74,-133.28 285.73,-123.12 281.74,-132.94 288.74,-133.28"/>
</g>
<!-- node1712&#45;&gt;node2243 -->
<g id="edge44" class="edge">
<title>node1712&#45;&gt;node2243</title>
<path fill="none" stroke="#3cb4a4" d="M287,-173.8C287,-162.16 287,-146.55 287,-133.24"/>
<polygon fill="#3cb4a4" stroke="#3cb4a4" points="290.5,-133.18 287,-123.18 283.5,-133.18 290.5,-133.18"/>
<text text-anchor="middle" x="303.5" y="-144.8" font-family="arial" font-size="14.00" fill="#3cb4a4">value</text>
</g>
<!-- node2199&#45;&gt;node1672 -->
<g id="edge28" class="edge">
<title>node2199&#45;&gt;node1672</title>
<path fill="none" stroke="#da2d4f" stroke-width="2" d="M273.25,-842.81C280.99,-834.09 290.53,-823.34 299.04,-813.75"/>
<polygon fill="#da2d4f" stroke="#da2d4f" stroke-width="2" points="301.87,-815.83 305.89,-806.03 296.63,-811.19 301.87,-815.83"/>
</g>
<!-- node2200&#45;&gt;node1710 -->
<g id="edge30" class="edge">
<title>node2200&#45;&gt;node1710</title>
<path fill="none" stroke="#da2d4f" stroke-width="2" d="M369.89,-327.99C355.44,-318.58 337.29,-306.76 321.66,-296.57"/>
<polygon fill="#da2d4f" stroke="#da2d4f" stroke-width="2" points="323.56,-293.64 313.27,-291.11 319.74,-299.5 323.56,-293.64"/>
</g>
<!-- node2201&#45;&gt;node1685 -->
<g id="edge32" class="edge">
<title>node2201&#45;&gt;node1685</title>
<path fill="none" stroke="#da2d4f" stroke-width="2" d="M394.24,-574.81C394.36,-566.79 394.49,-557.05 394.62,-548.07"/>
<polygon fill="#da2d4f" stroke="#da2d4f" stroke-width="2" points="398.12,-548.08 394.76,-538.03 391.12,-547.98 398.12,-548.08"/>
</g>
<!-- node2213 -->
<g id="node21" class="node">
<title>node2213</title>
<polygon fill="#e98693" stroke="black" points="332.5,-36 241.5,-36 241.5,0 332.5,0 332.5,-36"/>
<text text-anchor="middle" x="287" y="-14.3" font-family="Arial" font-size="14.00" fill="#1a1919">2213 Return</text>
</g>
<!-- node2214 -->
<g id="node22" class="node">
<title>node2214</title>
<polygon fill="#e98693" stroke="black" points="899.5,-1213 808.5,-1213 808.5,-1177 899.5,-1177 899.5,-1213"/>
<text text-anchor="middle" x="854" y="-1191.3" font-family="Arial" font-size="14.00" fill="#1a1919">2214 Return</text>
</g>
<!-- node2224 -->
<g id="node23" class="node">
<title>node2224</title>
<polygon fill="#343d46" stroke="black" points="216,-1387 62,-1387 62,-1351 216,-1351 216,-1387"/>
<text text-anchor="middle" x="139" y="-1365.3" font-family="Arial" font-size="14.00" fill="#ffffff">2224 VirtualArray int[1]</text>
</g>
<!-- node2224&#45;&gt;node2232 -->
<g id="edge38" class="edge">
<title>node2224&#45;&gt;node2232</title>
<path fill="none" stroke="#3cb4a4" d="M140.18,-1350.81C141.85,-1339.89 145.79,-1326.3 155,-1318 172.16,-1302.54 230.18,-1292.97 273.25,-1287.82"/>
<polygon fill="#3cb4a4" stroke="#3cb4a4" points="273.76,-1291.29 283.3,-1286.67 272.96,-1284.33 273.76,-1291.29"/>
<text text-anchor="middle" x="196.5" y="-1321.8" font-family="arial" font-size="14.00" fill="#3cb4a4">virtualObjects</text>
</g>
<!-- node2224&#45;&gt;node2232 -->
<g id="edge39" class="edge">
<title>node2224&#45;&gt;node2232</title>
<path fill="none" stroke="#3cb4a4" d="M195.3,-1350.93C209.53,-1345.85 224.59,-1339.8 238,-1333 248.56,-1327.65 249.93,-1324.21 260,-1318 266.96,-1313.7 274.48,-1309.32 281.81,-1305.17"/>
<polygon fill="#3cb4a4" stroke="#3cb4a4" points="283.92,-1308 290.95,-1300.07 280.51,-1301.89 283.92,-1308"/>
<text text-anchor="middle" x="280" y="-1321.8" font-family="arial" font-size="14.00" fill="#3cb4a4">values</text>
</g>
<!-- node2226 -->
<g id="node24" class="node">
<title>node2226</title>
<polygon fill="#f9f9f9" stroke="black" points="748,-1387 374,-1387 374,-1351 748,-1351 748,-1387"/>
<text text-anchor="middle" x="561" y="-1365.3" font-family="Arial" font-size="14.00" fill="#1a1919">2226 VirtualInstance(6) org.truffleruby.core.array.RubyArray</text>
</g>
<!-- node2226&#45;&gt;node2232 -->
<g id="edge37" class="edge">
<title>node2226&#45;&gt;node2232</title>
<path fill="none" stroke="#3cb4a4" d="M480.69,-1350.99C461.22,-1345.99 440.65,-1339.96 422,-1333 401.41,-1325.32 379.51,-1314.55 361.55,-1304.97"/>
<polygon fill="#3cb4a4" stroke="#3cb4a4" points="363.01,-1301.78 352.55,-1300.1 359.68,-1307.94 363.01,-1301.78"/>
<text text-anchor="middle" x="463.5" y="-1321.8" font-family="arial" font-size="14.00" fill="#3cb4a4">virtualObjects</text>
</g>
<!-- node2233 -->
<g id="node27" class="node">
<title>node2233</title>
<polygon fill="#343d46" stroke="black" points="532.5,-1213 387.5,-1213 387.5,-1177 532.5,-1177 532.5,-1213"/>
<text text-anchor="middle" x="460" y="-1191.3" font-family="Arial" font-size="14.00" fill="#ffffff">2233 AllocatedObject</text>
</g>
<!-- node2226&#45;&gt;node2233 -->
<g id="edge42" class="edge">
<title>node2226&#45;&gt;node2233</title>
<path fill="none" stroke="#3cb4a4" d="M550.95,-1350.88C533.17,-1320.61 496.12,-1257.51 475.21,-1221.9"/>
<polygon fill="#3cb4a4" stroke="#3cb4a4" points="478.09,-1219.9 470.01,-1213.05 472.06,-1223.45 478.09,-1219.9"/>
<text text-anchor="middle" x="558" y="-1278.3" font-family="arial" font-size="14.00" fill="#3cb4a4">virtualObject</text>
</g>
<!-- node2231&#45;&gt;node2214 -->
<g id="edge34" class="edge">
<title>node2231&#45;&gt;node2214</title>
<path fill="none" stroke="#3cb4a4" d="M838.62,-1263.92C831.99,-1254.49 826.47,-1242.4 830,-1231 830.98,-1227.83 832.36,-1224.7 833.96,-1221.68"/>
<polygon fill="#3cb4a4" stroke="#3cb4a4" points="837,-1223.42 839.29,-1213.07 831.05,-1219.74 837,-1223.42"/>
<text text-anchor="middle" x="847" y="-1234.8" font-family="arial" font-size="14.00" fill="#3cb4a4">result</text>
</g>
<!-- node2231&#45;&gt;node2214 -->
<g id="edge36" class="edge">
<title>node2231&#45;&gt;node2214</title>
<path fill="none" stroke="#da2d4f" stroke-width="2" d="M860.31,-1263.96C863.15,-1254.33 865.55,-1242.05 864,-1231 863.64,-1228.43 863.14,-1225.78 862.55,-1223.14"/>
<polygon fill="#da2d4f" stroke="#da2d4f" stroke-width="2" points="865.87,-1222.03 859.96,-1213.24 859.1,-1223.8 865.87,-1222.03"/>
</g>
<!-- node2232&#45;&gt;node1268 -->
<g id="edge41" class="edge">
<title>node2232&#45;&gt;node1268</title>
<path fill="none" stroke="#da2d4f" stroke-width="2" d="M323,-1263.88C323,-1234 323,-1172.11 323,-1136.27"/>
<polygon fill="#da2d4f" stroke="#da2d4f" stroke-width="2" points="326.5,-1136.05 323,-1126.05 319.5,-1136.05 326.5,-1136.05"/>
</g>
<!-- node2232&#45;&gt;node2233 -->
<g id="edge43" class="edge">
<title>node2232&#45;&gt;node2233</title>
<path fill="none" stroke="#3cb4a4" d="M350.72,-1263.8C371.71,-1250.78 400.72,-1232.78 423.57,-1218.6"/>
<polygon fill="#3cb4a4" stroke="#3cb4a4" points="425.67,-1221.42 432.32,-1213.18 421.97,-1215.47 425.67,-1221.42"/>
<text text-anchor="middle" x="422" y="-1234.8" font-family="arial" font-size="14.00" fill="#3cb4a4">commit</text>
</g>
<!-- node2233&#45;&gt;node1268 -->
<g id="edge9" class="edge">
<title>node2233&#45;&gt;node1268</title>
<path fill="none" stroke="#3cb4a4" d="M403.6,-1176.96C391.66,-1172.1 379.5,-1166.14 369,-1159 357.99,-1151.51 347.74,-1140.9 339.72,-1131.38"/>
<polygon fill="#3cb4a4" stroke="#3cb4a4" points="342.29,-1128.99 333.29,-1123.4 336.84,-1133.38 342.29,-1128.99"/>
<text text-anchor="middle" x="385.5" y="-1147.8" font-family="arial" font-size="14.00" fill="#3cb4a4">value</text>
</g>
<!-- node2233&#45;&gt;node1491 -->
<g id="edge11" class="edge">
<title>node2233&#45;&gt;node1491</title>
<path fill="none" stroke="#3cb4a4" d="M446.62,-1176.92C427.61,-1153.79 390.54,-1112.81 350,-1090 323,-1074.81 291.48,-1063.7 261.67,-1055.65"/>
<polygon fill="#3cb4a4" stroke="#3cb4a4" points="262.2,-1052.17 251.64,-1053.03 260.43,-1058.94 262.2,-1052.17"/>
<text text-anchor="middle" x="415.5" y="-1104.3" font-family="arial" font-size="14.00" fill="#3cb4a4">object</text>
</g>
<!-- node2233&#45;&gt;node1672 -->
<g id="edge15" class="edge">
<title>node2233&#45;&gt;node1672</title>
<path fill="none" stroke="#3cb4a4" d="M471.99,-1176.98C482.46,-1160.43 496,-1134.16 496,-1109 496,-1109 496,-1109 496,-860 496,-826.95 468.87,-808.92 435.97,-799.2"/>
<polygon fill="#3cb4a4" stroke="#3cb4a4" points="436.65,-795.76 426.08,-796.56 434.84,-802.53 436.65,-795.76"/>
<text text-anchor="middle" x="514.5" y="-987.8" font-family="arial" font-size="14.00" fill="#3cb4a4">object</text>
</g>
<!-- node2233&#45;&gt;node1685 -->
<g id="edge18" class="edge">
<title>node2233&#45;&gt;node1685</title>
<path fill="none" stroke="#3cb4a4" d="M495.79,-1176.99C520.16,-1162.66 548,-1139.59 548,-1109 548,-1109 548,-1109 548,-592 548,-566.29 530.01,-549.87 506.37,-539.38"/>
<polygon fill="#3cb4a4" stroke="#3cb4a4" points="507.64,-536.12 497.05,-535.65 505.03,-542.62 507.64,-536.12"/>
<text text-anchor="middle" x="566.5" y="-857.3" font-family="arial" font-size="14.00" fill="#3cb4a4">object</text>
</g>
<!-- node2243&#45;&gt;node2213 -->
<g id="edge33" class="edge">
<title>node2243&#45;&gt;node2213</title>
<path fill="none" stroke="#3cb4a4" d="M272.25,-86.88C265.89,-77.44 260.6,-65.35 264,-54 264.91,-50.96 266.17,-47.95 267.65,-45.03"/>
<polygon fill="#3cb4a4" stroke="#3cb4a4" points="270.82,-46.55 272.9,-36.16 264.79,-42.98 270.82,-46.55"/>
<text text-anchor="middle" x="281" y="-57.8" font-family="arial" font-size="14.00" fill="#3cb4a4">result</text>
</g>
<!-- node2243&#45;&gt;node2213 -->
<g id="edge45" class="edge">
<title>node2243&#45;&gt;node2213</title>
<path fill="none" stroke="#da2d4f" stroke-width="2" d="M293.55,-86.8C295.37,-81.21 297.09,-74.92 298,-69 299.17,-61.39 298.29,-53.2 296.61,-45.71"/>
<polygon fill="#da2d4f" stroke="#da2d4f" stroke-width="2" points="299.97,-44.74 293.94,-36.02 293.22,-46.59 299.97,-44.74"/>
</g>
<!-- node2244&#45;&gt;node521 -->
<g id="edge52" class="edge">
<title>node2244&#45;&gt;node521</title>
<path fill="none" stroke="#da2d4f" stroke-width="2" d="M245.75,-1692.86C255.02,-1682.09 267.13,-1668.02 277.46,-1656.02"/>
<polygon fill="#da2d4f" stroke="#da2d4f" stroke-width="2" points="280.4,-1657.97 284.27,-1648.11 275.1,-1653.4 280.4,-1657.97"/>
</g>
<!-- inline5x1190 -->
<g id="node30" class="node">
<title>inline5x1190</title>
<ellipse fill="#d7ede7" stroke="black" cx="213" cy="-1630" rx="27" ry="18"/>
<text text-anchor="middle" x="213" y="-1628.1" font-family="Arial" font-size="8.00" fill="#1a1919">5 C(0)</text>
</g>
<!-- inline5x1190&#45;&gt;node1190 -->
<g id="edge6" class="edge">
<title>inline5x1190&#45;&gt;node1190</title>
<path fill="none" stroke="#3cb4a4" d="M218.14,-1612.21C222.81,-1596.92 229.66,-1574.52 234.22,-1559.61"/>
<text text-anchor="middle" x="230" y="-1584.6" font-family="arial" font-size="8.00" fill="#3cb4a4">y</text>
</g>
<!-- inline928x1542 -->
<g id="node31" class="node">
<title>inline928x1542</title>
<ellipse fill="#d7ede7" stroke="black" cx="396" cy="-1035" rx="72.08" ry="18"/>
<text text-anchor="middle" x="396" y="-1033.1" font-family="Arial" font-size="8.00" fill="#1a1919">928 C(RubyClass@2ea96dd3)</text>
</g>
<!-- inline928x1542&#45;&gt;node1542 -->
<g id="edge14" class="edge">
<title>inline928x1542&#45;&gt;node1542</title>
<path fill="none" stroke="#3cb4a4" d="M370.04,-1018.01C342.87,-1001.28 300.88,-975.41 276.76,-960.55"/>
<text text-anchor="middle" x="337" y="-989.6" font-family="arial" font-size="8.00" fill="#3cb4a4">y</text>
</g>
<!-- inline23x1687 -->
<g id="node32" class="node">
<title>inline23x1687</title>
<ellipse fill="#d7ede7" stroke="black" cx="542" cy="-520" rx="27" ry="18"/>
<text text-anchor="middle" x="542" y="-518.1" font-family="Arial" font-size="8.00" fill="#1a1919">23 C(1)</text>
</g>
<!-- inline23x1687&#45;&gt;node1687 -->
<g id="edge21" class="edge">
<title>inline23x1687&#45;&gt;node1687</title>
<path fill="none" stroke="#3cb4a4" d="M530.08,-503.41C517.91,-487.5 499.2,-463.04 487.56,-447.8"/>
<text text-anchor="middle" x="515" y="-474.6" font-family="arial" font-size="8.00" fill="#3cb4a4">y</text>
</g>
<!-- inline5x1712 -->
<g id="node33" class="node">
<title>inline5x1712</title>
<ellipse fill="#d7ede7" stroke="black" cx="455" cy="-273" rx="27" ry="18"/>
<text text-anchor="middle" x="455" y="-271.1" font-family="Arial" font-size="8.00" fill="#1a1919">5 C(0)</text>
</g>
<!-- inline5x1712&#45;&gt;node1712 -->
<g id="edge25" class="edge">
<title>inline5x1712&#45;&gt;node1712</title>
<path fill="none" stroke="#3cb4a4" d="M433.68,-261.92C428.86,-259.65 423.75,-257.24 419,-255 386.7,-239.79 349.94,-222.53 323.43,-210.09"/>
<text text-anchor="middle" x="388.5" y="-230.6" font-family="arial" font-size="8.00" fill="#3cb4a4">index</text>
</g>
<!-- inline161x521 -->
<g id="node34" class="node">
<title>inline161x521</title>
<ellipse fill="#d7ede7" stroke="black" cx="333" cy="-1711" rx="27.46" ry="18"/>
<text text-anchor="middle" x="333" y="-1709.1" font-family="Arial" font-size="8.00" fill="#1a1919">161 T(7)</text>
</g>
<!-- inline161x521&#45;&gt;node521 -->
<g id="edge48" class="edge">
<title>inline161x521&#45;&gt;node521</title>
<path fill="none" stroke="#3cb4a4" d="M325.79,-1693.25C320.06,-1679.93 312.08,-1661.38 306.32,-1648"/>
<text text-anchor="middle" x="326.5" y="-1668.6" font-family="arial" font-size="8.00" fill="#3cb4a4">value</text>
</g>
<!-- inline179x680 -->
<g id="node35" class="node">
<title>inline179x680</title>
<ellipse fill="#d7ede7" stroke="black" cx="385" cy="-1630" rx="27.46" ry="18"/>
<text text-anchor="middle" x="385" y="-1628.1" font-family="Arial" font-size="8.00" fill="#1a1919">179 T(8)</text>
</g>
<!-- inline179x680&#45;&gt;node680 -->
<g id="edge49" class="edge">
<title>inline179x680&#45;&gt;node680</title>
<path fill="none" stroke="#3cb4a4" d="M379.86,-1612.21C375.33,-1597.4 368.77,-1575.93 364.22,-1561.05"/>
<text text-anchor="middle" x="382.5" y="-1584.6" font-family="arial" font-size="8.00" fill="#3cb4a4">value</text>
</g>
<!-- inline2x2244 -->
<g id="node36" class="node">
<title>inline2x2244</title>
<ellipse fill="#d7ede7" stroke="black" cx="268" cy="-1792" rx="27" ry="18"/>
<text text-anchor="middle" x="268" y="-1790.1" font-family="Arial" font-size="8.00" fill="#1a1919">2 P(1)</text>
</g>
<!-- inline2x2244&#45;&gt;node2244 -->
<g id="edge50" class="edge">
<title>inline2x2244&#45;&gt;node2244</title>
<path fill="none" stroke="#3cb4a4" d="M260.33,-1774.63C254.11,-1761.34 245.36,-1742.67 239.04,-1729.17"/>
<text text-anchor="middle" x="259.5" y="-1749.6" font-family="arial" font-size="8.00" fill="#3cb4a4">array</text>
</g>
</g>
</svg>
