<?xml version="1.0" encoding="UTF-8" standalone="no"?>
<!DOCTYPE svg PUBLIC "-//W3C//DTD SVG 1.1//EN"
 "http://www.w3.org/Graphics/SVG/1.1/DTD/svg11.dtd">
<!-- Generated by graphviz version 2.44.1 (20200629.0846)
 -->
<!-- Title: G Pages: 1 -->
<svg width="1240pt" height="1595pt"
 viewBox="0.00 0.00 1239.50 1595.00" xmlns="http://www.w3.org/2000/svg" xmlns:xlink="http://www.w3.org/1999/xlink">
<g id="graph0" class="graph" transform="scale(1 1) rotate(0) translate(4 1591)">
<title>G</title>
<!-- node0 -->
<g id="node1" class="node">
<title>node0</title>
<polygon fill="#e98693" stroke="black" points="696.5,-1587 640.5,-1587 640.5,-1551 696.5,-1551 696.5,-1587"/>
<text text-anchor="middle" x="668.5" y="-1565.3" font-family="Arial" font-size="14.00" fill="#1a1919">0 Start</text>
</g>
<!-- node2546 -->
<g id="node38" class="node">
<title>node2546</title>
<polygon fill="#da2d4f" stroke="black" points="761,-1506 648,-1506 648,-1470 761,-1470 761,-1506"/>
<text text-anchor="middle" x="704.5" y="-1484.3" font-family="Arial" font-size="14.00" fill="#ffffff">2546 Load T(...)</text>
</g>
<!-- node0&#45;&gt;node2546 -->
<g id="edge63" class="edge">
<title>node0&#45;&gt;node2546</title>
<path fill="none" stroke="#da2d4f" stroke-width="2" d="M676.31,-1550.86C681.03,-1540.51 687.14,-1527.1 692.46,-1515.41"/>
<polygon fill="#da2d4f" stroke="#da2d4f" stroke-width="2" points="695.74,-1516.66 696.7,-1506.11 689.37,-1513.76 695.74,-1516.66"/>
</g>
<!-- node534 -->
<g id="node2" class="node">
<title>node534</title>
<polygon fill="#f9f9f9" stroke="black" points="813.5,-1425 731.5,-1425 731.5,-1389 813.5,-1389 813.5,-1425"/>
<text text-anchor="middle" x="772.5" y="-1403.3" font-family="Arial" font-size="14.00" fill="#1a1919">534 Unbox</text>
</g>
<!-- node693 -->
<g id="node3" class="node">
<title>node693</title>
<polygon fill="#f9f9f9" stroke="black" points="1101.5,-1338 1019.5,-1338 1019.5,-1302 1101.5,-1302 1101.5,-1338"/>
<text text-anchor="middle" x="1060.5" y="-1316.3" font-family="Arial" font-size="14.00" fill="#1a1919">693 Unbox</text>
</g>
<!-- node534&#45;&gt;node693 -->
<g id="edge1" class="edge">
<title>node534&#45;&gt;node693</title>
<path fill="none" stroke="#da2d4f" stroke-width="2" d="M813.61,-1394.08C860.01,-1380.6 937.73,-1357.92 1004.5,-1338 1006.14,-1337.51 1007.81,-1337.01 1009.49,-1336.51"/>
<polygon fill="#da2d4f" stroke="#da2d4f" stroke-width="2" points="1010.66,-1339.81 1019.23,-1333.58 1008.64,-1333.11 1010.66,-1339.81"/>
</g>
<!-- node1095 -->
<g id="node7" class="node">
<title>node1095</title>
<polygon fill="#3cb4a4" stroke="black" points="522.5,-1338 460.83,-1320 522.5,-1302 584.17,-1320 522.5,-1338"/>
<text text-anchor="middle" x="522.5" y="-1316.3" font-family="Arial" font-size="14.00" fill="#1a1919">1095 ==</text>
</g>
<!-- node534&#45;&gt;node1095 -->
<g id="edge54" class="edge">
<title>node534&#45;&gt;node1095</title>
<path fill="none" stroke="#3cb4a4" d="M731.5,-1392.06C683.62,-1375.78 605.14,-1349.1 559.19,-1333.48"/>
<polygon fill="#3cb4a4" stroke="#3cb4a4" points="560.22,-1330.13 549.63,-1330.22 557.97,-1336.76 560.22,-1330.13"/>
<text text-anchor="middle" x="666" y="-1359.8" font-family="arial" font-size="14.00" fill="#3cb4a4">x</text>
</g>
<!-- node848 -->
<g id="node4" class="node">
<title>node848</title>
<polygon fill="#f9f9f9" stroke="black" points="879.5,-1257 797.5,-1257 797.5,-1221 879.5,-1221 879.5,-1257"/>
<text text-anchor="middle" x="838.5" y="-1235.3" font-family="Arial" font-size="14.00" fill="#1a1919">848 Unbox</text>
</g>
<!-- node693&#45;&gt;node848 -->
<g id="edge2" class="edge">
<title>node693&#45;&gt;node848</title>
<path fill="none" stroke="#da2d4f" stroke-width="2" d="M1019.26,-1304.33C982.5,-1291.24 928.58,-1272.05 889.2,-1258.04"/>
<polygon fill="#da2d4f" stroke="#da2d4f" stroke-width="2" points="890.11,-1254.65 879.52,-1254.6 887.76,-1261.25 890.11,-1254.65"/>
</g>
<!-- node2532 -->
<g id="node33" class="node">
<title>node2532</title>
<polygon fill="#f9f9f9" stroke="black" points="736,-850 541,-850 541,-814 736,-814 736,-850"/>
<text text-anchor="middle" x="638.5" y="-828.3" font-family="Arial" font-size="14.00" fill="#1a1919">2532 BoxNode$AllocatingBox</text>
</g>
<!-- node693&#45;&gt;node2532 -->
<g id="edge42" class="edge">
<title>node693&#45;&gt;node2532</title>
<path fill="none" stroke="#3cb4a4" d="M1062.91,-1301.78C1064.93,-1285.8 1067.5,-1261.34 1067.5,-1240 1067.5,-1240 1067.5,-1240 1067.5,-904 1067.5,-901.97 873.37,-870.54 746.29,-850.19"/>
<polygon fill="#3cb4a4" stroke="#3cb4a4" points="746.54,-846.68 736.12,-848.56 745.44,-853.59 746.54,-846.68"/>
<text text-anchor="middle" x="1084" y="-1075.3" font-family="arial" font-size="14.00" fill="#3cb4a4">value</text>
</g>
<!-- node2540 -->
<g id="node36" class="node">
<title>node2540</title>
<polygon fill="#f9f9f9" stroke="black" points="1103.5,-210 1045.5,-210 1045.5,-174 1103.5,-174 1103.5,-210"/>
<text text-anchor="middle" x="1074.5" y="-188.3" font-family="Arial" font-size="14.00" fill="#1a1919">2540 ϕ</text>
</g>
<!-- node693&#45;&gt;node2540 -->
<g id="edge50" class="edge">
<title>node693&#45;&gt;node2540</title>
<path fill="none" stroke="#3cb4a4" d="M1101.71,-1307.38C1132.58,-1295.87 1169.5,-1274.82 1169.5,-1240 1169.5,-1240 1169.5,-1240 1169.5,-264 1169.5,-234.29 1139.32,-215.52 1112.99,-204.79"/>
<polygon fill="#3cb4a4" stroke="#3cb4a4" points="1114.11,-201.47 1103.52,-201.2 1111.63,-208.02 1114.11,-201.47"/>
<text text-anchor="middle" x="1200.5" y="-741.3" font-family="arial" font-size="14.00" fill="#3cb4a4">from 2305</text>
</g>
<!-- node2484 -->
<g id="node25" class="node">
<title>node2484</title>
<polygon fill="#ffa500" stroke="black" points="964,-1170 713,-1170 713,-1134 964,-1134 964,-1170"/>
<text text-anchor="middle" x="838.5" y="-1148.3" font-family="Arial" font-size="14.00" fill="#1a1919">2484 Guard, else TransferToInterpreter</text>
</g>
<!-- node848&#45;&gt;node2484 -->
<g id="edge3" class="edge">
<title>node848&#45;&gt;node2484</title>
<path fill="none" stroke="#da2d4f" stroke-width="2" d="M838.5,-1220.8C838.5,-1209.16 838.5,-1193.55 838.5,-1180.24"/>
<polygon fill="#da2d4f" stroke="#da2d4f" stroke-width="2" points="842,-1180.18 838.5,-1170.18 835,-1180.18 842,-1180.18"/>
</g>
<!-- node2518 -->
<g id="node29" class="node">
<title>node2518</title>
<polygon fill="#f9f9f9" stroke="black" points="450,-850 255,-850 255,-814 450,-814 450,-850"/>
<text text-anchor="middle" x="352.5" y="-828.3" font-family="Arial" font-size="14.00" fill="#1a1919">2518 BoxNode$AllocatingBox</text>
</g>
<!-- node848&#45;&gt;node2518 -->
<g id="edge35" class="edge">
<title>node848&#45;&gt;node2518</title>
<path fill="none" stroke="#3cb4a4" d="M797.31,-1232.3C687.59,-1215.96 396.5,-1164.65 396.5,-1080 396.5,-1080 396.5,-1080 396.5,-904 396.5,-886.99 387.26,-870.66 377.25,-857.96"/>
<polygon fill="#3cb4a4" stroke="#3cb4a4" points="379.78,-855.54 370.65,-850.17 374.44,-860.06 379.78,-855.54"/>
<text text-anchor="middle" x="413" y="-1031.8" font-family="arial" font-size="14.00" fill="#3cb4a4">value</text>
</g>
<!-- node848&#45;&gt;node2540 -->
<g id="edge51" class="edge">
<title>node848&#45;&gt;node2540</title>
<path fill="none" stroke="#3cb4a4" d="M879.7,-1221.3C914.31,-1206.55 960.19,-1185.12 973.5,-1170 986.62,-1155.1 1092.5,-852.86 1092.5,-833 1092.5,-833 1092.5,-833 1092.5,-264 1092.5,-249.15 1088.75,-233.07 1084.68,-219.98"/>
<polygon fill="#3cb4a4" stroke="#3cb4a4" points="1087.9,-218.57 1081.41,-210.2 1081.26,-220.79 1087.9,-218.57"/>
<text text-anchor="middle" x="1123.5" y="-697.8" font-family="arial" font-size="14.00" fill="#3cb4a4">from 2307</text>
</g>
<!-- node922 -->
<g id="node5" class="node">
<title>node922</title>
<polygon fill="#3cb4a4" stroke="black" points="968.5,-1257 897.95,-1239 968.5,-1221 1039.05,-1239 968.5,-1257"/>
<text text-anchor="middle" x="968.5" y="-1235.3" font-family="Arial" font-size="14.00" fill="#1a1919">922 IsNull</text>
</g>
<!-- node922&#45;&gt;node2484 -->
<g id="edge29" class="edge">
<title>node922&#45;&gt;node2484</title>
<path fill="none" stroke="#3cb4a4" d="M949.6,-1225.64C929.65,-1212.6 897.78,-1191.76 873.28,-1175.74"/>
<polygon fill="#3cb4a4" stroke="#3cb4a4" points="874.9,-1172.62 864.62,-1170.08 871.07,-1178.48 874.9,-1172.62"/>
<text text-anchor="middle" x="914.5" y="-1191.8" font-family="arial" font-size="14.00" fill="#3cb4a4">?</text>
</g>
<!-- node1094 -->
<g id="node6" class="node">
<title>node1094</title>
<polygon fill="#e98693" stroke="black" points="690.5,-1097 632.5,-1097 632.5,-1061 690.5,-1061 690.5,-1097"/>
<text text-anchor="middle" x="661.5" y="-1075.3" font-family="Arial" font-size="14.00" fill="#1a1919">1094 If</text>
</g>
<!-- node1096 -->
<g id="node8" class="node">
<title>node1096</title>
<polygon fill="#e98693" stroke="black" points="596,-1010 511,-1010 511,-974 596,-974 596,-1010"/>
<text text-anchor="middle" x="553.5" y="-988.3" font-family="Arial" font-size="14.00" fill="#1a1919">1096 Begin</text>
</g>
<!-- node1094&#45;&gt;node1096 -->
<g id="edge5" class="edge">
<title>node1094&#45;&gt;node1096</title>
<path fill="none" stroke="#da2d4f" stroke-width="2" d="M639.64,-1060.8C623.54,-1048.13 601.44,-1030.73 583.66,-1016.74"/>
<polygon fill="#da2d4f" stroke="#da2d4f" stroke-width="2" points="585.35,-1013.61 575.32,-1010.18 581.02,-1019.11 585.35,-1013.61"/>
<text text-anchor="middle" x="619" y="-1031.8" font-family="arial" font-size="14.00" fill="#da2d4f">T</text>
</g>
<!-- node1097 -->
<g id="node9" class="node">
<title>node1097</title>
<polygon fill="#e98693" stroke="black" points="858,-1010 773,-1010 773,-974 858,-974 858,-1010"/>
<text text-anchor="middle" x="815.5" y="-988.3" font-family="Arial" font-size="14.00" fill="#1a1919">1097 Begin</text>
</g>
<!-- node1094&#45;&gt;node1097 -->
<g id="edge6" class="edge">
<title>node1094&#45;&gt;node1097</title>
<path fill="none" stroke="#da2d4f" stroke-width="2" d="M690.83,-1061.81C714.87,-1048.54 749.14,-1029.63 775.67,-1014.99"/>
<polygon fill="#da2d4f" stroke="#da2d4f" stroke-width="2" points="777.63,-1017.9 784.7,-1010 774.25,-1011.77 777.63,-1017.9"/>
<text text-anchor="middle" x="752" y="-1031.8" font-family="arial" font-size="14.00" fill="#da2d4f">F</text>
</g>
<!-- node1095&#45;&gt;node1094 -->
<g id="edge4" class="edge">
<title>node1095&#45;&gt;node1094</title>
<path fill="none" stroke="#3cb4a4" d="M530.99,-1304.41C553.9,-1265 617.28,-1156.04 646.45,-1105.88"/>
<polygon fill="#3cb4a4" stroke="#3cb4a4" points="649.48,-1107.64 651.48,-1097.23 643.43,-1104.12 649.48,-1107.64"/>
<text text-anchor="middle" x="602.5" y="-1191.8" font-family="arial" font-size="14.00" fill="#3cb4a4">?</text>
</g>
<!-- node2492 -->
<g id="node27" class="node">
<title>node2492</title>
<polygon fill="#ffa500" stroke="black" points="676,-923 425,-923 425,-887 676,-887 676,-923"/>
<text text-anchor="middle" x="550.5" y="-901.3" font-family="Arial" font-size="14.00" fill="#1a1919">2492 Guard, else TransferToInterpreter</text>
</g>
<!-- node1096&#45;&gt;node2492 -->
<g id="edge8" class="edge">
<title>node1096&#45;&gt;node2492</title>
<path fill="none" stroke="#da2d4f" stroke-width="2" d="M552.89,-973.8C552.48,-962.16 551.93,-946.55 551.46,-933.24"/>
<polygon fill="#da2d4f" stroke="#da2d4f" stroke-width="2" points="554.96,-933.05 551.11,-923.18 547.96,-933.29 554.96,-933.05"/>
</g>
<!-- node2488 -->
<g id="node26" class="node">
<title>node2488</title>
<polygon fill="#ffa500" stroke="black" points="945,-923 694,-923 694,-887 945,-887 945,-923"/>
<text text-anchor="middle" x="819.5" y="-901.3" font-family="Arial" font-size="14.00" fill="#1a1919">2488 Guard, else TransferToInterpreter</text>
</g>
<!-- node1097&#45;&gt;node2488 -->
<g id="edge9" class="edge">
<title>node1097&#45;&gt;node2488</title>
<path fill="none" stroke="#da2d4f" stroke-width="2" d="M816.31,-973.8C816.86,-962.16 817.59,-946.55 818.22,-933.24"/>
<polygon fill="#da2d4f" stroke="#da2d4f" stroke-width="2" points="821.72,-933.33 818.69,-923.18 814.73,-933 821.72,-933.33"/>
</g>
<!-- node1319 -->
<g id="node10" class="node">
<title>node1319</title>
<polygon fill="#3cb4a4" stroke="black" points="687.5,-1010 625.83,-992 687.5,-974 749.17,-992 687.5,-1010"/>
<text text-anchor="middle" x="687.5" y="-988.3" font-family="Arial" font-size="14.00" fill="#1a1919">1319 ==</text>
</g>
<!-- node1319&#45;&gt;node2488 -->
<g id="edge31" class="edge">
<title>node1319&#45;&gt;node2488</title>
<path fill="none" stroke="#3cb4a4" d="M705.85,-979.18C726.01,-966.2 758.84,-945.06 784.05,-928.83"/>
<polygon fill="#3cb4a4" stroke="#3cb4a4" points="786.11,-931.67 792.62,-923.31 782.32,-925.78 786.11,-931.67"/>
<text text-anchor="middle" x="764.5" y="-944.8" font-family="arial" font-size="14.00" fill="#3cb4a4">?</text>
</g>
<!-- node1319&#45;&gt;node2492 -->
<g id="edge33" class="edge">
<title>node1319&#45;&gt;node2492</title>
<path fill="none" stroke="#3cb4a4" d="M668.74,-979.36C647.67,-966.29 612.98,-944.77 586.61,-928.4"/>
<polygon fill="#3cb4a4" stroke="#3cb4a4" points="588.36,-925.37 578.02,-923.07 584.67,-931.32 588.36,-925.37"/>
<text text-anchor="middle" x="631.5" y="-944.8" font-family="arial" font-size="14.00" fill="#3cb4a4">?</text>
</g>
<!-- node2303 -->
<g id="node11" class="node">
<title>node2303</title>
<polygon fill="#e98693" stroke="black" points="1050,-283 961,-283 961,-247 1050,-247 1050,-283"/>
<text text-anchor="middle" x="1005.5" y="-261.3" font-family="Arial" font-size="14.00" fill="#1a1919">2303 Merge</text>
</g>
<!-- node2303&#45;&gt;node2540 -->
<g id="edge49" class="edge">
<title>node2303&#45;&gt;node2540</title>
<path fill="none" stroke="#343d46" stroke-dasharray="5,2" d="M1029.44,-239.37C1038.85,-229.69 1049.41,-218.81 1057.95,-210.03"/>
<polygon fill="#343d46" stroke="#343d46" points="1026.66,-237.2 1022.2,-246.81 1031.68,-242.08 1026.66,-237.2"/>
</g>
<!-- node2545 -->
<g id="node37" class="node">
<title>node2545</title>
<polygon fill="#f9f9f9" stroke="black" points="1127,-123 932,-123 932,-87 1127,-87 1127,-123"/>
<text text-anchor="middle" x="1029.5" y="-101.3" font-family="Arial" font-size="14.00" fill="#1a1919">2545 BoxNode$AllocatingBox</text>
</g>
<!-- node2303&#45;&gt;node2545 -->
<g id="edge13" class="edge">
<title>node2303&#45;&gt;node2545</title>
<path fill="none" stroke="#da2d4f" stroke-width="2" d="M1008.11,-246.79C1012.26,-219.48 1020.39,-165.99 1025.34,-133.38"/>
<polygon fill="#da2d4f" stroke="#da2d4f" stroke-width="2" points="1028.85,-133.6 1026.89,-123.19 1021.93,-132.55 1028.85,-133.6"/>
</g>
<!-- node2305 -->
<g id="node12" class="node">
<title>node2305</title>
<polygon fill="#e98693" stroke="black" points="828.5,-356 754.5,-356 754.5,-320 828.5,-320 828.5,-356"/>
<text text-anchor="middle" x="791.5" y="-334.3" font-family="Arial" font-size="14.00" fill="#1a1919">2305 End</text>
</g>
<!-- node2305&#45;&gt;node2303 -->
<g id="edge11" class="edge">
<title>node2305&#45;&gt;node2303</title>
<path fill="none" stroke="#da2d4f" stroke-width="2" d="M828.66,-323.43C831.98,-322.25 835.3,-321.1 838.5,-320 875.86,-307.21 918.19,-293.53 950.89,-283.14"/>
<polygon fill="#da2d4f" stroke="#da2d4f" stroke-width="2" points="952.23,-286.38 960.71,-280.02 950.12,-279.71 952.23,-286.38"/>
</g>
<!-- node2307 -->
<g id="node13" class="node">
<title>node2307</title>
<polygon fill="#e98693" stroke="black" points="396.5,-356 322.5,-356 322.5,-320 396.5,-320 396.5,-356"/>
<text text-anchor="middle" x="359.5" y="-334.3" font-family="Arial" font-size="14.00" fill="#1a1919">2307 End</text>
</g>
<!-- node2307&#45;&gt;node2303 -->
<g id="edge12" class="edge">
<title>node2307&#45;&gt;node2303</title>
<path fill="none" stroke="#da2d4f" stroke-width="2" d="M396.66,-322.33C399.62,-321.45 402.59,-320.66 405.5,-320 602.73,-275.51 844.22,-267.42 950.67,-266.12"/>
<polygon fill="#da2d4f" stroke="#da2d4f" stroke-width="2" points="950.88,-269.62 960.84,-266.02 950.81,-262.62 950.88,-269.62"/>
</g>
<!-- node2392 -->
<g id="node14" class="node">
<title>node2392</title>
<polygon fill="#e98693" stroke="black" points="1075,-36 984,-36 984,0 1075,0 1075,-36"/>
<text text-anchor="middle" x="1029.5" y="-14.3" font-family="Arial" font-size="14.00" fill="#1a1919">2392 Return</text>
</g>
<!-- node2422 -->
<g id="node15" class="node">
<title>node2422</title>
<polygon fill="#da2d4f" stroke="black" points="986.5,-516 696.5,-516 696.5,-480 986.5,-480 986.5,-516"/>
<text text-anchor="middle" x="841.5" y="-494.3" font-family="Arial" font-size="14.00" fill="#ffffff">2422 Call OptimizedCallTarget.callBoundary !</text>
</g>
<!-- node2426 -->
<g id="node17" class="node">
<title>node2426</title>
<polygon fill="#e98693" stroke="black" points="859,-429 738,-429 738,-393 859,-393 859,-429"/>
<text text-anchor="middle" x="798.5" y="-407.3" font-family="Arial" font-size="14.00" fill="#1a1919">2426 KillingBegin</text>
</g>
<!-- node2422&#45;&gt;node2426 -->
<g id="edge16" class="edge">
<title>node2422&#45;&gt;node2426</title>
<path fill="none" stroke="#da2d4f" stroke-width="2" d="M832.8,-479.8C826.8,-467.93 818.7,-451.93 811.88,-438.45"/>
<polygon fill="#da2d4f" stroke="#da2d4f" stroke-width="2" points="814.83,-436.52 807.19,-429.18 808.58,-439.68 814.83,-436.52"/>
</g>
<!-- node2427 -->
<g id="node18" class="node">
<title>node2427</title>
<polygon fill="#f9f9f9" stroke="black" points="1029,-429 880,-429 880,-393 1029,-393 1029,-429"/>
<text text-anchor="middle" x="954.5" y="-407.3" font-family="Arial" font-size="14.00" fill="#1a1919">2427 ExceptionObject</text>
</g>
<!-- node2422&#45;&gt;node2427 -->
<g id="edge17" class="edge">
<title>node2422&#45;&gt;node2427</title>
<path fill="none" stroke="#da2d4f" stroke-width="2" d="M864.37,-479.8C881.37,-467.01 904.76,-449.42 923.45,-435.36"/>
<polygon fill="#da2d4f" stroke="#da2d4f" stroke-width="2" points="925.78,-437.98 931.67,-429.18 921.57,-432.39 925.78,-437.98"/>
<text text-anchor="middle" x="926" y="-450.8" font-family="arial" font-size="14.00" fill="#da2d4f">unwind</text>
</g>
<!-- node2423 -->
<g id="node16" class="node">
<title>node2423</title>
<polygon fill="#f9f9f9" stroke="black" points="944,-589 787,-589 787,-553 944,-553 944,-589"/>
<text text-anchor="middle" x="865.5" y="-567.3" font-family="Arial" font-size="14.00" fill="#1a1919">2423 MethodCallTarget</text>
</g>
<!-- node2423&#45;&gt;node2422 -->
<g id="edge15" class="edge">
<title>node2423&#45;&gt;node2422</title>
<path fill="none" stroke="#343d46" stroke-dasharray="5,2" d="M856.49,-543.34C853.39,-534.19 850.02,-524.2 847.26,-516.03"/>
<polygon fill="#343d46" stroke="#343d46" points="853.17,-544.46 859.69,-552.81 859.8,-542.22 853.17,-544.46"/>
</g>
<!-- node2426&#45;&gt;node2305 -->
<g id="edge20" class="edge">
<title>node2426&#45;&gt;node2305</title>
<path fill="none" stroke="#da2d4f" stroke-width="2" d="M796.81,-392.81C796.01,-384.79 795.05,-375.05 794.17,-366.07"/>
<polygon fill="#da2d4f" stroke="#da2d4f" stroke-width="2" points="797.64,-365.64 793.18,-356.03 790.68,-366.32 797.64,-365.64"/>
</g>
<!-- node2432 -->
<g id="node19" class="node">
<title>node2432</title>
<polygon fill="#da2d4f" stroke="black" points="1064,-356 847,-356 847,-320 1064,-320 1064,-356"/>
<text text-anchor="middle" x="955.5" y="-334.3" font-family="Arial" font-size="14.00" fill="#ffffff">2432 Deopt TransferToInterpreter</text>
</g>
<!-- node2427&#45;&gt;node2432 -->
<g id="edge21" class="edge">
<title>node2427&#45;&gt;node2432</title>
<path fill="none" stroke="#da2d4f" stroke-width="2" d="M954.74,-392.81C954.86,-384.79 954.99,-375.05 955.12,-366.07"/>
<polygon fill="#da2d4f" stroke="#da2d4f" stroke-width="2" points="958.62,-366.08 955.26,-356.03 951.62,-365.98 958.62,-366.08"/>
</g>
<!-- node2464 -->
<g id="node20" class="node">
<title>node2464</title>
<polygon fill="#da2d4f" stroke="black" points="504.5,-516 214.5,-516 214.5,-480 504.5,-480 504.5,-516"/>
<text text-anchor="middle" x="359.5" y="-494.3" font-family="Arial" font-size="14.00" fill="#ffffff">2464 Call OptimizedCallTarget.callBoundary !</text>
</g>
<!-- node2468 -->
<g id="node22" class="node">
<title>node2468</title>
<polygon fill="#e98693" stroke="black" points="420,-429 299,-429 299,-393 420,-393 420,-429"/>
<text text-anchor="middle" x="359.5" y="-407.3" font-family="Arial" font-size="14.00" fill="#1a1919">2468 KillingBegin</text>
</g>
<!-- node2464&#45;&gt;node2468 -->
<g id="edge23" class="edge">
<title>node2464&#45;&gt;node2468</title>
<path fill="none" stroke="#da2d4f" stroke-width="2" d="M359.5,-479.8C359.5,-468.16 359.5,-452.55 359.5,-439.24"/>
<polygon fill="#da2d4f" stroke="#da2d4f" stroke-width="2" points="363,-439.18 359.5,-429.18 356,-439.18 363,-439.18"/>
</g>
<!-- node2469 -->
<g id="node23" class="node">
<title>node2469</title>
<polygon fill="#f9f9f9" stroke="black" points="593,-429 444,-429 444,-393 593,-393 593,-429"/>
<text text-anchor="middle" x="518.5" y="-407.3" font-family="Arial" font-size="14.00" fill="#1a1919">2469 ExceptionObject</text>
</g>
<!-- node2464&#45;&gt;node2469 -->
<g id="edge24" class="edge">
<title>node2464&#45;&gt;node2469</title>
<path fill="none" stroke="#da2d4f" stroke-width="2" d="M391.68,-479.8C416.43,-466.56 450.82,-448.18 477.54,-433.9"/>
<polygon fill="#da2d4f" stroke="#da2d4f" stroke-width="2" points="479.47,-436.83 486.64,-429.03 476.17,-430.66 479.47,-436.83"/>
<text text-anchor="middle" x="471" y="-450.8" font-family="arial" font-size="14.00" fill="#da2d4f">unwind</text>
</g>
<!-- node2465 -->
<g id="node21" class="node">
<title>node2465</title>
<polygon fill="#f9f9f9" stroke="black" points="331,-589 174,-589 174,-553 331,-553 331,-589"/>
<text text-anchor="middle" x="252.5" y="-567.3" font-family="Arial" font-size="14.00" fill="#1a1919">2465 MethodCallTarget</text>
</g>
<!-- node2465&#45;&gt;node2464 -->
<g id="edge22" class="edge">
<title>node2465&#45;&gt;node2464</title>
<path fill="none" stroke="#343d46" stroke-dasharray="5,2" d="M286.77,-547.26C302,-537.15 319.62,-525.46 333.71,-516.11"/>
<polygon fill="#343d46" stroke="#343d46" points="284.53,-544.55 278.13,-552.99 288.4,-550.38 284.53,-544.55"/>
</g>
<!-- node2468&#45;&gt;node2307 -->
<g id="edge27" class="edge">
<title>node2468&#45;&gt;node2307</title>
<path fill="none" stroke="#da2d4f" stroke-width="2" d="M359.5,-392.81C359.5,-384.79 359.5,-375.05 359.5,-366.07"/>
<polygon fill="#da2d4f" stroke="#da2d4f" stroke-width="2" points="363,-366.03 359.5,-356.03 356,-366.03 363,-366.03"/>
</g>
<!-- node2474 -->
<g id="node24" class="node">
<title>node2474</title>
<polygon fill="#da2d4f" stroke="black" points="632,-356 415,-356 415,-320 632,-320 632,-356"/>
<text text-anchor="middle" x="523.5" y="-334.3" font-family="Arial" font-size="14.00" fill="#ffffff">2474 Deopt TransferToInterpreter</text>
</g>
<!-- node2469&#45;&gt;node2474 -->
<g id="edge28" class="edge">
<title>node2469&#45;&gt;node2474</title>
<path fill="none" stroke="#da2d4f" stroke-width="2" d="M519.71,-392.81C520.28,-384.79 520.96,-375.05 521.59,-366.07"/>
<polygon fill="#da2d4f" stroke="#da2d4f" stroke-width="2" points="525.09,-366.25 522.3,-356.03 518.11,-365.76 525.09,-366.25"/>
</g>
<!-- node2484&#45;&gt;node1094 -->
<g id="edge30" class="edge">
<title>node2484&#45;&gt;node1094</title>
<path fill="none" stroke="#da2d4f" stroke-width="2" d="M792.88,-1133.94C767.88,-1124.44 736.16,-1112.14 700.54,-1097.35"/>
<polygon fill="#da2d4f" stroke="#da2d4f" stroke-width="2" points="701.47,-1093.95 690.9,-1093.33 698.78,-1100.41 701.47,-1093.95"/>
</g>
<!-- node2488&#45;&gt;node2532 -->
<g id="edge32" class="edge">
<title>node2488&#45;&gt;node2532</title>
<path fill="none" stroke="#da2d4f" stroke-width="2" d="M776.15,-886.99C750.81,-877.06 718.64,-864.43 691.76,-853.89"/>
<polygon fill="#da2d4f" stroke="#da2d4f" stroke-width="2" points="692.72,-850.51 682.13,-850.11 690.16,-857.02 692.72,-850.51"/>
</g>
<!-- node2492&#45;&gt;node2518 -->
<g id="edge34" class="edge">
<title>node2492&#45;&gt;node2518</title>
<path fill="none" stroke="#da2d4f" stroke-width="2" d="M503.07,-886.99C475.12,-876.97 439.54,-864.21 410,-853.62"/>
<polygon fill="#da2d4f" stroke="#da2d4f" stroke-width="2" points="410.82,-850.19 400.23,-850.11 408.46,-856.78 410.82,-850.19"/>
</g>
<!-- node2515 -->
<g id="node28" class="node">
<title>node2515</title>
<polygon fill="#343d46" stroke="black" points="237,-850 0,-850 0,-814 237,-814 237,-850"/>
<text text-anchor="middle" x="118.5" y="-828.3" font-family="Arial" font-size="14.00" fill="#ffffff">2515 VirtualArray java.lang.Object[8]</text>
</g>
<!-- node2519 -->
<g id="node30" class="node">
<title>node2519</title>
<polygon fill="#da2d4f" stroke="black" points="392,-763 313,-763 313,-727 392,-727 392,-763"/>
<text text-anchor="middle" x="352.5" y="-741.3" font-family="Arial" font-size="14.00" fill="#ffffff">2519 Alloc</text>
</g>
<!-- node2515&#45;&gt;node2519 -->
<g id="edge37" class="edge">
<title>node2515&#45;&gt;node2519</title>
<path fill="none" stroke="#3cb4a4" d="M165.57,-813.9C205.6,-799.36 262.89,-778.55 303.47,-763.81"/>
<polygon fill="#3cb4a4" stroke="#3cb4a4" points="304.69,-767.09 312.89,-760.39 302.3,-760.51 304.69,-767.09"/>
<text text-anchor="middle" x="292" y="-784.8" font-family="arial" font-size="14.00" fill="#3cb4a4">virtualObjects</text>
</g>
<!-- node2520 -->
<g id="node31" class="node">
<title>node2520</title>
<polygon fill="#343d46" stroke="black" points="329,-676 184,-676 184,-640 329,-640 329,-676"/>
<text text-anchor="middle" x="256.5" y="-654.3" font-family="Arial" font-size="14.00" fill="#ffffff">2520 AllocatedObject</text>
</g>
<!-- node2515&#45;&gt;node2520 -->
<g id="edge40" class="edge">
<title>node2515&#45;&gt;node2520</title>
<path fill="none" stroke="#3cb4a4" d="M132.24,-813.88C156.73,-783.36 208.02,-719.43 236.45,-683.99"/>
<polygon fill="#3cb4a4" stroke="#3cb4a4" points="239.29,-686.04 242.82,-676.05 233.83,-681.66 239.29,-686.04"/>
<text text-anchor="middle" x="239.5" y="-741.3" font-family="arial" font-size="14.00" fill="#3cb4a4">virtualObject</text>
</g>
<!-- node2518&#45;&gt;node2519 -->
<g id="edge36" class="edge">
<title>node2518&#45;&gt;node2519</title>
<path fill="none" stroke="#da2d4f" stroke-width="2" d="M351.33,-813.92C350.99,-808.22 350.67,-801.84 350.5,-796 350.29,-788.65 350.44,-780.69 350.73,-773.33"/>
<polygon fill="#da2d4f" stroke="#da2d4f" stroke-width="2" points="354.24,-773.28 351.23,-763.12 347.24,-772.94 354.24,-773.28"/>
</g>
<!-- node2518&#45;&gt;node2519 -->
<g id="edge38" class="edge">
<title>node2518&#45;&gt;node2519</title>
<path fill="none" stroke="#3cb4a4" d="M352.5,-813.8C352.5,-802.16 352.5,-786.55 352.5,-773.24"/>
<polygon fill="#3cb4a4" stroke="#3cb4a4" points="356,-773.18 352.5,-763.18 349,-773.18 356,-773.18"/>
<text text-anchor="middle" x="372.5" y="-784.8" font-family="arial" font-size="14.00" fill="#3cb4a4">values</text>
</g>
<!-- node2519&#45;&gt;node2464 -->
<g id="edge39" class="edge">
<title>node2519&#45;&gt;node2464</title>
<path fill="none" stroke="#da2d4f" stroke-width="2" d="M352.99,-726.77C354.19,-684.86 357.26,-577.31 358.72,-526.44"/>
<polygon fill="#da2d4f" stroke="#da2d4f" stroke-width="2" points="362.22,-526.3 359.01,-516.21 355.22,-526.1 362.22,-526.3"/>
</g>
<!-- node2519&#45;&gt;node2520 -->
<g id="edge41" class="edge">
<title>node2519&#45;&gt;node2520</title>
<path fill="none" stroke="#3cb4a4" d="M323.39,-726.85C315.32,-721.55 306.78,-715.41 299.5,-709 291.12,-701.62 282.89,-692.61 275.91,-684.28"/>
<polygon fill="#3cb4a4" stroke="#3cb4a4" points="278.41,-681.81 269.38,-676.26 272.98,-686.23 278.41,-681.81"/>
<text text-anchor="middle" x="322.5" y="-697.8" font-family="arial" font-size="14.00" fill="#3cb4a4">commit</text>
</g>
<!-- node2520&#45;&gt;node2465 -->
<g id="edge26" class="edge">
<title>node2520&#45;&gt;node2465</title>
<path fill="none" stroke="#3cb4a4" d="M255.69,-639.8C255.14,-628.16 254.41,-612.55 253.78,-599.24"/>
<polygon fill="#3cb4a4" stroke="#3cb4a4" points="257.27,-599 253.31,-589.18 250.28,-599.33 257.27,-599"/>
<text text-anchor="middle" x="273" y="-610.8" font-family="arial" font-size="14.00" fill="#3cb4a4">arg[1]</text>
</g>
<!-- node2531 -->
<g id="node32" class="node">
<title>node2531</title>
<polygon fill="#343d46" stroke="black" points="1064,-850 827,-850 827,-814 1064,-814 1064,-850"/>
<text text-anchor="middle" x="945.5" y="-828.3" font-family="Arial" font-size="14.00" fill="#ffffff">2531 VirtualArray java.lang.Object[8]</text>
</g>
<!-- node2533 -->
<g id="node34" class="node">
<title>node2533</title>
<polygon fill="#da2d4f" stroke="black" points="809,-763 730,-763 730,-727 809,-727 809,-763"/>
<text text-anchor="middle" x="769.5" y="-741.3" font-family="Arial" font-size="14.00" fill="#ffffff">2533 Alloc</text>
</g>
<!-- node2531&#45;&gt;node2533 -->
<g id="edge44" class="edge">
<title>node2531&#45;&gt;node2533</title>
<path fill="none" stroke="#3cb4a4" d="M887.23,-813.96C872.64,-808.9 857.24,-802.85 843.5,-796 828.36,-788.45 812.68,-778.26 799.68,-769.04"/>
<polygon fill="#3cb4a4" stroke="#3cb4a4" points="801.71,-766.19 791.55,-763.17 797.6,-771.86 801.71,-766.19"/>
<text text-anchor="middle" x="885" y="-784.8" font-family="arial" font-size="14.00" fill="#3cb4a4">virtualObjects</text>
</g>
<!-- node2534 -->
<g id="node35" class="node">
<title>node2534</title>
<polygon fill="#343d46" stroke="black" points="932,-676 787,-676 787,-640 932,-640 932,-676"/>
<text text-anchor="middle" x="859.5" y="-654.3" font-family="Arial" font-size="14.00" fill="#ffffff">2534 AllocatedObject</text>
</g>
<!-- node2531&#45;&gt;node2534 -->
<g id="edge47" class="edge">
<title>node2531&#45;&gt;node2534</title>
<path fill="none" stroke="#3cb4a4" d="M939.57,-813.63C936.09,-803.9 931.41,-791.62 926.5,-781 910.78,-746.96 889.5,-709.36 875.18,-685.02"/>
<polygon fill="#3cb4a4" stroke="#3cb4a4" points="878.16,-683.2 870.05,-676.38 872.14,-686.77 878.16,-683.2"/>
<text text-anchor="middle" x="954.5" y="-741.3" font-family="arial" font-size="14.00" fill="#3cb4a4">virtualObject</text>
</g>
<!-- node2532&#45;&gt;node2533 -->
<g id="edge43" class="edge">
<title>node2532&#45;&gt;node2533</title>
<path fill="none" stroke="#da2d4f" stroke-width="2" d="M647.1,-813.65C653.18,-802.94 662.24,-789.65 673.5,-781 687.13,-770.53 704.2,-762.97 720.14,-757.62"/>
<polygon fill="#da2d4f" stroke="#da2d4f" stroke-width="2" points="721.39,-760.9 729.89,-754.57 719.3,-754.22 721.39,-760.9"/>
</g>
<!-- node2532&#45;&gt;node2533 -->
<g id="edge45" class="edge">
<title>node2532&#45;&gt;node2533</title>
<path fill="none" stroke="#3cb4a4" d="M665.01,-813.8C684.99,-800.84 712.57,-782.94 734.38,-768.79"/>
<polygon fill="#3cb4a4" stroke="#3cb4a4" points="736.55,-771.55 743.03,-763.18 732.74,-765.68 736.55,-771.55"/>
<text text-anchor="middle" x="731.5" y="-784.8" font-family="arial" font-size="14.00" fill="#3cb4a4">values</text>
</g>
<!-- node2533&#45;&gt;node2422 -->
<g id="edge46" class="edge">
<title>node2533&#45;&gt;node2422</title>
<path fill="none" stroke="#da2d4f" stroke-width="2" d="M766,-726.81C759.78,-691.95 750,-611.31 778.5,-553 784.34,-541.05 794.16,-530.7 804.33,-522.34"/>
<polygon fill="#da2d4f" stroke="#da2d4f" stroke-width="2" points="806.69,-524.94 812.5,-516.08 802.43,-519.39 806.69,-524.94"/>
</g>
<!-- node2533&#45;&gt;node2534 -->
<g id="edge48" class="edge">
<title>node2533&#45;&gt;node2534</title>
<path fill="none" stroke="#3cb4a4" d="M787.71,-726.8C801.01,-714.24 819.21,-697.05 833.96,-683.12"/>
<polygon fill="#3cb4a4" stroke="#3cb4a4" points="836.45,-685.59 841.31,-676.18 831.64,-680.5 836.45,-685.59"/>
<text text-anchor="middle" x="842.5" y="-697.8" font-family="arial" font-size="14.00" fill="#3cb4a4">commit</text>
</g>
<!-- node2534&#45;&gt;node2423 -->
<g id="edge19" class="edge">
<title>node2534&#45;&gt;node2423</title>
<path fill="none" stroke="#3cb4a4" d="M860.71,-639.8C861.54,-628.16 862.64,-612.55 863.58,-599.24"/>
<polygon fill="#3cb4a4" stroke="#3cb4a4" points="867.07,-599.4 864.29,-589.18 860.09,-598.9 867.07,-599.4"/>
<text text-anchor="middle" x="880" y="-610.8" font-family="arial" font-size="14.00" fill="#3cb4a4">arg[1]</text>
</g>
<!-- node2540&#45;&gt;node2545 -->
<g id="edge52" class="edge">
<title>node2540&#45;&gt;node2545</title>
<path fill="none" stroke="#3cb4a4" d="M1065.39,-173.8C1059.05,-161.82 1050.47,-145.62 1043.29,-132.06"/>
<polygon fill="#3cb4a4" stroke="#3cb4a4" points="1046.37,-130.38 1038.59,-123.18 1040.18,-133.65 1046.37,-130.38"/>
<text text-anchor="middle" x="1071" y="-144.8" font-family="arial" font-size="14.00" fill="#3cb4a4">value</text>
</g>
<!-- node2545&#45;&gt;node2392 -->
<g id="edge14" class="edge">
<title>node2545&#45;&gt;node2392</title>
<path fill="none" stroke="#3cb4a4" d="M1015.4,-86.84C1011.78,-81.46 1008.38,-75.27 1006.5,-69 1004.09,-60.93 1006.06,-52.49 1009.69,-44.89"/>
<polygon fill="#3cb4a4" stroke="#3cb4a4" points="1012.79,-46.53 1014.75,-36.12 1006.72,-43.03 1012.79,-46.53"/>
<text text-anchor="middle" x="1023.5" y="-57.8" font-family="arial" font-size="14.00" fill="#3cb4a4">result</text>
</g>
<!-- node2545&#45;&gt;node2392 -->
<g id="edge53" class="edge">
<title>node2545&#45;&gt;node2392</title>
<path fill="none" stroke="#da2d4f" stroke-width="2" d="M1036.05,-86.8C1037.87,-81.21 1039.59,-74.92 1040.5,-69 1041.67,-61.39 1040.79,-53.2 1039.11,-45.71"/>
<polygon fill="#da2d4f" stroke="#da2d4f" stroke-width="2" points="1042.47,-44.74 1036.44,-36.02 1035.72,-46.59 1042.47,-44.74"/>
</g>
<!-- node2546&#45;&gt;node534 -->
<g id="edge64" class="edge">
<title>node2546&#45;&gt;node534</title>
<path fill="none" stroke="#da2d4f" stroke-width="2" d="M719.25,-1469.86C728.52,-1459.09 740.63,-1445.02 750.96,-1433.02"/>
<polygon fill="#da2d4f" stroke="#da2d4f" stroke-width="2" points="753.9,-1434.97 757.77,-1425.11 748.6,-1430.4 753.9,-1434.97"/>
</g>
<!-- inline5x1095 -->
<g id="node39" class="node">
<title>inline5x1095</title>
<ellipse fill="#d7ede7" stroke="black" cx="522.5" cy="-1407" rx="27" ry="18"/>
<text text-anchor="middle" x="522.5" y="-1405.1" font-family="Arial" font-size="8.00" fill="#1a1919">5 C(0)</text>
</g>
<!-- inline5x1095&#45;&gt;node1095 -->
<g id="edge7" class="edge">
<title>inline5x1095&#45;&gt;node1095</title>
<path fill="none" stroke="#3cb4a4" d="M522.5,-1388.8C522.5,-1374.05 522.5,-1352.92 522.5,-1338.18"/>
<text text-anchor="middle" x="524.5" y="-1361.6" font-family="arial" font-size="8.00" fill="#3cb4a4">y</text>
</g>
<!-- inline1317x1319 -->
<g id="node40" class="node">
<title>inline1317x1319</title>
<ellipse fill="#d7ede7" stroke="black" cx="527.5" cy="-1079" rx="86.57" ry="18"/>
<text text-anchor="middle" x="527.5" y="-1077.1" font-family="Arial" font-size="8.00" fill="#1a1919">1317 C(RubyBasicObject@5a620041)</text>
</g>
<!-- inline1317x1319&#45;&gt;node1319 -->
<g id="edge10" class="edge">
<title>inline1317x1319&#45;&gt;node1319</title>
<path fill="none" stroke="#3cb4a4" d="M546.4,-1061.31C559.07,-1050.74 576.49,-1037.34 593.5,-1028 614.1,-1016.68 639.12,-1007.57 658.16,-1001.48"/>
<text text-anchor="middle" x="595.5" y="-1033.6" font-family="arial" font-size="8.00" fill="#3cb4a4">y</text>
</g>
<!-- inline1532x2423 -->
<g id="node41" class="node">
<title>inline1532x2423</title>
<ellipse fill="#d7ede7" stroke="black" cx="1007.5" cy="-658" rx="57.08" ry="18"/>
<text text-anchor="middle" x="1007.5" y="-656.1" font-family="Arial" font-size="8.00" fill="#1a1919">1532 C(Object#escape)</text>
</g>
<!-- inline1532x2423&#45;&gt;node2423 -->
<g id="edge18" class="edge">
<title>inline1532x2423&#45;&gt;node2423</title>
<path fill="none" stroke="#3cb4a4" d="M982.11,-641.8C957.38,-627 919.85,-604.53 894.08,-589.11"/>
<text text-anchor="middle" x="955.5" y="-612.6" font-family="arial" font-size="8.00" fill="#3cb4a4">arg[0]</text>
</g>
<!-- inline1532x2465 -->
<g id="node42" class="node">
<title>inline1532x2465</title>
<ellipse fill="#d7ede7" stroke="black" cx="108.5" cy="-658" rx="57.08" ry="18"/>
<text text-anchor="middle" x="108.5" y="-656.1" font-family="Arial" font-size="8.00" fill="#1a1919">1532 C(Object#escape)</text>
</g>
<!-- inline1532x2465&#45;&gt;node2465 -->
<g id="edge25" class="edge">
<title>inline1532x2465&#45;&gt;node2465</title>
<path fill="none" stroke="#3cb4a4" d="M134.24,-641.8C159.32,-627 197.38,-604.53 223.51,-589.11"/>
<text text-anchor="middle" x="200.5" y="-612.6" font-family="arial" font-size="8.00" fill="#3cb4a4">arg[0]</text>
</g>
<!-- inline125x1319 -->
<g id="node43" class="node">
<title>inline125x1319</title>
<ellipse fill="#d7ede7" stroke="black" cx="735.5" cy="-1079" rx="27.46" ry="18"/>
<text text-anchor="middle" x="735.5" y="-1077.1" font-family="Arial" font-size="8.00" fill="#1a1919">125 T(5)</text>
</g>
<!-- inline125x1319&#45;&gt;node1319 -->
<g id="edge55" class="edge">
<title>inline125x1319&#45;&gt;node1319</title>
<path fill="none" stroke="#3cb4a4" d="M726.47,-1062.01C717.67,-1046.43 704.4,-1022.93 695.85,-1007.78"/>
<text text-anchor="middle" x="715.5" y="-1033.6" font-family="arial" font-size="8.00" fill="#3cb4a4">x</text>
</g>
<!-- inline125x2519 -->
<g id="node44" class="node">
<title>inline125x2519</title>
<ellipse fill="#d7ede7" stroke="black" cx="495.5" cy="-832" rx="27.46" ry="18"/>
<text text-anchor="middle" x="495.5" y="-830.1" font-family="Arial" font-size="8.00" fill="#1a1919">125 T(5)</text>
</g>
<!-- inline125x2519&#45;&gt;node2519 -->
<g id="edge56" class="edge">
<title>inline125x2519&#45;&gt;node2519</title>
<path fill="none" stroke="#3cb4a4" d="M475.92,-819.36C451.44,-804.81 409.35,-779.79 381.22,-763.07"/>
<text text-anchor="middle" x="445" y="-786.6" font-family="arial" font-size="8.00" fill="#3cb4a4">values</text>
</g>
<!-- inline125x2533 -->
<g id="node45" class="node">
<title>inline125x2533</title>
<ellipse fill="#d7ede7" stroke="black" cx="781.5" cy="-832" rx="27.46" ry="18"/>
<text text-anchor="middle" x="781.5" y="-830.1" font-family="Arial" font-size="8.00" fill="#1a1919">125 T(5)</text>
</g>
<!-- inline125x2533&#45;&gt;node2533 -->
<g id="edge57" class="edge">
<title>inline125x2533&#45;&gt;node2533</title>
<path fill="none" stroke="#3cb4a4" d="M779.07,-813.8C776.99,-799.05 774.01,-777.92 771.92,-763.18"/>
<text text-anchor="middle" x="787" y="-786.6" font-family="arial" font-size="8.00" fill="#3cb4a4">values</text>
</g>
<!-- inline143x922 -->
<g id="node46" class="node">
<title>inline143x922</title>
<ellipse fill="#d7ede7" stroke="black" cx="968.5" cy="-1320" rx="27.46" ry="18"/>
<text text-anchor="middle" x="968.5" y="-1318.1" font-family="Arial" font-size="8.00" fill="#1a1919">143 T(6)</text>
</g>
<!-- inline143x922&#45;&gt;node922 -->
<g id="edge58" class="edge">
<title>inline143x922&#45;&gt;node922</title>
<path fill="none" stroke="#3cb4a4" d="M968.5,-1301.86C968.5,-1288.61 968.5,-1270.35 968.5,-1257.11"/>
<text text-anchor="middle" x="978" y="-1277.6" font-family="arial" font-size="8.00" fill="#3cb4a4">value</text>
</g>
<!-- inline158x534 -->
<g id="node47" class="node">
<title>inline158x534</title>
<ellipse fill="#d7ede7" stroke="black" cx="806.5" cy="-1488" rx="27.46" ry="18"/>
<text text-anchor="middle" x="806.5" y="-1486.1" font-family="Arial" font-size="8.00" fill="#1a1919">158 T(7)</text>
</g>
<!-- inline158x534&#45;&gt;node534 -->
<g id="edge59" class="edge">
<title>inline158x534&#45;&gt;node534</title>
<path fill="none" stroke="#3cb4a4" d="M799.29,-1470.25C793.56,-1456.93 785.58,-1438.38 779.82,-1425"/>
<text text-anchor="middle" x="800" y="-1445.6" font-family="arial" font-size="8.00" fill="#3cb4a4">value</text>
</g>
<!-- inline176x693 -->
<g id="node48" class="node">
<title>inline176x693</title>
<ellipse fill="#d7ede7" stroke="black" cx="1060.5" cy="-1407" rx="27.46" ry="18"/>
<text text-anchor="middle" x="1060.5" y="-1405.1" font-family="Arial" font-size="8.00" fill="#1a1919">176 T(8)</text>
</g>
<!-- inline176x693&#45;&gt;node693 -->
<g id="edge60" class="edge">
<title>inline176x693&#45;&gt;node693</title>
<path fill="none" stroke="#3cb4a4" d="M1060.5,-1388.8C1060.5,-1374.05 1060.5,-1352.92 1060.5,-1338.18"/>
<text text-anchor="middle" x="1070" y="-1361.6" font-family="arial" font-size="8.00" fill="#3cb4a4">value</text>
</g>
<!-- inline194x848 -->
<g id="node49" class="node">
<title>inline194x848</title>
<ellipse fill="#d7ede7" stroke="black" cx="838.5" cy="-1320" rx="27.46" ry="18"/>
<text text-anchor="middle" x="838.5" y="-1318.1" font-family="Arial" font-size="8.00" fill="#1a1919">194 T(9)</text>
</g>
<!-- inline194x848&#45;&gt;node848 -->
<g id="edge61" class="edge">
<title>inline194x848&#45;&gt;node848</title>
<path fill="none" stroke="#3cb4a4" d="M838.5,-1301.86C838.5,-1288.61 838.5,-1270.35 838.5,-1257.11"/>
<text text-anchor="middle" x="848" y="-1277.6" font-family="arial" font-size="8.00" fill="#3cb4a4">value</text>
</g>
<!-- inline2x2546 -->
<g id="node50" class="node">
<title>inline2x2546</title>
<ellipse fill="#d7ede7" stroke="black" cx="741.5" cy="-1569" rx="27" ry="18"/>
<text text-anchor="middle" x="741.5" y="-1567.1" font-family="Arial" font-size="8.00" fill="#1a1919">2 P(1)</text>
</g>
<!-- inline2x2546&#45;&gt;node2546 -->
<g id="edge62" class="edge">
<title>inline2x2546&#45;&gt;node2546</title>
<path fill="none" stroke="#3cb4a4" d="M733.83,-1551.63C727.61,-1538.34 718.86,-1519.67 712.54,-1506.17"/>
<text text-anchor="middle" x="733" y="-1526.6" font-family="arial" font-size="8.00" fill="#3cb4a4">array</text>
</g>
</g>
</svg>
