<?xml version="1.0" encoding="UTF-8" standalone="no"?>
<!DOCTYPE svg PUBLIC "-//W3C//DTD SVG 1.1//EN"
 "http://www.w3.org/Graphics/SVG/1.1/DTD/svg11.dtd">
<!-- Generated by graphviz version 2.44.1 (20200629.0846)
 -->
<!-- Title: G Pages: 1 -->
<svg width="1513pt" height="1354pt"
 viewBox="0.00 0.00 1513.28 1354.00" xmlns="http://www.w3.org/2000/svg" xmlns:xlink="http://www.w3.org/1999/xlink">
<g id="graph0" class="graph" transform="scale(1 1) rotate(0) translate(4 1350)">
<title>G</title>
<!-- node0 -->
<g id="node1" class="node">
<title>node0</title>
<polygon fill="#e98693" stroke="black" points="629.78,-1346 573.78,-1346 573.78,-1310 629.78,-1310 629.78,-1346"/>
<text text-anchor="middle" x="601.78" y="-1324.3" font-family="Arial" font-size="14.00" fill="#1a1919">0 Start</text>
</g>
<!-- node2866 -->
<g id="node31" class="node">
<title>node2866</title>
<polygon fill="#da2d4f" stroke="black" points="695.28,-1265 582.28,-1265 582.28,-1229 695.28,-1229 695.28,-1265"/>
<text text-anchor="middle" x="638.78" y="-1243.3" font-family="Arial" font-size="14.00" fill="#ffffff">2866 Load T(...)</text>
</g>
<!-- node0&#45;&gt;node2866 -->
<g id="edge52" class="edge">
<title>node0&#45;&gt;node2866</title>
<path fill="none" stroke="#da2d4f" stroke-width="2" d="M609.8,-1309.86C614.65,-1299.51 620.93,-1286.1 626.4,-1274.41"/>
<polygon fill="#da2d4f" stroke="#da2d4f" stroke-width="2" points="629.69,-1275.65 630.76,-1265.11 623.35,-1272.68 629.69,-1275.65"/>
</g>
<!-- node528 -->
<g id="node2" class="node">
<title>node528</title>
<polygon fill="#f9f9f9" stroke="black" points="611.78,-1184 529.78,-1184 529.78,-1148 611.78,-1148 611.78,-1184"/>
<text text-anchor="middle" x="570.78" y="-1162.3" font-family="Arial" font-size="14.00" fill="#1a1919">528 Unbox</text>
</g>
<!-- node2811 -->
<g id="node26" class="node">
<title>node2811</title>
<polygon fill="#ffa500" stroke="black" points="416.28,-1097 165.28,-1097 165.28,-1061 416.28,-1061 416.28,-1097"/>
<text text-anchor="middle" x="290.78" y="-1075.3" font-family="Arial" font-size="14.00" fill="#1a1919">2811 Guard, else TransferToInterpreter</text>
</g>
<!-- node528&#45;&gt;node2811 -->
<g id="edge1" class="edge">
<title>node528&#45;&gt;node2811</title>
<path fill="none" stroke="#da2d4f" stroke-width="2" d="M529.76,-1152.55C484.29,-1138.74 410.29,-1116.28 356.67,-1100"/>
<polygon fill="#da2d4f" stroke="#da2d4f" stroke-width="2" points="357.49,-1096.59 346.9,-1097.04 355.45,-1103.29 357.49,-1096.59"/>
</g>
<!-- node2841 -->
<g id="node28" class="node">
<title>node2841</title>
<polygon fill="#f9f9f9" stroke="black" points="241.78,-210 183.78,-210 183.78,-174 241.78,-174 241.78,-210"/>
<text text-anchor="middle" x="212.78" y="-188.3" font-family="Arial" font-size="14.00" fill="#1a1919">2841 ϕ</text>
</g>
<!-- node528&#45;&gt;node2841 -->
<g id="edge41" class="edge">
<title>node528&#45;&gt;node2841</title>
<path fill="none" stroke="#3cb4a4" d="M529.69,-1162C413.99,-1153 93.78,-1124.11 93.78,-1080 93.78,-1080 93.78,-1080 93.78,-278 93.78,-257.78 139.83,-229.82 174.64,-211.58"/>
<polygon fill="#3cb4a4" stroke="#3cb4a4" points="176.38,-214.62 183.66,-206.93 173.17,-208.4 176.38,-214.62"/>
<text text-anchor="middle" x="121.28" y="-696.3" font-family="arial" font-size="14.00" fill="#3cb4a4">from 809</text>
</g>
<!-- node2849 -->
<g id="node29" class="node">
<title>node2849</title>
<polygon fill="#f9f9f9" stroke="black" points="1059.78,-123 1001.78,-123 1001.78,-87 1059.78,-87 1059.78,-123"/>
<text text-anchor="middle" x="1030.78" y="-101.3" font-family="Arial" font-size="14.00" fill="#1a1919">2849 ϕ</text>
</g>
<!-- node528&#45;&gt;node2849 -->
<g id="edge44" class="edge">
<title>node528&#45;&gt;node2849</title>
<path fill="none" stroke="#3cb4a4" d="M611.87,-1164.91C773.39,-1164.02 1355.78,-1155.57 1355.78,-1080 1355.78,-1080 1355.78,-1080 1355.78,-191 1355.78,-166.54 1352.58,-155.36 1332.78,-141 1291.7,-111.2 1141.94,-106.42 1069.94,-105.89"/>
<polygon fill="#3cb4a4" stroke="#3cb4a4" points="1069.92,-102.39 1059.91,-105.84 1069.89,-109.39 1069.92,-102.39"/>
<text text-anchor="middle" x="1386.28" y="-652.8" font-family="arial" font-size="14.00" fill="#3cb4a4">from 1194</text>
</g>
<!-- node2865 -->
<g id="node30" class="node">
<title>node2865</title>
<polygon fill="#f9f9f9" stroke="black" points="647.28,-718 452.28,-718 452.28,-682 647.28,-682 647.28,-718"/>
<text text-anchor="middle" x="549.78" y="-696.3" font-family="Arial" font-size="14.00" fill="#1a1919">2865 BoxNode$AllocatingBox</text>
</g>
<!-- node528&#45;&gt;node2865 -->
<g id="edge46" class="edge">
<title>node528&#45;&gt;node2865</title>
<path fill="none" stroke="#3cb4a4" d="M611.93,-1152.89C644.59,-1140.46 684.78,-1117.53 684.78,-1080 684.78,-1080 684.78,-1080 684.78,-772 684.78,-748.6 668.69,-732.89 647.62,-722.36"/>
<polygon fill="#3cb4a4" stroke="#3cb4a4" points="648.87,-719.08 638.32,-718.15 645.99,-725.46 648.87,-719.08"/>
<text text-anchor="middle" x="701.28" y="-929.3" font-family="arial" font-size="14.00" fill="#3cb4a4">value</text>
</g>
<!-- node603 -->
<g id="node3" class="node">
<title>node603</title>
<polygon fill="#3cb4a4" stroke="black" points="70.78,-1184 0.22,-1166 70.78,-1148 141.33,-1166 70.78,-1184"/>
<text text-anchor="middle" x="70.78" y="-1162.3" font-family="Arial" font-size="14.00" fill="#1a1919">603 IsNull</text>
</g>
<!-- node603&#45;&gt;node2811 -->
<g id="edge36" class="edge">
<title>node603&#45;&gt;node2811</title>
<path fill="none" stroke="#3cb4a4" d="M97.31,-1154.75C131.81,-1141.42 192.87,-1117.83 237.19,-1100.7"/>
<polygon fill="#3cb4a4" stroke="#3cb4a4" points="238.59,-1103.91 246.66,-1097.05 236.07,-1097.39 238.59,-1103.91"/>
<text text-anchor="middle" x="198.78" y="-1118.8" font-family="arial" font-size="14.00" fill="#3cb4a4">?</text>
</g>
<!-- node809 -->
<g id="node4" class="node">
<title>node809</title>
<polygon fill="#e98693" stroke="black" points="324.28,-1024 257.28,-1024 257.28,-988 324.28,-988 324.28,-1024"/>
<text text-anchor="middle" x="290.78" y="-1002.3" font-family="Arial" font-size="14.00" fill="#1a1919">809 End</text>
</g>
<!-- node810 -->
<g id="node5" class="node">
<title>node810</title>
<polygon fill="#e98693" stroke="black" points="344.28,-951 237.28,-951 237.28,-915 344.28,-915 344.28,-951"/>
<text text-anchor="middle" x="290.78" y="-929.3" font-family="Arial" font-size="14.00" fill="#1a1919">810 LoopBegin</text>
</g>
<!-- node809&#45;&gt;node810 -->
<g id="edge2" class="edge">
<title>node809&#45;&gt;node810</title>
<path fill="none" stroke="#da2d4f" stroke-width="2" d="M290.78,-987.81C290.78,-979.79 290.78,-970.05 290.78,-961.07"/>
<polygon fill="#da2d4f" stroke="#da2d4f" stroke-width="2" points="294.28,-961.03 290.78,-951.03 287.28,-961.03 294.28,-961.03"/>
</g>
<!-- node1027 -->
<g id="node7" class="node">
<title>node1027</title>
<polygon fill="#e98693" stroke="black" points="470.78,-878 412.78,-878 412.78,-842 470.78,-842 470.78,-878"/>
<text text-anchor="middle" x="441.78" y="-856.3" font-family="Arial" font-size="14.00" fill="#1a1919">1027 If</text>
</g>
<!-- node810&#45;&gt;node1027 -->
<g id="edge3" class="edge">
<title>node810&#45;&gt;node1027</title>
<path fill="none" stroke="#da2d4f" stroke-width="2" d="M326.94,-914.99C349.95,-904.18 379.71,-890.18 403.17,-879.15"/>
<polygon fill="#da2d4f" stroke="#da2d4f" stroke-width="2" points="404.92,-882.2 412.48,-874.78 401.94,-875.86 404.92,-882.2"/>
</g>
<!-- node810&#45;&gt;node2841 -->
<g id="edge40" class="edge">
<title>node810&#45;&gt;node2841</title>
<path fill="none" stroke="#343d46" stroke-dasharray="5,2" d="M227.41,-916.46C201.18,-905.88 176.78,-888.62 176.78,-861 176.78,-861 176.78,-861 176.78,-736 176.78,-540.55 156.56,-492.37 150.78,-297 150.3,-281.01 144.99,-275.92 150.78,-261 158.68,-240.59 175.88,-222.55 190.17,-210.19"/>
<polygon fill="#343d46" stroke="#343d46" points="226.52,-919.86 237.11,-920.06 228.96,-913.3 226.52,-919.86"/>
</g>
<!-- node988 -->
<g id="node6" class="node">
<title>node988</title>
<polygon fill="#3cb4a4" stroke="black" points="203.78,-123 157.02,-105 203.78,-87 250.53,-105 203.78,-123"/>
<text text-anchor="middle" x="203.78" y="-101.3" font-family="Arial" font-size="14.00" fill="#1a1919">988 &lt;</text>
</g>
<!-- node988&#45;&gt;node1027 -->
<g id="edge6" class="edge">
<title>node988&#45;&gt;node1027</title>
<path fill="none" stroke="#3cb4a4" d="M227.42,-114.02C237.07,-117.1 248.38,-120.49 258.78,-123 303.52,-133.82 321.95,-116.26 360.78,-141 415.68,-175.99 425.2,-198.91 444.78,-261 449.59,-276.26 448.45,-281.43 444.78,-297 442.72,-305.71 439,-306.66 435.78,-315 427.47,-336.53 421.78,-341.92 421.78,-365 421.78,-774 421.78,-774 421.78,-774 421.78,-793.84 427,-815.6 432.11,-832.14"/>
<polygon fill="#3cb4a4" stroke="#3cb4a4" points="428.8,-833.28 435.23,-841.7 435.45,-831.11 428.8,-833.28"/>
<text text-anchor="middle" x="425.78" y="-492.8" font-family="arial" font-size="14.00" fill="#3cb4a4">?</text>
</g>
<!-- node1030 -->
<g id="node8" class="node">
<title>node1030</title>
<polygon fill="#e98693" stroke="black" points="656.28,-791 571.28,-791 571.28,-755 656.28,-755 656.28,-791"/>
<text text-anchor="middle" x="613.78" y="-769.3" font-family="Arial" font-size="14.00" fill="#1a1919">1030 Begin</text>
</g>
<!-- node1027&#45;&gt;node1030 -->
<g id="edge8" class="edge">
<title>node1027&#45;&gt;node1030</title>
<path fill="none" stroke="#da2d4f" stroke-width="2" d="M470.95,-844.58C498.05,-831.19 538.78,-811.06 569.82,-795.72"/>
<polygon fill="#da2d4f" stroke="#da2d4f" stroke-width="2" points="571.7,-798.7 579.11,-791.13 568.59,-792.42 571.7,-798.7"/>
<text text-anchor="middle" x="543.28" y="-812.8" font-family="arial" font-size="14.00" fill="#da2d4f">F</text>
</g>
<!-- node2621 -->
<g id="node23" class="node">
<title>node2621</title>
<polygon fill="#e98693" stroke="black" points="553.28,-791 450.28,-791 450.28,-755 553.28,-755 553.28,-791"/>
<text text-anchor="middle" x="501.78" y="-769.3" font-family="Arial" font-size="14.00" fill="#1a1919">2621 LoopExit</text>
</g>
<!-- node1027&#45;&gt;node2621 -->
<g id="edge7" class="edge">
<title>node1027&#45;&gt;node2621</title>
<path fill="none" stroke="#da2d4f" stroke-width="2" d="M453.92,-841.8C462.46,-829.7 474.03,-813.3 483.66,-799.67"/>
<polygon fill="#da2d4f" stroke="#da2d4f" stroke-width="2" points="486.74,-801.36 489.65,-791.18 481.03,-797.33 486.74,-801.36"/>
<text text-anchor="middle" x="480.28" y="-812.8" font-family="arial" font-size="14.00" fill="#da2d4f">T</text>
</g>
<!-- node1194 -->
<g id="node9" class="node">
<title>node1194</title>
<polygon fill="#e98693" stroke="black" points="744.78,-718 670.78,-718 670.78,-682 744.78,-682 744.78,-718"/>
<text text-anchor="middle" x="707.78" y="-696.3" font-family="Arial" font-size="14.00" fill="#1a1919">1194 End</text>
</g>
<!-- node1030&#45;&gt;node1194 -->
<g id="edge9" class="edge">
<title>node1030&#45;&gt;node1194</title>
<path fill="none" stroke="#da2d4f" stroke-width="2" d="M636.53,-754.81C648.65,-745.66 663.74,-734.26 676.91,-724.32"/>
<polygon fill="#da2d4f" stroke="#da2d4f" stroke-width="2" points="679.36,-726.85 685.23,-718.03 675.14,-721.26 679.36,-726.85"/>
</g>
<!-- node1195 -->
<g id="node10" class="node">
<title>node1195</title>
<polygon fill="#e98693" stroke="black" points="778.78,-631 664.78,-631 664.78,-595 778.78,-595 778.78,-631"/>
<text text-anchor="middle" x="721.78" y="-609.3" font-family="Arial" font-size="14.00" fill="#1a1919">1195 LoopBegin</text>
</g>
<!-- node1194&#45;&gt;node1195 -->
<g id="edge10" class="edge">
<title>node1194&#45;&gt;node1195</title>
<path fill="none" stroke="#da2d4f" stroke-width="2" d="M710.61,-681.8C712.52,-670.16 715.1,-654.55 717.29,-641.24"/>
<polygon fill="#da2d4f" stroke="#da2d4f" stroke-width="2" points="720.77,-641.61 718.95,-631.18 713.87,-640.47 720.77,-641.61"/>
</g>
<!-- node1405 -->
<g id="node12" class="node">
<title>node1405</title>
<polygon fill="#e98693" stroke="black" points="750.78,-558 692.78,-558 692.78,-522 750.78,-522 750.78,-558"/>
<text text-anchor="middle" x="721.78" y="-536.3" font-family="Arial" font-size="14.00" fill="#1a1919">1405 If</text>
</g>
<!-- node1195&#45;&gt;node1405 -->
<g id="edge11" class="edge">
<title>node1195&#45;&gt;node1405</title>
<path fill="none" stroke="#da2d4f" stroke-width="2" d="M721.78,-594.81C721.78,-586.79 721.78,-577.05 721.78,-568.07"/>
<polygon fill="#da2d4f" stroke="#da2d4f" stroke-width="2" points="725.28,-568.03 721.78,-558.03 718.28,-568.03 725.28,-568.03"/>
</g>
<!-- node1195&#45;&gt;node2849 -->
<g id="edge43" class="edge">
<title>node1195&#45;&gt;node2849</title>
<path fill="none" stroke="#343d46" stroke-dasharray="5,2" d="M788.91,-603.9C825.65,-595.3 863.78,-577.56 863.78,-541 863.78,-541 863.78,-541 863.78,-191 863.78,-129.84 953.84,-112.67 1001.69,-107.86"/>
<polygon fill="#343d46" stroke="#343d46" points="788.17,-600.48 779.12,-605.99 789.63,-607.32 788.17,-600.48"/>
</g>
<!-- node1367 -->
<g id="node11" class="node">
<title>node1367</title>
<polygon fill="#3cb4a4" stroke="black" points="743.78,-36 689.31,-18 743.78,0 798.24,-18 743.78,-36"/>
<text text-anchor="middle" x="743.78" y="-14.3" font-family="Arial" font-size="14.00" fill="#1a1919">1367 &lt;</text>
</g>
<!-- node1367&#45;&gt;node1405 -->
<g id="edge14" class="edge">
<title>node1367&#45;&gt;node1405</title>
<path fill="none" stroke="#3cb4a4" d="M743.78,-36.26C743.78,-53.43 743.78,-80.54 743.78,-104 743.78,-323.5 743.78,-323.5 743.78,-323.5 743.78,-391.51 732.8,-470.97 726.35,-511.77"/>
<polygon fill="#3cb4a4" stroke="#3cb4a4" points="722.88,-511.31 724.74,-521.74 729.79,-512.43 722.88,-511.31"/>
<text text-anchor="middle" x="747.78" y="-275.3" font-family="arial" font-size="14.00" fill="#3cb4a4">?</text>
</g>
<!-- node1408 -->
<g id="node13" class="node">
<title>node1408</title>
<polygon fill="#e98693" stroke="black" points="835.28,-471 750.28,-471 750.28,-435 835.28,-435 835.28,-471"/>
<text text-anchor="middle" x="792.78" y="-449.3" font-family="Arial" font-size="14.00" fill="#1a1919">1408 Begin</text>
</g>
<!-- node1405&#45;&gt;node1408 -->
<g id="edge16" class="edge">
<title>node1405&#45;&gt;node1408</title>
<path fill="none" stroke="#da2d4f" stroke-width="2" d="M736.14,-521.8C746.44,-509.47 760.47,-492.68 771.98,-478.89"/>
<polygon fill="#da2d4f" stroke="#da2d4f" stroke-width="2" points="774.7,-481.09 778.43,-471.18 769.33,-476.61 774.7,-481.09"/>
<text text-anchor="middle" x="765.28" y="-492.8" font-family="arial" font-size="14.00" fill="#da2d4f">F</text>
</g>
<!-- node2263 -->
<g id="node18" class="node">
<title>node2263</title>
<polygon fill="#e98693" stroke="black" points="663.28,-471 560.28,-471 560.28,-435 663.28,-435 663.28,-471"/>
<text text-anchor="middle" x="611.78" y="-449.3" font-family="Arial" font-size="14.00" fill="#1a1919">2263 LoopExit</text>
</g>
<!-- node1405&#45;&gt;node2263 -->
<g id="edge15" class="edge">
<title>node1405&#45;&gt;node2263</title>
<path fill="none" stroke="#da2d4f" stroke-width="2" d="M699.51,-521.8C682.97,-509.01 660.2,-491.42 642,-477.36"/>
<polygon fill="#da2d4f" stroke="#da2d4f" stroke-width="2" points="644.06,-474.52 634,-471.18 639.77,-480.06 644.06,-474.52"/>
<text text-anchor="middle" x="678.28" y="-492.8" font-family="arial" font-size="14.00" fill="#da2d4f">T</text>
</g>
<!-- node2818 -->
<g id="node27" class="node">
<title>node2818</title>
<polygon fill="#ffa500" stroke="black" points="1240.28,-384 989.28,-384 989.28,-348 1240.28,-348 1240.28,-384"/>
<text text-anchor="middle" x="1114.78" y="-362.3" font-family="Arial" font-size="14.00" fill="#1a1919">2818 Guard, else TransferToInterpreter</text>
</g>
<!-- node1408&#45;&gt;node2818 -->
<g id="edge17" class="edge">
<title>node1408&#45;&gt;node2818</title>
<path fill="none" stroke="#da2d4f" stroke-width="2" d="M835.53,-440.71C887.66,-426.95 976.64,-403.46 1040.15,-386.7"/>
<polygon fill="#da2d4f" stroke="#da2d4f" stroke-width="2" points="1041.34,-390.01 1050.11,-384.07 1039.55,-383.24 1041.34,-390.01"/>
</g>
<!-- node1645 -->
<g id="node14" class="node">
<title>node1645</title>
<polygon fill="#3cb4a4" stroke="black" points="1114.78,-471 1053.11,-453 1114.78,-435 1176.44,-453 1114.78,-471"/>
<text text-anchor="middle" x="1114.78" y="-449.3" font-family="Arial" font-size="14.00" fill="#1a1919">1645 ==</text>
</g>
<!-- node1645&#45;&gt;node2818 -->
<g id="edge38" class="edge">
<title>node1645&#45;&gt;node2818</title>
<path fill="none" stroke="#3cb4a4" d="M1114.78,-434.8C1114.78,-423.16 1114.78,-407.55 1114.78,-394.24"/>
<polygon fill="#3cb4a4" stroke="#3cb4a4" points="1118.28,-394.18 1114.78,-384.18 1111.28,-394.18 1118.28,-394.18"/>
<text text-anchor="middle" x="1118.78" y="-405.8" font-family="arial" font-size="14.00" fill="#3cb4a4">?</text>
</g>
<!-- node2163 -->
<g id="node15" class="node">
<title>node2163</title>
<polygon fill="#ffa500" stroke="black" points="1327.78,-297 1061.78,-297 1061.78,-261 1327.78,-261 1327.78,-297"/>
<text text-anchor="middle" x="1194.78" y="-275.3" font-family="Arial" font-size="14.00" fill="#1a1919">2163 Guard not, else ArithmeticException</text>
</g>
<!-- node2166 -->
<g id="node17" class="node">
<title>node2166</title>
<polygon fill="#3cb4a4" stroke="black" points="1029.78,-210 892.03,-192 1029.78,-174 1167.52,-192 1029.78,-210"/>
<text text-anchor="middle" x="1029.78" y="-188.3" font-family="Arial" font-size="14.00" fill="#1a1919">2166 IntegerSubExact</text>
</g>
<!-- node2163&#45;&gt;node2166 -->
<g id="edge25" class="edge">
<title>node2163&#45;&gt;node2166</title>
<path fill="none" stroke="#3cb4a4" d="M1161.38,-260.8C1133.55,-246.46 1093.99,-226.08 1065.52,-211.41"/>
<polygon fill="#3cb4a4" stroke="#3cb4a4" points="1066.82,-208.14 1056.32,-206.68 1063.61,-214.37 1066.82,-208.14"/>
<text text-anchor="middle" x="1139.28" y="-231.8" font-family="arial" font-size="14.00" fill="#3cb4a4">guard</text>
</g>
<!-- node2268 -->
<g id="node19" class="node">
<title>node2268</title>
<polygon fill="#e98693" stroke="black" points="1289.78,-210 1185.78,-210 1185.78,-174 1289.78,-174 1289.78,-210"/>
<text text-anchor="middle" x="1237.78" y="-188.3" font-family="Arial" font-size="14.00" fill="#1a1919">2268 LoopEnd</text>
</g>
<!-- node2163&#45;&gt;node2268 -->
<g id="edge20" class="edge">
<title>node2163&#45;&gt;node2268</title>
<path fill="none" stroke="#da2d4f" stroke-width="2" d="M1203.48,-260.8C1209.48,-248.93 1217.58,-232.93 1224.4,-219.45"/>
<polygon fill="#da2d4f" stroke="#da2d4f" stroke-width="2" points="1227.7,-220.68 1229.09,-210.18 1221.45,-217.52 1227.7,-220.68"/>
</g>
<!-- node2164 -->
<g id="node16" class="node">
<title>node2164</title>
<polygon fill="#3cb4a4" stroke="black" points="1317.78,-36 1130.26,-18 1317.78,0 1505.29,-18 1317.78,-36"/>
<text text-anchor="middle" x="1317.78" y="-14.3" font-family="Arial" font-size="14.00" fill="#1a1919">2164 IntegerSubExactOverflow</text>
</g>
<!-- node2164&#45;&gt;node2163 -->
<g id="edge19" class="edge">
<title>node2164&#45;&gt;node2163</title>
<path fill="none" stroke="#3cb4a4" d="M1320.64,-35.82C1325.72,-71.03 1332.83,-153.88 1298.78,-210 1286.64,-229.99 1266.14,-245.24 1246.53,-256.19"/>
<polygon fill="#3cb4a4" stroke="#3cb4a4" points="1244.81,-253.14 1237.61,-260.91 1248.09,-259.32 1244.81,-253.14"/>
<text text-anchor="middle" x="1324.78" y="-144.8" font-family="arial" font-size="14.00" fill="#3cb4a4">?</text>
</g>
<!-- node2166&#45;&gt;node2849 -->
<g id="edge45" class="edge">
<title>node2166&#45;&gt;node2849</title>
<path fill="none" stroke="#3cb4a4" d="M1004.12,-177.31C990.48,-168.06 977.83,-155.02 984.78,-141 987,-136.52 990.1,-132.45 993.66,-128.81"/>
<polygon fill="#3cb4a4" stroke="#3cb4a4" points="996.26,-131.18 1001.45,-121.94 991.64,-125.93 996.26,-131.18"/>
<text text-anchor="middle" x="1015.78" y="-144.8" font-family="arial" font-size="14.00" fill="#3cb4a4">from 2268</text>
</g>
<!-- node2523 -->
<g id="node20" class="node">
<title>node2523</title>
<polygon fill="#ffa500" stroke="black" points="715.78,-384 449.78,-384 449.78,-348 715.78,-348 715.78,-384"/>
<text text-anchor="middle" x="582.78" y="-362.3" font-family="Arial" font-size="14.00" fill="#1a1919">2523 Guard not, else ArithmeticException</text>
</g>
<!-- node2263&#45;&gt;node2523 -->
<g id="edge26" class="edge">
<title>node2263&#45;&gt;node2523</title>
<path fill="none" stroke="#da2d4f" stroke-width="2" d="M605.91,-434.8C601.9,-423.05 596.5,-407.24 591.93,-393.84"/>
<polygon fill="#da2d4f" stroke="#da2d4f" stroke-width="2" points="595.18,-392.51 588.63,-384.18 588.55,-394.77 595.18,-392.51"/>
</g>
<!-- node2526 -->
<g id="node22" class="node">
<title>node2526</title>
<polygon fill="#3cb4a4" stroke="black" points="297.78,-297 160.03,-279 297.78,-261 435.52,-279 297.78,-297"/>
<text text-anchor="middle" x="297.78" y="-275.3" font-family="Arial" font-size="14.00" fill="#1a1919">2526 IntegerSubExact</text>
</g>
<!-- node2523&#45;&gt;node2526 -->
<g id="edge33" class="edge">
<title>node2523&#45;&gt;node2526</title>
<path fill="none" stroke="#3cb4a4" d="M519.01,-347.93C498.75,-342.37 476.28,-336.07 455.78,-330 418.31,-318.91 376.13,-305.52 344.78,-295.38"/>
<polygon fill="#3cb4a4" stroke="#3cb4a4" points="345.6,-291.97 335,-292.22 343.44,-298.63 345.6,-291.97"/>
<text text-anchor="middle" x="473.28" y="-318.8" font-family="arial" font-size="14.00" fill="#3cb4a4">guard</text>
</g>
<!-- node2626 -->
<g id="node24" class="node">
<title>node2626</title>
<polygon fill="#e98693" stroke="black" points="636.78,-297 532.78,-297 532.78,-261 636.78,-261 636.78,-297"/>
<text text-anchor="middle" x="584.78" y="-275.3" font-family="Arial" font-size="14.00" fill="#1a1919">2626 LoopEnd</text>
</g>
<!-- node2523&#45;&gt;node2626 -->
<g id="edge28" class="edge">
<title>node2523&#45;&gt;node2626</title>
<path fill="none" stroke="#da2d4f" stroke-width="2" d="M583.18,-347.8C583.45,-336.16 583.82,-320.55 584.13,-307.24"/>
<polygon fill="#da2d4f" stroke="#da2d4f" stroke-width="2" points="587.63,-307.26 584.37,-297.18 580.64,-307.09 587.63,-307.26"/>
</g>
<!-- node2524 -->
<g id="node21" class="node">
<title>node2524</title>
<polygon fill="#3cb4a4" stroke="black" points="455.78,-123 268.26,-105 455.78,-87 643.29,-105 455.78,-123"/>
<text text-anchor="middle" x="455.78" y="-101.3" font-family="Arial" font-size="14.00" fill="#1a1919">2524 IntegerSubExactOverflow</text>
</g>
<!-- node2524&#45;&gt;node2523 -->
<g id="edge27" class="edge">
<title>node2524&#45;&gt;node2523</title>
<path fill="none" stroke="#3cb4a4" d="M467.27,-122.21C470.98,-127.96 474.88,-134.59 477.78,-141 507.51,-206.89 489.08,-233.59 523.78,-297 532.45,-312.86 545.33,-328.27 556.85,-340.4"/>
<polygon fill="#3cb4a4" stroke="#3cb4a4" points="554.66,-343.17 564.16,-347.87 559.66,-338.27 554.66,-343.17"/>
<text text-anchor="middle" x="507.78" y="-231.8" font-family="arial" font-size="14.00" fill="#3cb4a4">?</text>
</g>
<!-- node2526&#45;&gt;node2841 -->
<g id="edge42" class="edge">
<title>node2526&#45;&gt;node2841</title>
<path fill="none" stroke="#3cb4a4" d="M243.86,-267.86C230.54,-262.67 217.81,-254.84 209.78,-243 205.29,-236.4 204.41,-228.1 205.12,-220.17"/>
<polygon fill="#3cb4a4" stroke="#3cb4a4" points="208.6,-220.58 206.81,-210.14 201.7,-219.42 208.6,-220.58"/>
<text text-anchor="middle" x="240.78" y="-231.8" font-family="arial" font-size="14.00" fill="#3cb4a4">from 2626</text>
</g>
<!-- node2621&#45;&gt;node2865 -->
<g id="edge34" class="edge">
<title>node2621&#45;&gt;node2865</title>
<path fill="none" stroke="#da2d4f" stroke-width="2" d="M513.39,-754.81C519.17,-746.27 526.27,-735.77 532.66,-726.32"/>
<polygon fill="#da2d4f" stroke="#da2d4f" stroke-width="2" points="535.56,-728.27 538.26,-718.03 529.76,-724.35 535.56,-728.27"/>
</g>
<!-- node2722 -->
<g id="node25" class="node">
<title>node2722</title>
<polygon fill="#e98693" stroke="black" points="595.28,-631 504.28,-631 504.28,-595 595.28,-595 595.28,-631"/>
<text text-anchor="middle" x="549.78" y="-609.3" font-family="Arial" font-size="14.00" fill="#1a1919">2722 Return</text>
</g>
<!-- node2811&#45;&gt;node809 -->
<g id="edge37" class="edge">
<title>node2811&#45;&gt;node809</title>
<path fill="none" stroke="#da2d4f" stroke-width="2" d="M290.78,-1060.81C290.78,-1052.79 290.78,-1043.05 290.78,-1034.07"/>
<polygon fill="#da2d4f" stroke="#da2d4f" stroke-width="2" points="294.28,-1034.03 290.78,-1024.03 287.28,-1034.03 294.28,-1034.03"/>
</g>
<!-- node2818&#45;&gt;node2163 -->
<g id="edge39" class="edge">
<title>node2818&#45;&gt;node2163</title>
<path fill="none" stroke="#da2d4f" stroke-width="2" d="M1130.96,-347.8C1142.68,-335.36 1158.67,-318.36 1171.71,-304.5"/>
<polygon fill="#da2d4f" stroke="#da2d4f" stroke-width="2" points="1174.31,-306.86 1178.61,-297.18 1169.21,-302.06 1174.31,-306.86"/>
</g>
<!-- node2841&#45;&gt;node988 -->
<g id="edge4" class="edge">
<title>node2841&#45;&gt;node988</title>
<path fill="none" stroke="#3cb4a4" d="M210.95,-173.8C209.71,-162.01 208.02,-146.14 206.6,-132.71"/>
<polygon fill="#3cb4a4" stroke="#3cb4a4" points="210.07,-132.17 205.53,-122.6 203.1,-132.91 210.07,-132.17"/>
<text text-anchor="middle" x="213.28" y="-144.8" font-family="arial" font-size="14.00" fill="#3cb4a4">x</text>
</g>
<!-- node2841&#45;&gt;node2524 -->
<g id="edge29" class="edge">
<title>node2841&#45;&gt;node2524</title>
<path fill="none" stroke="#3cb4a4" d="M242.09,-180.75C283.27,-166.34 358.73,-139.94 408.07,-122.69"/>
<polygon fill="#3cb4a4" stroke="#3cb4a4" points="409.28,-125.97 417.57,-119.36 406.97,-119.36 409.28,-125.97"/>
<text text-anchor="middle" x="353.28" y="-144.8" font-family="arial" font-size="14.00" fill="#3cb4a4">x</text>
</g>
<!-- node2841&#45;&gt;node2526 -->
<g id="edge31" class="edge">
<title>node2841&#45;&gt;node2526</title>
<path fill="none" stroke="#3cb4a4" d="M241.83,-204.24C253.57,-209.94 266.5,-217.83 275.78,-228 281.86,-234.68 286.46,-243.31 289.85,-251.52"/>
<polygon fill="#3cb4a4" stroke="#3cb4a4" points="286.65,-252.97 293.38,-261.16 293.22,-250.56 286.65,-252.97"/>
<text text-anchor="middle" x="289.28" y="-231.8" font-family="arial" font-size="14.00" fill="#3cb4a4">x</text>
</g>
<!-- node2849&#45;&gt;node1367 -->
<g id="edge12" class="edge">
<title>node2849&#45;&gt;node1367</title>
<path fill="none" stroke="#3cb4a4" d="M1001.68,-95.38C949.25,-79.85 839,-47.2 781.1,-30.05"/>
<polygon fill="#3cb4a4" stroke="#3cb4a4" points="781.84,-26.62 771.26,-27.14 779.85,-33.34 781.84,-26.62"/>
<text text-anchor="middle" x="907.28" y="-57.8" font-family="arial" font-size="14.00" fill="#3cb4a4">x</text>
</g>
<!-- node2849&#45;&gt;node2164 -->
<g id="edge21" class="edge">
<title>node2849&#45;&gt;node2164</title>
<path fill="none" stroke="#3cb4a4" d="M1059.87,-95.38C1107.86,-81.17 1204.29,-52.61 1264.68,-34.72"/>
<polygon fill="#3cb4a4" stroke="#3cb4a4" points="1265.82,-38.04 1274.42,-31.84 1263.84,-31.32 1265.82,-38.04"/>
<text text-anchor="middle" x="1194.28" y="-57.8" font-family="arial" font-size="14.00" fill="#3cb4a4">x</text>
</g>
<!-- node2849&#45;&gt;node2166 -->
<g id="edge23" class="edge">
<title>node2849&#45;&gt;node2166</title>
<path fill="none" stroke="#3cb4a4" d="M1043.71,-123.26C1049.27,-132.75 1053.87,-144.83 1050.78,-156 1049.77,-159.63 1048.28,-163.26 1046.54,-166.73"/>
<polygon fill="#3cb4a4" stroke="#3cb4a4" points="1043.48,-165.04 1041.56,-175.46 1049.56,-168.51 1043.48,-165.04"/>
<text text-anchor="middle" x="1054.28" y="-144.8" font-family="arial" font-size="14.00" fill="#3cb4a4">x</text>
</g>
<!-- node2865&#45;&gt;node2722 -->
<g id="edge35" class="edge">
<title>node2865&#45;&gt;node2722</title>
<path fill="none" stroke="#3cb4a4" d="M535.03,-681.88C528.67,-672.44 523.38,-660.35 526.78,-649 527.68,-645.96 528.95,-642.95 530.43,-640.03"/>
<polygon fill="#3cb4a4" stroke="#3cb4a4" points="533.59,-641.55 535.67,-631.16 527.57,-637.98 533.59,-641.55"/>
<text text-anchor="middle" x="543.78" y="-652.8" font-family="arial" font-size="14.00" fill="#3cb4a4">result</text>
</g>
<!-- node2865&#45;&gt;node2722 -->
<g id="edge47" class="edge">
<title>node2865&#45;&gt;node2722</title>
<path fill="none" stroke="#da2d4f" stroke-width="2" d="M556.72,-681.98C559.84,-672.35 562.47,-660.07 560.78,-649 560.36,-646.32 559.78,-643.56 559.11,-640.83"/>
<polygon fill="#da2d4f" stroke="#da2d4f" stroke-width="2" points="562.46,-639.83 556.32,-631.2 555.74,-641.78 562.46,-639.83"/>
</g>
<!-- node2866&#45;&gt;node528 -->
<g id="edge53" class="edge">
<title>node2866&#45;&gt;node528</title>
<path fill="none" stroke="#da2d4f" stroke-width="2" d="M624.02,-1228.86C614.75,-1218.09 602.64,-1204.02 592.31,-1192.02"/>
<polygon fill="#da2d4f" stroke="#da2d4f" stroke-width="2" points="594.68,-1189.4 585.5,-1184.11 589.37,-1193.97 594.68,-1189.4"/>
</g>
<!-- inline23x988 -->
<g id="node32" class="node">
<title>inline23x988</title>
<ellipse fill="#d7ede7" stroke="black" cx="138.78" cy="-192" rx="27" ry="18"/>
<text text-anchor="middle" x="138.78" y="-190.1" font-family="Arial" font-size="8.00" fill="#1a1919">23 C(1)</text>
</g>
<!-- inline23x988&#45;&gt;node988 -->
<g id="edge5" class="edge">
<title>inline23x988&#45;&gt;node988</title>
<path fill="none" stroke="#3cb4a4" d="M150.7,-175.41C163.01,-159.31 182.02,-134.45 193.64,-119.26"/>
<text text-anchor="middle" x="177.78" y="-146.6" font-family="arial" font-size="8.00" fill="#3cb4a4">y</text>
</g>
<!-- inline23x1367 -->
<g id="node33" class="node">
<title>inline23x1367</title>
<ellipse fill="#d7ede7" stroke="black" cx="688.78" cy="-105" rx="27" ry="18"/>
<text text-anchor="middle" x="688.78" y="-103.1" font-family="Arial" font-size="8.00" fill="#1a1919">23 C(1)</text>
</g>
<!-- inline23x1367&#45;&gt;node1367 -->
<g id="edge13" class="edge">
<title>inline23x1367&#45;&gt;node1367</title>
<path fill="none" stroke="#3cb4a4" d="M699.12,-88.01C709.33,-72.24 724.78,-48.35 734.57,-33.22"/>
<text text-anchor="middle" x="720.78" y="-59.6" font-family="arial" font-size="8.00" fill="#3cb4a4">y</text>
</g>
<!-- inline1643x1645 -->
<g id="node34" class="node">
<title>inline1643x1645</title>
<ellipse fill="#d7ede7" stroke="black" cx="1130.78" cy="-540" rx="86.57" ry="18"/>
<text text-anchor="middle" x="1130.78" y="-538.1" font-family="Arial" font-size="8.00" fill="#1a1919">1643 C(RubyBasicObject@414ae92d)</text>
</g>
<!-- inline1643x1645&#45;&gt;node1645 -->
<g id="edge18" class="edge">
<title>inline1643x1645&#45;&gt;node1645</title>
<path fill="none" stroke="#3cb4a4" d="M1127.54,-521.8C1124.71,-506.76 1120.63,-485.08 1117.85,-470.31"/>
<text text-anchor="middle" x="1124.78" y="-494.6" font-family="arial" font-size="8.00" fill="#3cb4a4">y</text>
</g>
<!-- inline23x2164 -->
<g id="node35" class="node">
<title>inline23x2164</title>
<ellipse fill="#d7ede7" stroke="black" cx="1372.78" cy="-105" rx="27" ry="18"/>
<text text-anchor="middle" x="1372.78" y="-103.1" font-family="Arial" font-size="8.00" fill="#1a1919">23 C(1)</text>
</g>
<!-- inline23x2164&#45;&gt;node2164 -->
<g id="edge22" class="edge">
<title>inline23x2164&#45;&gt;node2164</title>
<path fill="none" stroke="#3cb4a4" d="M1362.43,-88.01C1352.66,-72.91 1338.08,-50.38 1328.26,-35.21"/>
<text text-anchor="middle" x="1349.78" y="-59.6" font-family="arial" font-size="8.00" fill="#3cb4a4">y</text>
</g>
<!-- inline23x2166 -->
<g id="node36" class="node">
<title>inline23x2166</title>
<ellipse fill="#d7ede7" stroke="black" cx="1016.78" cy="-279" rx="27" ry="18"/>
<text text-anchor="middle" x="1016.78" y="-277.1" font-family="Arial" font-size="8.00" fill="#1a1919">23 C(1)</text>
</g>
<!-- inline23x2166&#45;&gt;node2166 -->
<g id="edge24" class="edge">
<title>inline23x2166&#45;&gt;node2166</title>
<path fill="none" stroke="#3cb4a4" d="M1019.41,-260.8C1021.68,-245.95 1024.94,-224.64 1027.19,-209.89"/>
<text text-anchor="middle" x="1025.78" y="-233.6" font-family="arial" font-size="8.00" fill="#3cb4a4">y</text>
</g>
<!-- inline23x2524 -->
<g id="node37" class="node">
<title>inline23x2524</title>
<ellipse fill="#d7ede7" stroke="black" cx="559.78" cy="-192" rx="27" ry="18"/>
<text text-anchor="middle" x="559.78" y="-190.1" font-family="Arial" font-size="8.00" fill="#1a1919">23 C(1)</text>
</g>
<!-- inline23x2524&#45;&gt;node2524 -->
<g id="edge30" class="edge">
<title>inline23x2524&#45;&gt;node2524</title>
<path fill="none" stroke="#3cb4a4" d="M549.25,-175.25C541.65,-164.68 530.67,-150.93 518.78,-141 509.17,-132.98 497.46,-125.89 486.75,-120.22"/>
<text text-anchor="middle" x="536.78" y="-146.6" font-family="arial" font-size="8.00" fill="#3cb4a4">y</text>
</g>
<!-- inline23x2526 -->
<g id="node38" class="node">
<title>inline23x2526</title>
<ellipse fill="#d7ede7" stroke="black" cx="297.78" cy="-366" rx="27" ry="18"/>
<text text-anchor="middle" x="297.78" y="-364.1" font-family="Arial" font-size="8.00" fill="#1a1919">23 C(1)</text>
</g>
<!-- inline23x2526&#45;&gt;node2526 -->
<g id="edge32" class="edge">
<title>inline23x2526&#45;&gt;node2526</title>
<path fill="none" stroke="#3cb4a4" d="M297.78,-347.8C297.78,-333.05 297.78,-311.92 297.78,-297.18"/>
<text text-anchor="middle" x="299.78" y="-320.6" font-family="arial" font-size="8.00" fill="#3cb4a4">y</text>
</g>
<!-- inline125x1645 -->
<g id="node39" class="node">
<title>inline125x1645</title>
<ellipse fill="#d7ede7" stroke="black" cx="998.78" cy="-540" rx="27.46" ry="18"/>
<text text-anchor="middle" x="998.78" y="-538.1" font-family="Arial" font-size="8.00" fill="#1a1919">125 T(5)</text>
</g>
<!-- inline125x1645&#45;&gt;node1645 -->
<g id="edge48" class="edge">
<title>inline125x1645&#45;&gt;node1645</title>
<path fill="none" stroke="#3cb4a4" d="M1016.39,-526.09C1038.58,-509.84 1076.4,-482.12 1098.12,-466.2"/>
<text text-anchor="middle" x="1064.78" y="-494.6" font-family="arial" font-size="8.00" fill="#3cb4a4">x</text>
</g>
<!-- inline143x603 -->
<g id="node40" class="node">
<title>inline143x603</title>
<ellipse fill="#d7ede7" stroke="black" cx="70.78" cy="-1247" rx="27.46" ry="18"/>
<text text-anchor="middle" x="70.78" y="-1245.1" font-family="Arial" font-size="8.00" fill="#1a1919">143 T(6)</text>
</g>
<!-- inline143x603&#45;&gt;node603 -->
<g id="edge49" class="edge">
<title>inline143x603&#45;&gt;node603</title>
<path fill="none" stroke="#3cb4a4" d="M70.78,-1228.86C70.78,-1215.61 70.78,-1197.35 70.78,-1184.11"/>
<text text-anchor="middle" x="80.28" y="-1204.6" font-family="arial" font-size="8.00" fill="#3cb4a4">value</text>
</g>
<!-- inline158x528 -->
<g id="node41" class="node">
<title>inline158x528</title>
<ellipse fill="#d7ede7" stroke="black" cx="536.78" cy="-1247" rx="27.46" ry="18"/>
<text text-anchor="middle" x="536.78" y="-1245.1" font-family="Arial" font-size="8.00" fill="#1a1919">158 T(7)</text>
</g>
<!-- inline158x528&#45;&gt;node528 -->
<g id="edge50" class="edge">
<title>inline158x528&#45;&gt;node528</title>
<path fill="none" stroke="#3cb4a4" d="M543.99,-1229.25C549.72,-1215.93 557.7,-1197.38 563.46,-1184"/>
<text text-anchor="middle" x="565.28" y="-1204.6" font-family="arial" font-size="8.00" fill="#3cb4a4">value</text>
</g>
<!-- inline2x2866 -->
<g id="node42" class="node">
<title>inline2x2866</title>
<ellipse fill="#d7ede7" stroke="black" cx="674.78" cy="-1328" rx="27" ry="18"/>
<text text-anchor="middle" x="674.78" y="-1326.1" font-family="Arial" font-size="8.00" fill="#1a1919">2 P(1)</text>
</g>
<!-- inline2x2866&#45;&gt;node2866 -->
<g id="edge51" class="edge">
<title>inline2x2866&#45;&gt;node2866</title>
<path fill="none" stroke="#3cb4a4" d="M667.32,-1310.63C661.26,-1297.34 652.75,-1278.67 646.6,-1265.17"/>
<text text-anchor="middle" x="668.28" y="-1285.6" font-family="arial" font-size="8.00" fill="#3cb4a4">array</text>
</g>
</g>
</svg>
