<?xml version="1.0" encoding="UTF-8" standalone="no"?>
<!DOCTYPE svg PUBLIC "-//W3C//DTD SVG 1.1//EN"
 "http://www.w3.org/Graphics/SVG/1.1/DTD/svg11.dtd">
<!-- Generated by graphviz version 2.44.1 (20200629.0846)
 -->
<!-- Title: G Pages: 1 -->
<svg width="1252pt" height="1696pt"
 viewBox="0.00 0.00 1252.23 1696.00" xmlns="http://www.w3.org/2000/svg" xmlns:xlink="http://www.w3.org/1999/xlink">
<g id="graph0" class="graph" transform="scale(1 1) rotate(0) translate(4 1692)">
<title>G</title>
<!-- node0 -->
<g id="node1" class="node">
<title>node0</title>
<polygon fill="#e98693" stroke="black" points="912.23,-1688 856.23,-1688 856.23,-1652 912.23,-1652 912.23,-1688"/>
<text text-anchor="middle" x="884.23" y="-1666.3" font-family="Arial" font-size="14.00" fill="#1a1919">0 Start</text>
</g>
<!-- node2648 -->
<g id="node40" class="node">
<title>node2648</title>
<polygon fill="#da2d4f" stroke="black" points="976.73,-1607 863.73,-1607 863.73,-1571 976.73,-1571 976.73,-1607"/>
<text text-anchor="middle" x="920.23" y="-1585.3" font-family="Arial" font-size="14.00" fill="#ffffff">2648 Load T(...)</text>
</g>
<!-- node0&#45;&gt;node2648 -->
<g id="edge66" class="edge">
<title>node0&#45;&gt;node2648</title>
<path fill="none" stroke="#da2d4f" stroke-width="2" d="M892.04,-1651.86C896.76,-1641.51 902.87,-1628.1 908.19,-1616.41"/>
<polygon fill="#da2d4f" stroke="#da2d4f" stroke-width="2" points="911.47,-1617.66 912.43,-1607.11 905.1,-1614.76 911.47,-1617.66"/>
</g>
<!-- node551 -->
<g id="node2" class="node">
<title>node551</title>
<polygon fill="#f9f9f9" stroke="black" points="1030.23,-1526 948.23,-1526 948.23,-1490 1030.23,-1490 1030.23,-1526"/>
<text text-anchor="middle" x="989.23" y="-1504.3" font-family="Arial" font-size="14.00" fill="#1a1919">551 Unbox</text>
</g>
<!-- node710 -->
<g id="node3" class="node">
<title>node710</title>
<polygon fill="#f9f9f9" stroke="black" points="1128.23,-1439 1046.23,-1439 1046.23,-1403 1128.23,-1403 1128.23,-1439"/>
<text text-anchor="middle" x="1087.23" y="-1417.3" font-family="Arial" font-size="14.00" fill="#1a1919">710 Unbox</text>
</g>
<!-- node551&#45;&gt;node710 -->
<g id="edge1" class="edge">
<title>node551&#45;&gt;node710</title>
<path fill="none" stroke="#da2d4f" stroke-width="2" d="M1009.06,-1489.8C1023.67,-1477.13 1043.72,-1459.73 1059.86,-1445.74"/>
<polygon fill="#da2d4f" stroke="#da2d4f" stroke-width="2" points="1062.16,-1448.37 1067.42,-1439.18 1057.58,-1443.08 1062.16,-1448.37"/>
</g>
<!-- node1116 -->
<g id="node9" class="node">
<title>node1116</title>
<polygon fill="#3cb4a4" stroke="black" points="890.23,-1439 830.24,-1421 890.23,-1403 950.22,-1421 890.23,-1439"/>
<text text-anchor="middle" x="890.23" y="-1417.3" font-family="Arial" font-size="14.00" fill="#1a1919">1116 ==</text>
</g>
<!-- node551&#45;&gt;node1116 -->
<g id="edge56" class="edge">
<title>node551&#45;&gt;node1116</title>
<path fill="none" stroke="#3cb4a4" d="M969.19,-1489.8C952.88,-1475.79 929.85,-1456.02 912.87,-1441.44"/>
<polygon fill="#3cb4a4" stroke="#3cb4a4" points="914.94,-1438.61 905.08,-1434.75 910.38,-1443.92 914.94,-1438.61"/>
<text text-anchor="middle" x="948.73" y="-1460.8" font-family="arial" font-size="14.00" fill="#3cb4a4">x</text>
</g>
<!-- node865 -->
<g id="node4" class="node">
<title>node865</title>
<polygon fill="#f9f9f9" stroke="black" points="1040.23,-1358 958.23,-1358 958.23,-1322 1040.23,-1322 1040.23,-1358"/>
<text text-anchor="middle" x="999.23" y="-1336.3" font-family="Arial" font-size="14.00" fill="#1a1919">865 Unbox</text>
</g>
<!-- node710&#45;&gt;node865 -->
<g id="edge2" class="edge">
<title>node710&#45;&gt;node865</title>
<path fill="none" stroke="#da2d4f" stroke-width="2" d="M1068.13,-1402.86C1055.79,-1391.78 1039.56,-1377.21 1025.95,-1364.99"/>
<polygon fill="#da2d4f" stroke="#da2d4f" stroke-width="2" points="1028.06,-1362.18 1018.28,-1358.11 1023.39,-1367.39 1028.06,-1362.18"/>
</g>
<!-- node2634 -->
<g id="node35" class="node">
<title>node2634</title>
<polygon fill="#f9f9f9" stroke="black" points="267.73,-850 72.73,-850 72.73,-814 267.73,-814 267.73,-850"/>
<text text-anchor="middle" x="170.23" y="-828.3" font-family="Arial" font-size="14.00" fill="#1a1919">2634 BoxNode$AllocatingBox</text>
</g>
<!-- node710&#45;&gt;node2634 -->
<g id="edge44" class="edge">
<title>node710&#45;&gt;node2634</title>
<path fill="none" stroke="#3cb4a4" d="M1045.98,-1405.09C1043.04,-1404.3 1040.1,-1403.59 1037.23,-1403 969.96,-1389.16 422.23,-1409.68 422.23,-1341 422.23,-1341 422.23,-1341 422.23,-904 422.23,-887.48 340.92,-866.82 270.68,-852.05"/>
<polygon fill="#3cb4a4" stroke="#3cb4a4" points="271.35,-848.62 260.85,-850.01 269.93,-855.47 271.35,-848.62"/>
<text text-anchor="middle" x="438.73" y="-1118.8" font-family="arial" font-size="14.00" fill="#3cb4a4">value</text>
</g>
<!-- node2642 -->
<g id="node38" class="node">
<title>node2642</title>
<polygon fill="#f9f9f9" stroke="black" points="1116.23,-210 1058.23,-210 1058.23,-174 1116.23,-174 1116.23,-210"/>
<text text-anchor="middle" x="1087.23" y="-188.3" font-family="Arial" font-size="14.00" fill="#1a1919">2642 ϕ</text>
</g>
<!-- node710&#45;&gt;node2642 -->
<g id="edge52" class="edge">
<title>node710&#45;&gt;node2642</title>
<path fill="none" stroke="#3cb4a4" d="M1128.34,-1404.4C1154.02,-1391.69 1182.23,-1370.92 1182.23,-1341 1182.23,-1341 1182.23,-1341 1182.23,-264 1182.23,-234.29 1152.05,-215.52 1125.71,-204.79"/>
<polygon fill="#3cb4a4" stroke="#3cb4a4" points="1126.84,-201.47 1116.25,-201.2 1124.35,-208.02 1126.84,-201.47"/>
<text text-anchor="middle" x="1213.23" y="-784.8" font-family="arial" font-size="14.00" fill="#3cb4a4">from 2405</text>
</g>
<!-- node935 -->
<g id="node5" class="node">
<title>node935</title>
<polygon fill="#ffa500" stroke="black" points="852.23,-1271 614.23,-1271 614.23,-1235 852.23,-1235 852.23,-1271"/>
<text text-anchor="middle" x="733.23" y="-1249.3" font-family="Arial" font-size="14.00" fill="#1a1919">935 Guard, else ClassCastException</text>
</g>
<!-- node865&#45;&gt;node935 -->
<g id="edge3" class="edge">
<title>node865&#45;&gt;node935</title>
<path fill="none" stroke="#da2d4f" stroke-width="2" d="M957.96,-1325.81C914.73,-1312 846.28,-1290.13 796.28,-1274.15"/>
<polygon fill="#da2d4f" stroke="#da2d4f" stroke-width="2" points="797.13,-1270.75 786.54,-1271.04 795,-1277.41 797.13,-1270.75"/>
</g>
<!-- node2620 -->
<g id="node31" class="node">
<title>node2620</title>
<polygon fill="#f9f9f9" stroke="black" points="1063.73,-850 868.73,-850 868.73,-814 1063.73,-814 1063.73,-850"/>
<text text-anchor="middle" x="966.23" y="-828.3" font-family="Arial" font-size="14.00" fill="#1a1919">2620 BoxNode$AllocatingBox</text>
</g>
<!-- node865&#45;&gt;node2620 -->
<g id="edge37" class="edge">
<title>node865&#45;&gt;node2620</title>
<path fill="none" stroke="#3cb4a4" d="M999.23,-1321.74C999.23,-1304.57 999.23,-1277.46 999.23,-1254 999.23,-1254 999.23,-1254 999.23,-904 999.23,-888.03 992.28,-871.77 984.76,-858.84"/>
<polygon fill="#3cb4a4" stroke="#3cb4a4" points="987.54,-856.69 979.27,-850.07 981.61,-860.4 987.54,-856.69"/>
<text text-anchor="middle" x="1015.73" y="-1075.3" font-family="arial" font-size="14.00" fill="#3cb4a4">value</text>
</g>
<!-- node865&#45;&gt;node2642 -->
<g id="edge53" class="edge">
<title>node865&#45;&gt;node2642</title>
<path fill="none" stroke="#3cb4a4" d="M1038.13,-1321.92C1063.61,-1307.82 1092.23,-1285.06 1092.23,-1254 1092.23,-1254 1092.23,-1254 1092.23,-264 1092.23,-249.62 1091.19,-233.63 1090.07,-220.48"/>
<polygon fill="#3cb4a4" stroke="#3cb4a4" points="1093.52,-219.83 1089.12,-210.19 1086.55,-220.47 1093.52,-219.83"/>
<text text-anchor="middle" x="1123.23" y="-741.3" font-family="arial" font-size="14.00" fill="#3cb4a4">from 2407</text>
</g>
<!-- node2586 -->
<g id="node27" class="node">
<title>node2586</title>
<polygon fill="#ffa500" stroke="black" points="858.73,-1184 607.73,-1184 607.73,-1148 858.73,-1148 858.73,-1184"/>
<text text-anchor="middle" x="733.23" y="-1162.3" font-family="Arial" font-size="14.00" fill="#1a1919">2586 Guard, else TransferToInterpreter</text>
</g>
<!-- node935&#45;&gt;node2586 -->
<g id="edge5" class="edge">
<title>node935&#45;&gt;node2586</title>
<path fill="none" stroke="#da2d4f" stroke-width="2" d="M733.23,-1234.8C733.23,-1223.16 733.23,-1207.55 733.23,-1194.24"/>
<polygon fill="#da2d4f" stroke="#da2d4f" stroke-width="2" points="736.73,-1194.18 733.23,-1184.18 729.73,-1194.18 736.73,-1194.18"/>
</g>
<!-- node936 -->
<g id="node6" class="node">
<title>node936</title>
<polygon fill="#f9f9f9" stroke="black" points="861.73,-1358 542.73,-1358 542.73,-1322 861.73,-1322 861.73,-1358"/>
<text text-anchor="middle" x="702.23" y="-1336.3" font-family="Arial" font-size="14.00" fill="#1a1919">936 InstanceOf org/truffleruby/core/proc/RubyProc</text>
</g>
<!-- node936&#45;&gt;node935 -->
<g id="edge4" class="edge">
<title>node936&#45;&gt;node935</title>
<path fill="none" stroke="#3cb4a4" d="M708.5,-1321.8C712.79,-1310.05 718.55,-1294.24 723.44,-1280.84"/>
<polygon fill="#3cb4a4" stroke="#3cb4a4" points="726.82,-1281.77 726.96,-1271.18 720.25,-1279.37 726.82,-1281.77"/>
<text text-anchor="middle" x="724.23" y="-1292.8" font-family="arial" font-size="14.00" fill="#3cb4a4">?</text>
</g>
<!-- node942 -->
<g id="node7" class="node">
<title>node942</title>
<polygon fill="#3cb4a4" stroke="black" points="524.23,-1271 453.68,-1253 524.23,-1235 594.78,-1253 524.23,-1271"/>
<text text-anchor="middle" x="524.23" y="-1249.3" font-family="Arial" font-size="14.00" fill="#1a1919">942 IsNull</text>
</g>
<!-- node942&#45;&gt;node2586 -->
<g id="edge31" class="edge">
<title>node942&#45;&gt;node2586</title>
<path fill="none" stroke="#3cb4a4" d="M550.27,-1241.41C583.06,-1228.07 640.14,-1204.86 681.84,-1187.9"/>
<polygon fill="#3cb4a4" stroke="#3cb4a4" points="683.35,-1191.06 691.29,-1184.06 680.71,-1184.58 683.35,-1191.06"/>
<text text-anchor="middle" x="646.23" y="-1205.8" font-family="arial" font-size="14.00" fill="#3cb4a4">?</text>
</g>
<!-- node1115 -->
<g id="node8" class="node">
<title>node1115</title>
<polygon fill="#e98693" stroke="black" points="808.23,-1097 752.23,-1097 752.23,-1061 808.23,-1061 808.23,-1097"/>
<text text-anchor="middle" x="780.23" y="-1075.3" font-family="Arial" font-size="14.00" fill="#1a1919">1115 If</text>
</g>
<!-- node1117 -->
<g id="node10" class="node">
<title>node1117</title>
<polygon fill="#e98693" stroke="black" points="860.73,-1010 777.73,-1010 777.73,-974 860.73,-974 860.73,-1010"/>
<text text-anchor="middle" x="819.23" y="-988.3" font-family="Arial" font-size="14.00" fill="#1a1919">1117 Begin</text>
</g>
<!-- node1115&#45;&gt;node1117 -->
<g id="edge7" class="edge">
<title>node1115&#45;&gt;node1117</title>
<path fill="none" stroke="#da2d4f" stroke-width="2" d="M788.12,-1060.8C793.56,-1048.93 800.91,-1032.93 807.09,-1019.45"/>
<polygon fill="#da2d4f" stroke="#da2d4f" stroke-width="2" points="810.36,-1020.72 811.35,-1010.18 804,-1017.8 810.36,-1020.72"/>
<text text-anchor="middle" x="806.73" y="-1031.8" font-family="arial" font-size="14.00" fill="#da2d4f">T</text>
</g>
<!-- node1118 -->
<g id="node11" class="node">
<title>node1118</title>
<polygon fill="#e98693" stroke="black" points="753.73,-1010 670.73,-1010 670.73,-974 753.73,-974 753.73,-1010"/>
<text text-anchor="middle" x="712.23" y="-988.3" font-family="Arial" font-size="14.00" fill="#1a1919">1118 Begin</text>
</g>
<!-- node1115&#45;&gt;node1118 -->
<g id="edge8" class="edge">
<title>node1115&#45;&gt;node1118</title>
<path fill="none" stroke="#da2d4f" stroke-width="2" d="M766.47,-1060.8C756.7,-1048.59 743.42,-1031.99 732.45,-1018.28"/>
<polygon fill="#da2d4f" stroke="#da2d4f" stroke-width="2" points="734.95,-1015.8 725.97,-1010.18 729.48,-1020.17 734.95,-1015.8"/>
<text text-anchor="middle" x="755.73" y="-1031.8" font-family="arial" font-size="14.00" fill="#da2d4f">F</text>
</g>
<!-- node1116&#45;&gt;node1115 -->
<g id="edge6" class="edge">
<title>node1116&#45;&gt;node1115</title>
<path fill="none" stroke="#3cb4a4" d="M890.23,-1402.74C890.23,-1386.74 890.23,-1362.26 890.23,-1341 890.23,-1341 890.23,-1341 890.23,-1165 890.23,-1127.49 849.68,-1104.2 817.82,-1091.68"/>
<polygon fill="#3cb4a4" stroke="#3cb4a4" points="818.86,-1088.33 808.27,-1088.14 816.43,-1094.9 818.86,-1088.33"/>
<text text-anchor="middle" x="894.23" y="-1249.3" font-family="arial" font-size="14.00" fill="#3cb4a4">?</text>
</g>
<!-- node2594 -->
<g id="node29" class="node">
<title>node2594</title>
<polygon fill="#ffa500" stroke="black" points="970.73,-923 719.73,-923 719.73,-887 970.73,-887 970.73,-923"/>
<text text-anchor="middle" x="845.23" y="-901.3" font-family="Arial" font-size="14.00" fill="#1a1919">2594 Guard, else TransferToInterpreter</text>
</g>
<!-- node1117&#45;&gt;node2594 -->
<g id="edge10" class="edge">
<title>node1117&#45;&gt;node2594</title>
<path fill="none" stroke="#da2d4f" stroke-width="2" d="M824.49,-973.8C828.08,-962.05 832.92,-946.24 837.02,-932.84"/>
<polygon fill="#da2d4f" stroke="#da2d4f" stroke-width="2" points="840.4,-933.76 839.97,-923.18 833.7,-931.71 840.4,-933.76"/>
</g>
<!-- node2590 -->
<g id="node28" class="node">
<title>node2590</title>
<polygon fill="#ffa500" stroke="black" points="701.73,-923 450.73,-923 450.73,-887 701.73,-887 701.73,-923"/>
<text text-anchor="middle" x="576.23" y="-901.3" font-family="Arial" font-size="14.00" fill="#1a1919">2590 Guard, else TransferToInterpreter</text>
</g>
<!-- node1118&#45;&gt;node2590 -->
<g id="edge11" class="edge">
<title>node1118&#45;&gt;node2590</title>
<path fill="none" stroke="#da2d4f" stroke-width="2" d="M684.71,-973.8C663.88,-960.78 635.08,-942.78 612.39,-928.6"/>
<polygon fill="#da2d4f" stroke="#da2d4f" stroke-width="2" points="614.04,-925.51 603.71,-923.18 610.33,-931.44 614.04,-925.51"/>
</g>
<!-- node1335 -->
<g id="node12" class="node">
<title>node1335</title>
<polygon fill="#3cb4a4" stroke="black" points="579.23,-1010 517.56,-992 579.23,-974 640.89,-992 579.23,-1010"/>
<text text-anchor="middle" x="579.23" y="-988.3" font-family="Arial" font-size="14.00" fill="#1a1919">1335 ==</text>
</g>
<!-- node1335&#45;&gt;node2590 -->
<g id="edge33" class="edge">
<title>node1335&#45;&gt;node2590</title>
<path fill="none" stroke="#3cb4a4" d="M578.62,-973.8C578.21,-962.16 577.66,-946.55 577.19,-933.24"/>
<polygon fill="#3cb4a4" stroke="#3cb4a4" points="580.68,-933.05 576.83,-923.18 573.69,-933.29 580.68,-933.05"/>
<text text-anchor="middle" x="582.23" y="-944.8" font-family="arial" font-size="14.00" fill="#3cb4a4">?</text>
</g>
<!-- node1335&#45;&gt;node2594 -->
<g id="edge35" class="edge">
<title>node1335&#45;&gt;node2594</title>
<path fill="none" stroke="#3cb4a4" d="M607.19,-982.06C648.4,-968.9 726.55,-943.92 782.05,-926.19"/>
<polygon fill="#3cb4a4" stroke="#3cb4a4" points="783.33,-929.45 791.79,-923.08 781.2,-922.79 783.33,-929.45"/>
<text text-anchor="middle" x="732.23" y="-944.8" font-family="arial" font-size="14.00" fill="#3cb4a4">?</text>
</g>
<!-- node2403 -->
<g id="node13" class="node">
<title>node2403</title>
<polygon fill="#e98693" stroke="black" points="1061.73,-283 972.73,-283 972.73,-247 1061.73,-247 1061.73,-283"/>
<text text-anchor="middle" x="1017.23" y="-261.3" font-family="Arial" font-size="14.00" fill="#1a1919">2403 Merge</text>
</g>
<!-- node2403&#45;&gt;node2642 -->
<g id="edge51" class="edge">
<title>node2403&#45;&gt;node2642</title>
<path fill="none" stroke="#343d46" stroke-dasharray="5,2" d="M1041.23,-239.65C1050.84,-229.9 1061.69,-218.9 1070.44,-210.03"/>
<polygon fill="#343d46" stroke="#343d46" points="1038.7,-237.23 1034.17,-246.81 1043.69,-242.15 1038.7,-237.23"/>
</g>
<!-- node2647 -->
<g id="node39" class="node">
<title>node2647</title>
<polygon fill="#f9f9f9" stroke="black" points="1135.73,-123 940.73,-123 940.73,-87 1135.73,-87 1135.73,-123"/>
<text text-anchor="middle" x="1038.23" y="-101.3" font-family="Arial" font-size="14.00" fill="#1a1919">2647 BoxNode$AllocatingBox</text>
</g>
<!-- node2403&#45;&gt;node2647 -->
<g id="edge15" class="edge">
<title>node2403&#45;&gt;node2647</title>
<path fill="none" stroke="#da2d4f" stroke-width="2" d="M1019.51,-246.79C1023.14,-219.48 1030.25,-165.99 1034.59,-133.38"/>
<polygon fill="#da2d4f" stroke="#da2d4f" stroke-width="2" points="1038.09,-133.56 1035.94,-123.19 1031.16,-132.64 1038.09,-133.56"/>
</g>
<!-- node2405 -->
<g id="node14" class="node">
<title>node2405</title>
<polygon fill="#e98693" stroke="black" points="367.23,-356 293.23,-356 293.23,-320 367.23,-320 367.23,-356"/>
<text text-anchor="middle" x="330.23" y="-334.3" font-family="Arial" font-size="14.00" fill="#1a1919">2405 End</text>
</g>
<!-- node2405&#45;&gt;node2403 -->
<g id="edge13" class="edge">
<title>node2405&#45;&gt;node2403</title>
<path fill="none" stroke="#da2d4f" stroke-width="2" d="M367.38,-322.31C370.35,-321.44 373.32,-320.65 376.23,-320 589.5,-272.53 851.17,-266.08 962.7,-265.67"/>
<polygon fill="#da2d4f" stroke="#da2d4f" stroke-width="2" points="962.71,-269.17 972.7,-265.65 962.69,-262.17 962.71,-269.17"/>
</g>
<!-- node2407 -->
<g id="node15" class="node">
<title>node2407</title>
<polygon fill="#e98693" stroke="black" points="1052.23,-356 978.23,-356 978.23,-320 1052.23,-320 1052.23,-356"/>
<text text-anchor="middle" x="1015.23" y="-334.3" font-family="Arial" font-size="14.00" fill="#1a1919">2407 End</text>
</g>
<!-- node2407&#45;&gt;node2403 -->
<g id="edge14" class="edge">
<title>node2407&#45;&gt;node2403</title>
<path fill="none" stroke="#da2d4f" stroke-width="2" d="M1015.71,-319.81C1015.94,-311.79 1016.21,-302.05 1016.46,-293.07"/>
<polygon fill="#da2d4f" stroke="#da2d4f" stroke-width="2" points="1019.96,-293.12 1016.75,-283.03 1012.97,-292.93 1019.96,-293.12"/>
</g>
<!-- node2492 -->
<g id="node16" class="node">
<title>node2492</title>
<polygon fill="#e98693" stroke="black" points="1083.73,-36 992.73,-36 992.73,0 1083.73,0 1083.73,-36"/>
<text text-anchor="middle" x="1038.23" y="-14.3" font-family="Arial" font-size="14.00" fill="#1a1919">2492 Return</text>
</g>
<!-- node2523 -->
<g id="node17" class="node">
<title>node2523</title>
<polygon fill="#da2d4f" stroke="black" points="475.23,-516 185.23,-516 185.23,-480 475.23,-480 475.23,-516"/>
<text text-anchor="middle" x="330.23" y="-494.3" font-family="Arial" font-size="14.00" fill="#ffffff">2523 Call OptimizedCallTarget.callBoundary !</text>
</g>
<!-- node2527 -->
<g id="node19" class="node">
<title>node2527</title>
<polygon fill="#e98693" stroke="black" points="390.73,-429 269.73,-429 269.73,-393 390.73,-393 390.73,-429"/>
<text text-anchor="middle" x="330.23" y="-407.3" font-family="Arial" font-size="14.00" fill="#1a1919">2527 KillingBegin</text>
</g>
<!-- node2523&#45;&gt;node2527 -->
<g id="edge18" class="edge">
<title>node2523&#45;&gt;node2527</title>
<path fill="none" stroke="#da2d4f" stroke-width="2" d="M330.23,-479.8C330.23,-468.16 330.23,-452.55 330.23,-439.24"/>
<polygon fill="#da2d4f" stroke="#da2d4f" stroke-width="2" points="333.73,-439.18 330.23,-429.18 326.73,-439.18 333.73,-439.18"/>
</g>
<!-- node2528 -->
<g id="node20" class="node">
<title>node2528</title>
<polygon fill="#f9f9f9" stroke="black" points="563.73,-429 414.73,-429 414.73,-393 563.73,-393 563.73,-429"/>
<text text-anchor="middle" x="489.23" y="-407.3" font-family="Arial" font-size="14.00" fill="#1a1919">2528 ExceptionObject</text>
</g>
<!-- node2523&#45;&gt;node2528 -->
<g id="edge19" class="edge">
<title>node2523&#45;&gt;node2528</title>
<path fill="none" stroke="#da2d4f" stroke-width="2" d="M362.4,-479.8C387.16,-466.56 421.55,-448.18 448.27,-433.9"/>
<polygon fill="#da2d4f" stroke="#da2d4f" stroke-width="2" points="450.2,-436.83 457.37,-429.03 446.9,-430.66 450.2,-436.83"/>
<text text-anchor="middle" x="441.73" y="-450.8" font-family="arial" font-size="14.00" fill="#da2d4f">unwind</text>
</g>
<!-- node2524 -->
<g id="node18" class="node">
<title>node2524</title>
<polygon fill="#f9f9f9" stroke="black" points="408.73,-589 251.73,-589 251.73,-553 408.73,-553 408.73,-589"/>
<text text-anchor="middle" x="330.23" y="-567.3" font-family="Arial" font-size="14.00" fill="#1a1919">2524 MethodCallTarget</text>
</g>
<!-- node2524&#45;&gt;node2523 -->
<g id="edge17" class="edge">
<title>node2524&#45;&gt;node2523</title>
<path fill="none" stroke="#343d46" stroke-dasharray="5,2" d="M330.23,-542.75C330.23,-533.77 330.23,-524.03 330.23,-516.03"/>
<polygon fill="#343d46" stroke="#343d46" points="326.73,-542.81 330.23,-552.81 333.73,-542.81 326.73,-542.81"/>
</g>
<!-- node2527&#45;&gt;node2405 -->
<g id="edge22" class="edge">
<title>node2527&#45;&gt;node2405</title>
<path fill="none" stroke="#da2d4f" stroke-width="2" d="M330.23,-392.81C330.23,-384.79 330.23,-375.05 330.23,-366.07"/>
<polygon fill="#da2d4f" stroke="#da2d4f" stroke-width="2" points="333.73,-366.03 330.23,-356.03 326.73,-366.03 333.73,-366.03"/>
</g>
<!-- node2533 -->
<g id="node21" class="node">
<title>node2533</title>
<polygon fill="#da2d4f" stroke="black" points="602.73,-356 385.73,-356 385.73,-320 602.73,-320 602.73,-356"/>
<text text-anchor="middle" x="494.23" y="-334.3" font-family="Arial" font-size="14.00" fill="#ffffff">2533 Deopt TransferToInterpreter</text>
</g>
<!-- node2528&#45;&gt;node2533 -->
<g id="edge23" class="edge">
<title>node2528&#45;&gt;node2533</title>
<path fill="none" stroke="#da2d4f" stroke-width="2" d="M490.44,-392.81C491,-384.79 491.69,-375.05 492.32,-366.07"/>
<polygon fill="#da2d4f" stroke="#da2d4f" stroke-width="2" points="495.82,-366.25 493.03,-356.03 488.83,-365.76 495.82,-366.25"/>
</g>
<!-- node2566 -->
<g id="node22" class="node">
<title>node2566</title>
<polygon fill="#da2d4f" stroke="black" points="1047.23,-516 757.23,-516 757.23,-480 1047.23,-480 1047.23,-516"/>
<text text-anchor="middle" x="902.23" y="-494.3" font-family="Arial" font-size="14.00" fill="#ffffff">2566 Call OptimizedCallTarget.callBoundary !</text>
</g>
<!-- node2570 -->
<g id="node24" class="node">
<title>node2570</title>
<polygon fill="#e98693" stroke="black" points="1063.73,-429 942.73,-429 942.73,-393 1063.73,-393 1063.73,-429"/>
<text text-anchor="middle" x="1003.23" y="-407.3" font-family="Arial" font-size="14.00" fill="#1a1919">2570 KillingBegin</text>
</g>
<!-- node2566&#45;&gt;node2570 -->
<g id="edge25" class="edge">
<title>node2566&#45;&gt;node2570</title>
<path fill="none" stroke="#da2d4f" stroke-width="2" d="M922.67,-479.8C937.72,-467.13 958.39,-449.73 975.02,-435.74"/>
<polygon fill="#da2d4f" stroke="#da2d4f" stroke-width="2" points="977.42,-438.29 982.82,-429.18 972.91,-432.94 977.42,-438.29"/>
</g>
<!-- node2571 -->
<g id="node25" class="node">
<title>node2571</title>
<polygon fill="#f9f9f9" stroke="black" points="924.73,-429 775.73,-429 775.73,-393 924.73,-393 924.73,-429"/>
<text text-anchor="middle" x="850.23" y="-407.3" font-family="Arial" font-size="14.00" fill="#1a1919">2571 ExceptionObject</text>
</g>
<!-- node2566&#45;&gt;node2571 -->
<g id="edge26" class="edge">
<title>node2566&#45;&gt;node2571</title>
<path fill="none" stroke="#da2d4f" stroke-width="2" d="M891.7,-479.8C884.37,-467.82 874.46,-451.62 866.17,-438.06"/>
<polygon fill="#da2d4f" stroke="#da2d4f" stroke-width="2" points="868.94,-435.88 860.73,-429.18 862.97,-439.53 868.94,-435.88"/>
<text text-anchor="middle" x="901.73" y="-450.8" font-family="arial" font-size="14.00" fill="#da2d4f">unwind</text>
</g>
<!-- node2567 -->
<g id="node23" class="node">
<title>node2567</title>
<polygon fill="#f9f9f9" stroke="black" points="930.73,-589 773.73,-589 773.73,-553 930.73,-553 930.73,-589"/>
<text text-anchor="middle" x="852.23" y="-567.3" font-family="Arial" font-size="14.00" fill="#1a1919">2567 MethodCallTarget</text>
</g>
<!-- node2567&#45;&gt;node2566 -->
<g id="edge24" class="edge">
<title>node2567&#45;&gt;node2566</title>
<path fill="none" stroke="#343d46" stroke-dasharray="5,2" d="M870.18,-544.5C876.85,-535.04 884.23,-524.55 890.23,-516.03"/>
<polygon fill="#343d46" stroke="#343d46" points="867.23,-542.62 864.33,-552.81 872.95,-546.65 867.23,-542.62"/>
</g>
<!-- node2570&#45;&gt;node2407 -->
<g id="edge29" class="edge">
<title>node2570&#45;&gt;node2407</title>
<path fill="none" stroke="#da2d4f" stroke-width="2" d="M1006.13,-392.81C1007.49,-384.79 1009.13,-375.05 1010.65,-366.07"/>
<polygon fill="#da2d4f" stroke="#da2d4f" stroke-width="2" points="1014.13,-366.47 1012.35,-356.03 1007.23,-365.31 1014.13,-366.47"/>
</g>
<!-- node2576 -->
<g id="node26" class="node">
<title>node2576</title>
<polygon fill="#da2d4f" stroke="black" points="958.73,-356 741.73,-356 741.73,-320 958.73,-320 958.73,-356"/>
<text text-anchor="middle" x="850.23" y="-334.3" font-family="Arial" font-size="14.00" fill="#ffffff">2576 Deopt TransferToInterpreter</text>
</g>
<!-- node2571&#45;&gt;node2576 -->
<g id="edge30" class="edge">
<title>node2571&#45;&gt;node2576</title>
<path fill="none" stroke="#da2d4f" stroke-width="2" d="M850.23,-392.81C850.23,-384.79 850.23,-375.05 850.23,-366.07"/>
<polygon fill="#da2d4f" stroke="#da2d4f" stroke-width="2" points="853.73,-366.03 850.23,-356.03 846.73,-366.03 853.73,-366.03"/>
</g>
<!-- node2586&#45;&gt;node1115 -->
<g id="edge32" class="edge">
<title>node2586&#45;&gt;node1115</title>
<path fill="none" stroke="#da2d4f" stroke-width="2" d="M742.74,-1147.8C749.36,-1135.82 758.32,-1119.62 765.82,-1106.06"/>
<polygon fill="#da2d4f" stroke="#da2d4f" stroke-width="2" points="768.95,-1107.62 770.73,-1097.18 762.83,-1104.23 768.95,-1107.62"/>
</g>
<!-- node2590&#45;&gt;node2634 -->
<g id="edge34" class="edge">
<title>node2590&#45;&gt;node2634</title>
<path fill="none" stroke="#da2d4f" stroke-width="2" d="M517.37,-886.92C492.5,-880.21 463.13,-872.95 436.23,-868 369.01,-855.64 348.92,-859.29 278.15,-850.2"/>
<polygon fill="#da2d4f" stroke="#da2d4f" stroke-width="2" points="278.19,-846.67 267.81,-848.83 277.27,-853.61 278.19,-846.67"/>
</g>
<!-- node2594&#45;&gt;node2620 -->
<g id="edge36" class="edge">
<title>node2594&#45;&gt;node2620</title>
<path fill="none" stroke="#da2d4f" stroke-width="2" d="M874.21,-886.99C890.4,-877.49 910.78,-865.54 928.24,-855.29"/>
<polygon fill="#da2d4f" stroke="#da2d4f" stroke-width="2" points="930.21,-858.19 937.06,-850.11 926.67,-852.16 930.21,-858.19"/>
</g>
<!-- node2617 -->
<g id="node30" class="node">
<title>node2617</title>
<polygon fill="#343d46" stroke="black" points="777.73,-850 540.73,-850 540.73,-814 777.73,-814 777.73,-850"/>
<text text-anchor="middle" x="659.23" y="-828.3" font-family="Arial" font-size="14.00" fill="#ffffff">2617 VirtualArray java.lang.Object[9]</text>
</g>
<!-- node2621 -->
<g id="node32" class="node">
<title>node2621</title>
<polygon fill="#da2d4f" stroke="black" points="913.73,-763 834.73,-763 834.73,-727 913.73,-727 913.73,-763"/>
<text text-anchor="middle" x="874.23" y="-741.3" font-family="Arial" font-size="14.00" fill="#ffffff">2621 Alloc</text>
</g>
<!-- node2617&#45;&gt;node2621 -->
<g id="edge39" class="edge">
<title>node2617&#45;&gt;node2621</title>
<path fill="none" stroke="#3cb4a4" d="M685.64,-813.93C702.92,-803.33 726.27,-790.06 748.23,-781 772.74,-770.88 801.12,-762.71 824.73,-756.82"/>
<polygon fill="#3cb4a4" stroke="#3cb4a4" points="825.64,-760.2 834.53,-754.43 823.99,-753.39 825.64,-760.2"/>
<text text-anchor="middle" x="789.73" y="-784.8" font-family="arial" font-size="14.00" fill="#3cb4a4">virtualObjects</text>
</g>
<!-- node2622 -->
<g id="node33" class="node">
<title>node2622</title>
<polygon fill="#343d46" stroke="black" points="731.73,-676 586.73,-676 586.73,-640 731.73,-640 731.73,-676"/>
<text text-anchor="middle" x="659.23" y="-654.3" font-family="Arial" font-size="14.00" fill="#ffffff">2622 AllocatedObject</text>
</g>
<!-- node2617&#45;&gt;node2622 -->
<g id="edge42" class="edge">
<title>node2617&#45;&gt;node2622</title>
<path fill="none" stroke="#3cb4a4" d="M659.23,-813.88C659.23,-784 659.23,-722.11 659.23,-686.27"/>
<polygon fill="#3cb4a4" stroke="#3cb4a4" points="662.73,-686.05 659.23,-676.05 655.73,-686.05 662.73,-686.05"/>
<text text-anchor="middle" x="697.23" y="-741.3" font-family="arial" font-size="14.00" fill="#3cb4a4">virtualObject</text>
</g>
<!-- node2620&#45;&gt;node2621 -->
<g id="edge38" class="edge">
<title>node2620&#45;&gt;node2621</title>
<path fill="none" stroke="#da2d4f" stroke-width="2" d="M946.12,-813.74C939.71,-808.14 932.62,-801.86 926.23,-796 917.32,-787.83 907.75,-778.72 899.27,-770.54"/>
<polygon fill="#da2d4f" stroke="#da2d4f" stroke-width="2" points="901.46,-767.78 891.84,-763.33 896.58,-772.81 901.46,-767.78"/>
</g>
<!-- node2620&#45;&gt;node2621 -->
<g id="edge40" class="edge">
<title>node2620&#45;&gt;node2621</title>
<path fill="none" stroke="#3cb4a4" d="M954.42,-813.7C947.01,-803.53 936.86,-790.79 926.23,-781 921.6,-776.74 916.42,-772.63 911.16,-768.8"/>
<polygon fill="#3cb4a4" stroke="#3cb4a4" points="913.12,-765.9 902.92,-763.05 909.12,-771.64 913.12,-765.9"/>
<text text-anchor="middle" x="959.23" y="-784.8" font-family="arial" font-size="14.00" fill="#3cb4a4">values</text>
</g>
<!-- node2621&#45;&gt;node2566 -->
<g id="edge41" class="edge">
<title>node2621&#45;&gt;node2566</title>
<path fill="none" stroke="#da2d4f" stroke-width="2" d="M910.85,-726.83C930.56,-715.44 953.06,-698.44 964.23,-676 989.91,-624.41 950.44,-559.54 923.63,-524.42"/>
<polygon fill="#da2d4f" stroke="#da2d4f" stroke-width="2" points="926.07,-521.86 917.14,-516.16 920.57,-526.19 926.07,-521.86"/>
</g>
<!-- node2621&#45;&gt;node2622 -->
<g id="edge43" class="edge">
<title>node2621&#45;&gt;node2622</title>
<path fill="none" stroke="#3cb4a4" d="M834.54,-728.31C799.98,-714.65 749.61,-694.73 711.72,-679.75"/>
<polygon fill="#3cb4a4" stroke="#3cb4a4" points="712.96,-676.48 702.37,-676.06 710.38,-682.99 712.96,-676.48"/>
<text text-anchor="middle" x="803.23" y="-697.8" font-family="arial" font-size="14.00" fill="#3cb4a4">commit</text>
</g>
<!-- node2622&#45;&gt;node2567 -->
<g id="edge28" class="edge">
<title>node2622&#45;&gt;node2567</title>
<path fill="none" stroke="#3cb4a4" d="M698.28,-639.8C728.86,-626.33 771.53,-607.54 804.2,-593.15"/>
<polygon fill="#3cb4a4" stroke="#3cb4a4" points="805.82,-596.26 813.56,-589.03 803,-589.86 805.82,-596.26"/>
<text text-anchor="middle" x="785.73" y="-610.8" font-family="arial" font-size="14.00" fill="#3cb4a4">arg[1]</text>
</g>
<!-- node2633 -->
<g id="node34" class="node">
<title>node2633</title>
<polygon fill="#343d46" stroke="black" points="522.73,-850 285.73,-850 285.73,-814 522.73,-814 522.73,-850"/>
<text text-anchor="middle" x="404.23" y="-828.3" font-family="Arial" font-size="14.00" fill="#ffffff">2633 VirtualArray java.lang.Object[9]</text>
</g>
<!-- node2635 -->
<g id="node36" class="node">
<title>node2635</title>
<polygon fill="#da2d4f" stroke="black" points="195.73,-763 116.73,-763 116.73,-727 195.73,-727 195.73,-763"/>
<text text-anchor="middle" x="156.23" y="-741.3" font-family="Arial" font-size="14.00" fill="#ffffff">2635 Alloc</text>
</g>
<!-- node2633&#45;&gt;node2635 -->
<g id="edge46" class="edge">
<title>node2633&#45;&gt;node2635</title>
<path fill="none" stroke="#3cb4a4" d="M354.34,-813.9C311.03,-799.06 248.68,-777.69 205.55,-762.9"/>
<polygon fill="#3cb4a4" stroke="#3cb4a4" points="206.43,-759.51 195.84,-759.58 204.16,-766.13 206.43,-759.51"/>
<text text-anchor="middle" x="336.73" y="-784.8" font-family="arial" font-size="14.00" fill="#3cb4a4">virtualObjects</text>
</g>
<!-- node2636 -->
<g id="node37" class="node">
<title>node2636</title>
<polygon fill="#343d46" stroke="black" points="535.73,-676 390.73,-676 390.73,-640 535.73,-640 535.73,-676"/>
<text text-anchor="middle" x="463.23" y="-654.3" font-family="Arial" font-size="14.00" fill="#ffffff">2636 AllocatedObject</text>
</g>
<!-- node2633&#45;&gt;node2636 -->
<g id="edge49" class="edge">
<title>node2633&#45;&gt;node2636</title>
<path fill="none" stroke="#3cb4a4" d="M410.1,-813.88C420.39,-783.87 441.76,-721.58 454.03,-685.81"/>
<polygon fill="#3cb4a4" stroke="#3cb4a4" points="457.44,-686.65 457.38,-676.05 450.82,-684.37 457.44,-686.65"/>
<text text-anchor="middle" x="478.23" y="-741.3" font-family="arial" font-size="14.00" fill="#3cb4a4">virtualObject</text>
</g>
<!-- node2634&#45;&gt;node2635 -->
<g id="edge45" class="edge">
<title>node2634&#45;&gt;node2635</title>
<path fill="none" stroke="#da2d4f" stroke-width="2" d="M171.83,-813.72C172.33,-804.02 172.3,-791.74 170.23,-781 169.7,-778.26 168.96,-775.47 168.09,-772.71"/>
<polygon fill="#da2d4f" stroke="#da2d4f" stroke-width="2" points="171.28,-771.24 164.55,-763.05 164.71,-773.65 171.28,-771.24"/>
</g>
<!-- node2634&#45;&gt;node2635 -->
<g id="edge47" class="edge">
<title>node2634&#45;&gt;node2635</title>
<path fill="none" stroke="#3cb4a4" d="M140.79,-813.71C134.91,-808.79 129.53,-802.86 126.23,-796 122.22,-787.7 124.86,-778.97 129.93,-771.18"/>
<polygon fill="#3cb4a4" stroke="#3cb4a4" points="132.79,-773.19 136.17,-763.15 127.27,-768.9 132.79,-773.19"/>
<text text-anchor="middle" x="146.23" y="-784.8" font-family="arial" font-size="14.00" fill="#3cb4a4">values</text>
</g>
<!-- node2635&#45;&gt;node2523 -->
<g id="edge48" class="edge">
<title>node2635&#45;&gt;node2523</title>
<path fill="none" stroke="#da2d4f" stroke-width="2" d="M152.83,-726.65C149.47,-705.34 146.39,-668.52 158.23,-640 181.47,-584.02 240.88,-543.67 283.37,-520.84"/>
<polygon fill="#da2d4f" stroke="#da2d4f" stroke-width="2" points="285.19,-523.84 292.43,-516.1 281.94,-517.64 285.19,-523.84"/>
</g>
<!-- node2635&#45;&gt;node2636 -->
<g id="edge50" class="edge">
<title>node2635&#45;&gt;node2636</title>
<path fill="none" stroke="#3cb4a4" d="M195.73,-733.06C245.13,-719.39 330.61,-695.72 391.64,-678.82"/>
<polygon fill="#3cb4a4" stroke="#3cb4a4" points="392.9,-682.1 401.6,-676.06 391.03,-675.36 392.9,-682.1"/>
<text text-anchor="middle" x="351.23" y="-697.8" font-family="arial" font-size="14.00" fill="#3cb4a4">commit</text>
</g>
<!-- node2636&#45;&gt;node2524 -->
<g id="edge21" class="edge">
<title>node2636&#45;&gt;node2524</title>
<path fill="none" stroke="#3cb4a4" d="M436.31,-639.8C415.94,-626.78 387.78,-608.78 365.59,-594.6"/>
<polygon fill="#3cb4a4" stroke="#3cb4a4" points="367.41,-591.61 357.1,-589.18 363.64,-597.51 367.41,-591.61"/>
<text text-anchor="middle" x="422.73" y="-610.8" font-family="arial" font-size="14.00" fill="#3cb4a4">arg[1]</text>
</g>
<!-- node2642&#45;&gt;node2647 -->
<g id="edge54" class="edge">
<title>node2642&#45;&gt;node2647</title>
<path fill="none" stroke="#3cb4a4" d="M1077.31,-173.8C1070.4,-161.82 1061.06,-145.62 1053.25,-132.06"/>
<polygon fill="#3cb4a4" stroke="#3cb4a4" points="1056.15,-130.09 1048.13,-123.18 1050.09,-133.59 1056.15,-130.09"/>
<text text-anchor="middle" x="1081.73" y="-144.8" font-family="arial" font-size="14.00" fill="#3cb4a4">value</text>
</g>
<!-- node2647&#45;&gt;node2492 -->
<g id="edge16" class="edge">
<title>node2647&#45;&gt;node2492</title>
<path fill="none" stroke="#3cb4a4" d="M1024.12,-86.84C1020.5,-81.46 1017.1,-75.27 1015.23,-69 1012.81,-60.93 1014.79,-52.49 1018.42,-44.89"/>
<polygon fill="#3cb4a4" stroke="#3cb4a4" points="1021.51,-46.53 1023.48,-36.12 1015.45,-43.03 1021.51,-46.53"/>
<text text-anchor="middle" x="1032.23" y="-57.8" font-family="arial" font-size="14.00" fill="#3cb4a4">result</text>
</g>
<!-- node2647&#45;&gt;node2492 -->
<g id="edge55" class="edge">
<title>node2647&#45;&gt;node2492</title>
<path fill="none" stroke="#da2d4f" stroke-width="2" d="M1044.78,-86.8C1046.59,-81.21 1048.32,-74.92 1049.23,-69 1050.39,-61.39 1049.51,-53.2 1047.83,-45.71"/>
<polygon fill="#da2d4f" stroke="#da2d4f" stroke-width="2" points="1051.2,-44.74 1045.17,-36.02 1044.45,-46.59 1051.2,-44.74"/>
</g>
<!-- node2648&#45;&gt;node551 -->
<g id="edge67" class="edge">
<title>node2648&#45;&gt;node551</title>
<path fill="none" stroke="#da2d4f" stroke-width="2" d="M935.2,-1570.86C944.69,-1559.99 957.13,-1545.75 967.68,-1533.67"/>
<polygon fill="#da2d4f" stroke="#da2d4f" stroke-width="2" points="970.34,-1535.94 974.28,-1526.11 965.07,-1531.34 970.34,-1535.94"/>
</g>
<!-- inline5x1116 -->
<g id="node41" class="node">
<title>inline5x1116</title>
<ellipse fill="#d7ede7" stroke="black" cx="890.23" cy="-1508" rx="27" ry="18"/>
<text text-anchor="middle" x="890.23" y="-1506.1" font-family="Arial" font-size="8.00" fill="#1a1919">5 C(0)</text>
</g>
<!-- inline5x1116&#45;&gt;node1116 -->
<g id="edge9" class="edge">
<title>inline5x1116&#45;&gt;node1116</title>
<path fill="none" stroke="#3cb4a4" d="M890.23,-1489.8C890.23,-1475.05 890.23,-1453.92 890.23,-1439.18"/>
<text text-anchor="middle" x="892.23" y="-1462.6" font-family="arial" font-size="8.00" fill="#3cb4a4">y</text>
</g>
<!-- inline1333x1335 -->
<g id="node42" class="node">
<title>inline1333x1335</title>
<ellipse fill="#d7ede7" stroke="black" cx="637.23" cy="-1079" rx="79.32" ry="18"/>
<text text-anchor="middle" x="637.23" y="-1077.1" font-family="Arial" font-size="8.00" fill="#1a1919">1333 C(instance:RubyBasicObject)</text>
</g>
<!-- inline1333x1335&#45;&gt;node1335 -->
<g id="edge12" class="edge">
<title>inline1333x1335&#45;&gt;node1335</title>
<path fill="none" stroke="#3cb4a4" d="M625.49,-1060.8C614.77,-1045.08 599.09,-1022.11 589.02,-1007.35"/>
<text text-anchor="middle" x="614.23" y="-1033.6" font-family="arial" font-size="8.00" fill="#3cb4a4">y</text>
</g>
<!-- inline1593x2524 -->
<g id="node43" class="node">
<title>inline1593x2524</title>
<ellipse fill="#d7ede7" stroke="black" cx="270.23" cy="-658" rx="102.84" ry="18"/>
<text text-anchor="middle" x="270.23" y="-656.1" font-family="Arial" font-size="8.00" fill="#1a1919">1593 C(instance:HotSpotOptimizedCallTarget)</text>
</g>
<!-- inline1593x2524&#45;&gt;node2524 -->
<g id="edge20" class="edge">
<title>inline1593x2524&#45;&gt;node2524</title>
<path fill="none" stroke="#3cb4a4" d="M282.37,-639.8C292.78,-625.05 307.7,-603.92 318.1,-589.18"/>
<text text-anchor="middle" x="315.23" y="-612.6" font-family="arial" font-size="8.00" fill="#3cb4a4">arg[0]</text>
</g>
<!-- inline1593x2567 -->
<g id="node44" class="node">
<title>inline1593x2567</title>
<ellipse fill="#d7ede7" stroke="black" cx="852.23" cy="-658" rx="102.84" ry="18"/>
<text text-anchor="middle" x="852.23" y="-656.1" font-family="Arial" font-size="8.00" fill="#1a1919">1593 C(instance:HotSpotOptimizedCallTarget)</text>
</g>
<!-- inline1593x2567&#45;&gt;node2567 -->
<g id="edge27" class="edge">
<title>inline1593x2567&#45;&gt;node2567</title>
<path fill="none" stroke="#3cb4a4" d="M852.23,-639.8C852.23,-625.05 852.23,-603.92 852.23,-589.18"/>
<text text-anchor="middle" x="863.23" y="-612.6" font-family="arial" font-size="8.00" fill="#3cb4a4">arg[0]</text>
</g>
<!-- inline140x1335 -->
<g id="node45" class="node">
<title>inline140x1335</title>
<ellipse fill="#d7ede7" stroke="black" cx="512.23" cy="-1079" rx="27.46" ry="18"/>
<text text-anchor="middle" x="512.23" y="-1077.1" font-family="Arial" font-size="8.00" fill="#1a1919">140 T(6)</text>
</g>
<!-- inline140x1335&#45;&gt;node1335 -->
<g id="edge57" class="edge">
<title>inline140x1335&#45;&gt;node1335</title>
<path fill="none" stroke="#3cb4a4" d="M524.21,-1062.8C536.7,-1046.95 556.13,-1022.31 568.24,-1006.94"/>
<text text-anchor="middle" x="552.23" y="-1033.6" font-family="arial" font-size="8.00" fill="#3cb4a4">x</text>
</g>
<!-- inline140x2621 -->
<g id="node46" class="node">
<title>inline140x2621</title>
<ellipse fill="#d7ede7" stroke="black" cx="823.23" cy="-832" rx="27.46" ry="18"/>
<text text-anchor="middle" x="823.23" y="-830.1" font-family="Arial" font-size="8.00" fill="#1a1919">140 T(6)</text>
</g>
<!-- inline140x2621&#45;&gt;node2621 -->
<g id="edge58" class="edge">
<title>inline140x2621&#45;&gt;node2621</title>
<path fill="none" stroke="#3cb4a4" d="M827.9,-814.06C831.1,-804.01 835.9,-791.28 842.23,-781 846.11,-774.69 851.22,-768.49 856.21,-763.1"/>
<text text-anchor="middle" x="853.73" y="-786.6" font-family="arial" font-size="8.00" fill="#3cb4a4">values</text>
</g>
<!-- inline140x2635 -->
<g id="node47" class="node">
<title>inline140x2635</title>
<ellipse fill="#d7ede7" stroke="black" cx="27.23" cy="-832" rx="27.46" ry="18"/>
<text text-anchor="middle" x="27.23" y="-830.1" font-family="Arial" font-size="8.00" fill="#1a1919">140 T(6)</text>
</g>
<!-- inline140x2635&#45;&gt;node2635 -->
<g id="edge59" class="edge">
<title>inline140x2635&#45;&gt;node2635</title>
<path fill="none" stroke="#3cb4a4" d="M44.79,-818.11C59.01,-807.8 79.67,-793.11 98.23,-781 107.48,-774.96 117.76,-768.63 127.07,-763.05"/>
<text text-anchor="middle" x="109.73" y="-786.6" font-family="arial" font-size="8.00" fill="#3cb4a4">values</text>
</g>
<!-- inline158x936 -->
<g id="node48" class="node">
<title>inline158x936</title>
<ellipse fill="#d7ede7" stroke="black" cx="388.23" cy="-1421" rx="27.46" ry="18"/>
<text text-anchor="middle" x="388.23" y="-1419.1" font-family="Arial" font-size="8.00" fill="#1a1919">158 T(7)</text>
</g>
<!-- inline158x936&#45;&gt;node936 -->
<g id="edge60" class="edge">
<title>inline158x936&#45;&gt;node936</title>
<path fill="none" stroke="#3cb4a4" d="M413.39,-1413.67C460.83,-1401.73 564.96,-1375.54 634.35,-1358.08"/>
<text text-anchor="middle" x="564.73" y="-1378.6" font-family="arial" font-size="8.00" fill="#3cb4a4">value</text>
</g>
<!-- inline158x942 -->
<g id="node49" class="node">
<title>inline158x942</title>
<ellipse fill="#d7ede7" stroke="black" cx="497.23" cy="-1340" rx="27.46" ry="18"/>
<text text-anchor="middle" x="497.23" y="-1338.1" font-family="Arial" font-size="8.00" fill="#1a1919">158 T(7)</text>
</g>
<!-- inline158x942&#45;&gt;node942 -->
<g id="edge61" class="edge">
<title>inline158x942&#45;&gt;node942</title>
<path fill="none" stroke="#3cb4a4" d="M502.56,-1322.21C507.39,-1307.01 514.44,-1284.8 519.18,-1269.9"/>
<text text-anchor="middle" x="522.73" y="-1294.6" font-family="arial" font-size="8.00" fill="#3cb4a4">value</text>
</g>
<!-- inline173x551 -->
<g id="node50" class="node">
<title>inline173x551</title>
<ellipse fill="#d7ede7" stroke="black" cx="1022.23" cy="-1589" rx="27.46" ry="18"/>
<text text-anchor="middle" x="1022.23" y="-1587.1" font-family="Arial" font-size="8.00" fill="#1a1919">173 T(8)</text>
</g>
<!-- inline173x551&#45;&gt;node551 -->
<g id="edge62" class="edge">
<title>inline173x551&#45;&gt;node551</title>
<path fill="none" stroke="#3cb4a4" d="M1015.23,-1571.25C1009.67,-1557.93 1001.92,-1539.38 996.33,-1526"/>
<text text-anchor="middle" x="1015.73" y="-1546.6" font-family="arial" font-size="8.00" fill="#3cb4a4">value</text>
</g>
<!-- inline191x710 -->
<g id="node51" class="node">
<title>inline191x710</title>
<ellipse fill="#d7ede7" stroke="black" cx="1087.23" cy="-1508" rx="27.46" ry="18"/>
<text text-anchor="middle" x="1087.23" y="-1506.1" font-family="Arial" font-size="8.00" fill="#1a1919">191 T(9)</text>
</g>
<!-- inline191x710&#45;&gt;node710 -->
<g id="edge63" class="edge">
<title>inline191x710&#45;&gt;node710</title>
<path fill="none" stroke="#3cb4a4" d="M1087.23,-1489.8C1087.23,-1475.05 1087.23,-1453.92 1087.23,-1439.18"/>
<text text-anchor="middle" x="1096.73" y="-1462.6" font-family="arial" font-size="8.00" fill="#3cb4a4">value</text>
</g>
<!-- inline209x865 -->
<g id="node52" class="node">
<title>inline209x865</title>
<ellipse fill="#d7ede7" stroke="black" cx="998.23" cy="-1421" rx="30.13" ry="18"/>
<text text-anchor="middle" x="998.23" y="-1419.1" font-family="Arial" font-size="8.00" fill="#1a1919">209 T(10)</text>
</g>
<!-- inline209x865&#45;&gt;node865 -->
<g id="edge64" class="edge">
<title>inline209x865&#45;&gt;node865</title>
<path fill="none" stroke="#3cb4a4" d="M998.44,-1402.86C998.61,-1389.61 998.84,-1371.35 999.01,-1358.11"/>
<text text-anchor="middle" x="1007.73" y="-1378.6" font-family="arial" font-size="8.00" fill="#3cb4a4">value</text>
</g>
<!-- inline2x2648 -->
<g id="node53" class="node">
<title>inline2x2648</title>
<ellipse fill="#d7ede7" stroke="black" cx="957.23" cy="-1670" rx="27" ry="18"/>
<text text-anchor="middle" x="957.23" y="-1668.1" font-family="Arial" font-size="8.00" fill="#1a1919">2 P(1)</text>
</g>
<!-- inline2x2648&#45;&gt;node2648 -->
<g id="edge65" class="edge">
<title>inline2x2648&#45;&gt;node2648</title>
<path fill="none" stroke="#3cb4a4" d="M949.56,-1652.63C943.34,-1639.34 934.59,-1620.67 928.27,-1607.17"/>
<text text-anchor="middle" x="948.73" y="-1627.6" font-family="arial" font-size="8.00" fill="#3cb4a4">array</text>
</g>
</g>
</svg>
