<?xml version="1.0" encoding="UTF-8" standalone="no"?>
<!DOCTYPE svg PUBLIC "-//W3C//DTD SVG 1.1//EN"
 "http://www.w3.org/Graphics/SVG/1.1/DTD/svg11.dtd">
<!-- Generated by graphviz version 2.44.1 (20200629.0846)
 -->
<!-- Title: G Pages: 1 -->
<svg width="1501pt" height="1222pt"
 viewBox="0.00 0.00 1500.51 1222.00" xmlns="http://www.w3.org/2000/svg" xmlns:xlink="http://www.w3.org/1999/xlink">
<g id="graph0" class="graph" transform="scale(1 1) rotate(0) translate(4 1218)">
<title>G</title>
<!-- node0 -->
<g id="node1" class="node">
<title>node0</title>
<polygon fill="#e98693" stroke="black" points="879,-1214 823,-1214 823,-1178 879,-1178 879,-1214"/>
<text text-anchor="middle" x="851" y="-1192.3" font-family="Arial" font-size="14.00" fill="#1a1919">0 Start</text>
</g>
<!-- node2215 -->
<g id="node24" class="node">
<title>node2215</title>
<polygon fill="#da2d4f" stroke="black" points="944.5,-1133 831.5,-1133 831.5,-1097 944.5,-1097 944.5,-1133"/>
<text text-anchor="middle" x="888" y="-1111.3" font-family="Arial" font-size="14.00" fill="#ffffff">2215 Load T(...)</text>
</g>
<!-- node0&#45;&gt;node2215 -->
<g id="edge40" class="edge">
<title>node0&#45;&gt;node2215</title>
<path fill="none" stroke="#da2d4f" stroke-width="2" d="M859.03,-1177.86C863.88,-1167.51 870.16,-1154.1 875.63,-1142.41"/>
<polygon fill="#da2d4f" stroke="#da2d4f" stroke-width="2" points="878.92,-1143.65 879.99,-1133.11 872.58,-1140.68 878.92,-1143.65"/>
</g>
<!-- node586 -->
<g id="node2" class="node">
<title>node586</title>
<polygon fill="#f9f9f9" stroke="black" points="955,-1052 873,-1052 873,-1016 955,-1016 955,-1052"/>
<text text-anchor="middle" x="914" y="-1030.3" font-family="Arial" font-size="14.00" fill="#1a1919">586 Unbox</text>
</g>
<!-- node1759 -->
<g id="node10" class="node">
<title>node1759</title>
<polygon fill="#3cb4a4" stroke="black" points="996,-645 941.54,-627 996,-609 1050.46,-627 996,-645"/>
<text text-anchor="middle" x="996" y="-623.3" font-family="Arial" font-size="14.00" fill="#1a1919">1759 &lt;</text>
</g>
<!-- node586&#45;&gt;node1759 -->
<g id="edge9" class="edge">
<title>node586&#45;&gt;node1759</title>
<path fill="none" stroke="#3cb4a4" d="M940.84,-1015.88C960.95,-1000.74 985,-976.65 985,-948 985,-948 985,-948 985,-699 985,-683.94 987.45,-667.3 990.03,-653.91"/>
<polygon fill="#3cb4a4" stroke="#3cb4a4" points="993.49,-654.47 992.09,-643.96 986.64,-653.05 993.49,-654.47"/>
<text text-anchor="middle" x="988.5" y="-812.8" font-family="arial" font-size="14.00" fill="#3cb4a4">y</text>
</g>
<!-- node2126 -->
<g id="node19" class="node">
<title>node2126</title>
<polygon fill="#ffa500" stroke="black" points="885.5,-965 634.5,-965 634.5,-929 885.5,-929 885.5,-965"/>
<text text-anchor="middle" x="760" y="-943.3" font-family="Arial" font-size="14.00" fill="#1a1919">2126 Guard, else TransferToInterpreter</text>
</g>
<!-- node586&#45;&gt;node2126 -->
<g id="edge1" class="edge">
<title>node586&#45;&gt;node2126</title>
<path fill="none" stroke="#da2d4f" stroke-width="2" d="M882.84,-1015.8C858.86,-1002.56 825.55,-984.18 799.67,-969.9"/>
<polygon fill="#da2d4f" stroke="#da2d4f" stroke-width="2" points="801.3,-966.8 790.85,-965.03 797.92,-972.93 801.3,-966.8"/>
</g>
<!-- node2214 -->
<g id="node23" class="node">
<title>node2214</title>
<polygon fill="#f9f9f9" stroke="black" points="1024.5,-384 829.5,-384 829.5,-348 1024.5,-348 1024.5,-384"/>
<text text-anchor="middle" x="927" y="-362.3" font-family="Arial" font-size="14.00" fill="#1a1919">2214 BoxNode$AllocatingBox</text>
</g>
<!-- node586&#45;&gt;node2214 -->
<g id="edge32" class="edge">
<title>node586&#45;&gt;node2214</title>
<path fill="none" stroke="#3cb4a4" d="M914,-1015.74C914,-998.57 914,-971.46 914,-948 914,-948 914,-948 914,-452 914,-432.53 917.37,-410.83 920.69,-394.24"/>
<polygon fill="#3cb4a4" stroke="#3cb4a4" points="924.18,-394.65 922.82,-384.14 917.33,-393.2 924.18,-394.65"/>
<text text-anchor="middle" x="930.5" y="-696.3" font-family="arial" font-size="14.00" fill="#3cb4a4">value</text>
</g>
<!-- node687 -->
<g id="node3" class="node">
<title>node687</title>
<polygon fill="#3cb4a4" stroke="black" points="760,-1052 689.45,-1034 760,-1016 830.55,-1034 760,-1052"/>
<text text-anchor="middle" x="760" y="-1030.3" font-family="Arial" font-size="14.00" fill="#1a1919">687 IsNull</text>
</g>
<!-- node687&#45;&gt;node2126 -->
<g id="edge23" class="edge">
<title>node687&#45;&gt;node2126</title>
<path fill="none" stroke="#3cb4a4" d="M760,-1015.8C760,-1004.16 760,-988.55 760,-975.24"/>
<polygon fill="#3cb4a4" stroke="#3cb4a4" points="763.5,-975.18 760,-965.18 756.5,-975.18 763.5,-975.18"/>
<text text-anchor="middle" x="764" y="-986.8" font-family="arial" font-size="14.00" fill="#3cb4a4">?</text>
</g>
<!-- node1201 -->
<g id="node4" class="node">
<title>node1201</title>
<polygon fill="#ffa500" stroke="black" points="698.5,-878 453.5,-878 453.5,-842 698.5,-842 698.5,-878"/>
<text text-anchor="middle" x="576" y="-856.3" font-family="Arial" font-size="14.00" fill="#1a1919">1201 Guard, else ClassCastException</text>
</g>
<!-- node2128 -->
<g id="node20" class="node">
<title>node2128</title>
<polygon fill="#ffa500" stroke="black" points="701.5,-791 450.5,-791 450.5,-755 701.5,-755 701.5,-791"/>
<text text-anchor="middle" x="576" y="-769.3" font-family="Arial" font-size="14.00" fill="#1a1919">2128 Guard, else TransferToInterpreter</text>
</g>
<!-- node1201&#45;&gt;node2128 -->
<g id="edge3" class="edge">
<title>node1201&#45;&gt;node2128</title>
<path fill="none" stroke="#da2d4f" stroke-width="2" d="M576,-841.8C576,-830.16 576,-814.55 576,-801.24"/>
<polygon fill="#da2d4f" stroke="#da2d4f" stroke-width="2" points="579.5,-801.18 576,-791.18 572.5,-801.18 579.5,-801.18"/>
</g>
<!-- node1202 -->
<g id="node5" class="node">
<title>node1202</title>
<polygon fill="#f9f9f9" stroke="black" points="616,-965 272,-965 272,-929 616,-929 616,-965"/>
<text text-anchor="middle" x="444" y="-943.3" font-family="Arial" font-size="14.00" fill="#1a1919">1202 InstanceOf a# org.truffleruby.core.proc.RubyProc</text>
</g>
<!-- node1202&#45;&gt;node1201 -->
<g id="edge2" class="edge">
<title>node1202&#45;&gt;node1201</title>
<path fill="none" stroke="#3cb4a4" d="M470.71,-928.8C490.93,-915.78 518.88,-897.78 540.9,-883.6"/>
<polygon fill="#3cb4a4" stroke="#3cb4a4" points="542.81,-886.53 549.33,-878.18 539.02,-880.65 542.81,-886.53"/>
<text text-anchor="middle" x="522" y="-899.8" font-family="arial" font-size="14.00" fill="#3cb4a4">?</text>
</g>
<!-- node1236 -->
<g id="node6" class="node">
<title>node1236</title>
<polygon fill="#3cb4a4" stroke="black" points="163,-878 101.33,-860 163,-842 224.67,-860 163,-878"/>
<text text-anchor="middle" x="163" y="-856.3" font-family="Arial" font-size="14.00" fill="#1a1919">1236 ==</text>
</g>
<!-- node1236&#45;&gt;node2128 -->
<g id="edge25" class="edge">
<title>node1236&#45;&gt;node2128</title>
<path fill="none" stroke="#3cb4a4" d="M197.5,-851.9C259.73,-839.09 392.68,-811.73 483.23,-793.09"/>
<polygon fill="#3cb4a4" stroke="#3cb4a4" points="484.14,-796.48 493.23,-791.03 482.73,-789.62 484.14,-796.48"/>
<text text-anchor="middle" x="399" y="-812.8" font-family="arial" font-size="14.00" fill="#3cb4a4">?</text>
</g>
<!-- node1657 -->
<g id="node7" class="node">
<title>node1657</title>
<polygon fill="#e98693" stroke="black" points="1005.5,-297 914.5,-297 914.5,-261 1005.5,-261 1005.5,-297"/>
<text text-anchor="middle" x="960" y="-275.3" font-family="Arial" font-size="14.00" fill="#1a1919">1657 Return</text>
</g>
<!-- node1733 -->
<g id="node8" class="node">
<title>node1733</title>
<polygon fill="#e98693" stroke="black" points="628,-718 554,-718 554,-682 628,-682 628,-718"/>
<text text-anchor="middle" x="591" y="-696.3" font-family="Arial" font-size="14.00" fill="#1a1919">1733 End</text>
</g>
<!-- node1734 -->
<g id="node9" class="node">
<title>node1734</title>
<polygon fill="#e98693" stroke="black" points="836.5,-645 721.5,-645 721.5,-609 836.5,-609 836.5,-645"/>
<text text-anchor="middle" x="779" y="-623.3" font-family="Arial" font-size="14.00" fill="#1a1919">1734 LoopBegin</text>
</g>
<!-- node1733&#45;&gt;node1734 -->
<g id="edge6" class="edge">
<title>node1733&#45;&gt;node1734</title>
<path fill="none" stroke="#da2d4f" stroke-width="2" d="M628.14,-684.97C655.68,-674.57 693.66,-660.23 724.61,-648.54"/>
<polygon fill="#da2d4f" stroke="#da2d4f" stroke-width="2" points="725.86,-651.81 733.98,-645 723.39,-645.26 725.86,-651.81"/>
</g>
<!-- node1764 -->
<g id="node11" class="node">
<title>node1764</title>
<polygon fill="#e98693" stroke="black" points="1024,-558 966,-558 966,-522 1024,-522 1024,-558"/>
<text text-anchor="middle" x="995" y="-536.3" font-family="Arial" font-size="14.00" fill="#1a1919">1764 If</text>
</g>
<!-- node1734&#45;&gt;node1764 -->
<g id="edge7" class="edge">
<title>node1734&#45;&gt;node1764</title>
<path fill="none" stroke="#da2d4f" stroke-width="2" d="M822.45,-608.9C861.58,-593.5 918.56,-571.08 956.19,-556.27"/>
<polygon fill="#da2d4f" stroke="#da2d4f" stroke-width="2" points="957.77,-559.41 965.79,-552.49 955.2,-552.9 957.77,-559.41"/>
</g>
<!-- node2185 -->
<g id="node22" class="node">
<title>node2185</title>
<polygon fill="#f9f9f9" stroke="black" points="1194,-123 1136,-123 1136,-87 1194,-87 1194,-123"/>
<text text-anchor="middle" x="1165" y="-101.3" font-family="Arial" font-size="14.00" fill="#1a1919">2185 ϕ</text>
</g>
<!-- node1734&#45;&gt;node2185 -->
<g id="edge29" class="edge">
<title>node1734&#45;&gt;node2185</title>
<path fill="none" stroke="#343d46" stroke-dasharray="5,2" d="M779,-598.6C779,-581.95 779,-560.25 779,-541 779,-541 779,-541 779,-191 779,-117.92 1046.22,-107.61 1135.99,-106.2"/>
<polygon fill="#343d46" stroke="#343d46" points="775.5,-598.74 779,-608.74 782.5,-598.74 775.5,-598.74"/>
</g>
<!-- node1759&#45;&gt;node1764 -->
<g id="edge10" class="edge">
<title>node1759&#45;&gt;node1764</title>
<path fill="none" stroke="#3cb4a4" d="M995.8,-608.8C995.66,-597.16 995.48,-581.55 995.32,-568.24"/>
<polygon fill="#3cb4a4" stroke="#3cb4a4" points="998.82,-568.13 995.2,-558.18 991.82,-568.22 998.82,-568.13"/>
<text text-anchor="middle" x="999" y="-579.8" font-family="arial" font-size="14.00" fill="#3cb4a4">?</text>
</g>
<!-- node1767 -->
<g id="node12" class="node">
<title>node1767</title>
<polygon fill="#e98693" stroke="black" points="1148.5,-471 1063.5,-471 1063.5,-435 1148.5,-435 1148.5,-471"/>
<text text-anchor="middle" x="1106" y="-449.3" font-family="Arial" font-size="14.00" fill="#1a1919">1767 Begin</text>
</g>
<!-- node1764&#45;&gt;node1767 -->
<g id="edge11" class="edge">
<title>node1764&#45;&gt;node1767</title>
<path fill="none" stroke="#da2d4f" stroke-width="2" d="M1017.46,-521.8C1034.16,-509.01 1057.14,-491.42 1075.5,-477.36"/>
<polygon fill="#da2d4f" stroke="#da2d4f" stroke-width="2" points="1077.76,-480.03 1083.57,-471.18 1073.5,-474.48 1077.76,-480.03"/>
<text text-anchor="middle" x="1061.5" y="-492.8" font-family="arial" font-size="14.00" fill="#da2d4f">T</text>
</g>
<!-- node1884 -->
<g id="node16" class="node">
<title>node1884</title>
<polygon fill="#e98693" stroke="black" points="1045.5,-471 942.5,-471 942.5,-435 1045.5,-435 1045.5,-471"/>
<text text-anchor="middle" x="994" y="-449.3" font-family="Arial" font-size="14.00" fill="#1a1919">1884 LoopExit</text>
</g>
<!-- node1764&#45;&gt;node1884 -->
<g id="edge12" class="edge">
<title>node1764&#45;&gt;node1884</title>
<path fill="none" stroke="#da2d4f" stroke-width="2" d="M994.8,-521.8C994.66,-510.16 994.48,-494.55 994.32,-481.24"/>
<polygon fill="#da2d4f" stroke="#da2d4f" stroke-width="2" points="997.82,-481.13 994.2,-471.18 990.82,-481.22 997.82,-481.13"/>
<text text-anchor="middle" x="998.5" y="-492.8" font-family="arial" font-size="14.00" fill="#da2d4f">F</text>
</g>
<!-- node2149 -->
<g id="node21" class="node">
<title>node2149</title>
<polygon fill="#ffa500" stroke="black" points="1293.5,-384 1042.5,-384 1042.5,-348 1293.5,-348 1293.5,-384"/>
<text text-anchor="middle" x="1168" y="-362.3" font-family="Arial" font-size="14.00" fill="#1a1919">2149 Guard, else TransferToInterpreter</text>
</g>
<!-- node1767&#45;&gt;node2149 -->
<g id="edge13" class="edge">
<title>node1767&#45;&gt;node2149</title>
<path fill="none" stroke="#da2d4f" stroke-width="2" d="M1118.55,-434.8C1127.45,-422.59 1139.56,-405.99 1149.56,-392.28"/>
<polygon fill="#da2d4f" stroke="#da2d4f" stroke-width="2" points="1152.41,-394.32 1155.47,-384.18 1146.75,-390.19 1152.41,-394.32"/>
</g>
<!-- node1860 -->
<g id="node13" class="node">
<title>node1860</title>
<polygon fill="#ffa500" stroke="black" points="1293,-297 1027,-297 1027,-261 1293,-261 1293,-297"/>
<text text-anchor="middle" x="1160" y="-275.3" font-family="Arial" font-size="14.00" fill="#1a1919">1860 Guard not, else ArithmeticException</text>
</g>
<!-- node1863 -->
<g id="node15" class="node">
<title>node1863</title>
<polygon fill="#3cb4a4" stroke="black" points="945,-210 807.25,-192 945,-174 1082.75,-192 945,-210"/>
<text text-anchor="middle" x="945" y="-188.3" font-family="Arial" font-size="14.00" fill="#1a1919">1863 IntegerAddExact</text>
</g>
<!-- node1860&#45;&gt;node1863 -->
<g id="edge20" class="edge">
<title>node1860&#45;&gt;node1863</title>
<path fill="none" stroke="#3cb4a4" d="M1116.75,-260.9C1078.93,-245.95 1024.35,-224.37 986.92,-209.57"/>
<polygon fill="#3cb4a4" stroke="#3cb4a4" points="987.91,-206.2 977.33,-205.78 985.34,-212.71 987.91,-206.2"/>
<text text-anchor="middle" x="1082.5" y="-231.8" font-family="arial" font-size="14.00" fill="#3cb4a4">guard</text>
</g>
<!-- node1886 -->
<g id="node17" class="node">
<title>node1886</title>
<polygon fill="#e98693" stroke="black" points="1205,-210 1101,-210 1101,-174 1205,-174 1205,-210"/>
<text text-anchor="middle" x="1153" y="-188.3" font-family="Arial" font-size="14.00" fill="#1a1919">1886 LoopEnd</text>
</g>
<!-- node1860&#45;&gt;node1886 -->
<g id="edge15" class="edge">
<title>node1860&#45;&gt;node1886</title>
<path fill="none" stroke="#da2d4f" stroke-width="2" d="M1158.58,-260.8C1157.63,-249.16 1156.34,-233.55 1155.24,-220.24"/>
<polygon fill="#da2d4f" stroke="#da2d4f" stroke-width="2" points="1158.72,-219.85 1154.41,-210.18 1151.75,-220.43 1158.72,-219.85"/>
</g>
<!-- node1861 -->
<g id="node14" class="node">
<title>node1861</title>
<polygon fill="#3cb4a4" stroke="black" points="1305,-36 1117.48,-18 1305,0 1492.52,-18 1305,-36"/>
<text text-anchor="middle" x="1305" y="-14.3" font-family="Arial" font-size="14.00" fill="#1a1919">1861 IntegerAddExactOverflow</text>
</g>
<!-- node1861&#45;&gt;node1860 -->
<g id="edge14" class="edge">
<title>node1861&#45;&gt;node1860</title>
<path fill="none" stroke="#3cb4a4" d="M1308.19,-35.78C1313.98,-71.28 1322.48,-155.22 1286,-210 1271.89,-231.18 1248.91,-246.3 1226.41,-256.81"/>
<polygon fill="#3cb4a4" stroke="#3cb4a4" points="1224.9,-253.66 1217.17,-260.9 1227.73,-260.06 1224.9,-253.66"/>
<text text-anchor="middle" x="1314" y="-144.8" font-family="arial" font-size="14.00" fill="#3cb4a4">?</text>
</g>
<!-- node1863&#45;&gt;node2185 -->
<g id="edge31" class="edge">
<title>node1863&#45;&gt;node2185</title>
<path fill="none" stroke="#3cb4a4" d="M953.7,-174.95C960.66,-163.66 971.49,-149.17 985,-141 1028.2,-114.87 1086.95,-107.68 1125.41,-106"/>
<polygon fill="#3cb4a4" stroke="#3cb4a4" points="1125.81,-109.48 1135.69,-105.65 1125.58,-102.49 1125.81,-109.48"/>
<text text-anchor="middle" x="1016" y="-144.8" font-family="arial" font-size="14.00" fill="#3cb4a4">from 1886</text>
</g>
<!-- node1884&#45;&gt;node2214 -->
<g id="edge21" class="edge">
<title>node1884&#45;&gt;node2214</title>
<path fill="none" stroke="#da2d4f" stroke-width="2" d="M980.44,-434.8C970.82,-422.59 957.73,-405.99 946.92,-392.28"/>
<polygon fill="#da2d4f" stroke="#da2d4f" stroke-width="2" points="949.48,-389.86 940.54,-384.18 943.98,-394.2 949.48,-389.86"/>
</g>
<!-- node1996 -->
<g id="node18" class="node">
<title>node1996</title>
<polygon fill="#3cb4a4" stroke="black" points="1228,-471 1166.33,-453 1228,-435 1289.67,-453 1228,-471"/>
<text text-anchor="middle" x="1228" y="-449.3" font-family="Arial" font-size="14.00" fill="#1a1919">1996 ==</text>
</g>
<!-- node1996&#45;&gt;node2149 -->
<g id="edge27" class="edge">
<title>node1996&#45;&gt;node2149</title>
<path fill="none" stroke="#3cb4a4" d="M1217.82,-437.58C1209.1,-425.23 1196.34,-407.14 1185.91,-392.38"/>
<polygon fill="#3cb4a4" stroke="#3cb4a4" points="1188.72,-390.28 1180.09,-384.13 1183,-394.32 1188.72,-390.28"/>
<text text-anchor="middle" x="1205" y="-405.8" font-family="arial" font-size="14.00" fill="#3cb4a4">?</text>
</g>
<!-- node2126&#45;&gt;node1201 -->
<g id="edge24" class="edge">
<title>node2126&#45;&gt;node1201</title>
<path fill="none" stroke="#da2d4f" stroke-width="2" d="M722.76,-928.8C693.74,-915.39 653.28,-896.7 622.19,-882.34"/>
<polygon fill="#da2d4f" stroke="#da2d4f" stroke-width="2" points="623.41,-879.05 612.87,-878.03 620.48,-885.4 623.41,-879.05"/>
</g>
<!-- node2128&#45;&gt;node1733 -->
<g id="edge26" class="edge">
<title>node2128&#45;&gt;node1733</title>
<path fill="none" stroke="#da2d4f" stroke-width="2" d="M579.63,-754.81C581.33,-746.79 583.38,-737.05 585.28,-728.07"/>
<polygon fill="#da2d4f" stroke="#da2d4f" stroke-width="2" points="588.76,-728.54 587.4,-718.03 581.91,-727.09 588.76,-728.54"/>
</g>
<!-- node2149&#45;&gt;node1860 -->
<g id="edge28" class="edge">
<title>node2149&#45;&gt;node1860</title>
<path fill="none" stroke="#da2d4f" stroke-width="2" d="M1166.38,-347.8C1165.29,-336.16 1163.82,-320.55 1162.56,-307.24"/>
<polygon fill="#da2d4f" stroke="#da2d4f" stroke-width="2" points="1166.04,-306.8 1161.62,-297.18 1159.07,-307.46 1166.04,-306.8"/>
</g>
<!-- node2185&#45;&gt;node1759 -->
<g id="edge8" class="edge">
<title>node2185&#45;&gt;node1759</title>
<path fill="none" stroke="#3cb4a4" d="M1194.39,-112.78C1244.95,-126.38 1343,-162.08 1343,-234.5 1343,-541 1343,-541 1343,-541 1343,-600.08 1150.83,-618.3 1052.51,-623.76"/>
<polygon fill="#3cb4a4" stroke="#3cb4a4" points="1052.24,-620.27 1042.44,-624.29 1052.61,-627.26 1052.24,-620.27"/>
<text text-anchor="middle" x="1346.5" y="-362.3" font-family="arial" font-size="14.00" fill="#3cb4a4">x</text>
</g>
<!-- node2185&#45;&gt;node1861 -->
<g id="edge16" class="edge">
<title>node2185&#45;&gt;node1861</title>
<path fill="none" stroke="#3cb4a4" d="M1193.33,-86.8C1216,-73.03 1247.84,-53.7 1271.73,-39.2"/>
<polygon fill="#3cb4a4" stroke="#3cb4a4" points="1273.72,-42.08 1280.45,-33.9 1270.09,-36.1 1273.72,-42.08"/>
<text text-anchor="middle" x="1246.5" y="-57.8" font-family="arial" font-size="14.00" fill="#3cb4a4">x</text>
</g>
<!-- node2185&#45;&gt;node1863 -->
<g id="edge18" class="edge">
<title>node2185&#45;&gt;node1863</title>
<path fill="none" stroke="#3cb4a4" d="M1135.79,-119.72C1112.95,-130.23 1080.26,-144.78 1051,-156 1032.53,-163.08 1011.93,-170.08 993.84,-175.94"/>
<polygon fill="#3cb4a4" stroke="#3cb4a4" points="992.53,-172.68 984.08,-179.07 994.67,-179.35 992.53,-172.68"/>
<text text-anchor="middle" x="1088.5" y="-144.8" font-family="arial" font-size="14.00" fill="#3cb4a4">x</text>
</g>
<!-- node2214&#45;&gt;node1657 -->
<g id="edge5" class="edge">
<title>node2214&#45;&gt;node1657</title>
<path fill="none" stroke="#3cb4a4" d="M933.68,-347.8C938.24,-336.05 944.38,-320.24 949.58,-306.84"/>
<polygon fill="#3cb4a4" stroke="#3cb4a4" points="952.98,-307.76 953.33,-297.18 946.45,-305.23 952.98,-307.76"/>
<text text-anchor="middle" x="962" y="-318.8" font-family="arial" font-size="14.00" fill="#3cb4a4">result</text>
</g>
<!-- node2214&#45;&gt;node1657 -->
<g id="edge33" class="edge">
<title>node2214&#45;&gt;node1657</title>
<path fill="none" stroke="#da2d4f" stroke-width="2" d="M930.86,-347.56C933.27,-337.8 936.73,-325.53 941,-315 942.18,-312.08 943.55,-309.1 944.99,-306.16"/>
<polygon fill="#da2d4f" stroke="#da2d4f" stroke-width="2" points="948.21,-307.56 949.74,-297.07 942,-304.31 948.21,-307.56"/>
</g>
<!-- node2215&#45;&gt;node586 -->
<g id="edge41" class="edge">
<title>node2215&#45;&gt;node586</title>
<path fill="none" stroke="#da2d4f" stroke-width="2" d="M893.64,-1096.86C897.01,-1086.61 901.37,-1073.37 905.19,-1061.76"/>
<polygon fill="#da2d4f" stroke="#da2d4f" stroke-width="2" points="908.57,-1062.7 908.37,-1052.11 901.92,-1060.51 908.57,-1062.7"/>
</g>
<!-- inline1235x1236 -->
<g id="node25" class="node">
<title>inline1235x1236</title>
<ellipse fill="#d7ede7" stroke="black" cx="163" cy="-947" rx="91.15" ry="18"/>
<text text-anchor="middle" x="163" y="-945.1" font-family="Arial" font-size="8.00" fill="#1a1919">1235 C(DeclarationContext@1718e91b)</text>
</g>
<!-- inline1235x1236&#45;&gt;node1236 -->
<g id="edge4" class="edge">
<title>inline1235x1236&#45;&gt;node1236</title>
<path fill="none" stroke="#3cb4a4" d="M163,-928.8C163,-914.05 163,-892.92 163,-878.18"/>
<text text-anchor="middle" x="165" y="-901.6" font-family="arial" font-size="8.00" fill="#3cb4a4">y</text>
</g>
<!-- inline23x1861 -->
<g id="node26" class="node">
<title>inline23x1861</title>
<ellipse fill="#d7ede7" stroke="black" cx="1360" cy="-105" rx="27" ry="18"/>
<text text-anchor="middle" x="1360" y="-103.1" font-family="Arial" font-size="8.00" fill="#1a1919">23 C(1)</text>
</g>
<!-- inline23x1861&#45;&gt;node1861 -->
<g id="edge17" class="edge">
<title>inline23x1861&#45;&gt;node1861</title>
<path fill="none" stroke="#3cb4a4" d="M1349.65,-88.01C1339.88,-72.91 1325.3,-50.38 1315.49,-35.21"/>
<text text-anchor="middle" x="1337" y="-59.6" font-family="arial" font-size="8.00" fill="#3cb4a4">y</text>
</g>
<!-- inline23x1863 -->
<g id="node27" class="node">
<title>inline23x1863</title>
<ellipse fill="#d7ede7" stroke="black" cx="869" cy="-279" rx="27" ry="18"/>
<text text-anchor="middle" x="869" y="-277.1" font-family="Arial" font-size="8.00" fill="#1a1919">23 C(1)</text>
</g>
<!-- inline23x1863&#45;&gt;node1863 -->
<g id="edge19" class="edge">
<title>inline23x1863&#45;&gt;node1863</title>
<path fill="none" stroke="#3cb4a4" d="M882.24,-263.19C895.93,-247.88 917.23,-224.06 931.14,-208.5"/>
<text text-anchor="middle" x="914" y="-233.6" font-family="arial" font-size="8.00" fill="#3cb4a4">y</text>
</g>
<!-- inline1994x1996 -->
<g id="node28" class="node">
<title>inline1994x1996</title>
<ellipse fill="#d7ede7" stroke="black" cx="1228" cy="-540" rx="86.57" ry="18"/>
<text text-anchor="middle" x="1228" y="-538.1" font-family="Arial" font-size="8.00" fill="#1a1919">1994 C(RubyBasicObject@414ae92d)</text>
</g>
<!-- inline1994x1996&#45;&gt;node1996 -->
<g id="edge22" class="edge">
<title>inline1994x1996&#45;&gt;node1996</title>
<path fill="none" stroke="#3cb4a4" d="M1228,-521.8C1228,-507.05 1228,-485.92 1228,-471.18"/>
<text text-anchor="middle" x="1230" y="-494.6" font-family="arial" font-size="8.00" fill="#3cb4a4">y</text>
</g>
<!-- inline5x2185 -->
<g id="node29" class="node">
<title>inline5x2185</title>
<ellipse fill="#d7ede7" stroke="black" cx="1250" cy="-192" rx="27" ry="18"/>
<text text-anchor="middle" x="1250" y="-190.1" font-family="Arial" font-size="8.00" fill="#1a1919">5 C(0)</text>
</g>
<!-- inline5x2185&#45;&gt;node2185 -->
<g id="edge30" class="edge">
<title>inline5x2185&#45;&gt;node2185</title>
<path fill="none" stroke="#3cb4a4" d="M1235.58,-176.58C1220.8,-161.8 1197.83,-138.83 1182.13,-123.13"/>
<text text-anchor="middle" x="1230.5" y="-146.6" font-family="arial" font-size="8.00" fill="#3cb4a4">from 1733</text>
</g>
<!-- inline92x1236 -->
<g id="node30" class="node">
<title>inline92x1236</title>
<ellipse fill="#d7ede7" stroke="black" cx="27" cy="-947" rx="27" ry="18"/>
<text text-anchor="middle" x="27" y="-945.1" font-family="Arial" font-size="8.00" fill="#1a1919">92 T(3)</text>
</g>
<!-- inline92x1236&#45;&gt;node1236 -->
<g id="edge34" class="edge">
<title>inline92x1236&#45;&gt;node1236</title>
<path fill="none" stroke="#3cb4a4" d="M46.2,-934C72.26,-917.71 118.55,-888.78 144.34,-872.66"/>
<text text-anchor="middle" x="106" y="-901.6" font-family="arial" font-size="8.00" fill="#3cb4a4">x</text>
</g>
<!-- inline125x1996 -->
<g id="node31" class="node">
<title>inline125x1996</title>
<ellipse fill="#d7ede7" stroke="black" cx="1096" cy="-540" rx="27.46" ry="18"/>
<text text-anchor="middle" x="1096" y="-538.1" font-family="Arial" font-size="8.00" fill="#1a1919">125 T(5)</text>
</g>
<!-- inline125x1996&#45;&gt;node1996 -->
<g id="edge35" class="edge">
<title>inline125x1996&#45;&gt;node1996</title>
<path fill="none" stroke="#3cb4a4" d="M1114.91,-526.82C1140.15,-510.57 1184.55,-481.98 1209.55,-465.88"/>
<text text-anchor="middle" x="1171" y="-494.6" font-family="arial" font-size="8.00" fill="#3cb4a4">x</text>
</g>
<!-- inline143x687 -->
<g id="node32" class="node">
<title>inline143x687</title>
<ellipse fill="#d7ede7" stroke="black" cx="760" cy="-1115" rx="27.46" ry="18"/>
<text text-anchor="middle" x="760" y="-1113.1" font-family="Arial" font-size="8.00" fill="#1a1919">143 T(6)</text>
</g>
<!-- inline143x687&#45;&gt;node687 -->
<g id="edge36" class="edge">
<title>inline143x687&#45;&gt;node687</title>
<path fill="none" stroke="#3cb4a4" d="M760,-1096.86C760,-1083.61 760,-1065.35 760,-1052.11"/>
<text text-anchor="middle" x="769.5" y="-1072.6" font-family="arial" font-size="8.00" fill="#3cb4a4">value</text>
</g>
<!-- inline143x1202 -->
<g id="node33" class="node">
<title>inline143x1202</title>
<ellipse fill="#d7ede7" stroke="black" cx="444" cy="-1034" rx="27.46" ry="18"/>
<text text-anchor="middle" x="444" y="-1032.1" font-family="Arial" font-size="8.00" fill="#1a1919">143 T(6)</text>
</g>
<!-- inline143x1202&#45;&gt;node1202 -->
<g id="edge37" class="edge">
<title>inline143x1202&#45;&gt;node1202</title>
<path fill="none" stroke="#3cb4a4" d="M444,-1015.8C444,-1001.05 444,-979.92 444,-965.18"/>
<text text-anchor="middle" x="453.5" y="-988.6" font-family="arial" font-size="8.00" fill="#3cb4a4">value</text>
</g>
<!-- inline158x586 -->
<g id="node34" class="node">
<title>inline158x586</title>
<ellipse fill="#d7ede7" stroke="black" cx="990" cy="-1115" rx="27.46" ry="18"/>
<text text-anchor="middle" x="990" y="-1113.1" font-family="Arial" font-size="8.00" fill="#1a1919">158 T(7)</text>
</g>
<!-- inline158x586&#45;&gt;node586 -->
<g id="edge38" class="edge">
<title>inline158x586&#45;&gt;node586</title>
<path fill="none" stroke="#3cb4a4" d="M976.06,-1099.51C963.2,-1086.15 944.11,-1066.3 930.5,-1052.15"/>
<text text-anchor="middle" x="963.5" y="-1072.6" font-family="arial" font-size="8.00" fill="#3cb4a4">value</text>
</g>
<!-- inline2x2215 -->
<g id="node35" class="node">
<title>inline2x2215</title>
<ellipse fill="#d7ede7" stroke="black" cx="924" cy="-1196" rx="27" ry="18"/>
<text text-anchor="middle" x="924" y="-1194.1" font-family="Arial" font-size="8.00" fill="#1a1919">2 P(1)</text>
</g>
<!-- inline2x2215&#45;&gt;node2215 -->
<g id="edge39" class="edge">
<title>inline2x2215&#45;&gt;node2215</title>
<path fill="none" stroke="#3cb4a4" d="M916.54,-1178.63C910.49,-1165.34 901.97,-1146.67 895.82,-1133.17"/>
<text text-anchor="middle" x="917.5" y="-1153.6" font-family="arial" font-size="8.00" fill="#3cb4a4">array</text>
</g>
</g>
</svg>
