<?xml version="1.0" encoding="UTF-8" standalone="no"?>
<!DOCTYPE svg PUBLIC "-//W3C//DTD SVG 1.1//EN"
 "http://www.w3.org/Graphics/SVG/1.1/DTD/svg11.dtd">
<!-- Generated by graphviz version 2.44.1 (20200629.0846)
 -->
<!-- Title: G Pages: 1 -->
<svg width="1048pt" height="1941pt"
 viewBox="0.00 0.00 1047.50 1941.00" xmlns="http://www.w3.org/2000/svg" xmlns:xlink="http://www.w3.org/1999/xlink">
<g id="graph0" class="graph" transform="scale(1 1) rotate(0) translate(4 1937)">
<title>G</title>
<!-- node0 -->
<g id="node1" class="node">
<title>node0</title>
<polygon fill="#e98693" stroke="black" points="128,-1765 72,-1765 72,-1729 128,-1729 128,-1765"/>
<text text-anchor="middle" x="100" y="-1743.3" font-family="Arial" font-size="14.00" fill="#1a1919">0 Start</text>
</g>
<!-- node43 -->
<g id="node4" class="node">
<title>node43</title>
<polygon fill="#da2d4f" stroke="black" points="154.5,-1678 41.5,-1678 41.5,-1642 154.5,-1642 154.5,-1678"/>
<text text-anchor="middle" x="98" y="-1656.3" font-family="Arial" font-size="14.00" fill="#ffffff">43 LoadIndexed</text>
</g>
<!-- node0&#45;&gt;node43 -->
<g id="edge1" class="edge">
<title>node0&#45;&gt;node43</title>
<path fill="none" stroke="#da2d4f" stroke-width="2" d="M99.6,-1728.8C99.32,-1717.16 98.95,-1701.55 98.64,-1688.24"/>
<polygon fill="#da2d4f" stroke="#da2d4f" stroke-width="2" points="102.14,-1688.09 98.4,-1678.18 95.14,-1688.26 102.14,-1688.09"/>
</g>
<!-- node31 -->
<g id="node2" class="node">
<title>node31</title>
<polygon fill="#f9f9f9" stroke="black" points="540,-1852 460,-1852 460,-1816 540,-1816 540,-1852"/>
<text text-anchor="middle" x="500" y="-1830.3" font-family="Arial" font-size="14.00" fill="#1a1919">31 PiArray</text>
</g>
<!-- node33 -->
<g id="node3" class="node">
<title>node33</title>
<polygon fill="#f9f9f9" stroke="black" points="527,-1765 473,-1765 473,-1729 527,-1729 527,-1765"/>
<text text-anchor="middle" x="500" y="-1743.3" font-family="Arial" font-size="14.00" fill="#1a1919">33 π</text>
</g>
<!-- node31&#45;&gt;node33 -->
<g id="edge4" class="edge">
<title>node31&#45;&gt;node33</title>
<path fill="none" stroke="#3cb4a4" d="M500,-1815.8C500,-1804.16 500,-1788.55 500,-1775.24"/>
<polygon fill="#3cb4a4" stroke="#3cb4a4" points="503.5,-1775.18 500,-1765.18 496.5,-1775.18 503.5,-1775.18"/>
<text text-anchor="middle" x="518.5" y="-1786.8" font-family="arial" font-size="14.00" fill="#3cb4a4">object</text>
</g>
<!-- node33&#45;&gt;node43 -->
<g id="edge5" class="edge">
<title>node33&#45;&gt;node43</title>
<path fill="none" stroke="#3cb4a4" d="M472.95,-1746.07C399.12,-1745.84 195.82,-1742.3 138,-1711 127.78,-1705.47 119.23,-1696.11 112.7,-1686.98"/>
<polygon fill="#3cb4a4" stroke="#3cb4a4" points="115.49,-1684.85 107.06,-1678.42 109.64,-1688.7 115.49,-1684.85"/>
<text text-anchor="middle" x="153.5" y="-1699.8" font-family="arial" font-size="14.00" fill="#3cb4a4">array</text>
</g>
<!-- node59 -->
<g id="node5" class="node">
<title>node59</title>
<polygon fill="#da2d4f" stroke="black" points="324.5,-1591 211.5,-1591 211.5,-1555 324.5,-1555 324.5,-1591"/>
<text text-anchor="middle" x="268" y="-1569.3" font-family="Arial" font-size="14.00" fill="#ffffff">59 LoadIndexed</text>
</g>
<!-- node33&#45;&gt;node59 -->
<g id="edge8" class="edge">
<title>node33&#45;&gt;node59</title>
<path fill="none" stroke="#3cb4a4" d="M472.6,-1738.29C454.3,-1732.42 430.16,-1723.26 411,-1711 361.77,-1679.49 314.86,-1629.41 288.9,-1599.32"/>
<polygon fill="#3cb4a4" stroke="#3cb4a4" points="291.3,-1596.74 282.15,-1591.4 285.97,-1601.28 291.3,-1596.74"/>
<text text-anchor="middle" x="380.5" y="-1656.3" font-family="arial" font-size="14.00" fill="#3cb4a4">array</text>
</g>
<!-- node74 -->
<g id="node6" class="node">
<title>node74</title>
<polygon fill="#da2d4f" stroke="black" points="370.5,-1504 257.5,-1504 257.5,-1468 370.5,-1468 370.5,-1504"/>
<text text-anchor="middle" x="314" y="-1482.3" font-family="Arial" font-size="14.00" fill="#ffffff">74 LoadIndexed</text>
</g>
<!-- node33&#45;&gt;node74 -->
<g id="edge11" class="edge">
<title>node33&#45;&gt;node74</title>
<path fill="none" stroke="#3cb4a4" d="M474.17,-1728.78C467.9,-1723.64 461.66,-1717.6 457,-1711 433.32,-1677.47 438.61,-1663.06 426,-1624 416.19,-1593.61 423.2,-1581.9 406,-1555 393.95,-1536.16 374.71,-1520.74 356.93,-1509.38"/>
<polygon fill="#3cb4a4" stroke="#3cb4a4" points="358.71,-1506.36 348.36,-1504.13 355.06,-1512.33 358.71,-1506.36"/>
<text text-anchor="middle" x="441.5" y="-1612.8" font-family="arial" font-size="14.00" fill="#3cb4a4">array</text>
</g>
<!-- node89 -->
<g id="node7" class="node">
<title>node89</title>
<polygon fill="#da2d4f" stroke="black" points="424.5,-1417 311.5,-1417 311.5,-1381 424.5,-1381 424.5,-1417"/>
<text text-anchor="middle" x="368" y="-1395.3" font-family="Arial" font-size="14.00" fill="#ffffff">89 LoadIndexed</text>
</g>
<!-- node33&#45;&gt;node89 -->
<g id="edge14" class="edge">
<title>node33&#45;&gt;node89</title>
<path fill="none" stroke="#3cb4a4" d="M490.5,-1729C482.05,-1712.24 471,-1685.64 471,-1661 471,-1661 471,-1661 471,-1485 471,-1456.5 447.26,-1435.78 422.57,-1421.93"/>
<polygon fill="#3cb4a4" stroke="#3cb4a4" points="423.96,-1418.7 413.48,-1417.14 420.69,-1424.89 423.96,-1418.7"/>
<text text-anchor="middle" x="486.5" y="-1569.3" font-family="arial" font-size="14.00" fill="#3cb4a4">array</text>
</g>
<!-- node107 -->
<g id="node8" class="node">
<title>node107</title>
<polygon fill="#da2d4f" stroke="black" points="470.5,-1330 349.5,-1330 349.5,-1294 470.5,-1294 470.5,-1330"/>
<text text-anchor="middle" x="410" y="-1308.3" font-family="Arial" font-size="14.00" fill="#ffffff">107 LoadIndexed</text>
</g>
<!-- node33&#45;&gt;node107 -->
<g id="edge17" class="edge">
<title>node33&#45;&gt;node107</title>
<path fill="none" stroke="#3cb4a4" d="M502.33,-1728.82C510.66,-1665.2 536.9,-1443.45 507,-1381 497.5,-1361.15 478.99,-1346.02 460.67,-1335.12"/>
<polygon fill="#3cb4a4" stroke="#3cb4a4" points="462.17,-1331.95 451.74,-1330.11 458.75,-1338.06 462.17,-1331.95"/>
<text text-anchor="middle" x="535.5" y="-1525.8" font-family="arial" font-size="14.00" fill="#3cb4a4">array</text>
</g>
<!-- node125 -->
<g id="node9" class="node">
<title>node125</title>
<polygon fill="#da2d4f" stroke="black" points="527.5,-1249 406.5,-1249 406.5,-1213 527.5,-1213 527.5,-1249"/>
<text text-anchor="middle" x="467" y="-1227.3" font-family="Arial" font-size="14.00" fill="#ffffff">125 LoadIndexed</text>
</g>
<!-- node33&#45;&gt;node125 -->
<g id="edge20" class="edge">
<title>node33&#45;&gt;node125</title>
<path fill="none" stroke="#3cb4a4" d="M527.22,-1728.97C547.61,-1713.88 572,-1689.82 572,-1661 572,-1661 572,-1661 572,-1311 572,-1284.7 550.71,-1266.07 527.3,-1253.53"/>
<polygon fill="#3cb4a4" stroke="#3cb4a4" points="528.78,-1250.36 518.27,-1249.02 525.65,-1256.62 528.78,-1250.36"/>
<text text-anchor="middle" x="587.5" y="-1482.3" font-family="arial" font-size="14.00" fill="#3cb4a4">array</text>
</g>
<!-- node140 -->
<g id="node10" class="node">
<title>node140</title>
<polygon fill="#da2d4f" stroke="black" points="527.5,-1168 406.5,-1168 406.5,-1132 527.5,-1132 527.5,-1168"/>
<text text-anchor="middle" x="467" y="-1146.3" font-family="Arial" font-size="14.00" fill="#ffffff">140 LoadIndexed</text>
</g>
<!-- node33&#45;&gt;node140 -->
<g id="edge23" class="edge">
<title>node33&#45;&gt;node140</title>
<path fill="none" stroke="#3cb4a4" d="M527.14,-1741.02C565.51,-1732.24 631,-1710.07 631,-1661 631,-1661 631,-1661 631,-1230 631,-1207.84 581.8,-1186.26 537.3,-1171.27"/>
<polygon fill="#3cb4a4" stroke="#3cb4a4" points="538.19,-1167.88 527.6,-1168.08 536.01,-1174.53 538.19,-1167.88"/>
<text text-anchor="middle" x="646.5" y="-1438.8" font-family="arial" font-size="14.00" fill="#3cb4a4">array</text>
</g>
<!-- node158 -->
<g id="node11" class="node">
<title>node158</title>
<polygon fill="#da2d4f" stroke="black" points="522.5,-1087 401.5,-1087 401.5,-1051 522.5,-1051 522.5,-1087"/>
<text text-anchor="middle" x="462" y="-1065.3" font-family="Arial" font-size="14.00" fill="#ffffff">158 LoadIndexed</text>
</g>
<!-- node33&#45;&gt;node158 -->
<g id="edge26" class="edge">
<title>node33&#45;&gt;node158</title>
<path fill="none" stroke="#3cb4a4" d="M472.97,-1744.55C396.31,-1739.7 183,-1720.83 183,-1661 183,-1661 183,-1661 183,-1149 183,-1105.75 308.7,-1084.97 391.36,-1075.98"/>
<polygon fill="#3cb4a4" stroke="#3cb4a4" points="391.88,-1079.44 401.46,-1074.91 391.15,-1072.48 391.88,-1079.44"/>
<text text-anchor="middle" x="198.5" y="-1395.3" font-family="arial" font-size="14.00" fill="#3cb4a4">array</text>
</g>
<!-- node173 -->
<g id="node12" class="node">
<title>node173</title>
<polygon fill="#da2d4f" stroke="black" points="826.5,-1000 705.5,-1000 705.5,-964 826.5,-964 826.5,-1000"/>
<text text-anchor="middle" x="766" y="-978.3" font-family="Arial" font-size="14.00" fill="#ffffff">173 LoadIndexed</text>
</g>
<!-- node33&#45;&gt;node173 -->
<g id="edge29" class="edge">
<title>node33&#45;&gt;node173</title>
<path fill="none" stroke="#3cb4a4" d="M527.15,-1746.4C565.93,-1745.82 638.32,-1740.44 691,-1711 717.1,-1696.42 736,-1690.9 736,-1661 736,-1661 736,-1661 736,-1068 736,-1047.46 743.88,-1025.64 751.57,-1009.25"/>
<polygon fill="#3cb4a4" stroke="#3cb4a4" points="754.71,-1010.8 756.01,-1000.28 748.44,-1007.69 754.71,-1010.8"/>
<text text-anchor="middle" x="751.5" y="-1351.8" font-family="arial" font-size="14.00" fill="#3cb4a4">array</text>
</g>
<!-- node191 -->
<g id="node14" class="node">
<title>node191</title>
<polygon fill="#da2d4f" stroke="black" points="737.5,-892 616.5,-892 616.5,-856 737.5,-856 737.5,-892"/>
<text text-anchor="middle" x="677" y="-870.3" font-family="Arial" font-size="14.00" fill="#ffffff">191 LoadIndexed</text>
</g>
<!-- node33&#45;&gt;node191 -->
<g id="edge33" class="edge">
<title>node33&#45;&gt;node191</title>
<path fill="none" stroke="#3cb4a4" d="M527.27,-1745.02C576.92,-1741.62 677,-1726.62 677,-1661 677,-1661 677,-1661 677,-981 677,-954.24 677,-923.67 677,-902.26"/>
<polygon fill="#3cb4a4" stroke="#3cb4a4" points="680.5,-902.26 677,-892.26 673.5,-902.26 680.5,-902.26"/>
<text text-anchor="middle" x="692.5" y="-1308.3" font-family="arial" font-size="14.00" fill="#3cb4a4">array</text>
</g>
<!-- node43&#45;&gt;node59 -->
<g id="edge7" class="edge">
<title>node43&#45;&gt;node59</title>
<path fill="none" stroke="#da2d4f" stroke-width="2" d="M132.4,-1641.8C159.1,-1628.45 196.28,-1609.86 224.95,-1595.52"/>
<polygon fill="#da2d4f" stroke="#da2d4f" stroke-width="2" points="226.56,-1598.63 233.94,-1591.03 223.43,-1592.37 226.56,-1598.63"/>
</g>
<!-- node59&#45;&gt;node74 -->
<g id="edge10" class="edge">
<title>node59&#45;&gt;node74</title>
<path fill="none" stroke="#da2d4f" stroke-width="2" d="M277.31,-1554.8C283.79,-1542.82 292.56,-1526.62 299.9,-1513.06"/>
<polygon fill="#da2d4f" stroke="#da2d4f" stroke-width="2" points="303.02,-1514.64 304.71,-1504.18 296.87,-1511.3 303.02,-1514.64"/>
</g>
<!-- node74&#45;&gt;node89 -->
<g id="edge13" class="edge">
<title>node74&#45;&gt;node89</title>
<path fill="none" stroke="#da2d4f" stroke-width="2" d="M324.93,-1467.8C332.61,-1455.7 343.03,-1439.3 351.69,-1425.67"/>
<polygon fill="#da2d4f" stroke="#da2d4f" stroke-width="2" points="354.68,-1427.49 357.09,-1417.18 348.77,-1423.74 354.68,-1427.49"/>
</g>
<!-- node89&#45;&gt;node107 -->
<g id="edge16" class="edge">
<title>node89&#45;&gt;node107</title>
<path fill="none" stroke="#da2d4f" stroke-width="2" d="M376.5,-1380.8C382.36,-1368.93 390.27,-1352.93 396.93,-1339.45"/>
<polygon fill="#da2d4f" stroke="#da2d4f" stroke-width="2" points="400.22,-1340.69 401.51,-1330.18 393.95,-1337.59 400.22,-1340.69"/>
</g>
<!-- node107&#45;&gt;node125 -->
<g id="edge19" class="edge">
<title>node107&#45;&gt;node125</title>
<path fill="none" stroke="#da2d4f" stroke-width="2" d="M422.37,-1293.86C430.06,-1283.2 440.09,-1269.29 448.7,-1257.37"/>
<polygon fill="#da2d4f" stroke="#da2d4f" stroke-width="2" points="451.64,-1259.27 454.66,-1249.11 445.97,-1255.17 451.64,-1259.27"/>
</g>
<!-- node125&#45;&gt;node140 -->
<g id="edge22" class="edge">
<title>node125&#45;&gt;node140</title>
<path fill="none" stroke="#da2d4f" stroke-width="2" d="M467,-1212.86C467,-1202.71 467,-1189.63 467,-1178.12"/>
<polygon fill="#da2d4f" stroke="#da2d4f" stroke-width="2" points="470.5,-1178.11 467,-1168.11 463.5,-1178.11 470.5,-1178.11"/>
</g>
<!-- node140&#45;&gt;node158 -->
<g id="edge25" class="edge">
<title>node140&#45;&gt;node158</title>
<path fill="none" stroke="#da2d4f" stroke-width="2" d="M465.92,-1131.86C465.27,-1121.71 464.45,-1108.63 463.72,-1097.12"/>
<polygon fill="#da2d4f" stroke="#da2d4f" stroke-width="2" points="467.21,-1096.87 463.08,-1087.11 460.22,-1097.31 467.21,-1096.87"/>
</g>
<!-- node158&#45;&gt;node173 -->
<g id="edge28" class="edge">
<title>node158&#45;&gt;node173</title>
<path fill="none" stroke="#da2d4f" stroke-width="2" d="M522.79,-1051C572.6,-1037.08 643.15,-1017.35 695.44,-1002.73"/>
<polygon fill="#da2d4f" stroke="#da2d4f" stroke-width="2" points="696.63,-1006.03 705.32,-999.97 694.74,-999.29 696.63,-1006.03"/>
</g>
<!-- node788 -->
<g id="node19" class="node">
<title>node788</title>
<polygon fill="#f9f9f9" stroke="black" points="619.5,-946 300.5,-946 300.5,-910 619.5,-910 619.5,-946"/>
<text text-anchor="middle" x="460" y="-924.3" font-family="Arial" font-size="14.00" fill="#1a1919">788 InstanceOf org/truffleruby/core/proc/RubyProc</text>
</g>
<!-- node158&#45;&gt;node788 -->
<g id="edge43" class="edge">
<title>node158&#45;&gt;node788</title>
<path fill="none" stroke="#3cb4a4" d="M461.75,-1050.96C461.42,-1027.4 460.8,-984.64 460.4,-956.53"/>
<polygon fill="#3cb4a4" stroke="#3cb4a4" points="463.89,-956.13 460.25,-946.18 456.89,-956.23 463.89,-956.13"/>
<text text-anchor="middle" x="477.5" y="-1021.8" font-family="arial" font-size="14.00" fill="#3cb4a4">value</text>
</g>
<!-- node790 -->
<g id="node20" class="node">
<title>node790</title>
<polygon fill="#f9f9f9" stroke="black" points="461,-544 407,-544 407,-508 461,-508 461,-544"/>
<text text-anchor="middle" x="434" y="-522.3" font-family="Arial" font-size="14.00" fill="#1a1919">790 π</text>
</g>
<!-- node158&#45;&gt;node790 -->
<g id="edge45" class="edge">
<title>node158&#45;&gt;node790</title>
<path fill="none" stroke="#3cb4a4" d="M401.29,-1065C346.68,-1058.64 275,-1039.52 275,-983 275,-983 275,-983 275,-612 275,-557.15 349.51,-537.56 396.52,-530.66"/>
<polygon fill="#3cb4a4" stroke="#3cb4a4" points="397.22,-534.1 406.67,-529.31 396.29,-527.16 397.22,-534.1"/>
<text text-anchor="middle" x="293.5" y="-783.3" font-family="arial" font-size="14.00" fill="#3cb4a4">object</text>
</g>
<!-- node178 -->
<g id="node13" class="node">
<title>node178</title>
<polygon fill="#f9f9f9" stroke="black" points="810,-892 756,-892 756,-856 810,-856 810,-892"/>
<text text-anchor="middle" x="783" y="-870.3" font-family="Arial" font-size="14.00" fill="#1a1919">178 π</text>
</g>
<!-- node173&#45;&gt;node178 -->
<g id="edge32" class="edge">
<title>node173&#45;&gt;node178</title>
<path fill="none" stroke="#3cb4a4" d="M768.73,-963.97C771.39,-947.38 775.48,-921.88 778.6,-902.43"/>
<polygon fill="#3cb4a4" stroke="#3cb4a4" points="782.09,-902.77 780.22,-892.34 775.18,-901.66 782.09,-902.77"/>
<text text-anchor="middle" x="795.5" y="-924.3" font-family="arial" font-size="14.00" fill="#3cb4a4">object</text>
</g>
<!-- node173&#45;&gt;node191 -->
<g id="edge31" class="edge">
<title>node173&#45;&gt;node191</title>
<path fill="none" stroke="#da2d4f" stroke-width="2" d="M751.7,-963.97C737.19,-946.69 714.57,-919.74 698.02,-900.03"/>
<polygon fill="#da2d4f" stroke="#da2d4f" stroke-width="2" points="700.67,-897.75 691.56,-892.34 695.31,-902.25 700.67,-897.75"/>
</g>
<!-- node562 -->
<g id="node16" class="node">
<title>node562</title>
<polygon fill="#f9f9f9" stroke="black" points="824,-805 742,-805 742,-769 824,-769 824,-805"/>
<text text-anchor="middle" x="783" y="-783.3" font-family="Arial" font-size="14.00" fill="#1a1919">562 Unbox</text>
</g>
<!-- node178&#45;&gt;node562 -->
<g id="edge37" class="edge">
<title>node178&#45;&gt;node562</title>
<path fill="none" stroke="#3cb4a4" d="M783,-855.8C783,-844.16 783,-828.55 783,-815.24"/>
<polygon fill="#3cb4a4" stroke="#3cb4a4" points="786.5,-815.18 783,-805.18 779.5,-815.18 786.5,-815.18"/>
<text text-anchor="middle" x="799.5" y="-826.8" font-family="arial" font-size="14.00" fill="#3cb4a4">value</text>
</g>
<!-- node195 -->
<g id="node15" class="node">
<title>node195</title>
<polygon fill="#f9f9f9" stroke="black" points="704,-805 650,-805 650,-769 704,-769 704,-805"/>
<text text-anchor="middle" x="677" y="-783.3" font-family="Arial" font-size="14.00" fill="#1a1919">195 π</text>
</g>
<!-- node191&#45;&gt;node195 -->
<g id="edge36" class="edge">
<title>node191&#45;&gt;node195</title>
<path fill="none" stroke="#3cb4a4" d="M677,-855.8C677,-844.16 677,-828.55 677,-815.24"/>
<polygon fill="#3cb4a4" stroke="#3cb4a4" points="680.5,-815.18 677,-805.18 673.5,-815.18 680.5,-815.18"/>
<text text-anchor="middle" x="695.5" y="-826.8" font-family="arial" font-size="14.00" fill="#3cb4a4">object</text>
</g>
<!-- node191&#45;&gt;node562 -->
<g id="edge35" class="edge">
<title>node191&#45;&gt;node562</title>
<path fill="none" stroke="#da2d4f" stroke-width="2" d="M698.45,-855.8C714.26,-843.13 735.94,-825.73 753.4,-811.74"/>
<polygon fill="#da2d4f" stroke="#da2d4f" stroke-width="2" points="755.97,-814.16 761.58,-805.18 751.59,-808.7 755.97,-814.16"/>
</g>
<!-- node717 -->
<g id="node17" class="node">
<title>node717</title>
<polygon fill="#f9f9f9" stroke="black" points="718,-718 636,-718 636,-682 718,-682 718,-718"/>
<text text-anchor="middle" x="677" y="-696.3" font-family="Arial" font-size="14.00" fill="#1a1919">717 Unbox</text>
</g>
<!-- node195&#45;&gt;node717 -->
<g id="edge39" class="edge">
<title>node195&#45;&gt;node717</title>
<path fill="none" stroke="#3cb4a4" d="M677,-768.8C677,-757.16 677,-741.55 677,-728.24"/>
<polygon fill="#3cb4a4" stroke="#3cb4a4" points="680.5,-728.18 677,-718.18 673.5,-728.18 680.5,-728.18"/>
<text text-anchor="middle" x="693.5" y="-739.8" font-family="arial" font-size="14.00" fill="#3cb4a4">value</text>
</g>
<!-- node562&#45;&gt;node717 -->
<g id="edge38" class="edge">
<title>node562&#45;&gt;node717</title>
<path fill="none" stroke="#da2d4f" stroke-width="2" d="M761.55,-768.8C745.74,-756.13 724.06,-738.73 706.6,-724.74"/>
<polygon fill="#da2d4f" stroke="#da2d4f" stroke-width="2" points="708.41,-721.7 698.42,-718.18 704.03,-727.16 708.41,-721.7"/>
</g>
<!-- node1148 -->
<g id="node23" class="node">
<title>node1148</title>
<polygon fill="#3cb4a4" stroke="black" points="784,-631 597.32,-613 784,-595 970.68,-613 784,-631"/>
<text text-anchor="middle" x="784" y="-609.3" font-family="Arial" font-size="14.00" fill="#1a1919">1148 IntegerAddExactOverflow</text>
</g>
<!-- node562&#45;&gt;node1148 -->
<g id="edge49" class="edge">
<title>node562&#45;&gt;node1148</title>
<path fill="none" stroke="#3cb4a4" d="M783.1,-768.88C783.27,-739 783.63,-677.11 783.84,-641.27"/>
<polygon fill="#3cb4a4" stroke="#3cb4a4" points="787.34,-641.07 783.9,-631.05 780.34,-641.03 787.34,-641.07"/>
<text text-anchor="middle" x="786.5" y="-696.3" font-family="arial" font-size="14.00" fill="#3cb4a4">x</text>
</g>
<!-- node1150 -->
<g id="node24" class="node">
<title>node1150</title>
<polygon fill="#3cb4a4" stroke="black" points="822,-210 685.09,-192 822,-174 958.91,-192 822,-210"/>
<text text-anchor="middle" x="822" y="-188.3" font-family="Arial" font-size="14.00" fill="#1a1919">1150 IntegerAddExact</text>
</g>
<!-- node562&#45;&gt;node1150 -->
<g id="edge51" class="edge">
<title>node562&#45;&gt;node1150</title>
<path fill="none" stroke="#3cb4a4" d="M824.14,-778.51C886.81,-765.92 999,-738.18 999,-701 999,-701 999,-701 999,-278 999,-233.46 952.89,-212.24 907.74,-202.14"/>
<polygon fill="#3cb4a4" stroke="#3cb4a4" points="908.34,-198.69 897.83,-200.1 906.92,-205.55 908.34,-198.69"/>
<text text-anchor="middle" x="1002.5" y="-478.8" font-family="arial" font-size="14.00" fill="#3cb4a4">x</text>
</g>
<!-- node787 -->
<g id="node18" class="node">
<title>node787</title>
<polygon fill="#ffa500" stroke="black" points="579,-631 341,-631 341,-595 579,-595 579,-631"/>
<text text-anchor="middle" x="460" y="-609.3" font-family="Arial" font-size="14.00" fill="#1a1919">787 Guard, else ClassCastException</text>
</g>
<!-- node717&#45;&gt;node787 -->
<g id="edge40" class="edge">
<title>node717&#45;&gt;node787</title>
<path fill="none" stroke="#da2d4f" stroke-width="2" d="M635.93,-682.91C601.04,-669.25 550.74,-649.54 512.86,-634.7"/>
<polygon fill="#da2d4f" stroke="#da2d4f" stroke-width="2" points="514.1,-631.43 503.51,-631.04 511.54,-637.95 514.1,-631.43"/>
</g>
<!-- node717&#45;&gt;node1148 -->
<g id="edge50" class="edge">
<title>node717&#45;&gt;node1148</title>
<path fill="none" stroke="#3cb4a4" d="M698.65,-681.8C715.49,-668.42 738.95,-649.79 757.01,-635.44"/>
<polygon fill="#3cb4a4" stroke="#3cb4a4" points="759.24,-638.14 764.89,-629.18 754.88,-632.66 759.24,-638.14"/>
<text text-anchor="middle" x="739.5" y="-652.8" font-family="arial" font-size="14.00" fill="#3cb4a4">y</text>
</g>
<!-- node717&#45;&gt;node1150 -->
<g id="edge52" class="edge">
<title>node717&#45;&gt;node1150</title>
<path fill="none" stroke="#3cb4a4" d="M635.95,-698.02C540.76,-694.65 313,-679.71 313,-614 313,-614 313,-614 313,-278 313,-236.59 578.46,-210.66 725.97,-199.45"/>
<polygon fill="#3cb4a4" stroke="#3cb4a4" points="726.23,-202.94 735.94,-198.7 725.71,-195.96 726.23,-202.94"/>
<text text-anchor="middle" x="316.5" y="-435.3" font-family="arial" font-size="14.00" fill="#3cb4a4">y</text>
</g>
<!-- node787&#45;&gt;node790 -->
<g id="edge44" class="edge">
<title>node787&#45;&gt;node790</title>
<path fill="none" stroke="#3cb4a4" d="M454.74,-594.8C451.14,-583.05 446.31,-567.24 442.21,-553.84"/>
<polygon fill="#3cb4a4" stroke="#3cb4a4" points="445.53,-552.71 439.25,-544.18 438.83,-554.76 445.53,-552.71"/>
<text text-anchor="middle" x="465.5" y="-565.8" font-family="arial" font-size="14.00" fill="#3cb4a4">guard</text>
</g>
<!-- node1186 -->
<g id="node26" class="node">
<title>node1186</title>
<polygon fill="#ffa500" stroke="black" points="658.5,-370 407.5,-370 407.5,-334 658.5,-334 658.5,-370"/>
<text text-anchor="middle" x="533" y="-348.3" font-family="Arial" font-size="14.00" fill="#1a1919">1186 Guard, else TransferToInterpreter</text>
</g>
<!-- node787&#45;&gt;node1186 -->
<g id="edge42" class="edge">
<title>node787&#45;&gt;node1186</title>
<path fill="none" stroke="#da2d4f" stroke-width="2" d="M475.63,-594.82C479.85,-589.43 484.06,-583.25 487,-577 518.12,-510.75 528.28,-423.74 531.52,-380.23"/>
<polygon fill="#da2d4f" stroke="#da2d4f" stroke-width="2" points="535.02,-380.36 532.21,-370.15 528.04,-379.89 535.02,-380.36"/>
</g>
<!-- node788&#45;&gt;node787 -->
<g id="edge41" class="edge">
<title>node788&#45;&gt;node787</title>
<path fill="none" stroke="#3cb4a4" d="M460,-909.75C460,-890.62 460,-858.86 460,-831.5 460,-831.5 460,-831.5 460,-699 460,-679.75 460,-658.05 460,-641.4"/>
<polygon fill="#3cb4a4" stroke="#3cb4a4" points="463.5,-641.26 460,-631.26 456.5,-641.26 463.5,-641.26"/>
<text text-anchor="middle" x="464" y="-783.3" font-family="arial" font-size="14.00" fill="#3cb4a4">?</text>
</g>
<!-- node794 -->
<g id="node21" class="node">
<title>node794</title>
<polygon fill="#3cb4a4" stroke="black" points="434,-457 363.45,-439 434,-421 504.55,-439 434,-457"/>
<text text-anchor="middle" x="434" y="-435.3" font-family="Arial" font-size="14.00" fill="#1a1919">794 IsNull</text>
</g>
<!-- node790&#45;&gt;node794 -->
<g id="edge46" class="edge">
<title>node790&#45;&gt;node794</title>
<path fill="none" stroke="#3cb4a4" d="M434,-507.8C434,-496.16 434,-480.55 434,-467.24"/>
<polygon fill="#3cb4a4" stroke="#3cb4a4" points="437.5,-467.18 434,-457.18 430.5,-467.18 437.5,-467.18"/>
<text text-anchor="middle" x="450.5" y="-478.8" font-family="arial" font-size="14.00" fill="#3cb4a4">value</text>
</g>
<!-- node794&#45;&gt;node1186 -->
<g id="edge55" class="edge">
<title>node794&#45;&gt;node1186</title>
<path fill="none" stroke="#3cb4a4" d="M449.47,-424.72C464.28,-412 486.96,-392.53 504.95,-377.08"/>
<polygon fill="#3cb4a4" stroke="#3cb4a4" points="507.54,-379.47 512.85,-370.3 502.98,-374.16 507.54,-379.47"/>
<text text-anchor="middle" x="493" y="-391.8" font-family="arial" font-size="14.00" fill="#3cb4a4">?</text>
</g>
<!-- node1147 -->
<g id="node22" class="node">
<title>node1147</title>
<polygon fill="#ffa500" stroke="black" points="941,-297 675,-297 675,-261 941,-261 941,-297"/>
<text text-anchor="middle" x="808" y="-275.3" font-family="Arial" font-size="14.00" fill="#1a1919">1147 Guard not, else ArithmeticException</text>
</g>
<!-- node1147&#45;&gt;node1150 -->
<g id="edge53" class="edge">
<title>node1147&#45;&gt;node1150</title>
<path fill="none" stroke="#3cb4a4" d="M810.83,-260.8C812.76,-249.09 815.36,-233.34 817.56,-219.97"/>
<polygon fill="#3cb4a4" stroke="#3cb4a4" points="821.05,-220.32 819.22,-209.89 814.14,-219.18 821.05,-220.32"/>
<text text-anchor="middle" x="832.5" y="-231.8" font-family="arial" font-size="14.00" fill="#3cb4a4">guard</text>
</g>
<!-- node1202 -->
<g id="node27" class="node">
<title>node1202</title>
<polygon fill="#f9f9f9" stroke="black" points="1039.5,-123 844.5,-123 844.5,-87 1039.5,-87 1039.5,-123"/>
<text text-anchor="middle" x="942" y="-101.3" font-family="Arial" font-size="14.00" fill="#1a1919">1202 BoxNode$AllocatingBox</text>
</g>
<!-- node1147&#45;&gt;node1202 -->
<g id="edge48" class="edge">
<title>node1147&#45;&gt;node1202</title>
<path fill="none" stroke="#da2d4f" stroke-width="2" d="M895.7,-260.91C923.57,-250.9 951.43,-235.05 968,-210 983.54,-186.5 971.61,-154.43 959.27,-132.14"/>
<polygon fill="#da2d4f" stroke="#da2d4f" stroke-width="2" points="962.12,-130.08 954.03,-123.24 956.08,-133.63 962.12,-130.08"/>
</g>
<!-- node1148&#45;&gt;node1147 -->
<g id="edge47" class="edge">
<title>node1148&#45;&gt;node1147</title>
<path fill="none" stroke="#3cb4a4" d="M785.58,-595.08C787.05,-577.94 789,-550.65 789,-527 789,-527 789,-527 789,-351 789,-336.1 792.95,-320.02 797.25,-306.93"/>
<polygon fill="#3cb4a4" stroke="#3cb4a4" points="800.67,-307.76 800.71,-297.16 794.08,-305.43 800.67,-307.76"/>
<text text-anchor="middle" x="793" y="-435.3" font-family="arial" font-size="14.00" fill="#3cb4a4">?</text>
</g>
<!-- node1150&#45;&gt;node1202 -->
<g id="edge57" class="edge">
<title>node1150&#45;&gt;node1202</title>
<path fill="none" stroke="#3cb4a4" d="M842.36,-176.58C860.77,-163.53 888.21,-144.1 909.64,-128.92"/>
<polygon fill="#3cb4a4" stroke="#3cb4a4" points="911.68,-131.77 917.82,-123.13 907.63,-126.05 911.68,-131.77"/>
<text text-anchor="middle" x="905.5" y="-144.8" font-family="arial" font-size="14.00" fill="#3cb4a4">value</text>
</g>
<!-- node1179 -->
<g id="node25" class="node">
<title>node1179</title>
<polygon fill="#e98693" stroke="black" points="987,-36 897,-36 897,0 987,0 987,-36"/>
<text text-anchor="middle" x="942" y="-14.3" font-family="Arial" font-size="14.00" fill="#1a1919">1179 Return</text>
</g>
<!-- node1186&#45;&gt;node1147 -->
<g id="edge56" class="edge">
<title>node1186&#45;&gt;node1147</title>
<path fill="none" stroke="#da2d4f" stroke-width="2" d="M598.87,-333.99C638.88,-323.66 690.12,-310.43 731.87,-299.66"/>
<polygon fill="#da2d4f" stroke="#da2d4f" stroke-width="2" points="732.91,-303 741.72,-297.11 731.16,-296.22 732.91,-303"/>
</g>
<!-- node1202&#45;&gt;node1179 -->
<g id="edge54" class="edge">
<title>node1202&#45;&gt;node1179</title>
<path fill="none" stroke="#3cb4a4" d="M927.9,-86.84C924.28,-81.46 920.88,-75.27 919,-69 916.59,-60.93 918.56,-52.49 922.19,-44.89"/>
<polygon fill="#3cb4a4" stroke="#3cb4a4" points="925.29,-46.53 927.25,-36.12 919.22,-43.03 925.29,-46.53"/>
<text text-anchor="middle" x="936" y="-57.8" font-family="arial" font-size="14.00" fill="#3cb4a4">result</text>
</g>
<!-- node1202&#45;&gt;node1179 -->
<g id="edge58" class="edge">
<title>node1202&#45;&gt;node1179</title>
<path fill="none" stroke="#da2d4f" stroke-width="2" d="M948.55,-86.8C950.37,-81.21 952.09,-74.92 953,-69 954.17,-61.39 953.29,-53.2 951.61,-45.71"/>
<polygon fill="#da2d4f" stroke="#da2d4f" stroke-width="2" points="954.97,-44.74 948.94,-36.02 948.22,-46.59 954.97,-44.74"/>
</g>
<!-- inline2x31 -->
<g id="node28" class="node">
<title>inline2x31</title>
<ellipse fill="#d7ede7" stroke="black" cx="464" cy="-1915" rx="27" ry="18"/>
<text text-anchor="middle" x="464" y="-1913.1" font-family="Arial" font-size="8.00" fill="#1a1919">2 P(1)</text>
</g>
<!-- inline2x31&#45;&gt;node31 -->
<g id="edge2" class="edge">
<title>inline2x31&#45;&gt;node31</title>
<path fill="none" stroke="#3cb4a4" d="M471.46,-1897.63C477.51,-1884.34 486.03,-1865.67 492.18,-1852.17"/>
<text text-anchor="middle" x="494" y="-1872.6" font-family="arial" font-size="8.00" fill="#3cb4a4">object</text>
</g>
<!-- inline30x31 -->
<g id="node29" class="node">
<title>inline30x31</title>
<ellipse fill="#d7ede7" stroke="black" cx="537" cy="-1915" rx="27.59" ry="18"/>
<text text-anchor="middle" x="537" y="-1913.1" font-family="Arial" font-size="8.00" fill="#1a1919">30 C(10)</text>
</g>
<!-- inline30x31&#45;&gt;node31 -->
<g id="edge3" class="edge">
<title>inline30x31&#45;&gt;node31</title>
<path fill="none" stroke="#3cb4a4" d="M529.33,-1897.63C523.11,-1884.34 514.36,-1865.67 508.04,-1852.17"/>
<text text-anchor="middle" x="530" y="-1872.6" font-family="arial" font-size="8.00" fill="#3cb4a4">length</text>
</g>
<!-- inline5x43 -->
<g id="node30" class="node">
<title>inline5x43</title>
<ellipse fill="#d7ede7" stroke="black" cx="27" cy="-1747" rx="27" ry="18"/>
<text text-anchor="middle" x="27" y="-1745.1" font-family="Arial" font-size="8.00" fill="#1a1919">5 C(0)</text>
</g>
<!-- inline5x43&#45;&gt;node43 -->
<g id="edge6" class="edge">
<title>inline5x43&#45;&gt;node43</title>
<path fill="none" stroke="#3cb4a4" d="M39.69,-1730.8C52.06,-1716 70.82,-1693.53 83.71,-1678.11"/>
<text text-anchor="middle" x="75.5" y="-1701.6" font-family="arial" font-size="8.00" fill="#3cb4a4">index</text>
</g>
<!-- inline23x59 -->
<g id="node31" class="node">
<title>inline23x59</title>
<ellipse fill="#d7ede7" stroke="black" cx="268" cy="-1660" rx="27" ry="18"/>
<text text-anchor="middle" x="268" y="-1658.1" font-family="Arial" font-size="8.00" fill="#1a1919">23 C(1)</text>
</g>
<!-- inline23x59&#45;&gt;node59 -->
<g id="edge9" class="edge">
<title>inline23x59&#45;&gt;node59</title>
<path fill="none" stroke="#3cb4a4" d="M268,-1641.8C268,-1627.05 268,-1605.92 268,-1591.18"/>
<text text-anchor="middle" x="277.5" y="-1614.6" font-family="arial" font-size="8.00" fill="#3cb4a4">index</text>
</g>
<!-- inline69x74 -->
<g id="node32" class="node">
<title>inline69x74</title>
<ellipse fill="#d7ede7" stroke="black" cx="370" cy="-1573" rx="27" ry="18"/>
<text text-anchor="middle" x="370" y="-1571.1" font-family="Arial" font-size="8.00" fill="#1a1919">69 C(2)</text>
</g>
<!-- inline69x74&#45;&gt;node74 -->
<g id="edge12" class="edge">
<title>inline69x74&#45;&gt;node74</title>
<path fill="none" stroke="#3cb4a4" d="M359.47,-1556.01C349.71,-1541.2 335.24,-1519.23 325.25,-1504.08"/>
<text text-anchor="middle" x="354.5" y="-1527.6" font-family="arial" font-size="8.00" fill="#3cb4a4">index</text>
</g>
<!-- inline84x89 -->
<g id="node33" class="node">
<title>inline84x89</title>
<ellipse fill="#d7ede7" stroke="black" cx="416" cy="-1486" rx="27" ry="18"/>
<text text-anchor="middle" x="416" y="-1484.1" font-family="Arial" font-size="8.00" fill="#1a1919">84 C(3)</text>
</g>
<!-- inline84x89&#45;&gt;node89 -->
<g id="edge15" class="edge">
<title>inline84x89&#45;&gt;node89</title>
<path fill="none" stroke="#3cb4a4" d="M406.97,-1469.01C398.61,-1454.2 386.2,-1432.23 377.65,-1417.08"/>
<text text-anchor="middle" x="403.5" y="-1440.6" font-family="arial" font-size="8.00" fill="#3cb4a4">index</text>
</g>
<!-- inline102x107 -->
<g id="node34" class="node">
<title>inline102x107</title>
<ellipse fill="#d7ede7" stroke="black" cx="470" cy="-1399" rx="27.59" ry="18"/>
<text text-anchor="middle" x="470" y="-1397.1" font-family="Arial" font-size="8.00" fill="#1a1919">102 C(4)</text>
</g>
<!-- inline102x107&#45;&gt;node107 -->
<g id="edge18" class="edge">
<title>inline102x107&#45;&gt;node107</title>
<path fill="none" stroke="#3cb4a4" d="M459,-1382.41C448.58,-1367.65 432.96,-1345.53 422.17,-1330.25"/>
<text text-anchor="middle" x="452.5" y="-1353.6" font-family="arial" font-size="8.00" fill="#3cb4a4">index</text>
</g>
<!-- inline120x125 -->
<g id="node35" class="node">
<title>inline120x125</title>
<ellipse fill="#d7ede7" stroke="black" cx="516" cy="-1312" rx="27.59" ry="18"/>
<text text-anchor="middle" x="516" y="-1310.1" font-family="Arial" font-size="8.00" fill="#1a1919">120 C(5)</text>
</g>
<!-- inline120x125&#45;&gt;node125 -->
<g id="edge21" class="edge">
<title>inline120x125&#45;&gt;node125</title>
<path fill="none" stroke="#3cb4a4" d="M506.08,-1295.01C497.81,-1281.67 486.04,-1262.69 477.58,-1249.06"/>
<text text-anchor="middle" x="501.5" y="-1269.6" font-family="arial" font-size="8.00" fill="#3cb4a4">index</text>
</g>
<!-- inline135x140 -->
<g id="node36" class="node">
<title>inline135x140</title>
<ellipse fill="#d7ede7" stroke="black" cx="573" cy="-1231" rx="27.59" ry="18"/>
<text text-anchor="middle" x="573" y="-1229.1" font-family="Arial" font-size="8.00" fill="#1a1919">135 C(6)</text>
</g>
<!-- inline135x140&#45;&gt;node140 -->
<g id="edge24" class="edge">
<title>inline135x140&#45;&gt;node140</title>
<path fill="none" stroke="#3cb4a4" d="M555.5,-1216.95C537.62,-1203.63 509.77,-1182.88 490.1,-1168.21"/>
<text text-anchor="middle" x="532.5" y="-1188.6" font-family="arial" font-size="8.00" fill="#3cb4a4">index</text>
</g>
<!-- inline153x158 -->
<g id="node37" class="node">
<title>inline153x158</title>
<ellipse fill="#d7ede7" stroke="black" cx="573" cy="-1150" rx="27.59" ry="18"/>
<text text-anchor="middle" x="573" y="-1148.1" font-family="Arial" font-size="8.00" fill="#1a1919">153 C(7)</text>
</g>
<!-- inline153x158&#45;&gt;node158 -->
<g id="edge27" class="edge">
<title>inline153x158&#45;&gt;node158</title>
<path fill="none" stroke="#3cb4a4" d="M554.67,-1135.95C535.95,-1122.63 506.79,-1101.88 486.19,-1087.21"/>
<text text-anchor="middle" x="529.5" y="-1107.6" font-family="arial" font-size="8.00" fill="#3cb4a4">index</text>
</g>
<!-- inline168x173 -->
<g id="node38" class="node">
<title>inline168x173</title>
<ellipse fill="#d7ede7" stroke="black" cx="792" cy="-1069" rx="27.59" ry="18"/>
<text text-anchor="middle" x="792" y="-1067.1" font-family="Arial" font-size="8.00" fill="#1a1919">168 C(8)</text>
</g>
<!-- inline168x173&#45;&gt;node173 -->
<g id="edge30" class="edge">
<title>inline168x173&#45;&gt;node173</title>
<path fill="none" stroke="#3cb4a4" d="M786.86,-1051.21C782.33,-1036.4 775.77,-1014.93 771.22,-1000.05"/>
<text text-anchor="middle" x="789.5" y="-1023.6" font-family="arial" font-size="8.00" fill="#3cb4a4">index</text>
</g>
<!-- inline186x191 -->
<g id="node39" class="node">
<title>inline186x191</title>
<ellipse fill="#d7ede7" stroke="black" cx="621" cy="-982" rx="27.59" ry="18"/>
<text text-anchor="middle" x="621" y="-980.1" font-family="Arial" font-size="8.00" fill="#1a1919">186 C(9)</text>
</g>
<!-- inline186x191&#45;&gt;node191 -->
<g id="edge34" class="edge">
<title>inline186x191&#45;&gt;node191</title>
<path fill="none" stroke="#3cb4a4" d="M624.27,-964.05C627.66,-949.09 633.9,-927.06 644,-910 647.74,-903.68 652.81,-897.56 657.86,-892.27"/>
<text text-anchor="middle" x="653.5" y="-926.1" font-family="arial" font-size="8.00" fill="#3cb4a4">index</text>
</g>
</g>
</svg>
