<?xml version="1.0" encoding="UTF-8" standalone="no"?>
<!DOCTYPE svg PUBLIC "-//W3C//DTD SVG 1.1//EN"
 "http://www.w3.org/Graphics/SVG/1.1/DTD/svg11.dtd">
<!-- Generated by graphviz version 2.44.1 (20200629.0846)
 -->
<!-- Title: G Pages: 1 -->
<svg width="812pt" height="722pt"
 viewBox="0.00 0.00 812.45 722.00" xmlns="http://www.w3.org/2000/svg" xmlns:xlink="http://www.w3.org/1999/xlink">
<g id="graph0" class="graph" transform="scale(1 1) rotate(0) translate(4 718)">
<title>G</title>
<!-- node0 -->
<g id="node1" class="node">
<title>node0</title>
<polygon fill="#e98693" stroke="black" points="612.5,-714 556.5,-714 556.5,-678 612.5,-678 612.5,-714"/>
<text text-anchor="middle" x="584.5" y="-692.3" font-family="Arial" font-size="14.00" fill="#1a1919">0 Start</text>
</g>
<!-- node1183 -->
<g id="node11" class="node">
<title>node1183</title>
<polygon fill="#da2d4f" stroke="black" points="676.5,-633 564.5,-633 564.5,-597 676.5,-597 676.5,-633"/>
<text text-anchor="middle" x="620.5" y="-611.3" font-family="Arial" font-size="14.00" fill="#ffffff">1183 Load T(...)</text>
</g>
<!-- node0&#45;&gt;node1183 -->
<g id="edge19" class="edge">
<title>node0&#45;&gt;node1183</title>
<path fill="none" stroke="#da2d4f" stroke-width="2" d="M592.31,-677.86C597.03,-667.51 603.14,-654.1 608.46,-642.41"/>
<polygon fill="#da2d4f" stroke="#da2d4f" stroke-width="2" points="611.74,-643.66 612.7,-633.11 605.37,-640.76 611.74,-643.66"/>
</g>
<!-- node545 -->
<g id="node2" class="node">
<title>node545</title>
<polygon fill="#f9f9f9" stroke="black" points="729.5,-552 647.5,-552 647.5,-516 729.5,-516 729.5,-552"/>
<text text-anchor="middle" x="688.5" y="-530.3" font-family="Arial" font-size="14.00" fill="#1a1919">545 Unbox</text>
</g>
<!-- node700 -->
<g id="node3" class="node">
<title>node700</title>
<polygon fill="#f9f9f9" stroke="black" points="561.5,-471 479.5,-471 479.5,-435 561.5,-435 561.5,-471"/>
<text text-anchor="middle" x="520.5" y="-449.3" font-family="Arial" font-size="14.00" fill="#1a1919">700 Unbox</text>
</g>
<!-- node545&#45;&gt;node700 -->
<g id="edge1" class="edge">
<title>node545&#45;&gt;node700</title>
<path fill="none" stroke="#da2d4f" stroke-width="2" d="M652.05,-515.86C626.84,-504 593.11,-488.15 566.12,-475.45"/>
<polygon fill="#da2d4f" stroke="#da2d4f" stroke-width="2" points="567.42,-472.2 556.88,-471.11 564.44,-478.53 567.42,-472.2"/>
</g>
<!-- node1128 -->
<g id="node6" class="node">
<title>node1128</title>
<polygon fill="#3cb4a4" stroke="black" points="455.5,-384 268.82,-366 455.5,-348 642.18,-366 455.5,-384"/>
<text text-anchor="middle" x="455.5" y="-362.3" font-family="Arial" font-size="14.00" fill="#1a1919">1128 IntegerAddExactOverflow</text>
</g>
<!-- node545&#45;&gt;node1128 -->
<g id="edge5" class="edge">
<title>node545&#45;&gt;node1128</title>
<path fill="none" stroke="#3cb4a4" d="M669.63,-515.72C646.94,-495.32 607.3,-460.91 570.5,-435 545.05,-417.08 514.69,-399.26 491.55,-386.36"/>
<polygon fill="#3cb4a4" stroke="#3cb4a4" points="493.19,-383.27 482.75,-381.5 489.8,-389.4 493.19,-383.27"/>
<text text-anchor="middle" x="621" y="-449.3" font-family="arial" font-size="14.00" fill="#3cb4a4">x</text>
</g>
<!-- node1130 -->
<g id="node7" class="node">
<title>node1130</title>
<polygon fill="#3cb4a4" stroke="black" points="667.5,-210 530.59,-192 667.5,-174 804.41,-192 667.5,-210"/>
<text text-anchor="middle" x="667.5" y="-188.3" font-family="Arial" font-size="14.00" fill="#1a1919">1130 IntegerAddExact</text>
</g>
<!-- node545&#45;&gt;node1130 -->
<g id="edge7" class="edge">
<title>node545&#45;&gt;node1130</title>
<path fill="none" stroke="#3cb4a4" d="M701.14,-515.77C711.16,-500.38 723.5,-476.8 723.5,-454 723.5,-454 723.5,-454 723.5,-278 723.5,-253.7 707.34,-230.98 692.39,-215.16"/>
<polygon fill="#3cb4a4" stroke="#3cb4a4" points="694.76,-212.58 685.22,-207.97 689.8,-217.52 694.76,-212.58"/>
<text text-anchor="middle" x="727" y="-362.3" font-family="arial" font-size="14.00" fill="#3cb4a4">x</text>
</g>
<!-- node700&#45;&gt;node1128 -->
<g id="edge6" class="edge">
<title>node700&#45;&gt;node1128</title>
<path fill="none" stroke="#3cb4a4" d="M507.35,-434.8C497.76,-422.27 484.65,-405.12 474.01,-391.2"/>
<polygon fill="#3cb4a4" stroke="#3cb4a4" points="476.61,-388.84 467.75,-383.03 471.05,-393.09 476.61,-388.84"/>
<text text-anchor="middle" x="496" y="-405.8" font-family="arial" font-size="14.00" fill="#3cb4a4">y</text>
</g>
<!-- node700&#45;&gt;node1130 -->
<g id="edge8" class="edge">
<title>node700&#45;&gt;node1130</title>
<path fill="none" stroke="#3cb4a4" d="M561.78,-435.76C595.96,-421.42 640.63,-400.31 651.5,-384 684.88,-333.9 679.07,-259.22 672.79,-219.73"/>
<polygon fill="#3cb4a4" stroke="#3cb4a4" points="676.23,-219.06 671.08,-209.8 669.33,-220.24 676.23,-219.06"/>
<text text-anchor="middle" x="678" y="-318.8" font-family="arial" font-size="14.00" fill="#3cb4a4">y</text>
</g>
<!-- node1166 -->
<g id="node9" class="node">
<title>node1166</title>
<polygon fill="#ffa500" stroke="black" points="251,-384 0,-384 0,-348 251,-348 251,-384"/>
<text text-anchor="middle" x="125.5" y="-362.3" font-family="Arial" font-size="14.00" fill="#1a1919">1166 Guard, else TransferToInterpreter</text>
</g>
<!-- node700&#45;&gt;node1166 -->
<g id="edge2" class="edge">
<title>node700&#45;&gt;node1166</title>
<path fill="none" stroke="#da2d4f" stroke-width="2" d="M479.35,-443.14C417.07,-429.74 297.37,-403.98 214.55,-386.16"/>
<polygon fill="#da2d4f" stroke="#da2d4f" stroke-width="2" points="215.15,-382.71 204.64,-384.03 213.68,-389.56 215.15,-382.71"/>
</g>
<!-- node774 -->
<g id="node4" class="node">
<title>node774</title>
<polygon fill="#3cb4a4" stroke="black" points="125.5,-471 54.95,-453 125.5,-435 196.05,-453 125.5,-471"/>
<text text-anchor="middle" x="125.5" y="-449.3" font-family="Arial" font-size="14.00" fill="#1a1919">774 IsNull</text>
</g>
<!-- node774&#45;&gt;node1166 -->
<g id="edge11" class="edge">
<title>node774&#45;&gt;node1166</title>
<path fill="none" stroke="#3cb4a4" d="M125.5,-434.8C125.5,-423.16 125.5,-407.55 125.5,-394.24"/>
<polygon fill="#3cb4a4" stroke="#3cb4a4" points="129,-394.18 125.5,-384.18 122,-394.18 129,-394.18"/>
<text text-anchor="middle" x="129.5" y="-405.8" font-family="arial" font-size="14.00" fill="#3cb4a4">?</text>
</g>
<!-- node1127 -->
<g id="node5" class="node">
<title>node1127</title>
<polygon fill="#ffa500" stroke="black" points="598.5,-297 332.5,-297 332.5,-261 598.5,-261 598.5,-297"/>
<text text-anchor="middle" x="465.5" y="-275.3" font-family="Arial" font-size="14.00" fill="#1a1919">1127 Guard not, else ArithmeticException</text>
</g>
<!-- node1127&#45;&gt;node1130 -->
<g id="edge9" class="edge">
<title>node1127&#45;&gt;node1130</title>
<path fill="none" stroke="#3cb4a4" d="M506.38,-260.8C541.57,-245.99 592.08,-224.73 627.13,-209.99"/>
<polygon fill="#3cb4a4" stroke="#3cb4a4" points="628.72,-213.12 636.58,-206.01 626.01,-206.66 628.72,-213.12"/>
<text text-anchor="middle" x="597" y="-231.8" font-family="arial" font-size="14.00" fill="#3cb4a4">guard</text>
</g>
<!-- node1182 -->
<g id="node10" class="node">
<title>node1182</title>
<polygon fill="#f9f9f9" stroke="black" points="603.5,-123 409.5,-123 409.5,-87 603.5,-87 603.5,-123"/>
<text text-anchor="middle" x="506.5" y="-101.3" font-family="Arial" font-size="14.00" fill="#1a1919">1182 BoxNode$AllocatingBox</text>
</g>
<!-- node1127&#45;&gt;node1182 -->
<g id="edge4" class="edge">
<title>node1127&#45;&gt;node1182</title>
<path fill="none" stroke="#da2d4f" stroke-width="2" d="M469.58,-260.88C476.73,-230.87 491.58,-168.58 500.11,-132.81"/>
<polygon fill="#da2d4f" stroke="#da2d4f" stroke-width="2" points="503.52,-133.59 502.44,-123.05 496.71,-131.97 503.52,-133.59"/>
</g>
<!-- node1128&#45;&gt;node1127 -->
<g id="edge3" class="edge">
<title>node1128&#45;&gt;node1127</title>
<path fill="none" stroke="#3cb4a4" d="M457.52,-347.8C458.89,-336.16 460.73,-320.55 462.3,-307.24"/>
<polygon fill="#3cb4a4" stroke="#3cb4a4" points="465.79,-307.52 463.48,-297.18 458.83,-306.7 465.79,-307.52"/>
<text text-anchor="middle" x="465.5" y="-318.8" font-family="arial" font-size="14.00" fill="#3cb4a4">?</text>
</g>
<!-- node1130&#45;&gt;node1182 -->
<g id="edge13" class="edge">
<title>node1130&#45;&gt;node1182</title>
<path fill="none" stroke="#3cb4a4" d="M641.63,-177.34C616.34,-163.99 577.42,-143.44 547.83,-127.82"/>
<polygon fill="#3cb4a4" stroke="#3cb4a4" points="549.45,-124.72 538.97,-123.15 546.18,-130.91 549.45,-124.72"/>
<text text-anchor="middle" x="614" y="-144.8" font-family="arial" font-size="14.00" fill="#3cb4a4">value</text>
</g>
<!-- node1159 -->
<g id="node8" class="node">
<title>node1159</title>
<polygon fill="#e98693" stroke="black" points="551.5,-36 461.5,-36 461.5,0 551.5,0 551.5,-36"/>
<text text-anchor="middle" x="506.5" y="-14.3" font-family="Arial" font-size="14.00" fill="#1a1919">1159 Return</text>
</g>
<!-- node1166&#45;&gt;node1127 -->
<g id="edge12" class="edge">
<title>node1166&#45;&gt;node1127</title>
<path fill="none" stroke="#da2d4f" stroke-width="2" d="M193.9,-347.9C249.81,-333.92 328.88,-314.16 387.29,-299.55"/>
<polygon fill="#da2d4f" stroke="#da2d4f" stroke-width="2" points="388.36,-302.89 397.21,-297.07 386.66,-296.1 388.36,-302.89"/>
</g>
<!-- node1182&#45;&gt;node1159 -->
<g id="edge10" class="edge">
<title>node1182&#45;&gt;node1159</title>
<path fill="none" stroke="#3cb4a4" d="M491.75,-86.88C485.39,-77.44 480.1,-65.35 483.5,-54 484.41,-50.96 485.67,-47.95 487.15,-45.03"/>
<polygon fill="#3cb4a4" stroke="#3cb4a4" points="490.32,-46.55 492.4,-36.16 484.29,-42.98 490.32,-46.55"/>
<text text-anchor="middle" x="500.5" y="-57.8" font-family="arial" font-size="14.00" fill="#3cb4a4">result</text>
</g>
<!-- node1182&#45;&gt;node1159 -->
<g id="edge14" class="edge">
<title>node1182&#45;&gt;node1159</title>
<path fill="none" stroke="#da2d4f" stroke-width="2" d="M513.44,-86.98C516.56,-77.35 519.2,-65.07 517.5,-54 517.09,-51.32 516.51,-48.56 515.83,-45.83"/>
<polygon fill="#da2d4f" stroke="#da2d4f" stroke-width="2" points="519.19,-44.83 513.05,-36.2 512.46,-46.78 519.19,-44.83"/>
</g>
<!-- node1183&#45;&gt;node545 -->
<g id="edge20" class="edge">
<title>node1183&#45;&gt;node545</title>
<path fill="none" stroke="#da2d4f" stroke-width="2" d="M635.25,-596.86C644.52,-586.09 656.63,-572.02 666.96,-560.02"/>
<polygon fill="#da2d4f" stroke="#da2d4f" stroke-width="2" points="669.9,-561.97 673.77,-552.11 664.6,-557.4 669.9,-561.97"/>
</g>
<!-- inline143x774 -->
<g id="node12" class="node">
<title>inline143x774</title>
<ellipse fill="#d7ede7" stroke="black" cx="125.5" cy="-534" rx="27.46" ry="18"/>
<text text-anchor="middle" x="125.5" y="-532.1" font-family="Arial" font-size="8.00" fill="#1a1919">143 T(6)</text>
</g>
<!-- inline143x774&#45;&gt;node774 -->
<g id="edge15" class="edge">
<title>inline143x774&#45;&gt;node774</title>
<path fill="none" stroke="#3cb4a4" d="M125.5,-515.86C125.5,-502.61 125.5,-484.35 125.5,-471.11"/>
<text text-anchor="middle" x="135" y="-491.6" font-family="arial" font-size="8.00" fill="#3cb4a4">value</text>
</g>
<!-- inline158x545 -->
<g id="node13" class="node">
<title>inline158x545</title>
<ellipse fill="#d7ede7" stroke="black" cx="721.5" cy="-615" rx="27.46" ry="18"/>
<text text-anchor="middle" x="721.5" y="-613.1" font-family="Arial" font-size="8.00" fill="#1a1919">158 T(7)</text>
</g>
<!-- inline158x545&#45;&gt;node545 -->
<g id="edge16" class="edge">
<title>inline158x545&#45;&gt;node545</title>
<path fill="none" stroke="#3cb4a4" d="M714.5,-597.25C708.94,-583.93 701.19,-565.38 695.6,-552"/>
<text text-anchor="middle" x="715" y="-572.6" font-family="arial" font-size="8.00" fill="#3cb4a4">value</text>
</g>
<!-- inline176x700 -->
<g id="node14" class="node">
<title>inline176x700</title>
<ellipse fill="#d7ede7" stroke="black" cx="520.5" cy="-534" rx="27.46" ry="18"/>
<text text-anchor="middle" x="520.5" y="-532.1" font-family="Arial" font-size="8.00" fill="#1a1919">176 T(8)</text>
</g>
<!-- inline176x700&#45;&gt;node700 -->
<g id="edge17" class="edge">
<title>inline176x700&#45;&gt;node700</title>
<path fill="none" stroke="#3cb4a4" d="M520.5,-515.86C520.5,-502.61 520.5,-484.35 520.5,-471.11"/>
<text text-anchor="middle" x="530" y="-491.6" font-family="arial" font-size="8.00" fill="#3cb4a4">value</text>
</g>
<!-- inline2x1183 -->
<g id="node15" class="node">
<title>inline2x1183</title>
<ellipse fill="#d7ede7" stroke="black" cx="657.5" cy="-696" rx="27" ry="18"/>
<text text-anchor="middle" x="657.5" y="-694.1" font-family="Arial" font-size="8.00" fill="#1a1919">2 P(1)</text>
</g>
<!-- inline2x1183&#45;&gt;node1183 -->
<g id="edge18" class="edge">
<title>inline2x1183&#45;&gt;node1183</title>
<path fill="none" stroke="#3cb4a4" d="M649.83,-678.63C643.61,-665.34 634.86,-646.67 628.54,-633.17"/>
<text text-anchor="middle" x="649" y="-653.6" font-family="arial" font-size="8.00" fill="#3cb4a4">array</text>
</g>
</g>
</svg>
