<?xml version="1.0" encoding="UTF-8" standalone="no"?>
<!DOCTYPE svg PUBLIC "-//W3C//DTD SVG 1.1//EN"
 "http://www.w3.org/Graphics/SVG/1.1/DTD/svg11.dtd">
<!-- Generated by graphviz version 2.44.1 (20200629.0846)
 -->
<!-- Title: G Pages: 1 -->
<svg width="681pt" height="1472pt"
 viewBox="0.00 0.00 681.40 1472.00" xmlns="http://www.w3.org/2000/svg" xmlns:xlink="http://www.w3.org/1999/xlink">
<g id="graph0" class="graph" transform="scale(1 1) rotate(0) translate(4 1468)">
<title>G</title>
<!-- node0 -->
<g id="node1" class="node">
<title>node0</title>
<polygon fill="#e98693" stroke="black" points="120.23,-1464 64.23,-1464 64.23,-1428 120.23,-1428 120.23,-1464"/>
<text text-anchor="middle" x="92.23" y="-1442.3" font-family="Arial" font-size="14.00" fill="#1a1919">0 Start</text>
</g>
<!-- node1381 -->
<g id="node21" class="node">
<title>node1381</title>
<polygon fill="#da2d4f" stroke="black" points="185.73,-1383 72.73,-1383 72.73,-1347 185.73,-1347 185.73,-1383"/>
<text text-anchor="middle" x="129.23" y="-1361.3" font-family="Arial" font-size="14.00" fill="#ffffff">1381 Load T(...)</text>
</g>
<!-- node0&#45;&gt;node1381 -->
<g id="edge37" class="edge">
<title>node0&#45;&gt;node1381</title>
<path fill="none" stroke="#da2d4f" stroke-width="2" d="M100.26,-1427.86C105.1,-1417.51 111.38,-1404.1 116.86,-1392.41"/>
<polygon fill="#da2d4f" stroke="#da2d4f" stroke-width="2" points="120.14,-1393.65 121.21,-1383.11 113.8,-1390.68 120.14,-1393.65"/>
</g>
<!-- node678 -->
<g id="node2" class="node">
<title>node678</title>
<polygon fill="#f9f9f9" stroke="black" points="119.23,-1302 37.23,-1302 37.23,-1266 119.23,-1266 119.23,-1302"/>
<text text-anchor="middle" x="78.23" y="-1280.3" font-family="Arial" font-size="14.00" fill="#1a1919">678 Unbox</text>
</g>
<!-- node1199 -->
<g id="node6" class="node">
<title>node1199</title>
<polygon fill="#3cb4a4" stroke="black" points="159.23,-1215 106.1,-1197 159.23,-1179 212.35,-1197 159.23,-1215"/>
<text text-anchor="middle" x="159.23" y="-1193.3" font-family="Arial" font-size="14.00" fill="#1a1919">1199 &lt;</text>
</g>
<!-- node678&#45;&gt;node1199 -->
<g id="edge5" class="edge">
<title>node678&#45;&gt;node1199</title>
<path fill="none" stroke="#3cb4a4" d="M94.62,-1265.8C107.65,-1252.13 125.91,-1232.97 139.69,-1218.5"/>
<polygon fill="#3cb4a4" stroke="#3cb4a4" points="142.46,-1220.66 146.83,-1211.01 137.4,-1215.84 142.46,-1220.66"/>
<text text-anchor="middle" x="127.73" y="-1236.8" font-family="arial" font-size="14.00" fill="#3cb4a4">x</text>
</g>
<!-- node1274 -->
<g id="node10" class="node">
<title>node1274</title>
<polygon fill="#3cb4a4" stroke="black" points="189.23,-443 134.77,-425 189.23,-407 243.69,-425 189.23,-443"/>
<text text-anchor="middle" x="189.23" y="-421.3" font-family="Arial" font-size="14.00" fill="#1a1919">1274 &lt;</text>
</g>
<!-- node678&#45;&gt;node1274 -->
<g id="edge10" class="edge">
<title>node678&#45;&gt;node1274</title>
<path fill="none" stroke="#3cb4a4" d="M78.23,-1265.74C78.23,-1248.57 78.23,-1221.46 78.23,-1198 78.23,-1198 78.23,-1198 78.23,-551.5 78.23,-501.78 127.71,-462.51 160.6,-441.89"/>
<polygon fill="#3cb4a4" stroke="#3cb4a4" points="162.64,-444.75 169.38,-436.58 159.01,-438.76 162.64,-444.75"/>
<text text-anchor="middle" x="81.73" y="-865.3" font-family="arial" font-size="14.00" fill="#3cb4a4">x</text>
</g>
<!-- node1305 -->
<g id="node13" class="node">
<title>node1305</title>
<polygon fill="#da2d4f" stroke="black" points="272.23,-210 144.23,-210 144.23,-174 272.23,-174 272.23,-210"/>
<text text-anchor="middle" x="208.23" y="-188.3" font-family="Arial" font-size="14.00" fill="#ffffff">1305 LoadIndexed</text>
</g>
<!-- node678&#45;&gt;node1305 -->
<g id="edge15" class="edge">
<title>node678&#45;&gt;node1305</title>
<path fill="none" stroke="#3cb4a4" d="M61.44,-1265.7C47.6,-1249.56 30.23,-1224.1 30.23,-1198 30.23,-1198 30.23,-1198 30.23,-264 30.23,-216.61 85.33,-199.98 134.22,-194.54"/>
<polygon fill="#3cb4a4" stroke="#3cb4a4" points="134.6,-198.02 144.22,-193.57 133.93,-191.06 134.6,-198.02"/>
<text text-anchor="middle" x="46.73" y="-740.8" font-family="arial" font-size="14.00" fill="#3cb4a4">index</text>
</g>
<!-- node1355 -->
<g id="node15" class="node">
<title>node1355</title>
<polygon fill="#ffa500" stroke="black" points="481.73,-1215 230.73,-1215 230.73,-1179 481.73,-1179 481.73,-1215"/>
<text text-anchor="middle" x="356.23" y="-1193.3" font-family="Arial" font-size="14.00" fill="#1a1919">1355 Guard, else TransferToInterpreter</text>
</g>
<!-- node678&#45;&gt;node1355 -->
<g id="edge1" class="edge">
<title>node678&#45;&gt;node1355</title>
<path fill="none" stroke="#da2d4f" stroke-width="2" d="M119.39,-1268.87C122.37,-1267.88 125.34,-1266.92 128.23,-1266 181.39,-1249.04 241.93,-1231.05 287.26,-1217.83"/>
<polygon fill="#da2d4f" stroke="#da2d4f" stroke-width="2" points="288.36,-1221.15 296.99,-1215 286.41,-1214.43 288.36,-1221.15"/>
</g>
<!-- node753 -->
<g id="node3" class="node">
<title>node753</title>
<polygon fill="#3cb4a4" stroke="black" points="356.23,-1302 285.68,-1284 356.23,-1266 426.78,-1284 356.23,-1302"/>
<text text-anchor="middle" x="356.23" y="-1280.3" font-family="Arial" font-size="14.00" fill="#1a1919">753 IsNull</text>
</g>
<!-- node753&#45;&gt;node1355 -->
<g id="edge18" class="edge">
<title>node753&#45;&gt;node1355</title>
<path fill="none" stroke="#3cb4a4" d="M356.23,-1265.8C356.23,-1254.16 356.23,-1238.55 356.23,-1225.24"/>
<polygon fill="#3cb4a4" stroke="#3cb4a4" points="359.73,-1225.18 356.23,-1215.18 352.73,-1225.18 359.73,-1225.18"/>
<text text-anchor="middle" x="360.23" y="-1236.8" font-family="arial" font-size="14.00" fill="#3cb4a4">?</text>
</g>
<!-- node1067 -->
<g id="node4" class="node">
<title>node1067</title>
<polygon fill="#da2d4f" stroke="black" points="509.23,-1134 203.23,-1134 203.23,-1098 509.23,-1098 509.23,-1134"/>
<text text-anchor="middle" x="356.23" y="-1112.3" font-family="Arial" font-size="14.00" fill="#ffffff">1067 LoadField RubyDynamicObject.metaClass</text>
</g>
<!-- node1119 -->
<g id="node5" class="node">
<title>node1119</title>
<polygon fill="#3cb4a4" stroke="black" points="433.23,-1047 373.24,-1029 433.23,-1011 493.22,-1029 433.23,-1047"/>
<text text-anchor="middle" x="433.23" y="-1025.3" font-family="Arial" font-size="14.00" fill="#1a1919">1119 ==</text>
</g>
<!-- node1067&#45;&gt;node1119 -->
<g id="edge3" class="edge">
<title>node1067&#45;&gt;node1119</title>
<path fill="none" stroke="#3cb4a4" d="M371.81,-1097.8C384.04,-1084.29 401.14,-1065.42 414.18,-1051.02"/>
<polygon fill="#3cb4a4" stroke="#3cb4a4" points="416.84,-1053.3 420.96,-1043.54 411.65,-1048.6 416.84,-1053.3"/>
<text text-anchor="middle" x="402.73" y="-1068.8" font-family="arial" font-size="14.00" fill="#3cb4a4">x</text>
</g>
<!-- node1358 -->
<g id="node16" class="node">
<title>node1358</title>
<polygon fill="#ffa500" stroke="black" points="470.73,-960 219.73,-960 219.73,-924 470.73,-924 470.73,-960"/>
<text text-anchor="middle" x="345.23" y="-938.3" font-family="Arial" font-size="14.00" fill="#1a1919">1358 Guard, else TransferToInterpreter</text>
</g>
<!-- node1067&#45;&gt;node1358 -->
<g id="edge2" class="edge">
<title>node1067&#45;&gt;node1358</title>
<path fill="none" stroke="#da2d4f" stroke-width="2" d="M355.13,-1097.88C353.22,-1068 349.26,-1006.11 346.97,-970.27"/>
<polygon fill="#da2d4f" stroke="#da2d4f" stroke-width="2" points="350.45,-969.81 346.32,-960.05 343.46,-970.25 350.45,-969.81"/>
</g>
<!-- node1119&#45;&gt;node1358 -->
<g id="edge20" class="edge">
<title>node1119&#45;&gt;node1358</title>
<path fill="none" stroke="#3cb4a4" d="M419.48,-1014.72C406.43,-1002.12 386.51,-982.88 370.59,-967.5"/>
<polygon fill="#3cb4a4" stroke="#3cb4a4" points="372.77,-964.73 363.14,-960.3 367.9,-969.77 372.77,-964.73"/>
<text text-anchor="middle" x="398.23" y="-981.8" font-family="arial" font-size="14.00" fill="#3cb4a4">?</text>
</g>
<!-- node1359 -->
<g id="node17" class="node">
<title>node1359</title>
<polygon fill="#ffa500" stroke="black" points="471.23,-887 197.23,-887 197.23,-851 471.23,-851 471.23,-887"/>
<text text-anchor="middle" x="334.23" y="-865.3" font-family="Arial" font-size="14.00" fill="#1a1919">1359 Guard not, else TransferToInterpreter</text>
</g>
<!-- node1199&#45;&gt;node1359 -->
<g id="edge22" class="edge">
<title>node1199&#45;&gt;node1359</title>
<path fill="none" stroke="#3cb4a4" d="M161.85,-1179.71C164.18,-1163.77 167.23,-1138.78 167.23,-1117 167.23,-1117 167.23,-1117 167.23,-941 167.23,-917.81 181.03,-902.09 200.71,-891.45"/>
<polygon fill="#3cb4a4" stroke="#3cb4a4" points="202.32,-894.56 209.8,-887.06 199.27,-888.26 202.32,-894.56"/>
<text text-anchor="middle" x="171.23" y="-1025.3" font-family="arial" font-size="14.00" fill="#3cb4a4">?</text>
</g>
<!-- node1258 -->
<g id="node7" class="node">
<title>node1258</title>
<polygon fill="#da2d4f" stroke="black" points="394.23,-806 184.23,-806 184.23,-770 394.23,-770 394.23,-806"/>
<text text-anchor="middle" x="289.23" y="-784.3" font-family="Arial" font-size="14.00" fill="#ffffff">1258 LoadField RubyArray.store</text>
</g>
<!-- node1262 -->
<g id="node8" class="node">
<title>node1262</title>
<polygon fill="#f9f9f9" stroke="black" points="466.23,-719 302.23,-719 302.23,-683 466.23,-683 466.23,-719"/>
<text text-anchor="middle" x="384.23" y="-697.3" font-family="Arial" font-size="14.00" fill="#1a1919">1262 InstanceOf a!# int[]</text>
</g>
<!-- node1258&#45;&gt;node1262 -->
<g id="edge8" class="edge">
<title>node1258&#45;&gt;node1262</title>
<path fill="none" stroke="#3cb4a4" d="M308.45,-769.8C322.49,-757.24 341.7,-740.05 357.27,-726.12"/>
<polygon fill="#3cb4a4" stroke="#3cb4a4" points="359.91,-728.45 365.03,-719.18 355.24,-723.24 359.91,-728.45"/>
<text text-anchor="middle" x="358.73" y="-740.8" font-family="arial" font-size="14.00" fill="#3cb4a4">value</text>
</g>
<!-- node1304 -->
<g id="node12" class="node">
<title>node1304</title>
<polygon fill="#f9f9f9" stroke="black" points="257.73,-665 96.73,-665 96.73,-629 257.73,-629 257.73,-665"/>
<text text-anchor="middle" x="177.23" y="-643.3" font-family="Arial" font-size="14.00" fill="#1a1919">1304 InstanceOf a# int[]</text>
</g>
<!-- node1258&#45;&gt;node1304 -->
<g id="edge14" class="edge">
<title>node1258&#45;&gt;node1304</title>
<path fill="none" stroke="#3cb4a4" d="M250.54,-769.98C242.15,-765.04 233.82,-759.04 227.23,-752 206.57,-729.93 192.89,-697.75 185.14,-675.04"/>
<polygon fill="#3cb4a4" stroke="#3cb4a4" points="188.41,-673.77 182,-665.34 181.75,-675.94 188.41,-673.77"/>
<text text-anchor="middle" x="243.73" y="-740.8" font-family="arial" font-size="14.00" fill="#3cb4a4">value</text>
</g>
<!-- node1258&#45;&gt;node1305 -->
<g id="edge30" class="edge">
<title>node1258&#45;&gt;node1305</title>
<path fill="none" stroke="#3cb4a4" d="M394.24,-781.53C445.48,-772.56 496.23,-751.24 496.23,-702 496.23,-702 496.23,-702 496.23,-264 496.23,-220.02 368.02,-203.12 282.68,-196.74"/>
<polygon fill="#3cb4a4" stroke="#3cb4a4" points="282.73,-193.24 272.5,-196.02 282.23,-200.22 282.73,-193.24"/>
<text text-anchor="middle" x="511.73" y="-464.8" font-family="arial" font-size="14.00" fill="#3cb4a4">array</text>
</g>
<!-- node1361 -->
<g id="node19" class="node">
<title>node1361</title>
<polygon fill="#ffa500" stroke="black" points="467.73,-611 216.73,-611 216.73,-575 467.73,-575 467.73,-611"/>
<text text-anchor="middle" x="342.23" y="-589.3" font-family="Arial" font-size="14.00" fill="#1a1919">1361 Guard, else TransferToInterpreter</text>
</g>
<!-- node1258&#45;&gt;node1361 -->
<g id="edge7" class="edge">
<title>node1258&#45;&gt;node1361</title>
<path fill="none" stroke="#da2d4f" stroke-width="2" d="M287.5,-769.7C285.94,-748.75 285.01,-712.6 293.23,-683 299.62,-659.99 312.95,-636.42 324.1,-619.32"/>
<polygon fill="#da2d4f" stroke="#da2d4f" stroke-width="2" points="327.02,-621.26 329.69,-611.01 321.21,-617.36 327.02,-621.26"/>
</g>
<!-- node1262&#45;&gt;node1361 -->
<g id="edge26" class="edge">
<title>node1262&#45;&gt;node1361</title>
<path fill="none" stroke="#3cb4a4" d="M377.48,-682.97C370.84,-666.22 360.62,-640.41 352.88,-620.89"/>
<polygon fill="#3cb4a4" stroke="#3cb4a4" points="356.04,-619.35 349.1,-611.34 349.53,-621.93 356.04,-619.35"/>
<text text-anchor="middle" x="373.23" y="-643.3" font-family="arial" font-size="14.00" fill="#3cb4a4">?</text>
</g>
<!-- node1272 -->
<g id="node9" class="node">
<title>node1272</title>
<polygon fill="#da2d4f" stroke="black" points="365.23,-530 161.23,-530 161.23,-494 365.23,-494 365.23,-530"/>
<text text-anchor="middle" x="263.23" y="-508.3" font-family="Arial" font-size="14.00" fill="#ffffff">1272 LoadField RubyArray.size</text>
</g>
<!-- node1272&#45;&gt;node1274 -->
<g id="edge11" class="edge">
<title>node1272&#45;&gt;node1274</title>
<path fill="none" stroke="#3cb4a4" d="M248.25,-493.8C236.53,-480.34 220.17,-461.55 207.65,-447.16"/>
<polygon fill="#3cb4a4" stroke="#3cb4a4" points="209.99,-444.52 200.78,-439.28 204.71,-449.12 209.99,-444.52"/>
<text text-anchor="middle" x="233.73" y="-464.8" font-family="arial" font-size="14.00" fill="#3cb4a4">y</text>
</g>
<!-- node1360 -->
<g id="node18" class="node">
<title>node1360</title>
<polygon fill="#ffa500" stroke="black" points="386.73,-356 135.73,-356 135.73,-320 386.73,-320 386.73,-356"/>
<text text-anchor="middle" x="261.23" y="-334.3" font-family="Arial" font-size="14.00" fill="#1a1919">1360 Guard, else TransferToInterpreter</text>
</g>
<!-- node1272&#45;&gt;node1360 -->
<g id="edge9" class="edge">
<title>node1272&#45;&gt;node1360</title>
<path fill="none" stroke="#da2d4f" stroke-width="2" d="M263.03,-493.88C262.68,-464 261.96,-402.11 261.54,-366.27"/>
<polygon fill="#da2d4f" stroke="#da2d4f" stroke-width="2" points="265.04,-366.01 261.43,-356.05 258.04,-366.09 265.04,-366.01"/>
</g>
<!-- node1274&#45;&gt;node1360 -->
<g id="edge24" class="edge">
<title>node1274&#45;&gt;node1360</title>
<path fill="none" stroke="#3cb4a4" d="M200.79,-410.34C211.33,-397.91 227.14,-379.24 239.95,-364.12"/>
<polygon fill="#3cb4a4" stroke="#3cb4a4" points="242.91,-366.04 246.7,-356.15 237.57,-361.51 242.91,-366.04"/>
<text text-anchor="middle" x="233.23" y="-377.8" font-family="arial" font-size="14.00" fill="#3cb4a4">?</text>
</g>
<!-- node1303 -->
<g id="node11" class="node">
<title>node1303</title>
<polygon fill="#ffa500" stroke="black" points="330.73,-283 85.73,-283 85.73,-247 330.73,-247 330.73,-283"/>
<text text-anchor="middle" x="208.23" y="-261.3" font-family="Arial" font-size="14.00" fill="#1a1919">1303 Guard, else ClassCastException</text>
</g>
<!-- node1303&#45;&gt;node1305 -->
<g id="edge13" class="edge">
<title>node1303&#45;&gt;node1305</title>
<path fill="none" stroke="#da2d4f" stroke-width="2" d="M208.23,-246.81C208.23,-238.79 208.23,-229.05 208.23,-220.07"/>
<polygon fill="#da2d4f" stroke="#da2d4f" stroke-width="2" points="211.73,-220.03 208.23,-210.03 204.73,-220.03 211.73,-220.03"/>
</g>
<!-- node1304&#45;&gt;node1303 -->
<g id="edge12" class="edge">
<title>node1304&#45;&gt;node1303</title>
<path fill="none" stroke="#3cb4a4" d="M149.79,-628.74C144.01,-623.75 138.63,-617.79 135.23,-611 77.23,-495.33 64.85,-433.91 126.23,-320 133.32,-306.83 145.19,-296.35 157.72,-288.25"/>
<polygon fill="#3cb4a4" stroke="#3cb4a4" points="159.67,-291.17 166.45,-283.03 156.07,-285.16 159.67,-291.17"/>
<text text-anchor="middle" x="91.23" y="-464.8" font-family="arial" font-size="14.00" fill="#3cb4a4">?</text>
</g>
<!-- node1380 -->
<g id="node20" class="node">
<title>node1380</title>
<polygon fill="#f9f9f9" stroke="black" points="305.73,-123 110.73,-123 110.73,-87 305.73,-87 305.73,-123"/>
<text text-anchor="middle" x="208.23" y="-101.3" font-family="Arial" font-size="14.00" fill="#1a1919">1380 BoxNode$AllocatingBox</text>
</g>
<!-- node1305&#45;&gt;node1380 -->
<g id="edge16" class="edge">
<title>node1305&#45;&gt;node1380</title>
<path fill="none" stroke="#da2d4f" stroke-width="2" d="M207.06,-173.92C206.72,-168.22 206.39,-161.84 206.23,-156 206.02,-148.65 206.16,-140.69 206.46,-133.33"/>
<polygon fill="#da2d4f" stroke="#da2d4f" stroke-width="2" points="209.96,-133.28 206.96,-123.12 202.97,-132.94 209.96,-133.28"/>
</g>
<!-- node1305&#45;&gt;node1380 -->
<g id="edge28" class="edge">
<title>node1305&#45;&gt;node1380</title>
<path fill="none" stroke="#3cb4a4" d="M208.23,-173.8C208.23,-162.16 208.23,-146.55 208.23,-133.24"/>
<polygon fill="#3cb4a4" stroke="#3cb4a4" points="211.73,-133.18 208.23,-123.18 204.73,-133.18 211.73,-133.18"/>
<text text-anchor="middle" x="224.73" y="-144.8" font-family="arial" font-size="14.00" fill="#3cb4a4">value</text>
</g>
<!-- node1348 -->
<g id="node14" class="node">
<title>node1348</title>
<polygon fill="#e98693" stroke="black" points="253.73,-36 162.73,-36 162.73,0 253.73,0 253.73,-36"/>
<text text-anchor="middle" x="208.23" y="-14.3" font-family="Arial" font-size="14.00" fill="#1a1919">1348 Return</text>
</g>
<!-- node1355&#45;&gt;node1067 -->
<g id="edge19" class="edge">
<title>node1355&#45;&gt;node1067</title>
<path fill="none" stroke="#da2d4f" stroke-width="2" d="M356.23,-1178.86C356.23,-1168.71 356.23,-1155.63 356.23,-1144.12"/>
<polygon fill="#da2d4f" stroke="#da2d4f" stroke-width="2" points="359.73,-1144.11 356.23,-1134.11 352.73,-1144.11 359.73,-1144.11"/>
</g>
<!-- node1358&#45;&gt;node1359 -->
<g id="edge21" class="edge">
<title>node1358&#45;&gt;node1359</title>
<path fill="none" stroke="#da2d4f" stroke-width="2" d="M342.56,-923.81C341.32,-915.79 339.81,-906.05 338.42,-897.07"/>
<polygon fill="#da2d4f" stroke="#da2d4f" stroke-width="2" points="341.86,-896.38 336.87,-887.03 334.94,-897.45 341.86,-896.38"/>
</g>
<!-- node1359&#45;&gt;node1258 -->
<g id="edge23" class="edge">
<title>node1359&#45;&gt;node1258</title>
<path fill="none" stroke="#da2d4f" stroke-width="2" d="M324.46,-850.86C318.51,-840.4 310.78,-826.83 304.07,-815.06"/>
<polygon fill="#da2d4f" stroke="#da2d4f" stroke-width="2" points="306.96,-813.07 298.97,-806.11 300.88,-816.53 306.96,-813.07"/>
</g>
<!-- node1360&#45;&gt;node1303 -->
<g id="edge25" class="edge">
<title>node1360&#45;&gt;node1303</title>
<path fill="none" stroke="#da2d4f" stroke-width="2" d="M248.4,-319.81C242.02,-311.27 234.18,-300.77 227.13,-291.32"/>
<polygon fill="#da2d4f" stroke="#da2d4f" stroke-width="2" points="229.73,-288.95 220.94,-283.03 224.12,-293.14 229.73,-288.95"/>
</g>
<!-- node1361&#45;&gt;node1272 -->
<g id="edge27" class="edge">
<title>node1361&#45;&gt;node1272</title>
<path fill="none" stroke="#da2d4f" stroke-width="2" d="M325.09,-574.86C314.11,-563.88 299.71,-549.48 287.56,-537.33"/>
<polygon fill="#da2d4f" stroke="#da2d4f" stroke-width="2" points="289.88,-534.7 280.34,-530.11 284.93,-539.65 289.88,-534.7"/>
</g>
<!-- node1380&#45;&gt;node1348 -->
<g id="edge17" class="edge">
<title>node1380&#45;&gt;node1348</title>
<path fill="none" stroke="#3cb4a4" d="M194.12,-86.84C190.5,-81.46 187.1,-75.27 185.23,-69 182.81,-60.93 184.79,-52.49 188.42,-44.89"/>
<polygon fill="#3cb4a4" stroke="#3cb4a4" points="191.51,-46.53 193.48,-36.12 185.45,-43.03 191.51,-46.53"/>
<text text-anchor="middle" x="202.23" y="-57.8" font-family="arial" font-size="14.00" fill="#3cb4a4">result</text>
</g>
<!-- node1380&#45;&gt;node1348 -->
<g id="edge29" class="edge">
<title>node1380&#45;&gt;node1348</title>
<path fill="none" stroke="#da2d4f" stroke-width="2" d="M214.78,-86.8C216.59,-81.21 218.32,-74.92 219.23,-69 220.39,-61.39 219.51,-53.2 217.83,-45.71"/>
<polygon fill="#da2d4f" stroke="#da2d4f" stroke-width="2" points="221.2,-44.74 215.17,-36.02 214.45,-46.59 221.2,-44.74"/>
</g>
<!-- node1381&#45;&gt;node678 -->
<g id="edge38" class="edge">
<title>node1381&#45;&gt;node678</title>
<path fill="none" stroke="#da2d4f" stroke-width="2" d="M118.16,-1346.86C111.34,-1336.3 102.48,-1322.56 94.83,-1310.71"/>
<polygon fill="#da2d4f" stroke="#da2d4f" stroke-width="2" points="97.64,-1308.61 89.27,-1302.11 91.75,-1312.41 97.64,-1308.61"/>
</g>
<!-- inline1118x1119 -->
<g id="node22" class="node">
<title>inline1118x1119</title>
<ellipse fill="#d7ede7" stroke="black" cx="600.23" cy="-1116" rx="73.35" ry="18"/>
<text text-anchor="middle" x="600.23" y="-1114.1" font-family="Arial" font-size="8.00" fill="#1a1919">1118 C(RubyClass@75acd777)</text>
</g>
<!-- inline1118x1119&#45;&gt;node1119 -->
<g id="edge4" class="edge">
<title>inline1118x1119&#45;&gt;node1119</title>
<path fill="none" stroke="#3cb4a4" d="M569.98,-1099.61C536.52,-1082.58 483.48,-1055.58 454.26,-1040.7"/>
<text text-anchor="middle" x="528.23" y="-1070.6" font-family="arial" font-size="8.00" fill="#3cb4a4">y</text>
</g>
<!-- inline5x1199 -->
<g id="node23" class="node">
<title>inline5x1199</title>
<ellipse fill="#d7ede7" stroke="black" cx="164.23" cy="-1284" rx="27" ry="18"/>
<text text-anchor="middle" x="164.23" y="-1282.1" font-family="Arial" font-size="8.00" fill="#1a1919">5 C(0)</text>
</g>
<!-- inline5x1199&#45;&gt;node1199 -->
<g id="edge6" class="edge">
<title>inline5x1199&#45;&gt;node1199</title>
<path fill="none" stroke="#3cb4a4" d="M163.22,-1265.8C162.34,-1250.95 161.09,-1229.64 160.22,-1214.89"/>
<text text-anchor="middle" x="164.23" y="-1238.6" font-family="arial" font-size="8.00" fill="#3cb4a4">y</text>
</g>
<!-- inline143x753 -->
<g id="node24" class="node">
<title>inline143x753</title>
<ellipse fill="#d7ede7" stroke="black" cx="356.23" cy="-1365" rx="27.46" ry="18"/>
<text text-anchor="middle" x="356.23" y="-1363.1" font-family="Arial" font-size="8.00" fill="#1a1919">143 T(6)</text>
</g>
<!-- inline143x753&#45;&gt;node753 -->
<g id="edge31" class="edge">
<title>inline143x753&#45;&gt;node753</title>
<path fill="none" stroke="#3cb4a4" d="M356.23,-1346.86C356.23,-1333.61 356.23,-1315.35 356.23,-1302.11"/>
<text text-anchor="middle" x="365.73" y="-1322.6" font-family="arial" font-size="8.00" fill="#3cb4a4">value</text>
</g>
<!-- inline158x1067 -->
<g id="node25" class="node">
<title>inline158x1067</title>
<ellipse fill="#d7ede7" stroke="black" cx="527.23" cy="-1197" rx="27.46" ry="18"/>
<text text-anchor="middle" x="527.23" y="-1195.1" font-family="Arial" font-size="8.00" fill="#1a1919">158 T(7)</text>
</g>
<!-- inline158x1067&#45;&gt;node1067 -->
<g id="edge32" class="edge">
<title>inline158x1067&#45;&gt;node1067</title>
<path fill="none" stroke="#3cb4a4" d="M505.54,-1185.71C500.83,-1183.49 495.86,-1181.16 491.23,-1179 458.38,-1163.7 420.92,-1146.52 393.81,-1134.13"/>
<text text-anchor="middle" x="461.23" y="-1154.6" font-family="arial" font-size="8.00" fill="#3cb4a4">object</text>
</g>
<!-- inline158x1258 -->
<g id="node26" class="node">
<title>inline158x1258</title>
<ellipse fill="#d7ede7" stroke="black" cx="152.23" cy="-869" rx="27.46" ry="18"/>
<text text-anchor="middle" x="152.23" y="-867.1" font-family="Arial" font-size="8.00" fill="#1a1919">158 T(7)</text>
</g>
<!-- inline158x1258&#45;&gt;node1258 -->
<g id="edge33" class="edge">
<title>inline158x1258&#45;&gt;node1258</title>
<path fill="none" stroke="#3cb4a4" d="M172.15,-856.51C195.15,-843.25 233.22,-821.3 259.68,-806.04"/>
<text text-anchor="middle" x="235.23" y="-826.6" font-family="arial" font-size="8.00" fill="#3cb4a4">object</text>
</g>
<!-- inline158x1272 -->
<g id="node27" class="node">
<title>inline158x1272</title>
<ellipse fill="#d7ede7" stroke="black" cx="171.23" cy="-593" rx="27.46" ry="18"/>
<text text-anchor="middle" x="171.23" y="-591.1" font-family="Arial" font-size="8.00" fill="#1a1919">158 T(7)</text>
</g>
<!-- inline158x1272&#45;&gt;node1272 -->
<g id="edge34" class="edge">
<title>inline158x1272&#45;&gt;node1272</title>
<path fill="none" stroke="#3cb4a4" d="M187.25,-578.24C202.8,-564.89 226.44,-544.59 243.21,-530.18"/>
<text text-anchor="middle" x="230.23" y="-550.6" font-family="arial" font-size="8.00" fill="#3cb4a4">object</text>
</g>
<!-- inline176x678 -->
<g id="node28" class="node">
<title>inline176x678</title>
<ellipse fill="#d7ede7" stroke="black" cx="27.23" cy="-1365" rx="27.46" ry="18"/>
<text text-anchor="middle" x="27.23" y="-1363.1" font-family="Arial" font-size="8.00" fill="#1a1919">176 T(8)</text>
</g>
<!-- inline176x678&#45;&gt;node678 -->
<g id="edge35" class="edge">
<title>inline176x678&#45;&gt;node678</title>
<path fill="none" stroke="#3cb4a4" d="M37.55,-1348.01C46.16,-1334.67 58.41,-1315.69 67.22,-1302.06"/>
<text text-anchor="middle" x="64.73" y="-1322.6" font-family="arial" font-size="8.00" fill="#3cb4a4">value</text>
</g>
<!-- inline2x1381 -->
<g id="node29" class="node">
<title>inline2x1381</title>
<ellipse fill="#d7ede7" stroke="black" cx="165.23" cy="-1446" rx="27" ry="18"/>
<text text-anchor="middle" x="165.23" y="-1444.1" font-family="Arial" font-size="8.00" fill="#1a1919">2 P(1)</text>
</g>
<!-- inline2x1381&#45;&gt;node1381 -->
<g id="edge36" class="edge">
<title>inline2x1381&#45;&gt;node1381</title>
<path fill="none" stroke="#3cb4a4" d="M157.77,-1428.63C151.71,-1415.34 143.2,-1396.67 137.05,-1383.17"/>
<text text-anchor="middle" x="158.73" y="-1403.6" font-family="arial" font-size="8.00" fill="#3cb4a4">array</text>
</g>
</g>
</svg>
