<?xml version="1.0" encoding="UTF-8" standalone="no"?>
<!DOCTYPE svg PUBLIC "-//W3C//DTD SVG 1.1//EN"
 "http://www.w3.org/Graphics/SVG/1.1/DTD/svg11.dtd">
<!-- Generated by graphviz version 2.44.1 (20200629.0846)
 -->
<!-- Title: G Pages: 1 -->
<svg width="1167pt" height="1549pt"
 viewBox="0.00 0.00 1167.00 1549.00" xmlns="http://www.w3.org/2000/svg" xmlns:xlink="http://www.w3.org/1999/xlink">
<g id="graph0" class="graph" transform="scale(1 1) rotate(0) translate(4 1545)">
<title>G</title>
<!-- node0 -->
<g id="node1" class="node">
<title>node0</title>
<polygon fill="#e98693" stroke="black" points="300,-1541 244,-1541 244,-1505 300,-1505 300,-1541"/>
<text text-anchor="middle" x="272" y="-1519.3" font-family="Arial" font-size="14.00" fill="#1a1919">0 Start</text>
</g>
<!-- node2368 -->
<g id="node28" class="node">
<title>node2368</title>
<polygon fill="#da2d4f" stroke="black" points="364.5,-1460 251.5,-1460 251.5,-1424 364.5,-1424 364.5,-1460"/>
<text text-anchor="middle" x="308" y="-1438.3" font-family="Arial" font-size="14.00" fill="#ffffff">2368 Load T(...)</text>
</g>
<!-- node0&#45;&gt;node2368 -->
<g id="edge47" class="edge">
<title>node0&#45;&gt;node2368</title>
<path fill="none" stroke="#da2d4f" stroke-width="2" d="M279.81,-1504.86C284.53,-1494.51 290.64,-1481.1 295.96,-1469.41"/>
<polygon fill="#da2d4f" stroke="#da2d4f" stroke-width="2" points="299.24,-1470.66 300.2,-1460.11 292.87,-1467.76 299.24,-1470.66"/>
</g>
<!-- node532 -->
<g id="node2" class="node">
<title>node532</title>
<polygon fill="#f9f9f9" stroke="black" points="400,-1379 318,-1379 318,-1343 400,-1343 400,-1379"/>
<text text-anchor="middle" x="359" y="-1357.3" font-family="Arial" font-size="14.00" fill="#1a1919">532 Unbox</text>
</g>
<!-- node794 -->
<g id="node3" class="node">
<title>node794</title>
<polygon fill="#e98693" stroke="black" points="278.5,-1306 211.5,-1306 211.5,-1270 278.5,-1270 278.5,-1306"/>
<text text-anchor="middle" x="245" y="-1284.3" font-family="Arial" font-size="14.00" fill="#1a1919">794 End</text>
</g>
<!-- node532&#45;&gt;node794 -->
<g id="edge1" class="edge">
<title>node532&#45;&gt;node794</title>
<path fill="none" stroke="#da2d4f" stroke-width="2" d="M331.69,-1342.99C316.58,-1333.58 297.59,-1321.76 281.25,-1311.57"/>
<polygon fill="#da2d4f" stroke="#da2d4f" stroke-width="2" points="282.82,-1308.43 272.48,-1306.11 279.12,-1314.37 282.82,-1308.43"/>
</g>
<!-- node2348 -->
<g id="node25" class="node">
<title>node2348</title>
<polygon fill="#f9f9f9" stroke="black" points="299,-457 241,-457 241,-421 299,-421 299,-457"/>
<text text-anchor="middle" x="270" y="-435.3" font-family="Arial" font-size="14.00" fill="#1a1919">2348 ϕ</text>
</g>
<!-- node532&#45;&gt;node2348 -->
<g id="edge38" class="edge">
<title>node532&#45;&gt;node2348</title>
<path fill="none" stroke="#3cb4a4" d="M317.82,-1360.42C223.52,-1360.28 0,-1353.17 0,-1289 0,-1289 0,-1289 0,-525 0,-426.47 115.41,-480.86 211,-457 217.38,-455.41 224.11,-453.6 230.65,-451.76"/>
<polygon fill="#3cb4a4" stroke="#3cb4a4" points="232.05,-455 240.7,-448.89 230.13,-448.27 232.05,-455"/>
<text text-anchor="middle" x="27.5" y="-920.8" font-family="arial" font-size="14.00" fill="#3cb4a4">from 794</text>
</g>
<!-- node2356 -->
<g id="node26" class="node">
<title>node2356</title>
<polygon fill="#f9f9f9" stroke="black" points="847,-123 789,-123 789,-87 847,-87 847,-123"/>
<text text-anchor="middle" x="818" y="-101.3" font-family="Arial" font-size="14.00" fill="#1a1919">2356 ϕ</text>
</g>
<!-- node532&#45;&gt;node2356 -->
<g id="edge41" class="edge">
<title>node532&#45;&gt;node2356</title>
<path fill="none" stroke="#3cb4a4" d="M400.05,-1360.4C555.33,-1361.36 1098,-1359.69 1098,-1289 1098,-1289 1098,-1289 1098,-191 1098,-179.67 1089.06,-179.21 1079,-174 991.52,-128.75 954.74,-153.57 856.9,-122.9"/>
<polygon fill="#3cb4a4" stroke="#3cb4a4" points="857.82,-119.53 847.23,-119.76 855.66,-126.18 857.82,-119.53"/>
<text text-anchor="middle" x="1128.5" y="-760.8" font-family="arial" font-size="14.00" fill="#3cb4a4">from 1178</text>
</g>
<!-- node2367 -->
<g id="node27" class="node">
<title>node2367</title>
<polygon fill="#f9f9f9" stroke="black" points="400.5,-986 205.5,-986 205.5,-950 400.5,-950 400.5,-986"/>
<text text-anchor="middle" x="303" y="-964.3" font-family="Arial" font-size="14.00" fill="#1a1919">2367 BoxNode$AllocatingBox</text>
</g>
<!-- node532&#45;&gt;node2367 -->
<g id="edge43" class="edge">
<title>node532&#45;&gt;node2367</title>
<path fill="none" stroke="#3cb4a4" d="M363.54,-1342.92C366.93,-1328.62 371,-1307.63 371,-1289 371,-1289 371,-1289 371,-1040 371,-1020.56 357.54,-1004.36 342.59,-992.37"/>
<polygon fill="#3cb4a4" stroke="#3cb4a4" points="344.33,-989.3 334.21,-986.15 340.16,-994.92 344.33,-989.3"/>
<text text-anchor="middle" x="387.5" y="-1167.8" font-family="arial" font-size="14.00" fill="#3cb4a4">value</text>
</g>
<!-- node795 -->
<g id="node4" class="node">
<title>node795</title>
<polygon fill="#e98693" stroke="black" points="241.5,-1233 134.5,-1233 134.5,-1197 241.5,-1197 241.5,-1233"/>
<text text-anchor="middle" x="188" y="-1211.3" font-family="Arial" font-size="14.00" fill="#1a1919">795 LoopBegin</text>
</g>
<!-- node794&#45;&gt;node795 -->
<g id="edge2" class="edge">
<title>node794&#45;&gt;node795</title>
<path fill="none" stroke="#da2d4f" stroke-width="2" d="M231.2,-1269.81C224.27,-1261.18 215.74,-1250.56 208.1,-1241.03"/>
<polygon fill="#da2d4f" stroke="#da2d4f" stroke-width="2" points="210.66,-1238.64 201.67,-1233.03 205.2,-1243.02 210.66,-1238.64"/>
</g>
<!-- node1012 -->
<g id="node6" class="node">
<title>node1012</title>
<polygon fill="#e98693" stroke="black" points="217,-1146 159,-1146 159,-1110 217,-1110 217,-1146"/>
<text text-anchor="middle" x="188" y="-1124.3" font-family="Arial" font-size="14.00" fill="#1a1919">1012 If</text>
</g>
<!-- node795&#45;&gt;node1012 -->
<g id="edge3" class="edge">
<title>node795&#45;&gt;node1012</title>
<path fill="none" stroke="#da2d4f" stroke-width="2" d="M188,-1196.8C188,-1185.16 188,-1169.55 188,-1156.24"/>
<polygon fill="#da2d4f" stroke="#da2d4f" stroke-width="2" points="191.5,-1156.18 188,-1146.18 184.5,-1156.18 191.5,-1156.18"/>
</g>
<!-- node795&#45;&gt;node2348 -->
<g id="edge37" class="edge">
<title>node795&#45;&gt;node2348</title>
<path fill="none" stroke="#343d46" stroke-dasharray="5,2" d="M124.67,-1193.75C96.68,-1180.46 70,-1159.74 70,-1129 70,-1129 70,-1129 70,-525 70,-506.65 185.45,-467.12 240.92,-449.18"/>
<polygon fill="#343d46" stroke="#343d46" points="123.62,-1197.11 134.18,-1197.97 126.46,-1190.71 123.62,-1197.11"/>
</g>
<!-- node973 -->
<g id="node5" class="node">
<title>node973</title>
<polygon fill="#3cb4a4" stroke="black" points="175,-370 128.25,-352 175,-334 221.75,-352 175,-370"/>
<text text-anchor="middle" x="175" y="-348.3" font-family="Arial" font-size="14.00" fill="#1a1919">973 &lt;</text>
</g>
<!-- node973&#45;&gt;node1012 -->
<g id="edge6" class="edge">
<title>node973&#45;&gt;node1012</title>
<path fill="none" stroke="#3cb4a4" d="M158.44,-363.76C138.6,-378.1 108,-405.49 108,-438 108,-1042 108,-1042 108,-1042 108,-1068.89 129.5,-1090.75 150.21,-1105.56"/>
<polygon fill="#3cb4a4" stroke="#3cb4a4" points="148.42,-1108.57 158.67,-1111.28 152.34,-1102.78 148.42,-1108.57"/>
<text text-anchor="middle" x="112" y="-760.8" font-family="arial" font-size="14.00" fill="#3cb4a4">?</text>
</g>
<!-- node1015 -->
<g id="node7" class="node">
<title>node1015</title>
<polygon fill="#e98693" stroke="black" points="342.5,-1059 257.5,-1059 257.5,-1023 342.5,-1023 342.5,-1059"/>
<text text-anchor="middle" x="300" y="-1037.3" font-family="Arial" font-size="14.00" fill="#1a1919">1015 Begin</text>
</g>
<!-- node1012&#45;&gt;node1015 -->
<g id="edge8" class="edge">
<title>node1012&#45;&gt;node1015</title>
<path fill="none" stroke="#da2d4f" stroke-width="2" d="M210.66,-1109.8C227.52,-1097.01 250.7,-1079.42 269.22,-1065.36"/>
<polygon fill="#da2d4f" stroke="#da2d4f" stroke-width="2" points="271.52,-1068.01 277.37,-1059.18 267.29,-1062.43 271.52,-1068.01"/>
<text text-anchor="middle" x="255.5" y="-1080.8" font-family="arial" font-size="14.00" fill="#da2d4f">F</text>
</g>
<!-- node2221 -->
<g id="node22" class="node">
<title>node2221</title>
<polygon fill="#e98693" stroke="black" points="239.5,-1059 136.5,-1059 136.5,-1023 239.5,-1023 239.5,-1059"/>
<text text-anchor="middle" x="188" y="-1037.3" font-family="Arial" font-size="14.00" fill="#1a1919">2221 LoopExit</text>
</g>
<!-- node1012&#45;&gt;node2221 -->
<g id="edge7" class="edge">
<title>node1012&#45;&gt;node2221</title>
<path fill="none" stroke="#da2d4f" stroke-width="2" d="M188,-1109.8C188,-1098.16 188,-1082.55 188,-1069.24"/>
<polygon fill="#da2d4f" stroke="#da2d4f" stroke-width="2" points="191.5,-1069.18 188,-1059.18 184.5,-1069.18 191.5,-1069.18"/>
<text text-anchor="middle" x="192.5" y="-1080.8" font-family="arial" font-size="14.00" fill="#da2d4f">T</text>
</g>
<!-- node1178 -->
<g id="node8" class="node">
<title>node1178</title>
<polygon fill="#e98693" stroke="black" points="580,-986 506,-986 506,-950 580,-950 580,-986"/>
<text text-anchor="middle" x="543" y="-964.3" font-family="Arial" font-size="14.00" fill="#1a1919">1178 End</text>
</g>
<!-- node1015&#45;&gt;node1178 -->
<g id="edge9" class="edge">
<title>node1015&#45;&gt;node1178</title>
<path fill="none" stroke="#da2d4f" stroke-width="2" d="M342.61,-1027.55C385.5,-1015.02 451.52,-995.73 495.94,-982.75"/>
<polygon fill="#da2d4f" stroke="#da2d4f" stroke-width="2" points="497.01,-986.08 505.63,-979.92 495.05,-979.36 497.01,-986.08"/>
</g>
<!-- node1179 -->
<g id="node9" class="node">
<title>node1179</title>
<polygon fill="#e98693" stroke="black" points="657,-899 543,-899 543,-863 657,-863 657,-899"/>
<text text-anchor="middle" x="600" y="-877.3" font-family="Arial" font-size="14.00" fill="#1a1919">1179 LoopBegin</text>
</g>
<!-- node1178&#45;&gt;node1179 -->
<g id="edge10" class="edge">
<title>node1178&#45;&gt;node1179</title>
<path fill="none" stroke="#da2d4f" stroke-width="2" d="M554.53,-949.8C562.65,-937.7 573.64,-921.3 582.79,-907.67"/>
<polygon fill="#da2d4f" stroke="#da2d4f" stroke-width="2" points="585.82,-909.43 588.48,-899.18 580.01,-905.53 585.82,-909.43"/>
</g>
<!-- node1389 -->
<g id="node11" class="node">
<title>node1389</title>
<polygon fill="#e98693" stroke="black" points="629,-826 571,-826 571,-790 629,-790 629,-826"/>
<text text-anchor="middle" x="600" y="-804.3" font-family="Arial" font-size="14.00" fill="#1a1919">1389 If</text>
</g>
<!-- node1179&#45;&gt;node1389 -->
<g id="edge11" class="edge">
<title>node1179&#45;&gt;node1389</title>
<path fill="none" stroke="#da2d4f" stroke-width="2" d="M600,-862.81C600,-854.79 600,-845.05 600,-836.07"/>
<polygon fill="#da2d4f" stroke="#da2d4f" stroke-width="2" points="603.5,-836.03 600,-826.03 596.5,-836.03 603.5,-836.03"/>
</g>
<!-- node1179&#45;&gt;node2356 -->
<g id="edge40" class="edge">
<title>node1179&#45;&gt;node2356</title>
<path fill="none" stroke="#343d46" stroke-dasharray="5,2" d="M666.89,-868.26C722.3,-856.56 792,-836.41 792,-809 792,-809 792,-809 792,-278 792,-231.67 774.62,-219.15 785,-174 789.23,-155.58 799.14,-136.37 807.01,-123.08"/>
<polygon fill="#343d46" stroke="#343d46" points="666.18,-864.83 657.09,-870.27 667.59,-871.69 666.18,-864.83"/>
</g>
<!-- node1351 -->
<g id="node10" class="node">
<title>node1351</title>
<polygon fill="#3cb4a4" stroke="black" points="818,-36 763.54,-18 818,0 872.46,-18 818,-36"/>
<text text-anchor="middle" x="818" y="-14.3" font-family="Arial" font-size="14.00" fill="#1a1919">1351 &lt;</text>
</g>
<!-- node1351&#45;&gt;node1389 -->
<g id="edge14" class="edge">
<title>node1351&#45;&gt;node1389</title>
<path fill="none" stroke="#3cb4a4" d="M788.11,-26.18C763.34,-32.78 730.96,-43.17 723,-54 654.22,-147.59 710,-198.86 710,-315 710,-722 710,-722 710,-722 710,-759.07 670.4,-782.26 638.71,-794.88"/>
<polygon fill="#3cb4a4" stroke="#3cb4a4" points="637.32,-791.66 629.19,-798.46 639.78,-798.21 637.32,-791.66"/>
<text text-anchor="middle" x="714" y="-391.8" font-family="arial" font-size="14.00" fill="#3cb4a4">?</text>
</g>
<!-- node1392 -->
<g id="node12" class="node">
<title>node1392</title>
<polygon fill="#e98693" stroke="black" points="642.5,-685 557.5,-685 557.5,-649 642.5,-649 642.5,-685"/>
<text text-anchor="middle" x="600" y="-663.3" font-family="Arial" font-size="14.00" fill="#1a1919">1392 Begin</text>
</g>
<!-- node1389&#45;&gt;node1392 -->
<g id="edge16" class="edge">
<title>node1389&#45;&gt;node1392</title>
<path fill="none" stroke="#da2d4f" stroke-width="2" d="M600,-789.96C600,-766.4 600,-723.64 600,-695.53"/>
<polygon fill="#da2d4f" stroke="#da2d4f" stroke-width="2" points="603.5,-695.18 600,-685.18 596.5,-695.18 603.5,-695.18"/>
<text text-anchor="middle" x="604.5" y="-760.8" font-family="arial" font-size="14.00" fill="#da2d4f">F</text>
</g>
<!-- node1863 -->
<g id="node17" class="node">
<title>node1863</title>
<polygon fill="#e98693" stroke="black" points="494.5,-739 391.5,-739 391.5,-703 494.5,-703 494.5,-739"/>
<text text-anchor="middle" x="443" y="-717.3" font-family="Arial" font-size="14.00" fill="#1a1919">1863 LoopExit</text>
</g>
<!-- node1389&#45;&gt;node1863 -->
<g id="edge15" class="edge">
<title>node1389&#45;&gt;node1863</title>
<path fill="none" stroke="#da2d4f" stroke-width="2" d="M570.84,-791.21C546.22,-777.88 510.71,-758.66 483.36,-743.85"/>
<polygon fill="#da2d4f" stroke="#da2d4f" stroke-width="2" points="484.89,-740.7 474.43,-739.02 481.56,-746.86 484.89,-740.7"/>
<text text-anchor="middle" x="534.5" y="-760.8" font-family="arial" font-size="14.00" fill="#da2d4f">T</text>
</g>
<!-- node1500 -->
<g id="node13" class="node">
<title>node1500</title>
<ellipse fill="black" stroke="black" cx="270" cy="-352" rx="18" ry="18"/>
</g>
<!-- node1392&#45;&gt;node1500 -->
<g id="edge17" class="edge">
<title>node1392&#45;&gt;node1500</title>
<path fill="none" stroke="#da2d4f" stroke-width="2" d="M600,-648.75C600,-629.62 600,-597.86 600,-570.5 600,-570.5 600,-570.5 600,-438 600,-368.99 361.52,-394.49 297,-370 295.61,-369.47 294.21,-368.87 292.83,-368.21"/>
<polygon fill="#da2d4f" stroke="#da2d4f" stroke-width="2" points="294.45,-365.11 284.01,-363.3 291.05,-371.22 294.45,-365.11"/>
</g>
<!-- node1763 -->
<g id="node14" class="node">
<title>node1763</title>
<polygon fill="#ffa500" stroke="black" points="682,-297 416,-297 416,-261 682,-261 682,-297"/>
<text text-anchor="middle" x="549" y="-275.3" font-family="Arial" font-size="14.00" fill="#1a1919">1763 Guard not, else ArithmeticException</text>
</g>
<!-- node1500&#45;&gt;node1763 -->
<g id="edge19" class="edge">
<title>node1500&#45;&gt;node1763</title>
<path fill="none" stroke="#da2d4f" stroke-width="2" d="M284.35,-340.67C288.3,-338.19 292.69,-335.75 297,-334 335.01,-318.53 378.14,-307.21 417.83,-299.06"/>
<polygon fill="#da2d4f" stroke="#da2d4f" stroke-width="2" points="418.73,-302.45 427.85,-297.05 417.35,-295.59 418.73,-302.45"/>
</g>
<!-- node1766 -->
<g id="node16" class="node">
<title>node1766</title>
<polygon fill="#3cb4a4" stroke="black" points="932,-210 794.25,-192 932,-174 1069.75,-192 932,-210"/>
<text text-anchor="middle" x="932" y="-188.3" font-family="Arial" font-size="14.00" fill="#1a1919">1766 IntegerSubExact</text>
</g>
<!-- node1763&#45;&gt;node1766 -->
<g id="edge26" class="edge">
<title>node1763&#45;&gt;node1766</title>
<path fill="none" stroke="#3cb4a4" d="M626.05,-260.9C699.18,-244.67 807.5,-220.63 873.71,-205.94"/>
<polygon fill="#3cb4a4" stroke="#3cb4a4" points="874.56,-209.33 883.57,-203.75 873.04,-202.5 874.56,-209.33"/>
<text text-anchor="middle" x="780.5" y="-231.8" font-family="arial" font-size="14.00" fill="#3cb4a4">guard</text>
</g>
<!-- node1868 -->
<g id="node18" class="node">
<title>node1868</title>
<polygon fill="#e98693" stroke="black" points="681,-210 577,-210 577,-174 681,-174 681,-210"/>
<text text-anchor="middle" x="629" y="-188.3" font-family="Arial" font-size="14.00" fill="#1a1919">1868 LoopEnd</text>
</g>
<!-- node1763&#45;&gt;node1868 -->
<g id="edge21" class="edge">
<title>node1763&#45;&gt;node1868</title>
<path fill="none" stroke="#da2d4f" stroke-width="2" d="M565.19,-260.8C576.9,-248.36 592.89,-231.36 605.94,-217.5"/>
<polygon fill="#da2d4f" stroke="#da2d4f" stroke-width="2" points="608.53,-219.86 612.83,-210.18 603.43,-215.06 608.53,-219.86"/>
</g>
<!-- node1764 -->
<g id="node15" class="node">
<title>node1764</title>
<polygon fill="#3cb4a4" stroke="black" points="549,-36 361.48,-18 549,0 736.52,-18 549,-36"/>
<text text-anchor="middle" x="549" y="-14.3" font-family="Arial" font-size="14.00" fill="#1a1919">1764 IntegerSubExactOverflow</text>
</g>
<!-- node1764&#45;&gt;node1763 -->
<g id="edge20" class="edge">
<title>node1764&#45;&gt;node1763</title>
<path fill="none" stroke="#3cb4a4" d="M549,-36.32C549,-80.38 549,-197.01 549,-250.49"/>
<polygon fill="#3cb4a4" stroke="#3cb4a4" points="545.5,-250.6 549,-260.6 552.5,-250.6 545.5,-250.6"/>
<text text-anchor="middle" x="553" y="-144.8" font-family="arial" font-size="14.00" fill="#3cb4a4">?</text>
</g>
<!-- node1766&#45;&gt;node2356 -->
<g id="edge42" class="edge">
<title>node1766&#45;&gt;node2356</title>
<path fill="none" stroke="#3cb4a4" d="M873.25,-181.66C857.31,-176.49 841.34,-168.47 830,-156 824.34,-149.78 821.22,-141.36 819.54,-133.21"/>
<polygon fill="#3cb4a4" stroke="#3cb4a4" points="822.99,-132.61 818.1,-123.21 816.06,-133.61 822.99,-132.61"/>
<text text-anchor="middle" x="861" y="-144.8" font-family="arial" font-size="14.00" fill="#3cb4a4">from 1868</text>
</g>
<!-- node2123 -->
<g id="node19" class="node">
<title>node2123</title>
<polygon fill="#ffa500" stroke="black" points="499,-631 233,-631 233,-595 499,-595 499,-631"/>
<text text-anchor="middle" x="366" y="-609.3" font-family="Arial" font-size="14.00" fill="#1a1919">2123 Guard not, else ArithmeticException</text>
</g>
<!-- node1863&#45;&gt;node2123 -->
<g id="edge27" class="edge">
<title>node1863&#45;&gt;node2123</title>
<path fill="none" stroke="#da2d4f" stroke-width="2" d="M430.63,-702.97C418.19,-685.84 398.85,-659.22 384.57,-639.56"/>
<polygon fill="#da2d4f" stroke="#da2d4f" stroke-width="2" points="387.31,-637.37 378.6,-631.34 381.64,-641.49 387.31,-637.37"/>
</g>
<!-- node2126 -->
<g id="node21" class="node">
<title>node2126</title>
<polygon fill="#3cb4a4" stroke="black" points="396,-544 258.25,-526 396,-508 533.75,-526 396,-544"/>
<text text-anchor="middle" x="396" y="-522.3" font-family="Arial" font-size="14.00" fill="#1a1919">2126 IntegerSubExact</text>
</g>
<!-- node2123&#45;&gt;node2126 -->
<g id="edge34" class="edge">
<title>node2123&#45;&gt;node2126</title>
<path fill="none" stroke="#3cb4a4" d="M372.07,-594.8C376.3,-582.82 382.02,-566.61 386.81,-553.05"/>
<polygon fill="#3cb4a4" stroke="#3cb4a4" points="390.22,-553.91 390.24,-543.31 383.61,-551.58 390.22,-553.91"/>
<text text-anchor="middle" x="399.5" y="-565.8" font-family="arial" font-size="14.00" fill="#3cb4a4">guard</text>
</g>
<!-- node2226 -->
<g id="node23" class="node">
<title>node2226</title>
<polygon fill="#e98693" stroke="black" points="240,-544 136,-544 136,-508 240,-508 240,-544"/>
<text text-anchor="middle" x="188" y="-522.3" font-family="Arial" font-size="14.00" fill="#1a1919">2226 LoopEnd</text>
</g>
<!-- node2123&#45;&gt;node2226 -->
<g id="edge29" class="edge">
<title>node2123&#45;&gt;node2226</title>
<path fill="none" stroke="#da2d4f" stroke-width="2" d="M329.98,-594.8C302.02,-581.45 263.1,-562.86 233.07,-548.52"/>
<polygon fill="#da2d4f" stroke="#da2d4f" stroke-width="2" points="234.2,-545.18 223.66,-544.03 231.18,-551.5 234.2,-545.18"/>
</g>
<!-- node2124 -->
<g id="node20" class="node">
<title>node2124</title>
<polygon fill="#3cb4a4" stroke="black" points="494,-370 306.48,-352 494,-334 681.52,-352 494,-370"/>
<text text-anchor="middle" x="494" y="-348.3" font-family="Arial" font-size="14.00" fill="#1a1919">2124 IntegerSubExactOverflow</text>
</g>
<!-- node2124&#45;&gt;node2123 -->
<g id="edge28" class="edge">
<title>node2124&#45;&gt;node2123</title>
<path fill="none" stroke="#3cb4a4" d="M505.62,-368.93C529.03,-403.13 576.86,-485.28 543,-544 530.3,-566.03 509.15,-580.96 485.8,-591.06"/>
<polygon fill="#3cb4a4" stroke="#3cb4a4" points="484.38,-587.86 476.4,-594.83 486.99,-594.36 484.38,-587.86"/>
<text text-anchor="middle" x="558" y="-478.8" font-family="arial" font-size="14.00" fill="#3cb4a4">?</text>
</g>
<!-- node2126&#45;&gt;node2348 -->
<g id="edge39" class="edge">
<title>node2126&#45;&gt;node2348</title>
<path fill="none" stroke="#3cb4a4" d="M384.51,-509.41C375.94,-498.65 363.44,-484.59 350,-475 337.59,-466.14 322.58,-458.84 308.93,-453.24"/>
<polygon fill="#3cb4a4" stroke="#3cb4a4" points="309.88,-449.86 299.29,-449.47 307.32,-456.37 309.88,-449.86"/>
<text text-anchor="middle" x="397" y="-478.8" font-family="arial" font-size="14.00" fill="#3cb4a4">from 2226</text>
</g>
<!-- node2221&#45;&gt;node2367 -->
<g id="edge35" class="edge">
<title>node2221&#45;&gt;node2367</title>
<path fill="none" stroke="#da2d4f" stroke-width="2" d="M215.55,-1022.99C230.8,-1013.58 249.95,-1001.76 266.44,-991.57"/>
<polygon fill="#da2d4f" stroke="#da2d4f" stroke-width="2" points="268.61,-994.35 275.28,-986.11 264.93,-988.39 268.61,-994.35"/>
</g>
<!-- node2322 -->
<g id="node24" class="node">
<title>node2322</title>
<polygon fill="#e98693" stroke="black" points="347.5,-899 256.5,-899 256.5,-863 347.5,-863 347.5,-899"/>
<text text-anchor="middle" x="302" y="-877.3" font-family="Arial" font-size="14.00" fill="#1a1919">2322 Return</text>
</g>
<!-- node2348&#45;&gt;node973 -->
<g id="edge4" class="edge">
<title>node2348&#45;&gt;node973</title>
<path fill="none" stroke="#3cb4a4" d="M250.78,-420.8C234.84,-406.54 212.23,-386.31 195.86,-371.66"/>
<polygon fill="#3cb4a4" stroke="#3cb4a4" points="198.17,-369.03 188.38,-364.97 193.5,-374.25 198.17,-369.03"/>
<text text-anchor="middle" x="232.5" y="-391.8" font-family="arial" font-size="14.00" fill="#3cb4a4">x</text>
</g>
<!-- node2348&#45;&gt;node1500 -->
<g id="edge18" class="edge">
<title>node2348&#45;&gt;node1500</title>
<path fill="none" stroke="#3cb4a4" d="M270,-420.8C270,-409.16 270,-393.55 270,-380.24"/>
<polygon fill="#3cb4a4" stroke="#3cb4a4" points="273.5,-380.18 270,-370.18 266.5,-380.18 273.5,-380.18"/>
<text text-anchor="middle" x="286.5" y="-391.8" font-family="arial" font-size="14.00" fill="#3cb4a4">value</text>
</g>
<!-- node2348&#45;&gt;node2124 -->
<g id="edge30" class="edge">
<title>node2348&#45;&gt;node2124</title>
<path fill="none" stroke="#3cb4a4" d="M299.28,-426.89C337.29,-412.47 404.01,-387.15 448.6,-370.23"/>
<polygon fill="#3cb4a4" stroke="#3cb4a4" points="449.93,-373.47 458.04,-366.64 447.45,-366.92 449.93,-373.47"/>
<text text-anchor="middle" x="398.5" y="-391.8" font-family="arial" font-size="14.00" fill="#3cb4a4">x</text>
</g>
<!-- node2348&#45;&gt;node2126 -->
<g id="edge32" class="edge">
<title>node2348&#45;&gt;node2126</title>
<path fill="none" stroke="#3cb4a4" d="M294.93,-457.23C309,-466.92 326.94,-479.2 343,-490 350.37,-494.95 358.34,-500.25 365.81,-505.19"/>
<polygon fill="#3cb4a4" stroke="#3cb4a4" points="364.01,-508.2 374.28,-510.78 367.86,-502.35 364.01,-508.2"/>
<text text-anchor="middle" x="346.5" y="-478.8" font-family="arial" font-size="14.00" fill="#3cb4a4">x</text>
</g>
<!-- node2356&#45;&gt;node1351 -->
<g id="edge12" class="edge">
<title>node2356&#45;&gt;node1351</title>
<path fill="none" stroke="#3cb4a4" d="M818,-86.8C818,-75.16 818,-59.55 818,-46.24"/>
<polygon fill="#3cb4a4" stroke="#3cb4a4" points="821.5,-46.18 818,-36.18 814.5,-46.18 821.5,-46.18"/>
<text text-anchor="middle" x="821.5" y="-57.8" font-family="arial" font-size="14.00" fill="#3cb4a4">x</text>
</g>
<!-- node2356&#45;&gt;node1764 -->
<g id="edge22" class="edge">
<title>node2356&#45;&gt;node1764</title>
<path fill="none" stroke="#3cb4a4" d="M788.96,-94.82C743.84,-80.57 656.32,-52.91 600.36,-35.23"/>
<polygon fill="#3cb4a4" stroke="#3cb4a4" points="601.23,-31.83 590.64,-32.16 599.12,-38.51 601.23,-31.83"/>
<text text-anchor="middle" x="702.5" y="-57.8" font-family="arial" font-size="14.00" fill="#3cb4a4">x</text>
</g>
<!-- node2356&#45;&gt;node1766 -->
<g id="edge24" class="edge">
<title>node2356&#45;&gt;node1766</title>
<path fill="none" stroke="#3cb4a4" d="M847.35,-119.12C869.35,-128.96 895.73,-140.78 896,-141 904.58,-148 912.1,-157.51 918.03,-166.36"/>
<polygon fill="#3cb4a4" stroke="#3cb4a4" points="915.1,-168.28 923.4,-174.87 921.02,-164.55 915.1,-168.28"/>
<text text-anchor="middle" x="913.5" y="-144.8" font-family="arial" font-size="14.00" fill="#3cb4a4">x</text>
</g>
<!-- node2367&#45;&gt;node2322 -->
<g id="edge36" class="edge">
<title>node2367&#45;&gt;node2322</title>
<path fill="none" stroke="#3cb4a4" d="M302.8,-949.8C302.66,-938.16 302.48,-922.55 302.32,-909.24"/>
<polygon fill="#3cb4a4" stroke="#3cb4a4" points="305.82,-909.13 302.2,-899.18 298.82,-909.22 305.82,-909.13"/>
<text text-anchor="middle" x="320" y="-920.8" font-family="arial" font-size="14.00" fill="#3cb4a4">result</text>
</g>
<!-- node2367&#45;&gt;node2322 -->
<g id="edge44" class="edge">
<title>node2367&#45;&gt;node2322</title>
<path fill="none" stroke="#da2d4f" stroke-width="2" d="M301.24,-949.93C300.73,-944.23 300.25,-937.85 300,-932 299.69,-924.65 299.8,-916.7 300.09,-909.34"/>
<polygon fill="#da2d4f" stroke="#da2d4f" stroke-width="2" points="303.6,-909.29 300.61,-899.13 296.61,-908.93 303.6,-909.29"/>
</g>
<!-- node2368&#45;&gt;node532 -->
<g id="edge48" class="edge">
<title>node2368&#45;&gt;node532</title>
<path fill="none" stroke="#da2d4f" stroke-width="2" d="M319.07,-1423.86C325.88,-1413.3 334.75,-1399.56 342.4,-1387.71"/>
<polygon fill="#da2d4f" stroke="#da2d4f" stroke-width="2" points="345.47,-1389.41 347.96,-1379.11 339.59,-1385.61 345.47,-1389.41"/>
</g>
<!-- inline23x973 -->
<g id="node29" class="node">
<title>inline23x973</title>
<ellipse fill="#d7ede7" stroke="black" cx="175" cy="-439" rx="27" ry="18"/>
<text text-anchor="middle" x="175" y="-437.1" font-family="Arial" font-size="8.00" fill="#1a1919">23 C(1)</text>
</g>
<!-- inline23x973&#45;&gt;node973 -->
<g id="edge5" class="edge">
<title>inline23x973&#45;&gt;node973</title>
<path fill="none" stroke="#3cb4a4" d="M175,-420.8C175,-406.05 175,-384.92 175,-370.18"/>
<text text-anchor="middle" x="177" y="-393.6" font-family="arial" font-size="8.00" fill="#3cb4a4">y</text>
</g>
<!-- inline23x1351 -->
<g id="node30" class="node">
<title>inline23x1351</title>
<ellipse fill="#d7ede7" stroke="black" cx="892" cy="-105" rx="27" ry="18"/>
<text text-anchor="middle" x="892" y="-103.1" font-family="Arial" font-size="8.00" fill="#1a1919">23 C(1)</text>
</g>
<!-- inline23x1351&#45;&gt;node1351 -->
<g id="edge13" class="edge">
<title>inline23x1351&#45;&gt;node1351</title>
<path fill="none" stroke="#3cb4a4" d="M878.77,-88.8C864.8,-72.76 843,-47.71 829.65,-32.39"/>
<text text-anchor="middle" x="861" y="-59.6" font-family="arial" font-size="8.00" fill="#3cb4a4">y</text>
</g>
<!-- inline23x1764 -->
<g id="node31" class="node">
<title>inline23x1764</title>
<ellipse fill="#d7ede7" stroke="black" cx="494" cy="-105" rx="27" ry="18"/>
<text text-anchor="middle" x="494" y="-103.1" font-family="Arial" font-size="8.00" fill="#1a1919">23 C(1)</text>
</g>
<!-- inline23x1764&#45;&gt;node1764 -->
<g id="edge23" class="edge">
<title>inline23x1764&#45;&gt;node1764</title>
<path fill="none" stroke="#3cb4a4" d="M504.35,-88.01C514.12,-72.91 528.7,-50.38 538.51,-35.21"/>
<text text-anchor="middle" x="526" y="-59.6" font-family="arial" font-size="8.00" fill="#3cb4a4">y</text>
</g>
<!-- inline23x1766 -->
<g id="node32" class="node">
<title>inline23x1766</title>
<ellipse fill="#d7ede7" stroke="black" cx="932" cy="-279" rx="27" ry="18"/>
<text text-anchor="middle" x="932" y="-277.1" font-family="Arial" font-size="8.00" fill="#1a1919">23 C(1)</text>
</g>
<!-- inline23x1766&#45;&gt;node1766 -->
<g id="edge25" class="edge">
<title>inline23x1766&#45;&gt;node1766</title>
<path fill="none" stroke="#3cb4a4" d="M932,-260.8C932,-246.05 932,-224.92 932,-210.18"/>
<text text-anchor="middle" x="934" y="-233.6" font-family="arial" font-size="8.00" fill="#3cb4a4">y</text>
</g>
<!-- inline23x2124 -->
<g id="node33" class="node">
<title>inline23x2124</title>
<ellipse fill="#d7ede7" stroke="black" cx="655" cy="-439" rx="27" ry="18"/>
<text text-anchor="middle" x="655" y="-437.1" font-family="Arial" font-size="8.00" fill="#1a1919">23 C(1)</text>
</g>
<!-- inline23x2124&#45;&gt;node2124 -->
<g id="edge31" class="edge">
<title>inline23x2124&#45;&gt;node2124</title>
<path fill="none" stroke="#3cb4a4" d="M645.45,-421.84C638.15,-410.81 627.11,-396.66 614,-388 597.16,-376.87 576.72,-369.21 557.52,-363.97"/>
<text text-anchor="middle" x="631" y="-393.6" font-family="arial" font-size="8.00" fill="#3cb4a4">y</text>
</g>
<!-- inline23x2126 -->
<g id="node34" class="node">
<title>inline23x2126</title>
<ellipse fill="#d7ede7" stroke="black" cx="544" cy="-613" rx="27" ry="18"/>
<text text-anchor="middle" x="544" y="-611.1" font-family="Arial" font-size="8.00" fill="#1a1919">23 C(1)</text>
</g>
<!-- inline23x2126&#45;&gt;node2126 -->
<g id="edge33" class="edge">
<title>inline23x2126&#45;&gt;node2126</title>
<path fill="none" stroke="#3cb4a4" d="M524.04,-600.54C497.13,-585.08 449.27,-557.6 420.3,-540.96"/>
<text text-anchor="middle" x="480" y="-567.6" font-family="arial" font-size="8.00" fill="#3cb4a4">y</text>
</g>
<!-- inline161x532 -->
<g id="node35" class="node">
<title>inline161x532</title>
<ellipse fill="#d7ede7" stroke="black" cx="410" cy="-1442" rx="27.46" ry="18"/>
<text text-anchor="middle" x="410" y="-1440.1" font-family="Arial" font-size="8.00" fill="#1a1919">161 T(7)</text>
</g>
<!-- inline161x532&#45;&gt;node532 -->
<g id="edge45" class="edge">
<title>inline161x532&#45;&gt;node532</title>
<path fill="none" stroke="#3cb4a4" d="M399.68,-1425.01C391.06,-1411.67 378.81,-1392.69 370.01,-1379.06"/>
<text text-anchor="middle" x="395.5" y="-1399.6" font-family="arial" font-size="8.00" fill="#3cb4a4">value</text>
</g>
<!-- inline2x2368 -->
<g id="node36" class="node">
<title>inline2x2368</title>
<ellipse fill="#d7ede7" stroke="black" cx="345" cy="-1523" rx="27" ry="18"/>
<text text-anchor="middle" x="345" y="-1521.1" font-family="Arial" font-size="8.00" fill="#1a1919">2 P(1)</text>
</g>
<!-- inline2x2368&#45;&gt;node2368 -->
<g id="edge46" class="edge">
<title>inline2x2368&#45;&gt;node2368</title>
<path fill="none" stroke="#3cb4a4" d="M337.33,-1505.63C331.11,-1492.34 322.36,-1473.67 316.04,-1460.17"/>
<text text-anchor="middle" x="336.5" y="-1480.6" font-family="arial" font-size="8.00" fill="#3cb4a4">array</text>
</g>
</g>
</svg>
