<?xml version="1.0" encoding="UTF-8" standalone="no"?>
<!DOCTYPE svg PUBLIC "-//W3C//DTD SVG 1.1//EN"
 "http://www.w3.org/Graphics/SVG/1.1/DTD/svg11.dtd">
<!-- Generated by graphviz version 2.44.1 (20200629.0846)
 -->
<!-- Title: G Pages: 1 -->
<svg width="956pt" height="662pt"
 viewBox="0.00 0.00 955.50 662.00" xmlns="http://www.w3.org/2000/svg" xmlns:xlink="http://www.w3.org/1999/xlink">
<g id="graph0" class="graph" transform="scale(1 1) rotate(0) translate(4 658)">
<title>G</title>
<!-- node0 -->
<g id="node1" class="node">
<title>node0</title>
<polygon fill="#e98693" stroke="black" points="56,-654 0,-654 0,-618 56,-618 56,-654"/>
<text text-anchor="middle" x="28" y="-632.3" font-family="Arial" font-size="14.00" fill="#1a1919">0 Start</text>
</g>
<!-- node1922 -->
<g id="node12" class="node">
<title>node1922</title>
<polygon fill="#da2d4f" stroke="black" points="120.5,-573 7.5,-573 7.5,-537 120.5,-537 120.5,-573"/>
<text text-anchor="middle" x="64" y="-551.3" font-family="Arial" font-size="14.00" fill="#ffffff">1922 Load T(...)</text>
</g>
<!-- node0&#45;&gt;node1922 -->
<g id="edge17" class="edge">
<title>node0&#45;&gt;node1922</title>
<path fill="none" stroke="#da2d4f" stroke-width="2" d="M35.81,-617.86C40.53,-607.51 46.64,-594.1 51.96,-582.41"/>
<polygon fill="#da2d4f" stroke="#da2d4f" stroke-width="2" points="55.24,-583.66 56.2,-573.11 48.87,-580.76 55.24,-583.66"/>
</g>
<!-- node545 -->
<g id="node2" class="node">
<title>node545</title>
<polygon fill="#f9f9f9" stroke="black" points="173,-492 91,-492 91,-456 173,-456 173,-492"/>
<text text-anchor="middle" x="132" y="-470.3" font-family="Arial" font-size="14.00" fill="#1a1919">545 Unbox</text>
</g>
<!-- node616 -->
<g id="node3" class="node">
<title>node616</title>
<polygon fill="#ffa500" stroke="black" points="464,-405 226,-405 226,-369 464,-369 464,-405"/>
<text text-anchor="middle" x="345" y="-383.3" font-family="Arial" font-size="14.00" fill="#1a1919">616 Guard, else ClassCastException</text>
</g>
<!-- node545&#45;&gt;node616 -->
<g id="edge1" class="edge">
<title>node545&#45;&gt;node616</title>
<path fill="none" stroke="#da2d4f" stroke-width="2" d="M173.07,-456.61C207.14,-443.02 255.79,-423.6 292.65,-408.89"/>
<polygon fill="#da2d4f" stroke="#da2d4f" stroke-width="2" points="294.24,-412.02 302.23,-405.07 291.65,-405.52 294.24,-412.02"/>
</g>
<!-- node1831 -->
<g id="node7" class="node">
<title>node1831</title>
<polygon fill="#3cb4a4" stroke="black" points="149,-351 39.74,-333 149,-315 258.26,-333 149,-351"/>
<text text-anchor="middle" x="149" y="-329.3" font-family="Arial" font-size="14.00" fill="#1a1919">1831 SignExtend</text>
</g>
<!-- node545&#45;&gt;node1831 -->
<g id="edge5" class="edge">
<title>node545&#45;&gt;node1831</title>
<path fill="none" stroke="#3cb4a4" d="M134.08,-455.96C136.99,-432.17 142.3,-388.79 145.73,-360.7"/>
<polygon fill="#3cb4a4" stroke="#3cb4a4" points="149.21,-361.1 146.95,-350.75 142.26,-360.25 149.21,-361.1"/>
<text text-anchor="middle" x="153.5" y="-426.8" font-family="arial" font-size="14.00" fill="#3cb4a4">value</text>
</g>
<!-- node1850 -->
<g id="node8" class="node">
<title>node1850</title>
<polygon fill="#ffa500" stroke="black" points="470.5,-297 219.5,-297 219.5,-261 470.5,-261 470.5,-297"/>
<text text-anchor="middle" x="345" y="-275.3" font-family="Arial" font-size="14.00" fill="#1a1919">1850 Guard, else TransferToInterpreter</text>
</g>
<!-- node616&#45;&gt;node1850 -->
<g id="edge3" class="edge">
<title>node616&#45;&gt;node1850</title>
<path fill="none" stroke="#da2d4f" stroke-width="2" d="M345,-368.97C345,-352.38 345,-326.88 345,-307.43"/>
<polygon fill="#da2d4f" stroke="#da2d4f" stroke-width="2" points="348.5,-307.34 345,-297.34 341.5,-307.34 348.5,-307.34"/>
</g>
<!-- node617 -->
<g id="node4" class="node">
<title>node617</title>
<polygon fill="#f9f9f9" stroke="black" points="510.5,-492 191.5,-492 191.5,-456 510.5,-456 510.5,-492"/>
<text text-anchor="middle" x="351" y="-470.3" font-family="Arial" font-size="14.00" fill="#1a1919">617 InstanceOf org/truffleruby/core/proc/RubyProc</text>
</g>
<!-- node617&#45;&gt;node616 -->
<g id="edge2" class="edge">
<title>node617&#45;&gt;node616</title>
<path fill="none" stroke="#3cb4a4" d="M349.79,-455.8C348.96,-444.16 347.86,-428.55 346.92,-415.24"/>
<polygon fill="#3cb4a4" stroke="#3cb4a4" points="350.41,-414.9 346.21,-405.18 343.43,-415.4 350.41,-414.9"/>
<text text-anchor="middle" x="352" y="-426.8" font-family="arial" font-size="14.00" fill="#3cb4a4">?</text>
</g>
<!-- node623 -->
<g id="node5" class="node">
<title>node623</title>
<polygon fill="#3cb4a4" stroke="black" points="555,-405 484.45,-387 555,-369 625.55,-387 555,-405"/>
<text text-anchor="middle" x="555" y="-383.3" font-family="Arial" font-size="14.00" fill="#1a1919">623 IsNull</text>
</g>
<!-- node623&#45;&gt;node1850 -->
<g id="edge6" class="edge">
<title>node623&#45;&gt;node1850</title>
<path fill="none" stroke="#3cb4a4" d="M532.53,-374.66C498.05,-357.25 431.51,-323.67 387.68,-301.54"/>
<polygon fill="#3cb4a4" stroke="#3cb4a4" points="389.19,-298.39 378.69,-297.01 386.04,-304.64 389.19,-298.39"/>
<text text-anchor="middle" x="485" y="-329.3" font-family="arial" font-size="14.00" fill="#3cb4a4">?</text>
</g>
<!-- node1308 -->
<g id="node6" class="node">
<title>node1308</title>
<polygon fill="#e98693" stroke="black" points="586.5,-36 495.5,-36 495.5,0 586.5,0 586.5,-36"/>
<text text-anchor="middle" x="541" y="-14.3" font-family="Arial" font-size="14.00" fill="#1a1919">1308 Return</text>
</g>
<!-- node1920 -->
<g id="node10" class="node">
<title>node1920</title>
<polygon fill="#da2d4f" stroke="black" points="564.5,-210 485.5,-210 485.5,-174 564.5,-174 564.5,-210"/>
<text text-anchor="middle" x="525" y="-188.3" font-family="Arial" font-size="14.00" fill="#ffffff">1920 Alloc</text>
</g>
<!-- node1831&#45;&gt;node1920 -->
<g id="edge9" class="edge">
<title>node1831&#45;&gt;node1920</title>
<path fill="none" stroke="#3cb4a4" d="M149.5,-315.04C150.93,-298.76 155.71,-274.68 171,-261 215.25,-221.4 388.45,-203.14 475.08,-196.35"/>
<polygon fill="#3cb4a4" stroke="#3cb4a4" points="475.5,-199.82 485.21,-195.57 474.97,-192.84 475.5,-199.82"/>
<text text-anchor="middle" x="191" y="-275.3" font-family="arial" font-size="14.00" fill="#3cb4a4">values</text>
</g>
<!-- node1850&#45;&gt;node1920 -->
<g id="edge7" class="edge">
<title>node1850&#45;&gt;node1920</title>
<path fill="none" stroke="#da2d4f" stroke-width="2" d="M381.43,-260.8C409.82,-247.39 449.4,-228.7 479.81,-214.34"/>
<polygon fill="#da2d4f" stroke="#da2d4f" stroke-width="2" points="481.39,-217.47 488.94,-210.03 478.4,-211.14 481.39,-217.47"/>
</g>
<!-- node1915 -->
<g id="node9" class="node">
<title>node1915</title>
<polygon fill="#f9f9f9" stroke="black" points="947.5,-297 488.5,-297 488.5,-261 947.5,-261 947.5,-297"/>
<text text-anchor="middle" x="718" y="-275.3" font-family="Arial" font-size="14.00" fill="#1a1919">1915 VirtualInstance(19) org.truffleruby.core.basicobject.RubyBasicObject</text>
</g>
<!-- node1915&#45;&gt;node1920 -->
<g id="edge8" class="edge">
<title>node1915&#45;&gt;node1920</title>
<path fill="none" stroke="#3cb4a4" d="M598.05,-260.99C584.96,-256.34 572.31,-250.46 561,-243 551.89,-236.99 544.33,-227.84 538.52,-218.99"/>
<polygon fill="#3cb4a4" stroke="#3cb4a4" points="541.48,-217.12 533.31,-210.38 535.49,-220.75 541.48,-217.12"/>
<text text-anchor="middle" x="602.5" y="-231.8" font-family="arial" font-size="14.00" fill="#3cb4a4">virtualObjects</text>
</g>
<!-- node1921 -->
<g id="node11" class="node">
<title>node1921</title>
<polygon fill="#343d46" stroke="black" points="698.5,-123 553.5,-123 553.5,-87 698.5,-87 698.5,-123"/>
<text text-anchor="middle" x="626" y="-101.3" font-family="Arial" font-size="14.00" fill="#ffffff">1921 AllocatedObject</text>
</g>
<!-- node1915&#45;&gt;node1921 -->
<g id="edge11" class="edge">
<title>node1915&#45;&gt;node1921</title>
<path fill="none" stroke="#3cb4a4" d="M708.84,-260.88C692.65,-230.61 658.9,-167.51 639.85,-131.9"/>
<polygon fill="#3cb4a4" stroke="#3cb4a4" points="642.92,-130.22 635.12,-123.05 636.75,-133.52 642.92,-130.22"/>
<text text-anchor="middle" x="719" y="-188.3" font-family="arial" font-size="14.00" fill="#3cb4a4">virtualObject</text>
</g>
<!-- node1920&#45;&gt;node1308 -->
<g id="edge10" class="edge">
<title>node1920&#45;&gt;node1308</title>
<path fill="none" stroke="#da2d4f" stroke-width="2" d="M526.59,-173.88C529.37,-144 535.13,-82.11 538.46,-46.27"/>
<polygon fill="#da2d4f" stroke="#da2d4f" stroke-width="2" points="541.97,-46.33 539.41,-36.05 535,-45.68 541.97,-46.33"/>
</g>
<!-- node1920&#45;&gt;node1921 -->
<g id="edge12" class="edge">
<title>node1920&#45;&gt;node1921</title>
<path fill="none" stroke="#3cb4a4" d="M545.44,-173.8C560.5,-161.13 581.16,-143.73 597.79,-129.74"/>
<polygon fill="#3cb4a4" stroke="#3cb4a4" points="600.19,-132.29 605.59,-123.18 595.69,-126.94 600.19,-132.29"/>
<text text-anchor="middle" x="604" y="-144.8" font-family="arial" font-size="14.00" fill="#3cb4a4">commit</text>
</g>
<!-- node1921&#45;&gt;node1308 -->
<g id="edge4" class="edge">
<title>node1921&#45;&gt;node1308</title>
<path fill="none" stroke="#3cb4a4" d="M608.8,-86.8C596.36,-74.36 579.36,-57.36 565.5,-43.5"/>
<polygon fill="#3cb4a4" stroke="#3cb4a4" points="567.72,-40.77 558.18,-36.18 562.77,-45.72 567.72,-40.77"/>
<text text-anchor="middle" x="605" y="-57.8" font-family="arial" font-size="14.00" fill="#3cb4a4">result</text>
</g>
<!-- node1922&#45;&gt;node545 -->
<g id="edge18" class="edge">
<title>node1922&#45;&gt;node545</title>
<path fill="none" stroke="#da2d4f" stroke-width="2" d="M78.75,-536.86C88.02,-526.09 100.13,-512.02 110.46,-500.02"/>
<polygon fill="#da2d4f" stroke="#da2d4f" stroke-width="2" points="113.4,-501.97 117.27,-492.11 108.1,-497.4 113.4,-501.97"/>
</g>
<!-- inline158x617 -->
<g id="node13" class="node">
<title>inline158x617</title>
<ellipse fill="#d7ede7" stroke="black" cx="351" cy="-555" rx="27.46" ry="18"/>
<text text-anchor="middle" x="351" y="-553.1" font-family="Arial" font-size="8.00" fill="#1a1919">158 T(7)</text>
</g>
<!-- inline158x617&#45;&gt;node617 -->
<g id="edge13" class="edge">
<title>inline158x617&#45;&gt;node617</title>
<path fill="none" stroke="#3cb4a4" d="M351,-536.86C351,-523.61 351,-505.35 351,-492.11"/>
<text text-anchor="middle" x="360.5" y="-512.6" font-family="arial" font-size="8.00" fill="#3cb4a4">value</text>
</g>
<!-- inline158x623 -->
<g id="node14" class="node">
<title>inline158x623</title>
<ellipse fill="#d7ede7" stroke="black" cx="556" cy="-474" rx="27.46" ry="18"/>
<text text-anchor="middle" x="556" y="-472.1" font-family="Arial" font-size="8.00" fill="#1a1919">158 T(7)</text>
</g>
<!-- inline158x623&#45;&gt;node623 -->
<g id="edge14" class="edge">
<title>inline158x623&#45;&gt;node623</title>
<path fill="none" stroke="#3cb4a4" d="M555.8,-455.8C555.62,-441.05 555.38,-419.92 555.2,-405.18"/>
<text text-anchor="middle" x="564.5" y="-428.6" font-family="arial" font-size="8.00" fill="#3cb4a4">value</text>
</g>
<!-- inline173x545 -->
<g id="node15" class="node">
<title>inline173x545</title>
<ellipse fill="#d7ede7" stroke="black" cx="166" cy="-555" rx="27.46" ry="18"/>
<text text-anchor="middle" x="166" y="-553.1" font-family="Arial" font-size="8.00" fill="#1a1919">173 T(8)</text>
</g>
<!-- inline173x545&#45;&gt;node545 -->
<g id="edge15" class="edge">
<title>inline173x545&#45;&gt;node545</title>
<path fill="none" stroke="#3cb4a4" d="M158.79,-537.25C153.06,-523.93 145.08,-505.38 139.32,-492"/>
<text text-anchor="middle" x="159.5" y="-512.6" font-family="arial" font-size="8.00" fill="#3cb4a4">value</text>
</g>
<!-- inline2x1922 -->
<g id="node16" class="node">
<title>inline2x1922</title>
<ellipse fill="#d7ede7" stroke="black" cx="101" cy="-636" rx="27" ry="18"/>
<text text-anchor="middle" x="101" y="-634.1" font-family="Arial" font-size="8.00" fill="#1a1919">2 P(1)</text>
</g>
<!-- inline2x1922&#45;&gt;node1922 -->
<g id="edge16" class="edge">
<title>inline2x1922&#45;&gt;node1922</title>
<path fill="none" stroke="#3cb4a4" d="M93.33,-618.63C87.11,-605.34 78.36,-586.67 72.04,-573.17"/>
<text text-anchor="middle" x="92.5" y="-593.6" font-family="arial" font-size="8.00" fill="#3cb4a4">array</text>
</g>
</g>
</svg>
