<?xml version="1.0" encoding="UTF-8" standalone="no"?>
<!DOCTYPE svg PUBLIC "-//W3C//DTD SVG 1.1//EN"
 "http://www.w3.org/Graphics/SVG/1.1/DTD/svg11.dtd">
<!-- Generated by graphviz version 2.44.1 (20200629.0846)
 -->
<!-- Title: G Pages: 1 -->
<svg width="861pt" height="1377pt"
 viewBox="0.00 0.00 860.58 1377.00" xmlns="http://www.w3.org/2000/svg" xmlns:xlink="http://www.w3.org/1999/xlink">
<g id="graph0" class="graph" transform="scale(1 1) rotate(0) translate(4 1373)">
<title>G</title>
<!-- node0 -->
<g id="node1" class="node">
<title>node0</title>
<polygon fill="#e98693" stroke="black" points="90.58,-1369 34.58,-1369 34.58,-1333 90.58,-1333 90.58,-1369"/>
<text text-anchor="middle" x="62.58" y="-1347.3" font-family="Arial" font-size="14.00" fill="#1a1919">0 Start</text>
</g>
<!-- node3945 -->
<g id="node25" class="node">
<title>node3945</title>
<polygon fill="#da2d4f" stroke="black" points="155.08,-1288 42.08,-1288 42.08,-1252 155.08,-1252 155.08,-1288"/>
<text text-anchor="middle" x="98.58" y="-1266.3" font-family="Arial" font-size="14.00" fill="#ffffff">3945 Load T(...)</text>
</g>
<!-- node0&#45;&gt;node3945 -->
<g id="edge42" class="edge">
<title>node0&#45;&gt;node3945</title>
<path fill="none" stroke="#da2d4f" stroke-width="2" d="M70.4,-1332.86C75.11,-1322.51 81.22,-1309.1 86.55,-1297.41"/>
<polygon fill="#da2d4f" stroke="#da2d4f" stroke-width="2" points="89.83,-1298.66 90.79,-1288.11 83.46,-1295.76 89.83,-1298.66"/>
</g>
<!-- node579 -->
<g id="node2" class="node">
<title>node579</title>
<polygon fill="#f9f9f9" stroke="black" points="208.58,-1207 126.58,-1207 126.58,-1171 208.58,-1171 208.58,-1207"/>
<text text-anchor="middle" x="167.58" y="-1185.3" font-family="Arial" font-size="14.00" fill="#1a1919">579 Unbox</text>
</g>
<!-- node734 -->
<g id="node3" class="node">
<title>node734</title>
<polygon fill="#f9f9f9" stroke="black" points="446.58,-1120 364.58,-1120 364.58,-1084 446.58,-1084 446.58,-1120"/>
<text text-anchor="middle" x="405.58" y="-1098.3" font-family="Arial" font-size="14.00" fill="#1a1919">734 Unbox</text>
</g>
<!-- node579&#45;&gt;node734 -->
<g id="edge1" class="edge">
<title>node579&#45;&gt;node734</title>
<path fill="none" stroke="#da2d4f" stroke-width="2" d="M181.07,-1170.98C190.85,-1159.84 205.03,-1145.93 220.58,-1138 243.46,-1126.33 307.94,-1115.8 354.34,-1109.41"/>
<polygon fill="#da2d4f" stroke="#da2d4f" stroke-width="2" points="355.09,-1112.84 364.53,-1108.03 354.15,-1105.9 355.09,-1112.84"/>
</g>
<!-- node1477 -->
<g id="node7" class="node">
<title>node1477</title>
<polygon fill="#3cb4a4" stroke="black" points="61.58,-1120 -0.08,-1102 61.58,-1084 123.25,-1102 61.58,-1120"/>
<text text-anchor="middle" x="61.58" y="-1098.3" font-family="Arial" font-size="14.00" fill="#1a1919">1477 ==</text>
</g>
<!-- node579&#45;&gt;node1477 -->
<g id="edge5" class="edge">
<title>node579&#45;&gt;node1477</title>
<path fill="none" stroke="#3cb4a4" d="M146.13,-1170.8C128.4,-1156.58 103.26,-1136.42 85.01,-1121.78"/>
<polygon fill="#3cb4a4" stroke="#3cb4a4" points="87.15,-1119.01 77.16,-1115.49 82.77,-1124.47 87.15,-1119.01"/>
<text text-anchor="middle" x="124.08" y="-1141.8" font-family="arial" font-size="14.00" fill="#3cb4a4">x</text>
</g>
<!-- node2293 -->
<g id="node11" class="node">
<title>node2293</title>
<polygon fill="#3cb4a4" stroke="black" points="202.58,-1120 140.92,-1102 202.58,-1084 264.25,-1102 202.58,-1120"/>
<text text-anchor="middle" x="202.58" y="-1098.3" font-family="Arial" font-size="14.00" fill="#1a1919">2293 ==</text>
</g>
<!-- node579&#45;&gt;node2293 -->
<g id="edge12" class="edge">
<title>node579&#45;&gt;node2293</title>
<path fill="none" stroke="#3cb4a4" d="M172.79,-1170.64C175.88,-1160.91 180.07,-1148.63 184.58,-1138 186.16,-1134.29 187.97,-1130.42 189.82,-1126.68"/>
<polygon fill="#3cb4a4" stroke="#3cb4a4" points="192.94,-1128.25 194.38,-1117.76 186.71,-1125.06 192.94,-1128.25"/>
<text text-anchor="middle" x="188.08" y="-1141.8" font-family="arial" font-size="14.00" fill="#3cb4a4">x</text>
</g>
<!-- node888 -->
<g id="node4" class="node">
<title>node888</title>
<polygon fill="#f9f9f9" stroke="black" points="739.58,-1039 657.58,-1039 657.58,-1003 739.58,-1003 739.58,-1039"/>
<text text-anchor="middle" x="698.58" y="-1017.3" font-family="Arial" font-size="14.00" fill="#1a1919">888 Unbox</text>
</g>
<!-- node734&#45;&gt;node888 -->
<g id="edge2" class="edge">
<title>node734&#45;&gt;node888</title>
<path fill="none" stroke="#da2d4f" stroke-width="2" d="M446.63,-1089.93C499.23,-1075.75 590.4,-1051.17 647.45,-1035.79"/>
<polygon fill="#da2d4f" stroke="#da2d4f" stroke-width="2" points="648.6,-1039.1 657.34,-1033.12 646.77,-1032.34 648.6,-1039.1"/>
</g>
<!-- node3936 -->
<g id="node23" class="node">
<title>node3936</title>
<polygon fill="#f9f9f9" stroke="black" points="436.58,-210 378.58,-210 378.58,-174 436.58,-174 436.58,-210"/>
<text text-anchor="middle" x="407.58" y="-188.3" font-family="Arial" font-size="14.00" fill="#1a1919">3936 ϕ</text>
</g>
<!-- node734&#45;&gt;node3936 -->
<g id="edge30" class="edge">
<title>node734&#45;&gt;node3936</title>
<path fill="none" stroke="#3cb4a4" d="M405.58,-1083.74C405.58,-1067.74 405.58,-1043.26 405.58,-1022 405.58,-1022 405.58,-1022 405.58,-895.5 405.58,-821.94 407.58,-803.56 407.58,-730 407.58,-730 407.58,-730 407.58,-264 407.58,-249.65 407.58,-233.67 407.58,-220.51"/>
<polygon fill="#3cb4a4" stroke="#3cb4a4" points="411.08,-220.22 407.58,-210.22 404.08,-220.22 411.08,-220.22"/>
<text text-anchor="middle" x="438.58" y="-645.8" font-family="arial" font-size="14.00" fill="#3cb4a4">from 3532</text>
</g>
<!-- node1042 -->
<g id="node5" class="node">
<title>node1042</title>
<polygon fill="#f9f9f9" stroke="black" points="743.08,-958 654.08,-958 654.08,-922 743.08,-922 743.08,-958"/>
<text text-anchor="middle" x="698.58" y="-936.3" font-family="Arial" font-size="14.00" fill="#1a1919">1042 Unbox</text>
</g>
<!-- node888&#45;&gt;node1042 -->
<g id="edge3" class="edge">
<title>node888&#45;&gt;node1042</title>
<path fill="none" stroke="#da2d4f" stroke-width="2" d="M698.58,-1002.86C698.58,-992.71 698.58,-979.63 698.58,-968.12"/>
<polygon fill="#da2d4f" stroke="#da2d4f" stroke-width="2" points="702.08,-968.11 698.58,-958.11 695.08,-968.11 702.08,-968.11"/>
</g>
<!-- node888&#45;&gt;node3936 -->
<g id="edge31" class="edge">
<title>node888&#45;&gt;node3936</title>
<path fill="none" stroke="#3cb4a4" d="M739.74,-1003.36C764.24,-990.44 790.58,-969.84 790.58,-941 790.58,-941 790.58,-941 790.58,-264 790.58,-229.3 544.34,-204.6 446.74,-196.17"/>
<polygon fill="#3cb4a4" stroke="#3cb4a4" points="446.95,-192.68 436.69,-195.31 446.35,-199.65 446.95,-192.68"/>
<text text-anchor="middle" x="821.58" y="-602.3" font-family="arial" font-size="14.00" fill="#3cb4a4">from 3534</text>
</g>
<!-- node3857 -->
<g id="node20" class="node">
<title>node3857</title>
<polygon fill="#ffa500" stroke="black" points="685.08,-871 434.08,-871 434.08,-835 685.08,-835 685.08,-871"/>
<text text-anchor="middle" x="559.58" y="-849.3" font-family="Arial" font-size="14.00" fill="#1a1919">3857 Guard, else TransferToInterpreter</text>
</g>
<!-- node1042&#45;&gt;node3857 -->
<g id="edge4" class="edge">
<title>node1042&#45;&gt;node3857</title>
<path fill="none" stroke="#da2d4f" stroke-width="2" d="M670.45,-921.8C649.07,-908.72 619.47,-890.62 596.23,-876.41"/>
<polygon fill="#da2d4f" stroke="#da2d4f" stroke-width="2" points="598.03,-873.41 587.67,-871.18 594.38,-879.38 598.03,-873.41"/>
</g>
<!-- node1042&#45;&gt;node3936 -->
<g id="edge32" class="edge">
<title>node1042&#45;&gt;node3936</title>
<path fill="none" stroke="#3cb4a4" d="M703.41,-921.9C707.8,-904.85 713.58,-877.83 713.58,-854 713.58,-854 713.58,-854 713.58,-264 713.58,-209.8 529.14,-196.97 446.65,-193.93"/>
<polygon fill="#3cb4a4" stroke="#3cb4a4" points="446.76,-190.43 436.65,-193.6 446.52,-197.43 446.76,-190.43"/>
<text text-anchor="middle" x="744.58" y="-558.8" font-family="arial" font-size="14.00" fill="#3cb4a4">from 3905</text>
</g>
<!-- node1116 -->
<g id="node6" class="node">
<title>node1116</title>
<polygon fill="#3cb4a4" stroke="black" points="559.58,-958 483.5,-940 559.58,-922 635.66,-940 559.58,-958"/>
<text text-anchor="middle" x="559.58" y="-936.3" font-family="Arial" font-size="14.00" fill="#1a1919">1116 IsNull</text>
</g>
<!-- node1116&#45;&gt;node3857 -->
<g id="edge25" class="edge">
<title>node1116&#45;&gt;node3857</title>
<path fill="none" stroke="#3cb4a4" d="M559.58,-921.8C559.58,-910.16 559.58,-894.55 559.58,-881.24"/>
<polygon fill="#3cb4a4" stroke="#3cb4a4" points="563.08,-881.18 559.58,-871.18 556.08,-881.18 563.08,-881.18"/>
<text text-anchor="middle" x="563.58" y="-892.8" font-family="arial" font-size="14.00" fill="#3cb4a4">?</text>
</g>
<!-- node1520 -->
<g id="node8" class="node">
<title>node1520</title>
<polygon fill="#e98693" stroke="black" points="245.58,-537 187.58,-537 187.58,-501 245.58,-501 245.58,-537"/>
<text text-anchor="middle" x="216.58" y="-515.3" font-family="Arial" font-size="14.00" fill="#1a1919">1520 If</text>
</g>
<!-- node1477&#45;&gt;node1520 -->
<g id="edge7" class="edge">
<title>node1477&#45;&gt;node1520</title>
<path fill="none" stroke="#3cb4a4" d="M61.58,-1083.74C61.58,-1067.74 61.58,-1043.26 61.58,-1022 61.58,-1022 61.58,-1022 61.58,-605 61.58,-552.21 131.55,-531.99 177.46,-524.4"/>
<polygon fill="#3cb4a4" stroke="#3cb4a4" points="178.07,-527.85 187.43,-522.89 177.02,-520.93 178.07,-527.85"/>
<text text-anchor="middle" x="65.58" y="-805.8" font-family="arial" font-size="14.00" fill="#3cb4a4">?</text>
</g>
<!-- node1523 -->
<g id="node10" class="node">
<title>node1523</title>
<polygon fill="#e98693" stroke="black" points="334.08,-429 249.08,-429 249.08,-393 334.08,-393 334.08,-429"/>
<text text-anchor="middle" x="291.58" y="-407.3" font-family="Arial" font-size="14.00" fill="#1a1919">1523 Begin</text>
</g>
<!-- node1520&#45;&gt;node1523 -->
<g id="edge8" class="edge">
<title>node1520&#45;&gt;node1523</title>
<path fill="none" stroke="#da2d4f" stroke-width="2" d="M228.63,-500.97C240.75,-483.84 259.59,-457.22 273.5,-437.56"/>
<polygon fill="#da2d4f" stroke="#da2d4f" stroke-width="2" points="276.4,-439.53 279.31,-429.34 270.68,-435.48 276.4,-439.53"/>
<text text-anchor="middle" x="269.08" y="-461.3" font-family="arial" font-size="14.00" fill="#da2d4f">T</text>
</g>
<!-- node2338 -->
<g id="node13" class="node">
<title>node2338</title>
<polygon fill="#e98693" stroke="black" points="231.08,-429 146.08,-429 146.08,-393 231.08,-393 231.08,-429"/>
<text text-anchor="middle" x="188.58" y="-407.3" font-family="Arial" font-size="14.00" fill="#1a1919">2338 Begin</text>
</g>
<!-- node1520&#45;&gt;node2338 -->
<g id="edge9" class="edge">
<title>node1520&#45;&gt;node2338</title>
<path fill="none" stroke="#da2d4f" stroke-width="2" d="M212.08,-500.97C207.68,-484.3 200.91,-458.65 195.76,-439.16"/>
<polygon fill="#da2d4f" stroke="#da2d4f" stroke-width="2" points="199.1,-438.12 193.16,-429.34 192.33,-439.9 199.1,-438.12"/>
<text text-anchor="middle" x="211.08" y="-461.3" font-family="arial" font-size="14.00" fill="#da2d4f">F</text>
</g>
<!-- node1522 -->
<g id="node9" class="node">
<title>node1522</title>
<polygon fill="#e98693" stroke="black" points="269.08,-624 184.08,-624 184.08,-588 269.08,-588 269.08,-624"/>
<text text-anchor="middle" x="226.58" y="-602.3" font-family="Arial" font-size="14.00" fill="#1a1919">1522 Begin</text>
</g>
<!-- node1522&#45;&gt;node1520 -->
<g id="edge10" class="edge">
<title>node1522&#45;&gt;node1520</title>
<path fill="none" stroke="#da2d4f" stroke-width="2" d="M224.56,-587.8C223.19,-576.16 221.35,-560.55 219.79,-547.24"/>
<polygon fill="#da2d4f" stroke="#da2d4f" stroke-width="2" points="223.25,-546.7 218.6,-537.18 216.3,-547.52 223.25,-546.7"/>
</g>
<!-- node3532 -->
<g id="node17" class="node">
<title>node3532</title>
<polygon fill="#e98693" stroke="black" points="332.58,-356 258.58,-356 258.58,-320 332.58,-320 332.58,-356"/>
<text text-anchor="middle" x="295.58" y="-334.3" font-family="Arial" font-size="14.00" fill="#1a1919">3532 End</text>
</g>
<!-- node1523&#45;&gt;node3532 -->
<g id="edge11" class="edge">
<title>node1523&#45;&gt;node3532</title>
<path fill="none" stroke="#da2d4f" stroke-width="2" d="M292.55,-392.81C293,-384.79 293.55,-375.05 294.06,-366.07"/>
<polygon fill="#da2d4f" stroke="#da2d4f" stroke-width="2" points="297.56,-366.21 294.62,-356.03 290.57,-365.82 297.56,-366.21"/>
</g>
<!-- node2336 -->
<g id="node12" class="node">
<title>node2336</title>
<polygon fill="#e98693" stroke="black" points="272.58,-711 214.58,-711 214.58,-675 272.58,-675 272.58,-711"/>
<text text-anchor="middle" x="243.58" y="-689.3" font-family="Arial" font-size="14.00" fill="#1a1919">2336 If</text>
</g>
<!-- node2293&#45;&gt;node2336 -->
<g id="edge14" class="edge">
<title>node2293&#45;&gt;node2336</title>
<path fill="none" stroke="#3cb4a4" d="M173.34,-1092.44C142.89,-1081.52 99.58,-1059.41 99.58,-1022 99.58,-1022 99.58,-1022 99.58,-765 99.58,-718.13 161.7,-702.2 204.34,-696.79"/>
<polygon fill="#3cb4a4" stroke="#3cb4a4" points="204.9,-700.25 214.44,-695.65 204.11,-693.29 204.9,-700.25"/>
<text text-anchor="middle" x="103.58" y="-892.8" font-family="arial" font-size="14.00" fill="#3cb4a4">?</text>
</g>
<!-- node2336&#45;&gt;node1522 -->
<g id="edge16" class="edge">
<title>node2336&#45;&gt;node1522</title>
<path fill="none" stroke="#da2d4f" stroke-width="2" d="M240.14,-674.8C237.82,-663.16 234.69,-647.55 232.03,-634.24"/>
<polygon fill="#da2d4f" stroke="#da2d4f" stroke-width="2" points="235.41,-633.29 230.02,-624.18 228.55,-634.67 235.41,-633.29"/>
<text text-anchor="middle" x="240.08" y="-645.8" font-family="arial" font-size="14.00" fill="#da2d4f">F</text>
</g>
<!-- node2339 -->
<g id="node14" class="node">
<title>node2339</title>
<polygon fill="#e98693" stroke="black" points="376.08,-624 291.08,-624 291.08,-588 376.08,-588 376.08,-624"/>
<text text-anchor="middle" x="333.58" y="-602.3" font-family="Arial" font-size="14.00" fill="#1a1919">2339 Begin</text>
</g>
<!-- node2336&#45;&gt;node2339 -->
<g id="edge15" class="edge">
<title>node2336&#45;&gt;node2339</title>
<path fill="none" stroke="#da2d4f" stroke-width="2" d="M261.8,-674.8C275.09,-662.24 293.3,-645.05 308.04,-631.12"/>
<polygon fill="#da2d4f" stroke="#da2d4f" stroke-width="2" points="310.53,-633.59 315.4,-624.18 305.72,-628.5 310.53,-633.59"/>
<text text-anchor="middle" x="298.08" y="-645.8" font-family="arial" font-size="14.00" fill="#da2d4f">T</text>
</g>
<!-- node3905 -->
<g id="node22" class="node">
<title>node3905</title>
<polygon fill="#e98693" stroke="black" points="236.58,-356 162.58,-356 162.58,-320 236.58,-320 236.58,-356"/>
<text text-anchor="middle" x="199.58" y="-334.3" font-family="Arial" font-size="14.00" fill="#1a1919">3905 End</text>
</g>
<!-- node2338&#45;&gt;node3905 -->
<g id="edge17" class="edge">
<title>node2338&#45;&gt;node3905</title>
<path fill="none" stroke="#da2d4f" stroke-width="2" d="M191.25,-392.81C192.49,-384.79 194,-375.05 195.39,-366.07"/>
<polygon fill="#da2d4f" stroke="#da2d4f" stroke-width="2" points="198.87,-366.45 196.95,-356.03 191.96,-365.38 198.87,-366.45"/>
</g>
<!-- node3534 -->
<g id="node18" class="node">
<title>node3534</title>
<polygon fill="#e98693" stroke="black" points="386.58,-483 312.58,-483 312.58,-447 386.58,-447 386.58,-483"/>
<text text-anchor="middle" x="349.58" y="-461.3" font-family="Arial" font-size="14.00" fill="#1a1919">3534 End</text>
</g>
<!-- node2339&#45;&gt;node3534 -->
<g id="edge18" class="edge">
<title>node2339&#45;&gt;node3534</title>
<path fill="none" stroke="#da2d4f" stroke-width="2" d="M335.55,-587.96C338.27,-564.3 343.22,-521.26 346.46,-493.15"/>
<polygon fill="#da2d4f" stroke="#da2d4f" stroke-width="2" points="349.94,-493.52 347.61,-483.18 342.98,-492.72 349.94,-493.52"/>
</g>
<!-- node3148 -->
<g id="node15" class="node">
<title>node3148</title>
<polygon fill="#3cb4a4" stroke="black" points="253.58,-871 191.92,-853 253.58,-835 315.25,-853 253.58,-871"/>
<text text-anchor="middle" x="253.58" y="-849.3" font-family="Arial" font-size="14.00" fill="#1a1919">3148 ==</text>
</g>
<!-- node3867 -->
<g id="node21" class="node">
<title>node3867</title>
<polygon fill="#ffa500" stroke="black" points="379.08,-784 128.08,-784 128.08,-748 379.08,-748 379.08,-784"/>
<text text-anchor="middle" x="253.58" y="-762.3" font-family="Arial" font-size="14.00" fill="#1a1919">3867 Guard, else TransferToInterpreter</text>
</g>
<!-- node3148&#45;&gt;node3867 -->
<g id="edge27" class="edge">
<title>node3148&#45;&gt;node3867</title>
<path fill="none" stroke="#3cb4a4" d="M253.58,-834.8C253.58,-823.16 253.58,-807.55 253.58,-794.24"/>
<polygon fill="#3cb4a4" stroke="#3cb4a4" points="257.08,-794.18 253.58,-784.18 250.08,-794.18 257.08,-794.18"/>
<text text-anchor="middle" x="257.58" y="-805.8" font-family="arial" font-size="14.00" fill="#3cb4a4">?</text>
</g>
<!-- node3530 -->
<g id="node16" class="node">
<title>node3530</title>
<polygon fill="#e98693" stroke="black" points="379.08,-283 290.08,-283 290.08,-247 379.08,-247 379.08,-283"/>
<text text-anchor="middle" x="334.58" y="-261.3" font-family="Arial" font-size="14.00" fill="#1a1919">3530 Merge</text>
</g>
<!-- node3530&#45;&gt;node3936 -->
<g id="edge29" class="edge">
<title>node3530&#45;&gt;node3936</title>
<path fill="none" stroke="#343d46" stroke-dasharray="5,2" d="M359.61,-239.65C369.64,-229.9 380.95,-218.9 390.08,-210.03"/>
<polygon fill="#343d46" stroke="#343d46" points="356.98,-237.33 352.25,-246.81 361.86,-242.35 356.98,-237.33"/>
</g>
<!-- node3944 -->
<g id="node24" class="node">
<title>node3944</title>
<polygon fill="#f9f9f9" stroke="black" points="456.08,-123 261.08,-123 261.08,-87 456.08,-87 456.08,-123"/>
<text text-anchor="middle" x="358.58" y="-101.3" font-family="Arial" font-size="14.00" fill="#1a1919">3944 BoxNode$AllocatingBox</text>
</g>
<!-- node3530&#45;&gt;node3944 -->
<g id="edge23" class="edge">
<title>node3530&#45;&gt;node3944</title>
<path fill="none" stroke="#da2d4f" stroke-width="2" d="M337.2,-246.79C341.35,-219.48 349.47,-165.99 354.42,-133.38"/>
<polygon fill="#da2d4f" stroke="#da2d4f" stroke-width="2" points="357.93,-133.6 355.97,-123.19 351.01,-132.55 357.93,-133.6"/>
</g>
<!-- node3532&#45;&gt;node3530 -->
<g id="edge20" class="edge">
<title>node3532&#45;&gt;node3530</title>
<path fill="none" stroke="#da2d4f" stroke-width="2" d="M305.02,-319.81C309.62,-311.44 315.25,-301.2 320.36,-291.9"/>
<polygon fill="#da2d4f" stroke="#da2d4f" stroke-width="2" points="323.48,-293.48 325.23,-283.03 317.35,-290.11 323.48,-293.48"/>
</g>
<!-- node3534&#45;&gt;node3530 -->
<g id="edge21" class="edge">
<title>node3534&#45;&gt;node3530</title>
<path fill="none" stroke="#da2d4f" stroke-width="2" d="M349.03,-446.68C348.08,-419.61 345.8,-365.63 341.58,-320 340.79,-311.4 339.67,-302.05 338.56,-293.59"/>
<polygon fill="#da2d4f" stroke="#da2d4f" stroke-width="2" points="342,-292.91 337.18,-283.47 335.06,-293.85 342,-292.91"/>
</g>
<!-- node3619 -->
<g id="node19" class="node">
<title>node3619</title>
<polygon fill="#e98693" stroke="black" points="404.08,-36 313.08,-36 313.08,0 404.08,0 404.08,-36"/>
<text text-anchor="middle" x="358.58" y="-14.3" font-family="Arial" font-size="14.00" fill="#1a1919">3619 Return</text>
</g>
<!-- node3857&#45;&gt;node3867 -->
<g id="edge26" class="edge">
<title>node3857&#45;&gt;node3867</title>
<path fill="none" stroke="#da2d4f" stroke-width="2" d="M498.03,-834.9C448.02,-821.01 377.43,-801.4 324.95,-786.82"/>
<polygon fill="#da2d4f" stroke="#da2d4f" stroke-width="2" points="325.61,-783.38 315.04,-784.07 323.74,-790.12 325.61,-783.38"/>
</g>
<!-- node3867&#45;&gt;node2336 -->
<g id="edge28" class="edge">
<title>node3867&#45;&gt;node2336</title>
<path fill="none" stroke="#da2d4f" stroke-width="2" d="M251.16,-747.81C250.03,-739.79 248.66,-730.05 247.4,-721.07"/>
<polygon fill="#da2d4f" stroke="#da2d4f" stroke-width="2" points="250.84,-720.44 245.98,-711.03 243.91,-721.42 250.84,-720.44"/>
</g>
<!-- node3905&#45;&gt;node3530 -->
<g id="edge22" class="edge">
<title>node3905&#45;&gt;node3530</title>
<path fill="none" stroke="#da2d4f" stroke-width="2" d="M231.92,-319.99C250.24,-310.36 273.35,-298.21 293,-287.87"/>
<polygon fill="#da2d4f" stroke="#da2d4f" stroke-width="2" points="294.82,-290.87 302.04,-283.11 291.56,-284.67 294.82,-290.87"/>
</g>
<!-- node3936&#45;&gt;node3944 -->
<g id="edge33" class="edge">
<title>node3936&#45;&gt;node3944</title>
<path fill="none" stroke="#3cb4a4" d="M397.67,-173.8C390.76,-161.82 381.42,-145.62 373.6,-132.06"/>
<polygon fill="#3cb4a4" stroke="#3cb4a4" points="376.51,-130.09 368.48,-123.18 370.45,-133.59 376.51,-130.09"/>
<text text-anchor="middle" x="402.08" y="-144.8" font-family="arial" font-size="14.00" fill="#3cb4a4">value</text>
</g>
<!-- node3944&#45;&gt;node3619 -->
<g id="edge24" class="edge">
<title>node3944&#45;&gt;node3619</title>
<path fill="none" stroke="#3cb4a4" d="M344.48,-86.84C340.86,-81.46 337.46,-75.27 335.58,-69 333.17,-60.93 335.15,-52.49 338.77,-44.89"/>
<polygon fill="#3cb4a4" stroke="#3cb4a4" points="341.87,-46.53 343.84,-36.12 335.81,-43.03 341.87,-46.53"/>
<text text-anchor="middle" x="352.58" y="-57.8" font-family="arial" font-size="14.00" fill="#3cb4a4">result</text>
</g>
<!-- node3944&#45;&gt;node3619 -->
<g id="edge34" class="edge">
<title>node3944&#45;&gt;node3619</title>
<path fill="none" stroke="#da2d4f" stroke-width="2" d="M365.13,-86.8C366.95,-81.21 368.68,-74.92 369.58,-69 370.75,-61.39 369.87,-53.2 368.19,-45.71"/>
<polygon fill="#da2d4f" stroke="#da2d4f" stroke-width="2" points="371.55,-44.74 365.53,-36.02 364.81,-46.59 371.55,-44.74"/>
</g>
<!-- node3945&#45;&gt;node579 -->
<g id="edge43" class="edge">
<title>node3945&#45;&gt;node579</title>
<path fill="none" stroke="#da2d4f" stroke-width="2" d="M113.56,-1251.86C123.05,-1240.99 135.49,-1226.75 146.03,-1214.67"/>
<polygon fill="#da2d4f" stroke="#da2d4f" stroke-width="2" points="148.7,-1216.94 152.64,-1207.11 143.43,-1212.34 148.7,-1216.94"/>
</g>
<!-- inline5x1477 -->
<g id="node26" class="node">
<title>inline5x1477</title>
<ellipse fill="#d7ede7" stroke="black" cx="61.58" cy="-1189" rx="27" ry="18"/>
<text text-anchor="middle" x="61.58" y="-1187.1" font-family="Arial" font-size="8.00" fill="#1a1919">5 C(0)</text>
</g>
<!-- inline5x1477&#45;&gt;node1477 -->
<g id="edge6" class="edge">
<title>inline5x1477&#45;&gt;node1477</title>
<path fill="none" stroke="#3cb4a4" d="M61.58,-1170.8C61.58,-1156.05 61.58,-1134.92 61.58,-1120.18"/>
<text text-anchor="middle" x="63.58" y="-1143.6" font-family="arial" font-size="8.00" fill="#3cb4a4">y</text>
</g>
<!-- inline23x2293 -->
<g id="node27" class="node">
<title>inline23x2293</title>
<ellipse fill="#d7ede7" stroke="black" cx="253.58" cy="-1189" rx="27" ry="18"/>
<text text-anchor="middle" x="253.58" y="-1187.1" font-family="Arial" font-size="8.00" fill="#1a1919">23 C(1)</text>
</g>
<!-- inline23x2293&#45;&gt;node2293 -->
<g id="edge13" class="edge">
<title>inline23x2293&#45;&gt;node2293</title>
<path fill="none" stroke="#3cb4a4" d="M243.99,-1172.01C234.58,-1156.33 220.37,-1132.64 211.28,-1117.5"/>
<text text-anchor="middle" x="232.58" y="-1143.6" font-family="arial" font-size="8.00" fill="#3cb4a4">y</text>
</g>
<!-- inline1742x3148 -->
<g id="node28" class="node">
<title>inline1742x3148</title>
<ellipse fill="#d7ede7" stroke="black" cx="217.58" cy="-940" rx="86.57" ry="18"/>
<text text-anchor="middle" x="217.58" y="-938.1" font-family="Arial" font-size="8.00" fill="#1a1919">1742 C(RubyBasicObject@414ae92d)</text>
</g>
<!-- inline1742x3148&#45;&gt;node3148 -->
<g id="edge19" class="edge">
<title>inline1742x3148&#45;&gt;node3148</title>
<path fill="none" stroke="#3cb4a4" d="M224.87,-921.8C231.4,-906.37 240.9,-883.95 247.15,-869.18"/>
<text text-anchor="middle" x="239.58" y="-894.6" font-family="arial" font-size="8.00" fill="#3cb4a4">y</text>
</g>
<!-- inline125x3148 -->
<g id="node29" class="node">
<title>inline125x3148</title>
<ellipse fill="#d7ede7" stroke="black" cx="349.58" cy="-940" rx="27.46" ry="18"/>
<text text-anchor="middle" x="349.58" y="-938.1" font-family="Arial" font-size="8.00" fill="#1a1919">125 T(5)</text>
</g>
<!-- inline125x3148&#45;&gt;node3148 -->
<g id="edge35" class="edge">
<title>inline125x3148&#45;&gt;node3148</title>
<path fill="none" stroke="#3cb4a4" d="M333.73,-924.96C315.52,-908.84 285.88,-882.59 268.2,-866.94"/>
<text text-anchor="middle" x="308.58" y="-894.6" font-family="arial" font-size="8.00" fill="#3cb4a4">x</text>
</g>
<!-- inline143x1116 -->
<g id="node30" class="node">
<title>inline143x1116</title>
<ellipse fill="#d7ede7" stroke="black" cx="586.58" cy="-1021" rx="27.46" ry="18"/>
<text text-anchor="middle" x="586.58" y="-1019.1" font-family="Arial" font-size="8.00" fill="#1a1919">143 T(6)</text>
</g>
<!-- inline143x1116&#45;&gt;node1116 -->
<g id="edge36" class="edge">
<title>inline143x1116&#45;&gt;node1116</title>
<path fill="none" stroke="#3cb4a4" d="M580.86,-1003.25C576.18,-989.57 569.62,-970.37 565.03,-956.92"/>
<text text-anchor="middle" x="583.08" y="-978.6" font-family="arial" font-size="8.00" fill="#3cb4a4">value</text>
</g>
<!-- inline158x579 -->
<g id="node31" class="node">
<title>inline158x579</title>
<ellipse fill="#d7ede7" stroke="black" cx="200.58" cy="-1270" rx="27.46" ry="18"/>
<text text-anchor="middle" x="200.58" y="-1268.1" font-family="Arial" font-size="8.00" fill="#1a1919">158 T(7)</text>
</g>
<!-- inline158x579&#45;&gt;node579 -->
<g id="edge37" class="edge">
<title>inline158x579&#45;&gt;node579</title>
<path fill="none" stroke="#3cb4a4" d="M193.59,-1252.25C188.02,-1238.93 180.27,-1220.38 174.69,-1207"/>
<text text-anchor="middle" x="194.08" y="-1227.6" font-family="arial" font-size="8.00" fill="#3cb4a4">value</text>
</g>
<!-- inline176x734 -->
<g id="node32" class="node">
<title>inline176x734</title>
<ellipse fill="#d7ede7" stroke="black" cx="405.58" cy="-1189" rx="27.46" ry="18"/>
<text text-anchor="middle" x="405.58" y="-1187.1" font-family="Arial" font-size="8.00" fill="#1a1919">176 T(8)</text>
</g>
<!-- inline176x734&#45;&gt;node734 -->
<g id="edge38" class="edge">
<title>inline176x734&#45;&gt;node734</title>
<path fill="none" stroke="#3cb4a4" d="M405.58,-1170.8C405.58,-1156.05 405.58,-1134.92 405.58,-1120.18"/>
<text text-anchor="middle" x="415.08" y="-1143.6" font-family="arial" font-size="8.00" fill="#3cb4a4">value</text>
</g>
<!-- inline193x888 -->
<g id="node33" class="node">
<title>inline193x888</title>
<ellipse fill="#d7ede7" stroke="black" cx="698.58" cy="-1102" rx="27.46" ry="18"/>
<text text-anchor="middle" x="698.58" y="-1100.1" font-family="Arial" font-size="8.00" fill="#1a1919">193 T(9)</text>
</g>
<!-- inline193x888&#45;&gt;node888 -->
<g id="edge39" class="edge">
<title>inline193x888&#45;&gt;node888</title>
<path fill="none" stroke="#3cb4a4" d="M698.58,-1083.86C698.58,-1070.61 698.58,-1052.35 698.58,-1039.11"/>
<text text-anchor="middle" x="708.08" y="-1059.6" font-family="arial" font-size="8.00" fill="#3cb4a4">value</text>
</g>
<!-- inline210x1042 -->
<g id="node34" class="node">
<title>inline210x1042</title>
<ellipse fill="#d7ede7" stroke="black" cx="511.58" cy="-1021" rx="30.13" ry="18"/>
<text text-anchor="middle" x="511.58" y="-1019.1" font-family="Arial" font-size="8.00" fill="#1a1919">210 T(10)</text>
</g>
<!-- inline210x1042&#45;&gt;node1042 -->
<g id="edge40" class="edge">
<title>inline210x1042&#45;&gt;node1042</title>
<path fill="none" stroke="#3cb4a4" d="M521.21,-1003.71C527.72,-994.13 537.21,-982.64 548.58,-976 586.07,-954.11 602.47,-968.54 644.58,-958 647.63,-957.24 650.77,-956.4 653.91,-955.52"/>
<text text-anchor="middle" x="558.08" y="-978.6" font-family="arial" font-size="8.00" fill="#3cb4a4">value</text>
</g>
<!-- inline2x3945 -->
<g id="node35" class="node">
<title>inline2x3945</title>
<ellipse fill="#d7ede7" stroke="black" cx="135.58" cy="-1351" rx="27" ry="18"/>
<text text-anchor="middle" x="135.58" y="-1349.1" font-family="Arial" font-size="8.00" fill="#1a1919">2 P(1)</text>
</g>
<!-- inline2x3945&#45;&gt;node3945 -->
<g id="edge41" class="edge">
<title>inline2x3945&#45;&gt;node3945</title>
<path fill="none" stroke="#3cb4a4" d="M127.92,-1333.63C121.69,-1320.34 112.95,-1301.67 106.62,-1288.17"/>
<text text-anchor="middle" x="127.08" y="-1308.6" font-family="arial" font-size="8.00" fill="#3cb4a4">array</text>
</g>
</g>
</svg>
