<?xml version="1.0" encoding="UTF-8" standalone="no"?>
<!DOCTYPE svg PUBLIC "-//W3C//DTD SVG 1.1//EN"
 "http://www.w3.org/Graphics/SVG/1.1/DTD/svg11.dtd">
<!-- Generated by graphviz version 2.44.1 (20200629.0846)
 -->
<!-- Title: G Pages: 1 -->
<svg width="625pt" height="1028pt"
 viewBox="0.00 0.00 624.50 1028.00" xmlns="http://www.w3.org/2000/svg" xmlns:xlink="http://www.w3.org/1999/xlink">
<g id="graph0" class="graph" transform="scale(1 1) rotate(0) translate(4 1024)">
<title>G</title>
<!-- node0 -->
<g id="node1" class="node">
<title>node0</title>
<polygon fill="#e98693" stroke="black" points="188.5,-1020 132.5,-1020 132.5,-984 188.5,-984 188.5,-1020"/>
<text text-anchor="middle" x="160.5" y="-998.3" font-family="Arial" font-size="14.00" fill="#1a1919">0 Start</text>
</g>
<!-- node1382 -->
<g id="node16" class="node">
<title>node1382</title>
<polygon fill="#da2d4f" stroke="black" points="253,-939 140,-939 140,-903 253,-903 253,-939"/>
<text text-anchor="middle" x="196.5" y="-917.3" font-family="Arial" font-size="14.00" fill="#ffffff">1382 Load T(...)</text>
</g>
<!-- node0&#45;&gt;node1382 -->
<g id="edge26" class="edge">
<title>node0&#45;&gt;node1382</title>
<path fill="none" stroke="#da2d4f" stroke-width="2" d="M168.31,-983.86C173.03,-973.51 179.14,-960.1 184.46,-948.41"/>
<polygon fill="#da2d4f" stroke="#da2d4f" stroke-width="2" points="187.74,-949.66 188.7,-939.11 181.37,-946.76 187.74,-949.66"/>
</g>
<!-- node681 -->
<g id="node2" class="node">
<title>node681</title>
<polygon fill="#f9f9f9" stroke="black" points="288.5,-858 206.5,-858 206.5,-822 288.5,-822 288.5,-858"/>
<text text-anchor="middle" x="247.5" y="-836.3" font-family="Arial" font-size="14.00" fill="#1a1919">681 Unbox</text>
</g>
<!-- node1021 -->
<g id="node3" class="node">
<title>node1021</title>
<polygon fill="#da2d4f" stroke="black" points="616.5,-777 310.5,-777 310.5,-741 616.5,-741 616.5,-777"/>
<text text-anchor="middle" x="463.5" y="-755.3" font-family="Arial" font-size="14.00" fill="#ffffff">1021 LoadField RubyDynamicObject.metaClass</text>
</g>
<!-- node681&#45;&gt;node1021 -->
<g id="edge1" class="edge">
<title>node681&#45;&gt;node1021</title>
<path fill="none" stroke="#da2d4f" stroke-width="2" d="M288.64,-823.95C322.23,-811.67 370.06,-794.17 407.21,-780.59"/>
<polygon fill="#da2d4f" stroke="#da2d4f" stroke-width="2" points="408.7,-783.77 416.89,-777.05 406.3,-777.19 408.7,-783.77"/>
</g>
<!-- node1372 -->
<g id="node13" class="node">
<title>node1372</title>
<polygon fill="#f9f9f9" stroke="black" points="226,-530 31,-530 31,-494 226,-494 226,-530"/>
<text text-anchor="middle" x="128.5" y="-508.3" font-family="Arial" font-size="14.00" fill="#1a1919">1372 BoxNode$AllocatingBox</text>
</g>
<!-- node681&#45;&gt;node1372 -->
<g id="edge14" class="edge">
<title>node681&#45;&gt;node1372</title>
<path fill="none" stroke="#3cb4a4" d="M206.41,-832.02C167.99,-822.86 116.5,-802.63 116.5,-760 116.5,-760 116.5,-760 116.5,-584 116.5,-569.3 119.03,-553.13 121.77,-539.94"/>
<polygon fill="#3cb4a4" stroke="#3cb4a4" points="125.21,-540.6 123.96,-530.08 118.37,-539.08 125.21,-540.6"/>
<text text-anchor="middle" x="133" y="-668.3" font-family="arial" font-size="14.00" fill="#3cb4a4">value</text>
</g>
<!-- node1077 -->
<g id="node4" class="node">
<title>node1077</title>
<polygon fill="#3cb4a4" stroke="black" points="321.5,-690 259.83,-672 321.5,-654 383.17,-672 321.5,-690"/>
<text text-anchor="middle" x="321.5" y="-668.3" font-family="Arial" font-size="14.00" fill="#1a1919">1077 ==</text>
</g>
<!-- node1021&#45;&gt;node1077 -->
<g id="edge3" class="edge">
<title>node1021&#45;&gt;node1077</title>
<path fill="none" stroke="#3cb4a4" d="M434.76,-740.8C409.9,-725.92 374.16,-704.52 349.51,-689.77"/>
<polygon fill="#3cb4a4" stroke="#3cb4a4" points="351.03,-686.6 340.66,-684.47 347.44,-692.61 351.03,-686.6"/>
<text text-anchor="middle" x="404" y="-711.8" font-family="arial" font-size="14.00" fill="#3cb4a4">x</text>
</g>
<!-- node1349 -->
<g id="node11" class="node">
<title>node1349</title>
<polygon fill="#ffa500" stroke="black" points="447,-603 196,-603 196,-567 447,-567 447,-603"/>
<text text-anchor="middle" x="321.5" y="-581.3" font-family="Arial" font-size="14.00" fill="#1a1919">1349 Guard, else TransferToInterpreter</text>
</g>
<!-- node1021&#45;&gt;node1349 -->
<g id="edge2" class="edge">
<title>node1021&#45;&gt;node1349</title>
<path fill="none" stroke="#da2d4f" stroke-width="2" d="M453.21,-740.65C440.23,-719.34 416.67,-682.52 392.5,-654 379.31,-638.43 362.96,-622.58 349.27,-610.1"/>
<polygon fill="#da2d4f" stroke="#da2d4f" stroke-width="2" points="351.34,-607.25 341.57,-603.17 346.66,-612.46 351.34,-607.25"/>
</g>
<!-- node1077&#45;&gt;node1349 -->
<g id="edge12" class="edge">
<title>node1077&#45;&gt;node1349</title>
<path fill="none" stroke="#3cb4a4" d="M321.5,-653.8C321.5,-642.16 321.5,-626.55 321.5,-613.24"/>
<polygon fill="#3cb4a4" stroke="#3cb4a4" points="325,-613.18 321.5,-603.18 318,-613.18 325,-613.18"/>
<text text-anchor="middle" x="325.5" y="-624.8" font-family="arial" font-size="14.00" fill="#3cb4a4">?</text>
</g>
<!-- node1286 -->
<g id="node5" class="node">
<title>node1286</title>
<polygon fill="#e98693" stroke="black" points="145,-36 54,-36 54,0 145,0 145,-36"/>
<text text-anchor="middle" x="99.5" y="-14.3" font-family="Arial" font-size="14.00" fill="#1a1919">1286 Return</text>
</g>
<!-- node1328 -->
<g id="node6" class="node">
<title>node1328</title>
<polygon fill="#da2d4f" stroke="black" points="302.5,-196 12.5,-196 12.5,-160 302.5,-160 302.5,-196"/>
<text text-anchor="middle" x="157.5" y="-174.3" font-family="Arial" font-size="14.00" fill="#ffffff">1328 Call OptimizedCallTarget.callBoundary !</text>
</g>
<!-- node1328&#45;&gt;node1286 -->
<g id="edge21" class="edge">
<title>node1328&#45;&gt;node1286</title>
<path fill="none" stroke="#3cb4a4" d="M154.19,-159.65C149.87,-138.66 141.44,-102.46 129.5,-73 125.71,-63.66 120.66,-53.89 115.79,-45.28"/>
<polygon fill="#3cb4a4" stroke="#3cb4a4" points="118.7,-43.33 110.63,-36.46 112.66,-46.86 118.7,-43.33"/>
<text text-anchor="middle" x="159.5" y="-87.3" font-family="arial" font-size="14.00" fill="#3cb4a4">result</text>
</g>
<!-- node1332 -->
<g id="node8" class="node">
<title>node1332</title>
<polygon fill="#e98693" stroke="black" points="121,-109 0,-109 0,-73 121,-73 121,-109"/>
<text text-anchor="middle" x="60.5" y="-87.3" font-family="Arial" font-size="14.00" fill="#1a1919">1332 KillingBegin</text>
</g>
<!-- node1328&#45;&gt;node1332 -->
<g id="edge6" class="edge">
<title>node1328&#45;&gt;node1332</title>
<path fill="none" stroke="#da2d4f" stroke-width="2" d="M137.87,-159.8C123.54,-147.24 103.92,-130.05 88.03,-116.12"/>
<polygon fill="#da2d4f" stroke="#da2d4f" stroke-width="2" points="89.93,-113.13 80.1,-109.18 85.31,-118.4 89.93,-113.13"/>
</g>
<!-- node1333 -->
<g id="node9" class="node">
<title>node1333</title>
<polygon fill="#f9f9f9" stroke="black" points="359,-109 210,-109 210,-73 359,-73 359,-109"/>
<text text-anchor="middle" x="284.5" y="-87.3" font-family="Arial" font-size="14.00" fill="#1a1919">1333 ExceptionObject</text>
</g>
<!-- node1328&#45;&gt;node1333 -->
<g id="edge7" class="edge">
<title>node1328&#45;&gt;node1333</title>
<path fill="none" stroke="#da2d4f" stroke-width="2" d="M183.2,-159.8C202.57,-146.84 229.31,-128.94 250.45,-114.79"/>
<polygon fill="#da2d4f" stroke="#da2d4f" stroke-width="2" points="252.47,-117.65 258.84,-109.18 248.58,-111.83 252.47,-117.65"/>
<text text-anchor="middle" x="250" y="-130.8" font-family="arial" font-size="14.00" fill="#da2d4f">unwind</text>
</g>
<!-- node1329 -->
<g id="node7" class="node">
<title>node1329</title>
<polygon fill="#f9f9f9" stroke="black" points="338,-269 181,-269 181,-233 338,-233 338,-269"/>
<text text-anchor="middle" x="259.5" y="-247.3" font-family="Arial" font-size="14.00" fill="#1a1919">1329 MethodCallTarget</text>
</g>
<!-- node1329&#45;&gt;node1328 -->
<g id="edge5" class="edge">
<title>node1329&#45;&gt;node1328</title>
<path fill="none" stroke="#343d46" stroke-dasharray="5,2" d="M226.83,-227.26C212.31,-217.15 195.51,-205.46 182.09,-196.11"/>
<polygon fill="#343d46" stroke="#343d46" points="224.86,-230.15 235.07,-232.99 228.86,-224.41 224.86,-230.15"/>
</g>
<!-- node1332&#45;&gt;node1286 -->
<g id="edge10" class="edge">
<title>node1332&#45;&gt;node1286</title>
<path fill="none" stroke="#da2d4f" stroke-width="2" d="M69.94,-72.81C74.54,-64.44 80.17,-54.2 85.27,-44.9"/>
<polygon fill="#da2d4f" stroke="#da2d4f" stroke-width="2" points="88.4,-46.48 90.15,-36.03 82.26,-43.11 88.4,-46.48"/>
</g>
<!-- node1338 -->
<g id="node10" class="node">
<title>node1338</title>
<polygon fill="#da2d4f" stroke="black" points="393,-36 176,-36 176,0 393,0 393,-36"/>
<text text-anchor="middle" x="284.5" y="-14.3" font-family="Arial" font-size="14.00" fill="#ffffff">1338 Deopt TransferToInterpreter</text>
</g>
<!-- node1333&#45;&gt;node1338 -->
<g id="edge11" class="edge">
<title>node1333&#45;&gt;node1338</title>
<path fill="none" stroke="#da2d4f" stroke-width="2" d="M284.5,-72.81C284.5,-64.79 284.5,-55.05 284.5,-46.07"/>
<polygon fill="#da2d4f" stroke="#da2d4f" stroke-width="2" points="288,-46.03 284.5,-36.03 281,-46.03 288,-46.03"/>
</g>
<!-- node1349&#45;&gt;node1372 -->
<g id="edge13" class="edge">
<title>node1349&#45;&gt;node1372</title>
<path fill="none" stroke="#da2d4f" stroke-width="2" d="M275.27,-566.99C248.02,-556.97 213.35,-544.21 184.54,-533.62"/>
<polygon fill="#da2d4f" stroke="#da2d4f" stroke-width="2" points="185.61,-530.28 175.02,-530.11 183.2,-536.85 185.61,-530.28"/>
</g>
<!-- node1368 -->
<g id="node12" class="node">
<title>node1368</title>
<polygon fill="#343d46" stroke="black" points="554,-530 317,-530 317,-494 554,-494 554,-530"/>
<text text-anchor="middle" x="435.5" y="-508.3" font-family="Arial" font-size="14.00" fill="#ffffff">1368 VirtualArray java.lang.Object[8]</text>
</g>
<!-- node1373 -->
<g id="node14" class="node">
<title>node1373</title>
<polygon fill="#da2d4f" stroke="black" points="279,-443 200,-443 200,-407 279,-407 279,-443"/>
<text text-anchor="middle" x="239.5" y="-421.3" font-family="Arial" font-size="14.00" fill="#ffffff">1373 Alloc</text>
</g>
<!-- node1368&#45;&gt;node1373 -->
<g id="edge16" class="edge">
<title>node1368&#45;&gt;node1373</title>
<path fill="none" stroke="#3cb4a4" d="M384.7,-493.98C369.68,-488.6 353.3,-482.38 338.5,-476 318.93,-467.56 297.77,-457.07 280.06,-447.88"/>
<polygon fill="#3cb4a4" stroke="#3cb4a4" points="281.62,-444.75 271.13,-443.21 278.37,-450.95 281.62,-444.75"/>
<text text-anchor="middle" x="380" y="-464.8" font-family="arial" font-size="14.00" fill="#3cb4a4">virtualObjects</text>
</g>
<!-- node1374 -->
<g id="node15" class="node">
<title>node1374</title>
<polygon fill="#343d46" stroke="black" points="508,-356 363,-356 363,-320 508,-320 508,-356"/>
<text text-anchor="middle" x="435.5" y="-334.3" font-family="Arial" font-size="14.00" fill="#ffffff">1374 AllocatedObject</text>
</g>
<!-- node1368&#45;&gt;node1374 -->
<g id="edge19" class="edge">
<title>node1368&#45;&gt;node1374</title>
<path fill="none" stroke="#3cb4a4" d="M435.5,-493.88C435.5,-464 435.5,-402.11 435.5,-366.27"/>
<polygon fill="#3cb4a4" stroke="#3cb4a4" points="439,-366.05 435.5,-356.05 432,-366.05 439,-366.05"/>
<text text-anchor="middle" x="473.5" y="-421.3" font-family="arial" font-size="14.00" fill="#3cb4a4">virtualObject</text>
</g>
<!-- node1372&#45;&gt;node1373 -->
<g id="edge15" class="edge">
<title>node1372&#45;&gt;node1373</title>
<path fill="none" stroke="#da2d4f" stroke-width="2" d="M141.77,-493.89C150.36,-483.55 162.2,-470.55 174.5,-461 180.41,-456.41 187.02,-452.08 193.68,-448.15"/>
<polygon fill="#da2d4f" stroke="#da2d4f" stroke-width="2" points="195.76,-451 202.75,-443.04 192.32,-444.9 195.76,-451"/>
</g>
<!-- node1372&#45;&gt;node1373 -->
<g id="edge17" class="edge">
<title>node1372&#45;&gt;node1373</title>
<path fill="none" stroke="#3cb4a4" d="M150.98,-493.93C158.47,-488.24 166.85,-481.85 174.5,-476 185.85,-467.31 198.3,-457.75 209.24,-449.33"/>
<polygon fill="#3cb4a4" stroke="#3cb4a4" points="211.47,-452.03 217.26,-443.15 207.2,-446.48 211.47,-452.03"/>
<text text-anchor="middle" x="212.5" y="-464.8" font-family="arial" font-size="14.00" fill="#3cb4a4">values</text>
</g>
<!-- node1373&#45;&gt;node1328 -->
<g id="edge18" class="edge">
<title>node1373&#45;&gt;node1328</title>
<path fill="none" stroke="#da2d4f" stroke-width="2" d="M211.42,-406.93C194.55,-394.97 174.47,-377.34 164.5,-356 141.74,-307.26 146.81,-242.5 152.31,-206.36"/>
<polygon fill="#da2d4f" stroke="#da2d4f" stroke-width="2" points="155.83,-206.55 154,-196.11 148.92,-205.41 155.83,-206.55"/>
</g>
<!-- node1373&#45;&gt;node1374 -->
<g id="edge20" class="edge">
<title>node1373&#45;&gt;node1374</title>
<path fill="none" stroke="#3cb4a4" d="M279.16,-406.8C310.22,-393.33 353.55,-374.54 386.73,-360.15"/>
<polygon fill="#3cb4a4" stroke="#3cb4a4" points="388.45,-363.22 396.23,-356.03 385.66,-356.8 388.45,-363.22"/>
<text text-anchor="middle" x="371.5" y="-377.8" font-family="arial" font-size="14.00" fill="#3cb4a4">commit</text>
</g>
<!-- node1374&#45;&gt;node1329 -->
<g id="edge9" class="edge">
<title>node1374&#45;&gt;node1329</title>
<path fill="none" stroke="#3cb4a4" d="M399.88,-319.8C372.24,-306.45 333.75,-287.86 304.07,-273.52"/>
<polygon fill="#3cb4a4" stroke="#3cb4a4" points="305.29,-270.23 294.76,-269.03 302.25,-276.53 305.29,-270.23"/>
<text text-anchor="middle" x="375" y="-290.8" font-family="arial" font-size="14.00" fill="#3cb4a4">arg[1]</text>
</g>
<!-- node1382&#45;&gt;node681 -->
<g id="edge27" class="edge">
<title>node1382&#45;&gt;node681</title>
<path fill="none" stroke="#da2d4f" stroke-width="2" d="M207.57,-902.86C214.38,-892.3 223.25,-878.56 230.9,-866.71"/>
<polygon fill="#da2d4f" stroke="#da2d4f" stroke-width="2" points="233.97,-868.41 236.46,-858.11 228.09,-864.61 233.97,-868.41"/>
</g>
<!-- inline1076x1077 -->
<g id="node17" class="node">
<title>inline1076x1077</title>
<ellipse fill="#d7ede7" stroke="black" cx="218.5" cy="-759" rx="74.11" ry="18"/>
<text text-anchor="middle" x="218.5" y="-757.1" font-family="Arial" font-size="8.00" fill="#1a1919">1076 C(RubyClass@56cbb949)</text>
</g>
<!-- inline1076x1077&#45;&gt;node1077 -->
<g id="edge4" class="edge">
<title>inline1076x1077&#45;&gt;node1077</title>
<path fill="none" stroke="#3cb4a4" d="M238.36,-741.61C258.12,-725.31 288.02,-700.63 306.07,-685.74"/>
<text text-anchor="middle" x="277.5" y="-713.6" font-family="arial" font-size="8.00" fill="#3cb4a4">y</text>
</g>
<!-- inline1175x1329 -->
<g id="node18" class="node">
<title>inline1175x1329</title>
<ellipse fill="#d7ede7" stroke="black" cx="259.5" cy="-338" rx="85.8" ry="18"/>
<text text-anchor="middle" x="259.5" y="-336.1" font-family="Arial" font-size="8.00" fill="#1a1919">1175 C(ExampleObject#instance_call)</text>
</g>
<!-- inline1175x1329&#45;&gt;node1329 -->
<g id="edge8" class="edge">
<title>inline1175x1329&#45;&gt;node1329</title>
<path fill="none" stroke="#3cb4a4" d="M259.5,-319.8C259.5,-305.05 259.5,-283.92 259.5,-269.18"/>
<text text-anchor="middle" x="270.5" y="-292.6" font-family="arial" font-size="8.00" fill="#3cb4a4">arg[0]</text>
</g>
<!-- inline161x1021 -->
<g id="node19" class="node">
<title>inline161x1021</title>
<ellipse fill="#d7ede7" stroke="black" cx="463.5" cy="-840" rx="27.46" ry="18"/>
<text text-anchor="middle" x="463.5" y="-838.1" font-family="Arial" font-size="8.00" fill="#1a1919">161 T(7)</text>
</g>
<!-- inline161x1021&#45;&gt;node1021 -->
<g id="edge22" class="edge">
<title>inline161x1021&#45;&gt;node1021</title>
<path fill="none" stroke="#3cb4a4" d="M463.5,-821.86C463.5,-808.61 463.5,-790.35 463.5,-777.11"/>
<text text-anchor="middle" x="474.5" y="-797.6" font-family="arial" font-size="8.00" fill="#3cb4a4">object</text>
</g>
<!-- inline161x1373 -->
<g id="node20" class="node">
<title>inline161x1373</title>
<ellipse fill="#d7ede7" stroke="black" cx="271.5" cy="-512" rx="27.46" ry="18"/>
<text text-anchor="middle" x="271.5" y="-510.1" font-family="Arial" font-size="8.00" fill="#1a1919">161 T(7)</text>
</g>
<!-- inline161x1373&#45;&gt;node1373 -->
<g id="edge23" class="edge">
<title>inline161x1373&#45;&gt;node1373</title>
<path fill="none" stroke="#3cb4a4" d="M265.18,-494.21C259.6,-479.4 251.52,-457.93 245.92,-443.05"/>
<text text-anchor="middle" x="268" y="-466.6" font-family="arial" font-size="8.00" fill="#3cb4a4">values</text>
</g>
<!-- inline178x681 -->
<g id="node21" class="node">
<title>inline178x681</title>
<ellipse fill="#d7ede7" stroke="black" cx="298.5" cy="-921" rx="27.46" ry="18"/>
<text text-anchor="middle" x="298.5" y="-919.1" font-family="Arial" font-size="8.00" fill="#1a1919">178 T(8)</text>
</g>
<!-- inline178x681&#45;&gt;node681 -->
<g id="edge24" class="edge">
<title>inline178x681&#45;&gt;node681</title>
<path fill="none" stroke="#3cb4a4" d="M288.18,-904.01C279.56,-890.67 267.31,-871.69 258.51,-858.06"/>
<text text-anchor="middle" x="284" y="-878.6" font-family="arial" font-size="8.00" fill="#3cb4a4">value</text>
</g>
<!-- inline2x1382 -->
<g id="node22" class="node">
<title>inline2x1382</title>
<ellipse fill="#d7ede7" stroke="black" cx="233.5" cy="-1002" rx="27" ry="18"/>
<text text-anchor="middle" x="233.5" y="-1000.1" font-family="Arial" font-size="8.00" fill="#1a1919">2 P(1)</text>
</g>
<!-- inline2x1382&#45;&gt;node1382 -->
<g id="edge25" class="edge">
<title>inline2x1382&#45;&gt;node1382</title>
<path fill="none" stroke="#3cb4a4" d="M225.83,-984.63C219.61,-971.34 210.86,-952.67 204.54,-939.17"/>
<text text-anchor="middle" x="225" y="-959.6" font-family="arial" font-size="8.00" fill="#3cb4a4">array</text>
</g>
</g>
</svg>
