<?xml version="1.0" encoding="UTF-8" standalone="no"?>
<!DOCTYPE svg PUBLIC "-//W3C//DTD SVG 1.1//EN"
 "http://www.w3.org/Graphics/SVG/1.1/DTD/svg11.dtd">
<!-- Generated by graphviz version 2.44.1 (20200629.0846)
 -->
<!-- Title: G Pages: 1 -->
<svg width="906pt" height="1128pt"
 viewBox="0.00 0.00 906.00 1128.00" xmlns="http://www.w3.org/2000/svg" xmlns:xlink="http://www.w3.org/1999/xlink">
<g id="graph0" class="graph" transform="scale(1 1) rotate(0) translate(4 1124)">
<title>G</title>
<!-- node0 -->
<g id="node1" class="node">
<title>node0</title>
<polygon fill="#e98693" stroke="black" points="72,-1120 16,-1120 16,-1084 72,-1084 72,-1120"/>
<text text-anchor="middle" x="44" y="-1098.3" font-family="Arial" font-size="14.00" fill="#1a1919">0 Start</text>
</g>
<!-- node2533 -->
<g id="node25" class="node">
<title>node2533</title>
<polygon fill="#da2d4f" stroke="black" points="136.5,-1039 23.5,-1039 23.5,-1003 136.5,-1003 136.5,-1039"/>
<text text-anchor="middle" x="80" y="-1017.3" font-family="Arial" font-size="14.00" fill="#ffffff">2533 Load T(...)</text>
</g>
<!-- node0&#45;&gt;node2533 -->
<g id="edge40" class="edge">
<title>node0&#45;&gt;node2533</title>
<path fill="none" stroke="#da2d4f" stroke-width="2" d="M51.81,-1083.86C56.53,-1073.51 62.64,-1060.1 67.96,-1048.41"/>
<polygon fill="#da2d4f" stroke="#da2d4f" stroke-width="2" points="71.24,-1049.66 72.2,-1039.11 64.87,-1046.76 71.24,-1049.66"/>
</g>
<!-- node532 -->
<g id="node2" class="node">
<title>node532</title>
<polygon fill="#f9f9f9" stroke="black" points="172,-958 90,-958 90,-922 172,-922 172,-958"/>
<text text-anchor="middle" x="131" y="-936.3" font-family="Arial" font-size="14.00" fill="#1a1919">532 Unbox</text>
</g>
<!-- node794 -->
<g id="node3" class="node">
<title>node794</title>
<polygon fill="#e98693" stroke="black" points="164.5,-885 97.5,-885 97.5,-849 164.5,-849 164.5,-885"/>
<text text-anchor="middle" x="131" y="-863.3" font-family="Arial" font-size="14.00" fill="#1a1919">794 End</text>
</g>
<!-- node532&#45;&gt;node794 -->
<g id="edge1" class="edge">
<title>node532&#45;&gt;node794</title>
<path fill="none" stroke="#da2d4f" stroke-width="2" d="M131,-921.81C131,-913.79 131,-904.05 131,-895.07"/>
<polygon fill="#da2d4f" stroke="#da2d4f" stroke-width="2" points="134.5,-895.03 131,-885.03 127.5,-895.03 134.5,-895.03"/>
</g>
<!-- node2511 -->
<g id="node23" class="node">
<title>node2511</title>
<polygon fill="#f9f9f9" stroke="black" points="278.5,-123 221.5,-123 221.5,-87 278.5,-87 278.5,-123"/>
<text text-anchor="middle" x="250" y="-101.3" font-family="Arial" font-size="14.00" fill="#1a1919">2511 ϕ</text>
</g>
<!-- node532&#45;&gt;node2511 -->
<g id="edge33" class="edge">
<title>node532&#45;&gt;node2511</title>
<path fill="none" stroke="#3cb4a4" d="M89.91,-934.06C51.49,-926.89 0,-909.52 0,-868 0,-868 0,-868 0,-191 0,-95.14 111.29,-151.83 211.5,-122.61"/>
<polygon fill="#3cb4a4" stroke="#3cb4a4" points="212.71,-125.9 221.16,-119.51 210.57,-119.23 212.71,-125.9"/>
<text text-anchor="middle" x="27.5" y="-543.3" font-family="arial" font-size="14.00" fill="#3cb4a4">from 794</text>
</g>
<!-- node2532 -->
<g id="node24" class="node">
<title>node2532</title>
<polygon fill="#f9f9f9" stroke="black" points="798.5,-210 603.5,-210 603.5,-174 798.5,-174 798.5,-210"/>
<text text-anchor="middle" x="701" y="-188.3" font-family="Arial" font-size="14.00" fill="#1a1919">2532 BoxNode$AllocatingBox</text>
</g>
<!-- node532&#45;&gt;node2532 -->
<g id="edge35" class="edge">
<title>node532&#45;&gt;node2532</title>
<path fill="none" stroke="#3cb4a4" d="M172.04,-939.37C326.61,-940.23 865,-938.17 865,-868 865,-868 865,-868 865,-278 865,-245.6 839.45,-225.53 808.52,-213.11"/>
<polygon fill="#3cb4a4" stroke="#3cb4a4" points="809.36,-209.69 798.77,-209.49 806.93,-216.25 809.36,-209.69"/>
<text text-anchor="middle" x="881.5" y="-586.8" font-family="arial" font-size="14.00" fill="#3cb4a4">value</text>
</g>
<!-- node795 -->
<g id="node4" class="node">
<title>node795</title>
<polygon fill="#e98693" stroke="black" points="184.5,-812 77.5,-812 77.5,-776 184.5,-776 184.5,-812"/>
<text text-anchor="middle" x="131" y="-790.3" font-family="Arial" font-size="14.00" fill="#1a1919">795 LoopBegin</text>
</g>
<!-- node794&#45;&gt;node795 -->
<g id="edge2" class="edge">
<title>node794&#45;&gt;node795</title>
<path fill="none" stroke="#da2d4f" stroke-width="2" d="M131,-848.81C131,-840.79 131,-831.05 131,-822.07"/>
<polygon fill="#da2d4f" stroke="#da2d4f" stroke-width="2" points="134.5,-822.03 131,-812.03 127.5,-822.03 134.5,-822.03"/>
</g>
<!-- node1012 -->
<g id="node6" class="node">
<title>node1012</title>
<polygon fill="#e98693" stroke="black" points="236,-739 178,-739 178,-703 236,-703 236,-739"/>
<text text-anchor="middle" x="207" y="-717.3" font-family="Arial" font-size="14.00" fill="#1a1919">1012 If</text>
</g>
<!-- node795&#45;&gt;node1012 -->
<g id="edge3" class="edge">
<title>node795&#45;&gt;node1012</title>
<path fill="none" stroke="#da2d4f" stroke-width="2" d="M149.4,-775.81C159.01,-766.83 170.93,-755.69 181.43,-745.89"/>
<polygon fill="#da2d4f" stroke="#da2d4f" stroke-width="2" points="183.85,-748.41 188.77,-739.03 179.08,-743.3 183.85,-748.41"/>
</g>
<!-- node795&#45;&gt;node2511 -->
<g id="edge32" class="edge">
<title>node795&#45;&gt;node2511</title>
<path fill="none" stroke="#343d46" stroke-dasharray="5,2" d="M104.08,-768.52C93.13,-755.9 83,-739.5 83,-722 83,-722 83,-722 83,-191 83,-183.33 173.54,-140.87 221.29,-119.01"/>
<polygon fill="#343d46" stroke="#343d46" points="101.55,-770.94 110.92,-775.87 106.67,-766.17 101.55,-770.94"/>
</g>
<!-- node973 -->
<g id="node5" class="node">
<title>node973</title>
<polygon fill="#3cb4a4" stroke="black" points="176,-36 129.25,-18 176,0 222.75,-18 176,-36"/>
<text text-anchor="middle" x="176" y="-14.3" font-family="Arial" font-size="14.00" fill="#1a1919">973 &lt;</text>
</g>
<!-- node973&#45;&gt;node1012 -->
<g id="edge6" class="edge">
<title>node973&#45;&gt;node1012</title>
<path fill="none" stroke="#3cb4a4" d="M166.44,-32.55C157.73,-45.75 145.42,-66.74 140,-87 104.67,-219.11 129,-257.75 129,-394.5 129,-635 129,-635 129,-635 129,-661.4 149.69,-683.16 169.75,-698.04"/>
<polygon fill="#3cb4a4" stroke="#3cb4a4" points="167.76,-700.92 177.96,-703.8 171.78,-695.19 167.76,-700.92"/>
<text text-anchor="middle" x="132" y="-348.3" font-family="arial" font-size="14.00" fill="#3cb4a4">?</text>
</g>
<!-- node1015 -->
<g id="node7" class="node">
<title>node1015</title>
<polygon fill="#e98693" stroke="black" points="712.5,-652 627.5,-652 627.5,-616 712.5,-616 712.5,-652"/>
<text text-anchor="middle" x="670" y="-630.3" font-family="Arial" font-size="14.00" fill="#1a1919">1015 Begin</text>
</g>
<!-- node1012&#45;&gt;node1015 -->
<g id="edge8" class="edge">
<title>node1012&#45;&gt;node1015</title>
<path fill="none" stroke="#da2d4f" stroke-width="2" d="M236.31,-714.62C312.82,-700.57 519.37,-662.65 617.22,-644.69"/>
<polygon fill="#da2d4f" stroke="#da2d4f" stroke-width="2" points="617.99,-648.11 627.19,-642.86 616.72,-641.22 617.99,-648.11"/>
<text text-anchor="middle" x="470.5" y="-673.8" font-family="arial" font-size="14.00" fill="#da2d4f">F</text>
</g>
<!-- node2162 -->
<g id="node16" class="node">
<title>node2162</title>
<polygon fill="#e98693" stroke="black" points="562.5,-652 459.5,-652 459.5,-616 562.5,-616 562.5,-652"/>
<text text-anchor="middle" x="511" y="-630.3" font-family="Arial" font-size="14.00" fill="#1a1919">2162 LoopExit</text>
</g>
<!-- node1012&#45;&gt;node2162 -->
<g id="edge7" class="edge">
<title>node1012&#45;&gt;node2162</title>
<path fill="none" stroke="#da2d4f" stroke-width="2" d="M236.15,-711.85C285.06,-698.17 384.65,-670.33 449.56,-652.18"/>
<polygon fill="#da2d4f" stroke="#da2d4f" stroke-width="2" points="450.59,-655.53 459.27,-649.46 448.7,-648.78 450.59,-655.53"/>
<text text-anchor="middle" x="381.5" y="-673.8" font-family="arial" font-size="14.00" fill="#da2d4f">T</text>
</g>
<!-- node1250 -->
<g id="node9" class="node">
<title>node1250</title>
<polygon fill="#e98693" stroke="black" points="712,-565 654,-565 654,-529 712,-529 712,-565"/>
<text text-anchor="middle" x="683" y="-543.3" font-family="Arial" font-size="14.00" fill="#1a1919">1250 If</text>
</g>
<!-- node1015&#45;&gt;node1250 -->
<g id="edge9" class="edge">
<title>node1015&#45;&gt;node1250</title>
<path fill="none" stroke="#da2d4f" stroke-width="2" d="M672.63,-615.8C674.41,-604.16 676.8,-588.55 678.83,-575.24"/>
<polygon fill="#da2d4f" stroke="#da2d4f" stroke-width="2" points="682.32,-575.59 680.37,-565.18 675.4,-574.53 682.32,-575.59"/>
</g>
<!-- node1207 -->
<g id="node8" class="node">
<title>node1207</title>
<polygon fill="#3cb4a4" stroke="black" points="707,-36 645.33,-18 707,0 768.67,-18 707,-36"/>
<text text-anchor="middle" x="707" y="-14.3" font-family="Arial" font-size="14.00" fill="#1a1919">1207 ==</text>
</g>
<!-- node1207&#45;&gt;node1250 -->
<g id="edge12" class="edge">
<title>node1207&#45;&gt;node1250</title>
<path fill="none" stroke="#3cb4a4" d="M738.84,-26.73C774.39,-37.49 827,-60.73 827,-104 827,-440 827,-440 827,-440 827,-492.42 764.36,-521.8 721.7,-535.73"/>
<polygon fill="#3cb4a4" stroke="#3cb4a4" points="720.65,-532.4 712.14,-538.71 722.73,-539.08 720.65,-532.4"/>
<text text-anchor="middle" x="831" y="-275.3" font-family="arial" font-size="14.00" fill="#3cb4a4">?</text>
</g>
<!-- node1252 -->
<g id="node10" class="node">
<title>node1252</title>
<polygon fill="#e98693" stroke="black" points="666.5,-457 581.5,-457 581.5,-421 666.5,-421 666.5,-457"/>
<text text-anchor="middle" x="624" y="-435.3" font-family="Arial" font-size="14.00" fill="#1a1919">1252 Begin</text>
</g>
<!-- node1250&#45;&gt;node1252 -->
<g id="edge14" class="edge">
<title>node1250&#45;&gt;node1252</title>
<path fill="none" stroke="#da2d4f" stroke-width="2" d="M673.52,-528.97C664.07,-511.99 649.44,-485.7 638.52,-466.09"/>
<polygon fill="#da2d4f" stroke="#da2d4f" stroke-width="2" points="641.57,-464.38 633.65,-457.34 635.46,-467.78 641.57,-464.38"/>
<text text-anchor="middle" x="666.5" y="-489.3" font-family="arial" font-size="14.00" fill="#da2d4f">F</text>
</g>
<!-- node2141 -->
<g id="node15" class="node">
<title>node2141</title>
<polygon fill="#e98693" stroke="black" points="787.5,-457 684.5,-457 684.5,-421 787.5,-421 787.5,-457"/>
<text text-anchor="middle" x="736" y="-435.3" font-family="Arial" font-size="14.00" fill="#1a1919">2141 LoopExit</text>
</g>
<!-- node1250&#45;&gt;node2141 -->
<g id="edge13" class="edge">
<title>node1250&#45;&gt;node2141</title>
<path fill="none" stroke="#da2d4f" stroke-width="2" d="M691.52,-528.97C699.96,-512.07 713.03,-485.94 722.82,-466.36"/>
<polygon fill="#da2d4f" stroke="#da2d4f" stroke-width="2" points="725.99,-467.85 727.33,-457.34 719.73,-464.72 725.99,-467.85"/>
<text text-anchor="middle" x="721.5" y="-489.3" font-family="arial" font-size="14.00" fill="#da2d4f">T</text>
</g>
<!-- node2482 -->
<g id="node22" class="node">
<title>node2482</title>
<polygon fill="#ffa500" stroke="black" points="524.5,-370 273.5,-370 273.5,-334 524.5,-334 524.5,-370"/>
<text text-anchor="middle" x="399" y="-348.3" font-family="Arial" font-size="14.00" fill="#1a1919">2482 Guard, else TransferToInterpreter</text>
</g>
<!-- node1252&#45;&gt;node2482 -->
<g id="edge15" class="edge">
<title>node1252&#45;&gt;node2482</title>
<path fill="none" stroke="#da2d4f" stroke-width="2" d="M581.41,-421.91C545.24,-408.25 493.09,-388.54 453.8,-373.7"/>
<polygon fill="#da2d4f" stroke="#da2d4f" stroke-width="2" points="454.7,-370.3 444.11,-370.04 452.23,-376.85 454.7,-370.3"/>
</g>
<!-- node1532 -->
<g id="node11" class="node">
<title>node1532</title>
<polygon fill="#3cb4a4" stroke="black" points="399,-457 337.33,-439 399,-421 460.67,-439 399,-457"/>
<text text-anchor="middle" x="399" y="-435.3" font-family="Arial" font-size="14.00" fill="#1a1919">1532 ==</text>
</g>
<!-- node1532&#45;&gt;node2482 -->
<g id="edge30" class="edge">
<title>node1532&#45;&gt;node2482</title>
<path fill="none" stroke="#3cb4a4" d="M399,-420.8C399,-409.16 399,-393.55 399,-380.24"/>
<polygon fill="#3cb4a4" stroke="#3cb4a4" points="402.5,-380.18 399,-370.18 395.5,-380.18 402.5,-380.18"/>
<text text-anchor="middle" x="403" y="-391.8" font-family="arial" font-size="14.00" fill="#3cb4a4">?</text>
</g>
<!-- node2041 -->
<g id="node12" class="node">
<title>node2041</title>
<polygon fill="#ffa500" stroke="black" points="586,-297 320,-297 320,-261 586,-261 586,-297"/>
<text text-anchor="middle" x="453" y="-275.3" font-family="Arial" font-size="14.00" fill="#1a1919">2041 Guard not, else ArithmeticException</text>
</g>
<!-- node2044 -->
<g id="node14" class="node">
<title>node2044</title>
<polygon fill="#3cb4a4" stroke="black" points="287,-210 149.25,-192 287,-174 424.75,-192 287,-210"/>
<text text-anchor="middle" x="287" y="-188.3" font-family="Arial" font-size="14.00" fill="#1a1919">2044 IntegerSubExact</text>
</g>
<!-- node2041&#45;&gt;node2044 -->
<g id="edge23" class="edge">
<title>node2041&#45;&gt;node2044</title>
<path fill="none" stroke="#3cb4a4" d="M419.41,-260.8C391.4,-246.46 351.6,-226.08 322.96,-211.41"/>
<polygon fill="#3cb4a4" stroke="#3cb4a4" points="324.2,-208.12 313.71,-206.68 321.01,-214.35 324.2,-208.12"/>
<text text-anchor="middle" x="396.5" y="-231.8" font-family="arial" font-size="14.00" fill="#3cb4a4">guard</text>
</g>
<!-- node2167 -->
<g id="node17" class="node">
<title>node2167</title>
<polygon fill="#e98693" stroke="black" points="585,-210 481,-210 481,-174 585,-174 585,-210"/>
<text text-anchor="middle" x="533" y="-188.3" font-family="Arial" font-size="14.00" fill="#1a1919">2167 LoopEnd</text>
</g>
<!-- node2041&#45;&gt;node2167 -->
<g id="edge18" class="edge">
<title>node2041&#45;&gt;node2167</title>
<path fill="none" stroke="#da2d4f" stroke-width="2" d="M469.19,-260.8C480.9,-248.36 496.89,-231.36 509.94,-217.5"/>
<polygon fill="#da2d4f" stroke="#da2d4f" stroke-width="2" points="512.53,-219.86 516.83,-210.18 507.43,-215.06 512.53,-219.86"/>
</g>
<!-- node2042 -->
<g id="node13" class="node">
<title>node2042</title>
<polygon fill="#3cb4a4" stroke="black" points="440,-36 252.48,-18 440,0 627.52,-18 440,-36"/>
<text text-anchor="middle" x="440" y="-14.3" font-family="Arial" font-size="14.00" fill="#1a1919">2042 IntegerSubExactOverflow</text>
</g>
<!-- node2042&#45;&gt;node2041 -->
<g id="edge17" class="edge">
<title>node2042&#45;&gt;node2041</title>
<path fill="none" stroke="#3cb4a4" d="M440.85,-35.98C443.05,-79.77 448.93,-196.83 451.62,-250.47"/>
<polygon fill="#3cb4a4" stroke="#3cb4a4" points="448.13,-250.79 452.13,-260.6 455.12,-250.44 448.13,-250.79"/>
<text text-anchor="middle" x="450" y="-144.8" font-family="arial" font-size="14.00" fill="#3cb4a4">?</text>
</g>
<!-- node2044&#45;&gt;node2511 -->
<g id="edge34" class="edge">
<title>node2044&#45;&gt;node2511</title>
<path fill="none" stroke="#3cb4a4" d="M249.51,-178.82C239.1,-173.52 229.01,-166.13 223,-156 218.34,-148.15 220.58,-139.44 225.34,-131.52"/>
<polygon fill="#3cb4a4" stroke="#3cb4a4" points="228.25,-133.47 231.28,-123.31 222.58,-129.36 228.25,-133.47"/>
<text text-anchor="middle" x="254" y="-144.8" font-family="arial" font-size="14.00" fill="#3cb4a4">from 2167</text>
</g>
<!-- node2232 -->
<g id="node19" class="node">
<title>node2232</title>
<polygon fill="#e98693" stroke="black" points="764,-370 690,-370 690,-334 764,-334 764,-370"/>
<text text-anchor="middle" x="727" y="-348.3" font-family="Arial" font-size="14.00" fill="#1a1919">2232 End</text>
</g>
<!-- node2141&#45;&gt;node2232 -->
<g id="edge24" class="edge">
<title>node2141&#45;&gt;node2232</title>
<path fill="none" stroke="#da2d4f" stroke-width="2" d="M734.18,-420.8C732.95,-409.16 731.29,-393.55 729.88,-380.24"/>
<polygon fill="#da2d4f" stroke="#da2d4f" stroke-width="2" points="733.35,-379.75 728.82,-370.18 726.39,-380.49 733.35,-379.75"/>
</g>
<!-- node2234 -->
<g id="node20" class="node">
<title>node2234</title>
<polygon fill="#e98693" stroke="black" points="566,-511 492,-511 492,-475 566,-475 566,-511"/>
<text text-anchor="middle" x="529" y="-489.3" font-family="Arial" font-size="14.00" fill="#1a1919">2234 End</text>
</g>
<!-- node2162&#45;&gt;node2234 -->
<g id="edge25" class="edge">
<title>node2162&#45;&gt;node2234</title>
<path fill="none" stroke="#da2d4f" stroke-width="2" d="M513.21,-615.96C516.27,-592.3 521.84,-549.26 525.48,-521.15"/>
<polygon fill="#da2d4f" stroke="#da2d4f" stroke-width="2" points="528.96,-521.55 526.77,-511.18 522.02,-520.65 528.96,-521.55"/>
</g>
<!-- node2230 -->
<g id="node18" class="node">
<title>node2230</title>
<polygon fill="#e98693" stroke="black" points="745.5,-297 656.5,-297 656.5,-261 745.5,-261 745.5,-297"/>
<text text-anchor="middle" x="701" y="-275.3" font-family="Arial" font-size="14.00" fill="#1a1919">2230 Merge</text>
</g>
<!-- node2230&#45;&gt;node2532 -->
<g id="edge28" class="edge">
<title>node2230&#45;&gt;node2532</title>
<path fill="none" stroke="#da2d4f" stroke-width="2" d="M701,-260.8C701,-249.16 701,-233.55 701,-220.24"/>
<polygon fill="#da2d4f" stroke="#da2d4f" stroke-width="2" points="704.5,-220.18 701,-210.18 697.5,-220.18 704.5,-220.18"/>
</g>
<!-- node2232&#45;&gt;node2230 -->
<g id="edge26" class="edge">
<title>node2232&#45;&gt;node2230</title>
<path fill="none" stroke="#da2d4f" stroke-width="2" d="M720.71,-333.81C717.7,-325.62 714.05,-315.62 710.7,-306.48"/>
<polygon fill="#da2d4f" stroke="#da2d4f" stroke-width="2" points="713.96,-305.22 707.24,-297.03 707.39,-307.62 713.96,-305.22"/>
</g>
<!-- node2234&#45;&gt;node2230 -->
<g id="edge27" class="edge">
<title>node2234&#45;&gt;node2230</title>
<path fill="none" stroke="#da2d4f" stroke-width="2" d="M538.48,-474.79C546.88,-460.05 559.82,-438.49 573,-421 605.74,-377.56 649.27,-331.72 676.2,-304.5"/>
<polygon fill="#da2d4f" stroke="#da2d4f" stroke-width="2" points="678.75,-306.89 683.33,-297.34 673.79,-301.96 678.75,-306.89"/>
</g>
<!-- node2390 -->
<g id="node21" class="node">
<title>node2390</title>
<polygon fill="#e98693" stroke="black" points="795.5,-123 704.5,-123 704.5,-87 795.5,-87 795.5,-123"/>
<text text-anchor="middle" x="750" y="-101.3" font-family="Arial" font-size="14.00" fill="#1a1919">2390 Return</text>
</g>
<!-- node2482&#45;&gt;node2041 -->
<g id="edge31" class="edge">
<title>node2482&#45;&gt;node2041</title>
<path fill="none" stroke="#da2d4f" stroke-width="2" d="M412.07,-333.81C418.64,-325.18 426.72,-314.56 433.96,-305.03"/>
<polygon fill="#da2d4f" stroke="#da2d4f" stroke-width="2" points="436.78,-307.11 440.05,-297.03 431.21,-302.87 436.78,-307.11"/>
</g>
<!-- node2511&#45;&gt;node973 -->
<g id="edge4" class="edge">
<title>node2511&#45;&gt;node973</title>
<path fill="none" stroke="#3cb4a4" d="M235.02,-86.8C223.16,-73.17 206.55,-54.09 193.97,-39.64"/>
<polygon fill="#3cb4a4" stroke="#3cb4a4" points="196.3,-36.99 187.1,-31.75 191.02,-41.59 196.3,-36.99"/>
<text text-anchor="middle" x="220.5" y="-57.8" font-family="arial" font-size="14.00" fill="#3cb4a4">x</text>
</g>
<!-- node2511&#45;&gt;node1207 -->
<g id="edge10" class="edge">
<title>node2511&#45;&gt;node1207</title>
<path fill="none" stroke="#3cb4a4" d="M278.55,-97.2C323.22,-86.76 412.46,-66.64 489,-54 554.38,-43.21 571.8,-47.84 637,-36 646.68,-34.24 657.02,-31.96 666.7,-29.64"/>
<polygon fill="#3cb4a4" stroke="#3cb4a4" points="667.62,-33.02 676.5,-27.23 665.95,-26.22 667.62,-33.02"/>
<text text-anchor="middle" x="492.5" y="-57.8" font-family="arial" font-size="14.00" fill="#3cb4a4">x</text>
</g>
<!-- node2511&#45;&gt;node2042 -->
<g id="edge19" class="edge">
<title>node2511&#45;&gt;node2042</title>
<path fill="none" stroke="#3cb4a4" d="M278.86,-91.09C310.97,-76.72 363.11,-53.4 399.35,-37.19"/>
<polygon fill="#3cb4a4" stroke="#3cb4a4" points="400.95,-40.3 408.65,-33.02 398.1,-33.91 400.95,-40.3"/>
<text text-anchor="middle" x="359.5" y="-57.8" font-family="arial" font-size="14.00" fill="#3cb4a4">x</text>
</g>
<!-- node2511&#45;&gt;node2044 -->
<g id="edge21" class="edge">
<title>node2511&#45;&gt;node2044</title>
<path fill="none" stroke="#3cb4a4" d="M275.35,-123.09C280.87,-128.15 285.96,-134.19 289,-141 292.21,-148.2 292.9,-156.58 292.44,-164.39"/>
<polygon fill="#3cb4a4" stroke="#3cb4a4" points="288.94,-164.2 291.24,-174.54 295.89,-165.02 288.94,-164.2"/>
<text text-anchor="middle" x="295.5" y="-144.8" font-family="arial" font-size="14.00" fill="#3cb4a4">x</text>
</g>
<!-- node2532&#45;&gt;node2390 -->
<g id="edge29" class="edge">
<title>node2532&#45;&gt;node2390</title>
<path fill="none" stroke="#3cb4a4" d="M697.7,-173.86C696.61,-163.75 696.78,-151.01 702,-141 704.09,-136.98 706.88,-133.31 710.07,-129.99"/>
<polygon fill="#3cb4a4" stroke="#3cb4a4" points="712.45,-132.55 717.55,-123.27 707.77,-127.34 712.45,-132.55"/>
<text text-anchor="middle" x="719" y="-144.8" font-family="arial" font-size="14.00" fill="#3cb4a4">result</text>
</g>
<!-- node2532&#45;&gt;node2390 -->
<g id="edge36" class="edge">
<title>node2532&#45;&gt;node2390</title>
<path fill="none" stroke="#da2d4f" stroke-width="2" d="M721.5,-174C726.85,-168.7 732.18,-162.53 736,-156 740.11,-148.97 743.07,-140.67 745.17,-132.87"/>
<polygon fill="#da2d4f" stroke="#da2d4f" stroke-width="2" points="748.59,-133.6 747.46,-123.06 741.78,-132 748.59,-133.6"/>
</g>
<!-- node2533&#45;&gt;node532 -->
<g id="edge41" class="edge">
<title>node2533&#45;&gt;node532</title>
<path fill="none" stroke="#da2d4f" stroke-width="2" d="M91.07,-1002.86C97.88,-992.3 106.75,-978.56 114.4,-966.71"/>
<polygon fill="#da2d4f" stroke="#da2d4f" stroke-width="2" points="117.47,-968.41 119.96,-958.11 111.59,-964.61 117.47,-968.41"/>
</g>
<!-- inline23x973 -->
<g id="node26" class="node">
<title>inline23x973</title>
<ellipse fill="#d7ede7" stroke="black" cx="176" cy="-105" rx="27" ry="18"/>
<text text-anchor="middle" x="176" y="-103.1" font-family="Arial" font-size="8.00" fill="#1a1919">23 C(1)</text>
</g>
<!-- inline23x973&#45;&gt;node973 -->
<g id="edge5" class="edge">
<title>inline23x973&#45;&gt;node973</title>
<path fill="none" stroke="#3cb4a4" d="M176,-86.8C176,-72.05 176,-50.92 176,-36.18"/>
<text text-anchor="middle" x="178" y="-59.6" font-family="arial" font-size="8.00" fill="#3cb4a4">y</text>
</g>
<!-- inline105x1207 -->
<g id="node27" class="node">
<title>inline105x1207</title>
<ellipse fill="#d7ede7" stroke="black" cx="659" cy="-105" rx="27.59" ry="18"/>
<text text-anchor="middle" x="659" y="-103.1" font-family="Arial" font-size="8.00" fill="#1a1919">105 C(4)</text>
</g>
<!-- inline105x1207&#45;&gt;node1207 -->
<g id="edge11" class="edge">
<title>inline105x1207&#45;&gt;node1207</title>
<path fill="none" stroke="#3cb4a4" d="M668.25,-87.61C677.08,-71.98 690.25,-48.66 698.73,-33.64"/>
<text text-anchor="middle" x="687" y="-59.6" font-family="arial" font-size="8.00" fill="#3cb4a4">y</text>
</g>
<!-- inline1530x1532 -->
<g id="node28" class="node">
<title>inline1530x1532</title>
<ellipse fill="#d7ede7" stroke="black" cx="284" cy="-547" rx="83.9" ry="18"/>
<text text-anchor="middle" x="284" y="-545.1" font-family="Arial" font-size="8.00" fill="#1a1919">1530 C(RubyBasicObject@7fc889f3)</text>
</g>
<!-- inline1530x1532&#45;&gt;node1532 -->
<g id="edge16" class="edge">
<title>inline1530x1532&#45;&gt;node1532</title>
<path fill="none" stroke="#3cb4a4" d="M302.22,-529.2C325.15,-508.07 364.03,-472.23 384.85,-453.04"/>
<text text-anchor="middle" x="360" y="-491.1" font-family="arial" font-size="8.00" fill="#3cb4a4">y</text>
</g>
<!-- inline23x2042 -->
<g id="node29" class="node">
<title>inline23x2042</title>
<ellipse fill="#d7ede7" stroke="black" cx="516" cy="-105" rx="27" ry="18"/>
<text text-anchor="middle" x="516" y="-103.1" font-family="Arial" font-size="8.00" fill="#1a1919">23 C(1)</text>
</g>
<!-- inline23x2042&#45;&gt;node2042 -->
<g id="edge20" class="edge">
<title>inline23x2042&#45;&gt;node2042</title>
<path fill="none" stroke="#3cb4a4" d="M511.23,-86.88C507.71,-76.53 502.11,-63.53 494,-54 487.05,-45.83 477.72,-38.87 468.77,-33.35"/>
<text text-anchor="middle" x="505" y="-59.6" font-family="arial" font-size="8.00" fill="#3cb4a4">y</text>
</g>
<!-- inline23x2044 -->
<g id="node30" class="node">
<title>inline23x2044</title>
<ellipse fill="#d7ede7" stroke="black" cx="275" cy="-279" rx="27" ry="18"/>
<text text-anchor="middle" x="275" y="-277.1" font-family="Arial" font-size="8.00" fill="#1a1919">23 C(1)</text>
</g>
<!-- inline23x2044&#45;&gt;node2044 -->
<g id="edge22" class="edge">
<title>inline23x2044&#45;&gt;node2044</title>
<path fill="none" stroke="#3cb4a4" d="M277.43,-260.8C279.52,-245.95 282.53,-224.64 284.62,-209.89"/>
<text text-anchor="middle" x="283" y="-233.6" font-family="arial" font-size="8.00" fill="#3cb4a4">y</text>
</g>
<!-- inline125x1532 -->
<g id="node31" class="node">
<title>inline125x1532</title>
<ellipse fill="#d7ede7" stroke="black" cx="413" cy="-547" rx="27.46" ry="18"/>
<text text-anchor="middle" x="413" y="-545.1" font-family="Arial" font-size="8.00" fill="#1a1919">125 T(5)</text>
</g>
<!-- inline125x1532&#45;&gt;node1532 -->
<g id="edge37" class="edge">
<title>inline125x1532&#45;&gt;node1532</title>
<path fill="none" stroke="#3cb4a4" d="M410.75,-528.97C408.12,-509.07 403.8,-476.37 401.2,-456.64"/>
<text text-anchor="middle" x="410" y="-491.1" font-family="arial" font-size="8.00" fill="#3cb4a4">x</text>
</g>
<!-- inline161x532 -->
<g id="node32" class="node">
<title>inline161x532</title>
<ellipse fill="#d7ede7" stroke="black" cx="182" cy="-1021" rx="27.46" ry="18"/>
<text text-anchor="middle" x="182" y="-1019.1" font-family="Arial" font-size="8.00" fill="#1a1919">161 T(7)</text>
</g>
<!-- inline161x532&#45;&gt;node532 -->
<g id="edge38" class="edge">
<title>inline161x532&#45;&gt;node532</title>
<path fill="none" stroke="#3cb4a4" d="M171.68,-1004.01C163.06,-990.67 150.81,-971.69 142.01,-958.06"/>
<text text-anchor="middle" x="167.5" y="-978.6" font-family="arial" font-size="8.00" fill="#3cb4a4">value</text>
</g>
<!-- inline2x2533 -->
<g id="node33" class="node">
<title>inline2x2533</title>
<ellipse fill="#d7ede7" stroke="black" cx="117" cy="-1102" rx="27" ry="18"/>
<text text-anchor="middle" x="117" y="-1100.1" font-family="Arial" font-size="8.00" fill="#1a1919">2 P(1)</text>
</g>
<!-- inline2x2533&#45;&gt;node2533 -->
<g id="edge39" class="edge">
<title>inline2x2533&#45;&gt;node2533</title>
<path fill="none" stroke="#3cb4a4" d="M109.33,-1084.63C103.11,-1071.34 94.36,-1052.67 88.04,-1039.17"/>
<text text-anchor="middle" x="108.5" y="-1059.6" font-family="arial" font-size="8.00" fill="#3cb4a4">array</text>
</g>
</g>
</svg>
