<?xml version="1.0" encoding="UTF-8" standalone="no"?>
<!DOCTYPE svg PUBLIC "-//W3C//DTD SVG 1.1//EN"
 "http://www.w3.org/Graphics/SVG/1.1/DTD/svg11.dtd">
<!-- Generated by graphviz version 2.44.1 (20200629.0846)
 -->
<!-- Title: G Pages: 1 -->
<svg width="1295pt" height="1730pt"
 viewBox="0.00 0.00 1294.50 1730.00" xmlns="http://www.w3.org/2000/svg" xmlns:xlink="http://www.w3.org/1999/xlink">
<g id="graph0" class="graph" transform="scale(1 1) rotate(0) translate(4 1726)">
<title>G</title>
<!-- node0 -->
<g id="node1" class="node">
<title>node0</title>
<polygon fill="#e98693" stroke="black" points="939.5,-1722 883.5,-1722 883.5,-1686 939.5,-1686 939.5,-1722"/>
<text text-anchor="middle" x="911.5" y="-1700.3" font-family="Arial" font-size="14.00" fill="#1a1919">0 Start</text>
</g>
<!-- node2391 -->
<g id="node38" class="node">
<title>node2391</title>
<polygon fill="#da2d4f" stroke="black" points="1004,-1641 891,-1641 891,-1605 1004,-1605 1004,-1641"/>
<text text-anchor="middle" x="947.5" y="-1619.3" font-family="Arial" font-size="14.00" fill="#ffffff">2391 Load T(...)</text>
</g>
<!-- node0&#45;&gt;node2391 -->
<g id="edge63" class="edge">
<title>node0&#45;&gt;node2391</title>
<path fill="none" stroke="#da2d4f" stroke-width="2" d="M919.31,-1685.86C924.03,-1675.51 930.14,-1662.1 935.46,-1650.41"/>
<polygon fill="#da2d4f" stroke="#da2d4f" stroke-width="2" points="938.74,-1651.66 939.7,-1641.11 932.37,-1648.76 938.74,-1651.66"/>
</g>
<!-- node521 -->
<g id="node2" class="node">
<title>node521</title>
<polygon fill="#f9f9f9" stroke="black" points="1057.5,-1560 975.5,-1560 975.5,-1524 1057.5,-1524 1057.5,-1560"/>
<text text-anchor="middle" x="1016.5" y="-1538.3" font-family="Arial" font-size="14.00" fill="#1a1919">521 Unbox</text>
</g>
<!-- node680 -->
<g id="node3" class="node">
<title>node680</title>
<polygon fill="#f9f9f9" stroke="black" points="1197.5,-1473 1115.5,-1473 1115.5,-1437 1197.5,-1437 1197.5,-1473"/>
<text text-anchor="middle" x="1156.5" y="-1451.3" font-family="Arial" font-size="14.00" fill="#1a1919">680 Unbox</text>
</g>
<!-- node521&#45;&gt;node680 -->
<g id="edge1" class="edge">
<title>node521&#45;&gt;node680</title>
<path fill="none" stroke="#da2d4f" stroke-width="2" d="M1044.83,-1523.8C1066.37,-1510.72 1096.18,-1492.62 1119.59,-1478.41"/>
<polygon fill="#da2d4f" stroke="#da2d4f" stroke-width="2" points="1121.48,-1481.36 1128.21,-1473.18 1117.85,-1475.37 1121.48,-1481.36"/>
</g>
<!-- node909 -->
<g id="node5" class="node">
<title>node909</title>
<polygon fill="#3cb4a4" stroke="black" points="823.5,-1473 769.04,-1455 823.5,-1437 877.96,-1455 823.5,-1473"/>
<text text-anchor="middle" x="823.5" y="-1451.3" font-family="Arial" font-size="14.00" fill="#1a1919">909 ==</text>
</g>
<!-- node521&#45;&gt;node909 -->
<g id="edge56" class="edge">
<title>node521&#45;&gt;node909</title>
<path fill="none" stroke="#3cb4a4" d="M977.44,-1523.8C941.35,-1507.9 888.41,-1484.59 854.96,-1469.86"/>
<polygon fill="#3cb4a4" stroke="#3cb4a4" points="856.23,-1466.59 845.66,-1465.76 853.4,-1472.99 856.23,-1466.59"/>
<text text-anchor="middle" x="936" y="-1494.8" font-family="arial" font-size="14.00" fill="#3cb4a4">x</text>
</g>
<!-- node908 -->
<g id="node4" class="node">
<title>node908</title>
<polygon fill="#e98693" stroke="black" points="774.5,-1386 720.5,-1386 720.5,-1350 774.5,-1350 774.5,-1386"/>
<text text-anchor="middle" x="747.5" y="-1364.3" font-family="Arial" font-size="14.00" fill="#1a1919">908 If</text>
</g>
<!-- node680&#45;&gt;node908 -->
<g id="edge2" class="edge">
<title>node680&#45;&gt;node908</title>
<path fill="none" stroke="#da2d4f" stroke-width="2" d="M1115.36,-1450.05C1047.47,-1442.76 908.01,-1424.59 784.35,-1385.82"/>
<polygon fill="#da2d4f" stroke="#da2d4f" stroke-width="2" points="785.31,-1382.46 774.72,-1382.75 783.18,-1389.13 785.31,-1382.46"/>
</g>
<!-- node2198 -->
<g id="node15" class="node">
<title>node2198</title>
<polygon fill="#3cb4a4" stroke="black" points="1063.5,-384 875.98,-366 1063.5,-348 1251.02,-366 1063.5,-384"/>
<text text-anchor="middle" x="1063.5" y="-362.3" font-family="Arial" font-size="14.00" fill="#1a1919">2198 IntegerAddExactOverflow</text>
</g>
<!-- node680&#45;&gt;node2198 -->
<g id="edge17" class="edge">
<title>node680&#45;&gt;node2198</title>
<path fill="none" stroke="#3cb4a4" d="M1173.29,-1436.7C1187.13,-1420.56 1204.5,-1395.1 1204.5,-1369 1204.5,-1369 1204.5,-1369 1204.5,-452 1204.5,-414.74 1167.94,-393.39 1132.06,-381.4"/>
<polygon fill="#3cb4a4" stroke="#3cb4a4" points="1133.07,-378.05 1122.48,-378.41 1130.98,-384.73 1133.07,-378.05"/>
<text text-anchor="middle" x="1208" y="-885.8" font-family="arial" font-size="14.00" fill="#3cb4a4">x</text>
</g>
<!-- node2200 -->
<g id="node16" class="node">
<title>node2200</title>
<polygon fill="#3cb4a4" stroke="black" points="951.5,-210 813.75,-192 951.5,-174 1089.25,-192 951.5,-210"/>
<text text-anchor="middle" x="951.5" y="-188.3" font-family="Arial" font-size="14.00" fill="#1a1919">2200 IntegerAddExact</text>
</g>
<!-- node680&#45;&gt;node2200 -->
<g id="edge19" class="edge">
<title>node680&#45;&gt;node2200</title>
<path fill="none" stroke="#3cb4a4" d="M1197.8,-1443.87C1233.53,-1432.34 1279.5,-1409.62 1279.5,-1369 1279.5,-1369 1279.5,-1369 1279.5,-278 1279.5,-229.99 1146.16,-208.65 1049.51,-199.48"/>
<polygon fill="#3cb4a4" stroke="#3cb4a4" points="1049.68,-195.98 1039.4,-198.56 1049.04,-202.95 1049.68,-195.98"/>
<text text-anchor="middle" x="1283" y="-798.8" font-family="arial" font-size="14.00" fill="#3cb4a4">x</text>
</g>
<!-- node910 -->
<g id="node6" class="node">
<title>node910</title>
<polygon fill="#e98693" stroke="black" points="483,-1299 406,-1299 406,-1263 483,-1263 483,-1299"/>
<text text-anchor="middle" x="444.5" y="-1277.3" font-family="Arial" font-size="14.00" fill="#1a1919">910 Begin</text>
</g>
<!-- node908&#45;&gt;node910 -->
<g id="edge4" class="edge">
<title>node908&#45;&gt;node910</title>
<path fill="none" stroke="#da2d4f" stroke-width="2" d="M723.16,-1349.81C706.33,-1338.74 682.99,-1324.98 660.5,-1317 630.48,-1306.34 547.11,-1294.63 493.16,-1287.82"/>
<polygon fill="#da2d4f" stroke="#da2d4f" stroke-width="2" points="493.47,-1284.33 483.12,-1286.56 492.61,-1291.28 493.47,-1284.33"/>
<text text-anchor="middle" x="698" y="-1320.8" font-family="arial" font-size="14.00" fill="#da2d4f">T</text>
</g>
<!-- node911 -->
<g id="node7" class="node">
<title>node911</title>
<polygon fill="#e98693" stroke="black" points="809,-1299 732,-1299 732,-1263 809,-1263 809,-1299"/>
<text text-anchor="middle" x="770.5" y="-1277.3" font-family="Arial" font-size="14.00" fill="#1a1919">911 Begin</text>
</g>
<!-- node908&#45;&gt;node911 -->
<g id="edge5" class="edge">
<title>node908&#45;&gt;node911</title>
<path fill="none" stroke="#da2d4f" stroke-width="2" d="M752.15,-1349.8C755.33,-1338.05 759.61,-1322.24 763.24,-1308.84"/>
<polygon fill="#da2d4f" stroke="#da2d4f" stroke-width="2" points="766.62,-1309.74 765.85,-1299.18 759.86,-1307.91 766.62,-1309.74"/>
<text text-anchor="middle" x="765" y="-1320.8" font-family="arial" font-size="14.00" fill="#da2d4f">F</text>
</g>
<!-- node909&#45;&gt;node908 -->
<g id="edge3" class="edge">
<title>node909&#45;&gt;node908</title>
<path fill="none" stroke="#3cb4a4" d="M811.62,-1440.72C800.46,-1428.23 783.47,-1409.23 769.78,-1393.92"/>
<polygon fill="#3cb4a4" stroke="#3cb4a4" points="772.25,-1391.43 762.97,-1386.3 767.03,-1396.09 772.25,-1391.43"/>
<text text-anchor="middle" x="794.5" y="-1407.8" font-family="arial" font-size="14.00" fill="#3cb4a4">?</text>
</g>
<!-- node2335 -->
<g id="node29" class="node">
<title>node2335</title>
<polygon fill="#ffa500" stroke="black" points="251,-1212 0,-1212 0,-1176 251,-1176 251,-1212"/>
<text text-anchor="middle" x="125.5" y="-1190.3" font-family="Arial" font-size="14.00" fill="#1a1919">2335 Guard, else TransferToInterpreter</text>
</g>
<!-- node910&#45;&gt;node2335 -->
<g id="edge7" class="edge">
<title>node910&#45;&gt;node2335</title>
<path fill="none" stroke="#da2d4f" stroke-width="2" d="M405.7,-1269.66C354.53,-1256.03 263.44,-1231.76 199.03,-1214.59"/>
<polygon fill="#da2d4f" stroke="#da2d4f" stroke-width="2" points="199.9,-1211.2 189.33,-1212.01 198.09,-1217.97 199.9,-1211.2"/>
</g>
<!-- node2331 -->
<g id="node28" class="node">
<title>node2331</title>
<polygon fill="#ffa500" stroke="black" points="848,-1212 597,-1212 597,-1176 848,-1176 848,-1212"/>
<text text-anchor="middle" x="722.5" y="-1190.3" font-family="Arial" font-size="14.00" fill="#1a1919">2331 Guard, else TransferToInterpreter</text>
</g>
<!-- node911&#45;&gt;node2331 -->
<g id="edge8" class="edge">
<title>node911&#45;&gt;node2331</title>
<path fill="none" stroke="#da2d4f" stroke-width="2" d="M760.79,-1262.8C754.02,-1250.82 744.87,-1234.62 737.21,-1221.06"/>
<polygon fill="#da2d4f" stroke="#da2d4f" stroke-width="2" points="740.16,-1219.16 732.2,-1212.18 734.07,-1222.6 740.16,-1219.16"/>
</g>
<!-- node1071 -->
<g id="node8" class="node">
<title>node1071</title>
<polygon fill="#3cb4a4" stroke="black" points="652.5,-1299 590.83,-1281 652.5,-1263 714.17,-1281 652.5,-1299"/>
<text text-anchor="middle" x="652.5" y="-1277.3" font-family="Arial" font-size="14.00" fill="#1a1919">1071 ==</text>
</g>
<!-- node1071&#45;&gt;node2331 -->
<g id="edge37" class="edge">
<title>node1071&#45;&gt;node2331</title>
<path fill="none" stroke="#3cb4a4" d="M664.06,-1265.96C674.28,-1253.55 689.44,-1235.14 701.76,-1220.19"/>
<polygon fill="#3cb4a4" stroke="#3cb4a4" points="704.61,-1222.23 708.26,-1212.29 699.2,-1217.78 704.61,-1222.23"/>
<text text-anchor="middle" x="696.5" y="-1233.8" font-family="arial" font-size="14.00" fill="#3cb4a4">?</text>
</g>
<!-- node1071&#45;&gt;node2335 -->
<g id="edge39" class="edge">
<title>node1071&#45;&gt;node2335</title>
<path fill="none" stroke="#3cb4a4" d="M614.6,-1273.89C537.55,-1261.46 359.89,-1232.8 241.26,-1213.67"/>
<polygon fill="#3cb4a4" stroke="#3cb4a4" points="241.47,-1210.16 231.04,-1212.02 240.35,-1217.07 241.47,-1210.16"/>
<text text-anchor="middle" x="425.5" y="-1233.8" font-family="arial" font-size="14.00" fill="#3cb4a4">?</text>
</g>
<!-- node1368 -->
<g id="node9" class="node">
<title>node1368</title>
<polygon fill="#f9f9f9" stroke="black" points="904,-704 815,-704 815,-668 904,-668 904,-704"/>
<text text-anchor="middle" x="859.5" y="-682.3" font-family="Arial" font-size="14.00" fill="#1a1919">1368 Unbox</text>
</g>
<!-- node1905 -->
<g id="node12" class="node">
<title>node1905</title>
<polygon fill="#e98693" stroke="black" points="790.5,-631 716.5,-631 716.5,-595 790.5,-595 790.5,-631"/>
<text text-anchor="middle" x="753.5" y="-609.3" font-family="Arial" font-size="14.00" fill="#1a1919">1905 End</text>
</g>
<!-- node1368&#45;&gt;node1905 -->
<g id="edge10" class="edge">
<title>node1368&#45;&gt;node1905</title>
<path fill="none" stroke="#da2d4f" stroke-width="2" d="M834.11,-667.99C820.18,-658.67 802.73,-646.97 787.63,-636.86"/>
<polygon fill="#da2d4f" stroke="#da2d4f" stroke-width="2" points="789.31,-633.77 779.05,-631.11 785.41,-639.59 789.31,-633.77"/>
</g>
<!-- node2385 -->
<g id="node36" class="node">
<title>node2385</title>
<polygon fill="#f9f9f9" stroke="black" points="819.5,-471 761.5,-471 761.5,-435 819.5,-435 819.5,-471"/>
<text text-anchor="middle" x="790.5" y="-449.3" font-family="Arial" font-size="14.00" fill="#1a1919">2385 ϕ</text>
</g>
<!-- node1368&#45;&gt;node2385 -->
<g id="edge50" class="edge">
<title>node1368&#45;&gt;node2385</title>
<path fill="none" stroke="#3cb4a4" d="M854.31,-667.64C842.37,-627.66 812.86,-528.86 798.55,-480.93"/>
<polygon fill="#3cb4a4" stroke="#3cb4a4" points="801.87,-479.83 795.65,-471.25 795.16,-481.83 801.87,-479.83"/>
<text text-anchor="middle" x="858.5" y="-565.8" font-family="arial" font-size="14.00" fill="#3cb4a4">from 1905</text>
</g>
<!-- node1856 -->
<g id="node10" class="node">
<title>node1856</title>
<polygon fill="#f9f9f9" stroke="black" points="327,-704 238,-704 238,-668 327,-668 327,-704"/>
<text text-anchor="middle" x="282.5" y="-682.3" font-family="Arial" font-size="14.00" fill="#1a1919">1856 Unbox</text>
</g>
<!-- node1907 -->
<g id="node13" class="node">
<title>node1907</title>
<polygon fill="#e98693" stroke="black" points="530.5,-631 456.5,-631 456.5,-595 530.5,-595 530.5,-631"/>
<text text-anchor="middle" x="493.5" y="-609.3" font-family="Arial" font-size="14.00" fill="#1a1919">1907 End</text>
</g>
<!-- node1856&#45;&gt;node1907 -->
<g id="edge11" class="edge">
<title>node1856&#45;&gt;node1907</title>
<path fill="none" stroke="#da2d4f" stroke-width="2" d="M327.22,-670.28C330.01,-669.48 332.79,-668.71 335.5,-668 374.12,-657.89 385.84,-663.25 423.5,-650 434.26,-646.21 445.44,-641.07 455.63,-635.86"/>
<polygon fill="#da2d4f" stroke="#da2d4f" stroke-width="2" points="457.45,-638.85 464.66,-631.09 454.19,-632.66 457.45,-638.85"/>
</g>
<!-- node1856&#45;&gt;node2385 -->
<g id="edge51" class="edge">
<title>node1856&#45;&gt;node2385</title>
<path fill="none" stroke="#3cb4a4" d="M311.5,-667.92C344.07,-649.04 398.75,-618.23 447.5,-595 555.36,-543.6 687.08,-492.63 751.39,-468.47"/>
<polygon fill="#3cb4a4" stroke="#3cb4a4" points="752.99,-471.61 761.12,-464.83 750.53,-465.06 752.99,-471.61"/>
<text text-anchor="middle" x="550.5" y="-565.8" font-family="arial" font-size="14.00" fill="#3cb4a4">from 1907</text>
</g>
<!-- node1903 -->
<g id="node11" class="node">
<title>node1903</title>
<polygon fill="#e98693" stroke="black" points="794,-544 705,-544 705,-508 794,-508 794,-544"/>
<text text-anchor="middle" x="749.5" y="-522.3" font-family="Arial" font-size="14.00" fill="#1a1919">1903 Merge</text>
</g>
<!-- node2197 -->
<g id="node14" class="node">
<title>node2197</title>
<polygon fill="#ffa500" stroke="black" points="1094.5,-297 828.5,-297 828.5,-261 1094.5,-261 1094.5,-297"/>
<text text-anchor="middle" x="961.5" y="-275.3" font-family="Arial" font-size="14.00" fill="#1a1919">2197 Guard not, else ArithmeticException</text>
</g>
<!-- node1903&#45;&gt;node2197 -->
<g id="edge14" class="edge">
<title>node1903&#45;&gt;node2197</title>
<path fill="none" stroke="#da2d4f" stroke-width="2" d="M784.68,-507.89C800.07,-498.84 817.16,-486.38 828.5,-471 862.46,-424.95 833.04,-394.41 866.5,-348 879.95,-329.34 900.14,-313.86 918.45,-302.41"/>
<polygon fill="#da2d4f" stroke="#da2d4f" stroke-width="2" points="920.48,-305.27 927.25,-297.12 916.87,-299.28 920.48,-305.27"/>
</g>
<!-- node1903&#45;&gt;node2385 -->
<g id="edge49" class="edge">
<title>node1903&#45;&gt;node2385</title>
<path fill="none" stroke="#343d46" stroke-dasharray="5,2" d="M764.56,-498.92C769.93,-489.61 775.85,-479.38 780.67,-471.03"/>
<polygon fill="#343d46" stroke="#343d46" points="761.39,-497.4 759.42,-507.81 767.46,-500.9 761.39,-497.4"/>
</g>
<!-- node1905&#45;&gt;node1903 -->
<g id="edge12" class="edge">
<title>node1905&#45;&gt;node1903</title>
<path fill="none" stroke="#da2d4f" stroke-width="2" d="M752.69,-594.8C752.14,-583.16 751.41,-567.55 750.78,-554.24"/>
<polygon fill="#da2d4f" stroke="#da2d4f" stroke-width="2" points="754.27,-554 750.31,-544.18 747.28,-554.33 754.27,-554"/>
</g>
<!-- node1907&#45;&gt;node1903 -->
<g id="edge13" class="edge">
<title>node1907&#45;&gt;node1903</title>
<path fill="none" stroke="#da2d4f" stroke-width="2" d="M530.72,-599.64C574.02,-585.27 645.85,-561.41 695.33,-544.99"/>
<polygon fill="#da2d4f" stroke="#da2d4f" stroke-width="2" points="696.52,-548.28 704.91,-541.81 694.32,-541.64 696.52,-548.28"/>
</g>
<!-- node2197&#45;&gt;node2200 -->
<g id="edge21" class="edge">
<title>node2197&#45;&gt;node2200</title>
<path fill="none" stroke="#3cb4a4" d="M959.48,-260.8C958.1,-249.09 956.25,-233.34 954.67,-219.97"/>
<polygon fill="#3cb4a4" stroke="#3cb4a4" points="958.13,-219.41 953.49,-209.89 951.18,-220.23 958.13,-219.41"/>
<text text-anchor="middle" x="974" y="-231.8" font-family="arial" font-size="14.00" fill="#3cb4a4">guard</text>
</g>
<!-- node2390 -->
<g id="node37" class="node">
<title>node2390</title>
<polygon fill="#f9f9f9" stroke="black" points="889,-123 694,-123 694,-87 889,-87 889,-123"/>
<text text-anchor="middle" x="791.5" y="-101.3" font-family="Arial" font-size="14.00" fill="#1a1919">2390 BoxNode$AllocatingBox</text>
</g>
<!-- node2197&#45;&gt;node2390 -->
<g id="edge16" class="edge">
<title>node2197&#45;&gt;node2390</title>
<path fill="none" stroke="#da2d4f" stroke-width="2" d="M881.59,-260.98C852.98,-250.88 823.21,-234.96 804.5,-210 788.11,-188.13 786.48,-156.12 787.93,-133.4"/>
<polygon fill="#da2d4f" stroke="#da2d4f" stroke-width="2" points="791.42,-133.64 788.8,-123.38 784.45,-133.04 791.42,-133.64"/>
</g>
<!-- node2198&#45;&gt;node2197 -->
<g id="edge15" class="edge">
<title>node2198&#45;&gt;node2197</title>
<path fill="none" stroke="#3cb4a4" d="M1044.79,-349.41C1029.43,-336.61 1007.43,-318.27 989.9,-303.66"/>
<polygon fill="#3cb4a4" stroke="#3cb4a4" points="992.12,-300.96 982.19,-297.25 987.64,-306.34 992.12,-300.96"/>
<text text-anchor="middle" x="1022.5" y="-318.8" font-family="arial" font-size="14.00" fill="#3cb4a4">?</text>
</g>
<!-- node2200&#45;&gt;node2390 -->
<g id="edge52" class="edge">
<title>node2200&#45;&gt;node2390</title>
<path fill="none" stroke="#3cb4a4" d="M925.79,-177.34C900.76,-164.05 862.31,-143.62 832.96,-128.02"/>
<polygon fill="#3cb4a4" stroke="#3cb4a4" points="834.25,-124.75 823.77,-123.15 830.96,-130.93 834.25,-124.75"/>
<text text-anchor="middle" x="898" y="-144.8" font-family="arial" font-size="14.00" fill="#3cb4a4">value</text>
</g>
<!-- node2229 -->
<g id="node17" class="node">
<title>node2229</title>
<polygon fill="#e98693" stroke="black" points="837,-36 746,-36 746,0 837,0 837,-36"/>
<text text-anchor="middle" x="791.5" y="-14.3" font-family="Arial" font-size="14.00" fill="#1a1919">2229 Return</text>
</g>
<!-- node2264 -->
<g id="node18" class="node">
<title>node2264</title>
<polygon fill="#da2d4f" stroke="black" points="986.5,-864 696.5,-864 696.5,-828 986.5,-828 986.5,-864"/>
<text text-anchor="middle" x="841.5" y="-842.3" font-family="Arial" font-size="14.00" fill="#ffffff">2264 Call OptimizedCallTarget.callBoundary !</text>
</g>
<!-- node2264&#45;&gt;node1368 -->
<g id="edge54" class="edge">
<title>node2264&#45;&gt;node1368</title>
<path fill="none" stroke="#3cb4a4" d="M867.3,-827.82C883.03,-815.71 901.73,-797.95 910.5,-777 916.68,-762.24 916.41,-755.87 910.5,-741 906.04,-729.79 898.03,-719.55 889.65,-711.09"/>
<polygon fill="#3cb4a4" stroke="#3cb4a4" points="891.95,-708.44 882.28,-704.12 887.14,-713.53 891.95,-708.44"/>
<text text-anchor="middle" x="932" y="-755.3" font-family="arial" font-size="14.00" fill="#3cb4a4">value</text>
</g>
<!-- node2268 -->
<g id="node20" class="node">
<title>node2268</title>
<polygon fill="#e98693" stroke="black" points="902,-777 781,-777 781,-741 902,-741 902,-777"/>
<text text-anchor="middle" x="841.5" y="-755.3" font-family="Arial" font-size="14.00" fill="#1a1919">2268 KillingBegin</text>
</g>
<!-- node2264&#45;&gt;node2268 -->
<g id="edge24" class="edge">
<title>node2264&#45;&gt;node2268</title>
<path fill="none" stroke="#da2d4f" stroke-width="2" d="M841.5,-827.8C841.5,-816.16 841.5,-800.55 841.5,-787.24"/>
<polygon fill="#da2d4f" stroke="#da2d4f" stroke-width="2" points="845,-787.18 841.5,-777.18 838,-787.18 845,-787.18"/>
</g>
<!-- node2269 -->
<g id="node21" class="node">
<title>node2269</title>
<polygon fill="#f9f9f9" stroke="black" points="763,-777 614,-777 614,-741 763,-741 763,-777"/>
<text text-anchor="middle" x="688.5" y="-755.3" font-family="Arial" font-size="14.00" fill="#1a1919">2269 ExceptionObject</text>
</g>
<!-- node2264&#45;&gt;node2269 -->
<g id="edge25" class="edge">
<title>node2264&#45;&gt;node2269</title>
<path fill="none" stroke="#da2d4f" stroke-width="2" d="M810.54,-827.8C786.71,-814.56 753.63,-796.18 727.91,-781.9"/>
<polygon fill="#da2d4f" stroke="#da2d4f" stroke-width="2" points="729.6,-778.83 719.15,-777.03 726.2,-784.95 729.6,-778.83"/>
<text text-anchor="middle" x="796" y="-798.8" font-family="arial" font-size="14.00" fill="#da2d4f">unwind</text>
</g>
<!-- node2265 -->
<g id="node19" class="node">
<title>node2265</title>
<polygon fill="#f9f9f9" stroke="black" points="1025,-951 868,-951 868,-915 1025,-915 1025,-951"/>
<text text-anchor="middle" x="946.5" y="-929.3" font-family="Arial" font-size="14.00" fill="#1a1919">2265 MethodCallTarget</text>
</g>
<!-- node2265&#45;&gt;node2264 -->
<g id="edge23" class="edge">
<title>node2265&#45;&gt;node2264</title>
<path fill="none" stroke="#343d46" stroke-dasharray="5,2" d="M917.14,-908.23C899.85,-894.23 878.36,-876.84 862.72,-864.18"/>
<polygon fill="#343d46" stroke="#343d46" points="915.28,-911.23 925.25,-914.8 919.68,-905.79 915.28,-911.23"/>
</g>
<!-- node2268&#45;&gt;node1368 -->
<g id="edge28" class="edge">
<title>node2268&#45;&gt;node1368</title>
<path fill="none" stroke="#da2d4f" stroke-width="2" d="M845.86,-740.81C847.91,-732.7 850.41,-722.84 852.71,-713.78"/>
<polygon fill="#da2d4f" stroke="#da2d4f" stroke-width="2" points="856.12,-714.58 855.18,-704.03 849.33,-712.86 856.12,-714.58"/>
</g>
<!-- node2274 -->
<g id="node22" class="node">
<title>node2274</title>
<polygon fill="#da2d4f" stroke="black" points="797,-704 580,-704 580,-668 797,-668 797,-704"/>
<text text-anchor="middle" x="688.5" y="-682.3" font-family="Arial" font-size="14.00" fill="#ffffff">2274 Deopt TransferToInterpreter</text>
</g>
<!-- node2269&#45;&gt;node2274 -->
<g id="edge29" class="edge">
<title>node2269&#45;&gt;node2274</title>
<path fill="none" stroke="#da2d4f" stroke-width="2" d="M688.5,-740.81C688.5,-732.79 688.5,-723.05 688.5,-714.07"/>
<polygon fill="#da2d4f" stroke="#da2d4f" stroke-width="2" points="692,-714.03 688.5,-704.03 685,-714.03 692,-714.03"/>
</g>
<!-- node2311 -->
<g id="node23" class="node">
<title>node2311</title>
<polygon fill="#da2d4f" stroke="black" points="445,-864 156,-864 156,-828 445,-828 445,-864"/>
<text text-anchor="middle" x="300.5" y="-842.3" font-family="Arial" font-size="14.00" fill="#ffffff">2311 Call OptimizedCallTarget.callBoundary !</text>
</g>
<!-- node2311&#45;&gt;node1856 -->
<g id="edge55" class="edge">
<title>node2311&#45;&gt;node1856</title>
<path fill="none" stroke="#3cb4a4" d="M256.36,-827.94C234.45,-816.95 210.04,-800.3 197.5,-777 189.92,-762.91 189.8,-755.02 197.5,-741 204.75,-727.8 216.74,-717.37 229.47,-709.34"/>
<polygon fill="#3cb4a4" stroke="#3cb4a4" points="231.47,-712.23 238.34,-704.16 227.94,-706.18 231.47,-712.23"/>
<text text-anchor="middle" x="214" y="-755.3" font-family="arial" font-size="14.00" fill="#3cb4a4">value</text>
</g>
<!-- node2315 -->
<g id="node25" class="node">
<title>node2315</title>
<polygon fill="#e98693" stroke="black" points="361,-777 240,-777 240,-741 361,-741 361,-777"/>
<text text-anchor="middle" x="300.5" y="-755.3" font-family="Arial" font-size="14.00" fill="#1a1919">2315 KillingBegin</text>
</g>
<!-- node2311&#45;&gt;node2315 -->
<g id="edge31" class="edge">
<title>node2311&#45;&gt;node2315</title>
<path fill="none" stroke="#da2d4f" stroke-width="2" d="M300.5,-827.8C300.5,-816.16 300.5,-800.55 300.5,-787.24"/>
<polygon fill="#da2d4f" stroke="#da2d4f" stroke-width="2" points="304,-787.18 300.5,-777.18 297,-787.18 304,-787.18"/>
</g>
<!-- node2316 -->
<g id="node26" class="node">
<title>node2316</title>
<polygon fill="#f9f9f9" stroke="black" points="528,-777 379,-777 379,-741 528,-741 528,-777"/>
<text text-anchor="middle" x="453.5" y="-755.3" font-family="Arial" font-size="14.00" fill="#1a1919">2316 ExceptionObject</text>
</g>
<!-- node2311&#45;&gt;node2316 -->
<g id="edge32" class="edge">
<title>node2311&#45;&gt;node2316</title>
<path fill="none" stroke="#da2d4f" stroke-width="2" d="M331.46,-827.8C355.29,-814.56 388.37,-796.18 414.09,-781.9"/>
<polygon fill="#da2d4f" stroke="#da2d4f" stroke-width="2" points="415.8,-784.95 422.85,-777.03 412.4,-778.83 415.8,-784.95"/>
<text text-anchor="middle" x="408" y="-798.8" font-family="arial" font-size="14.00" fill="#da2d4f">unwind</text>
</g>
<!-- node2312 -->
<g id="node24" class="node">
<title>node2312</title>
<polygon fill="#f9f9f9" stroke="black" points="382,-951 225,-951 225,-915 382,-915 382,-951"/>
<text text-anchor="middle" x="303.5" y="-929.3" font-family="Arial" font-size="14.00" fill="#1a1919">2312 MethodCallTarget</text>
</g>
<!-- node2312&#45;&gt;node2311 -->
<g id="edge30" class="edge">
<title>node2312&#45;&gt;node2311</title>
<path fill="none" stroke="#343d46" stroke-dasharray="5,2" d="M302.54,-904.73C302.07,-891.42 301.52,-875.81 301.11,-864.18"/>
<polygon fill="#343d46" stroke="#343d46" points="299.04,-904.93 302.89,-914.8 306.04,-904.68 299.04,-904.93"/>
</g>
<!-- node2315&#45;&gt;node1856 -->
<g id="edge35" class="edge">
<title>node2315&#45;&gt;node1856</title>
<path fill="none" stroke="#da2d4f" stroke-width="2" d="M296.14,-740.81C294.09,-732.7 291.59,-722.84 289.29,-713.78"/>
<polygon fill="#da2d4f" stroke="#da2d4f" stroke-width="2" points="292.67,-712.86 286.82,-704.03 285.88,-714.58 292.67,-712.86"/>
</g>
<!-- node2321 -->
<g id="node27" class="node">
<title>node2321</title>
<polygon fill="#da2d4f" stroke="black" points="562,-704 345,-704 345,-668 562,-668 562,-704"/>
<text text-anchor="middle" x="453.5" y="-682.3" font-family="Arial" font-size="14.00" fill="#ffffff">2321 Deopt TransferToInterpreter</text>
</g>
<!-- node2316&#45;&gt;node2321 -->
<g id="edge36" class="edge">
<title>node2316&#45;&gt;node2321</title>
<path fill="none" stroke="#da2d4f" stroke-width="2" d="M453.5,-740.81C453.5,-732.79 453.5,-723.05 453.5,-714.07"/>
<polygon fill="#da2d4f" stroke="#da2d4f" stroke-width="2" points="457,-714.03 453.5,-704.03 450,-714.03 457,-714.03"/>
</g>
<!-- node2378 -->
<g id="node34" class="node">
<title>node2378</title>
<polygon fill="#da2d4f" stroke="black" points="933,-1125 854,-1125 854,-1089 933,-1089 933,-1125"/>
<text text-anchor="middle" x="893.5" y="-1103.3" font-family="Arial" font-size="14.00" fill="#ffffff">2378 Alloc</text>
</g>
<!-- node2331&#45;&gt;node2378 -->
<g id="edge38" class="edge">
<title>node2331&#45;&gt;node2378</title>
<path fill="none" stroke="#da2d4f" stroke-width="2" d="M757.1,-1175.8C783.96,-1162.45 821.36,-1143.86 850.2,-1129.52"/>
<polygon fill="#da2d4f" stroke="#da2d4f" stroke-width="2" points="851.84,-1132.62 859.24,-1125.03 848.73,-1126.35 851.84,-1132.62"/>
</g>
<!-- node2364 -->
<g id="node31" class="node">
<title>node2364</title>
<polygon fill="#da2d4f" stroke="black" points="336,-1125 257,-1125 257,-1089 336,-1089 336,-1125"/>
<text text-anchor="middle" x="296.5" y="-1103.3" font-family="Arial" font-size="14.00" fill="#ffffff">2364 Alloc</text>
</g>
<!-- node2335&#45;&gt;node2364 -->
<g id="edge40" class="edge">
<title>node2335&#45;&gt;node2364</title>
<path fill="none" stroke="#da2d4f" stroke-width="2" d="M160.1,-1175.8C186.96,-1162.45 224.36,-1143.86 253.2,-1129.52"/>
<polygon fill="#da2d4f" stroke="#da2d4f" stroke-width="2" points="254.84,-1132.62 262.24,-1125.03 251.73,-1126.35 254.84,-1132.62"/>
</g>
<!-- node2360 -->
<g id="node30" class="node">
<title>node2360</title>
<polygon fill="#343d46" stroke="black" points="579,-1212 342,-1212 342,-1176 579,-1176 579,-1212"/>
<text text-anchor="middle" x="460.5" y="-1190.3" font-family="Arial" font-size="14.00" fill="#ffffff">2360 VirtualArray java.lang.Object[7]</text>
</g>
<!-- node2360&#45;&gt;node2364 -->
<g id="edge41" class="edge">
<title>node2360&#45;&gt;node2364</title>
<path fill="none" stroke="#3cb4a4" d="M404.39,-1175.93C390.67,-1170.9 376.27,-1164.87 363.5,-1158 349.82,-1150.64 335.87,-1140.69 324.26,-1131.61"/>
<polygon fill="#3cb4a4" stroke="#3cb4a4" points="326.26,-1128.72 316.27,-1125.2 321.88,-1134.19 326.26,-1128.72"/>
<text text-anchor="middle" x="405" y="-1146.8" font-family="arial" font-size="14.00" fill="#3cb4a4">virtualObjects</text>
</g>
<!-- node2365 -->
<g id="node32" class="node">
<title>node2365</title>
<polygon fill="#343d46" stroke="black" points="533,-1038 388,-1038 388,-1002 533,-1002 533,-1038"/>
<text text-anchor="middle" x="460.5" y="-1016.3" font-family="Arial" font-size="14.00" fill="#ffffff">2365 AllocatedObject</text>
</g>
<!-- node2360&#45;&gt;node2365 -->
<g id="edge43" class="edge">
<title>node2360&#45;&gt;node2365</title>
<path fill="none" stroke="#3cb4a4" d="M460.5,-1175.88C460.5,-1146 460.5,-1084.11 460.5,-1048.27"/>
<polygon fill="#3cb4a4" stroke="#3cb4a4" points="464,-1048.05 460.5,-1038.05 457,-1048.05 464,-1048.05"/>
<text text-anchor="middle" x="498.5" y="-1103.3" font-family="arial" font-size="14.00" fill="#3cb4a4">virtualObject</text>
</g>
<!-- node2364&#45;&gt;node2311 -->
<g id="edge42" class="edge">
<title>node2364&#45;&gt;node2311</title>
<path fill="none" stroke="#da2d4f" stroke-width="2" d="M264.69,-1088.79C246.63,-1077.1 225.66,-1059.8 215.5,-1038 192.4,-988.45 191.82,-964.27 215.5,-915 224.56,-896.14 241.68,-880.88 258.2,-869.63"/>
<polygon fill="#da2d4f" stroke="#da2d4f" stroke-width="2" points="260.23,-872.48 266.73,-864.11 256.43,-866.6 260.23,-872.48"/>
</g>
<!-- node2364&#45;&gt;node2365 -->
<g id="edge44" class="edge">
<title>node2364&#45;&gt;node2365</title>
<path fill="none" stroke="#3cb4a4" d="M329.69,-1088.8C355.34,-1075.51 391,-1057.02 418.61,-1042.71"/>
<polygon fill="#3cb4a4" stroke="#3cb4a4" points="420.37,-1045.74 427.64,-1038.03 417.15,-1039.52 420.37,-1045.74"/>
<text text-anchor="middle" x="411.5" y="-1059.8" font-family="arial" font-size="14.00" fill="#3cb4a4">commit</text>
</g>
<!-- node2365&#45;&gt;node2312 -->
<g id="edge34" class="edge">
<title>node2365&#45;&gt;node2312</title>
<path fill="none" stroke="#3cb4a4" d="M428.73,-1001.8C404.28,-988.56 370.33,-970.18 343.95,-955.9"/>
<polygon fill="#3cb4a4" stroke="#3cb4a4" points="345.42,-952.71 334.96,-951.03 342.08,-958.87 345.42,-952.71"/>
<text text-anchor="middle" x="409" y="-972.8" font-family="arial" font-size="14.00" fill="#3cb4a4">arg[1]</text>
</g>
<!-- node2375 -->
<g id="node33" class="node">
<title>node2375</title>
<polygon fill="#343d46" stroke="black" points="1176,-1212 939,-1212 939,-1176 1176,-1176 1176,-1212"/>
<text text-anchor="middle" x="1057.5" y="-1190.3" font-family="Arial" font-size="14.00" fill="#ffffff">2375 VirtualArray java.lang.Object[7]</text>
</g>
<!-- node2375&#45;&gt;node2378 -->
<g id="edge45" class="edge">
<title>node2375&#45;&gt;node2378</title>
<path fill="none" stroke="#3cb4a4" d="M991.21,-1175.94C977.31,-1171.11 963.07,-1165.16 950.5,-1158 938.41,-1151.11 926.58,-1141.38 916.86,-1132.33"/>
<polygon fill="#3cb4a4" stroke="#3cb4a4" points="919.19,-1129.71 909.56,-1125.29 914.33,-1134.75 919.19,-1129.71"/>
<text text-anchor="middle" x="992" y="-1146.8" font-family="arial" font-size="14.00" fill="#3cb4a4">virtualObjects</text>
</g>
<!-- node2379 -->
<g id="node35" class="node">
<title>node2379</title>
<polygon fill="#343d46" stroke="black" points="1013,-1038 868,-1038 868,-1002 1013,-1002 1013,-1038"/>
<text text-anchor="middle" x="940.5" y="-1016.3" font-family="Arial" font-size="14.00" fill="#ffffff">2379 AllocatedObject</text>
</g>
<!-- node2375&#45;&gt;node2379 -->
<g id="edge47" class="edge">
<title>node2375&#45;&gt;node2379</title>
<path fill="none" stroke="#3cb4a4" d="M1050.23,-1175.94C1045.81,-1166.09 1039.81,-1153.59 1033.5,-1143 1009.07,-1101.98 1000.06,-1093.49 970.5,-1056 967.88,-1052.68 965.06,-1049.23 962.24,-1045.86"/>
<polygon fill="#3cb4a4" stroke="#3cb4a4" points="964.88,-1043.57 955.74,-1038.21 959.55,-1048.1 964.88,-1043.57"/>
<text text-anchor="middle" x="1059.5" y="-1103.3" font-family="arial" font-size="14.00" fill="#3cb4a4">virtualObject</text>
</g>
<!-- node2378&#45;&gt;node2264 -->
<g id="edge46" class="edge">
<title>node2378&#45;&gt;node2264</title>
<path fill="none" stroke="#da2d4f" stroke-width="2" d="M882.32,-1088.89C874.23,-1075.58 863.82,-1056.36 858.5,-1038 842.1,-981.4 840.25,-911.74 840.67,-874.16"/>
<polygon fill="#da2d4f" stroke="#da2d4f" stroke-width="2" points="844.17,-874.07 840.85,-864.01 837.18,-873.94 844.17,-874.07"/>
</g>
<!-- node2378&#45;&gt;node2379 -->
<g id="edge48" class="edge">
<title>node2378&#45;&gt;node2379</title>
<path fill="none" stroke="#3cb4a4" d="M903.01,-1088.8C909.64,-1076.82 918.59,-1060.62 926.09,-1047.06"/>
<polygon fill="#3cb4a4" stroke="#3cb4a4" points="929.23,-1048.62 931,-1038.18 923.1,-1045.23 929.23,-1048.62"/>
<text text-anchor="middle" x="943.5" y="-1059.8" font-family="arial" font-size="14.00" fill="#3cb4a4">commit</text>
</g>
<!-- node2379&#45;&gt;node2265 -->
<g id="edge27" class="edge">
<title>node2379&#45;&gt;node2265</title>
<path fill="none" stroke="#3cb4a4" d="M941.71,-1001.8C942.54,-990.16 943.64,-974.55 944.58,-961.24"/>
<polygon fill="#3cb4a4" stroke="#3cb4a4" points="948.07,-961.4 945.29,-951.18 941.09,-960.9 948.07,-961.4"/>
<text text-anchor="middle" x="962" y="-972.8" font-family="arial" font-size="14.00" fill="#3cb4a4">arg[1]</text>
</g>
<!-- node2385&#45;&gt;node2198 -->
<g id="edge18" class="edge">
<title>node2385&#45;&gt;node2198</title>
<path fill="none" stroke="#3cb4a4" d="M819.72,-442.9C865.52,-428.64 954.87,-400.82 1011.74,-383.11"/>
<polygon fill="#3cb4a4" stroke="#3cb4a4" points="1013.11,-386.35 1021.62,-380.04 1011.03,-379.67 1013.11,-386.35"/>
<text text-anchor="middle" x="947" y="-405.8" font-family="arial" font-size="14.00" fill="#3cb4a4">y</text>
</g>
<!-- node2385&#45;&gt;node2200 -->
<g id="edge20" class="edge">
<title>node2385&#45;&gt;node2200</title>
<path fill="none" stroke="#3cb4a4" d="M788.27,-434.79C784.56,-398.84 780.95,-314.66 819.5,-261 838.27,-234.87 870.1,-218.06 897.81,-207.69"/>
<polygon fill="#3cb4a4" stroke="#3cb4a4" points="899.15,-210.93 907.4,-204.28 896.81,-204.33 899.15,-210.93"/>
<text text-anchor="middle" x="799" y="-318.8" font-family="arial" font-size="14.00" fill="#3cb4a4">y</text>
</g>
<!-- node2390&#45;&gt;node2229 -->
<g id="edge22" class="edge">
<title>node2390&#45;&gt;node2229</title>
<path fill="none" stroke="#3cb4a4" d="M776.75,-86.88C770.39,-77.44 765.1,-65.35 768.5,-54 769.41,-50.96 770.67,-47.95 772.15,-45.03"/>
<polygon fill="#3cb4a4" stroke="#3cb4a4" points="775.32,-46.55 777.4,-36.16 769.29,-42.98 775.32,-46.55"/>
<text text-anchor="middle" x="785.5" y="-57.8" font-family="arial" font-size="14.00" fill="#3cb4a4">result</text>
</g>
<!-- node2390&#45;&gt;node2229 -->
<g id="edge53" class="edge">
<title>node2390&#45;&gt;node2229</title>
<path fill="none" stroke="#da2d4f" stroke-width="2" d="M798.44,-86.98C801.56,-77.35 804.2,-65.07 802.5,-54 802.09,-51.32 801.51,-48.56 800.83,-45.83"/>
<polygon fill="#da2d4f" stroke="#da2d4f" stroke-width="2" points="804.19,-44.83 798.05,-36.2 797.46,-46.78 804.19,-44.83"/>
</g>
<!-- node2391&#45;&gt;node521 -->
<g id="edge64" class="edge">
<title>node2391&#45;&gt;node521</title>
<path fill="none" stroke="#da2d4f" stroke-width="2" d="M962.47,-1604.86C971.97,-1593.99 984.4,-1579.75 994.95,-1567.67"/>
<polygon fill="#da2d4f" stroke="#da2d4f" stroke-width="2" points="997.62,-1569.94 1001.56,-1560.11 992.34,-1565.34 997.62,-1569.94"/>
</g>
<!-- inline5x909 -->
<g id="node39" class="node">
<title>inline5x909</title>
<ellipse fill="#d7ede7" stroke="black" cx="823.5" cy="-1542" rx="27" ry="18"/>
<text text-anchor="middle" x="823.5" y="-1540.1" font-family="Arial" font-size="8.00" fill="#1a1919">5 C(0)</text>
</g>
<!-- inline5x909&#45;&gt;node909 -->
<g id="edge6" class="edge">
<title>inline5x909&#45;&gt;node909</title>
<path fill="none" stroke="#3cb4a4" d="M823.5,-1523.8C823.5,-1509.05 823.5,-1487.92 823.5,-1473.18"/>
<text text-anchor="middle" x="825.5" y="-1496.6" font-family="arial" font-size="8.00" fill="#3cb4a4">y</text>
</g>
<!-- inline1069x1071 -->
<g id="node40" class="node">
<title>inline1069x1071</title>
<ellipse fill="#d7ede7" stroke="black" cx="879.5" cy="-1368" rx="86.57" ry="18"/>
<text text-anchor="middle" x="879.5" y="-1366.1" font-family="Arial" font-size="8.00" fill="#1a1919">1069 C(RubyBasicObject@54bdb3ae)</text>
</g>
<!-- inline1069x1071&#45;&gt;node1071 -->
<g id="edge9" class="edge">
<title>inline1069x1071&#45;&gt;node1071</title>
<path fill="none" stroke="#3cb4a4" d="M822.81,-1354.32C800,-1348.52 773.66,-1340.94 750.5,-1332 722.17,-1321.06 691.23,-1304.42 671.84,-1293.39"/>
<text text-anchor="middle" x="752.5" y="-1322.6" font-family="arial" font-size="8.00" fill="#3cb4a4">y</text>
</g>
<!-- inline1245x2265 -->
<g id="node41" class="node">
<title>inline1245x2265</title>
<ellipse fill="#d7ede7" stroke="black" cx="1103.5" cy="-1020" rx="72.71" ry="18"/>
<text text-anchor="middle" x="1103.5" y="-1018.1" font-family="Arial" font-size="8.00" fill="#1a1919">1245 C(Object#opaque_call_a)</text>
</g>
<!-- inline1245x2265&#45;&gt;node2265 -->
<g id="edge26" class="edge">
<title>inline1245x2265&#45;&gt;node2265</title>
<path fill="none" stroke="#3cb4a4" d="M1074.7,-1003.41C1047.35,-988.6 1006.32,-966.39 978.08,-951.1"/>
<text text-anchor="middle" x="1044.5" y="-974.6" font-family="arial" font-size="8.00" fill="#3cb4a4">arg[0]</text>
</g>
<!-- inline1734x2312 -->
<g id="node42" class="node">
<title>inline1734x2312</title>
<ellipse fill="#d7ede7" stroke="black" cx="297.5" cy="-1020" rx="72.71" ry="18"/>
<text text-anchor="middle" x="297.5" y="-1018.1" font-family="Arial" font-size="8.00" fill="#1a1919">1734 C(Object#opaque_call_b)</text>
</g>
<!-- inline1734x2312&#45;&gt;node2312 -->
<g id="edge33" class="edge">
<title>inline1734x2312&#45;&gt;node2312</title>
<path fill="none" stroke="#3cb4a4" d="M298.71,-1001.8C299.76,-987.05 301.25,-965.92 302.29,-951.18"/>
<text text-anchor="middle" x="312.5" y="-974.6" font-family="arial" font-size="8.00" fill="#3cb4a4">arg[0]</text>
</g>
<!-- inline125x1071 -->
<g id="node43" class="node">
<title>inline125x1071</title>
<ellipse fill="#d7ede7" stroke="black" cx="652.5" cy="-1368" rx="27.46" ry="18"/>
<text text-anchor="middle" x="652.5" y="-1366.1" font-family="Arial" font-size="8.00" fill="#1a1919">125 T(5)</text>
</g>
<!-- inline125x1071&#45;&gt;node1071 -->
<g id="edge57" class="edge">
<title>inline125x1071&#45;&gt;node1071</title>
<path fill="none" stroke="#3cb4a4" d="M652.5,-1349.8C652.5,-1335.05 652.5,-1313.92 652.5,-1299.18"/>
<text text-anchor="middle" x="654.5" y="-1322.6" font-family="arial" font-size="8.00" fill="#3cb4a4">x</text>
</g>
<!-- inline125x2364 -->
<g id="node44" class="node">
<title>inline125x2364</title>
<ellipse fill="#d7ede7" stroke="black" cx="296.5" cy="-1194" rx="27.46" ry="18"/>
<text text-anchor="middle" x="296.5" y="-1192.1" font-family="Arial" font-size="8.00" fill="#1a1919">125 T(5)</text>
</g>
<!-- inline125x2364&#45;&gt;node2364 -->
<g id="edge58" class="edge">
<title>inline125x2364&#45;&gt;node2364</title>
<path fill="none" stroke="#3cb4a4" d="M296.5,-1175.8C296.5,-1161.05 296.5,-1139.92 296.5,-1125.18"/>
<text text-anchor="middle" x="308" y="-1148.6" font-family="arial" font-size="8.00" fill="#3cb4a4">values</text>
</g>
<!-- inline125x2378 -->
<g id="node45" class="node">
<title>inline125x2378</title>
<ellipse fill="#d7ede7" stroke="black" cx="893.5" cy="-1194" rx="27.46" ry="18"/>
<text text-anchor="middle" x="893.5" y="-1192.1" font-family="Arial" font-size="8.00" fill="#1a1919">125 T(5)</text>
</g>
<!-- inline125x2378&#45;&gt;node2378 -->
<g id="edge59" class="edge">
<title>inline125x2378&#45;&gt;node2378</title>
<path fill="none" stroke="#3cb4a4" d="M893.5,-1175.8C893.5,-1161.05 893.5,-1139.92 893.5,-1125.18"/>
<text text-anchor="middle" x="905" y="-1148.6" font-family="arial" font-size="8.00" fill="#3cb4a4">values</text>
</g>
<!-- inline161x521 -->
<g id="node46" class="node">
<title>inline161x521</title>
<ellipse fill="#d7ede7" stroke="black" cx="1049.5" cy="-1623" rx="27.46" ry="18"/>
<text text-anchor="middle" x="1049.5" y="-1621.1" font-family="Arial" font-size="8.00" fill="#1a1919">161 T(7)</text>
</g>
<!-- inline161x521&#45;&gt;node521 -->
<g id="edge60" class="edge">
<title>inline161x521&#45;&gt;node521</title>
<path fill="none" stroke="#3cb4a4" d="M1042.5,-1605.25C1036.94,-1591.93 1029.19,-1573.38 1023.6,-1560"/>
<text text-anchor="middle" x="1043" y="-1580.6" font-family="arial" font-size="8.00" fill="#3cb4a4">value</text>
</g>
<!-- inline179x680 -->
<g id="node47" class="node">
<title>inline179x680</title>
<ellipse fill="#d7ede7" stroke="black" cx="1156.5" cy="-1542" rx="27.46" ry="18"/>
<text text-anchor="middle" x="1156.5" y="-1540.1" font-family="Arial" font-size="8.00" fill="#1a1919">179 T(8)</text>
</g>
<!-- inline179x680&#45;&gt;node680 -->
<g id="edge61" class="edge">
<title>inline179x680&#45;&gt;node680</title>
<path fill="none" stroke="#3cb4a4" d="M1156.5,-1523.8C1156.5,-1509.05 1156.5,-1487.92 1156.5,-1473.18"/>
<text text-anchor="middle" x="1166" y="-1496.6" font-family="arial" font-size="8.00" fill="#3cb4a4">value</text>
</g>
<!-- inline2x2391 -->
<g id="node48" class="node">
<title>inline2x2391</title>
<ellipse fill="#d7ede7" stroke="black" cx="984.5" cy="-1704" rx="27" ry="18"/>
<text text-anchor="middle" x="984.5" y="-1702.1" font-family="Arial" font-size="8.00" fill="#1a1919">2 P(1)</text>
</g>
<!-- inline2x2391&#45;&gt;node2391 -->
<g id="edge62" class="edge">
<title>inline2x2391&#45;&gt;node2391</title>
<path fill="none" stroke="#3cb4a4" d="M976.83,-1686.63C970.61,-1673.34 961.86,-1654.67 955.54,-1641.17"/>
<text text-anchor="middle" x="976" y="-1661.6" font-family="arial" font-size="8.00" fill="#3cb4a4">array</text>
</g>
</g>
</svg>
