<?xml version="1.0" encoding="UTF-8" standalone="no"?>
<!DOCTYPE svg PUBLIC "-//W3C//DTD SVG 1.1//EN"
 "http://www.w3.org/Graphics/SVG/1.1/DTD/svg11.dtd">
<!-- Generated by graphviz version 2.44.1 (20200629.0846)
 -->
<!-- Title: G Pages: 1 -->
<svg width="1082pt" height="1613pt"
 viewBox="0.00 0.00 1082.00 1613.00" xmlns="http://www.w3.org/2000/svg" xmlns:xlink="http://www.w3.org/1999/xlink">
<g id="graph0" class="graph" transform="scale(1 1) rotate(0) translate(4 1609)">
<title>G</title>
<!-- node0 -->
<g id="node1" class="node">
<title>node0</title>
<polygon fill="#e98693" stroke="black" points="128,-1437 72,-1437 72,-1401 128,-1401 128,-1437"/>
<text text-anchor="middle" x="100" y="-1415.3" font-family="Arial" font-size="14.00" fill="#1a1919">0 Start</text>
</g>
<!-- node43 -->
<g id="node4" class="node">
<title>node43</title>
<polygon fill="#da2d4f" stroke="black" points="154.5,-1350 41.5,-1350 41.5,-1314 154.5,-1314 154.5,-1350"/>
<text text-anchor="middle" x="98" y="-1328.3" font-family="Arial" font-size="14.00" fill="#ffffff">43 LoadIndexed</text>
</g>
<!-- node0&#45;&gt;node43 -->
<g id="edge1" class="edge">
<title>node0&#45;&gt;node43</title>
<path fill="none" stroke="#da2d4f" stroke-width="2" d="M99.6,-1400.8C99.32,-1389.16 98.95,-1373.55 98.64,-1360.24"/>
<polygon fill="#da2d4f" stroke="#da2d4f" stroke-width="2" points="102.14,-1360.09 98.4,-1350.18 95.14,-1360.26 102.14,-1360.09"/>
</g>
<!-- node31 -->
<g id="node2" class="node">
<title>node31</title>
<polygon fill="#f9f9f9" stroke="black" points="511,-1524 431,-1524 431,-1488 511,-1488 511,-1524"/>
<text text-anchor="middle" x="471" y="-1502.3" font-family="Arial" font-size="14.00" fill="#1a1919">31 PiArray</text>
</g>
<!-- node33 -->
<g id="node3" class="node">
<title>node33</title>
<polygon fill="#f9f9f9" stroke="black" points="498,-1437 444,-1437 444,-1401 498,-1401 498,-1437"/>
<text text-anchor="middle" x="471" y="-1415.3" font-family="Arial" font-size="14.00" fill="#1a1919">33 π</text>
</g>
<!-- node31&#45;&gt;node33 -->
<g id="edge4" class="edge">
<title>node31&#45;&gt;node33</title>
<path fill="none" stroke="#3cb4a4" d="M471,-1487.8C471,-1476.16 471,-1460.55 471,-1447.24"/>
<polygon fill="#3cb4a4" stroke="#3cb4a4" points="474.5,-1447.18 471,-1437.18 467.5,-1447.18 474.5,-1447.18"/>
<text text-anchor="middle" x="489.5" y="-1458.8" font-family="arial" font-size="14.00" fill="#3cb4a4">object</text>
</g>
<!-- node33&#45;&gt;node43 -->
<g id="edge5" class="edge">
<title>node33&#45;&gt;node43</title>
<path fill="none" stroke="#3cb4a4" d="M443.87,-1417.8C374.15,-1416.88 190.53,-1411.73 138,-1383 127.8,-1377.42 119.26,-1368.06 112.72,-1358.93"/>
<polygon fill="#3cb4a4" stroke="#3cb4a4" points="115.51,-1356.8 107.08,-1350.39 109.67,-1360.66 115.51,-1356.8"/>
<text text-anchor="middle" x="153.5" y="-1371.8" font-family="arial" font-size="14.00" fill="#3cb4a4">array</text>
</g>
<!-- node59 -->
<g id="node5" class="node">
<title>node59</title>
<polygon fill="#da2d4f" stroke="black" points="324.5,-1263 211.5,-1263 211.5,-1227 324.5,-1227 324.5,-1263"/>
<text text-anchor="middle" x="268" y="-1241.3" font-family="Arial" font-size="14.00" fill="#ffffff">59 LoadIndexed</text>
</g>
<!-- node33&#45;&gt;node59 -->
<g id="edge8" class="edge">
<title>node33&#45;&gt;node59</title>
<path fill="none" stroke="#3cb4a4" d="M443.96,-1414.73C417.44,-1410.57 376.64,-1401.57 346,-1383 305.87,-1358.68 284.51,-1305.49 274.77,-1273.01"/>
<polygon fill="#3cb4a4" stroke="#3cb4a4" points="278.1,-1271.92 272.01,-1263.25 271.37,-1273.82 278.1,-1271.92"/>
<text text-anchor="middle" x="325.5" y="-1328.3" font-family="arial" font-size="14.00" fill="#3cb4a4">array</text>
</g>
<!-- node74 -->
<g id="node6" class="node">
<title>node74</title>
<polygon fill="#da2d4f" stroke="black" points="400.5,-1176 287.5,-1176 287.5,-1140 400.5,-1140 400.5,-1176"/>
<text text-anchor="middle" x="344" y="-1154.3" font-family="Arial" font-size="14.00" fill="#ffffff">74 LoadIndexed</text>
</g>
<!-- node33&#45;&gt;node74 -->
<g id="edge11" class="edge">
<title>node33&#45;&gt;node74</title>
<path fill="none" stroke="#3cb4a4" d="M457.54,-1400.87C436.49,-1373.31 395.73,-1316.75 372,-1263 360.95,-1237.98 353.39,-1207.59 348.93,-1186.14"/>
<polygon fill="#3cb4a4" stroke="#3cb4a4" points="352.32,-1185.23 346.94,-1176.11 345.46,-1186.6 352.32,-1185.23"/>
<text text-anchor="middle" x="403.5" y="-1284.8" font-family="arial" font-size="14.00" fill="#3cb4a4">array</text>
</g>
<!-- node92 -->
<g id="node7" class="node">
<title>node92</title>
<polygon fill="#da2d4f" stroke="black" points="510.5,-1089 397.5,-1089 397.5,-1053 510.5,-1053 510.5,-1089"/>
<text text-anchor="middle" x="454" y="-1067.3" font-family="Arial" font-size="14.00" fill="#ffffff">92 LoadIndexed</text>
</g>
<!-- node33&#45;&gt;node92 -->
<g id="edge14" class="edge">
<title>node33&#45;&gt;node92</title>
<path fill="none" stroke="#3cb4a4" d="M468.05,-1400.79C460.92,-1357.21 443.64,-1238.94 448,-1140 448.59,-1126.54 449.84,-1111.62 451.05,-1099.2"/>
<polygon fill="#3cb4a4" stroke="#3cb4a4" points="454.55,-1099.32 452.08,-1089.02 447.59,-1098.62 454.55,-1099.32"/>
<text text-anchor="middle" x="466.5" y="-1241.3" font-family="arial" font-size="14.00" fill="#3cb4a4">array</text>
</g>
<!-- node110 -->
<g id="node8" class="node">
<title>node110</title>
<polygon fill="#da2d4f" stroke="black" points="557,-1002 437,-1002 437,-966 557,-966 557,-1002"/>
<text text-anchor="middle" x="497" y="-980.3" font-family="Arial" font-size="14.00" fill="#ffffff">110 LoadIndexed</text>
</g>
<!-- node33&#45;&gt;node110 -->
<g id="edge17" class="edge">
<title>node33&#45;&gt;node110</title>
<path fill="none" stroke="#3cb4a4" d="M496.32,-1400.93C515.65,-1385.66 539,-1361.35 539,-1333 539,-1333 539,-1333 539,-1070 539,-1048.33 527.9,-1026.48 517.11,-1010.35"/>
<polygon fill="#3cb4a4" stroke="#3cb4a4" points="519.85,-1008.17 511.22,-1002.02 514.13,-1012.21 519.85,-1008.17"/>
<text text-anchor="middle" x="554.5" y="-1197.8" font-family="arial" font-size="14.00" fill="#3cb4a4">array</text>
</g>
<!-- node125 -->
<g id="node9" class="node">
<title>node125</title>
<polygon fill="#da2d4f" stroke="black" points="586.5,-921 465.5,-921 465.5,-885 586.5,-885 586.5,-921"/>
<text text-anchor="middle" x="526" y="-899.3" font-family="Arial" font-size="14.00" fill="#ffffff">125 LoadIndexed</text>
</g>
<!-- node33&#45;&gt;node125 -->
<g id="edge20" class="edge">
<title>node33&#45;&gt;node125</title>
<path fill="none" stroke="#3cb4a4" d="M498.02,-1410.83C531.73,-1400.06 585,-1376.2 585,-1333 585,-1333 585,-1333 585,-983 585,-961.57 570.89,-942.21 556.47,-928.02"/>
<polygon fill="#3cb4a4" stroke="#3cb4a4" points="558.7,-925.31 548.98,-921.08 553.94,-930.44 558.7,-925.31"/>
<text text-anchor="middle" x="600.5" y="-1154.3" font-family="arial" font-size="14.00" fill="#3cb4a4">array</text>
</g>
<!-- node143 -->
<g id="node10" class="node">
<title>node143</title>
<polygon fill="#da2d4f" stroke="black" points="704.5,-840 583.5,-840 583.5,-804 704.5,-804 704.5,-840"/>
<text text-anchor="middle" x="644" y="-818.3" font-family="Arial" font-size="14.00" fill="#ffffff">143 LoadIndexed</text>
</g>
<!-- node33&#45;&gt;node143 -->
<g id="edge23" class="edge">
<title>node33&#45;&gt;node143</title>
<path fill="none" stroke="#3cb4a4" d="M498.03,-1416.77C546.69,-1412.94 644,-1397.25 644,-1333 644,-1333 644,-1333 644,-902 644,-884.89 644,-865.7 644,-850.52"/>
<polygon fill="#3cb4a4" stroke="#3cb4a4" points="647.5,-850.26 644,-840.26 640.5,-850.26 647.5,-850.26"/>
<text text-anchor="middle" x="659.5" y="-1110.8" font-family="arial" font-size="14.00" fill="#3cb4a4">array</text>
</g>
<!-- node158 -->
<g id="node11" class="node">
<title>node158</title>
<polygon fill="#da2d4f" stroke="black" points="816.5,-753 695.5,-753 695.5,-717 816.5,-717 816.5,-753"/>
<text text-anchor="middle" x="756" y="-731.3" font-family="Arial" font-size="14.00" fill="#ffffff">158 LoadIndexed</text>
</g>
<!-- node33&#45;&gt;node158 -->
<g id="edge26" class="edge">
<title>node33&#45;&gt;node158</title>
<path fill="none" stroke="#3cb4a4" d="M498.07,-1415.75C569.21,-1409.09 756,-1386.5 756,-1333 756,-1333 756,-1333 756,-821 756,-801.75 756,-780.05 756,-763.4"/>
<polygon fill="#3cb4a4" stroke="#3cb4a4" points="759.5,-763.26 756,-753.26 752.5,-763.26 759.5,-763.26"/>
<text text-anchor="middle" x="771.5" y="-1067.3" font-family="arial" font-size="14.00" fill="#3cb4a4">array</text>
</g>
<!-- node176 -->
<g id="node13" class="node">
<title>node176</title>
<polygon fill="#da2d4f" stroke="black" points="710.5,-645 589.5,-645 589.5,-609 710.5,-609 710.5,-645"/>
<text text-anchor="middle" x="650" y="-623.3" font-family="Arial" font-size="14.00" fill="#ffffff">176 LoadIndexed</text>
</g>
<!-- node33&#45;&gt;node176 -->
<g id="edge30" class="edge">
<title>node33&#45;&gt;node176</title>
<path fill="none" stroke="#3cb4a4" d="M443.91,-1415.83C372.21,-1409.34 183,-1387.09 183,-1333 183,-1333 183,-1333 183,-734 183,-653.76 448.49,-634.26 579.12,-629.52"/>
<polygon fill="#3cb4a4" stroke="#3cb4a4" points="579.55,-633.01 589.43,-629.17 579.31,-626.01 579.55,-633.01"/>
<text text-anchor="middle" x="198.5" y="-1023.8" font-family="arial" font-size="14.00" fill="#3cb4a4">array</text>
</g>
<!-- node43&#45;&gt;node59 -->
<g id="edge7" class="edge">
<title>node43&#45;&gt;node59</title>
<path fill="none" stroke="#da2d4f" stroke-width="2" d="M132.4,-1313.8C159.1,-1300.45 196.28,-1281.86 224.95,-1267.52"/>
<polygon fill="#da2d4f" stroke="#da2d4f" stroke-width="2" points="226.56,-1270.63 233.94,-1263.03 223.43,-1264.37 226.56,-1270.63"/>
</g>
<!-- node59&#45;&gt;node74 -->
<g id="edge10" class="edge">
<title>node59&#45;&gt;node74</title>
<path fill="none" stroke="#da2d4f" stroke-width="2" d="M283.38,-1226.8C294.4,-1214.47 309.42,-1197.68 321.75,-1183.89"/>
<polygon fill="#da2d4f" stroke="#da2d4f" stroke-width="2" points="324.59,-1185.96 328.64,-1176.18 319.37,-1181.3 324.59,-1185.96"/>
</g>
<!-- node74&#45;&gt;node92 -->
<g id="edge13" class="edge">
<title>node74&#45;&gt;node92</title>
<path fill="none" stroke="#da2d4f" stroke-width="2" d="M366.26,-1139.8C382.81,-1127.01 405.58,-1109.42 423.77,-1095.36"/>
<polygon fill="#da2d4f" stroke="#da2d4f" stroke-width="2" points="426,-1098.06 431.77,-1089.18 421.72,-1092.52 426,-1098.06"/>
</g>
<!-- node92&#45;&gt;node110 -->
<g id="edge16" class="edge">
<title>node92&#45;&gt;node110</title>
<path fill="none" stroke="#da2d4f" stroke-width="2" d="M462.7,-1052.8C468.7,-1040.93 476.8,-1024.93 483.62,-1011.45"/>
<polygon fill="#da2d4f" stroke="#da2d4f" stroke-width="2" points="486.92,-1012.68 488.31,-1002.18 480.67,-1009.52 486.92,-1012.68"/>
</g>
<!-- node110&#45;&gt;node125 -->
<g id="edge19" class="edge">
<title>node110&#45;&gt;node125</title>
<path fill="none" stroke="#da2d4f" stroke-width="2" d="M503.29,-965.86C507.05,-955.61 511.92,-942.37 516.17,-930.76"/>
<polygon fill="#da2d4f" stroke="#da2d4f" stroke-width="2" points="519.56,-931.7 519.72,-921.11 512.99,-929.29 519.56,-931.7"/>
</g>
<!-- node125&#45;&gt;node143 -->
<g id="edge22" class="edge">
<title>node125&#45;&gt;node143</title>
<path fill="none" stroke="#da2d4f" stroke-width="2" d="M551.6,-884.86C568.69,-873.42 591.35,-858.25 609.95,-845.8"/>
<polygon fill="#da2d4f" stroke="#da2d4f" stroke-width="2" points="612.08,-848.58 618.45,-840.11 608.19,-842.76 612.08,-848.58"/>
</g>
<!-- node143&#45;&gt;node158 -->
<g id="edge25" class="edge">
<title>node143&#45;&gt;node158</title>
<path fill="none" stroke="#da2d4f" stroke-width="2" d="M666.66,-803.8C683.52,-791.01 706.7,-773.42 725.22,-759.36"/>
<polygon fill="#da2d4f" stroke="#da2d4f" stroke-width="2" points="727.52,-762.01 733.37,-753.18 723.29,-756.43 727.52,-762.01"/>
</g>
<!-- node774 -->
<g id="node17" class="node">
<title>node774</title>
<polygon fill="#3cb4a4" stroke="black" points="377,-699 306.45,-681 377,-663 447.55,-681 377,-699"/>
<text text-anchor="middle" x="377" y="-677.3" font-family="Arial" font-size="14.00" fill="#1a1919">774 IsNull</text>
</g>
<!-- node143&#45;&gt;node774 -->
<g id="edge38" class="edge">
<title>node143&#45;&gt;node774</title>
<path fill="none" stroke="#3cb4a4" d="M611.26,-803.96C559.35,-776.93 458.84,-724.6 408.02,-698.15"/>
<polygon fill="#3cb4a4" stroke="#3cb4a4" points="409.62,-695.04 399.13,-693.52 406.39,-701.25 409.62,-695.04"/>
<text text-anchor="middle" x="592.5" y="-774.8" font-family="arial" font-size="14.00" fill="#3cb4a4">value</text>
</g>
<!-- node163 -->
<g id="node12" class="node">
<title>node163</title>
<polygon fill="#f9f9f9" stroke="black" points="783,-645 729,-645 729,-609 783,-609 783,-645"/>
<text text-anchor="middle" x="756" y="-623.3" font-family="Arial" font-size="14.00" fill="#1a1919">163 π</text>
</g>
<!-- node158&#45;&gt;node163 -->
<g id="edge29" class="edge">
<title>node158&#45;&gt;node163</title>
<path fill="none" stroke="#3cb4a4" d="M756,-716.97C756,-700.38 756,-674.88 756,-655.43"/>
<polygon fill="#3cb4a4" stroke="#3cb4a4" points="759.5,-655.34 756,-645.34 752.5,-655.34 759.5,-655.34"/>
<text text-anchor="middle" x="774.5" y="-677.3" font-family="arial" font-size="14.00" fill="#3cb4a4">object</text>
</g>
<!-- node158&#45;&gt;node176 -->
<g id="edge28" class="edge">
<title>node158&#45;&gt;node176</title>
<path fill="none" stroke="#da2d4f" stroke-width="2" d="M738.97,-716.97C721.53,-699.53 694.26,-672.26 674.51,-652.51"/>
<polygon fill="#da2d4f" stroke="#da2d4f" stroke-width="2" points="676.89,-649.94 667.34,-645.34 671.94,-654.89 676.89,-649.94"/>
</g>
<!-- node545 -->
<g id="node15" class="node">
<title>node545</title>
<polygon fill="#f9f9f9" stroke="black" points="797,-558 715,-558 715,-522 797,-522 797,-558"/>
<text text-anchor="middle" x="756" y="-536.3" font-family="Arial" font-size="14.00" fill="#1a1919">545 Unbox</text>
</g>
<!-- node163&#45;&gt;node545 -->
<g id="edge34" class="edge">
<title>node163&#45;&gt;node545</title>
<path fill="none" stroke="#3cb4a4" d="M756,-608.8C756,-597.16 756,-581.55 756,-568.24"/>
<polygon fill="#3cb4a4" stroke="#3cb4a4" points="759.5,-568.18 756,-558.18 752.5,-568.18 759.5,-568.18"/>
<text text-anchor="middle" x="772.5" y="-579.8" font-family="arial" font-size="14.00" fill="#3cb4a4">value</text>
</g>
<!-- node180 -->
<g id="node14" class="node">
<title>node180</title>
<polygon fill="#f9f9f9" stroke="black" points="677,-558 623,-558 623,-522 677,-522 677,-558"/>
<text text-anchor="middle" x="650" y="-536.3" font-family="Arial" font-size="14.00" fill="#1a1919">180 π</text>
</g>
<!-- node176&#45;&gt;node180 -->
<g id="edge33" class="edge">
<title>node176&#45;&gt;node180</title>
<path fill="none" stroke="#3cb4a4" d="M650,-608.8C650,-597.16 650,-581.55 650,-568.24"/>
<polygon fill="#3cb4a4" stroke="#3cb4a4" points="653.5,-568.18 650,-558.18 646.5,-568.18 653.5,-568.18"/>
<text text-anchor="middle" x="668.5" y="-579.8" font-family="arial" font-size="14.00" fill="#3cb4a4">object</text>
</g>
<!-- node176&#45;&gt;node545 -->
<g id="edge32" class="edge">
<title>node176&#45;&gt;node545</title>
<path fill="none" stroke="#da2d4f" stroke-width="2" d="M671.45,-608.8C687.26,-596.13 708.94,-578.73 726.4,-564.74"/>
<polygon fill="#da2d4f" stroke="#da2d4f" stroke-width="2" points="728.97,-567.16 734.58,-558.18 724.59,-561.7 728.97,-567.16"/>
</g>
<!-- node700 -->
<g id="node16" class="node">
<title>node700</title>
<polygon fill="#f9f9f9" stroke="black" points="691,-471 609,-471 609,-435 691,-435 691,-471"/>
<text text-anchor="middle" x="650" y="-449.3" font-family="Arial" font-size="14.00" fill="#1a1919">700 Unbox</text>
</g>
<!-- node180&#45;&gt;node700 -->
<g id="edge36" class="edge">
<title>node180&#45;&gt;node700</title>
<path fill="none" stroke="#3cb4a4" d="M650,-521.8C650,-510.16 650,-494.55 650,-481.24"/>
<polygon fill="#3cb4a4" stroke="#3cb4a4" points="653.5,-481.18 650,-471.18 646.5,-481.18 653.5,-481.18"/>
<text text-anchor="middle" x="666.5" y="-492.8" font-family="arial" font-size="14.00" fill="#3cb4a4">value</text>
</g>
<!-- node545&#45;&gt;node700 -->
<g id="edge35" class="edge">
<title>node545&#45;&gt;node700</title>
<path fill="none" stroke="#da2d4f" stroke-width="2" d="M734.55,-521.8C718.74,-509.13 697.06,-491.73 679.6,-477.74"/>
<polygon fill="#da2d4f" stroke="#da2d4f" stroke-width="2" points="681.41,-474.7 671.42,-471.18 677.03,-480.16 681.41,-474.7"/>
</g>
<!-- node1128 -->
<g id="node19" class="node">
<title>node1128</title>
<polygon fill="#3cb4a4" stroke="black" points="844,-384 657.32,-366 844,-348 1030.68,-366 844,-384"/>
<text text-anchor="middle" x="844" y="-362.3" font-family="Arial" font-size="14.00" fill="#1a1919">1128 IntegerAddExactOverflow</text>
</g>
<!-- node545&#45;&gt;node1128 -->
<g id="edge41" class="edge">
<title>node545&#45;&gt;node1128</title>
<path fill="none" stroke="#3cb4a4" d="M764.76,-521.88C780.3,-491.51 812.75,-428.07 830.94,-392.53"/>
<polygon fill="#3cb4a4" stroke="#3cb4a4" points="834.22,-393.79 835.66,-383.3 827.99,-390.6 834.22,-393.79"/>
<text text-anchor="middle" x="811.5" y="-449.3" font-family="arial" font-size="14.00" fill="#3cb4a4">x</text>
</g>
<!-- node1130 -->
<g id="node20" class="node">
<title>node1130</title>
<polygon fill="#3cb4a4" stroke="black" points="725,-210 588.09,-192 725,-174 861.91,-192 725,-210"/>
<text text-anchor="middle" x="725" y="-188.3" font-family="Arial" font-size="14.00" fill="#1a1919">1130 IntegerAddExact</text>
</g>
<!-- node545&#45;&gt;node1130 -->
<g id="edge43" class="edge">
<title>node545&#45;&gt;node1130</title>
<path fill="none" stroke="#3cb4a4" d="M797.3,-536.37C881.9,-529.85 1067,-509.27 1067,-454 1067,-454 1067,-454 1067,-278 1067,-228.09 928.1,-207.27 827.34,-198.74"/>
<polygon fill="#3cb4a4" stroke="#3cb4a4" points="827.35,-195.23 817.1,-197.9 826.78,-202.2 827.35,-195.23"/>
<text text-anchor="middle" x="1070.5" y="-362.3" font-family="arial" font-size="14.00" fill="#3cb4a4">x</text>
</g>
<!-- node700&#45;&gt;node1128 -->
<g id="edge42" class="edge">
<title>node700&#45;&gt;node1128</title>
<path fill="none" stroke="#3cb4a4" d="M689.26,-434.8C722.21,-420.36 769.14,-399.8 802.66,-385.11"/>
<polygon fill="#3cb4a4" stroke="#3cb4a4" points="804.42,-388.16 812.17,-380.95 801.61,-381.75 804.42,-388.16"/>
<text text-anchor="middle" x="761.5" y="-405.8" font-family="arial" font-size="14.00" fill="#3cb4a4">y</text>
</g>
<!-- node700&#45;&gt;node1130 -->
<g id="edge44" class="edge">
<title>node700&#45;&gt;node1130</title>
<path fill="none" stroke="#3cb4a4" d="M608.84,-452.55C524.27,-451.85 341.94,-439.89 380,-348 420.41,-250.45 546.17,-214.29 634.12,-200.89"/>
<polygon fill="#3cb4a4" stroke="#3cb4a4" points="634.72,-204.34 644.11,-199.44 633.72,-197.41 634.72,-204.34"/>
<text text-anchor="middle" x="399.5" y="-318.8" font-family="arial" font-size="14.00" fill="#3cb4a4">y</text>
</g>
<!-- node1166 -->
<g id="node22" class="node">
<title>node1166</title>
<polygon fill="#ffa500" stroke="black" points="639.5,-384 388.5,-384 388.5,-348 639.5,-348 639.5,-384"/>
<text text-anchor="middle" x="514" y="-362.3" font-family="Arial" font-size="14.00" fill="#1a1919">1166 Guard, else TransferToInterpreter</text>
</g>
<!-- node700&#45;&gt;node1166 -->
<g id="edge37" class="edge">
<title>node700&#45;&gt;node1166</title>
<path fill="none" stroke="#da2d4f" stroke-width="2" d="M622.48,-434.8C601.65,-421.78 572.85,-403.78 550.16,-389.6"/>
<polygon fill="#da2d4f" stroke="#da2d4f" stroke-width="2" points="551.82,-386.51 541.48,-384.18 548.11,-392.44 551.82,-386.51"/>
</g>
<!-- node774&#45;&gt;node1166 -->
<g id="edge47" class="edge">
<title>node774&#45;&gt;node1166</title>
<path fill="none" stroke="#3cb4a4" d="M366.18,-665.65C353.74,-647.68 335,-615.47 335,-584.5 335,-584.5 335,-584.5 335,-452 335,-420.12 358.45,-400.18 388.38,-387.72"/>
<polygon fill="#3cb4a4" stroke="#3cb4a4" points="389.77,-390.93 397.86,-384.09 387.27,-384.4 389.77,-390.93"/>
<text text-anchor="middle" x="339" y="-536.3" font-family="arial" font-size="14.00" fill="#3cb4a4">?</text>
</g>
<!-- node1127 -->
<g id="node18" class="node">
<title>node1127</title>
<polygon fill="#ffa500" stroke="black" points="742,-297 476,-297 476,-261 742,-261 742,-297"/>
<text text-anchor="middle" x="609" y="-275.3" font-family="Arial" font-size="14.00" fill="#1a1919">1127 Guard not, else ArithmeticException</text>
</g>
<!-- node1127&#45;&gt;node1130 -->
<g id="edge45" class="edge">
<title>node1127&#45;&gt;node1130</title>
<path fill="none" stroke="#3cb4a4" d="M632.47,-260.8C651.04,-247.19 677.04,-228.15 696.75,-213.7"/>
<polygon fill="#3cb4a4" stroke="#3cb4a4" points="699.04,-216.36 705.04,-207.63 694.9,-210.71 699.04,-216.36"/>
<text text-anchor="middle" x="690.5" y="-231.8" font-family="arial" font-size="14.00" fill="#3cb4a4">guard</text>
</g>
<!-- node1182 -->
<g id="node23" class="node">
<title>node1182</title>
<polygon fill="#f9f9f9" stroke="black" points="673,-123 479,-123 479,-87 673,-87 673,-123"/>
<text text-anchor="middle" x="576" y="-101.3" font-family="Arial" font-size="14.00" fill="#1a1919">1182 BoxNode$AllocatingBox</text>
</g>
<!-- node1127&#45;&gt;node1182 -->
<g id="edge40" class="edge">
<title>node1127&#45;&gt;node1182</title>
<path fill="none" stroke="#da2d4f" stroke-width="2" d="M599.15,-260.75C592.07,-247.37 583.09,-228.12 579,-210 573.24,-184.49 573.03,-154.58 573.94,-133.4"/>
<polygon fill="#da2d4f" stroke="#da2d4f" stroke-width="2" points="577.45,-133.36 574.5,-123.18 570.46,-132.98 577.45,-133.36"/>
</g>
<!-- node1128&#45;&gt;node1127 -->
<g id="edge39" class="edge">
<title>node1128&#45;&gt;node1127</title>
<path fill="none" stroke="#3cb4a4" d="M806.76,-351.53C768.86,-337.82 709.62,-316.39 665.85,-300.56"/>
<polygon fill="#3cb4a4" stroke="#3cb4a4" points="666.79,-297.18 656.2,-297.07 664.41,-303.76 666.79,-297.18"/>
<text text-anchor="middle" x="744" y="-318.8" font-family="arial" font-size="14.00" fill="#3cb4a4">?</text>
</g>
<!-- node1130&#45;&gt;node1182 -->
<g id="edge49" class="edge">
<title>node1130&#45;&gt;node1182</title>
<path fill="none" stroke="#3cb4a4" d="M700.73,-177.15C677.47,-163.88 641.97,-143.63 614.79,-128.13"/>
<polygon fill="#3cb4a4" stroke="#3cb4a4" points="616.34,-124.98 605.92,-123.07 612.87,-131.06 616.34,-124.98"/>
<text text-anchor="middle" x="675.5" y="-144.8" font-family="arial" font-size="14.00" fill="#3cb4a4">value</text>
</g>
<!-- node1159 -->
<g id="node21" class="node">
<title>node1159</title>
<polygon fill="#e98693" stroke="black" points="621,-36 531,-36 531,0 621,0 621,-36"/>
<text text-anchor="middle" x="576" y="-14.3" font-family="Arial" font-size="14.00" fill="#1a1919">1159 Return</text>
</g>
<!-- node1166&#45;&gt;node1127 -->
<g id="edge48" class="edge">
<title>node1166&#45;&gt;node1127</title>
<path fill="none" stroke="#da2d4f" stroke-width="2" d="M533.22,-347.8C547.26,-335.24 566.47,-318.05 582.04,-304.12"/>
<polygon fill="#da2d4f" stroke="#da2d4f" stroke-width="2" points="584.69,-306.45 589.8,-297.18 580.02,-301.24 584.69,-306.45"/>
</g>
<!-- node1182&#45;&gt;node1159 -->
<g id="edge46" class="edge">
<title>node1182&#45;&gt;node1159</title>
<path fill="none" stroke="#3cb4a4" d="M561.9,-86.84C558.28,-81.46 554.88,-75.27 553,-69 550.59,-60.93 552.56,-52.49 556.19,-44.89"/>
<polygon fill="#3cb4a4" stroke="#3cb4a4" points="559.29,-46.53 561.25,-36.12 553.22,-43.03 559.29,-46.53"/>
<text text-anchor="middle" x="570" y="-57.8" font-family="arial" font-size="14.00" fill="#3cb4a4">result</text>
</g>
<!-- node1182&#45;&gt;node1159 -->
<g id="edge50" class="edge">
<title>node1182&#45;&gt;node1159</title>
<path fill="none" stroke="#da2d4f" stroke-width="2" d="M582.55,-86.8C584.37,-81.21 586.09,-74.92 587,-69 588.17,-61.39 587.29,-53.2 585.61,-45.71"/>
<polygon fill="#da2d4f" stroke="#da2d4f" stroke-width="2" points="588.97,-44.74 582.94,-36.02 582.22,-46.59 588.97,-44.74"/>
</g>
<!-- inline2x31 -->
<g id="node24" class="node">
<title>inline2x31</title>
<ellipse fill="#d7ede7" stroke="black" cx="435" cy="-1587" rx="27" ry="18"/>
<text text-anchor="middle" x="435" y="-1585.1" font-family="Arial" font-size="8.00" fill="#1a1919">2 P(1)</text>
</g>
<!-- inline2x31&#45;&gt;node31 -->
<g id="edge2" class="edge">
<title>inline2x31&#45;&gt;node31</title>
<path fill="none" stroke="#3cb4a4" d="M442.46,-1569.63C448.51,-1556.34 457.03,-1537.67 463.18,-1524.17"/>
<text text-anchor="middle" x="465" y="-1544.6" font-family="arial" font-size="8.00" fill="#3cb4a4">object</text>
</g>
<!-- inline30x31 -->
<g id="node25" class="node">
<title>inline30x31</title>
<ellipse fill="#d7ede7" stroke="black" cx="507" cy="-1587" rx="27" ry="18"/>
<text text-anchor="middle" x="507" y="-1585.1" font-family="Arial" font-size="8.00" fill="#1a1919">30 C(9)</text>
</g>
<!-- inline30x31&#45;&gt;node31 -->
<g id="edge3" class="edge">
<title>inline30x31&#45;&gt;node31</title>
<path fill="none" stroke="#3cb4a4" d="M499.54,-1569.63C493.49,-1556.34 484.97,-1537.67 478.82,-1524.17"/>
<text text-anchor="middle" x="501" y="-1544.6" font-family="arial" font-size="8.00" fill="#3cb4a4">length</text>
</g>
<!-- inline5x43 -->
<g id="node26" class="node">
<title>inline5x43</title>
<ellipse fill="#d7ede7" stroke="black" cx="27" cy="-1419" rx="27" ry="18"/>
<text text-anchor="middle" x="27" y="-1417.1" font-family="Arial" font-size="8.00" fill="#1a1919">5 C(0)</text>
</g>
<!-- inline5x43&#45;&gt;node43 -->
<g id="edge6" class="edge">
<title>inline5x43&#45;&gt;node43</title>
<path fill="none" stroke="#3cb4a4" d="M39.69,-1402.8C52.06,-1388 70.82,-1365.53 83.71,-1350.11"/>
<text text-anchor="middle" x="76.5" y="-1373.6" font-family="arial" font-size="8.00" fill="#3cb4a4">index</text>
</g>
<!-- inline23x59 -->
<g id="node27" class="node">
<title>inline23x59</title>
<ellipse fill="#d7ede7" stroke="black" cx="238" cy="-1332" rx="27" ry="18"/>
<text text-anchor="middle" x="238" y="-1330.1" font-family="Arial" font-size="8.00" fill="#1a1919">23 C(1)</text>
</g>
<!-- inline23x59&#45;&gt;node59 -->
<g id="edge9" class="edge">
<title>inline23x59&#45;&gt;node59</title>
<path fill="none" stroke="#3cb4a4" d="M243.93,-1314.21C249.15,-1299.4 256.73,-1277.93 261.98,-1263.05"/>
<text text-anchor="middle" x="263.5" y="-1286.6" font-family="arial" font-size="8.00" fill="#3cb4a4">index</text>
</g>
<!-- inline69x74 -->
<g id="node28" class="node">
<title>inline69x74</title>
<ellipse fill="#d7ede7" stroke="black" cx="408" cy="-1245" rx="27" ry="18"/>
<text text-anchor="middle" x="408" y="-1243.1" font-family="Arial" font-size="8.00" fill="#1a1919">69 C(2)</text>
</g>
<!-- inline69x74&#45;&gt;node74 -->
<g id="edge12" class="edge">
<title>inline69x74&#45;&gt;node74</title>
<path fill="none" stroke="#3cb4a4" d="M396.26,-1228.41C385.15,-1213.65 368.49,-1191.53 356.99,-1176.25"/>
<text text-anchor="middle" x="388.5" y="-1199.6" font-family="arial" font-size="8.00" fill="#3cb4a4">index</text>
</g>
<!-- inline87x92 -->
<g id="node29" class="node">
<title>inline87x92</title>
<ellipse fill="#d7ede7" stroke="black" cx="484" cy="-1158" rx="27" ry="18"/>
<text text-anchor="middle" x="484" y="-1156.1" font-family="Arial" font-size="8.00" fill="#1a1919">87 C(3)</text>
</g>
<!-- inline87x92&#45;&gt;node92 -->
<g id="edge15" class="edge">
<title>inline87x92&#45;&gt;node92</title>
<path fill="none" stroke="#3cb4a4" d="M478.07,-1140.21C472.85,-1125.4 465.27,-1103.93 460.02,-1089.05"/>
<text text-anchor="middle" x="479.5" y="-1112.6" font-family="arial" font-size="8.00" fill="#3cb4a4">index</text>
</g>
<!-- inline105x110 -->
<g id="node30" class="node">
<title>inline105x110</title>
<ellipse fill="#d7ede7" stroke="black" cx="352" cy="-1071" rx="27.59" ry="18"/>
<text text-anchor="middle" x="352" y="-1069.1" font-family="Arial" font-size="8.00" fill="#1a1919">105 C(4)</text>
</g>
<!-- inline105x110&#45;&gt;node110 -->
<g id="edge18" class="edge">
<title>inline105x110&#45;&gt;node110</title>
<path fill="none" stroke="#3cb4a4" d="M371.86,-1058.36C396.68,-1043.81 439.36,-1018.79 467.88,-1002.07"/>
<text text-anchor="middle" x="442.5" y="-1025.6" font-family="arial" font-size="8.00" fill="#3cb4a4">index</text>
</g>
<!-- inline120x125 -->
<g id="node31" class="node">
<title>inline120x125</title>
<ellipse fill="#d7ede7" stroke="black" cx="391" cy="-984" rx="27.59" ry="18"/>
<text text-anchor="middle" x="391" y="-982.1" font-family="Arial" font-size="8.00" fill="#1a1919">120 C(5)</text>
</g>
<!-- inline120x125&#45;&gt;node125 -->
<g id="edge21" class="edge">
<title>inline120x125&#45;&gt;node125</title>
<path fill="none" stroke="#3cb4a4" d="M410.92,-971.34C433.58,-958.08 470.81,-936.3 496.76,-921.11"/>
<text text-anchor="middle" x="471.5" y="-941.6" font-family="arial" font-size="8.00" fill="#3cb4a4">index</text>
</g>
<!-- inline138x143 -->
<g id="node32" class="node">
<title>inline138x143</title>
<ellipse fill="#d7ede7" stroke="black" cx="700" cy="-903" rx="27.59" ry="18"/>
<text text-anchor="middle" x="700" y="-901.1" font-family="Arial" font-size="8.00" fill="#1a1919">138 C(6)</text>
</g>
<!-- inline138x143&#45;&gt;node143 -->
<g id="edge24" class="edge">
<title>inline138x143&#45;&gt;node143</title>
<path fill="none" stroke="#3cb4a4" d="M688.94,-886.39C679.5,-873.08 665.96,-853.97 656.21,-840.22"/>
<text text-anchor="middle" x="682.5" y="-860.6" font-family="arial" font-size="8.00" fill="#3cb4a4">index</text>
</g>
<!-- inline153x158 -->
<g id="node33" class="node">
<title>inline153x158</title>
<ellipse fill="#d7ede7" stroke="black" cx="812" cy="-822" rx="27.59" ry="18"/>
<text text-anchor="middle" x="812" y="-820.1" font-family="Arial" font-size="8.00" fill="#1a1919">153 C(7)</text>
</g>
<!-- inline153x158&#45;&gt;node158 -->
<g id="edge27" class="edge">
<title>inline153x158&#45;&gt;node158</title>
<path fill="none" stroke="#3cb4a4" d="M801.47,-805.01C791.71,-790.2 777.24,-768.23 767.25,-753.08"/>
<text text-anchor="middle" x="796.5" y="-776.6" font-family="arial" font-size="8.00" fill="#3cb4a4">index</text>
</g>
<!-- inline171x176 -->
<g id="node34" class="node">
<title>inline171x176</title>
<ellipse fill="#d7ede7" stroke="black" cx="650" cy="-735" rx="27.59" ry="18"/>
<text text-anchor="middle" x="650" y="-733.1" font-family="Arial" font-size="8.00" fill="#1a1919">171 C(8)</text>
</g>
<!-- inline171x176&#45;&gt;node176 -->
<g id="edge31" class="edge">
<title>inline171x176&#45;&gt;node176</title>
<path fill="none" stroke="#3cb4a4" d="M650,-716.97C650,-697.31 650,-665.13 650,-645.34"/>
<text text-anchor="middle" x="659.5" y="-679.1" font-family="arial" font-size="8.00" fill="#3cb4a4">index</text>
</g>
</g>
</svg>
