<?xml version="1.0" encoding="UTF-8" standalone="no"?>
<!DOCTYPE svg PUBLIC "-//W3C//DTD SVG 1.1//EN"
 "http://www.w3.org/Graphics/SVG/1.1/DTD/svg11.dtd">
<!-- Generated by graphviz version 2.44.1 (20200629.0846)
 -->
<!-- Title: G Pages: 1 -->
<svg width="743pt" height="548pt"
 viewBox="0.00 0.00 742.50 548.00" xmlns="http://www.w3.org/2000/svg" xmlns:xlink="http://www.w3.org/1999/xlink">
<g id="graph0" class="graph" transform="scale(1 1) rotate(0) translate(4 544)">
<title>G</title>
<!-- node0 -->
<g id="node1" class="node">
<title>node0</title>
<polygon fill="#e98693" stroke="black" points="56,-540 0,-540 0,-504 56,-504 56,-540"/>
<text text-anchor="middle" x="28" y="-518.3" font-family="Arial" font-size="14.00" fill="#1a1919">0 Start</text>
</g>
<!-- node1164 -->
<g id="node9" class="node">
<title>node1164</title>
<polygon fill="#da2d4f" stroke="black" points="120,-459 8,-459 8,-423 120,-423 120,-459"/>
<text text-anchor="middle" x="64" y="-437.3" font-family="Arial" font-size="14.00" fill="#ffffff">1164 Load T(...)</text>
</g>
<!-- node0&#45;&gt;node1164 -->
<g id="edge15" class="edge">
<title>node0&#45;&gt;node1164</title>
<path fill="none" stroke="#da2d4f" stroke-width="2" d="M35.81,-503.86C40.53,-493.51 46.64,-480.1 51.96,-468.41"/>
<polygon fill="#da2d4f" stroke="#da2d4f" stroke-width="2" points="55.24,-469.66 56.2,-459.11 48.87,-466.76 55.24,-469.66"/>
</g>
<!-- node549 -->
<g id="node2" class="node">
<title>node549</title>
<polygon fill="#f9f9f9" stroke="black" points="173,-378 91,-378 91,-342 173,-342 173,-378"/>
<text text-anchor="middle" x="132" y="-356.3" font-family="Arial" font-size="14.00" fill="#1a1919">549 Unbox</text>
</g>
<!-- node704 -->
<g id="node3" class="node">
<title>node704</title>
<polygon fill="#f9f9f9" stroke="black" points="95,-297 13,-297 13,-261 95,-261 95,-297"/>
<text text-anchor="middle" x="54" y="-275.3" font-family="Arial" font-size="14.00" fill="#1a1919">704 Unbox</text>
</g>
<!-- node549&#45;&gt;node704 -->
<g id="edge1" class="edge">
<title>node549&#45;&gt;node704</title>
<path fill="none" stroke="#da2d4f" stroke-width="2" d="M115.08,-341.86C104.24,-330.88 90.02,-316.48 78.02,-304.33"/>
<polygon fill="#da2d4f" stroke="#da2d4f" stroke-width="2" points="80.41,-301.77 70.89,-297.11 75.43,-306.68 80.41,-301.77"/>
</g>
<!-- node1162 -->
<g id="node7" class="node">
<title>node1162</title>
<polygon fill="#da2d4f" stroke="black" points="243,-210 165,-210 165,-174 243,-174 243,-210"/>
<text text-anchor="middle" x="204" y="-188.3" font-family="Arial" font-size="14.00" fill="#ffffff">1162 Alloc</text>
</g>
<!-- node549&#45;&gt;node1162 -->
<g id="edge7" class="edge">
<title>node549&#45;&gt;node1162</title>
<path fill="none" stroke="#3cb4a4" d="M130.59,-341.88C129.62,-321.64 130.2,-287.39 142,-261 149.45,-244.33 162.61,-229 174.89,-217.12"/>
<polygon fill="#3cb4a4" stroke="#3cb4a4" points="177.41,-219.56 182.36,-210.2 172.65,-214.43 177.41,-219.56"/>
<text text-anchor="middle" x="162" y="-275.3" font-family="arial" font-size="14.00" fill="#3cb4a4">values</text>
</g>
<!-- node704&#45;&gt;node1162 -->
<g id="edge2" class="edge">
<title>node704&#45;&gt;node1162</title>
<path fill="none" stroke="#da2d4f" stroke-width="2" d="M74.23,-260.87C87.08,-250.52 104.37,-237.52 121,-228 131.71,-221.87 143.7,-216.19 155.17,-211.27"/>
<polygon fill="#da2d4f" stroke="#da2d4f" stroke-width="2" points="156.75,-214.4 164.64,-207.32 154.06,-207.94 156.75,-214.4"/>
</g>
<!-- node704&#45;&gt;node1162 -->
<g id="edge8" class="edge">
<title>node704&#45;&gt;node1162</title>
<path fill="none" stroke="#3cb4a4" d="M48.6,-260.96C46.37,-250.38 45.76,-237.11 53,-228 65.6,-212.14 115.6,-202.83 154.66,-197.85"/>
<polygon fill="#3cb4a4" stroke="#3cb4a4" points="155.32,-201.3 164.83,-196.62 154.48,-194.35 155.32,-201.3"/>
<text text-anchor="middle" x="73" y="-231.8" font-family="arial" font-size="14.00" fill="#3cb4a4">values</text>
</g>
<!-- node1138 -->
<g id="node4" class="node">
<title>node1138</title>
<polygon fill="#e98693" stroke="black" points="265,-36 175,-36 175,0 265,0 265,-36"/>
<text text-anchor="middle" x="220" y="-14.3" font-family="Arial" font-size="14.00" fill="#1a1919">1138 Return</text>
</g>
<!-- node1159 -->
<g id="node5" class="node">
<title>node1159</title>
<polygon fill="#343d46" stroke="black" points="343.5,-297 190.5,-297 190.5,-261 343.5,-261 343.5,-297"/>
<text text-anchor="middle" x="267" y="-275.3" font-family="Arial" font-size="14.00" fill="#ffffff">1159 VirtualArray int[2]</text>
</g>
<!-- node1159&#45;&gt;node1162 -->
<g id="edge5" class="edge">
<title>node1159&#45;&gt;node1162</title>
<path fill="none" stroke="#3cb4a4" d="M261.6,-260.78C257.91,-250.63 252.36,-237.89 245,-228 242.15,-224.16 238.8,-220.47 235.28,-217"/>
<polygon fill="#3cb4a4" stroke="#3cb4a4" points="237.62,-214.41 227.87,-210.26 232.91,-219.58 237.62,-214.41"/>
<text text-anchor="middle" x="294.5" y="-231.8" font-family="arial" font-size="14.00" fill="#3cb4a4">virtualObjects</text>
</g>
<!-- node1159&#45;&gt;node1162 -->
<g id="edge6" class="edge">
<title>node1159&#45;&gt;node1162</title>
<path fill="none" stroke="#3cb4a4" d="M219.19,-260.9C211.94,-256.21 205.41,-250.33 201,-243 196.99,-236.34 196.15,-228.24 196.75,-220.51"/>
<polygon fill="#3cb4a4" stroke="#3cb4a4" points="200.25,-220.79 198.3,-210.37 193.33,-219.73 200.25,-220.79"/>
<text text-anchor="middle" x="221" y="-231.8" font-family="arial" font-size="14.00" fill="#3cb4a4">values</text>
</g>
<!-- node1161 -->
<g id="node6" class="node">
<title>node1161</title>
<polygon fill="#f9f9f9" stroke="black" points="734.5,-297 361.5,-297 361.5,-261 734.5,-261 734.5,-297"/>
<text text-anchor="middle" x="548" y="-275.3" font-family="Arial" font-size="14.00" fill="#1a1919">1161 VirtualInstance(6) org.truffleruby.core.array.RubyArray</text>
</g>
<!-- node1161&#45;&gt;node1162 -->
<g id="edge4" class="edge">
<title>node1161&#45;&gt;node1162</title>
<path fill="none" stroke="#3cb4a4" d="M478.8,-260.9C411.85,-244.36 312.06,-219.7 252.96,-205.1"/>
<polygon fill="#3cb4a4" stroke="#3cb4a4" points="253.67,-201.67 243.13,-202.67 251.99,-208.46 253.67,-201.67"/>
<text text-anchor="middle" x="437.5" y="-231.8" font-family="arial" font-size="14.00" fill="#3cb4a4">virtualObjects</text>
</g>
<!-- node1163 -->
<g id="node8" class="node">
<title>node1163</title>
<polygon fill="#343d46" stroke="black" points="376,-123 232,-123 232,-87 376,-87 376,-123"/>
<text text-anchor="middle" x="304" y="-101.3" font-family="Arial" font-size="14.00" fill="#ffffff">1163 AllocatedObject</text>
</g>
<!-- node1161&#45;&gt;node1163 -->
<g id="edge10" class="edge">
<title>node1161&#45;&gt;node1163</title>
<path fill="none" stroke="#3cb4a4" d="M526.27,-260.79C513.75,-251 497.64,-238.61 483,-228 433.73,-192.3 375.24,-153 338.86,-128.9"/>
<polygon fill="#3cb4a4" stroke="#3cb4a4" points="340.38,-125.71 330.11,-123.12 336.52,-131.55 340.38,-125.71"/>
<text text-anchor="middle" x="494" y="-188.3" font-family="arial" font-size="14.00" fill="#3cb4a4">virtualObject</text>
</g>
<!-- node1162&#45;&gt;node1138 -->
<g id="edge9" class="edge">
<title>node1162&#45;&gt;node1138</title>
<path fill="none" stroke="#da2d4f" stroke-width="2" d="M205.59,-173.88C208.37,-144 214.13,-82.11 217.46,-46.27"/>
<polygon fill="#da2d4f" stroke="#da2d4f" stroke-width="2" points="220.97,-46.33 218.41,-36.05 214,-45.68 220.97,-46.33"/>
</g>
<!-- node1162&#45;&gt;node1163 -->
<g id="edge11" class="edge">
<title>node1162&#45;&gt;node1163</title>
<path fill="none" stroke="#3cb4a4" d="M224.24,-173.8C239.15,-161.13 259.61,-143.73 276.07,-129.74"/>
<polygon fill="#3cb4a4" stroke="#3cb4a4" points="278.44,-132.32 283.79,-123.18 273.91,-126.99 278.44,-132.32"/>
<text text-anchor="middle" x="282" y="-144.8" font-family="arial" font-size="14.00" fill="#3cb4a4">commit</text>
</g>
<!-- node1163&#45;&gt;node1138 -->
<g id="edge3" class="edge">
<title>node1163&#45;&gt;node1138</title>
<path fill="none" stroke="#3cb4a4" d="M287,-86.8C274.7,-74.36 257.91,-57.36 244.22,-43.5"/>
<polygon fill="#3cb4a4" stroke="#3cb4a4" points="246.49,-40.83 236.97,-36.18 241.51,-45.75 246.49,-40.83"/>
<text text-anchor="middle" x="284" y="-57.8" font-family="arial" font-size="14.00" fill="#3cb4a4">result</text>
</g>
<!-- node1164&#45;&gt;node549 -->
<g id="edge16" class="edge">
<title>node1164&#45;&gt;node549</title>
<path fill="none" stroke="#da2d4f" stroke-width="2" d="M78.75,-422.86C88.02,-412.09 100.13,-398.02 110.46,-386.02"/>
<polygon fill="#da2d4f" stroke="#da2d4f" stroke-width="2" points="113.4,-387.97 117.27,-378.11 108.1,-383.4 113.4,-387.97"/>
</g>
<!-- inline161x549 -->
<g id="node10" class="node">
<title>inline161x549</title>
<ellipse fill="#d7ede7" stroke="black" cx="165" cy="-441" rx="27.46" ry="18"/>
<text text-anchor="middle" x="165" y="-439.1" font-family="Arial" font-size="8.00" fill="#1a1919">161 T(7)</text>
</g>
<!-- inline161x549&#45;&gt;node549 -->
<g id="edge12" class="edge">
<title>inline161x549&#45;&gt;node549</title>
<path fill="none" stroke="#3cb4a4" d="M158,-423.25C152.44,-409.93 144.69,-391.38 139.1,-378"/>
<text text-anchor="middle" x="158.5" y="-398.6" font-family="arial" font-size="8.00" fill="#3cb4a4">value</text>
</g>
<!-- inline179x704 -->
<g id="node11" class="node">
<title>inline179x704</title>
<ellipse fill="#d7ede7" stroke="black" cx="46" cy="-360" rx="27.46" ry="18"/>
<text text-anchor="middle" x="46" y="-358.1" font-family="Arial" font-size="8.00" fill="#1a1919">179 T(8)</text>
</g>
<!-- inline179x704&#45;&gt;node704 -->
<g id="edge13" class="edge">
<title>inline179x704&#45;&gt;node704</title>
<path fill="none" stroke="#3cb4a4" d="M47.74,-341.86C49.08,-328.61 50.93,-310.35 52.27,-297.11"/>
<text text-anchor="middle" x="60.5" y="-317.6" font-family="arial" font-size="8.00" fill="#3cb4a4">value</text>
</g>
<!-- inline2x1164 -->
<g id="node12" class="node">
<title>inline2x1164</title>
<ellipse fill="#d7ede7" stroke="black" cx="101" cy="-522" rx="27" ry="18"/>
<text text-anchor="middle" x="101" y="-520.1" font-family="Arial" font-size="8.00" fill="#1a1919">2 P(1)</text>
</g>
<!-- inline2x1164&#45;&gt;node1164 -->
<g id="edge14" class="edge">
<title>inline2x1164&#45;&gt;node1164</title>
<path fill="none" stroke="#3cb4a4" d="M93.33,-504.63C87.11,-491.34 78.36,-472.67 72.04,-459.17"/>
<text text-anchor="middle" x="92.5" y="-479.6" font-family="arial" font-size="8.00" fill="#3cb4a4">array</text>
</g>
</g>
</svg>
