<?xml version="1.0" encoding="UTF-8" standalone="no"?>
<!DOCTYPE svg PUBLIC "-//W3C//DTD SVG 1.1//EN"
 "http://www.w3.org/Graphics/SVG/1.1/DTD/svg11.dtd">
<!-- Generated by graphviz version 2.44.1 (20200629.0846)
 -->
<!-- Title: G Pages: 1 -->
<svg width="991pt" height="1709pt"
 viewBox="0.00 0.00 990.57 1709.00" xmlns="http://www.w3.org/2000/svg" xmlns:xlink="http://www.w3.org/1999/xlink">
<g id="graph0" class="graph" transform="scale(1 1) rotate(0) translate(4 1705)">
<title>G</title>
<!-- node0 -->
<g id="node1" class="node">
<title>node0</title>
<polygon fill="#e98693" stroke="black" points="183.78,-1701 127.78,-1701 127.78,-1665 183.78,-1665 183.78,-1701"/>
<text text-anchor="middle" x="155.78" y="-1679.3" font-family="Arial" font-size="14.00" fill="#1a1919">0 Start</text>
</g>
<!-- node2516 -->
<g id="node36" class="node">
<title>node2516</title>
<polygon fill="#da2d4f" stroke="black" points="249.28,-1620 136.28,-1620 136.28,-1584 249.28,-1584 249.28,-1620"/>
<text text-anchor="middle" x="192.78" y="-1598.3" font-family="Arial" font-size="14.00" fill="#ffffff">2516 Load T(...)</text>
</g>
<!-- node0&#45;&gt;node2516 -->
<g id="edge58" class="edge">
<title>node0&#45;&gt;node2516</title>
<path fill="none" stroke="#da2d4f" stroke-width="2" d="M163.8,-1664.86C168.65,-1654.51 174.93,-1641.1 180.4,-1629.41"/>
<polygon fill="#da2d4f" stroke="#da2d4f" stroke-width="2" points="183.69,-1630.65 184.76,-1620.11 177.35,-1627.68 183.69,-1630.65"/>
</g>
<!-- node528 -->
<g id="node2" class="node">
<title>node528</title>
<polygon fill="#f9f9f9" stroke="black" points="288.78,-1539 206.78,-1539 206.78,-1503 288.78,-1503 288.78,-1539"/>
<text text-anchor="middle" x="247.78" y="-1517.3" font-family="Arial" font-size="14.00" fill="#1a1919">528 Unbox</text>
</g>
<!-- node2460 -->
<g id="node28" class="node">
<title>node2460</title>
<polygon fill="#ffa500" stroke="black" points="373.28,-1452 122.28,-1452 122.28,-1416 373.28,-1416 373.28,-1452"/>
<text text-anchor="middle" x="247.78" y="-1430.3" font-family="Arial" font-size="14.00" fill="#1a1919">2460 Guard, else TransferToInterpreter</text>
</g>
<!-- node528&#45;&gt;node2460 -->
<g id="edge1" class="edge">
<title>node528&#45;&gt;node2460</title>
<path fill="none" stroke="#da2d4f" stroke-width="2" d="M247.78,-1502.8C247.78,-1491.16 247.78,-1475.55 247.78,-1462.24"/>
<polygon fill="#da2d4f" stroke="#da2d4f" stroke-width="2" points="251.28,-1462.18 247.78,-1452.18 244.28,-1462.18 251.28,-1462.18"/>
</g>
<!-- node2487 -->
<g id="node30" class="node">
<title>node2487</title>
<polygon fill="#f9f9f9" stroke="black" points="616.78,-123 558.78,-123 558.78,-87 616.78,-87 616.78,-123"/>
<text text-anchor="middle" x="587.78" y="-101.3" font-family="Arial" font-size="14.00" fill="#1a1919">2487 ϕ</text>
</g>
<!-- node528&#45;&gt;node2487 -->
<g id="edge42" class="edge">
<title>node528&#45;&gt;node2487</title>
<path fill="none" stroke="#3cb4a4" d="M289.21,-1518.86C430.81,-1514.44 886.78,-1495.5 886.78,-1435 886.78,-1435 886.78,-1435 886.78,-234.5 886.78,-189.47 884.61,-166.89 847.78,-141 809.49,-114.1 688.05,-132.95 626.86,-122.35"/>
<polygon fill="#3cb4a4" stroke="#3cb4a4" points="627.39,-118.88 616.88,-120.2 625.92,-125.72 627.39,-118.88"/>
<text text-anchor="middle" x="914.28" y="-812.8" font-family="arial" font-size="14.00" fill="#3cb4a4">from 809</text>
</g>
<!-- node2515 -->
<g id="node35" class="node">
<title>node2515</title>
<polygon fill="#f9f9f9" stroke="black" points="279.28,-704 84.28,-704 84.28,-668 279.28,-668 279.28,-704"/>
<text text-anchor="middle" x="181.78" y="-682.3" font-family="Arial" font-size="14.00" fill="#1a1919">2515 BoxNode$AllocatingBox</text>
</g>
<!-- node528&#45;&gt;node2515 -->
<g id="edge51" class="edge">
<title>node528&#45;&gt;node2515</title>
<path fill="none" stroke="#3cb4a4" d="M206.51,-1515.1C160.89,-1507.12 93.78,-1486.61 93.78,-1435 93.78,-1435 93.78,-1435 93.78,-772 93.78,-745 115.48,-723.85 137.32,-709.41"/>
<polygon fill="#3cb4a4" stroke="#3cb4a4" points="139.35,-712.27 145.98,-704.01 135.64,-706.33 139.35,-712.27"/>
<text text-anchor="middle" x="110.28" y="-1124.3" font-family="arial" font-size="14.00" fill="#3cb4a4">value</text>
</g>
<!-- node603 -->
<g id="node3" class="node">
<title>node603</title>
<polygon fill="#3cb4a4" stroke="black" points="70.78,-1539 0.22,-1521 70.78,-1503 141.33,-1521 70.78,-1539"/>
<text text-anchor="middle" x="70.78" y="-1517.3" font-family="Arial" font-size="14.00" fill="#1a1919">603 IsNull</text>
</g>
<!-- node603&#45;&gt;node2460 -->
<g id="edge37" class="edge">
<title>node603&#45;&gt;node2460</title>
<path fill="none" stroke="#3cb4a4" d="M93.91,-1508.89C121.41,-1495.68 167.92,-1473.35 202.62,-1456.68"/>
<polygon fill="#3cb4a4" stroke="#3cb4a4" points="204.57,-1459.63 212.07,-1452.15 201.54,-1453.32 204.57,-1459.63"/>
<text text-anchor="middle" x="174.78" y="-1473.8" font-family="arial" font-size="14.00" fill="#3cb4a4">?</text>
</g>
<!-- node809 -->
<g id="node4" class="node">
<title>node809</title>
<polygon fill="#e98693" stroke="black" points="281.28,-1379 214.28,-1379 214.28,-1343 281.28,-1343 281.28,-1379"/>
<text text-anchor="middle" x="247.78" y="-1357.3" font-family="Arial" font-size="14.00" fill="#1a1919">809 End</text>
</g>
<!-- node810 -->
<g id="node5" class="node">
<title>node810</title>
<polygon fill="#e98693" stroke="black" points="301.28,-1306 194.28,-1306 194.28,-1270 301.28,-1270 301.28,-1306"/>
<text text-anchor="middle" x="247.78" y="-1284.3" font-family="Arial" font-size="14.00" fill="#1a1919">810 LoopBegin</text>
</g>
<!-- node809&#45;&gt;node810 -->
<g id="edge2" class="edge">
<title>node809&#45;&gt;node810</title>
<path fill="none" stroke="#da2d4f" stroke-width="2" d="M247.78,-1342.81C247.78,-1334.79 247.78,-1325.05 247.78,-1316.07"/>
<polygon fill="#da2d4f" stroke="#da2d4f" stroke-width="2" points="251.28,-1316.03 247.78,-1306.03 244.28,-1316.03 251.28,-1316.03"/>
</g>
<!-- node1027 -->
<g id="node7" class="node">
<title>node1027</title>
<polygon fill="#e98693" stroke="black" points="271.78,-1233 213.78,-1233 213.78,-1197 271.78,-1197 271.78,-1233"/>
<text text-anchor="middle" x="242.78" y="-1211.3" font-family="Arial" font-size="14.00" fill="#1a1919">1027 If</text>
</g>
<!-- node810&#45;&gt;node1027 -->
<g id="edge3" class="edge">
<title>node810&#45;&gt;node1027</title>
<path fill="none" stroke="#da2d4f" stroke-width="2" d="M246.56,-1269.81C246,-1261.79 245.31,-1252.05 244.68,-1243.07"/>
<polygon fill="#da2d4f" stroke="#da2d4f" stroke-width="2" points="248.17,-1242.76 243.97,-1233.03 241.19,-1243.25 248.17,-1242.76"/>
</g>
<!-- node810&#45;&gt;node2487 -->
<g id="edge41" class="edge">
<title>node810&#45;&gt;node2487</title>
<path fill="none" stroke="#343d46" stroke-dasharray="5,2" d="M311.67,-1286.04C466.45,-1282.88 848.78,-1269.63 848.78,-1216 848.78,-1216 848.78,-1216 848.78,-191 848.78,-87.38 722.81,-159.34 625.78,-123 622.93,-121.94 620,-120.76 617.08,-119.55"/>
<polygon fill="#343d46" stroke="#343d46" points="311.3,-1282.55 301.37,-1286.25 311.44,-1289.55 311.3,-1282.55"/>
</g>
<!-- node988 -->
<g id="node6" class="node">
<title>node988</title>
<polygon fill="#3cb4a4" stroke="black" points="130.78,-36 84.02,-18 130.78,0 177.53,-18 130.78,-36"/>
<text text-anchor="middle" x="130.78" y="-14.3" font-family="Arial" font-size="14.00" fill="#1a1919">988 &lt;</text>
</g>
<!-- node988&#45;&gt;node1027 -->
<g id="edge6" class="edge">
<title>node988&#45;&gt;node1027</title>
<path fill="none" stroke="#3cb4a4" d="M112.62,-29.04C90.42,-42.79 55.78,-69.76 55.78,-104 55.78,-730.5 55.78,-730.5 55.78,-730.5 55.78,-807.6 85.55,-822.17 107.78,-896 141.11,-1006.72 122.94,-1045.3 179.78,-1146 188.95,-1162.25 202.73,-1177.73 215.07,-1189.8"/>
<polygon fill="#3cb4a4" stroke="#3cb4a4" points="212.85,-1192.51 222.51,-1196.85 217.66,-1187.43 212.85,-1192.51"/>
<text text-anchor="middle" x="59.78" y="-595.3" font-family="arial" font-size="14.00" fill="#3cb4a4">?</text>
</g>
<!-- node1030 -->
<g id="node8" class="node">
<title>node1030</title>
<polygon fill="#e98693" stroke="black" points="432.28,-1146 347.28,-1146 347.28,-1110 432.28,-1110 432.28,-1146"/>
<text text-anchor="middle" x="389.78" y="-1124.3" font-family="Arial" font-size="14.00" fill="#1a1919">1030 Begin</text>
</g>
<!-- node1027&#45;&gt;node1030 -->
<g id="edge8" class="edge">
<title>node1027&#45;&gt;node1030</title>
<path fill="none" stroke="#da2d4f" stroke-width="2" d="M271.82,-1197.21C294.62,-1184.02 326.57,-1165.55 351.47,-1151.15"/>
<polygon fill="#da2d4f" stroke="#da2d4f" stroke-width="2" points="353.38,-1154.09 360.29,-1146.05 349.88,-1148.03 353.38,-1154.09"/>
<text text-anchor="middle" x="329.28" y="-1167.8" font-family="arial" font-size="14.00" fill="#da2d4f">F</text>
</g>
<!-- node2183 -->
<g id="node17" class="node">
<title>node2183</title>
<polygon fill="#e98693" stroke="black" points="292.28,-1146 189.28,-1146 189.28,-1110 292.28,-1110 292.28,-1146"/>
<text text-anchor="middle" x="240.78" y="-1124.3" font-family="Arial" font-size="14.00" fill="#1a1919">2183 LoopExit</text>
</g>
<!-- node1027&#45;&gt;node2183 -->
<g id="edge7" class="edge">
<title>node1027&#45;&gt;node2183</title>
<path fill="none" stroke="#da2d4f" stroke-width="2" d="M242.37,-1196.8C242.1,-1185.16 241.73,-1169.55 241.42,-1156.24"/>
<polygon fill="#da2d4f" stroke="#da2d4f" stroke-width="2" points="244.91,-1156.09 241.18,-1146.18 237.92,-1156.26 244.91,-1156.09"/>
<text text-anchor="middle" x="246.28" y="-1167.8" font-family="arial" font-size="14.00" fill="#da2d4f">T</text>
</g>
<!-- node1266 -->
<g id="node10" class="node">
<title>node1266</title>
<polygon fill="#e98693" stroke="black" points="545.78,-1073 487.78,-1073 487.78,-1037 545.78,-1037 545.78,-1073"/>
<text text-anchor="middle" x="516.78" y="-1051.3" font-family="Arial" font-size="14.00" fill="#1a1919">1266 If</text>
</g>
<!-- node1030&#45;&gt;node1266 -->
<g id="edge9" class="edge">
<title>node1030&#45;&gt;node1266</title>
<path fill="none" stroke="#da2d4f" stroke-width="2" d="M420.19,-1109.99C437.73,-1100.19 459.93,-1087.78 478.62,-1077.33"/>
<polygon fill="#da2d4f" stroke="#da2d4f" stroke-width="2" points="480.46,-1080.31 487.48,-1072.38 477.04,-1074.2 480.46,-1080.31"/>
</g>
<!-- node1223 -->
<g id="node9" class="node">
<title>node1223</title>
<polygon fill="#3cb4a4" stroke="black" points="898.78,-36 837.11,-18 898.78,0 960.44,-18 898.78,-36"/>
<text text-anchor="middle" x="898.78" y="-14.3" font-family="Arial" font-size="14.00" fill="#1a1919">1223 ==</text>
</g>
<!-- node1223&#45;&gt;node1266 -->
<g id="edge12" class="edge">
<title>node1223&#45;&gt;node1266</title>
<path fill="none" stroke="#3cb4a4" d="M888.33,-33.32C865.02,-66.75 810.78,-153.27 810.78,-234.5 810.78,-948 810.78,-948 810.78,-948 810.78,-1001.48 636.41,-1035.46 556.24,-1048.25"/>
<polygon fill="#3cb4a4" stroke="#3cb4a4" points="555.38,-1044.84 546.04,-1049.84 556.46,-1051.76 555.38,-1044.84"/>
<text text-anchor="middle" x="814.78" y="-508.3" font-family="arial" font-size="14.00" fill="#3cb4a4">?</text>
</g>
<!-- node1268 -->
<g id="node11" class="node">
<title>node1268</title>
<polygon fill="#e98693" stroke="black" points="584.28,-965 499.28,-965 499.28,-929 584.28,-929 584.28,-965"/>
<text text-anchor="middle" x="541.78" y="-943.3" font-family="Arial" font-size="14.00" fill="#1a1919">1268 Begin</text>
</g>
<!-- node1266&#45;&gt;node1268 -->
<g id="edge14" class="edge">
<title>node1266&#45;&gt;node1268</title>
<path fill="none" stroke="#da2d4f" stroke-width="2" d="M520.79,-1036.97C524.72,-1020.3 530.77,-994.65 535.37,-975.16"/>
<polygon fill="#da2d4f" stroke="#da2d4f" stroke-width="2" points="538.8,-975.88 537.69,-965.34 531.98,-974.27 538.8,-975.88"/>
<text text-anchor="middle" x="537.28" y="-997.3" font-family="arial" font-size="14.00" fill="#da2d4f">F</text>
</g>
<!-- node2162 -->
<g id="node16" class="node">
<title>node2162</title>
<polygon fill="#e98693" stroke="black" points="481.28,-965 378.28,-965 378.28,-929 481.28,-929 481.28,-965"/>
<text text-anchor="middle" x="429.78" y="-943.3" font-family="Arial" font-size="14.00" fill="#1a1919">2162 LoopExit</text>
</g>
<!-- node1266&#45;&gt;node2162 -->
<g id="edge13" class="edge">
<title>node1266&#45;&gt;node2162</title>
<path fill="none" stroke="#da2d4f" stroke-width="2" d="M502.8,-1036.97C488.68,-1019.76 466.69,-992.98 450.54,-973.29"/>
<polygon fill="#da2d4f" stroke="#da2d4f" stroke-width="2" points="453.06,-970.85 444.01,-965.34 447.65,-975.29 453.06,-970.85"/>
<text text-anchor="middle" x="490.28" y="-997.3" font-family="arial" font-size="14.00" fill="#da2d4f">T</text>
</g>
<!-- node2466 -->
<g id="node29" class="node">
<title>node2466</title>
<polygon fill="#ffa500" stroke="black" points="551.28,-878 300.28,-878 300.28,-842 551.28,-842 551.28,-878"/>
<text text-anchor="middle" x="425.78" y="-856.3" font-family="Arial" font-size="14.00" fill="#1a1919">2466 Guard, else TransferToInterpreter</text>
</g>
<!-- node1268&#45;&gt;node2466 -->
<g id="edge15" class="edge">
<title>node1268&#45;&gt;node2466</title>
<path fill="none" stroke="#da2d4f" stroke-width="2" d="M518.3,-928.8C500.77,-915.95 476.62,-898.26 457.39,-884.17"/>
<polygon fill="#da2d4f" stroke="#da2d4f" stroke-width="2" points="459.35,-881.26 449.21,-878.18 455.21,-886.91 459.35,-881.26"/>
</g>
<!-- node1545 -->
<g id="node12" class="node">
<title>node1545</title>
<polygon fill="#3cb4a4" stroke="black" points="298.78,-965 237.11,-947 298.78,-929 360.44,-947 298.78,-965"/>
<text text-anchor="middle" x="298.78" y="-943.3" font-family="Arial" font-size="14.00" fill="#1a1919">1545 ==</text>
</g>
<!-- node1545&#45;&gt;node2466 -->
<g id="edge39" class="edge">
<title>node1545&#45;&gt;node2466</title>
<path fill="none" stroke="#3cb4a4" d="M316.7,-934C336.07,-921.04 367.38,-900.08 391.5,-883.94"/>
<polygon fill="#3cb4a4" stroke="#3cb4a4" points="393.66,-886.7 400.03,-878.23 389.77,-880.89 393.66,-886.7"/>
<text text-anchor="middle" x="373.78" y="-899.8" font-family="arial" font-size="14.00" fill="#3cb4a4">?</text>
</g>
<!-- node2062 -->
<g id="node13" class="node">
<title>node2062</title>
<polygon fill="#ffa500" stroke="black" points="474.78,-297 208.78,-297 208.78,-261 474.78,-261 474.78,-297"/>
<text text-anchor="middle" x="341.78" y="-275.3" font-family="Arial" font-size="14.00" fill="#1a1919">2062 Guard not, else ArithmeticException</text>
</g>
<!-- node2065 -->
<g id="node15" class="node">
<title>node2065</title>
<polygon fill="#3cb4a4" stroke="black" points="578.78,-210 441.03,-192 578.78,-174 716.52,-192 578.78,-210"/>
<text text-anchor="middle" x="578.78" y="-188.3" font-family="Arial" font-size="14.00" fill="#1a1919">2065 IntegerSubExact</text>
</g>
<!-- node2062&#45;&gt;node2065 -->
<g id="edge23" class="edge">
<title>node2062&#45;&gt;node2065</title>
<path fill="none" stroke="#3cb4a4" d="M389.45,-260.9C431.75,-245.73 493.06,-223.74 534.35,-208.93"/>
<polygon fill="#3cb4a4" stroke="#3cb4a4" points="535.64,-212.19 543.87,-205.52 533.28,-205.6 535.64,-212.19"/>
<text text-anchor="middle" x="491.28" y="-231.8" font-family="arial" font-size="14.00" fill="#3cb4a4">guard</text>
</g>
<!-- node2188 -->
<g id="node18" class="node">
<title>node2188</title>
<polygon fill="#e98693" stroke="black" points="393.78,-210 289.78,-210 289.78,-174 393.78,-174 393.78,-210"/>
<text text-anchor="middle" x="341.78" y="-188.3" font-family="Arial" font-size="14.00" fill="#1a1919">2188 LoopEnd</text>
</g>
<!-- node2062&#45;&gt;node2188 -->
<g id="edge18" class="edge">
<title>node2062&#45;&gt;node2188</title>
<path fill="none" stroke="#da2d4f" stroke-width="2" d="M341.78,-260.8C341.78,-249.16 341.78,-233.55 341.78,-220.24"/>
<polygon fill="#da2d4f" stroke="#da2d4f" stroke-width="2" points="345.28,-220.18 341.78,-210.18 338.28,-220.18 345.28,-220.18"/>
</g>
<!-- node2063 -->
<g id="node14" class="node">
<title>node2063</title>
<polygon fill="#3cb4a4" stroke="black" points="587.78,-36 400.26,-18 587.78,0 775.29,-18 587.78,-36"/>
<text text-anchor="middle" x="587.78" y="-14.3" font-family="Arial" font-size="14.00" fill="#1a1919">2063 IntegerSubExactOverflow</text>
</g>
<!-- node2063&#45;&gt;node2062 -->
<g id="edge17" class="edge">
<title>node2063&#45;&gt;node2062</title>
<path fill="none" stroke="#3cb4a4" d="M462.05,-23.99C406.53,-28.56 349.04,-37.3 327.78,-54 320.99,-59.32 259.75,-155.06 280.78,-210 287.21,-226.8 299.92,-242.07 312.08,-253.86"/>
<polygon fill="#3cb4a4" stroke="#3cb4a4" points="309.8,-256.52 319.52,-260.73 314.55,-251.38 309.8,-256.52"/>
<text text-anchor="middle" x="286.78" y="-144.8" font-family="arial" font-size="14.00" fill="#3cb4a4">?</text>
</g>
<!-- node2065&#45;&gt;node2487 -->
<g id="edge43" class="edge">
<title>node2065&#45;&gt;node2487</title>
<path fill="none" stroke="#3cb4a4" d="M580.55,-174.21C581.79,-162.52 583.47,-146.69 584.89,-133.22"/>
<polygon fill="#3cb4a4" stroke="#3cb4a4" points="588.4,-133.36 585.97,-123.05 581.44,-132.63 588.4,-133.36"/>
<text text-anchor="middle" x="614.78" y="-144.8" font-family="arial" font-size="14.00" fill="#3cb4a4">from 2188</text>
</g>
<!-- node2253 -->
<g id="node20" class="node">
<title>node2253</title>
<polygon fill="#e98693" stroke="black" points="281.78,-878 207.78,-878 207.78,-842 281.78,-842 281.78,-878"/>
<text text-anchor="middle" x="244.78" y="-856.3" font-family="Arial" font-size="14.00" fill="#1a1919">2253 End</text>
</g>
<!-- node2162&#45;&gt;node2253 -->
<g id="edge24" class="edge">
<title>node2162&#45;&gt;node2253</title>
<path fill="none" stroke="#da2d4f" stroke-width="2" d="M417.14,-928.54C408.22,-917.51 395.3,-903.89 380.78,-896 345.31,-876.74 330.63,-888.89 291.78,-878 291.67,-877.97 291.57,-877.94 291.47,-877.91"/>
<polygon fill="#da2d4f" stroke="#da2d4f" stroke-width="2" points="292.4,-874.54 281.81,-874.97 290.35,-881.23 292.4,-874.54"/>
</g>
<!-- node2255 -->
<g id="node21" class="node">
<title>node2255</title>
<polygon fill="#e98693" stroke="black" points="220.78,-1019 146.78,-1019 146.78,-983 220.78,-983 220.78,-1019"/>
<text text-anchor="middle" x="183.78" y="-997.3" font-family="Arial" font-size="14.00" fill="#1a1919">2255 End</text>
</g>
<!-- node2183&#45;&gt;node2255 -->
<g id="edge25" class="edge">
<title>node2183&#45;&gt;node2255</title>
<path fill="none" stroke="#da2d4f" stroke-width="2" d="M226.44,-1109.97C218.49,-1099.79 208.99,-1086.29 202.78,-1073 196.34,-1059.23 191.77,-1042.9 188.74,-1029.37"/>
<polygon fill="#da2d4f" stroke="#da2d4f" stroke-width="2" points="192.09,-1028.3 186.62,-1019.23 185.24,-1029.73 192.09,-1028.3"/>
</g>
<!-- node2251 -->
<g id="node19" class="node">
<title>node2251</title>
<polygon fill="#e98693" stroke="black" points="224.28,-791 135.28,-791 135.28,-755 224.28,-755 224.28,-791"/>
<text text-anchor="middle" x="179.78" y="-769.3" font-family="Arial" font-size="14.00" fill="#1a1919">2251 Merge</text>
</g>
<!-- node2251&#45;&gt;node2515 -->
<g id="edge28" class="edge">
<title>node2251&#45;&gt;node2515</title>
<path fill="none" stroke="#da2d4f" stroke-width="2" d="M180.18,-754.8C180.45,-743.16 180.82,-727.55 181.13,-714.24"/>
<polygon fill="#da2d4f" stroke="#da2d4f" stroke-width="2" points="184.63,-714.26 181.37,-704.18 177.64,-714.09 184.63,-714.26"/>
</g>
<!-- node2253&#45;&gt;node2251 -->
<g id="edge26" class="edge">
<title>node2253&#45;&gt;node2251</title>
<path fill="none" stroke="#da2d4f" stroke-width="2" d="M231.62,-841.8C222.28,-829.59 209.59,-812.99 199.11,-799.28"/>
<polygon fill="#da2d4f" stroke="#da2d4f" stroke-width="2" points="201.76,-796.99 192.91,-791.18 196.2,-801.25 201.76,-796.99"/>
</g>
<!-- node2255&#45;&gt;node2251 -->
<g id="edge27" class="edge">
<title>node2255&#45;&gt;node2251</title>
<path fill="none" stroke="#da2d4f" stroke-width="2" d="M183.47,-982.64C182.78,-943.52 181.09,-848.21 180.26,-801.17"/>
<polygon fill="#da2d4f" stroke="#da2d4f" stroke-width="2" points="183.75,-801.04 180.08,-791.11 176.76,-801.17 183.75,-801.04"/>
</g>
<!-- node2411 -->
<g id="node22" class="node">
<title>node2411</title>
<polygon fill="#e98693" stroke="black" points="220.78,-617 130.78,-617 130.78,-581 220.78,-581 220.78,-617"/>
<text text-anchor="middle" x="175.78" y="-595.3" font-family="Arial" font-size="14.00" fill="#1a1919">2411 Return</text>
</g>
<!-- node2443 -->
<g id="node23" class="node">
<title>node2443</title>
<polygon fill="#da2d4f" stroke="black" points="654.78,-457 364.78,-457 364.78,-421 654.78,-421 654.78,-457"/>
<text text-anchor="middle" x="509.78" y="-435.3" font-family="Arial" font-size="14.00" fill="#ffffff">2443 Call OptimizedCallTarget.callBoundary !</text>
</g>
<!-- node2447 -->
<g id="node25" class="node">
<title>node2447</title>
<polygon fill="#e98693" stroke="black" points="431.28,-370 310.28,-370 310.28,-334 431.28,-334 431.28,-370"/>
<text text-anchor="middle" x="370.78" y="-348.3" font-family="Arial" font-size="14.00" fill="#1a1919">2447 KillingBegin</text>
</g>
<!-- node2443&#45;&gt;node2447 -->
<g id="edge31" class="edge">
<title>node2443&#45;&gt;node2447</title>
<path fill="none" stroke="#da2d4f" stroke-width="2" d="M481.65,-420.8C460.26,-407.72 430.66,-389.62 407.43,-375.41"/>
<polygon fill="#da2d4f" stroke="#da2d4f" stroke-width="2" points="409.22,-372.41 398.86,-370.18 405.57,-378.38 409.22,-372.41"/>
</g>
<!-- node2448 -->
<g id="node26" class="node">
<title>node2448</title>
<polygon fill="#f9f9f9" stroke="black" points="626.28,-370 477.28,-370 477.28,-334 626.28,-334 626.28,-370"/>
<text text-anchor="middle" x="551.78" y="-348.3" font-family="Arial" font-size="14.00" fill="#1a1919">2448 ExceptionObject</text>
</g>
<!-- node2443&#45;&gt;node2448 -->
<g id="edge32" class="edge">
<title>node2443&#45;&gt;node2448</title>
<path fill="none" stroke="#da2d4f" stroke-width="2" d="M518.27,-420.8C524.14,-408.93 532.05,-392.93 538.71,-379.45"/>
<polygon fill="#da2d4f" stroke="#da2d4f" stroke-width="2" points="542,-380.69 543.29,-370.18 535.72,-377.59 542,-380.69"/>
<text text-anchor="middle" x="554.28" y="-391.8" font-family="arial" font-size="14.00" fill="#da2d4f">unwind</text>
</g>
<!-- node2444 -->
<g id="node24" class="node">
<title>node2444</title>
<polygon fill="#f9f9f9" stroke="black" points="653.28,-530 496.28,-530 496.28,-494 653.28,-494 653.28,-530"/>
<text text-anchor="middle" x="574.78" y="-508.3" font-family="Arial" font-size="14.00" fill="#1a1919">2444 MethodCallTarget</text>
</g>
<!-- node2444&#45;&gt;node2443 -->
<g id="edge30" class="edge">
<title>node2444&#45;&gt;node2443</title>
<path fill="none" stroke="#343d46" stroke-dasharray="5,2" d="M552.22,-486.37C543.36,-476.69 533.41,-465.81 525.36,-457.03"/>
<polygon fill="#343d46" stroke="#343d46" points="549.71,-488.8 559.04,-493.81 554.87,-484.07 549.71,-488.8"/>
</g>
<!-- node2447&#45;&gt;node2062 -->
<g id="edge35" class="edge">
<title>node2447&#45;&gt;node2062</title>
<path fill="none" stroke="#da2d4f" stroke-width="2" d="M363.76,-333.81C360.41,-325.62 356.33,-315.62 352.59,-306.48"/>
<polygon fill="#da2d4f" stroke="#da2d4f" stroke-width="2" points="355.75,-304.96 348.73,-297.03 349.27,-307.61 355.75,-304.96"/>
</g>
<!-- node2453 -->
<g id="node27" class="node">
<title>node2453</title>
<polygon fill="#da2d4f" stroke="black" points="710.28,-297 493.28,-297 493.28,-261 710.28,-261 710.28,-297"/>
<text text-anchor="middle" x="601.78" y="-275.3" font-family="Arial" font-size="14.00" fill="#ffffff">2453 Deopt TransferToInterpreter</text>
</g>
<!-- node2448&#45;&gt;node2453 -->
<g id="edge36" class="edge">
<title>node2448&#45;&gt;node2453</title>
<path fill="none" stroke="#da2d4f" stroke-width="2" d="M563.88,-333.81C569.9,-325.27 577.29,-314.77 583.94,-305.32"/>
<polygon fill="#da2d4f" stroke="#da2d4f" stroke-width="2" points="586.89,-307.22 589.78,-297.03 581.16,-303.19 586.89,-307.22"/>
</g>
<!-- node2460&#45;&gt;node809 -->
<g id="edge38" class="edge">
<title>node2460&#45;&gt;node809</title>
<path fill="none" stroke="#da2d4f" stroke-width="2" d="M247.78,-1415.81C247.78,-1407.79 247.78,-1398.05 247.78,-1389.07"/>
<polygon fill="#da2d4f" stroke="#da2d4f" stroke-width="2" points="251.28,-1389.03 247.78,-1379.03 244.28,-1389.03 251.28,-1389.03"/>
</g>
<!-- node2500 -->
<g id="node32" class="node">
<title>node2500</title>
<polygon fill="#f9f9f9" stroke="black" points="510.28,-791 315.28,-791 315.28,-755 510.28,-755 510.28,-791"/>
<text text-anchor="middle" x="412.78" y="-769.3" font-family="Arial" font-size="14.00" fill="#1a1919">2500 BoxNode$AllocatingBox</text>
</g>
<!-- node2466&#45;&gt;node2500 -->
<g id="edge40" class="edge">
<title>node2466&#45;&gt;node2500</title>
<path fill="none" stroke="#da2d4f" stroke-width="2" d="M423.14,-841.8C421.36,-830.16 418.98,-814.55 416.94,-801.24"/>
<polygon fill="#da2d4f" stroke="#da2d4f" stroke-width="2" points="420.37,-800.53 415.4,-791.18 413.45,-801.59 420.37,-800.53"/>
</g>
<!-- node2487&#45;&gt;node988 -->
<g id="edge4" class="edge">
<title>node2487&#45;&gt;node988</title>
<path fill="none" stroke="#3cb4a4" d="M558.49,-98.55C479.3,-83.82 260.78,-43.18 170.55,-26.4"/>
<polygon fill="#3cb4a4" stroke="#3cb4a4" points="171.17,-22.95 160.7,-24.57 169.89,-29.84 171.17,-22.95"/>
<text text-anchor="middle" x="389.28" y="-57.8" font-family="arial" font-size="14.00" fill="#3cb4a4">x</text>
</g>
<!-- node2487&#45;&gt;node1223 -->
<g id="edge10" class="edge">
<title>node2487&#45;&gt;node1223</title>
<path fill="none" stroke="#3cb4a4" d="M596.88,-86.66C603.78,-75.37 614.35,-61.42 627.78,-54 658.51,-37.01 749.96,-40.59 784.78,-36 806.5,-33.14 830.5,-29.61 850.85,-26.52"/>
<polygon fill="#3cb4a4" stroke="#3cb4a4" points="851.47,-29.96 860.82,-24.99 850.41,-23.04 851.47,-29.96"/>
<text text-anchor="middle" x="631.28" y="-57.8" font-family="arial" font-size="14.00" fill="#3cb4a4">x</text>
</g>
<!-- node2487&#45;&gt;node2063 -->
<g id="edge19" class="edge">
<title>node2487&#45;&gt;node2063</title>
<path fill="none" stroke="#3cb4a4" d="M587.78,-86.8C587.78,-75.16 587.78,-59.55 587.78,-46.24"/>
<polygon fill="#3cb4a4" stroke="#3cb4a4" points="591.28,-46.18 587.78,-36.18 584.28,-46.18 591.28,-46.18"/>
<text text-anchor="middle" x="591.28" y="-57.8" font-family="arial" font-size="14.00" fill="#3cb4a4">x</text>
</g>
<!-- node2487&#45;&gt;node2065 -->
<g id="edge21" class="edge">
<title>node2487&#45;&gt;node2065</title>
<path fill="none" stroke="#3cb4a4" d="M574.88,-123.31C571.58,-128.7 568.48,-134.85 566.78,-141 564.62,-148.78 565.48,-157.29 567.5,-165.06"/>
<polygon fill="#3cb4a4" stroke="#3cb4a4" points="564.23,-166.3 570.66,-174.71 570.88,-164.12 564.23,-166.3"/>
<text text-anchor="middle" x="570.28" y="-144.8" font-family="arial" font-size="14.00" fill="#3cb4a4">x</text>
</g>
<!-- node2487&#45;&gt;node2500 -->
<g id="edge44" class="edge">
<title>node2487&#45;&gt;node2500</title>
<path fill="none" stroke="#3cb4a4" d="M558.67,-105.49C478.23,-105.92 255.22,-120.09 199.78,-261 125.59,-449.56 318.04,-674.1 388.28,-747.49"/>
<polygon fill="#3cb4a4" stroke="#3cb4a4" points="385.98,-750.15 395.45,-754.9 391.01,-745.28 385.98,-750.15"/>
<text text-anchor="middle" x="217.28" y="-435.3" font-family="arial" font-size="14.00" fill="#3cb4a4">value</text>
</g>
<!-- node2497 -->
<g id="node31" class="node">
<title>node2497</title>
<polygon fill="#343d46" stroke="black" points="765.28,-791 528.28,-791 528.28,-755 765.28,-755 765.28,-791"/>
<text text-anchor="middle" x="646.78" y="-769.3" font-family="Arial" font-size="14.00" fill="#ffffff">2497 VirtualArray java.lang.Object[8]</text>
</g>
<!-- node2501 -->
<g id="node33" class="node">
<title>node2501</title>
<polygon fill="#da2d4f" stroke="black" points="507.28,-704 428.28,-704 428.28,-668 507.28,-668 507.28,-704"/>
<text text-anchor="middle" x="467.78" y="-682.3" font-family="Arial" font-size="14.00" fill="#ffffff">2501 Alloc</text>
</g>
<!-- node2497&#45;&gt;node2501 -->
<g id="edge46" class="edge">
<title>node2497&#45;&gt;node2501</title>
<path fill="none" stroke="#3cb4a4" d="M569.28,-754.97C554.38,-750.21 539.23,-744.29 525.78,-737 513.42,-730.3 501.37,-720.61 491.49,-711.54"/>
<polygon fill="#3cb4a4" stroke="#3cb4a4" points="493.72,-708.83 484.07,-704.46 488.89,-713.89 493.72,-708.83"/>
<text text-anchor="middle" x="567.28" y="-725.8" font-family="arial" font-size="14.00" fill="#3cb4a4">virtualObjects</text>
</g>
<!-- node2502 -->
<g id="node34" class="node">
<title>node2502</title>
<polygon fill="#343d46" stroke="black" points="644.28,-617 499.28,-617 499.28,-581 644.28,-581 644.28,-617"/>
<text text-anchor="middle" x="571.78" y="-595.3" font-family="Arial" font-size="14.00" fill="#ffffff">2502 AllocatedObject</text>
</g>
<!-- node2497&#45;&gt;node2502 -->
<g id="edge49" class="edge">
<title>node2497&#45;&gt;node2502</title>
<path fill="none" stroke="#3cb4a4" d="M639.31,-754.88C626.17,-724.74 598.83,-662.04 583.27,-626.35"/>
<polygon fill="#3cb4a4" stroke="#3cb4a4" points="586.42,-624.82 579.21,-617.05 580,-627.62 586.42,-624.82"/>
<text text-anchor="middle" x="653.78" y="-682.3" font-family="arial" font-size="14.00" fill="#3cb4a4">virtualObject</text>
</g>
<!-- node2500&#45;&gt;node2501 -->
<g id="edge45" class="edge">
<title>node2500&#45;&gt;node2501</title>
<path fill="none" stroke="#da2d4f" stroke-width="2" d="M437.7,-754.8C443.67,-749.67 449.54,-743.62 453.78,-737 458.16,-730.13 461.2,-721.88 463.29,-714.08"/>
<polygon fill="#da2d4f" stroke="#da2d4f" stroke-width="2" points="466.72,-714.76 465.52,-704.24 459.9,-713.21 466.72,-714.76"/>
</g>
<!-- node2500&#45;&gt;node2501 -->
<g id="edge47" class="edge">
<title>node2500&#45;&gt;node2501</title>
<path fill="none" stroke="#3cb4a4" d="M407.27,-754.74C405.08,-744.58 404.22,-731.84 409.78,-722 412.38,-717.38 415.87,-713.3 419.85,-709.72"/>
<polygon fill="#3cb4a4" stroke="#3cb4a4" points="422.22,-712.31 428,-703.43 417.95,-706.77 422.22,-712.31"/>
<text text-anchor="middle" x="429.78" y="-725.8" font-family="arial" font-size="14.00" fill="#3cb4a4">values</text>
</g>
<!-- node2501&#45;&gt;node2443 -->
<g id="edge48" class="edge">
<title>node2501&#45;&gt;node2443</title>
<path fill="none" stroke="#da2d4f" stroke-width="2" d="M467.96,-667.86C468.67,-634.08 472.05,-556.74 487.78,-494 490.1,-484.73 493.7,-474.94 497.33,-466.29"/>
<polygon fill="#da2d4f" stroke="#da2d4f" stroke-width="2" points="500.55,-467.65 501.36,-457.09 494.14,-464.85 500.55,-467.65"/>
</g>
<!-- node2501&#45;&gt;node2502 -->
<g id="edge50" class="edge">
<title>node2501&#45;&gt;node2502</title>
<path fill="none" stroke="#3cb4a4" d="M488.82,-667.8C504.33,-655.13 525.61,-637.73 542.73,-623.74"/>
<polygon fill="#3cb4a4" stroke="#3cb4a4" points="545.23,-626.21 550.76,-617.18 540.8,-620.79 545.23,-626.21"/>
<text text-anchor="middle" x="548.78" y="-638.8" font-family="arial" font-size="14.00" fill="#3cb4a4">commit</text>
</g>
<!-- node2502&#45;&gt;node2444 -->
<g id="edge34" class="edge">
<title>node2502&#45;&gt;node2444</title>
<path fill="none" stroke="#3cb4a4" d="M572.38,-580.8C572.79,-569.16 573.34,-553.55 573.81,-540.24"/>
<polygon fill="#3cb4a4" stroke="#3cb4a4" points="577.31,-540.29 574.17,-530.18 570.32,-540.05 577.31,-540.29"/>
<text text-anchor="middle" x="590.28" y="-551.8" font-family="arial" font-size="14.00" fill="#3cb4a4">arg[1]</text>
</g>
<!-- node2515&#45;&gt;node2411 -->
<g id="edge29" class="edge">
<title>node2515&#45;&gt;node2411</title>
<path fill="none" stroke="#3cb4a4" d="M180.56,-667.8C179.74,-656.16 178.64,-640.55 177.7,-627.24"/>
<polygon fill="#3cb4a4" stroke="#3cb4a4" points="181.18,-626.9 176.99,-617.18 174.2,-627.4 181.18,-626.9"/>
<text text-anchor="middle" x="196.78" y="-638.8" font-family="arial" font-size="14.00" fill="#3cb4a4">result</text>
</g>
<!-- node2515&#45;&gt;node2411 -->
<g id="edge52" class="edge">
<title>node2515&#45;&gt;node2411</title>
<path fill="none" stroke="#da2d4f" stroke-width="2" d="M180.56,-667.8C179.74,-656.16 178.64,-640.55 177.7,-627.24"/>
<polygon fill="#da2d4f" stroke="#da2d4f" stroke-width="2" points="181.18,-626.9 176.99,-617.18 174.2,-627.4 181.18,-626.9"/>
</g>
<!-- node2516&#45;&gt;node528 -->
<g id="edge59" class="edge">
<title>node2516&#45;&gt;node528</title>
<path fill="none" stroke="#da2d4f" stroke-width="2" d="M204.71,-1583.86C212.13,-1573.2 221.81,-1559.29 230.11,-1547.37"/>
<polygon fill="#da2d4f" stroke="#da2d4f" stroke-width="2" points="233.02,-1549.32 235.86,-1539.11 227.28,-1545.32 233.02,-1549.32"/>
</g>
<!-- inline23x988 -->
<g id="node37" class="node">
<title>inline23x988</title>
<ellipse fill="#d7ede7" stroke="black" cx="130.78" cy="-105" rx="27" ry="18"/>
<text text-anchor="middle" x="130.78" y="-103.1" font-family="Arial" font-size="8.00" fill="#1a1919">23 C(1)</text>
</g>
<!-- inline23x988&#45;&gt;node988 -->
<g id="edge5" class="edge">
<title>inline23x988&#45;&gt;node988</title>
<path fill="none" stroke="#3cb4a4" d="M130.78,-86.8C130.78,-72.05 130.78,-50.92 130.78,-36.18"/>
<text text-anchor="middle" x="132.78" y="-59.6" font-family="arial" font-size="8.00" fill="#3cb4a4">y</text>
</g>
<!-- inline105x1223 -->
<g id="node38" class="node">
<title>inline105x1223</title>
<ellipse fill="#d7ede7" stroke="black" cx="954.78" cy="-105" rx="27.59" ry="18"/>
<text text-anchor="middle" x="954.78" y="-103.1" font-family="Arial" font-size="8.00" fill="#1a1919">105 C(4)</text>
</g>
<!-- inline105x1223&#45;&gt;node1223 -->
<g id="edge11" class="edge">
<title>inline105x1223&#45;&gt;node1223</title>
<path fill="none" stroke="#3cb4a4" d="M944.24,-88.01C933.91,-72.33 918.3,-48.64 908.33,-33.5"/>
<text text-anchor="middle" x="931.78" y="-59.6" font-family="arial" font-size="8.00" fill="#3cb4a4">y</text>
</g>
<!-- inline1543x1545 -->
<g id="node39" class="node">
<title>inline1543x1545</title>
<ellipse fill="#d7ede7" stroke="black" cx="298.78" cy="-1055" rx="86.57" ry="18"/>
<text text-anchor="middle" x="298.78" y="-1053.1" font-family="Arial" font-size="8.00" fill="#1a1919">1543 C(RubyBasicObject@5a620041)</text>
</g>
<!-- inline1543x1545&#45;&gt;node1545 -->
<g id="edge16" class="edge">
<title>inline1543x1545&#45;&gt;node1545</title>
<path fill="none" stroke="#3cb4a4" d="M298.78,-1036.97C298.78,-1017.31 298.78,-985.13 298.78,-965.34"/>
<text text-anchor="middle" x="300.78" y="-999.1" font-family="arial" font-size="8.00" fill="#3cb4a4">y</text>
</g>
<!-- inline23x2063 -->
<g id="node40" class="node">
<title>inline23x2063</title>
<ellipse fill="#d7ede7" stroke="black" cx="661.78" cy="-105" rx="27" ry="18"/>
<text text-anchor="middle" x="661.78" y="-103.1" font-family="Arial" font-size="8.00" fill="#1a1919">23 C(1)</text>
</g>
<!-- inline23x2063&#45;&gt;node2063 -->
<g id="edge20" class="edge">
<title>inline23x2063&#45;&gt;node2063</title>
<path fill="none" stroke="#3cb4a4" d="M655.31,-87.06C650.84,-76.78 644.19,-63.79 635.78,-54 629.19,-46.34 620.61,-39.41 612.53,-33.78"/>
<text text-anchor="middle" x="646.78" y="-59.6" font-family="arial" font-size="8.00" fill="#3cb4a4">y</text>
</g>
<!-- inline23x2065 -->
<g id="node41" class="node">
<title>inline23x2065</title>
<ellipse fill="#d7ede7" stroke="black" cx="755.78" cy="-279" rx="27" ry="18"/>
<text text-anchor="middle" x="755.78" y="-277.1" font-family="Arial" font-size="8.00" fill="#1a1919">23 C(1)</text>
</g>
<!-- inline23x2065&#45;&gt;node2065 -->
<g id="edge22" class="edge">
<title>inline23x2065&#45;&gt;node2065</title>
<path fill="none" stroke="#3cb4a4" d="M734.42,-267.75C702.43,-252.38 642.02,-223.37 606.6,-206.36"/>
<text text-anchor="middle" x="679.78" y="-233.6" font-family="arial" font-size="8.00" fill="#3cb4a4">y</text>
</g>
<!-- inline1758x2444 -->
<g id="node42" class="node">
<title>inline1758x2444</title>
<ellipse fill="#d7ede7" stroke="black" cx="719.78" cy="-599" rx="57.08" ry="18"/>
<text text-anchor="middle" x="719.78" y="-597.1" font-family="Arial" font-size="8.00" fill="#1a1919">1758 C(Object#escape)</text>
</g>
<!-- inline1758x2444&#45;&gt;node2444 -->
<g id="edge33" class="edge">
<title>inline1758x2444&#45;&gt;node2444</title>
<path fill="none" stroke="#3cb4a4" d="M693.85,-582.8C668.6,-568 630.27,-545.53 603.96,-530.11"/>
<text text-anchor="middle" x="666.78" y="-553.6" font-family="arial" font-size="8.00" fill="#3cb4a4">arg[0]</text>
</g>
<!-- inline125x1545 -->
<g id="node43" class="node">
<title>inline125x1545</title>
<ellipse fill="#d7ede7" stroke="black" cx="430.78" cy="-1055" rx="27.46" ry="18"/>
<text text-anchor="middle" x="430.78" y="-1053.1" font-family="Arial" font-size="8.00" fill="#1a1919">125 T(5)</text>
</g>
<!-- inline125x1545&#45;&gt;node1545 -->
<g id="edge53" class="edge">
<title>inline125x1545&#45;&gt;node1545</title>
<path fill="none" stroke="#3cb4a4" d="M414.06,-1040.58C388.39,-1019.96 339.62,-980.8 314.54,-960.66"/>
<text text-anchor="middle" x="385.78" y="-999.1" font-family="arial" font-size="8.00" fill="#3cb4a4">x</text>
</g>
<!-- inline125x2501 -->
<g id="node44" class="node">
<title>inline125x2501</title>
<ellipse fill="#d7ede7" stroke="black" cx="269.78" cy="-773" rx="27.46" ry="18"/>
<text text-anchor="middle" x="269.78" y="-771.1" font-family="Arial" font-size="8.00" fill="#1a1919">125 T(5)</text>
</g>
<!-- inline125x2501&#45;&gt;node2501 -->
<g id="edge54" class="edge">
<title>inline125x2501&#45;&gt;node2501</title>
<path fill="none" stroke="#3cb4a4" d="M291.11,-761.64C312.77,-751.24 347.35,-734.94 377.78,-722 394.13,-715.04 412.37,-707.85 428.13,-701.8"/>
<text text-anchor="middle" x="389.28" y="-727.6" font-family="arial" font-size="8.00" fill="#3cb4a4">values</text>
</g>
<!-- inline143x603 -->
<g id="node45" class="node">
<title>inline143x603</title>
<ellipse fill="#d7ede7" stroke="black" cx="70.78" cy="-1602" rx="27.46" ry="18"/>
<text text-anchor="middle" x="70.78" y="-1600.1" font-family="Arial" font-size="8.00" fill="#1a1919">143 T(6)</text>
</g>
<!-- inline143x603&#45;&gt;node603 -->
<g id="edge55" class="edge">
<title>inline143x603&#45;&gt;node603</title>
<path fill="none" stroke="#3cb4a4" d="M70.78,-1583.86C70.78,-1570.61 70.78,-1552.35 70.78,-1539.11"/>
<text text-anchor="middle" x="80.28" y="-1559.6" font-family="arial" font-size="8.00" fill="#3cb4a4">value</text>
</g>
<!-- inline158x528 -->
<g id="node46" class="node">
<title>inline158x528</title>
<ellipse fill="#d7ede7" stroke="black" cx="294.78" cy="-1602" rx="27.46" ry="18"/>
<text text-anchor="middle" x="294.78" y="-1600.1" font-family="Arial" font-size="8.00" fill="#1a1919">158 T(7)</text>
</g>
<!-- inline158x528&#45;&gt;node528 -->
<g id="edge56" class="edge">
<title>inline158x528&#45;&gt;node528</title>
<path fill="none" stroke="#3cb4a4" d="M285.26,-1585.01C277.32,-1571.67 266.03,-1552.69 257.92,-1539.06"/>
<text text-anchor="middle" x="281.28" y="-1559.6" font-family="arial" font-size="8.00" fill="#3cb4a4">value</text>
</g>
<!-- inline2x2516 -->
<g id="node47" class="node">
<title>inline2x2516</title>
<ellipse fill="#d7ede7" stroke="black" cx="228.78" cy="-1683" rx="27" ry="18"/>
<text text-anchor="middle" x="228.78" y="-1681.1" font-family="Arial" font-size="8.00" fill="#1a1919">2 P(1)</text>
</g>
<!-- inline2x2516&#45;&gt;node2516 -->
<g id="edge57" class="edge">
<title>inline2x2516&#45;&gt;node2516</title>
<path fill="none" stroke="#3cb4a4" d="M221.32,-1665.63C215.26,-1652.34 206.75,-1633.67 200.6,-1620.17"/>
<text text-anchor="middle" x="222.28" y="-1640.6" font-family="arial" font-size="8.00" fill="#3cb4a4">array</text>
</g>
</g>
</svg>
