<?xml version="1.0" encoding="UTF-8" standalone="no"?>
<!DOCTYPE svg PUBLIC "-//W3C//DTD SVG 1.1//EN"
 "http://www.w3.org/Graphics/SVG/1.1/DTD/svg11.dtd">
<!-- Generated by graphviz version 2.44.1 (20200629.0846)
 -->
<!-- Title: G Pages: 1 -->
<svg width="1151pt" height="1578pt"
 viewBox="0.00 0.00 1150.50 1578.00" xmlns="http://www.w3.org/2000/svg" xmlns:xlink="http://www.w3.org/1999/xlink">
<g id="graph0" class="graph" transform="scale(1 1) rotate(0) translate(4 1574)">
<title>G</title>
<!-- node0 -->
<g id="node1" class="node">
<title>node0</title>
<polygon fill="#e98693" stroke="black" points="367,-1570 311,-1570 311,-1534 367,-1534 367,-1570"/>
<text text-anchor="middle" x="339" y="-1548.3" font-family="Arial" font-size="14.00" fill="#1a1919">0 Start</text>
</g>
<!-- node2188 -->
<g id="node25" class="node">
<title>node2188</title>
<polygon fill="#da2d4f" stroke="black" points="431.5,-1489 318.5,-1489 318.5,-1453 431.5,-1453 431.5,-1489"/>
<text text-anchor="middle" x="375" y="-1467.3" font-family="Arial" font-size="14.00" fill="#ffffff">2188 Load T(...)</text>
</g>
<!-- node0&#45;&gt;node2188 -->
<g id="edge46" class="edge">
<title>node0&#45;&gt;node2188</title>
<path fill="none" stroke="#da2d4f" stroke-width="2" d="M346.81,-1533.86C351.53,-1523.51 357.64,-1510.1 362.96,-1498.41"/>
<polygon fill="#da2d4f" stroke="#da2d4f" stroke-width="2" points="366.24,-1499.66 367.2,-1489.11 359.87,-1496.76 366.24,-1499.66"/>
</g>
<!-- node549 -->
<g id="node2" class="node">
<title>node549</title>
<polygon fill="#f9f9f9" stroke="black" points="485,-1408 403,-1408 403,-1372 485,-1372 485,-1408"/>
<text text-anchor="middle" x="444" y="-1386.3" font-family="Arial" font-size="14.00" fill="#1a1919">549 Unbox</text>
</g>
<!-- node704 -->
<g id="node3" class="node">
<title>node704</title>
<polygon fill="#f9f9f9" stroke="black" points="333,-1327 251,-1327 251,-1291 333,-1291 333,-1327"/>
<text text-anchor="middle" x="292" y="-1305.3" font-family="Arial" font-size="14.00" fill="#1a1919">704 Unbox</text>
</g>
<!-- node549&#45;&gt;node704 -->
<g id="edge1" class="edge">
<title>node549&#45;&gt;node704</title>
<path fill="none" stroke="#da2d4f" stroke-width="2" d="M411.02,-1371.86C388.41,-1360.11 358.23,-1344.42 333.92,-1331.79"/>
<polygon fill="#da2d4f" stroke="#da2d4f" stroke-width="2" points="335.4,-1328.61 324.92,-1327.11 332.18,-1334.83 335.4,-1328.61"/>
</g>
<!-- node1119 -->
<g id="node5" class="node">
<title>node1119</title>
<polygon fill="#3cb4a4" stroke="black" points="215,-1240 28.32,-1222 215,-1204 401.68,-1222 215,-1240"/>
<text text-anchor="middle" x="215" y="-1218.3" font-family="Arial" font-size="14.00" fill="#1a1919">1119 IntegerAddExactOverflow</text>
</g>
<!-- node549&#45;&gt;node1119 -->
<g id="edge5" class="edge">
<title>node549&#45;&gt;node1119</title>
<path fill="none" stroke="#3cb4a4" d="M428.97,-1371.93C410.07,-1351.12 375.97,-1315.69 342,-1291 314.97,-1271.36 281.57,-1253.7 255.8,-1241.3"/>
<polygon fill="#3cb4a4" stroke="#3cb4a4" points="257.22,-1238.1 246.68,-1236.98 254.22,-1244.42 257.22,-1238.1"/>
<text text-anchor="middle" x="386.5" y="-1305.3" font-family="arial" font-size="14.00" fill="#3cb4a4">x</text>
</g>
<!-- node1121 -->
<g id="node6" class="node">
<title>node1121</title>
<polygon fill="#3cb4a4" stroke="black" points="318,-732 181.09,-714 318,-696 454.91,-714 318,-732"/>
<text text-anchor="middle" x="318" y="-710.3" font-family="Arial" font-size="14.00" fill="#1a1919">1121 IntegerAddExact</text>
</g>
<!-- node549&#45;&gt;node1121 -->
<g id="edge7" class="edge">
<title>node549&#45;&gt;node1121</title>
<path fill="none" stroke="#3cb4a4" d="M456.64,-1371.77C466.66,-1356.38 479,-1332.8 479,-1310 479,-1310 479,-1310 479,-786 479,-750.39 445.61,-732.48 409.24,-723.55"/>
<polygon fill="#3cb4a4" stroke="#3cb4a4" points="409.97,-720.12 399.44,-721.36 408.44,-726.96 409.97,-720.12"/>
<text text-anchor="middle" x="482.5" y="-1044.3" font-family="arial" font-size="14.00" fill="#3cb4a4">x</text>
</g>
<!-- node1118 -->
<g id="node4" class="node">
<title>node1118</title>
<polygon fill="#ffa500" stroke="black" points="450.5,-1153 185.5,-1153 185.5,-1117 450.5,-1117 450.5,-1153"/>
<text text-anchor="middle" x="318" y="-1131.3" font-family="Arial" font-size="14.00" fill="#1a1919">1118 Guard not, else ArithmeticException</text>
</g>
<!-- node704&#45;&gt;node1118 -->
<g id="edge2" class="edge">
<title>node704&#45;&gt;node1118</title>
<path fill="none" stroke="#da2d4f" stroke-width="2" d="M333.15,-1296.41C360.5,-1286.32 394.34,-1268.71 411,-1240 429.28,-1208.5 394,-1178.12 361.78,-1158.42"/>
<polygon fill="#da2d4f" stroke="#da2d4f" stroke-width="2" points="363.21,-1155.2 352.81,-1153.15 359.66,-1161.24 363.21,-1155.2"/>
</g>
<!-- node704&#45;&gt;node1119 -->
<g id="edge6" class="edge">
<title>node704&#45;&gt;node1119</title>
<path fill="none" stroke="#3cb4a4" d="M276.42,-1290.8C264.88,-1278.07 249.03,-1260.57 236.32,-1246.54"/>
<polygon fill="#3cb4a4" stroke="#3cb4a4" points="238.57,-1243.8 229.26,-1238.74 233.38,-1248.5 238.57,-1243.8"/>
<text text-anchor="middle" x="262.5" y="-1261.8" font-family="arial" font-size="14.00" fill="#3cb4a4">y</text>
</g>
<!-- node704&#45;&gt;node1121 -->
<g id="edge8" class="edge">
<title>node704&#45;&gt;node1121</title>
<path fill="none" stroke="#3cb4a4" d="M250.78,-1304.65C170.29,-1296.97 0,-1274.61 0,-1223 0,-1223 0,-1223 0,-786 0,-742.72 113.61,-725.81 205.01,-719.21"/>
<polygon fill="#3cb4a4" stroke="#3cb4a4" points="205.46,-722.69 215.19,-718.51 204.98,-715.71 205.46,-722.69"/>
<text text-anchor="middle" x="3.5" y="-1000.8" font-family="arial" font-size="14.00" fill="#3cb4a4">y</text>
</g>
<!-- node1118&#45;&gt;node1121 -->
<g id="edge9" class="edge">
<title>node1118&#45;&gt;node1121</title>
<path fill="none" stroke="#3cb4a4" d="M318,-1116.74C318,-1099.57 318,-1072.46 318,-1049 318,-1049 318,-1049 318,-786 318,-771.65 318,-755.67 318,-742.51"/>
<polygon fill="#3cb4a4" stroke="#3cb4a4" points="321.5,-742.22 318,-732.22 314.5,-742.22 321.5,-742.22"/>
<text text-anchor="middle" x="335.5" y="-913.8" font-family="arial" font-size="14.00" fill="#3cb4a4">guard</text>
</g>
<!-- node2154 -->
<g id="node20" class="node">
<title>node2154</title>
<polygon fill="#ffa500" stroke="black" points="755.5,-1066 504.5,-1066 504.5,-1030 755.5,-1030 755.5,-1066"/>
<text text-anchor="middle" x="630" y="-1044.3" font-family="Arial" font-size="14.00" fill="#1a1919">2154 Guard, else TransferToInterpreter</text>
</g>
<!-- node1118&#45;&gt;node2154 -->
<g id="edge4" class="edge">
<title>node1118&#45;&gt;node2154</title>
<path fill="none" stroke="#da2d4f" stroke-width="2" d="M380.76,-1116.9C431.86,-1102.98 504.03,-1083.32 557.57,-1068.73"/>
<polygon fill="#da2d4f" stroke="#da2d4f" stroke-width="2" points="558.61,-1072.08 567.34,-1066.07 556.77,-1065.32 558.61,-1072.08"/>
</g>
<!-- node1119&#45;&gt;node1118 -->
<g id="edge3" class="edge">
<title>node1119&#45;&gt;node1118</title>
<path fill="none" stroke="#3cb4a4" d="M233.89,-1205.41C249.4,-1192.61 271.62,-1174.27 289.33,-1159.66"/>
<polygon fill="#3cb4a4" stroke="#3cb4a4" points="291.62,-1162.31 297.1,-1153.25 287.16,-1156.91 291.62,-1162.31"/>
<text text-anchor="middle" x="277" y="-1174.8" font-family="arial" font-size="14.00" fill="#3cb4a4">?</text>
</g>
<!-- node1846 -->
<g id="node9" class="node">
<title>node1846</title>
<polygon fill="#3cb4a4" stroke="black" points="552,-645 365.32,-627 552,-609 738.68,-627 552,-645"/>
<text text-anchor="middle" x="552" y="-623.3" font-family="Arial" font-size="14.00" fill="#1a1919">1846 IntegerMulExactOverflow</text>
</g>
<!-- node1121&#45;&gt;node1846 -->
<g id="edge13" class="edge">
<title>node1121&#45;&gt;node1846</title>
<path fill="none" stroke="#3cb4a4" d="M352.53,-700.46C393.03,-685.74 460.37,-661.28 505.46,-644.9"/>
<polygon fill="#3cb4a4" stroke="#3cb4a4" points="506.81,-648.14 515.01,-641.44 504.42,-641.56 506.81,-648.14"/>
<text text-anchor="middle" x="452.5" y="-666.8" font-family="arial" font-size="14.00" fill="#3cb4a4">x</text>
</g>
<!-- node1848 -->
<g id="node10" class="node">
<title>node1848</title>
<polygon fill="#3cb4a4" stroke="black" points="172,-471 35.09,-453 172,-435 308.91,-453 172,-471"/>
<text text-anchor="middle" x="172" y="-449.3" font-family="Arial" font-size="14.00" fill="#1a1919">1848 IntegerMulExact</text>
</g>
<!-- node1121&#45;&gt;node1848 -->
<g id="edge15" class="edge">
<title>node1121&#45;&gt;node1848</title>
<path fill="none" stroke="#3cb4a4" d="M308.87,-696.8C284.12,-652.91 215.68,-531.48 186.01,-478.86"/>
<polygon fill="#3cb4a4" stroke="#3cb4a4" points="188.9,-476.86 180.94,-469.86 182.8,-480.29 188.9,-476.86"/>
<text text-anchor="middle" x="252.5" y="-579.8" font-family="arial" font-size="14.00" fill="#3cb4a4">x</text>
</g>
<!-- node2066 -->
<g id="node12" class="node">
<title>node2066</title>
<polygon fill="#3cb4a4" stroke="black" points="336,-384 148.48,-366 336,-348 523.52,-366 336,-384"/>
<text text-anchor="middle" x="336" y="-362.3" font-family="Arial" font-size="14.00" fill="#1a1919">2066 IntegerAddExactOverflow</text>
</g>
<!-- node1121&#45;&gt;node2066 -->
<g id="edge20" class="edge">
<title>node1121&#45;&gt;node2066</title>
<path fill="none" stroke="#3cb4a4" d="M323.91,-696.63C329.49,-679.69 337,-652.35 337,-628 337,-628 337,-628 337,-452 337,-432.75 336.74,-411.05 336.49,-394.4"/>
<polygon fill="#3cb4a4" stroke="#3cb4a4" points="339.98,-394.2 336.32,-384.26 332.98,-394.31 339.98,-394.2"/>
<text text-anchor="middle" x="340.5" y="-536.3" font-family="arial" font-size="14.00" fill="#3cb4a4">x</text>
</g>
<!-- node2068 -->
<g id="node13" class="node">
<title>node2068</title>
<polygon fill="#3cb4a4" stroke="black" points="145,-210 7.25,-192 145,-174 282.75,-192 145,-210"/>
<text text-anchor="middle" x="145" y="-188.3" font-family="Arial" font-size="14.00" fill="#1a1919">2068 IntegerAddExact</text>
</g>
<!-- node1121&#45;&gt;node2068 -->
<g id="edge22" class="edge">
<title>node1121&#45;&gt;node2068</title>
<path fill="none" stroke="#3cb4a4" d="M237.08,-706.63C145.82,-697.16 10,-675.15 10,-628 10,-628 10,-628 10,-278 10,-239.99 48.8,-218.31 84.79,-206.37"/>
<polygon fill="#3cb4a4" stroke="#3cb4a4" points="85.84,-209.71 94.35,-203.39 83.76,-203.02 85.84,-209.71"/>
<text text-anchor="middle" x="13.5" y="-449.3" font-family="arial" font-size="14.00" fill="#3cb4a4">x</text>
</g>
<!-- node1347 -->
<g id="node7" class="node">
<title>node1347</title>
<polygon fill="#3cb4a4" stroke="black" points="630,-1153 568.33,-1135 630,-1117 691.67,-1135 630,-1153"/>
<text text-anchor="middle" x="630" y="-1131.3" font-family="Arial" font-size="14.00" fill="#1a1919">1347 ==</text>
</g>
<!-- node1347&#45;&gt;node2154 -->
<g id="edge33" class="edge">
<title>node1347&#45;&gt;node2154</title>
<path fill="none" stroke="#3cb4a4" d="M630,-1116.8C630,-1105.16 630,-1089.55 630,-1076.24"/>
<polygon fill="#3cb4a4" stroke="#3cb4a4" points="633.5,-1076.18 630,-1066.18 626.5,-1076.18 633.5,-1076.18"/>
<text text-anchor="middle" x="634" y="-1087.8" font-family="arial" font-size="14.00" fill="#3cb4a4">?</text>
</g>
<!-- node1845 -->
<g id="node8" class="node">
<title>node1845</title>
<polygon fill="#ffa500" stroke="black" points="685,-558 419,-558 419,-522 685,-522 685,-558"/>
<text text-anchor="middle" x="552" y="-536.3" font-family="Arial" font-size="14.00" fill="#1a1919">1845 Guard not, else ArithmeticException</text>
</g>
<!-- node1845&#45;&gt;node1848 -->
<g id="edge17" class="edge">
<title>node1845&#45;&gt;node1848</title>
<path fill="none" stroke="#3cb4a4" d="M475.56,-521.9C402.99,-505.67 295.52,-481.63 229.83,-466.94"/>
<polygon fill="#3cb4a4" stroke="#3cb4a4" points="230.58,-463.52 220.06,-464.75 229.05,-470.35 230.58,-463.52"/>
<text text-anchor="middle" x="401.5" y="-492.8" font-family="arial" font-size="14.00" fill="#3cb4a4">guard</text>
</g>
<!-- node2065 -->
<g id="node11" class="node">
<title>node2065</title>
<polygon fill="#ffa500" stroke="black" points="460,-297 194,-297 194,-261 460,-261 460,-297"/>
<text text-anchor="middle" x="327" y="-275.3" font-family="Arial" font-size="14.00" fill="#1a1919">2065 Guard not, else ArithmeticException</text>
</g>
<!-- node1845&#45;&gt;node2065 -->
<g id="edge12" class="edge">
<title>node1845&#45;&gt;node2065</title>
<path fill="none" stroke="#da2d4f" stroke-width="2" d="M555.87,-521.96C563.06,-485.59 574.26,-399.49 533,-348 515.09,-325.65 489.65,-310.58 462.73,-300.44"/>
<polygon fill="#da2d4f" stroke="#da2d4f" stroke-width="2" points="463.75,-297.09 453.15,-297.05 461.41,-303.68 463.75,-297.09"/>
</g>
<!-- node1846&#45;&gt;node1845 -->
<g id="edge11" class="edge">
<title>node1846&#45;&gt;node1845</title>
<path fill="none" stroke="#3cb4a4" d="M552,-608.8C552,-597.16 552,-581.55 552,-568.24"/>
<polygon fill="#3cb4a4" stroke="#3cb4a4" points="555.5,-568.18 552,-558.18 548.5,-568.18 555.5,-568.18"/>
<text text-anchor="middle" x="556" y="-579.8" font-family="arial" font-size="14.00" fill="#3cb4a4">?</text>
</g>
<!-- node1848&#45;&gt;node2066 -->
<g id="edge21" class="edge">
<title>node1848&#45;&gt;node2066</title>
<path fill="none" stroke="#3cb4a4" d="M198.35,-438.34C225.59,-424.22 268.35,-402.06 298.98,-386.19"/>
<polygon fill="#3cb4a4" stroke="#3cb4a4" points="300.8,-389.19 308.07,-381.48 297.58,-382.97 300.8,-389.19"/>
<text text-anchor="middle" x="267.5" y="-405.8" font-family="arial" font-size="14.00" fill="#3cb4a4">y</text>
</g>
<!-- node1848&#45;&gt;node2068 -->
<g id="edge23" class="edge">
<title>node1848&#45;&gt;node2068</title>
<path fill="none" stroke="#3cb4a4" d="M161.82,-436.28C153.84,-422.96 143.38,-403.06 139,-384 125.81,-326.62 133.79,-257 139.93,-219.69"/>
<polygon fill="#3cb4a4" stroke="#3cb4a4" points="143.42,-220.08 141.67,-209.63 136.52,-218.88 143.42,-220.08"/>
<text text-anchor="middle" x="136.5" y="-318.8" font-family="arial" font-size="14.00" fill="#3cb4a4">y</text>
</g>
<!-- node2065&#45;&gt;node2068 -->
<g id="edge24" class="edge">
<title>node2065&#45;&gt;node2068</title>
<path fill="none" stroke="#3cb4a4" d="M290.17,-260.8C259.01,-246.25 214.53,-225.47 183.04,-210.77"/>
<polygon fill="#3cb4a4" stroke="#3cb4a4" points="184.25,-207.47 173.71,-206.41 181.29,-213.81 184.25,-207.47"/>
<text text-anchor="middle" x="264.5" y="-231.8" font-family="arial" font-size="14.00" fill="#3cb4a4">guard</text>
</g>
<!-- node2187 -->
<g id="node24" class="node">
<title>node2187</title>
<polygon fill="#f9f9f9" stroke="black" points="337.5,-123 142.5,-123 142.5,-87 337.5,-87 337.5,-123"/>
<text text-anchor="middle" x="240" y="-101.3" font-family="Arial" font-size="14.00" fill="#1a1919">2187 BoxNode$AllocatingBox</text>
</g>
<!-- node2065&#45;&gt;node2187 -->
<g id="edge19" class="edge">
<title>node2065&#45;&gt;node2187</title>
<path fill="none" stroke="#da2d4f" stroke-width="2" d="M323.05,-260.73C317.77,-239.5 307.3,-202.76 292,-174 283.89,-158.75 272.43,-143.34 262.33,-131.05"/>
<polygon fill="#da2d4f" stroke="#da2d4f" stroke-width="2" points="264.74,-128.47 255.62,-123.08 259.39,-132.98 264.74,-128.47"/>
</g>
<!-- node2066&#45;&gt;node2065 -->
<g id="edge18" class="edge">
<title>node2066&#45;&gt;node2065</title>
<path fill="none" stroke="#3cb4a4" d="M334.18,-347.8C332.95,-336.16 331.29,-320.55 329.88,-307.24"/>
<polygon fill="#3cb4a4" stroke="#3cb4a4" points="333.35,-306.75 328.82,-297.18 326.39,-307.49 333.35,-306.75"/>
<text text-anchor="middle" x="337" y="-318.8" font-family="arial" font-size="14.00" fill="#3cb4a4">?</text>
</g>
<!-- node2068&#45;&gt;node2187 -->
<g id="edge39" class="edge">
<title>node2068&#45;&gt;node2187</title>
<path fill="none" stroke="#3cb4a4" d="M161.98,-175.8C176.2,-163.08 196.75,-144.7 213.18,-129.99"/>
<polygon fill="#3cb4a4" stroke="#3cb4a4" points="215.76,-132.39 220.88,-123.11 211.09,-127.17 215.76,-132.39"/>
<text text-anchor="middle" x="215.5" y="-144.8" font-family="arial" font-size="14.00" fill="#3cb4a4">value</text>
</g>
<!-- node2097 -->
<g id="node14" class="node">
<title>node2097</title>
<polygon fill="#e98693" stroke="black" points="285.5,-36 194.5,-36 194.5,0 285.5,0 285.5,-36"/>
<text text-anchor="middle" x="240" y="-14.3" font-family="Arial" font-size="14.00" fill="#1a1919">2097 Return</text>
</g>
<!-- node2132 -->
<g id="node15" class="node">
<title>node2132</title>
<polygon fill="#da2d4f" stroke="black" points="1039,-732 749,-732 749,-696 1039,-696 1039,-732"/>
<text text-anchor="middle" x="894" y="-710.3" font-family="Arial" font-size="14.00" fill="#ffffff">2132 Call OptimizedCallTarget.callBoundary !</text>
</g>
<!-- node2136 -->
<g id="node17" class="node">
<title>node2136</title>
<polygon fill="#e98693" stroke="black" points="1044.5,-645 923.5,-645 923.5,-609 1044.5,-609 1044.5,-645"/>
<text text-anchor="middle" x="984" y="-623.3" font-family="Arial" font-size="14.00" fill="#1a1919">2136 KillingBegin</text>
</g>
<!-- node2132&#45;&gt;node2136 -->
<g id="edge27" class="edge">
<title>node2132&#45;&gt;node2136</title>
<path fill="none" stroke="#da2d4f" stroke-width="2" d="M912.21,-695.8C925.51,-683.24 943.71,-666.05 958.46,-652.12"/>
<polygon fill="#da2d4f" stroke="#da2d4f" stroke-width="2" points="960.95,-654.59 965.81,-645.18 956.14,-649.5 960.95,-654.59"/>
</g>
<!-- node2137 -->
<g id="node18" class="node">
<title>node2137</title>
<polygon fill="#f9f9f9" stroke="black" points="905.5,-645 756.5,-645 756.5,-609 905.5,-609 905.5,-645"/>
<text text-anchor="middle" x="831" y="-623.3" font-family="Arial" font-size="14.00" fill="#1a1919">2137 ExceptionObject</text>
</g>
<!-- node2132&#45;&gt;node2137 -->
<g id="edge28" class="edge">
<title>node2132&#45;&gt;node2137</title>
<path fill="none" stroke="#da2d4f" stroke-width="2" d="M880.7,-696C876.3,-690.31 871.4,-683.91 867,-678 861.08,-670.06 854.74,-661.33 849.05,-653.42"/>
<polygon fill="#da2d4f" stroke="#da2d4f" stroke-width="2" points="851.86,-651.32 843.19,-645.23 846.17,-655.39 851.86,-651.32"/>
<text text-anchor="middle" x="888.5" y="-666.8" font-family="arial" font-size="14.00" fill="#da2d4f">unwind</text>
</g>
<!-- node2133 -->
<g id="node16" class="node">
<title>node2133</title>
<polygon fill="#f9f9f9" stroke="black" points="998.5,-805 841.5,-805 841.5,-769 998.5,-769 998.5,-805"/>
<text text-anchor="middle" x="920" y="-783.3" font-family="Arial" font-size="14.00" fill="#1a1919">2133 MethodCallTarget</text>
</g>
<!-- node2133&#45;&gt;node2132 -->
<g id="edge26" class="edge">
<title>node2133&#45;&gt;node2132</title>
<path fill="none" stroke="#343d46" stroke-dasharray="5,2" d="M910.24,-759.34C906.89,-750.19 903.23,-740.2 900.24,-732.03"/>
<polygon fill="#343d46" stroke="#343d46" points="906.98,-760.63 913.71,-768.81 913.55,-758.22 906.98,-760.63"/>
</g>
<!-- node2136&#45;&gt;node1845 -->
<g id="edge31" class="edge">
<title>node2136&#45;&gt;node1845</title>
<path fill="none" stroke="#da2d4f" stroke-width="2" d="M923.46,-610.88C920.61,-610.23 917.77,-609.6 915,-609 830.17,-590.62 733.54,-572.66 661.32,-559.82"/>
<polygon fill="#da2d4f" stroke="#da2d4f" stroke-width="2" points="661.75,-556.34 651.29,-558.04 660.53,-563.23 661.75,-556.34"/>
</g>
<!-- node2142 -->
<g id="node19" class="node">
<title>node2142</title>
<polygon fill="#da2d4f" stroke="black" points="939.5,-558 722.5,-558 722.5,-522 939.5,-522 939.5,-558"/>
<text text-anchor="middle" x="831" y="-536.3" font-family="Arial" font-size="14.00" fill="#ffffff">2142 Deopt TransferToInterpreter</text>
</g>
<!-- node2137&#45;&gt;node2142 -->
<g id="edge32" class="edge">
<title>node2137&#45;&gt;node2142</title>
<path fill="none" stroke="#da2d4f" stroke-width="2" d="M831,-608.8C831,-597.16 831,-581.55 831,-568.24"/>
<polygon fill="#da2d4f" stroke="#da2d4f" stroke-width="2" points="834.5,-568.18 831,-558.18 827.5,-568.18 834.5,-568.18"/>
</g>
<!-- node2177 -->
<g id="node22" class="node">
<title>node2177</title>
<polygon fill="#da2d4f" stroke="black" points="852.5,-979 773.5,-979 773.5,-943 852.5,-943 852.5,-979"/>
<text text-anchor="middle" x="813" y="-957.3" font-family="Arial" font-size="14.00" fill="#ffffff">2177 Alloc</text>
</g>
<!-- node2154&#45;&gt;node2177 -->
<g id="edge34" class="edge">
<title>node2154&#45;&gt;node2177</title>
<path fill="none" stroke="#da2d4f" stroke-width="2" d="M667.03,-1029.8C695.9,-1016.39 736.14,-997.7 767.06,-983.34"/>
<polygon fill="#da2d4f" stroke="#da2d4f" stroke-width="2" points="768.74,-986.42 776.34,-979.03 765.79,-980.07 768.74,-986.42"/>
</g>
<!-- node2173 -->
<g id="node21" class="node">
<title>node2173</title>
<polygon fill="#343d46" stroke="black" points="1083.5,-1066 846.5,-1066 846.5,-1030 1083.5,-1030 1083.5,-1066"/>
<text text-anchor="middle" x="965" y="-1044.3" font-family="Arial" font-size="14.00" fill="#ffffff">2173 VirtualArray java.lang.Object[7]</text>
</g>
<!-- node2173&#45;&gt;node2177 -->
<g id="edge35" class="edge">
<title>node2173&#45;&gt;node2177</title>
<path fill="none" stroke="#3cb4a4" d="M900.66,-1029.91C887.69,-1025.11 874.51,-1019.19 863,-1012 852.21,-1005.26 841.96,-995.79 833.58,-986.89"/>
<polygon fill="#3cb4a4" stroke="#3cb4a4" points="836.03,-984.39 826.74,-979.31 830.84,-989.08 836.03,-984.39"/>
<text text-anchor="middle" x="904.5" y="-1000.8" font-family="arial" font-size="14.00" fill="#3cb4a4">virtualObjects</text>
</g>
<!-- node2178 -->
<g id="node23" class="node">
<title>node2178</title>
<polygon fill="#343d46" stroke="black" points="989.5,-892 844.5,-892 844.5,-856 989.5,-856 989.5,-892"/>
<text text-anchor="middle" x="917" y="-870.3" font-family="Arial" font-size="14.00" fill="#ffffff">2178 AllocatedObject</text>
</g>
<!-- node2173&#45;&gt;node2178 -->
<g id="edge37" class="edge">
<title>node2173&#45;&gt;node2178</title>
<path fill="none" stroke="#3cb4a4" d="M960.22,-1029.88C951.85,-999.87 934.46,-937.58 924.48,-901.81"/>
<polygon fill="#3cb4a4" stroke="#3cb4a4" points="927.82,-900.74 921.76,-892.05 921.08,-902.62 927.82,-900.74"/>
<text text-anchor="middle" x="983" y="-957.3" font-family="arial" font-size="14.00" fill="#3cb4a4">virtualObject</text>
</g>
<!-- node2177&#45;&gt;node2132 -->
<g id="edge36" class="edge">
<title>node2177&#45;&gt;node2132</title>
<path fill="none" stroke="#da2d4f" stroke-width="2" d="M810.83,-942.75C807.24,-907.78 803.17,-826.96 833,-769 839.03,-757.29 848.74,-746.96 858.66,-738.54"/>
<polygon fill="#da2d4f" stroke="#da2d4f" stroke-width="2" points="860.95,-741.19 866.59,-732.22 856.59,-735.72 860.95,-741.19"/>
</g>
<!-- node2177&#45;&gt;node2178 -->
<g id="edge38" class="edge">
<title>node2177&#45;&gt;node2178</title>
<path fill="none" stroke="#3cb4a4" d="M834.05,-942.8C849.55,-930.13 870.83,-912.73 887.96,-898.74"/>
<polygon fill="#3cb4a4" stroke="#3cb4a4" points="890.46,-901.21 895.99,-892.18 886.03,-895.79 890.46,-901.21"/>
<text text-anchor="middle" x="894" y="-913.8" font-family="arial" font-size="14.00" fill="#3cb4a4">commit</text>
</g>
<!-- node2178&#45;&gt;node2133 -->
<g id="edge30" class="edge">
<title>node2178&#45;&gt;node2133</title>
<path fill="none" stroke="#3cb4a4" d="M917.61,-855.8C918.02,-844.16 918.57,-828.55 919.04,-815.24"/>
<polygon fill="#3cb4a4" stroke="#3cb4a4" points="922.54,-815.29 919.39,-805.18 915.54,-815.05 922.54,-815.29"/>
<text text-anchor="middle" x="935.5" y="-826.8" font-family="arial" font-size="14.00" fill="#3cb4a4">arg[1]</text>
</g>
<!-- node2187&#45;&gt;node2097 -->
<g id="edge25" class="edge">
<title>node2187&#45;&gt;node2097</title>
<path fill="none" stroke="#3cb4a4" d="M225.9,-86.84C222.28,-81.46 218.88,-75.27 217,-69 214.59,-60.93 216.56,-52.49 220.19,-44.89"/>
<polygon fill="#3cb4a4" stroke="#3cb4a4" points="223.29,-46.53 225.25,-36.12 217.22,-43.03 223.29,-46.53"/>
<text text-anchor="middle" x="234" y="-57.8" font-family="arial" font-size="14.00" fill="#3cb4a4">result</text>
</g>
<!-- node2187&#45;&gt;node2097 -->
<g id="edge40" class="edge">
<title>node2187&#45;&gt;node2097</title>
<path fill="none" stroke="#da2d4f" stroke-width="2" d="M246.94,-86.98C250.06,-77.35 252.7,-65.07 251,-54 250.59,-51.32 250.01,-48.56 249.33,-45.83"/>
<polygon fill="#da2d4f" stroke="#da2d4f" stroke-width="2" points="252.69,-44.83 246.55,-36.2 245.96,-46.78 252.69,-44.83"/>
</g>
<!-- node2188&#45;&gt;node549 -->
<g id="edge47" class="edge">
<title>node2188&#45;&gt;node549</title>
<path fill="none" stroke="#da2d4f" stroke-width="2" d="M389.97,-1452.86C399.47,-1441.99 411.9,-1427.75 422.45,-1415.67"/>
<polygon fill="#da2d4f" stroke="#da2d4f" stroke-width="2" points="425.12,-1417.94 429.06,-1408.11 419.84,-1413.34 425.12,-1417.94"/>
</g>
<!-- inline1345x1347 -->
<g id="node26" class="node">
<title>inline1345x1347</title>
<ellipse fill="#d7ede7" stroke="black" cx="610" cy="-1222" rx="83.9" ry="18"/>
<text text-anchor="middle" x="610" y="-1220.1" font-family="Arial" font-size="8.00" fill="#1a1919">1345 C(RubyBasicObject@7fc889f3)</text>
</g>
<!-- inline1345x1347&#45;&gt;node1347 -->
<g id="edge10" class="edge">
<title>inline1345x1347&#45;&gt;node1347</title>
<path fill="none" stroke="#3cb4a4" d="M614.05,-1203.8C617.61,-1188.66 622.75,-1166.8 626.23,-1152.03"/>
<text text-anchor="middle" x="623" y="-1176.6" font-family="arial" font-size="8.00" fill="#3cb4a4">y</text>
</g>
<!-- inline69x1846 -->
<g id="node27" class="node">
<title>inline69x1846</title>
<ellipse fill="#d7ede7" stroke="black" cx="552" cy="-714" rx="27" ry="18"/>
<text text-anchor="middle" x="552" y="-712.1" font-family="Arial" font-size="8.00" fill="#1a1919">69 C(2)</text>
</g>
<!-- inline69x1846&#45;&gt;node1846 -->
<g id="edge14" class="edge">
<title>inline69x1846&#45;&gt;node1846</title>
<path fill="none" stroke="#3cb4a4" d="M552,-695.8C552,-681.05 552,-659.92 552,-645.18"/>
<text text-anchor="middle" x="554" y="-668.6" font-family="arial" font-size="8.00" fill="#3cb4a4">y</text>
</g>
<!-- inline69x1848 -->
<g id="node28" class="node">
<title>inline69x1848</title>
<ellipse fill="#d7ede7" stroke="black" cx="172" cy="-540" rx="27" ry="18"/>
<text text-anchor="middle" x="172" y="-538.1" font-family="Arial" font-size="8.00" fill="#1a1919">69 C(2)</text>
</g>
<!-- inline69x1848&#45;&gt;node1848 -->
<g id="edge16" class="edge">
<title>inline69x1848&#45;&gt;node1848</title>
<path fill="none" stroke="#3cb4a4" d="M172,-521.8C172,-507.05 172,-485.92 172,-471.18"/>
<text text-anchor="middle" x="174" y="-494.6" font-family="arial" font-size="8.00" fill="#3cb4a4">y</text>
</g>
<!-- inline1520x2133 -->
<g id="node29" class="node">
<title>inline1520x2133</title>
<ellipse fill="#d7ede7" stroke="black" cx="1075" cy="-874" rx="67.5" ry="18"/>
<text text-anchor="middle" x="1075" y="-872.1" font-family="Arial" font-size="8.00" fill="#1a1919">1520 C(Object#opaque_call)</text>
</g>
<!-- inline1520x2133&#45;&gt;node2133 -->
<g id="edge29" class="edge">
<title>inline1520x2133&#45;&gt;node2133</title>
<path fill="none" stroke="#3cb4a4" d="M1046.93,-857.61C1019.89,-842.78 979.06,-820.39 951.05,-805.03"/>
<text text-anchor="middle" x="1017" y="-828.6" font-family="arial" font-size="8.00" fill="#3cb4a4">arg[0]</text>
</g>
<!-- inline125x1347 -->
<g id="node30" class="node">
<title>inline125x1347</title>
<ellipse fill="#d7ede7" stroke="black" cx="739" cy="-1222" rx="27.46" ry="18"/>
<text text-anchor="middle" x="739" y="-1220.1" font-family="Arial" font-size="8.00" fill="#1a1919">125 T(5)</text>
</g>
<!-- inline125x1347&#45;&gt;node1347 -->
<g id="edge41" class="edge">
<title>inline125x1347&#45;&gt;node1347</title>
<path fill="none" stroke="#3cb4a4" d="M721.97,-1207.72C701.25,-1191.56 666.53,-1164.49 646.2,-1148.63"/>
<text text-anchor="middle" x="693" y="-1176.6" font-family="arial" font-size="8.00" fill="#3cb4a4">x</text>
</g>
<!-- inline125x2177 -->
<g id="node31" class="node">
<title>inline125x2177</title>
<ellipse fill="#d7ede7" stroke="black" cx="801" cy="-1048" rx="27.46" ry="18"/>
<text text-anchor="middle" x="801" y="-1046.1" font-family="Arial" font-size="8.00" fill="#1a1919">125 T(5)</text>
</g>
<!-- inline125x2177&#45;&gt;node2177 -->
<g id="edge42" class="edge">
<title>inline125x2177&#45;&gt;node2177</title>
<path fill="none" stroke="#3cb4a4" d="M803.43,-1029.8C805.51,-1015.05 808.49,-993.92 810.58,-979.18"/>
<text text-anchor="middle" x="818.5" y="-1002.6" font-family="arial" font-size="8.00" fill="#3cb4a4">values</text>
</g>
<!-- inline161x549 -->
<g id="node32" class="node">
<title>inline161x549</title>
<ellipse fill="#d7ede7" stroke="black" cx="477" cy="-1471" rx="27.46" ry="18"/>
<text text-anchor="middle" x="477" y="-1469.1" font-family="Arial" font-size="8.00" fill="#1a1919">161 T(7)</text>
</g>
<!-- inline161x549&#45;&gt;node549 -->
<g id="edge43" class="edge">
<title>inline161x549&#45;&gt;node549</title>
<path fill="none" stroke="#3cb4a4" d="M470,-1453.25C464.44,-1439.93 456.69,-1421.38 451.1,-1408"/>
<text text-anchor="middle" x="470.5" y="-1428.6" font-family="arial" font-size="8.00" fill="#3cb4a4">value</text>
</g>
<!-- inline179x704 -->
<g id="node33" class="node">
<title>inline179x704</title>
<ellipse fill="#d7ede7" stroke="black" cx="292" cy="-1390" rx="27.46" ry="18"/>
<text text-anchor="middle" x="292" y="-1388.1" font-family="Arial" font-size="8.00" fill="#1a1919">179 T(8)</text>
</g>
<!-- inline179x704&#45;&gt;node704 -->
<g id="edge44" class="edge">
<title>inline179x704&#45;&gt;node704</title>
<path fill="none" stroke="#3cb4a4" d="M292,-1371.86C292,-1358.61 292,-1340.35 292,-1327.11"/>
<text text-anchor="middle" x="301.5" y="-1347.6" font-family="arial" font-size="8.00" fill="#3cb4a4">value</text>
</g>
<!-- inline2x2188 -->
<g id="node34" class="node">
<title>inline2x2188</title>
<ellipse fill="#d7ede7" stroke="black" cx="412" cy="-1552" rx="27" ry="18"/>
<text text-anchor="middle" x="412" y="-1550.1" font-family="Arial" font-size="8.00" fill="#1a1919">2 P(1)</text>
</g>
<!-- inline2x2188&#45;&gt;node2188 -->
<g id="edge45" class="edge">
<title>inline2x2188&#45;&gt;node2188</title>
<path fill="none" stroke="#3cb4a4" d="M404.33,-1534.63C398.11,-1521.34 389.36,-1502.67 383.04,-1489.17"/>
<text text-anchor="middle" x="403.5" y="-1509.6" font-family="arial" font-size="8.00" fill="#3cb4a4">array</text>
</g>
</g>
</svg>
