<?xml version="1.0" encoding="UTF-8" standalone="no"?>
<!DOCTYPE svg PUBLIC "-//W3C//DTD SVG 1.1//EN"
 "http://www.w3.org/Graphics/SVG/1.1/DTD/svg11.dtd">
<!-- Generated by graphviz version 2.44.1 (20200629.0846)
 -->
<!-- Title: G Pages: 1 -->
<svg width="1413pt" height="1797pt"
 viewBox="0.00 0.00 1412.51 1797.00" xmlns="http://www.w3.org/2000/svg" xmlns:xlink="http://www.w3.org/1999/xlink">
<g id="graph0" class="graph" transform="scale(1 1) rotate(0) translate(4 1793)">
<title>G</title>
<!-- node0 -->
<g id="node1" class="node">
<title>node0</title>
<polygon fill="#e98693" stroke="black" points="56,-1789 0,-1789 0,-1753 56,-1753 56,-1789"/>
<text text-anchor="middle" x="28" y="-1767.3" font-family="Arial" font-size="14.00" fill="#1a1919">0 Start</text>
</g>
<!-- node2249 -->
<g id="node34" class="node">
<title>node2249</title>
<polygon fill="#da2d4f" stroke="black" points="120.5,-1708 7.5,-1708 7.5,-1672 120.5,-1672 120.5,-1708"/>
<text text-anchor="middle" x="64" y="-1686.3" font-family="Arial" font-size="14.00" fill="#ffffff">2249 Load T(...)</text>
</g>
<!-- node0&#45;&gt;node2249 -->
<g id="edge57" class="edge">
<title>node0&#45;&gt;node2249</title>
<path fill="none" stroke="#da2d4f" stroke-width="2" d="M35.81,-1752.86C40.53,-1742.51 46.64,-1729.1 51.96,-1717.41"/>
<polygon fill="#da2d4f" stroke="#da2d4f" stroke-width="2" points="55.24,-1718.66 56.2,-1708.11 48.87,-1715.76 55.24,-1718.66"/>
</g>
<!-- node603 -->
<g id="node2" class="node">
<title>node603</title>
<polygon fill="#f9f9f9" stroke="black" points="173,-1627 91,-1627 91,-1591 173,-1591 173,-1627"/>
<text text-anchor="middle" x="132" y="-1605.3" font-family="Arial" font-size="14.00" fill="#1a1919">603 Unbox</text>
</g>
<!-- node700 -->
<g id="node3" class="node">
<title>node700</title>
<polygon fill="#ffa500" stroke="black" points="558,-1540 320,-1540 320,-1504 558,-1504 558,-1540"/>
<text text-anchor="middle" x="439" y="-1518.3" font-family="Arial" font-size="14.00" fill="#1a1919">700 Guard, else ClassCastException</text>
</g>
<!-- node603&#45;&gt;node700 -->
<g id="edge1" class="edge">
<title>node603&#45;&gt;node700</title>
<path fill="none" stroke="#da2d4f" stroke-width="2" d="M158.81,-1590.9C177.29,-1579.88 202.79,-1566.13 227,-1558 243.29,-1552.53 275.33,-1546.46 309.66,-1540.93"/>
<polygon fill="#da2d4f" stroke="#da2d4f" stroke-width="2" points="310.55,-1544.34 319.88,-1539.31 309.46,-1537.42 310.55,-1544.34"/>
</g>
<!-- node1822 -->
<g id="node11" class="node">
<title>node1822</title>
<polygon fill="#3cb4a4" stroke="black" points="346,-36 291.54,-18 346,0 400.46,-18 346,-36"/>
<text text-anchor="middle" x="346" y="-14.3" font-family="Arial" font-size="14.00" fill="#1a1919">1822 &lt;</text>
</g>
<!-- node603&#45;&gt;node1822 -->
<g id="edge11" class="edge">
<title>node603&#45;&gt;node1822</title>
<path fill="none" stroke="#3cb4a4" d="M119.13,-1590.77C108.11,-1574.26 94,-1548.22 94,-1523 94,-1523 94,-1523 94,-104 94,-61.37 225.13,-36.01 298.21,-25.19"/>
<polygon fill="#3cb4a4" stroke="#3cb4a4" points="299.15,-28.59 308.55,-23.7 298.15,-21.66 299.15,-28.59"/>
<text text-anchor="middle" x="97.5" y="-812.8" font-family="arial" font-size="14.00" fill="#3cb4a4">y</text>
</g>
<!-- node2248 -->
<g id="node33" class="node">
<title>node2248</title>
<polygon fill="#f9f9f9" stroke="black" points="317.5,-878 122.5,-878 122.5,-842 317.5,-842 317.5,-878"/>
<text text-anchor="middle" x="220" y="-856.3" font-family="Arial" font-size="14.00" fill="#1a1919">2248 BoxNode$AllocatingBox</text>
</g>
<!-- node603&#45;&gt;node2248 -->
<g id="edge48" class="edge">
<title>node603&#45;&gt;node2248</title>
<path fill="none" stroke="#3cb4a4" d="M132,-1590.74C132,-1573.57 132,-1546.46 132,-1523 132,-1523 132,-1523 132,-946 132,-919 153.7,-897.85 175.55,-883.41"/>
<polygon fill="#3cb4a4" stroke="#3cb4a4" points="177.57,-886.27 184.21,-878.01 173.87,-880.33 177.57,-886.27"/>
<text text-anchor="middle" x="148.5" y="-1219.8" font-family="arial" font-size="14.00" fill="#3cb4a4">value</text>
</g>
<!-- node2154 -->
<g id="node25" class="node">
<title>node2154</title>
<polygon fill="#ffa500" stroke="black" points="557.5,-1453 306.5,-1453 306.5,-1417 557.5,-1417 557.5,-1453"/>
<text text-anchor="middle" x="432" y="-1431.3" font-family="Arial" font-size="14.00" fill="#1a1919">2154 Guard, else TransferToInterpreter</text>
</g>
<!-- node700&#45;&gt;node2154 -->
<g id="edge3" class="edge">
<title>node700&#45;&gt;node2154</title>
<path fill="none" stroke="#da2d4f" stroke-width="2" d="M437.58,-1503.8C436.63,-1492.16 435.34,-1476.55 434.24,-1463.24"/>
<polygon fill="#da2d4f" stroke="#da2d4f" stroke-width="2" points="437.72,-1462.85 433.41,-1453.18 430.75,-1463.43 437.72,-1462.85"/>
</g>
<!-- node707 -->
<g id="node4" class="node">
<title>node707</title>
<polygon fill="#3cb4a4" stroke="black" points="231,-1540 160.45,-1522 231,-1504 301.55,-1522 231,-1540"/>
<text text-anchor="middle" x="231" y="-1518.3" font-family="Arial" font-size="14.00" fill="#1a1919">707 IsNull</text>
</g>
<!-- node707&#45;&gt;node2154 -->
<g id="edge32" class="edge">
<title>node707&#45;&gt;node2154</title>
<path fill="none" stroke="#3cb4a4" d="M256.46,-1510.23C287.95,-1496.92 342.28,-1473.94 382.17,-1457.07"/>
<polygon fill="#3cb4a4" stroke="#3cb4a4" points="383.62,-1460.26 391.47,-1453.14 380.9,-1453.81 383.62,-1460.26"/>
<text text-anchor="middle" x="347" y="-1474.8" font-family="arial" font-size="14.00" fill="#3cb4a4">?</text>
</g>
<!-- node1216 -->
<g id="node5" class="node">
<title>node1216</title>
<polygon fill="#ffa500" stroke="black" points="617.5,-1372 372.5,-1372 372.5,-1336 617.5,-1336 617.5,-1372"/>
<text text-anchor="middle" x="495" y="-1350.3" font-family="Arial" font-size="14.00" fill="#1a1919">1216 Guard, else ClassCastException</text>
</g>
<!-- node2156 -->
<g id="node26" class="node">
<title>node2156</title>
<polygon fill="#ffa500" stroke="black" points="620.5,-1285 369.5,-1285 369.5,-1249 620.5,-1249 620.5,-1285"/>
<text text-anchor="middle" x="495" y="-1263.3" font-family="Arial" font-size="14.00" fill="#1a1919">2156 Guard, else TransferToInterpreter</text>
</g>
<!-- node1216&#45;&gt;node2156 -->
<g id="edge5" class="edge">
<title>node1216&#45;&gt;node2156</title>
<path fill="none" stroke="#da2d4f" stroke-width="2" d="M495,-1335.8C495,-1324.16 495,-1308.55 495,-1295.24"/>
<polygon fill="#da2d4f" stroke="#da2d4f" stroke-width="2" points="498.5,-1295.18 495,-1285.18 491.5,-1295.18 498.5,-1295.18"/>
</g>
<!-- node1217 -->
<g id="node6" class="node">
<title>node1217</title>
<polygon fill="#f9f9f9" stroke="black" points="664,-1627 338,-1627 338,-1591 664,-1591 664,-1627"/>
<text text-anchor="middle" x="501" y="-1605.3" font-family="Arial" font-size="14.00" fill="#1a1919">1217 InstanceOf org/truffleruby/core/proc/RubyProc</text>
</g>
<!-- node1217&#45;&gt;node700 -->
<g id="edge2" class="edge">
<title>node1217&#45;&gt;node700</title>
<path fill="none" stroke="#3cb4a4" d="M488.45,-1590.8C479.55,-1578.59 467.44,-1561.99 457.44,-1548.28"/>
<polygon fill="#3cb4a4" stroke="#3cb4a4" points="460.25,-1546.19 451.53,-1540.18 454.59,-1550.32 460.25,-1546.19"/>
<text text-anchor="middle" x="477" y="-1561.8" font-family="arial" font-size="14.00" fill="#3cb4a4">?</text>
</g>
<!-- node1217&#45;&gt;node1216 -->
<g id="edge4" class="edge">
<title>node1217&#45;&gt;node1216</title>
<path fill="none" stroke="#3cb4a4" d="M525.37,-1590.85C540.49,-1578.63 558.59,-1560.73 567,-1540 587.54,-1489.34 589.79,-1466.69 567,-1417 559.83,-1401.35 546.54,-1388.16 533.31,-1378.02"/>
<polygon fill="#3cb4a4" stroke="#3cb4a4" points="535.29,-1375.14 525.14,-1372.11 531.19,-1380.81 535.29,-1375.14"/>
<text text-anchor="middle" x="587" y="-1474.8" font-family="arial" font-size="14.00" fill="#3cb4a4">?</text>
</g>
<!-- node1251 -->
<g id="node7" class="node">
<title>node1251</title>
<polygon fill="#3cb4a4" stroke="black" points="699,-1372 637.33,-1354 699,-1336 760.67,-1354 699,-1372"/>
<text text-anchor="middle" x="699" y="-1350.3" font-family="Arial" font-size="14.00" fill="#1a1919">1251 ==</text>
</g>
<!-- node1251&#45;&gt;node2156 -->
<g id="edge34" class="edge">
<title>node1251&#45;&gt;node2156</title>
<path fill="none" stroke="#3cb4a4" d="M674.8,-1342.92C643.07,-1329.7 586.63,-1306.18 545.42,-1289.01"/>
<polygon fill="#3cb4a4" stroke="#3cb4a4" points="546.67,-1285.74 536.09,-1285.12 543.98,-1292.2 546.67,-1285.74"/>
<text text-anchor="middle" x="613" y="-1306.8" font-family="arial" font-size="14.00" fill="#3cb4a4">?</text>
</g>
<!-- node1717 -->
<g id="node8" class="node">
<title>node1717</title>
<polygon fill="#e98693" stroke="black" points="266.5,-791 175.5,-791 175.5,-755 266.5,-755 266.5,-791"/>
<text text-anchor="middle" x="221" y="-769.3" font-family="Arial" font-size="14.00" fill="#1a1919">1717 Return</text>
</g>
<!-- node1796 -->
<g id="node9" class="node">
<title>node1796</title>
<polygon fill="#e98693" stroke="black" points="527,-1198 453,-1198 453,-1162 527,-1162 527,-1198"/>
<text text-anchor="middle" x="490" y="-1176.3" font-family="Arial" font-size="14.00" fill="#1a1919">1796 End</text>
</g>
<!-- node1797 -->
<g id="node10" class="node">
<title>node1797</title>
<polygon fill="#e98693" stroke="black" points="545.5,-1125 430.5,-1125 430.5,-1089 545.5,-1089 545.5,-1125"/>
<text text-anchor="middle" x="488" y="-1103.3" font-family="Arial" font-size="14.00" fill="#1a1919">1797 LoopBegin</text>
</g>
<!-- node1796&#45;&gt;node1797 -->
<g id="edge8" class="edge">
<title>node1796&#45;&gt;node1797</title>
<path fill="none" stroke="#da2d4f" stroke-width="2" d="M489.52,-1161.81C489.29,-1153.79 489.02,-1144.05 488.76,-1135.07"/>
<polygon fill="#da2d4f" stroke="#da2d4f" stroke-width="2" points="492.26,-1134.93 488.48,-1125.03 485.26,-1135.12 492.26,-1134.93"/>
</g>
<!-- node1827 -->
<g id="node12" class="node">
<title>node1827</title>
<polygon fill="#e98693" stroke="black" points="393,-1052 335,-1052 335,-1016 393,-1016 393,-1052"/>
<text text-anchor="middle" x="364" y="-1030.3" font-family="Arial" font-size="14.00" fill="#1a1919">1827 If</text>
</g>
<!-- node1797&#45;&gt;node1827 -->
<g id="edge9" class="edge">
<title>node1797&#45;&gt;node1827</title>
<path fill="none" stroke="#da2d4f" stroke-width="2" d="M458.3,-1088.99C441.46,-1079.35 420.21,-1067.18 402.15,-1056.84"/>
<polygon fill="#da2d4f" stroke="#da2d4f" stroke-width="2" points="403.45,-1053.55 393.03,-1051.62 399.97,-1059.63 403.45,-1053.55"/>
</g>
<!-- node2206 -->
<g id="node28" class="node">
<title>node2206</title>
<polygon fill="#f9f9f9" stroke="black" points="768,-123 710,-123 710,-87 768,-87 768,-123"/>
<text text-anchor="middle" x="739" y="-101.3" font-family="Arial" font-size="14.00" fill="#1a1919">2206 ϕ</text>
</g>
<!-- node1797&#45;&gt;node2206 -->
<g id="edge38" class="edge">
<title>node1797&#45;&gt;node2206</title>
<path fill="none" stroke="#343d46" stroke-dasharray="5,2" d="M488,-1078.49C488,-1065.33 488,-1049.35 488,-1035 488,-1035 488,-1035 488,-191 488,-144.65 643.5,-118.6 709.72,-109.61"/>
<polygon fill="#343d46" stroke="#343d46" points="484.5,-1078.78 488,-1088.78 491.5,-1078.78 484.5,-1078.78"/>
</g>
<!-- node1822&#45;&gt;node1827 -->
<g id="edge12" class="edge">
<title>node1822&#45;&gt;node1827</title>
<path fill="none" stroke="#3cb4a4" d="M346,-36.26C346,-53.43 346,-80.54 346,-104 346,-948 346,-948 346,-948 346,-967.67 350.67,-989.37 355.26,-1005.91"/>
<polygon fill="#3cb4a4" stroke="#3cb4a4" points="352.03,-1007.36 358.21,-1015.97 358.75,-1005.39 352.03,-1007.36"/>
<text text-anchor="middle" x="350" y="-508.3" font-family="arial" font-size="14.00" fill="#3cb4a4">?</text>
</g>
<!-- node1830 -->
<g id="node13" class="node">
<title>node1830</title>
<polygon fill="#e98693" stroke="black" points="459.5,-965 374.5,-965 374.5,-929 459.5,-929 459.5,-965"/>
<text text-anchor="middle" x="417" y="-943.3" font-family="Arial" font-size="14.00" fill="#1a1919">1830 Begin</text>
</g>
<!-- node1827&#45;&gt;node1830 -->
<g id="edge13" class="edge">
<title>node1827&#45;&gt;node1830</title>
<path fill="none" stroke="#da2d4f" stroke-width="2" d="M374.73,-1015.8C382.27,-1003.7 392.49,-987.3 401,-973.67"/>
<polygon fill="#da2d4f" stroke="#da2d4f" stroke-width="2" points="403.97,-975.51 406.29,-965.18 398.03,-971.81 403.97,-975.51"/>
<text text-anchor="middle" x="397.5" y="-986.8" font-family="arial" font-size="14.00" fill="#da2d4f">T</text>
</g>
<!-- node1949 -->
<g id="node17" class="node">
<title>node1949</title>
<polygon fill="#e98693" stroke="black" points="305.5,-965 202.5,-965 202.5,-929 305.5,-929 305.5,-965"/>
<text text-anchor="middle" x="254" y="-943.3" font-family="Arial" font-size="14.00" fill="#1a1919">1949 LoopExit</text>
</g>
<!-- node1827&#45;&gt;node1949 -->
<g id="edge14" class="edge">
<title>node1827&#45;&gt;node1949</title>
<path fill="none" stroke="#da2d4f" stroke-width="2" d="M341.74,-1015.8C325.19,-1003.01 302.42,-985.42 284.23,-971.36"/>
<polygon fill="#da2d4f" stroke="#da2d4f" stroke-width="2" points="286.28,-968.52 276.23,-965.18 282,-974.06 286.28,-968.52"/>
<text text-anchor="middle" x="319.5" y="-986.8" font-family="arial" font-size="14.00" fill="#da2d4f">F</text>
</g>
<!-- node2177 -->
<g id="node27" class="node">
<title>node2177</title>
<polygon fill="#ffa500" stroke="black" points="843.5,-878 592.5,-878 592.5,-842 843.5,-842 843.5,-878"/>
<text text-anchor="middle" x="718" y="-856.3" font-family="Arial" font-size="14.00" fill="#1a1919">2177 Guard, else TransferToInterpreter</text>
</g>
<!-- node1830&#45;&gt;node2177 -->
<g id="edge15" class="edge">
<title>node1830&#45;&gt;node2177</title>
<path fill="none" stroke="#da2d4f" stroke-width="2" d="M459.81,-933.91C508.75,-920.09 589.61,-897.26 647.8,-880.82"/>
<polygon fill="#da2d4f" stroke="#da2d4f" stroke-width="2" points="648.99,-884.12 657.67,-878.04 647.09,-877.39 648.99,-884.12"/>
</g>
<!-- node1925 -->
<g id="node14" class="node">
<title>node1925</title>
<polygon fill="#ffa500" stroke="black" points="1350,-297 1084,-297 1084,-261 1350,-261 1350,-297"/>
<text text-anchor="middle" x="1217" y="-275.3" font-family="Arial" font-size="14.00" fill="#1a1919">1925 Guard not, else ArithmeticException</text>
</g>
<!-- node1928 -->
<g id="node16" class="node">
<title>node1928</title>
<polygon fill="#3cb4a4" stroke="black" points="654,-210 516.25,-192 654,-174 791.75,-192 654,-210"/>
<text text-anchor="middle" x="654" y="-188.3" font-family="Arial" font-size="14.00" fill="#1a1919">1928 IntegerAddExact</text>
</g>
<!-- node1925&#45;&gt;node1928 -->
<g id="edge22" class="edge">
<title>node1925&#45;&gt;node1928</title>
<path fill="none" stroke="#3cb4a4" d="M1104.08,-260.95C990.88,-243.86 820.1,-218.08 724.76,-203.68"/>
<polygon fill="#3cb4a4" stroke="#3cb4a4" points="725.05,-200.19 714.64,-202.16 724.01,-207.11 725.05,-200.19"/>
<text text-anchor="middle" x="986.5" y="-231.8" font-family="arial" font-size="14.00" fill="#3cb4a4">guard</text>
</g>
<!-- node1951 -->
<g id="node18" class="node">
<title>node1951</title>
<polygon fill="#e98693" stroke="black" points="1189,-210 1085,-210 1085,-174 1189,-174 1189,-210"/>
<text text-anchor="middle" x="1137" y="-188.3" font-family="Arial" font-size="14.00" fill="#1a1919">1951 LoopEnd</text>
</g>
<!-- node1925&#45;&gt;node1951 -->
<g id="edge17" class="edge">
<title>node1925&#45;&gt;node1951</title>
<path fill="none" stroke="#da2d4f" stroke-width="2" d="M1200.81,-260.8C1189.1,-248.36 1173.11,-231.36 1160.06,-217.5"/>
<polygon fill="#da2d4f" stroke="#da2d4f" stroke-width="2" points="1162.57,-215.06 1153.17,-210.18 1157.47,-219.86 1162.57,-215.06"/>
</g>
<!-- node1926 -->
<g id="node15" class="node">
<title>node1926</title>
<polygon fill="#3cb4a4" stroke="black" points="1217,-36 1029.48,-18 1217,0 1404.52,-18 1217,-36"/>
<text text-anchor="middle" x="1217" y="-14.3" font-family="Arial" font-size="14.00" fill="#1a1919">1926 IntegerAddExactOverflow</text>
</g>
<!-- node1926&#45;&gt;node1925 -->
<g id="edge16" class="edge">
<title>node1926&#45;&gt;node1925</title>
<path fill="none" stroke="#3cb4a4" d="M1217,-36.32C1217,-80.38 1217,-197.01 1217,-250.49"/>
<polygon fill="#3cb4a4" stroke="#3cb4a4" points="1213.5,-250.6 1217,-260.6 1220.5,-250.6 1213.5,-250.6"/>
<text text-anchor="middle" x="1221" y="-144.8" font-family="arial" font-size="14.00" fill="#3cb4a4">?</text>
</g>
<!-- node1928&#45;&gt;node2206 -->
<g id="edge40" class="edge">
<title>node1928&#45;&gt;node2206</title>
<path fill="none" stroke="#3cb4a4" d="M648.15,-174.33C645.59,-163.89 644.46,-150.64 651,-141 662.06,-124.7 682.04,-115.99 700.17,-111.34"/>
<polygon fill="#3cb4a4" stroke="#3cb4a4" points="700.99,-114.74 709.99,-109.15 699.47,-107.91 700.99,-114.74"/>
<text text-anchor="middle" x="682" y="-144.8" font-family="arial" font-size="14.00" fill="#3cb4a4">from 1951</text>
</g>
<!-- node1949&#45;&gt;node2248 -->
<g id="edge23" class="edge">
<title>node1949&#45;&gt;node2248</title>
<path fill="none" stroke="#da2d4f" stroke-width="2" d="M247.12,-928.8C242.42,-917.05 236.1,-901.24 230.74,-887.84"/>
<polygon fill="#da2d4f" stroke="#da2d4f" stroke-width="2" points="233.83,-886.16 226.87,-878.18 227.33,-888.76 233.83,-886.16"/>
</g>
<!-- node2061 -->
<g id="node19" class="node">
<title>node2061</title>
<polygon fill="#3cb4a4" stroke="black" points="718,-965 656.33,-947 718,-929 779.67,-947 718,-965"/>
<text text-anchor="middle" x="718" y="-943.3" font-family="Arial" font-size="14.00" fill="#1a1919">2061 ==</text>
</g>
<!-- node2061&#45;&gt;node2177 -->
<g id="edge36" class="edge">
<title>node2061&#45;&gt;node2177</title>
<path fill="none" stroke="#3cb4a4" d="M718,-928.8C718,-917.16 718,-901.55 718,-888.24"/>
<polygon fill="#3cb4a4" stroke="#3cb4a4" points="721.5,-888.18 718,-878.18 714.5,-888.18 721.5,-888.18"/>
<text text-anchor="middle" x="722" y="-899.8" font-family="arial" font-size="14.00" fill="#3cb4a4">?</text>
</g>
<!-- node2137 -->
<g id="node20" class="node">
<title>node2137</title>
<polygon fill="#da2d4f" stroke="black" points="1290,-457 1000,-457 1000,-421 1290,-421 1290,-457"/>
<text text-anchor="middle" x="1145" y="-435.3" font-family="Arial" font-size="14.00" fill="#ffffff">2137 Call OptimizedCallTarget.callBoundary !</text>
</g>
<!-- node2141 -->
<g id="node22" class="node">
<title>node2141</title>
<polygon fill="#e98693" stroke="black" points="1254.5,-370 1133.5,-370 1133.5,-334 1254.5,-334 1254.5,-370"/>
<text text-anchor="middle" x="1194" y="-348.3" font-family="Arial" font-size="14.00" fill="#1a1919">2141 KillingBegin</text>
</g>
<!-- node2137&#45;&gt;node2141 -->
<g id="edge26" class="edge">
<title>node2137&#45;&gt;node2141</title>
<path fill="none" stroke="#da2d4f" stroke-width="2" d="M1154.92,-420.8C1161.82,-408.82 1171.16,-392.62 1178.98,-379.06"/>
<polygon fill="#da2d4f" stroke="#da2d4f" stroke-width="2" points="1182.14,-380.59 1184.1,-370.18 1176.07,-377.09 1182.14,-380.59"/>
</g>
<!-- node2142 -->
<g id="node23" class="node">
<title>node2142</title>
<polygon fill="#f9f9f9" stroke="black" points="1101.5,-370 952.5,-370 952.5,-334 1101.5,-334 1101.5,-370"/>
<text text-anchor="middle" x="1027" y="-348.3" font-family="Arial" font-size="14.00" fill="#1a1919">2142 ExceptionObject</text>
</g>
<!-- node2137&#45;&gt;node2142 -->
<g id="edge27" class="edge">
<title>node2137&#45;&gt;node2142</title>
<path fill="none" stroke="#da2d4f" stroke-width="2" d="M1121.12,-420.8C1103.29,-407.95 1078.72,-390.26 1059.16,-376.17"/>
<polygon fill="#da2d4f" stroke="#da2d4f" stroke-width="2" points="1061,-373.18 1050.84,-370.18 1056.91,-378.86 1061,-373.18"/>
<text text-anchor="middle" x="1114.5" y="-391.8" font-family="arial" font-size="14.00" fill="#da2d4f">unwind</text>
</g>
<!-- node2138 -->
<g id="node21" class="node">
<title>node2138</title>
<polygon fill="#f9f9f9" stroke="black" points="1216.5,-530 1059.5,-530 1059.5,-494 1216.5,-494 1216.5,-530"/>
<text text-anchor="middle" x="1138" y="-508.3" font-family="Arial" font-size="14.00" fill="#1a1919">2138 MethodCallTarget</text>
</g>
<!-- node2138&#45;&gt;node2137 -->
<g id="edge25" class="edge">
<title>node2138&#45;&gt;node2137</title>
<path fill="none" stroke="#343d46" stroke-dasharray="5,2" d="M1140.69,-483.75C1141.57,-474.77 1142.53,-465.03 1143.32,-457.03"/>
<polygon fill="#343d46" stroke="#343d46" points="1137.19,-483.52 1139.69,-493.81 1144.16,-484.2 1137.19,-483.52"/>
</g>
<!-- node2141&#45;&gt;node1925 -->
<g id="edge30" class="edge">
<title>node2141&#45;&gt;node1925</title>
<path fill="none" stroke="#da2d4f" stroke-width="2" d="M1199.57,-333.81C1202.2,-325.7 1205.39,-315.84 1208.33,-306.78"/>
<polygon fill="#da2d4f" stroke="#da2d4f" stroke-width="2" points="1211.73,-307.62 1211.48,-297.03 1205.07,-305.46 1211.73,-307.62"/>
</g>
<!-- node2147 -->
<g id="node24" class="node">
<title>node2147</title>
<polygon fill="#da2d4f" stroke="black" points="1065.5,-297 848.5,-297 848.5,-261 1065.5,-261 1065.5,-297"/>
<text text-anchor="middle" x="957" y="-275.3" font-family="Arial" font-size="14.00" fill="#ffffff">2147 Deopt TransferToInterpreter</text>
</g>
<!-- node2142&#45;&gt;node2147 -->
<g id="edge31" class="edge">
<title>node2142&#45;&gt;node2147</title>
<path fill="none" stroke="#da2d4f" stroke-width="2" d="M1010.05,-333.81C1001.28,-324.92 990.43,-313.91 980.83,-304.17"/>
<polygon fill="#da2d4f" stroke="#da2d4f" stroke-width="2" points="983.3,-301.69 973.79,-297.03 978.32,-306.61 983.3,-301.69"/>
</g>
<!-- node2154&#45;&gt;node1216 -->
<g id="edge33" class="edge">
<title>node2154&#45;&gt;node1216</title>
<path fill="none" stroke="#da2d4f" stroke-width="2" d="M445.67,-1416.86C454.26,-1406.09 465.48,-1392.02 475.05,-1380.02"/>
<polygon fill="#da2d4f" stroke="#da2d4f" stroke-width="2" points="477.86,-1382.11 481.36,-1372.11 472.39,-1377.74 477.86,-1382.11"/>
</g>
<!-- node2156&#45;&gt;node1796 -->
<g id="edge35" class="edge">
<title>node2156&#45;&gt;node1796</title>
<path fill="none" stroke="#da2d4f" stroke-width="2" d="M493.99,-1248.8C493.3,-1237.16 492.39,-1221.55 491.6,-1208.24"/>
<polygon fill="#da2d4f" stroke="#da2d4f" stroke-width="2" points="495.09,-1207.95 491.01,-1198.18 488.1,-1208.36 495.09,-1207.95"/>
</g>
<!-- node2233 -->
<g id="node30" class="node">
<title>node2233</title>
<polygon fill="#f9f9f9" stroke="black" points="989.5,-791 794.5,-791 794.5,-755 989.5,-755 989.5,-791"/>
<text text-anchor="middle" x="892" y="-769.3" font-family="Arial" font-size="14.00" fill="#1a1919">2233 BoxNode$AllocatingBox</text>
</g>
<!-- node2177&#45;&gt;node2233 -->
<g id="edge37" class="edge">
<title>node2177&#45;&gt;node2233</title>
<path fill="none" stroke="#da2d4f" stroke-width="2" d="M753.21,-841.8C780.54,-828.45 818.59,-809.86 847.94,-795.52"/>
<polygon fill="#da2d4f" stroke="#da2d4f" stroke-width="2" points="849.69,-798.56 857.14,-791.03 846.62,-792.27 849.69,-798.56"/>
</g>
<!-- node2206&#45;&gt;node1822 -->
<g id="edge10" class="edge">
<title>node2206&#45;&gt;node1822</title>
<path fill="none" stroke="#3cb4a4" d="M709.78,-97.68C640.75,-82.75 467.37,-45.25 387.49,-27.97"/>
<polygon fill="#3cb4a4" stroke="#3cb4a4" points="387.82,-24.46 377.31,-25.77 386.34,-31.31 387.82,-24.46"/>
<text text-anchor="middle" x="569.5" y="-57.8" font-family="arial" font-size="14.00" fill="#3cb4a4">x</text>
</g>
<!-- node2206&#45;&gt;node1926 -->
<g id="edge18" class="edge">
<title>node2206&#45;&gt;node1926</title>
<path fill="none" stroke="#3cb4a4" d="M768.18,-98.81C841.92,-85.7 1037.43,-50.93 1144.46,-31.9"/>
<polygon fill="#3cb4a4" stroke="#3cb4a4" points="1145.3,-35.3 1154.54,-30.11 1144.08,-28.41 1145.3,-35.3"/>
<text text-anchor="middle" x="1009.5" y="-57.8" font-family="arial" font-size="14.00" fill="#3cb4a4">x</text>
</g>
<!-- node2206&#45;&gt;node1928 -->
<g id="edge20" class="edge">
<title>node2206&#45;&gt;node1928</title>
<path fill="none" stroke="#3cb4a4" d="M734.45,-123.32C731.02,-133.74 725.43,-146.75 717,-156 710.88,-162.72 703.15,-168.44 695.23,-173.2"/>
<polygon fill="#3cb4a4" stroke="#3cb4a4" points="693.34,-170.25 686.28,-178.15 696.73,-176.37 693.34,-170.25"/>
<text text-anchor="middle" x="729.5" y="-144.8" font-family="arial" font-size="14.00" fill="#3cb4a4">x</text>
</g>
<!-- node2206&#45;&gt;node2233 -->
<g id="edge41" class="edge">
<title>node2206&#45;&gt;node2233</title>
<path fill="none" stroke="#3cb4a4" d="M768.24,-121.35C791.44,-135.86 820,-160.02 820,-191 820,-687 820,-687 820,-687 820,-711.99 838.34,-733.41 856.51,-748.49"/>
<polygon fill="#3cb4a4" stroke="#3cb4a4" points="854.75,-751.56 864.78,-754.97 859.06,-746.05 854.75,-751.56"/>
<text text-anchor="middle" x="836.5" y="-435.3" font-family="arial" font-size="14.00" fill="#3cb4a4">value</text>
</g>
<!-- node2230 -->
<g id="node29" class="node">
<title>node2230</title>
<polygon fill="#343d46" stroke="black" points="1388.5,-791 1151.5,-791 1151.5,-755 1388.5,-755 1388.5,-791"/>
<text text-anchor="middle" x="1270" y="-769.3" font-family="Arial" font-size="14.00" fill="#ffffff">2230 VirtualArray java.lang.Object[9]</text>
</g>
<!-- node2234 -->
<g id="node31" class="node">
<title>node2234</title>
<polygon fill="#da2d4f" stroke="black" points="1155.5,-704 1076.5,-704 1076.5,-668 1155.5,-668 1155.5,-704"/>
<text text-anchor="middle" x="1116" y="-682.3" font-family="Arial" font-size="14.00" fill="#ffffff">2234 Alloc</text>
</g>
<!-- node2230&#45;&gt;node2234 -->
<g id="edge43" class="edge">
<title>node2230&#45;&gt;node2234</title>
<path fill="none" stroke="#3cb4a4" d="M1211.72,-754.97C1198.55,-750.04 1184.95,-744.05 1173,-737 1161.01,-729.93 1149.2,-720.17 1139.47,-711.15"/>
<polygon fill="#3cb4a4" stroke="#3cb4a4" points="1141.79,-708.52 1132.15,-704.13 1136.95,-713.58 1141.79,-708.52"/>
<text text-anchor="middle" x="1214.5" y="-725.8" font-family="arial" font-size="14.00" fill="#3cb4a4">virtualObjects</text>
</g>
<!-- node2235 -->
<g id="node32" class="node">
<title>node2235</title>
<polygon fill="#343d46" stroke="black" points="1216.5,-617 1071.5,-617 1071.5,-581 1216.5,-581 1216.5,-617"/>
<text text-anchor="middle" x="1144" y="-595.3" font-family="Arial" font-size="14.00" fill="#ffffff">2235 AllocatedObject</text>
</g>
<!-- node2230&#45;&gt;node2235 -->
<g id="edge46" class="edge">
<title>node2230&#45;&gt;node2235</title>
<path fill="none" stroke="#3cb4a4" d="M1267.09,-754.63C1264.95,-744.67 1261.45,-732.17 1256,-722 1234.94,-682.73 1198.34,-646.3 1172.72,-623.66"/>
<polygon fill="#3cb4a4" stroke="#3cb4a4" points="1175,-621 1165.16,-617.09 1170.41,-626.29 1175,-621"/>
<text text-anchor="middle" x="1282" y="-682.3" font-family="arial" font-size="14.00" fill="#3cb4a4">virtualObject</text>
</g>
<!-- node2233&#45;&gt;node2234 -->
<g id="edge42" class="edge">
<title>node2233&#45;&gt;node2234</title>
<path fill="none" stroke="#da2d4f" stroke-width="2" d="M965.91,-754.94C984.17,-749.91 1003.51,-743.88 1021,-737 1040.61,-729.29 1061.43,-718.63 1078.56,-709.14"/>
<polygon fill="#da2d4f" stroke="#da2d4f" stroke-width="2" points="1080.68,-711.97 1087.67,-704.02 1077.24,-705.87 1080.68,-711.97"/>
</g>
<!-- node2233&#45;&gt;node2234 -->
<g id="edge44" class="edge">
<title>node2233&#45;&gt;node2234</title>
<path fill="none" stroke="#3cb4a4" d="M916.69,-754.93C933.15,-744.2 955.62,-730.77 977,-722 1005.68,-710.24 1039.37,-701.63 1066.4,-695.9"/>
<polygon fill="#3cb4a4" stroke="#3cb4a4" points="1067.31,-699.28 1076.4,-693.84 1065.9,-692.43 1067.31,-699.28"/>
<text text-anchor="middle" x="997" y="-725.8" font-family="arial" font-size="14.00" fill="#3cb4a4">values</text>
</g>
<!-- node2234&#45;&gt;node2137 -->
<g id="edge45" class="edge">
<title>node2234&#45;&gt;node2137</title>
<path fill="none" stroke="#da2d4f" stroke-width="2" d="M1155.64,-672.59C1181.12,-662.24 1212,-644.64 1226,-617 1250.71,-568.24 1251.79,-542.2 1226,-494 1219,-480.92 1207.28,-470.47 1194.91,-462.37"/>
<polygon fill="#da2d4f" stroke="#da2d4f" stroke-width="2" points="1196.64,-459.33 1186.28,-457.14 1193.01,-465.32 1196.64,-459.33"/>
</g>
<!-- node2234&#45;&gt;node2235 -->
<g id="edge47" class="edge">
<title>node2234&#45;&gt;node2235</title>
<path fill="none" stroke="#3cb4a4" d="M1121.67,-667.8C1125.54,-656.05 1130.75,-640.24 1135.16,-626.84"/>
<polygon fill="#3cb4a4" stroke="#3cb4a4" points="1138.54,-627.77 1138.34,-617.18 1131.89,-625.58 1138.54,-627.77"/>
<text text-anchor="middle" x="1154" y="-638.8" font-family="arial" font-size="14.00" fill="#3cb4a4">commit</text>
</g>
<!-- node2235&#45;&gt;node2138 -->
<g id="edge29" class="edge">
<title>node2235&#45;&gt;node2138</title>
<path fill="none" stroke="#3cb4a4" d="M1142.79,-580.8C1141.96,-569.16 1140.86,-553.55 1139.92,-540.24"/>
<polygon fill="#3cb4a4" stroke="#3cb4a4" points="1143.41,-539.9 1139.21,-530.18 1136.43,-540.4 1143.41,-539.9"/>
<text text-anchor="middle" x="1158.5" y="-551.8" font-family="arial" font-size="14.00" fill="#3cb4a4">arg[1]</text>
</g>
<!-- node2248&#45;&gt;node1717 -->
<g id="edge7" class="edge">
<title>node2248&#45;&gt;node1717</title>
<path fill="none" stroke="#3cb4a4" d="M205.16,-841.86C198.78,-832.4 193.49,-820.32 197,-809 197.98,-805.83 199.36,-802.7 200.96,-799.68"/>
<polygon fill="#3cb4a4" stroke="#3cb4a4" points="204,-801.42 206.29,-791.07 198.05,-797.74 204,-801.42"/>
<text text-anchor="middle" x="214" y="-812.8" font-family="arial" font-size="14.00" fill="#3cb4a4">result</text>
</g>
<!-- node2248&#45;&gt;node1717 -->
<g id="edge49" class="edge">
<title>node2248&#45;&gt;node1717</title>
<path fill="none" stroke="#da2d4f" stroke-width="2" d="M226.55,-841.8C228.37,-836.21 230.09,-829.92 231,-824 232.15,-816.51 231.41,-808.43 229.92,-801"/>
<polygon fill="#da2d4f" stroke="#da2d4f" stroke-width="2" points="233.25,-799.91 227.43,-791.06 226.46,-801.61 233.25,-799.91"/>
</g>
<!-- node2249&#45;&gt;node603 -->
<g id="edge58" class="edge">
<title>node2249&#45;&gt;node603</title>
<path fill="none" stroke="#da2d4f" stroke-width="2" d="M78.75,-1671.86C88.02,-1661.09 100.13,-1647.02 110.46,-1635.02"/>
<polygon fill="#da2d4f" stroke="#da2d4f" stroke-width="2" points="113.4,-1636.97 117.27,-1627.11 108.1,-1632.4 113.4,-1636.97"/>
</g>
<!-- inline1250x1251 -->
<g id="node35" class="node">
<title>inline1250x1251</title>
<ellipse fill="#d7ede7" stroke="black" cx="699" cy="-1435" rx="84.53" ry="18"/>
<text text-anchor="middle" x="699" y="-1433.1" font-family="Arial" font-size="8.00" fill="#1a1919">1250 C(instance:DeclarationContext)</text>
</g>
<!-- inline1250x1251&#45;&gt;node1251 -->
<g id="edge6" class="edge">
<title>inline1250x1251&#45;&gt;node1251</title>
<path fill="none" stroke="#3cb4a4" d="M699,-1416.86C699,-1403.61 699,-1385.35 699,-1372.11"/>
<text text-anchor="middle" x="701" y="-1392.6" font-family="arial" font-size="8.00" fill="#3cb4a4">y</text>
</g>
<!-- inline23x1926 -->
<g id="node36" class="node">
<title>inline23x1926</title>
<ellipse fill="#d7ede7" stroke="black" cx="1272" cy="-105" rx="27" ry="18"/>
<text text-anchor="middle" x="1272" y="-103.1" font-family="Arial" font-size="8.00" fill="#1a1919">23 C(1)</text>
</g>
<!-- inline23x1926&#45;&gt;node1926 -->
<g id="edge19" class="edge">
<title>inline23x1926&#45;&gt;node1926</title>
<path fill="none" stroke="#3cb4a4" d="M1261.65,-88.01C1251.88,-72.91 1237.3,-50.38 1227.49,-35.21"/>
<text text-anchor="middle" x="1249" y="-59.6" font-family="arial" font-size="8.00" fill="#3cb4a4">y</text>
</g>
<!-- inline23x1928 -->
<g id="node37" class="node">
<title>inline23x1928</title>
<ellipse fill="#d7ede7" stroke="black" cx="654" cy="-279" rx="27" ry="18"/>
<text text-anchor="middle" x="654" y="-277.1" font-family="Arial" font-size="8.00" fill="#1a1919">23 C(1)</text>
</g>
<!-- inline23x1928&#45;&gt;node1928 -->
<g id="edge21" class="edge">
<title>inline23x1928&#45;&gt;node1928</title>
<path fill="none" stroke="#3cb4a4" d="M654,-260.8C654,-246.05 654,-224.92 654,-210.18"/>
<text text-anchor="middle" x="656" y="-233.6" font-family="arial" font-size="8.00" fill="#3cb4a4">y</text>
</g>
<!-- inline2059x2061 -->
<g id="node38" class="node">
<title>inline2059x2061</title>
<ellipse fill="#d7ede7" stroke="black" cx="780" cy="-1034" rx="79.32" ry="18"/>
<text text-anchor="middle" x="780" y="-1032.1" font-family="Arial" font-size="8.00" fill="#1a1919">2059 C(instance:RubyBasicObject)</text>
</g>
<!-- inline2059x2061&#45;&gt;node2061 -->
<g id="edge24" class="edge">
<title>inline2059x2061&#45;&gt;node2061</title>
<path fill="none" stroke="#3cb4a4" d="M767.75,-1016.21C756.25,-1000.43 739.22,-977.1 728.37,-962.22"/>
<text text-anchor="middle" x="754" y="-988.6" font-family="arial" font-size="8.00" fill="#3cb4a4">y</text>
</g>
<!-- inline2093x2138 -->
<g id="node39" class="node">
<title>inline2093x2138</title>
<ellipse fill="#d7ede7" stroke="black" cx="951" cy="-599" rx="102.84" ry="18"/>
<text text-anchor="middle" x="951" y="-597.1" font-family="Arial" font-size="8.00" fill="#1a1919">2093 C(instance:HotSpotOptimizedCallTarget)</text>
</g>
<!-- inline2093x2138&#45;&gt;node2138 -->
<g id="edge28" class="edge">
<title>inline2093x2138&#45;&gt;node2138</title>
<path fill="none" stroke="#3cb4a4" d="M986.17,-582.01C1018.76,-567.2 1067.08,-545.23 1100.42,-530.08"/>
<text text-anchor="middle" x="1066" y="-553.6" font-family="arial" font-size="8.00" fill="#3cb4a4">arg[0]</text>
</g>
<!-- inline5x2206 -->
<g id="node40" class="node">
<title>inline5x2206</title>
<ellipse fill="#d7ede7" stroke="black" cx="875" cy="-192" rx="27" ry="18"/>
<text text-anchor="middle" x="875" y="-190.1" font-family="Arial" font-size="8.00" fill="#1a1919">5 C(0)</text>
</g>
<!-- inline5x2206&#45;&gt;node2206 -->
<g id="edge39" class="edge">
<title>inline5x2206&#45;&gt;node2206</title>
<path fill="none" stroke="#3cb4a4" d="M865.26,-175.12C857.87,-164.21 846.8,-150.11 834,-141 814.24,-126.94 788.18,-117.86 768.35,-112.49"/>
<text text-anchor="middle" x="867.5" y="-146.6" font-family="arial" font-size="8.00" fill="#3cb4a4">from 1796</text>
</g>
<!-- inline107x1251 -->
<g id="node41" class="node">
<title>inline107x1251</title>
<ellipse fill="#d7ede7" stroke="black" cx="829" cy="-1435" rx="27.46" ry="18"/>
<text text-anchor="middle" x="829" y="-1433.1" font-family="Arial" font-size="8.00" fill="#1a1919">107 T(4)</text>
</g>
<!-- inline107x1251&#45;&gt;node1251 -->
<g id="edge50" class="edge">
<title>inline107x1251&#45;&gt;node1251</title>
<path fill="none" stroke="#3cb4a4" d="M809.54,-1422.17C784.89,-1407.19 742.68,-1381.54 718.17,-1366.65"/>
<text text-anchor="middle" x="769" y="-1392.6" font-family="arial" font-size="8.00" fill="#3cb4a4">x</text>
</g>
<!-- inline140x2061 -->
<g id="node42" class="node">
<title>inline140x2061</title>
<ellipse fill="#d7ede7" stroke="black" cx="655" cy="-1034" rx="27.46" ry="18"/>
<text text-anchor="middle" x="655" y="-1032.1" font-family="Arial" font-size="8.00" fill="#1a1919">140 T(6)</text>
</g>
<!-- inline140x2061&#45;&gt;node2061 -->
<g id="edge51" class="edge">
<title>inline140x2061&#45;&gt;node2061</title>
<path fill="none" stroke="#3cb4a4" d="M666.56,-1017.41C678.28,-1001.59 696.26,-977.33 707.56,-962.08"/>
<text text-anchor="middle" x="692" y="-988.6" font-family="arial" font-size="8.00" fill="#3cb4a4">x</text>
</g>
<!-- inline140x2234 -->
<g id="node43" class="node">
<title>inline140x2234</title>
<ellipse fill="#d7ede7" stroke="black" cx="1106" cy="-773" rx="27.46" ry="18"/>
<text text-anchor="middle" x="1106" y="-771.1" font-family="Arial" font-size="8.00" fill="#1a1919">140 T(6)</text>
</g>
<!-- inline140x2234&#45;&gt;node2234 -->
<g id="edge52" class="edge">
<title>inline140x2234&#45;&gt;node2234</title>
<path fill="none" stroke="#3cb4a4" d="M1108.02,-754.8C1109.76,-740.05 1112.25,-718.92 1113.98,-704.18"/>
<text text-anchor="middle" x="1122.5" y="-727.6" font-family="arial" font-size="8.00" fill="#3cb4a4">values</text>
</g>
<!-- inline158x1217 -->
<g id="node44" class="node">
<title>inline158x1217</title>
<ellipse fill="#d7ede7" stroke="black" cx="501" cy="-1690" rx="27.46" ry="18"/>
<text text-anchor="middle" x="501" y="-1688.1" font-family="Arial" font-size="8.00" fill="#1a1919">158 T(7)</text>
</g>
<!-- inline158x1217&#45;&gt;node1217 -->
<g id="edge53" class="edge">
<title>inline158x1217&#45;&gt;node1217</title>
<path fill="none" stroke="#3cb4a4" d="M501,-1671.86C501,-1658.61 501,-1640.35 501,-1627.11"/>
<text text-anchor="middle" x="510.5" y="-1647.6" font-family="arial" font-size="8.00" fill="#3cb4a4">value</text>
</g>
<!-- inline158x707 -->
<g id="node45" class="node">
<title>inline158x707</title>
<ellipse fill="#d7ede7" stroke="black" cx="231" cy="-1609" rx="27.46" ry="18"/>
<text text-anchor="middle" x="231" y="-1607.1" font-family="Arial" font-size="8.00" fill="#1a1919">158 T(7)</text>
</g>
<!-- inline158x707&#45;&gt;node707 -->
<g id="edge54" class="edge">
<title>inline158x707&#45;&gt;node707</title>
<path fill="none" stroke="#3cb4a4" d="M231,-1590.8C231,-1576.05 231,-1554.92 231,-1540.18"/>
<text text-anchor="middle" x="240.5" y="-1563.6" font-family="arial" font-size="8.00" fill="#3cb4a4">value</text>
</g>
<!-- inline173x603 -->
<g id="node46" class="node">
<title>inline173x603</title>
<ellipse fill="#d7ede7" stroke="black" cx="166" cy="-1690" rx="27.46" ry="18"/>
<text text-anchor="middle" x="166" y="-1688.1" font-family="Arial" font-size="8.00" fill="#1a1919">173 T(8)</text>
</g>
<!-- inline173x603&#45;&gt;node603 -->
<g id="edge55" class="edge">
<title>inline173x603&#45;&gt;node603</title>
<path fill="none" stroke="#3cb4a4" d="M158.79,-1672.25C153.06,-1658.93 145.08,-1640.38 139.32,-1627"/>
<text text-anchor="middle" x="159.5" y="-1647.6" font-family="arial" font-size="8.00" fill="#3cb4a4">value</text>
</g>
<!-- inline2x2249 -->
<g id="node47" class="node">
<title>inline2x2249</title>
<ellipse fill="#d7ede7" stroke="black" cx="101" cy="-1771" rx="27" ry="18"/>
<text text-anchor="middle" x="101" y="-1769.1" font-family="Arial" font-size="8.00" fill="#1a1919">2 P(1)</text>
</g>
<!-- inline2x2249&#45;&gt;node2249 -->
<g id="edge56" class="edge">
<title>inline2x2249&#45;&gt;node2249</title>
<path fill="none" stroke="#3cb4a4" d="M93.33,-1753.63C87.11,-1740.34 78.36,-1721.67 72.04,-1708.17"/>
<text text-anchor="middle" x="92.5" y="-1728.6" font-family="arial" font-size="8.00" fill="#3cb4a4">array</text>
</g>
</g>
</svg>
