<?xml version="1.0" encoding="UTF-8" standalone="no"?>
<!DOCTYPE svg PUBLIC "-//W3C//DTD SVG 1.1//EN"
 "http://www.w3.org/Graphics/SVG/1.1/DTD/svg11.dtd">
<!-- Generated by graphviz version 2.44.1 (20200629.0846)
 -->
<!-- Title: G Pages: 1 -->
<svg width="1049pt" height="635pt"
 viewBox="0.00 0.00 1048.50 635.00" xmlns="http://www.w3.org/2000/svg" xmlns:xlink="http://www.w3.org/1999/xlink">
<g id="graph0" class="graph" transform="scale(1 1) rotate(0) translate(4 631)">
<title>G</title>
<!-- node0 -->
<g id="node1" class="node">
<title>node0</title>
<polygon fill="#e98693" stroke="black" points="56,-627 0,-627 0,-591 56,-591 56,-627"/>
<text text-anchor="middle" x="28" y="-605.3" font-family="Arial" font-size="14.00" fill="#1a1919">0 Start</text>
</g>
<!-- node1175 -->
<g id="node11" class="node">
<title>node1175</title>
<polygon fill="#da2d4f" stroke="black" points="120,-546 8,-546 8,-510 120,-510 120,-546"/>
<text text-anchor="middle" x="64" y="-524.3" font-family="Arial" font-size="14.00" fill="#ffffff">1175 Load T(...)</text>
</g>
<!-- node0&#45;&gt;node1175 -->
<g id="edge18" class="edge">
<title>node0&#45;&gt;node1175</title>
<path fill="none" stroke="#da2d4f" stroke-width="2" d="M35.81,-590.86C40.53,-580.51 46.64,-567.1 51.96,-555.41"/>
<polygon fill="#da2d4f" stroke="#da2d4f" stroke-width="2" points="55.24,-556.66 56.2,-546.11 48.87,-553.76 55.24,-556.66"/>
</g>
<!-- node545 -->
<g id="node2" class="node">
<title>node545</title>
<polygon fill="#f9f9f9" stroke="black" points="155,-465 73,-465 73,-429 155,-429 155,-465"/>
<text text-anchor="middle" x="114" y="-443.3" font-family="Arial" font-size="14.00" fill="#1a1919">545 Unbox</text>
</g>
<!-- node700 -->
<g id="node3" class="node">
<title>node700</title>
<polygon fill="#f9f9f9" stroke="black" points="233,-384 151,-384 151,-348 233,-348 233,-384"/>
<text text-anchor="middle" x="192" y="-362.3" font-family="Arial" font-size="14.00" fill="#1a1919">700 Unbox</text>
</g>
<!-- node545&#45;&gt;node700 -->
<g id="edge1" class="edge">
<title>node545&#45;&gt;node700</title>
<path fill="none" stroke="#da2d4f" stroke-width="2" d="M130.92,-428.86C141.76,-417.88 155.98,-403.48 167.98,-391.33"/>
<polygon fill="#da2d4f" stroke="#da2d4f" stroke-width="2" points="170.57,-393.68 175.11,-384.11 165.59,-388.77 170.57,-393.68"/>
</g>
<!-- node1173 -->
<g id="node9" class="node">
<title>node1173</title>
<polygon fill="#da2d4f" stroke="black" points="506,-210 428,-210 428,-174 506,-174 506,-210"/>
<text text-anchor="middle" x="467" y="-188.3" font-family="Arial" font-size="14.00" fill="#ffffff">1173 Alloc</text>
</g>
<!-- node545&#45;&gt;node1173 -->
<g id="edge9" class="edge">
<title>node545&#45;&gt;node1173</title>
<path fill="none" stroke="#3cb4a4" d="M113.04,-428.86C112.19,-403.26 112.82,-353.86 127,-315 144.4,-267.31 154.85,-249.14 201,-228 238.53,-210.81 351.63,-200.64 417.65,-196.02"/>
<polygon fill="#3cb4a4" stroke="#3cb4a4" points="418.08,-199.49 427.82,-195.32 417.6,-192.51 418.08,-199.49"/>
<text text-anchor="middle" x="147" y="-318.8" font-family="arial" font-size="14.00" fill="#3cb4a4">values</text>
</g>
<!-- node1156 -->
<g id="node6" class="node">
<title>node1156</title>
<polygon fill="#ffa500" stroke="black" points="478.5,-297 227.5,-297 227.5,-261 478.5,-261 478.5,-297"/>
<text text-anchor="middle" x="353" y="-275.3" font-family="Arial" font-size="14.00" fill="#1a1919">1156 Guard, else TransferToInterpreter</text>
</g>
<!-- node700&#45;&gt;node1156 -->
<g id="edge2" class="edge">
<title>node700&#45;&gt;node1156</title>
<path fill="none" stroke="#da2d4f" stroke-width="2" d="M224.58,-347.8C249.76,-334.51 284.77,-316.02 311.88,-301.71"/>
<polygon fill="#da2d4f" stroke="#da2d4f" stroke-width="2" points="313.53,-304.79 320.74,-297.03 310.27,-298.6 313.53,-304.79"/>
</g>
<!-- node700&#45;&gt;node1173 -->
<g id="edge10" class="edge">
<title>node700&#45;&gt;node1173</title>
<path fill="none" stroke="#3cb4a4" d="M182.98,-347.85C172.57,-325.4 159.24,-285.97 179,-261 208.23,-224.06 343.36,-205.15 417.67,-197.39"/>
<polygon fill="#3cb4a4" stroke="#3cb4a4" points="418.14,-200.87 427.74,-196.37 417.44,-193.9 418.14,-200.87"/>
<text text-anchor="middle" x="199" y="-275.3" font-family="arial" font-size="14.00" fill="#3cb4a4">values</text>
</g>
<!-- node774 -->
<g id="node4" class="node">
<title>node774</title>
<polygon fill="#3cb4a4" stroke="black" points="353,-384 282.45,-366 353,-348 423.55,-366 353,-384"/>
<text text-anchor="middle" x="353" y="-362.3" font-family="Arial" font-size="14.00" fill="#1a1919">774 IsNull</text>
</g>
<!-- node774&#45;&gt;node1156 -->
<g id="edge4" class="edge">
<title>node774&#45;&gt;node1156</title>
<path fill="none" stroke="#3cb4a4" d="M353,-347.8C353,-336.16 353,-320.55 353,-307.24"/>
<polygon fill="#3cb4a4" stroke="#3cb4a4" points="356.5,-307.18 353,-297.18 349.5,-307.18 356.5,-307.18"/>
<text text-anchor="middle" x="357" y="-318.8" font-family="arial" font-size="14.00" fill="#3cb4a4">?</text>
</g>
<!-- node1149 -->
<g id="node5" class="node">
<title>node1149</title>
<polygon fill="#e98693" stroke="black" points="528,-36 438,-36 438,0 528,0 528,-36"/>
<text text-anchor="middle" x="483" y="-14.3" font-family="Arial" font-size="14.00" fill="#1a1919">1149 Return</text>
</g>
<!-- node1156&#45;&gt;node1173 -->
<g id="edge5" class="edge">
<title>node1156&#45;&gt;node1173</title>
<path fill="none" stroke="#da2d4f" stroke-width="2" d="M376.07,-260.8C393.3,-247.95 417.03,-230.26 435.93,-216.17"/>
<polygon fill="#da2d4f" stroke="#da2d4f" stroke-width="2" points="438.04,-218.96 443.96,-210.18 433.86,-213.35 438.04,-218.96"/>
</g>
<!-- node1170 -->
<g id="node7" class="node">
<title>node1170</title>
<polygon fill="#343d46" stroke="black" points="649.5,-297 496.5,-297 496.5,-261 649.5,-261 649.5,-297"/>
<text text-anchor="middle" x="573" y="-275.3" font-family="Arial" font-size="14.00" fill="#ffffff">1170 VirtualArray int[2]</text>
</g>
<!-- node1170&#45;&gt;node1173 -->
<g id="edge7" class="edge">
<title>node1170&#45;&gt;node1173</title>
<path fill="none" stroke="#3cb4a4" d="M496.45,-265.06C485.34,-259.93 475.23,-252.83 468,-243 463.28,-236.58 461.81,-228.34 461.88,-220.41"/>
<polygon fill="#3cb4a4" stroke="#3cb4a4" points="465.37,-220.58 462.69,-210.33 458.4,-220.02 465.37,-220.58"/>
<text text-anchor="middle" x="509.5" y="-231.8" font-family="arial" font-size="14.00" fill="#3cb4a4">virtualObjects</text>
</g>
<!-- node1170&#45;&gt;node1173 -->
<g id="edge8" class="edge">
<title>node1170&#45;&gt;node1173</title>
<path fill="none" stroke="#3cb4a4" d="M568.96,-260.82C565.68,-250.18 560.07,-236.9 551,-228 541.2,-218.39 528.38,-211.28 515.72,-206.06"/>
<polygon fill="#3cb4a4" stroke="#3cb4a4" points="516.71,-202.7 506.12,-202.44 514.24,-209.25 516.71,-202.7"/>
<text text-anchor="middle" x="581" y="-231.8" font-family="arial" font-size="14.00" fill="#3cb4a4">values</text>
</g>
<!-- node1172 -->
<g id="node8" class="node">
<title>node1172</title>
<polygon fill="#f9f9f9" stroke="black" points="1040.5,-297 667.5,-297 667.5,-261 1040.5,-261 1040.5,-297"/>
<text text-anchor="middle" x="854" y="-275.3" font-family="Arial" font-size="14.00" fill="#1a1919">1172 VirtualInstance(6) org.truffleruby.core.array.RubyArray</text>
</g>
<!-- node1172&#45;&gt;node1173 -->
<g id="edge6" class="edge">
<title>node1172&#45;&gt;node1173</title>
<path fill="none" stroke="#3cb4a4" d="M776.15,-260.9C698.53,-243.85 581.68,-218.19 516.12,-203.79"/>
<polygon fill="#3cb4a4" stroke="#3cb4a4" points="516.57,-200.3 506.05,-201.58 515.06,-207.14 516.57,-200.3"/>
<text text-anchor="middle" x="724.5" y="-231.8" font-family="arial" font-size="14.00" fill="#3cb4a4">virtualObjects</text>
</g>
<!-- node1174 -->
<g id="node10" class="node">
<title>node1174</title>
<polygon fill="#343d46" stroke="black" points="639,-123 495,-123 495,-87 639,-87 639,-123"/>
<text text-anchor="middle" x="567" y="-101.3" font-family="Arial" font-size="14.00" fill="#ffffff">1174 AllocatedObject</text>
</g>
<!-- node1172&#45;&gt;node1174 -->
<g id="edge12" class="edge">
<title>node1172&#45;&gt;node1174</title>
<path fill="none" stroke="#3cb4a4" d="M825.43,-260.88C773.21,-229.58 662.4,-163.17 604.31,-128.36"/>
<polygon fill="#3cb4a4" stroke="#3cb4a4" points="605.83,-125.19 595.45,-123.05 602.23,-131.19 605.83,-125.19"/>
<text text-anchor="middle" x="777" y="-188.3" font-family="arial" font-size="14.00" fill="#3cb4a4">virtualObject</text>
</g>
<!-- node1173&#45;&gt;node1149 -->
<g id="edge11" class="edge">
<title>node1173&#45;&gt;node1149</title>
<path fill="none" stroke="#da2d4f" stroke-width="2" d="M468.59,-173.88C471.37,-144 477.13,-82.11 480.46,-46.27"/>
<polygon fill="#da2d4f" stroke="#da2d4f" stroke-width="2" points="483.97,-46.33 481.41,-36.05 477,-45.68 483.97,-46.33"/>
</g>
<!-- node1173&#45;&gt;node1174 -->
<g id="edge13" class="edge">
<title>node1173&#45;&gt;node1174</title>
<path fill="none" stroke="#3cb4a4" d="M487.24,-173.8C502.15,-161.13 522.61,-143.73 539.07,-129.74"/>
<polygon fill="#3cb4a4" stroke="#3cb4a4" points="541.44,-132.32 546.79,-123.18 536.91,-126.99 541.44,-132.32"/>
<text text-anchor="middle" x="545" y="-144.8" font-family="arial" font-size="14.00" fill="#3cb4a4">commit</text>
</g>
<!-- node1174&#45;&gt;node1149 -->
<g id="edge3" class="edge">
<title>node1174&#45;&gt;node1149</title>
<path fill="none" stroke="#3cb4a4" d="M550,-86.8C537.7,-74.36 520.91,-57.36 507.22,-43.5"/>
<polygon fill="#3cb4a4" stroke="#3cb4a4" points="509.49,-40.83 499.97,-36.18 504.51,-45.75 509.49,-40.83"/>
<text text-anchor="middle" x="547" y="-57.8" font-family="arial" font-size="14.00" fill="#3cb4a4">result</text>
</g>
<!-- node1175&#45;&gt;node545 -->
<g id="edge19" class="edge">
<title>node1175&#45;&gt;node545</title>
<path fill="none" stroke="#da2d4f" stroke-width="2" d="M74.85,-509.86C81.53,-499.3 90.23,-485.56 97.72,-473.71"/>
<polygon fill="#da2d4f" stroke="#da2d4f" stroke-width="2" points="100.78,-475.43 103.17,-465.11 94.87,-471.69 100.78,-475.43"/>
</g>
<!-- inline143x774 -->
<g id="node12" class="node">
<title>inline143x774</title>
<ellipse fill="#d7ede7" stroke="black" cx="353" cy="-447" rx="27.46" ry="18"/>
<text text-anchor="middle" x="353" y="-445.1" font-family="Arial" font-size="8.00" fill="#1a1919">143 T(6)</text>
</g>
<!-- inline143x774&#45;&gt;node774 -->
<g id="edge14" class="edge">
<title>inline143x774&#45;&gt;node774</title>
<path fill="none" stroke="#3cb4a4" d="M353,-428.86C353,-415.61 353,-397.35 353,-384.11"/>
<text text-anchor="middle" x="362.5" y="-404.6" font-family="arial" font-size="8.00" fill="#3cb4a4">value</text>
</g>
<!-- inline158x545 -->
<g id="node13" class="node">
<title>inline158x545</title>
<ellipse fill="#d7ede7" stroke="black" cx="165" cy="-528" rx="27.46" ry="18"/>
<text text-anchor="middle" x="165" y="-526.1" font-family="Arial" font-size="8.00" fill="#1a1919">158 T(7)</text>
</g>
<!-- inline158x545&#45;&gt;node545 -->
<g id="edge15" class="edge">
<title>inline158x545&#45;&gt;node545</title>
<path fill="none" stroke="#3cb4a4" d="M154.68,-511.01C146.06,-497.67 133.81,-478.69 125.01,-465.06"/>
<text text-anchor="middle" x="150.5" y="-485.6" font-family="arial" font-size="8.00" fill="#3cb4a4">value</text>
</g>
<!-- inline176x700 -->
<g id="node14" class="node">
<title>inline176x700</title>
<ellipse fill="#d7ede7" stroke="black" cx="200" cy="-447" rx="27.46" ry="18"/>
<text text-anchor="middle" x="200" y="-445.1" font-family="Arial" font-size="8.00" fill="#1a1919">176 T(8)</text>
</g>
<!-- inline176x700&#45;&gt;node700 -->
<g id="edge16" class="edge">
<title>inline176x700&#45;&gt;node700</title>
<path fill="none" stroke="#3cb4a4" d="M198.26,-428.86C196.92,-415.61 195.07,-397.35 193.73,-384.11"/>
<text text-anchor="middle" x="205.5" y="-404.6" font-family="arial" font-size="8.00" fill="#3cb4a4">value</text>
</g>
<!-- inline2x1175 -->
<g id="node15" class="node">
<title>inline2x1175</title>
<ellipse fill="#d7ede7" stroke="black" cx="101" cy="-609" rx="27" ry="18"/>
<text text-anchor="middle" x="101" y="-607.1" font-family="Arial" font-size="8.00" fill="#1a1919">2 P(1)</text>
</g>
<!-- inline2x1175&#45;&gt;node1175 -->
<g id="edge17" class="edge">
<title>inline2x1175&#45;&gt;node1175</title>
<path fill="none" stroke="#3cb4a4" d="M93.33,-591.63C87.11,-578.34 78.36,-559.67 72.04,-546.17"/>
<text text-anchor="middle" x="92.5" y="-566.6" font-family="arial" font-size="8.00" fill="#3cb4a4">array</text>
</g>
</g>
</svg>
