<?xml version="1.0" encoding="UTF-8" standalone="no"?>
<!DOCTYPE svg PUBLIC "-//W3C//DTD SVG 1.1//EN"
 "http://www.w3.org/Graphics/SVG/1.1/DTD/svg11.dtd">
<!-- Generated by graphviz version 2.44.1 (20200629.0846)
 -->
<!-- Title: G Pages: 1 -->
<svg width="672pt" height="1014pt"
 viewBox="0.00 0.00 671.50 1014.00" xmlns="http://www.w3.org/2000/svg" xmlns:xlink="http://www.w3.org/1999/xlink">
<g id="graph0" class="graph" transform="scale(1 1) rotate(0) translate(4 1010)">
<title>G</title>
<!-- node0 -->
<g id="node1" class="node">
<title>node0</title>
<polygon fill="#e98693" stroke="black" points="199,-1006 143,-1006 143,-970 199,-970 199,-1006"/>
<text text-anchor="middle" x="171" y="-984.3" font-family="Arial" font-size="14.00" fill="#1a1919">0 Start</text>
</g>
<!-- node2587 -->
<g id="node18" class="node">
<title>node2587</title>
<polygon fill="#da2d4f" stroke="black" points="263.5,-925 150.5,-925 150.5,-889 263.5,-889 263.5,-925"/>
<text text-anchor="middle" x="207" y="-903.3" font-family="Arial" font-size="14.00" fill="#ffffff">2587 Load T(...)</text>
</g>
<!-- node0&#45;&gt;node2587 -->
<g id="edge30" class="edge">
<title>node0&#45;&gt;node2587</title>
<path fill="none" stroke="#da2d4f" stroke-width="2" d="M178.81,-969.86C183.53,-959.51 189.64,-946.1 194.96,-934.41"/>
<polygon fill="#da2d4f" stroke="#da2d4f" stroke-width="2" points="198.24,-935.66 199.2,-925.11 191.87,-932.76 198.24,-935.66"/>
</g>
<!-- node538 -->
<g id="node2" class="node">
<title>node538</title>
<polygon fill="#f9f9f9" stroke="black" points="317,-844 235,-844 235,-808 317,-808 317,-844"/>
<text text-anchor="middle" x="276" y="-822.3" font-family="Arial" font-size="14.00" fill="#1a1919">538 Unbox</text>
</g>
<!-- node697 -->
<g id="node3" class="node">
<title>node697</title>
<polygon fill="#f9f9f9" stroke="black" points="160,-757 78,-757 78,-721 160,-721 160,-757"/>
<text text-anchor="middle" x="119" y="-735.3" font-family="Arial" font-size="14.00" fill="#1a1919">697 Unbox</text>
</g>
<!-- node538&#45;&gt;node697 -->
<g id="edge1" class="edge">
<title>node538&#45;&gt;node697</title>
<path fill="none" stroke="#da2d4f" stroke-width="2" d="M244.23,-807.8C219.78,-794.56 185.83,-776.18 159.45,-761.9"/>
<polygon fill="#da2d4f" stroke="#da2d4f" stroke-width="2" points="160.92,-758.71 150.46,-757.03 157.58,-764.87 160.92,-758.71"/>
</g>
<!-- node1080 -->
<g id="node6" class="node">
<title>node1080</title>
<polygon fill="#3cb4a4" stroke="black" points="398,-757 336.33,-739 398,-721 459.67,-739 398,-757"/>
<text text-anchor="middle" x="398" y="-735.3" font-family="Arial" font-size="14.00" fill="#1a1919">1080 ==</text>
</g>
<!-- node538&#45;&gt;node1080 -->
<g id="edge24" class="edge">
<title>node538&#45;&gt;node1080</title>
<path fill="none" stroke="#3cb4a4" d="M300.69,-807.8C321.4,-793.37 350.9,-772.82 371.98,-758.13"/>
<polygon fill="#3cb4a4" stroke="#3cb4a4" points="374.24,-760.82 380.45,-752.23 370.24,-755.07 374.24,-760.82"/>
<text text-anchor="middle" x="347.5" y="-778.8" font-family="arial" font-size="14.00" fill="#3cb4a4">x</text>
</g>
<!-- node852 -->
<g id="node4" class="node">
<title>node852</title>
<polygon fill="#f9f9f9" stroke="black" points="82,-676 0,-676 0,-640 82,-640 82,-676"/>
<text text-anchor="middle" x="41" y="-654.3" font-family="Arial" font-size="14.00" fill="#1a1919">852 Unbox</text>
</g>
<!-- node697&#45;&gt;node852 -->
<g id="edge2" class="edge">
<title>node697&#45;&gt;node852</title>
<path fill="none" stroke="#da2d4f" stroke-width="2" d="M102.08,-720.86C91.24,-709.88 77.02,-695.48 65.02,-683.33"/>
<polygon fill="#da2d4f" stroke="#da2d4f" stroke-width="2" points="67.41,-680.77 57.89,-676.11 62.43,-685.68 67.41,-680.77"/>
</g>
<!-- node2578 -->
<g id="node16" class="node">
<title>node2578</title>
<polygon fill="#f9f9f9" stroke="black" points="152,-210 94,-210 94,-174 152,-174 152,-210"/>
<text text-anchor="middle" x="123" y="-188.3" font-family="Arial" font-size="14.00" fill="#1a1919">2578 ϕ</text>
</g>
<!-- node697&#45;&gt;node2578 -->
<g id="edge20" class="edge">
<title>node697&#45;&gt;node2578</title>
<path fill="none" stroke="#3cb4a4" d="M117.62,-720.75C116.47,-704.76 115,-680.29 115,-659 115,-659 115,-659 115,-264 115,-249.56 116.65,-233.57 118.46,-220.43"/>
<polygon fill="#3cb4a4" stroke="#3cb4a4" points="121.98,-220.56 119.98,-210.16 115.05,-219.54 121.98,-220.56"/>
<text text-anchor="middle" x="146" y="-450.8" font-family="arial" font-size="14.00" fill="#3cb4a4">from 2282</text>
</g>
<!-- node1079 -->
<g id="node5" class="node">
<title>node1079</title>
<polygon fill="#e98693" stroke="black" points="459,-603 401,-603 401,-567 459,-567 459,-603"/>
<text text-anchor="middle" x="430" y="-581.3" font-family="Arial" font-size="14.00" fill="#1a1919">1079 If</text>
</g>
<!-- node852&#45;&gt;node1079 -->
<g id="edge3" class="edge">
<title>node852&#45;&gt;node1079</title>
<path fill="none" stroke="#da2d4f" stroke-width="2" d="M82.04,-654.26C146.56,-649.19 275.44,-635.96 391.11,-602.82"/>
<polygon fill="#da2d4f" stroke="#da2d4f" stroke-width="2" points="392.22,-606.14 400.84,-599.98 390.26,-599.42 392.22,-606.14"/>
</g>
<!-- node852&#45;&gt;node2578 -->
<g id="edge21" class="edge">
<title>node852&#45;&gt;node2578</title>
<path fill="none" stroke="#3cb4a4" d="M34.86,-639.74C30.35,-625.51 25,-604.7 25,-586 25,-586 25,-586 25,-264 25,-233.27 56.99,-214.48 84.41,-204.02"/>
<polygon fill="#3cb4a4" stroke="#3cb4a4" points="85.61,-207.3 93.86,-200.66 83.27,-200.71 85.61,-207.3"/>
<text text-anchor="middle" x="56" y="-407.3" font-family="arial" font-size="14.00" fill="#3cb4a4">from 2284</text>
</g>
<!-- node1081 -->
<g id="node7" class="node">
<title>node1081</title>
<polygon fill="#e98693" stroke="black" points="563.5,-516 478.5,-516 478.5,-480 563.5,-480 563.5,-516"/>
<text text-anchor="middle" x="521" y="-494.3" font-family="Arial" font-size="14.00" fill="#1a1919">1081 Begin</text>
</g>
<!-- node1079&#45;&gt;node1081 -->
<g id="edge5" class="edge">
<title>node1079&#45;&gt;node1081</title>
<path fill="none" stroke="#da2d4f" stroke-width="2" d="M448.42,-566.8C461.86,-554.24 480.26,-537.05 495.18,-523.12"/>
<polygon fill="#da2d4f" stroke="#da2d4f" stroke-width="2" points="497.69,-525.56 502.61,-516.18 492.92,-520.44 497.69,-525.56"/>
<text text-anchor="middle" x="484.5" y="-537.8" font-family="arial" font-size="14.00" fill="#da2d4f">T</text>
</g>
<!-- node1082 -->
<g id="node8" class="node">
<title>node1082</title>
<polygon fill="#e98693" stroke="black" points="442.5,-516 357.5,-516 357.5,-480 442.5,-480 442.5,-516"/>
<text text-anchor="middle" x="400" y="-494.3" font-family="Arial" font-size="14.00" fill="#1a1919">1082 Begin</text>
</g>
<!-- node1079&#45;&gt;node1082 -->
<g id="edge6" class="edge">
<title>node1079&#45;&gt;node1082</title>
<path fill="none" stroke="#da2d4f" stroke-width="2" d="M418.01,-566.83C414.65,-561.34 411.29,-555.1 409,-549 406.3,-541.82 404.4,-533.74 403.06,-526.21"/>
<polygon fill="#da2d4f" stroke="#da2d4f" stroke-width="2" points="406.48,-525.44 401.52,-516.07 399.56,-526.49 406.48,-525.44"/>
<text text-anchor="middle" x="413.5" y="-537.8" font-family="arial" font-size="14.00" fill="#da2d4f">F</text>
</g>
<!-- node1080&#45;&gt;node1079 -->
<g id="edge4" class="edge">
<title>node1080&#45;&gt;node1079</title>
<path fill="none" stroke="#3cb4a4" d="M401.42,-721.73C406.9,-695.72 417.68,-644.5 424.33,-612.96"/>
<polygon fill="#3cb4a4" stroke="#3cb4a4" points="427.77,-613.58 426.4,-603.08 420.92,-612.14 427.77,-613.58"/>
<text text-anchor="middle" x="422" y="-654.3" font-family="arial" font-size="14.00" fill="#3cb4a4">?</text>
</g>
<!-- node2531 -->
<g id="node15" class="node">
<title>node2531</title>
<polygon fill="#ffa500" stroke="black" points="663.5,-429 412.5,-429 412.5,-393 663.5,-393 663.5,-429"/>
<text text-anchor="middle" x="538" y="-407.3" font-family="Arial" font-size="14.00" fill="#1a1919">2531 Guard, else TransferToInterpreter</text>
</g>
<!-- node1081&#45;&gt;node2531 -->
<g id="edge8" class="edge">
<title>node1081&#45;&gt;node2531</title>
<path fill="none" stroke="#da2d4f" stroke-width="2" d="M524.44,-479.8C526.77,-468.16 529.89,-452.55 532.55,-439.24"/>
<polygon fill="#da2d4f" stroke="#da2d4f" stroke-width="2" points="536.04,-439.67 534.56,-429.18 529.17,-438.29 536.04,-439.67"/>
</g>
<!-- node2527 -->
<g id="node14" class="node">
<title>node2527</title>
<polygon fill="#ffa500" stroke="black" points="394.5,-429 143.5,-429 143.5,-393 394.5,-393 394.5,-429"/>
<text text-anchor="middle" x="269" y="-407.3" font-family="Arial" font-size="14.00" fill="#1a1919">2527 Guard, else TransferToInterpreter</text>
</g>
<!-- node1082&#45;&gt;node2527 -->
<g id="edge9" class="edge">
<title>node1082&#45;&gt;node2527</title>
<path fill="none" stroke="#da2d4f" stroke-width="2" d="M386.74,-479.98C377.81,-469.41 365.29,-456.14 352,-447 344.52,-441.86 336.17,-437.25 327.73,-433.2"/>
<polygon fill="#da2d4f" stroke="#da2d4f" stroke-width="2" points="329.12,-429.98 318.57,-429.02 326.21,-436.35 329.12,-429.98"/>
</g>
<!-- node1307 -->
<g id="node9" class="node">
<title>node1307</title>
<polygon fill="#3cb4a4" stroke="black" points="275,-516 213.33,-498 275,-480 336.67,-498 275,-516"/>
<text text-anchor="middle" x="275" y="-494.3" font-family="Arial" font-size="14.00" fill="#1a1919">1307 ==</text>
</g>
<!-- node1307&#45;&gt;node2527 -->
<g id="edge15" class="edge">
<title>node1307&#45;&gt;node2527</title>
<path fill="none" stroke="#3cb4a4" d="M273.81,-480.21C272.99,-468.52 271.87,-452.69 270.92,-439.22"/>
<polygon fill="#3cb4a4" stroke="#3cb4a4" points="274.4,-438.78 270.2,-429.05 267.42,-439.27 274.4,-438.78"/>
<text text-anchor="middle" x="276" y="-450.8" font-family="arial" font-size="14.00" fill="#3cb4a4">?</text>
</g>
<!-- node1307&#45;&gt;node2531 -->
<g id="edge17" class="edge">
<title>node1307&#45;&gt;node2531</title>
<path fill="none" stroke="#3cb4a4" d="M302.65,-488.06C343.39,-474.9 420.66,-449.92 475.54,-432.19"/>
<polygon fill="#3cb4a4" stroke="#3cb4a4" points="476.73,-435.48 485.17,-429.08 474.58,-428.82 476.73,-435.48"/>
<text text-anchor="middle" x="426" y="-450.8" font-family="arial" font-size="14.00" fill="#3cb4a4">?</text>
</g>
<!-- node2280 -->
<g id="node10" class="node">
<title>node2280</title>
<polygon fill="#e98693" stroke="black" points="239.5,-283 150.5,-283 150.5,-247 239.5,-247 239.5,-283"/>
<text text-anchor="middle" x="195" y="-261.3" font-family="Arial" font-size="14.00" fill="#1a1919">2280 Merge</text>
</g>
<!-- node2280&#45;&gt;node2578 -->
<g id="edge19" class="edge">
<title>node2280&#45;&gt;node2578</title>
<path fill="none" stroke="#343d46" stroke-dasharray="5,2" d="M170.31,-239.65C160.42,-229.9 149.26,-218.9 140.27,-210.03"/>
<polygon fill="#343d46" stroke="#343d46" points="167.99,-242.28 177.57,-246.81 172.91,-237.3 167.99,-242.28"/>
</g>
<!-- node2586 -->
<g id="node17" class="node">
<title>node2586</title>
<polygon fill="#f9f9f9" stroke="black" points="253.5,-123 58.5,-123 58.5,-87 253.5,-87 253.5,-123"/>
<text text-anchor="middle" x="156" y="-101.3" font-family="Arial" font-size="14.00" fill="#1a1919">2586 BoxNode$AllocatingBox</text>
</g>
<!-- node2280&#45;&gt;node2586 -->
<g id="edge13" class="edge">
<title>node2280&#45;&gt;node2586</title>
<path fill="none" stroke="#da2d4f" stroke-width="2" d="M192.48,-246.65C188.77,-222.61 181.05,-177.95 170,-141 169.17,-138.24 168.22,-135.39 167.2,-132.57"/>
<polygon fill="#da2d4f" stroke="#da2d4f" stroke-width="2" points="170.46,-131.3 163.61,-123.23 163.93,-133.82 170.46,-131.3"/>
</g>
<!-- node2282 -->
<g id="node11" class="node">
<title>node2282</title>
<polygon fill="#e98693" stroke="black" points="247,-356 173,-356 173,-320 247,-320 247,-356"/>
<text text-anchor="middle" x="210" y="-334.3" font-family="Arial" font-size="14.00" fill="#1a1919">2282 End</text>
</g>
<!-- node2282&#45;&gt;node2280 -->
<g id="edge11" class="edge">
<title>node2282&#45;&gt;node2280</title>
<path fill="none" stroke="#da2d4f" stroke-width="2" d="M206.37,-319.81C204.67,-311.79 202.62,-302.05 200.72,-293.07"/>
<polygon fill="#da2d4f" stroke="#da2d4f" stroke-width="2" points="204.09,-292.09 198.6,-283.03 197.24,-293.54 204.09,-292.09"/>
</g>
<!-- node2284 -->
<g id="node12" class="node">
<title>node2284</title>
<polygon fill="#e98693" stroke="black" points="342,-356 268,-356 268,-320 342,-320 342,-356"/>
<text text-anchor="middle" x="305" y="-334.3" font-family="Arial" font-size="14.00" fill="#1a1919">2284 End</text>
</g>
<!-- node2284&#45;&gt;node2280 -->
<g id="edge12" class="edge">
<title>node2284&#45;&gt;node2280</title>
<path fill="none" stroke="#da2d4f" stroke-width="2" d="M278.65,-319.99C264.07,-310.58 245.75,-298.76 229.98,-288.57"/>
<polygon fill="#da2d4f" stroke="#da2d4f" stroke-width="2" points="231.81,-285.6 221.51,-283.11 228.02,-291.48 231.81,-285.6"/>
</g>
<!-- node2369 -->
<g id="node13" class="node">
<title>node2369</title>
<polygon fill="#e98693" stroke="black" points="201.5,-36 110.5,-36 110.5,0 201.5,0 201.5,-36"/>
<text text-anchor="middle" x="156" y="-14.3" font-family="Arial" font-size="14.00" fill="#1a1919">2369 Return</text>
</g>
<!-- node2527&#45;&gt;node2282 -->
<g id="edge16" class="edge">
<title>node2527&#45;&gt;node2282</title>
<path fill="none" stroke="#da2d4f" stroke-width="2" d="M254.72,-392.81C247.47,-384.09 238.54,-373.34 230.56,-363.75"/>
<polygon fill="#da2d4f" stroke="#da2d4f" stroke-width="2" points="233.23,-361.48 224.15,-356.03 227.85,-365.96 233.23,-361.48"/>
</g>
<!-- node2531&#45;&gt;node2284 -->
<g id="edge18" class="edge">
<title>node2531&#45;&gt;node2284</title>
<path fill="none" stroke="#da2d4f" stroke-width="2" d="M482.19,-392.99C442.4,-380.87 389.49,-364.75 351.88,-353.29"/>
<polygon fill="#da2d4f" stroke="#da2d4f" stroke-width="2" points="352.77,-349.9 342.18,-350.33 350.73,-356.59 352.77,-349.9"/>
</g>
<!-- node2578&#45;&gt;node2586 -->
<g id="edge22" class="edge">
<title>node2578&#45;&gt;node2586</title>
<path fill="none" stroke="#3cb4a4" d="M126.86,-173.56C129.27,-163.8 132.73,-151.53 137,-141 138.18,-138.08 139.55,-135.1 140.99,-132.16"/>
<polygon fill="#3cb4a4" stroke="#3cb4a4" points="144.21,-133.56 145.74,-123.07 138,-130.31 144.21,-133.56"/>
<text text-anchor="middle" x="153.5" y="-144.8" font-family="arial" font-size="14.00" fill="#3cb4a4">value</text>
</g>
<!-- node2586&#45;&gt;node2369 -->
<g id="edge14" class="edge">
<title>node2586&#45;&gt;node2369</title>
<path fill="none" stroke="#3cb4a4" d="M141.9,-86.84C138.28,-81.46 134.88,-75.27 133,-69 130.59,-60.93 132.56,-52.49 136.19,-44.89"/>
<polygon fill="#3cb4a4" stroke="#3cb4a4" points="139.29,-46.53 141.25,-36.12 133.22,-43.03 139.29,-46.53"/>
<text text-anchor="middle" x="150" y="-57.8" font-family="arial" font-size="14.00" fill="#3cb4a4">result</text>
</g>
<!-- node2586&#45;&gt;node2369 -->
<g id="edge23" class="edge">
<title>node2586&#45;&gt;node2369</title>
<path fill="none" stroke="#da2d4f" stroke-width="2" d="M162.94,-86.98C166.06,-77.35 168.7,-65.07 167,-54 166.59,-51.32 166.01,-48.56 165.33,-45.83"/>
<polygon fill="#da2d4f" stroke="#da2d4f" stroke-width="2" points="168.69,-44.83 162.55,-36.2 161.96,-46.78 168.69,-44.83"/>
</g>
<!-- node2587&#45;&gt;node538 -->
<g id="edge31" class="edge">
<title>node2587&#45;&gt;node538</title>
<path fill="none" stroke="#da2d4f" stroke-width="2" d="M221.97,-888.86C231.47,-877.99 243.9,-863.75 254.45,-851.67"/>
<polygon fill="#da2d4f" stroke="#da2d4f" stroke-width="2" points="257.12,-853.94 261.06,-844.11 251.84,-849.34 257.12,-853.94"/>
</g>
<!-- inline5x1080 -->
<g id="node19" class="node">
<title>inline5x1080</title>
<ellipse fill="#d7ede7" stroke="black" cx="398" cy="-826" rx="27" ry="18"/>
<text text-anchor="middle" x="398" y="-824.1" font-family="Arial" font-size="8.00" fill="#1a1919">5 C(0)</text>
</g>
<!-- inline5x1080&#45;&gt;node1080 -->
<g id="edge7" class="edge">
<title>inline5x1080&#45;&gt;node1080</title>
<path fill="none" stroke="#3cb4a4" d="M398,-807.8C398,-793.05 398,-771.92 398,-757.18"/>
<text text-anchor="middle" x="400" y="-780.6" font-family="arial" font-size="8.00" fill="#3cb4a4">y</text>
</g>
<!-- inline1305x1307 -->
<g id="node20" class="node">
<title>inline1305x1307</title>
<ellipse fill="#d7ede7" stroke="black" cx="227" cy="-585" rx="83.9" ry="18"/>
<text text-anchor="middle" x="227" y="-583.1" font-family="Arial" font-size="8.00" fill="#1a1919">1305 C(RubyBasicObject@7fc889f3)</text>
</g>
<!-- inline1305x1307&#45;&gt;node1307 -->
<g id="edge10" class="edge">
<title>inline1305x1307&#45;&gt;node1307</title>
<path fill="none" stroke="#3cb4a4" d="M236.71,-566.8C245.53,-551.18 258.4,-528.39 266.74,-513.63"/>
<text text-anchor="middle" x="255" y="-539.6" font-family="arial" font-size="8.00" fill="#3cb4a4">y</text>
</g>
<!-- inline125x1307 -->
<g id="node21" class="node">
<title>inline125x1307</title>
<ellipse fill="#d7ede7" stroke="black" cx="356" cy="-585" rx="27.46" ry="18"/>
<text text-anchor="middle" x="356" y="-583.1" font-family="Arial" font-size="8.00" fill="#1a1919">125 T(5)</text>
</g>
<!-- inline125x1307&#45;&gt;node1307 -->
<g id="edge25" class="edge">
<title>inline125x1307&#45;&gt;node1307</title>
<path fill="none" stroke="#3cb4a4" d="M341.89,-569.19C326.66,-553.21 302.61,-527.98 287.88,-512.52"/>
<text text-anchor="middle" x="322" y="-539.6" font-family="arial" font-size="8.00" fill="#3cb4a4">x</text>
</g>
<!-- inline161x538 -->
<g id="node22" class="node">
<title>inline161x538</title>
<ellipse fill="#d7ede7" stroke="black" cx="309" cy="-907" rx="27.46" ry="18"/>
<text text-anchor="middle" x="309" y="-905.1" font-family="Arial" font-size="8.00" fill="#1a1919">161 T(7)</text>
</g>
<!-- inline161x538&#45;&gt;node538 -->
<g id="edge26" class="edge">
<title>inline161x538&#45;&gt;node538</title>
<path fill="none" stroke="#3cb4a4" d="M302,-889.25C296.44,-875.93 288.69,-857.38 283.1,-844"/>
<text text-anchor="middle" x="302.5" y="-864.6" font-family="arial" font-size="8.00" fill="#3cb4a4">value</text>
</g>
<!-- inline179x697 -->
<g id="node23" class="node">
<title>inline179x697</title>
<ellipse fill="#d7ede7" stroke="black" cx="119" cy="-826" rx="27.46" ry="18"/>
<text text-anchor="middle" x="119" y="-824.1" font-family="Arial" font-size="8.00" fill="#1a1919">179 T(8)</text>
</g>
<!-- inline179x697&#45;&gt;node697 -->
<g id="edge27" class="edge">
<title>inline179x697&#45;&gt;node697</title>
<path fill="none" stroke="#3cb4a4" d="M119,-807.8C119,-793.05 119,-771.92 119,-757.18"/>
<text text-anchor="middle" x="128.5" y="-780.6" font-family="arial" font-size="8.00" fill="#3cb4a4">value</text>
</g>
<!-- inline197x852 -->
<g id="node24" class="node">
<title>inline197x852</title>
<ellipse fill="#d7ede7" stroke="black" cx="33" cy="-739" rx="27.46" ry="18"/>
<text text-anchor="middle" x="33" y="-737.1" font-family="Arial" font-size="8.00" fill="#1a1919">197 T(9)</text>
</g>
<!-- inline197x852&#45;&gt;node852 -->
<g id="edge28" class="edge">
<title>inline197x852&#45;&gt;node852</title>
<path fill="none" stroke="#3cb4a4" d="M34.74,-720.86C36.08,-707.61 37.93,-689.35 39.27,-676.11"/>
<text text-anchor="middle" x="47.5" y="-696.6" font-family="arial" font-size="8.00" fill="#3cb4a4">value</text>
</g>
<!-- inline2x2587 -->
<g id="node25" class="node">
<title>inline2x2587</title>
<ellipse fill="#d7ede7" stroke="black" cx="244" cy="-988" rx="27" ry="18"/>
<text text-anchor="middle" x="244" y="-986.1" font-family="Arial" font-size="8.00" fill="#1a1919">2 P(1)</text>
</g>
<!-- inline2x2587&#45;&gt;node2587 -->
<g id="edge29" class="edge">
<title>inline2x2587&#45;&gt;node2587</title>
<path fill="none" stroke="#3cb4a4" d="M236.33,-970.63C230.11,-957.34 221.36,-938.67 215.04,-925.17"/>
<text text-anchor="middle" x="235.5" y="-945.6" font-family="arial" font-size="8.00" fill="#3cb4a4">array</text>
</g>
</g>
</svg>
