<?xml version="1.0" encoding="UTF-8" standalone="no"?>
<!DOCTYPE svg PUBLIC "-//W3C//DTD SVG 1.1//EN"
 "http://www.w3.org/Graphics/SVG/1.1/DTD/svg11.dtd">
<!-- Generated by graphviz version 2.44.1 (20200629.0846)
 -->
<!-- Title: G Pages: 1 -->
<svg width="1114pt" height="1317pt"
 viewBox="0.00 0.00 1113.78 1317.00" xmlns="http://www.w3.org/2000/svg" xmlns:xlink="http://www.w3.org/1999/xlink">
<g id="graph0" class="graph" transform="scale(1 1) rotate(0) translate(4 1313)">
<title>G</title>
<!-- node0 -->
<g id="node1" class="node">
<title>node0</title>
<polygon fill="#e98693" stroke="black" points="539.78,-1309 483.78,-1309 483.78,-1273 539.78,-1273 539.78,-1309"/>
<text text-anchor="middle" x="511.78" y="-1287.3" font-family="Arial" font-size="14.00" fill="#1a1919">0 Start</text>
</g>
<!-- node1741 -->
<g id="node19" class="node">
<title>node1741</title>
<polygon fill="#da2d4f" stroke="black" points="604.28,-1228 491.28,-1228 491.28,-1192 604.28,-1192 604.28,-1228"/>
<text text-anchor="middle" x="547.78" y="-1206.3" font-family="Arial" font-size="14.00" fill="#ffffff">1741 Load T(...)</text>
</g>
<!-- node0&#45;&gt;node1741 -->
<g id="edge36" class="edge">
<title>node0&#45;&gt;node1741</title>
<path fill="none" stroke="#da2d4f" stroke-width="2" d="M519.59,-1272.86C524.3,-1262.51 530.41,-1249.1 535.74,-1237.41"/>
<polygon fill="#da2d4f" stroke="#da2d4f" stroke-width="2" points="539.02,-1238.66 539.98,-1228.11 532.65,-1235.76 539.02,-1238.66"/>
</g>
<!-- node562 -->
<g id="node2" class="node">
<title>node562</title>
<polygon fill="#f9f9f9" stroke="black" points="656.78,-1147 574.78,-1147 574.78,-1111 656.78,-1111 656.78,-1147"/>
<text text-anchor="middle" x="615.78" y="-1125.3" font-family="Arial" font-size="14.00" fill="#1a1919">562 Unbox</text>
</g>
<!-- node717 -->
<g id="node3" class="node">
<title>node717</title>
<polygon fill="#f9f9f9" stroke="black" points="709.78,-1066 627.78,-1066 627.78,-1030 709.78,-1030 709.78,-1066"/>
<text text-anchor="middle" x="668.78" y="-1044.3" font-family="Arial" font-size="14.00" fill="#1a1919">717 Unbox</text>
</g>
<!-- node562&#45;&gt;node717 -->
<g id="edge1" class="edge">
<title>node562&#45;&gt;node717</title>
<path fill="none" stroke="#da2d4f" stroke-width="2" d="M627.28,-1110.86C634.36,-1100.3 643.58,-1086.56 651.52,-1074.71"/>
<polygon fill="#da2d4f" stroke="#da2d4f" stroke-width="2" points="654.63,-1076.36 657.3,-1066.11 648.82,-1072.46 654.63,-1076.36"/>
</g>
<!-- node1154 -->
<g id="node8" class="node">
<title>node1154</title>
<polygon fill="#3cb4a4" stroke="black" points="602.78,-979 416.1,-961 602.78,-943 789.45,-961 602.78,-979"/>
<text text-anchor="middle" x="602.78" y="-957.3" font-family="Arial" font-size="14.00" fill="#1a1919">1154 IntegerAddExactOverflow</text>
</g>
<!-- node562&#45;&gt;node1154 -->
<g id="edge7" class="edge">
<title>node562&#45;&gt;node1154</title>
<path fill="none" stroke="#3cb4a4" d="M614.43,-1110.86C612.19,-1082.16 607.64,-1024.13 604.94,-989.61"/>
<polygon fill="#3cb4a4" stroke="#3cb4a4" points="608.4,-988.99 604.13,-979.3 601.42,-989.54 608.4,-988.99"/>
<text text-anchor="middle" x="614.28" y="-1044.3" font-family="arial" font-size="14.00" fill="#3cb4a4">x</text>
</g>
<!-- node1156 -->
<g id="node9" class="node">
<title>node1156</title>
<polygon fill="#3cb4a4" stroke="black" points="836.78,-732 699.87,-714 836.78,-696 973.68,-714 836.78,-732"/>
<text text-anchor="middle" x="836.78" y="-710.3" font-family="Arial" font-size="14.00" fill="#1a1919">1156 IntegerAddExact</text>
</g>
<!-- node562&#45;&gt;node1156 -->
<g id="edge9" class="edge">
<title>node562&#45;&gt;node1156</title>
<path fill="none" stroke="#3cb4a4" d="M656.96,-1113.95C659.94,-1112.95 662.9,-1111.96 665.78,-1111 750.05,-1082.92 855.78,-1137.83 855.78,-1049 855.78,-1049 855.78,-1049 855.78,-800 855.78,-779.84 850.62,-757.62 845.68,-740.96"/>
<polygon fill="#3cb4a4" stroke="#3cb4a4" points="849.01,-739.87 842.68,-731.37 842.33,-741.96 849.01,-739.87"/>
<text text-anchor="middle" x="859.28" y="-913.8" font-family="arial" font-size="14.00" fill="#3cb4a4">x</text>
</g>
<!-- node787 -->
<g id="node4" class="node">
<title>node787</title>
<polygon fill="#ffa500" stroke="black" points="397.78,-979 159.78,-979 159.78,-943 397.78,-943 397.78,-979"/>
<text text-anchor="middle" x="278.78" y="-957.3" font-family="Arial" font-size="14.00" fill="#1a1919">787 Guard, else ClassCastException</text>
</g>
<!-- node717&#45;&gt;node787 -->
<g id="edge2" class="edge">
<title>node717&#45;&gt;node787</title>
<path fill="none" stroke="#da2d4f" stroke-width="2" d="M627.76,-1033.83C623.06,-1032.47 618.33,-1031.16 613.78,-1030 538.16,-1010.69 451.84,-993.28 385.76,-980.91"/>
<polygon fill="#da2d4f" stroke="#da2d4f" stroke-width="2" points="386.22,-977.43 375.74,-979.04 384.93,-984.31 386.22,-977.43"/>
</g>
<!-- node717&#45;&gt;node1154 -->
<g id="edge8" class="edge">
<title>node717&#45;&gt;node1154</title>
<path fill="none" stroke="#3cb4a4" d="M655.42,-1029.8C645.69,-1017.27 632.37,-1000.12 621.57,-986.2"/>
<polygon fill="#3cb4a4" stroke="#3cb4a4" points="624.12,-983.78 615.22,-978.03 618.59,-988.07 624.12,-983.78"/>
<text text-anchor="middle" x="642.28" y="-1000.8" font-family="arial" font-size="14.00" fill="#3cb4a4">y</text>
</g>
<!-- node717&#45;&gt;node1156 -->
<g id="edge10" class="edge">
<title>node717&#45;&gt;node1156</title>
<path fill="none" stroke="#3cb4a4" d="M709.88,-1041.43C753.99,-1032.88 817.78,-1011.88 817.78,-962 817.78,-962 817.78,-962 817.78,-800 817.78,-779.84 822.93,-757.62 827.87,-740.96"/>
<polygon fill="#3cb4a4" stroke="#3cb4a4" points="831.22,-741.96 830.87,-731.37 824.54,-739.87 831.22,-741.96"/>
<text text-anchor="middle" x="821.28" y="-870.3" font-family="arial" font-size="14.00" fill="#3cb4a4">y</text>
</g>
<!-- node1722 -->
<g id="node17" class="node">
<title>node1722</title>
<polygon fill="#ffa500" stroke="black" points="404.28,-892 153.28,-892 153.28,-856 404.28,-856 404.28,-892"/>
<text text-anchor="middle" x="278.78" y="-870.3" font-family="Arial" font-size="14.00" fill="#1a1919">1722 Guard, else TransferToInterpreter</text>
</g>
<!-- node787&#45;&gt;node1722 -->
<g id="edge4" class="edge">
<title>node787&#45;&gt;node1722</title>
<path fill="none" stroke="#da2d4f" stroke-width="2" d="M278.78,-942.8C278.78,-931.16 278.78,-915.55 278.78,-902.24"/>
<polygon fill="#da2d4f" stroke="#da2d4f" stroke-width="2" points="282.28,-902.18 278.78,-892.18 275.28,-902.18 282.28,-902.18"/>
</g>
<!-- node788 -->
<g id="node5" class="node">
<title>node788</title>
<polygon fill="#f9f9f9" stroke="black" points="438.28,-1066 119.28,-1066 119.28,-1030 438.28,-1030 438.28,-1066"/>
<text text-anchor="middle" x="278.78" y="-1044.3" font-family="Arial" font-size="14.00" fill="#1a1919">788 InstanceOf org/truffleruby/core/proc/RubyProc</text>
</g>
<!-- node788&#45;&gt;node787 -->
<g id="edge3" class="edge">
<title>node788&#45;&gt;node787</title>
<path fill="none" stroke="#3cb4a4" d="M278.78,-1029.8C278.78,-1018.16 278.78,-1002.55 278.78,-989.24"/>
<polygon fill="#3cb4a4" stroke="#3cb4a4" points="282.28,-989.18 278.78,-979.18 275.28,-989.18 282.28,-989.18"/>
<text text-anchor="middle" x="282.78" y="-1000.8" font-family="arial" font-size="14.00" fill="#3cb4a4">?</text>
</g>
<!-- node794 -->
<g id="node6" class="node">
<title>node794</title>
<polygon fill="#3cb4a4" stroke="black" points="70.78,-979 0.22,-961 70.78,-943 141.33,-961 70.78,-979"/>
<text text-anchor="middle" x="70.78" y="-957.3" font-family="Arial" font-size="14.00" fill="#1a1919">794 IsNull</text>
</g>
<!-- node794&#45;&gt;node1722 -->
<g id="edge27" class="edge">
<title>node794&#45;&gt;node1722</title>
<path fill="none" stroke="#3cb4a4" d="M96.7,-949.41C129.33,-936.07 186.13,-912.86 227.64,-895.9"/>
<polygon fill="#3cb4a4" stroke="#3cb4a4" points="229.11,-899.08 237.04,-892.06 226.46,-892.6 229.11,-899.08"/>
<text text-anchor="middle" x="191.78" y="-913.8" font-family="arial" font-size="14.00" fill="#3cb4a4">?</text>
</g>
<!-- node1153 -->
<g id="node7" class="node">
<title>node1153</title>
<polygon fill="#ffa500" stroke="black" points="600.78,-819 334.78,-819 334.78,-783 600.78,-783 600.78,-819"/>
<text text-anchor="middle" x="467.78" y="-797.3" font-family="Arial" font-size="14.00" fill="#1a1919">1153 Guard not, else ArithmeticException</text>
</g>
<!-- node1153&#45;&gt;node1156 -->
<g id="edge11" class="edge">
<title>node1153&#45;&gt;node1156</title>
<path fill="none" stroke="#3cb4a4" d="M542,-782.9C612.12,-766.75 715.81,-742.87 779.68,-728.15"/>
<polygon fill="#3cb4a4" stroke="#3cb4a4" points="780.62,-731.53 789.58,-725.87 779.05,-724.71 780.62,-731.53"/>
<text text-anchor="middle" x="691.28" y="-753.8" font-family="arial" font-size="14.00" fill="#3cb4a4">guard</text>
</g>
<!-- node1463 -->
<g id="node10" class="node">
<title>node1463</title>
<polygon fill="#ffa500" stroke="black" points="647.78,-558 381.78,-558 381.78,-522 647.78,-522 647.78,-558"/>
<text text-anchor="middle" x="514.78" y="-536.3" font-family="Arial" font-size="14.00" fill="#1a1919">1463 Guard not, else ArithmeticException</text>
</g>
<!-- node1153&#45;&gt;node1463 -->
<g id="edge6" class="edge">
<title>node1153&#45;&gt;node1463</title>
<path fill="none" stroke="#da2d4f" stroke-width="2" d="M456.76,-782.74C436.16,-748.1 396.43,-668.35 425.78,-609 435.17,-590 452.7,-574.85 469.73,-563.72"/>
<polygon fill="#da2d4f" stroke="#da2d4f" stroke-width="2" points="471.89,-566.5 478.55,-558.27 468.2,-560.55 471.89,-566.5"/>
</g>
<!-- node1154&#45;&gt;node1153 -->
<g id="edge5" class="edge">
<title>node1154&#45;&gt;node1153</title>
<path fill="none" stroke="#3cb4a4" d="M589.34,-944.27C565.85,-916.79 517.16,-859.8 489.05,-826.9"/>
<polygon fill="#3cb4a4" stroke="#3cb4a4" points="491.54,-824.42 482.38,-819.09 486.21,-828.97 491.54,-824.42"/>
<text text-anchor="middle" x="548.78" y="-870.3" font-family="arial" font-size="14.00" fill="#3cb4a4">?</text>
</g>
<!-- node1464 -->
<g id="node11" class="node">
<title>node1464</title>
<polygon fill="#3cb4a4" stroke="black" points="621.78,-645 435.1,-627 621.78,-609 808.45,-627 621.78,-645"/>
<text text-anchor="middle" x="621.78" y="-623.3" font-family="Arial" font-size="14.00" fill="#1a1919">1464 IntegerMulExactOverflow</text>
</g>
<!-- node1156&#45;&gt;node1464 -->
<g id="edge14" class="edge">
<title>node1156&#45;&gt;node1464</title>
<path fill="none" stroke="#3cb4a4" d="M804.12,-700.09C767.25,-685.51 707.07,-661.72 666.01,-645.49"/>
<polygon fill="#3cb4a4" stroke="#3cb4a4" points="667.11,-642.16 656.52,-641.74 664.53,-648.67 667.11,-642.16"/>
<text text-anchor="middle" x="745.28" y="-666.8" font-family="arial" font-size="14.00" fill="#3cb4a4">x</text>
</g>
<!-- node1466 -->
<g id="node12" class="node">
<title>node1466</title>
<polygon fill="#3cb4a4" stroke="black" points="700.78,-471 563.87,-453 700.78,-435 837.68,-453 700.78,-471"/>
<text text-anchor="middle" x="700.78" y="-449.3" font-family="Arial" font-size="14.00" fill="#1a1919">1466 IntegerMulExact</text>
</g>
<!-- node1156&#45;&gt;node1466 -->
<g id="edge16" class="edge">
<title>node1156&#45;&gt;node1466</title>
<path fill="none" stroke="#3cb4a4" d="M836.05,-695.72C834.63,-674.49 830.39,-637.74 817.78,-609 794.61,-556.23 750.22,-504.83 723.27,-476.49"/>
<polygon fill="#3cb4a4" stroke="#3cb4a4" points="725.63,-473.89 716.17,-469.13 720.59,-478.76 725.63,-473.89"/>
<text text-anchor="middle" x="812.28" y="-579.8" font-family="arial" font-size="14.00" fill="#3cb4a4">x</text>
</g>
<!-- node1684 -->
<g id="node14" class="node">
<title>node1684</title>
<polygon fill="#3cb4a4" stroke="black" points="882.78,-384 695.26,-366 882.78,-348 1070.29,-366 882.78,-384"/>
<text text-anchor="middle" x="882.78" y="-362.3" font-family="Arial" font-size="14.00" fill="#1a1919">1684 IntegerAddExactOverflow</text>
</g>
<!-- node1156&#45;&gt;node1684 -->
<g id="edge21" class="edge">
<title>node1156&#45;&gt;node1684</title>
<path fill="none" stroke="#3cb4a4" d="M851.08,-697.73C864.58,-681.67 882.78,-655.01 882.78,-628 882.78,-628 882.78,-628 882.78,-452 882.78,-432.75 882.78,-411.05 882.78,-394.4"/>
<polygon fill="#3cb4a4" stroke="#3cb4a4" points="886.28,-394.26 882.78,-384.26 879.28,-394.26 886.28,-394.26"/>
<text text-anchor="middle" x="886.28" y="-536.3" font-family="arial" font-size="14.00" fill="#3cb4a4">x</text>
</g>
<!-- node1686 -->
<g id="node15" class="node">
<title>node1686</title>
<polygon fill="#3cb4a4" stroke="black" points="669.78,-210 532.03,-192 669.78,-174 807.52,-192 669.78,-210"/>
<text text-anchor="middle" x="669.78" y="-188.3" font-family="Arial" font-size="14.00" fill="#1a1919">1686 IntegerAddExact</text>
</g>
<!-- node1156&#45;&gt;node1686 -->
<g id="edge23" class="edge">
<title>node1156&#45;&gt;node1686</title>
<path fill="none" stroke="#3cb4a4" d="M903.57,-704.73C981.19,-693.22 1098.78,-669.01 1098.78,-628 1098.78,-628 1098.78,-628 1098.78,-278 1098.78,-216.97 929.58,-199.07 803.7,-194.2"/>
<polygon fill="#3cb4a4" stroke="#3cb4a4" points="803.69,-190.7 793.57,-193.83 803.44,-197.69 803.69,-190.7"/>
<text text-anchor="middle" x="1102.28" y="-449.3" font-family="arial" font-size="14.00" fill="#3cb4a4">x</text>
</g>
<!-- node1463&#45;&gt;node1466 -->
<g id="edge18" class="edge">
<title>node1463&#45;&gt;node1466</title>
<path fill="none" stroke="#3cb4a4" d="M552.41,-521.8C584.49,-507.14 630.38,-486.17 662.61,-471.44"/>
<polygon fill="#3cb4a4" stroke="#3cb4a4" points="664.08,-474.62 671.73,-467.28 661.18,-468.25 664.08,-474.62"/>
<text text-anchor="middle" x="636.28" y="-492.8" font-family="arial" font-size="14.00" fill="#3cb4a4">guard</text>
</g>
<!-- node1683 -->
<g id="node13" class="node">
<title>node1683</title>
<polygon fill="#ffa500" stroke="black" points="638.78,-297 372.78,-297 372.78,-261 638.78,-261 638.78,-297"/>
<text text-anchor="middle" x="505.78" y="-275.3" font-family="Arial" font-size="14.00" fill="#1a1919">1683 Guard not, else ArithmeticException</text>
</g>
<!-- node1463&#45;&gt;node1683 -->
<g id="edge13" class="edge">
<title>node1463&#45;&gt;node1683</title>
<path fill="none" stroke="#da2d4f" stroke-width="2" d="M514.17,-521.6C512.64,-477.46 508.58,-360.83 506.73,-307.42"/>
<polygon fill="#da2d4f" stroke="#da2d4f" stroke-width="2" points="510.22,-307.19 506.38,-297.32 503.23,-307.44 510.22,-307.19"/>
</g>
<!-- node1464&#45;&gt;node1463 -->
<g id="edge12" class="edge">
<title>node1464&#45;&gt;node1463</title>
<path fill="none" stroke="#3cb4a4" d="M602.65,-610.8C586.41,-597.91 562.86,-579.2 544.22,-564.39"/>
<polygon fill="#3cb4a4" stroke="#3cb4a4" points="546.32,-561.59 536.31,-558.11 541.97,-567.07 546.32,-561.59"/>
<text text-anchor="middle" x="577.78" y="-579.8" font-family="arial" font-size="14.00" fill="#3cb4a4">?</text>
</g>
<!-- node1466&#45;&gt;node1684 -->
<g id="edge22" class="edge">
<title>node1466&#45;&gt;node1684</title>
<path fill="none" stroke="#3cb4a4" d="M729.21,-438.72C759.83,-424.42 808.75,-401.57 843.13,-385.52"/>
<polygon fill="#3cb4a4" stroke="#3cb4a4" points="844.84,-388.58 852.41,-381.18 841.87,-382.24 844.84,-388.58"/>
<text text-anchor="middle" x="805.28" y="-405.8" font-family="arial" font-size="14.00" fill="#3cb4a4">y</text>
</g>
<!-- node1466&#45;&gt;node1686 -->
<g id="edge24" class="edge">
<title>node1466&#45;&gt;node1686</title>
<path fill="none" stroke="#3cb4a4" d="M696.45,-435.35C693.05,-421.65 688.45,-401.69 685.78,-384 676.97,-325.91 672.7,-257.09 670.9,-219.97"/>
<polygon fill="#3cb4a4" stroke="#3cb4a4" points="674.39,-219.78 670.43,-209.95 667.4,-220.1 674.39,-219.78"/>
<text text-anchor="middle" x="682.28" y="-318.8" font-family="arial" font-size="14.00" fill="#3cb4a4">y</text>
</g>
<!-- node1683&#45;&gt;node1686 -->
<g id="edge25" class="edge">
<title>node1683&#45;&gt;node1686</title>
<path fill="none" stroke="#3cb4a4" d="M538.96,-260.8C566.63,-246.46 605.95,-226.08 634.25,-211.41"/>
<polygon fill="#3cb4a4" stroke="#3cb4a4" points="636.12,-214.38 643.39,-206.68 632.9,-208.17 636.12,-214.38"/>
<text text-anchor="middle" x="614.28" y="-231.8" font-family="arial" font-size="14.00" fill="#3cb4a4">guard</text>
</g>
<!-- node1740 -->
<g id="node18" class="node">
<title>node1740</title>
<polygon fill="#f9f9f9" stroke="black" points="617.28,-123 422.28,-123 422.28,-87 617.28,-87 617.28,-123"/>
<text text-anchor="middle" x="519.78" y="-101.3" font-family="Arial" font-size="14.00" fill="#1a1919">1740 BoxNode$AllocatingBox</text>
</g>
<!-- node1683&#45;&gt;node1740 -->
<g id="edge20" class="edge">
<title>node1683&#45;&gt;node1740</title>
<path fill="none" stroke="#da2d4f" stroke-width="2" d="M507.17,-260.88C509.6,-231 514.64,-169.11 517.56,-133.27"/>
<polygon fill="#da2d4f" stroke="#da2d4f" stroke-width="2" points="521.06,-133.3 518.39,-123.05 514.09,-132.73 521.06,-133.3"/>
</g>
<!-- node1684&#45;&gt;node1683 -->
<g id="edge19" class="edge">
<title>node1684&#45;&gt;node1683</title>
<path fill="none" stroke="#3cb4a4" d="M790.69,-356.83C744.08,-351.46 686.89,-342.96 636.78,-330 608.37,-322.66 577.68,-311.15 553.15,-301.02"/>
<polygon fill="#3cb4a4" stroke="#3cb4a4" points="554.31,-297.71 543.73,-297.08 551.6,-304.17 554.31,-297.71"/>
<text text-anchor="middle" x="640.78" y="-318.8" font-family="arial" font-size="14.00" fill="#3cb4a4">?</text>
</g>
<!-- node1686&#45;&gt;node1740 -->
<g id="edge29" class="edge">
<title>node1686&#45;&gt;node1740</title>
<path fill="none" stroke="#3cb4a4" d="M645.34,-177.15C621.92,-163.88 586.19,-143.63 558.82,-128.13"/>
<polygon fill="#3cb4a4" stroke="#3cb4a4" points="560.32,-124.95 549.89,-123.07 556.87,-131.04 560.32,-124.95"/>
<text text-anchor="middle" x="619.28" y="-144.8" font-family="arial" font-size="14.00" fill="#3cb4a4">value</text>
</g>
<!-- node1715 -->
<g id="node16" class="node">
<title>node1715</title>
<polygon fill="#e98693" stroke="black" points="565.28,-36 474.28,-36 474.28,0 565.28,0 565.28,-36"/>
<text text-anchor="middle" x="519.78" y="-14.3" font-family="Arial" font-size="14.00" fill="#1a1919">1715 Return</text>
</g>
<!-- node1722&#45;&gt;node1153 -->
<g id="edge28" class="edge">
<title>node1722&#45;&gt;node1153</title>
<path fill="none" stroke="#da2d4f" stroke-width="2" d="M324.05,-855.99C350.62,-846.01 384.39,-833.32 412.52,-822.76"/>
<polygon fill="#da2d4f" stroke="#da2d4f" stroke-width="2" points="414.09,-825.91 422.22,-819.11 411.63,-819.35 414.09,-825.91"/>
</g>
<!-- node1740&#45;&gt;node1715 -->
<g id="edge26" class="edge">
<title>node1740&#45;&gt;node1715</title>
<path fill="none" stroke="#3cb4a4" d="M505.67,-86.84C502.05,-81.46 498.65,-75.27 496.78,-69 494.36,-60.93 496.34,-52.49 499.97,-44.89"/>
<polygon fill="#3cb4a4" stroke="#3cb4a4" points="503.06,-46.53 505.03,-36.12 497,-43.03 503.06,-46.53"/>
<text text-anchor="middle" x="513.78" y="-57.8" font-family="arial" font-size="14.00" fill="#3cb4a4">result</text>
</g>
<!-- node1740&#45;&gt;node1715 -->
<g id="edge30" class="edge">
<title>node1740&#45;&gt;node1715</title>
<path fill="none" stroke="#da2d4f" stroke-width="2" d="M526.72,-86.98C529.84,-77.35 532.47,-65.07 530.78,-54 530.36,-51.32 529.78,-48.56 529.11,-45.83"/>
<polygon fill="#da2d4f" stroke="#da2d4f" stroke-width="2" points="532.46,-44.83 526.32,-36.2 525.74,-46.78 532.46,-44.83"/>
</g>
<!-- node1741&#45;&gt;node562 -->
<g id="edge37" class="edge">
<title>node1741&#45;&gt;node562</title>
<path fill="none" stroke="#da2d4f" stroke-width="2" d="M562.53,-1191.86C571.8,-1181.09 583.91,-1167.02 594.24,-1155.02"/>
<polygon fill="#da2d4f" stroke="#da2d4f" stroke-width="2" points="597.18,-1156.97 601.05,-1147.11 591.87,-1152.4 597.18,-1156.97"/>
</g>
<!-- inline69x1464 -->
<g id="node20" class="node">
<title>inline69x1464</title>
<ellipse fill="#d7ede7" stroke="black" cx="621.78" cy="-714" rx="27" ry="18"/>
<text text-anchor="middle" x="621.78" y="-712.1" font-family="Arial" font-size="8.00" fill="#1a1919">69 C(2)</text>
</g>
<!-- inline69x1464&#45;&gt;node1464 -->
<g id="edge15" class="edge">
<title>inline69x1464&#45;&gt;node1464</title>
<path fill="none" stroke="#3cb4a4" d="M621.78,-695.8C621.78,-681.05 621.78,-659.92 621.78,-645.18"/>
<text text-anchor="middle" x="623.78" y="-668.6" font-family="arial" font-size="8.00" fill="#3cb4a4">y</text>
</g>
<!-- inline69x1466 -->
<g id="node21" class="node">
<title>inline69x1466</title>
<ellipse fill="#d7ede7" stroke="black" cx="700.78" cy="-540" rx="27" ry="18"/>
<text text-anchor="middle" x="700.78" y="-538.1" font-family="Arial" font-size="8.00" fill="#1a1919">69 C(2)</text>
</g>
<!-- inline69x1466&#45;&gt;node1466 -->
<g id="edge17" class="edge">
<title>inline69x1466&#45;&gt;node1466</title>
<path fill="none" stroke="#3cb4a4" d="M700.78,-521.8C700.78,-507.05 700.78,-485.92 700.78,-471.18"/>
<text text-anchor="middle" x="702.78" y="-494.6" font-family="arial" font-size="8.00" fill="#3cb4a4">y</text>
</g>
<!-- inline158x788 -->
<g id="node22" class="node">
<title>inline158x788</title>
<ellipse fill="#d7ede7" stroke="black" cx="278.78" cy="-1129" rx="27.46" ry="18"/>
<text text-anchor="middle" x="278.78" y="-1127.1" font-family="Arial" font-size="8.00" fill="#1a1919">158 T(7)</text>
</g>
<!-- inline158x788&#45;&gt;node788 -->
<g id="edge31" class="edge">
<title>inline158x788&#45;&gt;node788</title>
<path fill="none" stroke="#3cb4a4" d="M278.78,-1110.86C278.78,-1097.61 278.78,-1079.35 278.78,-1066.11"/>
<text text-anchor="middle" x="288.28" y="-1086.6" font-family="arial" font-size="8.00" fill="#3cb4a4">value</text>
</g>
<!-- inline158x794 -->
<g id="node23" class="node">
<title>inline158x794</title>
<ellipse fill="#d7ede7" stroke="black" cx="70.78" cy="-1048" rx="27.46" ry="18"/>
<text text-anchor="middle" x="70.78" y="-1046.1" font-family="Arial" font-size="8.00" fill="#1a1919">158 T(7)</text>
</g>
<!-- inline158x794&#45;&gt;node794 -->
<g id="edge32" class="edge">
<title>inline158x794&#45;&gt;node794</title>
<path fill="none" stroke="#3cb4a4" d="M70.78,-1029.8C70.78,-1015.05 70.78,-993.92 70.78,-979.18"/>
<text text-anchor="middle" x="80.28" y="-1002.6" font-family="arial" font-size="8.00" fill="#3cb4a4">value</text>
</g>
<!-- inline173x562 -->
<g id="node24" class="node">
<title>inline173x562</title>
<ellipse fill="#d7ede7" stroke="black" cx="649.78" cy="-1210" rx="27.46" ry="18"/>
<text text-anchor="middle" x="649.78" y="-1208.1" font-family="Arial" font-size="8.00" fill="#1a1919">173 T(8)</text>
</g>
<!-- inline173x562&#45;&gt;node562 -->
<g id="edge33" class="edge">
<title>inline173x562&#45;&gt;node562</title>
<path fill="none" stroke="#3cb4a4" d="M642.56,-1192.25C636.83,-1178.93 628.85,-1160.38 623.09,-1147"/>
<text text-anchor="middle" x="643.28" y="-1167.6" font-family="arial" font-size="8.00" fill="#3cb4a4">value</text>
</g>
<!-- inline191x717 -->
<g id="node25" class="node">
<title>inline191x717</title>
<ellipse fill="#d7ede7" stroke="black" cx="701.78" cy="-1129" rx="27.46" ry="18"/>
<text text-anchor="middle" x="701.78" y="-1127.1" font-family="Arial" font-size="8.00" fill="#1a1919">191 T(9)</text>
</g>
<!-- inline191x717&#45;&gt;node717 -->
<g id="edge34" class="edge">
<title>inline191x717&#45;&gt;node717</title>
<path fill="none" stroke="#3cb4a4" d="M694.78,-1111.25C689.21,-1097.93 681.47,-1079.38 675.88,-1066"/>
<text text-anchor="middle" x="695.28" y="-1086.6" font-family="arial" font-size="8.00" fill="#3cb4a4">value</text>
</g>
<!-- inline2x1741 -->
<g id="node26" class="node">
<title>inline2x1741</title>
<ellipse fill="#d7ede7" stroke="black" cx="584.78" cy="-1291" rx="27" ry="18"/>
<text text-anchor="middle" x="584.78" y="-1289.1" font-family="Arial" font-size="8.00" fill="#1a1919">2 P(1)</text>
</g>
<!-- inline2x1741&#45;&gt;node1741 -->
<g id="edge35" class="edge">
<title>inline2x1741&#45;&gt;node1741</title>
<path fill="none" stroke="#3cb4a4" d="M577.11,-1273.63C570.89,-1260.34 562.14,-1241.67 555.82,-1228.17"/>
<text text-anchor="middle" x="576.28" y="-1248.6" font-family="arial" font-size="8.00" fill="#3cb4a4">array</text>
</g>
</g>
</svg>
