<?xml version="1.0" encoding="UTF-8" standalone="no"?>
<!DOCTYPE svg PUBLIC "-//W3C//DTD SVG 1.1//EN"
 "http://www.w3.org/Graphics/SVG/1.1/DTD/svg11.dtd">
<!-- Generated by graphviz version 2.44.1 (20200629.0846)
 -->
<!-- Title: G Pages: 1 -->
<svg width="811pt" height="947pt"
 viewBox="0.00 0.00 810.51 947.00" xmlns="http://www.w3.org/2000/svg" xmlns:xlink="http://www.w3.org/1999/xlink">
<g id="graph0" class="graph" transform="scale(1 1) rotate(0) translate(4 943)">
<title>G</title>
<!-- node0 -->
<g id="node1" class="node">
<title>node0</title>
<polygon fill="#e98693" stroke="black" points="56,-939 0,-939 0,-903 56,-903 56,-939"/>
<text text-anchor="middle" x="28" y="-917.3" font-family="Arial" font-size="14.00" fill="#1a1919">0 Start</text>
</g>
<!-- node1619 -->
<g id="node17" class="node">
<title>node1619</title>
<polygon fill="#da2d4f" stroke="black" points="120.5,-858 7.5,-858 7.5,-822 120.5,-822 120.5,-858"/>
<text text-anchor="middle" x="64" y="-836.3" font-family="Arial" font-size="14.00" fill="#ffffff">1619 Load T(...)</text>
</g>
<!-- node0&#45;&gt;node1619 -->
<g id="edge28" class="edge">
<title>node0&#45;&gt;node1619</title>
<path fill="none" stroke="#da2d4f" stroke-width="2" d="M35.81,-902.86C40.53,-892.51 46.64,-879.1 51.96,-867.41"/>
<polygon fill="#da2d4f" stroke="#da2d4f" stroke-width="2" points="55.24,-868.66 56.2,-858.11 48.87,-865.76 55.24,-868.66"/>
</g>
<!-- node532 -->
<g id="node2" class="node">
<title>node532</title>
<polygon fill="#f9f9f9" stroke="black" points="156,-777 74,-777 74,-741 156,-741 156,-777"/>
<text text-anchor="middle" x="115" y="-755.3" font-family="Arial" font-size="14.00" fill="#1a1919">532 Unbox</text>
</g>
<!-- node794 -->
<g id="node3" class="node">
<title>node794</title>
<polygon fill="#e98693" stroke="black" points="148.5,-704 81.5,-704 81.5,-668 148.5,-668 148.5,-704"/>
<text text-anchor="middle" x="115" y="-682.3" font-family="Arial" font-size="14.00" fill="#1a1919">794 End</text>
</g>
<!-- node532&#45;&gt;node794 -->
<g id="edge1" class="edge">
<title>node532&#45;&gt;node794</title>
<path fill="none" stroke="#da2d4f" stroke-width="2" d="M115,-740.81C115,-732.79 115,-723.05 115,-714.07"/>
<polygon fill="#da2d4f" stroke="#da2d4f" stroke-width="2" points="118.5,-714.03 115,-704.03 111.5,-714.03 118.5,-714.03"/>
</g>
<!-- node1609 -->
<g id="node15" class="node">
<title>node1609</title>
<polygon fill="#f9f9f9" stroke="black" points="288,-123 230,-123 230,-87 288,-87 288,-123"/>
<text text-anchor="middle" x="259" y="-101.3" font-family="Arial" font-size="14.00" fill="#1a1919">1609 ϕ</text>
</g>
<!-- node532&#45;&gt;node1609 -->
<g id="edge22" class="edge">
<title>node532&#45;&gt;node1609</title>
<path fill="none" stroke="#3cb4a4" d="M73.88,-749.71C41.58,-740.52 2,-722.1 2,-687 2,-687 2,-687 2,-191 2,-90.36 122.49,-154.72 218,-123 218.71,-122.76 219.43,-122.52 220.15,-122.27"/>
<polygon fill="#3cb4a4" stroke="#3cb4a4" points="221.46,-125.52 229.63,-118.77 219.04,-118.95 221.46,-125.52"/>
<text text-anchor="middle" x="29.5" y="-435.3" font-family="arial" font-size="14.00" fill="#3cb4a4">from 794</text>
</g>
<!-- node1618 -->
<g id="node16" class="node">
<title>node1618</title>
<polygon fill="#f9f9f9" stroke="black" points="663.5,-384 468.5,-384 468.5,-348 663.5,-348 663.5,-384"/>
<text text-anchor="middle" x="566" y="-362.3" font-family="Arial" font-size="14.00" fill="#1a1919">1618 BoxNode$AllocatingBox</text>
</g>
<!-- node532&#45;&gt;node1618 -->
<g id="edge24" class="edge">
<title>node532&#45;&gt;node1618</title>
<path fill="none" stroke="#3cb4a4" d="M156.23,-755.03C258.95,-747.09 518,-723.45 518,-687 518,-687 518,-687 518,-438 518,-420.5 528.13,-404.1 539.08,-391.48"/>
<polygon fill="#3cb4a4" stroke="#3cb4a4" points="541.67,-393.83 545.92,-384.13 536.55,-389.06 541.67,-393.83"/>
<text text-anchor="middle" x="534.5" y="-565.8" font-family="arial" font-size="14.00" fill="#3cb4a4">value</text>
</g>
<!-- node795 -->
<g id="node4" class="node">
<title>node795</title>
<polygon fill="#e98693" stroke="black" points="168.5,-631 61.5,-631 61.5,-595 168.5,-595 168.5,-631"/>
<text text-anchor="middle" x="115" y="-609.3" font-family="Arial" font-size="14.00" fill="#1a1919">795 LoopBegin</text>
</g>
<!-- node794&#45;&gt;node795 -->
<g id="edge2" class="edge">
<title>node794&#45;&gt;node795</title>
<path fill="none" stroke="#da2d4f" stroke-width="2" d="M115,-667.81C115,-659.79 115,-650.05 115,-641.07"/>
<polygon fill="#da2d4f" stroke="#da2d4f" stroke-width="2" points="118.5,-641.03 115,-631.03 111.5,-641.03 118.5,-641.03"/>
</g>
<!-- node1012 -->
<g id="node6" class="node">
<title>node1012</title>
<polygon fill="#e98693" stroke="black" points="210,-544 152,-544 152,-508 210,-508 210,-544"/>
<text text-anchor="middle" x="181" y="-522.3" font-family="Arial" font-size="14.00" fill="#1a1919">1012 If</text>
</g>
<!-- node795&#45;&gt;node1012 -->
<g id="edge3" class="edge">
<title>node795&#45;&gt;node1012</title>
<path fill="none" stroke="#da2d4f" stroke-width="2" d="M128.36,-594.8C137.84,-582.59 150.72,-565.99 161.37,-552.28"/>
<polygon fill="#da2d4f" stroke="#da2d4f" stroke-width="2" points="164.3,-554.22 167.66,-544.18 158.77,-549.93 164.3,-554.22"/>
</g>
<!-- node795&#45;&gt;node1609 -->
<g id="edge21" class="edge">
<title>node795&#45;&gt;node1609</title>
<path fill="none" stroke="#343d46" stroke-dasharray="5,2" d="M100.57,-585.75C92.88,-569.36 85,-547.54 85,-527 85,-527 85,-527 85,-191 85,-183.04 180.34,-140.29 229.88,-118.61"/>
<polygon fill="#343d46" stroke="#343d46" points="97.44,-587.31 105.01,-594.72 103.71,-584.2 97.44,-587.31"/>
</g>
<!-- node973 -->
<g id="node5" class="node">
<title>node973</title>
<polygon fill="#3cb4a4" stroke="black" points="182,-36 135.25,-18 182,0 228.75,-18 182,-36"/>
<text text-anchor="middle" x="182" y="-14.3" font-family="Arial" font-size="14.00" fill="#1a1919">973 &lt;</text>
</g>
<!-- node973&#45;&gt;node1012 -->
<g id="edge6" class="edge">
<title>node973&#45;&gt;node1012</title>
<path fill="none" stroke="#3cb4a4" d="M172.57,-32.59C163.95,-45.81 151.7,-66.82 146,-87 117.6,-187.5 131,-217.06 131,-321.5 131,-440 131,-440 131,-440 131,-462.45 144.12,-484.21 156.92,-500.09"/>
<polygon fill="#3cb4a4" stroke="#3cb4a4" points="154.36,-502.48 163.51,-507.83 159.69,-497.95 154.36,-502.48"/>
<text text-anchor="middle" x="134" y="-275.3" font-family="arial" font-size="14.00" fill="#3cb4a4">?</text>
</g>
<!-- node1015 -->
<g id="node7" class="node">
<title>node1015</title>
<polygon fill="#e98693" stroke="black" points="315.5,-457 230.5,-457 230.5,-421 315.5,-421 315.5,-457"/>
<text text-anchor="middle" x="273" y="-435.3" font-family="Arial" font-size="14.00" fill="#1a1919">1015 Begin</text>
</g>
<!-- node1012&#45;&gt;node1015 -->
<g id="edge8" class="edge">
<title>node1012&#45;&gt;node1015</title>
<path fill="none" stroke="#da2d4f" stroke-width="2" d="M199.62,-507.8C213.21,-495.24 231.82,-478.05 246.89,-464.12"/>
<polygon fill="#da2d4f" stroke="#da2d4f" stroke-width="2" points="249.44,-466.53 254.41,-457.18 244.69,-461.39 249.44,-466.53"/>
<text text-anchor="middle" x="236.5" y="-478.8" font-family="arial" font-size="14.00" fill="#da2d4f">F</text>
</g>
<!-- node1486 -->
<g id="node12" class="node">
<title>node1486</title>
<polygon fill="#e98693" stroke="black" points="471.5,-457 368.5,-457 368.5,-421 471.5,-421 471.5,-457"/>
<text text-anchor="middle" x="420" y="-435.3" font-family="Arial" font-size="14.00" fill="#1a1919">1486 LoopExit</text>
</g>
<!-- node1012&#45;&gt;node1486 -->
<g id="edge7" class="edge">
<title>node1012&#45;&gt;node1486</title>
<path fill="none" stroke="#da2d4f" stroke-width="2" d="M210.31,-514.58C247.97,-501.18 314.22,-477.62 362.19,-460.56"/>
<polygon fill="#da2d4f" stroke="#da2d4f" stroke-width="2" points="363.58,-463.78 371.83,-457.13 361.24,-457.18 363.58,-463.78"/>
<text text-anchor="middle" x="318.5" y="-478.8" font-family="arial" font-size="14.00" fill="#da2d4f">T</text>
</g>
<!-- node1123 -->
<g id="node8" class="node">
<title>node1123</title>
<ellipse fill="black" stroke="black" cx="388" cy="-366" rx="18" ry="18"/>
</g>
<!-- node1015&#45;&gt;node1123 -->
<g id="edge9" class="edge">
<title>node1015&#45;&gt;node1123</title>
<path fill="none" stroke="#da2d4f" stroke-width="2" d="M300.55,-420.99C319.99,-408.99 345.77,-393.08 364.29,-381.64"/>
<polygon fill="#da2d4f" stroke="#da2d4f" stroke-width="2" points="366.32,-384.5 372.99,-376.26 362.65,-378.54 366.32,-384.5"/>
</g>
<!-- node1386 -->
<g id="node9" class="node">
<title>node1386</title>
<polygon fill="#ffa500" stroke="black" points="682,-297 416,-297 416,-261 682,-261 682,-297"/>
<text text-anchor="middle" x="549" y="-275.3" font-family="Arial" font-size="14.00" fill="#1a1919">1386 Guard not, else ArithmeticException</text>
</g>
<!-- node1123&#45;&gt;node1386 -->
<g id="edge11" class="edge">
<title>node1123&#45;&gt;node1386</title>
<path fill="none" stroke="#da2d4f" stroke-width="2" d="M403.73,-356.7C427.53,-344.13 473.48,-319.87 507.36,-301.98"/>
<polygon fill="#da2d4f" stroke="#da2d4f" stroke-width="2" points="509.36,-304.89 516.57,-297.12 506.09,-298.7 509.36,-304.89"/>
</g>
<!-- node1389 -->
<g id="node11" class="node">
<title>node1389</title>
<polygon fill="#3cb4a4" stroke="black" points="289,-210 151.25,-192 289,-174 426.75,-192 289,-210"/>
<text text-anchor="middle" x="289" y="-188.3" font-family="Arial" font-size="14.00" fill="#1a1919">1389 IntegerSubExact</text>
</g>
<!-- node1386&#45;&gt;node1389 -->
<g id="edge18" class="edge">
<title>node1386&#45;&gt;node1389</title>
<path fill="none" stroke="#3cb4a4" d="M513.23,-260.9C490.36,-250.43 459.87,-237.3 432,-228 405.57,-219.18 375.71,-211.53 350.14,-205.64"/>
<polygon fill="#3cb4a4" stroke="#3cb4a4" points="350.73,-202.19 340.2,-203.4 349.19,-209.02 350.73,-202.19"/>
<text text-anchor="middle" x="488.5" y="-231.8" font-family="arial" font-size="14.00" fill="#3cb4a4">guard</text>
</g>
<!-- node1491 -->
<g id="node13" class="node">
<title>node1491</title>
<polygon fill="#e98693" stroke="black" points="587,-210 483,-210 483,-174 587,-174 587,-210"/>
<text text-anchor="middle" x="535" y="-188.3" font-family="Arial" font-size="14.00" fill="#1a1919">1491 LoopEnd</text>
</g>
<!-- node1386&#45;&gt;node1491 -->
<g id="edge13" class="edge">
<title>node1386&#45;&gt;node1491</title>
<path fill="none" stroke="#da2d4f" stroke-width="2" d="M546.17,-260.8C544.25,-249.16 541.68,-233.55 539.49,-220.24"/>
<polygon fill="#da2d4f" stroke="#da2d4f" stroke-width="2" points="542.91,-219.47 537.83,-210.18 536,-220.61 542.91,-219.47"/>
</g>
<!-- node1387 -->
<g id="node10" class="node">
<title>node1387</title>
<polygon fill="#3cb4a4" stroke="black" points="615,-36 427.48,-18 615,0 802.52,-18 615,-36"/>
<text text-anchor="middle" x="615" y="-14.3" font-family="Arial" font-size="14.00" fill="#1a1919">1387 IntegerSubExactOverflow</text>
</g>
<!-- node1387&#45;&gt;node1386 -->
<g id="edge12" class="edge">
<title>node1387&#45;&gt;node1386</title>
<path fill="none" stroke="#3cb4a4" d="M616.09,-35.98C617.7,-70.11 618.4,-149 596,-210 590.29,-225.54 580.18,-240.89 570.8,-253.06"/>
<polygon fill="#3cb4a4" stroke="#3cb4a4" points="568,-250.94 564.48,-260.94 573.47,-255.32 568,-250.94"/>
<text text-anchor="middle" x="616" y="-144.8" font-family="arial" font-size="14.00" fill="#3cb4a4">?</text>
</g>
<!-- node1389&#45;&gt;node1609 -->
<g id="edge23" class="edge">
<title>node1389&#45;&gt;node1609</title>
<path fill="none" stroke="#3cb4a4" d="M283.22,-174.61C279.02,-162.73 273.26,-146.41 268.41,-132.67"/>
<polygon fill="#3cb4a4" stroke="#3cb4a4" points="271.7,-131.48 265.08,-123.21 265.1,-133.81 271.7,-131.48"/>
<text text-anchor="middle" x="306" y="-144.8" font-family="arial" font-size="14.00" fill="#3cb4a4">from 1491</text>
</g>
<!-- node1486&#45;&gt;node1618 -->
<g id="edge19" class="edge">
<title>node1486&#45;&gt;node1618</title>
<path fill="none" stroke="#da2d4f" stroke-width="2" d="M454.97,-420.99C474.96,-411.27 500.22,-398.99 521.6,-388.59"/>
<polygon fill="#da2d4f" stroke="#da2d4f" stroke-width="2" points="523.35,-391.63 530.81,-384.11 520.29,-385.34 523.35,-391.63"/>
</g>
<!-- node1587 -->
<g id="node14" class="node">
<title>node1587</title>
<polygon fill="#e98693" stroke="black" points="791.5,-297 700.5,-297 700.5,-261 791.5,-261 791.5,-297"/>
<text text-anchor="middle" x="746" y="-275.3" font-family="Arial" font-size="14.00" fill="#1a1919">1587 Return</text>
</g>
<!-- node1609&#45;&gt;node973 -->
<g id="edge4" class="edge">
<title>node1609&#45;&gt;node973</title>
<path fill="none" stroke="#3cb4a4" d="M243.42,-86.8C230.96,-73.05 213.47,-53.74 200.34,-39.24"/>
<polygon fill="#3cb4a4" stroke="#3cb4a4" points="202.86,-36.81 193.55,-31.75 197.67,-41.51 202.86,-36.81"/>
<text text-anchor="middle" x="228.5" y="-57.8" font-family="arial" font-size="14.00" fill="#3cb4a4">x</text>
</g>
<!-- node1609&#45;&gt;node1123 -->
<g id="edge10" class="edge">
<title>node1609&#45;&gt;node1123</title>
<path fill="none" stroke="#3cb4a4" d="M288.01,-107.54C328.98,-111.46 402.54,-125.3 436,-174 445.06,-187.19 444.75,-196.6 436,-210 425.12,-226.66 406.3,-211.62 395,-228 372.47,-260.64 376.29,-308.8 381.71,-338.47"/>
<polygon fill="#3cb4a4" stroke="#3cb4a4" points="378.33,-339.39 383.74,-348.5 385.19,-338 378.33,-339.39"/>
<text text-anchor="middle" x="411.5" y="-231.8" font-family="arial" font-size="14.00" fill="#3cb4a4">value</text>
</g>
<!-- node1609&#45;&gt;node1387 -->
<g id="edge14" class="edge">
<title>node1609&#45;&gt;node1387</title>
<path fill="none" stroke="#3cb4a4" d="M288.13,-97.04C345.98,-83.23 476.43,-52.09 553.9,-33.59"/>
<polygon fill="#3cb4a4" stroke="#3cb4a4" points="555.09,-36.9 564.01,-31.18 553.47,-30.09 555.09,-36.9"/>
<text text-anchor="middle" x="461.5" y="-57.8" font-family="arial" font-size="14.00" fill="#3cb4a4">x</text>
</g>
<!-- node1609&#45;&gt;node1389 -->
<g id="edge16" class="edge">
<title>node1609&#45;&gt;node1389</title>
<path fill="none" stroke="#3cb4a4" d="M257.57,-123.18C257.34,-133.08 258.09,-145.58 262,-156 263.51,-160.04 265.67,-164 268.1,-167.71"/>
<polygon fill="#3cb4a4" stroke="#3cb4a4" points="265.37,-169.9 274.14,-175.86 271,-165.74 265.37,-169.9"/>
<text text-anchor="middle" x="265.5" y="-144.8" font-family="arial" font-size="14.00" fill="#3cb4a4">x</text>
</g>
<!-- node1618&#45;&gt;node1587 -->
<g id="edge20" class="edge">
<title>node1618&#45;&gt;node1587</title>
<path fill="none" stroke="#3cb4a4" d="M602.43,-347.8C630.82,-334.39 670.4,-315.7 700.81,-301.34"/>
<polygon fill="#3cb4a4" stroke="#3cb4a4" points="702.39,-304.47 709.94,-297.03 699.4,-298.14 702.39,-304.47"/>
<text text-anchor="middle" x="683" y="-318.8" font-family="arial" font-size="14.00" fill="#3cb4a4">result</text>
</g>
<!-- node1618&#45;&gt;node1587 -->
<g id="edge25" class="edge">
<title>node1618&#45;&gt;node1587</title>
<path fill="none" stroke="#da2d4f" stroke-width="2" d="M663.8,-348.37C677.89,-343.68 691.75,-337.68 704,-330 713.9,-323.79 722.63,-314.48 729.54,-305.57"/>
<polygon fill="#da2d4f" stroke="#da2d4f" stroke-width="2" points="732.53,-307.41 735.58,-297.26 726.87,-303.29 732.53,-307.41"/>
</g>
<!-- node1619&#45;&gt;node532 -->
<g id="edge29" class="edge">
<title>node1619&#45;&gt;node532</title>
<path fill="none" stroke="#da2d4f" stroke-width="2" d="M75.07,-821.86C81.88,-811.3 90.75,-797.56 98.4,-785.71"/>
<polygon fill="#da2d4f" stroke="#da2d4f" stroke-width="2" points="101.47,-787.41 103.96,-777.11 95.59,-783.61 101.47,-787.41"/>
</g>
<!-- inline23x973 -->
<g id="node18" class="node">
<title>inline23x973</title>
<ellipse fill="#d7ede7" stroke="black" cx="182" cy="-105" rx="27" ry="18"/>
<text text-anchor="middle" x="182" y="-103.1" font-family="Arial" font-size="8.00" fill="#1a1919">23 C(1)</text>
</g>
<!-- inline23x973&#45;&gt;node973 -->
<g id="edge5" class="edge">
<title>inline23x973&#45;&gt;node973</title>
<path fill="none" stroke="#3cb4a4" d="M182,-86.8C182,-72.05 182,-50.92 182,-36.18"/>
<text text-anchor="middle" x="184" y="-59.6" font-family="arial" font-size="8.00" fill="#3cb4a4">y</text>
</g>
<!-- inline23x1387 -->
<g id="node19" class="node">
<title>inline23x1387</title>
<ellipse fill="#d7ede7" stroke="black" cx="670" cy="-105" rx="27" ry="18"/>
<text text-anchor="middle" x="670" y="-103.1" font-family="Arial" font-size="8.00" fill="#1a1919">23 C(1)</text>
</g>
<!-- inline23x1387&#45;&gt;node1387 -->
<g id="edge15" class="edge">
<title>inline23x1387&#45;&gt;node1387</title>
<path fill="none" stroke="#3cb4a4" d="M659.65,-88.01C649.88,-72.91 635.3,-50.38 625.49,-35.21"/>
<text text-anchor="middle" x="647" y="-59.6" font-family="arial" font-size="8.00" fill="#3cb4a4">y</text>
</g>
<!-- inline23x1389 -->
<g id="node20" class="node">
<title>inline23x1389</title>
<ellipse fill="#d7ede7" stroke="black" cx="289" cy="-279" rx="27" ry="18"/>
<text text-anchor="middle" x="289" y="-277.1" font-family="Arial" font-size="8.00" fill="#1a1919">23 C(1)</text>
</g>
<!-- inline23x1389&#45;&gt;node1389 -->
<g id="edge17" class="edge">
<title>inline23x1389&#45;&gt;node1389</title>
<path fill="none" stroke="#3cb4a4" d="M289,-260.8C289,-246.05 289,-224.92 289,-210.18"/>
<text text-anchor="middle" x="291" y="-233.6" font-family="arial" font-size="8.00" fill="#3cb4a4">y</text>
</g>
<!-- inline161x532 -->
<g id="node21" class="node">
<title>inline161x532</title>
<ellipse fill="#d7ede7" stroke="black" cx="166" cy="-840" rx="27.46" ry="18"/>
<text text-anchor="middle" x="166" y="-838.1" font-family="Arial" font-size="8.00" fill="#1a1919">161 T(7)</text>
</g>
<!-- inline161x532&#45;&gt;node532 -->
<g id="edge26" class="edge">
<title>inline161x532&#45;&gt;node532</title>
<path fill="none" stroke="#3cb4a4" d="M155.68,-823.01C147.06,-809.67 134.81,-790.69 126.01,-777.06"/>
<text text-anchor="middle" x="151.5" y="-797.6" font-family="arial" font-size="8.00" fill="#3cb4a4">value</text>
</g>
<!-- inline2x1619 -->
<g id="node22" class="node">
<title>inline2x1619</title>
<ellipse fill="#d7ede7" stroke="black" cx="101" cy="-921" rx="27" ry="18"/>
<text text-anchor="middle" x="101" y="-919.1" font-family="Arial" font-size="8.00" fill="#1a1919">2 P(1)</text>
</g>
<!-- inline2x1619&#45;&gt;node1619 -->
<g id="edge27" class="edge">
<title>inline2x1619&#45;&gt;node1619</title>
<path fill="none" stroke="#3cb4a4" d="M93.33,-903.63C87.11,-890.34 78.36,-871.67 72.04,-858.17"/>
<text text-anchor="middle" x="92.5" y="-878.6" font-family="arial" font-size="8.00" fill="#3cb4a4">array</text>
</g>
</g>
</svg>
