<?xml version="1.0" encoding="UTF-8" standalone="no"?>
<!DOCTYPE svg PUBLIC "-//W3C//DTD SVG 1.1//EN"
 "http://www.w3.org/Graphics/SVG/1.1/DTD/svg11.dtd">
<!-- Generated by graphviz version 2.44.1 (20200629.0846)
 -->
<!-- Title: G Pages: 1 -->
<svg width="951pt" height="1034pt"
 viewBox="0.00 0.00 950.78 1034.00" xmlns="http://www.w3.org/2000/svg" xmlns:xlink="http://www.w3.org/1999/xlink">
<g id="graph0" class="graph" transform="scale(1 1) rotate(0) translate(4 1030)">
<title>G</title>
<!-- node0 -->
<g id="node1" class="node">
<title>node0</title>
<polygon fill="#e98693" stroke="black" points="203.78,-1026 147.78,-1026 147.78,-990 203.78,-990 203.78,-1026"/>
<text text-anchor="middle" x="175.78" y="-1004.3" font-family="Arial" font-size="14.00" fill="#1a1919">0 Start</text>
</g>
<!-- node2116 -->
<g id="node20" class="node">
<title>node2116</title>
<polygon fill="#da2d4f" stroke="black" points="268.78,-945 156.78,-945 156.78,-909 268.78,-909 268.78,-945"/>
<text text-anchor="middle" x="212.78" y="-923.3" font-family="Arial" font-size="14.00" fill="#ffffff">2116 Load T(...)</text>
</g>
<!-- node0&#45;&gt;node2116 -->
<g id="edge33" class="edge">
<title>node0&#45;&gt;node2116</title>
<path fill="none" stroke="#da2d4f" stroke-width="2" d="M183.8,-989.86C188.65,-979.51 194.93,-966.1 200.4,-954.41"/>
<polygon fill="#da2d4f" stroke="#da2d4f" stroke-width="2" points="203.69,-955.65 204.76,-945.11 197.35,-952.68 203.69,-955.65"/>
</g>
<!-- node528 -->
<g id="node2" class="node">
<title>node528</title>
<polygon fill="#f9f9f9" stroke="black" points="289.78,-864 207.78,-864 207.78,-828 289.78,-828 289.78,-864"/>
<text text-anchor="middle" x="248.78" y="-842.3" font-family="Arial" font-size="14.00" fill="#1a1919">528 Unbox</text>
</g>
<!-- node2074 -->
<g id="node16" class="node">
<title>node2074</title>
<polygon fill="#ffa500" stroke="black" points="374.28,-777 123.28,-777 123.28,-741 374.28,-741 374.28,-777"/>
<text text-anchor="middle" x="248.78" y="-755.3" font-family="Arial" font-size="14.00" fill="#1a1919">2074 Guard, else TransferToInterpreter</text>
</g>
<!-- node528&#45;&gt;node2074 -->
<g id="edge1" class="edge">
<title>node528&#45;&gt;node2074</title>
<path fill="none" stroke="#da2d4f" stroke-width="2" d="M248.78,-827.8C248.78,-816.16 248.78,-800.55 248.78,-787.24"/>
<polygon fill="#da2d4f" stroke="#da2d4f" stroke-width="2" points="252.28,-787.18 248.78,-777.18 245.28,-787.18 252.28,-787.18"/>
</g>
<!-- node2101 -->
<g id="node18" class="node">
<title>node2101</title>
<polygon fill="#f9f9f9" stroke="black" points="590.78,-123 532.78,-123 532.78,-87 590.78,-87 590.78,-123"/>
<text text-anchor="middle" x="561.78" y="-101.3" font-family="Arial" font-size="14.00" fill="#1a1919">2101 ϕ</text>
</g>
<!-- node528&#45;&gt;node2101 -->
<g id="edge25" class="edge">
<title>node528&#45;&gt;node2101</title>
<path fill="none" stroke="#3cb4a4" d="M290.21,-843.86C431.81,-839.44 887.78,-820.5 887.78,-760 887.78,-760 887.78,-760 887.78,-191 887.78,-158.62 864.13,-154.67 834.78,-141 771.91,-111.71 748.55,-131.95 679.78,-123 653.43,-119.57 623.84,-115.31 600.89,-111.91"/>
<polygon fill="#3cb4a4" stroke="#3cb4a4" points="601.25,-108.42 590.84,-110.41 600.22,-115.35 601.25,-108.42"/>
<text text-anchor="middle" x="915.28" y="-492.8" font-family="arial" font-size="14.00" fill="#3cb4a4">from 809</text>
</g>
<!-- node2115 -->
<g id="node19" class="node">
<title>node2115</title>
<polygon fill="#f9f9f9" stroke="black" points="212.78,-384 18.78,-384 18.78,-348 212.78,-348 212.78,-384"/>
<text text-anchor="middle" x="115.78" y="-362.3" font-family="Arial" font-size="14.00" fill="#1a1919">2115 BoxNode$AllocatingBox</text>
</g>
<!-- node528&#45;&gt;node2115 -->
<g id="edge27" class="edge">
<title>node528&#45;&gt;node2115</title>
<path fill="none" stroke="#3cb4a4" d="M207.64,-840.26C161.73,-832.42 93.78,-812.02 93.78,-760 93.78,-760 93.78,-760 93.78,-452 93.78,-432.06 99.52,-410.29 105.14,-393.78"/>
<polygon fill="#3cb4a4" stroke="#3cb4a4" points="108.48,-394.84 108.57,-384.24 101.89,-392.47 108.48,-394.84"/>
<text text-anchor="middle" x="110.28" y="-609.3" font-family="arial" font-size="14.00" fill="#3cb4a4">value</text>
</g>
<!-- node603 -->
<g id="node3" class="node">
<title>node603</title>
<polygon fill="#3cb4a4" stroke="black" points="70.78,-864 0.22,-846 70.78,-828 141.33,-846 70.78,-864"/>
<text text-anchor="middle" x="70.78" y="-842.3" font-family="Arial" font-size="14.00" fill="#1a1919">603 IsNull</text>
</g>
<!-- node603&#45;&gt;node2074 -->
<g id="edge20" class="edge">
<title>node603&#45;&gt;node2074</title>
<path fill="none" stroke="#3cb4a4" d="M94.05,-833.89C121.81,-820.63 168.87,-798.16 203.82,-781.47"/>
<polygon fill="#3cb4a4" stroke="#3cb4a4" points="205.36,-784.61 212.87,-777.15 202.34,-778.3 205.36,-784.61"/>
<text text-anchor="middle" x="174.78" y="-798.8" font-family="arial" font-size="14.00" fill="#3cb4a4">?</text>
</g>
<!-- node809 -->
<g id="node4" class="node">
<title>node809</title>
<polygon fill="#e98693" stroke="black" points="284.28,-704 217.28,-704 217.28,-668 284.28,-668 284.28,-704"/>
<text text-anchor="middle" x="250.78" y="-682.3" font-family="Arial" font-size="14.00" fill="#1a1919">809 End</text>
</g>
<!-- node810 -->
<g id="node5" class="node">
<title>node810</title>
<polygon fill="#e98693" stroke="black" points="307.28,-631 200.28,-631 200.28,-595 307.28,-595 307.28,-631"/>
<text text-anchor="middle" x="253.78" y="-609.3" font-family="Arial" font-size="14.00" fill="#1a1919">810 LoopBegin</text>
</g>
<!-- node809&#45;&gt;node810 -->
<g id="edge2" class="edge">
<title>node809&#45;&gt;node810</title>
<path fill="none" stroke="#da2d4f" stroke-width="2" d="M251.5,-667.81C251.84,-659.79 252.25,-650.05 252.63,-641.07"/>
<polygon fill="#da2d4f" stroke="#da2d4f" stroke-width="2" points="256.13,-641.17 253.06,-631.03 249.14,-640.87 256.13,-641.17"/>
</g>
<!-- node1027 -->
<g id="node7" class="node">
<title>node1027</title>
<polygon fill="#e98693" stroke="black" points="282.78,-558 224.78,-558 224.78,-522 282.78,-522 282.78,-558"/>
<text text-anchor="middle" x="253.78" y="-536.3" font-family="Arial" font-size="14.00" fill="#1a1919">1027 If</text>
</g>
<!-- node810&#45;&gt;node1027 -->
<g id="edge3" class="edge">
<title>node810&#45;&gt;node1027</title>
<path fill="none" stroke="#da2d4f" stroke-width="2" d="M253.78,-594.81C253.78,-586.79 253.78,-577.05 253.78,-568.07"/>
<polygon fill="#da2d4f" stroke="#da2d4f" stroke-width="2" points="257.28,-568.03 253.78,-558.03 250.28,-568.03 257.28,-568.03"/>
</g>
<!-- node810&#45;&gt;node2101 -->
<g id="edge24" class="edge">
<title>node810&#45;&gt;node2101</title>
<path fill="none" stroke="#343d46" stroke-dasharray="5,2" d="M317.48,-604.68C355.24,-596.38 395.78,-578.7 395.78,-541 395.78,-541 395.78,-541 395.78,-191 395.78,-130.29 484.82,-112.91 532.48,-107.96"/>
<polygon fill="#343d46" stroke="#343d46" points="316.58,-601.29 307.46,-606.68 317.95,-608.15 316.58,-601.29"/>
</g>
<!-- node988 -->
<g id="node6" class="node">
<title>node988</title>
<polygon fill="#3cb4a4" stroke="black" points="413.78,-36 367.02,-18 413.78,0 460.53,-18 413.78,-36"/>
<text text-anchor="middle" x="413.78" y="-14.3" font-family="Arial" font-size="14.00" fill="#1a1919">988 &lt;</text>
</g>
<!-- node988&#45;&gt;node1027 -->
<g id="edge6" class="edge">
<title>node988&#45;&gt;node1027</title>
<path fill="none" stroke="#3cb4a4" d="M377.87,-22.33C330.69,-28.9 253.78,-48.17 253.78,-104 253.78,-454 253.78,-454 253.78,-454 253.78,-473.25 253.78,-494.95 253.78,-511.6"/>
<polygon fill="#3cb4a4" stroke="#3cb4a4" points="250.28,-511.74 253.78,-521.74 257.28,-511.74 250.28,-511.74"/>
<text text-anchor="middle" x="257.78" y="-275.3" font-family="arial" font-size="14.00" fill="#3cb4a4">?</text>
</g>
<!-- node1030 -->
<g id="node8" class="node">
<title>node1030</title>
<polygon fill="#e98693" stroke="black" points="367.28,-471 282.28,-471 282.28,-435 367.28,-435 367.28,-471"/>
<text text-anchor="middle" x="324.78" y="-449.3" font-family="Arial" font-size="14.00" fill="#1a1919">1030 Begin</text>
</g>
<!-- node1027&#45;&gt;node1030 -->
<g id="edge8" class="edge">
<title>node1027&#45;&gt;node1030</title>
<path fill="none" stroke="#da2d4f" stroke-width="2" d="M268.14,-521.8C278.44,-509.47 292.47,-492.68 303.98,-478.89"/>
<polygon fill="#da2d4f" stroke="#da2d4f" stroke-width="2" points="306.7,-481.09 310.43,-471.18 301.33,-476.61 306.7,-481.09"/>
<text text-anchor="middle" x="297.28" y="-492.8" font-family="arial" font-size="14.00" fill="#da2d4f">F</text>
</g>
<!-- node1885 -->
<g id="node13" class="node">
<title>node1885</title>
<polygon fill="#e98693" stroke="black" points="225.28,-471 122.28,-471 122.28,-435 225.28,-435 225.28,-471"/>
<text text-anchor="middle" x="173.78" y="-449.3" font-family="Arial" font-size="14.00" fill="#1a1919">1885 LoopExit</text>
</g>
<!-- node1027&#45;&gt;node1885 -->
<g id="edge7" class="edge">
<title>node1027&#45;&gt;node1885</title>
<path fill="none" stroke="#da2d4f" stroke-width="2" d="M237.59,-521.8C225.87,-509.36 209.88,-492.36 196.84,-478.5"/>
<polygon fill="#da2d4f" stroke="#da2d4f" stroke-width="2" points="199.34,-476.06 189.94,-471.18 194.25,-480.86 199.34,-476.06"/>
<text text-anchor="middle" x="223.28" y="-492.8" font-family="arial" font-size="14.00" fill="#da2d4f">T</text>
</g>
<!-- node2079 -->
<g id="node17" class="node">
<title>node2079</title>
<polygon fill="#ffa500" stroke="black" points="766.28,-384 515.28,-384 515.28,-348 766.28,-348 766.28,-384"/>
<text text-anchor="middle" x="640.78" y="-362.3" font-family="Arial" font-size="14.00" fill="#1a1919">2079 Guard, else TransferToInterpreter</text>
</g>
<!-- node1030&#45;&gt;node2079 -->
<g id="edge9" class="edge">
<title>node1030&#45;&gt;node2079</title>
<path fill="none" stroke="#da2d4f" stroke-width="2" d="M367.39,-440.54C418.64,-426.75 505.51,-403.38 567.57,-386.69"/>
<polygon fill="#da2d4f" stroke="#da2d4f" stroke-width="2" points="568.56,-390.05 577.31,-384.07 566.74,-383.29 568.56,-390.05"/>
</g>
<!-- node1267 -->
<g id="node9" class="node">
<title>node1267</title>
<polygon fill="#3cb4a4" stroke="black" points="640.78,-471 579.11,-453 640.78,-435 702.44,-453 640.78,-471"/>
<text text-anchor="middle" x="640.78" y="-449.3" font-family="Arial" font-size="14.00" fill="#1a1919">1267 ==</text>
</g>
<!-- node1267&#45;&gt;node2079 -->
<g id="edge22" class="edge">
<title>node1267&#45;&gt;node2079</title>
<path fill="none" stroke="#3cb4a4" d="M640.78,-434.8C640.78,-423.16 640.78,-407.55 640.78,-394.24"/>
<polygon fill="#3cb4a4" stroke="#3cb4a4" points="644.28,-394.18 640.78,-384.18 637.28,-394.18 644.28,-394.18"/>
<text text-anchor="middle" x="644.78" y="-405.8" font-family="arial" font-size="14.00" fill="#3cb4a4">?</text>
</g>
<!-- node1785 -->
<g id="node10" class="node">
<title>node1785</title>
<polygon fill="#ffa500" stroke="black" points="859.78,-297 593.78,-297 593.78,-261 859.78,-261 859.78,-297"/>
<text text-anchor="middle" x="726.78" y="-275.3" font-family="Arial" font-size="14.00" fill="#1a1919">1785 Guard not, else ArithmeticException</text>
</g>
<!-- node1788 -->
<g id="node12" class="node">
<title>node1788</title>
<polygon fill="#3cb4a4" stroke="black" points="561.78,-210 424.03,-192 561.78,-174 699.52,-192 561.78,-210"/>
<text text-anchor="middle" x="561.78" y="-188.3" font-family="Arial" font-size="14.00" fill="#1a1919">1788 IntegerSubExact</text>
</g>
<!-- node1785&#45;&gt;node1788 -->
<g id="edge17" class="edge">
<title>node1785&#45;&gt;node1788</title>
<path fill="none" stroke="#3cb4a4" d="M693.38,-260.8C665.55,-246.46 625.99,-226.08 597.52,-211.41"/>
<polygon fill="#3cb4a4" stroke="#3cb4a4" points="598.82,-208.14 588.32,-206.68 595.61,-214.37 598.82,-208.14"/>
<text text-anchor="middle" x="671.28" y="-231.8" font-family="arial" font-size="14.00" fill="#3cb4a4">guard</text>
</g>
<!-- node1890 -->
<g id="node14" class="node">
<title>node1890</title>
<polygon fill="#e98693" stroke="black" points="821.78,-210 717.78,-210 717.78,-174 821.78,-174 821.78,-210"/>
<text text-anchor="middle" x="769.78" y="-188.3" font-family="Arial" font-size="14.00" fill="#1a1919">1890 LoopEnd</text>
</g>
<!-- node1785&#45;&gt;node1890 -->
<g id="edge12" class="edge">
<title>node1785&#45;&gt;node1890</title>
<path fill="none" stroke="#da2d4f" stroke-width="2" d="M735.48,-260.8C741.48,-248.93 749.58,-232.93 756.4,-219.45"/>
<polygon fill="#da2d4f" stroke="#da2d4f" stroke-width="2" points="759.7,-220.68 761.09,-210.18 753.45,-217.52 759.7,-220.68"/>
</g>
<!-- node1786 -->
<g id="node11" class="node">
<title>node1786</title>
<polygon fill="#3cb4a4" stroke="black" points="715.78,-36 528.26,-18 715.78,0 903.29,-18 715.78,-36"/>
<text text-anchor="middle" x="715.78" y="-14.3" font-family="Arial" font-size="14.00" fill="#1a1919">1786 IntegerSubExactOverflow</text>
</g>
<!-- node1786&#45;&gt;node1785 -->
<g id="edge11" class="edge">
<title>node1786&#45;&gt;node1785</title>
<path fill="none" stroke="#3cb4a4" d="M732.92,-34.57C759.93,-60.41 811.32,-115.14 830.78,-174 835.8,-189.19 838.39,-195.93 830.78,-210 819.83,-230.24 799.95,-245.42 780.48,-256.24"/>
<polygon fill="#3cb4a4" stroke="#3cb4a4" points="778.82,-253.16 771.6,-260.91 782.08,-259.35 778.82,-253.16"/>
<text text-anchor="middle" x="826.78" y="-144.8" font-family="arial" font-size="14.00" fill="#3cb4a4">?</text>
</g>
<!-- node1788&#45;&gt;node2101 -->
<g id="edge26" class="edge">
<title>node1788&#45;&gt;node2101</title>
<path fill="none" stroke="#3cb4a4" d="M561.78,-173.8C561.78,-162.16 561.78,-146.55 561.78,-133.24"/>
<polygon fill="#3cb4a4" stroke="#3cb4a4" points="565.28,-133.18 561.78,-123.18 558.28,-133.18 565.28,-133.18"/>
<text text-anchor="middle" x="592.78" y="-144.8" font-family="arial" font-size="14.00" fill="#3cb4a4">from 1890</text>
</g>
<!-- node1885&#45;&gt;node2115 -->
<g id="edge18" class="edge">
<title>node1885&#45;&gt;node2115</title>
<path fill="none" stroke="#da2d4f" stroke-width="2" d="M162.04,-434.8C153.78,-422.7 142.59,-406.3 133.29,-392.67"/>
<polygon fill="#da2d4f" stroke="#da2d4f" stroke-width="2" points="136.02,-390.46 127.49,-384.18 130.24,-394.41 136.02,-390.46"/>
</g>
<!-- node1986 -->
<g id="node15" class="node">
<title>node1986</title>
<polygon fill="#e98693" stroke="black" points="194.28,-297 103.28,-297 103.28,-261 194.28,-261 194.28,-297"/>
<text text-anchor="middle" x="148.78" y="-275.3" font-family="Arial" font-size="14.00" fill="#1a1919">1986 Return</text>
</g>
<!-- node2074&#45;&gt;node809 -->
<g id="edge21" class="edge">
<title>node2074&#45;&gt;node809</title>
<path fill="none" stroke="#da2d4f" stroke-width="2" d="M249.26,-740.81C249.49,-732.79 249.76,-723.05 250.01,-714.07"/>
<polygon fill="#da2d4f" stroke="#da2d4f" stroke-width="2" points="253.51,-714.12 250.3,-704.03 246.52,-713.93 253.51,-714.12"/>
</g>
<!-- node2079&#45;&gt;node1785 -->
<g id="edge23" class="edge">
<title>node2079&#45;&gt;node1785</title>
<path fill="none" stroke="#da2d4f" stroke-width="2" d="M658.18,-347.8C670.77,-335.36 687.96,-318.36 701.98,-304.5"/>
<polygon fill="#da2d4f" stroke="#da2d4f" stroke-width="2" points="704.75,-306.69 709.4,-297.18 699.82,-301.72 704.75,-306.69"/>
</g>
<!-- node2101&#45;&gt;node988 -->
<g id="edge4" class="edge">
<title>node2101&#45;&gt;node988</title>
<path fill="none" stroke="#3cb4a4" d="M532.54,-87.21C505.83,-71.87 466.65,-49.37 440.7,-34.46"/>
<polygon fill="#3cb4a4" stroke="#3cb4a4" points="442.19,-31.29 431.78,-29.34 438.71,-37.36 442.19,-31.29"/>
<text text-anchor="middle" x="499.28" y="-57.8" font-family="arial" font-size="14.00" fill="#3cb4a4">x</text>
</g>
<!-- node2101&#45;&gt;node1786 -->
<g id="edge13" class="edge">
<title>node2101&#45;&gt;node1786</title>
<path fill="none" stroke="#3cb4a4" d="M591.1,-87.81C616.59,-73.75 653.55,-53.34 680.61,-38.41"/>
<polygon fill="#3cb4a4" stroke="#3cb4a4" points="682.32,-41.46 689.38,-33.57 678.94,-35.34 682.32,-41.46"/>
<text text-anchor="middle" x="651.28" y="-57.8" font-family="arial" font-size="14.00" fill="#3cb4a4">x</text>
</g>
<!-- node2101&#45;&gt;node1788 -->
<g id="edge15" class="edge">
<title>node2101&#45;&gt;node1788</title>
<path fill="none" stroke="#3cb4a4" d="M554.2,-123C550.8,-132.62 547.93,-144.9 549.78,-156 550.26,-158.91 550.96,-161.9 551.78,-164.86"/>
<polygon fill="#3cb4a4" stroke="#3cb4a4" points="548.5,-166.1 554.89,-174.56 555.17,-163.97 548.5,-166.1"/>
<text text-anchor="middle" x="553.28" y="-144.8" font-family="arial" font-size="14.00" fill="#3cb4a4">x</text>
</g>
<!-- node2115&#45;&gt;node1986 -->
<g id="edge19" class="edge">
<title>node2115&#45;&gt;node1986</title>
<path fill="none" stroke="#3cb4a4" d="M111.58,-347.71C110.02,-337.77 109.52,-325.27 113.78,-315 115.24,-311.46 117.26,-308.09 119.6,-304.93"/>
<polygon fill="#3cb4a4" stroke="#3cb4a4" points="122.45,-306.99 126.35,-297.14 117.16,-302.41 122.45,-306.99"/>
<text text-anchor="middle" x="130.78" y="-318.8" font-family="arial" font-size="14.00" fill="#3cb4a4">result</text>
</g>
<!-- node2115&#45;&gt;node1986 -->
<g id="edge28" class="edge">
<title>node2115&#45;&gt;node1986</title>
<path fill="none" stroke="#da2d4f" stroke-width="2" d="M135.89,-347.89C140.67,-342.68 145.15,-336.57 147.78,-330 150.58,-322.99 151.59,-314.96 151.71,-307.43"/>
<polygon fill="#da2d4f" stroke="#da2d4f" stroke-width="2" points="155.2,-307.14 151.37,-297.26 148.21,-307.37 155.2,-307.14"/>
</g>
<!-- node2116&#45;&gt;node528 -->
<g id="edge34" class="edge">
<title>node2116&#45;&gt;node528</title>
<path fill="none" stroke="#da2d4f" stroke-width="2" d="M220.59,-908.86C225.3,-898.51 231.41,-885.1 236.74,-873.41"/>
<polygon fill="#da2d4f" stroke="#da2d4f" stroke-width="2" points="240.02,-874.66 240.98,-864.11 233.65,-871.76 240.02,-874.66"/>
</g>
<!-- inline23x988 -->
<g id="node21" class="node">
<title>inline23x988</title>
<ellipse fill="#d7ede7" stroke="black" cx="413.78" cy="-105" rx="27" ry="18"/>
<text text-anchor="middle" x="413.78" y="-103.1" font-family="Arial" font-size="8.00" fill="#1a1919">23 C(1)</text>
</g>
<!-- inline23x988&#45;&gt;node988 -->
<g id="edge5" class="edge">
<title>inline23x988&#45;&gt;node988</title>
<path fill="none" stroke="#3cb4a4" d="M413.78,-86.8C413.78,-72.05 413.78,-50.92 413.78,-36.18"/>
<text text-anchor="middle" x="415.78" y="-59.6" font-family="arial" font-size="8.00" fill="#3cb4a4">y</text>
</g>
<!-- inline1265x1267 -->
<g id="node22" class="node">
<title>inline1265x1267</title>
<ellipse fill="#d7ede7" stroke="black" cx="728.78" cy="-540" rx="86.57" ry="18"/>
<text text-anchor="middle" x="728.78" y="-538.1" font-family="Arial" font-size="8.00" fill="#1a1919">1265 C(RubyBasicObject@414ae92d)</text>
</g>
<!-- inline1265x1267&#45;&gt;node1267 -->
<g id="edge10" class="edge">
<title>inline1265x1267&#45;&gt;node1267</title>
<path fill="none" stroke="#3cb4a4" d="M711.39,-522.21C694.66,-506.05 669.71,-481.95 654.38,-467.14"/>
<text text-anchor="middle" x="691.78" y="-494.6" font-family="arial" font-size="8.00" fill="#3cb4a4">y</text>
</g>
<!-- inline23x1786 -->
<g id="node23" class="node">
<title>inline23x1786</title>
<ellipse fill="#d7ede7" stroke="black" cx="715.78" cy="-105" rx="27" ry="18"/>
<text text-anchor="middle" x="715.78" y="-103.1" font-family="Arial" font-size="8.00" fill="#1a1919">23 C(1)</text>
</g>
<!-- inline23x1786&#45;&gt;node1786 -->
<g id="edge14" class="edge">
<title>inline23x1786&#45;&gt;node1786</title>
<path fill="none" stroke="#3cb4a4" d="M715.78,-86.8C715.78,-72.05 715.78,-50.92 715.78,-36.18"/>
<text text-anchor="middle" x="717.78" y="-59.6" font-family="arial" font-size="8.00" fill="#3cb4a4">y</text>
</g>
<!-- inline23x1788 -->
<g id="node24" class="node">
<title>inline23x1788</title>
<ellipse fill="#d7ede7" stroke="black" cx="548.78" cy="-279" rx="27" ry="18"/>
<text text-anchor="middle" x="548.78" y="-277.1" font-family="Arial" font-size="8.00" fill="#1a1919">23 C(1)</text>
</g>
<!-- inline23x1788&#45;&gt;node1788 -->
<g id="edge16" class="edge">
<title>inline23x1788&#45;&gt;node1788</title>
<path fill="none" stroke="#3cb4a4" d="M551.41,-260.8C553.68,-245.95 556.94,-224.64 559.19,-209.89"/>
<text text-anchor="middle" x="557.78" y="-233.6" font-family="arial" font-size="8.00" fill="#3cb4a4">y</text>
</g>
<!-- inline125x1267 -->
<g id="node25" class="node">
<title>inline125x1267</title>
<ellipse fill="#d7ede7" stroke="black" cx="596.78" cy="-540" rx="27.46" ry="18"/>
<text text-anchor="middle" x="596.78" y="-538.1" font-family="Arial" font-size="8.00" fill="#1a1919">125 T(5)</text>
</g>
<!-- inline125x1267&#45;&gt;node1267 -->
<g id="edge29" class="edge">
<title>inline125x1267&#45;&gt;node1267</title>
<path fill="none" stroke="#3cb4a4" d="M605.26,-522.61C613.3,-507.08 625.27,-483.94 633.05,-468.92"/>
<text text-anchor="middle" x="622.78" y="-494.6" font-family="arial" font-size="8.00" fill="#3cb4a4">x</text>
</g>
<!-- inline143x603 -->
<g id="node26" class="node">
<title>inline143x603</title>
<ellipse fill="#d7ede7" stroke="black" cx="70.78" cy="-927" rx="27.46" ry="18"/>
<text text-anchor="middle" x="70.78" y="-925.1" font-family="Arial" font-size="8.00" fill="#1a1919">143 T(6)</text>
</g>
<!-- inline143x603&#45;&gt;node603 -->
<g id="edge30" class="edge">
<title>inline143x603&#45;&gt;node603</title>
<path fill="none" stroke="#3cb4a4" d="M70.78,-908.86C70.78,-895.61 70.78,-877.35 70.78,-864.11"/>
<text text-anchor="middle" x="80.28" y="-884.6" font-family="arial" font-size="8.00" fill="#3cb4a4">value</text>
</g>
<!-- inline158x528 -->
<g id="node27" class="node">
<title>inline158x528</title>
<ellipse fill="#d7ede7" stroke="black" cx="313.78" cy="-927" rx="27.46" ry="18"/>
<text text-anchor="middle" x="313.78" y="-925.1" font-family="Arial" font-size="8.00" fill="#1a1919">158 T(7)</text>
</g>
<!-- inline158x528&#45;&gt;node528 -->
<g id="edge31" class="edge">
<title>inline158x528&#45;&gt;node528</title>
<path fill="none" stroke="#3cb4a4" d="M301.24,-910.77C290.25,-897.41 274.28,-878 262.85,-864.11"/>
<text text-anchor="middle" x="292.28" y="-884.6" font-family="arial" font-size="8.00" fill="#3cb4a4">value</text>
</g>
<!-- inline2x2116 -->
<g id="node28" class="node">
<title>inline2x2116</title>
<ellipse fill="#d7ede7" stroke="black" cx="248.78" cy="-1008" rx="27" ry="18"/>
<text text-anchor="middle" x="248.78" y="-1006.1" font-family="Arial" font-size="8.00" fill="#1a1919">2 P(1)</text>
</g>
<!-- inline2x2116&#45;&gt;node2116 -->
<g id="edge32" class="edge">
<title>inline2x2116&#45;&gt;node2116</title>
<path fill="none" stroke="#3cb4a4" d="M241.32,-990.63C235.26,-977.34 226.75,-958.67 220.6,-945.17"/>
<text text-anchor="middle" x="242.28" y="-965.6" font-family="arial" font-size="8.00" fill="#3cb4a4">array</text>
</g>
</g>
</svg>
