<?xml version="1.0" encoding="UTF-8" standalone="no"?>
<!DOCTYPE svg PUBLIC "-//W3C//DTD SVG 1.1//EN"
 "http://www.w3.org/Graphics/SVG/1.1/DTD/svg11.dtd">
<!-- Generated by graphviz version 2.44.1 (20200629.0846)
 -->
<!-- Title: G Pages: 1 -->
<svg width="221pt" height="380pt"
 viewBox="0.00 0.00 220.50 380.00" xmlns="http://www.w3.org/2000/svg" xmlns:xlink="http://www.w3.org/1999/xlink">
<g id="graph0" class="graph" transform="scale(1 1) rotate(0) translate(4 376)">
<title>G</title>
<!-- node0 -->
<g id="node1" class="node">
<title>node0</title>
<polygon fill="#e98693" stroke="black" points="56,-372 0,-372 0,-336 56,-336 56,-372"/>
<text text-anchor="middle" x="28" y="-350.3" font-family="Arial" font-size="14.00" fill="#1a1919">0 Start</text>
</g>
<!-- node1440 -->
<g id="node5" class="node">
<title>node1440</title>
<polygon fill="#da2d4f" stroke="black" points="120.5,-291 7.5,-291 7.5,-255 120.5,-255 120.5,-291"/>
<text text-anchor="middle" x="64" y="-269.3" font-family="Arial" font-size="14.00" fill="#ffffff">1440 Load T(...)</text>
</g>
<!-- node0&#45;&gt;node1440 -->
<g id="edge7" class="edge">
<title>node0&#45;&gt;node1440</title>
<path fill="none" stroke="#da2d4f" stroke-width="2" d="M35.81,-335.86C40.53,-325.51 46.64,-312.1 51.96,-300.41"/>
<polygon fill="#da2d4f" stroke="#da2d4f" stroke-width="2" points="55.24,-301.66 56.2,-291.11 48.87,-298.76 55.24,-301.66"/>
</g>
<!-- node532 -->
<g id="node2" class="node">
<title>node532</title>
<polygon fill="#f9f9f9" stroke="black" points="156,-210 74,-210 74,-174 156,-174 156,-210"/>
<text text-anchor="middle" x="115" y="-188.3" font-family="Arial" font-size="14.00" fill="#1a1919">532 Unbox</text>
</g>
<!-- node1439 -->
<g id="node4" class="node">
<title>node1439</title>
<polygon fill="#f9f9f9" stroke="black" points="212.5,-123 17.5,-123 17.5,-87 212.5,-87 212.5,-123"/>
<text text-anchor="middle" x="115" y="-101.3" font-family="Arial" font-size="14.00" fill="#1a1919">1439 BoxNode$AllocatingBox</text>
</g>
<!-- node532&#45;&gt;node1439 -->
<g id="edge1" class="edge">
<title>node532&#45;&gt;node1439</title>
<path fill="none" stroke="#da2d4f" stroke-width="2" d="M113.83,-173.92C113.49,-168.22 113.17,-161.84 113,-156 112.79,-148.65 112.94,-140.69 113.23,-133.33"/>
<polygon fill="#da2d4f" stroke="#da2d4f" stroke-width="2" points="116.74,-133.28 113.73,-123.12 109.74,-132.94 116.74,-133.28"/>
</g>
<!-- node532&#45;&gt;node1439 -->
<g id="edge3" class="edge">
<title>node532&#45;&gt;node1439</title>
<path fill="none" stroke="#3cb4a4" d="M115,-173.8C115,-162.16 115,-146.55 115,-133.24"/>
<polygon fill="#3cb4a4" stroke="#3cb4a4" points="118.5,-133.18 115,-123.18 111.5,-133.18 118.5,-133.18"/>
<text text-anchor="middle" x="131.5" y="-144.8" font-family="arial" font-size="14.00" fill="#3cb4a4">value</text>
</g>
<!-- node1411 -->
<g id="node3" class="node">
<title>node1411</title>
<polygon fill="#e98693" stroke="black" points="160,-36 70,-36 70,0 160,0 160,-36"/>
<text text-anchor="middle" x="115" y="-14.3" font-family="Arial" font-size="14.00" fill="#1a1919">1411 Return</text>
</g>
<!-- node1439&#45;&gt;node1411 -->
<g id="edge2" class="edge">
<title>node1439&#45;&gt;node1411</title>
<path fill="none" stroke="#3cb4a4" d="M100.9,-86.84C97.28,-81.46 93.88,-75.27 92,-69 89.59,-60.93 91.56,-52.49 95.19,-44.89"/>
<polygon fill="#3cb4a4" stroke="#3cb4a4" points="98.29,-46.53 100.25,-36.12 92.22,-43.03 98.29,-46.53"/>
<text text-anchor="middle" x="109" y="-57.8" font-family="arial" font-size="14.00" fill="#3cb4a4">result</text>
</g>
<!-- node1439&#45;&gt;node1411 -->
<g id="edge4" class="edge">
<title>node1439&#45;&gt;node1411</title>
<path fill="none" stroke="#da2d4f" stroke-width="2" d="M121.55,-86.8C123.37,-81.21 125.09,-74.92 126,-69 127.17,-61.39 126.29,-53.2 124.61,-45.71"/>
<polygon fill="#da2d4f" stroke="#da2d4f" stroke-width="2" points="127.97,-44.74 121.94,-36.02 121.22,-46.59 127.97,-44.74"/>
</g>
<!-- node1440&#45;&gt;node532 -->
<g id="edge8" class="edge">
<title>node1440&#45;&gt;node532</title>
<path fill="none" stroke="#da2d4f" stroke-width="2" d="M75.07,-254.86C81.88,-244.3 90.75,-230.56 98.4,-218.71"/>
<polygon fill="#da2d4f" stroke="#da2d4f" stroke-width="2" points="101.47,-220.41 103.96,-210.11 95.59,-216.61 101.47,-220.41"/>
</g>
<!-- inline161x532 -->
<g id="node6" class="node">
<title>inline161x532</title>
<ellipse fill="#d7ede7" stroke="black" cx="166" cy="-273" rx="27.46" ry="18"/>
<text text-anchor="middle" x="166" y="-271.1" font-family="Arial" font-size="8.00" fill="#1a1919">161 T(7)</text>
</g>
<!-- inline161x532&#45;&gt;node532 -->
<g id="edge5" class="edge">
<title>inline161x532&#45;&gt;node532</title>
<path fill="none" stroke="#3cb4a4" d="M155.68,-256.01C147.06,-242.67 134.81,-223.69 126.01,-210.06"/>
<text text-anchor="middle" x="151.5" y="-230.6" font-family="arial" font-size="8.00" fill="#3cb4a4">value</text>
</g>
<!-- inline2x1440 -->
<g id="node7" class="node">
<title>inline2x1440</title>
<ellipse fill="#d7ede7" stroke="black" cx="101" cy="-354" rx="27" ry="18"/>
<text text-anchor="middle" x="101" y="-352.1" font-family="Arial" font-size="8.00" fill="#1a1919">2 P(1)</text>
</g>
<!-- inline2x1440&#45;&gt;node1440 -->
<g id="edge6" class="edge">
<title>inline2x1440&#45;&gt;node1440</title>
<path fill="none" stroke="#3cb4a4" d="M93.33,-336.63C87.11,-323.34 78.36,-304.67 72.04,-291.17"/>
<text text-anchor="middle" x="92.5" y="-311.6" font-family="arial" font-size="8.00" fill="#3cb4a4">array</text>
</g>
</g>
</svg>
