<?xml version="1.0" encoding="UTF-8" standalone="no"?>
<!DOCTYPE svg PUBLIC "-//W3C//DTD SVG 1.1//EN"
 "http://www.w3.org/Graphics/SVG/1.1/DTD/svg11.dtd">
<!-- Generated by graphviz version 2.44.1 (20200629.0846)
 -->
<!-- Title: G Pages: 1 -->
<svg width="613pt" height="1232pt"
 viewBox="0.00 0.00 613.00 1231.77" xmlns="http://www.w3.org/2000/svg" xmlns:xlink="http://www.w3.org/1999/xlink">
<g id="graph0" class="graph" transform="scale(1 1) rotate(0) translate(4 1227.77)">
<title>G</title>
<!-- node0 -->
<g id="node1" class="node">
<title>node0</title>
<polygon fill="#e98693" stroke="black" points="507,-1223.77 451,-1223.77 451,-1187.77 507,-1187.77 507,-1223.77"/>
<text text-anchor="middle" x="479" y="-1202.07" font-family="Arial" font-size="14.00" fill="#1a1919">0 Start</text>
</g>
<!-- node1540 -->
<g id="node17" class="node">
<title>node1540</title>
<polygon fill="#da2d4f" stroke="black" points="572.5,-1142.77 459.5,-1142.77 459.5,-1106.77 572.5,-1106.77 572.5,-1142.77"/>
<text text-anchor="middle" x="516" y="-1121.07" font-family="Arial" font-size="14.00" fill="#ffffff">1540 Load T(...)</text>
</g>
<!-- node0&#45;&gt;node1540 -->
<g id="edge30" class="edge">
<title>node0&#45;&gt;node1540</title>
<path fill="none" stroke="#da2d4f" stroke-width="2" d="M487.03,-1187.63C491.88,-1177.28 498.16,-1163.87 503.63,-1152.18"/>
<polygon fill="#da2d4f" stroke="#da2d4f" stroke-width="2" points="506.92,-1153.42 507.99,-1142.88 500.58,-1150.45 506.92,-1153.42"/>
</g>
<!-- node677 -->
<g id="node2" class="node">
<title>node677</title>
<polygon fill="#f9f9f9" stroke="black" points="489,-1061.77 407,-1061.77 407,-1025.77 489,-1025.77 489,-1061.77"/>
<text text-anchor="middle" x="448" y="-1040.07" font-family="Arial" font-size="14.00" fill="#1a1919">677 Unbox</text>
</g>
<!-- node1461 -->
<g id="node9" class="node">
<title>node1461</title>
<polygon fill="#3cb4a4" stroke="black" points="448,-920.77 338.74,-902.77 448,-884.77 557.26,-902.77 448,-920.77"/>
<text text-anchor="middle" x="448" y="-899.07" font-family="Arial" font-size="14.00" fill="#1a1919">1461 SignExtend</text>
</g>
<!-- node677&#45;&gt;node1461 -->
<g id="edge9" class="edge">
<title>node677&#45;&gt;node1461</title>
<path fill="none" stroke="#3cb4a4" d="M448,-1025.73C448,-1002.17 448,-959.41 448,-931.3"/>
<polygon fill="#3cb4a4" stroke="#3cb4a4" points="451.5,-930.95 448,-920.95 444.5,-930.95 451.5,-930.95"/>
<text text-anchor="middle" x="464.5" y="-996.57" font-family="arial" font-size="14.00" fill="#3cb4a4">value</text>
</g>
<!-- node1486 -->
<g id="node10" class="node">
<title>node1486</title>
<polygon fill="#ffa500" stroke="black" points="268.5,-974.77 17.5,-974.77 17.5,-938.77 268.5,-938.77 268.5,-974.77"/>
<text text-anchor="middle" x="143" y="-953.07" font-family="Arial" font-size="14.00" fill="#1a1919">1486 Guard, else TransferToInterpreter</text>
</g>
<!-- node677&#45;&gt;node1486 -->
<g id="edge1" class="edge">
<title>node677&#45;&gt;node1486</title>
<path fill="none" stroke="#da2d4f" stroke-width="2" d="M406.87,-1031.31C357.5,-1017.55 273.9,-994.25 214.03,-977.56"/>
<polygon fill="#da2d4f" stroke="#da2d4f" stroke-width="2" points="214.83,-974.15 204.26,-974.84 212.95,-980.9 214.83,-974.15"/>
</g>
<!-- node1538 -->
<g id="node15" class="node">
<title>node1538</title>
<polygon fill="#f9f9f9" stroke="black" points="584.5,-123 389.5,-123 389.5,-87 584.5,-87 584.5,-123"/>
<text text-anchor="middle" x="487" y="-101.3" font-family="Arial" font-size="14.00" fill="#1a1919">1538 BoxNode$AllocatingBox</text>
</g>
<!-- node677&#45;&gt;node1538 -->
<g id="edge20" class="edge">
<title>node677&#45;&gt;node1538</title>
<path fill="none" stroke="#3cb4a4" d="M489.29,-1032.85C525.36,-1021.43 572,-998.75 572,-957.77 572,-957.77 572,-957.77 572,-177 572,-155.85 556.31,-139.77 538.41,-128.3"/>
<polygon fill="#3cb4a4" stroke="#3cb4a4" points="539.89,-125.11 529.5,-123.04 536.33,-131.14 539.89,-125.11"/>
<text text-anchor="middle" x="588.5" y="-545.8" font-family="arial" font-size="14.00" fill="#3cb4a4">value</text>
</g>
<!-- node752 -->
<g id="node3" class="node">
<title>node752</title>
<polygon fill="#3cb4a4" stroke="black" points="143,-1061.77 72.45,-1043.77 143,-1025.77 213.55,-1043.77 143,-1061.77"/>
<text text-anchor="middle" x="143" y="-1040.07" font-family="Arial" font-size="14.00" fill="#1a1919">752 IsNull</text>
</g>
<!-- node752&#45;&gt;node1486 -->
<g id="edge10" class="edge">
<title>node752&#45;&gt;node1486</title>
<path fill="none" stroke="#3cb4a4" d="M143,-1025.57C143,-1013.93 143,-998.32 143,-985.01"/>
<polygon fill="#3cb4a4" stroke="#3cb4a4" points="146.5,-984.94 143,-974.94 139.5,-984.95 146.5,-984.94"/>
<text text-anchor="middle" x="147" y="-996.57" font-family="arial" font-size="14.00" fill="#3cb4a4">?</text>
</g>
<!-- node1033 -->
<g id="node4" class="node">
<title>node1033</title>
<polygon fill="#da2d4f" stroke="black" points="306,-866.77 0,-866.77 0,-830.77 306,-830.77 306,-866.77"/>
<text text-anchor="middle" x="153" y="-845.07" font-family="Arial" font-size="14.00" fill="#ffffff">1033 LoadField RubyDynamicObject.metaClass</text>
</g>
<!-- node1089 -->
<g id="node5" class="node">
<title>node1089</title>
<polygon fill="#3cb4a4" stroke="black" points="243,-779.77 181.33,-761.77 243,-743.77 304.67,-761.77 243,-779.77"/>
<text text-anchor="middle" x="243" y="-758.07" font-family="Arial" font-size="14.00" fill="#1a1919">1089 ==</text>
</g>
<!-- node1033&#45;&gt;node1089 -->
<g id="edge3" class="edge">
<title>node1033&#45;&gt;node1089</title>
<path fill="none" stroke="#3cb4a4" d="M171.21,-830.57C185.82,-816.77 206.35,-797.38 221.72,-782.87"/>
<polygon fill="#3cb4a4" stroke="#3cb4a4" points="224.36,-785.19 229.22,-775.78 219.55,-780.1 224.36,-785.19"/>
<text text-anchor="middle" x="207.5" y="-801.57" font-family="arial" font-size="14.00" fill="#3cb4a4">x</text>
</g>
<!-- node1489 -->
<g id="node11" class="node">
<title>node1489</title>
<polygon fill="#ffa500" stroke="black" points="320.5,-692.77 69.5,-692.77 69.5,-656.77 320.5,-656.77 320.5,-692.77"/>
<text text-anchor="middle" x="195" y="-671.07" font-family="Arial" font-size="14.00" fill="#1a1919">1489 Guard, else TransferToInterpreter</text>
</g>
<!-- node1033&#45;&gt;node1489 -->
<g id="edge2" class="edge">
<title>node1033&#45;&gt;node1489</title>
<path fill="none" stroke="#da2d4f" stroke-width="2" d="M155.34,-830.67C158.37,-809.93 164.18,-773.98 172,-743.77 175.56,-730.01 180.52,-715.01 184.92,-702.61"/>
<polygon fill="#da2d4f" stroke="#da2d4f" stroke-width="2" points="188.32,-703.48 188.44,-692.89 181.74,-701.1 188.32,-703.48"/>
</g>
<!-- node1089&#45;&gt;node1489 -->
<g id="edge12" class="edge">
<title>node1089&#45;&gt;node1489</title>
<path fill="none" stroke="#3cb4a4" d="M234.64,-745.96C227.81,-733.87 217.98,-716.47 209.83,-702.02"/>
<polygon fill="#3cb4a4" stroke="#3cb4a4" points="212.72,-700.03 204.75,-693.04 206.62,-703.47 212.72,-700.03"/>
<text text-anchor="middle" x="226" y="-714.57" font-family="arial" font-size="14.00" fill="#3cb4a4">?</text>
</g>
<!-- node1308 -->
<g id="node6" class="node">
<title>node1308</title>
<polygon fill="#e98693" stroke="black" points="532.5,-36 441.5,-36 441.5,0 532.5,0 532.5,-36"/>
<text text-anchor="middle" x="487" y="-14.3" font-family="Arial" font-size="14.00" fill="#1a1919">1308 Return</text>
</g>
<!-- node1375 -->
<g id="node7" class="node">
<title>node1375</title>
<polygon fill="#da2d4f" stroke="black" points="471.5,-611.38 224.5,-611.38 224.5,-575.38 471.5,-575.38 471.5,-611.38"/>
<text text-anchor="middle" x="348" y="-589.68" font-family="Arial" font-size="14.00" fill="#ffffff">1375 LoadField DynamicObject.shape</text>
</g>
<!-- node1377 -->
<g id="node8" class="node">
<title>node1377</title>
<polygon fill="#3cb4a4" stroke="black" points="196,-524 134.33,-506 196,-488 257.67,-506 196,-524"/>
<text text-anchor="middle" x="196" y="-502.3" font-family="Arial" font-size="14.00" fill="#1a1919">1377 ==</text>
</g>
<!-- node1375&#45;&gt;node1377 -->
<g id="edge7" class="edge">
<title>node1375&#45;&gt;node1377</title>
<path fill="none" stroke="#3cb4a4" d="M317.61,-575.31C290.64,-560.16 251.51,-538.18 224.98,-523.28"/>
<polygon fill="#3cb4a4" stroke="#3cb4a4" points="226.59,-520.17 216.16,-518.32 223.16,-526.27 226.59,-520.17"/>
<text text-anchor="middle" x="285.5" y="-545.8" font-family="arial" font-size="14.00" fill="#3cb4a4">x</text>
</g>
<!-- node1497 -->
<g id="node14" class="node">
<title>node1497</title>
<polygon fill="#ffa500" stroke="black" points="473.5,-437 222.5,-437 222.5,-401 473.5,-401 473.5,-437"/>
<text text-anchor="middle" x="348" y="-415.3" font-family="Arial" font-size="14.00" fill="#1a1919">1497 Guard, else TransferToInterpreter</text>
</g>
<!-- node1375&#45;&gt;node1497 -->
<g id="edge6" class="edge">
<title>node1375&#45;&gt;node1497</title>
<path fill="none" stroke="#da2d4f" stroke-width="2" d="M348,-575.23C348,-545.28 348,-483.25 348,-447.33"/>
<polygon fill="#da2d4f" stroke="#da2d4f" stroke-width="2" points="351.5,-447.09 348,-437.09 344.5,-447.09 351.5,-447.09"/>
</g>
<!-- node1493 -->
<g id="node12" class="node">
<title>node1493</title>
<polygon fill="#ffa500" stroke="black" points="473.5,-350 222.5,-350 222.5,-314 473.5,-314 473.5,-350"/>
<text text-anchor="middle" x="348" y="-328.3" font-family="Arial" font-size="14.00" fill="#1a1919">1493 Guard, else TransferToInterpreter</text>
</g>
<!-- node1377&#45;&gt;node1493 -->
<g id="edge14" class="edge">
<title>node1377&#45;&gt;node1493</title>
<path fill="none" stroke="#3cb4a4" d="M192.76,-488.56C189.38,-466.53 186.82,-427.21 205,-401 220.15,-379.17 244.25,-364.13 268.38,-353.86"/>
<polygon fill="#3cb4a4" stroke="#3cb4a4" points="269.98,-356.99 277.97,-350.02 267.38,-350.49 269.98,-356.99"/>
<text text-anchor="middle" x="209" y="-415.3" font-family="arial" font-size="14.00" fill="#3cb4a4">?</text>
</g>
<!-- node1496 -->
<g id="node13" class="node">
<title>node1496</title>
<polygon fill="#ffa500" stroke="black" points="473.5,-277 222.5,-277 222.5,-241 473.5,-241 473.5,-277"/>
<text text-anchor="middle" x="348" y="-255.3" font-family="Arial" font-size="14.00" fill="#1a1919">1496 Guard, else TransferToInterpreter</text>
</g>
<!-- node1377&#45;&gt;node1496 -->
<g id="edge16" class="edge">
<title>node1377&#45;&gt;node1496</title>
<path fill="none" stroke="#3cb4a4" d="M191.02,-489.13C189.4,-483.19 187.8,-476.35 187,-470 186.16,-463.39 186.88,-461.67 187,-455 188.18,-391.29 170.52,-361.5 213,-314 226.04,-299.42 243.56,-288.72 261.64,-280.88"/>
<polygon fill="#3cb4a4" stroke="#3cb4a4" points="263.18,-284.04 271.13,-277.04 260.55,-277.55 263.18,-284.04"/>
<text text-anchor="middle" x="190" y="-371.8" font-family="arial" font-size="14.00" fill="#3cb4a4">?</text>
</g>
<!-- node1377&#45;&gt;node1497 -->
<g id="edge18" class="edge">
<title>node1377&#45;&gt;node1497</title>
<path fill="none" stroke="#3cb4a4" d="M216.18,-493.71C239.68,-480.58 279.03,-458.57 308.63,-442.02"/>
<polygon fill="#3cb4a4" stroke="#3cb4a4" points="310.46,-445 317.48,-437.07 307.04,-438.89 310.46,-445"/>
<text text-anchor="middle" x="286" y="-458.8" font-family="arial" font-size="14.00" fill="#3cb4a4">?</text>
</g>
<!-- node1539 -->
<g id="node16" class="node">
<title>node1539</title>
<polygon fill="#da2d4f" stroke="black" points="534,-196 252,-196 252,-160 534,-160 534,-196"/>
<text text-anchor="middle" x="393" y="-174.3" font-family="Arial" font-size="14.00" fill="#ffffff">1539 StoreField RubyBasicObject.primitive1</text>
</g>
<!-- node1461&#45;&gt;node1539 -->
<g id="edge22" class="edge">
<title>node1461&#45;&gt;node1539</title>
<path fill="none" stroke="#3cb4a4" d="M464.32,-887.26C470.21,-881.37 476.5,-874.2 481,-866.77 495.76,-842.43 502,-834.73 502,-806.27 502,-806.27 502,-806.27 502,-258 502,-231.47 480.57,-212.94 456.72,-200.53"/>
<polygon fill="#3cb4a4" stroke="#3cb4a4" points="458.03,-197.27 447.5,-196.06 454.98,-203.57 458.03,-197.27"/>
<text text-anchor="middle" x="518.5" y="-545.8" font-family="arial" font-size="14.00" fill="#3cb4a4">value</text>
</g>
<!-- node1486&#45;&gt;node1033 -->
<g id="edge11" class="edge">
<title>node1486&#45;&gt;node1033</title>
<path fill="none" stroke="#da2d4f" stroke-width="2" d="M144.61,-938.74C146.17,-922.15 148.58,-896.65 150.41,-877.2"/>
<polygon fill="#da2d4f" stroke="#da2d4f" stroke-width="2" points="153.91,-877.39 151.36,-867.11 146.94,-876.74 153.91,-877.39"/>
</g>
<!-- node1489&#45;&gt;node1375 -->
<g id="edge13" class="edge">
<title>node1489&#45;&gt;node1375</title>
<path fill="none" stroke="#da2d4f" stroke-width="2" d="M227.82,-656.74C250.71,-644.86 281.45,-628.91 306.11,-616.12"/>
<polygon fill="#da2d4f" stroke="#da2d4f" stroke-width="2" points="307.97,-619.1 315.23,-611.39 304.74,-612.89 307.97,-619.1"/>
</g>
<!-- node1493&#45;&gt;node1496 -->
<g id="edge15" class="edge">
<title>node1493&#45;&gt;node1496</title>
<path fill="none" stroke="#da2d4f" stroke-width="2" d="M348,-313.81C348,-305.79 348,-296.05 348,-287.07"/>
<polygon fill="#da2d4f" stroke="#da2d4f" stroke-width="2" points="351.5,-287.03 348,-277.03 344.5,-287.03 351.5,-287.03"/>
</g>
<!-- node1496&#45;&gt;node1539 -->
<g id="edge17" class="edge">
<title>node1496&#45;&gt;node1539</title>
<path fill="none" stroke="#da2d4f" stroke-width="2" d="M357.76,-240.86C363.72,-230.4 371.45,-216.83 378.15,-205.06"/>
<polygon fill="#da2d4f" stroke="#da2d4f" stroke-width="2" points="381.35,-206.53 383.25,-196.11 375.26,-203.07 381.35,-206.53"/>
</g>
<!-- node1497&#45;&gt;node1493 -->
<g id="edge19" class="edge">
<title>node1497&#45;&gt;node1493</title>
<path fill="none" stroke="#da2d4f" stroke-width="2" d="M348,-400.8C348,-389.16 348,-373.55 348,-360.24"/>
<polygon fill="#da2d4f" stroke="#da2d4f" stroke-width="2" points="351.5,-360.18 348,-350.18 344.5,-360.18 351.5,-360.18"/>
</g>
<!-- node1538&#45;&gt;node1308 -->
<g id="edge5" class="edge">
<title>node1538&#45;&gt;node1308</title>
<path fill="none" stroke="#3cb4a4" d="M472.25,-86.88C465.89,-77.44 460.6,-65.35 464,-54 464.91,-50.96 466.17,-47.95 467.65,-45.03"/>
<polygon fill="#3cb4a4" stroke="#3cb4a4" points="470.82,-46.55 472.9,-36.16 464.79,-42.98 470.82,-46.55"/>
<text text-anchor="middle" x="481" y="-57.8" font-family="arial" font-size="14.00" fill="#3cb4a4">result</text>
</g>
<!-- node1538&#45;&gt;node1308 -->
<g id="edge21" class="edge">
<title>node1538&#45;&gt;node1308</title>
<path fill="none" stroke="#da2d4f" stroke-width="2" d="M493.94,-86.98C497.06,-77.35 499.7,-65.07 498,-54 497.59,-51.32 497.01,-48.56 496.33,-45.83"/>
<polygon fill="#da2d4f" stroke="#da2d4f" stroke-width="2" points="499.69,-44.83 493.55,-36.2 492.96,-46.78 499.69,-44.83"/>
</g>
<!-- node1539&#45;&gt;node1538 -->
<g id="edge23" class="edge">
<title>node1539&#45;&gt;node1538</title>
<path fill="none" stroke="#da2d4f" stroke-width="2" d="M415.75,-159.81C427.88,-150.66 442.97,-139.26 456.13,-129.32"/>
<polygon fill="#da2d4f" stroke="#da2d4f" stroke-width="2" points="458.58,-131.85 464.45,-123.03 454.37,-126.26 458.58,-131.85"/>
</g>
<!-- node1540&#45;&gt;node677 -->
<g id="edge31" class="edge">
<title>node1540&#45;&gt;node677</title>
<path fill="none" stroke="#da2d4f" stroke-width="2" d="M501.25,-1106.63C491.98,-1095.86 479.87,-1081.79 469.54,-1069.79"/>
<polygon fill="#da2d4f" stroke="#da2d4f" stroke-width="2" points="471.9,-1067.17 462.73,-1061.88 466.6,-1071.74 471.9,-1067.17"/>
</g>
<!-- inline1088x1089 -->
<g id="node18" class="node">
<title>inline1088x1089</title>
<ellipse fill="#d7ede7" stroke="black" cx="398" cy="-848.77" rx="74.11" ry="18"/>
<text text-anchor="middle" x="398" y="-846.87" font-family="Arial" font-size="8.00" fill="#1a1919">1088 C(RubyClass@3c77d52e)</text>
</g>
<!-- inline1088x1089&#45;&gt;node1089 -->
<g id="edge4" class="edge">
<title>inline1088x1089&#45;&gt;node1089</title>
<path fill="none" stroke="#3cb4a4" d="M369.21,-831.98C338.39,-815.08 290.29,-788.71 263.24,-773.87"/>
<text text-anchor="middle" x="332" y="-803.37" font-family="arial" font-size="8.00" fill="#3cb4a4">y</text>
</g>
<!-- inline1372x1377 -->
<g id="node19" class="node">
<title>inline1372x1377</title>
<ellipse fill="#d7ede7" stroke="black" cx="116" cy="-593.38" rx="90.52" ry="18.27"/>
<text text-anchor="middle" x="116" y="-595.98" font-family="Arial" font-size="8.00" fill="#1a1919">1372 C(@5c89c7ff{&quot;@x&quot;:int@0</text>
<text text-anchor="middle" x="116" y="-586.98" font-family="Arial" font-size="8.00" fill="#1a1919">})</text>
</g>
<!-- inline1372x1377&#45;&gt;node1377 -->
<g id="edge8" class="edge">
<title>inline1372x1377&#45;&gt;node1377</title>
<path fill="none" stroke="#3cb4a4" d="M132.19,-575.11C147.26,-559.03 169.41,-535.38 183.25,-520.6"/>
<text text-anchor="middle" x="166" y="-547.6" font-family="arial" font-size="8.00" fill="#3cb4a4">y</text>
</g>
<!-- inline143x752 -->
<g id="node20" class="node">
<title>inline143x752</title>
<ellipse fill="#d7ede7" stroke="black" cx="143" cy="-1124.77" rx="27.46" ry="18"/>
<text text-anchor="middle" x="143" y="-1122.87" font-family="Arial" font-size="8.00" fill="#1a1919">143 T(6)</text>
</g>
<!-- inline143x752&#45;&gt;node752 -->
<g id="edge24" class="edge">
<title>inline143x752&#45;&gt;node752</title>
<path fill="none" stroke="#3cb4a4" d="M143,-1106.63C143,-1093.38 143,-1075.12 143,-1061.88"/>
<text text-anchor="middle" x="152.5" y="-1082.37" font-family="arial" font-size="8.00" fill="#3cb4a4">value</text>
</g>
<!-- inline158x1033 -->
<g id="node21" class="node">
<title>inline158x1033</title>
<ellipse fill="#d7ede7" stroke="black" cx="314" cy="-956.77" rx="27.46" ry="18"/>
<text text-anchor="middle" x="314" y="-954.87" font-family="Arial" font-size="8.00" fill="#1a1919">158 T(7)</text>
</g>
<!-- inline158x1033&#45;&gt;node1033 -->
<g id="edge25" class="edge">
<title>inline158x1033&#45;&gt;node1033</title>
<path fill="none" stroke="#3cb4a4" d="M295.22,-943.4C266.43,-924.45 211.34,-888.18 178.82,-866.77"/>
<text text-anchor="middle" x="269" y="-900.87" font-family="arial" font-size="8.00" fill="#3cb4a4">object</text>
</g>
<!-- inline158x1375 -->
<g id="node22" class="node">
<title>inline158x1375</title>
<ellipse fill="#d7ede7" stroke="black" cx="366" cy="-674.77" rx="27.46" ry="18"/>
<text text-anchor="middle" x="366" y="-672.87" font-family="Arial" font-size="8.00" fill="#1a1919">158 T(7)</text>
</g>
<!-- inline158x1375&#45;&gt;node1375 -->
<g id="edge26" class="edge">
<title>inline158x1375&#45;&gt;node1375</title>
<path fill="none" stroke="#3cb4a4" d="M362.18,-656.93C359.15,-643.55 354.92,-624.92 351.87,-611.47"/>
<text text-anchor="middle" x="369" y="-632.37" font-family="arial" font-size="8.00" fill="#3cb4a4">object</text>
</g>
<!-- inline158x1539 -->
<g id="node23" class="node">
<title>inline158x1539</title>
<ellipse fill="#d7ede7" stroke="black" cx="177" cy="-259" rx="27.46" ry="18"/>
<text text-anchor="middle" x="177" y="-257.1" font-family="Arial" font-size="8.00" fill="#1a1919">158 T(7)</text>
</g>
<!-- inline158x1539&#45;&gt;node1539 -->
<g id="edge27" class="edge">
<title>inline158x1539&#45;&gt;node1539</title>
<path fill="none" stroke="#3cb4a4" d="M198.15,-247.54C202.98,-245.28 208.13,-242.98 213,-241 254.48,-224.12 302.48,-207.74 338.47,-196.06"/>
<text text-anchor="middle" x="293" y="-216.6" font-family="arial" font-size="8.00" fill="#3cb4a4">object</text>
</g>
<!-- inline175x677 -->
<g id="node24" class="node">
<title>inline175x677</title>
<ellipse fill="#d7ede7" stroke="black" cx="414" cy="-1124.77" rx="27.46" ry="18"/>
<text text-anchor="middle" x="414" y="-1122.87" font-family="Arial" font-size="8.00" fill="#1a1919">175 T(8)</text>
</g>
<!-- inline175x677&#45;&gt;node677 -->
<g id="edge28" class="edge">
<title>inline175x677&#45;&gt;node677</title>
<path fill="none" stroke="#3cb4a4" d="M421.21,-1107.02C426.94,-1093.7 434.92,-1075.15 440.68,-1061.77"/>
<text text-anchor="middle" x="442.5" y="-1082.37" font-family="arial" font-size="8.00" fill="#3cb4a4">value</text>
</g>
<!-- inline2x1540 -->
<g id="node25" class="node">
<title>inline2x1540</title>
<ellipse fill="#d7ede7" stroke="black" cx="552" cy="-1205.77" rx="27" ry="18"/>
<text text-anchor="middle" x="552" y="-1203.87" font-family="Arial" font-size="8.00" fill="#1a1919">2 P(1)</text>
</g>
<!-- inline2x1540&#45;&gt;node1540 -->
<g id="edge29" class="edge">
<title>inline2x1540&#45;&gt;node1540</title>
<path fill="none" stroke="#3cb4a4" d="M544.54,-1188.4C538.49,-1175.11 529.97,-1156.43 523.82,-1142.94"/>
<text text-anchor="middle" x="545.5" y="-1163.37" font-family="arial" font-size="8.00" fill="#3cb4a4">array</text>
</g>
</g>
</svg>
