<?xml version="1.0" encoding="UTF-8" standalone="no"?>
<!DOCTYPE svg PUBLIC "-//W3C//DTD SVG 1.1//EN"
 "http://www.w3.org/Graphics/SVG/1.1/DTD/svg11.dtd">
<!-- Generated by graphviz version 2.44.0 (20200408.0750)
 -->
<!-- Title: G Pages: 1 -->
<svg width="298pt" height="212pt"
 viewBox="0.00 0.00 298.00 212.00" xmlns="http://www.w3.org/2000/svg" xmlns:xlink="http://www.w3.org/1999/xlink">
<g id="graph0" class="graph" transform="scale(1 1) rotate(0) translate(4 208)">
<title>G</title>
<!-- node0 -->
<g id="node1" class="node">
<title>node0</title>
<polygon fill="#e98693" stroke="black" points="137,-204 81,-204 81,-168 137,-168 137,-204"/>
<text text-anchor="middle" x="109" y="-182.3" font-family="Arial" font-size="14.00" fill="#1a1919">0 Start</text>
</g>
<!-- node5 -->
<g id="node2" class="node">
<title>node5</title>
<polygon fill="#da2d4f" stroke="black" points="290,-123 0,-123 0,-87 290,-87 290,-123"/>
<text text-anchor="middle" x="145" y="-101.3" font-family="Arial" font-size="14.00" fill="#ffffff">5 LoadField JavaExamples$ExampleObject.x</text>
</g>
<!-- node0&#45;&gt;node5 -->
<g id="edge1" class="edge">
<title>node0&#45;&gt;node5</title>
<path fill="none" stroke="#da2d4f" stroke-width="2" d="M116.81,-167.86C121.53,-157.51 127.64,-144.1 132.96,-132.41"/>
<polygon fill="#da2d4f" stroke="#da2d4f" stroke-width="2" points="136.24,-133.66 137.2,-123.11 129.87,-130.76 136.24,-133.66"/>
</g>
<!-- node6 -->
<g id="node3" class="node">
<title>node6</title>
<polygon fill="#e98693" stroke="black" points="179,-36 111,-36 111,0 179,0 179,-36"/>
<text text-anchor="middle" x="145" y="-14.3" font-family="Arial" font-size="14.00" fill="#1a1919">6 Return</text>
</g>
<!-- node5&#45;&gt;node6 -->
<g id="edge3" class="edge">
<title>node5&#45;&gt;node6</title>
<path fill="none" stroke="#da2d4f" stroke-width="2" d="M143.83,-86.92C143.49,-81.22 143.17,-74.84 143,-69 142.79,-61.65 142.94,-53.69 143.23,-46.33"/>
<polygon fill="#da2d4f" stroke="#da2d4f" stroke-width="2" points="146.74,-46.28 143.73,-36.12 139.74,-45.94 146.74,-46.28"/>
</g>
<!-- node5&#45;&gt;node6 -->
<g id="edge4" class="edge">
<title>node5&#45;&gt;node6</title>
<path fill="none" stroke="#3cb4a4" d="M145,-86.8C145,-75.16 145,-59.55 145,-46.24"/>
<polygon fill="#3cb4a4" stroke="#3cb4a4" points="148.5,-46.18 145,-36.18 141.5,-46.18 148.5,-46.18"/>
<text text-anchor="middle" x="162" y="-57.8" font-family="arial" font-size="14.00" fill="#3cb4a4">result</text>
</g>
<!-- inline1x5 -->
<g id="node4" class="node">
<title>inline1x5</title>
<ellipse fill="#d7ede7" stroke="black" cx="182" cy="-186" rx="27" ry="18"/>
<text text-anchor="middle" x="182" y="-184.1" font-family="Arial" font-size="8.00" fill="#1a1919">1 P(0)</text>
</g>
<!-- inline1x5&#45;&gt;node5 -->
<g id="edge2" class="edge">
<title>inline1x5&#45;&gt;node5</title>
<path fill="none" stroke="#3cb4a4" d="M174.33,-168.63C168.11,-155.34 159.36,-136.67 153.04,-123.17"/>
<text text-anchor="middle" x="175" y="-143.6" font-family="arial" font-size="8.00" fill="#3cb4a4">object</text>
</g>
</g>
</svg>
