<?xml version="1.0" encoding="UTF-8" standalone="no"?>
<!DOCTYPE svg PUBLIC "-//W3C//DTD SVG 1.1//EN"
 "http://www.w3.org/Graphics/SVG/1.1/DTD/svg11.dtd">
<!-- Generated by graphviz version 2.44.1 (20200629.0846)
 -->
<!-- Title: G Pages: 1 -->
<svg width="1491pt" height="1281pt"
 viewBox="0.00 0.00 1491.00 1281.00" xmlns="http://www.w3.org/2000/svg" xmlns:xlink="http://www.w3.org/1999/xlink">
<g id="graph0" class="graph" transform="scale(1 1) rotate(0) translate(4 1277)">
<title>G</title>
<!-- node0 -->
<g id="node1" class="node">
<title>node0</title>
<polygon fill="#e98693" stroke="black" points="56,-1273 0,-1273 0,-1237 56,-1237 56,-1273"/>
<text text-anchor="middle" x="28" y="-1251.3" font-family="Arial" font-size="14.00" fill="#1a1919">0 Start</text>
</g>
<!-- node2841 -->
<g id="node29" class="node">
<title>node2841</title>
<polygon fill="#da2d4f" stroke="black" points="120.5,-1192 7.5,-1192 7.5,-1156 120.5,-1156 120.5,-1192"/>
<text text-anchor="middle" x="64" y="-1170.3" font-family="Arial" font-size="14.00" fill="#ffffff">2841 Load T(...)</text>
</g>
<!-- node0&#45;&gt;node2841 -->
<g id="edge49" class="edge">
<title>node0&#45;&gt;node2841</title>
<path fill="none" stroke="#da2d4f" stroke-width="2" d="M35.81,-1236.86C40.53,-1226.51 46.64,-1213.1 51.96,-1201.41"/>
<polygon fill="#da2d4f" stroke="#da2d4f" stroke-width="2" points="55.24,-1202.66 56.2,-1192.11 48.87,-1199.76 55.24,-1202.66"/>
</g>
<!-- node532 -->
<g id="node2" class="node">
<title>node532</title>
<polygon fill="#f9f9f9" stroke="black" points="156,-1111 74,-1111 74,-1075 156,-1075 156,-1111"/>
<text text-anchor="middle" x="115" y="-1089.3" font-family="Arial" font-size="14.00" fill="#1a1919">532 Unbox</text>
</g>
<!-- node794 -->
<g id="node3" class="node">
<title>node794</title>
<polygon fill="#e98693" stroke="black" points="207.5,-1038 140.5,-1038 140.5,-1002 207.5,-1002 207.5,-1038"/>
<text text-anchor="middle" x="174" y="-1016.3" font-family="Arial" font-size="14.00" fill="#1a1919">794 End</text>
</g>
<!-- node532&#45;&gt;node794 -->
<g id="edge1" class="edge">
<title>node532&#45;&gt;node794</title>
<path fill="none" stroke="#da2d4f" stroke-width="2" d="M129.28,-1074.81C136.53,-1066.09 145.46,-1055.34 153.44,-1045.75"/>
<polygon fill="#da2d4f" stroke="#da2d4f" stroke-width="2" points="156.15,-1047.96 159.85,-1038.03 150.77,-1043.48 156.15,-1047.96"/>
</g>
<!-- node2816 -->
<g id="node26" class="node">
<title>node2816</title>
<polygon fill="#f9f9f9" stroke="black" points="289,-210 231,-210 231,-174 289,-174 289,-210"/>
<text text-anchor="middle" x="260" y="-188.3" font-family="Arial" font-size="14.00" fill="#1a1919">2816 ϕ</text>
</g>
<!-- node532&#45;&gt;node2816 -->
<g id="edge39" class="edge">
<title>node532&#45;&gt;node2816</title>
<path fill="none" stroke="#3cb4a4" d="M81.11,-1074.75C62.43,-1062.6 43,-1044.35 43,-1021 43,-1021 43,-1021 43,-278 43,-277.41 158.78,-232.33 221.2,-208.07"/>
<polygon fill="#3cb4a4" stroke="#3cb4a4" points="222.68,-211.25 230.73,-204.36 220.15,-204.72 222.68,-211.25"/>
<text text-anchor="middle" x="70.5" y="-652.8" font-family="arial" font-size="14.00" fill="#3cb4a4">from 794</text>
</g>
<!-- node2824 -->
<g id="node27" class="node">
<title>node2824</title>
<polygon fill="#f9f9f9" stroke="black" points="1123,-123 1065,-123 1065,-87 1123,-87 1123,-123"/>
<text text-anchor="middle" x="1094" y="-101.3" font-family="Arial" font-size="14.00" fill="#1a1919">2824 ϕ</text>
</g>
<!-- node532&#45;&gt;node2824 -->
<g id="edge42" class="edge">
<title>node532&#45;&gt;node2824</title>
<path fill="none" stroke="#3cb4a4" d="M156.27,-1091.97C378.44,-1091.52 1422,-1085.98 1422,-1021 1422,-1021 1422,-1021 1422,-191 1422,-127.65 1214.76,-139.64 1133.32,-122.55"/>
<polygon fill="#3cb4a4" stroke="#3cb4a4" points="1133.69,-119.03 1123.14,-120.06 1132.02,-125.83 1133.69,-119.03"/>
<text text-anchor="middle" x="1452.5" y="-609.3" font-family="arial" font-size="14.00" fill="#3cb4a4">from 1178</text>
</g>
<!-- node2840 -->
<g id="node28" class="node">
<title>node2840</title>
<polygon fill="#f9f9f9" stroke="black" points="336.5,-718 141.5,-718 141.5,-682 336.5,-682 336.5,-718"/>
<text text-anchor="middle" x="239" y="-696.3" font-family="Arial" font-size="14.00" fill="#1a1919">2840 BoxNode$AllocatingBox</text>
</g>
<!-- node532&#45;&gt;node2840 -->
<g id="edge44" class="edge">
<title>node532&#45;&gt;node2840</title>
<path fill="none" stroke="#3cb4a4" d="M101.56,-1074.99C92.06,-1061.24 81,-1040.95 81,-1021 81,-1021 81,-1021 81,-772 81,-742.96 103.49,-725.72 131.5,-715.52"/>
<polygon fill="#3cb4a4" stroke="#3cb4a4" points="132.78,-718.78 141.18,-712.32 130.59,-712.13 132.78,-718.78"/>
<text text-anchor="middle" x="97.5" y="-899.8" font-family="arial" font-size="14.00" fill="#3cb4a4">value</text>
</g>
<!-- node795 -->
<g id="node4" class="node">
<title>node795</title>
<polygon fill="#e98693" stroke="black" points="292.5,-965 185.5,-965 185.5,-929 292.5,-929 292.5,-965"/>
<text text-anchor="middle" x="239" y="-943.3" font-family="Arial" font-size="14.00" fill="#1a1919">795 LoopBegin</text>
</g>
<!-- node794&#45;&gt;node795 -->
<g id="edge2" class="edge">
<title>node794&#45;&gt;node795</title>
<path fill="none" stroke="#da2d4f" stroke-width="2" d="M189.73,-1001.81C197.8,-993 207.76,-982.13 216.61,-972.46"/>
<polygon fill="#da2d4f" stroke="#da2d4f" stroke-width="2" points="219.24,-974.77 223.41,-965.03 214.08,-970.04 219.24,-974.77"/>
</g>
<!-- node1012 -->
<g id="node6" class="node">
<title>node1012</title>
<polygon fill="#e98693" stroke="black" points="268,-878 210,-878 210,-842 268,-842 268,-878"/>
<text text-anchor="middle" x="239" y="-856.3" font-family="Arial" font-size="14.00" fill="#1a1919">1012 If</text>
</g>
<!-- node795&#45;&gt;node1012 -->
<g id="edge3" class="edge">
<title>node795&#45;&gt;node1012</title>
<path fill="none" stroke="#da2d4f" stroke-width="2" d="M239,-928.8C239,-917.16 239,-901.55 239,-888.24"/>
<polygon fill="#da2d4f" stroke="#da2d4f" stroke-width="2" points="242.5,-888.18 239,-878.18 235.5,-888.18 242.5,-888.18"/>
</g>
<!-- node795&#45;&gt;node2816 -->
<g id="edge38" class="edge">
<title>node795&#45;&gt;node2816</title>
<path fill="none" stroke="#343d46" stroke-dasharray="5,2" d="M302.7,-933.98C367.04,-919.97 457,-894.4 457,-861 457,-861 457,-861 457,-736 457,-517.76 289,-508.96 237,-297 229.55,-266.65 241.96,-231.05 251.26,-210.35"/>
<polygon fill="#343d46" stroke="#343d46" points="301.66,-930.62 292.61,-936.13 303.12,-937.47 301.66,-930.62"/>
</g>
<!-- node973 -->
<g id="node5" class="node">
<title>node973</title>
<polygon fill="#3cb4a4" stroke="black" points="180,-123 133.25,-105 180,-87 226.75,-105 180,-123"/>
<text text-anchor="middle" x="180" y="-101.3" font-family="Arial" font-size="14.00" fill="#1a1919">973 &lt;</text>
</g>
<!-- node973&#45;&gt;node1012 -->
<g id="edge6" class="edge">
<title>node973&#45;&gt;node1012</title>
<path fill="none" stroke="#3cb4a4" d="M163.44,-116.76C143.6,-131.1 113,-158.49 113,-191 113,-657.5 113,-657.5 113,-657.5 113,-731.07 174.13,-799.91 211.23,-834.92"/>
<polygon fill="#3cb4a4" stroke="#3cb4a4" points="209.03,-837.65 218.76,-841.87 213.78,-832.51 209.03,-837.65"/>
<text text-anchor="middle" x="117" y="-492.8" font-family="arial" font-size="14.00" fill="#3cb4a4">?</text>
</g>
<!-- node1015 -->
<g id="node7" class="node">
<title>node1015</title>
<polygon fill="#e98693" stroke="black" points="410.5,-791 325.5,-791 325.5,-755 410.5,-755 410.5,-791"/>
<text text-anchor="middle" x="368" y="-769.3" font-family="Arial" font-size="14.00" fill="#1a1919">1015 Begin</text>
</g>
<!-- node1012&#45;&gt;node1015 -->
<g id="edge8" class="edge">
<title>node1012&#45;&gt;node1015</title>
<path fill="none" stroke="#da2d4f" stroke-width="2" d="M265.11,-841.8C284.78,-828.84 311.94,-810.94 333.41,-796.79"/>
<polygon fill="#da2d4f" stroke="#da2d4f" stroke-width="2" points="335.51,-799.6 341.93,-791.18 331.66,-793.75 335.51,-799.6"/>
<text text-anchor="middle" x="315.5" y="-812.8" font-family="arial" font-size="14.00" fill="#da2d4f">F</text>
</g>
<!-- node2599 -->
<g id="node22" class="node">
<title>node2599</title>
<polygon fill="#e98693" stroke="black" points="290.5,-791 187.5,-791 187.5,-755 290.5,-755 290.5,-791"/>
<text text-anchor="middle" x="239" y="-769.3" font-family="Arial" font-size="14.00" fill="#1a1919">2599 LoopExit</text>
</g>
<!-- node1012&#45;&gt;node2599 -->
<g id="edge7" class="edge">
<title>node1012&#45;&gt;node2599</title>
<path fill="none" stroke="#da2d4f" stroke-width="2" d="M239,-841.8C239,-830.16 239,-814.55 239,-801.24"/>
<polygon fill="#da2d4f" stroke="#da2d4f" stroke-width="2" points="242.5,-801.18 239,-791.18 235.5,-801.18 242.5,-801.18"/>
<text text-anchor="middle" x="243.5" y="-812.8" font-family="arial" font-size="14.00" fill="#da2d4f">T</text>
</g>
<!-- node1178 -->
<g id="node8" class="node">
<title>node1178</title>
<polygon fill="#e98693" stroke="black" points="429,-718 355,-718 355,-682 429,-682 429,-718"/>
<text text-anchor="middle" x="392" y="-696.3" font-family="Arial" font-size="14.00" fill="#1a1919">1178 End</text>
</g>
<!-- node1015&#45;&gt;node1178 -->
<g id="edge9" class="edge">
<title>node1015&#45;&gt;node1178</title>
<path fill="none" stroke="#da2d4f" stroke-width="2" d="M373.81,-754.81C376.55,-746.7 379.89,-736.84 382.95,-727.78"/>
<polygon fill="#da2d4f" stroke="#da2d4f" stroke-width="2" points="386.36,-728.62 386.24,-718.03 379.73,-726.38 386.36,-728.62"/>
</g>
<!-- node1179 -->
<g id="node9" class="node">
<title>node1179</title>
<polygon fill="#e98693" stroke="black" points="828,-631 714,-631 714,-595 828,-595 828,-631"/>
<text text-anchor="middle" x="771" y="-609.3" font-family="Arial" font-size="14.00" fill="#1a1919">1179 LoopBegin</text>
</g>
<!-- node1178&#45;&gt;node1179 -->
<g id="edge10" class="edge">
<title>node1178&#45;&gt;node1179</title>
<path fill="none" stroke="#da2d4f" stroke-width="2" d="M429.03,-690.7C492.71,-676.41 623.82,-647.01 703.92,-629.05"/>
<polygon fill="#da2d4f" stroke="#da2d4f" stroke-width="2" points="704.91,-632.41 713.9,-626.8 703.38,-625.58 704.91,-632.41"/>
</g>
<!-- node1389 -->
<g id="node11" class="node">
<title>node1389</title>
<polygon fill="#e98693" stroke="black" points="800,-558 742,-558 742,-522 800,-522 800,-558"/>
<text text-anchor="middle" x="771" y="-536.3" font-family="Arial" font-size="14.00" fill="#1a1919">1389 If</text>
</g>
<!-- node1179&#45;&gt;node1389 -->
<g id="edge11" class="edge">
<title>node1179&#45;&gt;node1389</title>
<path fill="none" stroke="#da2d4f" stroke-width="2" d="M771,-594.81C771,-586.79 771,-577.05 771,-568.07"/>
<polygon fill="#da2d4f" stroke="#da2d4f" stroke-width="2" points="774.5,-568.03 771,-558.03 767.5,-568.03 774.5,-568.03"/>
</g>
<!-- node1179&#45;&gt;node2824 -->
<g id="edge41" class="edge">
<title>node1179&#45;&gt;node2824</title>
<path fill="none" stroke="#343d46" stroke-dasharray="5,2" d="M838.48,-610.5C932.37,-606.55 1091,-592.29 1091,-541 1091,-541 1091,-541 1091,-278 1091,-221.26 1092.65,-154 1093.5,-123.09"/>
<polygon fill="#343d46" stroke="#343d46" points="838.06,-607.01 828.21,-610.9 838.34,-614.01 838.06,-607.01"/>
</g>
<!-- node1351 -->
<g id="node10" class="node">
<title>node1351</title>
<polygon fill="#3cb4a4" stroke="black" points="832,-36 777.54,-18 832,0 886.46,-18 832,-36"/>
<text text-anchor="middle" x="832" y="-14.3" font-family="Arial" font-size="14.00" fill="#1a1919">1351 &lt;</text>
</g>
<!-- node1351&#45;&gt;node1389 -->
<g id="edge14" class="edge">
<title>node1351&#45;&gt;node1389</title>
<path fill="none" stroke="#3cb4a4" d="M822.6,-32.9C814.13,-46.18 802.09,-67.07 796,-87 765.37,-187.24 771,-216.69 771,-321.5 771,-454 771,-454 771,-454 771,-473.25 771,-494.95 771,-511.6"/>
<polygon fill="#3cb4a4" stroke="#3cb4a4" points="767.5,-511.74 771,-521.74 774.5,-511.74 767.5,-511.74"/>
<text text-anchor="middle" x="774" y="-275.3" font-family="arial" font-size="14.00" fill="#3cb4a4">?</text>
</g>
<!-- node1392 -->
<g id="node12" class="node">
<title>node1392</title>
<polygon fill="#e98693" stroke="black" points="884.5,-471 799.5,-471 799.5,-435 884.5,-435 884.5,-471"/>
<text text-anchor="middle" x="842" y="-449.3" font-family="Arial" font-size="14.00" fill="#1a1919">1392 Begin</text>
</g>
<!-- node1389&#45;&gt;node1392 -->
<g id="edge16" class="edge">
<title>node1389&#45;&gt;node1392</title>
<path fill="none" stroke="#da2d4f" stroke-width="2" d="M785.37,-521.8C795.67,-509.47 809.69,-492.68 821.21,-478.89"/>
<polygon fill="#da2d4f" stroke="#da2d4f" stroke-width="2" points="823.93,-481.09 827.65,-471.18 818.56,-476.61 823.93,-481.09"/>
<text text-anchor="middle" x="814.5" y="-492.8" font-family="arial" font-size="14.00" fill="#da2d4f">F</text>
</g>
<!-- node2241 -->
<g id="node17" class="node">
<title>node2241</title>
<polygon fill="#e98693" stroke="black" points="699.5,-471 596.5,-471 596.5,-435 699.5,-435 699.5,-471"/>
<text text-anchor="middle" x="648" y="-449.3" font-family="Arial" font-size="14.00" fill="#1a1919">2241 LoopExit</text>
</g>
<!-- node1389&#45;&gt;node2241 -->
<g id="edge15" class="edge">
<title>node1389&#45;&gt;node2241</title>
<path fill="none" stroke="#da2d4f" stroke-width="2" d="M746.11,-521.8C727.44,-508.9 701.69,-491.1 681.25,-476.98"/>
<polygon fill="#da2d4f" stroke="#da2d4f" stroke-width="2" points="683.07,-473.98 672.85,-471.18 679.09,-479.74 683.07,-473.98"/>
<text text-anchor="middle" x="720.5" y="-492.8" font-family="arial" font-size="14.00" fill="#da2d4f">T</text>
</g>
<!-- node2793 -->
<g id="node25" class="node">
<title>node2793</title>
<polygon fill="#ffa500" stroke="black" points="1055.5,-384 804.5,-384 804.5,-348 1055.5,-348 1055.5,-384"/>
<text text-anchor="middle" x="930" y="-362.3" font-family="Arial" font-size="14.00" fill="#1a1919">2793 Guard, else TransferToInterpreter</text>
</g>
<!-- node1392&#45;&gt;node2793 -->
<g id="edge17" class="edge">
<title>node1392&#45;&gt;node2793</title>
<path fill="none" stroke="#da2d4f" stroke-width="2" d="M859.81,-434.8C872.69,-422.36 890.28,-405.36 904.63,-391.5"/>
<polygon fill="#da2d4f" stroke="#da2d4f" stroke-width="2" points="907.46,-393.64 912.22,-384.18 902.59,-388.61 907.46,-393.64"/>
</g>
<!-- node1631 -->
<g id="node13" class="node">
<title>node1631</title>
<polygon fill="#3cb4a4" stroke="black" points="964,-471 902.33,-453 964,-435 1025.67,-453 964,-471"/>
<text text-anchor="middle" x="964" y="-449.3" font-family="Arial" font-size="14.00" fill="#1a1919">1631 ==</text>
</g>
<!-- node1631&#45;&gt;node2793 -->
<g id="edge36" class="edge">
<title>node1631&#45;&gt;node2793</title>
<path fill="none" stroke="#3cb4a4" d="M957.76,-436.41C953.01,-424.53 946.36,-407.89 940.75,-393.88"/>
<polygon fill="#3cb4a4" stroke="#3cb4a4" points="943.86,-392.23 936.9,-384.25 937.36,-394.83 943.86,-392.23"/>
<text text-anchor="middle" x="953" y="-405.8" font-family="arial" font-size="14.00" fill="#3cb4a4">?</text>
</g>
<!-- node2141 -->
<g id="node14" class="node">
<title>node2141</title>
<polygon fill="#ffa500" stroke="black" points="1063,-297 797,-297 797,-261 1063,-261 1063,-297"/>
<text text-anchor="middle" x="930" y="-275.3" font-family="Arial" font-size="14.00" fill="#1a1919">2141 Guard not, else ArithmeticException</text>
</g>
<!-- node2144 -->
<g id="node16" class="node">
<title>node2144</title>
<polygon fill="#3cb4a4" stroke="black" points="1256,-210 1118.25,-192 1256,-174 1393.75,-192 1256,-210"/>
<text text-anchor="middle" x="1256" y="-188.3" font-family="Arial" font-size="14.00" fill="#1a1919">2144 IntegerSubExact</text>
</g>
<!-- node2141&#45;&gt;node2144 -->
<g id="edge25" class="edge">
<title>node2141&#45;&gt;node2144</title>
<path fill="none" stroke="#3cb4a4" d="M995.58,-260.9C1056.44,-245.03 1145.93,-221.7 1202.56,-206.93"/>
<polygon fill="#3cb4a4" stroke="#3cb4a4" points="1203.6,-210.28 1212.4,-204.37 1201.84,-203.51 1203.6,-210.28"/>
<text text-anchor="middle" x="1129.5" y="-231.8" font-family="arial" font-size="14.00" fill="#3cb4a4">guard</text>
</g>
<!-- node2246 -->
<g id="node18" class="node">
<title>node2246</title>
<polygon fill="#e98693" stroke="black" points="1061,-210 957,-210 957,-174 1061,-174 1061,-210"/>
<text text-anchor="middle" x="1009" y="-188.3" font-family="Arial" font-size="14.00" fill="#1a1919">2246 LoopEnd</text>
</g>
<!-- node2141&#45;&gt;node2246 -->
<g id="edge20" class="edge">
<title>node2141&#45;&gt;node2246</title>
<path fill="none" stroke="#da2d4f" stroke-width="2" d="M945.99,-260.8C957.55,-248.36 973.34,-231.36 986.23,-217.5"/>
<polygon fill="#da2d4f" stroke="#da2d4f" stroke-width="2" points="988.79,-219.88 993.04,-210.18 983.67,-215.12 988.79,-219.88"/>
</g>
<!-- node2142 -->
<g id="node15" class="node">
<title>node2142</title>
<polygon fill="#3cb4a4" stroke="black" points="1094,-36 906.48,-18 1094,0 1281.52,-18 1094,-36"/>
<text text-anchor="middle" x="1094" y="-14.3" font-family="Arial" font-size="14.00" fill="#1a1919">2142 IntegerSubExactOverflow</text>
</g>
<!-- node2142&#45;&gt;node2141 -->
<g id="edge19" class="edge">
<title>node2142&#45;&gt;node2141</title>
<path fill="none" stroke="#3cb4a4" d="M1015.29,-28.54C983.91,-34.05 952.89,-42.27 943,-54 895.71,-110.09 910.96,-204.88 922.33,-251.08"/>
<polygon fill="#3cb4a4" stroke="#3cb4a4" points="918.99,-252.14 924.89,-260.95 925.77,-250.39 918.99,-252.14"/>
<text text-anchor="middle" x="915" y="-144.8" font-family="arial" font-size="14.00" fill="#3cb4a4">?</text>
</g>
<!-- node2144&#45;&gt;node2824 -->
<g id="edge43" class="edge">
<title>node2144&#45;&gt;node2824</title>
<path fill="none" stroke="#3cb4a4" d="M1237.33,-176.19C1223.07,-165.38 1202.59,-150.95 1183,-141 1163.91,-131.31 1156.08,-131.67 1132.72,-123.04"/>
<polygon fill="#3cb4a4" stroke="#3cb4a4" points="1133.95,-119.76 1123.36,-119.42 1131.42,-126.29 1133.95,-119.76"/>
<text text-anchor="middle" x="1239" y="-144.8" font-family="arial" font-size="14.00" fill="#3cb4a4">from 2246</text>
</g>
<!-- node2501 -->
<g id="node19" class="node">
<title>node2501</title>
<polygon fill="#ffa500" stroke="black" points="737,-384 471,-384 471,-348 737,-348 737,-384"/>
<text text-anchor="middle" x="604" y="-362.3" font-family="Arial" font-size="14.00" fill="#1a1919">2501 Guard not, else ArithmeticException</text>
</g>
<!-- node2241&#45;&gt;node2501 -->
<g id="edge26" class="edge">
<title>node2241&#45;&gt;node2501</title>
<path fill="none" stroke="#da2d4f" stroke-width="2" d="M639.1,-434.8C632.89,-422.82 624.51,-406.62 617.49,-393.06"/>
<polygon fill="#da2d4f" stroke="#da2d4f" stroke-width="2" points="620.6,-391.45 612.89,-384.18 614.38,-394.67 620.6,-391.45"/>
</g>
<!-- node2504 -->
<g id="node21" class="node">
<title>node2504</title>
<polygon fill="#3cb4a4" stroke="black" points="384,-297 246.25,-279 384,-261 521.75,-279 384,-297"/>
<text text-anchor="middle" x="384" y="-275.3" font-family="Arial" font-size="14.00" fill="#1a1919">2504 IntegerSubExact</text>
</g>
<!-- node2501&#45;&gt;node2504 -->
<g id="edge33" class="edge">
<title>node2501&#45;&gt;node2504</title>
<path fill="none" stroke="#3cb4a4" d="M559.74,-347.9C520.88,-332.88 464.72,-311.19 426.41,-296.39"/>
<polygon fill="#3cb4a4" stroke="#3cb4a4" points="427.67,-293.12 417.08,-292.78 425.14,-299.65 427.67,-293.12"/>
<text text-anchor="middle" x="524.5" y="-318.8" font-family="arial" font-size="14.00" fill="#3cb4a4">guard</text>
</g>
<!-- node2604 -->
<g id="node23" class="node">
<title>node2604</title>
<polygon fill="#e98693" stroke="black" points="644,-297 540,-297 540,-261 644,-261 644,-297"/>
<text text-anchor="middle" x="592" y="-275.3" font-family="Arial" font-size="14.00" fill="#1a1919">2604 LoopEnd</text>
</g>
<!-- node2501&#45;&gt;node2604 -->
<g id="edge28" class="edge">
<title>node2501&#45;&gt;node2604</title>
<path fill="none" stroke="#da2d4f" stroke-width="2" d="M601.57,-347.8C599.93,-336.16 597.72,-320.55 595.85,-307.24"/>
<polygon fill="#da2d4f" stroke="#da2d4f" stroke-width="2" points="599.29,-306.59 594.42,-297.18 592.36,-307.57 599.29,-306.59"/>
</g>
<!-- node2502 -->
<g id="node20" class="node">
<title>node2502</title>
<polygon fill="#3cb4a4" stroke="black" points="558,-123 370.48,-105 558,-87 745.52,-105 558,-123"/>
<text text-anchor="middle" x="558" y="-101.3" font-family="Arial" font-size="14.00" fill="#1a1919">2502 IntegerSubExactOverflow</text>
</g>
<!-- node2502&#45;&gt;node2501 -->
<g id="edge27" class="edge">
<title>node2502&#45;&gt;node2501</title>
<path fill="none" stroke="#3cb4a4" d="M571.85,-121.76C594.13,-148.28 637.06,-204.5 653,-261 657.34,-276.4 657.91,-281.77 653,-297 647.88,-312.86 637.53,-328.15 627.65,-340.19"/>
<polygon fill="#3cb4a4" stroke="#3cb4a4" points="624.83,-338.12 620.97,-347.98 630.14,-342.68 624.83,-338.12"/>
<text text-anchor="middle" x="650" y="-231.8" font-family="arial" font-size="14.00" fill="#3cb4a4">?</text>
</g>
<!-- node2504&#45;&gt;node2816 -->
<g id="edge40" class="edge">
<title>node2504&#45;&gt;node2816</title>
<path fill="none" stroke="#3cb4a4" d="M307.81,-270.88C290.64,-265.63 274.2,-257 263,-243 257.94,-236.67 256.17,-228.33 255.96,-220.27"/>
<polygon fill="#3cb4a4" stroke="#3cb4a4" points="259.46,-220.2 256.44,-210.04 252.47,-219.87 259.46,-220.2"/>
<text text-anchor="middle" x="294" y="-231.8" font-family="arial" font-size="14.00" fill="#3cb4a4">from 2604</text>
</g>
<!-- node2599&#45;&gt;node2840 -->
<g id="edge34" class="edge">
<title>node2599&#45;&gt;node2840</title>
<path fill="none" stroke="#da2d4f" stroke-width="2" d="M239,-754.81C239,-746.79 239,-737.05 239,-728.07"/>
<polygon fill="#da2d4f" stroke="#da2d4f" stroke-width="2" points="242.5,-728.03 239,-718.03 235.5,-728.03 242.5,-728.03"/>
</g>
<!-- node2700 -->
<g id="node24" class="node">
<title>node2700</title>
<polygon fill="#e98693" stroke="black" points="284.5,-631 193.5,-631 193.5,-595 284.5,-595 284.5,-631"/>
<text text-anchor="middle" x="239" y="-609.3" font-family="Arial" font-size="14.00" fill="#1a1919">2700 Return</text>
</g>
<!-- node2793&#45;&gt;node2141 -->
<g id="edge37" class="edge">
<title>node2793&#45;&gt;node2141</title>
<path fill="none" stroke="#da2d4f" stroke-width="2" d="M930,-347.8C930,-336.16 930,-320.55 930,-307.24"/>
<polygon fill="#da2d4f" stroke="#da2d4f" stroke-width="2" points="933.5,-307.18 930,-297.18 926.5,-307.18 933.5,-307.18"/>
</g>
<!-- node2816&#45;&gt;node973 -->
<g id="edge4" class="edge">
<title>node2816&#45;&gt;node973</title>
<path fill="none" stroke="#3cb4a4" d="M243.81,-173.8C230.79,-159.96 212.48,-140.51 198.81,-125.98"/>
<polygon fill="#3cb4a4" stroke="#3cb4a4" points="201.16,-123.37 191.75,-118.49 196.06,-128.17 201.16,-123.37"/>
<text text-anchor="middle" x="227.5" y="-144.8" font-family="arial" font-size="14.00" fill="#3cb4a4">x</text>
</g>
<!-- node2816&#45;&gt;node2502 -->
<g id="edge29" class="edge">
<title>node2816&#45;&gt;node2502</title>
<path fill="none" stroke="#3cb4a4" d="M289.12,-182.7C338.75,-168.54 440.47,-139.52 503.58,-121.52"/>
<polygon fill="#3cb4a4" stroke="#3cb4a4" points="504.71,-124.84 513.37,-118.73 502.79,-118.11 504.71,-124.84"/>
<text text-anchor="middle" x="429.5" y="-144.8" font-family="arial" font-size="14.00" fill="#3cb4a4">x</text>
</g>
<!-- node2816&#45;&gt;node2504 -->
<g id="edge31" class="edge">
<title>node2816&#45;&gt;node2504</title>
<path fill="none" stroke="#3cb4a4" d="M289.18,-205.66C301.86,-211.69 316.61,-219.46 329,-228 340.74,-236.09 352.59,-246.51 362.26,-255.74"/>
<polygon fill="#3cb4a4" stroke="#3cb4a4" points="359.92,-258.34 369.52,-262.82 364.81,-253.33 359.92,-258.34"/>
<text text-anchor="middle" x="349.5" y="-231.8" font-family="arial" font-size="14.00" fill="#3cb4a4">x</text>
</g>
<!-- node2824&#45;&gt;node1351 -->
<g id="edge12" class="edge">
<title>node2824&#45;&gt;node1351</title>
<path fill="none" stroke="#3cb4a4" d="M1064.96,-94.58C1016.65,-78.9 919.91,-47.52 867.58,-30.54"/>
<polygon fill="#3cb4a4" stroke="#3cb4a4" points="868.63,-27.2 858.04,-27.45 866.47,-33.86 868.63,-27.2"/>
<text text-anchor="middle" x="981.5" y="-57.8" font-family="arial" font-size="14.00" fill="#3cb4a4">x</text>
</g>
<!-- node2824&#45;&gt;node2142 -->
<g id="edge21" class="edge">
<title>node2824&#45;&gt;node2142</title>
<path fill="none" stroke="#3cb4a4" d="M1094,-86.8C1094,-75.16 1094,-59.55 1094,-46.24"/>
<polygon fill="#3cb4a4" stroke="#3cb4a4" points="1097.5,-46.18 1094,-36.18 1090.5,-46.18 1097.5,-46.18"/>
<text text-anchor="middle" x="1097.5" y="-57.8" font-family="arial" font-size="14.00" fill="#3cb4a4">x</text>
</g>
<!-- node2824&#45;&gt;node2144 -->
<g id="edge23" class="edge">
<title>node2824&#45;&gt;node2144</title>
<path fill="none" stroke="#3cb4a4" d="M1120.07,-123.14C1135.93,-133.25 1156.77,-145.99 1176,-156 1188.32,-162.42 1202.07,-168.72 1214.65,-174.18"/>
<polygon fill="#3cb4a4" stroke="#3cb4a4" points="1213.43,-177.46 1224,-178.17 1216.18,-171.02 1213.43,-177.46"/>
<text text-anchor="middle" x="1179.5" y="-144.8" font-family="arial" font-size="14.00" fill="#3cb4a4">x</text>
</g>
<!-- node2840&#45;&gt;node2700 -->
<g id="edge35" class="edge">
<title>node2840&#45;&gt;node2700</title>
<path fill="none" stroke="#3cb4a4" d="M239,-681.8C239,-670.16 239,-654.55 239,-641.24"/>
<polygon fill="#3cb4a4" stroke="#3cb4a4" points="242.5,-641.18 239,-631.18 235.5,-641.18 242.5,-641.18"/>
<text text-anchor="middle" x="256" y="-652.8" font-family="arial" font-size="14.00" fill="#3cb4a4">result</text>
</g>
<!-- node2840&#45;&gt;node2700 -->
<g id="edge45" class="edge">
<title>node2840&#45;&gt;node2700</title>
<path fill="none" stroke="#da2d4f" stroke-width="2" d="M237.83,-681.92C237.49,-676.22 237.17,-669.84 237,-664 236.79,-656.65 236.94,-648.69 237.23,-641.33"/>
<polygon fill="#da2d4f" stroke="#da2d4f" stroke-width="2" points="240.74,-641.28 237.73,-631.12 233.74,-640.94 240.74,-641.28"/>
</g>
<!-- node2841&#45;&gt;node532 -->
<g id="edge50" class="edge">
<title>node2841&#45;&gt;node532</title>
<path fill="none" stroke="#da2d4f" stroke-width="2" d="M75.07,-1155.86C81.88,-1145.3 90.75,-1131.56 98.4,-1119.71"/>
<polygon fill="#da2d4f" stroke="#da2d4f" stroke-width="2" points="101.47,-1121.41 103.96,-1111.11 95.59,-1117.61 101.47,-1121.41"/>
</g>
<!-- inline23x973 -->
<g id="node30" class="node">
<title>inline23x973</title>
<ellipse fill="#d7ede7" stroke="black" cx="180" cy="-192" rx="27" ry="18"/>
<text text-anchor="middle" x="180" y="-190.1" font-family="Arial" font-size="8.00" fill="#1a1919">23 C(1)</text>
</g>
<!-- inline23x973&#45;&gt;node973 -->
<g id="edge5" class="edge">
<title>inline23x973&#45;&gt;node973</title>
<path fill="none" stroke="#3cb4a4" d="M180,-173.8C180,-159.05 180,-137.92 180,-123.18"/>
<text text-anchor="middle" x="182" y="-146.6" font-family="arial" font-size="8.00" fill="#3cb4a4">y</text>
</g>
<!-- inline23x1351 -->
<g id="node31" class="node">
<title>inline23x1351</title>
<ellipse fill="#d7ede7" stroke="black" cx="832" cy="-105" rx="27" ry="18"/>
<text text-anchor="middle" x="832" y="-103.1" font-family="Arial" font-size="8.00" fill="#1a1919">23 C(1)</text>
</g>
<!-- inline23x1351&#45;&gt;node1351 -->
<g id="edge13" class="edge">
<title>inline23x1351&#45;&gt;node1351</title>
<path fill="none" stroke="#3cb4a4" d="M832,-86.8C832,-72.05 832,-50.92 832,-36.18"/>
<text text-anchor="middle" x="834" y="-59.6" font-family="arial" font-size="8.00" fill="#3cb4a4">y</text>
</g>
<!-- inline1629x1631 -->
<g id="node32" class="node">
<title>inline1629x1631</title>
<ellipse fill="#d7ede7" stroke="black" cx="977" cy="-540" rx="83.9" ry="18"/>
<text text-anchor="middle" x="977" y="-538.1" font-family="Arial" font-size="8.00" fill="#1a1919">1629 C(RubyBasicObject@7fc889f3)</text>
</g>
<!-- inline1629x1631&#45;&gt;node1631 -->
<g id="edge18" class="edge">
<title>inline1629x1631&#45;&gt;node1631</title>
<path fill="none" stroke="#3cb4a4" d="M974.37,-521.8C972.07,-506.76 968.75,-485.08 966.49,-470.31"/>
<text text-anchor="middle" x="973" y="-494.6" font-family="arial" font-size="8.00" fill="#3cb4a4">y</text>
</g>
<!-- inline23x2142 -->
<g id="node33" class="node">
<title>inline23x2142</title>
<ellipse fill="#d7ede7" stroke="black" cx="1168" cy="-105" rx="27" ry="18"/>
<text text-anchor="middle" x="1168" y="-103.1" font-family="Arial" font-size="8.00" fill="#1a1919">23 C(1)</text>
</g>
<!-- inline23x2142&#45;&gt;node2142 -->
<g id="edge22" class="edge">
<title>inline23x2142&#45;&gt;node2142</title>
<path fill="none" stroke="#3cb4a4" d="M1154.77,-88.8C1141.55,-73.62 1121.31,-50.37 1107.87,-34.93"/>
<text text-anchor="middle" x="1137" y="-59.6" font-family="arial" font-size="8.00" fill="#3cb4a4">y</text>
</g>
<!-- inline23x2144 -->
<g id="node34" class="node">
<title>inline23x2144</title>
<ellipse fill="#d7ede7" stroke="black" cx="1256" cy="-279" rx="27" ry="18"/>
<text text-anchor="middle" x="1256" y="-277.1" font-family="Arial" font-size="8.00" fill="#1a1919">23 C(1)</text>
</g>
<!-- inline23x2144&#45;&gt;node2144 -->
<g id="edge24" class="edge">
<title>inline23x2144&#45;&gt;node2144</title>
<path fill="none" stroke="#3cb4a4" d="M1256,-260.8C1256,-246.05 1256,-224.92 1256,-210.18"/>
<text text-anchor="middle" x="1258" y="-233.6" font-family="arial" font-size="8.00" fill="#3cb4a4">y</text>
</g>
<!-- inline23x2502 -->
<g id="node35" class="node">
<title>inline23x2502</title>
<ellipse fill="#d7ede7" stroke="black" cx="719" cy="-192" rx="27" ry="18"/>
<text text-anchor="middle" x="719" y="-190.1" font-family="Arial" font-size="8.00" fill="#1a1919">23 C(1)</text>
</g>
<!-- inline23x2502&#45;&gt;node2502 -->
<g id="edge30" class="edge">
<title>inline23x2502&#45;&gt;node2502</title>
<path fill="none" stroke="#3cb4a4" d="M709.45,-174.84C702.15,-163.81 691.11,-149.66 678,-141 661.16,-129.87 640.72,-122.21 621.52,-116.97"/>
<text text-anchor="middle" x="695" y="-146.6" font-family="arial" font-size="8.00" fill="#3cb4a4">y</text>
</g>
<!-- inline23x2504 -->
<g id="node36" class="node">
<title>inline23x2504</title>
<ellipse fill="#d7ede7" stroke="black" cx="384" cy="-366" rx="27" ry="18"/>
<text text-anchor="middle" x="384" y="-364.1" font-family="Arial" font-size="8.00" fill="#1a1919">23 C(1)</text>
</g>
<!-- inline23x2504&#45;&gt;node2504 -->
<g id="edge32" class="edge">
<title>inline23x2504&#45;&gt;node2504</title>
<path fill="none" stroke="#3cb4a4" d="M384,-347.8C384,-333.05 384,-311.92 384,-297.18"/>
<text text-anchor="middle" x="386" y="-320.6" font-family="arial" font-size="8.00" fill="#3cb4a4">y</text>
</g>
<!-- inline125x1631 -->
<g id="node37" class="node">
<title>inline125x1631</title>
<ellipse fill="#d7ede7" stroke="black" cx="848" cy="-540" rx="27.46" ry="18"/>
<text text-anchor="middle" x="848" y="-538.1" font-family="Arial" font-size="8.00" fill="#1a1919">125 T(5)</text>
</g>
<!-- inline125x1631&#45;&gt;node1631 -->
<g id="edge46" class="edge">
<title>inline125x1631&#45;&gt;node1631</title>
<path fill="none" stroke="#3cb4a4" d="M865.62,-526.09C887.8,-509.84 925.63,-482.12 947.35,-466.2"/>
<text text-anchor="middle" x="914" y="-494.6" font-family="arial" font-size="8.00" fill="#3cb4a4">x</text>
</g>
<!-- inline161x532 -->
<g id="node38" class="node">
<title>inline161x532</title>
<ellipse fill="#d7ede7" stroke="black" cx="166" cy="-1174" rx="27.46" ry="18"/>
<text text-anchor="middle" x="166" y="-1172.1" font-family="Arial" font-size="8.00" fill="#1a1919">161 T(7)</text>
</g>
<!-- inline161x532&#45;&gt;node532 -->
<g id="edge47" class="edge">
<title>inline161x532&#45;&gt;node532</title>
<path fill="none" stroke="#3cb4a4" d="M155.68,-1157.01C147.06,-1143.67 134.81,-1124.69 126.01,-1111.06"/>
<text text-anchor="middle" x="151.5" y="-1131.6" font-family="arial" font-size="8.00" fill="#3cb4a4">value</text>
</g>
<!-- inline2x2841 -->
<g id="node39" class="node">
<title>inline2x2841</title>
<ellipse fill="#d7ede7" stroke="black" cx="101" cy="-1255" rx="27" ry="18"/>
<text text-anchor="middle" x="101" y="-1253.1" font-family="Arial" font-size="8.00" fill="#1a1919">2 P(1)</text>
</g>
<!-- inline2x2841&#45;&gt;node2841 -->
<g id="edge48" class="edge">
<title>inline2x2841&#45;&gt;node2841</title>
<path fill="none" stroke="#3cb4a4" d="M93.33,-1237.63C87.11,-1224.34 78.36,-1205.67 72.04,-1192.17"/>
<text text-anchor="middle" x="92.5" y="-1212.6" font-family="arial" font-size="8.00" fill="#3cb4a4">array</text>
</g>
</g>
</svg>
