<?xml version="1.0" encoding="UTF-8" standalone="no"?>
<!DOCTYPE svg PUBLIC "-//W3C//DTD SVG 1.1//EN"
 "http://www.w3.org/Graphics/SVG/1.1/DTD/svg11.dtd">
<!-- Generated by graphviz version 2.44.1 (20200629.0846)
 -->
<!-- Title: G Pages: 1 -->
<svg width="673pt" height="1145pt"
 viewBox="0.00 0.00 673.00 1144.77" xmlns="http://www.w3.org/2000/svg" xmlns:xlink="http://www.w3.org/1999/xlink">
<g id="graph0" class="graph" transform="scale(1 1) rotate(0) translate(4 1140.77)">
<title>G</title>
<!-- node0 -->
<g id="node1" class="node">
<title>node0</title>
<polygon fill="#e98693" stroke="black" points="432,-1136.77 376,-1136.77 376,-1100.77 432,-1100.77 432,-1136.77"/>
<text text-anchor="middle" x="404" y="-1115.07" font-family="Arial" font-size="14.00" fill="#1a1919">0 Start</text>
</g>
<!-- node1510 -->
<g id="node15" class="node">
<title>node1510</title>
<polygon fill="#da2d4f" stroke="black" points="496.5,-1055.77 383.5,-1055.77 383.5,-1019.77 496.5,-1019.77 496.5,-1055.77"/>
<text text-anchor="middle" x="440" y="-1034.07" font-family="Arial" font-size="14.00" fill="#ffffff">1510 Load T(...)</text>
</g>
<!-- node0&#45;&gt;node1510 -->
<g id="edge27" class="edge">
<title>node0&#45;&gt;node1510</title>
<path fill="none" stroke="#da2d4f" stroke-width="2" d="M411.81,-1100.63C416.53,-1090.28 422.64,-1076.87 427.96,-1065.18"/>
<polygon fill="#da2d4f" stroke="#da2d4f" stroke-width="2" points="431.24,-1066.43 432.2,-1055.88 424.87,-1063.53 431.24,-1066.43"/>
</g>
<!-- node681 -->
<g id="node2" class="node">
<title>node681</title>
<polygon fill="#f9f9f9" stroke="black" points="549,-974.77 467,-974.77 467,-938.77 549,-938.77 549,-974.77"/>
<text text-anchor="middle" x="508" y="-953.07" font-family="Arial" font-size="14.00" fill="#1a1919">681 Unbox</text>
</g>
<!-- node1021 -->
<g id="node3" class="node">
<title>node1021</title>
<polygon fill="#da2d4f" stroke="black" points="306,-887.77 0,-887.77 0,-851.77 306,-851.77 306,-887.77"/>
<text text-anchor="middle" x="153" y="-866.07" font-family="Arial" font-size="14.00" fill="#ffffff">1021 LoadField RubyDynamicObject.metaClass</text>
</g>
<!-- node681&#45;&gt;node1021 -->
<g id="edge1" class="edge">
<title>node681&#45;&gt;node1021</title>
<path fill="none" stroke="#da2d4f" stroke-width="2" d="M466.93,-945.94C410.28,-932.37 306.93,-907.63 234.34,-890.24"/>
<polygon fill="#da2d4f" stroke="#da2d4f" stroke-width="2" points="234.84,-886.77 224.3,-887.84 233.21,-893.57 234.84,-886.77"/>
</g>
<!-- node1433 -->
<g id="node8" class="node">
<title>node1433</title>
<polygon fill="#3cb4a4" stroke="black" points="508,-833.77 398.74,-815.77 508,-797.77 617.26,-815.77 508,-833.77"/>
<text text-anchor="middle" x="508" y="-812.07" font-family="Arial" font-size="14.00" fill="#1a1919">1433 SignExtend</text>
</g>
<!-- node681&#45;&gt;node1433 -->
<g id="edge9" class="edge">
<title>node681&#45;&gt;node1433</title>
<path fill="none" stroke="#3cb4a4" d="M508,-938.73C508,-915.17 508,-872.41 508,-844.3"/>
<polygon fill="#3cb4a4" stroke="#3cb4a4" points="511.5,-843.95 508,-833.95 504.5,-843.95 511.5,-843.95"/>
<text text-anchor="middle" x="524.5" y="-909.57" font-family="arial" font-size="14.00" fill="#3cb4a4">value</text>
</g>
<!-- node1508 -->
<g id="node13" class="node">
<title>node1508</title>
<polygon fill="#f9f9f9" stroke="black" points="644.5,-123 449.5,-123 449.5,-87 644.5,-87 644.5,-123"/>
<text text-anchor="middle" x="547" y="-101.3" font-family="Arial" font-size="14.00" fill="#1a1919">1508 BoxNode$AllocatingBox</text>
</g>
<!-- node681&#45;&gt;node1508 -->
<g id="edge18" class="edge">
<title>node681&#45;&gt;node1508</title>
<path fill="none" stroke="#3cb4a4" d="M549.29,-945.85C585.36,-934.43 632,-911.75 632,-870.77 632,-870.77 632,-870.77 632,-177 632,-155.85 616.31,-139.77 598.41,-128.3"/>
<polygon fill="#3cb4a4" stroke="#3cb4a4" points="599.89,-125.11 589.5,-123.04 596.33,-131.14 599.89,-125.11"/>
<text text-anchor="middle" x="648.5" y="-502.3" font-family="arial" font-size="14.00" fill="#3cb4a4">value</text>
</g>
<!-- node1077 -->
<g id="node4" class="node">
<title>node1077</title>
<polygon fill="#3cb4a4" stroke="black" points="243,-779.77 181.33,-761.77 243,-743.77 304.67,-761.77 243,-779.77"/>
<text text-anchor="middle" x="243" y="-758.07" font-family="Arial" font-size="14.00" fill="#1a1919">1077 ==</text>
</g>
<!-- node1021&#45;&gt;node1077 -->
<g id="edge3" class="edge">
<title>node1021&#45;&gt;node1077</title>
<path fill="none" stroke="#3cb4a4" d="M167.46,-851.74C183.01,-833.43 207.76,-804.27 224.67,-784.36"/>
<polygon fill="#3cb4a4" stroke="#3cb4a4" points="227.36,-786.6 231.16,-776.71 222.02,-782.07 227.36,-786.6"/>
<text text-anchor="middle" x="215.5" y="-812.07" font-family="arial" font-size="14.00" fill="#3cb4a4">x</text>
</g>
<!-- node1459 -->
<g id="node9" class="node">
<title>node1459</title>
<polygon fill="#ffa500" stroke="black" points="332.5,-692.77 81.5,-692.77 81.5,-656.77 332.5,-656.77 332.5,-692.77"/>
<text text-anchor="middle" x="207" y="-671.07" font-family="Arial" font-size="14.00" fill="#1a1919">1459 Guard, else TransferToInterpreter</text>
</g>
<!-- node1021&#45;&gt;node1459 -->
<g id="edge2" class="edge">
<title>node1021&#45;&gt;node1459</title>
<path fill="none" stroke="#da2d4f" stroke-width="2" d="M153.87,-851.38C155.48,-826.85 159.97,-780.94 172,-743.77 176.69,-729.27 184.21,-714.11 191.08,-701.79"/>
<polygon fill="#da2d4f" stroke="#da2d4f" stroke-width="2" points="194.19,-703.4 196.15,-692.98 188.13,-699.91 194.19,-703.4"/>
</g>
<!-- node1077&#45;&gt;node1459 -->
<g id="edge10" class="edge">
<title>node1077&#45;&gt;node1459</title>
<path fill="none" stroke="#3cb4a4" d="M236.56,-745.57C231.47,-733.55 224.23,-716.46 218.19,-702.2"/>
<polygon fill="#3cb4a4" stroke="#3cb4a4" points="221.37,-700.72 214.25,-692.88 214.92,-703.45 221.37,-700.72"/>
<text text-anchor="middle" x="232" y="-714.57" font-family="arial" font-size="14.00" fill="#3cb4a4">?</text>
</g>
<!-- node1288 -->
<g id="node5" class="node">
<title>node1288</title>
<polygon fill="#e98693" stroke="black" points="592.5,-36 501.5,-36 501.5,0 592.5,0 592.5,-36"/>
<text text-anchor="middle" x="547" y="-14.3" font-family="Arial" font-size="14.00" fill="#1a1919">1288 Return</text>
</g>
<!-- node1355 -->
<g id="node6" class="node">
<title>node1355</title>
<polygon fill="#da2d4f" stroke="black" points="493.5,-611.38 246.5,-611.38 246.5,-575.38 493.5,-575.38 493.5,-611.38"/>
<text text-anchor="middle" x="370" y="-589.68" font-family="Arial" font-size="14.00" fill="#ffffff">1355 LoadField DynamicObject.shape</text>
</g>
<!-- node1357 -->
<g id="node7" class="node">
<title>node1357</title>
<polygon fill="#3cb4a4" stroke="black" points="218,-524 156.33,-506 218,-488 279.67,-506 218,-524"/>
<text text-anchor="middle" x="218" y="-502.3" font-family="Arial" font-size="14.00" fill="#1a1919">1357 ==</text>
</g>
<!-- node1355&#45;&gt;node1357 -->
<g id="edge7" class="edge">
<title>node1355&#45;&gt;node1357</title>
<path fill="none" stroke="#3cb4a4" d="M339.61,-575.31C312.64,-560.16 273.51,-538.18 246.98,-523.28"/>
<polygon fill="#3cb4a4" stroke="#3cb4a4" points="248.59,-520.17 238.16,-518.32 245.16,-526.27 248.59,-520.17"/>
<text text-anchor="middle" x="307.5" y="-545.8" font-family="arial" font-size="14.00" fill="#3cb4a4">x</text>
</g>
<!-- node1466 -->
<g id="node12" class="node">
<title>node1466</title>
<polygon fill="#ffa500" stroke="black" points="495.5,-437 244.5,-437 244.5,-401 495.5,-401 495.5,-437"/>
<text text-anchor="middle" x="370" y="-415.3" font-family="Arial" font-size="14.00" fill="#1a1919">1466 Guard, else TransferToInterpreter</text>
</g>
<!-- node1355&#45;&gt;node1466 -->
<g id="edge6" class="edge">
<title>node1355&#45;&gt;node1466</title>
<path fill="none" stroke="#da2d4f" stroke-width="2" d="M370,-575.23C370,-545.28 370,-483.25 370,-447.33"/>
<polygon fill="#da2d4f" stroke="#da2d4f" stroke-width="2" points="373.5,-447.09 370,-437.09 366.5,-447.09 373.5,-447.09"/>
</g>
<!-- node1463 -->
<g id="node10" class="node">
<title>node1463</title>
<polygon fill="#ffa500" stroke="black" points="495.5,-350 244.5,-350 244.5,-314 495.5,-314 495.5,-350"/>
<text text-anchor="middle" x="370" y="-328.3" font-family="Arial" font-size="14.00" fill="#1a1919">1463 Guard, else TransferToInterpreter</text>
</g>
<!-- node1357&#45;&gt;node1463 -->
<g id="edge12" class="edge">
<title>node1357&#45;&gt;node1463</title>
<path fill="none" stroke="#3cb4a4" d="M214.76,-488.56C211.38,-466.53 208.82,-427.21 227,-401 242.15,-379.17 266.25,-364.13 290.38,-353.86"/>
<polygon fill="#3cb4a4" stroke="#3cb4a4" points="291.98,-356.99 299.97,-350.02 289.38,-350.49 291.98,-356.99"/>
<text text-anchor="middle" x="231" y="-415.3" font-family="arial" font-size="14.00" fill="#3cb4a4">?</text>
</g>
<!-- node1465 -->
<g id="node11" class="node">
<title>node1465</title>
<polygon fill="#ffa500" stroke="black" points="495.5,-277 244.5,-277 244.5,-241 495.5,-241 495.5,-277"/>
<text text-anchor="middle" x="370" y="-255.3" font-family="Arial" font-size="14.00" fill="#1a1919">1465 Guard, else TransferToInterpreter</text>
</g>
<!-- node1357&#45;&gt;node1465 -->
<g id="edge14" class="edge">
<title>node1357&#45;&gt;node1465</title>
<path fill="none" stroke="#3cb4a4" d="M213.02,-489.13C211.4,-483.19 209.8,-476.35 209,-470 208.16,-463.39 208.88,-461.67 209,-455 210.18,-391.29 192.52,-361.5 235,-314 248.04,-299.42 265.56,-288.72 283.64,-280.88"/>
<polygon fill="#3cb4a4" stroke="#3cb4a4" points="285.18,-284.04 293.13,-277.04 282.55,-277.55 285.18,-284.04"/>
<text text-anchor="middle" x="212" y="-371.8" font-family="arial" font-size="14.00" fill="#3cb4a4">?</text>
</g>
<!-- node1357&#45;&gt;node1466 -->
<g id="edge16" class="edge">
<title>node1357&#45;&gt;node1466</title>
<path fill="none" stroke="#3cb4a4" d="M238.18,-493.71C261.68,-480.58 301.03,-458.57 330.63,-442.02"/>
<polygon fill="#3cb4a4" stroke="#3cb4a4" points="332.46,-445 339.48,-437.07 329.04,-438.89 332.46,-445"/>
<text text-anchor="middle" x="308" y="-458.8" font-family="arial" font-size="14.00" fill="#3cb4a4">?</text>
</g>
<!-- node1509 -->
<g id="node14" class="node">
<title>node1509</title>
<polygon fill="#da2d4f" stroke="black" points="558,-196 276,-196 276,-160 558,-160 558,-196"/>
<text text-anchor="middle" x="417" y="-174.3" font-family="Arial" font-size="14.00" fill="#ffffff">1509 StoreField RubyBasicObject.primitive1</text>
</g>
<!-- node1433&#45;&gt;node1509 -->
<g id="edge20" class="edge">
<title>node1433&#45;&gt;node1509</title>
<path fill="none" stroke="#3cb4a4" d="M512.46,-798.35C517.19,-779.43 524,-747.34 524,-719.27 524,-719.27 524,-719.27 524,-258 524,-231.59 502.64,-213.01 479,-200.53"/>
<polygon fill="#3cb4a4" stroke="#3cb4a4" points="480.39,-197.31 469.87,-196.04 477.3,-203.6 480.39,-197.31"/>
<text text-anchor="middle" x="540.5" y="-502.3" font-family="arial" font-size="14.00" fill="#3cb4a4">value</text>
</g>
<!-- node1459&#45;&gt;node1355 -->
<g id="edge11" class="edge">
<title>node1459&#45;&gt;node1355</title>
<path fill="none" stroke="#da2d4f" stroke-width="2" d="M241.97,-656.74C266.57,-644.76 299.68,-628.63 326.06,-615.78"/>
<polygon fill="#da2d4f" stroke="#da2d4f" stroke-width="2" points="327.63,-618.91 335.09,-611.39 324.57,-612.62 327.63,-618.91"/>
</g>
<!-- node1463&#45;&gt;node1465 -->
<g id="edge13" class="edge">
<title>node1463&#45;&gt;node1465</title>
<path fill="none" stroke="#da2d4f" stroke-width="2" d="M370,-313.81C370,-305.79 370,-296.05 370,-287.07"/>
<polygon fill="#da2d4f" stroke="#da2d4f" stroke-width="2" points="373.5,-287.03 370,-277.03 366.5,-287.03 373.5,-287.03"/>
</g>
<!-- node1465&#45;&gt;node1509 -->
<g id="edge15" class="edge">
<title>node1465&#45;&gt;node1509</title>
<path fill="none" stroke="#da2d4f" stroke-width="2" d="M380.2,-240.86C386.48,-230.3 394.65,-216.56 401.7,-204.71"/>
<polygon fill="#da2d4f" stroke="#da2d4f" stroke-width="2" points="404.72,-206.49 406.82,-196.11 398.7,-202.91 404.72,-206.49"/>
</g>
<!-- node1466&#45;&gt;node1463 -->
<g id="edge17" class="edge">
<title>node1466&#45;&gt;node1463</title>
<path fill="none" stroke="#da2d4f" stroke-width="2" d="M370,-400.8C370,-389.16 370,-373.55 370,-360.24"/>
<polygon fill="#da2d4f" stroke="#da2d4f" stroke-width="2" points="373.5,-360.18 370,-350.18 366.5,-360.18 373.5,-360.18"/>
</g>
<!-- node1508&#45;&gt;node1288 -->
<g id="edge5" class="edge">
<title>node1508&#45;&gt;node1288</title>
<path fill="none" stroke="#3cb4a4" d="M532.9,-86.84C529.28,-81.46 525.88,-75.27 524,-69 521.59,-60.93 523.56,-52.49 527.19,-44.89"/>
<polygon fill="#3cb4a4" stroke="#3cb4a4" points="530.29,-46.53 532.25,-36.12 524.22,-43.03 530.29,-46.53"/>
<text text-anchor="middle" x="541" y="-57.8" font-family="arial" font-size="14.00" fill="#3cb4a4">result</text>
</g>
<!-- node1508&#45;&gt;node1288 -->
<g id="edge19" class="edge">
<title>node1508&#45;&gt;node1288</title>
<path fill="none" stroke="#da2d4f" stroke-width="2" d="M553.55,-86.8C555.37,-81.21 557.09,-74.92 558,-69 559.17,-61.39 558.29,-53.2 556.61,-45.71"/>
<polygon fill="#da2d4f" stroke="#da2d4f" stroke-width="2" points="559.97,-44.74 553.94,-36.02 553.22,-46.59 559.97,-44.74"/>
</g>
<!-- node1509&#45;&gt;node1508 -->
<g id="edge21" class="edge">
<title>node1509&#45;&gt;node1508</title>
<path fill="none" stroke="#da2d4f" stroke-width="2" d="M448.14,-159.99C465.7,-150.4 487.83,-138.32 506.7,-128.01"/>
<polygon fill="#da2d4f" stroke="#da2d4f" stroke-width="2" points="508.57,-130.98 515.67,-123.11 505.21,-124.84 508.57,-130.98"/>
</g>
<!-- node1510&#45;&gt;node681 -->
<g id="edge28" class="edge">
<title>node1510&#45;&gt;node681</title>
<path fill="none" stroke="#da2d4f" stroke-width="2" d="M454.75,-1019.63C464.02,-1008.86 476.13,-994.79 486.46,-982.79"/>
<polygon fill="#da2d4f" stroke="#da2d4f" stroke-width="2" points="489.4,-984.74 493.27,-974.88 484.1,-980.17 489.4,-984.74"/>
</g>
<!-- inline1076x1077 -->
<g id="node16" class="node">
<title>inline1076x1077</title>
<ellipse fill="#d7ede7" stroke="black" cx="398" cy="-869.77" rx="74.11" ry="18"/>
<text text-anchor="middle" x="398" y="-867.87" font-family="Arial" font-size="8.00" fill="#1a1919">1076 C(RubyClass@2379b6d0)</text>
</g>
<!-- inline1076x1077&#45;&gt;node1077 -->
<g id="edge4" class="edge">
<title>inline1076x1077&#45;&gt;node1077</title>
<path fill="none" stroke="#3cb4a4" d="M374.46,-852.67C343.12,-831.24 288.43,-793.83 260.5,-774.73"/>
<text text-anchor="middle" x="346" y="-813.87" font-family="arial" font-size="8.00" fill="#3cb4a4">y</text>
</g>
<!-- inline1352x1357 -->
<g id="node17" class="node">
<title>inline1352x1357</title>
<ellipse fill="#d7ede7" stroke="black" cx="134" cy="-593.38" rx="94.51" ry="18.27"/>
<text text-anchor="middle" x="134" y="-595.98" font-family="Arial" font-size="8.00" fill="#1a1919">1352 C(@6a48b615{&quot;@x&quot;:int@0</text>
<text text-anchor="middle" x="134" y="-586.98" font-family="Arial" font-size="8.00" fill="#1a1919">})</text>
</g>
<!-- inline1352x1357&#45;&gt;node1357 -->
<g id="edge8" class="edge">
<title>inline1352x1357&#45;&gt;node1357</title>
<path fill="none" stroke="#3cb4a4" d="M151,-575.11C166.91,-558.93 190.36,-535.09 204.88,-520.34"/>
<text text-anchor="middle" x="186" y="-547.6" font-family="arial" font-size="8.00" fill="#3cb4a4">y</text>
</g>
<!-- inline161x1021 -->
<g id="node18" class="node">
<title>inline161x1021</title>
<ellipse fill="#d7ede7" stroke="black" cx="153" cy="-956.77" rx="27.46" ry="18"/>
<text text-anchor="middle" x="153" y="-954.87" font-family="Arial" font-size="8.00" fill="#1a1919">161 T(7)</text>
</g>
<!-- inline161x1021&#45;&gt;node1021 -->
<g id="edge22" class="edge">
<title>inline161x1021&#45;&gt;node1021</title>
<path fill="none" stroke="#3cb4a4" d="M153,-938.57C153,-923.82 153,-902.68 153,-887.94"/>
<text text-anchor="middle" x="164" y="-911.37" font-family="arial" font-size="8.00" fill="#3cb4a4">object</text>
</g>
<!-- inline161x1355 -->
<g id="node19" class="node">
<title>inline161x1355</title>
<ellipse fill="#d7ede7" stroke="black" cx="378" cy="-674.77" rx="27.46" ry="18"/>
<text text-anchor="middle" x="378" y="-672.87" font-family="Arial" font-size="8.00" fill="#1a1919">161 T(7)</text>
</g>
<!-- inline161x1355&#45;&gt;node1355 -->
<g id="edge23" class="edge">
<title>inline161x1355&#45;&gt;node1355</title>
<path fill="none" stroke="#3cb4a4" d="M376.26,-656.54C374.92,-643.23 373.07,-624.88 371.73,-611.58"/>
<text text-anchor="middle" x="386" y="-632.37" font-family="arial" font-size="8.00" fill="#3cb4a4">object</text>
</g>
<!-- inline161x1509 -->
<g id="node20" class="node">
<title>inline161x1509</title>
<ellipse fill="#d7ede7" stroke="black" cx="199" cy="-259" rx="27.46" ry="18"/>
<text text-anchor="middle" x="199" y="-257.1" font-family="Arial" font-size="8.00" fill="#1a1919">161 T(7)</text>
</g>
<!-- inline161x1509&#45;&gt;node1509 -->
<g id="edge24" class="edge">
<title>inline161x1509&#45;&gt;node1509</title>
<path fill="none" stroke="#3cb4a4" d="M220.14,-247.53C224.98,-245.27 230.13,-242.97 235,-241 276.77,-224.09 325.1,-207.77 361.45,-196.12"/>
<text text-anchor="middle" x="316" y="-216.6" font-family="arial" font-size="8.00" fill="#3cb4a4">object</text>
</g>
<!-- inline178x681 -->
<g id="node21" class="node">
<title>inline178x681</title>
<ellipse fill="#d7ede7" stroke="black" cx="542" cy="-1037.77" rx="27.46" ry="18"/>
<text text-anchor="middle" x="542" y="-1035.87" font-family="Arial" font-size="8.00" fill="#1a1919">178 T(8)</text>
</g>
<!-- inline178x681&#45;&gt;node681 -->
<g id="edge25" class="edge">
<title>inline178x681&#45;&gt;node681</title>
<path fill="none" stroke="#3cb4a4" d="M534.79,-1020.02C529.06,-1006.7 521.08,-988.15 515.32,-974.77"/>
<text text-anchor="middle" x="535.5" y="-995.37" font-family="arial" font-size="8.00" fill="#3cb4a4">value</text>
</g>
<!-- inline2x1510 -->
<g id="node22" class="node">
<title>inline2x1510</title>
<ellipse fill="#d7ede7" stroke="black" cx="477" cy="-1118.77" rx="27" ry="18"/>
<text text-anchor="middle" x="477" y="-1116.87" font-family="Arial" font-size="8.00" fill="#1a1919">2 P(1)</text>
</g>
<!-- inline2x1510&#45;&gt;node1510 -->
<g id="edge26" class="edge">
<title>inline2x1510&#45;&gt;node1510</title>
<path fill="none" stroke="#3cb4a4" d="M469.33,-1101.4C463.11,-1088.11 454.36,-1069.43 448.04,-1055.94"/>
<text text-anchor="middle" x="468.5" y="-1076.37" font-family="arial" font-size="8.00" fill="#3cb4a4">array</text>
</g>
</g>
</svg>
