<?xml version="1.0" encoding="UTF-8" standalone="no"?>
<!DOCTYPE svg PUBLIC "-//W3C//DTD SVG 1.1//EN"
 "http://www.w3.org/Graphics/SVG/1.1/DTD/svg11.dtd">
<!-- Generated by graphviz version 2.44.1 (20200629.0846)
 -->
<!-- Title: G Pages: 1 -->
<svg width="1044pt" height="1782pt"
 viewBox="0.00 0.00 1044.29 1782.00" xmlns="http://www.w3.org/2000/svg" xmlns:xlink="http://www.w3.org/1999/xlink">
<g id="graph0" class="graph" transform="scale(1 1) rotate(0) translate(4 1778)">
<title>G</title>
<!-- node0 -->
<g id="node1" class="node">
<title>node0</title>
<polygon fill="#e98693" stroke="black" points="916.79,-1774 860.79,-1774 860.79,-1738 916.79,-1738 916.79,-1774"/>
<text text-anchor="middle" x="888.79" y="-1752.3" font-family="Arial" font-size="14.00" fill="#1a1919">0 Start</text>
</g>
<!-- node2575 -->
<g id="node38" class="node">
<title>node2575</title>
<polygon fill="#da2d4f" stroke="black" points="982.29,-1693 869.29,-1693 869.29,-1657 982.29,-1657 982.29,-1693"/>
<text text-anchor="middle" x="925.79" y="-1671.3" font-family="Arial" font-size="14.00" fill="#ffffff">2575 Load T(...)</text>
</g>
<!-- node0&#45;&gt;node2575 -->
<g id="edge61" class="edge">
<title>node0&#45;&gt;node2575</title>
<path fill="none" stroke="#da2d4f" stroke-width="2" d="M896.82,-1737.86C901.67,-1727.51 907.95,-1714.1 913.42,-1702.41"/>
<polygon fill="#da2d4f" stroke="#da2d4f" stroke-width="2" points="916.71,-1703.65 917.78,-1693.11 910.37,-1700.68 916.71,-1703.65"/>
</g>
<!-- node545 -->
<g id="node2" class="node">
<title>node545</title>
<polygon fill="#f9f9f9" stroke="black" points="898.79,-1612 816.79,-1612 816.79,-1576 898.79,-1576 898.79,-1612"/>
<text text-anchor="middle" x="857.79" y="-1590.3" font-family="Arial" font-size="14.00" fill="#1a1919">545 Unbox</text>
</g>
<!-- node616 -->
<g id="node3" class="node">
<title>node616</title>
<polygon fill="#ffa500" stroke="black" points="669.79,-1525 431.79,-1525 431.79,-1489 669.79,-1489 669.79,-1525"/>
<text text-anchor="middle" x="550.79" y="-1503.3" font-family="Arial" font-size="14.00" fill="#1a1919">616 Guard, else ClassCastException</text>
</g>
<!-- node545&#45;&gt;node616 -->
<g id="edge1" class="edge">
<title>node545&#45;&gt;node616</title>
<path fill="none" stroke="#da2d4f" stroke-width="2" d="M837.21,-1575.9C822.64,-1564.72 802.15,-1550.8 781.79,-1543 771.36,-1539 727.13,-1531.96 680.12,-1525.24"/>
<polygon fill="#da2d4f" stroke="#da2d4f" stroke-width="2" points="680.45,-1521.75 670.06,-1523.81 679.47,-1528.68 680.45,-1521.75"/>
</g>
<!-- node2546 -->
<g id="node32" class="node">
<title>node2546</title>
<polygon fill="#f9f9f9" stroke="black" points="545.79,-123 487.79,-123 487.79,-87 545.79,-87 545.79,-123"/>
<text text-anchor="middle" x="516.79" y="-101.3" font-family="Arial" font-size="14.00" fill="#1a1919">2546 ϕ</text>
</g>
<!-- node545&#45;&gt;node2546 -->
<g id="edge44" class="edge">
<title>node545&#45;&gt;node2546</title>
<path fill="none" stroke="#3cb4a4" d="M857.79,-1575.74C857.79,-1558.57 857.79,-1531.46 857.79,-1508 857.79,-1508 857.79,-1508 857.79,-1156.5 857.79,-977.79 858.8,-932.23 835.79,-755 829.28,-704.82 812.79,-694.1 812.79,-643.5 812.79,-643.5 812.79,-643.5 812.79,-315 812.79,-229.76 749.32,-227.29 682.79,-174 677.08,-169.42 632.48,-143.97 625.79,-141 603.31,-131.02 577.1,-122.51 556.01,-116.38"/>
<polygon fill="#3cb4a4" stroke="#3cb4a4" points="556.68,-112.94 546.11,-113.57 554.77,-119.67 556.68,-112.94"/>
<text text-anchor="middle" x="876.29" y="-842.3" font-family="arial" font-size="14.00" fill="#3cb4a4">from 830</text>
</g>
<!-- node2574 -->
<g id="node37" class="node">
<title>node2574</title>
<polygon fill="#f9f9f9" stroke="black" points="1036.29,-704 841.29,-704 841.29,-668 1036.29,-668 1036.29,-704"/>
<text text-anchor="middle" x="938.79" y="-682.3" font-family="Arial" font-size="14.00" fill="#1a1919">2574 BoxNode$AllocatingBox</text>
</g>
<!-- node545&#45;&gt;node2574 -->
<g id="edge53" class="edge">
<title>node545&#45;&gt;node2574</title>
<path fill="none" stroke="#3cb4a4" d="M889.81,-1575.89C912.45,-1561.22 938.79,-1537.76 938.79,-1508 938.79,-1508 938.79,-1508 938.79,-772 938.79,-752.75 938.79,-731.05 938.79,-714.4"/>
<polygon fill="#3cb4a4" stroke="#3cb4a4" points="942.29,-714.26 938.79,-704.26 935.29,-714.26 942.29,-714.26"/>
<text text-anchor="middle" x="955.29" y="-1153.8" font-family="arial" font-size="14.00" fill="#3cb4a4">value</text>
</g>
<!-- node2519 -->
<g id="node30" class="node">
<title>node2519</title>
<polygon fill="#ffa500" stroke="black" points="786.29,-1438 535.29,-1438 535.29,-1402 786.29,-1402 786.29,-1438"/>
<text text-anchor="middle" x="660.79" y="-1416.3" font-family="Arial" font-size="14.00" fill="#1a1919">2519 Guard, else TransferToInterpreter</text>
</g>
<!-- node616&#45;&gt;node2519 -->
<g id="edge3" class="edge">
<title>node616&#45;&gt;node2519</title>
<path fill="none" stroke="#da2d4f" stroke-width="2" d="M573.05,-1488.8C589.6,-1476.01 612.37,-1458.42 630.57,-1444.36"/>
<polygon fill="#da2d4f" stroke="#da2d4f" stroke-width="2" points="632.79,-1447.06 638.57,-1438.18 628.51,-1441.52 632.79,-1447.06"/>
</g>
<!-- node617 -->
<g id="node4" class="node">
<title>node617</title>
<polygon fill="#f9f9f9" stroke="black" points="710.29,-1612 391.29,-1612 391.29,-1576 710.29,-1576 710.29,-1612"/>
<text text-anchor="middle" x="550.79" y="-1590.3" font-family="Arial" font-size="14.00" fill="#1a1919">617 InstanceOf org/truffleruby/core/proc/RubyProc</text>
</g>
<!-- node617&#45;&gt;node616 -->
<g id="edge2" class="edge">
<title>node617&#45;&gt;node616</title>
<path fill="none" stroke="#3cb4a4" d="M550.79,-1575.8C550.79,-1564.16 550.79,-1548.55 550.79,-1535.24"/>
<polygon fill="#3cb4a4" stroke="#3cb4a4" points="554.29,-1535.18 550.79,-1525.18 547.29,-1535.18 554.29,-1535.18"/>
<text text-anchor="middle" x="554.79" y="-1546.8" font-family="arial" font-size="14.00" fill="#3cb4a4">?</text>
</g>
<!-- node623 -->
<g id="node5" class="node">
<title>node623</title>
<polygon fill="#3cb4a4" stroke="black" points="758.79,-1525 688.24,-1507 758.79,-1489 829.35,-1507 758.79,-1525"/>
<text text-anchor="middle" x="758.79" y="-1503.3" font-family="Arial" font-size="14.00" fill="#1a1919">623 IsNull</text>
</g>
<!-- node623&#45;&gt;node2519 -->
<g id="edge39" class="edge">
<title>node623&#45;&gt;node2519</title>
<path fill="none" stroke="#3cb4a4" d="M743.48,-1492.72C728.82,-1480 706.37,-1460.53 688.56,-1445.08"/>
<polygon fill="#3cb4a4" stroke="#3cb4a4" points="690.59,-1442.21 680.74,-1438.3 686.01,-1447.5 690.59,-1442.21"/>
<text text-anchor="middle" x="719.79" y="-1459.8" font-family="arial" font-size="14.00" fill="#3cb4a4">?</text>
</g>
<!-- node830 -->
<g id="node6" class="node">
<title>node830</title>
<polygon fill="#e98693" stroke="black" points="694.29,-1365 627.29,-1365 627.29,-1329 694.29,-1329 694.29,-1365"/>
<text text-anchor="middle" x="660.79" y="-1343.3" font-family="Arial" font-size="14.00" fill="#1a1919">830 End</text>
</g>
<!-- node831 -->
<g id="node7" class="node">
<title>node831</title>
<polygon fill="#e98693" stroke="black" points="714.29,-1292 607.29,-1292 607.29,-1256 714.29,-1256 714.29,-1292"/>
<text text-anchor="middle" x="660.79" y="-1270.3" font-family="Arial" font-size="14.00" fill="#1a1919">831 LoopBegin</text>
</g>
<!-- node830&#45;&gt;node831 -->
<g id="edge4" class="edge">
<title>node830&#45;&gt;node831</title>
<path fill="none" stroke="#da2d4f" stroke-width="2" d="M660.79,-1328.81C660.79,-1320.79 660.79,-1311.05 660.79,-1302.07"/>
<polygon fill="#da2d4f" stroke="#da2d4f" stroke-width="2" points="664.29,-1302.03 660.79,-1292.03 657.29,-1302.03 664.29,-1302.03"/>
</g>
<!-- node1048 -->
<g id="node9" class="node">
<title>node1048</title>
<polygon fill="#e98693" stroke="black" points="708.79,-1219 650.79,-1219 650.79,-1183 708.79,-1183 708.79,-1219"/>
<text text-anchor="middle" x="679.79" y="-1197.3" font-family="Arial" font-size="14.00" fill="#1a1919">1048 If</text>
</g>
<!-- node831&#45;&gt;node1048 -->
<g id="edge5" class="edge">
<title>node831&#45;&gt;node1048</title>
<path fill="none" stroke="#da2d4f" stroke-width="2" d="M665.39,-1255.81C667.56,-1247.7 670.2,-1237.84 672.63,-1228.78"/>
<polygon fill="#da2d4f" stroke="#da2d4f" stroke-width="2" points="676.03,-1229.59 675.24,-1219.03 669.27,-1227.78 676.03,-1229.59"/>
</g>
<!-- node831&#45;&gt;node2546 -->
<g id="edge43" class="edge">
<title>node831&#45;&gt;node2546</title>
<path fill="none" stroke="#343d46" stroke-dasharray="5,2" d="M597.29,-1272.23C440.16,-1269.48 45.79,-1257.08 45.79,-1202 45.79,-1202 45.79,-1202 45.79,-315 45.79,-120.65 385,-105.65 487.69,-105.56"/>
<polygon fill="#343d46" stroke="#343d46" points="597.24,-1275.73 607.29,-1272.4 597.35,-1268.73 597.24,-1275.73"/>
</g>
<!-- node1009 -->
<g id="node8" class="node">
<title>node1009</title>
<polygon fill="#3cb4a4" stroke="black" points="811.79,-36 757.33,-18 811.79,0 866.26,-18 811.79,-36"/>
<text text-anchor="middle" x="811.79" y="-14.3" font-family="Arial" font-size="14.00" fill="#1a1919">1009 &lt;</text>
</g>
<!-- node1009&#45;&gt;node1048 -->
<g id="edge8" class="edge">
<title>node1009&#45;&gt;node1048</title>
<path fill="none" stroke="#3cb4a4" d="M808.38,-34.96C799.22,-79.2 774.79,-207.28 774.79,-315 774.79,-440 774.79,-440 774.79,-440 774.79,-581.48 746.76,-614.66 728.79,-755 708.56,-913.07 689.3,-1103.39 682.44,-1172.9"/>
<polygon fill="#3cb4a4" stroke="#3cb4a4" points="678.94,-1172.7 681.45,-1183 685.91,-1173.39 678.94,-1172.7"/>
<text text-anchor="middle" x="766.79" y="-595.3" font-family="arial" font-size="14.00" fill="#3cb4a4">?</text>
</g>
<!-- node1051 -->
<g id="node10" class="node">
<title>node1051</title>
<polygon fill="#e98693" stroke="black" points="659.29,-1132 574.29,-1132 574.29,-1096 659.29,-1096 659.29,-1132"/>
<text text-anchor="middle" x="616.79" y="-1110.3" font-family="Arial" font-size="14.00" fill="#1a1919">1051 Begin</text>
</g>
<!-- node1048&#45;&gt;node1051 -->
<g id="edge10" class="edge">
<title>node1048&#45;&gt;node1051</title>
<path fill="none" stroke="#da2d4f" stroke-width="2" d="M667.05,-1182.8C657.99,-1170.59 645.69,-1153.99 635.53,-1140.28"/>
<polygon fill="#da2d4f" stroke="#da2d4f" stroke-width="2" points="638.29,-1138.13 629.52,-1132.18 632.67,-1142.29 638.29,-1138.13"/>
<text text-anchor="middle" x="657.29" y="-1153.8" font-family="arial" font-size="14.00" fill="#da2d4f">F</text>
</g>
<!-- node2241 -->
<g id="node19" class="node">
<title>node2241</title>
<polygon fill="#e98693" stroke="black" points="829.29,-1132 726.29,-1132 726.29,-1096 829.29,-1096 829.29,-1132"/>
<text text-anchor="middle" x="777.79" y="-1110.3" font-family="Arial" font-size="14.00" fill="#1a1919">2241 LoopExit</text>
</g>
<!-- node1048&#45;&gt;node2241 -->
<g id="edge9" class="edge">
<title>node1048&#45;&gt;node2241</title>
<path fill="none" stroke="#da2d4f" stroke-width="2" d="M699.63,-1182.8C714.24,-1170.13 734.29,-1152.73 750.43,-1138.74"/>
<polygon fill="#da2d4f" stroke="#da2d4f" stroke-width="2" points="752.73,-1141.37 757.99,-1132.18 748.14,-1136.08 752.73,-1141.37"/>
<text text-anchor="middle" x="739.29" y="-1153.8" font-family="arial" font-size="14.00" fill="#da2d4f">T</text>
</g>
<!-- node1283 -->
<g id="node12" class="node">
<title>node1283</title>
<polygon fill="#e98693" stroke="black" points="587.79,-1059 529.79,-1059 529.79,-1023 587.79,-1023 587.79,-1059"/>
<text text-anchor="middle" x="558.79" y="-1037.3" font-family="Arial" font-size="14.00" fill="#1a1919">1283 If</text>
</g>
<!-- node1051&#45;&gt;node1283 -->
<g id="edge11" class="edge">
<title>node1051&#45;&gt;node1283</title>
<path fill="none" stroke="#da2d4f" stroke-width="2" d="M602.75,-1095.81C595.7,-1087.18 587.02,-1076.56 579.24,-1067.03"/>
<polygon fill="#da2d4f" stroke="#da2d4f" stroke-width="2" points="581.74,-1064.56 572.71,-1059.03 576.32,-1068.99 581.74,-1064.56"/>
</g>
<!-- node1240 -->
<g id="node11" class="node">
<title>node1240</title>
<polygon fill="#3cb4a4" stroke="black" points="83.79,-36 22.13,-18 83.79,0 145.46,-18 83.79,-36"/>
<text text-anchor="middle" x="83.79" y="-14.3" font-family="Arial" font-size="14.00" fill="#1a1919">1240 ==</text>
</g>
<!-- node1240&#45;&gt;node1283 -->
<g id="edge14" class="edge">
<title>node1240&#45;&gt;node1283</title>
<path fill="none" stroke="#3cb4a4" d="M83.79,-36.26C83.79,-53.43 83.79,-80.54 83.79,-104 83.79,-236.5 83.79,-236.5 83.79,-236.5 83.79,-299.61 81.38,-696.57 148.79,-791 244.6,-925.2 437.46,-1000.76 519.94,-1028.11"/>
<polygon fill="#3cb4a4" stroke="#3cb4a4" points="519.07,-1031.51 529.67,-1031.28 521.24,-1024.85 519.07,-1031.51"/>
<text text-anchor="middle" x="97.79" y="-508.3" font-family="arial" font-size="14.00" fill="#3cb4a4">?</text>
</g>
<!-- node1285 -->
<g id="node13" class="node">
<title>node1285</title>
<polygon fill="#e98693" stroke="black" points="520.29,-951 435.29,-951 435.29,-915 520.29,-915 520.29,-951"/>
<text text-anchor="middle" x="477.79" y="-929.3" font-family="Arial" font-size="14.00" fill="#1a1919">1285 Begin</text>
</g>
<!-- node1283&#45;&gt;node1285 -->
<g id="edge16" class="edge">
<title>node1283&#45;&gt;node1285</title>
<path fill="none" stroke="#da2d4f" stroke-width="2" d="M545.78,-1022.97C532.63,-1005.76 512.17,-978.98 497.12,-959.29"/>
<polygon fill="#da2d4f" stroke="#da2d4f" stroke-width="2" points="499.9,-957.16 491.05,-951.34 494.34,-961.41 499.9,-957.16"/>
<text text-anchor="middle" x="535.29" y="-983.3" font-family="arial" font-size="14.00" fill="#da2d4f">F</text>
</g>
<!-- node2220 -->
<g id="node18" class="node">
<title>node2220</title>
<polygon fill="#e98693" stroke="black" points="650.29,-951 547.29,-951 547.29,-915 650.29,-915 650.29,-951"/>
<text text-anchor="middle" x="598.79" y="-929.3" font-family="Arial" font-size="14.00" fill="#1a1919">2220 LoopExit</text>
</g>
<!-- node1283&#45;&gt;node2220 -->
<g id="edge15" class="edge">
<title>node1283&#45;&gt;node2220</title>
<path fill="none" stroke="#da2d4f" stroke-width="2" d="M565.22,-1022.97C571.54,-1006.22 581.28,-980.41 588.65,-960.89"/>
<polygon fill="#da2d4f" stroke="#da2d4f" stroke-width="2" points="591.99,-961.93 592.25,-951.34 585.45,-959.46 591.99,-961.93"/>
<text text-anchor="middle" x="589.29" y="-983.3" font-family="arial" font-size="14.00" fill="#da2d4f">T</text>
</g>
<!-- node2525 -->
<g id="node31" class="node">
<title>node2525</title>
<polygon fill="#ffa500" stroke="black" points="589.29,-864 338.29,-864 338.29,-828 589.29,-828 589.29,-864"/>
<text text-anchor="middle" x="463.79" y="-842.3" font-family="Arial" font-size="14.00" fill="#1a1919">2525 Guard, else TransferToInterpreter</text>
</g>
<!-- node1285&#45;&gt;node2525 -->
<g id="edge17" class="edge">
<title>node1285&#45;&gt;node2525</title>
<path fill="none" stroke="#da2d4f" stroke-width="2" d="M474.96,-914.8C473.04,-903.16 470.47,-887.55 468.28,-874.24"/>
<polygon fill="#da2d4f" stroke="#da2d4f" stroke-width="2" points="471.7,-873.47 466.62,-864.18 464.79,-874.61 471.7,-873.47"/>
</g>
<!-- node1557 -->
<g id="node14" class="node">
<title>node1557</title>
<polygon fill="#3cb4a4" stroke="black" points="152.79,-951 91.13,-933 152.79,-915 214.46,-933 152.79,-951"/>
<text text-anchor="middle" x="152.79" y="-929.3" font-family="Arial" font-size="14.00" fill="#1a1919">1557 ==</text>
</g>
<!-- node1557&#45;&gt;node2525 -->
<g id="edge41" class="edge">
<title>node1557&#45;&gt;node2525</title>
<path fill="none" stroke="#3cb4a4" d="M182.9,-923.77C230.67,-910.71 325.21,-884.88 391.36,-866.8"/>
<polygon fill="#3cb4a4" stroke="#3cb4a4" points="392.59,-870.09 401.31,-864.08 390.75,-863.34 392.59,-870.09"/>
<text text-anchor="middle" x="331.79" y="-885.8" font-family="arial" font-size="14.00" fill="#3cb4a4">?</text>
</g>
<!-- node2120 -->
<g id="node15" class="node">
<title>node2120</title>
<polygon fill="#ffa500" stroke="black" points="685.79,-297 419.79,-297 419.79,-261 685.79,-261 685.79,-297"/>
<text text-anchor="middle" x="552.79" y="-275.3" font-family="Arial" font-size="14.00" fill="#1a1919">2120 Guard not, else ArithmeticException</text>
</g>
<!-- node2123 -->
<g id="node17" class="node">
<title>node2123</title>
<polygon fill="#3cb4a4" stroke="black" points="382.79,-210 245.05,-192 382.79,-174 520.54,-192 382.79,-210"/>
<text text-anchor="middle" x="382.79" y="-188.3" font-family="Arial" font-size="14.00" fill="#1a1919">2123 IntegerSubExact</text>
</g>
<!-- node2120&#45;&gt;node2123 -->
<g id="edge25" class="edge">
<title>node2120&#45;&gt;node2123</title>
<path fill="none" stroke="#3cb4a4" d="M518.39,-260.8C489.5,-246.35 448.35,-225.78 418.97,-211.09"/>
<polygon fill="#3cb4a4" stroke="#3cb4a4" points="420.39,-207.88 409.88,-206.54 417.26,-214.14 420.39,-207.88"/>
<text text-anchor="middle" x="496.29" y="-231.8" font-family="arial" font-size="14.00" fill="#3cb4a4">guard</text>
</g>
<!-- node2246 -->
<g id="node20" class="node">
<title>node2246</title>
<polygon fill="#e98693" stroke="black" points="642.79,-210 538.79,-210 538.79,-174 642.79,-174 642.79,-210"/>
<text text-anchor="middle" x="590.79" y="-188.3" font-family="Arial" font-size="14.00" fill="#1a1919">2246 LoopEnd</text>
</g>
<!-- node2120&#45;&gt;node2246 -->
<g id="edge20" class="edge">
<title>node2120&#45;&gt;node2246</title>
<path fill="none" stroke="#da2d4f" stroke-width="2" d="M560.48,-260.8C565.79,-248.93 572.94,-232.93 578.97,-219.45"/>
<polygon fill="#da2d4f" stroke="#da2d4f" stroke-width="2" points="582.23,-220.73 583.12,-210.18 575.84,-217.88 582.23,-220.73"/>
</g>
<!-- node2121 -->
<g id="node16" class="node">
<title>node2121</title>
<polygon fill="#3cb4a4" stroke="black" points="551.79,-36 364.28,-18 551.79,0 739.31,-18 551.79,-36"/>
<text text-anchor="middle" x="551.79" y="-14.3" font-family="Arial" font-size="14.00" fill="#1a1919">2121 IntegerSubExactOverflow</text>
</g>
<!-- node2121&#45;&gt;node2120 -->
<g id="edge19" class="edge">
<title>node2121&#45;&gt;node2120</title>
<path fill="none" stroke="#3cb4a4" d="M566.36,-34.61C589.8,-60.93 634.96,-116.86 651.79,-174 656.32,-189.35 659.25,-195.84 651.79,-210 641.31,-229.91 622.08,-245.12 603.33,-256.05"/>
<polygon fill="#3cb4a4" stroke="#3cb4a4" points="601.56,-253.03 594.5,-260.92 604.94,-259.16 601.56,-253.03"/>
<text text-anchor="middle" x="649.79" y="-144.8" font-family="arial" font-size="14.00" fill="#3cb4a4">?</text>
</g>
<!-- node2123&#45;&gt;node2546 -->
<g id="edge45" class="edge">
<title>node2123&#45;&gt;node2546</title>
<path fill="none" stroke="#3cb4a4" d="M422.72,-179.06C438.18,-173.41 455.55,-165.74 469.79,-156 479.89,-149.1 489.44,-139.71 497.26,-130.92"/>
<polygon fill="#3cb4a4" stroke="#3cb4a4" points="500.1,-132.99 503.93,-123.11 494.77,-128.44 500.1,-132.99"/>
<text text-anchor="middle" x="518.79" y="-144.8" font-family="arial" font-size="14.00" fill="#3cb4a4">from 2246</text>
</g>
<!-- node2311 -->
<g id="node22" class="node">
<title>node2311</title>
<polygon fill="#e98693" stroke="black" points="681.79,-864 607.79,-864 607.79,-828 681.79,-828 681.79,-864"/>
<text text-anchor="middle" x="644.79" y="-842.3" font-family="Arial" font-size="14.00" fill="#1a1919">2311 End</text>
</g>
<!-- node2220&#45;&gt;node2311 -->
<g id="edge26" class="edge">
<title>node2220&#45;&gt;node2311</title>
<path fill="none" stroke="#da2d4f" stroke-width="2" d="M608.1,-914.8C614.59,-902.82 623.35,-886.62 630.69,-873.06"/>
<polygon fill="#da2d4f" stroke="#da2d4f" stroke-width="2" points="633.82,-874.64 635.5,-864.18 627.66,-871.3 633.82,-874.64"/>
</g>
<!-- node2313 -->
<g id="node23" class="node">
<title>node2313</title>
<polygon fill="#e98693" stroke="black" points="814.79,-1005 740.79,-1005 740.79,-969 814.79,-969 814.79,-1005"/>
<text text-anchor="middle" x="777.79" y="-983.3" font-family="Arial" font-size="14.00" fill="#1a1919">2313 End</text>
</g>
<!-- node2241&#45;&gt;node2313 -->
<g id="edge27" class="edge">
<title>node2241&#45;&gt;node2313</title>
<path fill="none" stroke="#da2d4f" stroke-width="2" d="M777.79,-1095.88C777.79,-1075.15 777.79,-1039.95 777.79,-1015.42"/>
<polygon fill="#da2d4f" stroke="#da2d4f" stroke-width="2" points="781.29,-1015.31 777.79,-1005.31 774.29,-1015.31 781.29,-1015.31"/>
</g>
<!-- node2309 -->
<g id="node21" class="node">
<title>node2309</title>
<polygon fill="#e98693" stroke="black" points="827.29,-791 738.29,-791 738.29,-755 827.29,-755 827.29,-791"/>
<text text-anchor="middle" x="782.79" y="-769.3" font-family="Arial" font-size="14.00" fill="#1a1919">2309 Merge</text>
</g>
<!-- node2309&#45;&gt;node2574 -->
<g id="edge30" class="edge">
<title>node2309&#45;&gt;node2574</title>
<path fill="none" stroke="#da2d4f" stroke-width="2" d="M814.36,-754.8C838.65,-741.56 872.39,-723.18 898.61,-708.9"/>
<polygon fill="#da2d4f" stroke="#da2d4f" stroke-width="2" points="900.43,-711.89 907.54,-704.03 897.08,-705.74 900.43,-711.89"/>
</g>
<!-- node2311&#45;&gt;node2309 -->
<g id="edge28" class="edge">
<title>node2311&#45;&gt;node2309</title>
<path fill="none" stroke="#da2d4f" stroke-width="2" d="M677.85,-827.99C696.66,-818.32 720.41,-806.1 740.56,-795.73"/>
<polygon fill="#da2d4f" stroke="#da2d4f" stroke-width="2" points="742.24,-798.8 749.53,-791.11 739.04,-792.58 742.24,-798.8"/>
</g>
<!-- node2313&#45;&gt;node2309 -->
<g id="edge29" class="edge">
<title>node2313&#45;&gt;node2309</title>
<path fill="none" stroke="#da2d4f" stroke-width="2" d="M778.2,-968.65C779.07,-931.83 781.1,-845.64 782.15,-801.34"/>
<polygon fill="#da2d4f" stroke="#da2d4f" stroke-width="2" points="785.65,-801.37 782.39,-791.29 778.65,-801.21 785.65,-801.37"/>
</g>
<!-- node2469 -->
<g id="node24" class="node">
<title>node2469</title>
<polygon fill="#e98693" stroke="black" points="984.29,-617 893.29,-617 893.29,-581 984.29,-581 984.29,-617"/>
<text text-anchor="middle" x="938.79" y="-595.3" font-family="Arial" font-size="14.00" fill="#1a1919">2469 Return</text>
</g>
<!-- node2502 -->
<g id="node25" class="node">
<title>node2502</title>
<polygon fill="#da2d4f" stroke="black" points="650.79,-457 360.79,-457 360.79,-421 650.79,-421 650.79,-457"/>
<text text-anchor="middle" x="505.79" y="-435.3" font-family="Arial" font-size="14.00" fill="#ffffff">2502 Call OptimizedCallTarget.callBoundary !</text>
</g>
<!-- node2506 -->
<g id="node27" class="node">
<title>node2506</title>
<polygon fill="#e98693" stroke="black" points="584.29,-370 463.29,-370 463.29,-334 584.29,-334 584.29,-370"/>
<text text-anchor="middle" x="523.79" y="-348.3" font-family="Arial" font-size="14.00" fill="#1a1919">2506 KillingBegin</text>
</g>
<!-- node2502&#45;&gt;node2506 -->
<g id="edge33" class="edge">
<title>node2502&#45;&gt;node2506</title>
<path fill="none" stroke="#da2d4f" stroke-width="2" d="M509.44,-420.8C511.9,-409.16 515.21,-393.55 518.03,-380.24"/>
<polygon fill="#da2d4f" stroke="#da2d4f" stroke-width="2" points="521.51,-380.68 520.16,-370.18 514.66,-379.23 521.51,-380.68"/>
</g>
<!-- node2507 -->
<g id="node28" class="node">
<title>node2507</title>
<polygon fill="#f9f9f9" stroke="black" points="403.29,-370 254.29,-370 254.29,-334 403.29,-334 403.29,-370"/>
<text text-anchor="middle" x="328.79" y="-348.3" font-family="Arial" font-size="14.00" fill="#1a1919">2507 ExceptionObject</text>
</g>
<!-- node2502&#45;&gt;node2507 -->
<g id="edge34" class="edge">
<title>node2502&#45;&gt;node2507</title>
<path fill="none" stroke="#da2d4f" stroke-width="2" d="M469.98,-420.8C442.17,-407.45 403.47,-388.86 373.61,-374.52"/>
<polygon fill="#da2d4f" stroke="#da2d4f" stroke-width="2" points="374.79,-371.2 364.26,-370.03 371.76,-377.51 374.79,-371.2"/>
<text text-anchor="middle" x="450.29" y="-391.8" font-family="arial" font-size="14.00" fill="#da2d4f">unwind</text>
</g>
<!-- node2503 -->
<g id="node26" class="node">
<title>node2503</title>
<polygon fill="#f9f9f9" stroke="black" points="488.29,-530 331.29,-530 331.29,-494 488.29,-494 488.29,-530"/>
<text text-anchor="middle" x="409.79" y="-508.3" font-family="Arial" font-size="14.00" fill="#1a1919">2503 MethodCallTarget</text>
</g>
<!-- node2503&#45;&gt;node2502 -->
<g id="edge32" class="edge">
<title>node2503&#45;&gt;node2502</title>
<path fill="none" stroke="#343d46" stroke-dasharray="5,2" d="M441.17,-487.8C454.73,-477.77 470.31,-466.25 482.77,-457.03"/>
<polygon fill="#343d46" stroke="#343d46" points="438.99,-485.05 433.03,-493.81 443.15,-490.68 438.99,-485.05"/>
</g>
<!-- node2506&#45;&gt;node2120 -->
<g id="edge37" class="edge">
<title>node2506&#45;&gt;node2120</title>
<path fill="none" stroke="#da2d4f" stroke-width="2" d="M530.81,-333.81C534.16,-325.62 538.24,-315.62 541.98,-306.48"/>
<polygon fill="#da2d4f" stroke="#da2d4f" stroke-width="2" points="545.3,-307.61 545.84,-297.03 538.82,-304.96 545.3,-307.61"/>
</g>
<!-- node2512 -->
<g id="node29" class="node">
<title>node2512</title>
<polygon fill="#da2d4f" stroke="black" points="401.29,-297 184.29,-297 184.29,-261 401.29,-261 401.29,-297"/>
<text text-anchor="middle" x="292.79" y="-275.3" font-family="Arial" font-size="14.00" fill="#ffffff">2512 Deopt TransferToInterpreter</text>
</g>
<!-- node2507&#45;&gt;node2512 -->
<g id="edge38" class="edge">
<title>node2507&#45;&gt;node2512</title>
<path fill="none" stroke="#da2d4f" stroke-width="2" d="M320.08,-333.81C315.88,-325.53 310.75,-315.41 306.08,-306.19"/>
<polygon fill="#da2d4f" stroke="#da2d4f" stroke-width="2" points="309.07,-304.37 301.43,-297.03 302.83,-307.53 309.07,-304.37"/>
</g>
<!-- node2519&#45;&gt;node830 -->
<g id="edge40" class="edge">
<title>node2519&#45;&gt;node830</title>
<path fill="none" stroke="#da2d4f" stroke-width="2" d="M660.79,-1401.81C660.79,-1393.79 660.79,-1384.05 660.79,-1375.07"/>
<polygon fill="#da2d4f" stroke="#da2d4f" stroke-width="2" points="664.29,-1375.03 660.79,-1365.03 657.29,-1375.03 664.29,-1375.03"/>
</g>
<!-- node2559 -->
<g id="node34" class="node">
<title>node2559</title>
<polygon fill="#f9f9f9" stroke="black" points="681.29,-791 486.29,-791 486.29,-755 681.29,-755 681.29,-791"/>
<text text-anchor="middle" x="583.79" y="-769.3" font-family="Arial" font-size="14.00" fill="#1a1919">2559 BoxNode$AllocatingBox</text>
</g>
<!-- node2525&#45;&gt;node2559 -->
<g id="edge42" class="edge">
<title>node2525&#45;&gt;node2559</title>
<path fill="none" stroke="#da2d4f" stroke-width="2" d="M492.54,-827.99C508.6,-818.49 528.8,-806.54 546.12,-796.29"/>
<polygon fill="#da2d4f" stroke="#da2d4f" stroke-width="2" points="548.05,-799.22 554.87,-791.11 544.48,-793.19 548.05,-799.22"/>
</g>
<!-- node2546&#45;&gt;node1009 -->
<g id="edge6" class="edge">
<title>node2546&#45;&gt;node1009</title>
<path fill="none" stroke="#3cb4a4" d="M546.01,-101.46C584.89,-97.48 655.42,-88.15 712.79,-69 738.22,-60.51 765.27,-46.47 784.66,-35.42"/>
<polygon fill="#3cb4a4" stroke="#3cb4a4" points="786.63,-38.33 793.52,-30.28 783.12,-32.27 786.63,-38.33"/>
<text text-anchor="middle" x="750.29" y="-57.8" font-family="arial" font-size="14.00" fill="#3cb4a4">x</text>
</g>
<!-- node2546&#45;&gt;node1240 -->
<g id="edge12" class="edge">
<title>node2546&#45;&gt;node1240</title>
<path fill="none" stroke="#3cb4a4" d="M487.71,-98.29C413.66,-83.75 217.57,-45.26 128.7,-27.82"/>
<polygon fill="#3cb4a4" stroke="#3cb4a4" points="129.15,-24.34 118.66,-25.85 127.8,-31.21 129.15,-24.34"/>
<text text-anchor="middle" x="330.29" y="-57.8" font-family="arial" font-size="14.00" fill="#3cb4a4">x</text>
</g>
<!-- node2546&#45;&gt;node2121 -->
<g id="edge21" class="edge">
<title>node2546&#45;&gt;node2121</title>
<path fill="none" stroke="#3cb4a4" d="M523.88,-86.8C528.83,-74.78 535.53,-58.51 541.12,-44.92"/>
<polygon fill="#3cb4a4" stroke="#3cb4a4" points="544.39,-46.18 544.96,-35.6 537.92,-43.51 544.39,-46.18"/>
<text text-anchor="middle" x="540.29" y="-57.8" font-family="arial" font-size="14.00" fill="#3cb4a4">x</text>
</g>
<!-- node2546&#45;&gt;node2123 -->
<g id="edge23" class="edge">
<title>node2546&#45;&gt;node2123</title>
<path fill="none" stroke="#3cb4a4" d="M489.66,-123.21C467.73,-137.13 436.83,-156.72 413.9,-171.27"/>
<polygon fill="#3cb4a4" stroke="#3cb4a4" points="411.79,-168.46 405.22,-176.77 415.54,-174.37 411.79,-168.46"/>
<text text-anchor="middle" x="462.29" y="-144.8" font-family="arial" font-size="14.00" fill="#3cb4a4">x</text>
</g>
<!-- node2546&#45;&gt;node2559 -->
<g id="edge46" class="edge">
<title>node2546&#45;&gt;node2559</title>
<path fill="none" stroke="#3cb4a4" d="M546.03,-118.11C580.74,-132.94 635.94,-158.03 651.79,-174 700.02,-222.59 713.79,-246.54 713.79,-315 713.79,-687 713.79,-687 713.79,-687 713.79,-717.78 687.95,-738.01 659.31,-750.98"/>
<polygon fill="#3cb4a4" stroke="#3cb4a4" points="657.79,-747.82 649.94,-754.94 660.51,-754.27 657.79,-747.82"/>
<text text-anchor="middle" x="730.29" y="-435.3" font-family="arial" font-size="14.00" fill="#3cb4a4">value</text>
</g>
<!-- node2556 -->
<g id="node33" class="node">
<title>node2556</title>
<polygon fill="#343d46" stroke="black" points="395.29,-791 158.29,-791 158.29,-755 395.29,-755 395.29,-791"/>
<text text-anchor="middle" x="276.79" y="-769.3" font-family="Arial" font-size="14.00" fill="#ffffff">2556 VirtualArray java.lang.Object[9]</text>
</g>
<!-- node2560 -->
<g id="node35" class="node">
<title>node2560</title>
<polygon fill="#da2d4f" stroke="black" points="526.29,-704 447.29,-704 447.29,-668 526.29,-668 526.29,-704"/>
<text text-anchor="middle" x="486.79" y="-682.3" font-family="Arial" font-size="14.00" fill="#ffffff">2560 Alloc</text>
</g>
<!-- node2556&#45;&gt;node2560 -->
<g id="edge48" class="edge">
<title>node2556&#45;&gt;node2560</title>
<path fill="none" stroke="#3cb4a4" d="M305.63,-754.99C324.12,-744.55 348.87,-731.42 371.79,-722 392.78,-713.38 416.68,-705.76 437.23,-699.86"/>
<polygon fill="#3cb4a4" stroke="#3cb4a4" points="438.35,-703.18 447.03,-697.1 436.45,-696.44 438.35,-703.18"/>
<text text-anchor="middle" x="413.29" y="-725.8" font-family="arial" font-size="14.00" fill="#3cb4a4">virtualObjects</text>
</g>
<!-- node2561 -->
<g id="node36" class="node">
<title>node2561</title>
<polygon fill="#343d46" stroke="black" points="488.29,-617 343.29,-617 343.29,-581 488.29,-581 488.29,-617"/>
<text text-anchor="middle" x="415.79" y="-595.3" font-family="Arial" font-size="14.00" fill="#ffffff">2561 AllocatedObject</text>
</g>
<!-- node2556&#45;&gt;node2561 -->
<g id="edge51" class="edge">
<title>node2556&#45;&gt;node2561</title>
<path fill="none" stroke="#3cb4a4" d="M290.63,-754.88C315.3,-724.36 366.96,-660.43 395.6,-624.99"/>
<polygon fill="#3cb4a4" stroke="#3cb4a4" points="398.45,-627.03 402.01,-617.05 393.01,-622.63 398.45,-627.03"/>
<text text-anchor="middle" x="398.79" y="-682.3" font-family="arial" font-size="14.00" fill="#3cb4a4">virtualObject</text>
</g>
<!-- node2559&#45;&gt;node2560 -->
<g id="edge47" class="edge">
<title>node2559&#45;&gt;node2560</title>
<path fill="none" stroke="#da2d4f" stroke-width="2" d="M564.16,-754.8C549.83,-742.24 530.22,-725.05 514.32,-711.12"/>
<polygon fill="#da2d4f" stroke="#da2d4f" stroke-width="2" points="516.22,-708.13 506.39,-704.18 511.61,-713.4 516.22,-708.13"/>
</g>
<!-- node2559&#45;&gt;node2560 -->
<g id="edge49" class="edge">
<title>node2559&#45;&gt;node2560</title>
<path fill="none" stroke="#3cb4a4" d="M573.25,-754.91C566.3,-744.57 556.54,-731.58 545.79,-722 540.78,-717.53 535.1,-713.32 529.31,-709.49"/>
<polygon fill="#3cb4a4" stroke="#3cb4a4" points="531.13,-706.5 520.79,-704.15 527.41,-712.43 531.13,-706.5"/>
<text text-anchor="middle" x="580.79" y="-725.8" font-family="arial" font-size="14.00" fill="#3cb4a4">values</text>
</g>
<!-- node2560&#45;&gt;node2502 -->
<g id="edge50" class="edge">
<title>node2560&#45;&gt;node2502</title>
<path fill="none" stroke="#da2d4f" stroke-width="2" d="M496.42,-667.69C499,-662.2 501.44,-656 502.79,-650 517.25,-585.81 512.82,-507.77 508.94,-467.3"/>
<polygon fill="#da2d4f" stroke="#da2d4f" stroke-width="2" points="512.4,-466.75 507.9,-457.16 505.44,-467.46 512.4,-466.75"/>
</g>
<!-- node2560&#45;&gt;node2561 -->
<g id="edge52" class="edge">
<title>node2560&#45;&gt;node2561</title>
<path fill="none" stroke="#3cb4a4" d="M472.07,-667.97C467.18,-662.28 461.73,-655.89 456.79,-650 450.05,-641.96 442.76,-633.12 436.23,-625.14"/>
<polygon fill="#3cb4a4" stroke="#3cb4a4" points="438.78,-622.73 429.74,-617.2 433.36,-627.16 438.78,-622.73"/>
<text text-anchor="middle" x="479.79" y="-638.8" font-family="arial" font-size="14.00" fill="#3cb4a4">commit</text>
</g>
<!-- node2561&#45;&gt;node2503 -->
<g id="edge36" class="edge">
<title>node2561&#45;&gt;node2503</title>
<path fill="none" stroke="#3cb4a4" d="M414.58,-580.8C413.76,-569.16 412.66,-553.55 411.72,-540.24"/>
<polygon fill="#3cb4a4" stroke="#3cb4a4" points="415.2,-539.9 411.01,-530.18 408.22,-540.4 415.2,-539.9"/>
<text text-anchor="middle" x="431.29" y="-551.8" font-family="arial" font-size="14.00" fill="#3cb4a4">arg[1]</text>
</g>
<!-- node2574&#45;&gt;node2469 -->
<g id="edge31" class="edge">
<title>node2574&#45;&gt;node2469</title>
<path fill="none" stroke="#3cb4a4" d="M924.08,-667.93C920.31,-662.54 916.76,-656.33 914.79,-650 912.28,-641.89 914.35,-633.44 918.13,-625.84"/>
<polygon fill="#3cb4a4" stroke="#3cb4a4" points="921.25,-627.45 923.41,-617.08 915.25,-623.83 921.25,-627.45"/>
<text text-anchor="middle" x="931.79" y="-638.8" font-family="arial" font-size="14.00" fill="#3cb4a4">result</text>
</g>
<!-- node2574&#45;&gt;node2469 -->
<g id="edge54" class="edge">
<title>node2574&#45;&gt;node2469</title>
<path fill="none" stroke="#da2d4f" stroke-width="2" d="M945.11,-667.96C947.94,-658.33 950.34,-646.05 948.79,-635 948.43,-632.43 947.93,-629.78 947.34,-627.14"/>
<polygon fill="#da2d4f" stroke="#da2d4f" stroke-width="2" points="950.67,-626.03 944.75,-617.24 943.9,-627.8 950.67,-626.03"/>
</g>
<!-- node2575&#45;&gt;node545 -->
<g id="edge62" class="edge">
<title>node2575&#45;&gt;node545</title>
<path fill="none" stroke="#da2d4f" stroke-width="2" d="M911.04,-1656.86C901.77,-1646.09 889.66,-1632.02 879.33,-1620.02"/>
<polygon fill="#da2d4f" stroke="#da2d4f" stroke-width="2" points="881.7,-1617.4 872.52,-1612.11 876.39,-1621.97 881.7,-1617.4"/>
</g>
<!-- inline23x1009 -->
<g id="node39" class="node">
<title>inline23x1009</title>
<ellipse fill="#d7ede7" stroke="black" cx="839.79" cy="-105" rx="27" ry="18"/>
<text text-anchor="middle" x="839.79" y="-103.1" font-family="Arial" font-size="8.00" fill="#1a1919">23 C(1)</text>
</g>
<!-- inline23x1009&#45;&gt;node1009 -->
<g id="edge7" class="edge">
<title>inline23x1009&#45;&gt;node1009</title>
<path fill="none" stroke="#3cb4a4" d="M834.26,-87.21C829.23,-71.92 821.85,-49.52 816.94,-34.61"/>
<text text-anchor="middle" x="829.79" y="-59.6" font-family="arial" font-size="8.00" fill="#3cb4a4">y</text>
</g>
<!-- inline102x1240 -->
<g id="node40" class="node">
<title>inline102x1240</title>
<ellipse fill="#d7ede7" stroke="black" cx="27.79" cy="-105" rx="27.59" ry="18"/>
<text text-anchor="middle" x="27.79" y="-103.1" font-family="Arial" font-size="8.00" fill="#1a1919">102 C(4)</text>
</g>
<!-- inline102x1240&#45;&gt;node1240 -->
<g id="edge13" class="edge">
<title>inline102x1240&#45;&gt;node1240</title>
<path fill="none" stroke="#3cb4a4" d="M38.33,-88.01C48.66,-72.33 64.26,-48.64 74.24,-33.5"/>
<text text-anchor="middle" x="61.79" y="-59.6" font-family="arial" font-size="8.00" fill="#3cb4a4">y</text>
</g>
<!-- inline1555x1557 -->
<g id="node41" class="node">
<title>inline1555x1557</title>
<ellipse fill="#d7ede7" stroke="black" cx="152.79" cy="-1041" rx="79.32" ry="18"/>
<text text-anchor="middle" x="152.79" y="-1039.1" font-family="Arial" font-size="8.00" fill="#1a1919">1555 C(instance:RubyBasicObject)</text>
</g>
<!-- inline1555x1557&#45;&gt;node1557 -->
<g id="edge18" class="edge">
<title>inline1555x1557&#45;&gt;node1557</title>
<path fill="none" stroke="#3cb4a4" d="M152.79,-1022.97C152.79,-1003.31 152.79,-971.13 152.79,-951.34"/>
<text text-anchor="middle" x="154.79" y="-985.1" font-family="arial" font-size="8.00" fill="#3cb4a4">y</text>
</g>
<!-- inline23x2121 -->
<g id="node42" class="node">
<title>inline23x2121</title>
<ellipse fill="#d7ede7" stroke="black" cx="727.79" cy="-105" rx="27" ry="18"/>
<text text-anchor="middle" x="727.79" y="-103.1" font-family="Arial" font-size="8.00" fill="#1a1919">23 C(1)</text>
</g>
<!-- inline23x2121&#45;&gt;node2121 -->
<g id="edge22" class="edge">
<title>inline23x2121&#45;&gt;node2121</title>
<path fill="none" stroke="#3cb4a4" d="M718.32,-87.72C711.06,-76.63 700.04,-62.47 686.79,-54 668.23,-42.13 645.81,-34.28 624.61,-29.09"/>
<text text-anchor="middle" x="706.79" y="-59.6" font-family="arial" font-size="8.00" fill="#3cb4a4">y</text>
</g>
<!-- inline23x2123 -->
<g id="node43" class="node">
<title>inline23x2123</title>
<ellipse fill="#d7ede7" stroke="black" cx="138.79" cy="-279" rx="27" ry="18"/>
<text text-anchor="middle" x="138.79" y="-277.1" font-family="Arial" font-size="8.00" fill="#1a1919">23 C(1)</text>
</g>
<!-- inline23x2123&#45;&gt;node2123 -->
<g id="edge24" class="edge">
<title>inline23x2123&#45;&gt;node2123</title>
<path fill="none" stroke="#3cb4a4" d="M159.92,-267.48C164.76,-265.23 169.91,-262.94 174.79,-261 231.81,-238.32 299.67,-217.19 342,-204.69"/>
<text text-anchor="middle" x="267.79" y="-233.6" font-family="arial" font-size="8.00" fill="#3cb4a4">y</text>
</g>
<!-- inline1815x2503 -->
<g id="node44" class="node">
<title>inline1815x2503</title>
<ellipse fill="#d7ede7" stroke="black" cx="222.79" cy="-599" rx="102.84" ry="18"/>
<text text-anchor="middle" x="222.79" y="-597.1" font-family="Arial" font-size="8.00" fill="#1a1919">1815 C(instance:HotSpotOptimizedCallTarget)</text>
</g>
<!-- inline1815x2503&#45;&gt;node2503 -->
<g id="edge35" class="edge">
<title>inline1815x2503&#45;&gt;node2503</title>
<path fill="none" stroke="#3cb4a4" d="M257.97,-582.01C290.55,-567.2 338.88,-545.23 372.21,-530.08"/>
<text text-anchor="middle" x="338.79" y="-553.6" font-family="arial" font-size="8.00" fill="#3cb4a4">arg[0]</text>
</g>
<!-- inline140x1557 -->
<g id="node45" class="node">
<title>inline140x1557</title>
<ellipse fill="#d7ede7" stroke="black" cx="277.79" cy="-1041" rx="27.46" ry="18"/>
<text text-anchor="middle" x="277.79" y="-1039.1" font-family="Arial" font-size="8.00" fill="#1a1919">140 T(6)</text>
</g>
<!-- inline140x1557&#45;&gt;node1557 -->
<g id="edge55" class="edge">
<title>inline140x1557&#45;&gt;node1557</title>
<path fill="none" stroke="#3cb4a4" d="M259.65,-1027.51C250.5,-1021.03 239.36,-1012.85 229.79,-1005 206.61,-985.96 181.32,-961.97 166.28,-947.32"/>
<text text-anchor="middle" x="231.79" y="-985.1" font-family="arial" font-size="8.00" fill="#3cb4a4">x</text>
</g>
<!-- inline140x2560 -->
<g id="node46" class="node">
<title>inline140x2560</title>
<ellipse fill="#d7ede7" stroke="black" cx="440.79" cy="-773" rx="27.46" ry="18"/>
<text text-anchor="middle" x="440.79" y="-771.1" font-family="Arial" font-size="8.00" fill="#1a1919">140 T(6)</text>
</g>
<!-- inline140x2560&#45;&gt;node2560 -->
<g id="edge56" class="edge">
<title>inline140x2560&#45;&gt;node2560</title>
<path fill="none" stroke="#3cb4a4" d="M448.59,-755.62C453.37,-745.78 459.72,-733.06 465.79,-722 469,-716.16 472.68,-709.89 476.06,-704.29"/>
<text text-anchor="middle" x="477.29" y="-727.6" font-family="arial" font-size="8.00" fill="#3cb4a4">values</text>
</g>
<!-- inline158x617 -->
<g id="node47" class="node">
<title>inline158x617</title>
<ellipse fill="#d7ede7" stroke="black" cx="550.79" cy="-1675" rx="27.46" ry="18"/>
<text text-anchor="middle" x="550.79" y="-1673.1" font-family="Arial" font-size="8.00" fill="#1a1919">158 T(7)</text>
</g>
<!-- inline158x617&#45;&gt;node617 -->
<g id="edge57" class="edge">
<title>inline158x617&#45;&gt;node617</title>
<path fill="none" stroke="#3cb4a4" d="M550.79,-1656.86C550.79,-1643.61 550.79,-1625.35 550.79,-1612.11"/>
<text text-anchor="middle" x="560.29" y="-1632.6" font-family="arial" font-size="8.00" fill="#3cb4a4">value</text>
</g>
<!-- inline158x623 -->
<g id="node48" class="node">
<title>inline158x623</title>
<ellipse fill="#d7ede7" stroke="black" cx="758.79" cy="-1594" rx="27.46" ry="18"/>
<text text-anchor="middle" x="758.79" y="-1592.1" font-family="Arial" font-size="8.00" fill="#1a1919">158 T(7)</text>
</g>
<!-- inline158x623&#45;&gt;node623 -->
<g id="edge58" class="edge">
<title>inline158x623&#45;&gt;node623</title>
<path fill="none" stroke="#3cb4a4" d="M758.79,-1575.8C758.79,-1561.05 758.79,-1539.92 758.79,-1525.18"/>
<text text-anchor="middle" x="768.29" y="-1548.6" font-family="arial" font-size="8.00" fill="#3cb4a4">value</text>
</g>
<!-- inline173x545 -->
<g id="node49" class="node">
<title>inline173x545</title>
<ellipse fill="#d7ede7" stroke="black" cx="823.79" cy="-1675" rx="27.46" ry="18"/>
<text text-anchor="middle" x="823.79" y="-1673.1" font-family="Arial" font-size="8.00" fill="#1a1919">173 T(8)</text>
</g>
<!-- inline173x545&#45;&gt;node545 -->
<g id="edge59" class="edge">
<title>inline173x545&#45;&gt;node545</title>
<path fill="none" stroke="#3cb4a4" d="M831,-1657.25C836.74,-1643.93 844.72,-1625.38 850.48,-1612"/>
<text text-anchor="middle" x="852.29" y="-1632.6" font-family="arial" font-size="8.00" fill="#3cb4a4">value</text>
</g>
<!-- inline2x2575 -->
<g id="node50" class="node">
<title>inline2x2575</title>
<ellipse fill="#d7ede7" stroke="black" cx="961.79" cy="-1756" rx="27" ry="18"/>
<text text-anchor="middle" x="961.79" y="-1754.1" font-family="Arial" font-size="8.00" fill="#1a1919">2 P(1)</text>
</g>
<!-- inline2x2575&#45;&gt;node2575 -->
<g id="edge60" class="edge">
<title>inline2x2575&#45;&gt;node2575</title>
<path fill="none" stroke="#3cb4a4" d="M954.33,-1738.63C948.28,-1725.34 939.77,-1706.67 933.62,-1693.17"/>
<text text-anchor="middle" x="955.29" y="-1713.6" font-family="arial" font-size="8.00" fill="#3cb4a4">array</text>
</g>
</g>
</svg>
