<?xml version="1.0" encoding="UTF-8" standalone="no"?>
<!DOCTYPE svg PUBLIC "-//W3C//DTD SVG 1.1//EN"
 "http://www.w3.org/Graphics/SVG/1.1/DTD/svg11.dtd">
<!-- Generated by graphviz version 2.44.1 (20200629.0846)
 -->
<!-- Title: G Pages: 1 -->
<svg width="401pt" height="453pt"
 viewBox="0.00 0.00 400.50 453.00" xmlns="http://www.w3.org/2000/svg" xmlns:xlink="http://www.w3.org/1999/xlink">
<g id="graph0" class="graph" transform="scale(1 1) rotate(0) translate(4 449)">
<title>G</title>
<!-- node0 -->
<g id="node1" class="node">
<title>node0</title>
<polygon fill="#e98693" stroke="black" points="56,-445 0,-445 0,-409 56,-409 56,-445"/>
<text text-anchor="middle" x="28" y="-423.3" font-family="Arial" font-size="14.00" fill="#1a1919">0 Start</text>
</g>
<!-- node1444 -->
<g id="node7" class="node">
<title>node1444</title>
<polygon fill="#da2d4f" stroke="black" points="120.5,-364 7.5,-364 7.5,-328 120.5,-328 120.5,-364"/>
<text text-anchor="middle" x="64" y="-342.3" font-family="Arial" font-size="14.00" fill="#ffffff">1444 Load T(...)</text>
</g>
<!-- node0&#45;&gt;node1444 -->
<g id="edge10" class="edge">
<title>node0&#45;&gt;node1444</title>
<path fill="none" stroke="#da2d4f" stroke-width="2" d="M35.81,-408.86C40.53,-398.51 46.64,-385.1 51.96,-373.41"/>
<polygon fill="#da2d4f" stroke="#da2d4f" stroke-width="2" points="55.24,-374.66 56.2,-364.11 48.87,-371.76 55.24,-374.66"/>
</g>
<!-- node528 -->
<g id="node2" class="node">
<title>node528</title>
<polygon fill="#f9f9f9" stroke="black" points="167,-283 85,-283 85,-247 167,-247 167,-283"/>
<text text-anchor="middle" x="126" y="-261.3" font-family="Arial" font-size="14.00" fill="#1a1919">528 Unbox</text>
</g>
<!-- node1420 -->
<g id="node5" class="node">
<title>node1420</title>
<polygon fill="#ffa500" stroke="black" points="392.5,-196 141.5,-196 141.5,-160 392.5,-160 392.5,-196"/>
<text text-anchor="middle" x="267" y="-174.3" font-family="Arial" font-size="14.00" fill="#1a1919">1420 Guard, else TransferToInterpreter</text>
</g>
<!-- node528&#45;&gt;node1420 -->
<g id="edge1" class="edge">
<title>node528&#45;&gt;node1420</title>
<path fill="none" stroke="#da2d4f" stroke-width="2" d="M154.53,-246.8C176.23,-233.72 206.25,-215.62 229.82,-201.41"/>
<polygon fill="#da2d4f" stroke="#da2d4f" stroke-width="2" points="231.75,-204.34 238.51,-196.18 228.14,-198.34 231.75,-204.34"/>
</g>
<!-- node1443 -->
<g id="node6" class="node">
<title>node1443</title>
<polygon fill="#f9f9f9" stroke="black" points="199.5,-123 4.5,-123 4.5,-87 199.5,-87 199.5,-123"/>
<text text-anchor="middle" x="102" y="-101.3" font-family="Arial" font-size="14.00" fill="#1a1919">1443 BoxNode$AllocatingBox</text>
</g>
<!-- node528&#45;&gt;node1443 -->
<g id="edge5" class="edge">
<title>node528&#45;&gt;node1443</title>
<path fill="none" stroke="#3cb4a4" d="M117.45,-246.9C111.23,-233.44 103.33,-214.02 100,-196 96.15,-175.16 96.94,-151.14 98.54,-133.16"/>
<polygon fill="#3cb4a4" stroke="#3cb4a4" points="102.03,-133.39 99.57,-123.08 95.07,-132.68 102.03,-133.39"/>
<text text-anchor="middle" x="116.5" y="-174.3" font-family="arial" font-size="14.00" fill="#3cb4a4">value</text>
</g>
<!-- node603 -->
<g id="node3" class="node">
<title>node603</title>
<polygon fill="#3cb4a4" stroke="black" points="267,-283 196.45,-265 267,-247 337.55,-265 267,-283"/>
<text text-anchor="middle" x="267" y="-261.3" font-family="Arial" font-size="14.00" fill="#1a1919">603 IsNull</text>
</g>
<!-- node603&#45;&gt;node1420 -->
<g id="edge3" class="edge">
<title>node603&#45;&gt;node1420</title>
<path fill="none" stroke="#3cb4a4" d="M267,-246.8C267,-235.16 267,-219.55 267,-206.24"/>
<polygon fill="#3cb4a4" stroke="#3cb4a4" points="270.5,-206.18 267,-196.18 263.5,-206.18 270.5,-206.18"/>
<text text-anchor="middle" x="271" y="-217.8" font-family="arial" font-size="14.00" fill="#3cb4a4">?</text>
</g>
<!-- node1415 -->
<g id="node4" class="node">
<title>node1415</title>
<polygon fill="#e98693" stroke="black" points="147.5,-36 56.5,-36 56.5,0 147.5,0 147.5,-36"/>
<text text-anchor="middle" x="102" y="-14.3" font-family="Arial" font-size="14.00" fill="#1a1919">1415 Return</text>
</g>
<!-- node1420&#45;&gt;node1443 -->
<g id="edge4" class="edge">
<title>node1420&#45;&gt;node1443</title>
<path fill="none" stroke="#da2d4f" stroke-width="2" d="M227.48,-159.99C204.59,-150.14 175.57,-137.66 151.2,-127.17"/>
<polygon fill="#da2d4f" stroke="#da2d4f" stroke-width="2" points="152.34,-123.85 141.77,-123.11 149.57,-130.28 152.34,-123.85"/>
</g>
<!-- node1443&#45;&gt;node1415 -->
<g id="edge2" class="edge">
<title>node1443&#45;&gt;node1415</title>
<path fill="none" stroke="#3cb4a4" d="M87.9,-86.84C84.28,-81.46 80.88,-75.27 79,-69 76.59,-60.93 78.56,-52.49 82.19,-44.89"/>
<polygon fill="#3cb4a4" stroke="#3cb4a4" points="85.29,-46.53 87.25,-36.12 79.22,-43.03 85.29,-46.53"/>
<text text-anchor="middle" x="96" y="-57.8" font-family="arial" font-size="14.00" fill="#3cb4a4">result</text>
</g>
<!-- node1443&#45;&gt;node1415 -->
<g id="edge6" class="edge">
<title>node1443&#45;&gt;node1415</title>
<path fill="none" stroke="#da2d4f" stroke-width="2" d="M108.55,-86.8C110.37,-81.21 112.09,-74.92 113,-69 114.17,-61.39 113.29,-53.2 111.61,-45.71"/>
<polygon fill="#da2d4f" stroke="#da2d4f" stroke-width="2" points="114.97,-44.74 108.94,-36.02 108.22,-46.59 114.97,-44.74"/>
</g>
<!-- node1444&#45;&gt;node528 -->
<g id="edge11" class="edge">
<title>node1444&#45;&gt;node528</title>
<path fill="none" stroke="#da2d4f" stroke-width="2" d="M77.45,-327.86C85.9,-317.09 96.95,-303.02 106.36,-291.02"/>
<polygon fill="#da2d4f" stroke="#da2d4f" stroke-width="2" points="109.15,-293.14 112.57,-283.11 103.65,-288.81 109.15,-293.14"/>
</g>
<!-- inline143x603 -->
<g id="node8" class="node">
<title>inline143x603</title>
<ellipse fill="#d7ede7" stroke="black" cx="267" cy="-346" rx="27.46" ry="18"/>
<text text-anchor="middle" x="267" y="-344.1" font-family="Arial" font-size="8.00" fill="#1a1919">143 T(6)</text>
</g>
<!-- inline143x603&#45;&gt;node603 -->
<g id="edge7" class="edge">
<title>inline143x603&#45;&gt;node603</title>
<path fill="none" stroke="#3cb4a4" d="M267,-327.86C267,-314.61 267,-296.35 267,-283.11"/>
<text text-anchor="middle" x="276.5" y="-303.6" font-family="arial" font-size="8.00" fill="#3cb4a4">value</text>
</g>
<!-- inline158x528 -->
<g id="node9" class="node">
<title>inline158x528</title>
<ellipse fill="#d7ede7" stroke="black" cx="166" cy="-346" rx="27.46" ry="18"/>
<text text-anchor="middle" x="166" y="-344.1" font-family="Arial" font-size="8.00" fill="#1a1919">158 T(7)</text>
</g>
<!-- inline158x528&#45;&gt;node528 -->
<g id="edge8" class="edge">
<title>inline158x528&#45;&gt;node528</title>
<path fill="none" stroke="#3cb4a4" d="M157.71,-328.63C150.98,-315.34 141.53,-296.67 134.69,-283.17"/>
<text text-anchor="middle" x="156.5" y="-303.6" font-family="arial" font-size="8.00" fill="#3cb4a4">value</text>
</g>
<!-- inline2x1444 -->
<g id="node10" class="node">
<title>inline2x1444</title>
<ellipse fill="#d7ede7" stroke="black" cx="101" cy="-427" rx="27" ry="18"/>
<text text-anchor="middle" x="101" y="-425.1" font-family="Arial" font-size="8.00" fill="#1a1919">2 P(1)</text>
</g>
<!-- inline2x1444&#45;&gt;node1444 -->
<g id="edge9" class="edge">
<title>inline2x1444&#45;&gt;node1444</title>
<path fill="none" stroke="#3cb4a4" d="M93.33,-409.63C87.11,-396.34 78.36,-377.67 72.04,-364.17"/>
<text text-anchor="middle" x="92.5" y="-384.6" font-family="arial" font-size="8.00" fill="#3cb4a4">array</text>
</g>
</g>
</svg>
