<?xml version="1.0" encoding="UTF-8" standalone="no"?>
<!DOCTYPE svg PUBLIC "-//W3C//DTD SVG 1.1//EN"
 "http://www.w3.org/Graphics/SVG/1.1/DTD/svg11.dtd">
<!-- Generated by graphviz version 2.44.1 (20200629.0846)
 -->
<!-- Title: G Pages: 1 -->
<svg width="792pt" height="1785pt"
 viewBox="0.00 0.00 791.66 1785.00" xmlns="http://www.w3.org/2000/svg" xmlns:xlink="http://www.w3.org/1999/xlink">
<g id="graph0" class="graph" transform="scale(1 1) rotate(0) translate(4 1781)">
<title>G</title>
<!-- node0 -->
<g id="node1" class="node">
<title>node0</title>
<polygon fill="#e98693" stroke="black" points="77.5,-1777 21.5,-1777 21.5,-1741 77.5,-1741 77.5,-1777"/>
<text text-anchor="middle" x="49.5" y="-1755.3" font-family="Arial" font-size="14.00" fill="#1a1919">0 Start</text>
</g>
<!-- node1694 -->
<g id="node24" class="node">
<title>node1694</title>
<polygon fill="#da2d4f" stroke="black" points="142,-1696 29,-1696 29,-1660 142,-1660 142,-1696"/>
<text text-anchor="middle" x="85.5" y="-1674.3" font-family="Arial" font-size="14.00" fill="#ffffff">1694 Load T(...)</text>
</g>
<!-- node0&#45;&gt;node1694 -->
<g id="edge45" class="edge">
<title>node0&#45;&gt;node1694</title>
<path fill="none" stroke="#da2d4f" stroke-width="2" d="M57.31,-1740.86C62.03,-1730.51 68.14,-1717.1 73.46,-1705.41"/>
<polygon fill="#da2d4f" stroke="#da2d4f" stroke-width="2" points="76.74,-1706.66 77.7,-1696.11 70.37,-1703.76 76.74,-1706.66"/>
</g>
<!-- node699 -->
<g id="node2" class="node">
<title>node699</title>
<polygon fill="#f9f9f9" stroke="black" points="195.5,-1615 113.5,-1615 113.5,-1579 195.5,-1579 195.5,-1615"/>
<text text-anchor="middle" x="154.5" y="-1593.3" font-family="Arial" font-size="14.00" fill="#1a1919">699 Unbox</text>
</g>
<!-- node854 -->
<g id="node3" class="node">
<title>node854</title>
<polygon fill="#f9f9f9" stroke="black" points="117.5,-1528 35.5,-1528 35.5,-1492 117.5,-1492 117.5,-1528"/>
<text text-anchor="middle" x="76.5" y="-1506.3" font-family="Arial" font-size="14.00" fill="#1a1919">854 Unbox</text>
</g>
<!-- node699&#45;&gt;node854 -->
<g id="edge1" class="edge">
<title>node699&#45;&gt;node854</title>
<path fill="none" stroke="#da2d4f" stroke-width="2" d="M138.72,-1578.8C127.4,-1566.47 111.99,-1549.68 99.34,-1535.89"/>
<polygon fill="#da2d4f" stroke="#da2d4f" stroke-width="2" points="101.6,-1533.18 92.26,-1528.18 96.44,-1537.91 101.6,-1533.18"/>
</g>
<!-- node1406 -->
<g id="node6" class="node">
<title>node1406</title>
<polygon fill="#3cb4a4" stroke="black" points="227.5,-1528 173.04,-1510 227.5,-1492 281.96,-1510 227.5,-1528"/>
<text text-anchor="middle" x="227.5" y="-1506.3" font-family="Arial" font-size="14.00" fill="#1a1919">1406 &lt;</text>
</g>
<!-- node699&#45;&gt;node1406 -->
<g id="edge6" class="edge">
<title>node699&#45;&gt;node1406</title>
<path fill="none" stroke="#3cb4a4" d="M169.27,-1578.8C180.84,-1565.34 196.97,-1546.55 209.33,-1532.16"/>
<polygon fill="#3cb4a4" stroke="#3cb4a4" points="212.24,-1534.14 216.1,-1524.28 206.93,-1529.58 212.24,-1534.14"/>
<text text-anchor="middle" x="198" y="-1549.8" font-family="arial" font-size="14.00" fill="#3cb4a4">x</text>
</g>
<!-- node1463 -->
<g id="node10" class="node">
<title>node1463</title>
<polygon fill="#3cb4a4" stroke="black" points="688.5,-771 634.04,-753 688.5,-735 742.96,-753 688.5,-771"/>
<text text-anchor="middle" x="688.5" y="-749.3" font-family="Arial" font-size="14.00" fill="#1a1919">1463 &lt;</text>
</g>
<!-- node699&#45;&gt;node1463 -->
<g id="edge11" class="edge">
<title>node699&#45;&gt;node1463</title>
<path fill="none" stroke="#3cb4a4" d="M195.51,-1581.31C198.53,-1580.46 201.55,-1579.68 204.5,-1579 264.41,-1565.26 753.5,-1572.47 753.5,-1511 753.5,-1511 753.5,-1511 753.5,-839 753.5,-811.61 731.94,-787.58 713.66,-772.12"/>
<polygon fill="#3cb4a4" stroke="#3cb4a4" points="715.57,-769.17 705.58,-765.64 711.19,-774.63 715.57,-769.17"/>
<text text-anchor="middle" x="757" y="-1178.3" font-family="arial" font-size="14.00" fill="#3cb4a4">x</text>
</g>
<!-- node1576 -->
<g id="node16" class="node">
<title>node1576</title>
<polygon fill="#da2d4f" stroke="black" points="256,-196 125,-196 125,-160 256,-160 256,-196"/>
<text text-anchor="middle" x="190.5" y="-174.3" font-family="Arial" font-size="14.00" fill="#ffffff">1576 StoreIndexed</text>
</g>
<!-- node699&#45;&gt;node1576 -->
<g id="edge21" class="edge">
<title>node699&#45;&gt;node1576</title>
<path fill="none" stroke="#3cb4a4" d="M152.58,-1578.58C149.43,-1548.37 143.5,-1484.3 143.5,-1430 143.5,-1430 143.5,-1430 143.5,-1056.5 143.5,-999.39 142.5,-985.11 142.5,-928 142.5,-928 142.5,-928 142.5,-250 142.5,-232.5 152.63,-216.1 163.58,-203.48"/>
<polygon fill="#3cb4a4" stroke="#3cb4a4" points="166.17,-205.83 170.42,-196.13 161.05,-201.06 166.17,-205.83"/>
<text text-anchor="middle" x="159" y="-879.8" font-family="arial" font-size="14.00" fill="#3cb4a4">index</text>
</g>
<!-- node1276 -->
<g id="node4" class="node">
<title>node1276</title>
<polygon fill="#da2d4f" stroke="black" points="561.5,-1447 255.5,-1447 255.5,-1411 561.5,-1411 561.5,-1447"/>
<text text-anchor="middle" x="408.5" y="-1425.3" font-family="Arial" font-size="14.00" fill="#ffffff">1276 LoadField RubyDynamicObject.metaClass</text>
</g>
<!-- node854&#45;&gt;node1276 -->
<g id="edge2" class="edge">
<title>node854&#45;&gt;node1276</title>
<path fill="none" stroke="#da2d4f" stroke-width="2" d="M117.54,-1499.23C169.61,-1486.85 260.59,-1465.19 326.99,-1449.4"/>
<polygon fill="#da2d4f" stroke="#da2d4f" stroke-width="2" points="328.1,-1452.73 337.01,-1447.01 326.47,-1445.92 328.1,-1452.73"/>
</g>
<!-- node854&#45;&gt;node1576 -->
<g id="edge22" class="edge">
<title>node854&#45;&gt;node1576</title>
<path fill="none" stroke="#3cb4a4" d="M117.52,-1497.95C149.14,-1486.64 187.5,-1465.6 187.5,-1430 187.5,-1430 187.5,-1430 187.5,-1013 187.5,-955.87 190.5,-941.63 190.5,-884.5 190.5,-884.5 190.5,-884.5 190.5,-250 190.5,-235.65 190.5,-219.67 190.5,-206.51"/>
<polygon fill="#3cb4a4" stroke="#3cb4a4" points="194,-206.22 190.5,-196.22 187,-206.22 194,-206.22"/>
<text text-anchor="middle" x="207" y="-836.3" font-family="arial" font-size="14.00" fill="#3cb4a4">value</text>
</g>
<!-- node1693 -->
<g id="node23" class="node">
<title>node1693</title>
<polygon fill="#f9f9f9" stroke="black" points="195,-123 0,-123 0,-87 195,-87 195,-123"/>
<text text-anchor="middle" x="97.5" y="-101.3" font-family="Arial" font-size="14.00" fill="#1a1919">1693 BoxNode$AllocatingBox</text>
</g>
<!-- node854&#45;&gt;node1693 -->
<g id="edge35" class="edge">
<title>node854&#45;&gt;node1693</title>
<path fill="none" stroke="#3cb4a4" d="M79.6,-1491.8C82.2,-1475.84 85.5,-1451.4 85.5,-1430 85.5,-1430 85.5,-1430 85.5,-177 85.5,-162.3 88.03,-146.13 90.77,-132.94"/>
<polygon fill="#3cb4a4" stroke="#3cb4a4" points="94.21,-133.6 92.96,-123.08 87.37,-132.08 94.21,-133.6"/>
<text text-anchor="middle" x="102" y="-792.8" font-family="arial" font-size="14.00" fill="#3cb4a4">value</text>
</g>
<!-- node1328 -->
<g id="node5" class="node">
<title>node1328</title>
<polygon fill="#3cb4a4" stroke="black" points="490.5,-1360 428.83,-1342 490.5,-1324 552.17,-1342 490.5,-1360"/>
<text text-anchor="middle" x="490.5" y="-1338.3" font-family="Arial" font-size="14.00" fill="#1a1919">1328 ==</text>
</g>
<!-- node1276&#45;&gt;node1328 -->
<g id="edge4" class="edge">
<title>node1276&#45;&gt;node1328</title>
<path fill="none" stroke="#3cb4a4" d="M425.09,-1410.8C438.2,-1397.21 456.55,-1378.2 470.47,-1363.76"/>
<polygon fill="#3cb4a4" stroke="#3cb4a4" points="473.27,-1365.9 477.69,-1356.28 468.23,-1361.04 473.27,-1365.9"/>
<text text-anchor="middle" x="457" y="-1381.8" font-family="arial" font-size="14.00" fill="#3cb4a4">x</text>
</g>
<!-- node1660 -->
<g id="node18" class="node">
<title>node1660</title>
<polygon fill="#ffa500" stroke="black" points="526,-1273 275,-1273 275,-1237 526,-1237 526,-1273"/>
<text text-anchor="middle" x="400.5" y="-1251.3" font-family="Arial" font-size="14.00" fill="#1a1919">1660 Guard, else TransferToInterpreter</text>
</g>
<!-- node1276&#45;&gt;node1660 -->
<g id="edge3" class="edge">
<title>node1276&#45;&gt;node1660</title>
<path fill="none" stroke="#da2d4f" stroke-width="2" d="M407.7,-1410.88C406.31,-1381 403.44,-1319.11 401.77,-1283.27"/>
<polygon fill="#da2d4f" stroke="#da2d4f" stroke-width="2" points="405.25,-1282.88 401.29,-1273.05 398.26,-1283.2 405.25,-1282.88"/>
</g>
<!-- node1328&#45;&gt;node1660 -->
<g id="edge25" class="edge">
<title>node1328&#45;&gt;node1660</title>
<path fill="none" stroke="#3cb4a4" d="M476.44,-1327.72C463.1,-1315.12 442.73,-1295.88 426.44,-1280.5"/>
<polygon fill="#3cb4a4" stroke="#3cb4a4" points="428.49,-1277.63 418.82,-1273.3 423.69,-1282.71 428.49,-1277.63"/>
<text text-anchor="middle" x="454.5" y="-1294.8" font-family="arial" font-size="14.00" fill="#3cb4a4">?</text>
</g>
<!-- node1661 -->
<g id="node19" class="node">
<title>node1661</title>
<polygon fill="#ffa500" stroke="black" points="497.5,-1200 223.5,-1200 223.5,-1164 497.5,-1164 497.5,-1200"/>
<text text-anchor="middle" x="360.5" y="-1178.3" font-family="Arial" font-size="14.00" fill="#1a1919">1661 Guard not, else TransferToInterpreter</text>
</g>
<!-- node1406&#45;&gt;node1661 -->
<g id="edge27" class="edge">
<title>node1406&#45;&gt;node1661</title>
<path fill="none" stroke="#3cb4a4" d="M225.23,-1492.56C219.87,-1447.36 210.81,-1319.13 266.5,-1237 275.68,-1223.46 289.47,-1212.88 303.68,-1204.82"/>
<polygon fill="#3cb4a4" stroke="#3cb4a4" points="305.35,-1207.9 312.54,-1200.13 302.07,-1201.72 305.35,-1207.9"/>
<text text-anchor="middle" x="234.5" y="-1338.3" font-family="arial" font-size="14.00" fill="#3cb4a4">?</text>
</g>
<!-- node1447 -->
<g id="node7" class="node">
<title>node1447</title>
<polygon fill="#da2d4f" stroke="black" points="500.5,-1119 290.5,-1119 290.5,-1083 500.5,-1083 500.5,-1119"/>
<text text-anchor="middle" x="395.5" y="-1097.3" font-family="Arial" font-size="14.00" fill="#ffffff">1447 LoadField RubyArray.store</text>
</g>
<!-- node1451 -->
<g id="node8" class="node">
<title>node1451</title>
<polygon fill="#f9f9f9" stroke="black" points="602.5,-1032 438.5,-1032 438.5,-996 602.5,-996 602.5,-1032"/>
<text text-anchor="middle" x="520.5" y="-1010.3" font-family="Arial" font-size="14.00" fill="#1a1919">1451 InstanceOf a!# int[]</text>
</g>
<!-- node1447&#45;&gt;node1451 -->
<g id="edge9" class="edge">
<title>node1447&#45;&gt;node1451</title>
<path fill="none" stroke="#3cb4a4" d="M420.8,-1082.8C439.77,-1069.9 465.94,-1052.1 486.71,-1037.98"/>
<polygon fill="#3cb4a4" stroke="#3cb4a4" points="488.94,-1040.69 495.24,-1032.18 485,-1034.9 488.94,-1040.69"/>
<text text-anchor="middle" x="481" y="-1053.8" font-family="arial" font-size="14.00" fill="#3cb4a4">value</text>
</g>
<!-- node1570 -->
<g id="node15" class="node">
<title>node1570</title>
<polygon fill="#f9f9f9" stroke="black" points="457,-684 296,-684 296,-648 457,-648 457,-684"/>
<text text-anchor="middle" x="376.5" y="-662.3" font-family="Arial" font-size="14.00" fill="#1a1919">1570 InstanceOf a# int[]</text>
</g>
<!-- node1447&#45;&gt;node1570 -->
<g id="edge20" class="edge">
<title>node1447&#45;&gt;node1570</title>
<path fill="none" stroke="#3cb4a4" d="M386.99,-1082.89C379.4,-1066.05 369.5,-1039.38 369.5,-1015 369.5,-1015 369.5,-1015 369.5,-752 369.5,-732.69 371.32,-710.99 373.1,-694.35"/>
<polygon fill="#3cb4a4" stroke="#3cb4a4" points="376.6,-694.55 374.25,-684.22 369.64,-693.76 376.6,-694.55"/>
<text text-anchor="middle" x="386" y="-879.8" font-family="arial" font-size="14.00" fill="#3cb4a4">value</text>
</g>
<!-- node1447&#45;&gt;node1576 -->
<g id="edge37" class="edge">
<title>node1447&#45;&gt;node1576</title>
<path fill="none" stroke="#3cb4a4" d="M316.34,-1082.86C282.88,-1070.52 251.5,-1049.69 251.5,-1015 251.5,-1015 251.5,-1015 251.5,-250 251.5,-231.25 239.11,-214.98 225.5,-202.77"/>
<polygon fill="#3cb4a4" stroke="#3cb4a4" points="227.36,-199.76 217.43,-196.05 222.88,-205.14 227.36,-199.76"/>
<text text-anchor="middle" x="267" y="-618.8" font-family="arial" font-size="14.00" fill="#3cb4a4">array</text>
</g>
<!-- node1664 -->
<g id="node22" class="node">
<title>node1664</title>
<polygon fill="#ffa500" stroke="black" points="649,-945 398,-945 398,-909 649,-909 649,-945"/>
<text text-anchor="middle" x="523.5" y="-923.3" font-family="Arial" font-size="14.00" fill="#1a1919">1664 Guard, else TransferToInterpreter</text>
</g>
<!-- node1447&#45;&gt;node1664 -->
<g id="edge8" class="edge">
<title>node1447&#45;&gt;node1664</title>
<path fill="none" stroke="#da2d4f" stroke-width="2" d="M397.8,-1082.66C401.41,-1060.71 410.13,-1022.55 429.5,-996 443.07,-977.4 463.26,-961.86 481.45,-950.34"/>
<polygon fill="#da2d4f" stroke="#da2d4f" stroke-width="2" points="483.47,-953.21 490.19,-945.02 479.83,-947.24 483.47,-953.21"/>
</g>
<!-- node1451&#45;&gt;node1664 -->
<g id="edge33" class="edge">
<title>node1451&#45;&gt;node1664</title>
<path fill="none" stroke="#3cb4a4" d="M521.11,-995.8C521.52,-984.16 522.07,-968.55 522.54,-955.24"/>
<polygon fill="#3cb4a4" stroke="#3cb4a4" points="526.04,-955.29 522.89,-945.18 519.04,-955.05 526.04,-955.29"/>
<text text-anchor="middle" x="525.5" y="-966.8" font-family="arial" font-size="14.00" fill="#3cb4a4">?</text>
</g>
<!-- node1461 -->
<g id="node9" class="node">
<title>node1461</title>
<polygon fill="#da2d4f" stroke="black" points="714.5,-858 510.5,-858 510.5,-822 714.5,-822 714.5,-858"/>
<text text-anchor="middle" x="612.5" y="-836.3" font-family="Arial" font-size="14.00" fill="#ffffff">1461 LoadField RubyArray.size</text>
</g>
<!-- node1461&#45;&gt;node1463 -->
<g id="edge12" class="edge">
<title>node1461&#45;&gt;node1463</title>
<path fill="none" stroke="#3cb4a4" d="M627.88,-821.8C640.03,-808.21 657.03,-789.2 669.94,-774.76"/>
<polygon fill="#3cb4a4" stroke="#3cb4a4" points="672.57,-777.06 676.63,-767.28 667.36,-772.4 672.57,-777.06"/>
<text text-anchor="middle" x="658" y="-792.8" font-family="arial" font-size="14.00" fill="#3cb4a4">y</text>
</g>
<!-- node1663 -->
<g id="node21" class="node">
<title>node1663</title>
<polygon fill="#ffa500" stroke="black" points="732,-684 481,-684 481,-648 732,-648 732,-684"/>
<text text-anchor="middle" x="606.5" y="-662.3" font-family="Arial" font-size="14.00" fill="#1a1919">1663 Guard, else TransferToInterpreter</text>
</g>
<!-- node1461&#45;&gt;node1663 -->
<g id="edge10" class="edge">
<title>node1461&#45;&gt;node1663</title>
<path fill="none" stroke="#da2d4f" stroke-width="2" d="M611.9,-821.88C610.86,-792 608.7,-730.11 607.45,-694.27"/>
<polygon fill="#da2d4f" stroke="#da2d4f" stroke-width="2" points="610.94,-693.92 607.09,-684.05 603.95,-694.17 610.94,-693.92"/>
</g>
<!-- node1463&#45;&gt;node1663 -->
<g id="edge31" class="edge">
<title>node1463&#45;&gt;node1663</title>
<path fill="none" stroke="#3cb4a4" d="M676.05,-739.09C663.88,-726.48 645.05,-706.96 630.06,-691.42"/>
<polygon fill="#3cb4a4" stroke="#3cb4a4" points="632.51,-688.92 623.05,-684.15 627.47,-693.78 632.51,-688.92"/>
<text text-anchor="middle" x="655.5" y="-705.8" font-family="arial" font-size="14.00" fill="#3cb4a4">?</text>
</g>
<!-- node1478 -->
<g id="node11" class="node">
<title>node1478</title>
<polygon fill="#ffa500" stroke="black" points="650,-597 405,-597 405,-561 650,-561 650,-597"/>
<text text-anchor="middle" x="527.5" y="-575.3" font-family="Arial" font-size="14.00" fill="#1a1919">1478 Guard, else ClassCastException</text>
</g>
<!-- node1535 -->
<g id="node12" class="node">
<title>node1535</title>
<polygon fill="#da2d4f" stroke="black" points="653,-516 406,-516 406,-480 653,-480 653,-516"/>
<text text-anchor="middle" x="529.5" y="-494.3" font-family="Arial" font-size="14.00" fill="#ffffff">1535 LoadField DynamicObject.shape</text>
</g>
<!-- node1478&#45;&gt;node1535 -->
<g id="edge14" class="edge">
<title>node1478&#45;&gt;node1535</title>
<path fill="none" stroke="#da2d4f" stroke-width="2" d="M527.93,-560.86C528.19,-550.71 528.52,-537.63 528.81,-526.12"/>
<polygon fill="#da2d4f" stroke="#da2d4f" stroke-width="2" points="532.31,-526.19 529.07,-516.11 525.31,-526.02 532.31,-526.19"/>
</g>
<!-- node1540 -->
<g id="node13" class="node">
<title>node1540</title>
<polygon fill="#3cb4a4" stroke="black" points="619.5,-429 557.83,-411 619.5,-393 681.17,-411 619.5,-429"/>
<text text-anchor="middle" x="619.5" y="-407.3" font-family="Arial" font-size="14.00" fill="#1a1919">1540 ==</text>
</g>
<!-- node1535&#45;&gt;node1540 -->
<g id="edge16" class="edge">
<title>node1535&#45;&gt;node1540</title>
<path fill="none" stroke="#3cb4a4" d="M547.71,-479.8C562.32,-466 582.85,-446.61 598.22,-432.1"/>
<polygon fill="#3cb4a4" stroke="#3cb4a4" points="600.86,-434.42 605.72,-425.01 596.05,-429.33 600.86,-434.42"/>
<text text-anchor="middle" x="583" y="-450.8" font-family="arial" font-size="14.00" fill="#3cb4a4">x</text>
</g>
<!-- node1662 -->
<g id="node20" class="node">
<title>node1662</title>
<polygon fill="#ffa500" stroke="black" points="656,-342 405,-342 405,-306 656,-306 656,-342"/>
<text text-anchor="middle" x="530.5" y="-320.3" font-family="Arial" font-size="14.00" fill="#1a1919">1662 Guard, else TransferToInterpreter</text>
</g>
<!-- node1535&#45;&gt;node1662 -->
<g id="edge15" class="edge">
<title>node1535&#45;&gt;node1662</title>
<path fill="none" stroke="#da2d4f" stroke-width="2" d="M529.6,-479.88C529.77,-450 530.13,-388.11 530.34,-352.27"/>
<polygon fill="#da2d4f" stroke="#da2d4f" stroke-width="2" points="533.84,-352.07 530.4,-342.05 526.84,-352.03 533.84,-352.07"/>
</g>
<!-- node1540&#45;&gt;node1662 -->
<g id="edge29" class="edge">
<title>node1540&#45;&gt;node1662</title>
<path fill="none" stroke="#3cb4a4" d="M605.59,-396.72C592.4,-384.12 572.26,-364.88 556.15,-349.5"/>
<polygon fill="#3cb4a4" stroke="#3cb4a4" points="558.27,-346.68 548.62,-342.3 553.43,-351.74 558.27,-346.68"/>
<text text-anchor="middle" x="583.5" y="-363.8" font-family="arial" font-size="14.00" fill="#3cb4a4">?</text>
</g>
<!-- node1569 -->
<g id="node14" class="node">
<title>node1569</title>
<polygon fill="#ffa500" stroke="black" points="525,-269 280,-269 280,-233 525,-233 525,-269"/>
<text text-anchor="middle" x="402.5" y="-247.3" font-family="Arial" font-size="14.00" fill="#1a1919">1569 Guard, else ClassCastException</text>
</g>
<!-- node1569&#45;&gt;node1576 -->
<g id="edge19" class="edge">
<title>node1569&#45;&gt;node1576</title>
<path fill="none" stroke="#da2d4f" stroke-width="2" d="M351.72,-232.99C321.53,-222.88 283.04,-209.99 251.24,-199.34"/>
<polygon fill="#da2d4f" stroke="#da2d4f" stroke-width="2" points="252.19,-195.97 241.6,-196.11 249.97,-202.61 252.19,-195.97"/>
</g>
<!-- node1570&#45;&gt;node1478 -->
<g id="edge13" class="edge">
<title>node1570&#45;&gt;node1478</title>
<path fill="none" stroke="#3cb4a4" d="M407.06,-647.8C430.47,-634.62 462.94,-616.34 488.27,-602.08"/>
<polygon fill="#3cb4a4" stroke="#3cb4a4" points="490.25,-604.99 497.25,-597.03 486.82,-598.89 490.25,-604.99"/>
<text text-anchor="middle" x="464.5" y="-618.8" font-family="arial" font-size="14.00" fill="#3cb4a4">?</text>
</g>
<!-- node1570&#45;&gt;node1569 -->
<g id="edge18" class="edge">
<title>node1570&#45;&gt;node1569</title>
<path fill="none" stroke="#3cb4a4" d="M376.5,-647.74C376.5,-630.57 376.5,-603.46 376.5,-580 376.5,-580 376.5,-580 376.5,-323 376.5,-307.62 381.94,-291.45 387.85,-278.43"/>
<polygon fill="#3cb4a4" stroke="#3cb4a4" points="391.14,-279.68 392.37,-269.16 384.84,-276.61 391.14,-279.68"/>
<text text-anchor="middle" x="380.5" y="-450.8" font-family="arial" font-size="14.00" fill="#3cb4a4">?</text>
</g>
<!-- node1576&#45;&gt;node1693 -->
<g id="edge23" class="edge">
<title>node1576&#45;&gt;node1693</title>
<path fill="none" stroke="#da2d4f" stroke-width="2" d="M167.99,-159.81C155.99,-150.66 141.07,-139.26 128.04,-129.32"/>
<polygon fill="#da2d4f" stroke="#da2d4f" stroke-width="2" points="129.88,-126.32 119.81,-123.03 125.63,-131.88 129.88,-126.32"/>
</g>
<!-- node1648 -->
<g id="node17" class="node">
<title>node1648</title>
<polygon fill="#e98693" stroke="black" points="143,-36 52,-36 52,0 143,0 143,-36"/>
<text text-anchor="middle" x="97.5" y="-14.3" font-family="Arial" font-size="14.00" fill="#1a1919">1648 Return</text>
</g>
<!-- node1660&#45;&gt;node1661 -->
<g id="edge26" class="edge">
<title>node1660&#45;&gt;node1661</title>
<path fill="none" stroke="#da2d4f" stroke-width="2" d="M390.82,-1236.81C386.1,-1228.44 380.33,-1218.2 375.09,-1208.9"/>
<polygon fill="#da2d4f" stroke="#da2d4f" stroke-width="2" points="378.05,-1207.02 370.09,-1200.03 371.95,-1210.46 378.05,-1207.02"/>
</g>
<!-- node1661&#45;&gt;node1447 -->
<g id="edge28" class="edge">
<title>node1661&#45;&gt;node1447</title>
<path fill="none" stroke="#da2d4f" stroke-width="2" d="M368.09,-1163.86C372.68,-1153.51 378.62,-1140.1 383.8,-1128.41"/>
<polygon fill="#da2d4f" stroke="#da2d4f" stroke-width="2" points="387.07,-1129.67 387.92,-1119.11 380.67,-1126.83 387.07,-1129.67"/>
</g>
<!-- node1662&#45;&gt;node1569 -->
<g id="edge30" class="edge">
<title>node1662&#45;&gt;node1569</title>
<path fill="none" stroke="#da2d4f" stroke-width="2" d="M499.84,-305.99C482.55,-296.4 460.76,-284.32 442.18,-274.01"/>
<polygon fill="#da2d4f" stroke="#da2d4f" stroke-width="2" points="443.8,-270.9 433.35,-269.11 440.4,-277.02 443.8,-270.9"/>
</g>
<!-- node1663&#45;&gt;node1478 -->
<g id="edge32" class="edge">
<title>node1663&#45;&gt;node1478</title>
<path fill="none" stroke="#da2d4f" stroke-width="2" d="M590.51,-647.8C578.95,-635.36 563.16,-618.36 550.27,-604.5"/>
<polygon fill="#da2d4f" stroke="#da2d4f" stroke-width="2" points="552.83,-602.12 543.46,-597.18 547.71,-606.88 552.83,-602.12"/>
</g>
<!-- node1664&#45;&gt;node1461 -->
<g id="edge34" class="edge">
<title>node1664&#45;&gt;node1461</title>
<path fill="none" stroke="#da2d4f" stroke-width="2" d="M541.51,-908.8C554.66,-896.24 572.66,-879.05 587.24,-865.12"/>
<polygon fill="#da2d4f" stroke="#da2d4f" stroke-width="2" points="589.7,-867.61 594.52,-858.18 584.87,-862.55 589.7,-867.61"/>
</g>
<!-- node1693&#45;&gt;node1648 -->
<g id="edge24" class="edge">
<title>node1693&#45;&gt;node1648</title>
<path fill="none" stroke="#3cb4a4" d="M83.4,-86.84C79.78,-81.46 76.38,-75.27 74.5,-69 72.09,-60.93 74.06,-52.49 77.69,-44.89"/>
<polygon fill="#3cb4a4" stroke="#3cb4a4" points="80.79,-46.53 82.75,-36.12 74.72,-43.03 80.79,-46.53"/>
<text text-anchor="middle" x="91.5" y="-57.8" font-family="arial" font-size="14.00" fill="#3cb4a4">result</text>
</g>
<!-- node1693&#45;&gt;node1648 -->
<g id="edge36" class="edge">
<title>node1693&#45;&gt;node1648</title>
<path fill="none" stroke="#da2d4f" stroke-width="2" d="M104.44,-86.98C107.56,-77.35 110.2,-65.07 108.5,-54 108.09,-51.32 107.51,-48.56 106.83,-45.83"/>
<polygon fill="#da2d4f" stroke="#da2d4f" stroke-width="2" points="110.19,-44.83 104.05,-36.2 103.46,-46.78 110.19,-44.83"/>
</g>
<!-- node1694&#45;&gt;node699 -->
<g id="edge46" class="edge">
<title>node1694&#45;&gt;node699</title>
<path fill="none" stroke="#da2d4f" stroke-width="2" d="M100.47,-1659.86C109.97,-1648.99 122.4,-1634.75 132.95,-1622.67"/>
<polygon fill="#da2d4f" stroke="#da2d4f" stroke-width="2" points="135.62,-1624.94 139.56,-1615.11 130.34,-1620.34 135.62,-1624.94"/>
</g>
<!-- inline1327x1328 -->
<g id="node25" class="node">
<title>inline1327x1328</title>
<ellipse fill="#d7ede7" stroke="black" cx="652.5" cy="-1429" rx="73.35" ry="18"/>
<text text-anchor="middle" x="652.5" y="-1427.1" font-family="Arial" font-size="8.00" fill="#1a1919">1327 C(RubyClass@5b5bfdba)</text>
</g>
<!-- inline1327x1328&#45;&gt;node1328 -->
<g id="edge5" class="edge">
<title>inline1327x1328&#45;&gt;node1328</title>
<path fill="none" stroke="#3cb4a4" d="M622.79,-1412.41C590.63,-1395.54 540.16,-1369.06 511.76,-1354.16"/>
<text text-anchor="middle" x="582.5" y="-1383.6" font-family="arial" font-size="8.00" fill="#3cb4a4">y</text>
</g>
<!-- inline5x1406 -->
<g id="node26" class="node">
<title>inline5x1406</title>
<ellipse fill="#d7ede7" stroke="black" cx="240.5" cy="-1597" rx="27" ry="18"/>
<text text-anchor="middle" x="240.5" y="-1595.1" font-family="Arial" font-size="8.00" fill="#1a1919">5 C(0)</text>
</g>
<!-- inline5x1406&#45;&gt;node1406 -->
<g id="edge7" class="edge">
<title>inline5x1406&#45;&gt;node1406</title>
<path fill="none" stroke="#3cb4a4" d="M237.87,-1578.8C235.57,-1563.76 232.25,-1542.08 229.99,-1527.31"/>
<text text-anchor="middle" x="236.5" y="-1551.6" font-family="arial" font-size="8.00" fill="#3cb4a4">y</text>
</g>
<!-- inline1539x1540 -->
<g id="node27" class="node">
<title>inline1539x1540</title>
<ellipse fill="#d7ede7" stroke="black" cx="727.5" cy="-498" rx="56.31" ry="18"/>
<text text-anchor="middle" x="727.5" y="-496.1" font-family="Arial" font-size="8.00" fill="#1a1919">1539 C(@2e870993{})</text>
</g>
<!-- inline1539x1540&#45;&gt;node1540 -->
<g id="edge17" class="edge">
<title>inline1539x1540&#45;&gt;node1540</title>
<path fill="none" stroke="#3cb4a4" d="M707.19,-481.01C686.41,-464.66 654.56,-439.59 635.5,-424.6"/>
<text text-anchor="middle" x="681.5" y="-452.6" font-family="arial" font-size="8.00" fill="#3cb4a4">y</text>
</g>
<!-- inline161x1276 -->
<g id="node28" class="node">
<title>inline161x1276</title>
<ellipse fill="#d7ede7" stroke="black" cx="408.5" cy="-1510" rx="27.46" ry="18"/>
<text text-anchor="middle" x="408.5" y="-1508.1" font-family="Arial" font-size="8.00" fill="#1a1919">161 T(7)</text>
</g>
<!-- inline161x1276&#45;&gt;node1276 -->
<g id="edge38" class="edge">
<title>inline161x1276&#45;&gt;node1276</title>
<path fill="none" stroke="#3cb4a4" d="M408.5,-1491.86C408.5,-1478.61 408.5,-1460.35 408.5,-1447.11"/>
<text text-anchor="middle" x="419.5" y="-1467.6" font-family="arial" font-size="8.00" fill="#3cb4a4">object</text>
</g>
<!-- inline161x1447 -->
<g id="node29" class="node">
<title>inline161x1447</title>
<ellipse fill="#d7ede7" stroke="black" cx="542.5" cy="-1182" rx="27.46" ry="18"/>
<text text-anchor="middle" x="542.5" y="-1180.1" font-family="Arial" font-size="8.00" fill="#1a1919">161 T(7)</text>
</g>
<!-- inline161x1447&#45;&gt;node1447 -->
<g id="edge39" class="edge">
<title>inline161x1447&#45;&gt;node1447</title>
<path fill="none" stroke="#3cb4a4" d="M522.06,-1170.02C497.53,-1156.83 456.1,-1134.57 427.36,-1119.12"/>
<text text-anchor="middle" x="483.5" y="-1139.6" font-family="arial" font-size="8.00" fill="#3cb4a4">object</text>
</g>
<!-- inline161x1461 -->
<g id="node30" class="node">
<title>inline161x1461</title>
<ellipse fill="#d7ede7" stroke="black" cx="694.5" cy="-927" rx="27.46" ry="18"/>
<text text-anchor="middle" x="694.5" y="-925.1" font-family="Arial" font-size="8.00" fill="#1a1919">161 T(7)</text>
</g>
<!-- inline161x1461&#45;&gt;node1461 -->
<g id="edge40" class="edge">
<title>inline161x1461&#45;&gt;node1461</title>
<path fill="none" stroke="#3cb4a4" d="M680.22,-911.19C665.99,-896.45 644.17,-873.83 629.16,-858.27"/>
<text text-anchor="middle" x="668.5" y="-881.6" font-family="arial" font-size="8.00" fill="#3cb4a4">object</text>
</g>
<!-- inline161x1535 -->
<g id="node31" class="node">
<title>inline161x1535</title>
<ellipse fill="#d7ede7" stroke="black" cx="695.5" cy="-579" rx="27.46" ry="18"/>
<text text-anchor="middle" x="695.5" y="-577.1" font-family="Arial" font-size="8.00" fill="#1a1919">161 T(7)</text>
</g>
<!-- inline161x1535&#45;&gt;node1535 -->
<g id="edge41" class="edge">
<title>inline161x1535&#45;&gt;node1535</title>
<path fill="none" stroke="#3cb4a4" d="M674.14,-567.83C646.64,-554.75 598.47,-531.82 565.33,-516.05"/>
<text text-anchor="middle" x="627.5" y="-536.6" font-family="arial" font-size="8.00" fill="#3cb4a4">object</text>
</g>
<!-- inline179x699 -->
<g id="node32" class="node">
<title>inline179x699</title>
<ellipse fill="#d7ede7" stroke="black" cx="187.5" cy="-1678" rx="27.46" ry="18"/>
<text text-anchor="middle" x="187.5" y="-1676.1" font-family="Arial" font-size="8.00" fill="#1a1919">179 T(8)</text>
</g>
<!-- inline179x699&#45;&gt;node699 -->
<g id="edge42" class="edge">
<title>inline179x699&#45;&gt;node699</title>
<path fill="none" stroke="#3cb4a4" d="M180.5,-1660.25C174.94,-1646.93 167.19,-1628.38 161.6,-1615"/>
<text text-anchor="middle" x="181" y="-1635.6" font-family="arial" font-size="8.00" fill="#3cb4a4">value</text>
</g>
<!-- inline197x854 -->
<g id="node33" class="node">
<title>inline197x854</title>
<ellipse fill="#d7ede7" stroke="black" cx="68.5" cy="-1597" rx="27.46" ry="18"/>
<text text-anchor="middle" x="68.5" y="-1595.1" font-family="Arial" font-size="8.00" fill="#1a1919">197 T(9)</text>
</g>
<!-- inline197x854&#45;&gt;node854 -->
<g id="edge43" class="edge">
<title>inline197x854&#45;&gt;node854</title>
<path fill="none" stroke="#3cb4a4" d="M70.12,-1578.8C71.51,-1564.05 73.5,-1542.92 74.88,-1528.18"/>
<text text-anchor="middle" x="83" y="-1551.6" font-family="arial" font-size="8.00" fill="#3cb4a4">value</text>
</g>
<!-- inline2x1694 -->
<g id="node34" class="node">
<title>inline2x1694</title>
<ellipse fill="#d7ede7" stroke="black" cx="122.5" cy="-1759" rx="27" ry="18"/>
<text text-anchor="middle" x="122.5" y="-1757.1" font-family="Arial" font-size="8.00" fill="#1a1919">2 P(1)</text>
</g>
<!-- inline2x1694&#45;&gt;node1694 -->
<g id="edge44" class="edge">
<title>inline2x1694&#45;&gt;node1694</title>
<path fill="none" stroke="#3cb4a4" d="M114.83,-1741.63C108.61,-1728.34 99.86,-1709.67 93.54,-1696.17"/>
<text text-anchor="middle" x="114" y="-1716.6" font-family="arial" font-size="8.00" fill="#3cb4a4">array</text>
</g>
</g>
</svg>
