<?xml version="1.0" encoding="UTF-8" standalone="no"?>
<!DOCTYPE svg PUBLIC "-//W3C//DTD SVG 1.1//EN"
 "http://www.w3.org/Graphics/SVG/1.1/DTD/svg11.dtd">
<!-- Generated by graphviz version 2.44.1 (20200629.0846)
 -->
<!-- Title: G Pages: 1 -->
<svg width="714pt" height="1573pt"
 viewBox="0.00 0.00 713.50 1573.00" xmlns="http://www.w3.org/2000/svg" xmlns:xlink="http://www.w3.org/1999/xlink">
<g id="graph0" class="graph" transform="scale(1 1) rotate(0) translate(4 1569)">
<title>G</title>
<!-- node0 -->
<g id="node1" class="node">
<title>node0</title>
<polygon fill="#e98693" stroke="black" points="56,-1565 0,-1565 0,-1529 56,-1529 56,-1565"/>
<text text-anchor="middle" x="28" y="-1543.3" font-family="Arial" font-size="14.00" fill="#1a1919">0 Start</text>
</g>
<!-- node1397 -->
<g id="node23" class="node">
<title>node1397</title>
<polygon fill="#da2d4f" stroke="black" points="120.5,-1484 7.5,-1484 7.5,-1448 120.5,-1448 120.5,-1484"/>
<text text-anchor="middle" x="64" y="-1462.3" font-family="Arial" font-size="14.00" fill="#ffffff">1397 Load T(...)</text>
</g>
<!-- node0&#45;&gt;node1397 -->
<g id="edge40" class="edge">
<title>node0&#45;&gt;node1397</title>
<path fill="none" stroke="#da2d4f" stroke-width="2" d="M35.81,-1528.86C40.53,-1518.51 46.64,-1505.1 51.96,-1493.41"/>
<polygon fill="#da2d4f" stroke="#da2d4f" stroke-width="2" points="55.24,-1494.66 56.2,-1484.11 48.87,-1491.76 55.24,-1494.66"/>
</g>
<!-- node696 -->
<g id="node2" class="node">
<title>node696</title>
<polygon fill="#f9f9f9" stroke="black" points="173,-1403 91,-1403 91,-1367 173,-1367 173,-1403"/>
<text text-anchor="middle" x="132" y="-1381.3" font-family="Arial" font-size="14.00" fill="#1a1919">696 Unbox</text>
</g>
<!-- node767 -->
<g id="node3" class="node">
<title>node767</title>
<polygon fill="#ffa500" stroke="black" points="541,-1316 303,-1316 303,-1280 541,-1280 541,-1316"/>
<text text-anchor="middle" x="422" y="-1294.3" font-family="Arial" font-size="14.00" fill="#1a1919">767 Guard, else ClassCastException</text>
</g>
<!-- node696&#45;&gt;node767 -->
<g id="edge1" class="edge">
<title>node696&#45;&gt;node767</title>
<path fill="none" stroke="#da2d4f" stroke-width="2" d="M154.5,-1366.8C170.1,-1355.72 191.81,-1341.96 213,-1334 228.67,-1328.11 259.62,-1321.98 293,-1316.53"/>
<polygon fill="#da2d4f" stroke="#da2d4f" stroke-width="2" points="293.62,-1319.98 302.94,-1314.94 292.51,-1313.07 293.62,-1319.98"/>
</g>
<!-- node1215 -->
<g id="node8" class="node">
<title>node1215</title>
<polygon fill="#3cb4a4" stroke="black" points="216,-1316 161.54,-1298 216,-1280 270.46,-1298 216,-1316"/>
<text text-anchor="middle" x="216" y="-1294.3" font-family="Arial" font-size="14.00" fill="#1a1919">1215 &lt;</text>
</g>
<!-- node696&#45;&gt;node1215 -->
<g id="edge7" class="edge">
<title>node696&#45;&gt;node1215</title>
<path fill="none" stroke="#3cb4a4" d="M142.04,-1366.7C148.43,-1356.53 157.31,-1343.79 167,-1334 173.56,-1327.38 181.49,-1321.13 189.04,-1315.79"/>
<polygon fill="#3cb4a4" stroke="#3cb4a4" points="191.31,-1318.48 197.63,-1309.97 187.39,-1312.68 191.31,-1318.48"/>
<text text-anchor="middle" x="170.5" y="-1337.8" font-family="arial" font-size="14.00" fill="#3cb4a4">x</text>
</g>
<!-- node1290 -->
<g id="node12" class="node">
<title>node1290</title>
<polygon fill="#3cb4a4" stroke="black" points="251,-443 196.54,-425 251,-407 305.46,-425 251,-443"/>
<text text-anchor="middle" x="251" y="-421.3" font-family="Arial" font-size="14.00" fill="#1a1919">1290 &lt;</text>
</g>
<!-- node696&#45;&gt;node1290 -->
<g id="edge12" class="edge">
<title>node696&#45;&gt;node1290</title>
<path fill="none" stroke="#3cb4a4" d="M131.68,-1366.74C131.39,-1349.57 131,-1322.47 131,-1299 131,-1299 131,-1299 131,-511 131,-487.67 130.63,-477.62 147,-461 161.74,-446.03 183.08,-437.47 202.6,-432.56"/>
<polygon fill="#3cb4a4" stroke="#3cb4a4" points="203.61,-435.93 212.6,-430.32 202.07,-429.1 203.61,-435.93"/>
<text text-anchor="middle" x="134.5" y="-908.8" font-family="arial" font-size="14.00" fill="#3cb4a4">x</text>
</g>
<!-- node1321 -->
<g id="node15" class="node">
<title>node1321</title>
<polygon fill="#da2d4f" stroke="black" points="233,-210 105,-210 105,-174 233,-174 233,-210"/>
<text text-anchor="middle" x="169" y="-188.3" font-family="Arial" font-size="14.00" fill="#ffffff">1321 LoadIndexed</text>
</g>
<!-- node696&#45;&gt;node1321 -->
<g id="edge17" class="edge">
<title>node696&#45;&gt;node1321</title>
<path fill="none" stroke="#3cb4a4" d="M109.27,-1366.75C91.57,-1351.2 70,-1326.58 70,-1299 70,-1299 70,-1299 70,-264 70,-241.71 86.78,-225.74 106.53,-214.66"/>
<polygon fill="#3cb4a4" stroke="#3cb4a4" points="108.16,-217.75 115.44,-210.06 104.95,-211.53 108.16,-217.75"/>
<text text-anchor="middle" x="86.5" y="-784.3" font-family="arial" font-size="14.00" fill="#3cb4a4">index</text>
</g>
<!-- node1371 -->
<g id="node17" class="node">
<title>node1371</title>
<polygon fill="#ffa500" stroke="black" points="705.5,-1229 454.5,-1229 454.5,-1193 705.5,-1193 705.5,-1229"/>
<text text-anchor="middle" x="580" y="-1207.3" font-family="Arial" font-size="14.00" fill="#1a1919">1371 Guard, else TransferToInterpreter</text>
</g>
<!-- node767&#45;&gt;node1371 -->
<g id="edge3" class="edge">
<title>node767&#45;&gt;node1371</title>
<path fill="none" stroke="#da2d4f" stroke-width="2" d="M453.97,-1279.8C478.58,-1266.56 512.74,-1248.18 539.3,-1233.9"/>
<polygon fill="#da2d4f" stroke="#da2d4f" stroke-width="2" points="541.2,-1236.85 548.34,-1229.03 537.88,-1230.69 541.2,-1236.85"/>
</g>
<!-- node768 -->
<g id="node4" class="node">
<title>node768</title>
<polygon fill="#f9f9f9" stroke="black" points="583.5,-1403 264.5,-1403 264.5,-1367 583.5,-1367 583.5,-1403"/>
<text text-anchor="middle" x="424" y="-1381.3" font-family="Arial" font-size="14.00" fill="#1a1919">768 InstanceOf org/truffleruby/core/proc/RubyProc</text>
</g>
<!-- node768&#45;&gt;node767 -->
<g id="edge2" class="edge">
<title>node768&#45;&gt;node767</title>
<path fill="none" stroke="#3cb4a4" d="M423.6,-1366.8C423.32,-1355.16 422.95,-1339.55 422.64,-1326.24"/>
<polygon fill="#3cb4a4" stroke="#3cb4a4" points="426.14,-1326.09 422.4,-1316.18 419.14,-1326.26 426.14,-1326.09"/>
<text text-anchor="middle" x="427" y="-1337.8" font-family="arial" font-size="14.00" fill="#3cb4a4">?</text>
</g>
<!-- node774 -->
<g id="node5" class="node">
<title>node774</title>
<polygon fill="#3cb4a4" stroke="black" points="630,-1316 559.45,-1298 630,-1280 700.55,-1298 630,-1316"/>
<text text-anchor="middle" x="630" y="-1294.3" font-family="Arial" font-size="14.00" fill="#1a1919">774 IsNull</text>
</g>
<!-- node774&#45;&gt;node1371 -->
<g id="edge20" class="edge">
<title>node774&#45;&gt;node1371</title>
<path fill="none" stroke="#3cb4a4" d="M621.29,-1282.19C614.18,-1270.1 603.94,-1252.7 595.44,-1238.25"/>
<polygon fill="#3cb4a4" stroke="#3cb4a4" points="598.25,-1236.12 590.16,-1229.27 592.21,-1239.67 598.25,-1236.12"/>
<text text-anchor="middle" x="611" y="-1250.8" font-family="arial" font-size="14.00" fill="#3cb4a4">?</text>
</g>
<!-- node1084 -->
<g id="node6" class="node">
<title>node1084</title>
<polygon fill="#da2d4f" stroke="black" points="702,-1148 396,-1148 396,-1112 702,-1112 702,-1148"/>
<text text-anchor="middle" x="549" y="-1126.3" font-family="Arial" font-size="14.00" fill="#ffffff">1084 LoadField RubyDynamicObject.metaClass</text>
</g>
<!-- node1136 -->
<g id="node7" class="node">
<title>node1136</title>
<polygon fill="#3cb4a4" stroke="black" points="415,-1061 354.17,-1043 415,-1025 475.83,-1043 415,-1061"/>
<text text-anchor="middle" x="415" y="-1039.3" font-family="Arial" font-size="14.00" fill="#1a1919">1136 ==</text>
</g>
<!-- node1084&#45;&gt;node1136 -->
<g id="edge5" class="edge">
<title>node1084&#45;&gt;node1136</title>
<path fill="none" stroke="#3cb4a4" d="M521.88,-1111.8C498.66,-1097.07 465.38,-1075.96 442.15,-1061.22"/>
<polygon fill="#3cb4a4" stroke="#3cb4a4" points="443.79,-1058.12 433.47,-1055.72 440.04,-1064.03 443.79,-1058.12"/>
<text text-anchor="middle" x="493.5" y="-1082.8" font-family="arial" font-size="14.00" fill="#3cb4a4">x</text>
</g>
<!-- node1374 -->
<g id="node18" class="node">
<title>node1374</title>
<polygon fill="#ffa500" stroke="black" points="540.5,-974 289.5,-974 289.5,-938 540.5,-938 540.5,-974"/>
<text text-anchor="middle" x="415" y="-952.3" font-family="Arial" font-size="14.00" fill="#1a1919">1374 Guard, else TransferToInterpreter</text>
</g>
<!-- node1084&#45;&gt;node1374 -->
<g id="edge4" class="edge">
<title>node1084&#45;&gt;node1374</title>
<path fill="none" stroke="#da2d4f" stroke-width="2" d="M540.22,-1111.95C528.86,-1090.62 507.81,-1053.45 485,-1025 472.33,-1009.2 456.23,-993.33 442.67,-980.9"/>
<polygon fill="#da2d4f" stroke="#da2d4f" stroke-width="2" points="444.79,-978.1 435.02,-974 440.1,-983.3 444.79,-978.1"/>
</g>
<!-- node1136&#45;&gt;node1374 -->
<g id="edge22" class="edge">
<title>node1136&#45;&gt;node1374</title>
<path fill="none" stroke="#3cb4a4" d="M415,-1024.8C415,-1013.16 415,-997.55 415,-984.24"/>
<polygon fill="#3cb4a4" stroke="#3cb4a4" points="418.5,-984.18 415,-974.18 411.5,-984.18 418.5,-984.18"/>
<text text-anchor="middle" x="419" y="-995.8" font-family="arial" font-size="14.00" fill="#3cb4a4">?</text>
</g>
<!-- node1375 -->
<g id="node19" class="node">
<title>node1375</title>
<polygon fill="#ffa500" stroke="black" points="470,-887 196,-887 196,-851 470,-851 470,-887"/>
<text text-anchor="middle" x="333" y="-865.3" font-family="Arial" font-size="14.00" fill="#1a1919">1375 Guard not, else TransferToInterpreter</text>
</g>
<!-- node1215&#45;&gt;node1375 -->
<g id="edge24" class="edge">
<title>node1215&#45;&gt;node1375</title>
<path fill="none" stroke="#3cb4a4" d="M216,-1279.74C216,-1262.57 216,-1235.46 216,-1212 216,-1212 216,-1212 216,-955 216,-925.11 241.3,-904.64 268.37,-891.29"/>
<polygon fill="#3cb4a4" stroke="#3cb4a4" points="269.97,-894.4 277.58,-887.03 267.04,-888.05 269.97,-894.4"/>
<text text-anchor="middle" x="220" y="-1082.8" font-family="arial" font-size="14.00" fill="#3cb4a4">?</text>
</g>
<!-- node1274 -->
<g id="node9" class="node">
<title>node1274</title>
<polygon fill="#da2d4f" stroke="black" points="518,-806 308,-806 308,-770 518,-770 518,-806"/>
<text text-anchor="middle" x="413" y="-784.3" font-family="Arial" font-size="14.00" fill="#ffffff">1274 LoadField RubyArray.store</text>
</g>
<!-- node1278 -->
<g id="node10" class="node">
<title>node1278</title>
<polygon fill="#f9f9f9" stroke="black" points="507,-719 357,-719 357,-683 507,-683 507,-719"/>
<text text-anchor="middle" x="432" y="-697.3" font-family="Arial" font-size="14.00" fill="#1a1919">1278 InstanceOf a!# [I</text>
</g>
<!-- node1274&#45;&gt;node1278 -->
<g id="edge10" class="edge">
<title>node1274&#45;&gt;node1278</title>
<path fill="none" stroke="#3cb4a4" d="M416.84,-769.8C419.45,-758.16 422.94,-742.55 425.91,-729.24"/>
<polygon fill="#3cb4a4" stroke="#3cb4a4" points="429.39,-729.7 428.16,-719.18 422.56,-728.17 429.39,-729.7"/>
<text text-anchor="middle" x="439.5" y="-740.8" font-family="arial" font-size="14.00" fill="#3cb4a4">value</text>
</g>
<!-- node1320 -->
<g id="node14" class="node">
<title>node1320</title>
<polygon fill="#f9f9f9" stroke="black" points="613,-665 467,-665 467,-629 613,-629 613,-665"/>
<text text-anchor="middle" x="540" y="-643.3" font-family="Arial" font-size="14.00" fill="#1a1919">1320 InstanceOf a# [I</text>
</g>
<!-- node1274&#45;&gt;node1320 -->
<g id="edge16" class="edge">
<title>node1274&#45;&gt;node1320</title>
<path fill="none" stroke="#3cb4a4" d="M450.68,-769.96C472.5,-758.39 498.93,-741.15 516,-719 525.75,-706.35 531.66,-689.52 535.18,-675.41"/>
<polygon fill="#3cb4a4" stroke="#3cb4a4" points="538.68,-675.79 537.43,-665.27 531.85,-674.28 538.68,-675.79"/>
<text text-anchor="middle" x="513.5" y="-740.8" font-family="arial" font-size="14.00" fill="#3cb4a4">value</text>
</g>
<!-- node1274&#45;&gt;node1321 -->
<g id="edge32" class="edge">
<title>node1274&#45;&gt;node1321</title>
<path fill="none" stroke="#3cb4a4" d="M308.81,-769.95C242.5,-756.04 169,-733.51 169,-702 169,-702 169,-702 169,-264 169,-249.65 169,-233.67 169,-220.51"/>
<polygon fill="#3cb4a4" stroke="#3cb4a4" points="172.5,-220.22 169,-210.22 165.5,-220.22 172.5,-220.22"/>
<text text-anchor="middle" x="184.5" y="-464.8" font-family="arial" font-size="14.00" fill="#3cb4a4">array</text>
</g>
<!-- node1377 -->
<g id="node21" class="node">
<title>node1377</title>
<polygon fill="#ffa500" stroke="black" points="520.5,-611 269.5,-611 269.5,-575 520.5,-575 520.5,-611"/>
<text text-anchor="middle" x="395" y="-589.3" font-family="Arial" font-size="14.00" fill="#1a1919">1377 Guard, else TransferToInterpreter</text>
</g>
<!-- node1274&#45;&gt;node1377 -->
<g id="edge9" class="edge">
<title>node1274&#45;&gt;node1377</title>
<path fill="none" stroke="#da2d4f" stroke-width="2" d="M388.99,-769.77C374.1,-757.52 356.27,-739.61 348,-719 334.26,-684.74 355.79,-644.74 374.04,-619.39"/>
<polygon fill="#da2d4f" stroke="#da2d4f" stroke-width="2" points="377.08,-621.17 380.29,-611.07 371.48,-616.97 377.08,-621.17"/>
</g>
<!-- node1278&#45;&gt;node1377 -->
<g id="edge28" class="edge">
<title>node1278&#45;&gt;node1377</title>
<path fill="none" stroke="#3cb4a4" d="M426.06,-682.97C420.21,-666.22 411.2,-640.41 404.39,-620.89"/>
<polygon fill="#3cb4a4" stroke="#3cb4a4" points="407.65,-619.63 401.05,-611.34 401.04,-621.94 407.65,-619.63"/>
<text text-anchor="middle" x="422" y="-643.3" font-family="arial" font-size="14.00" fill="#3cb4a4">?</text>
</g>
<!-- node1288 -->
<g id="node11" class="node">
<title>node1288</title>
<polygon fill="#da2d4f" stroke="black" points="418,-530 214,-530 214,-494 418,-494 418,-530"/>
<text text-anchor="middle" x="316" y="-508.3" font-family="Arial" font-size="14.00" fill="#ffffff">1288 LoadField RubyArray.size</text>
</g>
<!-- node1288&#45;&gt;node1290 -->
<g id="edge13" class="edge">
<title>node1288&#45;&gt;node1290</title>
<path fill="none" stroke="#3cb4a4" d="M302.85,-493.8C292.77,-480.62 278.79,-462.34 267.89,-448.09"/>
<polygon fill="#3cb4a4" stroke="#3cb4a4" points="270.42,-445.63 261.56,-439.81 264.86,-449.88 270.42,-445.63"/>
<text text-anchor="middle" x="290.5" y="-464.8" font-family="arial" font-size="14.00" fill="#3cb4a4">y</text>
</g>
<!-- node1376 -->
<g id="node20" class="node">
<title>node1376</title>
<polygon fill="#ffa500" stroke="black" points="453.5,-356 202.5,-356 202.5,-320 453.5,-320 453.5,-356"/>
<text text-anchor="middle" x="328" y="-334.3" font-family="Arial" font-size="14.00" fill="#1a1919">1376 Guard, else TransferToInterpreter</text>
</g>
<!-- node1288&#45;&gt;node1376 -->
<g id="edge11" class="edge">
<title>node1288&#45;&gt;node1376</title>
<path fill="none" stroke="#da2d4f" stroke-width="2" d="M317.19,-493.88C319.28,-464 323.6,-402.11 326.1,-366.27"/>
<polygon fill="#da2d4f" stroke="#da2d4f" stroke-width="2" points="329.61,-366.27 326.81,-356.05 322.62,-365.78 329.61,-366.27"/>
</g>
<!-- node1290&#45;&gt;node1376 -->
<g id="edge26" class="edge">
<title>node1290&#45;&gt;node1376</title>
<path fill="none" stroke="#3cb4a4" d="M263.03,-410.72C274.34,-398.23 291.56,-379.23 305.43,-363.92"/>
<polygon fill="#3cb4a4" stroke="#3cb4a4" points="308.21,-366.06 312.33,-356.3 303.02,-361.36 308.21,-366.06"/>
<text text-anchor="middle" x="298" y="-377.8" font-family="arial" font-size="14.00" fill="#3cb4a4">?</text>
</g>
<!-- node1319 -->
<g id="node13" class="node">
<title>node1319</title>
<polygon fill="#ffa500" stroke="black" points="450.5,-283 205.5,-283 205.5,-247 450.5,-247 450.5,-283"/>
<text text-anchor="middle" x="328" y="-261.3" font-family="Arial" font-size="14.00" fill="#1a1919">1319 Guard, else ClassCastException</text>
</g>
<!-- node1319&#45;&gt;node1321 -->
<g id="edge15" class="edge">
<title>node1319&#45;&gt;node1321</title>
<path fill="none" stroke="#da2d4f" stroke-width="2" d="M289.92,-246.99C267.95,-237.19 240.14,-224.77 216.72,-214.31"/>
<polygon fill="#da2d4f" stroke="#da2d4f" stroke-width="2" points="217.88,-211 207.32,-210.11 215.03,-217.39 217.88,-211"/>
</g>
<!-- node1320&#45;&gt;node1319 -->
<g id="edge14" class="edge">
<title>node1320&#45;&gt;node1319</title>
<path fill="none" stroke="#3cb4a4" d="M542.65,-629C545.31,-610.48 549,-579.96 549,-553.5 549,-553.5 549,-553.5 549,-337 549,-313.43 502.88,-296.58 452.77,-285.23"/>
<polygon fill="#3cb4a4" stroke="#3cb4a4" points="453.22,-281.74 442.71,-283.03 451.73,-288.58 453.22,-281.74"/>
<text text-anchor="middle" x="553" y="-464.8" font-family="arial" font-size="14.00" fill="#3cb4a4">?</text>
</g>
<!-- node1396 -->
<g id="node22" class="node">
<title>node1396</title>
<polygon fill="#f9f9f9" stroke="black" points="266.5,-123 71.5,-123 71.5,-87 266.5,-87 266.5,-123"/>
<text text-anchor="middle" x="169" y="-101.3" font-family="Arial" font-size="14.00" fill="#1a1919">1396 BoxNode$AllocatingBox</text>
</g>
<!-- node1321&#45;&gt;node1396 -->
<g id="edge18" class="edge">
<title>node1321&#45;&gt;node1396</title>
<path fill="none" stroke="#da2d4f" stroke-width="2" d="M167.83,-173.92C167.49,-168.22 167.17,-161.84 167,-156 166.79,-148.65 166.94,-140.69 167.23,-133.33"/>
<polygon fill="#da2d4f" stroke="#da2d4f" stroke-width="2" points="170.74,-133.28 167.73,-123.12 163.74,-132.94 170.74,-133.28"/>
</g>
<!-- node1321&#45;&gt;node1396 -->
<g id="edge30" class="edge">
<title>node1321&#45;&gt;node1396</title>
<path fill="none" stroke="#3cb4a4" d="M169,-173.8C169,-162.16 169,-146.55 169,-133.24"/>
<polygon fill="#3cb4a4" stroke="#3cb4a4" points="172.5,-133.18 169,-123.18 165.5,-133.18 172.5,-133.18"/>
<text text-anchor="middle" x="185.5" y="-144.8" font-family="arial" font-size="14.00" fill="#3cb4a4">value</text>
</g>
<!-- node1364 -->
<g id="node16" class="node">
<title>node1364</title>
<polygon fill="#e98693" stroke="black" points="214.5,-36 123.5,-36 123.5,0 214.5,0 214.5,-36"/>
<text text-anchor="middle" x="169" y="-14.3" font-family="Arial" font-size="14.00" fill="#1a1919">1364 Return</text>
</g>
<!-- node1371&#45;&gt;node1084 -->
<g id="edge21" class="edge">
<title>node1371&#45;&gt;node1084</title>
<path fill="none" stroke="#da2d4f" stroke-width="2" d="M573.27,-1192.86C569.25,-1182.61 564.06,-1169.37 559.5,-1157.76"/>
<polygon fill="#da2d4f" stroke="#da2d4f" stroke-width="2" points="562.62,-1156.14 555.71,-1148.11 556.11,-1158.7 562.62,-1156.14"/>
</g>
<!-- node1374&#45;&gt;node1375 -->
<g id="edge23" class="edge">
<title>node1374&#45;&gt;node1375</title>
<path fill="none" stroke="#da2d4f" stroke-width="2" d="M398.41,-937.8C386.4,-925.36 370.01,-908.36 356.64,-894.5"/>
<polygon fill="#da2d4f" stroke="#da2d4f" stroke-width="2" points="359.03,-891.94 349.57,-887.18 353.99,-896.8 359.03,-891.94"/>
</g>
<!-- node1375&#45;&gt;node1274 -->
<g id="edge25" class="edge">
<title>node1375&#45;&gt;node1274</title>
<path fill="none" stroke="#da2d4f" stroke-width="2" d="M350.36,-850.86C361.47,-839.88 376.06,-825.48 388.36,-813.33"/>
<polygon fill="#da2d4f" stroke="#da2d4f" stroke-width="2" points="391.02,-815.63 395.68,-806.11 386.1,-810.64 391.02,-815.63"/>
</g>
<!-- node1376&#45;&gt;node1319 -->
<g id="edge27" class="edge">
<title>node1376&#45;&gt;node1319</title>
<path fill="none" stroke="#da2d4f" stroke-width="2" d="M328,-319.81C328,-311.79 328,-302.05 328,-293.07"/>
<polygon fill="#da2d4f" stroke="#da2d4f" stroke-width="2" points="331.5,-293.03 328,-283.03 324.5,-293.03 331.5,-293.03"/>
</g>
<!-- node1377&#45;&gt;node1288 -->
<g id="edge29" class="edge">
<title>node1377&#45;&gt;node1288</title>
<path fill="none" stroke="#da2d4f" stroke-width="2" d="M377.86,-574.86C366.88,-563.88 352.48,-549.48 340.33,-537.33"/>
<polygon fill="#da2d4f" stroke="#da2d4f" stroke-width="2" points="342.65,-534.7 333.11,-530.11 337.7,-539.65 342.65,-534.7"/>
</g>
<!-- node1396&#45;&gt;node1364 -->
<g id="edge19" class="edge">
<title>node1396&#45;&gt;node1364</title>
<path fill="none" stroke="#3cb4a4" d="M154.9,-86.84C151.28,-81.46 147.88,-75.27 146,-69 143.59,-60.93 145.56,-52.49 149.19,-44.89"/>
<polygon fill="#3cb4a4" stroke="#3cb4a4" points="152.29,-46.53 154.25,-36.12 146.22,-43.03 152.29,-46.53"/>
<text text-anchor="middle" x="163" y="-57.8" font-family="arial" font-size="14.00" fill="#3cb4a4">result</text>
</g>
<!-- node1396&#45;&gt;node1364 -->
<g id="edge31" class="edge">
<title>node1396&#45;&gt;node1364</title>
<path fill="none" stroke="#da2d4f" stroke-width="2" d="M175.55,-86.8C177.37,-81.21 179.09,-74.92 180,-69 181.17,-61.39 180.29,-53.2 178.61,-45.71"/>
<polygon fill="#da2d4f" stroke="#da2d4f" stroke-width="2" points="181.97,-44.74 175.94,-36.02 175.22,-46.59 181.97,-44.74"/>
</g>
<!-- node1397&#45;&gt;node696 -->
<g id="edge41" class="edge">
<title>node1397&#45;&gt;node696</title>
<path fill="none" stroke="#da2d4f" stroke-width="2" d="M78.75,-1447.86C88.02,-1437.09 100.13,-1423.02 110.46,-1411.02"/>
<polygon fill="#da2d4f" stroke="#da2d4f" stroke-width="2" points="113.4,-1412.97 117.27,-1403.11 108.1,-1408.4 113.4,-1412.97"/>
</g>
<!-- inline1135x1136 -->
<g id="node24" class="node">
<title>inline1135x1136</title>
<ellipse fill="#d7ede7" stroke="black" cx="311" cy="-1130" rx="66.87" ry="18"/>
<text text-anchor="middle" x="311" y="-1128.1" font-family="Arial" font-size="8.00" fill="#1a1919">1135 C(instance:RubyClass)</text>
</g>
<!-- inline1135x1136&#45;&gt;node1136 -->
<g id="edge6" class="edge">
<title>inline1135x1136&#45;&gt;node1136</title>
<path fill="none" stroke="#3cb4a4" d="M331.05,-1112.61C351,-1096.31 381.2,-1071.63 399.42,-1056.74"/>
<text text-anchor="middle" x="371" y="-1084.6" font-family="arial" font-size="8.00" fill="#3cb4a4">y</text>
</g>
<!-- inline5x1215 -->
<g id="node25" class="node">
<title>inline5x1215</title>
<ellipse fill="#d7ede7" stroke="black" cx="219" cy="-1385" rx="27" ry="18"/>
<text text-anchor="middle" x="219" y="-1383.1" font-family="Arial" font-size="8.00" fill="#1a1919">5 C(0)</text>
</g>
<!-- inline5x1215&#45;&gt;node1215 -->
<g id="edge8" class="edge">
<title>inline5x1215&#45;&gt;node1215</title>
<path fill="none" stroke="#3cb4a4" d="M218.39,-1366.8C217.87,-1351.95 217.12,-1330.64 216.6,-1315.89"/>
<text text-anchor="middle" x="219" y="-1339.6" font-family="arial" font-size="8.00" fill="#3cb4a4">y</text>
</g>
<!-- inline158x768 -->
<g id="node26" class="node">
<title>inline158x768</title>
<ellipse fill="#d7ede7" stroke="black" cx="424" cy="-1466" rx="27.46" ry="18"/>
<text text-anchor="middle" x="424" y="-1464.1" font-family="Arial" font-size="8.00" fill="#1a1919">158 T(7)</text>
</g>
<!-- inline158x768&#45;&gt;node768 -->
<g id="edge33" class="edge">
<title>inline158x768&#45;&gt;node768</title>
<path fill="none" stroke="#3cb4a4" d="M424,-1447.86C424,-1434.61 424,-1416.35 424,-1403.11"/>
<text text-anchor="middle" x="433.5" y="-1423.6" font-family="arial" font-size="8.00" fill="#3cb4a4">value</text>
</g>
<!-- inline158x774 -->
<g id="node27" class="node">
<title>inline158x774</title>
<ellipse fill="#d7ede7" stroke="black" cx="630" cy="-1385" rx="27.46" ry="18"/>
<text text-anchor="middle" x="630" y="-1383.1" font-family="Arial" font-size="8.00" fill="#1a1919">158 T(7)</text>
</g>
<!-- inline158x774&#45;&gt;node774 -->
<g id="edge34" class="edge">
<title>inline158x774&#45;&gt;node774</title>
<path fill="none" stroke="#3cb4a4" d="M630,-1366.8C630,-1352.05 630,-1330.92 630,-1316.18"/>
<text text-anchor="middle" x="639.5" y="-1339.6" font-family="arial" font-size="8.00" fill="#3cb4a4">value</text>
</g>
<!-- inline173x1084 -->
<g id="node28" class="node">
<title>inline173x1084</title>
<ellipse fill="#d7ede7" stroke="black" cx="409" cy="-1211" rx="27.46" ry="18"/>
<text text-anchor="middle" x="409" y="-1209.1" font-family="Arial" font-size="8.00" fill="#1a1919">173 T(8)</text>
</g>
<!-- inline173x1084&#45;&gt;node1084 -->
<g id="edge35" class="edge">
<title>inline173x1084&#45;&gt;node1084</title>
<path fill="none" stroke="#3cb4a4" d="M429.06,-1198.68C452.5,-1185.46 491.52,-1163.43 518.67,-1148.12"/>
<text text-anchor="middle" x="494" y="-1168.6" font-family="arial" font-size="8.00" fill="#3cb4a4">object</text>
</g>
<!-- inline173x1274 -->
<g id="node29" class="node">
<title>inline173x1274</title>
<ellipse fill="#d7ede7" stroke="black" cx="515" cy="-869" rx="27.46" ry="18"/>
<text text-anchor="middle" x="515" y="-867.1" font-family="Arial" font-size="8.00" fill="#1a1919">173 T(8)</text>
</g>
<!-- inline173x1274&#45;&gt;node1274 -->
<g id="edge36" class="edge">
<title>inline173x1274&#45;&gt;node1274</title>
<path fill="none" stroke="#3cb4a4" d="M497.7,-854.6C480.42,-841.22 453.8,-820.6 435.02,-806.06"/>
<text text-anchor="middle" x="478" y="-826.6" font-family="arial" font-size="8.00" fill="#3cb4a4">object</text>
</g>
<!-- inline173x1288 -->
<g id="node30" class="node">
<title>inline173x1288</title>
<ellipse fill="#d7ede7" stroke="black" cx="224" cy="-593" rx="27.46" ry="18"/>
<text text-anchor="middle" x="224" y="-591.1" font-family="Arial" font-size="8.00" fill="#1a1919">173 T(8)</text>
</g>
<!-- inline173x1288&#45;&gt;node1288 -->
<g id="edge37" class="edge">
<title>inline173x1288&#45;&gt;node1288</title>
<path fill="none" stroke="#3cb4a4" d="M240.03,-578.24C255.57,-564.89 279.21,-544.59 295.99,-530.18"/>
<text text-anchor="middle" x="283" y="-550.6" font-family="arial" font-size="8.00" fill="#3cb4a4">object</text>
</g>
<!-- inline191x696 -->
<g id="node31" class="node">
<title>inline191x696</title>
<ellipse fill="#d7ede7" stroke="black" cx="166" cy="-1466" rx="27.46" ry="18"/>
<text text-anchor="middle" x="166" y="-1464.1" font-family="Arial" font-size="8.00" fill="#1a1919">191 T(9)</text>
</g>
<!-- inline191x696&#45;&gt;node696 -->
<g id="edge38" class="edge">
<title>inline191x696&#45;&gt;node696</title>
<path fill="none" stroke="#3cb4a4" d="M158.79,-1448.25C153.06,-1434.93 145.08,-1416.38 139.32,-1403"/>
<text text-anchor="middle" x="159.5" y="-1423.6" font-family="arial" font-size="8.00" fill="#3cb4a4">value</text>
</g>
<!-- inline2x1397 -->
<g id="node32" class="node">
<title>inline2x1397</title>
<ellipse fill="#d7ede7" stroke="black" cx="101" cy="-1547" rx="27" ry="18"/>
<text text-anchor="middle" x="101" y="-1545.1" font-family="Arial" font-size="8.00" fill="#1a1919">2 P(1)</text>
</g>
<!-- inline2x1397&#45;&gt;node1397 -->
<g id="edge39" class="edge">
<title>inline2x1397&#45;&gt;node1397</title>
<path fill="none" stroke="#3cb4a4" d="M93.33,-1529.63C87.11,-1516.34 78.36,-1497.67 72.04,-1484.17"/>
<text text-anchor="middle" x="92.5" y="-1504.6" font-family="arial" font-size="8.00" fill="#3cb4a4">array</text>
</g>
</g>
</svg>
