<?xml version="1.0" encoding="UTF-8" standalone="no"?>
<!DOCTYPE svg PUBLIC "-//W3C//DTD SVG 1.1//EN"
 "http://www.w3.org/Graphics/SVG/1.1/DTD/svg11.dtd">
<!-- Generated by graphviz version 2.44.1 (20200629.0846)
 -->
<!-- Title: G Pages: 1 -->
<svg width="631pt" height="1491pt"
 viewBox="0.00 0.00 630.97 1491.00" xmlns="http://www.w3.org/2000/svg" xmlns:xlink="http://www.w3.org/1999/xlink">
<g id="graph0" class="graph" transform="scale(1 1) rotate(0) translate(4 1487)">
<title>G</title>
<!-- node0 -->
<g id="node1" class="node">
<title>node0</title>
<polygon fill="#e98693" stroke="black" points="255.47,-1483 199.47,-1483 199.47,-1447 255.47,-1447 255.47,-1483"/>
<text text-anchor="middle" x="227.47" y="-1461.3" font-family="Arial" font-size="14.00" fill="#1a1919">0 Start</text>
</g>
<!-- node1439 -->
<g id="node24" class="node">
<title>node1439</title>
<polygon fill="#da2d4f" stroke="black" points="319.97,-1402 206.97,-1402 206.97,-1366 319.97,-1366 319.97,-1402"/>
<text text-anchor="middle" x="263.47" y="-1380.3" font-family="Arial" font-size="14.00" fill="#ffffff">1439 Load T(...)</text>
</g>
<!-- node0&#45;&gt;node1439 -->
<g id="edge37" class="edge">
<title>node0&#45;&gt;node1439</title>
<path fill="none" stroke="#da2d4f" stroke-width="2" d="M235.28,-1446.86C240,-1436.51 246.11,-1423.1 251.43,-1411.41"/>
<polygon fill="#da2d4f" stroke="#da2d4f" stroke-width="2" points="254.71,-1412.66 255.67,-1402.11 248.34,-1409.76 254.71,-1412.66"/>
</g>
<!-- node575 -->
<g id="node2" class="node">
<title>node575</title>
<polygon fill="#3cb4a4" stroke="black" points="118.47,-1402 47.92,-1384 118.47,-1366 189.02,-1384 118.47,-1402"/>
<text text-anchor="middle" x="118.47" y="-1380.3" font-family="Arial" font-size="14.00" fill="#1a1919">575 IsNull</text>
</g>
<!-- node1414 -->
<g id="node20" class="node">
<title>node1414</title>
<polygon fill="#ffa500" stroke="black" points="315.97,-1315 64.97,-1315 64.97,-1279 315.97,-1279 315.97,-1315"/>
<text text-anchor="middle" x="190.47" y="-1293.3" font-family="Arial" font-size="14.00" fill="#1a1919">1414 Guard, else TransferToInterpreter</text>
</g>
<!-- node575&#45;&gt;node1414 -->
<g id="edge26" class="edge">
<title>node575&#45;&gt;node1414</title>
<path fill="none" stroke="#3cb4a4" d="M130.36,-1368.96C140.87,-1356.55 156.47,-1338.14 169.14,-1323.19"/>
<polygon fill="#3cb4a4" stroke="#3cb4a4" points="172.03,-1325.18 175.82,-1315.29 166.69,-1320.66 172.03,-1325.18"/>
<text text-anchor="middle" x="163.47" y="-1336.8" font-family="arial" font-size="14.00" fill="#3cb4a4">?</text>
</g>
<!-- node925 -->
<g id="node3" class="node">
<title>node925</title>
<polygon fill="#da2d4f" stroke="black" points="459.97,-1234 160.97,-1234 160.97,-1198 459.97,-1198 459.97,-1234"/>
<text text-anchor="middle" x="310.47" y="-1212.3" font-family="Arial" font-size="14.00" fill="#ffffff">925 LoadField RubyDynamicObject.metaClass</text>
</g>
<!-- node1003 -->
<g id="node4" class="node">
<title>node1003</title>
<polygon fill="#e98693" stroke="black" points="303.47,-1060 245.47,-1060 245.47,-1024 303.47,-1024 303.47,-1060"/>
<text text-anchor="middle" x="274.47" y="-1038.3" font-family="Arial" font-size="14.00" fill="#1a1919">1003 If</text>
</g>
<!-- node925&#45;&gt;node1003 -->
<g id="edge1" class="edge">
<title>node925&#45;&gt;node1003</title>
<path fill="none" stroke="#da2d4f" stroke-width="2" d="M306.89,-1197.88C300.63,-1168 287.68,-1106.11 280.18,-1070.27"/>
<polygon fill="#da2d4f" stroke="#da2d4f" stroke-width="2" points="283.51,-1069.12 278.04,-1060.05 276.66,-1070.56 283.51,-1069.12"/>
</g>
<!-- node1004 -->
<g id="node5" class="node">
<title>node1004</title>
<polygon fill="#3cb4a4" stroke="black" points="187.47,-1147 125.8,-1129 187.47,-1111 249.14,-1129 187.47,-1147"/>
<text text-anchor="middle" x="187.47" y="-1125.3" font-family="Arial" font-size="14.00" fill="#1a1919">1004 ==</text>
</g>
<!-- node925&#45;&gt;node1004 -->
<g id="edge5" class="edge">
<title>node925&#45;&gt;node1004</title>
<path fill="none" stroke="#3cb4a4" d="M285.58,-1197.8C264.48,-1183.22 234.34,-1162.39 213.05,-1147.67"/>
<polygon fill="#3cb4a4" stroke="#3cb4a4" points="215.01,-1144.78 204.8,-1141.97 211.03,-1150.54 215.01,-1144.78"/>
<text text-anchor="middle" x="259.97" y="-1168.8" font-family="arial" font-size="14.00" fill="#3cb4a4">x</text>
</g>
<!-- node1082 -->
<g id="node8" class="node">
<title>node1082</title>
<polygon fill="#3cb4a4" stroke="black" points="449.47,-973 387.8,-955 449.47,-937 511.14,-955 449.47,-973"/>
<text text-anchor="middle" x="449.47" y="-951.3" font-family="Arial" font-size="14.00" fill="#1a1919">1082 ==</text>
</g>
<!-- node925&#45;&gt;node1082 -->
<g id="edge9" class="edge">
<title>node925&#45;&gt;node1082</title>
<path fill="none" stroke="#3cb4a4" d="M312.5,-1197.8C317.33,-1162.58 332.02,-1080.79 369.47,-1024 382.97,-1003.52 404.38,-985.79 421.65,-973.57"/>
<polygon fill="#3cb4a4" stroke="#3cb4a4" points="423.97,-976.23 430.25,-967.7 420.02,-970.45 423.97,-976.23"/>
<text text-anchor="middle" x="344.97" y="-1081.8" font-family="arial" font-size="14.00" fill="#3cb4a4">x</text>
</g>
<!-- node1005 -->
<g id="node6" class="node">
<title>node1005</title>
<polygon fill="#e98693" stroke="black" points="266.97,-973 181.97,-973 181.97,-937 266.97,-937 266.97,-973"/>
<text text-anchor="middle" x="224.47" y="-951.3" font-family="Arial" font-size="14.00" fill="#1a1919">1005 Begin</text>
</g>
<!-- node1003&#45;&gt;node1005 -->
<g id="edge3" class="edge">
<title>node1003&#45;&gt;node1005</title>
<path fill="none" stroke="#da2d4f" stroke-width="2" d="M264.35,-1023.8C257.3,-1011.82 247.77,-995.62 239.8,-982.06"/>
<polygon fill="#da2d4f" stroke="#da2d4f" stroke-width="2" points="242.66,-980.02 234.57,-973.18 236.63,-983.57 242.66,-980.02"/>
<text text-anchor="middle" x="256.97" y="-994.8" font-family="arial" font-size="14.00" fill="#da2d4f">T</text>
</g>
<!-- node1006 -->
<g id="node7" class="node">
<title>node1006</title>
<polygon fill="#e98693" stroke="black" points="369.97,-973 284.97,-973 284.97,-937 369.97,-937 369.97,-973"/>
<text text-anchor="middle" x="327.47" y="-951.3" font-family="Arial" font-size="14.00" fill="#1a1919">1006 Begin</text>
</g>
<!-- node1003&#45;&gt;node1006 -->
<g id="edge4" class="edge">
<title>node1003&#45;&gt;node1006</title>
<path fill="none" stroke="#da2d4f" stroke-width="2" d="M285.2,-1023.8C292.74,-1011.7 302.96,-995.3 311.47,-981.67"/>
<polygon fill="#da2d4f" stroke="#da2d4f" stroke-width="2" points="314.44,-983.51 316.76,-973.18 308.5,-979.81 314.44,-983.51"/>
<text text-anchor="middle" x="307.97" y="-994.8" font-family="arial" font-size="14.00" fill="#da2d4f">F</text>
</g>
<!-- node1004&#45;&gt;node1003 -->
<g id="edge2" class="edge">
<title>node1004&#45;&gt;node1003</title>
<path fill="none" stroke="#3cb4a4" d="M201.06,-1114.72C213.96,-1102.12 233.65,-1082.88 249.4,-1067.5"/>
<polygon fill="#3cb4a4" stroke="#3cb4a4" points="252.05,-1069.8 256.76,-1060.3 247.16,-1064.79 252.05,-1069.8"/>
<text text-anchor="middle" x="240.47" y="-1081.8" font-family="arial" font-size="14.00" fill="#3cb4a4">?</text>
</g>
<!-- node1251 -->
<g id="node12" class="node">
<title>node1251</title>
<polygon fill="#e98693" stroke="black" points="372.47,-632 314.47,-632 314.47,-596 372.47,-596 372.47,-632"/>
<text text-anchor="middle" x="343.47" y="-610.3" font-family="Arial" font-size="14.00" fill="#1a1919">1251 If</text>
</g>
<!-- node1004&#45;&gt;node1251 -->
<g id="edge14" class="edge">
<title>node1004&#45;&gt;node1251</title>
<path fill="none" stroke="#3cb4a4" d="M177.82,-1113.65C167.77,-1097.29 153.47,-1069.38 153.47,-1043 153.47,-1043 153.47,-1043 153.47,-686 153.47,-654.09 248.68,-631.78 304.31,-621.47"/>
<polygon fill="#3cb4a4" stroke="#3cb4a4" points="304.98,-624.9 314.2,-619.68 303.74,-618.01 304.98,-624.9"/>
<text text-anchor="middle" x="157.47" y="-864.3" font-family="arial" font-size="14.00" fill="#3cb4a4">?</text>
</g>
<!-- node1139 -->
<g id="node10" class="node">
<title>node1139</title>
<polygon fill="#e98693" stroke="black" points="261.47,-832 187.47,-832 187.47,-796 261.47,-796 261.47,-832"/>
<text text-anchor="middle" x="224.47" y="-810.3" font-family="Arial" font-size="14.00" fill="#1a1919">1139 End</text>
</g>
<!-- node1005&#45;&gt;node1139 -->
<g id="edge7" class="edge">
<title>node1005&#45;&gt;node1139</title>
<path fill="none" stroke="#da2d4f" stroke-width="2" d="M218.03,-936.95C211.09,-916.25 201.86,-880.34 208.47,-850 209.06,-847.28 209.89,-844.52 210.85,-841.8"/>
<polygon fill="#da2d4f" stroke="#da2d4f" stroke-width="2" points="214.19,-842.87 214.79,-832.29 207.73,-840.19 214.19,-842.87"/>
</g>
<!-- node1416 -->
<g id="node21" class="node">
<title>node1416</title>
<polygon fill="#ffa500" stroke="black" points="468.97,-886 217.97,-886 217.97,-850 468.97,-850 468.97,-886"/>
<text text-anchor="middle" x="343.47" y="-864.3" font-family="Arial" font-size="14.00" fill="#1a1919">1416 Guard, else TransferToInterpreter</text>
</g>
<!-- node1006&#45;&gt;node1416 -->
<g id="edge8" class="edge">
<title>node1006&#45;&gt;node1416</title>
<path fill="none" stroke="#da2d4f" stroke-width="2" d="M330.71,-936.8C332.9,-925.16 335.84,-909.55 338.34,-896.24"/>
<polygon fill="#da2d4f" stroke="#da2d4f" stroke-width="2" points="341.83,-896.65 340.24,-886.18 334.95,-895.36 341.83,-896.65"/>
</g>
<!-- node1082&#45;&gt;node1416 -->
<g id="edge28" class="edge">
<title>node1082&#45;&gt;node1416</title>
<path fill="none" stroke="#3cb4a4" d="M433.83,-941.46C417.84,-928.63 392.61,-908.4 372.87,-892.57"/>
<polygon fill="#3cb4a4" stroke="#3cb4a4" points="375.05,-889.84 365.06,-886.31 370.67,-895.3 375.05,-889.84"/>
<text text-anchor="middle" x="406.47" y="-907.8" font-family="arial" font-size="14.00" fill="#3cb4a4">?</text>
</g>
<!-- node1419 -->
<g id="node22" class="node">
<title>node1419</title>
<polygon fill="#ffa500" stroke="black" points="622.97,-472 371.97,-472 371.97,-436 622.97,-436 622.97,-472"/>
<text text-anchor="middle" x="497.47" y="-450.3" font-family="Arial" font-size="14.00" fill="#1a1919">1419 Guard, else TransferToInterpreter</text>
</g>
<!-- node1082&#45;&gt;node1419 -->
<g id="edge30" class="edge">
<title>node1082&#45;&gt;node1419</title>
<path fill="none" stroke="#3cb4a4" d="M462.84,-940.58C477.04,-924.85 497.47,-897.3 497.47,-869 497.47,-869 497.47,-869 497.47,-526 497.47,-511.65 497.47,-495.67 497.47,-482.51"/>
<polygon fill="#3cb4a4" stroke="#3cb4a4" points="500.97,-482.22 497.47,-472.22 493.97,-482.22 500.97,-482.22"/>
<text text-anchor="middle" x="501.47" y="-683.3" font-family="arial" font-size="14.00" fill="#3cb4a4">?</text>
</g>
<!-- node1137 -->
<g id="node9" class="node">
<title>node1137</title>
<polygon fill="#e98693" stroke="black" points="387.97,-705 298.97,-705 298.97,-669 387.97,-669 387.97,-705"/>
<text text-anchor="middle" x="343.47" y="-683.3" font-family="Arial" font-size="14.00" fill="#1a1919">1137 Merge</text>
</g>
<!-- node1137&#45;&gt;node1251 -->
<g id="edge13" class="edge">
<title>node1137&#45;&gt;node1251</title>
<path fill="none" stroke="#da2d4f" stroke-width="2" d="M343.47,-668.81C343.47,-660.79 343.47,-651.05 343.47,-642.07"/>
<polygon fill="#da2d4f" stroke="#da2d4f" stroke-width="2" points="346.97,-642.03 343.47,-632.03 339.97,-642.03 346.97,-642.03"/>
</g>
<!-- node1139&#45;&gt;node1137 -->
<g id="edge11" class="edge">
<title>node1139&#45;&gt;node1137</title>
<path fill="none" stroke="#da2d4f" stroke-width="2" d="M240.77,-795.88C261.22,-774.4 296.43,-737.41 319.84,-712.82"/>
<polygon fill="#da2d4f" stroke="#da2d4f" stroke-width="2" points="322.63,-714.97 326.99,-705.31 317.56,-710.14 322.63,-714.97"/>
</g>
<!-- node1140 -->
<g id="node11" class="node">
<title>node1140</title>
<polygon fill="#e98693" stroke="black" points="380.47,-778 306.47,-778 306.47,-742 380.47,-742 380.47,-778"/>
<text text-anchor="middle" x="343.47" y="-756.3" font-family="Arial" font-size="14.00" fill="#1a1919">1140 End</text>
</g>
<!-- node1140&#45;&gt;node1137 -->
<g id="edge12" class="edge">
<title>node1140&#45;&gt;node1137</title>
<path fill="none" stroke="#da2d4f" stroke-width="2" d="M343.47,-741.81C343.47,-733.79 343.47,-724.05 343.47,-715.07"/>
<polygon fill="#da2d4f" stroke="#da2d4f" stroke-width="2" points="346.97,-715.03 343.47,-705.03 339.97,-715.03 346.97,-715.03"/>
</g>
<!-- node1253 -->
<g id="node13" class="node">
<title>node1253</title>
<polygon fill="#e98693" stroke="black" points="385.97,-545 300.97,-545 300.97,-509 385.97,-509 385.97,-545"/>
<text text-anchor="middle" x="343.47" y="-523.3" font-family="Arial" font-size="14.00" fill="#1a1919">1253 Begin</text>
</g>
<!-- node1251&#45;&gt;node1253 -->
<g id="edge15" class="edge">
<title>node1251&#45;&gt;node1253</title>
<path fill="none" stroke="#da2d4f" stroke-width="2" d="M343.47,-595.8C343.47,-584.16 343.47,-568.55 343.47,-555.24"/>
<polygon fill="#da2d4f" stroke="#da2d4f" stroke-width="2" points="346.97,-555.18 343.47,-545.18 339.97,-555.18 346.97,-555.18"/>
<text text-anchor="middle" x="347.97" y="-566.8" font-family="arial" font-size="14.00" fill="#da2d4f">T</text>
</g>
<!-- node1254 -->
<g id="node14" class="node">
<title>node1254</title>
<polygon fill="#e98693" stroke="black" points="610.97,-545 525.97,-545 525.97,-509 610.97,-509 610.97,-545"/>
<text text-anchor="middle" x="568.47" y="-523.3" font-family="Arial" font-size="14.00" fill="#1a1919">1254 Begin</text>
</g>
<!-- node1251&#45;&gt;node1254 -->
<g id="edge16" class="edge">
<title>node1251&#45;&gt;node1254</title>
<path fill="none" stroke="#da2d4f" stroke-width="2" d="M372.89,-601.89C409.17,-588.18 471.52,-564.62 516.07,-547.79"/>
<polygon fill="#da2d4f" stroke="#da2d4f" stroke-width="2" points="517.46,-551.01 525.57,-544.21 514.98,-544.47 517.46,-551.01"/>
<text text-anchor="middle" x="472.97" y="-566.8" font-family="arial" font-size="14.00" fill="#da2d4f">F</text>
</g>
<!-- node1378 -->
<g id="node16" class="node">
<title>node1378</title>
<polygon fill="#e98693" stroke="black" points="424.47,-418 350.47,-418 350.47,-382 424.47,-382 424.47,-418"/>
<text text-anchor="middle" x="387.47" y="-396.3" font-family="Arial" font-size="14.00" fill="#1a1919">1378 End</text>
</g>
<!-- node1253&#45;&gt;node1378 -->
<g id="edge17" class="edge">
<title>node1253&#45;&gt;node1378</title>
<path fill="none" stroke="#da2d4f" stroke-width="2" d="M345.31,-508.81C347.74,-490.24 353.01,-460.08 363.47,-436 364.86,-432.79 366.56,-429.58 368.41,-426.46"/>
<polygon fill="#da2d4f" stroke="#da2d4f" stroke-width="2" points="371.37,-428.33 373.87,-418.03 365.49,-424.52 371.37,-428.33"/>
</g>
<!-- node1254&#45;&gt;node1419 -->
<g id="edge18" class="edge">
<title>node1254&#45;&gt;node1419</title>
<path fill="none" stroke="#da2d4f" stroke-width="2" d="M551.28,-508.81C542.39,-499.92 531.38,-488.91 521.64,-479.17"/>
<polygon fill="#da2d4f" stroke="#da2d4f" stroke-width="2" points="524.05,-476.63 514.5,-472.03 519.1,-481.57 524.05,-476.63"/>
</g>
<!-- node1376 -->
<g id="node15" class="node">
<title>node1376</title>
<polygon fill="#e98693" stroke="black" points="465.97,-291 376.97,-291 376.97,-255 465.97,-255 465.97,-291"/>
<text text-anchor="middle" x="421.47" y="-269.3" font-family="Arial" font-size="14.00" fill="#1a1919">1376 Merge</text>
</g>
<!-- node1379 -->
<g id="node17" class="node">
<title>node1379</title>
<polygon fill="#f9f9f9" stroke="black" points="515.47,-210 457.47,-210 457.47,-174 515.47,-174 515.47,-210"/>
<text text-anchor="middle" x="486.47" y="-188.3" font-family="Arial" font-size="14.00" fill="#1a1919">1379 ϕ</text>
</g>
<!-- node1376&#45;&gt;node1379 -->
<g id="edge22" class="edge">
<title>node1376&#45;&gt;node1379</title>
<path fill="none" stroke="#343d46" stroke-dasharray="5,2" d="M442.09,-246.94C451.97,-234.94 463.54,-220.87 472.39,-210.11"/>
<polygon fill="#343d46" stroke="#343d46" points="439.23,-244.91 435.57,-254.86 444.63,-249.36 439.23,-244.91"/>
</g>
<!-- node1438 -->
<g id="node23" class="node">
<title>node1438</title>
<polygon fill="#f9f9f9" stroke="black" points="527.97,-123 362.97,-123 362.97,-87 527.97,-87 527.97,-123"/>
<text text-anchor="middle" x="445.47" y="-101.3" font-family="Arial" font-size="14.00" fill="#1a1919">1438 BoxNode$PureBox</text>
</g>
<!-- node1376&#45;&gt;node1438 -->
<g id="edge21" class="edge">
<title>node1376&#45;&gt;node1438</title>
<path fill="none" stroke="#da2d4f" stroke-width="2" d="M423.95,-254.86C428.1,-226.16 436.49,-168.13 441.48,-133.61"/>
<polygon fill="#da2d4f" stroke="#da2d4f" stroke-width="2" points="445,-133.69 442.97,-123.3 438.08,-132.69 445,-133.69"/>
</g>
<!-- node1378&#45;&gt;node1376 -->
<g id="edge19" class="edge">
<title>node1378&#45;&gt;node1376</title>
<path fill="none" stroke="#da2d4f" stroke-width="2" d="M392.13,-381.88C397.79,-361.05 407.43,-325.64 414.1,-301.09"/>
<polygon fill="#da2d4f" stroke="#da2d4f" stroke-width="2" points="417.51,-301.88 416.76,-291.31 410.76,-300.04 417.51,-301.88"/>
</g>
<!-- node1379&#45;&gt;node1438 -->
<g id="edge32" class="edge">
<title>node1379&#45;&gt;node1438</title>
<path fill="none" stroke="#3cb4a4" d="M478.17,-173.8C472.45,-161.93 464.73,-145.93 458.23,-132.45"/>
<polygon fill="#3cb4a4" stroke="#3cb4a4" points="461.25,-130.66 453.76,-123.18 454.95,-133.7 461.25,-130.66"/>
<text text-anchor="middle" x="502.97" y="-144.8" font-family="arial" font-size="14.00" fill="#3cb4a4">value [0 &#45; 1]</text>
</g>
<!-- node1380 -->
<g id="node18" class="node">
<title>node1380</title>
<polygon fill="#e98693" stroke="black" points="522.47,-364 448.47,-364 448.47,-328 522.47,-328 522.47,-364"/>
<text text-anchor="middle" x="485.47" y="-342.3" font-family="Arial" font-size="14.00" fill="#1a1919">1380 End</text>
</g>
<!-- node1380&#45;&gt;node1376 -->
<g id="edge20" class="edge">
<title>node1380&#45;&gt;node1376</title>
<path fill="none" stroke="#da2d4f" stroke-width="2" d="M469.98,-327.81C462.04,-319 452.23,-308.13 443.52,-298.46"/>
<polygon fill="#da2d4f" stroke="#da2d4f" stroke-width="2" points="446.12,-296.11 436.82,-291.03 440.92,-300.8 446.12,-296.11"/>
</g>
<!-- node1409 -->
<g id="node19" class="node">
<title>node1409</title>
<polygon fill="#e98693" stroke="black" points="490.97,-36 399.97,-36 399.97,0 490.97,0 490.97,-36"/>
<text text-anchor="middle" x="445.47" y="-14.3" font-family="Arial" font-size="14.00" fill="#1a1919">1409 Return</text>
</g>
<!-- node1414&#45;&gt;node925 -->
<g id="edge27" class="edge">
<title>node1414&#45;&gt;node925</title>
<path fill="none" stroke="#da2d4f" stroke-width="2" d="M216.51,-1278.86C233.96,-1267.37 257.14,-1252.11 276.1,-1239.63"/>
<polygon fill="#da2d4f" stroke="#da2d4f" stroke-width="2" points="278.06,-1242.53 284.48,-1234.11 274.21,-1236.68 278.06,-1242.53"/>
</g>
<!-- node1416&#45;&gt;node1140 -->
<g id="edge29" class="edge">
<title>node1416&#45;&gt;node1140</title>
<path fill="none" stroke="#da2d4f" stroke-width="2" d="M343.47,-849.97C343.47,-833.38 343.47,-807.88 343.47,-788.43"/>
<polygon fill="#da2d4f" stroke="#da2d4f" stroke-width="2" points="346.97,-788.34 343.47,-778.34 339.97,-788.34 346.97,-788.34"/>
</g>
<!-- node1419&#45;&gt;node1380 -->
<g id="edge31" class="edge">
<title>node1419&#45;&gt;node1380</title>
<path fill="none" stroke="#da2d4f" stroke-width="2" d="M495.54,-435.97C493.66,-419.38 490.78,-393.88 488.58,-374.43"/>
<polygon fill="#da2d4f" stroke="#da2d4f" stroke-width="2" points="492.04,-373.88 487.43,-364.34 485.08,-374.67 492.04,-373.88"/>
</g>
<!-- node1438&#45;&gt;node1409 -->
<g id="edge25" class="edge">
<title>node1438&#45;&gt;node1409</title>
<path fill="none" stroke="#3cb4a4" d="M431.37,-86.84C427.75,-81.46 424.35,-75.27 422.47,-69 420.06,-60.93 422.03,-52.49 425.66,-44.89"/>
<polygon fill="#3cb4a4" stroke="#3cb4a4" points="428.76,-46.53 430.72,-36.12 422.69,-43.03 428.76,-46.53"/>
<text text-anchor="middle" x="439.47" y="-57.8" font-family="arial" font-size="14.00" fill="#3cb4a4">result</text>
</g>
<!-- node1438&#45;&gt;node1409 -->
<g id="edge33" class="edge">
<title>node1438&#45;&gt;node1409</title>
<path fill="none" stroke="#da2d4f" stroke-width="2" d="M452.41,-86.98C455.53,-77.35 458.17,-65.07 456.47,-54 456.06,-51.32 455.48,-48.56 454.8,-45.83"/>
<polygon fill="#da2d4f" stroke="#da2d4f" stroke-width="2" points="458.16,-44.83 452.02,-36.2 451.43,-46.78 458.16,-44.83"/>
</g>
<!-- node1439&#45;&gt;node1414 -->
<g id="edge38" class="edge">
<title>node1439&#45;&gt;node1414</title>
<path fill="none" stroke="#da2d4f" stroke-width="2" d="M248.7,-1365.8C238.11,-1353.47 223.69,-1336.68 211.85,-1322.89"/>
<polygon fill="#da2d4f" stroke="#da2d4f" stroke-width="2" points="214.39,-1320.48 205.22,-1315.18 209.08,-1325.04 214.39,-1320.48"/>
</g>
<!-- inline807x1004 -->
<g id="node25" class="node">
<title>inline807x1004</title>
<ellipse fill="#d7ede7" stroke="black" cx="71.47" cy="-1216" rx="71.44" ry="18"/>
<text text-anchor="middle" x="71.47" y="-1214.1" font-family="Arial" font-size="8.00" fill="#1a1919">807 C(RubyClass@3c77d52e)</text>
</g>
<!-- inline807x1004&#45;&gt;node1004 -->
<g id="edge6" class="edge">
<title>inline807x1004&#45;&gt;node1004</title>
<path fill="none" stroke="#3cb4a4" d="M93.56,-1198.81C116.04,-1182.34 150.39,-1157.17 170.72,-1142.27"/>
<text text-anchor="middle" x="138.47" y="-1170.6" font-family="arial" font-size="8.00" fill="#3cb4a4">y</text>
</g>
<!-- inline706x1082 -->
<g id="node26" class="node">
<title>inline706x1082</title>
<ellipse fill="#d7ede7" stroke="black" cx="449.47" cy="-1042" rx="71.44" ry="18"/>
<text text-anchor="middle" x="449.47" y="-1040.1" font-family="Arial" font-size="8.00" fill="#1a1919">706 C(RubyClass@54daac7d)</text>
</g>
<!-- inline706x1082&#45;&gt;node1082 -->
<g id="edge10" class="edge">
<title>inline706x1082&#45;&gt;node1082</title>
<path fill="none" stroke="#3cb4a4" d="M449.47,-1023.8C449.47,-1009.05 449.47,-987.92 449.47,-973.18"/>
<text text-anchor="middle" x="451.47" y="-996.6" font-family="arial" font-size="8.00" fill="#3cb4a4">y</text>
</g>
<!-- inline23x1379 -->
<g id="node27" class="node">
<title>inline23x1379</title>
<ellipse fill="#d7ede7" stroke="black" cx="511.47" cy="-273" rx="27" ry="18"/>
<text text-anchor="middle" x="511.47" y="-271.1" font-family="Arial" font-size="8.00" fill="#1a1919">23 C(1)</text>
</g>
<!-- inline23x1379&#45;&gt;node1379 -->
<g id="edge23" class="edge">
<title>inline23x1379&#45;&gt;node1379</title>
<path fill="none" stroke="#3cb4a4" d="M506.17,-255.25C501.95,-241.93 496.09,-223.38 491.85,-210"/>
<text text-anchor="middle" x="517.97" y="-230.6" font-family="arial" font-size="8.00" fill="#3cb4a4">from 1378</text>
</g>
<!-- inline5x1379 -->
<g id="node28" class="node">
<title>inline5x1379</title>
<ellipse fill="#d7ede7" stroke="black" cx="583.47" cy="-273" rx="27" ry="18"/>
<text text-anchor="middle" x="583.47" y="-271.1" font-family="Arial" font-size="8.00" fill="#1a1919">5 C(0)</text>
</g>
<!-- inline5x1379&#45;&gt;node1379 -->
<g id="edge24" class="edge">
<title>inline5x1379&#45;&gt;node1379</title>
<path fill="none" stroke="#3cb4a4" d="M570.28,-256.91C562.14,-248 551.22,-236.8 540.47,-228 532.69,-221.63 523.71,-215.41 515.33,-210.03"/>
<text text-anchor="middle" x="568.97" y="-230.6" font-family="arial" font-size="8.00" fill="#3cb4a4">from 1380</text>
</g>
<!-- inline143x575 -->
<g id="node29" class="node">
<title>inline143x575</title>
<ellipse fill="#d7ede7" stroke="black" cx="118.47" cy="-1465" rx="27.46" ry="18"/>
<text text-anchor="middle" x="118.47" y="-1463.1" font-family="Arial" font-size="8.00" fill="#1a1919">143 T(6)</text>
</g>
<!-- inline143x575&#45;&gt;node575 -->
<g id="edge34" class="edge">
<title>inline143x575&#45;&gt;node575</title>
<path fill="none" stroke="#3cb4a4" d="M118.47,-1446.86C118.47,-1433.61 118.47,-1415.35 118.47,-1402.11"/>
<text text-anchor="middle" x="127.97" y="-1422.6" font-family="arial" font-size="8.00" fill="#3cb4a4">value</text>
</g>
<!-- inline158x925 -->
<g id="node30" class="node">
<title>inline158x925</title>
<ellipse fill="#d7ede7" stroke="black" cx="361.47" cy="-1297" rx="27.46" ry="18"/>
<text text-anchor="middle" x="361.47" y="-1295.1" font-family="Arial" font-size="8.00" fill="#1a1919">158 T(7)</text>
</g>
<!-- inline158x925&#45;&gt;node925 -->
<g id="edge35" class="edge">
<title>inline158x925&#45;&gt;node925</title>
<path fill="none" stroke="#3cb4a4" d="M351.15,-1280.01C342.53,-1266.67 330.28,-1247.69 321.48,-1234.06"/>
<text text-anchor="middle" x="348.47" y="-1254.6" font-family="arial" font-size="8.00" fill="#3cb4a4">object</text>
</g>
<!-- inline2x1439 -->
<g id="node31" class="node">
<title>inline2x1439</title>
<ellipse fill="#d7ede7" stroke="black" cx="300.47" cy="-1465" rx="27" ry="18"/>
<text text-anchor="middle" x="300.47" y="-1463.1" font-family="Arial" font-size="8.00" fill="#1a1919">2 P(1)</text>
</g>
<!-- inline2x1439&#45;&gt;node1439 -->
<g id="edge36" class="edge">
<title>inline2x1439&#45;&gt;node1439</title>
<path fill="none" stroke="#3cb4a4" d="M292.8,-1447.63C286.58,-1434.34 277.83,-1415.67 271.51,-1402.17"/>
<text text-anchor="middle" x="292.97" y="-1422.6" font-family="arial" font-size="8.00" fill="#3cb4a4">array</text>
</g>
</g>
</svg>
