<?xml version="1.0" encoding="UTF-8" standalone="no"?>
<!DOCTYPE svg PUBLIC "-//W3C//DTD SVG 1.1//EN"
 "http://www.w3.org/Graphics/SVG/1.1/DTD/svg11.dtd">
<!-- Generated by graphviz version 2.44.1 (20200629.0846)
 -->
<!-- Title: G Pages: 1 -->
<svg width="652pt" height="1138pt"
 viewBox="0.00 0.00 651.51 1137.77" xmlns="http://www.w3.org/2000/svg" xmlns:xlink="http://www.w3.org/1999/xlink">
<g id="graph0" class="graph" transform="scale(1 1) rotate(0) translate(4 1133.77)">
<title>G</title>
<!-- node0 -->
<g id="node1" class="node">
<title>node0</title>
<polygon fill="#e98693" stroke="black" points="56,-1129.77 0,-1129.77 0,-1093.77 56,-1093.77 56,-1129.77"/>
<text text-anchor="middle" x="28" y="-1108.07" font-family="Arial" font-size="14.00" fill="#1a1919">0 Start</text>
</g>
<!-- node1203 -->
<g id="node15" class="node">
<title>node1203</title>
<polygon fill="#da2d4f" stroke="black" points="120.5,-1048.77 7.5,-1048.77 7.5,-1012.77 120.5,-1012.77 120.5,-1048.77"/>
<text text-anchor="middle" x="64" y="-1027.07" font-family="Arial" font-size="14.00" fill="#ffffff">1203 Load T(...)</text>
</g>
<!-- node0&#45;&gt;node1203 -->
<g id="edge25" class="edge">
<title>node0&#45;&gt;node1203</title>
<path fill="none" stroke="#da2d4f" stroke-width="2" d="M35.81,-1093.63C40.53,-1083.28 46.64,-1069.87 51.96,-1058.18"/>
<polygon fill="#da2d4f" stroke="#da2d4f" stroke-width="2" points="55.24,-1059.43 56.2,-1048.88 48.87,-1056.53 55.24,-1059.43"/>
</g>
<!-- node575 -->
<g id="node2" class="node">
<title>node575</title>
<polygon fill="#3cb4a4" stroke="black" points="209,-1048.77 138.45,-1030.77 209,-1012.77 279.55,-1030.77 209,-1048.77"/>
<text text-anchor="middle" x="209" y="-1027.07" font-family="Arial" font-size="14.00" fill="#1a1919">575 IsNull</text>
</g>
<!-- node1172 -->
<g id="node9" class="node">
<title>node1172</title>
<polygon fill="#ffa500" stroke="black" points="261.5,-961.77 10.5,-961.77 10.5,-925.77 261.5,-925.77 261.5,-961.77"/>
<text text-anchor="middle" x="136" y="-940.07" font-family="Arial" font-size="14.00" fill="#1a1919">1172 Guard, else TransferToInterpreter</text>
</g>
<!-- node575&#45;&gt;node1172 -->
<g id="edge9" class="edge">
<title>node575&#45;&gt;node1172</title>
<path fill="none" stroke="#3cb4a4" d="M196.95,-1015.73C186.28,-1003.32 170.48,-984.91 157.63,-969.95"/>
<polygon fill="#3cb4a4" stroke="#3cb4a4" points="160.02,-967.37 150.85,-962.06 154.71,-971.93 160.02,-967.37"/>
<text text-anchor="middle" x="180" y="-983.57" font-family="arial" font-size="14.00" fill="#3cb4a4">?</text>
</g>
<!-- node799 -->
<g id="node3" class="node">
<title>node799</title>
<polygon fill="#da2d4f" stroke="black" points="370.5,-880.77 71.5,-880.77 71.5,-844.77 370.5,-844.77 370.5,-880.77"/>
<text text-anchor="middle" x="221" y="-859.07" font-family="Arial" font-size="14.00" fill="#ffffff">799 LoadField RubyDynamicObject.metaClass</text>
</g>
<!-- node855 -->
<g id="node4" class="node">
<title>node855</title>
<polygon fill="#3cb4a4" stroke="black" points="303,-793.77 248.54,-775.77 303,-757.77 357.46,-775.77 303,-793.77"/>
<text text-anchor="middle" x="303" y="-772.07" font-family="Arial" font-size="14.00" fill="#1a1919">855 ==</text>
</g>
<!-- node799&#45;&gt;node855 -->
<g id="edge2" class="edge">
<title>node799&#45;&gt;node855</title>
<path fill="none" stroke="#3cb4a4" d="M237.59,-844.57C250.78,-830.9 269.27,-811.74 283.22,-797.27"/>
<polygon fill="#3cb4a4" stroke="#3cb4a4" points="286.02,-799.41 290.45,-789.78 280.99,-794.55 286.02,-799.41"/>
<text text-anchor="middle" x="269.5" y="-815.57" font-family="arial" font-size="14.00" fill="#3cb4a4">x</text>
</g>
<!-- node1174 -->
<g id="node10" class="node">
<title>node1174</title>
<polygon fill="#ffa500" stroke="black" points="362.5,-706.77 111.5,-706.77 111.5,-670.77 362.5,-670.77 362.5,-706.77"/>
<text text-anchor="middle" x="237" y="-685.07" font-family="Arial" font-size="14.00" fill="#1a1919">1174 Guard, else TransferToInterpreter</text>
</g>
<!-- node799&#45;&gt;node1174 -->
<g id="edge1" class="edge">
<title>node799&#45;&gt;node1174</title>
<path fill="none" stroke="#da2d4f" stroke-width="2" d="M222.59,-844.65C225.37,-814.77 231.13,-752.88 234.46,-717.04"/>
<polygon fill="#da2d4f" stroke="#da2d4f" stroke-width="2" points="237.97,-717.1 235.41,-706.82 231,-716.45 237.97,-717.1"/>
</g>
<!-- node855&#45;&gt;node1174 -->
<g id="edge11" class="edge">
<title>node855&#45;&gt;node1174</title>
<path fill="none" stroke="#3cb4a4" d="M292.4,-761.11C282.74,-748.68 268.25,-730.01 256.5,-714.89"/>
<polygon fill="#3cb4a4" stroke="#3cb4a4" points="259.21,-712.67 250.31,-706.91 253.68,-716.96 259.21,-712.67"/>
<text text-anchor="middle" x="277" y="-728.57" font-family="arial" font-size="14.00" fill="#3cb4a4">?</text>
</g>
<!-- node1073 -->
<g id="node5" class="node">
<title>node1073</title>
<polygon fill="#e98693" stroke="black" points="533.5,-36 442.5,-36 442.5,0 533.5,0 533.5,-36"/>
<text text-anchor="middle" x="488" y="-14.3" font-family="Arial" font-size="14.00" fill="#1a1919">1073 Return</text>
</g>
<!-- node1112 -->
<g id="node6" class="node">
<title>node1112</title>
<polygon fill="#da2d4f" stroke="black" points="444.5,-625.38 199.5,-625.38 199.5,-589.38 444.5,-589.38 444.5,-625.38"/>
<text text-anchor="middle" x="322" y="-603.68" font-family="Arial" font-size="14.00" fill="#ffffff">1112 LoadField DynamicObject.shape</text>
</g>
<!-- node1114 -->
<g id="node7" class="node">
<title>node1114</title>
<polygon fill="#3cb4a4" stroke="black" points="447,-538 387.01,-520 447,-502 506.99,-520 447,-538"/>
<text text-anchor="middle" x="447" y="-516.3" font-family="Arial" font-size="14.00" fill="#1a1919">1114 ==</text>
</g>
<!-- node1112&#45;&gt;node1114 -->
<g id="edge6" class="edge">
<title>node1112&#45;&gt;node1114</title>
<path fill="none" stroke="#3cb4a4" d="M347,-589.31C368.54,-574.6 399.51,-553.44 421.26,-538.58"/>
<polygon fill="#3cb4a4" stroke="#3cb4a4" points="423.4,-541.36 429.68,-532.83 419.45,-535.58 423.4,-541.36"/>
<text text-anchor="middle" x="398.5" y="-559.8" font-family="arial" font-size="14.00" fill="#3cb4a4">x</text>
</g>
<!-- node1177 -->
<g id="node11" class="node">
<title>node1177</title>
<polygon fill="#ffa500" stroke="black" points="447.5,-451 196.5,-451 196.5,-415 447.5,-415 447.5,-451"/>
<text text-anchor="middle" x="322" y="-429.3" font-family="Arial" font-size="14.00" fill="#1a1919">1177 Guard, else TransferToInterpreter</text>
</g>
<!-- node1112&#45;&gt;node1177 -->
<g id="edge5" class="edge">
<title>node1112&#45;&gt;node1177</title>
<path fill="none" stroke="#da2d4f" stroke-width="2" d="M322,-589.23C322,-559.28 322,-497.25 322,-461.33"/>
<polygon fill="#da2d4f" stroke="#da2d4f" stroke-width="2" points="325.5,-461.09 322,-451.09 318.5,-461.09 325.5,-461.09"/>
</g>
<!-- node1114&#45;&gt;node1177 -->
<g id="edge13" class="edge">
<title>node1114&#45;&gt;node1177</title>
<path fill="none" stroke="#3cb4a4" d="M429.62,-507.18C410.62,-494.26 379.71,-473.24 355.88,-457.04"/>
<polygon fill="#3cb4a4" stroke="#3cb4a4" points="357.69,-454.04 347.46,-451.31 353.76,-459.83 357.69,-454.04"/>
<text text-anchor="middle" x="395" y="-472.8" font-family="arial" font-size="14.00" fill="#3cb4a4">?</text>
</g>
<!-- node1178 -->
<g id="node12" class="node">
<title>node1178</title>
<polygon fill="#ffa500" stroke="black" points="528.5,-378 277.5,-378 277.5,-342 528.5,-342 528.5,-378"/>
<text text-anchor="middle" x="403" y="-356.3" font-family="Arial" font-size="14.00" fill="#1a1919">1178 Guard, else TransferToInterpreter</text>
</g>
<!-- node1114&#45;&gt;node1178 -->
<g id="edge15" class="edge">
<title>node1114&#45;&gt;node1178</title>
<path fill="none" stroke="#3cb4a4" d="M452.9,-503.52C459.91,-482.59 469.22,-444.49 457,-415 452.24,-403.52 443.73,-393.2 434.85,-384.74"/>
<polygon fill="#3cb4a4" stroke="#3cb4a4" points="437.17,-382.12 427.37,-378.08 432.51,-387.35 437.17,-382.12"/>
<text text-anchor="middle" x="466" y="-429.3" font-family="arial" font-size="14.00" fill="#3cb4a4">?</text>
</g>
<!-- node1163 -->
<g id="node8" class="node">
<title>node1163</title>
<polygon fill="#3cb4a4" stroke="black" points="431,-210 345.54,-192 431,-174 516.46,-192 431,-210"/>
<text text-anchor="middle" x="431" y="-188.3" font-family="Arial" font-size="14.00" fill="#1a1919">1163 Narrow</text>
</g>
<!-- node1201 -->
<g id="node13" class="node">
<title>node1201</title>
<polygon fill="#f9f9f9" stroke="black" points="585.5,-123 390.5,-123 390.5,-87 585.5,-87 585.5,-123"/>
<text text-anchor="middle" x="488" y="-101.3" font-family="Arial" font-size="14.00" fill="#1a1919">1201 BoxNode$AllocatingBox</text>
</g>
<!-- node1163&#45;&gt;node1201 -->
<g id="edge17" class="edge">
<title>node1163&#45;&gt;node1201</title>
<path fill="none" stroke="#3cb4a4" d="M441.19,-175.8C449.41,-163.54 461.16,-146.03 470.82,-131.61"/>
<polygon fill="#3cb4a4" stroke="#3cb4a4" points="473.86,-133.36 476.53,-123.11 468.05,-129.47 473.86,-133.36"/>
<text text-anchor="middle" x="478.5" y="-144.8" font-family="arial" font-size="14.00" fill="#3cb4a4">value</text>
</g>
<!-- node1172&#45;&gt;node799 -->
<g id="edge10" class="edge">
<title>node1172&#45;&gt;node799</title>
<path fill="none" stroke="#da2d4f" stroke-width="2" d="M154.44,-925.63C166.36,-914.55 182.04,-899.98 195.19,-887.76"/>
<polygon fill="#da2d4f" stroke="#da2d4f" stroke-width="2" points="197.65,-890.25 202.59,-880.88 192.88,-885.12 197.65,-890.25"/>
</g>
<!-- node1174&#45;&gt;node1112 -->
<g id="edge12" class="edge">
<title>node1174&#45;&gt;node1112</title>
<path fill="none" stroke="#da2d4f" stroke-width="2" d="M255.44,-670.54C267.36,-659.41 283.04,-644.77 296.19,-632.49"/>
<polygon fill="#da2d4f" stroke="#da2d4f" stroke-width="2" points="298.67,-634.96 303.59,-625.58 293.89,-629.84 298.67,-634.96"/>
</g>
<!-- node1177&#45;&gt;node1178 -->
<g id="edge14" class="edge">
<title>node1177&#45;&gt;node1178</title>
<path fill="none" stroke="#da2d4f" stroke-width="2" d="M341.61,-414.81C351.86,-405.83 364.56,-394.69 375.75,-384.89"/>
<polygon fill="#da2d4f" stroke="#da2d4f" stroke-width="2" points="378.36,-387.25 383.57,-378.03 373.75,-381.99 378.36,-387.25"/>
</g>
<!-- node1202 -->
<g id="node14" class="node">
<title>node1202</title>
<polygon fill="#da2d4f" stroke="black" points="628,-297 348,-297 348,-261 628,-261 628,-297"/>
<text text-anchor="middle" x="488" y="-275.3" font-family="Arial" font-size="14.00" fill="#ffffff">1202 LoadField RubyBasicObject.primitive1</text>
</g>
<!-- node1178&#45;&gt;node1202 -->
<g id="edge16" class="edge">
<title>node1178&#45;&gt;node1202</title>
<path fill="none" stroke="#da2d4f" stroke-width="2" d="M421.44,-341.86C433.36,-330.78 449.04,-316.21 462.19,-303.99"/>
<polygon fill="#da2d4f" stroke="#da2d4f" stroke-width="2" points="464.65,-306.48 469.59,-297.11 459.88,-301.35 464.65,-306.48"/>
</g>
<!-- node1201&#45;&gt;node1073 -->
<g id="edge4" class="edge">
<title>node1201&#45;&gt;node1073</title>
<path fill="none" stroke="#3cb4a4" d="M473.9,-86.84C470.28,-81.46 466.88,-75.27 465,-69 462.59,-60.93 464.56,-52.49 468.19,-44.89"/>
<polygon fill="#3cb4a4" stroke="#3cb4a4" points="471.29,-46.53 473.25,-36.12 465.22,-43.03 471.29,-46.53"/>
<text text-anchor="middle" x="482" y="-57.8" font-family="arial" font-size="14.00" fill="#3cb4a4">result</text>
</g>
<!-- node1201&#45;&gt;node1073 -->
<g id="edge18" class="edge">
<title>node1201&#45;&gt;node1073</title>
<path fill="none" stroke="#da2d4f" stroke-width="2" d="M494.55,-86.8C496.37,-81.21 498.09,-74.92 499,-69 500.17,-61.39 499.29,-53.2 497.61,-45.71"/>
<polygon fill="#da2d4f" stroke="#da2d4f" stroke-width="2" points="500.97,-44.74 494.94,-36.02 494.22,-46.59 500.97,-44.74"/>
</g>
<!-- node1202&#45;&gt;node1163 -->
<g id="edge8" class="edge">
<title>node1202&#45;&gt;node1163</title>
<path fill="none" stroke="#3cb4a4" d="M476.47,-260.8C467.93,-248.07 456.19,-230.57 446.78,-216.54"/>
<polygon fill="#3cb4a4" stroke="#3cb4a4" points="449.47,-214.26 440.99,-207.9 443.66,-218.16 449.47,-214.26"/>
<text text-anchor="middle" x="478.5" y="-231.8" font-family="arial" font-size="14.00" fill="#3cb4a4">value</text>
</g>
<!-- node1202&#45;&gt;node1201 -->
<g id="edge19" class="edge">
<title>node1202&#45;&gt;node1201</title>
<path fill="none" stroke="#da2d4f" stroke-width="2" d="M500.49,-260.84C509.27,-247.66 520.26,-228.63 525,-210 528.95,-194.49 528.95,-189.51 525,-174 521.22,-159.16 513.48,-144.06 506.04,-131.87"/>
<polygon fill="#da2d4f" stroke="#da2d4f" stroke-width="2" points="508.82,-129.71 500.49,-123.16 502.92,-133.48 508.82,-129.71"/>
</g>
<!-- node1203&#45;&gt;node1172 -->
<g id="edge26" class="edge">
<title>node1203&#45;&gt;node1172</title>
<path fill="none" stroke="#da2d4f" stroke-width="2" d="M78.57,-1012.57C89.01,-1000.24 103.24,-983.45 114.92,-969.66"/>
<polygon fill="#da2d4f" stroke="#da2d4f" stroke-width="2" points="117.66,-971.84 121.45,-961.94 112.32,-967.31 117.66,-971.84"/>
</g>
<!-- inline854x855 -->
<g id="node16" class="node">
<title>inline854x855</title>
<ellipse fill="#d7ede7" stroke="black" cx="460" cy="-862.77" rx="71.44" ry="18"/>
<text text-anchor="middle" x="460" y="-860.87" font-family="Arial" font-size="8.00" fill="#1a1919">854 C(RubyClass@3c77d52e)</text>
</g>
<!-- inline854x855&#45;&gt;node855 -->
<g id="edge3" class="edge">
<title>inline854x855&#45;&gt;node855</title>
<path fill="none" stroke="#3cb4a4" d="M431.2,-846.18C399.69,-829.12 350.02,-802.23 322.68,-787.42"/>
<text text-anchor="middle" x="392" y="-817.37" font-family="arial" font-size="8.00" fill="#3cb4a4">y</text>
</g>
<!-- inline1109x1114 -->
<g id="node17" class="node">
<title>inline1109x1114</title>
<ellipse fill="#d7ede7" stroke="black" cx="553" cy="-607.38" rx="90.52" ry="18.27"/>
<text text-anchor="middle" x="553" y="-609.98" font-family="Arial" font-size="8.00" fill="#1a1919">1109 C(@5c89c7ff{&quot;@x&quot;:int@0</text>
<text text-anchor="middle" x="553" y="-600.98" font-family="Arial" font-size="8.00" fill="#1a1919">})</text>
</g>
<!-- inline1109x1114&#45;&gt;node1114 -->
<g id="edge7" class="edge">
<title>inline1109x1114&#45;&gt;node1114</title>
<path fill="none" stroke="#3cb4a4" d="M531.8,-589.31C511.38,-572.86 480.97,-548.36 462.65,-533.61"/>
<text text-anchor="middle" x="508" y="-561.6" font-family="arial" font-size="8.00" fill="#3cb4a4">y</text>
</g>
<!-- inline143x575 -->
<g id="node18" class="node">
<title>inline143x575</title>
<ellipse fill="#d7ede7" stroke="black" cx="209" cy="-1111.77" rx="27.46" ry="18"/>
<text text-anchor="middle" x="209" y="-1109.87" font-family="Arial" font-size="8.00" fill="#1a1919">143 T(6)</text>
</g>
<!-- inline143x575&#45;&gt;node575 -->
<g id="edge20" class="edge">
<title>inline143x575&#45;&gt;node575</title>
<path fill="none" stroke="#3cb4a4" d="M209,-1093.63C209,-1080.38 209,-1062.12 209,-1048.88"/>
<text text-anchor="middle" x="218.5" y="-1069.37" font-family="arial" font-size="8.00" fill="#3cb4a4">value</text>
</g>
<!-- inline158x799 -->
<g id="node19" class="node">
<title>inline158x799</title>
<ellipse fill="#d7ede7" stroke="black" cx="307" cy="-943.77" rx="27.46" ry="18"/>
<text text-anchor="middle" x="307" y="-941.87" font-family="Arial" font-size="8.00" fill="#1a1919">158 T(7)</text>
</g>
<!-- inline158x799&#45;&gt;node799 -->
<g id="edge21" class="edge">
<title>inline158x799&#45;&gt;node799</title>
<path fill="none" stroke="#3cb4a4" d="M291.62,-928.65C277.03,-915.24 255.08,-895.08 239.53,-880.79"/>
<text text-anchor="middle" x="277" y="-901.37" font-family="arial" font-size="8.00" fill="#3cb4a4">object</text>
</g>
<!-- inline158x1112 -->
<g id="node20" class="node">
<title>inline158x1112</title>
<ellipse fill="#d7ede7" stroke="black" cx="408" cy="-688.77" rx="27.46" ry="18"/>
<text text-anchor="middle" x="408" y="-686.87" font-family="Arial" font-size="8.00" fill="#1a1919">158 T(7)</text>
</g>
<!-- inline158x1112&#45;&gt;node1112 -->
<g id="edge22" class="edge">
<title>inline158x1112&#45;&gt;node1112</title>
<path fill="none" stroke="#3cb4a4" d="M392.62,-673.58C378.03,-660.11 356.08,-639.85 340.53,-625.49"/>
<text text-anchor="middle" x="378" y="-646.37" font-family="arial" font-size="8.00" fill="#3cb4a4">object</text>
</g>
<!-- inline158x1202 -->
<g id="node21" class="node">
<title>inline158x1202</title>
<ellipse fill="#d7ede7" stroke="black" cx="574" cy="-360" rx="27.46" ry="18"/>
<text text-anchor="middle" x="574" y="-358.1" font-family="Arial" font-size="8.00" fill="#1a1919">158 T(7)</text>
</g>
<!-- inline158x1202&#45;&gt;node1202 -->
<g id="edge23" class="edge">
<title>inline158x1202&#45;&gt;node1202</title>
<path fill="none" stroke="#3cb4a4" d="M558.62,-344.88C544.03,-331.47 522.08,-311.31 506.53,-297.02"/>
<text text-anchor="middle" x="544" y="-317.6" font-family="arial" font-size="8.00" fill="#3cb4a4">object</text>
</g>
<!-- inline2x1203 -->
<g id="node22" class="node">
<title>inline2x1203</title>
<ellipse fill="#d7ede7" stroke="black" cx="101" cy="-1111.77" rx="27" ry="18"/>
<text text-anchor="middle" x="101" y="-1109.87" font-family="Arial" font-size="8.00" fill="#1a1919">2 P(1)</text>
</g>
<!-- inline2x1203&#45;&gt;node1203 -->
<g id="edge24" class="edge">
<title>inline2x1203&#45;&gt;node1203</title>
<path fill="none" stroke="#3cb4a4" d="M93.33,-1094.4C87.11,-1081.11 78.36,-1062.43 72.04,-1048.94"/>
<text text-anchor="middle" x="92.5" y="-1069.37" font-family="arial" font-size="8.00" fill="#3cb4a4">array</text>
</g>
</g>
</svg>
