<?xml version="1.0" encoding="UTF-8" standalone="no"?>
<!DOCTYPE svg PUBLIC "-//W3C//DTD SVG 1.1//EN"
 "http://www.w3.org/Graphics/SVG/1.1/DTD/svg11.dtd">
<!-- Generated by graphviz version 2.44.1 (20200629.0846)
 -->
<!-- Title: G Pages: 1 -->
<svg width="467pt" height="453pt"
 viewBox="0.00 0.00 467.23 453.00" xmlns="http://www.w3.org/2000/svg" xmlns:xlink="http://www.w3.org/1999/xlink">
<g id="graph0" class="graph" transform="scale(1 1) rotate(0) translate(4 449)">
<title>G</title>
<!-- node0 -->
<g id="node1" class="node">
<title>node0</title>
<polygon fill="#e98693" stroke="black" points="56,-445 0,-445 0,-409 56,-409 56,-445"/>
<text text-anchor="middle" x="28" y="-423.3" font-family="Arial" font-size="14.00" fill="#1a1919">0 Start</text>
</g>
<!-- node1997 -->
<g id="node7" class="node">
<title>node1997</title>
<polygon fill="#da2d4f" stroke="black" points="120.5,-364 7.5,-364 7.5,-328 120.5,-328 120.5,-364"/>
<text text-anchor="middle" x="64" y="-342.3" font-family="Arial" font-size="14.00" fill="#ffffff">1997 Load T(...)</text>
</g>
<!-- node0&#45;&gt;node1997 -->
<g id="edge11" class="edge">
<title>node0&#45;&gt;node1997</title>
<path fill="none" stroke="#da2d4f" stroke-width="2" d="M35.81,-408.86C40.53,-398.51 46.64,-385.1 51.96,-373.41"/>
<polygon fill="#da2d4f" stroke="#da2d4f" stroke-width="2" points="55.24,-374.66 56.2,-364.11 48.87,-371.76 55.24,-374.66"/>
</g>
<!-- node532 -->
<g id="node2" class="node">
<title>node532</title>
<polygon fill="#f9f9f9" stroke="black" points="175,-283 93,-283 93,-247 175,-247 175,-283"/>
<text text-anchor="middle" x="134" y="-261.3" font-family="Arial" font-size="14.00" fill="#1a1919">532 Unbox</text>
</g>
<!-- node1961 -->
<g id="node5" class="node">
<title>node1961</title>
<polygon fill="#ffa500" stroke="black" points="432.5,-196 181.5,-196 181.5,-160 432.5,-160 432.5,-196"/>
<text text-anchor="middle" x="307" y="-174.3" font-family="Arial" font-size="14.00" fill="#1a1919">1961 Guard, else TransferToInterpreter</text>
</g>
<!-- node532&#45;&gt;node1961 -->
<g id="edge1" class="edge">
<title>node532&#45;&gt;node1961</title>
<path fill="none" stroke="#da2d4f" stroke-width="2" d="M169.01,-246.8C196.18,-233.45 234.01,-214.86 263.19,-200.52"/>
<polygon fill="#da2d4f" stroke="#da2d4f" stroke-width="2" points="264.91,-203.58 272.34,-196.03 261.82,-197.3 264.91,-203.58"/>
</g>
<!-- node1996 -->
<g id="node6" class="node">
<title>node1996</title>
<polygon fill="#f9f9f9" stroke="black" points="239.5,-123 44.5,-123 44.5,-87 239.5,-87 239.5,-123"/>
<text text-anchor="middle" x="142" y="-101.3" font-family="Arial" font-size="14.00" fill="#1a1919">1996 BoxNode$AllocatingBox</text>
</g>
<!-- node532&#45;&gt;node1996 -->
<g id="edge6" class="edge">
<title>node532&#45;&gt;node1996</title>
<path fill="none" stroke="#3cb4a4" d="M134.87,-246.79C136.25,-219.48 138.96,-165.99 140.61,-133.38"/>
<polygon fill="#3cb4a4" stroke="#3cb4a4" points="144.12,-133.35 141.13,-123.19 137.13,-133 144.12,-133.35"/>
<text text-anchor="middle" x="155.5" y="-174.3" font-family="arial" font-size="14.00" fill="#3cb4a4">value</text>
</g>
<!-- node1146 -->
<g id="node3" class="node">
<title>node1146</title>
<polygon fill="#3cb4a4" stroke="black" points="307,-283 246.17,-265 307,-247 367.83,-265 307,-283"/>
<text text-anchor="middle" x="307" y="-261.3" font-family="Arial" font-size="14.00" fill="#1a1919">1146 ==</text>
</g>
<!-- node1146&#45;&gt;node1961 -->
<g id="edge4" class="edge">
<title>node1146&#45;&gt;node1961</title>
<path fill="none" stroke="#3cb4a4" d="M307,-246.8C307,-235.16 307,-219.55 307,-206.24"/>
<polygon fill="#3cb4a4" stroke="#3cb4a4" points="310.5,-206.18 307,-196.18 303.5,-206.18 310.5,-206.18"/>
<text text-anchor="middle" x="311" y="-217.8" font-family="arial" font-size="14.00" fill="#3cb4a4">?</text>
</g>
<!-- node1874 -->
<g id="node4" class="node">
<title>node1874</title>
<polygon fill="#e98693" stroke="black" points="187.5,-36 96.5,-36 96.5,0 187.5,0 187.5,-36"/>
<text text-anchor="middle" x="142" y="-14.3" font-family="Arial" font-size="14.00" fill="#1a1919">1874 Return</text>
</g>
<!-- node1961&#45;&gt;node1996 -->
<g id="edge5" class="edge">
<title>node1961&#45;&gt;node1996</title>
<path fill="none" stroke="#da2d4f" stroke-width="2" d="M267.48,-159.99C244.59,-150.14 215.57,-137.66 191.2,-127.17"/>
<polygon fill="#da2d4f" stroke="#da2d4f" stroke-width="2" points="192.34,-123.85 181.77,-123.11 189.57,-130.28 192.34,-123.85"/>
</g>
<!-- node1996&#45;&gt;node1874 -->
<g id="edge3" class="edge">
<title>node1996&#45;&gt;node1874</title>
<path fill="none" stroke="#3cb4a4" d="M127.9,-86.84C124.28,-81.46 120.88,-75.27 119,-69 116.59,-60.93 118.56,-52.49 122.19,-44.89"/>
<polygon fill="#3cb4a4" stroke="#3cb4a4" points="125.29,-46.53 127.25,-36.12 119.22,-43.03 125.29,-46.53"/>
<text text-anchor="middle" x="136" y="-57.8" font-family="arial" font-size="14.00" fill="#3cb4a4">result</text>
</g>
<!-- node1996&#45;&gt;node1874 -->
<g id="edge7" class="edge">
<title>node1996&#45;&gt;node1874</title>
<path fill="none" stroke="#da2d4f" stroke-width="2" d="M148.55,-86.8C150.37,-81.21 152.09,-74.92 153,-69 154.17,-61.39 153.29,-53.2 151.61,-45.71"/>
<polygon fill="#da2d4f" stroke="#da2d4f" stroke-width="2" points="154.97,-44.74 148.94,-36.02 148.22,-46.59 154.97,-44.74"/>
</g>
<!-- node1997&#45;&gt;node532 -->
<g id="edge12" class="edge">
<title>node1997&#45;&gt;node532</title>
<path fill="none" stroke="#da2d4f" stroke-width="2" d="M79.19,-327.86C88.82,-316.99 101.44,-302.75 112.14,-290.67"/>
<polygon fill="#da2d4f" stroke="#da2d4f" stroke-width="2" points="114.83,-292.91 118.84,-283.11 109.59,-288.27 114.83,-292.91"/>
</g>
<!-- inline1144x1146 -->
<g id="node8" class="node">
<title>inline1144x1146</title>
<ellipse fill="#d7ede7" stroke="black" cx="303" cy="-346" rx="83.27" ry="18"/>
<text text-anchor="middle" x="303" y="-344.1" font-family="Arial" font-size="8.00" fill="#1a1919">1144 C(RubyBasicObject@7fc889f3)</text>
</g>
<!-- inline1144x1146&#45;&gt;node1146 -->
<g id="edge2" class="edge">
<title>inline1144x1146&#45;&gt;node1146</title>
<path fill="none" stroke="#3cb4a4" d="M303.87,-327.86C304.54,-314.52 305.48,-296.1 306.15,-282.84"/>
<text text-anchor="middle" x="307" y="-303.6" font-family="arial" font-size="8.00" fill="#3cb4a4">y</text>
</g>
<!-- inline125x1146 -->
<g id="node9" class="node">
<title>inline125x1146</title>
<ellipse fill="#d7ede7" stroke="black" cx="432" cy="-346" rx="27.46" ry="18"/>
<text text-anchor="middle" x="432" y="-344.1" font-family="Arial" font-size="8.00" fill="#1a1919">125 T(5)</text>
</g>
<!-- inline125x1146&#45;&gt;node1146 -->
<g id="edge8" class="edge">
<title>inline125x1146&#45;&gt;node1146</title>
<path fill="none" stroke="#3cb4a4" d="M413.02,-333C389.25,-317.98 348.81,-292.43 325.35,-277.6"/>
<text text-anchor="middle" x="375" y="-303.6" font-family="arial" font-size="8.00" fill="#3cb4a4">x</text>
</g>
<!-- inline161x532 -->
<g id="node10" class="node">
<title>inline161x532</title>
<ellipse fill="#d7ede7" stroke="black" cx="166" cy="-346" rx="27.46" ry="18"/>
<text text-anchor="middle" x="166" y="-344.1" font-family="Arial" font-size="8.00" fill="#1a1919">161 T(7)</text>
</g>
<!-- inline161x532&#45;&gt;node532 -->
<g id="edge9" class="edge">
<title>inline161x532&#45;&gt;node532</title>
<path fill="none" stroke="#3cb4a4" d="M159.21,-328.25C153.82,-314.93 146.31,-296.38 140.89,-283"/>
<text text-anchor="middle" x="159.5" y="-303.6" font-family="arial" font-size="8.00" fill="#3cb4a4">value</text>
</g>
<!-- inline2x1997 -->
<g id="node11" class="node">
<title>inline2x1997</title>
<ellipse fill="#d7ede7" stroke="black" cx="101" cy="-427" rx="27" ry="18"/>
<text text-anchor="middle" x="101" y="-425.1" font-family="Arial" font-size="8.00" fill="#1a1919">2 P(1)</text>
</g>
<!-- inline2x1997&#45;&gt;node1997 -->
<g id="edge10" class="edge">
<title>inline2x1997&#45;&gt;node1997</title>
<path fill="none" stroke="#3cb4a4" d="M93.33,-409.63C87.11,-396.34 78.36,-377.67 72.04,-364.17"/>
<text text-anchor="middle" x="92.5" y="-384.6" font-family="arial" font-size="8.00" fill="#3cb4a4">array</text>
</g>
</g>
</svg>
