<?xml version="1.0" encoding="UTF-8" standalone="no"?>
<!DOCTYPE svg PUBLIC "-//W3C//DTD SVG 1.1//EN"
 "http://www.w3.org/Graphics/SVG/1.1/DTD/svg11.dtd">
<!-- Generated by graphviz version 2.43.0 (0)
 -->
<!-- Title: G Pages: 1 -->
<svg width="558pt" height="884pt"
 viewBox="0.00 0.00 557.70 884.49" xmlns="http://www.w3.org/2000/svg" xmlns:xlink="http://www.w3.org/1999/xlink">
<g id="graph0" class="graph" transform="scale(1 1) rotate(0) translate(4 880.49)">
<title>G</title>
' points="-4,4 -4,-880.49 553.7,-880.49 553.7,4 -4,4"/>
<!-- node0 -->
<g id="node1" class="node">
<title>node0</title>
<polygon fill="#e98693" stroke="black" points="394.74,-876.49 337.26,-876.49 337.26,-840.49 394.74,-840.49 394.74,-876.49"/>
<text text-anchor="middle" x="366" y="-855.34" font-family="Arial" font-size="14.00" fill="#1a1919">0 Start</text>
</g>
<!-- node6 -->
<g id="node4" class="node">
<title>node6</title>
<polygon fill="#da2d4f" stroke="black" points="548.21,-803.49 297.79,-803.49 297.79,-767.49 548.21,-767.49 548.21,-803.49"/>
<text text-anchor="middle" x="423" y="-782.34" font-family="Arial" font-size="14.00" fill="#ffffff">6 Call JavaExamples.exampleThrow !</text>
</g>
<!-- node0&#45;&gt;node6 -->
<g id="edge1" class="edge">
<title>node0&#45;&gt;node6</title>
<path fill="none" stroke="#da2d4f" stroke-width="2" d="M379.8,-840.31C386.73,-831.67 395.26,-821.05 402.9,-811.53"/>
<polygon fill="#da2d4f" stroke="#da2d4f" stroke-width="2" points="405.8,-813.51 409.33,-803.52 400.34,-809.13 405.8,-813.51"/>
</g>
<!-- node2 -->
<g id="node2" class="node">
<title>node2</title>
<polygon fill="#f9f9f9" stroke="black" points="549.9,-876.49 412.1,-876.49 412.1,-840.49 549.9,-840.49 549.9,-876.49"/>
<text text-anchor="middle" x="481" y="-855.34" font-family="Arial" font-size="14.00" fill="#1a1919">2 MethodCallTarget</text>
</g>
<!-- node2&#45;&gt;node6 -->
<g id="edge3" class="edge">
<title>node2&#45;&gt;node6</title>
<path fill="none" stroke="#343d46" stroke-dasharray="5,2" d="M460.41,-832.28C452.62,-822.75 443.94,-812.13 436.91,-803.52"/>
<polygon fill="#343d46" stroke="#343d46" points="457.92,-834.78 466.96,-840.31 463.34,-830.35 457.92,-834.78"/>
</g>
<!-- node3 -->
<g id="node3" class="node">
<title>node3</title>
<polygon fill="#f9f9f9" stroke="black" points="421.62,-715.39 292.38,-715.39 292.38,-679.39 421.62,-679.39 421.62,-715.39"/>
<text text-anchor="middle" x="357" y="-694.24" font-family="Arial" font-size="14.00" fill="#1a1919">3 ExceptionObject</text>
</g>
<!-- node10 -->
<g id="node7" class="node">
<title>node10</title>
<polygon fill="#f9f9f9" stroke="black" points="252,-343.1 198,-343.1 198,-307.1 252,-307.1 252,-343.1"/>
<text text-anchor="middle" x="225" y="-321.95" font-family="Arial" font-size="14.00" fill="#1a1919">10 π</text>
</g>
<!-- node3&#45;&gt;node10 -->
<g id="edge9" class="edge">
<title>node3&#45;&gt;node10</title>
<path fill="none" stroke="#3cb4a4" d="M292.35,-693.95C189.47,-688.27 0,-669.75 0,-610.3 0,-610.3 0,-610.3 0,-412.2 0,-372.48 123.84,-344.3 187.77,-332.41"/>
<polygon fill="#3cb4a4" stroke="#3cb4a4" points="188.65,-335.81 197.86,-330.57 187.39,-328.92 188.65,-335.81"/>
<text text-anchor="middle" x="18.68" y="-498.15" font-family="arial" font-size="14.00" fill="#3cb4a4">object</text>
</g>
<!-- node13 -->
<g id="node9" class="node">
<title>node13</title>
<polygon fill="#f9f9f9" stroke="black" points="335.84,-627.3 28.16,-627.3 28.16,-591.3 335.84,-591.3 335.84,-627.3"/>
<text text-anchor="middle" x="182" y="-606.15" font-family="Arial" font-size="14.00" fill="#1a1919">13 InstanceOf a! Ljava/lang/RuntimeException;</text>
</g>
<!-- node3&#45;&gt;node13 -->
<g id="edge11" class="edge">
<title>node3&#45;&gt;node13</title>
<path fill="none" stroke="#3cb4a4" d="M322.43,-679.38C294.83,-665.81 255.99,-646.7 226.15,-632.02"/>
<polygon fill="#3cb4a4" stroke="#3cb4a4" points="227.32,-628.69 216.8,-627.42 224.23,-634.97 227.32,-628.69"/>
<text text-anchor="middle" x="302.73" y="-650.19" font-family="arial" font-size="14.00" fill="#3cb4a4">value</text>
</g>
<!-- node14 -->
<g id="node10" class="node">
<title>node14</title>
<polygon fill="#e98693" stroke="black" points="302,-519.3 248,-519.3 248,-483.3 302,-483.3 302,-519.3"/>
<text text-anchor="middle" x="275" y="-498.15" font-family="Arial" font-size="14.00" fill="#1a1919">14 If</text>
</g>
<!-- node3&#45;&gt;node14 -->
<g id="edge2" class="edge">
<title>node3&#45;&gt;node14</title>
<path fill="none" stroke="#da2d4f" stroke-width="2" d="M357.85,-679.31C358.3,-657.91 357.01,-620.51 345,-591.3 334.98,-566.92 316.26,-543.67 300.69,-527.05"/>
<polygon fill="#da2d4f" stroke="#da2d4f" stroke-width="2" points="302.82,-524.21 293.36,-519.44 297.78,-529.07 302.82,-524.21"/>
</g>
<!-- node23 -->
<g id="node16" class="node">
<title>node23</title>
<polygon fill="#da2d4f" stroke="black" points="429.15,-343.1 346.85,-343.1 346.85,-307.1 429.15,-307.1 429.15,-343.1"/>
<text text-anchor="middle" x="388" y="-321.95" font-family="Arial" font-size="14.00" fill="#ffffff">23 Unwind</text>
</g>
<!-- node3&#45;&gt;node23 -->
<g id="edge20" class="edge">
<title>node3&#45;&gt;node23</title>
<path fill="none" stroke="#3cb4a4" d="M372.23,-679.29C385.29,-662.82 402,-636.61 402,-610.3 402,-610.3 402,-610.3 402,-412.2 402,-392.32 398.32,-370.19 394.73,-353.35"/>
<polygon fill="#3cb4a4" stroke="#3cb4a4" points="398.04,-352.11 392.43,-343.12 391.21,-353.64 398.04,-352.11"/>
<text text-anchor="middle" x="431.97" y="-498.15" font-family="arial" font-size="14.00" fill="#3cb4a4">exception</text>
</g>
<!-- node6&#45;&gt;node3 -->
<g id="edge5" class="edge">
<title>node6&#45;&gt;node3</title>
<path fill="none" stroke="#da2d4f" stroke-width="2" d="M409.96,-767.48C400.44,-755.06 387.37,-738.01 376.6,-723.96"/>
<polygon fill="#da2d4f" stroke="#da2d4f" stroke-width="2" points="379.1,-721.47 370.24,-715.66 373.54,-725.73 379.1,-721.47"/>
<text text-anchor="middle" x="418.18" y="-738.29" font-family="arial" font-size="14.00" fill="#da2d4f">unwind</text>
</g>
<!-- node8 -->
<g id="node5" class="node">
<title>node8</title>
<polygon fill="#e98693" stroke="black" points="540.33,-715.39 439.67,-715.39 439.67,-679.39 540.33,-679.39 540.33,-715.39"/>
<text text-anchor="middle" x="490" y="-694.24" font-family="Arial" font-size="14.00" fill="#1a1919">8 KillingBegin</text>
</g>
<!-- node6&#45;&gt;node8 -->
<g id="edge4" class="edge">
<title>node6&#45;&gt;node8</title>
<path fill="none" stroke="#da2d4f" stroke-width="2" d="M436.24,-767.48C445.99,-754.95 459.42,-737.69 470.41,-723.56"/>
<polygon fill="#da2d4f" stroke="#da2d4f" stroke-width="2" points="473.18,-725.71 476.56,-715.66 467.66,-721.41 473.18,-725.71"/>
</g>
<!-- node20 -->
<g id="node14" class="node">
<title>node20</title>
<polygon fill="#e98693" stroke="black" points="520.37,-573.3 459.63,-573.3 459.63,-537.3 520.37,-537.3 520.37,-573.3"/>
<text text-anchor="middle" x="490" y="-552.15" font-family="Arial" font-size="14.00" fill="#1a1919">20 End</text>
</g>
<!-- node8&#45;&gt;node20 -->
<g id="edge6" class="edge">
<title>node8&#45;&gt;node20</title>
<path fill="none" stroke="#da2d4f" stroke-width="2" d="M490,-679.22C490,-655.37 490,-611.99 490,-583.66"/>
<polygon fill="#da2d4f" stroke="#da2d4f" stroke-width="2" points="493.5,-583.62 490,-573.62 486.5,-583.62 493.5,-583.62"/>
</g>
<!-- node9 -->
<g id="node6" class="node">
<title>node9</title>
<polygon fill="#e98693" stroke="black" points="284.98,-431.2 221.02,-431.2 221.02,-395.2 284.98,-395.2 284.98,-431.2"/>
<text text-anchor="middle" x="253" y="-410.05" font-family="Arial" font-size="14.00" fill="#1a1919">9 Begin</text>
</g>
<!-- node9&#45;&gt;node10 -->
<g id="edge8" class="edge">
<title>node9&#45;&gt;node10</title>
<path fill="none" stroke="#3cb4a4" d="M239.41,-394.9C235.83,-389.51 232.37,-383.35 230.19,-377.2 227.54,-369.68 226.11,-361.19 225.36,-353.31"/>
<polygon fill="#3cb4a4" stroke="#3cb4a4" points="228.84,-352.87 224.73,-343.11 221.86,-353.3 228.84,-352.87"/>
<text text-anchor="middle" x="248.9" y="-366" font-family="arial" font-size="14.00" fill="#3cb4a4">guard</text>
</g>
<!-- node15 -->
<g id="node11" class="node">
<title>node15</title>
<polygon fill="#da2d4f" stroke="black" points="412.79,-255 147.21,-255 147.21,-219 412.79,-219 412.79,-255"/>
<text text-anchor="middle" x="280" y="-233.85" font-family="Arial" font-size="14.00" fill="#ffffff">15 StoreField JavaExamples.objectField</text>
</g>
<!-- node9&#45;&gt;node15 -->
<g id="edge7" class="edge">
<title>node9&#45;&gt;node15</title>
<path fill="none" stroke="#da2d4f" stroke-width="2" d="M260.37,-395.02C262.5,-389.43 264.62,-383.13 266,-377.2 274.82,-339.18 278.08,-294.05 279.29,-265.72"/>
<polygon fill="#da2d4f" stroke="#da2d4f" stroke-width="2" points="282.8,-265.5 279.67,-255.37 275.81,-265.24 282.8,-265.5"/>
</g>
<!-- node10&#45;&gt;node15 -->
<g id="edge15" class="edge">
<title>node10&#45;&gt;node15</title>
<path fill="none" stroke="#3cb4a4" d="M224.3,-306.89C224.62,-296.42 226.44,-283.15 232.53,-273 234.91,-269.04 237.92,-265.39 241.27,-262.07"/>
<polygon fill="#3cb4a4" stroke="#3cb4a4" points="243.79,-264.51 249.03,-255.3 239.19,-259.23 243.79,-264.51"/>
<text text-anchor="middle" x="249.73" y="-277.9" font-family="arial" font-size="14.00" fill="#3cb4a4">value</text>
</g>
<!-- node12 -->
<g id="node8" class="node">
<title>node12</title>
<polygon fill="#e98693" stroke="black" points="373.77,-431.2 302.23,-431.2 302.23,-395.2 373.77,-395.2 373.77,-431.2"/>
<text text-anchor="middle" x="338" y="-410.05" font-family="Arial" font-size="14.00" fill="#1a1919">12 Begin</text>
</g>
<!-- node12&#45;&gt;node23 -->
<g id="edge10" class="edge">
<title>node12&#45;&gt;node23</title>
<path fill="none" stroke="#da2d4f" stroke-width="2" d="M347.88,-395.19C355.02,-382.89 364.81,-366.04 372.92,-352.06"/>
<polygon fill="#da2d4f" stroke="#da2d4f" stroke-width="2" points="375.98,-353.77 377.97,-343.37 369.92,-350.26 375.98,-353.77"/>
</g>
<!-- node13&#45;&gt;node14 -->
<g id="edge12" class="edge">
<title>node13&#45;&gt;node14</title>
<path fill="none" stroke="#3cb4a4" d="M196.94,-591.27C212.11,-573.98 235.74,-547.04 253.04,-527.33"/>
<polygon fill="#3cb4a4" stroke="#3cb4a4" points="255.82,-529.46 259.79,-519.64 250.56,-524.85 255.82,-529.46"/>
<text text-anchor="middle" x="246.89" y="-552.15" font-family="arial" font-size="14.00" fill="#3cb4a4">?</text>
</g>
<!-- node14&#45;&gt;node9 -->
<g id="edge13" class="edge">
<title>node14&#45;&gt;node9</title>
<path fill="none" stroke="#da2d4f" stroke-width="2" d="M270.65,-483.29C267.6,-471.34 263.45,-455.1 259.94,-441.37"/>
<polygon fill="#da2d4f" stroke="#da2d4f" stroke-width="2" points="263.28,-440.29 257.41,-431.47 256.5,-442.02 263.28,-440.29"/>
<text text-anchor="middle" x="270.28" y="-454.1" font-family="arial" font-size="14.00" fill="#da2d4f">T</text>
</g>
<!-- node14&#45;&gt;node12 -->
<g id="edge14" class="edge">
<title>node14&#45;&gt;node12</title>
<path fill="none" stroke="#da2d4f" stroke-width="2" d="M287.45,-483.29C296.53,-470.87 309.01,-453.82 319.29,-439.76"/>
<polygon fill="#da2d4f" stroke="#da2d4f" stroke-width="2" points="322.28,-441.6 325.36,-431.47 316.63,-437.47 322.28,-441.6"/>
<text text-anchor="middle" x="317.28" y="-454.1" font-family="arial" font-size="14.00" fill="#da2d4f">F</text>
</g>
<!-- node18 -->
<g id="node12" class="node">
<title>node18</title>
<polygon fill="#e98693" stroke="black" points="430.37,-182 369.63,-182 369.63,-146 430.37,-146 430.37,-182"/>
<text text-anchor="middle" x="400" y="-160.85" font-family="Arial" font-size="14.00" fill="#1a1919">18 End</text>
</g>
<!-- node15&#45;&gt;node18 -->
<g id="edge16" class="edge">
<title>node15&#45;&gt;node18</title>
<path fill="none" stroke="#da2d4f" stroke-width="2" d="M308.74,-218.99C324.8,-209.49 345.01,-197.54 362.32,-187.29"/>
<polygon fill="#da2d4f" stroke="#da2d4f" stroke-width="2" points="364.25,-190.22 371.08,-182.11 360.69,-184.19 364.25,-190.22"/>
</g>
<!-- node19 -->
<g id="node13" class="node">
<title>node19</title>
<polygon fill="#e98693" stroke="black" points="498.64,-109 423.36,-109 423.36,-73 498.64,-73 498.64,-109"/>
<text text-anchor="middle" x="461" y="-87.85" font-family="Arial" font-size="14.00" fill="#1a1919">19 Merge</text>
</g>
<!-- node18&#45;&gt;node19 -->
<g id="edge17" class="edge">
<title>node18&#45;&gt;node19</title>
<path fill="none" stroke="#da2d4f" stroke-width="2" d="M414.77,-145.81C422.26,-137.09 431.5,-126.34 439.74,-116.75"/>
<polygon fill="#da2d4f" stroke="#da2d4f" stroke-width="2" points="442.51,-118.89 446.37,-109.03 437.2,-114.33 442.51,-118.89"/>
</g>
<!-- node22 -->
<g id="node15" class="node">
<title>node22</title>
<polygon fill="#e98693" stroke="black" points="499.98,-36 422.02,-36 422.02,0 499.98,0 499.98,-36"/>
<text text-anchor="middle" x="461" y="-14.85" font-family="Arial" font-size="14.00" fill="#1a1919">22 Return</text>
</g>
<!-- node19&#45;&gt;node22 -->
<g id="edge19" class="edge">
<title>node19&#45;&gt;node22</title>
<path fill="none" stroke="#da2d4f" stroke-width="2" d="M461,-72.81C461,-64.79 461,-55.05 461,-46.07"/>
<polygon fill="#da2d4f" stroke="#da2d4f" stroke-width="2" points="464.5,-46.03 461,-36.03 457.5,-46.03 464.5,-46.03"/>
</g>
<!-- node20&#45;&gt;node19 -->
<g id="edge18" class="edge">
<title>node20&#45;&gt;node19</title>
<path fill="none" stroke="#da2d4f" stroke-width="2" d="M490,-537.29C490,-518.1 490,-485.93 490,-458.25 490,-458.25 490,-458.25 490,-163 490,-147.25 483.81,-130.9 477.15,-117.86"/>
<polygon fill="#da2d4f" stroke="#da2d4f" stroke-width="2" points="480.17,-116.1 472.3,-109.01 474.03,-119.46 480.17,-116.1"/>
</g>
</g>
</svg>
