<?xml version="1.0" encoding="UTF-8" standalone="no"?>
<!DOCTYPE svg PUBLIC "-//W3C//DTD SVG 1.1//EN"
 "http://www.w3.org/Graphics/SVG/1.1/DTD/svg11.dtd">
<!-- Generated by graphviz version 2.44.0 (20200408.0750)
 -->
<!-- Title: G Pages: 1 -->
<svg width="268pt" height="299pt"
 viewBox="0.00 0.00 268.00 299.00" xmlns="http://www.w3.org/2000/svg" xmlns:xlink="http://www.w3.org/1999/xlink">
<g id="graph0" class="graph" transform="scale(1 1) rotate(0) translate(4 295)">
<title>G</title>
<!-- node0 -->
<g id="node1" class="node">
<title>node0</title>
<polygon fill="#e98693" stroke="black" points="56,-123 0,-123 0,-87 56,-87 56,-123"/>
<text text-anchor="middle" x="28" y="-101.3" font-family="Arial" font-size="14.00" fill="#1a1919">0 Start</text>
</g>
<!-- node8 -->
<g id="node4" class="node">
<title>node8</title>
<polygon fill="#e98693" stroke="black" points="103,-36 35,-36 35,0 103,0 103,-36"/>
<text text-anchor="middle" x="69" y="-14.3" font-family="Arial" font-size="14.00" fill="#1a1919">8 Return</text>
</g>
<!-- node0&#45;&gt;node8 -->
<g id="edge1" class="edge">
<title>node0&#45;&gt;node8</title>
<path fill="none" stroke="#da2d4f" stroke-width="2" d="M36.3,-86.8C42.02,-74.93 49.74,-58.93 56.24,-45.45"/>
<polygon fill="#da2d4f" stroke="#da2d4f" stroke-width="2" points="59.52,-46.7 60.72,-36.18 53.22,-43.66 59.52,-46.7"/>
</g>
<!-- node4 -->
<g id="node2" class="node">
<title>node4</title>
<polygon fill="#3cb4a4" stroke="black" points="83,-210 49.82,-192 83,-174 116.18,-192 83,-210"/>
<text text-anchor="middle" x="83" y="-188.3" font-family="Arial" font-size="14.00" fill="#1a1919">4 &lt;</text>
</g>
<!-- node7 -->
<g id="node3" class="node">
<title>node7</title>
<polygon fill="#3cb4a4" stroke="black" points="161,-123 73.86,-105 161,-87 248.14,-105 161,-123"/>
<text text-anchor="middle" x="161" y="-101.3" font-family="Arial" font-size="14.00" fill="#1a1919">7 Conditional</text>
</g>
<!-- node4&#45;&gt;node7 -->
<g id="edge4" class="edge">
<title>node4&#45;&gt;node7</title>
<path fill="none" stroke="#3cb4a4" d="M93.52,-179.54C105.6,-166.37 125.69,-144.48 140.82,-127.99"/>
<polygon fill="#3cb4a4" stroke="#3cb4a4" points="143.6,-130.13 147.79,-120.4 138.45,-125.4 143.6,-130.13"/>
<text text-anchor="middle" x="130" y="-144.8" font-family="arial" font-size="14.00" fill="#3cb4a4">?</text>
</g>
<!-- node7&#45;&gt;node8 -->
<g id="edge7" class="edge">
<title>node7&#45;&gt;node8</title>
<path fill="none" stroke="#3cb4a4" d="M145.81,-89.96C132.12,-77.32 111.71,-58.46 95.36,-43.36"/>
<polygon fill="#3cb4a4" stroke="#3cb4a4" points="97.43,-40.51 87.71,-36.29 92.68,-45.65 97.43,-40.51"/>
<text text-anchor="middle" x="156" y="-57.8" font-family="arial" font-size="14.00" fill="#3cb4a4">result [0 &#45; 1]</text>
</g>
<!-- inline2x4 -->
<g id="node5" class="node">
<title>inline2x4</title>
<ellipse fill="#d7ede7" stroke="black" cx="47" cy="-273" rx="27" ry="18"/>
<text text-anchor="middle" x="47" y="-271.1" font-family="Arial" font-size="8.00" fill="#1a1919">2 P(1)</text>
</g>
<!-- inline2x4&#45;&gt;node4 -->
<g id="edge2" class="edge">
<title>inline2x4&#45;&gt;node4</title>
<path fill="none" stroke="#3cb4a4" d="M54.46,-255.63C61.05,-241.17 70.55,-220.32 76.75,-206.72"/>
<text text-anchor="middle" x="69" y="-230.6" font-family="arial" font-size="8.00" fill="#3cb4a4">x</text>
</g>
<!-- inline1x4 -->
<g id="node6" class="node">
<title>inline1x4</title>
<ellipse fill="#d7ede7" stroke="black" cx="119" cy="-273" rx="27" ry="18"/>
<text text-anchor="middle" x="119" y="-271.1" font-family="Arial" font-size="8.00" fill="#1a1919">1 P(0)</text>
</g>
<!-- inline1x4&#45;&gt;node4 -->
<g id="edge3" class="edge">
<title>inline1x4&#45;&gt;node4</title>
<path fill="none" stroke="#3cb4a4" d="M111.54,-255.63C104.95,-241.17 95.45,-220.32 89.25,-206.72"/>
<text text-anchor="middle" x="104" y="-230.6" font-family="arial" font-size="8.00" fill="#3cb4a4">y</text>
</g>
<!-- inline5x7 -->
<g id="node7" class="node">
<title>inline5x7</title>
<ellipse fill="#d7ede7" stroke="black" cx="161" cy="-192" rx="27" ry="18"/>
<text text-anchor="middle" x="161" y="-190.1" font-family="Arial" font-size="8.00" fill="#1a1919">5 C(0)</text>
</g>
<!-- inline5x7&#45;&gt;node7 -->
<g id="edge5" class="edge">
<title>inline5x7&#45;&gt;node7</title>
<path fill="none" stroke="#3cb4a4" d="M161,-173.8C161,-159.05 161,-137.92 161,-123.18"/>
<text text-anchor="middle" x="178" y="-146.6" font-family="arial" font-size="8.00" fill="#3cb4a4">trueValue</text>
</g>
<!-- inline6x7 -->
<g id="node8" class="node">
<title>inline6x7</title>
<ellipse fill="#d7ede7" stroke="black" cx="233" cy="-192" rx="27" ry="18"/>
<text text-anchor="middle" x="233" y="-190.1" font-family="Arial" font-size="8.00" fill="#1a1919">6 C(1)</text>
</g>
<!-- inline6x7&#45;&gt;node7 -->
<g id="edge6" class="edge">
<title>inline6x7&#45;&gt;node7</title>
<path fill="none" stroke="#3cb4a4" d="M223.45,-175.01C217.07,-164.85 208.19,-151.65 199,-141 192.56,-133.53 184.63,-126.02 177.69,-119.88"/>
<text text-anchor="middle" x="228.5" y="-146.6" font-family="arial" font-size="8.00" fill="#3cb4a4">falseValue</text>
</g>
</g>
</svg>
