<?xml version="1.0" encoding="UTF-8" standalone="no"?>
<!DOCTYPE svg PUBLIC "-//W3C//DTD SVG 1.1//EN"
 "http://www.w3.org/Graphics/SVG/1.1/DTD/svg11.dtd">
<!-- Generated by graphviz version 2.43.0 (0)
 -->
<!-- Title: G Pages: 1 -->
<svg width="195pt" height="389pt"
 viewBox="0.00 0.00 194.62 389.50" xmlns="http://www.w3.org/2000/svg" xmlns:xlink="http://www.w3.org/1999/xlink">
<g id="graph0" class="graph" transform="scale(1 1) rotate(0) translate(4 385.5)">
<title>G</title>
' points="-4,4 -4,-385.5 190.62,-385.5 190.62,4 -4,4"/>
<!-- node0 -->
<g id="node1" class="node">
<title>node0</title>
<polygon fill="#e98693" stroke="black" points="57.36,-124.1 -0.12,-124.1 -0.12,-88.1 57.36,-88.1 57.36,-124.1"/>
<text text-anchor="middle" x="28.62" y="-102.95" font-family="Arial" font-size="14.00" fill="#1a1919">0 Start</text>
</g>
<!-- node9 -->
<g id="node5" class="node">
<title>node9</title>
<polygon fill="#e98693" stroke="black" points="79.32,-36 9.92,-36 9.92,0 79.32,0 79.32,-36"/>
<text text-anchor="middle" x="44.62" y="-14.85" font-family="Arial" font-size="14.00" fill="#1a1919">9 Return</text>
</g>
<!-- node0&#45;&gt;node9 -->
<g id="edge1" class="edge">
<title>node0&#45;&gt;node9</title>
<path fill="none" stroke="#da2d4f" stroke-width="2" d="M31.78,-88.09C34,-76.14 37.02,-59.9 39.57,-46.17"/>
<polygon fill="#da2d4f" stroke="#da2d4f" stroke-width="2" points="43.03,-46.74 41.41,-36.27 36.14,-45.46 43.03,-46.74"/>
</g>
<!-- node4 -->
<g id="node2" class="node">
<title>node4</title>
<polygon fill="#3cb4a4" stroke="black" points="150.62,-300.3 96.62,-300.3 96.62,-264.3 150.62,-264.3 150.62,-300.3"/>
<text text-anchor="middle" x="123.62" y="-279.15" font-family="Arial" font-size="14.00" fill="#1a1919">4 +</text>
</g>
<!-- node7 -->
<g id="node3" class="node">
<title>node7</title>
<polygon fill="#3cb4a4" stroke="black" points="87.62,-212.2 33.62,-212.2 33.62,-176.2 87.62,-176.2 87.62,-212.2"/>
<text text-anchor="middle" x="60.62" y="-191.05" font-family="Arial" font-size="14.00" fill="#1a1919">7 &lt;&lt;</text>
</g>
<!-- node4&#45;&gt;node7 -->
<g id="edge4" class="edge">
<title>node4&#45;&gt;node7</title>
<path fill="none" stroke="#3cb4a4" d="M111.17,-264.29C102.09,-251.87 89.61,-234.82 79.33,-220.76"/>
<polygon fill="#3cb4a4" stroke="#3cb4a4" points="81.99,-218.47 73.26,-212.47 76.34,-222.6 81.99,-218.47"/>
<text text-anchor="middle" x="102.12" y="-235.1" font-family="arial" font-size="14.00" fill="#3cb4a4">x</text>
</g>
<!-- node8 -->
<g id="node4" class="node">
<title>node8</title>
<polygon fill="#3cb4a4" stroke="black" points="129.62,-124.1 75.62,-124.1 75.62,-88.1 129.62,-88.1 129.62,-124.1"/>
<text text-anchor="middle" x="102.62" y="-102.95" font-family="Arial" font-size="14.00" fill="#1a1919">8 +</text>
</g>
<!-- node4&#45;&gt;node8 -->
<g id="edge6" class="edge">
<title>node4&#45;&gt;node8</title>
<path fill="none" stroke="#3cb4a4" d="M121.57,-264.28C117.93,-234.1 110.32,-170.96 105.93,-134.56"/>
<polygon fill="#3cb4a4" stroke="#3cb4a4" points="109.35,-133.7 104.68,-124.19 102.4,-134.53 109.35,-133.7"/>
<text text-anchor="middle" x="119.12" y="-191.05" font-family="arial" font-size="14.00" fill="#3cb4a4">x</text>
</g>
<!-- node7&#45;&gt;node8 -->
<g id="edge7" class="edge">
<title>node7&#45;&gt;node8</title>
<path fill="none" stroke="#3cb4a4" d="M68.92,-176.19C74.86,-164 82.98,-147.36 89.76,-133.46"/>
<polygon fill="#3cb4a4" stroke="#3cb4a4" points="92.96,-134.89 94.2,-124.37 86.67,-131.82 92.96,-134.89"/>
<text text-anchor="middle" x="89.12" y="-147" font-family="arial" font-size="14.00" fill="#3cb4a4">y</text>
</g>
<!-- node8&#45;&gt;node9 -->
<g id="edge8" class="edge">
<title>node8&#45;&gt;node9</title>
<path fill="none" stroke="#3cb4a4" d="M91.16,-88.09C82.8,-75.67 71.31,-58.62 61.84,-44.57"/>
<polygon fill="#3cb4a4" stroke="#3cb4a4" points="64.74,-42.61 56.25,-36.27 58.94,-46.52 64.74,-42.61"/>
<text text-anchor="middle" x="96.74" y="-58.9" font-family="arial" font-size="14.00" fill="#3cb4a4">result</text>
</g>
<!-- inline1x4 -->
<g id="node6" class="node">
<title>inline1x4</title>
<ellipse fill="#d7ede7" stroke="black" cx="87.62" cy="-363.5" rx="27" ry="18"/>
<text text-anchor="middle" x="87.62" y="-361.69" font-family="Arial" font-size="8.00" fill="#1a1919">1 P(0)</text>
</g>
<!-- inline1x4&#45;&gt;node4 -->
<g id="edge2" class="edge">
<title>inline1x4&#45;&gt;node4</title>
<path fill="none" stroke="#3cb4a4" d="M95.08,-346.08C101.13,-332.76 109.65,-314.04 115.8,-300.51"/>
<text text-anchor="middle" x="109.62" y="-321.1" font-family="arial" font-size="8.00" fill="#3cb4a4">x</text>
</g>
<!-- inline2x4 -->
<g id="node7" class="node">
<title>inline2x4</title>
<ellipse fill="#d7ede7" stroke="black" cx="159.62" cy="-363.5" rx="27" ry="18"/>
<text text-anchor="middle" x="159.62" y="-361.69" font-family="Arial" font-size="8.00" fill="#1a1919">2 P(1)</text>
</g>
<!-- inline2x4&#45;&gt;node4 -->
<g id="edge3" class="edge">
<title>inline2x4&#45;&gt;node4</title>
<path fill="none" stroke="#3cb4a4" d="M152.16,-346.08C146.11,-332.76 137.59,-314.04 131.44,-300.51"/>
<text text-anchor="middle" x="144.62" y="-321.1" font-family="arial" font-size="8.00" fill="#3cb4a4">y</text>
</g>
<!-- inline6x7 -->
<g id="node8" class="node">
<title>inline6x7</title>
<ellipse fill="#d7ede7" stroke="black" cx="51.62" cy="-282.3" rx="27" ry="18"/>
<text text-anchor="middle" x="51.62" y="-280.5" font-family="Arial" font-size="8.00" fill="#1a1919">6 C(1)</text>
</g>
<!-- inline6x7&#45;&gt;node7 -->
<g id="edge5" class="edge">
<title>inline6x7&#45;&gt;node7</title>
<path fill="none" stroke="#3cb4a4" d="M53.4,-264.29C54.97,-249.29 57.24,-227.54 58.82,-212.47"/>
<text text-anchor="middle" x="59.62" y="-236.45" font-family="arial" font-size="8.00" fill="#3cb4a4">y</text>
</g>
</g>
</svg>
