<?xml version="1.0" encoding="UTF-8" standalone="no"?>
<!DOCTYPE svg PUBLIC "-//W3C//DTD SVG 1.1//EN"
 "http://www.w3.org/Graphics/SVG/1.1/DTD/svg11.dtd">
<!-- Generated by graphviz version 2.43.0 (0)
 -->
<!-- Title: G Pages: 1 -->
<svg width="401pt" height="478pt"
 viewBox="0.00 0.00 401.29 477.59" xmlns="http://www.w3.org/2000/svg" xmlns:xlink="http://www.w3.org/1999/xlink">
<g id="graph0" class="graph" transform="scale(1 1) rotate(0) translate(4 473.59)">
<title>G</title>
' points="-4,4 -4,-473.59 397.29,-473.59 397.29,4 -4,4"/>
<!-- node0 -->
<g id="node1" class="node">
<title>node0</title>
<polygon fill="#e98693" stroke="black" points="302.03,-469.59 244.55,-469.59 244.55,-433.59 302.03,-433.59 302.03,-469.59"/>
<text text-anchor="middle" x="273.29" y="-448.44" font-family="Arial" font-size="14.00" fill="#1a1919">0 Start</text>
</g>
<!-- node13 -->
<g id="node6" class="node">
<title>node13</title>
<polygon fill="#da2d4f" stroke="black" points="224.82,-381.5 159.76,-381.5 159.76,-345.5 224.82,-345.5 224.82,-381.5"/>
<text text-anchor="middle" x="192.29" y="-360.34" font-family="Arial" font-size="14.00" fill="#ffffff">13 Alloc</text>
</g>
<!-- node0&#45;&gt;node13 -->
<g id="edge1" class="edge">
<title>node0&#45;&gt;node13</title>
<path fill="none" stroke="#da2d4f" stroke-width="2" d="M257.29,-433.58C245.38,-420.93 228.96,-403.47 215.6,-389.27"/>
<polygon fill="#da2d4f" stroke="#da2d4f" stroke-width="2" points="217.94,-386.65 208.54,-381.76 212.84,-391.45 217.94,-386.65"/>
</g>
<!-- node8 -->
<g id="node2" class="node">
<title>node8</title>
<polygon fill="#da2d4f" stroke="black" points="321.3,-205.3 63.28,-205.3 63.28,-169.3 321.3,-169.3 321.3,-205.3"/>
<text text-anchor="middle" x="192.29" y="-184.15" font-family="Arial" font-size="14.00" fill="#ffffff">8 StoreField JavaExamples.objectField</text>
</g>
<!-- node10 -->
<g id="node3" class="node">
<title>node10</title>
<polygon fill="#da2d4f" stroke="black" points="250.72,-124.1 133.86,-124.1 133.86,-88.1 250.72,-88.1 250.72,-124.1"/>
<text text-anchor="middle" x="192.29" y="-102.95" font-family="Arial" font-size="14.00" fill="#ffffff">10 LoadIndexed</text>
</g>
<!-- node8&#45;&gt;node10 -->
<g id="edge3" class="edge">
<title>node8&#45;&gt;node10</title>
<path fill="none" stroke="#da2d4f" stroke-width="2" d="M192.29,-169.11C192.29,-158.94 192.29,-145.83 192.29,-134.28"/>
<polygon fill="#da2d4f" stroke="#da2d4f" stroke-width="2" points="195.79,-134.25 192.29,-124.25 188.79,-134.25 195.79,-134.25"/>
</g>
<!-- node11 -->
<g id="node4" class="node">
<title>node11</title>
<polygon fill="#e98693" stroke="black" points="230.74,-36 153.85,-36 153.85,0 230.74,0 230.74,-36"/>
<text text-anchor="middle" x="192.29" y="-14.85" font-family="Arial" font-size="14.00" fill="#1a1919">11 Return</text>
</g>
<!-- node10&#45;&gt;node11 -->
<g id="edge6" class="edge">
<title>node10&#45;&gt;node11</title>
<path fill="none" stroke="#da2d4f" stroke-width="2" d="M191.12,-88.02C190.78,-82.32 190.46,-75.94 190.29,-70.1 190.09,-62.95 190.09,-61.15 190.29,-54 190.36,-51.44 190.47,-48.79 190.59,-46.13"/>
<polygon fill="#da2d4f" stroke="#da2d4f" stroke-width="2" points="194.09,-46.25 191.12,-36.08 187.1,-45.88 194.09,-46.25"/>
</g>
<!-- node10&#45;&gt;node11 -->
<g id="edge7" class="edge">
<title>node10&#45;&gt;node11</title>
<path fill="none" stroke="#3cb4a4" d="M192.29,-88.09C192.29,-76.26 192.29,-60.22 192.29,-46.57"/>
<polygon fill="#3cb4a4" stroke="#3cb4a4" points="195.79,-46.27 192.29,-36.27 188.79,-46.27 195.79,-46.27"/>
<text text-anchor="middle" x="209.41" y="-58.9" font-family="arial" font-size="14.00" fill="#3cb4a4">result</text>
</g>
<!-- node12 -->
<g id="node5" class="node">
<title>node12</title>
<polygon fill="#343d46" stroke="black" points="142.37,-469.59 0.21,-469.59 0.21,-433.59 142.37,-433.59 142.37,-469.59"/>
<text text-anchor="middle" x="71.29" y="-448.44" font-family="Arial" font-size="14.00" fill="#ffffff">12 VirtualArray int[1]</text>
</g>
<!-- node12&#45;&gt;node13 -->
<g id="edge8" class="edge">
<title>node12&#45;&gt;node13</title>
<path fill="none" stroke="#3cb4a4" d="M79.72,-433.49C85.85,-422.53 95.07,-408.68 106.48,-399.5 113.73,-393.67 131.93,-385.97 149.71,-379.27"/>
<polygon fill="#3cb4a4" stroke="#3cb4a4" points="151.3,-382.42 159.47,-375.67 148.88,-375.85 151.3,-382.42"/>
<text text-anchor="middle" x="149.69" y="-404.39" font-family="arial" font-size="14.00" fill="#3cb4a4">virtualObjects</text>
</g>
<!-- node14 -->
<g id="node7" class="node">
<title>node14</title>
<polygon fill="#343d46" stroke="black" points="141.53,-293.4 9.05,-293.4 9.05,-257.4 141.53,-257.4 141.53,-293.4"/>
<text text-anchor="middle" x="75.29" y="-272.25" font-family="Arial" font-size="14.00" fill="#ffffff">14 AllocatedObject</text>
</g>
<!-- node12&#45;&gt;node14 -->
<g id="edge11" class="edge">
<title>node12&#45;&gt;node14</title>
<path fill="none" stroke="#3cb4a4" d="M71.33,-433.48C71.42,-412.68 71.68,-376.51 72.48,-345.5 72.84,-331.62 73.45,-316.18 74.01,-303.42"/>
<polygon fill="#3cb4a4" stroke="#3cb4a4" points="77.51,-303.58 74.46,-293.43 70.51,-303.26 77.51,-303.58"/>
<text text-anchor="middle" x="112.19" y="-360.34" font-family="arial" font-size="14.00" fill="#3cb4a4">virtualObject</text>
</g>
<!-- node13&#45;&gt;node8 -->
<g id="edge10" class="edge">
<title>node13&#45;&gt;node8</title>
<path fill="none" stroke="#da2d4f" stroke-width="2" d="M192.29,-345.48C192.29,-315.29 192.29,-252.16 192.29,-215.76"/>
<polygon fill="#da2d4f" stroke="#da2d4f" stroke-width="2" points="195.79,-215.39 192.29,-205.39 188.79,-215.39 195.79,-215.39"/>
</g>
<!-- node13&#45;&gt;node14 -->
<g id="edge12" class="edge">
<title>node13&#45;&gt;node14</title>
<path fill="none" stroke="#3cb4a4" d="M160.91,-345.4C151.74,-340.01 141.86,-333.81 133.18,-327.5 121.89,-319.28 110.2,-309.29 100.31,-300.33"/>
<polygon fill="#3cb4a4" stroke="#3cb4a4" points="102.53,-297.62 92.81,-293.42 97.79,-302.77 102.53,-297.62"/>
<text text-anchor="middle" x="155.85" y="-316.3" font-family="arial" font-size="14.00" fill="#3cb4a4">commit</text>
</g>
<!-- node14&#45;&gt;node8 -->
<g id="edge2" class="edge">
<title>node14&#45;&gt;node8</title>
<path fill="none" stroke="#3cb4a4" d="M98.41,-257.39C116.24,-244.26 141.09,-225.97 160.75,-211.51"/>
<polygon fill="#3cb4a4" stroke="#3cb4a4" points="162.84,-214.31 168.82,-205.57 158.69,-208.68 162.84,-214.31"/>
<text text-anchor="middle" x="161.02" y="-228.2" font-family="arial" font-size="14.00" fill="#3cb4a4">value</text>
</g>
<!-- node14&#45;&gt;node10 -->
<g id="edge4" class="edge">
<title>node14&#45;&gt;node10</title>
<path fill="none" stroke="#3cb4a4" d="M55.44,-257.18C33.07,-235.64 2.27,-198.1 22.39,-169.3 45.25,-136.59 87.27,-121.02 123.8,-113.64"/>
<polygon fill="#3cb4a4" stroke="#3cb4a4" points="124.74,-117.03 133.94,-111.77 123.47,-110.15 124.74,-117.03"/>
<text text-anchor="middle" x="39.24" y="-184.15" font-family="arial" font-size="14.00" fill="#3cb4a4">array</text>
</g>
<!-- inline5x10 -->
<g id="node8" class="node">
<title>inline5x10</title>
<ellipse fill="#d7ede7" stroke="black" cx="366.29" cy="-187.3" rx="27" ry="18"/>
<text text-anchor="middle" x="366.29" y="-185.5" font-family="Arial" font-size="8.00" fill="#1a1919">5 C(0)</text>
</g>
<!-- inline5x10&#45;&gt;node10 -->
<g id="edge5" class="edge">
<title>inline5x10&#45;&gt;node10</title>
<path fill="none" stroke="#3cb4a4" d="M345,-176.17C340.17,-173.89 335.06,-171.5 330.29,-169.3 296.76,-153.83 258.47,-136.6 230.74,-124.21"/>
<text text-anchor="middle" x="297.85" y="-144.9" font-family="arial" font-size="8.00" fill="#3cb4a4">index</text>
</g>
<!-- inline1x13 -->
<g id="node9" class="node">
<title>inline1x13</title>
<ellipse fill="#d7ede7" stroke="black" cx="199.29" cy="-451.59" rx="27" ry="18"/>
<text text-anchor="middle" x="199.29" y="-449.79" font-family="Arial" font-size="8.00" fill="#1a1919">1 P(0)</text>
</g>
<!-- inline1x13&#45;&gt;node13 -->
<g id="edge9" class="edge">
<title>inline1x13&#45;&gt;node13</title>
<path fill="none" stroke="#3cb4a4" d="M197.91,-433.58C196.69,-418.59 194.92,-396.84 193.69,-381.76"/>
<text text-anchor="middle" x="208.85" y="-405.74" font-family="arial" font-size="8.00" fill="#3cb4a4">values</text>
</g>
</g>
</svg>
