<?xml version="1.0" encoding="UTF-8" standalone="no"?>
<!DOCTYPE svg PUBLIC "-//W3C//DTD SVG 1.1//EN"
 "http://www.w3.org/Graphics/SVG/1.1/DTD/svg11.dtd">
<!-- Generated by graphviz version 2.43.0 (0)
 -->
<!-- Title: G Pages: 1 -->
<svg width="326pt" height="301pt"
 viewBox="0.00 0.00 325.62 301.40" xmlns="http://www.w3.org/2000/svg" xmlns:xlink="http://www.w3.org/1999/xlink">
<g id="graph0" class="graph" transform="scale(1 1) rotate(0) translate(4 297.4)">
<title>G</title>
' points="-4,4 -4,-297.4 321.62,-297.4 321.62,4 -4,4"/>
<!-- node0 -->
<g id="node1" class="node">
<title>node0</title>
<polygon fill="#e98693" stroke="black" points="69.96,-293.4 12.48,-293.4 12.48,-257.4 69.96,-257.4 69.96,-293.4"/>
<text text-anchor="middle" x="41.22" y="-272.25" font-family="Arial" font-size="14.00" fill="#1a1919">0 Start</text>
</g>
<!-- node10 -->
<g id="node5" class="node">
<title>node10</title>
<polygon fill="#e98693" stroke="black" points="105.22,-205.3 51.22,-205.3 51.22,-169.3 105.22,-169.3 105.22,-205.3"/>
<text text-anchor="middle" x="78.22" y="-184.15" font-family="Arial" font-size="14.00" fill="#1a1919">10 If</text>
</g>
<!-- node0&#45;&gt;node10 -->
<g id="edge1" class="edge">
<title>node0&#45;&gt;node10</title>
<path fill="none" stroke="#da2d4f" stroke-width="2" d="M48.53,-257.39C53.72,-245.32 60.78,-228.88 66.72,-215.06"/>
<polygon fill="#da2d4f" stroke="#da2d4f" stroke-width="2" points="70.07,-216.14 70.8,-205.57 63.64,-213.37 70.07,-216.14"/>
</g>
<!-- node5 -->
<g id="node2" class="node">
<title>node5</title>
<polygon fill="#e98693" stroke="black" points="70.21,-117.2 6.24,-117.2 6.24,-81.2 70.21,-81.2 70.21,-117.2"/>
<text text-anchor="middle" x="38.22" y="-96.05" font-family="Arial" font-size="14.00" fill="#1a1919">5 Begin</text>
</g>
<!-- node11 -->
<g id="node6" class="node">
<title>node11</title>
<polygon fill="#e98693" stroke="black" points="76.67,-36 -0.22,-36 -0.22,0 76.67,0 76.67,-36"/>
<text text-anchor="middle" x="38.22" y="-14.85" font-family="Arial" font-size="14.00" fill="#1a1919">11 Return</text>
</g>
<!-- node5&#45;&gt;node11 -->
<g id="edge2" class="edge">
<title>node5&#45;&gt;node11</title>
<path fill="none" stroke="#da2d4f" stroke-width="2" d="M38.22,-81.01C38.22,-70.84 38.22,-57.73 38.22,-46.19"/>
<polygon fill="#da2d4f" stroke="#da2d4f" stroke-width="2" points="41.72,-46.15 38.22,-36.15 34.72,-46.15 41.72,-46.15"/>
</g>
<!-- node8 -->
<g id="node3" class="node">
<title>node8</title>
<polygon fill="#e98693" stroke="black" points="151.21,-117.2 87.24,-117.2 87.24,-81.2 151.21,-81.2 151.21,-117.2"/>
<text text-anchor="middle" x="119.22" y="-96.05" font-family="Arial" font-size="14.00" fill="#1a1919">8 Begin</text>
</g>
<!-- node12 -->
<g id="node7" class="node">
<title>node12</title>
<polygon fill="#da2d4f" stroke="black" points="245.37,-36 163.07,-36 163.07,0 245.37,0 245.37,-36"/>
<text text-anchor="middle" x="204.22" y="-14.85" font-family="Arial" font-size="14.00" fill="#ffffff">12 Unwind</text>
</g>
<!-- node8&#45;&gt;node12 -->
<g id="edge3" class="edge">
<title>node8&#45;&gt;node12</title>
<path fill="none" stroke="#da2d4f" stroke-width="2" d="M137.67,-81.01C149.58,-69.91 165.27,-55.3 178.41,-43.05"/>
<polygon fill="#da2d4f" stroke="#da2d4f" stroke-width="2" points="180.88,-45.53 185.81,-36.15 176.11,-40.41 180.88,-45.53"/>
</g>
<!-- node9 -->
<g id="node4" class="node">
<title>node9</title>
<polygon fill="#f9f9f9" stroke="black" points="142.22,-293.4 88.22,-293.4 88.22,-257.4 142.22,-257.4 142.22,-293.4"/>
<text text-anchor="middle" x="115.22" y="-272.25" font-family="Arial" font-size="14.00" fill="#1a1919">9 true</text>
</g>
<!-- node9&#45;&gt;node10 -->
<g id="edge4" class="edge">
<title>node9&#45;&gt;node10</title>
<path fill="none" stroke="#3cb4a4" d="M107.91,-257.39C102.73,-245.32 95.66,-228.88 89.72,-215.06"/>
<polygon fill="#3cb4a4" stroke="#3cb4a4" points="92.81,-213.37 85.64,-205.57 86.38,-216.14 92.81,-213.37"/>
<text text-anchor="middle" x="103.11" y="-228.2" font-family="arial" font-size="14.00" fill="#3cb4a4">?</text>
</g>
<!-- node10&#45;&gt;node5 -->
<g id="edge5" class="edge">
<title>node10&#45;&gt;node5</title>
<path fill="none" stroke="#da2d4f" stroke-width="2" d="M70.32,-169.29C64.66,-157.1 56.93,-140.46 50.47,-126.56"/>
<polygon fill="#da2d4f" stroke="#da2d4f" stroke-width="2" points="53.63,-125.06 46.24,-117.47 47.28,-128.01 53.63,-125.06"/>
<text text-anchor="middle" x="66.5" y="-140.1" font-family="arial" font-size="14.00" fill="#da2d4f">T</text>
</g>
<!-- node10&#45;&gt;node8 -->
<g id="edge6" class="edge">
<title>node10&#45;&gt;node8</title>
<path fill="none" stroke="#da2d4f" stroke-width="2" d="M86.32,-169.29C92.12,-157.1 100.05,-140.46 106.67,-126.56"/>
<polygon fill="#da2d4f" stroke="#da2d4f" stroke-width="2" points="109.86,-128 111,-117.47 103.54,-124.99 109.86,-128"/>
<text text-anchor="middle" x="106.5" y="-140.1" font-family="arial" font-size="14.00" fill="#da2d4f">F</text>
</g>
<!-- inline2x12 -->
<g id="node8" class="node">
<title>inline2x12</title>
<ellipse fill="#d7ede7" stroke="black" cx="243.22" cy="-99.2" rx="74.3" ry="18"/>
<text text-anchor="middle" x="243.22" y="-97.4" font-family="Arial" font-size="8.00" fill="#1a1919">2 C(instance:RuntimeException)</text>
</g>
<!-- inline2x12&#45;&gt;node12 -->
<g id="edge7" class="edge">
<title>inline2x12&#45;&gt;node12</title>
<path fill="none" stroke="#3cb4a4" d="M234.76,-81.01C228.22,-67.73 219.21,-49.43 212.67,-36.15"/>
<text text-anchor="middle" x="241.34" y="-56.8" font-family="arial" font-size="8.00" fill="#3cb4a4">exception</text>
</g>
</g>
</svg>
