<?xml version="1.0" encoding="UTF-8" standalone="no"?>
<!DOCTYPE svg PUBLIC "-//W3C//DTD SVG 1.1//EN"
 "http://www.w3.org/Graphics/SVG/1.1/DTD/svg11.dtd">
<!-- Generated by graphviz version 2.43.0 (0)
 -->
<!-- Title: G Pages: 1 -->
<svg width="420pt" height="366pt"
 viewBox="0.00 0.00 420.45 366.20" xmlns="http://www.w3.org/2000/svg" xmlns:xlink="http://www.w3.org/1999/xlink">
<g id="graph0" class="graph" transform="scale(1 1) rotate(0) translate(4 362.2)">
<title>G</title>
' points="-4,4 -4,-362.2 416.45,-362.2 416.45,4 -4,4"/>
<!-- node0 -->
<g id="node1" class="node">
<title>node0</title>
<polygon fill="#e98693" stroke="black" points="155.41,-358.2 97.92,-358.2 97.92,-322.2 155.41,-322.2 155.41,-358.2"/>
<text text-anchor="middle" x="126.67" y="-337.05" font-family="Arial" font-size="14.00" fill="#1a1919">0 Start</text>
</g>
<!-- node3 -->
<g id="node2" class="node">
<title>node3</title>
<polygon fill="#da2d4f" stroke="black" points="253.5,-285.2 -0.17,-285.2 -0.17,-249.2 253.5,-249.2 253.5,-285.2"/>
<text text-anchor="middle" x="126.67" y="-264.05" font-family="Arial" font-size="14.00" fill="#ffffff">3 New JavaExamples$ExampleObject</text>
</g>
<!-- node0&#45;&gt;node3 -->
<g id="edge1" class="edge">
<title>node0&#45;&gt;node3</title>
<path fill="none" stroke="#da2d4f" stroke-width="2" d="M126.67,-322.01C126.67,-313.99 126.67,-304.24 126.67,-295.27"/>
<polygon fill="#da2d4f" stroke="#da2d4f" stroke-width="2" points="130.17,-295.23 126.67,-285.23 123.17,-295.23 130.17,-295.23"/>
</g>
<!-- node4 -->
<g id="node3" class="node">
<title>node4</title>
<polygon fill="#f9f9f9" stroke="black" points="337.57,-197.1 199.77,-197.1 199.77,-161.1 337.57,-161.1 337.57,-197.1"/>
<text text-anchor="middle" x="268.67" y="-175.95" font-family="Arial" font-size="14.00" fill="#1a1919">4 MethodCallTarget</text>
</g>
<!-- node3&#45;&gt;node4 -->
<g id="edge3" class="edge">
<title>node3&#45;&gt;node4</title>
<path fill="none" stroke="#3cb4a4" d="M154.72,-249.19C176.65,-235.89 207.34,-217.28 231.34,-202.73"/>
<polygon fill="#3cb4a4" stroke="#3cb4a4" points="233.45,-205.55 240.18,-197.37 229.82,-199.56 233.45,-205.55"/>
<text text-anchor="middle" x="228.56" y="-220" font-family="arial" font-size="14.00" fill="#3cb4a4">arg[0]</text>
</g>
<!-- node5 -->
<g id="node4" class="node">
<title>node5</title>
<polygon fill="#da2d4f" stroke="black" points="412.24,-109 125.09,-109 125.09,-73 412.24,-73 412.24,-109"/>
<text text-anchor="middle" x="268.67" y="-87.85" font-family="Arial" font-size="14.00" fill="#ffffff">5 Call JavaExamples$ExampleObject.&lt;init&gt;</text>
</g>
<!-- node3&#45;&gt;node5 -->
<g id="edge2" class="edge">
<title>node3&#45;&gt;node5</title>
<path fill="none" stroke="#da2d4f" stroke-width="2" d="M135.01,-249.16C146.06,-227.48 166.96,-189.45 190.67,-161.1 204.57,-144.47 222.54,-128.27 237.73,-115.74"/>
<polygon fill="#da2d4f" stroke="#da2d4f" stroke-width="2" points="240.27,-118.19 245.84,-109.18 235.87,-112.75 240.27,-118.19"/>
</g>
<!-- node7 -->
<g id="node5" class="node">
<title>node7</title>
<polygon fill="#e98693" stroke="black" points="143.36,-36 73.97,-36 73.97,0 143.36,0 143.36,-36"/>
<text text-anchor="middle" x="108.67" y="-14.85" font-family="Arial" font-size="14.00" fill="#1a1919">7 Return</text>
</g>
<!-- node3&#45;&gt;node7 -->
<g id="edge7" class="edge">
<title>node3&#45;&gt;node7</title>
<path fill="none" stroke="#3cb4a4" d="M125.4,-248.81C122.31,-206.43 114.38,-97.49 110.65,-46.32"/>
<polygon fill="#3cb4a4" stroke="#3cb4a4" points="114.12,-45.75 109.91,-36.04 107.14,-46.26 114.12,-45.75"/>
<text text-anchor="middle" x="134.78" y="-131.9" font-family="arial" font-size="14.00" fill="#3cb4a4">result</text>
</g>
<!-- node4&#45;&gt;node5 -->
<g id="edge5" class="edge">
<title>node4&#45;&gt;node5</title>
<path fill="none" stroke="#343d46" stroke-dasharray="5,2" d="M268.67,-150.82C268.67,-137.21 268.67,-121.16 268.67,-109.27"/>
<polygon fill="#343d46" stroke="#343d46" points="265.17,-151.09 268.67,-161.09 272.17,-151.09 265.17,-151.09"/>
</g>
<!-- node5&#45;&gt;node7 -->
<g id="edge6" class="edge">
<title>node5&#45;&gt;node7</title>
<path fill="none" stroke="#da2d4f" stroke-width="2" d="M230.34,-72.99C207,-62.64 177.09,-49.36 152.77,-38.57"/>
<polygon fill="#da2d4f" stroke="#da2d4f" stroke-width="2" points="153.96,-35.27 143.4,-34.41 151.12,-41.67 153.96,-35.27"/>
</g>
<!-- inline1x4 -->
<g id="node6" class="node">
<title>inline1x4</title>
<ellipse fill="#d7ede7" stroke="black" cx="298.67" cy="-267.2" rx="27" ry="18"/>
<text text-anchor="middle" x="298.67" y="-265.4" font-family="Arial" font-size="8.00" fill="#1a1919">1 P(0)</text>
</g>
<!-- inline1x4&#45;&gt;node4 -->
<g id="edge4" class="edge">
<title>inline1x4&#45;&gt;node4</title>
<path fill="none" stroke="#3cb4a4" d="M292.88,-249.6C287.64,-234.55 279.94,-212.45 274.64,-197.24"/>
<text text-anchor="middle" x="296.89" y="-221.35" font-family="arial" font-size="8.00" fill="#3cb4a4">arg[1]</text>
</g>
</g>
</svg>
