<?xml version="1.0" encoding="UTF-8" standalone="no"?>
<!DOCTYPE svg PUBLIC "-//W3C//DTD SVG 1.1//EN"
 "http://www.w3.org/Graphics/SVG/1.1/DTD/svg11.dtd">
<!-- Generated by graphviz version 2.44.0 (20200408.0750)
 -->
<!-- Title: G Pages: 1 -->
<svg width="323pt" height="299pt"
 viewBox="0.00 0.00 322.81 299.00" xmlns="http://www.w3.org/2000/svg" xmlns:xlink="http://www.w3.org/1999/xlink">
<g id="graph0" class="graph" transform="scale(1 1) rotate(0) translate(4 295)">
<title>G</title>
<!-- node0 -->
<g id="node1" class="node">
<title>node0</title>
<polygon fill="#e98693" stroke="black" points="69.5,-291 13.5,-291 13.5,-255 69.5,-255 69.5,-291"/>
<text text-anchor="middle" x="41.5" y="-269.3" font-family="Arial" font-size="14.00" fill="#1a1919">0 Start</text>
</g>
<!-- node10 -->
<g id="node5" class="node">
<title>node10</title>
<polygon fill="#e98693" stroke="black" points="104.5,-204 50.5,-204 50.5,-168 104.5,-168 104.5,-204"/>
<text text-anchor="middle" x="77.5" y="-182.3" font-family="Arial" font-size="14.00" fill="#1a1919">10 If</text>
</g>
<!-- node0&#45;&gt;node10 -->
<g id="edge1" class="edge">
<title>node0&#45;&gt;node10</title>
<path fill="none" stroke="#da2d4f" stroke-width="2" d="M48.79,-254.8C53.81,-242.93 60.59,-226.93 66.3,-213.45"/>
<polygon fill="#da2d4f" stroke="#da2d4f" stroke-width="2" points="69.55,-214.75 70.23,-204.18 63.1,-212.02 69.55,-214.75"/>
</g>
<!-- node5 -->
<g id="node2" class="node">
<title>node5</title>
<polygon fill="#e98693" stroke="black" points="68.5,-117 6.5,-117 6.5,-81 68.5,-81 68.5,-117"/>
<text text-anchor="middle" x="37.5" y="-95.3" font-family="Arial" font-size="14.00" fill="#1a1919">5 Begin</text>
</g>
<!-- node11 -->
<g id="node6" class="node">
<title>node11</title>
<polygon fill="#e98693" stroke="black" points="75,-36 0,-36 0,0 75,0 75,-36"/>
<text text-anchor="middle" x="37.5" y="-14.3" font-family="Arial" font-size="14.00" fill="#1a1919">11 Return</text>
</g>
<!-- node5&#45;&gt;node11 -->
<g id="edge2" class="edge">
<title>node5&#45;&gt;node11</title>
<path fill="none" stroke="#da2d4f" stroke-width="2" d="M37.5,-80.86C37.5,-70.71 37.5,-57.63 37.5,-46.12"/>
<polygon fill="#da2d4f" stroke="#da2d4f" stroke-width="2" points="41,-46.11 37.5,-36.11 34,-46.11 41,-46.11"/>
</g>
<!-- node8 -->
<g id="node3" class="node">
<title>node8</title>
<polygon fill="#e98693" stroke="black" points="148.5,-117 86.5,-117 86.5,-81 148.5,-81 148.5,-117"/>
<text text-anchor="middle" x="117.5" y="-95.3" font-family="Arial" font-size="14.00" fill="#1a1919">8 Begin</text>
</g>
<!-- node12 -->
<g id="node7" class="node">
<title>node12</title>
<polygon fill="#da2d4f" stroke="black" points="241.5,-36 161.5,-36 161.5,0 241.5,0 241.5,-36"/>
<text text-anchor="middle" x="201.5" y="-14.3" font-family="Arial" font-size="14.00" fill="#ffffff">12 Unwind</text>
</g>
<!-- node8&#45;&gt;node12 -->
<g id="edge3" class="edge">
<title>node8&#45;&gt;node12</title>
<path fill="none" stroke="#da2d4f" stroke-width="2" d="M135.73,-80.86C147.5,-69.78 163,-55.21 176,-42.99"/>
<polygon fill="#da2d4f" stroke="#da2d4f" stroke-width="2" points="178.42,-45.51 183.31,-36.11 173.63,-40.41 178.42,-45.51"/>
</g>
<!-- node9 -->
<g id="node4" class="node">
<title>node9</title>
<polygon fill="#f9f9f9" stroke="black" points="141.5,-291 87.5,-291 87.5,-255 141.5,-255 141.5,-291"/>
<text text-anchor="middle" x="114.5" y="-269.3" font-family="Arial" font-size="14.00" fill="#1a1919">9 true</text>
</g>
<!-- node9&#45;&gt;node10 -->
<g id="edge4" class="edge">
<title>node9&#45;&gt;node10</title>
<path fill="none" stroke="#3cb4a4" d="M107.01,-254.8C101.85,-242.93 94.88,-226.93 89.01,-213.45"/>
<polygon fill="#3cb4a4" stroke="#3cb4a4" points="92.18,-211.95 84.98,-204.18 85.76,-214.74 92.18,-211.95"/>
<text text-anchor="middle" x="101.5" y="-225.8" font-family="arial" font-size="14.00" fill="#3cb4a4">?</text>
</g>
<!-- node10&#45;&gt;node5 -->
<g id="edge5" class="edge">
<title>node10&#45;&gt;node5</title>
<path fill="none" stroke="#da2d4f" stroke-width="2" d="M69.41,-167.8C63.82,-155.93 56.29,-139.93 49.95,-126.45"/>
<polygon fill="#da2d4f" stroke="#da2d4f" stroke-width="2" points="53.01,-124.73 45.58,-117.18 46.67,-127.71 53.01,-124.73"/>
<text text-anchor="middle" x="65" y="-138.8" font-family="arial" font-size="14.00" fill="#da2d4f">T</text>
</g>
<!-- node10&#45;&gt;node8 -->
<g id="edge6" class="edge">
<title>node10&#45;&gt;node8</title>
<path fill="none" stroke="#da2d4f" stroke-width="2" d="M85.59,-167.8C91.18,-155.93 98.71,-139.93 105.05,-126.45"/>
<polygon fill="#da2d4f" stroke="#da2d4f" stroke-width="2" points="108.33,-127.71 109.42,-117.18 101.99,-124.73 108.33,-127.71"/>
<text text-anchor="middle" x="104" y="-138.8" font-family="arial" font-size="14.00" fill="#da2d4f">F</text>
</g>
<!-- inline2x12 -->
<g id="node8" class="node">
<title>inline2x12</title>
<ellipse fill="#d7ede7" stroke="black" cx="240.5" cy="-99" rx="74.11" ry="18"/>
<text text-anchor="middle" x="240.5" y="-97.1" font-family="Arial" font-size="8.00" fill="#1a1919">2 C(instance:RuntimeException)</text>
</g>
<!-- inline2x12&#45;&gt;node12 -->
<g id="edge7" class="edge">
<title>inline2x12&#45;&gt;node12</title>
<path fill="none" stroke="#3cb4a4" d="M232.04,-80.86C225.5,-67.61 216.48,-49.35 209.95,-36.11"/>
<text text-anchor="middle" x="238.5" y="-56.6" font-family="arial" font-size="8.00" fill="#3cb4a4">exception</text>
</g>
</g>
</svg>
