<?xml version="1.0" encoding="UTF-8" standalone="no"?>
<!DOCTYPE svg PUBLIC "-//W3C//DTD SVG 1.1//EN"
 "http://www.w3.org/Graphics/SVG/1.1/DTD/svg11.dtd">
<!-- Generated by graphviz version 2.43.0 (0)
 -->
<!-- Title: G Pages: 1 -->
<svg width="162pt" height="213pt"
 viewBox="0.00 0.00 161.74 213.30" xmlns="http://www.w3.org/2000/svg" xmlns:xlink="http://www.w3.org/1999/xlink">
<g id="graph0" class="graph" transform="scale(1 1) rotate(0) translate(4 209.3)">
<title>G</title>
' points="-4,4 -4,-209.3 157.74,-209.3 157.74,4 -4,4"/>
<!-- node0 -->
<g id="node1" class="node">
<title>node0</title>
<polygon fill="#e98693" stroke="black" points="68.61,-205.3 11.13,-205.3 11.13,-169.3 68.61,-169.3 68.61,-205.3"/>
<text text-anchor="middle" x="39.87" y="-184.15" font-family="Arial" font-size="14.00" fill="#1a1919">0 Start</text>
</g>
<!-- node4 -->
<g id="node2" class="node">
<title>node4</title>
<polygon fill="#da2d4f" stroke="black" points="153.61,-124.1 0.13,-124.1 0.13,-88.1 153.61,-88.1 153.61,-124.1"/>
<text text-anchor="middle" x="76.87" y="-102.95" font-family="Arial" font-size="14.00" fill="#ffffff">4 UnsafeMemoryLoad</text>
</g>
<!-- node0&#45;&gt;node4 -->
<g id="edge1" class="edge">
<title>node0&#45;&gt;node4</title>
<path fill="none" stroke="#da2d4f" stroke-width="2" d="M47.9,-169.11C52.75,-158.73 59.03,-145.29 64.5,-133.58"/>
<polygon fill="#da2d4f" stroke="#da2d4f" stroke-width="2" points="67.79,-134.79 68.86,-124.25 61.45,-131.83 67.79,-134.79"/>
</g>
<!-- node5 -->
<g id="node3" class="node">
<title>node5</title>
<polygon fill="#e98693" stroke="black" points="111.57,-36 42.17,-36 42.17,0 111.57,0 111.57,-36"/>
<text text-anchor="middle" x="76.87" y="-14.85" font-family="Arial" font-size="14.00" fill="#1a1919">5 Return</text>
</g>
<!-- node4&#45;&gt;node5 -->
<g id="edge3" class="edge">
<title>node4&#45;&gt;node5</title>
<path fill="none" stroke="#da2d4f" stroke-width="2" d="M75.7,-88.02C75.36,-82.32 75.04,-75.94 74.87,-70.1 74.66,-62.95 74.66,-61.15 74.87,-54 74.94,-51.44 75.04,-48.79 75.17,-46.13"/>
<polygon fill="#da2d4f" stroke="#da2d4f" stroke-width="2" points="78.66,-46.25 75.7,-36.08 71.67,-45.88 78.66,-46.25"/>
</g>
<!-- node4&#45;&gt;node5 -->
<g id="edge4" class="edge">
<title>node4&#45;&gt;node5</title>
<path fill="none" stroke="#3cb4a4" d="M76.87,-88.09C76.87,-76.26 76.87,-60.22 76.87,-46.57"/>
<polygon fill="#3cb4a4" stroke="#3cb4a4" points="80.37,-46.27 76.87,-36.27 73.37,-46.27 80.37,-46.27"/>
<text text-anchor="middle" x="93.99" y="-58.9" font-family="arial" font-size="14.00" fill="#3cb4a4">result</text>
</g>
<!-- inline1x4 -->
<g id="node4" class="node">
<title>inline1x4</title>
<ellipse fill="#d7ede7" stroke="black" cx="113.87" cy="-187.3" rx="27" ry="18"/>
<text text-anchor="middle" x="113.87" y="-185.5" font-family="Arial" font-size="8.00" fill="#1a1919">1 P(0)</text>
</g>
<!-- inline1x4&#45;&gt;node4 -->
<g id="edge2" class="edge">
<title>inline1x4&#45;&gt;node4</title>
<path fill="none" stroke="#3cb4a4" d="M106.2,-169.89C99.98,-156.57 91.23,-137.84 84.91,-124.31"/>
<text text-anchor="middle" x="110.1" y="-144.9" font-family="arial" font-size="8.00" fill="#3cb4a4">address</text>
</g>
</g>
</svg>
