<?xml version="1.0" encoding="UTF-8" standalone="no"?>
<!DOCTYPE svg PUBLIC "-//W3C//DTD SVG 1.1//EN"
 "http://www.w3.org/Graphics/SVG/1.1/DTD/svg11.dtd">
<!-- Generated by graphviz version 2.43.0 (0)
 -->
<!-- Title: G Pages: 1 -->
<svg width="242pt" height="301pt"
 viewBox="0.00 0.00 242.00 301.40" xmlns="http://www.w3.org/2000/svg" xmlns:xlink="http://www.w3.org/1999/xlink">
<g id="graph0" class="graph" transform="scale(1 1) rotate(0) translate(4 297.4)">
<title>G</title>
' points="-4,4 -4,-297.4 238,-297.4 238,4 -4,4"/>
<!-- node0 -->
<g id="node1" class="node">
<title>node0</title>
<polygon fill="#e98693" stroke="black" points="68.74,-124.1 11.26,-124.1 11.26,-88.1 68.74,-88.1 68.74,-124.1"/>
<text text-anchor="middle" x="40" y="-102.95" font-family="Arial" font-size="14.00" fill="#1a1919">0 Start</text>
</g>
<!-- node8 -->
<g id="node4" class="node">
<title>node8</title>
<polygon fill="#e98693" stroke="black" points="90.7,-36 21.3,-36 21.3,0 90.7,0 90.7,-36"/>
<text text-anchor="middle" x="56" y="-14.85" font-family="Arial" font-size="14.00" fill="#1a1919">8 Return</text>
</g>
<!-- node0&#45;&gt;node8 -->
<g id="edge1" class="edge">
<title>node0&#45;&gt;node8</title>
<path fill="none" stroke="#da2d4f" stroke-width="2" d="M43.16,-88.09C45.38,-76.14 48.4,-59.9 50.95,-46.17"/>
<polygon fill="#da2d4f" stroke="#da2d4f" stroke-width="2" points="54.4,-46.74 52.79,-36.27 47.52,-45.46 54.4,-46.74"/>
</g>
<!-- node4 -->
<g id="node2" class="node">
<title>node4</title>
<polygon fill="#3cb4a4" stroke="black" points="90,-212.2 36,-212.2 36,-176.2 90,-176.2 90,-212.2"/>
<text text-anchor="middle" x="63" y="-191.05" font-family="Arial" font-size="14.00" fill="#1a1919">4 &lt;</text>
</g>
<!-- node7 -->
<g id="node3" class="node">
<title>node7</title>
<polygon fill="#3cb4a4" stroke="black" points="183.72,-124.1 86.28,-124.1 86.28,-88.1 183.72,-88.1 183.72,-124.1"/>
<text text-anchor="middle" x="135" y="-102.95" font-family="Arial" font-size="14.00" fill="#1a1919">7 Conditional</text>
</g>
<!-- node4&#45;&gt;node7 -->
<g id="edge4" class="edge">
<title>node4&#45;&gt;node7</title>
<path fill="none" stroke="#3cb4a4" d="M77.22,-176.19C87.71,-163.65 102.14,-146.4 113.95,-132.27"/>
<polygon fill="#3cb4a4" stroke="#3cb4a4" points="116.83,-134.28 120.56,-124.37 111.46,-129.79 116.83,-134.28"/>
<text text-anchor="middle" x="109.89" y="-147" font-family="arial" font-size="14.00" fill="#3cb4a4">?</text>
</g>
<!-- node7&#45;&gt;node8 -->
<g id="edge7" class="edge">
<title>node7&#45;&gt;node8</title>
<path fill="none" stroke="#3cb4a4" d="M119.39,-88.09C107.78,-75.44 91.76,-57.97 78.73,-43.77"/>
<polygon fill="#3cb4a4" stroke="#3cb4a4" points="81.19,-41.27 71.85,-36.27 76.03,-46 81.19,-41.27"/>
<text text-anchor="middle" x="139.96" y="-58.9" font-family="arial" font-size="14.00" fill="#3cb4a4">result [0 &#45; 1]</text>
</g>
<!-- inline2x4 -->
<g id="node5" class="node">
<title>inline2x4</title>
<ellipse fill="#d7ede7" stroke="black" cx="27" cy="-275.4" rx="27" ry="18"/>
<text text-anchor="middle" x="27" y="-273.6" font-family="Arial" font-size="8.00" fill="#1a1919">2 P(1)</text>
</g>
<!-- inline2x4&#45;&gt;node4 -->
<g id="edge2" class="edge">
<title>inline2x4&#45;&gt;node4</title>
<path fill="none" stroke="#3cb4a4" d="M34.46,-257.99C40.51,-244.67 49.03,-225.94 55.18,-212.41"/>
<text text-anchor="middle" x="49" y="-233" font-family="arial" font-size="8.00" fill="#3cb4a4">x</text>
</g>
<!-- inline1x4 -->
<g id="node6" class="node">
<title>inline1x4</title>
<ellipse fill="#d7ede7" stroke="black" cx="99" cy="-275.4" rx="27" ry="18"/>
<text text-anchor="middle" x="99" y="-273.6" font-family="Arial" font-size="8.00" fill="#1a1919">1 P(0)</text>
</g>
<!-- inline1x4&#45;&gt;node4 -->
<g id="edge3" class="edge">
<title>inline1x4&#45;&gt;node4</title>
<path fill="none" stroke="#3cb4a4" d="M91.54,-257.99C85.49,-244.67 76.97,-225.94 70.82,-212.41"/>
<text text-anchor="middle" x="85" y="-233" font-family="arial" font-size="8.00" fill="#3cb4a4">y</text>
</g>
<!-- inline5x7 -->
<g id="node7" class="node">
<title>inline5x7</title>
<ellipse fill="#d7ede7" stroke="black" cx="135" cy="-194.2" rx="27" ry="18"/>
<text text-anchor="middle" x="135" y="-192.4" font-family="Arial" font-size="8.00" fill="#1a1919">5 C(0)</text>
</g>
<!-- inline5x7&#45;&gt;node7 -->
<g id="edge5" class="edge">
<title>inline5x7&#45;&gt;node7</title>
<path fill="none" stroke="#3cb4a4" d="M135,-176.19C135,-161.19 135,-139.44 135,-124.37"/>
<text text-anchor="middle" x="151.83" y="-148.35" font-family="arial" font-size="8.00" fill="#3cb4a4">trueValue</text>
</g>
<!-- inline6x7 -->
<g id="node8" class="node">
<title>inline6x7</title>
<ellipse fill="#d7ede7" stroke="black" cx="207" cy="-194.2" rx="27" ry="18"/>
<text text-anchor="middle" x="207" y="-192.4" font-family="Arial" font-size="8.00" fill="#1a1919">6 C(1)</text>
</g>
<!-- inline6x7&#45;&gt;node7 -->
<g id="edge6" class="edge">
<title>inline6x7&#45;&gt;node7</title>
<path fill="none" stroke="#3cb4a4" d="M197.51,-176.84C191.15,-166.45 182.27,-152.96 173,-142.1 167.76,-135.96 161.51,-129.81 155.6,-124.42"/>
<text text-anchor="middle" x="203.38" y="-148.35" font-family="arial" font-size="8.00" fill="#3cb4a4">falseValue</text>
</g>
</g>
</svg>
