<?xml version="1.0" encoding="UTF-8" standalone="no"?>
<!DOCTYPE svg PUBLIC "-//W3C//DTD SVG 1.1//EN"
 "http://www.w3.org/Graphics/SVG/1.1/DTD/svg11.dtd">
<!-- Generated by graphviz version 2.44.0 (20200408.0750)
 -->
<!-- Title: G Pages: 1 -->
<svg width="202pt" height="386pt"
 viewBox="0.00 0.00 202.00 386.00" xmlns="http://www.w3.org/2000/svg" xmlns:xlink="http://www.w3.org/1999/xlink">
<g id="graph0" class="graph" transform="scale(1 1) rotate(0) translate(4 382)">
<title>G</title>
<!-- node0 -->
<g id="node1" class="node">
<title>node0</title>
<polygon fill="#e98693" stroke="black" points="56,-123 0,-123 0,-87 56,-87 56,-123"/>
<text text-anchor="middle" x="28" y="-101.3" font-family="Arial" font-size="14.00" fill="#1a1919">0 Start</text>
</g>
<!-- node9 -->
<g id="node5" class="node">
<title>node9</title>
<polygon fill="#e98693" stroke="black" points="90,-36 22,-36 22,0 90,0 90,-36"/>
<text text-anchor="middle" x="56" y="-14.3" font-family="Arial" font-size="14.00" fill="#1a1919">9 Return</text>
</g>
<!-- node0&#45;&gt;node9 -->
<g id="edge1" class="edge">
<title>node0&#45;&gt;node9</title>
<path fill="none" stroke="#da2d4f" stroke-width="2" d="M33.67,-86.8C37.54,-75.05 42.75,-59.24 47.16,-45.84"/>
<polygon fill="#da2d4f" stroke="#da2d4f" stroke-width="2" points="50.54,-46.77 50.34,-36.18 43.89,-44.58 50.54,-46.77"/>
</g>
<!-- node4 -->
<g id="node2" class="node">
<title>node4</title>
<polygon fill="#3cb4a4" stroke="black" points="131,-297 97.82,-279 131,-261 164.18,-279 131,-297"/>
<text text-anchor="middle" x="131" y="-275.3" font-family="Arial" font-size="14.00" fill="#1a1919">4 +</text>
</g>
<!-- node7 -->
<g id="node3" class="node">
<title>node7</title>
<polygon fill="#3cb4a4" stroke="black" points="55,-210 14.61,-192 55,-174 95.39,-192 55,-210"/>
<text text-anchor="middle" x="55" y="-188.3" font-family="Arial" font-size="14.00" fill="#1a1919">7 &lt;&lt;</text>
</g>
<!-- node4&#45;&gt;node7 -->
<g id="edge4" class="edge">
<title>node4&#45;&gt;node7</title>
<path fill="none" stroke="#3cb4a4" d="M120.75,-266.54C108.49,-252.83 87.77,-229.65 72.86,-212.98"/>
<polygon fill="#3cb4a4" stroke="#3cb4a4" points="75.35,-210.5 66.07,-205.38 70.13,-215.17 75.35,-210.5"/>
<text text-anchor="middle" x="100.5" y="-231.8" font-family="arial" font-size="14.00" fill="#3cb4a4">x</text>
</g>
<!-- node8 -->
<g id="node4" class="node">
<title>node8</title>
<polygon fill="#3cb4a4" stroke="black" points="107,-123 73.82,-105 107,-87 140.18,-105 107,-123"/>
<text text-anchor="middle" x="107" y="-101.3" font-family="Arial" font-size="14.00" fill="#1a1919">8 +</text>
</g>
<!-- node4&#45;&gt;node8 -->
<g id="edge6" class="edge">
<title>node4&#45;&gt;node8</title>
<path fill="none" stroke="#3cb4a4" d="M128.79,-262.13C124.64,-232.43 115.68,-168.22 110.64,-132.08"/>
<polygon fill="#3cb4a4" stroke="#3cb4a4" points="114.06,-131.26 109.21,-121.83 107.13,-132.22 114.06,-131.26"/>
<text text-anchor="middle" x="124.5" y="-188.3" font-family="arial" font-size="14.00" fill="#3cb4a4">x</text>
</g>
<!-- node7&#45;&gt;node8 -->
<g id="edge7" class="edge">
<title>node7&#45;&gt;node8</title>
<path fill="none" stroke="#3cb4a4" d="M63.35,-177.34C71.61,-163.85 84.36,-143.01 93.95,-127.33"/>
<polygon fill="#3cb4a4" stroke="#3cb4a4" points="96.94,-129.15 99.18,-118.79 90.97,-125.49 96.94,-129.15"/>
<text text-anchor="middle" x="88.5" y="-144.8" font-family="arial" font-size="14.00" fill="#3cb4a4">y</text>
</g>
<!-- node8&#45;&gt;node9 -->
<g id="edge8" class="edge">
<title>node8&#45;&gt;node9</title>
<path fill="none" stroke="#3cb4a4" d="M99.25,-91.09C91.96,-78.94 80.82,-60.37 71.68,-45.13"/>
<polygon fill="#3cb4a4" stroke="#3cb4a4" points="74.44,-42.93 66.29,-36.15 68.44,-46.53 74.44,-42.93"/>
<text text-anchor="middle" x="102" y="-57.8" font-family="arial" font-size="14.00" fill="#3cb4a4">result</text>
</g>
<!-- inline1x4 -->
<g id="node6" class="node">
<title>inline1x4</title>
<ellipse fill="#d7ede7" stroke="black" cx="95" cy="-360" rx="27" ry="18"/>
<text text-anchor="middle" x="95" y="-358.1" font-family="Arial" font-size="8.00" fill="#1a1919">1 P(0)</text>
</g>
<!-- inline1x4&#45;&gt;node4 -->
<g id="edge2" class="edge">
<title>inline1x4&#45;&gt;node4</title>
<path fill="none" stroke="#3cb4a4" d="M102.46,-342.63C109.05,-328.17 118.55,-307.32 124.75,-293.72"/>
<text text-anchor="middle" x="116" y="-317.6" font-family="arial" font-size="8.00" fill="#3cb4a4">x</text>
</g>
<!-- inline2x4 -->
<g id="node7" class="node">
<title>inline2x4</title>
<ellipse fill="#d7ede7" stroke="black" cx="167" cy="-360" rx="27" ry="18"/>
<text text-anchor="middle" x="167" y="-358.1" font-family="Arial" font-size="8.00" fill="#1a1919">2 P(1)</text>
</g>
<!-- inline2x4&#45;&gt;node4 -->
<g id="edge3" class="edge">
<title>inline2x4&#45;&gt;node4</title>
<path fill="none" stroke="#3cb4a4" d="M159.54,-342.63C152.95,-328.17 143.45,-307.32 137.25,-293.72"/>
<text text-anchor="middle" x="152" y="-317.6" font-family="arial" font-size="8.00" fill="#3cb4a4">y</text>
</g>
<!-- inline6x7 -->
<g id="node8" class="node">
<title>inline6x7</title>
<ellipse fill="#d7ede7" stroke="black" cx="53" cy="-279" rx="27" ry="18"/>
<text text-anchor="middle" x="53" y="-277.1" font-family="Arial" font-size="8.00" fill="#1a1919">6 C(1)</text>
</g>
<!-- inline6x7&#45;&gt;node7 -->
<g id="edge5" class="edge">
<title>inline6x7&#45;&gt;node7</title>
<path fill="none" stroke="#3cb4a4" d="M53.4,-260.8C53.75,-245.95 54.26,-224.64 54.6,-209.89"/>
<text text-anchor="middle" x="57" y="-233.6" font-family="arial" font-size="8.00" fill="#3cb4a4">y</text>
</g>
</g>
</svg>
