<?xml version="1.0" encoding="UTF-8" standalone="no"?>
<!DOCTYPE svg PUBLIC "-//W3C//DTD SVG 1.1//EN"
 "http://www.w3.org/Graphics/SVG/1.1/DTD/svg11.dtd">
<!-- Generated by graphviz version 2.44.0 (20200408.0750)
 -->
<!-- Title: G Pages: 1 -->
<svg width="458pt" height="686pt"
 viewBox="0.00 0.00 458.00 686.00" xmlns="http://www.w3.org/2000/svg" xmlns:xlink="http://www.w3.org/1999/xlink">
<g id="graph0" class="graph" transform="scale(1 1) rotate(0) translate(4 682)">
<title>G</title>
<!-- node0 -->
<g id="node1" class="node">
<title>node0</title>
<polygon fill="#e98693" stroke="black" points="329,-678 273,-678 273,-642 329,-642 329,-678"/>
<text text-anchor="middle" x="301" y="-656.3" font-family="Arial" font-size="14.00" fill="#1a1919">0 Start</text>
</g>
<!-- node4 -->
<g id="node2" class="node">
<title>node4</title>
<polygon fill="#e98693" stroke="black" points="328,-605 274,-605 274,-569 328,-569 328,-605"/>
<text text-anchor="middle" x="301" y="-583.3" font-family="Arial" font-size="14.00" fill="#1a1919">4 End</text>
</g>
<!-- node0&#45;&gt;node4 -->
<g id="edge1" class="edge">
<title>node0&#45;&gt;node4</title>
<path fill="none" stroke="#da2d4f" stroke-width="2" d="M301,-641.81C301,-633.79 301,-624.05 301,-615.07"/>
<polygon fill="#da2d4f" stroke="#da2d4f" stroke-width="2" points="304.5,-615.03 301,-605.03 297.5,-615.03 304.5,-615.03"/>
</g>
<!-- node5 -->
<g id="node3" class="node">
<title>node5</title>
<polygon fill="#e98693" stroke="black" points="347,-532 255,-532 255,-496 347,-496 347,-532"/>
<text text-anchor="middle" x="301" y="-510.3" font-family="Arial" font-size="14.00" fill="#1a1919">5 LoopBegin</text>
</g>
<!-- node4&#45;&gt;node5 -->
<g id="edge2" class="edge">
<title>node4&#45;&gt;node5</title>
<path fill="none" stroke="#da2d4f" stroke-width="2" d="M301,-568.81C301,-560.79 301,-551.05 301,-542.07"/>
<polygon fill="#da2d4f" stroke="#da2d4f" stroke-width="2" points="304.5,-542.03 301,-532.03 297.5,-542.03 304.5,-542.03"/>
</g>
<!-- node6 -->
<g id="node4" class="node">
<title>node6</title>
<polygon fill="#f9f9f9" stroke="black" points="173,-451 119,-451 119,-415 173,-415 173,-451"/>
<text text-anchor="middle" x="146" y="-429.3" font-family="Arial" font-size="14.00" fill="#1a1919">6 ϕ</text>
</g>
<!-- node5&#45;&gt;node6 -->
<g id="edge4" class="edge">
<title>node5&#45;&gt;node6</title>
<path fill="none" stroke="#343d46" stroke-dasharray="5,2" d="M248.53,-491.89C238.61,-487.54 228.4,-482.81 219,-478 203.19,-469.91 186.16,-459.74 172.53,-451.21"/>
<polygon fill="#343d46" stroke="#343d46" points="247.35,-495.2 257.92,-495.94 250.12,-488.77 247.35,-495.2"/>
</g>
<!-- node13 -->
<g id="node7" class="node">
<title>node13</title>
<polygon fill="#e98693" stroke="black" points="422,-190 334,-190 334,-154 422,-154 422,-190"/>
<text text-anchor="middle" x="378" y="-168.3" font-family="Arial" font-size="14.00" fill="#1a1919">13 LoopExit</text>
</g>
<!-- node5&#45;&gt;node13 -->
<g id="edge10" class="edge">
<title>node5&#45;&gt;node13</title>
<path fill="none" stroke="#343d46" stroke-dasharray="5,2" d="M340.63,-490.07C358.65,-476.45 376,-457.29 376,-434 376,-434 376,-434 376,-258 376,-234.53 376.77,-207.42 377.36,-190.25"/>
<polygon fill="#343d46" stroke="#343d46" points="338.5,-487.29 332.37,-495.93 342.55,-493 338.5,-487.29"/>
</g>
<!-- node15 -->
<g id="node8" class="node">
<title>node15</title>
<polygon fill="#e98693" stroke="black" points="290,-277 236,-277 236,-241 290,-241 290,-277"/>
<text text-anchor="middle" x="263" y="-255.3" font-family="Arial" font-size="14.00" fill="#1a1919">15 If</text>
</g>
<!-- node5&#45;&gt;node15 -->
<g id="edge3" class="edge">
<title>node5&#45;&gt;node15</title>
<path fill="none" stroke="#da2d4f" stroke-width="2" d="M288.73,-495.96C280.7,-483.96 270.68,-467.21 265,-451 246.81,-399.12 247.6,-382.79 252,-328 253.08,-314.54 255.35,-299.72 257.55,-287.37"/>
<polygon fill="#da2d4f" stroke="#da2d4f" stroke-width="2" points="261.04,-287.71 259.43,-277.24 254.16,-286.43 261.04,-287.71"/>
</g>
<!-- node20 -->
<g id="node11" class="node">
<title>node20</title>
<polygon fill="#e98693" stroke="black" points="371.5,-36 282.5,-36 282.5,0 371.5,0 371.5,-36"/>
<text text-anchor="middle" x="327" y="-14.3" font-family="Arial" font-size="14.00" fill="#1a1919">20 LoopEnd</text>
</g>
<!-- node5&#45;&gt;node20 -->
<g id="edge19" class="edge">
<title>node5&#45;&gt;node20</title>
<path fill="none" stroke="#da2d4f" stroke-width="4" d="M357.29,-506.01C399.49,-497.24 450,-477.64 450,-434 450,-434 450,-434 450,-90 450,-52.65 406.92,-34.64 371.75,-26.16"/>
<polygon fill="#da2d4f" stroke="#da2d4f" stroke-width="4" points="356.49,-502.6 347.33,-507.91 357.81,-509.47 356.49,-502.6"/>
</g>
<!-- node10 -->
<g id="node5" class="node">
<title>node10</title>
<polygon fill="#3cb4a4" stroke="black" points="301,-364 260.61,-346 301,-328 341.39,-346 301,-364"/>
<text text-anchor="middle" x="301" y="-342.3" font-family="Arial" font-size="14.00" fill="#1a1919">10 &lt;</text>
</g>
<!-- node6&#45;&gt;node10 -->
<g id="edge7" class="edge">
<title>node6&#45;&gt;node10</title>
<path fill="none" stroke="#3cb4a4" d="M173.35,-417C201.93,-401.33 246.45,-376.91 274.65,-361.45"/>
<polygon fill="#3cb4a4" stroke="#3cb4a4" points="276.46,-364.45 283.54,-356.57 273.09,-358.31 276.46,-364.45"/>
<text text-anchor="middle" x="235.5" y="-385.8" font-family="arial" font-size="14.00" fill="#3cb4a4">x</text>
</g>
<!-- node16 -->
<g id="node9" class="node">
<title>node16</title>
<polygon fill="#da2d4f" stroke="black" points="322,-109 86,-109 86,-73 322,-73 322,-109"/>
<text text-anchor="middle" x="204" y="-87.3" font-family="Arial" font-size="14.00" fill="#ffffff">16 StoreField JavaExamples.intField</text>
</g>
<!-- node6&#45;&gt;node16 -->
<g id="edge15" class="edge">
<title>node6&#45;&gt;node16</title>
<path fill="none" stroke="#3cb4a4" d="M146,-414.74C146,-397.57 146,-370.46 146,-347 146,-347 146,-347 146,-171 146,-149.7 159.87,-130.34 174.04,-116.12"/>
<polygon fill="#3cb4a4" stroke="#3cb4a4" points="176.54,-118.58 181.41,-109.17 171.73,-113.48 176.54,-118.58"/>
<text text-anchor="middle" x="162.5" y="-255.3" font-family="arial" font-size="14.00" fill="#3cb4a4">value</text>
</g>
<!-- node19 -->
<g id="node10" class="node">
<title>node19</title>
<polygon fill="#3cb4a4" stroke="black" points="54,-364 13.61,-346 54,-328 94.39,-346 54,-364"/>
<text text-anchor="middle" x="54" y="-342.3" font-family="Arial" font-size="14.00" fill="#1a1919">19 +</text>
</g>
<!-- node6&#45;&gt;node19 -->
<g id="edge17" class="edge">
<title>node6&#45;&gt;node19</title>
<path fill="none" stroke="#3cb4a4" d="M132.59,-414.95C124.28,-404.87 113.1,-392.13 102,-382 94.61,-375.26 85.94,-368.61 78.01,-362.94"/>
<polygon fill="#3cb4a4" stroke="#3cb4a4" points="80,-360.06 69.8,-357.22 76,-365.81 80,-360.06"/>
<text text-anchor="middle" x="119.5" y="-385.8" font-family="arial" font-size="14.00" fill="#3cb4a4">x</text>
</g>
<!-- node10&#45;&gt;node15 -->
<g id="edge12" class="edge">
<title>node10&#45;&gt;node15</title>
<path fill="none" stroke="#3cb4a4" d="M294.55,-330.58C289.19,-318.57 281.4,-301.15 274.9,-286.63"/>
<polygon fill="#3cb4a4" stroke="#3cb4a4" points="277.94,-284.83 270.66,-277.13 271.54,-287.69 277.94,-284.83"/>
<text text-anchor="middle" x="288" y="-298.8" font-family="arial" font-size="14.00" fill="#3cb4a4">?</text>
</g>
<!-- node11 -->
<g id="node6" class="node">
<title>node11</title>
<polygon fill="#e98693" stroke="black" points="243.5,-190 174.5,-190 174.5,-154 243.5,-154 243.5,-190"/>
<text text-anchor="middle" x="209" y="-168.3" font-family="Arial" font-size="14.00" fill="#1a1919">11 Begin</text>
</g>
<!-- node11&#45;&gt;node16 -->
<g id="edge9" class="edge">
<title>node11&#45;&gt;node16</title>
<path fill="none" stroke="#da2d4f" stroke-width="2" d="M207.92,-153.86C207.27,-143.71 206.45,-130.63 205.72,-119.12"/>
<polygon fill="#da2d4f" stroke="#da2d4f" stroke-width="2" points="209.21,-118.87 205.08,-109.11 202.22,-119.31 209.21,-118.87"/>
</g>
<!-- node21 -->
<g id="node12" class="node">
<title>node21</title>
<polygon fill="#e98693" stroke="black" points="416,-109 340,-109 340,-73 416,-73 416,-109"/>
<text text-anchor="middle" x="378" y="-87.3" font-family="Arial" font-size="14.00" fill="#1a1919">21 Return</text>
</g>
<!-- node13&#45;&gt;node21 -->
<g id="edge11" class="edge">
<title>node13&#45;&gt;node21</title>
<path fill="none" stroke="#da2d4f" stroke-width="2" d="M378,-153.86C378,-143.71 378,-130.63 378,-119.12"/>
<polygon fill="#da2d4f" stroke="#da2d4f" stroke-width="2" points="381.5,-119.11 378,-109.11 374.5,-119.11 381.5,-119.11"/>
</g>
<!-- node15&#45;&gt;node11 -->
<g id="edge14" class="edge">
<title>node15&#45;&gt;node11</title>
<path fill="none" stroke="#da2d4f" stroke-width="2" d="M252.07,-240.8C244.39,-228.7 233.97,-212.3 225.31,-198.67"/>
<polygon fill="#da2d4f" stroke="#da2d4f" stroke-width="2" points="228.23,-196.74 219.91,-190.18 222.32,-200.49 228.23,-196.74"/>
<text text-anchor="middle" x="243.5" y="-211.8" font-family="arial" font-size="14.00" fill="#da2d4f">F</text>
</g>
<!-- node15&#45;&gt;node13 -->
<g id="edge13" class="edge">
<title>node15&#45;&gt;node13</title>
<path fill="none" stroke="#da2d4f" stroke-width="2" d="M286.27,-240.8C303.65,-227.95 327.59,-210.26 346.66,-196.17"/>
<polygon fill="#da2d4f" stroke="#da2d4f" stroke-width="2" points="348.8,-198.93 354.76,-190.18 344.64,-193.3 348.8,-198.93"/>
<text text-anchor="middle" x="331.5" y="-211.8" font-family="arial" font-size="14.00" fill="#da2d4f">T</text>
</g>
<!-- node16&#45;&gt;node20 -->
<g id="edge16" class="edge">
<title>node16&#45;&gt;node20</title>
<path fill="none" stroke="#da2d4f" stroke-width="2" d="M233.46,-72.99C249.92,-63.49 270.63,-51.54 288.38,-41.29"/>
<polygon fill="#da2d4f" stroke="#da2d4f" stroke-width="2" points="290.44,-44.14 297.35,-36.11 286.94,-38.08 290.44,-44.14"/>
</g>
<!-- node19&#45;&gt;node6 -->
<g id="edge6" class="edge">
<title>node19&#45;&gt;node6</title>
<path fill="none" stroke="#3cb4a4" d="M50.13,-362.37C48.37,-373.03 48.02,-387.05 55,-397 67.25,-414.46 89.5,-423.22 108.92,-427.6"/>
<polygon fill="#3cb4a4" stroke="#3cb4a4" points="108.27,-431.04 118.76,-429.52 109.61,-424.17 108.27,-431.04"/>
<text text-anchor="middle" x="78.5" y="-385.8" font-family="arial" font-size="14.00" fill="#3cb4a4">from 20</text>
</g>
<!-- inline1x6 -->
<g id="node13" class="node">
<title>inline1x6</title>
<ellipse fill="#d7ede7" stroke="black" cx="146" cy="-514" rx="27" ry="18"/>
<text text-anchor="middle" x="146" y="-512.1" font-family="Arial" font-size="8.00" fill="#1a1919">1 P(0)</text>
</g>
<!-- inline1x6&#45;&gt;node6 -->
<g id="edge5" class="edge">
<title>inline1x6&#45;&gt;node6</title>
<path fill="none" stroke="#3cb4a4" d="M146,-495.86C146,-482.61 146,-464.35 146,-451.11"/>
<text text-anchor="middle" x="158" y="-471.6" font-family="arial" font-size="8.00" fill="#3cb4a4">from 4</text>
</g>
<!-- inline9x10 -->
<g id="node14" class="node">
<title>inline9x10</title>
<ellipse fill="#d7ede7" stroke="black" cx="301" cy="-433" rx="27" ry="18"/>
<text text-anchor="middle" x="301" y="-431.1" font-family="Arial" font-size="8.00" fill="#1a1919">9 C(1)</text>
</g>
<!-- inline9x10&#45;&gt;node10 -->
<g id="edge8" class="edge">
<title>inline9x10&#45;&gt;node10</title>
<path fill="none" stroke="#3cb4a4" d="M301,-414.8C301,-400.05 301,-378.92 301,-364.18"/>
<text text-anchor="middle" x="303" y="-387.6" font-family="arial" font-size="8.00" fill="#3cb4a4">y</text>
</g>
<!-- inline18x19 -->
<g id="node15" class="node">
<title>inline18x19</title>
<ellipse fill="#d7ede7" stroke="black" cx="27" cy="-433" rx="27" ry="18"/>
<text text-anchor="middle" x="27" y="-431.1" font-family="Arial" font-size="8.00" fill="#1a1919">18 C(&#45;1)</text>
</g>
<!-- inline18x19&#45;&gt;node19 -->
<g id="edge18" class="edge">
<title>inline18x19&#45;&gt;node19</title>
<path fill="none" stroke="#3cb4a4" d="M27.28,-414.94C27.87,-405.09 29.37,-392.59 33,-382 35.66,-374.22 40.22,-366.31 44.42,-359.98"/>
<text text-anchor="middle" x="35" y="-387.6" font-family="arial" font-size="8.00" fill="#3cb4a4">y</text>
</g>
<!-- inline1x21 -->
<g id="node16" class="node">
<title>inline1x21</title>
<ellipse fill="#d7ede7" stroke="black" cx="289" cy="-172" rx="27" ry="18"/>
<text text-anchor="middle" x="289" y="-170.1" font-family="Arial" font-size="8.00" fill="#1a1919">1 P(0)</text>
</g>
<!-- inline1x21&#45;&gt;node21 -->
<g id="edge20" class="edge">
<title>inline1x21&#45;&gt;node21</title>
<path fill="none" stroke="#3cb4a4" d="M304.5,-157.24C319.54,-143.89 342.41,-123.59 358.64,-109.18"/>
<text text-anchor="middle" x="346" y="-129.6" font-family="arial" font-size="8.00" fill="#3cb4a4">result</text>
</g>
</g>
</svg>
