<?xml version="1.0" encoding="UTF-8" standalone="no"?>
<!DOCTYPE svg PUBLIC "-//W3C//DTD SVG 1.1//EN"
 "http://www.w3.org/Graphics/SVG/1.1/DTD/svg11.dtd">
<!-- Generated by graphviz version 2.44.0 (20200408.0750)
 -->
<!-- Title: G Pages: 1 -->
<svg width="474pt" height="779pt"
 viewBox="0.00 0.00 473.50 779.00" xmlns="http://www.w3.org/2000/svg" xmlns:xlink="http://www.w3.org/1999/xlink">
<g id="graph0" class="graph" transform="scale(1 1) rotate(0) translate(4 775)">
<title>G</title>
<!-- node0 -->
<g id="node1" class="node">
<title>node0</title>
<polygon fill="#e98693" stroke="black" points="163,-690 107,-690 107,-654 163,-654 163,-690"/>
<text text-anchor="middle" x="135" y="-668.3" font-family="Arial" font-size="14.00" fill="#1a1919">0 Start</text>
</g>
<!-- node8 -->
<g id="node5" class="node">
<title>node8</title>
<polygon fill="#e98693" stroke="black" points="178,-603 124,-603 124,-567 178,-567 178,-603"/>
<text text-anchor="middle" x="151" y="-581.3" font-family="Arial" font-size="14.00" fill="#1a1919">8 If</text>
</g>
<!-- node0&#45;&gt;node8 -->
<g id="edge1" class="edge">
<title>node0&#45;&gt;node8</title>
<path fill="none" stroke="#da2d4f" stroke-width="2" d="M138.24,-653.8C140.43,-642.16 143.37,-626.55 145.87,-613.24"/>
<polygon fill="#da2d4f" stroke="#da2d4f" stroke-width="2" points="149.36,-613.65 147.77,-603.18 142.48,-612.36 149.36,-613.65"/>
</g>
<!-- node5 -->
<g id="node2" class="node">
<title>node5</title>
<polygon fill="#3cb4a4" stroke="black" points="221,-690 180.61,-672 221,-654 261.39,-672 221,-690"/>
<text text-anchor="middle" x="221" y="-668.3" font-family="Arial" font-size="14.00" fill="#1a1919">5 ==</text>
</g>
<!-- node5&#45;&gt;node8 -->
<g id="edge6" class="edge">
<title>node5&#45;&gt;node8</title>
<path fill="none" stroke="#3cb4a4" d="M210.67,-658.46C200.44,-646.03 184.48,-626.65 171.64,-611.06"/>
<polygon fill="#3cb4a4" stroke="#3cb4a4" points="174.31,-608.8 165.26,-603.31 168.91,-613.25 174.31,-608.8"/>
<text text-anchor="middle" x="195" y="-624.8" font-family="arial" font-size="14.00" fill="#3cb4a4">?</text>
</g>
<!-- node6 -->
<g id="node3" class="node">
<title>node6</title>
<polygon fill="#e98693" stroke="black" points="302,-516 240,-516 240,-480 302,-480 302,-516"/>
<text text-anchor="middle" x="271" y="-494.3" font-family="Arial" font-size="14.00" fill="#1a1919">6 Begin</text>
</g>
<!-- node10 -->
<g id="node7" class="node">
<title>node10</title>
<polygon fill="#da2d4f" stroke="black" points="465.5,-443 242.5,-443 242.5,-407 465.5,-407 465.5,-443"/>
<text text-anchor="middle" x="354" y="-421.3" font-family="Arial" font-size="14.00" fill="#ffffff">10 Call JavaExamples.opaqueCall</text>
</g>
<!-- node6&#45;&gt;node10 -->
<g id="edge4" class="edge">
<title>node6&#45;&gt;node10</title>
<path fill="none" stroke="#da2d4f" stroke-width="2" d="M291.09,-479.81C301.69,-470.74 314.87,-459.48 326.41,-449.6"/>
<polygon fill="#da2d4f" stroke="#da2d4f" stroke-width="2" points="328.77,-452.19 334.09,-443.03 324.22,-446.87 328.77,-452.19"/>
</g>
<!-- node7 -->
<g id="node4" class="node">
<title>node7</title>
<polygon fill="#e98693" stroke="black" points="62,-516 0,-516 0,-480 62,-480 62,-516"/>
<text text-anchor="middle" x="31" y="-494.3" font-family="Arial" font-size="14.00" fill="#1a1919">7 Begin</text>
</g>
<!-- node14 -->
<g id="node9" class="node">
<title>node14</title>
<polygon fill="#da2d4f" stroke="black" points="224.5,-443 1.5,-443 1.5,-407 224.5,-407 224.5,-443"/>
<text text-anchor="middle" x="113" y="-421.3" font-family="Arial" font-size="14.00" fill="#ffffff">14 Call JavaExamples.opaqueCall</text>
</g>
<!-- node7&#45;&gt;node14 -->
<g id="edge5" class="edge">
<title>node7&#45;&gt;node14</title>
<path fill="none" stroke="#da2d4f" stroke-width="2" d="M50.85,-479.81C61.33,-470.74 74.34,-459.48 85.74,-449.6"/>
<polygon fill="#da2d4f" stroke="#da2d4f" stroke-width="2" points="88.06,-452.22 93.33,-443.03 83.48,-446.93 88.06,-452.22"/>
</g>
<!-- node8&#45;&gt;node6 -->
<g id="edge8" class="edge">
<title>node8&#45;&gt;node6</title>
<path fill="none" stroke="#da2d4f" stroke-width="2" d="M175.28,-566.8C193.5,-553.9 218.62,-536.1 238.56,-521.98"/>
<polygon fill="#da2d4f" stroke="#da2d4f" stroke-width="2" points="240.62,-524.81 246.75,-516.18 236.57,-519.1 240.62,-524.81"/>
<text text-anchor="middle" x="223.5" y="-537.8" font-family="arial" font-size="14.00" fill="#da2d4f">F</text>
</g>
<!-- node8&#45;&gt;node7 -->
<g id="edge7" class="edge">
<title>node8&#45;&gt;node7</title>
<path fill="none" stroke="#da2d4f" stroke-width="2" d="M126.72,-566.8C108.5,-553.9 83.38,-536.1 63.44,-521.98"/>
<polygon fill="#da2d4f" stroke="#da2d4f" stroke-width="2" points="65.43,-519.1 55.25,-516.18 61.38,-524.81 65.43,-519.1"/>
<text text-anchor="middle" x="103.5" y="-537.8" font-family="arial" font-size="14.00" fill="#da2d4f">T</text>
</g>
<!-- node9 -->
<g id="node6" class="node">
<title>node9</title>
<polygon fill="#f9f9f9" stroke="black" points="454,-516 320,-516 320,-480 454,-480 454,-516"/>
<text text-anchor="middle" x="387" y="-494.3" font-family="Arial" font-size="14.00" fill="#1a1919">9 MethodCallTarget</text>
</g>
<!-- node9&#45;&gt;node10 -->
<g id="edge9" class="edge">
<title>node9&#45;&gt;node10</title>
<path fill="none" stroke="#343d46" stroke-dasharray="5,2" d="M374.74,-470.63C370.45,-461.4 365.75,-451.29 361.91,-443.03"/>
<polygon fill="#343d46" stroke="#343d46" points="371.62,-472.22 379.01,-479.81 377.97,-469.27 371.62,-472.22"/>
</g>
<!-- node16 -->
<g id="node10" class="node">
<title>node16</title>
<polygon fill="#e98693" stroke="black" points="324.5,-370 265.5,-370 265.5,-334 324.5,-334 324.5,-370"/>
<text text-anchor="middle" x="295" y="-348.3" font-family="Arial" font-size="14.00" fill="#1a1919">16 End</text>
</g>
<!-- node10&#45;&gt;node16 -->
<g id="edge10" class="edge">
<title>node10&#45;&gt;node16</title>
<path fill="none" stroke="#da2d4f" stroke-width="2" d="M339.72,-406.81C332.47,-398.09 323.54,-387.34 315.56,-377.75"/>
<polygon fill="#da2d4f" stroke="#da2d4f" stroke-width="2" points="318.23,-375.48 309.15,-370.03 312.85,-379.96 318.23,-375.48"/>
</g>
<!-- node19 -->
<g id="node13" class="node">
<title>node19</title>
<polygon fill="#f9f9f9" stroke="black" points="282,-210 228,-210 228,-174 282,-174 282,-210"/>
<text text-anchor="middle" x="255" y="-188.3" font-family="Arial" font-size="14.00" fill="#1a1919">19 ϕ</text>
</g>
<!-- node10&#45;&gt;node19 -->
<g id="edge17" class="edge">
<title>node10&#45;&gt;node19</title>
<path fill="none" stroke="#3cb4a4" d="M351.73,-406.99C348.94,-388.56 343.36,-358.52 334,-334 317.82,-291.61 290.55,-246.51 272.67,-219.04"/>
<polygon fill="#3cb4a4" stroke="#3cb4a4" points="275.42,-216.85 266.99,-210.43 269.57,-220.7 275.42,-216.85"/>
<text text-anchor="middle" x="349.5" y="-304.8" font-family="arial" font-size="14.00" fill="#3cb4a4">from 16</text>
</g>
<!-- node13 -->
<g id="node8" class="node">
<title>node13</title>
<polygon fill="#f9f9f9" stroke="black" points="222,-516 80,-516 80,-480 222,-480 222,-516"/>
<text text-anchor="middle" x="151" y="-494.3" font-family="Arial" font-size="14.00" fill="#1a1919">13 MethodCallTarget</text>
</g>
<!-- node13&#45;&gt;node14 -->
<g id="edge11" class="edge">
<title>node13&#45;&gt;node14</title>
<path fill="none" stroke="#343d46" stroke-dasharray="5,2" d="M137.04,-470.92C132.06,-461.61 126.58,-451.38 122.11,-443.03"/>
<polygon fill="#343d46" stroke="#343d46" points="134,-472.65 141.8,-479.81 140.17,-469.34 134,-472.65"/>
</g>
<!-- node18 -->
<g id="node12" class="node">
<title>node18</title>
<polygon fill="#e98693" stroke="black" points="184.5,-370 125.5,-370 125.5,-334 184.5,-334 184.5,-370"/>
<text text-anchor="middle" x="155" y="-348.3" font-family="Arial" font-size="14.00" fill="#1a1919">18 End</text>
</g>
<!-- node14&#45;&gt;node18 -->
<g id="edge12" class="edge">
<title>node14&#45;&gt;node18</title>
<path fill="none" stroke="#da2d4f" stroke-width="2" d="M123.17,-406.81C128.12,-398.44 134.18,-388.2 139.68,-378.9"/>
<polygon fill="#da2d4f" stroke="#da2d4f" stroke-width="2" points="142.85,-380.42 144.93,-370.03 136.82,-376.85 142.85,-380.42"/>
</g>
<!-- node14&#45;&gt;node19 -->
<g id="edge18" class="edge">
<title>node14&#45;&gt;node19</title>
<path fill="none" stroke="#3cb4a4" d="M148.36,-406.79C163.89,-397.71 181.23,-385.26 193,-370 228.2,-324.36 244.37,-257.2 250.99,-220.11"/>
<polygon fill="#3cb4a4" stroke="#3cb4a4" points="254.47,-220.5 252.68,-210.06 247.57,-219.34 254.47,-220.5"/>
<text text-anchor="middle" x="252.5" y="-304.8" font-family="arial" font-size="14.00" fill="#3cb4a4">from 18</text>
</g>
<!-- node17 -->
<g id="node11" class="node">
<title>node17</title>
<polygon fill="#e98693" stroke="black" points="196,-283 122,-283 122,-247 196,-247 196,-283"/>
<text text-anchor="middle" x="159" y="-261.3" font-family="Arial" font-size="14.00" fill="#1a1919">17 Merge</text>
</g>
<!-- node16&#45;&gt;node17 -->
<g id="edge13" class="edge">
<title>node16&#45;&gt;node17</title>
<path fill="none" stroke="#da2d4f" stroke-width="2" d="M291.75,-334C288.84,-323.16 283.5,-309.58 274,-301 255.38,-284.19 228.89,-275.45 206.02,-270.91"/>
<polygon fill="#da2d4f" stroke="#da2d4f" stroke-width="2" points="206.61,-267.46 196.15,-269.15 205.38,-274.35 206.61,-267.46"/>
</g>
<!-- node17&#45;&gt;node19 -->
<g id="edge16" class="edge">
<title>node17&#45;&gt;node19</title>
<path fill="none" stroke="#343d46" stroke-dasharray="5,2" d="M190.37,-240.8C203.93,-230.77 219.51,-219.25 231.98,-210.03"/>
<polygon fill="#343d46" stroke="#343d46" points="188.2,-238.05 182.24,-246.81 192.36,-243.68 188.2,-238.05"/>
</g>
<!-- node22 -->
<g id="node15" class="node">
<title>node22</title>
<polygon fill="#e98693" stroke="black" points="182,-36 106,-36 106,0 182,0 182,-36"/>
<text text-anchor="middle" x="144" y="-14.3" font-family="Arial" font-size="14.00" fill="#1a1919">22 Return</text>
</g>
<!-- node17&#45;&gt;node22 -->
<g id="edge15" class="edge">
<title>node17&#45;&gt;node22</title>
<path fill="none" stroke="#da2d4f" stroke-width="2" d="M154.2,-246.64C151.53,-236.13 148.46,-222.4 147,-210 140.17,-151.99 141.32,-83.4 142.7,-46.24"/>
<polygon fill="#da2d4f" stroke="#da2d4f" stroke-width="2" points="146.2,-46.33 143.11,-36.2 139.2,-46.05 146.2,-46.33"/>
</g>
<!-- node18&#45;&gt;node17 -->
<g id="edge14" class="edge">
<title>node18&#45;&gt;node17</title>
<path fill="none" stroke="#da2d4f" stroke-width="2" d="M155.81,-333.8C156.36,-322.16 157.09,-306.55 157.72,-293.24"/>
<polygon fill="#da2d4f" stroke="#da2d4f" stroke-width="2" points="161.22,-293.33 158.19,-283.18 154.23,-293 161.22,-293.33"/>
</g>
<!-- node21 -->
<g id="node14" class="node">
<title>node21</title>
<polygon fill="#3cb4a4" stroke="black" points="196,-123 155.61,-105 196,-87 236.39,-105 196,-123"/>
<text text-anchor="middle" x="196" y="-101.3" font-family="Arial" font-size="14.00" fill="#1a1919">21 +</text>
</g>
<!-- node19&#45;&gt;node21 -->
<g id="edge20" class="edge">
<title>node19&#45;&gt;node21</title>
<path fill="none" stroke="#3cb4a4" d="M243.06,-173.8C233.75,-160.38 220.76,-141.67 210.79,-127.31"/>
<polygon fill="#3cb4a4" stroke="#3cb4a4" points="213.61,-125.23 205.03,-119.01 207.86,-129.22 213.61,-125.23"/>
<text text-anchor="middle" x="232.5" y="-144.8" font-family="arial" font-size="14.00" fill="#3cb4a4">y</text>
</g>
<!-- node21&#45;&gt;node22 -->
<g id="edge21" class="edge">
<title>node21&#45;&gt;node22</title>
<path fill="none" stroke="#3cb4a4" d="M187.65,-90.34C180.18,-78.14 169.04,-59.93 159.88,-44.96"/>
<polygon fill="#3cb4a4" stroke="#3cb4a4" points="162.69,-42.85 154.49,-36.15 156.72,-46.5 162.69,-42.85"/>
<text text-anchor="middle" x="191" y="-57.8" font-family="arial" font-size="14.00" fill="#3cb4a4">result</text>
</g>
<!-- inline1x5 -->
<g id="node16" class="node">
<title>inline1x5</title>
<ellipse fill="#d7ede7" stroke="black" cx="185" cy="-753" rx="27" ry="18"/>
<text text-anchor="middle" x="185" y="-751.1" font-family="Arial" font-size="8.00" fill="#1a1919">1 P(0)</text>
</g>
<!-- inline1x5&#45;&gt;node5 -->
<g id="edge2" class="edge">
<title>inline1x5&#45;&gt;node5</title>
<path fill="none" stroke="#3cb4a4" d="M192.46,-735.63C198.97,-721.35 208.31,-700.84 214.52,-687.23"/>
<text text-anchor="middle" x="207" y="-710.6" font-family="arial" font-size="8.00" fill="#3cb4a4">x</text>
</g>
<!-- inline4x5 -->
<g id="node17" class="node">
<title>inline4x5</title>
<ellipse fill="#d7ede7" stroke="black" cx="257" cy="-753" rx="27" ry="18"/>
<text text-anchor="middle" x="257" y="-751.1" font-family="Arial" font-size="8.00" fill="#1a1919">4 C(0)</text>
</g>
<!-- inline4x5&#45;&gt;node5 -->
<g id="edge3" class="edge">
<title>inline4x5&#45;&gt;node5</title>
<path fill="none" stroke="#3cb4a4" d="M249.54,-735.63C243.03,-721.35 233.69,-700.84 227.48,-687.23"/>
<text text-anchor="middle" x="242" y="-710.6" font-family="arial" font-size="8.00" fill="#3cb4a4">y</text>
</g>
<!-- inline2x21 -->
<g id="node18" class="node">
<title>inline2x21</title>
<ellipse fill="#d7ede7" stroke="black" cx="183" cy="-192" rx="27" ry="18"/>
<text text-anchor="middle" x="183" y="-190.1" font-family="Arial" font-size="8.00" fill="#1a1919">2 P(1)</text>
</g>
<!-- inline2x21&#45;&gt;node21 -->
<g id="edge19" class="edge">
<title>inline2x21&#45;&gt;node21</title>
<path fill="none" stroke="#3cb4a4" d="M185.63,-173.8C187.95,-158.66 191.29,-136.8 193.55,-122.03"/>
<text text-anchor="middle" x="193" y="-146.6" font-family="arial" font-size="8.00" fill="#3cb4a4">x</text>
</g>
</g>
</svg>
