<?xml version="1.0" encoding="UTF-8" standalone="no"?>
<!DOCTYPE svg PUBLIC "-//W3C//DTD SVG 1.1//EN"
 "http://www.w3.org/Graphics/SVG/1.1/DTD/svg11.dtd">
<!-- Generated by graphviz version 2.43.0 (0)
 -->
<!-- Title: G Pages: 1 -->
<svg width="368pt" height="359pt"
 viewBox="0.00 0.00 367.79 359.30" xmlns="http://www.w3.org/2000/svg" xmlns:xlink="http://www.w3.org/1999/xlink">
<g id="graph0" class="graph" transform="scale(1 1) rotate(0) translate(4 355.3)">
<title>G</title>
' points="-4,4 -4,-355.3 363.79,-355.3 363.79,4 -4,4"/>
<!-- node0 -->
<g id="node1" class="node">
<title>node0</title>
<polygon fill="#e98693" stroke="black" points="160.53,-351.3 103.05,-351.3 103.05,-315.3 160.53,-315.3 160.53,-351.3"/>
<text text-anchor="middle" x="131.79" y="-330.15" font-family="Arial" font-size="14.00" fill="#1a1919">0 Start</text>
</g>
<!-- node2 -->
<g id="node2" class="node">
<title>node2</title>
<polygon fill="#da2d4f" stroke="black" points="258.62,-278.3 4.96,-278.3 4.96,-242.3 258.62,-242.3 258.62,-278.3"/>
<text text-anchor="middle" x="131.79" y="-257.15" font-family="Arial" font-size="14.00" fill="#ffffff">2 New JavaExamples$ExampleObject</text>
</g>
<!-- node0&#45;&gt;node2 -->
<g id="edge1" class="edge">
<title>node0&#45;&gt;node2</title>
<path fill="none" stroke="#da2d4f" stroke-width="2" d="M131.79,-315.11C131.79,-307.09 131.79,-297.35 131.79,-288.37"/>
<polygon fill="#da2d4f" stroke="#da2d4f" stroke-width="2" points="135.29,-288.33 131.79,-278.33 128.29,-288.33 135.29,-288.33"/>
</g>
<!-- node4 -->
<g id="node3" class="node">
<title>node4</title>
<polygon fill="#f9f9f9" stroke="black" points="297.69,-190.2 159.89,-190.2 159.89,-154.2 297.69,-154.2 297.69,-190.2"/>
<text text-anchor="middle" x="228.79" y="-169.05" font-family="Arial" font-size="14.00" fill="#1a1919">4 MethodCallTarget</text>
</g>
<!-- node2&#45;&gt;node4 -->
<g id="edge3" class="edge">
<title>node2&#45;&gt;node4</title>
<path fill="none" stroke="#3cb4a4" d="M150.95,-242.29C165.47,-229.4 185.61,-211.53 201.76,-197.19"/>
<polygon fill="#3cb4a4" stroke="#3cb4a4" points="204.18,-199.72 209.33,-190.47 199.53,-194.49 204.18,-199.72"/>
<text text-anchor="middle" x="207.69" y="-213.1" font-family="arial" font-size="14.00" fill="#3cb4a4">arg[0]</text>
</g>
<!-- node5 -->
<g id="node4" class="node">
<title>node5</title>
<polygon fill="#da2d4f" stroke="black" points="287.37,-117.2 0.21,-117.2 0.21,-81.2 287.37,-81.2 287.37,-117.2"/>
<text text-anchor="middle" x="143.79" y="-96.05" font-family="Arial" font-size="14.00" fill="#ffffff">5 Call JavaExamples$ExampleObject.&lt;init&gt;</text>
</g>
<!-- node2&#45;&gt;node5 -->
<g id="edge2" class="edge">
<title>node2&#45;&gt;node5</title>
<path fill="none" stroke="#da2d4f" stroke-width="2" d="M133.07,-242.27C135.14,-214.9 139.21,-160.86 141.7,-127.89"/>
<polygon fill="#da2d4f" stroke="#da2d4f" stroke-width="2" points="145.22,-127.82 142.48,-117.59 138.24,-127.29 145.22,-127.82"/>
</g>
<!-- node4&#45;&gt;node5 -->
<g id="edge5" class="edge">
<title>node4&#45;&gt;node5</title>
<path fill="none" stroke="#343d46" stroke-dasharray="5,2" d="M200.33,-147.43C188.49,-137.53 175,-126.27 164.18,-117.23"/>
<polygon fill="#343d46" stroke="#343d46" points="198.29,-150.29 208.21,-154.01 202.78,-144.92 198.29,-150.29"/>
</g>
<!-- node9 -->
<g id="node5" class="node">
<title>node9</title>
<polygon fill="#e98693" stroke="black" points="272.49,-36 203.09,-36 203.09,0 272.49,0 272.49,-36"/>
<text text-anchor="middle" x="237.79" y="-14.85" font-family="Arial" font-size="14.00" fill="#1a1919">9 Return</text>
</g>
<!-- node5&#45;&gt;node9 -->
<g id="edge6" class="edge">
<title>node5&#45;&gt;node9</title>
<path fill="none" stroke="#da2d4f" stroke-width="2" d="M164.19,-81.01C177.49,-69.81 195.03,-55.02 209.65,-42.7"/>
<polygon fill="#da2d4f" stroke="#da2d4f" stroke-width="2" points="212.04,-45.27 217.43,-36.15 207.53,-39.92 212.04,-45.27"/>
</g>
<!-- inline3x4 -->
<g id="node6" class="node">
<title>inline3x4</title>
<ellipse fill="#d7ede7" stroke="black" cx="303.79" cy="-260.3" rx="27" ry="18"/>
<text text-anchor="middle" x="303.79" y="-258.5" font-family="Arial" font-size="8.00" fill="#1a1919">3 C(1)</text>
</g>
<!-- inline3x4&#45;&gt;node4 -->
<g id="edge4" class="edge">
<title>inline3x4&#45;&gt;node4</title>
<path fill="none" stroke="#3cb4a4" d="M290.73,-244.3C277.63,-229.27 257.5,-206.15 243.76,-190.39"/>
<text text-anchor="middle" x="284.02" y="-214.45" font-family="arial" font-size="8.00" fill="#3cb4a4">arg[1]</text>
</g>
<!-- inline3x9 -->
<g id="node7" class="node">
<title>inline3x9</title>
<ellipse fill="#d7ede7" stroke="black" cx="332.79" cy="-99.2" rx="27" ry="18"/>
<text text-anchor="middle" x="332.79" y="-97.4" font-family="Arial" font-size="8.00" fill="#1a1919">3 C(1)</text>
</g>
<!-- inline3x9&#45;&gt;node9 -->
<g id="edge7" class="edge">
<title>inline3x9&#45;&gt;node9</title>
<path fill="none" stroke="#3cb4a4" d="M316.24,-84.4C300.19,-71.02 275.78,-50.67 258.45,-36.23"/>
<text text-anchor="middle" x="298.57" y="-56.8" font-family="arial" font-size="8.00" fill="#3cb4a4">result</text>
</g>
</g>
</svg>
