<?xml version="1.0" encoding="UTF-8" standalone="no"?>
<!DOCTYPE svg PUBLIC "-//W3C//DTD SVG 1.1//EN"
 "http://www.w3.org/Graphics/SVG/1.1/DTD/svg11.dtd">
<!-- Generated by graphviz version 2.44.0 (20200408.0750)
 -->
<!-- Title: G Pages: 1 -->
<svg width="178pt" height="212pt"
 viewBox="0.00 0.00 178.00 212.00" xmlns="http://www.w3.org/2000/svg" xmlns:xlink="http://www.w3.org/1999/xlink">
<g id="graph0" class="graph" transform="scale(1 1) rotate(0) translate(4 208)">
<title>G</title>
<!-- node0 -->
<g id="node1" class="node">
<title>node0</title>
<polygon fill="#e98693" stroke="black" points="56,-123 0,-123 0,-87 56,-87 56,-123"/>
<text text-anchor="middle" x="28" y="-101.3" font-family="Arial" font-size="14.00" fill="#1a1919">0 Start</text>
</g>
<!-- node5 -->
<g id="node3" class="node">
<title>node5</title>
<polygon fill="#e98693" stroke="black" points="90,-36 22,-36 22,0 90,0 90,-36"/>
<text text-anchor="middle" x="56" y="-14.3" font-family="Arial" font-size="14.00" fill="#1a1919">5 Return</text>
</g>
<!-- node0&#45;&gt;node5 -->
<g id="edge1" class="edge">
<title>node0&#45;&gt;node5</title>
<path fill="none" stroke="#da2d4f" stroke-width="2" d="M33.67,-86.8C37.54,-75.05 42.75,-59.24 47.16,-45.84"/>
<polygon fill="#da2d4f" stroke="#da2d4f" stroke-width="2" points="50.54,-46.77 50.34,-36.18 43.89,-44.58 50.54,-46.77"/>
</g>
<!-- node4 -->
<g id="node2" class="node">
<title>node4</title>
<polygon fill="#3cb4a4" stroke="black" points="107,-123 73.82,-105 107,-87 140.18,-105 107,-123"/>
<text text-anchor="middle" x="107" y="-101.3" font-family="Arial" font-size="14.00" fill="#1a1919">4 +</text>
</g>
<!-- node4&#45;&gt;node5 -->
<g id="edge4" class="edge">
<title>node4&#45;&gt;node5</title>
<path fill="none" stroke="#3cb4a4" d="M99.25,-91.09C91.96,-78.94 80.82,-60.37 71.68,-45.13"/>
<polygon fill="#3cb4a4" stroke="#3cb4a4" points="74.44,-42.93 66.29,-36.15 68.44,-46.53 74.44,-42.93"/>
<text text-anchor="middle" x="101" y="-57.8" font-family="arial" font-size="14.00" fill="#3cb4a4">result</text>
</g>
<!-- inline1x4 -->
<g id="node4" class="node">
<title>inline1x4</title>
<ellipse fill="#d7ede7" stroke="black" cx="71" cy="-186" rx="27" ry="18"/>
<text text-anchor="middle" x="71" y="-184.1" font-family="Arial" font-size="8.00" fill="#1a1919">1 P(0)</text>
</g>
<!-- inline1x4&#45;&gt;node4 -->
<g id="edge2" class="edge">
<title>inline1x4&#45;&gt;node4</title>
<path fill="none" stroke="#3cb4a4" d="M78.46,-168.63C85.05,-154.17 94.55,-133.32 100.75,-119.72"/>
<text text-anchor="middle" x="92" y="-143.6" font-family="arial" font-size="8.00" fill="#3cb4a4">x</text>
</g>
<!-- inline2x4 -->
<g id="node5" class="node">
<title>inline2x4</title>
<ellipse fill="#d7ede7" stroke="black" cx="143" cy="-186" rx="27" ry="18"/>
<text text-anchor="middle" x="143" y="-184.1" font-family="Arial" font-size="8.00" fill="#1a1919">2 P(1)</text>
</g>
<!-- inline2x4&#45;&gt;node4 -->
<g id="edge3" class="edge">
<title>inline2x4&#45;&gt;node4</title>
<path fill="none" stroke="#3cb4a4" d="M135.54,-168.63C128.95,-154.17 119.45,-133.32 113.25,-119.72"/>
<text text-anchor="middle" x="128" y="-143.6" font-family="arial" font-size="8.00" fill="#3cb4a4">y</text>
</g>
</g>
</svg>
