<?xml version="1.0" encoding="UTF-8" standalone="no"?>
<!DOCTYPE svg PUBLIC "-//W3C//DTD SVG 1.1//EN"
 "http://www.w3.org/Graphics/SVG/1.1/DTD/svg11.dtd">
<!-- Generated by graphviz version 2.44.0 (20200408.0750)
 -->
<!-- Title: G Pages: 1 -->
<svg width="334pt" height="372pt"
 viewBox="0.00 0.00 333.69 372.00" xmlns="http://www.w3.org/2000/svg" xmlns:xlink="http://www.w3.org/1999/xlink">
<g id="graph0" class="graph" transform="scale(1 1) rotate(0) translate(4 368)">
<title>G</title>
<!-- node0 -->
<g id="node1" class="node">
<title>node0</title>
<polygon fill="#e98693" stroke="black" points="246.69,-364 190.69,-364 190.69,-328 246.69,-328 246.69,-364"/>
<text text-anchor="middle" x="218.69" y="-342.3" font-family="Arial" font-size="14.00" fill="#1a1919">0 Start</text>
</g>
<!-- node5 -->
<g id="node3" class="node">
<title>node5</title>
<polygon fill="#da2d4f" stroke="black" points="214.69,-277 108.69,-277 108.69,-241 214.69,-241 214.69,-277"/>
<text text-anchor="middle" x="161.69" y="-255.3" font-family="Arial" font-size="14.00" fill="#ffffff">5 MonitorEnter</text>
</g>
<!-- node0&#45;&gt;node5 -->
<g id="edge1" class="edge">
<title>node0&#45;&gt;node5</title>
<path fill="none" stroke="#da2d4f" stroke-width="2" d="M207.15,-327.8C199.04,-315.7 188.04,-299.3 178.9,-285.67"/>
<polygon fill="#da2d4f" stroke="#da2d4f" stroke-width="2" points="181.68,-283.53 173.2,-277.18 175.87,-287.43 181.68,-283.53"/>
</g>
<!-- node4 -->
<g id="node2" class="node">
<title>node4</title>
<polygon fill="#f9f9f9" stroke="black" points="87.19,-364 2.19,-364 2.19,-328 87.19,-328 87.19,-364"/>
<text text-anchor="middle" x="44.69" y="-342.3" font-family="Arial" font-size="14.00" fill="#1a1919">4 MonitorId</text>
</g>
<!-- node4&#45;&gt;node5 -->
<g id="edge3" class="edge">
<title>node4&#45;&gt;node5</title>
<path fill="none" stroke="#3cb4a4" d="M58.21,-327.78C66.97,-317.39 79.07,-304.39 91.69,-295 98.05,-290.26 105.15,-285.87 112.31,-281.91"/>
<polygon fill="#3cb4a4" stroke="#3cb4a4" points="114.17,-284.88 121.38,-277.12 110.91,-278.69 114.17,-284.88"/>
<text text-anchor="middle" x="120.69" y="-298.8" font-family="arial" font-size="14.00" fill="#3cb4a4">monitorId</text>
</g>
<!-- node9 -->
<g id="node5" class="node">
<title>node9</title>
<polygon fill="#da2d4f" stroke="black" points="186.69,-109 90.69,-109 90.69,-73 186.69,-73 186.69,-109"/>
<text text-anchor="middle" x="138.69" y="-87.3" font-family="Arial" font-size="14.00" fill="#ffffff">9 MonitorExit</text>
</g>
<!-- node4&#45;&gt;node9 -->
<g id="edge8" class="edge">
<title>node4&#45;&gt;node9</title>
<path fill="none" stroke="#3cb4a4" d="M34.96,-327.94C16.24,-292.61 -19.99,-210.11 14.69,-154 29.26,-130.41 55.83,-115.5 80.65,-106.23"/>
<polygon fill="#3cb4a4" stroke="#3cb4a4" points="82.12,-109.42 90.41,-102.83 79.81,-102.81 82.12,-109.42"/>
<text text-anchor="middle" x="30.69" y="-211.8" font-family="arial" font-size="14.00" fill="#3cb4a4">monitorId</text>
</g>
<!-- node7 -->
<g id="node4" class="node">
<title>node7</title>
<polygon fill="#da2d4f" stroke="black" points="253.19,-190 24.19,-190 24.19,-154 253.19,-154 253.19,-190"/>
<text text-anchor="middle" x="138.69" y="-168.3" font-family="Arial" font-size="14.00" fill="#ffffff">7 StoreField JavaExamples.intField</text>
</g>
<!-- node5&#45;&gt;node7 -->
<g id="edge4" class="edge">
<title>node5&#45;&gt;node7</title>
<path fill="none" stroke="#da2d4f" stroke-width="2" d="M157.03,-240.8C153.85,-229.05 149.57,-213.24 145.95,-199.84"/>
<polygon fill="#da2d4f" stroke="#da2d4f" stroke-width="2" points="149.32,-198.91 143.33,-190.18 142.57,-200.74 149.32,-198.91"/>
</g>
<!-- node7&#45;&gt;node9 -->
<g id="edge6" class="edge">
<title>node7&#45;&gt;node9</title>
<path fill="none" stroke="#da2d4f" stroke-width="2" d="M138.69,-153.86C138.69,-143.71 138.69,-130.63 138.69,-119.12"/>
<polygon fill="#da2d4f" stroke="#da2d4f" stroke-width="2" points="142.19,-119.11 138.69,-109.11 135.19,-119.11 142.19,-119.11"/>
</g>
<!-- node11 -->
<g id="node6" class="node">
<title>node11</title>
<polygon fill="#e98693" stroke="black" points="176.19,-36 101.19,-36 101.19,0 176.19,0 176.19,-36"/>
<text text-anchor="middle" x="138.69" y="-14.3" font-family="Arial" font-size="14.00" fill="#1a1919">11 Return</text>
</g>
<!-- node9&#45;&gt;node11 -->
<g id="edge9" class="edge">
<title>node9&#45;&gt;node11</title>
<path fill="none" stroke="#da2d4f" stroke-width="2" d="M138.69,-72.81C138.69,-64.79 138.69,-55.05 138.69,-46.07"/>
<polygon fill="#da2d4f" stroke="#da2d4f" stroke-width="2" points="142.19,-46.03 138.69,-36.03 135.19,-46.03 142.19,-46.03"/>
</g>
<!-- inline1x5 -->
<g id="node7" class="node">
<title>inline1x5</title>
<ellipse fill="#d7ede7" stroke="black" cx="145.69" cy="-346" rx="27" ry="18"/>
<text text-anchor="middle" x="145.69" y="-344.1" font-family="Arial" font-size="8.00" fill="#1a1919">1 P(0)</text>
</g>
<!-- inline1x5&#45;&gt;node5 -->
<g id="edge2" class="edge">
<title>inline1x5&#45;&gt;node5</title>
<path fill="none" stroke="#3cb4a4" d="M148.92,-327.8C151.7,-313.05 155.68,-291.92 158.45,-277.18"/>
<text text-anchor="middle" x="165.69" y="-300.6" font-family="arial" font-size="8.00" fill="#3cb4a4">object</text>
</g>
<!-- inline2x7 -->
<g id="node8" class="node">
<title>inline2x7</title>
<ellipse fill="#d7ede7" stroke="black" cx="63.69" cy="-259" rx="27" ry="18"/>
<text text-anchor="middle" x="63.69" y="-257.1" font-family="Arial" font-size="8.00" fill="#1a1919">2 P(1)</text>
</g>
<!-- inline2x7&#45;&gt;node7 -->
<g id="edge5" class="edge">
<title>inline2x7&#45;&gt;node7</title>
<path fill="none" stroke="#3cb4a4" d="M76.75,-243.19C89.76,-228.45 109.72,-205.83 123.45,-190.27"/>
<text text-anchor="middle" x="115.19" y="-213.6" font-family="arial" font-size="8.00" fill="#3cb4a4">value</text>
</g>
<!-- inline1x9 -->
<g id="node9" class="node">
<title>inline1x9</title>
<ellipse fill="#d7ede7" stroke="black" cx="298.69" cy="-172" rx="27" ry="18"/>
<text text-anchor="middle" x="298.69" y="-170.1" font-family="Arial" font-size="8.00" fill="#1a1919">1 P(0)</text>
</g>
<!-- inline1x9&#45;&gt;node9 -->
<g id="edge7" class="edge">
<title>inline1x9&#45;&gt;node9</title>
<path fill="none" stroke="#3cb4a4" d="M277.44,-160.51C250.83,-147.37 204.9,-124.69 173.22,-109.05"/>
<text text-anchor="middle" x="233.69" y="-129.6" font-family="arial" font-size="8.00" fill="#3cb4a4">object</text>
</g>
</g>
</svg>
