<?xml version="1.0" encoding="UTF-8" standalone="no"?>
<!DOCTYPE svg PUBLIC "-//W3C//DTD SVG 1.1//EN"
 "http://www.w3.org/Graphics/SVG/1.1/DTD/svg11.dtd">
<!-- Generated by graphviz version 2.43.0 (0)
 -->
<!-- Title: G Pages: 1 -->
<svg width="485pt" height="566pt"
 viewBox="0.00 0.00 484.68 565.69" xmlns="http://www.w3.org/2000/svg" xmlns:xlink="http://www.w3.org/1999/xlink">
<g id="graph0" class="graph" transform="scale(1 1) rotate(0) translate(4 561.69)">
<title>G</title>
' points="-4,4 -4,-561.69 480.68,-561.69 480.68,4 -4,4"/>
<!-- node0 -->
<g id="node1" class="node">
<title>node0</title>
<polygon fill="#e98693" stroke="black" points="191.42,-476.49 133.94,-476.49 133.94,-440.49 191.42,-440.49 191.42,-476.49"/>
<text text-anchor="middle" x="162.68" y="-455.34" font-family="Arial" font-size="14.00" fill="#1a1919">0 Start</text>
</g>
<!-- node8 -->
<g id="node4" class="node">
<title>node8</title>
<polygon fill="#ffa500" stroke="black" points="404.75,-388.39 152.61,-388.39 152.61,-352.39 404.75,-352.39 404.75,-388.39"/>
<text text-anchor="middle" x="278.68" y="-367.24" font-family="Arial" font-size="14.00" fill="#1a1919">8 Guard not, else NullCheckException</text>
</g>
<!-- node0&#45;&gt;node8 -->
<g id="edge4" class="edge">
<title>node0&#45;&gt;node8</title>
<path fill="none" stroke="#3cb4a4" d="M185.6,-440.48C203.2,-427.42 227.7,-409.23 247.15,-394.8"/>
<polygon fill="#3cb4a4" stroke="#3cb4a4" points="249.47,-397.43 255.41,-388.66 245.3,-391.81 249.47,-397.43"/>
<text text-anchor="middle" x="253.09" y="-411.29" font-family="arial" font-size="14.00" fill="#3cb4a4">anchor</text>
</g>
<!-- node12 -->
<g id="node7" class="node">
<title>node12</title>
<polygon fill="#da2d4f" stroke="black" points="281.55,-124.1 -0.18,-124.1 -0.18,-88.1 281.55,-88.1 281.55,-124.1"/>
<text text-anchor="middle" x="140.68" y="-102.95" font-family="Arial" font-size="14.00" fill="#ffffff">12 Read#JavaExamples$ExampleObject.x</text>
</g>
<!-- node0&#45;&gt;node12 -->
<g id="edge1" class="edge">
<title>node0&#45;&gt;node12</title>
<path fill="none" stroke="#da2d4f" stroke-width="2" d="M150.03,-440.33C138.97,-423.62 124.68,-397.05 124.68,-371.39 124.68,-371.39 124.68,-371.39 124.68,-193.2 124.68,-173.18 128.91,-150.98 133.03,-134.13"/>
<polygon fill="#da2d4f" stroke="#da2d4f" stroke-width="2" points="136.43,-134.96 135.53,-124.4 129.65,-133.21 136.43,-134.96"/>
</g>
<!-- node6 -->
<g id="node2" class="node">
<title>node6</title>
<polygon fill="#e98693" stroke="black" points="175.38,-36 105.99,-36 105.99,0 175.38,0 175.38,-36"/>
<text text-anchor="middle" x="140.68" y="-14.85" font-family="Arial" font-size="14.00" fill="#1a1919">6 Return</text>
</g>
<!-- node7 -->
<g id="node3" class="node">
<title>node7</title>
<polygon fill="#3cb4a4" stroke="black" points="309.87,-476.49 247.5,-476.49 247.5,-440.49 309.87,-440.49 309.87,-476.49"/>
<text text-anchor="middle" x="278.68" y="-455.34" font-family="Arial" font-size="14.00" fill="#1a1919">7 IsNull</text>
</g>
<!-- node7&#45;&gt;node8 -->
<g id="edge5" class="edge">
<title>node7&#45;&gt;node8</title>
<path fill="none" stroke="#3cb4a4" d="M278.68,-440.48C278.68,-428.65 278.68,-412.61 278.68,-398.97"/>
<polygon fill="#3cb4a4" stroke="#3cb4a4" points="282.18,-398.66 278.68,-388.66 275.18,-398.66 282.18,-398.66"/>
<text text-anchor="middle" x="282.58" y="-411.29" font-family="arial" font-size="14.00" fill="#3cb4a4">?</text>
</g>
<!-- node9 -->
<g id="node5" class="node">
<title>node9</title>
<polygon fill="#f9f9f9" stroke="black" points="305.68,-300.3 251.68,-300.3 251.68,-264.3 305.68,-264.3 305.68,-300.3"/>
<text text-anchor="middle" x="278.68" y="-279.15" font-family="Arial" font-size="14.00" fill="#1a1919">9 π</text>
</g>
<!-- node8&#45;&gt;node9 -->
<g id="edge6" class="edge">
<title>node8&#45;&gt;node9</title>
<path fill="none" stroke="#3cb4a4" d="M278.68,-352.38C278.68,-340.55 278.68,-324.51 278.68,-310.87"/>
<polygon fill="#3cb4a4" stroke="#3cb4a4" points="282.18,-310.57 278.68,-300.57 275.18,-310.57 282.18,-310.57"/>
<text text-anchor="middle" x="296.59" y="-323.19" font-family="arial" font-size="14.00" fill="#3cb4a4">guard</text>
</g>
<!-- node11 -->
<g id="node6" class="node">
<title>node11</title>
<polygon fill="#f9f9f9" stroke="black" points="340.06,-212.2 217.31,-212.2 217.31,-176.2 340.06,-176.2 340.06,-212.2"/>
<text text-anchor="middle" x="278.68" y="-191.05" font-family="Arial" font-size="14.00" fill="#1a1919">11 OffsetAddress</text>
</g>
<!-- node9&#45;&gt;node11 -->
<g id="edge8" class="edge">
<title>node9&#45;&gt;node11</title>
<path fill="none" stroke="#3cb4a4" d="M278.68,-264.29C278.68,-252.45 278.68,-236.42 278.68,-222.77"/>
<polygon fill="#3cb4a4" stroke="#3cb4a4" points="282.18,-222.47 278.68,-212.47 275.18,-222.47 282.18,-222.47"/>
<text text-anchor="middle" x="293.86" y="-235.1" font-family="arial" font-size="14.00" fill="#3cb4a4">base</text>
</g>
<!-- node11&#45;&gt;node12 -->
<g id="edge10" class="edge">
<title>node11&#45;&gt;node12</title>
<path fill="none" stroke="#3cb4a4" d="M251.42,-176.19C230.1,-162.89 200.28,-144.28 176.95,-129.73"/>
<polygon fill="#3cb4a4" stroke="#3cb4a4" points="178.7,-126.69 168.36,-124.37 174.99,-132.63 178.7,-126.69"/>
<text text-anchor="middle" x="247.59" y="-147" font-family="arial" font-size="14.00" fill="#3cb4a4">address</text>
</g>
<!-- node12&#45;&gt;node6 -->
<g id="edge2" class="edge">
<title>node12&#45;&gt;node6</title>
<path fill="none" stroke="#3cb4a4" d="M126.44,-87.96C122.78,-82.57 119.34,-76.38 117.45,-70.1 115.38,-63.25 115.38,-60.85 117.45,-54 118.4,-50.86 119.73,-47.74 121.28,-44.73"/>
<polygon fill="#3cb4a4" stroke="#3cb4a4" points="124.29,-46.51 126.44,-36.14 118.29,-42.91 124.29,-46.51"/>
<text text-anchor="middle" x="134.8" y="-58.9" font-family="arial" font-size="14.00" fill="#3cb4a4">result</text>
</g>
<!-- node12&#45;&gt;node6 -->
<g id="edge11" class="edge">
<title>node12&#45;&gt;node6</title>
<path fill="none" stroke="#da2d4f" stroke-width="2" d="M147.23,-87.9C149.05,-82.31 150.77,-76.02 151.68,-70.1 152.77,-63.03 152.77,-61.07 151.68,-54 151.27,-51.32 150.69,-48.56 150.01,-45.83"/>
<polygon fill="#da2d4f" stroke="#da2d4f" stroke-width="2" points="153.37,-44.83 147.23,-36.2 146.64,-46.78 153.37,-44.83"/>
</g>
<!-- inline1x7 -->
<g id="node8" class="node">
<title>inline1x7</title>
<ellipse fill="#d7ede7" stroke="black" cx="278.68" cy="-539.69" rx="27" ry="18"/>
<text text-anchor="middle" x="278.68" y="-537.89" font-family="Arial" font-size="8.00" fill="#1a1919">1 P(0)</text>
</g>
<!-- inline1x7&#45;&gt;node7 -->
<g id="edge3" class="edge">
<title>inline1x7&#45;&gt;node7</title>
<path fill="none" stroke="#3cb4a4" d="M278.68,-521.51C278.68,-508.22 278.68,-489.92 278.68,-476.64"/>
<text text-anchor="middle" x="288.24" y="-497.29" font-family="arial" font-size="8.00" fill="#3cb4a4">value</text>
</g>
<!-- inline1x9 -->
<g id="node9" class="node">
<title>inline1x9</title>
<ellipse fill="#d7ede7" stroke="black" cx="449.68" cy="-370.39" rx="27" ry="18"/>
<text text-anchor="middle" x="449.68" y="-368.59" font-family="Arial" font-size="8.00" fill="#1a1919">1 P(0)</text>
</g>
<!-- inline1x9&#45;&gt;node9 -->
<g id="edge7" class="edge">
<title>inline1x9&#45;&gt;node9</title>
<path fill="none" stroke="#3cb4a4" d="M428.71,-358.84C397.77,-343.26 339.85,-314.1 305.74,-296.92"/>
<text text-anchor="middle" x="389.36" y="-324.54" font-family="arial" font-size="8.00" fill="#3cb4a4">object</text>
</g>
<!-- inline10x11 -->
<g id="node10" class="node">
<title>inline10x11</title>
<ellipse fill="#d7ede7" stroke="black" cx="350.68" cy="-282.3" rx="27" ry="18"/>
<text text-anchor="middle" x="350.68" y="-280.5" font-family="Arial" font-size="8.00" fill="#1a1919">10 C(12)</text>
</g>
<!-- inline10x11&#45;&gt;node11 -->
<g id="edge9" class="edge">
<title>inline10x11&#45;&gt;node11</title>
<path fill="none" stroke="#3cb4a4" d="M339.89,-265.69C332.54,-255.35 322.43,-241.65 312.68,-230.2 307.52,-224.13 301.57,-217.8 296.1,-212.22"/>
<text text-anchor="middle" x="334.39" y="-236.45" font-family="arial" font-size="8.00" fill="#3cb4a4">offset</text>
</g>
</g>
</svg>
