<?xml version="1.0" encoding="UTF-8" standalone="no"?>
<!DOCTYPE svg PUBLIC "-//W3C//DTD SVG 1.1//EN"
 "http://www.w3.org/Graphics/SVG/1.1/DTD/svg11.dtd">
<!-- Generated by graphviz version 2.43.0 (0)
 -->
<!-- Title: G Pages: 1 -->
<svg width="210pt" height="198pt"
 viewBox="0.00 0.00 209.62 198.20" xmlns="http://www.w3.org/2000/svg" xmlns:xlink="http://www.w3.org/1999/xlink">
<g id="graph0" class="graph" transform="scale(1 1) rotate(0) translate(4 194.2)">
<title>G</title>
' points="-4,4 -4,-194.2 205.62,-194.2 205.62,4 -4,4"/>
<!-- node0 -->
<g id="node1" class="node">
<title>node0</title>
<polygon fill="#e98693" stroke="black" points="57.36,-190.2 -0.12,-190.2 -0.12,-154.2 57.36,-154.2 57.36,-190.2"/>
<text text-anchor="middle" x="28.62" y="-169.05" font-family="Arial" font-size="14.00" fill="#1a1919">0 Start</text>
</g>
<!-- node5 -->
<g id="node2" class="node">
<title>node5</title>
<polygon fill="#da2d4f" stroke="black" points="180.68,-109 24.57,-109 24.57,-73 180.68,-73 180.68,-109"/>
<text text-anchor="middle" x="102.62" y="-87.85" font-family="Arial" font-size="14.00" fill="#ffffff">5 UnsafeMemoryStore</text>
</g>
<!-- node0&#45;&gt;node5 -->
<g id="edge1" class="edge">
<title>node0&#45;&gt;node5</title>
<path fill="none" stroke="#da2d4f" stroke-width="2" d="M44.68,-154.01C54.86,-143.12 68.2,-128.84 79.51,-116.74"/>
<polygon fill="#da2d4f" stroke="#da2d4f" stroke-width="2" points="82.33,-118.85 86.6,-109.15 77.21,-114.07 82.33,-118.85"/>
</g>
<!-- node7 -->
<g id="node3" class="node">
<title>node7</title>
<polygon fill="#e98693" stroke="black" points="137.32,-36 67.92,-36 67.92,0 137.32,0 137.32,-36"/>
<text text-anchor="middle" x="102.62" y="-14.85" font-family="Arial" font-size="14.00" fill="#1a1919">7 Return</text>
</g>
<!-- node5&#45;&gt;node7 -->
<g id="edge4" class="edge">
<title>node5&#45;&gt;node7</title>
<path fill="none" stroke="#da2d4f" stroke-width="2" d="M102.62,-72.81C102.62,-64.79 102.62,-55.05 102.62,-46.07"/>
<polygon fill="#da2d4f" stroke="#da2d4f" stroke-width="2" points="106.12,-46.03 102.62,-36.03 99.12,-46.03 106.12,-46.03"/>
</g>
<!-- inline2x5 -->
<g id="node4" class="node">
<title>inline2x5</title>
<ellipse fill="#d7ede7" stroke="black" cx="102.62" cy="-172.2" rx="27" ry="18"/>
<text text-anchor="middle" x="102.62" y="-170.4" font-family="Arial" font-size="8.00" fill="#1a1919">2 P(1)</text>
</g>
<!-- inline2x5&#45;&gt;node5 -->
<g id="edge2" class="edge">
<title>inline2x5&#45;&gt;node5</title>
<path fill="none" stroke="#3cb4a4" d="M102.62,-154.01C102.62,-140.73 102.62,-122.43 102.62,-109.15"/>
<text text-anchor="middle" x="112.18" y="-129.8" font-family="arial" font-size="8.00" fill="#3cb4a4">value</text>
</g>
<!-- inline1x5 -->
<g id="node5" class="node">
<title>inline1x5</title>
<ellipse fill="#d7ede7" stroke="black" cx="174.62" cy="-172.2" rx="27" ry="18"/>
<text text-anchor="middle" x="174.62" y="-170.4" font-family="Arial" font-size="8.00" fill="#1a1919">1 P(0)</text>
</g>
<!-- inline1x5&#45;&gt;node5 -->
<g id="edge3" class="edge">
<title>inline1x5&#45;&gt;node5</title>
<path fill="none" stroke="#3cb4a4" d="M161.08,-156.3C148.86,-142.86 130.89,-123.09 118.1,-109.03"/>
<text text-anchor="middle" x="154.85" y="-129.8" font-family="arial" font-size="8.00" fill="#3cb4a4">address</text>
</g>
</g>
</svg>
