<?xml version="1.0" encoding="UTF-8" standalone="no"?>
<!DOCTYPE svg PUBLIC "-//W3C//DTD SVG 1.1//EN"
 "http://www.w3.org/Graphics/SVG/1.1/DTD/svg11.dtd">
<!-- Generated by graphviz version 2.43.0 (0)
 -->
<!-- Title: G Pages: 1 -->
<svg width="557pt" height="801pt"
 viewBox="0.00 0.00 557.38 801.09" xmlns="http://www.w3.org/2000/svg" xmlns:xlink="http://www.w3.org/1999/xlink">
<g id="graph0" class="graph" transform="scale(1 1) rotate(0) translate(4 797.09)">
<title>G</title>
' points="-4,4 -4,-797.09 553.38,-797.09 553.38,4 -4,4"/>
<!-- node0 -->
<g id="node1" class="node">
<title>node0</title>
<polygon fill="#e98693" stroke="black" points="234.76,-711.89 177.28,-711.89 177.28,-675.89 234.76,-675.89 234.76,-711.89"/>
<text text-anchor="middle" x="206.02" y="-690.74" font-family="Arial" font-size="14.00" fill="#1a1919">0 Start</text>
</g>
<!-- node20 -->
<g id="node6" class="node">
<title>node20</title>
<polygon fill="#ffa500" stroke="black" points="492.37,-623.79 231.66,-623.79 231.66,-587.79 492.37,-587.79 492.37,-623.79"/>
<text text-anchor="middle" x="362.02" y="-602.64" font-family="Arial" font-size="14.00" fill="#1a1919">20 Guard not, else NullCheckException</text>
</g>
<!-- node0&#45;&gt;node20 -->
<g id="edge6" class="edge">
<title>node0&#45;&gt;node20</title>
<path fill="none" stroke="#3cb4a4" d="M234.99,-676.9C259.53,-663.35 294.96,-643.8 322.17,-628.78"/>
<polygon fill="#3cb4a4" stroke="#3cb4a4" points="323.99,-631.78 331.06,-623.88 320.61,-625.65 323.99,-631.78"/>
<text text-anchor="middle" x="319.42" y="-646.69" font-family="arial" font-size="14.00" fill="#3cb4a4">anchor</text>
</g>
<!-- node23 -->
<g id="node9" class="node">
<title>node23</title>
<polygon fill="#da2d4f" stroke="black" points="220.63,-359.5 77.4,-359.5 77.4,-323.5 220.63,-323.5 220.63,-359.5"/>
<text text-anchor="middle" x="149.02" y="-338.35" font-family="Arial" font-size="14.00" fill="#ffffff">23 RawMonitorEnter</text>
</g>
<!-- node0&#45;&gt;node23 -->
<g id="edge1" class="edge">
<title>node0&#45;&gt;node23</title>
<path fill="none" stroke="#da2d4f" stroke-width="2" d="M178.04,-675.73C157.09,-660.51 132.02,-636.16 132.02,-606.79 132.02,-606.79 132.02,-606.79 132.02,-428.6 132.02,-408.53 136.51,-386.33 140.88,-369.5"/>
<polygon fill="#da2d4f" stroke="#da2d4f" stroke-width="2" points="144.28,-370.35 143.54,-359.78 137.53,-368.5 144.28,-370.35"/>
</g>
<!-- node4 -->
<g id="node2" class="node">
<title>node4</title>
<polygon fill="#f9f9f9" stroke="black" points="86.05,-447.6 -0.02,-447.6 -0.02,-411.6 86.05,-411.6 86.05,-447.6"/>
<text text-anchor="middle" x="43.02" y="-426.45" font-family="Arial" font-size="14.00" fill="#1a1919">4 MonitorId</text>
</g>
<!-- node16 -->
<g id="node3" class="node">
<title>node16</title>
<polygon fill="#da2d4f" stroke="black" points="369,-109 263.03,-109 263.03,-73 369,-73 369,-109"/>
<text text-anchor="middle" x="316.02" y="-87.85" font-family="Arial" font-size="14.00" fill="#ffffff">16 MonitorExit</text>
</g>
<!-- node4&#45;&gt;node16 -->
<g id="edge3" class="edge">
<title>node4&#45;&gt;node16</title>
<path fill="none" stroke="#3cb4a4" d="M37.54,-411.31C32.57,-394.07 26.02,-366.72 26.02,-342.5 26.02,-342.5 26.02,-342.5 26.02,-171.2 26.02,-124.49 167.76,-104.38 253.06,-96.51"/>
<polygon fill="#3cb4a4" stroke="#3cb4a4" points="253.51,-99.98 263.16,-95.61 252.89,-93.01 253.51,-99.98"/>
<text text-anchor="middle" x="55.2" y="-250.25" font-family="arial" font-size="14.00" fill="#3cb4a4">monitorId</text>
</g>
<!-- node4&#45;&gt;node23 -->
<g id="edge12" class="edge">
<title>node4&#45;&gt;node23</title>
<path fill="none" stroke="#3cb4a4" d="M44.82,-411.52C46.8,-400.57 50.95,-386.73 59.66,-377.5 64.34,-372.53 69.82,-368.26 75.71,-364.58"/>
<polygon fill="#3cb4a4" stroke="#3cb4a4" points="77.58,-367.55 84.6,-359.61 74.16,-361.44 77.58,-367.55"/>
<text text-anchor="middle" x="89.2" y="-382.4" font-family="arial" font-size="14.00" fill="#3cb4a4">monitorId</text>
</g>
<!-- node18 -->
<g id="node4" class="node">
<title>node18</title>
<polygon fill="#e98693" stroke="black" points="355,-36 277.03,-36 277.03,0 355,0 355,-36"/>
<text text-anchor="middle" x="316.02" y="-14.85" font-family="Arial" font-size="14.00" fill="#1a1919">18 Return</text>
</g>
<!-- node16&#45;&gt;node18 -->
<g id="edge4" class="edge">
<title>node16&#45;&gt;node18</title>
<path fill="none" stroke="#da2d4f" stroke-width="2" d="M316.02,-72.81C316.02,-64.79 316.02,-55.05 316.02,-46.07"/>
<polygon fill="#da2d4f" stroke="#da2d4f" stroke-width="2" points="319.52,-46.03 316.02,-36.03 312.52,-46.03 319.52,-46.03"/>
</g>
<!-- node19 -->
<g id="node5" class="node">
<title>node19</title>
<polygon fill="#3cb4a4" stroke="black" points="397.49,-711.89 326.55,-711.89 326.55,-675.89 397.49,-675.89 397.49,-711.89"/>
<text text-anchor="middle" x="362.02" y="-690.74" font-family="Arial" font-size="14.00" fill="#1a1919">19 IsNull</text>
</g>
<!-- node19&#45;&gt;node20 -->
<g id="edge7" class="edge">
<title>node19&#45;&gt;node20</title>
<path fill="none" stroke="#3cb4a4" d="M362.02,-675.88C362.02,-664.05 362.02,-648.01 362.02,-634.37"/>
<polygon fill="#3cb4a4" stroke="#3cb4a4" points="365.52,-634.06 362.02,-624.06 358.52,-634.06 365.52,-634.06"/>
<text text-anchor="middle" x="365.91" y="-646.69" font-family="arial" font-size="14.00" fill="#3cb4a4">?</text>
</g>
<!-- node21 -->
<g id="node7" class="node">
<title>node21</title>
<polygon fill="#f9f9f9" stroke="black" points="262.02,-535.69 208.02,-535.69 208.02,-499.69 262.02,-499.69 262.02,-535.69"/>
<text text-anchor="middle" x="235.02" y="-514.54" font-family="Arial" font-size="14.00" fill="#1a1919">21 π</text>
</g>
<!-- node20&#45;&gt;node21 -->
<g id="edge8" class="edge">
<title>node20&#45;&gt;node21</title>
<path fill="none" stroke="#3cb4a4" d="M336.93,-587.78C317.48,-574.6 290.35,-556.21 268.97,-541.71"/>
<polygon fill="#3cb4a4" stroke="#3cb4a4" points="270.73,-538.68 260.49,-535.96 266.8,-544.47 270.73,-538.68"/>
<text text-anchor="middle" x="327.92" y="-558.59" font-family="arial" font-size="14.00" fill="#3cb4a4">guard</text>
</g>
<!-- node22 -->
<g id="node8" class="node">
<title>node22</title>
<polygon fill="#f9f9f9" stroke="black" points="252.31,-447.6 159.73,-447.6 159.73,-411.6 252.31,-411.6 252.31,-447.6"/>
<text text-anchor="middle" x="206.02" y="-426.45" font-family="Arial" font-size="14.00" fill="#1a1919">22 LoadHub</text>
</g>
<!-- node21&#45;&gt;node22 -->
<g id="edge10" class="edge">
<title>node21&#45;&gt;node22</title>
<path fill="none" stroke="#3cb4a4" d="M229.29,-499.68C225.22,-487.62 219.69,-471.18 215.03,-457.36"/>
<polygon fill="#3cb4a4" stroke="#3cb4a4" points="218.34,-456.23 211.83,-447.87 211.71,-458.46 218.34,-456.23"/>
<text text-anchor="middle" x="240.75" y="-470.49" font-family="arial" font-size="14.00" fill="#3cb4a4">value</text>
</g>
<!-- node21&#45;&gt;node23 -->
<g id="edge11" class="edge">
<title>node21&#45;&gt;node23</title>
<path fill="none" stroke="#3cb4a4" d="M251.21,-499.43C255.2,-494.13 258.93,-488.02 261.02,-481.69 270.8,-452.12 275.7,-439.07 261.02,-411.6 249.67,-390.36 228.68,-374.89 207.91,-364.05"/>
<polygon fill="#3cb4a4" stroke="#3cb4a4" points="209.25,-360.81 198.74,-359.54 206.16,-367.09 209.25,-360.81"/>
<text text-anchor="middle" x="289.7" y="-426.45" font-family="arial" font-size="14.00" fill="#3cb4a4">object</text>
</g>
<!-- node22&#45;&gt;node23 -->
<g id="edge13" class="edge">
<title>node22&#45;&gt;node23</title>
<path fill="none" stroke="#3cb4a4" d="M194.76,-411.59C186.61,-399.28 175.46,-382.44 166.21,-368.46"/>
<polygon fill="#3cb4a4" stroke="#3cb4a4" points="168.89,-366.17 160.45,-359.77 163.05,-370.04 168.89,-366.17"/>
<text text-anchor="middle" x="194.7" y="-382.4" font-family="arial" font-size="14.00" fill="#3cb4a4">hub</text>
</g>
<!-- node27 -->
<g id="node11" class="node">
<title>node27</title>
<polygon fill="#da2d4f" stroke="black" points="317.74,-271.4 102.3,-271.4 102.3,-235.4 317.74,-235.4 317.74,-271.4"/>
<text text-anchor="middle" x="210.02" y="-250.25" font-family="Arial" font-size="14.00" fill="#ffffff">27 Write#JavaExamples.intField</text>
</g>
<!-- node23&#45;&gt;node27 -->
<g id="edge14" class="edge">
<title>node23&#45;&gt;node27</title>
<path fill="none" stroke="#da2d4f" stroke-width="2" d="M161.07,-323.49C169.87,-311.07 181.95,-294.02 191.9,-279.96"/>
<polygon fill="#da2d4f" stroke="#da2d4f" stroke-width="2" points="194.86,-281.85 197.78,-271.67 189.14,-277.8 194.86,-281.85"/>
</g>
<!-- node26 -->
<g id="node10" class="node">
<title>node26</title>
<polygon fill="#f9f9f9" stroke="black" points="474.93,-359.5 351.1,-359.5 351.1,-323.5 474.93,-323.5 474.93,-359.5"/>
<text text-anchor="middle" x="413.02" y="-338.35" font-family="Arial" font-size="14.00" fill="#1a1919">26 OffsetAddress</text>
</g>
<!-- node26&#45;&gt;node27 -->
<g id="edge17" class="edge">
<title>node26&#45;&gt;node27</title>
<path fill="none" stroke="#3cb4a4" d="M372.91,-323.49C340.49,-309.73 294.67,-290.3 259.89,-275.55"/>
<polygon fill="#3cb4a4" stroke="#3cb4a4" points="260.96,-272.2 250.39,-271.52 258.23,-278.65 260.96,-272.2"/>
<text text-anchor="middle" x="354.92" y="-294.3" font-family="arial" font-size="14.00" fill="#3cb4a4">address</text>
</g>
<!-- node29 -->
<g id="node12" class="node">
<title>node29</title>
<polygon fill="#da2d4f" stroke="black" points="423.74,-190.2 208.3,-190.2 208.3,-154.2 423.74,-154.2 423.74,-190.2"/>
<text text-anchor="middle" x="316.02" y="-169.05" font-family="Arial" font-size="14.00" fill="#ffffff">29 Write#JavaExamples.intField</text>
</g>
<!-- node26&#45;&gt;node29 -->
<g id="edge20" class="edge">
<title>node26&#45;&gt;node29</title>
<path fill="none" stroke="#3cb4a4" d="M414.56,-323.23C415.69,-301.3 414.88,-263.01 399.02,-235.4 389.72,-219.21 374.35,-205.94 359.34,-195.87"/>
<polygon fill="#3cb4a4" stroke="#3cb4a4" points="360.91,-192.72 350.59,-190.31 357.16,-198.63 360.91,-192.72"/>
<text text-anchor="middle" x="435.92" y="-250.25" font-family="arial" font-size="14.00" fill="#3cb4a4">address</text>
</g>
<!-- node27&#45;&gt;node29 -->
<g id="edge19" class="edge">
<title>node27&#45;&gt;node29</title>
<path fill="none" stroke="#da2d4f" stroke-width="2" d="M233.02,-235.21C248.16,-223.9 268.17,-208.95 284.75,-196.56"/>
<polygon fill="#da2d4f" stroke="#da2d4f" stroke-width="2" points="287.15,-199.14 293.06,-190.35 282.96,-193.53 287.15,-199.14"/>
</g>
<!-- node29&#45;&gt;node16 -->
<g id="edge22" class="edge">
<title>node29&#45;&gt;node16</title>
<path fill="none" stroke="#da2d4f" stroke-width="2" d="M316.02,-154.01C316.02,-143.84 316.02,-130.73 316.02,-119.19"/>
<polygon fill="#da2d4f" stroke="#da2d4f" stroke-width="2" points="319.52,-119.15 316.02,-109.15 312.52,-119.15 319.52,-119.15"/>
</g>
<!-- inline1x16 -->
<g id="node13" class="node">
<title>inline1x16</title>
<ellipse fill="#d7ede7" stroke="black" cx="469.02" cy="-172.2" rx="27" ry="18"/>
<text text-anchor="middle" x="469.02" y="-170.4" font-family="Arial" font-size="8.00" fill="#1a1919">1 P(0)</text>
</g>
<!-- inline1x16&#45;&gt;node16 -->
<g id="edge2" class="edge">
<title>inline1x16&#45;&gt;node16</title>
<path fill="none" stroke="#3cb4a4" d="M448.38,-160.52C422.85,-147.3 379.07,-124.64 348.89,-109.02"/>
<text text-anchor="middle" x="407.69" y="-129.8" font-family="arial" font-size="8.00" fill="#3cb4a4">object</text>
</g>
<!-- inline1x19 -->
<g id="node14" class="node">
<title>inline1x19</title>
<ellipse fill="#d7ede7" stroke="black" cx="362.02" cy="-775.09" rx="27" ry="18"/>
<text text-anchor="middle" x="362.02" y="-773.29" font-family="Arial" font-size="8.00" fill="#1a1919">1 P(0)</text>
</g>
<!-- inline1x19&#45;&gt;node19 -->
<g id="edge5" class="edge">
<title>inline1x19&#45;&gt;node19</title>
<path fill="none" stroke="#3cb4a4" d="M362.02,-756.91C362.02,-743.62 362.02,-725.32 362.02,-712.04"/>
<text text-anchor="middle" x="371.58" y="-732.69" font-family="arial" font-size="8.00" fill="#3cb4a4">value</text>
</g>
<!-- inline1x21 -->
<g id="node15" class="node">
<title>inline1x21</title>
<ellipse fill="#d7ede7" stroke="black" cx="187.02" cy="-605.79" rx="27" ry="18"/>
<text text-anchor="middle" x="187.02" y="-603.99" font-family="Arial" font-size="8.00" fill="#1a1919">1 P(0)</text>
</g>
<!-- inline1x21&#45;&gt;node21 -->
<g id="edge9" class="edge">
<title>inline1x21&#45;&gt;node21</title>
<path fill="none" stroke="#3cb4a4" d="M196.05,-588.6C204.46,-573.5 216.98,-551.06 225.54,-535.7"/>
<text text-anchor="middle" x="226.69" y="-559.94" font-family="arial" font-size="8.00" fill="#3cb4a4">object</text>
</g>
<!-- inline24x26 -->
<g id="node16" class="node">
<title>inline24x26</title>
<ellipse fill="#d7ede7" stroke="black" cx="498.02" cy="-429.6" rx="51.23" ry="18"/>
<text text-anchor="middle" x="498.02" y="-427.8" font-family="Arial" font-size="8.00" fill="#1a1919">24 C(instance:Class)</text>
</g>
<!-- inline24x26&#45;&gt;node26 -->
<g id="edge15" class="edge">
<title>inline24x26&#45;&gt;node26</title>
<path fill="none" stroke="#3cb4a4" d="M482.03,-412.4C467.12,-397.3 444.97,-374.86 429.81,-359.5"/>
<text text-anchor="middle" x="471.69" y="-383.75" font-family="arial" font-size="8.00" fill="#3cb4a4">base</text>
</g>
<!-- inline25x26 -->
<g id="node17" class="node">
<title>inline25x26</title>
<ellipse fill="#d7ede7" stroke="black" cx="399.02" cy="-429.6" rx="29.21" ry="18"/>
<text text-anchor="middle" x="399.02" y="-427.8" font-family="Arial" font-size="8.00" fill="#1a1919">25 C(128)</text>
</g>
<!-- inline25x26&#45;&gt;node26 -->
<g id="edge16" class="edge">
<title>inline25x26&#45;&gt;node26</title>
<path fill="none" stroke="#3cb4a4" d="M401.78,-411.59C404.22,-396.59 407.76,-374.84 410.21,-359.77"/>
<text text-anchor="middle" x="416.73" y="-383.75" font-family="arial" font-size="8.00" fill="#3cb4a4">offset</text>
</g>
<!-- inline2x27 -->
<g id="node18" class="node">
<title>inline2x27</title>
<ellipse fill="#d7ede7" stroke="black" cx="266.02" cy="-341.5" rx="27" ry="18"/>
<text text-anchor="middle" x="266.02" y="-339.7" font-family="Arial" font-size="8.00" fill="#1a1919">2 P(1)</text>
</g>
<!-- inline2x27&#45;&gt;node27 -->
<g id="edge18" class="edge">
<title>inline2x27&#45;&gt;node27</title>
<path fill="none" stroke="#3cb4a4" d="M255.75,-324.71C245.96,-309.66 231.26,-287.06 221.18,-271.57"/>
<text text-anchor="middle" x="253.58" y="-295.65" font-family="arial" font-size="8.00" fill="#3cb4a4">value</text>
</g>
<!-- inline2x29 -->
<g id="node19" class="node">
<title>inline2x29</title>
<ellipse fill="#d7ede7" stroke="black" cx="363.02" cy="-253.4" rx="27" ry="18"/>
<text text-anchor="middle" x="363.02" y="-251.6" font-family="Arial" font-size="8.00" fill="#1a1919">2 P(1)</text>
</g>
<!-- inline2x29&#45;&gt;node29 -->
<g id="edge21" class="edge">
<title>inline2x29&#45;&gt;node29</title>
<path fill="none" stroke="#3cb4a4" d="M353.51,-236.37C345.57,-222.99 334.28,-203.97 326.16,-190.3"/>
<text text-anchor="middle" x="350.58" y="-211" font-family="arial" font-size="8.00" fill="#3cb4a4">value</text>
</g>
</g>
</svg>
