<?xml version="1.0" encoding="UTF-8" standalone="no"?>
<!DOCTYPE svg PUBLIC "-//W3C//DTD SVG 1.1//EN"
 "http://www.w3.org/Graphics/SVG/1.1/DTD/svg11.dtd">
<!-- Generated by graphviz version 2.43.0 (0)
 -->
<!-- Title: G Pages: 1 -->
<svg width="402pt" height="389pt"
 viewBox="0.00 0.00 402.12 389.50" xmlns="http://www.w3.org/2000/svg" xmlns:xlink="http://www.w3.org/1999/xlink">
<g id="graph0" class="graph" transform="scale(1 1) rotate(0) translate(4 385.5)">
<title>G</title>
' points="-4,4 -4,-385.5 398.12,-385.5 398.12,4 -4,4"/>
<!-- node0 -->
<g id="node1" class="node">
<title>node0</title>
<polygon fill="#e98693" stroke="black" points="137.86,-300.3 80.37,-300.3 80.37,-264.3 137.86,-264.3 137.86,-300.3"/>
<text text-anchor="middle" x="109.12" y="-279.15" font-family="Arial" font-size="14.00" fill="#1a1919">0 Start</text>
</g>
<!-- node5 -->
<g id="node3" class="node">
<title>node5</title>
<polygon fill="#ffa500" stroke="black" points="250.35,-212.2 -0.12,-212.2 -0.12,-176.2 250.35,-176.2 250.35,-212.2"/>
<text text-anchor="middle" x="125.12" y="-191.05" font-family="Arial" font-size="14.00" fill="#1a1919">5 Guard not, else ArithmeticException</text>
</g>
<!-- node0&#45;&gt;node5 -->
<g id="edge1" class="edge">
<title>node0&#45;&gt;node5</title>
<path fill="none" stroke="#da2d4f" stroke-width="2" d="M112.28,-264.29C114.5,-252.34 117.52,-236.1 120.07,-222.37"/>
<polygon fill="#da2d4f" stroke="#da2d4f" stroke-width="2" points="123.52,-222.94 121.91,-212.47 116.64,-221.66 123.52,-222.94"/>
</g>
<!-- node4 -->
<g id="node2" class="node">
<title>node4</title>
<polygon fill="#3cb4a4" stroke="black" points="342.54,-300.3 155.7,-300.3 155.7,-264.3 342.54,-264.3 342.54,-300.3"/>
<text text-anchor="middle" x="249.12" y="-279.15" font-family="Arial" font-size="14.00" fill="#1a1919">4 IntegerAddExactOverflow</text>
</g>
<!-- node4&#45;&gt;node5 -->
<g id="edge4" class="edge">
<title>node4&#45;&gt;node5</title>
<path fill="none" stroke="#3cb4a4" d="M224.62,-264.29C205.64,-251.11 179.14,-232.71 158.26,-218.21"/>
<polygon fill="#3cb4a4" stroke="#3cb4a4" points="160.2,-215.3 149.99,-212.47 156.21,-221.05 160.2,-215.3"/>
<text text-anchor="middle" x="203.01" y="-235.1" font-family="arial" font-size="14.00" fill="#3cb4a4">?</text>
</g>
<!-- node6 -->
<g id="node4" class="node">
<title>node6</title>
<polygon fill="#3cb4a4" stroke="black" points="341.8,-124.1 210.43,-124.1 210.43,-88.1 341.8,-88.1 341.8,-124.1"/>
<text text-anchor="middle" x="276.12" y="-102.95" font-family="Arial" font-size="14.00" fill="#1a1919">6 IntegerAddExact</text>
</g>
<!-- node5&#45;&gt;node6 -->
<g id="edge8" class="edge">
<title>node5&#45;&gt;node6</title>
<path fill="none" stroke="#3cb4a4" d="M154.95,-176.19C178.55,-162.73 211.69,-143.83 237.35,-129.2"/>
<polygon fill="#3cb4a4" stroke="#3cb4a4" points="239.13,-132.21 246.09,-124.22 235.67,-126.13 239.13,-132.21"/>
<text text-anchor="middle" x="233.02" y="-147" font-family="arial" font-size="14.00" fill="#3cb4a4">guard</text>
</g>
<!-- node7 -->
<g id="node5" class="node">
<title>node7</title>
<polygon fill="#e98693" stroke="black" points="194.81,-36 125.42,-36 125.42,0 194.81,0 194.81,-36"/>
<text text-anchor="middle" x="160.12" y="-14.85" font-family="Arial" font-size="14.00" fill="#1a1919">7 Return</text>
</g>
<!-- node5&#45;&gt;node7 -->
<g id="edge5" class="edge">
<title>node5&#45;&gt;node7</title>
<path fill="none" stroke="#da2d4f" stroke-width="2" d="M128.54,-176.18C134.63,-145.87 147.39,-82.32 154.69,-45.99"/>
<polygon fill="#da2d4f" stroke="#da2d4f" stroke-width="2" points="158.14,-46.58 156.68,-36.09 151.28,-45.2 158.14,-46.58"/>
</g>
<!-- node6&#45;&gt;node7 -->
<g id="edge9" class="edge">
<title>node6&#45;&gt;node7</title>
<path fill="none" stroke="#3cb4a4" d="M253.2,-88.09C235.6,-75.03 211.1,-56.84 191.65,-42.4"/>
<polygon fill="#3cb4a4" stroke="#3cb4a4" points="193.5,-39.42 183.38,-36.27 189.33,-45.04 193.5,-39.42"/>
<text text-anchor="middle" x="246.23" y="-58.9" font-family="arial" font-size="14.00" fill="#3cb4a4">result</text>
</g>
<!-- inline1x4 -->
<g id="node6" class="node">
<title>inline1x4</title>
<ellipse fill="#d7ede7" stroke="black" cx="213.12" cy="-363.5" rx="27" ry="18"/>
<text text-anchor="middle" x="213.12" y="-361.69" font-family="Arial" font-size="8.00" fill="#1a1919">1 P(0)</text>
</g>
<!-- inline1x4&#45;&gt;node4 -->
<g id="edge2" class="edge">
<title>inline1x4&#45;&gt;node4</title>
<path fill="none" stroke="#3cb4a4" d="M220.58,-346.08C226.63,-332.76 235.14,-314.04 241.29,-300.51"/>
<text text-anchor="middle" x="235.12" y="-321.1" font-family="arial" font-size="8.00" fill="#3cb4a4">x</text>
</g>
<!-- inline2x4 -->
<g id="node7" class="node">
<title>inline2x4</title>
<ellipse fill="#d7ede7" stroke="black" cx="285.12" cy="-363.5" rx="27" ry="18"/>
<text text-anchor="middle" x="285.12" y="-361.69" font-family="Arial" font-size="8.00" fill="#1a1919">2 P(1)</text>
</g>
<!-- inline2x4&#45;&gt;node4 -->
<g id="edge3" class="edge">
<title>inline2x4&#45;&gt;node4</title>
<path fill="none" stroke="#3cb4a4" d="M277.66,-346.08C271.6,-332.76 263.09,-314.04 256.94,-300.51"/>
<text text-anchor="middle" x="270.12" y="-321.1" font-family="arial" font-size="8.00" fill="#3cb4a4">y</text>
</g>
<!-- inline1x6 -->
<g id="node8" class="node">
<title>inline1x6</title>
<ellipse fill="#d7ede7" stroke="black" cx="295.12" cy="-194.2" rx="27" ry="18"/>
<text text-anchor="middle" x="295.12" y="-192.4" font-family="Arial" font-size="8.00" fill="#1a1919">1 P(0)</text>
</g>
<!-- inline1x6&#45;&gt;node6 -->
<g id="edge6" class="edge">
<title>inline1x6&#45;&gt;node6</title>
<path fill="none" stroke="#3cb4a4" d="M291.36,-176.19C288.05,-161.19 283.25,-139.44 279.93,-124.37"/>
<text text-anchor="middle" x="289.12" y="-148.35" font-family="arial" font-size="8.00" fill="#3cb4a4">x</text>
</g>
<!-- inline2x6 -->
<g id="node9" class="node">
<title>inline2x6</title>
<ellipse fill="#d7ede7" stroke="black" cx="367.12" cy="-194.2" rx="27" ry="18"/>
<text text-anchor="middle" x="367.12" y="-192.4" font-family="Arial" font-size="8.00" fill="#1a1919">2 P(1)</text>
</g>
<!-- inline2x6&#45;&gt;node6 -->
<g id="edge7" class="edge">
<title>inline2x6&#45;&gt;node6</title>
<path fill="none" stroke="#3cb4a4" d="M352.09,-178.98C336.24,-163.98 311.26,-140.34 294.3,-124.31"/>
<text text-anchor="middle" x="331.12" y="-148.35" font-family="arial" font-size="8.00" fill="#3cb4a4">y</text>
</g>
</g>
</svg>
