<?xml version="1.0" encoding="UTF-8" standalone="no"?>
<!DOCTYPE svg PUBLIC "-//W3C//DTD SVG 1.1//EN"
 "http://www.w3.org/Graphics/SVG/1.1/DTD/svg11.dtd">
<!-- Generated by graphviz version 2.44.0 (20200408.0750)
 -->
<!-- Title: G Pages: 1 -->
<svg width="752pt" height="607pt"
 viewBox="0.00 0.00 752.00 607.00" xmlns="http://www.w3.org/2000/svg" xmlns:xlink="http://www.w3.org/1999/xlink">
<g id="graph0" class="graph" transform="scale(1 1) rotate(0) translate(4 603)">
<title>G</title>
<!-- node0 -->
<g id="node1" class="node">
<title>node0</title>
<polygon fill="#e98693" stroke="black" points="316,-599 260,-599 260,-563 316,-563 316,-599"/>
<text text-anchor="middle" x="288" y="-577.3" font-family="Arial" font-size="14.00" fill="#1a1919">0 Start</text>
</g>
<!-- node6 -->
<g id="node2" class="node">
<title>node6</title>
<polygon fill="#e98693" stroke="black" points="395.5,-518 252.5,-518 252.5,-482 395.5,-482 395.5,-518"/>
<text text-anchor="middle" x="324" y="-496.3" font-family="Arial" font-size="14.00" fill="#1a1919">6 IntegerSwitch [0, 1]</text>
</g>
<!-- node0&#45;&gt;node6 -->
<g id="edge1" class="edge">
<title>node0&#45;&gt;node6</title>
<path fill="none" stroke="#da2d4f" stroke-width="2" d="M295.81,-562.86C300.53,-552.51 306.64,-539.1 311.96,-527.41"/>
<polygon fill="#da2d4f" stroke="#da2d4f" stroke-width="2" points="315.24,-528.66 316.2,-518.11 308.87,-525.76 315.24,-528.66"/>
</g>
<!-- node7 -->
<g id="node3" class="node">
<title>node7</title>
<polygon fill="#e98693" stroke="black" points="149,-431 87,-431 87,-395 149,-395 149,-431"/>
<text text-anchor="middle" x="118" y="-409.3" font-family="Arial" font-size="14.00" fill="#1a1919">7 Begin</text>
</g>
<!-- node6&#45;&gt;node7 -->
<g id="edge3" class="edge">
<title>node6&#45;&gt;node7</title>
<path fill="none" stroke="#da2d4f" stroke-width="2" d="M281.98,-481.96C250.48,-469.15 206.08,-451.01 158.9,-431.35"/>
<polygon fill="#da2d4f" stroke="#da2d4f" stroke-width="2" points="160,-428.02 149.43,-427.4 157.31,-434.48 160,-428.02"/>
<text text-anchor="middle" x="247" y="-452.8" font-family="arial" font-size="14.00" fill="#da2d4f">k[0]</text>
</g>
<!-- node8 -->
<g id="node4" class="node">
<title>node8</title>
<polygon fill="#e98693" stroke="black" points="355,-431 293,-431 293,-395 355,-395 355,-431"/>
<text text-anchor="middle" x="324" y="-409.3" font-family="Arial" font-size="14.00" fill="#1a1919">8 Begin</text>
</g>
<!-- node6&#45;&gt;node8 -->
<g id="edge4" class="edge">
<title>node6&#45;&gt;node8</title>
<path fill="none" stroke="#da2d4f" stroke-width="2" d="M324,-481.8C324,-470.16 324,-454.55 324,-441.24"/>
<polygon fill="#da2d4f" stroke="#da2d4f" stroke-width="2" points="327.5,-441.18 324,-431.18 320.5,-441.18 327.5,-441.18"/>
<text text-anchor="middle" x="335" y="-452.8" font-family="arial" font-size="14.00" fill="#da2d4f">k[1]</text>
</g>
<!-- node9 -->
<g id="node5" class="node">
<title>node9</title>
<polygon fill="#e98693" stroke="black" points="544,-431 482,-431 482,-395 544,-395 544,-431"/>
<text text-anchor="middle" x="513" y="-409.3" font-family="Arial" font-size="14.00" fill="#1a1919">9 Begin</text>
</g>
<!-- node6&#45;&gt;node9 -->
<g id="edge5" class="edge">
<title>node6&#45;&gt;node9</title>
<path fill="none" stroke="#da2d4f" stroke-width="2" d="M362.25,-481.8C394.35,-467.36 440.07,-446.8 472.73,-432.11"/>
<polygon fill="#da2d4f" stroke="#da2d4f" stroke-width="2" points="474.31,-435.24 481.99,-427.95 471.44,-428.85 474.31,-435.24"/>
<text text-anchor="middle" x="449.5" y="-452.8" font-family="arial" font-size="14.00" fill="#da2d4f">default</text>
</g>
<!-- node19 -->
<g id="node12" class="node">
<title>node19</title>
<polygon fill="#da2d4f" stroke="black" points="236,-350 0,-350 0,-314 236,-314 236,-350"/>
<text text-anchor="middle" x="118" y="-328.3" font-family="Arial" font-size="14.00" fill="#ffffff">19 StoreField JavaExamples.intField</text>
</g>
<!-- node7&#45;&gt;node19 -->
<g id="edge6" class="edge">
<title>node7&#45;&gt;node19</title>
<path fill="none" stroke="#da2d4f" stroke-width="2" d="M118,-394.86C118,-384.71 118,-371.63 118,-360.12"/>
<polygon fill="#da2d4f" stroke="#da2d4f" stroke-width="2" points="121.5,-360.11 118,-350.11 114.5,-360.11 121.5,-360.11"/>
</g>
<!-- node13 -->
<g id="node7" class="node">
<title>node13</title>
<polygon fill="#da2d4f" stroke="black" points="490,-350 254,-350 254,-314 490,-314 490,-350"/>
<text text-anchor="middle" x="372" y="-328.3" font-family="Arial" font-size="14.00" fill="#ffffff">13 StoreField JavaExamples.intField</text>
</g>
<!-- node8&#45;&gt;node13 -->
<g id="edge7" class="edge">
<title>node8&#45;&gt;node13</title>
<path fill="none" stroke="#da2d4f" stroke-width="2" d="M334.42,-394.86C340.83,-384.3 349.18,-370.56 356.38,-358.71"/>
<polygon fill="#da2d4f" stroke="#da2d4f" stroke-width="2" points="359.4,-360.47 361.61,-350.11 353.42,-356.84 359.4,-360.47"/>
</g>
<!-- node10 -->
<g id="node6" class="node">
<title>node10</title>
<polygon fill="#da2d4f" stroke="black" points="744,-350 508,-350 508,-314 744,-314 744,-350"/>
<text text-anchor="middle" x="626" y="-328.3" font-family="Arial" font-size="14.00" fill="#ffffff">10 StoreField JavaExamples.intField</text>
</g>
<!-- node9&#45;&gt;node10 -->
<g id="edge8" class="edge">
<title>node9&#45;&gt;node10</title>
<path fill="none" stroke="#da2d4f" stroke-width="2" d="M537.52,-394.86C553.81,-383.47 575.38,-368.39 593.15,-355.96"/>
<polygon fill="#da2d4f" stroke="#da2d4f" stroke-width="2" points="595.34,-358.71 601.53,-350.11 591.33,-352.97 595.34,-358.71"/>
</g>
<!-- node15 -->
<g id="node8" class="node">
<title>node15</title>
<polygon fill="#e98693" stroke="black" points="566.5,-277 507.5,-277 507.5,-241 566.5,-241 566.5,-277"/>
<text text-anchor="middle" x="537" y="-255.3" font-family="Arial" font-size="14.00" fill="#1a1919">15 End</text>
</g>
<!-- node10&#45;&gt;node15 -->
<g id="edge10" class="edge">
<title>node10&#45;&gt;node15</title>
<path fill="none" stroke="#da2d4f" stroke-width="2" d="M604.46,-313.81C592.98,-304.66 578.69,-293.26 566.23,-283.32"/>
<polygon fill="#da2d4f" stroke="#da2d4f" stroke-width="2" points="568.35,-280.53 558.35,-277.03 563.98,-286 568.35,-280.53"/>
</g>
<!-- node17 -->
<g id="node10" class="node">
<title>node17</title>
<polygon fill="#e98693" stroke="black" points="401.5,-277 342.5,-277 342.5,-241 401.5,-241 401.5,-277"/>
<text text-anchor="middle" x="372" y="-255.3" font-family="Arial" font-size="14.00" fill="#1a1919">17 End</text>
</g>
<!-- node13&#45;&gt;node17 -->
<g id="edge12" class="edge">
<title>node13&#45;&gt;node17</title>
<path fill="none" stroke="#da2d4f" stroke-width="2" d="M372,-313.81C372,-305.79 372,-296.05 372,-287.07"/>
<polygon fill="#da2d4f" stroke="#da2d4f" stroke-width="2" points="375.5,-287.03 372,-277.03 368.5,-287.03 375.5,-287.03"/>
</g>
<!-- node16 -->
<g id="node9" class="node">
<title>node16</title>
<polygon fill="#e98693" stroke="black" points="409,-204 335,-204 335,-168 409,-168 409,-204"/>
<text text-anchor="middle" x="372" y="-182.3" font-family="Arial" font-size="14.00" fill="#1a1919">16 Merge</text>
</g>
<!-- node15&#45;&gt;node16 -->
<g id="edge13" class="edge">
<title>node15&#45;&gt;node16</title>
<path fill="none" stroke="#da2d4f" stroke-width="2" d="M507.12,-245.14C482.42,-234.52 446.93,-219.24 418.52,-207.02"/>
<polygon fill="#da2d4f" stroke="#da2d4f" stroke-width="2" points="419.75,-203.74 409.18,-203 416.98,-210.17 419.75,-203.74"/>
</g>
<!-- node18 -->
<g id="node11" class="node">
<title>node18</title>
<polygon fill="#f9f9f9" stroke="black" points="481,-123 427,-123 427,-87 481,-87 481,-123"/>
<text text-anchor="middle" x="454" y="-101.3" font-family="Arial" font-size="14.00" fill="#1a1919">18 ϕ</text>
</g>
<!-- node16&#45;&gt;node18 -->
<g id="edge17" class="edge">
<title>node16&#45;&gt;node18</title>
<path fill="none" stroke="#343d46" stroke-dasharray="5,2" d="M397.29,-160.63C409.91,-148.48 424.86,-134.07 436.24,-123.11"/>
<polygon fill="#343d46" stroke="#343d46" points="394.57,-158.4 389.79,-167.86 399.42,-163.44 394.57,-158.4"/>
</g>
<!-- node23 -->
<g id="node14" class="node">
<title>node23</title>
<polygon fill="#e98693" stroke="black" points="432,-36 356,-36 356,0 432,0 432,-36"/>
<text text-anchor="middle" x="394" y="-14.3" font-family="Arial" font-size="14.00" fill="#1a1919">23 Return</text>
</g>
<!-- node16&#45;&gt;node23 -->
<g id="edge16" class="edge">
<title>node16&#45;&gt;node23</title>
<path fill="none" stroke="#da2d4f" stroke-width="2" d="M374.27,-167.86C378.08,-139.16 385.77,-81.13 390.34,-46.61"/>
<polygon fill="#da2d4f" stroke="#da2d4f" stroke-width="2" points="393.86,-46.67 391.71,-36.3 386.92,-45.75 393.86,-46.67"/>
</g>
<!-- node17&#45;&gt;node16 -->
<g id="edge14" class="edge">
<title>node17&#45;&gt;node16</title>
<path fill="none" stroke="#da2d4f" stroke-width="2" d="M372,-240.81C372,-232.79 372,-223.05 372,-214.07"/>
<polygon fill="#da2d4f" stroke="#da2d4f" stroke-width="2" points="375.5,-214.03 372,-204.03 368.5,-214.03 375.5,-214.03"/>
</g>
<!-- node18&#45;&gt;node23 -->
<g id="edge23" class="edge">
<title>node18&#45;&gt;node23</title>
<path fill="none" stroke="#3cb4a4" d="M441.86,-86.8C433.32,-74.7 421.74,-58.3 412.12,-44.67"/>
<polygon fill="#3cb4a4" stroke="#3cb4a4" points="414.75,-42.33 406.12,-36.18 409.03,-46.36 414.75,-42.33"/>
<text text-anchor="middle" x="444" y="-57.8" font-family="arial" font-size="14.00" fill="#3cb4a4">result</text>
</g>
<!-- node21 -->
<g id="node13" class="node">
<title>node21</title>
<polygon fill="#e98693" stroke="black" points="280.5,-277 221.5,-277 221.5,-241 280.5,-241 280.5,-277"/>
<text text-anchor="middle" x="251" y="-255.3" font-family="Arial" font-size="14.00" fill="#1a1919">21 End</text>
</g>
<!-- node19&#45;&gt;node21 -->
<g id="edge22" class="edge">
<title>node19&#45;&gt;node21</title>
<path fill="none" stroke="#da2d4f" stroke-width="2" d="M149.86,-313.99C168.57,-304.01 192.35,-291.31 212.15,-280.74"/>
<polygon fill="#da2d4f" stroke="#da2d4f" stroke-width="2" points="214.05,-283.69 221.23,-275.89 210.76,-277.52 214.05,-283.69"/>
</g>
<!-- node21&#45;&gt;node16 -->
<g id="edge15" class="edge">
<title>node21&#45;&gt;node16</title>
<path fill="none" stroke="#da2d4f" stroke-width="2" d="M279.98,-240.99C296.18,-231.49 316.55,-219.54 334.01,-209.29"/>
<polygon fill="#da2d4f" stroke="#da2d4f" stroke-width="2" points="335.98,-212.19 342.83,-204.11 332.44,-206.16 335.98,-212.19"/>
</g>
<!-- inline1x6 -->
<g id="node15" class="node">
<title>inline1x6</title>
<ellipse fill="#d7ede7" stroke="black" cx="361" cy="-581" rx="27" ry="18"/>
<text text-anchor="middle" x="361" y="-579.1" font-family="Arial" font-size="8.00" fill="#1a1919">1 P(0)</text>
</g>
<!-- inline1x6&#45;&gt;node6 -->
<g id="edge2" class="edge">
<title>inline1x6&#45;&gt;node6</title>
<path fill="none" stroke="#3cb4a4" d="M353.33,-563.63C347.11,-550.34 338.36,-531.67 332.04,-518.17"/>
<text text-anchor="middle" x="352.5" y="-538.6" font-family="arial" font-size="8.00" fill="#3cb4a4">value</text>
</g>
<!-- inline4x10 -->
<g id="node16" class="node">
<title>inline4x10</title>
<ellipse fill="#d7ede7" stroke="black" cx="626" cy="-413" rx="27" ry="18"/>
<text text-anchor="middle" x="626" y="-411.1" font-family="Arial" font-size="8.00" fill="#1a1919">4 P(3)</text>
</g>
<!-- inline4x10&#45;&gt;node10 -->
<g id="edge9" class="edge">
<title>inline4x10&#45;&gt;node10</title>
<path fill="none" stroke="#3cb4a4" d="M626,-394.86C626,-381.61 626,-363.35 626,-350.11"/>
<text text-anchor="middle" x="635.5" y="-370.6" font-family="arial" font-size="8.00" fill="#3cb4a4">value</text>
</g>
<!-- inline3x13 -->
<g id="node17" class="node">
<title>inline3x13</title>
<ellipse fill="#d7ede7" stroke="black" cx="400" cy="-413" rx="27" ry="18"/>
<text text-anchor="middle" x="400" y="-411.1" font-family="Arial" font-size="8.00" fill="#1a1919">3 P(2)</text>
</g>
<!-- inline3x13&#45;&gt;node13 -->
<g id="edge11" class="edge">
<title>inline3x13&#45;&gt;node13</title>
<path fill="none" stroke="#3cb4a4" d="M394.06,-395.25C389.34,-381.93 382.77,-363.38 378.03,-350"/>
<text text-anchor="middle" x="395.5" y="-370.6" font-family="arial" font-size="8.00" fill="#3cb4a4">value</text>
</g>
<!-- inline4x18 -->
<g id="node18" class="node">
<title>inline4x18</title>
<ellipse fill="#d7ede7" stroke="black" cx="454" cy="-186" rx="27" ry="18"/>
<text text-anchor="middle" x="454" y="-184.1" font-family="Arial" font-size="8.00" fill="#1a1919">4 P(3)</text>
</g>
<!-- inline4x18&#45;&gt;node18 -->
<g id="edge18" class="edge">
<title>inline4x18&#45;&gt;node18</title>
<path fill="none" stroke="#3cb4a4" d="M454,-167.86C454,-154.61 454,-136.35 454,-123.11"/>
<text text-anchor="middle" x="468" y="-143.6" font-family="arial" font-size="8.00" fill="#3cb4a4">from 15</text>
</g>
<!-- inline3x18 -->
<g id="node19" class="node">
<title>inline3x18</title>
<ellipse fill="#d7ede7" stroke="black" cx="526" cy="-186" rx="27" ry="18"/>
<text text-anchor="middle" x="526" y="-184.1" font-family="Arial" font-size="8.00" fill="#1a1919">3 P(2)</text>
</g>
<!-- inline3x18&#45;&gt;node18 -->
<g id="edge19" class="edge">
<title>inline3x18&#45;&gt;node18</title>
<path fill="none" stroke="#3cb4a4" d="M512.68,-170.32C504.9,-161.77 494.9,-150.77 486,-141 480.67,-135.16 474.84,-128.78 469.63,-123.08"/>
<text text-anchor="middle" x="507" y="-143.6" font-family="arial" font-size="8.00" fill="#3cb4a4">from 17</text>
</g>
<!-- inline2x18 -->
<g id="node20" class="node">
<title>inline2x18</title>
<ellipse fill="#d7ede7" stroke="black" cx="598" cy="-186" rx="27" ry="18"/>
<text text-anchor="middle" x="598" y="-184.1" font-family="Arial" font-size="8.00" fill="#1a1919">2 P(1)</text>
</g>
<!-- inline2x18&#45;&gt;node18 -->
<g id="edge20" class="edge">
<title>inline2x18&#45;&gt;node18</title>
<path fill="none" stroke="#3cb4a4" d="M579.04,-172.97C564.46,-163.86 543.7,-151.22 525,-141 510.77,-133.22 494.57,-125.18 481.25,-118.77"/>
<text text-anchor="middle" x="553" y="-143.6" font-family="arial" font-size="8.00" fill="#3cb4a4">from 21</text>
</g>
<!-- inline2x19 -->
<g id="node21" class="node">
<title>inline2x19</title>
<ellipse fill="#d7ede7" stroke="black" cx="194" cy="-413" rx="27" ry="18"/>
<text text-anchor="middle" x="194" y="-411.1" font-family="Arial" font-size="8.00" fill="#1a1919">2 P(1)</text>
</g>
<!-- inline2x19&#45;&gt;node19 -->
<g id="edge21" class="edge">
<title>inline2x19&#45;&gt;node19</title>
<path fill="none" stroke="#3cb4a4" d="M180.06,-397.51C167.2,-384.15 148.11,-364.3 134.5,-350.15"/>
<text text-anchor="middle" x="168.5" y="-370.6" font-family="arial" font-size="8.00" fill="#3cb4a4">value</text>
</g>
</g>
</svg>
