<?xml version="1.0" encoding="UTF-8" standalone="no"?>
<!DOCTYPE svg PUBLIC "-//W3C//DTD SVG 1.1//EN"
 "http://www.w3.org/Graphics/SVG/1.1/DTD/svg11.dtd">
<!-- Generated by graphviz version 2.43.0 (0)
 -->
<!-- Title: G Pages: 1 -->
<svg width="639pt" height="566pt"
 viewBox="0.00 0.00 639.29 565.69" xmlns="http://www.w3.org/2000/svg" xmlns:xlink="http://www.w3.org/1999/xlink">
<g id="graph0" class="graph" transform="scale(1 1) rotate(0) translate(4 561.69)">
<title>G</title>
' points="-4,4 -4,-561.69 635.29,-561.69 635.29,4 -4,4"/>
<!-- node0 -->
<g id="node1" class="node">
<title>node0</title>
<polygon fill="#e98693" stroke="black" points="139.03,-476.49 81.54,-476.49 81.54,-440.49 139.03,-440.49 139.03,-476.49"/>
<text text-anchor="middle" x="110.29" y="-455.34" font-family="Arial" font-size="14.00" fill="#1a1919">0 Start</text>
</g>
<!-- node4 -->
<g id="node3" class="node">
<title>node4</title>
<polygon fill="#ffa500" stroke="black" points="252.36,-388.39 0.21,-388.39 0.21,-352.39 252.36,-352.39 252.36,-388.39"/>
<text text-anchor="middle" x="126.29" y="-367.24" font-family="Arial" font-size="14.00" fill="#1a1919">4 Guard not, else NullCheckException</text>
</g>
<!-- node0&#45;&gt;node4 -->
<g id="edge1" class="edge">
<title>node0&#45;&gt;node4</title>
<path fill="none" stroke="#da2d4f" stroke-width="2" d="M113.45,-440.48C115.67,-428.53 118.69,-412.29 121.24,-398.56"/>
<polygon fill="#da2d4f" stroke="#da2d4f" stroke-width="2" points="124.69,-399.14 123.08,-388.66 117.81,-397.86 124.69,-399.14"/>
</g>
<!-- node3 -->
<g id="node2" class="node">
<title>node3</title>
<polygon fill="#3cb4a4" stroke="black" points="219.47,-476.49 157.1,-476.49 157.1,-440.49 219.47,-440.49 219.47,-476.49"/>
<text text-anchor="middle" x="188.29" y="-455.34" font-family="Arial" font-size="14.00" fill="#1a1919">3 IsNull</text>
</g>
<!-- node3&#45;&gt;node4 -->
<g id="edge3" class="edge">
<title>node3&#45;&gt;node4</title>
<path fill="none" stroke="#3cb4a4" d="M176.04,-440.48C167.09,-428.06 154.82,-411.01 144.7,-396.96"/>
<polygon fill="#3cb4a4" stroke="#3cb4a4" points="147.41,-394.73 138.72,-388.66 141.73,-398.82 147.41,-394.73"/>
<text text-anchor="middle" x="166.18" y="-411.29" font-family="arial" font-size="14.00" fill="#3cb4a4">?</text>
</g>
<!-- node5 -->
<g id="node4" class="node">
<title>node5</title>
<polygon fill="#f9f9f9" stroke="black" points="332.29,-300.3 278.29,-300.3 278.29,-264.3 332.29,-264.3 332.29,-300.3"/>
<text text-anchor="middle" x="305.29" y="-279.15" font-family="Arial" font-size="14.00" fill="#1a1919">5 π</text>
</g>
<!-- node4&#45;&gt;node5 -->
<g id="edge5" class="edge">
<title>node4&#45;&gt;node5</title>
<path fill="none" stroke="#3cb4a4" d="M161.65,-352.38C192.67,-337.46 237.6,-315.85 268.92,-300.79"/>
<polygon fill="#3cb4a4" stroke="#3cb4a4" points="270.68,-303.83 278.17,-296.34 267.64,-297.52 270.68,-303.83"/>
<text text-anchor="middle" x="249.19" y="-323.19" font-family="arial" font-size="14.00" fill="#3cb4a4">guard</text>
</g>
<!-- node10 -->
<g id="node7" class="node">
<title>node10</title>
<polygon fill="#e98693" stroke="black" points="166.27,-36 88.3,-36 88.3,0 166.27,0 166.27,-36"/>
<text text-anchor="middle" x="127.29" y="-14.85" font-family="Arial" font-size="14.00" fill="#1a1919">10 Return</text>
</g>
<!-- node4&#45;&gt;node10 -->
<g id="edge4" class="edge">
<title>node4&#45;&gt;node10</title>
<path fill="none" stroke="#da2d4f" stroke-width="2" d="M121.54,-352.39C117.15,-335.14 111.29,-307.57 111.29,-283.3 111.29,-283.3 111.29,-283.3 111.29,-105.1 111.29,-85.08 115.52,-62.88 119.63,-46.03"/>
<polygon fill="#da2d4f" stroke="#da2d4f" stroke-width="2" points="123.03,-46.86 122.14,-36.3 116.25,-45.12 123.03,-46.86"/>
</g>
<!-- node6 -->
<g id="node5" class="node">
<title>node6</title>
<polygon fill="#f9f9f9" stroke="black" points="487.28,-212.2 139.29,-212.2 139.29,-176.2 487.28,-176.2 487.28,-212.2"/>
<text text-anchor="middle" x="313.29" y="-191.05" font-family="Arial" font-size="14.00" fill="#1a1919">6 InstanceOf a! LJavaExamples$InterfaceManyImpls;</text>
</g>
<!-- node5&#45;&gt;node6 -->
<g id="edge7" class="edge">
<title>node5&#45;&gt;node6</title>
<path fill="none" stroke="#3cb4a4" d="M306.87,-264.29C307.97,-252.45 309.46,-236.42 310.72,-222.77"/>
<polygon fill="#3cb4a4" stroke="#3cb4a4" points="314.24,-222.75 311.68,-212.47 307.27,-222.1 314.24,-222.75"/>
<text text-anchor="middle" x="326.02" y="-235.1" font-family="arial" font-size="14.00" fill="#3cb4a4">value</text>
</g>
<!-- node9 -->
<g id="node6" class="node">
<title>node9</title>
<polygon fill="#3cb4a4" stroke="black" points="519.01,-124.1 421.56,-124.1 421.56,-88.1 519.01,-88.1 519.01,-124.1"/>
<text text-anchor="middle" x="470.29" y="-102.95" font-family="Arial" font-size="14.00" fill="#1a1919">9 Conditional</text>
</g>
<!-- node6&#45;&gt;node9 -->
<g id="edge8" class="edge">
<title>node6&#45;&gt;node9</title>
<path fill="none" stroke="#3cb4a4" d="M344.3,-176.19C368.85,-162.73 403.3,-143.83 429.98,-129.2"/>
<polygon fill="#3cb4a4" stroke="#3cb4a4" points="431.98,-132.1 439.06,-124.22 428.61,-125.96 431.98,-132.1"/>
<text text-anchor="middle" x="409.18" y="-147" font-family="arial" font-size="14.00" fill="#3cb4a4">?</text>
</g>
<!-- node9&#45;&gt;node10 -->
<g id="edge11" class="edge">
<title>node9&#45;&gt;node10</title>
<path fill="none" stroke="#3cb4a4" d="M421.51,-92.85C356.29,-76.48 241.34,-47.63 176.1,-31.25"/>
<polygon fill="#3cb4a4" stroke="#3cb4a4" points="176.62,-27.78 166.07,-28.74 174.92,-34.57 176.62,-27.78"/>
<text text-anchor="middle" x="366.24" y="-58.9" font-family="arial" font-size="14.00" fill="#3cb4a4">result [0 &#45; 1]</text>
</g>
<!-- inline1x3 -->
<g id="node8" class="node">
<title>inline1x3</title>
<ellipse fill="#d7ede7" stroke="black" cx="188.29" cy="-539.69" rx="27" ry="18"/>
<text text-anchor="middle" x="188.29" y="-537.89" font-family="Arial" font-size="8.00" fill="#1a1919">1 P(0)</text>
</g>
<!-- inline1x3&#45;&gt;node3 -->
<g id="edge2" class="edge">
<title>inline1x3&#45;&gt;node3</title>
<path fill="none" stroke="#3cb4a4" d="M188.29,-521.51C188.29,-508.22 188.29,-489.92 188.29,-476.64"/>
<text text-anchor="middle" x="197.85" y="-497.29" font-family="arial" font-size="8.00" fill="#3cb4a4">value</text>
</g>
<!-- inline1x5 -->
<g id="node9" class="node">
<title>inline1x5</title>
<ellipse fill="#d7ede7" stroke="black" cx="305.29" cy="-370.39" rx="27" ry="18"/>
<text text-anchor="middle" x="305.29" y="-368.59" font-family="Arial" font-size="8.00" fill="#1a1919">1 P(0)</text>
</g>
<!-- inline1x5&#45;&gt;node5 -->
<g id="edge6" class="edge">
<title>inline1x5&#45;&gt;node5</title>
<path fill="none" stroke="#3cb4a4" d="M305.29,-352.38C305.29,-337.39 305.29,-315.64 305.29,-300.57"/>
<text text-anchor="middle" x="315.96" y="-324.54" font-family="arial" font-size="8.00" fill="#3cb4a4">object</text>
</g>
<!-- inline7x9 -->
<g id="node10" class="node">
<title>inline7x9</title>
<ellipse fill="#d7ede7" stroke="black" cx="532.29" cy="-194.2" rx="27" ry="18"/>
<text text-anchor="middle" x="532.29" y="-192.4" font-family="Arial" font-size="8.00" fill="#1a1919">7 C(1)</text>
</g>
<!-- inline7x9&#45;&gt;node9 -->
<g id="edge9" class="edge">
<title>inline7x9&#45;&gt;node9</title>
<path fill="none" stroke="#3cb4a4" d="M520.91,-177.41C510.08,-162.36 493.8,-139.76 482.65,-124.27"/>
<text text-anchor="middle" x="523.11" y="-148.35" font-family="arial" font-size="8.00" fill="#3cb4a4">trueValue</text>
</g>
<!-- inline8x9 -->
<g id="node11" class="node">
<title>inline8x9</title>
<ellipse fill="#d7ede7" stroke="black" cx="604.29" cy="-194.2" rx="27" ry="18"/>
<text text-anchor="middle" x="604.29" y="-192.4" font-family="Arial" font-size="8.00" fill="#1a1919">8 C(0)</text>
</g>
<!-- inline8x9&#45;&gt;node9 -->
<g id="edge10" class="edge">
<title>inline8x9&#45;&gt;node9</title>
<path fill="none" stroke="#3cb4a4" d="M589.38,-178.55C577.75,-167.62 560.83,-152.79 544.29,-142.1 534.02,-135.47 522.3,-129.34 511.26,-124.13"/>
<text text-anchor="middle" x="582.67" y="-148.35" font-family="arial" font-size="8.00" fill="#3cb4a4">falseValue</text>
</g>
</g>
</svg>
