<?xml version="1.0" encoding="UTF-8" standalone="no"?>
<!DOCTYPE svg PUBLIC "-//W3C//DTD SVG 1.1//EN"
 "http://www.w3.org/Graphics/SVG/1.1/DTD/svg11.dtd">
<!-- Generated by graphviz version 2.44.0 (20200408.0750)
 -->
<!-- Title: G Pages: 1 -->
<svg width="611pt" height="641pt"
 viewBox="0.00 0.00 611.00 641.00" xmlns="http://www.w3.org/2000/svg" xmlns:xlink="http://www.w3.org/1999/xlink">
<g id="graph0" class="graph" transform="scale(1 1) rotate(0) translate(4 637)">
<title>G</title>
<!-- node0 -->
<g id="node1" class="node">
<title>node0</title>
<polygon fill="#e98693" stroke="black" points="252,-633 196,-633 196,-597 252,-597 252,-633"/>
<text text-anchor="middle" x="224" y="-611.3" font-family="Arial" font-size="14.00" fill="#1a1919">0 Start</text>
</g>
<!-- node5 -->
<g id="node2" class="node">
<title>node5</title>
<polygon fill="#da2d4f" stroke="black" points="303.5,-552 216.5,-552 216.5,-516 303.5,-516 303.5,-552"/>
<text text-anchor="middle" x="260" y="-530.3" font-family="Arial" font-size="14.00" fill="#ffffff">5 NewArray</text>
</g>
<!-- node0&#45;&gt;node5 -->
<g id="edge1" class="edge">
<title>node0&#45;&gt;node5</title>
<path fill="none" stroke="#da2d4f" stroke-width="2" d="M231.81,-596.86C236.53,-586.51 242.64,-573.1 247.96,-561.41"/>
<polygon fill="#da2d4f" stroke="#da2d4f" stroke-width="2" points="251.24,-562.66 252.2,-552.11 244.87,-559.76 251.24,-562.66"/>
</g>
<!-- node7 -->
<g id="node3" class="node">
<title>node7</title>
<polygon fill="#da2d4f" stroke="black" points="426,-465 318,-465 318,-429 426,-429 426,-465"/>
<text text-anchor="middle" x="372" y="-443.3" font-family="Arial" font-size="14.00" fill="#ffffff">7 StoreIndexed</text>
</g>
<!-- node5&#45;&gt;node7 -->
<g id="edge3" class="edge">
<title>node5&#45;&gt;node7</title>
<path fill="none" stroke="#da2d4f" stroke-width="2" d="M296.7,-515.9C306.29,-510.73 316.36,-504.64 325,-498 334.55,-490.66 343.88,-481.33 351.68,-472.71"/>
<polygon fill="#da2d4f" stroke="#da2d4f" stroke-width="2" points="354.41,-474.91 358.38,-465.08 349.15,-470.29 354.41,-474.91"/>
</g>
<!-- node5&#45;&gt;node7 -->
<g id="edge4" class="edge">
<title>node5&#45;&gt;node7</title>
<path fill="none" stroke="#3cb4a4" d="M266.98,-515.83C272.03,-505.19 279.77,-491.91 290,-483 295.83,-477.92 302.5,-473.49 309.46,-469.66"/>
<polygon fill="#3cb4a4" stroke="#3cb4a4" points="311.08,-472.76 318.4,-465.1 307.9,-466.52 311.08,-472.76"/>
<text text-anchor="middle" x="305.5" y="-486.8" font-family="arial" font-size="14.00" fill="#3cb4a4">array</text>
</g>
<!-- node13 -->
<g id="node8" class="node">
<title>node13</title>
<polygon fill="#da2d4f" stroke="black" points="368,-210 110,-210 110,-174 368,-174 368,-210"/>
<text text-anchor="middle" x="239" y="-188.3" font-family="Arial" font-size="14.00" fill="#ffffff">13 StoreField JavaExamples.objectField</text>
</g>
<!-- node5&#45;&gt;node13 -->
<g id="edge15" class="edge">
<title>node5&#45;&gt;node13</title>
<path fill="none" stroke="#3cb4a4" d="M233.91,-515.71C214.37,-500.47 191,-476.32 191,-448 191,-448 191,-448 191,-272 191,-251.88 202.52,-232.51 214.27,-217.99"/>
<polygon fill="#3cb4a4" stroke="#3cb4a4" points="217.25,-219.89 221.13,-210.04 211.95,-215.32 217.25,-219.89"/>
<text text-anchor="middle" x="207.5" y="-356.3" font-family="arial" font-size="14.00" fill="#3cb4a4">value</text>
</g>
<!-- node15 -->
<g id="node9" class="node">
<title>node15</title>
<polygon fill="#da2d4f" stroke="black" points="138.5,-123 25.5,-123 25.5,-87 138.5,-87 138.5,-123"/>
<text text-anchor="middle" x="82" y="-101.3" font-family="Arial" font-size="14.00" fill="#ffffff">15 LoadIndexed</text>
</g>
<!-- node5&#45;&gt;node15 -->
<g id="edge17" class="edge">
<title>node5&#45;&gt;node15</title>
<path fill="none" stroke="#3cb4a4" d="M216.46,-530.72C163.76,-525.34 82,-507.42 82,-448 82,-448 82,-448 82,-191 82,-171.75 82,-150.05 82,-133.4"/>
<polygon fill="#3cb4a4" stroke="#3cb4a4" points="85.5,-133.26 82,-123.26 78.5,-133.26 85.5,-133.26"/>
<text text-anchor="middle" x="97.5" y="-312.8" font-family="arial" font-size="14.00" fill="#3cb4a4">array</text>
</g>
<!-- node17 -->
<g id="node11" class="node">
<title>node17</title>
<polygon fill="#da2d4f" stroke="black" points="499.5,-210 386.5,-210 386.5,-174 499.5,-174 499.5,-210"/>
<text text-anchor="middle" x="443" y="-188.3" font-family="Arial" font-size="14.00" fill="#ffffff">17 LoadIndexed</text>
</g>
<!-- node5&#45;&gt;node17 -->
<g id="edge21" class="edge">
<title>node5&#45;&gt;node17</title>
<path fill="none" stroke="#3cb4a4" d="M260,-515.74C260,-498.57 260,-471.46 260,-448 260,-448 260,-448 260,-272 260,-258.48 328.19,-232.03 381.32,-213.47"/>
<polygon fill="#3cb4a4" stroke="#3cb4a4" points="382.75,-216.68 391.05,-210.1 380.45,-210.07 382.75,-216.68"/>
<text text-anchor="middle" x="275.5" y="-356.3" font-family="arial" font-size="14.00" fill="#3cb4a4">array</text>
</g>
<!-- node12 -->
<g id="node7" class="node">
<title>node12</title>
<polygon fill="#e98693" stroke="black" points="421,-378 367,-378 367,-342 421,-342 421,-378"/>
<text text-anchor="middle" x="394" y="-356.3" font-family="Arial" font-size="14.00" fill="#1a1919">12 If</text>
</g>
<!-- node7&#45;&gt;node12 -->
<g id="edge7" class="edge">
<title>node7&#45;&gt;node12</title>
<path fill="none" stroke="#da2d4f" stroke-width="2" d="M376.45,-428.8C379.46,-417.16 383.51,-401.55 386.95,-388.24"/>
<polygon fill="#da2d4f" stroke="#da2d4f" stroke-width="2" points="390.44,-388.73 389.55,-378.18 383.66,-386.98 390.44,-388.73"/>
</g>
<!-- node9 -->
<g id="node4" class="node">
<title>node9</title>
<polygon fill="#3cb4a4" stroke="black" points="504,-465 463.61,-447 504,-429 544.39,-447 504,-465"/>
<text text-anchor="middle" x="504" y="-443.3" font-family="Arial" font-size="14.00" fill="#1a1919">9 ==</text>
</g>
<!-- node9&#45;&gt;node12 -->
<g id="edge12" class="edge">
<title>node9&#45;&gt;node12</title>
<path fill="none" stroke="#3cb4a4" d="M489.62,-434.89C473.17,-422.18 445.76,-401 424.5,-384.57"/>
<polygon fill="#3cb4a4" stroke="#3cb4a4" points="426.45,-381.65 416.39,-378.3 422.17,-387.19 426.45,-381.65"/>
<text text-anchor="middle" x="459" y="-399.8" font-family="arial" font-size="14.00" fill="#3cb4a4">?</text>
</g>
<!-- node10 -->
<g id="node5" class="node">
<title>node10</title>
<polygon fill="#e98693" stroke="black" points="446,-291 376,-291 376,-255 446,-255 446,-291"/>
<text text-anchor="middle" x="411" y="-269.3" font-family="Arial" font-size="14.00" fill="#1a1919">10 Begin</text>
</g>
<!-- node10&#45;&gt;node13 -->
<g id="edge10" class="edge">
<title>node10&#45;&gt;node13</title>
<path fill="none" stroke="#da2d4f" stroke-width="2" d="M375.78,-255.82C349.73,-243.86 314,-227.45 285.59,-214.4"/>
<polygon fill="#da2d4f" stroke="#da2d4f" stroke-width="2" points="286.81,-211.11 276.26,-210.11 283.88,-217.47 286.81,-211.11"/>
</g>
<!-- node11 -->
<g id="node6" class="node">
<title>node11</title>
<polygon fill="#e98693" stroke="black" points="357.5,-291 288.5,-291 288.5,-255 357.5,-255 357.5,-291"/>
<text text-anchor="middle" x="323" y="-269.3" font-family="Arial" font-size="14.00" fill="#1a1919">11 Begin</text>
</g>
<!-- node11&#45;&gt;node17 -->
<g id="edge11" class="edge">
<title>node11&#45;&gt;node17</title>
<path fill="none" stroke="#da2d4f" stroke-width="2" d="M349.04,-254.86C366.49,-243.37 389.67,-228.11 408.63,-215.63"/>
<polygon fill="#da2d4f" stroke="#da2d4f" stroke-width="2" points="410.58,-218.53 417.01,-210.11 406.74,-212.68 410.58,-218.53"/>
</g>
<!-- node12&#45;&gt;node10 -->
<g id="edge14" class="edge">
<title>node12&#45;&gt;node10</title>
<path fill="none" stroke="#da2d4f" stroke-width="2" d="M397.44,-341.8C399.77,-330.16 402.89,-314.55 405.55,-301.24"/>
<polygon fill="#da2d4f" stroke="#da2d4f" stroke-width="2" points="409.04,-301.67 407.56,-291.18 402.17,-300.29 409.04,-301.67"/>
<text text-anchor="middle" x="407.5" y="-312.8" font-family="arial" font-size="14.00" fill="#da2d4f">F</text>
</g>
<!-- node12&#45;&gt;node11 -->
<g id="edge13" class="edge">
<title>node12&#45;&gt;node11</title>
<path fill="none" stroke="#da2d4f" stroke-width="2" d="M379.63,-341.8C369.33,-329.47 355.31,-312.68 343.79,-298.89"/>
<polygon fill="#da2d4f" stroke="#da2d4f" stroke-width="2" points="346.44,-296.61 337.35,-291.18 341.07,-301.09 346.44,-296.61"/>
<text text-anchor="middle" x="366.5" y="-312.8" font-family="arial" font-size="14.00" fill="#da2d4f">T</text>
</g>
<!-- node13&#45;&gt;node15 -->
<g id="edge16" class="edge">
<title>node13&#45;&gt;node15</title>
<path fill="none" stroke="#da2d4f" stroke-width="2" d="M207.23,-173.8C182.78,-160.56 148.83,-142.18 122.45,-127.9"/>
<polygon fill="#da2d4f" stroke="#da2d4f" stroke-width="2" points="123.92,-124.71 113.46,-123.03 120.58,-130.87 123.92,-124.71"/>
</g>
<!-- node16 -->
<g id="node10" class="node">
<title>node16</title>
<polygon fill="#e98693" stroke="black" points="120,-36 44,-36 44,0 120,0 120,-36"/>
<text text-anchor="middle" x="82" y="-14.3" font-family="Arial" font-size="14.00" fill="#1a1919">16 Return</text>
</g>
<!-- node15&#45;&gt;node16 -->
<g id="edge19" class="edge">
<title>node15&#45;&gt;node16</title>
<path fill="none" stroke="#da2d4f" stroke-width="2" d="M80.83,-86.92C80.49,-81.22 80.17,-74.84 80,-69 79.79,-61.65 79.94,-53.69 80.23,-46.33"/>
<polygon fill="#da2d4f" stroke="#da2d4f" stroke-width="2" points="83.74,-46.28 80.73,-36.12 76.74,-45.94 83.74,-46.28"/>
</g>
<!-- node15&#45;&gt;node16 -->
<g id="edge20" class="edge">
<title>node15&#45;&gt;node16</title>
<path fill="none" stroke="#3cb4a4" d="M82,-86.8C82,-75.16 82,-59.55 82,-46.24"/>
<polygon fill="#3cb4a4" stroke="#3cb4a4" points="85.5,-46.18 82,-36.18 78.5,-46.18 85.5,-46.18"/>
<text text-anchor="middle" x="99" y="-57.8" font-family="arial" font-size="14.00" fill="#3cb4a4">result</text>
</g>
<!-- node18 -->
<g id="node12" class="node">
<title>node18</title>
<polygon fill="#e98693" stroke="black" points="480,-123 404,-123 404,-87 480,-87 480,-123"/>
<text text-anchor="middle" x="442" y="-101.3" font-family="Arial" font-size="14.00" fill="#1a1919">18 Return</text>
</g>
<!-- node17&#45;&gt;node18 -->
<g id="edge23" class="edge">
<title>node17&#45;&gt;node18</title>
<path fill="none" stroke="#da2d4f" stroke-width="2" d="M449.43,-173.94C452.3,-164.31 454.69,-152.03 453,-141 452.59,-138.32 452.01,-135.56 451.33,-132.83"/>
<polygon fill="#da2d4f" stroke="#da2d4f" stroke-width="2" points="454.69,-131.83 448.55,-123.2 447.96,-133.78 454.69,-131.83"/>
</g>
<!-- node17&#45;&gt;node18 -->
<g id="edge24" class="edge">
<title>node17&#45;&gt;node18</title>
<path fill="none" stroke="#3cb4a4" d="M425.58,-173.91C421.28,-168.62 417.27,-162.46 415,-156 412.14,-147.84 414.4,-139.4 418.62,-131.83"/>
<polygon fill="#3cb4a4" stroke="#3cb4a4" points="421.6,-133.67 424.28,-123.42 415.79,-129.77 421.6,-133.67"/>
<text text-anchor="middle" x="432" y="-144.8" font-family="arial" font-size="14.00" fill="#3cb4a4">result</text>
</g>
<!-- inline4x5 -->
<g id="node13" class="node">
<title>inline4x5</title>
<ellipse fill="#d7ede7" stroke="black" cx="297" cy="-615" rx="27" ry="18"/>
<text text-anchor="middle" x="297" y="-613.1" font-family="Arial" font-size="8.00" fill="#1a1919">4 C(1)</text>
</g>
<!-- inline4x5&#45;&gt;node5 -->
<g id="edge2" class="edge">
<title>inline4x5&#45;&gt;node5</title>
<path fill="none" stroke="#3cb4a4" d="M289.33,-597.63C283.11,-584.34 274.36,-565.67 268.04,-552.17"/>
<text text-anchor="middle" x="290" y="-572.6" font-family="arial" font-size="8.00" fill="#3cb4a4">length</text>
</g>
<!-- inline6x7 -->
<g id="node14" class="node">
<title>inline6x7</title>
<ellipse fill="#d7ede7" stroke="black" cx="360" cy="-534" rx="27" ry="18"/>
<text text-anchor="middle" x="360" y="-532.1" font-family="Arial" font-size="8.00" fill="#1a1919">6 C(0)</text>
</g>
<!-- inline6x7&#45;&gt;node7 -->
<g id="edge5" class="edge">
<title>inline6x7&#45;&gt;node7</title>
<path fill="none" stroke="#3cb4a4" d="M362.43,-515.8C364.51,-501.05 367.49,-479.92 369.58,-465.18"/>
<text text-anchor="middle" x="375.5" y="-488.6" font-family="arial" font-size="8.00" fill="#3cb4a4">index</text>
</g>
<!-- inline2x7 -->
<g id="node15" class="node">
<title>inline2x7</title>
<ellipse fill="#d7ede7" stroke="black" cx="432" cy="-534" rx="27" ry="18"/>
<text text-anchor="middle" x="432" y="-532.1" font-family="Arial" font-size="8.00" fill="#1a1919">2 P(1)</text>
</g>
<!-- inline2x7&#45;&gt;node7 -->
<g id="edge6" class="edge">
<title>inline2x7&#45;&gt;node7</title>
<path fill="none" stroke="#3cb4a4" d="M421,-517.41C410.58,-502.65 394.96,-480.53 384.17,-465.25"/>
<text text-anchor="middle" x="414.5" y="-488.6" font-family="arial" font-size="8.00" fill="#3cb4a4">value</text>
</g>
<!-- inline1x9 -->
<g id="node16" class="node">
<title>inline1x9</title>
<ellipse fill="#d7ede7" stroke="black" cx="504" cy="-534" rx="27" ry="18"/>
<text text-anchor="middle" x="504" y="-532.1" font-family="Arial" font-size="8.00" fill="#1a1919">1 P(0)</text>
</g>
<!-- inline1x9&#45;&gt;node9 -->
<g id="edge8" class="edge">
<title>inline1x9&#45;&gt;node9</title>
<path fill="none" stroke="#3cb4a4" d="M504,-515.8C504,-501.05 504,-479.92 504,-465.18"/>
<text text-anchor="middle" x="506" y="-488.6" font-family="arial" font-size="8.00" fill="#3cb4a4">x</text>
</g>
<!-- inline6x9 -->
<g id="node17" class="node">
<title>inline6x9</title>
<ellipse fill="#d7ede7" stroke="black" cx="576" cy="-534" rx="27" ry="18"/>
<text text-anchor="middle" x="576" y="-532.1" font-family="Arial" font-size="8.00" fill="#1a1919">6 C(0)</text>
</g>
<!-- inline6x9&#45;&gt;node9 -->
<g id="edge9" class="edge">
<title>inline6x9&#45;&gt;node9</title>
<path fill="none" stroke="#3cb4a4" d="M563.13,-517.8C549.29,-501.47 527.56,-475.81 514.65,-460.57"/>
<text text-anchor="middle" x="546" y="-488.6" font-family="arial" font-size="8.00" fill="#3cb4a4">y</text>
</g>
<!-- inline6x15 -->
<g id="node18" class="node">
<title>inline6x15</title>
<ellipse fill="#d7ede7" stroke="black" cx="27" cy="-192" rx="27" ry="18"/>
<text text-anchor="middle" x="27" y="-190.1" font-family="Arial" font-size="8.00" fill="#1a1919">6 C(0)</text>
</g>
<!-- inline6x15&#45;&gt;node15 -->
<g id="edge18" class="edge">
<title>inline6x15&#45;&gt;node15</title>
<path fill="none" stroke="#3cb4a4" d="M32.79,-174.05C36.62,-164.01 42.19,-151.28 49,-141 53.15,-134.73 58.46,-128.55 63.61,-123.16"/>
<text text-anchor="middle" x="58.5" y="-146.6" font-family="arial" font-size="8.00" fill="#3cb4a4">index</text>
</g>
<!-- inline6x17 -->
<g id="node19" class="node">
<title>inline6x17</title>
<ellipse fill="#d7ede7" stroke="black" cx="491" cy="-273" rx="27" ry="18"/>
<text text-anchor="middle" x="491" y="-271.1" font-family="Arial" font-size="8.00" fill="#1a1919">6 C(0)</text>
</g>
<!-- inline6x17&#45;&gt;node17 -->
<g id="edge22" class="edge">
<title>inline6x17&#45;&gt;node17</title>
<path fill="none" stroke="#3cb4a4" d="M481.29,-256.01C473.18,-242.67 461.65,-223.69 453.36,-210.06"/>
<text text-anchor="middle" x="477.5" y="-230.6" font-family="arial" font-size="8.00" fill="#3cb4a4">index</text>
</g>
</g>
</svg>
