<?xml version="1.0" encoding="UTF-8" standalone="no"?>
<!DOCTYPE svg PUBLIC "-//W3C//DTD SVG 1.1//EN"
 "http://www.w3.org/Graphics/SVG/1.1/DTD/svg11.dtd">
<!-- Generated by graphviz version 2.44.0 (20200408.0750)
 -->
<!-- Title: G Pages: 1 -->
<svg width="629pt" height="969pt"
 viewBox="0.00 0.00 628.50 969.00" xmlns="http://www.w3.org/2000/svg" xmlns:xlink="http://www.w3.org/1999/xlink">
<g id="graph0" class="graph" transform="scale(1 1) rotate(0) translate(4 965)">
<title>G</title>
<!-- node0 -->
<g id="node1" class="node">
<title>node0</title>
<polygon fill="#e98693" stroke="black" points="322.5,-880 266.5,-880 266.5,-844 322.5,-844 322.5,-880"/>
<text text-anchor="middle" x="294.5" y="-858.3" font-family="Arial" font-size="14.00" fill="#1a1919">0 Start</text>
</g>
<!-- node20 -->
<g id="node8" class="node">
<title>node20</title>
<polygon fill="#ffa500" stroke="black" points="253,-793 0,-793 0,-757 253,-757 253,-793"/>
<text text-anchor="middle" x="126.5" y="-771.3" font-family="Arial" font-size="14.00" fill="#1a1919">20 Guard not, else NullCheckException</text>
</g>
<!-- node0&#45;&gt;node20 -->
<g id="edge9" class="edge">
<title>node0&#45;&gt;node20</title>
<path fill="none" stroke="#3cb4a4" d="M266.38,-846.77C239.88,-833.37 199.81,-813.09 169.34,-797.68"/>
<polygon fill="#3cb4a4" stroke="#3cb4a4" points="170.72,-794.45 160.22,-793.06 167.56,-800.7 170.72,-794.45"/>
<text text-anchor="middle" x="241.5" y="-814.8" font-family="arial" font-size="14.00" fill="#3cb4a4">anchor</text>
</g>
<!-- node23 -->
<g id="node11" class="node">
<title>node23</title>
<polygon fill="#da2d4f" stroke="black" points="310.5,-532 170.5,-532 170.5,-496 310.5,-496 310.5,-532"/>
<text text-anchor="middle" x="240.5" y="-510.3" font-family="Arial" font-size="14.00" fill="#ffffff">23 RawMonitorEnter</text>
</g>
<!-- node0&#45;&gt;node23 -->
<g id="edge1" class="edge">
<title>node0&#45;&gt;node23</title>
<path fill="none" stroke="#da2d4f" stroke-width="2" d="M318.33,-843.99C336.89,-828.58 359.5,-804.05 359.5,-776 359.5,-776 359.5,-776 359.5,-600 359.5,-570 334.15,-549.59 306.86,-536.3"/>
<polygon fill="#da2d4f" stroke="#da2d4f" stroke-width="2" points="308.11,-533.03 297.56,-532.07 305.21,-539.4 308.11,-533.03"/>
</g>
<!-- node4 -->
<g id="node2" class="node">
<title>node4</title>
<polygon fill="#f9f9f9" stroke="black" points="258,-619 173,-619 173,-583 258,-583 258,-619"/>
<text text-anchor="middle" x="215.5" y="-597.3" font-family="Arial" font-size="14.00" fill="#1a1919">4 MonitorId</text>
</g>
<!-- node9 -->
<g id="node3" class="node">
<title>node9</title>
<polygon fill="#da2d4f" stroke="black" points="283.5,-364 187.5,-364 187.5,-328 283.5,-328 283.5,-364"/>
<text text-anchor="middle" x="235.5" y="-342.3" font-family="Arial" font-size="14.00" fill="#ffffff">9 MonitorExit</text>
</g>
<!-- node4&#45;&gt;node9 -->
<g id="edge3" class="edge">
<title>node4&#45;&gt;node9</title>
<path fill="none" stroke="#3cb4a4" d="M180.35,-582.88C173.69,-578.02 167.55,-572.09 163.5,-565 148.27,-538.37 154.49,-525.87 161.5,-496 172.34,-449.82 199.72,-401.57 217.97,-372.91"/>
<polygon fill="#3cb4a4" stroke="#3cb4a4" points="221.03,-374.62 223.54,-364.32 215.16,-370.81 221.03,-374.62"/>
<text text-anchor="middle" x="200.5" y="-466.8" font-family="arial" font-size="14.00" fill="#3cb4a4">monitorId</text>
</g>
<!-- node4&#45;&gt;node23 -->
<g id="edge15" class="edge">
<title>node4&#45;&gt;node23</title>
<path fill="none" stroke="#3cb4a4" d="M216.5,-582.56C217.41,-572.8 219.16,-560.53 222.5,-550 223.39,-547.19 224.49,-544.34 225.71,-541.53"/>
<polygon fill="#3cb4a4" stroke="#3cb4a4" points="228.96,-542.84 230.14,-532.31 222.65,-539.8 228.96,-542.84"/>
<text text-anchor="middle" x="251.5" y="-553.8" font-family="arial" font-size="14.00" fill="#3cb4a4">monitorId</text>
</g>
<!-- node28 -->
<g id="node14" class="node">
<title>node28</title>
<polygon fill="#da2d4f" stroke="black" points="355.5,-277 215.5,-277 215.5,-241 355.5,-241 355.5,-277"/>
<text text-anchor="middle" x="285.5" y="-255.3" font-family="Arial" font-size="14.00" fill="#ffffff">28 RawMonitorEnter</text>
</g>
<!-- node9&#45;&gt;node28 -->
<g id="edge4" class="edge">
<title>node9&#45;&gt;node28</title>
<path fill="none" stroke="#da2d4f" stroke-width="2" d="M245.62,-327.8C252.67,-315.82 262.2,-299.62 270.17,-286.06"/>
<polygon fill="#da2d4f" stroke="#da2d4f" stroke-width="2" points="273.34,-287.57 275.4,-277.18 267.31,-284.02 273.34,-287.57"/>
</g>
<!-- node11 -->
<g id="node4" class="node">
<title>node11</title>
<polygon fill="#f9f9f9" stroke="black" points="620.5,-364 528.5,-364 528.5,-328 620.5,-328 620.5,-364"/>
<text text-anchor="middle" x="574.5" y="-342.3" font-family="Arial" font-size="14.00" fill="#1a1919">11 MonitorId</text>
</g>
<!-- node16 -->
<g id="node5" class="node">
<title>node16</title>
<polygon fill="#da2d4f" stroke="black" points="588.5,-109 484.5,-109 484.5,-73 588.5,-73 588.5,-109"/>
<text text-anchor="middle" x="536.5" y="-87.3" font-family="Arial" font-size="14.00" fill="#ffffff">16 MonitorExit</text>
</g>
<!-- node11&#45;&gt;node16 -->
<g id="edge6" class="edge">
<title>node11&#45;&gt;node16</title>
<path fill="none" stroke="#3cb4a4" d="M571.89,-327.61C565.39,-284.36 548.46,-171.65 540.61,-119.37"/>
<polygon fill="#3cb4a4" stroke="#3cb4a4" points="544.03,-118.55 539.08,-109.18 537.1,-119.59 544.03,-118.55"/>
<text text-anchor="middle" x="584.5" y="-211.8" font-family="arial" font-size="14.00" fill="#3cb4a4">monitorId</text>
</g>
<!-- node11&#45;&gt;node28 -->
<g id="edge24" class="edge">
<title>node11&#45;&gt;node28</title>
<path fill="none" stroke="#3cb4a4" d="M528.39,-331.44C481.13,-317.54 407.14,-295.78 353.23,-279.92"/>
<polygon fill="#3cb4a4" stroke="#3cb4a4" points="353.99,-276.5 343.41,-277.03 352.01,-283.21 353.99,-276.5"/>
<text text-anchor="middle" x="475.5" y="-298.8" font-family="arial" font-size="14.00" fill="#3cb4a4">monitorId</text>
</g>
<!-- node18 -->
<g id="node6" class="node">
<title>node18</title>
<polygon fill="#e98693" stroke="black" points="574.5,-36 498.5,-36 498.5,0 574.5,0 574.5,-36"/>
<text text-anchor="middle" x="536.5" y="-14.3" font-family="Arial" font-size="14.00" fill="#1a1919">18 Return</text>
</g>
<!-- node16&#45;&gt;node18 -->
<g id="edge7" class="edge">
<title>node16&#45;&gt;node18</title>
<path fill="none" stroke="#da2d4f" stroke-width="2" d="M536.5,-72.81C536.5,-64.79 536.5,-55.05 536.5,-46.07"/>
<polygon fill="#da2d4f" stroke="#da2d4f" stroke-width="2" points="540,-46.03 536.5,-36.03 533,-46.03 540,-46.03"/>
</g>
<!-- node19 -->
<g id="node7" class="node">
<title>node19</title>
<polygon fill="#3cb4a4" stroke="black" points="126.5,-880 63.16,-862 126.5,-844 189.84,-862 126.5,-880"/>
<text text-anchor="middle" x="126.5" y="-858.3" font-family="Arial" font-size="14.00" fill="#1a1919">19 IsNull</text>
</g>
<!-- node19&#45;&gt;node20 -->
<g id="edge10" class="edge">
<title>node19&#45;&gt;node20</title>
<path fill="none" stroke="#3cb4a4" d="M126.5,-843.8C126.5,-832.16 126.5,-816.55 126.5,-803.24"/>
<polygon fill="#3cb4a4" stroke="#3cb4a4" points="130,-803.18 126.5,-793.18 123,-803.18 130,-803.18"/>
<text text-anchor="middle" x="130.5" y="-814.8" font-family="arial" font-size="14.00" fill="#3cb4a4">?</text>
</g>
<!-- node21 -->
<g id="node9" class="node">
<title>node21</title>
<polygon fill="#f9f9f9" stroke="black" points="153.5,-706 99.5,-706 99.5,-670 153.5,-670 153.5,-706"/>
<text text-anchor="middle" x="126.5" y="-684.3" font-family="Arial" font-size="14.00" fill="#1a1919">21 π</text>
</g>
<!-- node20&#45;&gt;node21 -->
<g id="edge11" class="edge">
<title>node20&#45;&gt;node21</title>
<path fill="none" stroke="#3cb4a4" d="M126.5,-756.8C126.5,-745.16 126.5,-729.55 126.5,-716.24"/>
<polygon fill="#3cb4a4" stroke="#3cb4a4" points="130,-716.18 126.5,-706.18 123,-716.18 130,-716.18"/>
<text text-anchor="middle" x="144" y="-727.8" font-family="arial" font-size="14.00" fill="#3cb4a4">guard</text>
</g>
<!-- node22 -->
<g id="node10" class="node">
<title>node22</title>
<polygon fill="#f9f9f9" stroke="black" points="154.5,-619 64.5,-619 64.5,-583 154.5,-583 154.5,-619"/>
<text text-anchor="middle" x="109.5" y="-597.3" font-family="Arial" font-size="14.00" fill="#1a1919">22 LoadHub</text>
</g>
<!-- node21&#45;&gt;node22 -->
<g id="edge13" class="edge">
<title>node21&#45;&gt;node22</title>
<path fill="none" stroke="#3cb4a4" d="M123.06,-669.8C120.73,-658.16 117.61,-642.55 114.95,-629.24"/>
<polygon fill="#3cb4a4" stroke="#3cb4a4" points="118.33,-628.29 112.94,-619.18 111.46,-629.67 118.33,-628.29"/>
<text text-anchor="middle" x="136" y="-640.8" font-family="arial" font-size="14.00" fill="#3cb4a4">value</text>
</g>
<!-- node21&#45;&gt;node23 -->
<g id="edge14" class="edge">
<title>node21&#45;&gt;node23</title>
<path fill="none" stroke="#3cb4a4" d="M153.72,-681.31C185.83,-673.15 238.49,-654.96 267.5,-619 287.09,-594.71 293.39,-578.42 280.5,-550 278.83,-546.32 276.57,-542.88 273.95,-539.7"/>
<polygon fill="#3cb4a4" stroke="#3cb4a4" points="276.35,-537.14 266.9,-532.35 271.3,-541.99 276.35,-537.14"/>
<text text-anchor="middle" x="305" y="-597.3" font-family="arial" font-size="14.00" fill="#3cb4a4">object</text>
</g>
<!-- node21&#45;&gt;node28 -->
<g id="edge23" class="edge">
<title>node21&#45;&gt;node28</title>
<path fill="none" stroke="#3cb4a4" d="M99.48,-678.55C68.07,-666.85 20.5,-642.45 20.5,-602 20.5,-602 20.5,-602 20.5,-345 20.5,-290.89 80.2,-312.19 131.5,-295 139.1,-292.45 171.9,-284.93 205.29,-277.51"/>
<polygon fill="#3cb4a4" stroke="#3cb4a4" points="206.16,-280.9 215.17,-275.31 204.65,-274.06 206.16,-280.9"/>
<text text-anchor="middle" x="39" y="-466.8" font-family="arial" font-size="14.00" fill="#3cb4a4">object</text>
</g>
<!-- node22&#45;&gt;node23 -->
<g id="edge16" class="edge">
<title>node22&#45;&gt;node23</title>
<path fill="none" stroke="#3cb4a4" d="M136.01,-582.8C155.99,-569.84 183.57,-551.94 205.38,-537.79"/>
<polygon fill="#3cb4a4" stroke="#3cb4a4" points="207.55,-540.55 214.03,-532.18 203.74,-534.68 207.55,-540.55"/>
<text text-anchor="middle" x="195" y="-553.8" font-family="arial" font-size="14.00" fill="#3cb4a4">hub</text>
</g>
<!-- node22&#45;&gt;node28 -->
<g id="edge25" class="edge">
<title>node22&#45;&gt;node28</title>
<path fill="none" stroke="#3cb4a4" d="M96.97,-582.72C86.24,-566.18 72.5,-540.11 72.5,-515 72.5,-515 72.5,-515 72.5,-345 72.5,-329.06 155.89,-299.79 218.32,-280.11"/>
<polygon fill="#3cb4a4" stroke="#3cb4a4" points="219.64,-283.36 228.14,-277.04 217.55,-276.68 219.64,-283.36"/>
<text text-anchor="middle" x="84" y="-423.3" font-family="arial" font-size="14.00" fill="#3cb4a4">hub</text>
</g>
<!-- node27 -->
<g id="node13" class="node">
<title>node27</title>
<polygon fill="#da2d4f" stroke="black" points="433.5,-445 223.5,-445 223.5,-409 433.5,-409 433.5,-445"/>
<text text-anchor="middle" x="328.5" y="-423.3" font-family="Arial" font-size="14.00" fill="#ffffff">27 Write#JavaExamples.intField</text>
</g>
<!-- node23&#45;&gt;node27 -->
<g id="edge17" class="edge">
<title>node23&#45;&gt;node27</title>
<path fill="none" stroke="#da2d4f" stroke-width="2" d="M258.31,-495.8C271.19,-483.36 288.78,-466.36 303.13,-452.5"/>
<polygon fill="#da2d4f" stroke="#da2d4f" stroke-width="2" points="305.96,-454.64 310.72,-445.18 301.09,-449.61 305.96,-454.64"/>
</g>
<!-- node26 -->
<g id="node12" class="node">
<title>node26</title>
<polygon fill="#f9f9f9" stroke="black" points="522.5,-532 400.5,-532 400.5,-496 522.5,-496 522.5,-532"/>
<text text-anchor="middle" x="461.5" y="-510.3" font-family="Arial" font-size="14.00" fill="#1a1919">26 OffsetAddress</text>
</g>
<!-- node26&#45;&gt;node27 -->
<g id="edge20" class="edge">
<title>node26&#45;&gt;node27</title>
<path fill="none" stroke="#3cb4a4" d="M429.04,-495.88C419.1,-490.4 408.23,-484.15 398.5,-478 385.4,-469.72 371.41,-459.93 359.41,-451.22"/>
<polygon fill="#3cb4a4" stroke="#3cb4a4" points="361.2,-448.19 351.07,-445.11 357.06,-453.84 361.2,-448.19"/>
<text text-anchor="middle" x="423" y="-466.8" font-family="arial" font-size="14.00" fill="#3cb4a4">address</text>
</g>
<!-- node29 -->
<g id="node15" class="node">
<title>node29</title>
<polygon fill="#da2d4f" stroke="black" points="441.5,-190 231.5,-190 231.5,-154 441.5,-154 441.5,-190"/>
<text text-anchor="middle" x="336.5" y="-168.3" font-family="Arial" font-size="14.00" fill="#ffffff">29 Write#JavaExamples.intField</text>
</g>
<!-- node26&#45;&gt;node29 -->
<g id="edge27" class="edge">
<title>node26&#45;&gt;node29</title>
<path fill="none" stroke="#3cb4a4" d="M461.5,-495.74C461.5,-478.57 461.5,-451.46 461.5,-428 461.5,-428 461.5,-428 461.5,-258 461.5,-227.45 435.66,-207.11 407.47,-194.01"/>
<polygon fill="#3cb4a4" stroke="#3cb4a4" points="408.83,-190.79 398.27,-190.01 406.04,-197.2 408.83,-190.79"/>
<text text-anchor="middle" x="486" y="-342.3" font-family="arial" font-size="14.00" fill="#3cb4a4">address</text>
</g>
<!-- node27&#45;&gt;node9 -->
<g id="edge22" class="edge">
<title>node27&#45;&gt;node9</title>
<path fill="none" stroke="#da2d4f" stroke-width="2" d="M308.32,-408.86C295.16,-397.68 277.8,-382.93 263.34,-370.64"/>
<polygon fill="#da2d4f" stroke="#da2d4f" stroke-width="2" points="265.53,-367.92 255.64,-364.11 261,-373.25 265.53,-367.92"/>
</g>
<!-- node28&#45;&gt;node29 -->
<g id="edge26" class="edge">
<title>node28&#45;&gt;node29</title>
<path fill="none" stroke="#da2d4f" stroke-width="2" d="M295.82,-240.8C303.01,-228.82 312.73,-212.62 320.87,-199.06"/>
<polygon fill="#da2d4f" stroke="#da2d4f" stroke-width="2" points="324.05,-200.55 326.19,-190.18 318.05,-196.95 324.05,-200.55"/>
</g>
<!-- node29&#45;&gt;node16 -->
<g id="edge29" class="edge">
<title>node29&#45;&gt;node16</title>
<path fill="none" stroke="#da2d4f" stroke-width="2" d="M379.9,-153.86C410.43,-141.8 451.46,-125.59 483.86,-112.79"/>
<polygon fill="#da2d4f" stroke="#da2d4f" stroke-width="2" points="485.17,-116.04 493.19,-109.11 482.6,-109.53 485.17,-116.04"/>
</g>
<!-- inline1x9 -->
<g id="node16" class="node">
<title>inline1x9</title>
<ellipse fill="#d7ede7" stroke="black" cx="140.5" cy="-427" rx="27" ry="18"/>
<text text-anchor="middle" x="140.5" y="-425.1" font-family="Arial" font-size="8.00" fill="#1a1919">1 P(0)</text>
</g>
<!-- inline1x9&#45;&gt;node9 -->
<g id="edge2" class="edge">
<title>inline1x9&#45;&gt;node9</title>
<path fill="none" stroke="#3cb4a4" d="M144.7,-408.86C147.61,-399.94 152.29,-389.38 159.5,-382 167.31,-374 177.3,-367.64 187.45,-362.67"/>
<text text-anchor="middle" x="170.5" y="-384.6" font-family="arial" font-size="8.00" fill="#3cb4a4">object</text>
</g>
<!-- inline1x16 -->
<g id="node17" class="node">
<title>inline1x16</title>
<ellipse fill="#d7ede7" stroke="black" cx="591.5" cy="-172" rx="27" ry="18"/>
<text text-anchor="middle" x="591.5" y="-170.1" font-family="Arial" font-size="8.00" fill="#1a1919">1 P(0)</text>
</g>
<!-- inline1x16&#45;&gt;node16 -->
<g id="edge5" class="edge">
<title>inline1x16&#45;&gt;node16</title>
<path fill="none" stroke="#3cb4a4" d="M580.63,-155.39C571.37,-142.08 558.06,-122.97 548.49,-109.22"/>
<text text-anchor="middle" x="576.5" y="-129.6" font-family="arial" font-size="8.00" fill="#3cb4a4">object</text>
</g>
<!-- inline1x19 -->
<g id="node18" class="node">
<title>inline1x19</title>
<ellipse fill="#d7ede7" stroke="black" cx="126.5" cy="-943" rx="27" ry="18"/>
<text text-anchor="middle" x="126.5" y="-941.1" font-family="Arial" font-size="8.00" fill="#1a1919">1 P(0)</text>
</g>
<!-- inline1x19&#45;&gt;node19 -->
<g id="edge8" class="edge">
<title>inline1x19&#45;&gt;node19</title>
<path fill="none" stroke="#3cb4a4" d="M126.5,-924.86C126.5,-911.61 126.5,-893.35 126.5,-880.11"/>
<text text-anchor="middle" x="136" y="-900.6" font-family="arial" font-size="8.00" fill="#3cb4a4">value</text>
</g>
<!-- inline1x21 -->
<g id="node19" class="node">
<title>inline1x21</title>
<ellipse fill="#d7ede7" stroke="black" cx="298.5" cy="-775" rx="27" ry="18"/>
<text text-anchor="middle" x="298.5" y="-773.1" font-family="Arial" font-size="8.00" fill="#1a1919">1 P(0)</text>
</g>
<!-- inline1x21&#45;&gt;node21 -->
<g id="edge12" class="edge">
<title>inline1x21&#45;&gt;node21</title>
<path fill="none" stroke="#3cb4a4" d="M277.41,-763.58C246.28,-748.19 188.03,-719.41 153.72,-702.45"/>
<text text-anchor="middle" x="233.5" y="-729.6" font-family="arial" font-size="8.00" fill="#3cb4a4">object</text>
</g>
<!-- inline24x26 -->
<g id="node20" class="node">
<title>inline24x26</title>
<ellipse fill="#d7ede7" stroke="black" cx="450.5" cy="-601" rx="51.74" ry="18"/>
<text text-anchor="middle" x="450.5" y="-599.1" font-family="Arial" font-size="8.00" fill="#1a1919">24 C(instance:Class)</text>
</g>
<!-- inline24x26&#45;&gt;node26 -->
<g id="edge18" class="edge">
<title>inline24x26&#45;&gt;node26</title>
<path fill="none" stroke="#3cb4a4" d="M452.73,-582.8C454.63,-568.05 457.37,-546.92 459.28,-532.18"/>
<text text-anchor="middle" x="465.5" y="-555.6" font-family="arial" font-size="8.00" fill="#3cb4a4">base</text>
</g>
<!-- inline25x26 -->
<g id="node21" class="node">
<title>inline25x26</title>
<ellipse fill="#d7ede7" stroke="black" cx="550.5" cy="-601" rx="30.13" ry="18"/>
<text text-anchor="middle" x="550.5" y="-599.1" font-family="Arial" font-size="8.00" fill="#1a1919">25 C(128)</text>
</g>
<!-- inline25x26&#45;&gt;node26 -->
<g id="edge19" class="edge">
<title>inline25x26&#45;&gt;node26</title>
<path fill="none" stroke="#3cb4a4" d="M535,-585.19C519.56,-570.45 495.87,-547.83 479.58,-532.27"/>
<text text-anchor="middle" x="520.5" y="-555.6" font-family="arial" font-size="8.00" fill="#3cb4a4">offset</text>
</g>
<!-- inline2x27 -->
<g id="node22" class="node">
<title>inline2x27</title>
<ellipse fill="#d7ede7" stroke="black" cx="355.5" cy="-514" rx="27" ry="18"/>
<text text-anchor="middle" x="355.5" y="-512.1" font-family="Arial" font-size="8.00" fill="#1a1919">2 P(1)</text>
</g>
<!-- inline2x27&#45;&gt;node27 -->
<g id="edge21" class="edge">
<title>inline2x27&#45;&gt;node27</title>
<path fill="none" stroke="#3cb4a4" d="M350.17,-496.21C345.46,-481.4 338.64,-459.93 333.92,-445.05"/>
<text text-anchor="middle" x="353" y="-468.6" font-family="arial" font-size="8.00" fill="#3cb4a4">value</text>
</g>
<!-- inline2x29 -->
<g id="node23" class="node">
<title>inline2x29</title>
<ellipse fill="#d7ede7" stroke="black" cx="170.5" cy="-259" rx="27" ry="18"/>
<text text-anchor="middle" x="170.5" y="-257.1" font-family="Arial" font-size="8.00" fill="#1a1919">2 P(1)</text>
</g>
<!-- inline2x29&#45;&gt;node29 -->
<g id="edge28" class="edge">
<title>inline2x29&#45;&gt;node29</title>
<path fill="none" stroke="#3cb4a4" d="M191.19,-247.41C219.26,-233.03 269.75,-207.18 303.19,-190.06"/>
<text text-anchor="middle" x="272" y="-213.6" font-family="arial" font-size="8.00" fill="#3cb4a4">value</text>
</g>
</g>
</svg>
