<?xml version="1.0" encoding="UTF-8" standalone="no"?>
<!DOCTYPE svg PUBLIC "-//W3C//DTD SVG 1.1//EN"
 "http://www.w3.org/Graphics/SVG/1.1/DTD/svg11.dtd">
<!-- Generated by graphviz version 2.43.0 (0)
 -->
<!-- Title: G Pages: 1 -->
<svg width="388pt" height="374pt"
 viewBox="0.00 0.00 387.74 374.40" xmlns="http://www.w3.org/2000/svg" xmlns:xlink="http://www.w3.org/1999/xlink">
<g id="graph0" class="graph" transform="scale(1 1) rotate(0) translate(4 370.4)">
<title>G</title>
' points="-4,4 -4,-370.4 383.74,-370.4 383.74,4 -4,4"/>
<!-- node0 -->
<g id="node1" class="node">
<title>node0</title>
<polygon fill="#e98693" stroke="black" points="79.48,-366.4 22,-366.4 22,-330.4 79.48,-330.4 79.48,-366.4"/>
<text text-anchor="middle" x="50.74" y="-345.25" font-family="Arial" font-size="14.00" fill="#1a1919">0 Start</text>
</g>
<!-- node5 -->
<g id="node2" class="node">
<title>node5</title>
<polygon fill="#da2d4f" stroke="black" points="132.37,-285.2 43.11,-285.2 43.11,-249.2 132.37,-249.2 132.37,-285.2"/>
<text text-anchor="middle" x="87.74" y="-264.05" font-family="Arial" font-size="14.00" fill="#ffffff">5 NewArray</text>
</g>
<!-- node0&#45;&gt;node5 -->
<g id="edge1" class="edge">
<title>node0&#45;&gt;node5</title>
<path fill="none" stroke="#da2d4f" stroke-width="2" d="M58.77,-330.21C63.62,-319.83 69.9,-306.39 75.37,-294.68"/>
<polygon fill="#da2d4f" stroke="#da2d4f" stroke-width="2" points="78.67,-295.89 79.73,-285.35 72.32,-292.93 78.67,-295.89"/>
</g>
<!-- node7 -->
<g id="node3" class="node">
<title>node7</title>
<polygon fill="#da2d4f" stroke="black" points="236.2,-197.1 125.28,-197.1 125.28,-161.1 236.2,-161.1 236.2,-197.1"/>
<text text-anchor="middle" x="180.74" y="-175.95" font-family="Arial" font-size="14.00" fill="#ffffff">7 StoreIndexed</text>
</g>
<!-- node5&#45;&gt;node7 -->
<g id="edge3" class="edge">
<title>node5&#45;&gt;node7</title>
<path fill="none" stroke="#da2d4f" stroke-width="2" d="M93.82,-248.93C98.29,-238.17 105.24,-224.61 114.74,-215.1 119.48,-210.35 125,-206.09 130.79,-202.32"/>
<polygon fill="#da2d4f" stroke="#da2d4f" stroke-width="2" points="132.64,-205.29 139.41,-197.14 129.04,-199.29 132.64,-205.29"/>
</g>
<!-- node5&#45;&gt;node7 -->
<g id="edge4" class="edge">
<title>node5&#45;&gt;node7</title>
<path fill="none" stroke="#3cb4a4" d="M106.12,-249.19C119.91,-236.42 138.99,-218.75 154.41,-204.48"/>
<polygon fill="#3cb4a4" stroke="#3cb4a4" points="157.13,-206.73 162.09,-197.37 152.37,-201.59 157.13,-206.73"/>
<text text-anchor="middle" x="157.69" y="-220" font-family="arial" font-size="14.00" fill="#3cb4a4">array</text>
</g>
<!-- node10 -->
<g id="node4" class="node">
<title>node10</title>
<polygon fill="#da2d4f" stroke="black" points="239.99,-109 121.5,-109 121.5,-73 239.99,-73 239.99,-109"/>
<text text-anchor="middle" x="180.74" y="-87.85" font-family="Arial" font-size="14.00" fill="#ffffff">10 StoreIndexed</text>
</g>
<!-- node5&#45;&gt;node10 -->
<g id="edge8" class="edge">
<title>node5&#45;&gt;node10</title>
<path fill="none" stroke="#3cb4a4" d="M82.49,-249.08C76.84,-227.32 70.45,-189.21 84.84,-161.1 95.18,-140.92 114.46,-125.28 133.04,-114.03"/>
<polygon fill="#3cb4a4" stroke="#3cb4a4" points="134.84,-117.03 141.77,-109.01 131.36,-110.96 134.84,-117.03"/>
<text text-anchor="middle" x="101.69" y="-175.95" font-family="arial" font-size="14.00" fill="#3cb4a4">array</text>
</g>
<!-- node12 -->
<g id="node5" class="node">
<title>node12</title>
<polygon fill="#e98693" stroke="black" points="77.73,-36 -0.24,-36 -0.24,0 77.73,0 77.73,-36"/>
<text text-anchor="middle" x="38.74" y="-14.85" font-family="Arial" font-size="14.00" fill="#1a1919">12 Return</text>
</g>
<!-- node5&#45;&gt;node12 -->
<g id="edge12" class="edge">
<title>node5&#45;&gt;node12</title>
<path fill="none" stroke="#3cb4a4" d="M79.4,-249.06C76.95,-243.47 74.47,-237.17 72.74,-231.2 53.93,-166.22 44.71,-86.85 40.93,-46.06"/>
<polygon fill="#3cb4a4" stroke="#3cb4a4" points="44.42,-45.74 40.05,-36.09 37.44,-46.36 44.42,-45.74"/>
<text text-anchor="middle" x="70.86" y="-131.9" font-family="arial" font-size="14.00" fill="#3cb4a4">result</text>
</g>
<!-- node7&#45;&gt;node10 -->
<g id="edge7" class="edge">
<title>node7&#45;&gt;node10</title>
<path fill="none" stroke="#da2d4f" stroke-width="2" d="M180.74,-161.09C180.74,-149.26 180.74,-133.22 180.74,-119.57"/>
<polygon fill="#da2d4f" stroke="#da2d4f" stroke-width="2" points="184.24,-119.27 180.74,-109.27 177.24,-119.27 184.24,-119.27"/>
</g>
<!-- node10&#45;&gt;node12 -->
<g id="edge11" class="edge">
<title>node10&#45;&gt;node12</title>
<path fill="none" stroke="#da2d4f" stroke-width="2" d="M146.73,-72.99C127.29,-63.27 102.71,-50.99 81.92,-40.59"/>
<polygon fill="#da2d4f" stroke="#da2d4f" stroke-width="2" points="83.48,-37.46 72.97,-36.11 80.35,-43.72 83.48,-37.46"/>
</g>
<!-- inline4x5 -->
<g id="node6" class="node">
<title>inline4x5</title>
<ellipse fill="#d7ede7" stroke="black" cx="124.74" cy="-348.4" rx="27" ry="18"/>
<text text-anchor="middle" x="124.74" y="-346.6" font-family="Arial" font-size="8.00" fill="#1a1919">4 C(2)</text>
</g>
<!-- inline4x5&#45;&gt;node5 -->
<g id="edge2" class="edge">
<title>inline4x5&#45;&gt;node5</title>
<path fill="none" stroke="#3cb4a4" d="M117.07,-330.99C110.85,-317.67 102.1,-298.94 95.78,-285.41"/>
<text text-anchor="middle" x="117.64" y="-306" font-family="arial" font-size="8.00" fill="#3cb4a4">length</text>
</g>
<!-- inline6x7 -->
<g id="node7" class="node">
<title>inline6x7</title>
<ellipse fill="#d7ede7" stroke="black" cx="188.74" cy="-267.2" rx="27" ry="18"/>
<text text-anchor="middle" x="188.74" y="-265.4" font-family="Arial" font-size="8.00" fill="#1a1919">6 C(0)</text>
</g>
<!-- inline6x7&#45;&gt;node7 -->
<g id="edge5" class="edge">
<title>inline6x7&#45;&gt;node7</title>
<path fill="none" stroke="#3cb4a4" d="M187.16,-249.19C185.77,-234.19 183.75,-212.44 182.35,-197.37"/>
<text text-anchor="middle" x="194.3" y="-221.35" font-family="arial" font-size="8.00" fill="#3cb4a4">index</text>
</g>
<!-- inline1x7 -->
<g id="node8" class="node">
<title>inline1x7</title>
<ellipse fill="#d7ede7" stroke="black" cx="260.74" cy="-267.2" rx="27" ry="18"/>
<text text-anchor="middle" x="260.74" y="-265.4" font-family="Arial" font-size="8.00" fill="#1a1919">1 P(0)</text>
</g>
<!-- inline1x7&#45;&gt;node7 -->
<g id="edge6" class="edge">
<title>inline1x7&#45;&gt;node7</title>
<path fill="none" stroke="#3cb4a4" d="M247.17,-251.59C233.17,-236.53 211.36,-213.05 196.58,-197.15"/>
<text text-anchor="middle" x="237.3" y="-221.35" font-family="arial" font-size="8.00" fill="#3cb4a4">value</text>
</g>
<!-- inline9x10 -->
<g id="node9" class="node">
<title>inline9x10</title>
<ellipse fill="#d7ede7" stroke="black" cx="280.74" cy="-179.1" rx="27" ry="18"/>
<text text-anchor="middle" x="280.74" y="-177.3" font-family="Arial" font-size="8.00" fill="#1a1919">9 C(1)</text>
</g>
<!-- inline9x10&#45;&gt;node10 -->
<g id="edge9" class="edge">
<title>inline9x10&#45;&gt;node10</title>
<path fill="none" stroke="#3cb4a4" d="M264.67,-164.27C247.23,-149.24 219.35,-125.24 200.55,-109.06"/>
<text text-anchor="middle" x="248.3" y="-133.25" font-family="arial" font-size="8.00" fill="#3cb4a4">index</text>
</g>
<!-- inline2x10 -->
<g id="node10" class="node">
<title>inline2x10</title>
<ellipse fill="#d7ede7" stroke="black" cx="352.74" cy="-179.1" rx="27" ry="18"/>
<text text-anchor="middle" x="352.74" y="-177.3" font-family="Arial" font-size="8.00" fill="#1a1919">2 P(1)</text>
</g>
<!-- inline2x10&#45;&gt;node10 -->
<g id="edge10" class="edge">
<title>inline2x10&#45;&gt;node10</title>
<path fill="none" stroke="#3cb4a4" d="M333.18,-166.33C314.96,-155.57 286.91,-139.46 261.74,-127 249.25,-120.81 235.4,-114.6 222.74,-109.17"/>
<text text-anchor="middle" x="301.3" y="-133.25" font-family="arial" font-size="8.00" fill="#3cb4a4">value</text>
</g>
</g>
</svg>
