<?xml version="1.0" encoding="UTF-8" standalone="no"?>
<!DOCTYPE svg PUBLIC "-//W3C//DTD SVG 1.1//EN"
 "http://www.w3.org/Graphics/SVG/1.1/DTD/svg11.dtd">
<!-- Generated by graphviz version 2.43.0 (0)
 -->
<!-- Title: G Pages: 1 -->
<svg width="440pt" height="632pt"
 viewBox="0.00 0.00 440.39 631.79" xmlns="http://www.w3.org/2000/svg" xmlns:xlink="http://www.w3.org/1999/xlink">
<g id="graph0" class="graph" transform="scale(1 1) rotate(0) translate(4 627.79)">
<title>G</title>
' points="-4,4 -4,-627.79 436.39,-627.79 436.39,4 -4,4"/>
<!-- node0 -->
<g id="node1" class="node">
<title>node0</title>
<polygon fill="#e98693" stroke="black" points="349.13,-623.79 291.65,-623.79 291.65,-587.79 349.13,-587.79 349.13,-623.79"/>
<text text-anchor="middle" x="320.39" y="-602.64" font-family="Arial" font-size="14.00" fill="#1a1919">0 Start</text>
</g>
<!-- node5 -->
<g id="node3" class="node">
<title>node5</title>
<polygon fill="#da2d4f" stroke="black" points="317.21,-535.69 209.57,-535.69 209.57,-499.69 317.21,-499.69 317.21,-535.69"/>
<text text-anchor="middle" x="263.39" y="-514.54" font-family="Arial" font-size="14.00" fill="#ffffff">5 MonitorEnter</text>
</g>
<!-- node0&#45;&gt;node5 -->
<g id="edge1" class="edge">
<title>node0&#45;&gt;node5</title>
<path fill="none" stroke="#da2d4f" stroke-width="2" d="M309.13,-587.78C300.99,-575.48 289.83,-558.64 280.58,-544.66"/>
<polygon fill="#da2d4f" stroke="#da2d4f" stroke-width="2" points="283.26,-542.37 274.82,-535.96 277.43,-546.23 283.26,-542.37"/>
</g>
<!-- node4 -->
<g id="node2" class="node">
<title>node4</title>
<polygon fill="#f9f9f9" stroke="black" points="188.42,-623.79 102.36,-623.79 102.36,-587.79 188.42,-587.79 188.42,-623.79"/>
<text text-anchor="middle" x="145.39" y="-602.64" font-family="Arial" font-size="14.00" fill="#1a1919">4 MonitorId</text>
</g>
<!-- node4&#45;&gt;node5 -->
<g id="edge3" class="edge">
<title>node4&#45;&gt;node5</title>
<path fill="none" stroke="#3cb4a4" d="M157.94,-587.58C166.4,-576.84 178.31,-563.29 191.03,-553.69 197.38,-548.91 204.48,-544.52 211.69,-540.59"/>
<polygon fill="#3cb4a4" stroke="#3cb4a4" points="213.56,-543.56 220.83,-535.86 210.34,-537.35 213.56,-543.56"/>
<text text-anchor="middle" x="220.57" y="-558.59" font-family="arial" font-size="14.00" fill="#3cb4a4">monitorId</text>
</g>
<!-- node9 -->
<g id="node5" class="node">
<title>node9</title>
<polygon fill="#da2d4f" stroke="black" points="291.09,-366.4 193.69,-366.4 193.69,-330.4 291.09,-330.4 291.09,-366.4"/>
<text text-anchor="middle" x="242.39" y="-345.25" font-family="Arial" font-size="14.00" fill="#ffffff">9 MonitorExit</text>
</g>
<!-- node4&#45;&gt;node9 -->
<g id="edge8" class="edge">
<title>node4&#45;&gt;node9</title>
<path fill="none" stroke="#3cb4a4" d="M135.71,-587.78C116.84,-552.15 80,-468.33 115.39,-411.6 123.74,-398.2 155.75,-382.57 185.53,-370.33"/>
<polygon fill="#3cb4a4" stroke="#3cb4a4" points="187.12,-373.46 195.09,-366.48 184.51,-366.97 187.12,-373.46"/>
<text text-anchor="middle" x="130.57" y="-470.49" font-family="arial" font-size="14.00" fill="#3cb4a4">monitorId</text>
</g>
<!-- node7 -->
<g id="node4" class="node">
<title>node7</title>
<polygon fill="#da2d4f" stroke="black" points="360.32,-447.6 124.46,-447.6 124.46,-411.6 360.32,-411.6 360.32,-447.6"/>
<text text-anchor="middle" x="242.39" y="-426.45" font-family="Arial" font-size="14.00" fill="#ffffff">7 StoreField JavaExamples.intField</text>
</g>
<!-- node5&#45;&gt;node7 -->
<g id="edge4" class="edge">
<title>node5&#45;&gt;node7</title>
<path fill="none" stroke="#da2d4f" stroke-width="2" d="M259.24,-499.68C256.33,-487.73 252.37,-471.5 249.02,-457.76"/>
<polygon fill="#da2d4f" stroke="#da2d4f" stroke-width="2" points="252.37,-456.75 246.6,-447.87 245.57,-458.41 252.37,-456.75"/>
</g>
<!-- node7&#45;&gt;node9 -->
<g id="edge6" class="edge">
<title>node7&#45;&gt;node9</title>
<path fill="none" stroke="#da2d4f" stroke-width="2" d="M242.39,-411.41C242.39,-401.24 242.39,-388.13 242.39,-376.58"/>
<polygon fill="#da2d4f" stroke="#da2d4f" stroke-width="2" points="245.89,-376.55 242.39,-366.55 238.89,-376.55 245.89,-376.55"/>
</g>
<!-- node12 -->
<g id="node7" class="node">
<title>node12</title>
<polygon fill="#da2d4f" stroke="black" points="257,-278.3 141.78,-278.3 141.78,-242.3 257,-242.3 257,-278.3"/>
<text text-anchor="middle" x="199.39" y="-257.15" font-family="Arial" font-size="14.00" fill="#ffffff">12 MonitorEnter</text>
</g>
<!-- node9&#45;&gt;node12 -->
<g id="edge9" class="edge">
<title>node9&#45;&gt;node12</title>
<path fill="none" stroke="#da2d4f" stroke-width="2" d="M233.9,-330.39C227.81,-318.2 219.5,-301.56 212.56,-287.66"/>
<polygon fill="#da2d4f" stroke="#da2d4f" stroke-width="2" points="215.61,-285.95 208.02,-278.57 209.35,-289.08 215.61,-285.95"/>
</g>
<!-- node11 -->
<g id="node6" class="node">
<title>node11</title>
<polygon fill="#f9f9f9" stroke="black" points="92.67,-366.4 0.11,-366.4 0.11,-330.4 92.67,-330.4 92.67,-366.4"/>
<text text-anchor="middle" x="46.39" y="-345.25" font-family="Arial" font-size="14.00" fill="#1a1919">11 MonitorId</text>
</g>
<!-- node11&#45;&gt;node12 -->
<g id="edge11" class="edge">
<title>node11&#45;&gt;node12</title>
<path fill="none" stroke="#3cb4a4" d="M63.49,-330.25C75.02,-319.41 91.01,-305.71 107.03,-296.3 116,-291.03 125.89,-286.3 135.78,-282.14"/>
<polygon fill="#3cb4a4" stroke="#3cb4a4" points="137.26,-285.31 145.22,-278.33 134.64,-278.82 137.26,-285.31"/>
<text text-anchor="middle" x="136.57" y="-301.2" font-family="arial" font-size="14.00" fill="#3cb4a4">monitorId</text>
</g>
<!-- node16 -->
<g id="node9" class="node">
<title>node16</title>
<polygon fill="#da2d4f" stroke="black" points="231.37,-109 125.41,-109 125.41,-73 231.37,-73 231.37,-109"/>
<text text-anchor="middle" x="178.39" y="-87.85" font-family="Arial" font-size="14.00" fill="#ffffff">16 MonitorExit</text>
</g>
<!-- node11&#45;&gt;node16 -->
<g id="edge16" class="edge">
<title>node11&#45;&gt;node16</title>
<path fill="none" stroke="#3cb4a4" d="M40.88,-330.23C30.46,-294.31 11.94,-209.96 47.39,-154.2 62.66,-130.18 90,-115.24 115.76,-106.05"/>
<polygon fill="#3cb4a4" stroke="#3cb4a4" points="117.14,-109.28 125.53,-102.81 114.93,-102.64 117.14,-109.28"/>
<text text-anchor="middle" x="57.57" y="-213.1" font-family="arial" font-size="14.00" fill="#3cb4a4">monitorId</text>
</g>
<!-- node14 -->
<g id="node8" class="node">
<title>node14</title>
<polygon fill="#da2d4f" stroke="black" points="300.11,-190.2 56.67,-190.2 56.67,-154.2 300.11,-154.2 300.11,-190.2"/>
<text text-anchor="middle" x="178.39" y="-169.05" font-family="Arial" font-size="14.00" fill="#ffffff">14 StoreField JavaExamples.intField</text>
</g>
<!-- node12&#45;&gt;node14 -->
<g id="edge12" class="edge">
<title>node12&#45;&gt;node14</title>
<path fill="none" stroke="#da2d4f" stroke-width="2" d="M195.24,-242.29C192.33,-230.34 188.37,-214.1 185.02,-200.37"/>
<polygon fill="#da2d4f" stroke="#da2d4f" stroke-width="2" points="188.37,-199.35 182.6,-190.47 181.57,-201.01 188.37,-199.35"/>
</g>
<!-- node14&#45;&gt;node16 -->
<g id="edge14" class="edge">
<title>node14&#45;&gt;node16</title>
<path fill="none" stroke="#da2d4f" stroke-width="2" d="M178.39,-154.01C178.39,-143.84 178.39,-130.73 178.39,-119.19"/>
<polygon fill="#da2d4f" stroke="#da2d4f" stroke-width="2" points="181.89,-119.15 178.39,-109.15 174.89,-119.15 181.89,-119.15"/>
</g>
<!-- node18 -->
<g id="node10" class="node">
<title>node18</title>
<polygon fill="#e98693" stroke="black" points="217.37,-36 139.41,-36 139.41,0 217.37,0 217.37,-36"/>
<text text-anchor="middle" x="178.39" y="-14.85" font-family="Arial" font-size="14.00" fill="#1a1919">18 Return</text>
</g>
<!-- node16&#45;&gt;node18 -->
<g id="edge17" class="edge">
<title>node16&#45;&gt;node18</title>
<path fill="none" stroke="#da2d4f" stroke-width="2" d="M178.39,-72.81C178.39,-64.79 178.39,-55.05 178.39,-46.07"/>
<polygon fill="#da2d4f" stroke="#da2d4f" stroke-width="2" points="181.89,-46.03 178.39,-36.03 174.89,-46.03 181.89,-46.03"/>
</g>
<!-- inline1x5 -->
<g id="node11" class="node">
<title>inline1x5</title>
<ellipse fill="#d7ede7" stroke="black" cx="246.39" cy="-605.79" rx="27" ry="18"/>
<text text-anchor="middle" x="246.39" y="-603.99" font-family="Arial" font-size="8.00" fill="#1a1919">1 P(0)</text>
</g>
<!-- inline1x5&#45;&gt;node5 -->
<g id="edge2" class="edge">
<title>inline1x5&#45;&gt;node5</title>
<path fill="none" stroke="#3cb4a4" d="M249.75,-587.78C252.71,-572.79 257,-551.04 259.98,-535.96"/>
<text text-anchor="middle" x="268.06" y="-559.94" font-family="arial" font-size="8.00" fill="#3cb4a4">object</text>
</g>
<!-- inline2x7 -->
<g id="node12" class="node">
<title>inline2x7</title>
<ellipse fill="#d7ede7" stroke="black" cx="164.39" cy="-517.69" rx="27" ry="18"/>
<text text-anchor="middle" x="164.39" y="-515.89" font-family="Arial" font-size="8.00" fill="#1a1919">2 P(1)</text>
</g>
<!-- inline2x7&#45;&gt;node7 -->
<g id="edge5" class="edge">
<title>inline2x7&#45;&gt;node7</title>
<path fill="none" stroke="#3cb4a4" d="M177.98,-501.7C191.6,-486.67 212.54,-463.55 226.82,-447.79"/>
<text text-anchor="middle" x="219.95" y="-471.84" font-family="arial" font-size="8.00" fill="#3cb4a4">value</text>
</g>
<!-- inline1x9 -->
<g id="node13" class="node">
<title>inline1x9</title>
<ellipse fill="#d7ede7" stroke="black" cx="405.39" cy="-429.6" rx="27" ry="18"/>
<text text-anchor="middle" x="405.39" y="-427.8" font-family="Arial" font-size="8.00" fill="#1a1919">1 P(0)</text>
</g>
<!-- inline1x9&#45;&gt;node9 -->
<g id="edge7" class="edge">
<title>inline1x9&#45;&gt;node9</title>
<path fill="none" stroke="#3cb4a4" d="M384.08,-418.24C356.98,-405.08 309.83,-382.17 277.41,-366.41"/>
<text text-anchor="middle" x="339.06" y="-387.2" font-family="arial" font-size="8.00" fill="#3cb4a4">object</text>
</g>
<!-- inline1x12 -->
<g id="node14" class="node">
<title>inline1x12</title>
<ellipse fill="#d7ede7" stroke="black" cx="148.39" cy="-348.4" rx="27" ry="18"/>
<text text-anchor="middle" x="148.39" y="-346.6" font-family="Arial" font-size="8.00" fill="#1a1919">1 P(0)</text>
</g>
<!-- inline1x12&#45;&gt;node12 -->
<g id="edge10" class="edge">
<title>inline1x12&#45;&gt;node12</title>
<path fill="none" stroke="#3cb4a4" d="M157.98,-331.2C166.93,-316.1 180.22,-293.66 189.32,-278.3"/>
<text text-anchor="middle" x="190.06" y="-302.55" font-family="arial" font-size="8.00" fill="#3cb4a4">object</text>
</g>
<!-- inline2x14 -->
<g id="node15" class="node">
<title>inline2x14</title>
<ellipse fill="#d7ede7" stroke="black" cx="96.39" cy="-260.3" rx="27" ry="18"/>
<text text-anchor="middle" x="96.39" y="-258.5" font-family="Arial" font-size="8.00" fill="#1a1919">2 P(1)</text>
</g>
<!-- inline2x14&#45;&gt;node14 -->
<g id="edge13" class="edge">
<title>inline2x14&#45;&gt;node14</title>
<path fill="none" stroke="#3cb4a4" d="M110.3,-244.69C124.65,-229.63 147.01,-206.15 162.15,-190.25"/>
<text text-anchor="middle" x="154.95" y="-214.45" font-family="arial" font-size="8.00" fill="#3cb4a4">value</text>
</g>
<!-- inline1x16 -->
<g id="node16" class="node">
<title>inline1x16</title>
<ellipse fill="#d7ede7" stroke="black" cx="345.39" cy="-172.2" rx="27" ry="18"/>
<text text-anchor="middle" x="345.39" y="-170.4" font-family="Arial" font-size="8.00" fill="#1a1919">1 P(0)</text>
</g>
<!-- inline1x16&#45;&gt;node16 -->
<g id="edge15" class="edge">
<title>inline1x16&#45;&gt;node16</title>
<path fill="none" stroke="#3cb4a4" d="M323.9,-161.01C296.24,-147.89 247.78,-124.91 214.43,-109.09"/>
<text text-anchor="middle" x="278.06" y="-129.8" font-family="arial" font-size="8.00" fill="#3cb4a4">object</text>
</g>
</g>
</svg>
