<?xml version="1.0" encoding="UTF-8" standalone="no"?>
<!DOCTYPE svg PUBLIC "-//W3C//DTD SVG 1.1//EN"
 "http://www.w3.org/Graphics/SVG/1.1/DTD/svg11.dtd">
<!-- Generated by graphviz version 2.43.0 (0)
 -->
<!-- Title: G Pages: 1 -->
<svg width="507pt" height="944pt"
 viewBox="0.00 0.00 506.97 943.69" xmlns="http://www.w3.org/2000/svg" xmlns:xlink="http://www.w3.org/1999/xlink">
<g id="graph0" class="graph" transform="scale(1 1) rotate(0) translate(4 939.69)">
<title>G</title>
' points="-4,4 -4,-939.69 502.97,-939.69 502.97,4 -4,4"/>
<!-- node0 -->
<g id="node1" class="node">
<title>node0</title>
<polygon fill="#e98693" stroke="black" points="141.71,-935.69 84.23,-935.69 84.23,-899.69 141.71,-899.69 141.71,-935.69"/>
<text text-anchor="middle" x="112.97" y="-914.54" font-family="Arial" font-size="14.00" fill="#1a1919">0 Start</text>
</g>
<!-- node4 -->
<g id="node2" class="node">
<title>node4</title>
<polygon fill="#e98693" stroke="black" points="139.97,-862.69 85.97,-862.69 85.97,-826.69 139.97,-826.69 139.97,-862.69"/>
<text text-anchor="middle" x="112.97" y="-841.54" font-family="Arial" font-size="14.00" fill="#1a1919">4 End</text>
</g>
<!-- node0&#45;&gt;node4 -->
<g id="edge1" class="edge">
<title>node0&#45;&gt;node4</title>
<path fill="none" stroke="#da2d4f" stroke-width="2" d="M112.97,-899.51C112.97,-891.48 112.97,-881.74 112.97,-872.76"/>
<polygon fill="#da2d4f" stroke="#da2d4f" stroke-width="2" points="116.47,-872.72 112.97,-862.72 109.47,-872.72 116.47,-872.72"/>
</g>
<!-- node5 -->
<g id="node3" class="node">
<title>node5</title>
<polygon fill="#e98693" stroke="black" points="160.1,-789.69 65.84,-789.69 65.84,-753.69 160.1,-753.69 160.1,-789.69"/>
<text text-anchor="middle" x="112.97" y="-768.54" font-family="Arial" font-size="14.00" fill="#1a1919">5 LoopBegin</text>
</g>
<!-- node4&#45;&gt;node5 -->
<g id="edge2" class="edge">
<title>node4&#45;&gt;node5</title>
<path fill="none" stroke="#da2d4f" stroke-width="2" d="M112.97,-826.51C112.97,-818.48 112.97,-808.74 112.97,-799.76"/>
<polygon fill="#da2d4f" stroke="#da2d4f" stroke-width="2" points="116.47,-799.72 112.97,-789.72 109.47,-799.72 116.47,-799.72"/>
</g>
<!-- node6 -->
<g id="node4" class="node">
<title>node6</title>
<polygon fill="#f9f9f9" stroke="black" points="338.97,-708.5 284.97,-708.5 284.97,-672.5 338.97,-672.5 338.97,-708.5"/>
<text text-anchor="middle" x="311.97" y="-687.34" font-family="Arial" font-size="14.00" fill="#1a1919">6 ϕ</text>
</g>
<!-- node5&#45;&gt;node6 -->
<g id="edge4" class="edge">
<title>node5&#45;&gt;node6</title>
<path fill="none" stroke="#343d46" stroke-dasharray="5,2" d="M169.93,-750.18C201.42,-738.53 241.12,-723.35 275.97,-708.5 278.9,-707.25 281.93,-705.9 284.95,-704.53"/>
<polygon fill="#343d46" stroke="#343d46" points="168.61,-746.94 160.43,-753.68 171.03,-753.51 168.61,-746.94"/>
</g>
<!-- node13 -->
<g id="node7" class="node">
<title>node13</title>
<polygon fill="#e98693" stroke="black" points="154.92,-444.2 65.03,-444.2 65.03,-408.2 154.92,-408.2 154.92,-444.2"/>
<text text-anchor="middle" x="109.97" y="-423.05" font-family="Arial" font-size="14.00" fill="#1a1919">13 LoopExit</text>
</g>
<!-- node5&#45;&gt;node13 -->
<g id="edge10" class="edge">
<title>node5&#45;&gt;node13</title>
<path fill="none" stroke="#343d46" stroke-dasharray="5,2" d="M93.5,-744.99C84.16,-730.16 74.97,-710.69 74.97,-691.5 74.97,-691.5 74.97,-691.5 74.97,-513.3 74.97,-487.97 88.14,-461.32 98.32,-444.5"/>
<polygon fill="#343d46" stroke="#343d46" points="90.78,-747.22 99.25,-753.58 96.6,-743.32 90.78,-747.22"/>
</g>
<!-- node15 -->
<g id="node8" class="node">
<title>node15</title>
<polygon fill="#e98693" stroke="black" points="176.97,-532.3 122.97,-532.3 122.97,-496.3 176.97,-496.3 176.97,-532.3"/>
<text text-anchor="middle" x="149.97" y="-511.15" font-family="Arial" font-size="14.00" fill="#1a1919">15 If</text>
</g>
<!-- node5&#45;&gt;node15 -->
<g id="edge3" class="edge">
<title>node5&#45;&gt;node15</title>
<path fill="none" stroke="#da2d4f" stroke-width="2" d="M113.84,-753.62C115.7,-720.68 120.85,-646.15 131.97,-584.4 134.5,-570.39 138.38,-555.04 141.89,-542.38"/>
<polygon fill="#da2d4f" stroke="#da2d4f" stroke-width="2" points="145.34,-543.03 144.72,-532.46 138.61,-541.11 145.34,-543.03"/>
</g>
<!-- node20 -->
<g id="node11" class="node">
<title>node20</title>
<polygon fill="#e98693" stroke="black" points="89.92,-263.2 0.03,-263.2 0.03,-227.2 89.92,-227.2 89.92,-263.2"/>
<text text-anchor="middle" x="44.97" y="-242.05" font-family="Arial" font-size="14.00" fill="#1a1919">20 LoopExit</text>
</g>
<!-- node5&#45;&gt;node20 -->
<g id="edge18" class="edge">
<title>node5&#45;&gt;node20</title>
<path fill="none" stroke="#343d46" stroke-dasharray="5,2" d="M72.81,-747.8C54.56,-734.18 36.97,-714.96 36.97,-691.5 36.97,-691.5 36.97,-691.5 36.97,-352.2 36.97,-320.83 40.5,-284.38 42.87,-263.43"/>
<polygon fill="#343d46" stroke="#343d46" points="70.98,-750.8 81.18,-753.66 75,-745.06 70.98,-750.8"/>
</g>
<!-- node27 -->
<g id="node15" class="node">
<title>node27</title>
<polygon fill="#e98693" stroke="black" points="327.49,-117.2 236.45,-117.2 236.45,-81.2 327.49,-81.2 327.49,-117.2"/>
<text text-anchor="middle" x="281.97" y="-96.05" font-family="Arial" font-size="14.00" fill="#1a1919">27 LoopEnd</text>
</g>
<!-- node5&#45;&gt;node27 -->
<g id="edge27" class="edge">
<title>node5&#45;&gt;node27</title>
<path fill="none" stroke="#da2d4f" stroke-width="4" d="M170.55,-768.44C264.14,-763.2 438.97,-746.09 438.97,-691.5 438.97,-691.5 438.97,-691.5 438.97,-171.2 438.97,-158.9 374.15,-133.09 327.81,-116.21"/>
<polygon fill="#da2d4f" stroke="#da2d4f" stroke-width="4" points="170.18,-764.96 160.38,-768.98 170.55,-771.95 170.18,-764.96"/>
</g>
<!-- node10 -->
<g id="node5" class="node">
<title>node10</title>
<polygon fill="#3cb4a4" stroke="black" points="194.97,-620.4 140.97,-620.4 140.97,-584.4 194.97,-584.4 194.97,-620.4"/>
<text text-anchor="middle" x="167.97" y="-599.25" font-family="Arial" font-size="14.00" fill="#1a1919">10 &lt;</text>
</g>
<!-- node6&#45;&gt;node10 -->
<g id="edge7" class="edge">
<title>node6&#45;&gt;node10</title>
<path fill="none" stroke="#3cb4a4" d="M284.73,-673.75C274.44,-667.76 262.64,-660.85 251.97,-654.5 236.18,-645.09 218.82,-634.56 204,-625.51"/>
<polygon fill="#3cb4a4" stroke="#3cb4a4" points="205.49,-622.32 195.13,-620.09 201.84,-628.29 205.49,-622.32"/>
<text text-anchor="middle" x="255.47" y="-643.3" font-family="arial" font-size="14.00" fill="#3cb4a4">x</text>
</g>
<!-- node17 -->
<g id="node9" class="node">
<title>node17</title>
<polygon fill="#3cb4a4" stroke="black" points="275.97,-620.4 221.97,-620.4 221.97,-584.4 275.97,-584.4 275.97,-620.4"/>
<text text-anchor="middle" x="248.97" y="-599.25" font-family="Arial" font-size="14.00" fill="#1a1919">17 ==</text>
</g>
<!-- node6&#45;&gt;node17 -->
<g id="edge15" class="edge">
<title>node6&#45;&gt;node17</title>
<path fill="none" stroke="#3cb4a4" d="M289.15,-672.49C283.04,-667.2 276.8,-661.02 271.97,-654.5 266.48,-647.08 261.9,-638.14 258.31,-629.83"/>
<polygon fill="#3cb4a4" stroke="#3cb4a4" points="261.53,-628.46 254.55,-620.48 255.04,-631.07 261.53,-628.46"/>
<text text-anchor="middle" x="275.47" y="-643.3" font-family="arial" font-size="14.00" fill="#3cb4a4">x</text>
</g>
<!-- node23 -->
<g id="node13" class="node">
<title>node23</title>
<polygon fill="#da2d4f" stroke="black" points="403.69,-190.2 160.25,-190.2 160.25,-154.2 403.69,-154.2 403.69,-190.2"/>
<text text-anchor="middle" x="281.97" y="-169.05" font-family="Arial" font-size="14.00" fill="#ffffff">23 StoreField JavaExamples.intField</text>
</g>
<!-- node6&#45;&gt;node23 -->
<g id="edge23" class="edge">
<title>node6&#45;&gt;node23</title>
<path fill="none" stroke="#3cb4a4" d="M335.08,-672.43C353.41,-656.75 375.97,-631.71 375.97,-603.4 375.97,-603.4 375.97,-603.4 375.97,-244.2 375.97,-222.3 359.52,-206.29 340.38,-195.09"/>
<polygon fill="#3cb4a4" stroke="#3cb4a4" points="341.91,-191.94 331.45,-190.27 338.59,-198.1 341.91,-191.94"/>
<text text-anchor="middle" x="392.71" y="-423.05" font-family="arial" font-size="14.00" fill="#3cb4a4">value</text>
</g>
<!-- node26 -->
<g id="node14" class="node">
<title>node26</title>
<polygon fill="#3cb4a4" stroke="black" points="347.97,-620.4 293.97,-620.4 293.97,-584.4 347.97,-584.4 347.97,-620.4"/>
<text text-anchor="middle" x="320.97" y="-599.25" font-family="Arial" font-size="14.00" fill="#1a1919">26 +</text>
</g>
<!-- node6&#45;&gt;node26 -->
<g id="edge25" class="edge">
<title>node6&#45;&gt;node26</title>
<path fill="none" stroke="#3cb4a4" d="M324.05,-672.47C327.27,-666.99 330.32,-660.72 331.97,-654.5 334.05,-646.69 333.35,-638.14 331.55,-630.3"/>
<polygon fill="#3cb4a4" stroke="#3cb4a4" points="334.87,-629.15 328.71,-620.53 328.14,-631.11 334.87,-629.15"/>
<text text-anchor="middle" x="337.47" y="-643.3" font-family="arial" font-size="14.00" fill="#3cb4a4">x</text>
</g>
<!-- node10&#45;&gt;node15 -->
<g id="edge12" class="edge">
<title>node10&#45;&gt;node15</title>
<path fill="none" stroke="#3cb4a4" d="M164.42,-584.39C161.92,-572.44 158.52,-556.2 155.65,-542.47"/>
<polygon fill="#3cb4a4" stroke="#3cb4a4" points="159.06,-541.64 153.58,-532.57 152.2,-543.07 159.06,-541.64"/>
<text text-anchor="middle" x="164.87" y="-555.2" font-family="arial" font-size="14.00" fill="#3cb4a4">?</text>
</g>
<!-- node11 -->
<g id="node6" class="node">
<title>node11</title>
<polygon fill="#e98693" stroke="black" points="243.2,-444.2 172.74,-444.2 172.74,-408.2 243.2,-408.2 243.2,-444.2"/>
<text text-anchor="middle" x="207.97" y="-423.05" font-family="Arial" font-size="14.00" fill="#1a1919">11 Begin</text>
</g>
<!-- node22 -->
<g id="node12" class="node">
<title>node22</title>
<polygon fill="#e98693" stroke="black" points="287.97,-371.2 233.97,-371.2 233.97,-335.2 287.97,-335.2 287.97,-371.2"/>
<text text-anchor="middle" x="260.97" y="-350.05" font-family="Arial" font-size="14.00" fill="#1a1919">22 If</text>
</g>
<!-- node11&#45;&gt;node22 -->
<g id="edge9" class="edge">
<title>node11&#45;&gt;node22</title>
<path fill="none" stroke="#da2d4f" stroke-width="2" d="M220.8,-408.01C227.18,-399.47 235.02,-388.97 242.07,-379.52"/>
<polygon fill="#da2d4f" stroke="#da2d4f" stroke-width="2" points="245.08,-381.34 248.26,-371.23 239.47,-377.15 245.08,-381.34"/>
</g>
<!-- node28 -->
<g id="node16" class="node">
<title>node28</title>
<polygon fill="#e98693" stroke="black" points="144.35,-317.2 83.6,-317.2 83.6,-281.2 144.35,-281.2 144.35,-317.2"/>
<text text-anchor="middle" x="113.97" y="-296.05" font-family="Arial" font-size="14.00" fill="#1a1919">28 End</text>
</g>
<!-- node13&#45;&gt;node28 -->
<g id="edge11" class="edge">
<title>node13&#45;&gt;node28</title>
<path fill="none" stroke="#da2d4f" stroke-width="2" d="M110.52,-408.08C111.18,-387.35 112.31,-352.15 113.09,-327.62"/>
<polygon fill="#da2d4f" stroke="#da2d4f" stroke-width="2" points="116.6,-327.62 113.42,-317.51 109.6,-327.4 116.6,-327.62"/>
</g>
<!-- node15&#45;&gt;node11 -->
<g id="edge14" class="edge">
<title>node15&#45;&gt;node11</title>
<path fill="none" stroke="#da2d4f" stroke-width="2" d="M161.43,-496.29C169.8,-483.87 181.28,-466.82 190.75,-452.76"/>
<polygon fill="#da2d4f" stroke="#da2d4f" stroke-width="2" points="193.65,-454.72 196.34,-444.47 187.85,-450.81 193.65,-454.72"/>
<text text-anchor="middle" x="189.25" y="-467.1" font-family="arial" font-size="14.00" fill="#da2d4f">F</text>
</g>
<!-- node15&#45;&gt;node13 -->
<g id="edge13" class="edge">
<title>node15&#45;&gt;node13</title>
<path fill="none" stroke="#da2d4f" stroke-width="2" d="M142.07,-496.29C136.41,-484.1 128.68,-467.46 122.22,-453.56"/>
<polygon fill="#da2d4f" stroke="#da2d4f" stroke-width="2" points="125.38,-452.06 118,-444.47 119.03,-455.01 125.38,-452.06"/>
<text text-anchor="middle" x="138.25" y="-467.1" font-family="arial" font-size="14.00" fill="#da2d4f">T</text>
</g>
<!-- node17&#45;&gt;node22 -->
<g id="edge20" class="edge">
<title>node17&#45;&gt;node22</title>
<path fill="none" stroke="#3cb4a4" d="M249.82,-584.01C251.87,-541.63 257.16,-432.68 259.65,-381.52"/>
<polygon fill="#3cb4a4" stroke="#3cb4a4" points="263.16,-381.39 260.15,-371.23 256.16,-381.05 263.16,-381.39"/>
<text text-anchor="middle" x="259.87" y="-467.1" font-family="arial" font-size="14.00" fill="#3cb4a4">?</text>
</g>
<!-- node18 -->
<g id="node10" class="node">
<title>node18</title>
<polygon fill="#e98693" stroke="black" points="309.74,-263.2 238.2,-263.2 238.2,-227.2 309.74,-227.2 309.74,-263.2"/>
<text text-anchor="middle" x="273.97" y="-242.05" font-family="Arial" font-size="14.00" fill="#1a1919">18 Begin</text>
</g>
<!-- node18&#45;&gt;node23 -->
<g id="edge17" class="edge">
<title>node18&#45;&gt;node23</title>
<path fill="none" stroke="#da2d4f" stroke-width="2" d="M275.91,-227.01C276.81,-218.99 277.91,-209.25 278.92,-200.27"/>
<polygon fill="#da2d4f" stroke="#da2d4f" stroke-width="2" points="282.41,-200.56 280.05,-190.23 275.46,-199.77 282.41,-200.56"/>
</g>
<!-- node30 -->
<g id="node18" class="node">
<title>node30</title>
<polygon fill="#e98693" stroke="black" points="86.35,-190.2 25.6,-190.2 25.6,-154.2 86.35,-154.2 86.35,-190.2"/>
<text text-anchor="middle" x="55.97" y="-169.05" font-family="Arial" font-size="14.00" fill="#1a1919">30 End</text>
</g>
<!-- node20&#45;&gt;node30 -->
<g id="edge19" class="edge">
<title>node20&#45;&gt;node30</title>
<path fill="none" stroke="#da2d4f" stroke-width="2" d="M47.63,-227.01C48.88,-218.99 50.39,-209.25 51.78,-200.27"/>
<polygon fill="#da2d4f" stroke="#da2d4f" stroke-width="2" points="55.26,-200.65 53.33,-190.23 48.34,-199.57 55.26,-200.65"/>
</g>
<!-- node22&#45;&gt;node18 -->
<g id="edge22" class="edge">
<title>node22&#45;&gt;node18</title>
<path fill="none" stroke="#da2d4f" stroke-width="2" d="M263.06,-335.17C265.1,-318.58 268.22,-293.08 270.61,-273.63"/>
<polygon fill="#da2d4f" stroke="#da2d4f" stroke-width="2" points="274.1,-273.89 271.85,-263.54 267.15,-273.04 274.1,-273.89"/>
<text text-anchor="middle" x="274.25" y="-296.05" font-family="arial" font-size="14.00" fill="#da2d4f">F</text>
</g>
<!-- node22&#45;&gt;node20 -->
<g id="edge21" class="edge">
<title>node22&#45;&gt;node20</title>
<path fill="none" stroke="#da2d4f" stroke-width="2" d="M238.85,-335.1C217.73,-319.4 184.53,-296.35 152.97,-281.2 136.34,-273.21 117.42,-266.39 100.12,-260.94"/>
<polygon fill="#da2d4f" stroke="#da2d4f" stroke-width="2" points="100.74,-257.47 90.15,-257.9 98.69,-264.17 100.74,-257.47"/>
<text text-anchor="middle" x="218.25" y="-296.05" font-family="arial" font-size="14.00" fill="#da2d4f">T</text>
</g>
<!-- node23&#45;&gt;node27 -->
<g id="edge24" class="edge">
<title>node23&#45;&gt;node27</title>
<path fill="none" stroke="#da2d4f" stroke-width="2" d="M281.97,-154.01C281.97,-145.99 281.97,-136.25 281.97,-127.27"/>
<polygon fill="#da2d4f" stroke="#da2d4f" stroke-width="2" points="285.47,-127.23 281.97,-117.23 278.47,-127.23 285.47,-127.23"/>
</g>
<!-- node26&#45;&gt;node6 -->
<g id="edge6" class="edge">
<title>node26&#45;&gt;node6</title>
<path fill="none" stroke="#3cb4a4" d="M297.25,-620.75C292.09,-625.81 287.33,-631.78 284.51,-638.4 280.86,-646.97 283.43,-656.02 288.21,-664.08"/>
<polygon fill="#3cb4a4" stroke="#3cb4a4" points="285.44,-666.23 294.07,-672.38 291.16,-662.19 285.44,-666.23"/>
<text text-anchor="middle" x="308.7" y="-643.3" font-family="arial" font-size="14.00" fill="#3cb4a4">from 27</text>
</g>
<!-- node29 -->
<g id="node17" class="node">
<title>node29</title>
<polygon fill="#e98693" stroke="black" points="155.62,-117.2 80.33,-117.2 80.33,-81.2 155.62,-81.2 155.62,-117.2"/>
<text text-anchor="middle" x="117.97" y="-96.05" font-family="Arial" font-size="14.00" fill="#1a1919">29 Merge</text>
</g>
<!-- node28&#45;&gt;node29 -->
<g id="edge28" class="edge">
<title>node28&#45;&gt;node29</title>
<path fill="none" stroke="#da2d4f" stroke-width="2" d="M114.32,-280.97C115.02,-246.51 116.59,-168.84 117.42,-127.42"/>
<polygon fill="#da2d4f" stroke="#da2d4f" stroke-width="2" points="120.93,-127.31 117.63,-117.24 113.93,-127.17 120.93,-127.31"/>
</g>
<!-- node32 -->
<g id="node19" class="node">
<title>node32</title>
<polygon fill="#e98693" stroke="black" points="290.96,-36 212.99,-36 212.99,0 290.96,0 290.96,-36"/>
<text text-anchor="middle" x="251.97" y="-14.85" font-family="Arial" font-size="14.00" fill="#1a1919">32 Return</text>
</g>
<!-- node29&#45;&gt;node32 -->
<g id="edge30" class="edge">
<title>node29&#45;&gt;node32</title>
<path fill="none" stroke="#da2d4f" stroke-width="2" d="M147.05,-81.01C166.71,-69.39 192.88,-53.92 214.16,-41.35"/>
<polygon fill="#da2d4f" stroke="#da2d4f" stroke-width="2" points="216.12,-44.25 222.95,-36.15 212.56,-38.23 216.12,-44.25"/>
</g>
<!-- node30&#45;&gt;node29 -->
<g id="edge29" class="edge">
<title>node30&#45;&gt;node29</title>
<path fill="none" stroke="#da2d4f" stroke-width="2" d="M70.98,-154.01C78.6,-145.29 87.98,-134.54 96.36,-124.95"/>
<polygon fill="#da2d4f" stroke="#da2d4f" stroke-width="2" points="99.16,-127.06 103.1,-117.23 93.89,-122.46 99.16,-127.06"/>
</g>
<!-- inline1x6 -->
<g id="node20" class="node">
<title>inline1x6</title>
<ellipse fill="#d7ede7" stroke="black" cx="471.97" cy="-771.69" rx="27" ry="18"/>
<text text-anchor="middle" x="471.97" y="-769.89" font-family="Arial" font-size="8.00" fill="#1a1919">1 P(0)</text>
</g>
<!-- inline1x6&#45;&gt;node6 -->
<g id="edge5" class="edge">
<title>inline1x6&#45;&gt;node6</title>
<path fill="none" stroke="#3cb4a4" d="M450.73,-760.18C421.99,-745.96 370.73,-720.58 339.2,-704.97"/>
<text text-anchor="middle" x="408.31" y="-729.29" font-family="arial" font-size="8.00" fill="#3cb4a4">from 4</text>
</g>
<!-- inline9x10 -->
<g id="node21" class="node">
<title>inline9x10</title>
<ellipse fill="#d7ede7" stroke="black" cx="167.97" cy="-690.5" rx="27" ry="18"/>
<text text-anchor="middle" x="167.97" y="-688.69" font-family="Arial" font-size="8.00" fill="#1a1919">9 C(1)</text>
</g>
<!-- inline9x10&#45;&gt;node10 -->
<g id="edge8" class="edge">
<title>inline9x10&#45;&gt;node10</title>
<path fill="none" stroke="#3cb4a4" d="M167.97,-672.48C167.97,-657.49 167.97,-635.74 167.97,-620.67"/>
<text text-anchor="middle" x="169.97" y="-644.65" font-family="arial" font-size="8.00" fill="#3cb4a4">y</text>
</g>
<!-- inline16x17 -->
<g id="node22" class="node">
<title>inline16x17</title>
<ellipse fill="#d7ede7" stroke="black" cx="239.97" cy="-690.5" rx="27" ry="18"/>
<text text-anchor="middle" x="239.97" y="-688.69" font-family="Arial" font-size="8.00" fill="#1a1919">16 C(4)</text>
</g>
<!-- inline16x17&#45;&gt;node17 -->
<g id="edge16" class="edge">
<title>inline16x17&#45;&gt;node17</title>
<path fill="none" stroke="#3cb4a4" d="M221.42,-677.24C208.9,-667.33 195.87,-652.72 202.97,-638.4 207.07,-630.12 214.17,-623.28 221.57,-617.9"/>
<text text-anchor="middle" x="204.97" y="-644.65" font-family="arial" font-size="8.00" fill="#3cb4a4">y</text>
</g>
<!-- inline25x26 -->
<g id="node23" class="node">
<title>inline25x26</title>
<ellipse fill="#d7ede7" stroke="black" cx="383.97" cy="-690.5" rx="27" ry="18"/>
<text text-anchor="middle" x="383.97" y="-688.69" font-family="Arial" font-size="8.00" fill="#1a1919">25 C(&#45;1)</text>
</g>
<!-- inline25x26&#45;&gt;node26 -->
<g id="edge26" class="edge">
<title>inline25x26&#45;&gt;node26</title>
<path fill="none" stroke="#3cb4a4" d="M372.71,-674.1C361.67,-659.01 344.87,-636.06 333.43,-620.43"/>
<text text-anchor="middle" x="360.97" y="-644.65" font-family="arial" font-size="8.00" fill="#3cb4a4">y</text>
</g>
<!-- inline1x32 -->
<g id="node24" class="node">
<title>inline1x32</title>
<ellipse fill="#d7ede7" stroke="black" cx="372.97" cy="-99.2" rx="27" ry="18"/>
<text text-anchor="middle" x="372.97" y="-97.4" font-family="Arial" font-size="8.00" fill="#1a1919">1 P(0)</text>
</g>
<!-- inline1x32&#45;&gt;node32 -->
<g id="edge31" class="edge">
<title>inline1x32&#45;&gt;node32</title>
<path fill="none" stroke="#3cb4a4" d="M354.33,-86C333.91,-72.63 301.02,-51.1 278.05,-36.07"/>
<text text-anchor="middle" x="326.75" y="-56.8" font-family="arial" font-size="8.00" fill="#3cb4a4">result</text>
</g>
</g>
</svg>
