<?xml version="1.0" encoding="UTF-8" standalone="no"?>
<!DOCTYPE svg PUBLIC "-//W3C//DTD SVG 1.1//EN"
 "http://www.w3.org/Graphics/SVG/1.1/DTD/svg11.dtd">
<!-- Generated by graphviz version 2.43.0 (0)
 -->
<!-- Title: G Pages: 1 -->
<svg width="283pt" height="383pt"
 viewBox="0.00 0.00 282.62 382.60" xmlns="http://www.w3.org/2000/svg" xmlns:xlink="http://www.w3.org/1999/xlink">
<g id="graph0" class="graph" transform="scale(1 1) rotate(0) translate(4 378.6)">
<title>G</title>
' points="-4,4 -4,-378.6 278.62,-378.6 278.62,4 -4,4"/>
<!-- node0 -->
<g id="node1" class="node">
<title>node0</title>
<polygon fill="#e98693" stroke="black" points="57.36,-374.6 -0.12,-374.6 -0.12,-338.6 57.36,-338.6 57.36,-374.6"/>
<text text-anchor="middle" x="28.62" y="-353.45" font-family="Arial" font-size="14.00" fill="#1a1919">0 Start</text>
</g>
<!-- node4 -->
<g id="node2" class="node">
<title>node4</title>
<polygon fill="#da2d4f" stroke="black" points="110.25,-293.4 20.99,-293.4 20.99,-257.4 110.25,-257.4 110.25,-293.4"/>
<text text-anchor="middle" x="65.62" y="-272.25" font-family="Arial" font-size="14.00" fill="#ffffff">4 NewArray</text>
</g>
<!-- node0&#45;&gt;node4 -->
<g id="edge1" class="edge">
<title>node0&#45;&gt;node4</title>
<path fill="none" stroke="#da2d4f" stroke-width="2" d="M36.65,-338.41C41.5,-328.03 47.78,-314.59 53.25,-302.88"/>
<polygon fill="#da2d4f" stroke="#da2d4f" stroke-width="2" points="56.55,-304.09 57.61,-293.55 50.2,-301.13 56.55,-304.09"/>
</g>
<!-- node6 -->
<g id="node3" class="node">
<title>node6</title>
<polygon fill="#da2d4f" stroke="black" points="203.08,-205.3 92.16,-205.3 92.16,-169.3 203.08,-169.3 203.08,-205.3"/>
<text text-anchor="middle" x="147.62" y="-184.15" font-family="Arial" font-size="14.00" fill="#ffffff">6 StoreIndexed</text>
</g>
<!-- node4&#45;&gt;node6 -->
<g id="edge3" class="edge">
<title>node4&#45;&gt;node6</title>
<path fill="none" stroke="#da2d4f" stroke-width="2" d="M67.63,-257.17C69.65,-246.43 73.66,-232.88 81.62,-223.3 85.44,-218.7 90.03,-214.62 94.99,-211.02"/>
<polygon fill="#da2d4f" stroke="#da2d4f" stroke-width="2" points="97.12,-213.81 103.6,-205.42 93.3,-207.94 97.12,-213.81"/>
</g>
<!-- node4&#45;&gt;node6 -->
<g id="edge4" class="edge">
<title>node4&#45;&gt;node6</title>
<path fill="none" stroke="#3cb4a4" d="M81.82,-257.39C93.87,-244.73 110.5,-227.27 124.03,-213.07"/>
<polygon fill="#3cb4a4" stroke="#3cb4a4" points="126.81,-215.22 131.17,-205.57 121.74,-210.4 126.81,-215.22"/>
<text text-anchor="middle" x="129.57" y="-228.2" font-family="arial" font-size="14.00" fill="#3cb4a4">array</text>
</g>
<!-- node8 -->
<g id="node4" class="node">
<title>node8</title>
<polygon fill="#da2d4f" stroke="black" points="201.76,-124.1 93.48,-124.1 93.48,-88.1 201.76,-88.1 201.76,-124.1"/>
<text text-anchor="middle" x="147.62" y="-102.95" font-family="Arial" font-size="14.00" fill="#ffffff">8 LoadIndexed</text>
</g>
<!-- node4&#45;&gt;node8 -->
<g id="edge8" class="edge">
<title>node4&#45;&gt;node8</title>
<path fill="none" stroke="#3cb4a4" d="M57.39,-257.24C48.21,-235.44 36.52,-197.28 51.72,-169.3 61.08,-152.08 77.48,-138.9 94.1,-129.19"/>
<polygon fill="#3cb4a4" stroke="#3cb4a4" points="96.22,-132.02 103.31,-124.15 92.86,-125.88 96.22,-132.02"/>
<text text-anchor="middle" x="68.57" y="-184.15" font-family="arial" font-size="14.00" fill="#3cb4a4">array</text>
</g>
<!-- node6&#45;&gt;node8 -->
<g id="edge7" class="edge">
<title>node6&#45;&gt;node8</title>
<path fill="none" stroke="#da2d4f" stroke-width="2" d="M147.62,-169.11C147.62,-158.94 147.62,-145.83 147.62,-134.28"/>
<polygon fill="#da2d4f" stroke="#da2d4f" stroke-width="2" points="151.12,-134.25 147.62,-124.25 144.12,-134.25 151.12,-134.25"/>
</g>
<!-- node9 -->
<g id="node5" class="node">
<title>node9</title>
<polygon fill="#e98693" stroke="black" points="182.32,-36 112.92,-36 112.92,0 182.32,0 182.32,-36"/>
<text text-anchor="middle" x="147.62" y="-14.85" font-family="Arial" font-size="14.00" fill="#1a1919">9 Return</text>
</g>
<!-- node8&#45;&gt;node9 -->
<g id="edge10" class="edge">
<title>node8&#45;&gt;node9</title>
<path fill="none" stroke="#da2d4f" stroke-width="2" d="M146.45,-88.02C146.11,-82.32 145.79,-75.94 145.62,-70.1 145.42,-62.95 145.42,-61.15 145.62,-54 145.69,-51.44 145.8,-48.79 145.92,-46.13"/>
<polygon fill="#da2d4f" stroke="#da2d4f" stroke-width="2" points="149.42,-46.25 146.45,-36.08 142.43,-45.88 149.42,-46.25"/>
</g>
<!-- node8&#45;&gt;node9 -->
<g id="edge11" class="edge">
<title>node8&#45;&gt;node9</title>
<path fill="none" stroke="#3cb4a4" d="M147.62,-88.09C147.62,-76.26 147.62,-60.22 147.62,-46.57"/>
<polygon fill="#3cb4a4" stroke="#3cb4a4" points="151.12,-46.27 147.62,-36.27 144.12,-46.27 151.12,-46.27"/>
<text text-anchor="middle" x="164.74" y="-58.9" font-family="arial" font-size="14.00" fill="#3cb4a4">result</text>
</g>
<!-- inline3x4 -->
<g id="node6" class="node">
<title>inline3x4</title>
<ellipse fill="#d7ede7" stroke="black" cx="102.62" cy="-356.6" rx="27" ry="18"/>
<text text-anchor="middle" x="102.62" y="-354.8" font-family="Arial" font-size="8.00" fill="#1a1919">3 C(1)</text>
</g>
<!-- inline3x4&#45;&gt;node4 -->
<g id="edge2" class="edge">
<title>inline3x4&#45;&gt;node4</title>
<path fill="none" stroke="#3cb4a4" d="M94.95,-339.19C88.73,-325.86 79.98,-307.14 73.66,-293.61"/>
<text text-anchor="middle" x="95.52" y="-314.2" font-family="arial" font-size="8.00" fill="#3cb4a4">length</text>
</g>
<!-- inline5x6 -->
<g id="node7" class="node">
<title>inline5x6</title>
<ellipse fill="#d7ede7" stroke="black" cx="155.62" cy="-275.4" rx="27" ry="18"/>
<text text-anchor="middle" x="155.62" y="-273.6" font-family="Arial" font-size="8.00" fill="#1a1919">5 C(0)</text>
</g>
<!-- inline5x6&#45;&gt;node6 -->
<g id="edge5" class="edge">
<title>inline5x6&#45;&gt;node6</title>
<path fill="none" stroke="#3cb4a4" d="M154.04,-257.39C152.65,-242.39 150.63,-220.64 149.23,-205.57"/>
<text text-anchor="middle" x="161.18" y="-229.55" font-family="arial" font-size="8.00" fill="#3cb4a4">index</text>
</g>
<!-- inline1x6 -->
<g id="node8" class="node">
<title>inline1x6</title>
<ellipse fill="#d7ede7" stroke="black" cx="227.62" cy="-275.4" rx="27" ry="18"/>
<text text-anchor="middle" x="227.62" y="-273.6" font-family="Arial" font-size="8.00" fill="#1a1919">1 P(0)</text>
</g>
<!-- inline1x6&#45;&gt;node6 -->
<g id="edge6" class="edge">
<title>inline1x6&#45;&gt;node6</title>
<path fill="none" stroke="#3cb4a4" d="M214.05,-259.79C200.05,-244.73 178.24,-221.25 163.46,-205.35"/>
<text text-anchor="middle" x="204.18" y="-229.55" font-family="arial" font-size="8.00" fill="#3cb4a4">value</text>
</g>
<!-- inline5x8 -->
<g id="node9" class="node">
<title>inline5x8</title>
<ellipse fill="#d7ede7" stroke="black" cx="247.62" cy="-187.3" rx="27" ry="18"/>
<text text-anchor="middle" x="247.62" y="-185.5" font-family="Arial" font-size="8.00" fill="#1a1919">5 C(0)</text>
</g>
<!-- inline5x8&#45;&gt;node8 -->
<g id="edge9" class="edge">
<title>inline5x8&#45;&gt;node8</title>
<path fill="none" stroke="#3cb4a4" d="M230.66,-172.86C213.72,-159.45 187.62,-138.78 169.21,-124.2"/>
<text text-anchor="middle" x="209.18" y="-144.9" font-family="arial" font-size="8.00" fill="#3cb4a4">index</text>
</g>
</g>
</svg>
