<?xml version="1.0" encoding="UTF-8" standalone="no"?>
<!DOCTYPE svg PUBLIC "-//W3C//DTD SVG 1.1//EN"
 "http://www.w3.org/Graphics/SVG/1.1/DTD/svg11.dtd">
<!-- Generated by graphviz version 2.43.0 (0)
 -->
<!-- Title: G Pages: 1 -->
<svg width="210pt" height="213pt"
 viewBox="0.00 0.00 209.62 213.30" xmlns="http://www.w3.org/2000/svg" xmlns:xlink="http://www.w3.org/1999/xlink">
<g id="graph0" class="graph" transform="scale(1 1) rotate(0) translate(4 209.3)">
<title>G</title>
' points="-4,4 -4,-209.3 205.62,-209.3 205.62,4 -4,4"/>
<!-- node0 -->
<g id="node1" class="node">
<title>node0</title>
<polygon fill="#e98693" stroke="black" points="57.36,-205.3 -0.12,-205.3 -0.12,-169.3 57.36,-169.3 57.36,-205.3"/>
<text text-anchor="middle" x="28.62" y="-184.15" font-family="Arial" font-size="14.00" fill="#1a1919">0 Start</text>
</g>
<!-- node4 -->
<g id="node2" class="node">
<title>node4</title>
<polygon fill="#da2d4f" stroke="black" points="156.76,-124.1 48.48,-124.1 48.48,-88.1 156.76,-88.1 156.76,-124.1"/>
<text text-anchor="middle" x="102.62" y="-102.95" font-family="Arial" font-size="14.00" fill="#ffffff">4 LoadIndexed</text>
</g>
<!-- node0&#45;&gt;node4 -->
<g id="edge1" class="edge">
<title>node0&#45;&gt;node4</title>
<path fill="none" stroke="#da2d4f" stroke-width="2" d="M44.68,-169.11C54.86,-158.22 68.2,-143.94 79.51,-131.84"/>
<polygon fill="#da2d4f" stroke="#da2d4f" stroke-width="2" points="82.33,-133.95 86.6,-124.25 77.21,-129.17 82.33,-133.95"/>
</g>
<!-- node5 -->
<g id="node3" class="node">
<title>node5</title>
<polygon fill="#e98693" stroke="black" points="137.32,-36 67.92,-36 67.92,0 137.32,0 137.32,-36"/>
<text text-anchor="middle" x="102.62" y="-14.85" font-family="Arial" font-size="14.00" fill="#1a1919">5 Return</text>
</g>
<!-- node4&#45;&gt;node5 -->
<g id="edge4" class="edge">
<title>node4&#45;&gt;node5</title>
<path fill="none" stroke="#da2d4f" stroke-width="2" d="M101.45,-88.02C101.11,-82.32 100.79,-75.94 100.62,-70.1 100.42,-62.95 100.42,-61.15 100.62,-54 100.69,-51.44 100.8,-48.79 100.92,-46.13"/>
<polygon fill="#da2d4f" stroke="#da2d4f" stroke-width="2" points="104.42,-46.25 101.45,-36.08 97.43,-45.88 104.42,-46.25"/>
</g>
<!-- node4&#45;&gt;node5 -->
<g id="edge5" class="edge">
<title>node4&#45;&gt;node5</title>
<path fill="none" stroke="#3cb4a4" d="M102.62,-88.09C102.62,-76.26 102.62,-60.22 102.62,-46.57"/>
<polygon fill="#3cb4a4" stroke="#3cb4a4" points="106.12,-46.27 102.62,-36.27 99.12,-46.27 106.12,-46.27"/>
<text text-anchor="middle" x="119.74" y="-58.9" font-family="arial" font-size="14.00" fill="#3cb4a4">result</text>
</g>
<!-- inline1x4 -->
<g id="node4" class="node">
<title>inline1x4</title>
<ellipse fill="#d7ede7" stroke="black" cx="102.62" cy="-187.3" rx="27" ry="18"/>
<text text-anchor="middle" x="102.62" y="-185.5" font-family="Arial" font-size="8.00" fill="#1a1919">1 P(0)</text>
</g>
<!-- inline1x4&#45;&gt;node4 -->
<g id="edge2" class="edge">
<title>inline1x4&#45;&gt;node4</title>
<path fill="none" stroke="#3cb4a4" d="M102.62,-169.11C102.62,-155.83 102.62,-137.53 102.62,-124.25"/>
<text text-anchor="middle" x="111.73" y="-144.9" font-family="arial" font-size="8.00" fill="#3cb4a4">array</text>
</g>
<!-- inline2x4 -->
<g id="node5" class="node">
<title>inline2x4</title>
<ellipse fill="#d7ede7" stroke="black" cx="174.62" cy="-187.3" rx="27" ry="18"/>
<text text-anchor="middle" x="174.62" y="-185.5" font-family="Arial" font-size="8.00" fill="#1a1919">2 P(1)</text>
</g>
<!-- inline2x4&#45;&gt;node4 -->
<g id="edge3" class="edge">
<title>inline2x4&#45;&gt;node4</title>
<path fill="none" stroke="#3cb4a4" d="M161.08,-171.4C148.86,-157.96 130.89,-138.19 118.1,-124.13"/>
<text text-anchor="middle" x="150.18" y="-144.9" font-family="arial" font-size="8.00" fill="#3cb4a4">index</text>
</g>
</g>
</svg>
