<?xml version="1.0" encoding="UTF-8" standalone="no"?>
<!DOCTYPE svg PUBLIC "-//W3C//DTD SVG 1.1//EN"
 "http://www.w3.org/Graphics/SVG/1.1/DTD/svg11.dtd">
<!-- Generated by graphviz version 2.43.0 (0)
 -->
<!-- Title: G Pages: 1 -->
<svg width="674pt" height="1523pt"
 viewBox="0.00 0.00 673.97 1523.29" xmlns="http://www.w3.org/2000/svg" xmlns:xlink="http://www.w3.org/1999/xlink">
<g id="graph0" class="graph" transform="scale(1 1) rotate(0) translate(4 1519.29)">
<title>G</title>
' points="-4,4 -4,-1519.29 669.97,-1519.29 669.97,4 -4,4"/>
<!-- node0 -->
<g id="node1" class="node">
<title>node0</title>
<polygon fill="#e98693" stroke="black" points="267.71,-1515.29 210.23,-1515.29 210.23,-1479.29 267.71,-1479.29 267.71,-1515.29"/>
<text text-anchor="middle" x="238.97" y="-1494.14" font-family="Arial" font-size="14.00" fill="#1a1919">0 Start</text>
</g>
<!-- node4 -->
<g id="node2" class="node">
<title>node4</title>
<polygon fill="#e98693" stroke="black" points="265.97,-1442.29 211.97,-1442.29 211.97,-1406.29 265.97,-1406.29 265.97,-1442.29"/>
<text text-anchor="middle" x="238.97" y="-1421.14" font-family="Arial" font-size="14.00" fill="#1a1919">4 End</text>
</g>
<!-- node0&#45;&gt;node4 -->
<g id="edge1" class="edge">
<title>node0&#45;&gt;node4</title>
<path fill="none" stroke="#da2d4f" stroke-width="2" d="M238.97,-1479.1C238.97,-1471.08 238.97,-1461.34 238.97,-1452.36"/>
<polygon fill="#da2d4f" stroke="#da2d4f" stroke-width="2" points="242.47,-1452.32 238.97,-1442.32 235.47,-1452.32 242.47,-1452.32"/>
</g>
<!-- node5 -->
<g id="node3" class="node">
<title>node5</title>
<polygon fill="#e98693" stroke="black" points="286.1,-1369.29 191.84,-1369.29 191.84,-1333.29 286.1,-1333.29 286.1,-1369.29"/>
<text text-anchor="middle" x="238.97" y="-1348.14" font-family="Arial" font-size="14.00" fill="#1a1919">5 LoopBegin</text>
</g>
<!-- node4&#45;&gt;node5 -->
<g id="edge2" class="edge">
<title>node4&#45;&gt;node5</title>
<path fill="none" stroke="#da2d4f" stroke-width="2" d="M238.97,-1406.1C238.97,-1398.08 238.97,-1388.34 238.97,-1379.36"/>
<polygon fill="#da2d4f" stroke="#da2d4f" stroke-width="2" points="242.47,-1379.32 238.97,-1369.32 235.47,-1379.32 242.47,-1379.32"/>
</g>
<!-- node6 -->
<g id="node4" class="node">
<title>node6</title>
<polygon fill="#f9f9f9" stroke="black" points="265.97,-1288.09 211.97,-1288.09 211.97,-1252.09 265.97,-1252.09 265.97,-1288.09"/>
<text text-anchor="middle" x="238.97" y="-1266.94" font-family="Arial" font-size="14.00" fill="#1a1919">6 ϕ</text>
</g>
<!-- node5&#45;&gt;node6 -->
<g id="edge4" class="edge">
<title>node5&#45;&gt;node6</title>
<path fill="none" stroke="#343d46" stroke-dasharray="5,2" d="M238.97,-1323.06C238.97,-1311.52 238.97,-1298.4 238.97,-1288.24"/>
<polygon fill="#343d46" stroke="#343d46" points="235.47,-1323.1 238.97,-1333.1 242.47,-1323.1 235.47,-1323.1"/>
</g>
<!-- node13 -->
<g id="node7" class="node">
<title>node13</title>
<polygon fill="#e98693" stroke="black" points="89.92,-1023.79 0.03,-1023.79 0.03,-987.79 89.92,-987.79 89.92,-1023.79"/>
<text text-anchor="middle" x="44.97" y="-1002.64" font-family="Arial" font-size="14.00" fill="#1a1919">13 LoopExit</text>
</g>
<!-- node5&#45;&gt;node13 -->
<g id="edge10" class="edge">
<title>node5&#45;&gt;node13</title>
<path fill="none" stroke="#343d46" stroke-dasharray="5,2" d="M181.77,-1349.19C126.78,-1344.73 51.97,-1328.18 51.97,-1271.09 51.97,-1271.09 51.97,-1271.09 51.97,-1092.89 51.97,-1068.9 49.24,-1041.26 47.19,-1023.91"/>
<polygon fill="#343d46" stroke="#343d46" points="181.56,-1352.69 191.78,-1349.89 182.05,-1345.7 181.56,-1352.69"/>
</g>
<!-- node15 -->
<g id="node8" class="node">
<title>node15</title>
<polygon fill="#e98693" stroke="black" points="145.97,-1111.89 91.97,-1111.89 91.97,-1075.89 145.97,-1075.89 145.97,-1111.89"/>
<text text-anchor="middle" x="118.97" y="-1090.74" font-family="Arial" font-size="14.00" fill="#1a1919">15 If</text>
</g>
<!-- node5&#45;&gt;node15 -->
<g id="edge3" class="edge">
<title>node5&#45;&gt;node15</title>
<path fill="none" stroke="#da2d4f" stroke-width="2" d="M191.63,-1339.69C164.11,-1330.83 131.67,-1315.14 114.97,-1288.09 83.11,-1236.46 98.26,-1161.37 109.9,-1121.72"/>
<polygon fill="#da2d4f" stroke="#da2d4f" stroke-width="2" points="113.3,-1122.57 112.9,-1111.99 106.61,-1120.51 113.3,-1122.57"/>
</g>
<!-- node33 -->
<g id="node19" class="node">
<title>node33</title>
<polygon fill="#e98693" stroke="black" points="548.92,-263.2 459.03,-263.2 459.03,-227.2 548.92,-227.2 548.92,-263.2"/>
<text text-anchor="middle" x="503.97" y="-242.05" font-family="Arial" font-size="14.00" fill="#1a1919">33 LoopExit</text>
</g>
<!-- node5&#45;&gt;node33 -->
<g id="edge33" class="edge">
<title>node5&#45;&gt;node33</title>
<path fill="none" stroke="#343d46" stroke-dasharray="5,2" d="M296.47,-1345.53C412.98,-1335.12 665.97,-1308.23 665.97,-1271.09 665.97,-1271.09 665.97,-1271.09 665.97,-317.2 665.97,-265.92 597.03,-251.33 549.1,-247.38"/>
<polygon fill="#343d46" stroke="#343d46" points="295.95,-1342.06 286.3,-1346.43 296.57,-1349.04 295.95,-1342.06"/>
</g>
<!-- node42 -->
<g id="node25" class="node">
<title>node42</title>
<polygon fill="#e98693" stroke="black" points="637.49,-424.3 546.45,-424.3 546.45,-388.3 637.49,-388.3 637.49,-424.3"/>
<text text-anchor="middle" x="591.97" y="-403.15" font-family="Arial" font-size="14.00" fill="#1a1919">42 LoopEnd</text>
</g>
<!-- node5&#45;&gt;node42 -->
<g id="edge45" class="edge">
<title>node5&#45;&gt;node42</title>
<path fill="none" stroke="#da2d4f" stroke-width="4" d="M296.46,-1349.14C396.48,-1345.56 591.97,-1330.92 591.97,-1271.09 591.97,-1271.09 591.97,-1271.09 591.97,-478.3 591.97,-459.93 591.97,-438.89 591.97,-424.51"/>
<polygon fill="#da2d4f" stroke="#da2d4f" stroke-width="4" points="296.09,-1345.65 286.21,-1349.48 296.32,-1352.64 296.09,-1345.65"/>
</g>
<!-- node10 -->
<g id="node5" class="node">
<title>node10</title>
<polygon fill="#3cb4a4" stroke="black" points="177.97,-1199.99 123.97,-1199.99 123.97,-1163.99 177.97,-1163.99 177.97,-1199.99"/>
<text text-anchor="middle" x="150.97" y="-1178.84" font-family="Arial" font-size="14.00" fill="#1a1919">10 &lt;</text>
</g>
<!-- node6&#45;&gt;node10 -->
<g id="edge7" class="edge">
<title>node6&#45;&gt;node10</title>
<path fill="none" stroke="#3cb4a4" d="M211.83,-1254.51C202.7,-1248.86 192.84,-1241.86 184.97,-1234.09 177.55,-1226.75 170.82,-1217.55 165.36,-1208.98"/>
<polygon fill="#3cb4a4" stroke="#3cb4a4" points="168.32,-1207.11 160.13,-1200.38 162.34,-1210.75 168.32,-1207.11"/>
<text text-anchor="middle" x="188.47" y="-1222.89" font-family="arial" font-size="14.00" fill="#3cb4a4">x</text>
</g>
<!-- node36 -->
<g id="node21" class="node">
<title>node36</title>
<polygon fill="#da2d4f" stroke="black" points="423.69,-263.2 180.25,-263.2 180.25,-227.2 423.69,-227.2 423.69,-263.2"/>
<text text-anchor="middle" x="301.97" y="-242.05" font-family="Arial" font-size="14.00" fill="#ffffff">36 StoreField JavaExamples.intField</text>
</g>
<!-- node6&#45;&gt;node36 -->
<g id="edge38" class="edge">
<title>node6&#45;&gt;node36</title>
<path fill="none" stroke="#3cb4a4" d="M228.17,-1252.02C218.54,-1235.15 205.97,-1208.28 205.97,-1182.99 205.97,-1182.99 205.97,-1182.99 205.97,-1048.84 205.97,-988.47 201.48,-972.57 183.97,-914.79 162.29,-843.24 130.3,-834.67 114.5,-761.59 100.27,-695.74 87.38,-666.84 137.97,-515.3 170.84,-416.86 245.05,-316.55 281.28,-271.19"/>
<polygon fill="#3cb4a4" stroke="#3cb4a4" points="284.03,-273.36 287.59,-263.38 278.58,-268.96 284.03,-273.36"/>
<text text-anchor="middle" x="131.71" y="-740.44" font-family="arial" font-size="14.00" fill="#3cb4a4">value</text>
</g>
<!-- node41 -->
<g id="node24" class="node">
<title>node41</title>
<polygon fill="#3cb4a4" stroke="black" points="335.97,-1199.99 281.97,-1199.99 281.97,-1163.99 335.97,-1163.99 335.97,-1199.99"/>
<text text-anchor="middle" x="308.97" y="-1178.84" font-family="Arial" font-size="14.00" fill="#1a1919">41 +</text>
</g>
<!-- node6&#45;&gt;node41 -->
<g id="edge43" class="edge">
<title>node6&#45;&gt;node41</title>
<path fill="none" stroke="#3cb4a4" d="M266.04,-1253.18C273.53,-1247.82 281.18,-1241.34 286.97,-1234.09 292.69,-1226.93 297.19,-1218.06 300.59,-1209.72"/>
<polygon fill="#3cb4a4" stroke="#3cb4a4" points="303.88,-1210.92 304.09,-1200.33 297.32,-1208.48 303.88,-1210.92"/>
<text text-anchor="middle" x="300.47" y="-1222.89" font-family="arial" font-size="14.00" fill="#3cb4a4">x</text>
</g>
<!-- node10&#45;&gt;node15 -->
<g id="edge12" class="edge">
<title>node10&#45;&gt;node15</title>
<path fill="none" stroke="#3cb4a4" d="M144.65,-1163.98C140.16,-1151.91 134.05,-1135.47 128.92,-1121.66"/>
<polygon fill="#3cb4a4" stroke="#3cb4a4" points="132.16,-1120.32 125.39,-1112.16 125.59,-1122.75 132.16,-1120.32"/>
<text text-anchor="middle" x="141.87" y="-1134.79" font-family="arial" font-size="14.00" fill="#3cb4a4">?</text>
</g>
<!-- node11 -->
<g id="node6" class="node">
<title>node11</title>
<polygon fill="#e98693" stroke="black" points="178.2,-1023.79 107.74,-1023.79 107.74,-987.79 178.2,-987.79 178.2,-1023.79"/>
<text text-anchor="middle" x="142.97" y="-1002.64" font-family="Arial" font-size="14.00" fill="#1a1919">11 Begin</text>
</g>
<!-- node17 -->
<g id="node9" class="node">
<title>node17</title>
<polygon fill="#e98693" stroke="black" points="175.35,-950.79 114.6,-950.79 114.6,-914.79 175.35,-914.79 175.35,-950.79"/>
<text text-anchor="middle" x="144.97" y="-929.64" font-family="Arial" font-size="14.00" fill="#1a1919">17 End</text>
</g>
<!-- node11&#45;&gt;node17 -->
<g id="edge9" class="edge">
<title>node11&#45;&gt;node17</title>
<path fill="none" stroke="#da2d4f" stroke-width="2" d="M143.46,-987.61C143.68,-979.58 143.96,-969.84 144.21,-960.86"/>
<polygon fill="#da2d4f" stroke="#da2d4f" stroke-width="2" points="147.71,-960.92 144.49,-950.82 140.71,-960.72 147.71,-960.92"/>
</g>
<!-- node43 -->
<g id="node26" class="node">
<title>node43</title>
<polygon fill="#e98693" stroke="black" points="75.35,-896.79 14.6,-896.79 14.6,-860.79 75.35,-860.79 75.35,-896.79"/>
<text text-anchor="middle" x="44.97" y="-875.64" font-family="Arial" font-size="14.00" fill="#1a1919">43 End</text>
</g>
<!-- node13&#45;&gt;node43 -->
<g id="edge11" class="edge">
<title>node13&#45;&gt;node43</title>
<path fill="none" stroke="#da2d4f" stroke-width="2" d="M44.97,-987.67C44.97,-966.94 44.97,-931.75 44.97,-907.21"/>
<polygon fill="#da2d4f" stroke="#da2d4f" stroke-width="2" points="48.47,-907.11 44.97,-897.11 41.47,-907.11 48.47,-907.11"/>
</g>
<!-- node15&#45;&gt;node11 -->
<g id="edge14" class="edge">
<title>node15&#45;&gt;node11</title>
<path fill="none" stroke="#da2d4f" stroke-width="2" d="M123.71,-1075.88C127.04,-1063.93 131.57,-1047.69 135.4,-1033.96"/>
<polygon fill="#da2d4f" stroke="#da2d4f" stroke-width="2" points="138.84,-1034.64 138.16,-1024.06 132.1,-1032.76 138.84,-1034.64"/>
<text text-anchor="middle" x="138.25" y="-1046.69" font-family="arial" font-size="14.00" fill="#da2d4f">F</text>
</g>
<!-- node15&#45;&gt;node13 -->
<g id="edge13" class="edge">
<title>node15&#45;&gt;node13</title>
<path fill="none" stroke="#da2d4f" stroke-width="2" d="M104.35,-1075.88C93.58,-1063.35 78.75,-1046.09 66.6,-1031.96"/>
<polygon fill="#da2d4f" stroke="#da2d4f" stroke-width="2" points="68.99,-1029.37 59.82,-1024.06 63.68,-1033.93 68.99,-1029.37"/>
<text text-anchor="middle" x="93.25" y="-1046.69" font-family="arial" font-size="14.00" fill="#da2d4f">T</text>
</g>
<!-- node18 -->
<g id="node10" class="node">
<title>node18</title>
<polygon fill="#e98693" stroke="black" points="340.39,-842.79 237.56,-842.79 237.56,-806.79 340.39,-806.79 340.39,-842.79"/>
<text text-anchor="middle" x="288.97" y="-821.64" font-family="Arial" font-size="14.00" fill="#1a1919">18 LoopBegin</text>
</g>
<!-- node17&#45;&gt;node18 -->
<g id="edge15" class="edge">
<title>node17&#45;&gt;node18</title>
<path fill="none" stroke="#da2d4f" stroke-width="2" d="M168.11,-914.76C192.21,-897.02 230.15,-869.09 257.09,-849.26"/>
<polygon fill="#da2d4f" stroke="#da2d4f" stroke-width="2" points="259.44,-851.88 265.42,-843.13 255.29,-846.24 259.44,-851.88"/>
</g>
<!-- node19 -->
<g id="node11" class="node">
<title>node19</title>
<polygon fill="#f9f9f9" stroke="black" points="415.97,-761.59 361.97,-761.59 361.97,-725.59 415.97,-725.59 415.97,-761.59"/>
<text text-anchor="middle" x="388.97" y="-740.44" font-family="Arial" font-size="14.00" fill="#1a1919">19 ϕ</text>
</g>
<!-- node18&#45;&gt;node19 -->
<g id="edge17" class="edge">
<title>node18&#45;&gt;node19</title>
<path fill="none" stroke="#343d46" stroke-dasharray="5,2" d="M318.52,-800.39C334.16,-788 353.04,-773.05 367.32,-761.75"/>
<polygon fill="#343d46" stroke="#343d46" points="316.34,-797.66 310.67,-806.61 320.68,-803.14 316.34,-797.66"/>
</g>
<!-- node24 -->
<g id="node14" class="node">
<title>node24</title>
<polygon fill="#e98693" stroke="black" points="525.92,-497.3 436.03,-497.3 436.03,-461.3 525.92,-461.3 525.92,-497.3"/>
<text text-anchor="middle" x="480.97" y="-476.15" font-family="Arial" font-size="14.00" fill="#1a1919">24 LoopExit</text>
</g>
<!-- node18&#45;&gt;node24 -->
<g id="edge23" class="edge">
<title>node18&#45;&gt;node24</title>
<path fill="none" stroke="#343d46" stroke-dasharray="5,2" d="M350.12,-807.51C383.36,-798.65 418.12,-789.37 419.97,-788.79 454.64,-778.06 465.74,-780.09 496.97,-761.59 506.72,-755.82 515.97,-755.92 515.97,-744.59 515.97,-744.59 515.97,-744.59 515.97,-566.4 515.97,-541.06 502.81,-514.42 492.63,-497.6"/>
<polygon fill="#343d46" stroke="#343d46" points="349.11,-804.16 340.35,-810.11 350.91,-810.92 349.11,-804.16"/>
</g>
<!-- node26 -->
<g id="node15" class="node">
<title>node26</title>
<polygon fill="#e98693" stroke="black" points="341.97,-585.4 287.97,-585.4 287.97,-549.4 341.97,-549.4 341.97,-585.4"/>
<text text-anchor="middle" x="314.97" y="-564.25" font-family="Arial" font-size="14.00" fill="#1a1919">26 If</text>
</g>
<!-- node18&#45;&gt;node26 -->
<g id="edge16" class="edge">
<title>node18&#45;&gt;node26</title>
<path fill="none" stroke="#da2d4f" stroke-width="2" d="M285.18,-806.55C278.55,-773.33 266.81,-698.35 280.97,-637.5 284.47,-622.45 291.74,-606.91 298.66,-594.38"/>
<polygon fill="#da2d4f" stroke="#da2d4f" stroke-width="2" points="301.85,-595.86 303.82,-585.45 295.79,-592.36 301.85,-595.86"/>
</g>
<!-- node31 -->
<g id="node18" class="node">
<title>node31</title>
<polygon fill="#e98693" stroke="black" points="548.92,-336.2 459.03,-336.2 459.03,-300.2 548.92,-300.2 548.92,-336.2"/>
<text text-anchor="middle" x="503.97" y="-315.05" font-family="Arial" font-size="14.00" fill="#1a1919">31 LoopExit</text>
</g>
<!-- node18&#45;&gt;node31 -->
<g id="edge31" class="edge">
<title>node18&#45;&gt;node31</title>
<path fill="none" stroke="#343d46" stroke-dasharray="5,2" d="M350.23,-807.42C351.15,-807.2 352.06,-807 352.97,-806.79 444.22,-786.33 553.97,-838.11 553.97,-744.59 553.97,-744.59 553.97,-744.59 553.97,-522.35 553.97,-485.3 522.22,-378.3 509.32,-336.35"/>
<polygon fill="#343d46" stroke="#343d46" points="349.15,-804.07 340.24,-809.8 350.77,-810.88 349.15,-804.07"/>
</g>
<!-- node40 -->
<g id="node23" class="node">
<title>node40</title>
<polygon fill="#e98693" stroke="black" points="238.49,-190.2 147.45,-190.2 147.45,-154.2 238.49,-154.2 238.49,-190.2"/>
<text text-anchor="middle" x="192.97" y="-169.05" font-family="Arial" font-size="14.00" fill="#1a1919">40 LoopEnd</text>
</g>
<!-- node18&#45;&gt;node40 -->
<g id="edge42" class="edge">
<title>node18&#45;&gt;node40</title>
<path fill="none" stroke="#da2d4f" stroke-width="4" d="M227.87,-812.82C191.34,-802.34 151.97,-782.3 151.97,-744.59 151.97,-744.59 151.97,-744.59 151.97,-244.2 151.97,-223.7 164.94,-203.8 176.3,-190.31"/>
<polygon fill="#da2d4f" stroke="#da2d4f" stroke-width="4" points="227,-816.21 237.57,-815.4 228.81,-809.44 227,-816.21"/>
</g>
<!-- node21 -->
<g id="node12" class="node">
<title>node21</title>
<polygon fill="#3cb4a4" stroke="black" points="343.97,-673.5 289.97,-673.5 289.97,-637.5 343.97,-637.5 343.97,-673.5"/>
<text text-anchor="middle" x="316.97" y="-652.34" font-family="Arial" font-size="14.00" fill="#1a1919">21 &lt;</text>
</g>
<!-- node19&#45;&gt;node21 -->
<g id="edge20" class="edge">
<title>node19&#45;&gt;node21</title>
<path fill="none" stroke="#3cb4a4" d="M374.75,-725.58C364.26,-713.05 349.83,-695.79 338.02,-681.66"/>
<polygon fill="#3cb4a4" stroke="#3cb4a4" points="340.51,-679.19 331.41,-673.76 335.14,-683.68 340.51,-679.19"/>
<text text-anchor="middle" x="363.47" y="-696.39" font-family="arial" font-size="14.00" fill="#3cb4a4">x</text>
</g>
<!-- node28 -->
<g id="node16" class="node">
<title>node28</title>
<polygon fill="#3cb4a4" stroke="black" points="233.97,-673.5 179.97,-673.5 179.97,-637.5 233.97,-637.5 233.97,-673.5"/>
<text text-anchor="middle" x="206.97" y="-652.34" font-family="Arial" font-size="14.00" fill="#1a1919">28 ==</text>
</g>
<!-- node19&#45;&gt;node28 -->
<g id="edge28" class="edge">
<title>node19&#45;&gt;node28</title>
<path fill="none" stroke="#3cb4a4" d="M361.94,-729.56C358.93,-728.19 355.9,-726.84 352.97,-725.59 332.4,-716.81 326.39,-716.74 305.97,-707.59 284.83,-698.12 261.8,-686.33 243.28,-676.46"/>
<polygon fill="#3cb4a4" stroke="#3cb4a4" points="244.78,-673.29 234.31,-671.64 241.46,-679.46 244.78,-673.29"/>
<text text-anchor="middle" x="309.47" y="-696.39" font-family="arial" font-size="14.00" fill="#3cb4a4">x</text>
</g>
<!-- node39 -->
<g id="node22" class="node">
<title>node39</title>
<polygon fill="#3cb4a4" stroke="black" points="470.97,-673.5 416.97,-673.5 416.97,-637.5 470.97,-637.5 470.97,-673.5"/>
<text text-anchor="middle" x="443.97" y="-652.34" font-family="Arial" font-size="14.00" fill="#1a1919">39 +</text>
</g>
<!-- node19&#45;&gt;node39 -->
<g id="edge40" class="edge">
<title>node19&#45;&gt;node39</title>
<path fill="none" stroke="#3cb4a4" d="M407.4,-725.45C412.54,-720.07 417.85,-713.88 421.97,-707.59 426.87,-700.13 431.1,-691.4 434.51,-683.28"/>
<polygon fill="#3cb4a4" stroke="#3cb4a4" points="437.83,-684.41 438.24,-673.82 431.32,-681.84 437.83,-684.41"/>
<text text-anchor="middle" x="434.47" y="-696.39" font-family="arial" font-size="14.00" fill="#3cb4a4">x</text>
</g>
<!-- node21&#45;&gt;node26 -->
<g id="edge25" class="edge">
<title>node21&#45;&gt;node26</title>
<path fill="none" stroke="#3cb4a4" d="M316.58,-637.48C316.3,-625.65 315.93,-609.61 315.61,-595.97"/>
<polygon fill="#3cb4a4" stroke="#3cb4a4" points="319.1,-595.58 315.37,-585.67 312.11,-595.74 319.1,-595.58"/>
<text text-anchor="middle" x="320.87" y="-608.3" font-family="arial" font-size="14.00" fill="#3cb4a4">?</text>
</g>
<!-- node22 -->
<g id="node13" class="node">
<title>node22</title>
<polygon fill="#e98693" stroke="black" points="349.74,-497.3 278.2,-497.3 278.2,-461.3 349.74,-461.3 349.74,-497.3"/>
<text text-anchor="middle" x="313.97" y="-476.15" font-family="Arial" font-size="14.00" fill="#1a1919">22 Begin</text>
</g>
<!-- node35 -->
<g id="node20" class="node">
<title>node35</title>
<polygon fill="#e98693" stroke="black" points="340.97,-424.3 286.97,-424.3 286.97,-388.3 340.97,-388.3 340.97,-424.3"/>
<text text-anchor="middle" x="313.97" y="-403.15" font-family="Arial" font-size="14.00" fill="#1a1919">35 If</text>
</g>
<!-- node22&#45;&gt;node35 -->
<g id="edge22" class="edge">
<title>node22&#45;&gt;node35</title>
<path fill="none" stroke="#da2d4f" stroke-width="2" d="M313.97,-461.11C313.97,-453.09 313.97,-443.35 313.97,-434.37"/>
<polygon fill="#da2d4f" stroke="#da2d4f" stroke-width="2" points="317.47,-434.33 313.97,-424.33 310.47,-434.33 317.47,-434.33"/>
</g>
<!-- node24&#45;&gt;node42 -->
<g id="edge24" class="edge">
<title>node24&#45;&gt;node42</title>
<path fill="none" stroke="#da2d4f" stroke-width="2" d="M507.56,-461.29C522.28,-451.88 540.76,-440.05 556.68,-429.87"/>
<polygon fill="#da2d4f" stroke="#da2d4f" stroke-width="2" points="558.68,-432.75 565.22,-424.41 554.91,-426.85 558.68,-432.75"/>
</g>
<!-- node26&#45;&gt;node22 -->
<g id="edge27" class="edge">
<title>node26&#45;&gt;node22</title>
<path fill="none" stroke="#da2d4f" stroke-width="2" d="M314.77,-549.39C314.64,-537.55 314.45,-521.52 314.29,-507.87"/>
<polygon fill="#da2d4f" stroke="#da2d4f" stroke-width="2" points="317.79,-507.53 314.17,-497.57 310.79,-507.61 317.79,-507.53"/>
<text text-anchor="middle" x="319.25" y="-520.2" font-family="arial" font-size="14.00" fill="#da2d4f">F</text>
</g>
<!-- node26&#45;&gt;node24 -->
<g id="edge26" class="edge">
<title>node26&#45;&gt;node24</title>
<path fill="none" stroke="#da2d4f" stroke-width="2" d="M342.01,-552.37C368.24,-538.77 408.42,-517.93 438.84,-502.15"/>
<polygon fill="#da2d4f" stroke="#da2d4f" stroke-width="2" points="440.67,-505.14 447.94,-497.43 437.45,-498.93 440.67,-505.14"/>
<text text-anchor="middle" x="417.25" y="-520.2" font-family="arial" font-size="14.00" fill="#da2d4f">T</text>
</g>
<!-- node28&#45;&gt;node35 -->
<g id="edge35" class="edge">
<title>node28&#45;&gt;node35</title>
<path fill="none" stroke="#3cb4a4" d="M210.17,-637.34C217.13,-602.49 235.8,-521.65 268.97,-461.3 274.64,-450.98 282.43,-440.77 289.93,-432.05"/>
<polygon fill="#3cb4a4" stroke="#3cb4a4" points="292.62,-434.3 296.68,-424.51 287.4,-429.63 292.62,-434.3"/>
<text text-anchor="middle" x="248.87" y="-520.2" font-family="arial" font-size="14.00" fill="#3cb4a4">?</text>
</g>
<!-- node29 -->
<g id="node17" class="node">
<title>node29</title>
<polygon fill="#e98693" stroke="black" points="345.74,-336.2 274.2,-336.2 274.2,-300.2 345.74,-300.2 345.74,-336.2"/>
<text text-anchor="middle" x="309.97" y="-315.05" font-family="Arial" font-size="14.00" fill="#1a1919">29 Begin</text>
</g>
<!-- node29&#45;&gt;node36 -->
<g id="edge30" class="edge">
<title>node29&#45;&gt;node36</title>
<path fill="none" stroke="#da2d4f" stroke-width="2" d="M308.04,-300.01C307.13,-291.99 306.03,-282.25 305.02,-273.27"/>
<polygon fill="#da2d4f" stroke="#da2d4f" stroke-width="2" points="308.49,-272.77 303.89,-263.23 301.53,-273.56 308.49,-272.77"/>
</g>
<!-- node31&#45;&gt;node33 -->
<g id="edge32" class="edge">
<title>node31&#45;&gt;node33</title>
<path fill="none" stroke="#da2d4f" stroke-width="2" d="M503.97,-300.01C503.97,-291.99 503.97,-282.25 503.97,-273.27"/>
<polygon fill="#da2d4f" stroke="#da2d4f" stroke-width="2" points="507.47,-273.23 503.97,-263.23 500.47,-273.23 507.47,-273.23"/>
</g>
<!-- node45 -->
<g id="node28" class="node">
<title>node45</title>
<polygon fill="#e98693" stroke="black" points="357.35,-190.2 296.6,-190.2 296.6,-154.2 357.35,-154.2 357.35,-190.2"/>
<text text-anchor="middle" x="326.97" y="-169.05" font-family="Arial" font-size="14.00" fill="#1a1919">45 End</text>
</g>
<!-- node33&#45;&gt;node45 -->
<g id="edge34" class="edge">
<title>node33&#45;&gt;node45</title>
<path fill="none" stroke="#da2d4f" stroke-width="2" d="M461.58,-227.19C432.85,-215.67 395.13,-200.54 366.93,-189.23"/>
<polygon fill="#da2d4f" stroke="#da2d4f" stroke-width="2" points="367.97,-185.87 357.39,-185.4 365.36,-192.37 367.97,-185.87"/>
</g>
<!-- node35&#45;&gt;node29 -->
<g id="edge37" class="edge">
<title>node35&#45;&gt;node29</title>
<path fill="none" stroke="#da2d4f" stroke-width="2" d="M313.18,-388.29C312.63,-376.45 311.89,-360.42 311.25,-346.77"/>
<polygon fill="#da2d4f" stroke="#da2d4f" stroke-width="2" points="314.73,-346.3 310.77,-336.47 307.74,-346.62 314.73,-346.3"/>
<text text-anchor="middle" x="317.25" y="-359.1" font-family="arial" font-size="14.00" fill="#da2d4f">F</text>
</g>
<!-- node35&#45;&gt;node31 -->
<g id="edge36" class="edge">
<title>node35&#45;&gt;node31</title>
<path fill="none" stroke="#da2d4f" stroke-width="2" d="M341.19,-392.96C371.34,-379.3 420.47,-357.04 456.89,-340.54"/>
<polygon fill="#da2d4f" stroke="#da2d4f" stroke-width="2" points="458.66,-343.58 466.32,-336.26 455.77,-337.2 458.66,-343.58"/>
<text text-anchor="middle" x="431.25" y="-359.1" font-family="arial" font-size="14.00" fill="#da2d4f">T</text>
</g>
<!-- node36&#45;&gt;node40 -->
<g id="edge39" class="edge">
<title>node36&#45;&gt;node40</title>
<path fill="none" stroke="#da2d4f" stroke-width="2" d="M275.86,-227.19C261.41,-217.78 243.26,-205.95 227.63,-195.77"/>
<polygon fill="#da2d4f" stroke="#da2d4f" stroke-width="2" points="229.53,-192.84 219.25,-190.31 225.71,-198.7 229.53,-192.84"/>
</g>
<!-- node39&#45;&gt;node19 -->
<g id="edge19" class="edge">
<title>node39&#45;&gt;node19</title>
<path fill="none" stroke="#3cb4a4" d="M416.75,-662.72C401.48,-667.76 383.72,-676.55 374.51,-691.5 369.92,-698.94 370.72,-707.89 373.55,-716.2"/>
<polygon fill="#3cb4a4" stroke="#3cb4a4" points="370.4,-717.75 377.59,-725.54 376.83,-714.97 370.4,-717.75"/>
<text text-anchor="middle" x="398.7" y="-696.39" font-family="arial" font-size="14.00" fill="#3cb4a4">from 40</text>
</g>
<!-- node41&#45;&gt;node6 -->
<g id="edge6" class="edge">
<title>node41&#45;&gt;node6</title>
<path fill="none" stroke="#3cb4a4" d="M281.8,-1189.25C266.56,-1194.3 248.79,-1203.09 239.51,-1217.99 235.2,-1224.9 233.92,-1233.42 234.04,-1241.52"/>
<polygon fill="#3cb4a4" stroke="#3cb4a4" points="230.57,-1242.05 234.87,-1251.73 237.54,-1241.48 230.57,-1242.05"/>
<text text-anchor="middle" x="263.7" y="-1222.89" font-family="arial" font-size="14.00" fill="#3cb4a4">from 42</text>
</g>
<!-- node44 -->
<g id="node27" class="node">
<title>node44</title>
<polygon fill="#e98693" stroke="black" points="94.62,-117.2 19.33,-117.2 19.33,-81.2 94.62,-81.2 94.62,-117.2"/>
<text text-anchor="middle" x="56.97" y="-96.05" font-family="Arial" font-size="14.00" fill="#1a1919">44 Merge</text>
</g>
<!-- node43&#45;&gt;node44 -->
<g id="edge46" class="edge">
<title>node43&#45;&gt;node44</title>
<path fill="none" stroke="#da2d4f" stroke-width="2" d="M44.97,-860.73C44.97,-842.15 44.97,-811.56 44.97,-785.19 44.97,-785.19 44.97,-785.19 44.97,-171.2 44.97,-156.5 47.5,-140.33 50.24,-127.14"/>
<polygon fill="#da2d4f" stroke="#da2d4f" stroke-width="2" points="53.68,-127.8 52.44,-117.28 46.85,-126.28 53.68,-127.8"/>
</g>
<!-- node47 -->
<g id="node29" class="node">
<title>node47</title>
<polygon fill="#e98693" stroke="black" points="136.96,-36 58.99,-36 58.99,0 136.96,0 136.96,-36"/>
<text text-anchor="middle" x="97.97" y="-14.85" font-family="Arial" font-size="14.00" fill="#1a1919">47 Return</text>
</g>
<!-- node44&#45;&gt;node47 -->
<g id="edge48" class="edge">
<title>node44&#45;&gt;node47</title>
<path fill="none" stroke="#da2d4f" stroke-width="2" d="M65.87,-81.01C71.29,-70.53 78.34,-56.93 84.45,-45.13"/>
<polygon fill="#da2d4f" stroke="#da2d4f" stroke-width="2" points="87.6,-46.64 89.09,-36.15 81.39,-43.42 87.6,-46.64"/>
</g>
<!-- node45&#45;&gt;node44 -->
<g id="edge47" class="edge">
<title>node45&#45;&gt;node44</title>
<path fill="none" stroke="#da2d4f" stroke-width="2" d="M296.55,-164.27C247.85,-153.1 153.65,-131.22 104.36,-117.09"/>
<polygon fill="#da2d4f" stroke="#da2d4f" stroke-width="2" points="105.14,-113.67 94.56,-114.21 103.16,-120.39 105.14,-113.67"/>
</g>
<!-- inline1x6 -->
<g id="node30" class="node">
<title>inline1x6</title>
<ellipse fill="#d7ede7" stroke="black" cx="624.97" cy="-1351.29" rx="27" ry="18"/>
<text text-anchor="middle" x="624.97" y="-1349.49" font-family="Arial" font-size="8.00" fill="#1a1919">1 P(0)</text>
</g>
<!-- inline1x6&#45;&gt;node6 -->
<g id="edge5" class="edge">
<title>inline1x6&#45;&gt;node6</title>
<path fill="none" stroke="#3cb4a4" d="M598.97,-1345.89C544.05,-1336.47 412.3,-1313.14 302.97,-1288.09 290.87,-1285.32 277.59,-1281.86 266.28,-1278.78"/>
<text text-anchor="middle" x="438.31" y="-1308.89" font-family="arial" font-size="8.00" fill="#3cb4a4">from 4</text>
</g>
<!-- inline9x10 -->
<g id="node31" class="node">
<title>inline9x10</title>
<ellipse fill="#d7ede7" stroke="black" cx="150.97" cy="-1270.09" rx="27" ry="18"/>
<text text-anchor="middle" x="150.97" y="-1268.29" font-family="Arial" font-size="8.00" fill="#1a1919">9 C(1)</text>
</g>
<!-- inline9x10&#45;&gt;node10 -->
<g id="edge8" class="edge">
<title>inline9x10&#45;&gt;node10</title>
<path fill="none" stroke="#3cb4a4" d="M150.97,-1252.08C150.97,-1237.08 150.97,-1215.33 150.97,-1200.26"/>
<text text-anchor="middle" x="152.97" y="-1224.24" font-family="arial" font-size="8.00" fill="#3cb4a4">y</text>
</g>
<!-- inline1x19 -->
<g id="node32" class="node">
<title>inline1x19</title>
<ellipse fill="#d7ede7" stroke="black" cx="388.97" cy="-824.79" rx="27" ry="18"/>
<text text-anchor="middle" x="388.97" y="-822.99" font-family="Arial" font-size="8.00" fill="#1a1919">1 P(0)</text>
</g>
<!-- inline1x19&#45;&gt;node19 -->
<g id="edge18" class="edge">
<title>inline1x19&#45;&gt;node19</title>
<path fill="none" stroke="#3cb4a4" d="M388.97,-806.61C388.97,-793.32 388.97,-775.02 388.97,-761.75"/>
<text text-anchor="middle" x="402.53" y="-782.39" font-family="arial" font-size="8.00" fill="#3cb4a4">from 17</text>
</g>
<!-- inline9x21 -->
<g id="node33" class="node">
<title>inline9x21</title>
<ellipse fill="#d7ede7" stroke="black" cx="316.97" cy="-743.59" rx="27" ry="18"/>
<text text-anchor="middle" x="316.97" y="-741.79" font-family="Arial" font-size="8.00" fill="#1a1919">9 C(1)</text>
</g>
<!-- inline9x21&#45;&gt;node21 -->
<g id="edge21" class="edge">
<title>inline9x21&#45;&gt;node21</title>
<path fill="none" stroke="#3cb4a4" d="M316.97,-725.58C316.97,-710.59 316.97,-688.84 316.97,-673.76"/>
<text text-anchor="middle" x="318.97" y="-697.74" font-family="arial" font-size="8.00" fill="#3cb4a4">y</text>
</g>
<!-- inline27x28 -->
<g id="node34" class="node">
<title>inline27x28</title>
<ellipse fill="#d7ede7" stroke="black" cx="206.97" cy="-743.59" rx="27" ry="18"/>
<text text-anchor="middle" x="206.97" y="-741.79" font-family="Arial" font-size="8.00" fill="#1a1919">27 C(4)</text>
</g>
<!-- inline27x28&#45;&gt;node28 -->
<g id="edge29" class="edge">
<title>inline27x28&#45;&gt;node28</title>
<path fill="none" stroke="#3cb4a4" d="M206.97,-725.58C206.97,-710.59 206.97,-688.84 206.97,-673.76"/>
<text text-anchor="middle" x="208.97" y="-697.74" font-family="arial" font-size="8.00" fill="#3cb4a4">y</text>
</g>
<!-- inline38x39 -->
<g id="node35" class="node">
<title>inline38x39</title>
<ellipse fill="#d7ede7" stroke="black" cx="460.97" cy="-743.59" rx="27" ry="18"/>
<text text-anchor="middle" x="460.97" y="-741.79" font-family="Arial" font-size="8.00" fill="#1a1919">38 C(&#45;1)</text>
</g>
<!-- inline38x39&#45;&gt;node39 -->
<g id="edge41" class="edge">
<title>inline38x39&#45;&gt;node39</title>
<path fill="none" stroke="#3cb4a4" d="M458.19,-725.52C456.51,-715.57 454.26,-702.8 451.97,-691.5 450.79,-685.63 449.36,-679.24 448.05,-673.55"/>
<text text-anchor="middle" x="456.97" y="-697.74" font-family="arial" font-size="8.00" fill="#3cb4a4">y</text>
</g>
<!-- inline38x41 -->
<g id="node36" class="node">
<title>inline38x41</title>
<ellipse fill="#d7ede7" stroke="black" cx="338.97" cy="-1270.09" rx="27" ry="18"/>
<text text-anchor="middle" x="338.97" y="-1268.29" font-family="Arial" font-size="8.00" fill="#1a1919">38 C(&#45;1)</text>
</g>
<!-- inline38x41&#45;&gt;node41 -->
<g id="edge44" class="edge">
<title>inline38x41&#45;&gt;node41</title>
<path fill="none" stroke="#3cb4a4" d="M333.19,-1252.49C327.94,-1237.44 320.25,-1215.34 314.94,-1200.13"/>
<text text-anchor="middle" x="328.97" y="-1224.24" font-family="arial" font-size="8.00" fill="#3cb4a4">y</text>
</g>
<!-- inline1x47 -->
<g id="node37" class="node">
<title>inline1x47</title>
<ellipse fill="#d7ede7" stroke="black" cx="139.97" cy="-99.2" rx="27" ry="18"/>
<text text-anchor="middle" x="139.97" y="-97.4" font-family="Arial" font-size="8.00" fill="#1a1919">1 P(0)</text>
</g>
<!-- inline1x47&#45;&gt;node47 -->
<g id="edge49" class="edge">
<title>inline1x47&#45;&gt;node47</title>
<path fill="none" stroke="#3cb4a4" d="M131.27,-81.79C124.21,-68.47 114.28,-49.74 107.1,-36.21"/>
<text text-anchor="middle" x="130.75" y="-56.8" font-family="arial" font-size="8.00" fill="#3cb4a4">result</text>
</g>
</g>
</svg>
