<?xml version="1.0" encoding="UTF-8" standalone="no"?>
<!DOCTYPE svg PUBLIC "-//W3C//DTD SVG 1.1//EN"
 "http://www.w3.org/Graphics/SVG/1.1/DTD/svg11.dtd">
<!-- Generated by graphviz version 2.43.0 (0)
 -->
<!-- Title: G Pages: 1 -->
<svg width="773pt" height="610pt"
 viewBox="0.00 0.00 773.22 609.79" xmlns="http://www.w3.org/2000/svg" xmlns:xlink="http://www.w3.org/1999/xlink">
<g id="graph0" class="graph" transform="scale(1 1) rotate(0) translate(4 605.79)">
<title>G</title>
' points="-4,4 -4,-605.79 769.22,-605.79 769.22,4 -4,4"/>
<!-- node0 -->
<g id="node1" class="node">
<title>node0</title>
<polygon fill="#e98693" stroke="black" points="324.35,-601.79 266.87,-601.79 266.87,-565.79 324.35,-565.79 324.35,-601.79"/>
<text text-anchor="middle" x="295.61" y="-580.64" font-family="Arial" font-size="14.00" fill="#1a1919">0 Start</text>
</g>
<!-- node6 -->
<g id="node2" class="node">
<title>node6</title>
<polygon fill="#e98693" stroke="black" points="406.13,-520.6 259.09,-520.6 259.09,-484.6 406.13,-484.6 406.13,-520.6"/>
<text text-anchor="middle" x="332.61" y="-499.45" font-family="Arial" font-size="14.00" fill="#1a1919">6 IntegerSwitch [0, 1]</text>
</g>
<!-- node0&#45;&gt;node6 -->
<g id="edge1" class="edge">
<title>node0&#45;&gt;node6</title>
<path fill="none" stroke="#da2d4f" stroke-width="2" d="M303.64,-565.61C308.49,-555.23 314.77,-541.79 320.24,-530.08"/>
<polygon fill="#da2d4f" stroke="#da2d4f" stroke-width="2" points="323.54,-531.29 324.6,-520.75 317.19,-528.33 323.54,-531.29"/>
</g>
<!-- node7 -->
<g id="node3" class="node">
<title>node7</title>
<polygon fill="#e98693" stroke="black" points="153.59,-432.5 89.63,-432.5 89.63,-396.5 153.59,-396.5 153.59,-432.5"/>
<text text-anchor="middle" x="121.61" y="-411.35" font-family="Arial" font-size="14.00" fill="#1a1919">7 Begin</text>
</g>
<!-- node6&#45;&gt;node7 -->
<g id="edge3" class="edge">
<title>node6&#45;&gt;node7</title>
<path fill="none" stroke="#da2d4f" stroke-width="2" d="M290.31,-484.5C257.98,-471.41 212.06,-452.77 162.92,-432.61"/>
<polygon fill="#da2d4f" stroke="#da2d4f" stroke-width="2" points="163.96,-429.26 153.38,-428.7 161.31,-435.73 163.96,-429.26"/>
<text text-anchor="middle" x="253.89" y="-455.4" font-family="arial" font-size="14.00" fill="#da2d4f">k[0]</text>
</g>
<!-- node8 -->
<g id="node4" class="node">
<title>node8</title>
<polygon fill="#e98693" stroke="black" points="364.59,-432.5 300.63,-432.5 300.63,-396.5 364.59,-396.5 364.59,-432.5"/>
<text text-anchor="middle" x="332.61" y="-411.35" font-family="Arial" font-size="14.00" fill="#1a1919">8 Begin</text>
</g>
<!-- node6&#45;&gt;node8 -->
<g id="edge4" class="edge">
<title>node6&#45;&gt;node8</title>
<path fill="none" stroke="#da2d4f" stroke-width="2" d="M332.61,-484.59C332.61,-472.75 332.61,-456.72 332.61,-443.07"/>
<polygon fill="#da2d4f" stroke="#da2d4f" stroke-width="2" points="336.11,-442.77 332.61,-432.77 329.11,-442.77 336.11,-442.77"/>
<text text-anchor="middle" x="343.89" y="-455.4" font-family="arial" font-size="14.00" fill="#da2d4f">k[1]</text>
</g>
<!-- node9 -->
<g id="node5" class="node">
<title>node9</title>
<polygon fill="#e98693" stroke="black" points="545.59,-432.5 481.63,-432.5 481.63,-396.5 545.59,-396.5 545.59,-432.5"/>
<text text-anchor="middle" x="513.61" y="-411.35" font-family="Arial" font-size="14.00" fill="#1a1919">9 Begin</text>
</g>
<!-- node6&#45;&gt;node9 -->
<g id="edge5" class="edge">
<title>node6&#45;&gt;node9</title>
<path fill="none" stroke="#da2d4f" stroke-width="2" d="M368.37,-484.59C398.34,-470.33 441.14,-449.97 472.52,-435.04"/>
<polygon fill="#da2d4f" stroke="#da2d4f" stroke-width="2" points="474.33,-438.06 481.86,-430.6 471.33,-431.73 474.33,-438.06"/>
<text text-anchor="middle" x="459.63" y="-455.4" font-family="arial" font-size="14.00" fill="#da2d4f">default</text>
</g>
<!-- node19 -->
<g id="node12" class="node">
<title>node19</title>
<polygon fill="#da2d4f" stroke="black" points="243.33,-351.3 -0.11,-351.3 -0.11,-315.3 243.33,-315.3 243.33,-351.3"/>
<text text-anchor="middle" x="121.61" y="-330.15" font-family="Arial" font-size="14.00" fill="#ffffff">19 StoreField JavaExamples.intField</text>
</g>
<!-- node7&#45;&gt;node19 -->
<g id="edge6" class="edge">
<title>node7&#45;&gt;node19</title>
<path fill="none" stroke="#da2d4f" stroke-width="2" d="M121.61,-396.31C121.61,-386.14 121.61,-373.03 121.61,-361.48"/>
<polygon fill="#da2d4f" stroke="#da2d4f" stroke-width="2" points="125.11,-361.45 121.61,-351.45 118.11,-361.45 125.11,-361.45"/>
</g>
<!-- node13 -->
<g id="node7" class="node">
<title>node13</title>
<polygon fill="#da2d4f" stroke="black" points="504.33,-351.3 260.89,-351.3 260.89,-315.3 504.33,-315.3 504.33,-351.3"/>
<text text-anchor="middle" x="382.61" y="-330.15" font-family="Arial" font-size="14.00" fill="#ffffff">13 StoreField JavaExamples.intField</text>
</g>
<!-- node8&#45;&gt;node13 -->
<g id="edge7" class="edge">
<title>node8&#45;&gt;node13</title>
<path fill="none" stroke="#da2d4f" stroke-width="2" d="M343.46,-396.31C350.14,-385.73 358.84,-371.95 366.33,-360.08"/>
<polygon fill="#da2d4f" stroke="#da2d4f" stroke-width="2" points="369.4,-361.77 371.78,-351.45 363.48,-358.04 369.4,-361.77"/>
</g>
<!-- node10 -->
<g id="node6" class="node">
<title>node10</title>
<polygon fill="#da2d4f" stroke="black" points="765.33,-351.3 521.89,-351.3 521.89,-315.3 765.33,-315.3 765.33,-351.3"/>
<text text-anchor="middle" x="643.61" y="-330.15" font-family="Arial" font-size="14.00" fill="#ffffff">10 StoreField JavaExamples.intField</text>
</g>
<!-- node9&#45;&gt;node10 -->
<g id="edge8" class="edge">
<title>node9&#45;&gt;node10</title>
<path fill="none" stroke="#da2d4f" stroke-width="2" d="M541.82,-396.31C560.81,-384.74 586.06,-369.36 606.65,-356.81"/>
<polygon fill="#da2d4f" stroke="#da2d4f" stroke-width="2" points="608.74,-359.64 615.46,-351.45 605.1,-353.66 608.74,-359.64"/>
</g>
<!-- node15 -->
<g id="node8" class="node">
<title>node15</title>
<polygon fill="#e98693" stroke="black" points="581.98,-278.3 521.24,-278.3 521.24,-242.3 581.98,-242.3 581.98,-278.3"/>
<text text-anchor="middle" x="551.61" y="-257.15" font-family="Arial" font-size="14.00" fill="#1a1919">15 End</text>
</g>
<!-- node10&#45;&gt;node15 -->
<g id="edge10" class="edge">
<title>node10&#45;&gt;node15</title>
<path fill="none" stroke="#da2d4f" stroke-width="2" d="M621.34,-315.11C609.47,-305.95 594.71,-294.56 581.82,-284.61"/>
<polygon fill="#da2d4f" stroke="#da2d4f" stroke-width="2" points="583.73,-281.67 573.68,-278.33 579.45,-287.21 583.73,-281.67"/>
</g>
<!-- node17 -->
<g id="node10" class="node">
<title>node17</title>
<polygon fill="#e98693" stroke="black" points="412.98,-278.3 352.24,-278.3 352.24,-242.3 412.98,-242.3 412.98,-278.3"/>
<text text-anchor="middle" x="382.61" y="-257.15" font-family="Arial" font-size="14.00" fill="#1a1919">17 End</text>
</g>
<!-- node13&#45;&gt;node17 -->
<g id="edge12" class="edge">
<title>node13&#45;&gt;node17</title>
<path fill="none" stroke="#da2d4f" stroke-width="2" d="M382.61,-315.11C382.61,-307.09 382.61,-297.35 382.61,-288.37"/>
<polygon fill="#da2d4f" stroke="#da2d4f" stroke-width="2" points="386.11,-288.33 382.61,-278.33 379.11,-288.33 386.11,-288.33"/>
</g>
<!-- node16 -->
<g id="node9" class="node">
<title>node16</title>
<polygon fill="#e98693" stroke="black" points="420.25,-205.3 344.97,-205.3 344.97,-169.3 420.25,-169.3 420.25,-205.3"/>
<text text-anchor="middle" x="382.61" y="-184.15" font-family="Arial" font-size="14.00" fill="#1a1919">16 Merge</text>
</g>
<!-- node15&#45;&gt;node16 -->
<g id="edge13" class="edge">
<title>node15&#45;&gt;node16</title>
<path fill="none" stroke="#da2d4f" stroke-width="2" d="M521.4,-246.6C495.87,-235.88 458.87,-220.34 429.5,-208"/>
<polygon fill="#da2d4f" stroke="#da2d4f" stroke-width="2" points="430.83,-204.76 420.25,-204.11 428.11,-211.21 430.83,-204.76"/>
</g>
<!-- node18 -->
<g id="node11" class="node">
<title>node18</title>
<polygon fill="#f9f9f9" stroke="black" points="492.61,-124.1 438.61,-124.1 438.61,-88.1 492.61,-88.1 492.61,-124.1"/>
<text text-anchor="middle" x="465.61" y="-102.95" font-family="Arial" font-size="14.00" fill="#1a1919">18 ϕ</text>
</g>
<!-- node16&#45;&gt;node18 -->
<g id="edge17" class="edge">
<title>node16&#45;&gt;node18</title>
<path fill="none" stroke="#343d46" stroke-dasharray="5,2" d="M408.21,-161.87C420.98,-149.69 436.11,-135.24 447.64,-124.25"/>
<polygon fill="#343d46" stroke="#343d46" points="405.44,-159.68 400.62,-169.11 410.27,-164.74 405.44,-159.68"/>
</g>
<!-- node23 -->
<g id="node14" class="node">
<title>node23</title>
<polygon fill="#e98693" stroke="black" points="444.59,-36 366.63,-36 366.63,0 444.59,0 444.59,-36"/>
<text text-anchor="middle" x="405.61" y="-14.85" font-family="Arial" font-size="14.00" fill="#1a1919">23 Return</text>
</g>
<!-- node16&#45;&gt;node23 -->
<g id="edge16" class="edge">
<title>node16&#45;&gt;node23</title>
<path fill="none" stroke="#da2d4f" stroke-width="2" d="M384.98,-169.02C388.98,-139.97 397.07,-81.1 401.85,-46.37"/>
<polygon fill="#da2d4f" stroke="#da2d4f" stroke-width="2" points="405.32,-46.81 403.21,-36.43 398.38,-45.86 405.32,-46.81"/>
</g>
<!-- node17&#45;&gt;node16 -->
<g id="edge14" class="edge">
<title>node17&#45;&gt;node16</title>
<path fill="none" stroke="#da2d4f" stroke-width="2" d="M382.61,-242.11C382.61,-234.09 382.61,-224.35 382.61,-215.37"/>
<polygon fill="#da2d4f" stroke="#da2d4f" stroke-width="2" points="386.11,-215.33 382.61,-205.33 379.11,-215.33 386.11,-215.33"/>
</g>
<!-- node18&#45;&gt;node23 -->
<g id="edge23" class="edge">
<title>node18&#45;&gt;node23</title>
<path fill="none" stroke="#3cb4a4" d="M453.76,-88.09C445.1,-75.67 433.22,-58.62 423.43,-44.57"/>
<polygon fill="#3cb4a4" stroke="#3cb4a4" points="426.23,-42.47 417.64,-36.27 420.49,-46.48 426.23,-42.47"/>
<text text-anchor="middle" x="457.73" y="-58.9" font-family="arial" font-size="14.00" fill="#3cb4a4">result</text>
</g>
<!-- node21 -->
<g id="node13" class="node">
<title>node21</title>
<polygon fill="#e98693" stroke="black" points="288.98,-278.3 228.24,-278.3 228.24,-242.3 288.98,-242.3 288.98,-278.3"/>
<text text-anchor="middle" x="258.61" y="-257.15" font-family="Arial" font-size="14.00" fill="#1a1919">21 End</text>
</g>
<!-- node19&#45;&gt;node21 -->
<g id="edge22" class="edge">
<title>node19&#45;&gt;node21</title>
<path fill="none" stroke="#da2d4f" stroke-width="2" d="M154.42,-315.29C173.92,-305.19 198.77,-292.31 219.31,-281.67"/>
<polygon fill="#da2d4f" stroke="#da2d4f" stroke-width="2" points="221.14,-284.66 228.4,-276.95 217.92,-278.45 221.14,-284.66"/>
</g>
<!-- node21&#45;&gt;node16 -->
<g id="edge15" class="edge">
<title>node21&#45;&gt;node16</title>
<path fill="none" stroke="#da2d4f" stroke-width="2" d="M288.31,-242.29C304.91,-232.79 325.79,-220.83 343.68,-210.59"/>
<polygon fill="#da2d4f" stroke="#da2d4f" stroke-width="2" points="345.78,-213.42 352.72,-205.41 342.3,-207.34 345.78,-213.42"/>
</g>
<!-- inline1x6 -->
<g id="node15" class="node">
<title>inline1x6</title>
<ellipse fill="#d7ede7" stroke="black" cx="369.61" cy="-583.79" rx="27" ry="18"/>
<text text-anchor="middle" x="369.61" y="-581.99" font-family="Arial" font-size="8.00" fill="#1a1919">1 P(0)</text>
</g>
<!-- inline1x6&#45;&gt;node6 -->
<g id="edge2" class="edge">
<title>inline1x6&#45;&gt;node6</title>
<path fill="none" stroke="#3cb4a4" d="M361.94,-566.38C355.72,-553.06 346.97,-534.34 340.65,-520.81"/>
<text text-anchor="middle" x="361.17" y="-541.39" font-family="arial" font-size="8.00" fill="#3cb4a4">value</text>
</g>
<!-- inline4x10 -->
<g id="node16" class="node">
<title>inline4x10</title>
<ellipse fill="#d7ede7" stroke="black" cx="643.61" cy="-414.5" rx="27" ry="18"/>
<text text-anchor="middle" x="643.61" y="-412.7" font-family="Arial" font-size="8.00" fill="#1a1919">4 P(3)</text>
</g>
<!-- inline4x10&#45;&gt;node10 -->
<g id="edge9" class="edge">
<title>inline4x10&#45;&gt;node10</title>
<path fill="none" stroke="#3cb4a4" d="M643.61,-396.31C643.61,-383.03 643.61,-364.73 643.61,-351.45"/>
<text text-anchor="middle" x="653.17" y="-372.1" font-family="arial" font-size="8.00" fill="#3cb4a4">value</text>
</g>
<!-- inline3x13 -->
<g id="node17" class="node">
<title>inline3x13</title>
<ellipse fill="#d7ede7" stroke="black" cx="409.61" cy="-414.5" rx="27" ry="18"/>
<text text-anchor="middle" x="409.61" y="-412.7" font-family="Arial" font-size="8.00" fill="#1a1919">3 P(2)</text>
</g>
<!-- inline3x13&#45;&gt;node13 -->
<g id="edge11" class="edge">
<title>inline3x13&#45;&gt;node13</title>
<path fill="none" stroke="#3cb4a4" d="M403.88,-396.7C399.33,-383.35 392.99,-364.76 388.42,-351.34"/>
<text text-anchor="middle" x="406.17" y="-372.1" font-family="arial" font-size="8.00" fill="#3cb4a4">value</text>
</g>
<!-- inline4x18 -->
<g id="node18" class="node">
<title>inline4x18</title>
<ellipse fill="#d7ede7" stroke="black" cx="465.61" cy="-187.3" rx="27" ry="18"/>
<text text-anchor="middle" x="465.61" y="-185.5" font-family="Arial" font-size="8.00" fill="#1a1919">4 P(3)</text>
</g>
<!-- inline4x18&#45;&gt;node18 -->
<g id="edge18" class="edge">
<title>inline4x18&#45;&gt;node18</title>
<path fill="none" stroke="#3cb4a4" d="M465.61,-169.11C465.61,-155.83 465.61,-137.53 465.61,-124.25"/>
<text text-anchor="middle" x="479.17" y="-144.9" font-family="arial" font-size="8.00" fill="#3cb4a4">from 15</text>
</g>
<!-- inline3x18 -->
<g id="node19" class="node">
<title>inline3x18</title>
<ellipse fill="#d7ede7" stroke="black" cx="537.61" cy="-187.3" rx="27" ry="18"/>
<text text-anchor="middle" x="537.61" y="-185.5" font-family="Arial" font-size="8.00" fill="#1a1919">3 P(2)</text>
</g>
<!-- inline3x18&#45;&gt;node18 -->
<g id="edge19" class="edge">
<title>inline3x18&#45;&gt;node18</title>
<path fill="none" stroke="#3cb4a4" d="M524.07,-171.4C511.85,-157.96 493.88,-138.19 481.09,-124.13"/>
<text text-anchor="middle" x="517.17" y="-144.9" font-family="arial" font-size="8.00" fill="#3cb4a4">from 17</text>
</g>
<!-- inline2x18 -->
<g id="node20" class="node">
<title>inline2x18</title>
<ellipse fill="#d7ede7" stroke="black" cx="609.61" cy="-187.3" rx="27" ry="18"/>
<text text-anchor="middle" x="609.61" y="-185.5" font-family="Arial" font-size="8.00" fill="#1a1919">2 P(1)</text>
</g>
<!-- inline2x18&#45;&gt;node18 -->
<g id="edge20" class="edge">
<title>inline2x18&#45;&gt;node18</title>
<path fill="none" stroke="#3cb4a4" d="M590.38,-174.51C575.34,-165.41 553.83,-152.62 534.61,-142.1 520.94,-134.62 505.49,-126.73 492.69,-120.34"/>
<text text-anchor="middle" x="562.17" y="-144.9" font-family="arial" font-size="8.00" fill="#3cb4a4">from 21</text>
</g>
<!-- inline2x19 -->
<g id="node21" class="node">
<title>inline2x19</title>
<ellipse fill="#d7ede7" stroke="black" cx="198.61" cy="-414.5" rx="27" ry="18"/>
<text text-anchor="middle" x="198.61" y="-412.7" font-family="Arial" font-size="8.00" fill="#1a1919">2 P(1)</text>
</g>
<!-- inline2x19&#45;&gt;node19 -->
<g id="edge21" class="edge">
<title>inline2x19&#45;&gt;node19</title>
<path fill="none" stroke="#3cb4a4" d="M184.49,-398.97C171.46,-385.57 152.11,-365.67 138.32,-351.49"/>
<text text-anchor="middle" x="172.17" y="-372.1" font-family="arial" font-size="8.00" fill="#3cb4a4">value</text>
</g>
</g>
</svg>
