<?xml version="1.0" encoding="UTF-8" standalone="no"?>
<!DOCTYPE svg PUBLIC "-//W3C//DTD SVG 1.1//EN"
 "http://www.w3.org/Graphics/SVG/1.1/DTD/svg11.dtd">
<!-- Generated by graphviz version 2.44.0 (20200408.0750)
 -->
<!-- Title: G Pages: 1 -->
<svg width="280pt" height="198pt"
 viewBox="0.00 0.00 280.00 198.00" xmlns="http://www.w3.org/2000/svg" xmlns:xlink="http://www.w3.org/1999/xlink">
<g id="graph0" class="graph" transform="scale(1 1) rotate(0) translate(4 194)">
<title>G</title>
<!-- node0 -->
<g id="node1" class="node">
<title>node0</title>
<polygon fill="#e98693" stroke="black" points="56,-190 0,-190 0,-154 56,-154 56,-190"/>
<text text-anchor="middle" x="28" y="-168.3" font-family="Arial" font-size="14.00" fill="#1a1919">0 Start</text>
</g>
<!-- node5 -->
<g id="node2" class="node">
<title>node5</title>
<polygon fill="#da2d4f" stroke="black" points="191,-109 83,-109 83,-73 191,-73 191,-109"/>
<text text-anchor="middle" x="137" y="-87.3" font-family="Arial" font-size="14.00" fill="#ffffff">5 StoreIndexed</text>
</g>
<!-- node0&#45;&gt;node5 -->
<g id="edge1" class="edge">
<title>node0&#45;&gt;node5</title>
<path fill="none" stroke="#da2d4f" stroke-width="2" d="M51.65,-153.86C67.22,-142.57 87.8,-127.66 104.85,-115.3"/>
<polygon fill="#da2d4f" stroke="#da2d4f" stroke-width="2" points="107.35,-117.81 113.39,-109.11 103.24,-112.14 107.35,-117.81"/>
</g>
<!-- node7 -->
<g id="node3" class="node">
<title>node7</title>
<polygon fill="#e98693" stroke="black" points="171,-36 103,-36 103,0 171,0 171,-36"/>
<text text-anchor="middle" x="137" y="-14.3" font-family="Arial" font-size="14.00" fill="#1a1919">7 Return</text>
</g>
<!-- node5&#45;&gt;node7 -->
<g id="edge5" class="edge">
<title>node5&#45;&gt;node7</title>
<path fill="none" stroke="#da2d4f" stroke-width="2" d="M137,-72.81C137,-64.79 137,-55.05 137,-46.07"/>
<polygon fill="#da2d4f" stroke="#da2d4f" stroke-width="2" points="140.5,-46.03 137,-36.03 133.5,-46.03 140.5,-46.03"/>
</g>
<!-- inline1x5 -->
<g id="node4" class="node">
<title>inline1x5</title>
<ellipse fill="#d7ede7" stroke="black" cx="101" cy="-172" rx="27" ry="18"/>
<text text-anchor="middle" x="101" y="-170.1" font-family="Arial" font-size="8.00" fill="#1a1919">1 P(0)</text>
</g>
<!-- inline1x5&#45;&gt;node5 -->
<g id="edge2" class="edge">
<title>inline1x5&#45;&gt;node5</title>
<path fill="none" stroke="#3cb4a4" d="M108.46,-154.63C114.51,-141.34 123.03,-122.67 129.18,-109.17"/>
<text text-anchor="middle" x="130.5" y="-129.6" font-family="arial" font-size="8.00" fill="#3cb4a4">array</text>
</g>
<!-- inline2x5 -->
<g id="node5" class="node">
<title>inline2x5</title>
<ellipse fill="#d7ede7" stroke="black" cx="173" cy="-172" rx="27" ry="18"/>
<text text-anchor="middle" x="173" y="-170.1" font-family="Arial" font-size="8.00" fill="#1a1919">2 P(1)</text>
</g>
<!-- inline2x5&#45;&gt;node5 -->
<g id="edge3" class="edge">
<title>inline2x5&#45;&gt;node5</title>
<path fill="none" stroke="#3cb4a4" d="M165.54,-154.63C159.49,-141.34 150.97,-122.67 144.82,-109.17"/>
<text text-anchor="middle" x="165.5" y="-129.6" font-family="arial" font-size="8.00" fill="#3cb4a4">index</text>
</g>
<!-- inline3x5 -->
<g id="node6" class="node">
<title>inline3x5</title>
<ellipse fill="#d7ede7" stroke="black" cx="245" cy="-172" rx="27" ry="18"/>
<text text-anchor="middle" x="245" y="-170.1" font-family="Arial" font-size="8.00" fill="#1a1919">3 P(2)</text>
</g>
<!-- inline3x5&#45;&gt;node5 -->
<g id="edge4" class="edge">
<title>inline3x5&#45;&gt;node5</title>
<path fill="none" stroke="#3cb4a4" d="M227.17,-157.95C208.95,-144.63 180.58,-123.88 160.53,-109.21"/>
<text text-anchor="middle" x="203.5" y="-129.6" font-family="arial" font-size="8.00" fill="#3cb4a4">value</text>
</g>
</g>
</svg>
