<?xml version="1.0" encoding="UTF-8" standalone="no"?>
<!DOCTYPE svg PUBLIC "-//W3C//DTD SVG 1.1//EN"
 "http://www.w3.org/Graphics/SVG/1.1/DTD/svg11.dtd">
<!-- Generated by graphviz version 2.44.0 (20200408.0750)
 -->
<!-- Title: G Pages: 1 -->
<svg width="355pt" height="437pt"
 viewBox="0.00 0.00 355.17 437.00" xmlns="http://www.w3.org/2000/svg" xmlns:xlink="http://www.w3.org/1999/xlink">
<g id="graph0" class="graph" transform="scale(1 1) rotate(0) translate(4 433)">
<title>G</title>
<!-- node0 -->
<g id="node1" class="node">
<title>node0</title>
<polygon fill="#e98693" stroke="black" points="149.17,-429 93.17,-429 93.17,-393 149.17,-393 149.17,-429"/>
<text text-anchor="middle" x="121.17" y="-407.3" font-family="Arial" font-size="14.00" fill="#1a1919">0 Start</text>
</g>
<!-- node3 -->
<g id="node2" class="node">
<title>node3</title>
<polygon fill="#da2d4f" stroke="black" points="199.17,-356 43.17,-356 43.17,-320 199.17,-320 199.17,-356"/>
<text text-anchor="middle" x="121.17" y="-334.3" font-family="Arial" font-size="14.00" fill="#ffffff">3 New java.lang.Object</text>
</g>
<!-- node0&#45;&gt;node3 -->
<g id="edge1" class="edge">
<title>node0&#45;&gt;node3</title>
<path fill="none" stroke="#da2d4f" stroke-width="2" d="M121.17,-392.81C121.17,-384.79 121.17,-375.05 121.17,-366.07"/>
<polygon fill="#da2d4f" stroke="#da2d4f" stroke-width="2" points="124.67,-366.03 121.17,-356.03 117.67,-366.03 124.67,-366.03"/>
</g>
<!-- node5 -->
<g id="node4" class="node">
<title>node5</title>
<polygon fill="#da2d4f" stroke="black" points="210.17,-269 104.17,-269 104.17,-233 210.17,-233 210.17,-269"/>
<text text-anchor="middle" x="157.17" y="-247.3" font-family="Arial" font-size="14.00" fill="#ffffff">5 MonitorEnter</text>
</g>
<!-- node3&#45;&gt;node5 -->
<g id="edge2" class="edge">
<title>node3&#45;&gt;node5</title>
<path fill="none" stroke="#da2d4f" stroke-width="2" d="M124.66,-319.91C126.99,-310.05 130.49,-297.55 135.17,-287 136.51,-283.98 138.07,-280.92 139.74,-277.92"/>
<polygon fill="#da2d4f" stroke="#da2d4f" stroke-width="2" points="142.8,-279.63 144.94,-269.26 136.8,-276.03 142.8,-279.63"/>
</g>
<!-- node3&#45;&gt;node5 -->
<g id="edge3" class="edge">
<title>node3&#45;&gt;node5</title>
<path fill="none" stroke="#3cb4a4" d="M128.45,-319.8C133.48,-307.93 140.26,-291.93 145.97,-278.45"/>
<polygon fill="#3cb4a4" stroke="#3cb4a4" points="149.22,-279.75 149.89,-269.18 142.77,-277.02 149.22,-279.75"/>
<text text-anchor="middle" x="160.67" y="-290.8" font-family="arial" font-size="14.00" fill="#3cb4a4">object</text>
</g>
<!-- node9 -->
<g id="node6" class="node">
<title>node9</title>
<polygon fill="#da2d4f" stroke="black" points="192.17,-109 96.17,-109 96.17,-73 192.17,-73 192.17,-109"/>
<text text-anchor="middle" x="144.17" y="-87.3" font-family="Arial" font-size="14.00" fill="#ffffff">9 MonitorExit</text>
</g>
<!-- node3&#45;&gt;node9 -->
<g id="edge8" class="edge">
<title>node3&#45;&gt;node9</title>
<path fill="none" stroke="#3cb4a4" d="M80.69,-319.92C59.6,-308.74 35.66,-291.91 23.17,-269 -3.02,-220.99 -9.8,-191.74 20.17,-146 34.99,-123.37 61.59,-110.18 86.36,-102.5"/>
<polygon fill="#3cb4a4" stroke="#3cb4a4" points="87.43,-105.84 96.09,-99.73 85.52,-99.1 87.43,-105.84"/>
<text text-anchor="middle" x="20.67" y="-203.8" font-family="arial" font-size="14.00" fill="#3cb4a4">object</text>
</g>
<!-- node4 -->
<g id="node3" class="node">
<title>node4</title>
<polygon fill="#f9f9f9" stroke="black" points="315.67,-356 230.67,-356 230.67,-320 315.67,-320 315.67,-356"/>
<text text-anchor="middle" x="273.17" y="-334.3" font-family="Arial" font-size="14.00" fill="#1a1919">4 MonitorId</text>
</g>
<!-- node4&#45;&gt;node5 -->
<g id="edge4" class="edge">
<title>node4&#45;&gt;node5</title>
<path fill="none" stroke="#3cb4a4" d="M242.74,-319.95C233.67,-314.52 223.83,-308.28 215.17,-302 204.13,-294 192.62,-284.38 182.8,-275.73"/>
<polygon fill="#3cb4a4" stroke="#3cb4a4" points="185.11,-273.1 175.32,-269.04 180.44,-278.32 185.11,-273.1"/>
<text text-anchor="middle" x="244.17" y="-290.8" font-family="arial" font-size="14.00" fill="#3cb4a4">monitorId</text>
</g>
<!-- node4&#45;&gt;node9 -->
<g id="edge9" class="edge">
<title>node4&#45;&gt;node9</title>
<path fill="none" stroke="#3cb4a4" d="M278.36,-319.85C288.08,-284 304.95,-200.02 268.17,-146 253,-123.73 226.51,-110.57 201.9,-102.83"/>
<polygon fill="#3cb4a4" stroke="#3cb4a4" points="202.81,-99.45 192.23,-100.03 200.86,-106.18 202.81,-99.45"/>
<text text-anchor="middle" x="318.17" y="-203.8" font-family="arial" font-size="14.00" fill="#3cb4a4">monitorId</text>
</g>
<!-- node7 -->
<g id="node5" class="node">
<title>node7</title>
<polygon fill="#da2d4f" stroke="black" points="258.67,-182 29.67,-182 29.67,-146 258.67,-146 258.67,-182"/>
<text text-anchor="middle" x="144.17" y="-160.3" font-family="Arial" font-size="14.00" fill="#ffffff">7 StoreField JavaExamples.intField</text>
</g>
<!-- node5&#45;&gt;node7 -->
<g id="edge5" class="edge">
<title>node5&#45;&gt;node7</title>
<path fill="none" stroke="#da2d4f" stroke-width="2" d="M154.54,-232.8C152.76,-221.16 150.37,-205.55 148.33,-192.24"/>
<polygon fill="#da2d4f" stroke="#da2d4f" stroke-width="2" points="151.77,-191.53 146.8,-182.18 144.85,-192.59 151.77,-191.53"/>
</g>
<!-- node7&#45;&gt;node9 -->
<g id="edge7" class="edge">
<title>node7&#45;&gt;node9</title>
<path fill="none" stroke="#da2d4f" stroke-width="2" d="M144.17,-145.81C144.17,-137.79 144.17,-128.05 144.17,-119.07"/>
<polygon fill="#da2d4f" stroke="#da2d4f" stroke-width="2" points="147.67,-119.03 144.17,-109.03 140.67,-119.03 147.67,-119.03"/>
</g>
<!-- node11 -->
<g id="node7" class="node">
<title>node11</title>
<polygon fill="#e98693" stroke="black" points="181.67,-36 106.67,-36 106.67,0 181.67,0 181.67,-36"/>
<text text-anchor="middle" x="144.17" y="-14.3" font-family="Arial" font-size="14.00" fill="#1a1919">11 Return</text>
</g>
<!-- node9&#45;&gt;node11 -->
<g id="edge10" class="edge">
<title>node9&#45;&gt;node11</title>
<path fill="none" stroke="#da2d4f" stroke-width="2" d="M144.17,-72.81C144.17,-64.79 144.17,-55.05 144.17,-46.07"/>
<polygon fill="#da2d4f" stroke="#da2d4f" stroke-width="2" points="147.67,-46.03 144.17,-36.03 140.67,-46.03 147.67,-46.03"/>
</g>
<!-- inline1x7 -->
<g id="node8" class="node">
<title>inline1x7</title>
<ellipse fill="#d7ede7" stroke="black" cx="59.17" cy="-251" rx="27" ry="18"/>
<text text-anchor="middle" x="59.17" y="-249.1" font-family="Arial" font-size="8.00" fill="#1a1919">1 P(0)</text>
</g>
<!-- inline1x7&#45;&gt;node7 -->
<g id="edge6" class="edge">
<title>inline1x7&#45;&gt;node7</title>
<path fill="none" stroke="#3cb4a4" d="M73.59,-235.58C88.37,-220.8 111.34,-197.83 127.04,-182.13"/>
<text text-anchor="middle" x="116.67" y="-205.6" font-family="arial" font-size="8.00" fill="#3cb4a4">value</text>
</g>
</g>
</svg>
