<?xml version="1.0" encoding="UTF-8" standalone="no"?>
<!DOCTYPE svg PUBLIC "-//W3C//DTD SVG 1.1//EN"
 "http://www.w3.org/Graphics/SVG/1.1/DTD/svg11.dtd">
<!-- Generated by graphviz version 2.44.0 (20200408.0750)
 -->
<!-- Title: G Pages: 1 -->
<svg width="343pt" height="285pt"
 viewBox="0.00 0.00 343.00 285.00" xmlns="http://www.w3.org/2000/svg" xmlns:xlink="http://www.w3.org/1999/xlink">
<g id="graph0" class="graph" transform="scale(1 1) rotate(0) translate(4 281)">
<title>G</title>
<!-- node0 -->
<g id="node1" class="node">
<title>node0</title>
<polygon fill="#e98693" stroke="black" points="161.5,-196 105.5,-196 105.5,-160 161.5,-160 161.5,-196"/>
<text text-anchor="middle" x="133.5" y="-174.3" font-family="Arial" font-size="14.00" fill="#1a1919">0 Start</text>
</g>
<!-- node4 -->
<g id="node3" class="node">
<title>node4</title>
<polygon fill="#da2d4f" stroke="black" points="335,-123 0,-123 0,-87 335,-87 335,-123"/>
<text text-anchor="middle" x="167.5" y="-101.3" font-family="Arial" font-size="14.00" fill="#ffffff">4 Call JavaExamples$InterfaceOneImpl.interfaceCall</text>
</g>
<!-- node0&#45;&gt;node4 -->
<g id="edge1" class="edge">
<title>node0&#45;&gt;node4</title>
<path fill="none" stroke="#da2d4f" stroke-width="2" d="M141.73,-159.81C145.7,-151.53 150.54,-141.41 154.96,-132.19"/>
<polygon fill="#da2d4f" stroke="#da2d4f" stroke-width="2" points="158.18,-133.56 159.35,-123.03 151.87,-130.54 158.18,-133.56"/>
</g>
<!-- node3 -->
<g id="node2" class="node">
<title>node3</title>
<polygon fill="#f9f9f9" stroke="black" points="313.5,-196 179.5,-196 179.5,-160 313.5,-160 313.5,-196"/>
<text text-anchor="middle" x="246.5" y="-174.3" font-family="Arial" font-size="14.00" fill="#1a1919">3 MethodCallTarget</text>
</g>
<!-- node3&#45;&gt;node4 -->
<g id="edge3" class="edge">
<title>node3&#45;&gt;node4</title>
<path fill="none" stroke="#343d46" stroke-dasharray="5,2" d="M219.73,-152.94C208.8,-143.12 196.41,-131.99 186.45,-123.03"/>
<polygon fill="#343d46" stroke="#343d46" points="217.6,-155.73 227.38,-159.81 222.28,-150.53 217.6,-155.73"/>
</g>
<!-- node6 -->
<g id="node4" class="node">
<title>node6</title>
<polygon fill="#e98693" stroke="black" points="201.5,-36 133.5,-36 133.5,0 201.5,0 201.5,-36"/>
<text text-anchor="middle" x="167.5" y="-14.3" font-family="Arial" font-size="14.00" fill="#1a1919">6 Return</text>
</g>
<!-- node4&#45;&gt;node6 -->
<g id="edge4" class="edge">
<title>node4&#45;&gt;node6</title>
<path fill="none" stroke="#da2d4f" stroke-width="2" d="M166.33,-86.92C165.99,-81.22 165.67,-74.84 165.5,-69 165.29,-61.65 165.44,-53.69 165.73,-46.33"/>
<polygon fill="#da2d4f" stroke="#da2d4f" stroke-width="2" points="169.24,-46.28 166.23,-36.12 162.24,-45.94 169.24,-46.28"/>
</g>
<!-- node4&#45;&gt;node6 -->
<g id="edge5" class="edge">
<title>node4&#45;&gt;node6</title>
<path fill="none" stroke="#3cb4a4" d="M167.5,-86.8C167.5,-75.16 167.5,-59.55 167.5,-46.24"/>
<polygon fill="#3cb4a4" stroke="#3cb4a4" points="171,-46.18 167.5,-36.18 164,-46.18 171,-46.18"/>
<text text-anchor="middle" x="184.5" y="-57.8" font-family="arial" font-size="14.00" fill="#3cb4a4">result</text>
</g>
<!-- inline1x3 -->
<g id="node5" class="node">
<title>inline1x3</title>
<ellipse fill="#d7ede7" stroke="black" cx="246.5" cy="-259" rx="27" ry="18"/>
<text text-anchor="middle" x="246.5" y="-257.1" font-family="Arial" font-size="8.00" fill="#1a1919">1 P(0)</text>
</g>
<!-- inline1x3&#45;&gt;node3 -->
<g id="edge2" class="edge">
<title>inline1x3&#45;&gt;node3</title>
<path fill="none" stroke="#3cb4a4" d="M246.5,-240.86C246.5,-227.61 246.5,-209.35 246.5,-196.11"/>
<text text-anchor="middle" x="257.5" y="-216.6" font-family="arial" font-size="8.00" fill="#3cb4a4">arg[0]</text>
</g>
</g>
</svg>
