<?xml version="1.0" encoding="UTF-8" standalone="no"?>
<!DOCTYPE svg PUBLIC "-//W3C//DTD SVG 1.1//EN"
 "http://www.w3.org/Graphics/SVG/1.1/DTD/svg11.dtd">
<!-- Generated by graphviz version 2.44.0 (20200408.0750)
 -->
<!-- Title: G Pages: 1 -->
<svg width="255pt" height="285pt"
 viewBox="0.00 0.00 255.00 285.00" xmlns="http://www.w3.org/2000/svg" xmlns:xlink="http://www.w3.org/1999/xlink">
<g id="graph0" class="graph" transform="scale(1 1) rotate(0) translate(4 281)">
<title>G</title>
<!-- node0 -->
<g id="node1" class="node">
<title>node0</title>
<polygon fill="#e98693" stroke="black" points="95,-196 39,-196 39,-160 95,-160 95,-196"/>
<text text-anchor="middle" x="67" y="-174.3" font-family="Arial" font-size="14.00" fill="#1a1919">0 Start</text>
</g>
<!-- node4 -->
<g id="node3" class="node">
<title>node4</title>
<polygon fill="#da2d4f" stroke="black" points="202,-123 0,-123 0,-87 202,-87 202,-123"/>
<text text-anchor="middle" x="101" y="-101.3" font-family="Arial" font-size="14.00" fill="#ffffff">4 Call JavaExamples.staticCall</text>
</g>
<!-- node0&#45;&gt;node4 -->
<g id="edge1" class="edge">
<title>node0&#45;&gt;node4</title>
<path fill="none" stroke="#da2d4f" stroke-width="2" d="M75.23,-159.81C79.2,-151.53 84.04,-141.41 88.46,-132.19"/>
<polygon fill="#da2d4f" stroke="#da2d4f" stroke-width="2" points="91.68,-133.56 92.85,-123.03 85.37,-130.54 91.68,-133.56"/>
</g>
<!-- node3 -->
<g id="node2" class="node">
<title>node3</title>
<polygon fill="#f9f9f9" stroke="black" points="247,-196 113,-196 113,-160 247,-160 247,-196"/>
<text text-anchor="middle" x="180" y="-174.3" font-family="Arial" font-size="14.00" fill="#1a1919">3 MethodCallTarget</text>
</g>
<!-- node3&#45;&gt;node4 -->
<g id="edge3" class="edge">
<title>node3&#45;&gt;node4</title>
<path fill="none" stroke="#343d46" stroke-dasharray="5,2" d="M153.23,-152.94C142.3,-143.12 129.91,-131.99 119.95,-123.03"/>
<polygon fill="#343d46" stroke="#343d46" points="151.1,-155.73 160.88,-159.81 155.78,-150.53 151.1,-155.73"/>
</g>
<!-- node6 -->
<g id="node4" class="node">
<title>node6</title>
<polygon fill="#e98693" stroke="black" points="135,-36 67,-36 67,0 135,0 135,-36"/>
<text text-anchor="middle" x="101" y="-14.3" font-family="Arial" font-size="14.00" fill="#1a1919">6 Return</text>
</g>
<!-- node4&#45;&gt;node6 -->
<g id="edge4" class="edge">
<title>node4&#45;&gt;node6</title>
<path fill="none" stroke="#da2d4f" stroke-width="2" d="M99.83,-86.92C99.49,-81.22 99.17,-74.84 99,-69 98.79,-61.65 98.94,-53.69 99.23,-46.33"/>
<polygon fill="#da2d4f" stroke="#da2d4f" stroke-width="2" points="102.74,-46.28 99.73,-36.12 95.74,-45.94 102.74,-46.28"/>
</g>
<!-- node4&#45;&gt;node6 -->
<g id="edge5" class="edge">
<title>node4&#45;&gt;node6</title>
<path fill="none" stroke="#3cb4a4" d="M101,-86.8C101,-75.16 101,-59.55 101,-46.24"/>
<polygon fill="#3cb4a4" stroke="#3cb4a4" points="104.5,-46.18 101,-36.18 97.5,-46.18 104.5,-46.18"/>
<text text-anchor="middle" x="118" y="-57.8" font-family="arial" font-size="14.00" fill="#3cb4a4">result</text>
</g>
<!-- inline1x3 -->
<g id="node5" class="node">
<title>inline1x3</title>
<ellipse fill="#d7ede7" stroke="black" cx="180" cy="-259" rx="27" ry="18"/>
<text text-anchor="middle" x="180" y="-257.1" font-family="Arial" font-size="8.00" fill="#1a1919">1 P(0)</text>
</g>
<!-- inline1x3&#45;&gt;node3 -->
<g id="edge2" class="edge">
<title>inline1x3&#45;&gt;node3</title>
<path fill="none" stroke="#3cb4a4" d="M180,-240.86C180,-227.61 180,-209.35 180,-196.11"/>
<text text-anchor="middle" x="191" y="-216.6" font-family="arial" font-size="8.00" fill="#3cb4a4">arg[0]</text>
</g>
</g>
</svg>
