<?xml version="1.0" encoding="UTF-8" standalone="no"?>
<!DOCTYPE svg PUBLIC "-//W3C//DTD SVG 1.1//EN"
 "http://www.w3.org/Graphics/SVG/1.1/DTD/svg11.dtd">
<!-- Generated by graphviz version 2.43.0 (0)
 -->
<!-- Title: G Pages: 1 -->
<svg width="340pt" height="374pt"
 viewBox="0.00 0.00 340.02 374.40" xmlns="http://www.w3.org/2000/svg" xmlns:xlink="http://www.w3.org/1999/xlink">
<g id="graph0" class="graph" transform="scale(1 1) rotate(0) translate(4 370.4)">
<title>G</title>
' points="-4,4 -4,-370.4 336.02,-370.4 336.02,4 -4,4"/>
<!-- node0 -->
<g id="node1" class="node">
<title>node0</title>
<polygon fill="#e98693" stroke="black" points="248.76,-366.4 191.28,-366.4 191.28,-330.4 248.76,-330.4 248.76,-366.4"/>
<text text-anchor="middle" x="220.02" y="-345.25" font-family="Arial" font-size="14.00" fill="#1a1919">0 Start</text>
</g>
<!-- node5 -->
<g id="node3" class="node">
<title>node5</title>
<polygon fill="#da2d4f" stroke="black" points="216.84,-278.3 109.2,-278.3 109.2,-242.3 216.84,-242.3 216.84,-278.3"/>
<text text-anchor="middle" x="163.02" y="-257.15" font-family="Arial" font-size="14.00" fill="#ffffff">5 MonitorEnter</text>
</g>
<!-- node0&#45;&gt;node5 -->
<g id="edge1" class="edge">
<title>node0&#45;&gt;node5</title>
<path fill="none" stroke="#da2d4f" stroke-width="2" d="M208.76,-330.39C200.62,-318.08 189.46,-301.24 180.21,-287.26"/>
<polygon fill="#da2d4f" stroke="#da2d4f" stroke-width="2" points="182.89,-284.97 174.45,-278.57 177.06,-288.84 182.89,-284.97"/>
</g>
<!-- node4 -->
<g id="node2" class="node">
<title>node4</title>
<polygon fill="#f9f9f9" stroke="black" points="88.06,-366.4 1.99,-366.4 1.99,-330.4 88.06,-330.4 88.06,-366.4"/>
<text text-anchor="middle" x="45.02" y="-345.25" font-family="Arial" font-size="14.00" fill="#1a1919">4 MonitorId</text>
</g>
<!-- node4&#45;&gt;node5 -->
<g id="edge3" class="edge">
<title>node4&#45;&gt;node5</title>
<path fill="none" stroke="#3cb4a4" d="M57.57,-330.18C66.03,-319.45 77.94,-305.89 90.66,-296.3 97.01,-291.51 104.11,-287.12 111.32,-283.19"/>
<polygon fill="#3cb4a4" stroke="#3cb4a4" points="113.19,-286.17 120.46,-278.46 109.97,-279.95 113.19,-286.17"/>
<text text-anchor="middle" x="120.2" y="-301.2" font-family="arial" font-size="14.00" fill="#3cb4a4">monitorId</text>
</g>
<!-- node9 -->
<g id="node5" class="node">
<title>node9</title>
<polygon fill="#da2d4f" stroke="black" points="190.72,-109 93.32,-109 93.32,-73 190.72,-73 190.72,-109"/>
<text text-anchor="middle" x="142.02" y="-87.85" font-family="Arial" font-size="14.00" fill="#ffffff">9 MonitorExit</text>
</g>
<!-- node4&#45;&gt;node9 -->
<g id="edge8" class="edge">
<title>node4&#45;&gt;node9</title>
<path fill="none" stroke="#3cb4a4" d="M35.34,-330.38C16.48,-294.76 -20.37,-210.94 15.02,-154.2 30.17,-129.91 57.87,-114.84 83.54,-105.64"/>
<polygon fill="#3cb4a4" stroke="#3cb4a4" points="84.88,-108.88 93.25,-102.39 82.65,-102.24 84.88,-108.88"/>
<text text-anchor="middle" x="30.2" y="-213.1" font-family="arial" font-size="14.00" fill="#3cb4a4">monitorId</text>
</g>
<!-- node7 -->
<g id="node4" class="node">
<title>node7</title>
<polygon fill="#da2d4f" stroke="black" points="259.96,-190.2 24.09,-190.2 24.09,-154.2 259.96,-154.2 259.96,-190.2"/>
<text text-anchor="middle" x="142.02" y="-169.05" font-family="Arial" font-size="14.00" fill="#ffffff">7 StoreField JavaExamples.intField</text>
</g>
<!-- node5&#45;&gt;node7 -->
<g id="edge4" class="edge">
<title>node5&#45;&gt;node7</title>
<path fill="none" stroke="#da2d4f" stroke-width="2" d="M158.87,-242.29C155.96,-230.34 152,-214.1 148.65,-200.37"/>
<polygon fill="#da2d4f" stroke="#da2d4f" stroke-width="2" points="152,-199.35 146.23,-190.47 145.2,-201.01 152,-199.35"/>
</g>
<!-- node7&#45;&gt;node9 -->
<g id="edge6" class="edge">
<title>node7&#45;&gt;node9</title>
<path fill="none" stroke="#da2d4f" stroke-width="2" d="M142.02,-154.01C142.02,-143.84 142.02,-130.73 142.02,-119.19"/>
<polygon fill="#da2d4f" stroke="#da2d4f" stroke-width="2" points="145.52,-119.15 142.02,-109.15 138.52,-119.15 145.52,-119.15"/>
</g>
<!-- node11 -->
<g id="node6" class="node">
<title>node11</title>
<polygon fill="#e98693" stroke="black" points="180.47,-36 103.58,-36 103.58,0 180.47,0 180.47,-36"/>
<text text-anchor="middle" x="142.02" y="-14.85" font-family="Arial" font-size="14.00" fill="#1a1919">11 Return</text>
</g>
<!-- node9&#45;&gt;node11 -->
<g id="edge9" class="edge">
<title>node9&#45;&gt;node11</title>
<path fill="none" stroke="#da2d4f" stroke-width="2" d="M142.02,-72.81C142.02,-64.79 142.02,-55.05 142.02,-46.07"/>
<polygon fill="#da2d4f" stroke="#da2d4f" stroke-width="2" points="145.52,-46.03 142.02,-36.03 138.52,-46.03 145.52,-46.03"/>
</g>
<!-- inline1x5 -->
<g id="node7" class="node">
<title>inline1x5</title>
<ellipse fill="#d7ede7" stroke="black" cx="146.02" cy="-348.4" rx="27" ry="18"/>
<text text-anchor="middle" x="146.02" y="-346.6" font-family="Arial" font-size="8.00" fill="#1a1919">1 P(0)</text>
</g>
<!-- inline1x5&#45;&gt;node5 -->
<g id="edge2" class="edge">
<title>inline1x5&#45;&gt;node5</title>
<path fill="none" stroke="#3cb4a4" d="M149.38,-330.39C152.34,-315.39 156.64,-293.64 159.61,-278.57"/>
<text text-anchor="middle" x="167.7" y="-302.55" font-family="arial" font-size="8.00" fill="#3cb4a4">object</text>
</g>
<!-- inline2x7 -->
<g id="node8" class="node">
<title>inline2x7</title>
<ellipse fill="#d7ede7" stroke="black" cx="64.02" cy="-260.3" rx="27" ry="18"/>
<text text-anchor="middle" x="64.02" y="-258.5" font-family="Arial" font-size="8.00" fill="#1a1919">2 P(1)</text>
</g>
<!-- inline2x7&#45;&gt;node7 -->
<g id="edge5" class="edge">
<title>inline2x7&#45;&gt;node7</title>
<path fill="none" stroke="#3cb4a4" d="M77.61,-244.3C91.23,-229.27 112.17,-206.15 126.45,-190.39"/>
<text text-anchor="middle" x="119.58" y="-214.45" font-family="arial" font-size="8.00" fill="#3cb4a4">value</text>
</g>
<!-- inline1x9 -->
<g id="node9" class="node">
<title>inline1x9</title>
<ellipse fill="#d7ede7" stroke="black" cx="305.02" cy="-172.2" rx="27" ry="18"/>
<text text-anchor="middle" x="305.02" y="-170.4" font-family="Arial" font-size="8.00" fill="#1a1919">1 P(0)</text>
</g>
<!-- inline1x9&#45;&gt;node9 -->
<g id="edge7" class="edge">
<title>inline1x9&#45;&gt;node9</title>
<path fill="none" stroke="#3cb4a4" d="M283.71,-160.85C256.62,-147.68 209.46,-124.77 177.05,-109.02"/>
<text text-anchor="middle" x="238.7" y="-129.8" font-family="arial" font-size="8.00" fill="#3cb4a4">object</text>
</g>
</g>
</svg>
