<?xml version="1.0" encoding="UTF-8" standalone="no"?>
<!DOCTYPE svg PUBLIC "-//W3C//DTD SVG 1.1//EN"
 "http://www.w3.org/Graphics/SVG/1.1/DTD/svg11.dtd">
<!-- Generated by graphviz version 2.44.0 (20200408.0750)
 -->
<!-- Title: G Pages: 1 -->
<svg width="430pt" height="700pt"
 viewBox="0.00 0.00 429.77 700.00" xmlns="http://www.w3.org/2000/svg" xmlns:xlink="http://www.w3.org/1999/xlink">
<g id="graph0" class="graph" transform="scale(1 1) rotate(0) translate(4 696)">
<title>G</title>
<!-- node0 -->
<g id="node1" class="node">
<title>node0</title>
<polygon fill="#e98693" stroke="black" points="156.5,-524 100.5,-524 100.5,-488 156.5,-488 156.5,-524"/>
<text text-anchor="middle" x="128.5" y="-502.3" font-family="Arial" font-size="14.00" fill="#1a1919">0 Start</text>
</g>
<!-- node9 -->
<g id="node3" class="node">
<title>node9</title>
<polygon fill="#e98693" stroke="black" points="171.5,-437 117.5,-437 117.5,-401 171.5,-401 171.5,-437"/>
<text text-anchor="middle" x="144.5" y="-415.3" font-family="Arial" font-size="14.00" fill="#1a1919">9 If</text>
</g>
<!-- node0&#45;&gt;node9 -->
<g id="edge1" class="edge">
<title>node0&#45;&gt;node9</title>
<path fill="none" stroke="#da2d4f" stroke-width="2" d="M131.74,-487.8C133.93,-476.16 136.87,-460.55 139.37,-447.24"/>
<polygon fill="#da2d4f" stroke="#da2d4f" stroke-width="2" points="142.86,-447.65 141.27,-437.18 135.98,-446.36 142.86,-447.65"/>
</g>
<!-- node7 -->
<g id="node2" class="node">
<title>node7</title>
<polygon fill="#e98693" stroke="black" points="202.5,-36 134.5,-36 134.5,0 202.5,0 202.5,-36"/>
<text text-anchor="middle" x="168.5" y="-14.3" font-family="Arial" font-size="14.00" fill="#1a1919">7 Return</text>
</g>
<!-- node12 -->
<g id="node6" class="node">
<title>node12</title>
<polygon fill="#e98693" stroke="black" points="135.5,-350 65.5,-350 65.5,-314 135.5,-314 135.5,-350"/>
<text text-anchor="middle" x="100.5" y="-328.3" font-family="Arial" font-size="14.00" fill="#1a1919">12 Begin</text>
</g>
<!-- node9&#45;&gt;node12 -->
<g id="edge4" class="edge">
<title>node9&#45;&gt;node12</title>
<path fill="none" stroke="#da2d4f" stroke-width="2" d="M135.6,-400.8C129.39,-388.82 121.01,-372.62 113.99,-359.06"/>
<polygon fill="#da2d4f" stroke="#da2d4f" stroke-width="2" points="117.1,-357.45 109.39,-350.18 110.88,-360.67 117.1,-357.45"/>
<text text-anchor="middle" x="130" y="-371.8" font-family="arial" font-size="14.00" fill="#da2d4f">T</text>
</g>
<!-- node13 -->
<g id="node7" class="node">
<title>node13</title>
<polygon fill="#e98693" stroke="black" points="223.5,-350 153.5,-350 153.5,-314 223.5,-314 223.5,-350"/>
<text text-anchor="middle" x="188.5" y="-328.3" font-family="Arial" font-size="14.00" fill="#1a1919">13 Begin</text>
</g>
<!-- node9&#45;&gt;node13 -->
<g id="edge5" class="edge">
<title>node9&#45;&gt;node13</title>
<path fill="none" stroke="#da2d4f" stroke-width="2" d="M153.4,-400.8C159.61,-388.82 167.99,-372.62 175.01,-359.06"/>
<polygon fill="#da2d4f" stroke="#da2d4f" stroke-width="2" points="178.12,-360.67 179.61,-350.18 171.9,-357.45 178.12,-360.67"/>
<text text-anchor="middle" x="174" y="-371.8" font-family="arial" font-size="14.00" fill="#da2d4f">F</text>
</g>
<!-- node10 -->
<g id="node4" class="node">
<title>node10</title>
<polygon fill="#f9f9f9" stroke="black" points="129,-611 0,-611 0,-575 129,-575 129,-611"/>
<text text-anchor="middle" x="64.5" y="-589.3" font-family="Arial" font-size="14.00" fill="#1a1919">10 LoadHubOrNull</text>
</g>
<!-- node11 -->
<g id="node5" class="node">
<title>node11</title>
<polygon fill="#3cb4a4" stroke="black" points="221.5,-524 174.75,-506 221.5,-488 268.25,-506 221.5,-524"/>
<text text-anchor="middle" x="221.5" y="-502.3" font-family="Arial" font-size="14.00" fill="#1a1919">11 ==</text>
</g>
<!-- node10&#45;&gt;node11 -->
<g id="edge8" class="edge">
<title>node10&#45;&gt;node11</title>
<path fill="none" stroke="#3cb4a4" d="M96.27,-574.8C124.97,-559.26 166.76,-536.64 194.03,-521.87"/>
<polygon fill="#3cb4a4" stroke="#3cb4a4" points="195.91,-524.84 203.03,-517 192.57,-518.68 195.91,-524.84"/>
<text text-anchor="middle" x="156" y="-545.8" font-family="arial" font-size="14.00" fill="#3cb4a4">y</text>
</g>
<!-- node11&#45;&gt;node9 -->
<g id="edge3" class="edge">
<title>node11&#45;&gt;node9</title>
<path fill="none" stroke="#3cb4a4" d="M209.81,-492.09C198.48,-479.59 181.02,-460.32 167.01,-444.84"/>
<polygon fill="#3cb4a4" stroke="#3cb4a4" points="169.35,-442.21 160.04,-437.15 164.16,-446.91 169.35,-442.21"/>
<text text-anchor="middle" x="192.5" y="-458.8" font-family="arial" font-size="14.00" fill="#3cb4a4">?</text>
</g>
<!-- node17 -->
<g id="node11" class="node">
<title>node17</title>
<polygon fill="#e98693" stroke="black" points="138,-277 79,-277 79,-241 138,-241 138,-277"/>
<text text-anchor="middle" x="108.5" y="-255.3" font-family="Arial" font-size="14.00" fill="#1a1919">17 End</text>
</g>
<!-- node12&#45;&gt;node17 -->
<g id="edge9" class="edge">
<title>node12&#45;&gt;node17</title>
<path fill="none" stroke="#da2d4f" stroke-width="2" d="M102.44,-313.81C103.34,-305.79 104.44,-296.05 105.45,-287.07"/>
<polygon fill="#da2d4f" stroke="#da2d4f" stroke-width="2" points="108.94,-287.36 106.58,-277.03 101.98,-286.57 108.94,-287.36"/>
</g>
<!-- node15 -->
<g id="node9" class="node">
<title>node15</title>
<polygon fill="#e98693" stroke="black" points="216,-277 157,-277 157,-241 216,-241 216,-277"/>
<text text-anchor="middle" x="186.5" y="-255.3" font-family="Arial" font-size="14.00" fill="#1a1919">15 End</text>
</g>
<!-- node13&#45;&gt;node15 -->
<g id="edge10" class="edge">
<title>node13&#45;&gt;node15</title>
<path fill="none" stroke="#da2d4f" stroke-width="2" d="M188.02,-313.81C187.79,-305.79 187.52,-296.05 187.26,-287.07"/>
<polygon fill="#da2d4f" stroke="#da2d4f" stroke-width="2" points="190.76,-286.93 186.98,-277.03 183.76,-287.12 190.76,-286.93"/>
</g>
<!-- node14 -->
<g id="node8" class="node">
<title>node14</title>
<polygon fill="#e98693" stroke="black" points="183.5,-204 109.5,-204 109.5,-168 183.5,-168 183.5,-204"/>
<text text-anchor="middle" x="146.5" y="-182.3" font-family="Arial" font-size="14.00" fill="#1a1919">14 Merge</text>
</g>
<!-- node14&#45;&gt;node7 -->
<g id="edge13" class="edge">
<title>node14&#45;&gt;node7</title>
<path fill="none" stroke="#da2d4f" stroke-width="2" d="M148.77,-167.86C152.58,-139.16 160.27,-81.13 164.84,-46.61"/>
<polygon fill="#da2d4f" stroke="#da2d4f" stroke-width="2" points="168.36,-46.67 166.21,-36.3 161.42,-45.75 168.36,-46.67"/>
</g>
<!-- node16 -->
<g id="node10" class="node">
<title>node16</title>
<polygon fill="#f9f9f9" stroke="black" points="235.5,-123 181.5,-123 181.5,-87 235.5,-87 235.5,-123"/>
<text text-anchor="middle" x="208.5" y="-101.3" font-family="Arial" font-size="14.00" fill="#1a1919">16 ϕ</text>
</g>
<!-- node14&#45;&gt;node16 -->
<g id="edge14" class="edge">
<title>node14&#45;&gt;node16</title>
<path fill="none" stroke="#343d46" stroke-dasharray="5,2" d="M166.17,-159.94C175.59,-147.94 186.63,-133.87 195.07,-123.11"/>
<polygon fill="#343d46" stroke="#343d46" points="163.37,-157.83 159.95,-167.86 168.88,-162.15 163.37,-157.83"/>
</g>
<!-- node15&#45;&gt;node14 -->
<g id="edge11" class="edge">
<title>node15&#45;&gt;node14</title>
<path fill="none" stroke="#da2d4f" stroke-width="2" d="M176.82,-240.81C172.1,-232.44 166.33,-222.2 161.09,-212.9"/>
<polygon fill="#da2d4f" stroke="#da2d4f" stroke-width="2" points="164.05,-211.02 156.09,-204.03 157.95,-214.46 164.05,-211.02"/>
</g>
<!-- node16&#45;&gt;node7 -->
<g id="edge2" class="edge">
<title>node16&#45;&gt;node7</title>
<path fill="none" stroke="#3cb4a4" d="M200.41,-86.8C194.82,-74.93 187.29,-58.93 180.95,-45.45"/>
<polygon fill="#3cb4a4" stroke="#3cb4a4" points="184.01,-43.73 176.58,-36.18 177.67,-46.71 184.01,-43.73"/>
<text text-anchor="middle" x="227.5" y="-57.8" font-family="arial" font-size="14.00" fill="#3cb4a4">result [0 &#45; 1]</text>
</g>
<!-- node17&#45;&gt;node14 -->
<g id="edge12" class="edge">
<title>node17&#45;&gt;node14</title>
<path fill="none" stroke="#da2d4f" stroke-width="2" d="M117.7,-240.81C122.18,-232.44 127.66,-222.2 132.64,-212.9"/>
<polygon fill="#da2d4f" stroke="#da2d4f" stroke-width="2" points="135.75,-214.5 137.39,-204.03 129.58,-211.19 135.75,-214.5"/>
</g>
<!-- inline1x10 -->
<g id="node12" class="node">
<title>inline1x10</title>
<ellipse fill="#d7ede7" stroke="black" cx="64.5" cy="-674" rx="27" ry="18"/>
<text text-anchor="middle" x="64.5" y="-672.1" font-family="Arial" font-size="8.00" fill="#1a1919">1 P(0)</text>
</g>
<!-- inline1x10&#45;&gt;node10 -->
<g id="edge6" class="edge">
<title>inline1x10&#45;&gt;node10</title>
<path fill="none" stroke="#3cb4a4" d="M64.5,-655.86C64.5,-642.61 64.5,-624.35 64.5,-611.11"/>
<text text-anchor="middle" x="74" y="-631.6" font-family="arial" font-size="8.00" fill="#3cb4a4">value</text>
</g>
<!-- inline8x11 -->
<g id="node13" class="node">
<title>inline8x11</title>
<ellipse fill="#d7ede7" stroke="black" cx="284.5" cy="-593" rx="137.04" ry="18"/>
<text text-anchor="middle" x="284.5" y="-591.1" font-family="Arial" font-size="8.00" fill="#1a1919">8 C(meta{HotSpotType&lt;LJavaExamples$OneImpl;, resolved&gt;})</text>
</g>
<!-- inline8x11&#45;&gt;node11 -->
<g id="edge7" class="edge">
<title>inline8x11&#45;&gt;node11</title>
<path fill="none" stroke="#3cb4a4" d="M271.75,-574.8C259.81,-558.69 242.23,-534.97 231.34,-520.28"/>
<text text-anchor="middle" x="258.5" y="-547.6" font-family="arial" font-size="8.00" fill="#3cb4a4">x</text>
</g>
<!-- inline5x16 -->
<g id="node14" class="node">
<title>inline5x16</title>
<ellipse fill="#d7ede7" stroke="black" cx="228.5" cy="-186" rx="27" ry="18"/>
<text text-anchor="middle" x="228.5" y="-184.1" font-family="Arial" font-size="8.00" fill="#1a1919">5 C(0)</text>
</g>
<!-- inline5x16&#45;&gt;node16 -->
<g id="edge15" class="edge">
<title>inline5x16&#45;&gt;node16</title>
<path fill="none" stroke="#3cb4a4" d="M224.16,-167.86C220.81,-154.61 216.18,-136.35 212.83,-123.11"/>
<text text-anchor="middle" x="233.5" y="-143.6" font-family="arial" font-size="8.00" fill="#3cb4a4">from 15</text>
</g>
<!-- inline4x16 -->
<g id="node15" class="node">
<title>inline4x16</title>
<ellipse fill="#d7ede7" stroke="black" cx="300.5" cy="-186" rx="27" ry="18"/>
<text text-anchor="middle" x="300.5" y="-184.1" font-family="Arial" font-size="8.00" fill="#1a1919">4 C(1)</text>
</g>
<!-- inline4x16&#45;&gt;node16 -->
<g id="edge16" class="edge">
<title>inline4x16&#45;&gt;node16</title>
<path fill="none" stroke="#3cb4a4" d="M285.22,-170.93C275.64,-162.2 262.97,-150.81 251.5,-141 244.62,-135.12 237,-128.84 230.1,-123.24"/>
<text text-anchor="middle" x="274.5" y="-143.6" font-family="arial" font-size="8.00" fill="#3cb4a4">from 17</text>
</g>
</g>
</svg>
