<?xml version="1.0" encoding="UTF-8" standalone="no"?>
<!DOCTYPE svg PUBLIC "-//W3C//DTD SVG 1.1//EN"
 "http://www.w3.org/Graphics/SVG/1.1/DTD/svg11.dtd">
<!-- Generated by graphviz version 2.44.0 (20200408.0750)
 -->
<!-- Title: G Pages: 1 -->
<svg width="628pt" height="560pt"
 viewBox="0.00 0.00 627.50 560.00" xmlns="http://www.w3.org/2000/svg" xmlns:xlink="http://www.w3.org/1999/xlink">
<g id="graph0" class="graph" transform="scale(1 1) rotate(0) translate(4 556)">
<title>G</title>
<!-- node0 -->
<g id="node1" class="node">
<title>node0</title>
<polygon fill="#e98693" stroke="black" points="134.5,-471 78.5,-471 78.5,-435 134.5,-435 134.5,-471"/>
<text text-anchor="middle" x="106.5" y="-449.3" font-family="Arial" font-size="14.00" fill="#1a1919">0 Start</text>
</g>
<!-- node4 -->
<g id="node3" class="node">
<title>node4</title>
<polygon fill="#ffa500" stroke="black" points="245,-384 0,-384 0,-348 245,-348 245,-384"/>
<text text-anchor="middle" x="122.5" y="-362.3" font-family="Arial" font-size="14.00" fill="#1a1919">4 Guard not, else NullCheckException</text>
</g>
<!-- node0&#45;&gt;node4 -->
<g id="edge1" class="edge">
<title>node0&#45;&gt;node4</title>
<path fill="none" stroke="#da2d4f" stroke-width="2" d="M109.74,-434.8C111.93,-423.16 114.87,-407.55 117.37,-394.24"/>
<polygon fill="#da2d4f" stroke="#da2d4f" stroke-width="2" points="120.86,-394.65 119.27,-384.18 113.98,-393.36 120.86,-394.65"/>
</g>
<!-- node3 -->
<g id="node2" class="node">
<title>node3</title>
<polygon fill="#3cb4a4" stroke="black" points="209.5,-471 152.52,-453 209.5,-435 266.48,-453 209.5,-471"/>
<text text-anchor="middle" x="209.5" y="-449.3" font-family="Arial" font-size="14.00" fill="#1a1919">3 IsNull</text>
</g>
<!-- node3&#45;&gt;node4 -->
<g id="edge3" class="edge">
<title>node3&#45;&gt;node4</title>
<path fill="none" stroke="#3cb4a4" d="M196.29,-439.09C183.38,-426.48 163.4,-406.96 147.49,-391.42"/>
<polygon fill="#3cb4a4" stroke="#3cb4a4" points="149.66,-388.64 140.06,-384.15 144.76,-393.64 149.66,-388.64"/>
<text text-anchor="middle" x="174.5" y="-405.8" font-family="arial" font-size="14.00" fill="#3cb4a4">?</text>
</g>
<!-- node5 -->
<g id="node4" class="node">
<title>node5</title>
<polygon fill="#f9f9f9" stroke="black" points="324.5,-297 270.5,-297 270.5,-261 324.5,-261 324.5,-297"/>
<text text-anchor="middle" x="297.5" y="-275.3" font-family="Arial" font-size="14.00" fill="#1a1919">5 π</text>
</g>
<!-- node4&#45;&gt;node5 -->
<g id="edge5" class="edge">
<title>node4&#45;&gt;node5</title>
<path fill="none" stroke="#3cb4a4" d="M157.91,-347.8C187.92,-333.22 230.79,-312.4 261.08,-297.69"/>
<polygon fill="#3cb4a4" stroke="#3cb4a4" points="262.98,-300.66 270.44,-293.14 259.92,-294.36 262.98,-300.66"/>
<text text-anchor="middle" x="237" y="-318.8" font-family="arial" font-size="14.00" fill="#3cb4a4">guard</text>
</g>
<!-- node10 -->
<g id="node7" class="node">
<title>node10</title>
<polygon fill="#e98693" stroke="black" points="161.5,-36 85.5,-36 85.5,0 161.5,0 161.5,-36"/>
<text text-anchor="middle" x="123.5" y="-14.3" font-family="Arial" font-size="14.00" fill="#1a1919">10 Return</text>
</g>
<!-- node4&#45;&gt;node10 -->
<g id="edge4" class="edge">
<title>node4&#45;&gt;node10</title>
<path fill="none" stroke="#da2d4f" stroke-width="2" d="M117.67,-347.9C113.29,-330.85 107.5,-303.83 107.5,-280 107.5,-280 107.5,-280 107.5,-104 107.5,-84.41 111.65,-62.72 115.73,-46.15"/>
<polygon fill="#da2d4f" stroke="#da2d4f" stroke-width="2" points="119.22,-46.64 118.35,-36.08 112.44,-44.88 119.22,-46.64"/>
</g>
<!-- node6 -->
<g id="node5" class="node">
<title>node6</title>
<polygon fill="#f9f9f9" stroke="black" points="475,-210 136,-210 136,-174 475,-174 475,-210"/>
<text text-anchor="middle" x="305.5" y="-188.3" font-family="Arial" font-size="14.00" fill="#1a1919">6 InstanceOf a! LJavaExamples$InterfaceManyImpls;</text>
</g>
<!-- node5&#45;&gt;node6 -->
<g id="edge7" class="edge">
<title>node5&#45;&gt;node6</title>
<path fill="none" stroke="#3cb4a4" d="M299.12,-260.8C300.21,-249.16 301.68,-233.55 302.94,-220.24"/>
<polygon fill="#3cb4a4" stroke="#3cb4a4" points="306.43,-220.46 303.88,-210.18 299.46,-219.8 306.43,-220.46"/>
<text text-anchor="middle" x="318" y="-231.8" font-family="arial" font-size="14.00" fill="#3cb4a4">value</text>
</g>
<!-- node9 -->
<g id="node6" class="node">
<title>node9</title>
<polygon fill="#3cb4a4" stroke="black" points="459.5,-123 372.36,-105 459.5,-87 546.64,-105 459.5,-123"/>
<text text-anchor="middle" x="459.5" y="-101.3" font-family="Arial" font-size="14.00" fill="#1a1919">9 Conditional</text>
</g>
<!-- node6&#45;&gt;node9 -->
<g id="edge8" class="edge">
<title>node6&#45;&gt;node9</title>
<path fill="none" stroke="#3cb4a4" d="M336.66,-173.8C363.24,-159.13 401.26,-138.14 427.95,-123.42"/>
<polygon fill="#3cb4a4" stroke="#3cb4a4" points="429.81,-126.38 436.88,-118.49 426.43,-120.26 429.81,-126.38"/>
<text text-anchor="middle" x="395.5" y="-144.8" font-family="arial" font-size="14.00" fill="#3cb4a4">?</text>
</g>
<!-- node9&#45;&gt;node10 -->
<g id="edge11" class="edge">
<title>node9&#45;&gt;node10</title>
<path fill="none" stroke="#3cb4a4" d="M422.26,-94.58C361.07,-79.1 239.32,-48.3 171.66,-31.18"/>
<polygon fill="#3cb4a4" stroke="#3cb4a4" points="172.23,-27.72 161.68,-28.66 170.52,-34.5 172.23,-27.72"/>
<text text-anchor="middle" x="347.5" y="-57.8" font-family="arial" font-size="14.00" fill="#3cb4a4">result [0 &#45; 1]</text>
</g>
<!-- inline1x3 -->
<g id="node8" class="node">
<title>inline1x3</title>
<ellipse fill="#d7ede7" stroke="black" cx="209.5" cy="-534" rx="27" ry="18"/>
<text text-anchor="middle" x="209.5" y="-532.1" font-family="Arial" font-size="8.00" fill="#1a1919">1 P(0)</text>
</g>
<!-- inline1x3&#45;&gt;node3 -->
<g id="edge2" class="edge">
<title>inline1x3&#45;&gt;node3</title>
<path fill="none" stroke="#3cb4a4" d="M209.5,-515.86C209.5,-502.61 209.5,-484.35 209.5,-471.11"/>
<text text-anchor="middle" x="219" y="-491.6" font-family="arial" font-size="8.00" fill="#3cb4a4">value</text>
</g>
<!-- inline1x5 -->
<g id="node9" class="node">
<title>inline1x5</title>
<ellipse fill="#d7ede7" stroke="black" cx="297.5" cy="-366" rx="27" ry="18"/>
<text text-anchor="middle" x="297.5" y="-364.1" font-family="Arial" font-size="8.00" fill="#1a1919">1 P(0)</text>
</g>
<!-- inline1x5&#45;&gt;node5 -->
<g id="edge6" class="edge">
<title>inline1x5&#45;&gt;node5</title>
<path fill="none" stroke="#3cb4a4" d="M297.5,-347.8C297.5,-333.05 297.5,-311.92 297.5,-297.18"/>
<text text-anchor="middle" x="308.5" y="-320.6" font-family="arial" font-size="8.00" fill="#3cb4a4">object</text>
</g>
<!-- inline7x9 -->
<g id="node10" class="node">
<title>inline7x9</title>
<ellipse fill="#d7ede7" stroke="black" cx="520.5" cy="-192" rx="27" ry="18"/>
<text text-anchor="middle" x="520.5" y="-190.1" font-family="Arial" font-size="8.00" fill="#1a1919">7 C(1)</text>
</g>
<!-- inline7x9&#45;&gt;node9 -->
<g id="edge9" class="edge">
<title>inline7x9&#45;&gt;node9</title>
<path fill="none" stroke="#3cb4a4" d="M509.31,-175.41C498.17,-159.88 481.18,-136.21 470.21,-120.92"/>
<text text-anchor="middle" x="510.5" y="-146.6" font-family="arial" font-size="8.00" fill="#3cb4a4">trueValue</text>
</g>
<!-- inline8x9 -->
<g id="node11" class="node">
<title>inline8x9</title>
<ellipse fill="#d7ede7" stroke="black" cx="592.5" cy="-192" rx="27" ry="18"/>
<text text-anchor="middle" x="592.5" y="-190.1" font-family="Arial" font-size="8.00" fill="#1a1919">8 C(0)</text>
</g>
<!-- inline8x9&#45;&gt;node9 -->
<g id="edge10" class="edge">
<title>inline8x9&#45;&gt;node9</title>
<path fill="none" stroke="#3cb4a4" d="M577.22,-176.77C565.33,-166.12 548.11,-151.63 531.5,-141 517.45,-132.01 500.76,-123.75 486.98,-117.52"/>
<text text-anchor="middle" x="569" y="-146.6" font-family="arial" font-size="8.00" fill="#3cb4a4">falseValue</text>
</g>
</g>
</svg>
