<?xml version="1.0" encoding="UTF-8" standalone="no"?>
<!DOCTYPE svg PUBLIC "-//W3C//DTD SVG 1.1//EN"
 "http://www.w3.org/Graphics/SVG/1.1/DTD/svg11.dtd">
<!-- Generated by graphviz version 2.44.0 (20200408.0750)
 -->
<!-- Title: G Pages: 1 -->
<svg width="480pt" height="728pt"
 viewBox="0.00 0.00 479.50 728.00" xmlns="http://www.w3.org/2000/svg" xmlns:xlink="http://www.w3.org/1999/xlink">
<g id="graph0" class="graph" transform="scale(1 1) rotate(0) translate(4 724)">
<title>G</title>
<!-- node0 -->
<g id="node1" class="node">
<title>node0</title>
<polygon fill="#e98693" stroke="black" points="332.5,-639 276.5,-639 276.5,-603 332.5,-603 332.5,-639"/>
<text text-anchor="middle" x="304.5" y="-617.3" font-family="Arial" font-size="14.00" fill="#1a1919">0 Start</text>
</g>
<!-- node12 -->
<g id="node5" class="node">
<title>node12</title>
<polygon fill="#e98693" stroke="black" points="347.5,-552 293.5,-552 293.5,-516 347.5,-516 347.5,-552"/>
<text text-anchor="middle" x="320.5" y="-530.3" font-family="Arial" font-size="14.00" fill="#1a1919">12 If</text>
</g>
<!-- node0&#45;&gt;node12 -->
<g id="edge1" class="edge">
<title>node0&#45;&gt;node12</title>
<path fill="none" stroke="#da2d4f" stroke-width="2" d="M307.74,-602.8C309.93,-591.16 312.87,-575.55 315.37,-562.24"/>
<polygon fill="#da2d4f" stroke="#da2d4f" stroke-width="2" points="318.86,-562.65 317.27,-552.18 311.98,-561.36 318.86,-562.65"/>
</g>
<!-- node9 -->
<g id="node2" class="node">
<title>node9</title>
<polygon fill="#3cb4a4" stroke="black" points="390.5,-639 350.11,-621 390.5,-603 430.89,-621 390.5,-639"/>
<text text-anchor="middle" x="390.5" y="-617.3" font-family="Arial" font-size="14.00" fill="#1a1919">9 ==</text>
</g>
<!-- node9&#45;&gt;node12 -->
<g id="edge6" class="edge">
<title>node9&#45;&gt;node12</title>
<path fill="none" stroke="#3cb4a4" d="M380.17,-607.46C369.94,-595.03 353.98,-575.65 341.14,-560.06"/>
<polygon fill="#3cb4a4" stroke="#3cb4a4" points="343.81,-557.8 334.76,-552.31 338.41,-562.25 343.81,-557.8"/>
<text text-anchor="middle" x="364.5" y="-573.8" font-family="arial" font-size="14.00" fill="#3cb4a4">?</text>
</g>
<!-- node10 -->
<g id="node3" class="node">
<title>node10</title>
<polygon fill="#e98693" stroke="black" points="311.5,-465 241.5,-465 241.5,-429 311.5,-429 311.5,-465"/>
<text text-anchor="middle" x="276.5" y="-443.3" font-family="Arial" font-size="14.00" fill="#1a1919">10 Begin</text>
</g>
<!-- node20 -->
<g id="node11" class="node">
<title>node20</title>
<polygon fill="#da2d4f" stroke="black" points="221.5,-378 157.5,-378 157.5,-342 221.5,-342 221.5,-378"/>
<text text-anchor="middle" x="189.5" y="-356.3" font-family="Arial" font-size="14.00" fill="#ffffff">20 Alloc</text>
</g>
<!-- node10&#45;&gt;node20 -->
<g id="edge4" class="edge">
<title>node10&#45;&gt;node20</title>
<path fill="none" stroke="#da2d4f" stroke-width="2" d="M258.89,-428.8C246.16,-416.36 228.77,-399.36 214.58,-385.5"/>
<polygon fill="#da2d4f" stroke="#da2d4f" stroke-width="2" points="216.68,-382.66 207.08,-378.18 211.79,-387.67 216.68,-382.66"/>
</g>
<!-- node11 -->
<g id="node4" class="node">
<title>node11</title>
<polygon fill="#e98693" stroke="black" points="399,-465 330,-465 330,-429 399,-429 399,-465"/>
<text text-anchor="middle" x="364.5" y="-443.3" font-family="Arial" font-size="14.00" fill="#1a1919">11 Begin</text>
</g>
<!-- node18 -->
<g id="node9" class="node">
<title>node18</title>
<polygon fill="#e98693" stroke="black" points="462.5,-378 386.5,-378 386.5,-342 462.5,-342 462.5,-378"/>
<text text-anchor="middle" x="424.5" y="-356.3" font-family="Arial" font-size="14.00" fill="#1a1919">18 Return</text>
</g>
<!-- node11&#45;&gt;node18 -->
<g id="edge5" class="edge">
<title>node11&#45;&gt;node18</title>
<path fill="none" stroke="#da2d4f" stroke-width="2" d="M376.64,-428.8C385.18,-416.7 396.76,-400.3 406.38,-386.67"/>
<polygon fill="#da2d4f" stroke="#da2d4f" stroke-width="2" points="409.47,-388.36 412.38,-378.18 403.75,-384.33 409.47,-388.36"/>
</g>
<!-- node12&#45;&gt;node10 -->
<g id="edge8" class="edge">
<title>node12&#45;&gt;node10</title>
<path fill="none" stroke="#da2d4f" stroke-width="2" d="M311.6,-515.8C305.39,-503.82 297.01,-487.62 289.99,-474.06"/>
<polygon fill="#da2d4f" stroke="#da2d4f" stroke-width="2" points="293.1,-472.45 285.39,-465.18 286.88,-475.67 293.1,-472.45"/>
<text text-anchor="middle" x="306" y="-486.8" font-family="arial" font-size="14.00" fill="#da2d4f">F</text>
</g>
<!-- node12&#45;&gt;node11 -->
<g id="edge7" class="edge">
<title>node12&#45;&gt;node11</title>
<path fill="none" stroke="#da2d4f" stroke-width="2" d="M329.4,-515.8C335.61,-503.82 343.99,-487.62 351.01,-474.06"/>
<polygon fill="#da2d4f" stroke="#da2d4f" stroke-width="2" points="354.12,-475.67 355.61,-465.18 347.9,-472.45 354.12,-475.67"/>
<text text-anchor="middle" x="350" y="-486.8" font-family="arial" font-size="14.00" fill="#da2d4f">T</text>
</g>
<!-- node13 -->
<g id="node6" class="node">
<title>node13</title>
<polygon fill="#da2d4f" stroke="black" points="318.5,-204 60.5,-204 60.5,-168 318.5,-168 318.5,-204"/>
<text text-anchor="middle" x="189.5" y="-182.3" font-family="Arial" font-size="14.00" fill="#ffffff">13 StoreField JavaExamples.objectField</text>
</g>
<!-- node15 -->
<g id="node7" class="node">
<title>node15</title>
<polygon fill="#da2d4f" stroke="black" points="246,-123 133,-123 133,-87 246,-87 246,-123"/>
<text text-anchor="middle" x="189.5" y="-101.3" font-family="Arial" font-size="14.00" fill="#ffffff">15 LoadIndexed</text>
</g>
<!-- node13&#45;&gt;node15 -->
<g id="edge10" class="edge">
<title>node13&#45;&gt;node15</title>
<path fill="none" stroke="#da2d4f" stroke-width="2" d="M189.5,-167.86C189.5,-157.71 189.5,-144.63 189.5,-133.12"/>
<polygon fill="#da2d4f" stroke="#da2d4f" stroke-width="2" points="193,-133.11 189.5,-123.11 186,-133.11 193,-133.11"/>
</g>
<!-- node16 -->
<g id="node8" class="node">
<title>node16</title>
<polygon fill="#e98693" stroke="black" points="227.5,-36 151.5,-36 151.5,0 227.5,0 227.5,-36"/>
<text text-anchor="middle" x="189.5" y="-14.3" font-family="Arial" font-size="14.00" fill="#1a1919">16 Return</text>
</g>
<!-- node15&#45;&gt;node16 -->
<g id="edge13" class="edge">
<title>node15&#45;&gt;node16</title>
<path fill="none" stroke="#da2d4f" stroke-width="2" d="M188.33,-86.92C187.99,-81.22 187.67,-74.84 187.5,-69 187.29,-61.65 187.44,-53.69 187.73,-46.33"/>
<polygon fill="#da2d4f" stroke="#da2d4f" stroke-width="2" points="191.24,-46.28 188.23,-36.12 184.24,-45.94 191.24,-46.28"/>
</g>
<!-- node15&#45;&gt;node16 -->
<g id="edge14" class="edge">
<title>node15&#45;&gt;node16</title>
<path fill="none" stroke="#3cb4a4" d="M189.5,-86.8C189.5,-75.16 189.5,-59.55 189.5,-46.24"/>
<polygon fill="#3cb4a4" stroke="#3cb4a4" points="193,-46.18 189.5,-36.18 186,-46.18 193,-46.18"/>
<text text-anchor="middle" x="206.5" y="-57.8" font-family="arial" font-size="14.00" fill="#3cb4a4">result</text>
</g>
<!-- node19 -->
<g id="node10" class="node">
<title>node19</title>
<polygon fill="#343d46" stroke="black" points="139,-465 0,-465 0,-429 139,-429 139,-465"/>
<text text-anchor="middle" x="69.5" y="-443.3" font-family="Arial" font-size="14.00" fill="#ffffff">19 VirtualArray int[1]</text>
</g>
<!-- node19&#45;&gt;node20 -->
<g id="edge16" class="edge">
<title>node19&#45;&gt;node20</title>
<path fill="none" stroke="#3cb4a4" d="M78.95,-428.85C85.52,-418.23 95.13,-404.94 106.5,-396 113.55,-390.45 130.96,-382.85 148.02,-376.14"/>
<polygon fill="#3cb4a4" stroke="#3cb4a4" points="149.32,-379.39 157.4,-372.53 146.81,-372.86 149.32,-379.39"/>
<text text-anchor="middle" x="148" y="-399.8" font-family="arial" font-size="14.00" fill="#3cb4a4">virtualObjects</text>
</g>
<!-- node21 -->
<g id="node12" class="node">
<title>node21</title>
<polygon fill="#343d46" stroke="black" points="138.5,-291 8.5,-291 8.5,-255 138.5,-255 138.5,-291"/>
<text text-anchor="middle" x="73.5" y="-269.3" font-family="Arial" font-size="14.00" fill="#ffffff">21 AllocatedObject</text>
</g>
<!-- node19&#45;&gt;node21 -->
<g id="edge19" class="edge">
<title>node19&#45;&gt;node21</title>
<path fill="none" stroke="#3cb4a4" d="M69.9,-428.88C70.59,-399 72.03,-337.11 72.87,-301.27"/>
<polygon fill="#3cb4a4" stroke="#3cb4a4" points="76.37,-301.13 73.1,-291.05 69.37,-300.97 76.37,-301.13"/>
<text text-anchor="middle" x="110.5" y="-356.3" font-family="arial" font-size="14.00" fill="#3cb4a4">virtualObject</text>
</g>
<!-- node20&#45;&gt;node13 -->
<g id="edge18" class="edge">
<title>node20&#45;&gt;node13</title>
<path fill="none" stroke="#da2d4f" stroke-width="2" d="M189.5,-341.88C189.5,-312 189.5,-250.11 189.5,-214.27"/>
<polygon fill="#da2d4f" stroke="#da2d4f" stroke-width="2" points="193,-214.05 189.5,-204.05 186,-214.05 193,-214.05"/>
</g>
<!-- node20&#45;&gt;node21 -->
<g id="edge20" class="edge">
<title>node20&#45;&gt;node21</title>
<path fill="none" stroke="#3cb4a4" d="M157.61,-341.98C148.3,-336.6 138.28,-330.38 129.5,-324 118.79,-316.22 107.77,-306.74 98.36,-298.14"/>
<polygon fill="#3cb4a4" stroke="#3cb4a4" points="100.59,-295.43 90.88,-291.17 95.82,-300.55 100.59,-295.43"/>
<text text-anchor="middle" x="152.5" y="-312.8" font-family="arial" font-size="14.00" fill="#3cb4a4">commit</text>
</g>
<!-- node21&#45;&gt;node13 -->
<g id="edge9" class="edge">
<title>node21&#45;&gt;node13</title>
<path fill="none" stroke="#3cb4a4" d="M96.97,-254.8C114.51,-241.95 138.65,-224.26 157.88,-210.17"/>
<polygon fill="#3cb4a4" stroke="#3cb4a4" points="160.06,-212.91 166.06,-204.18 155.93,-207.26 160.06,-212.91"/>
<text text-anchor="middle" x="155" y="-225.8" font-family="arial" font-size="14.00" fill="#3cb4a4">value</text>
</g>
<!-- node21&#45;&gt;node15 -->
<g id="edge11" class="edge">
<title>node21&#45;&gt;node15</title>
<path fill="none" stroke="#3cb4a4" d="M53.68,-254.99C31.33,-233.7 0.54,-196.58 20.5,-168 43.48,-135.09 85.93,-119.6 122.54,-112.33"/>
<polygon fill="#3cb4a4" stroke="#3cb4a4" points="123.48,-115.72 132.69,-110.49 122.23,-108.83 123.48,-115.72"/>
<text text-anchor="middle" x="36" y="-182.3" font-family="arial" font-size="14.00" fill="#3cb4a4">array</text>
</g>
<!-- inline1x9 -->
<g id="node13" class="node">
<title>inline1x9</title>
<ellipse fill="#d7ede7" stroke="black" cx="354.5" cy="-702" rx="27" ry="18"/>
<text text-anchor="middle" x="354.5" y="-700.1" font-family="Arial" font-size="8.00" fill="#1a1919">1 P(0)</text>
</g>
<!-- inline1x9&#45;&gt;node9 -->
<g id="edge2" class="edge">
<title>inline1x9&#45;&gt;node9</title>
<path fill="none" stroke="#3cb4a4" d="M361.96,-684.63C368.47,-670.35 377.81,-649.84 384.02,-636.23"/>
<text text-anchor="middle" x="376.5" y="-659.6" font-family="arial" font-size="8.00" fill="#3cb4a4">x</text>
</g>
<!-- inline6x9 -->
<g id="node14" class="node">
<title>inline6x9</title>
<ellipse fill="#d7ede7" stroke="black" cx="426.5" cy="-702" rx="27" ry="18"/>
<text text-anchor="middle" x="426.5" y="-700.1" font-family="Arial" font-size="8.00" fill="#1a1919">6 C(0)</text>
</g>
<!-- inline6x9&#45;&gt;node9 -->
<g id="edge3" class="edge">
<title>inline6x9&#45;&gt;node9</title>
<path fill="none" stroke="#3cb4a4" d="M419.04,-684.63C412.53,-670.35 403.19,-649.84 396.98,-636.23"/>
<text text-anchor="middle" x="411.5" y="-659.6" font-family="arial" font-size="8.00" fill="#3cb4a4">y</text>
</g>
<!-- inline6x15 -->
<g id="node15" class="node">
<title>inline6x15</title>
<ellipse fill="#d7ede7" stroke="black" cx="363.5" cy="-186" rx="27" ry="18"/>
<text text-anchor="middle" x="363.5" y="-184.1" font-family="Arial" font-size="8.00" fill="#1a1919">6 C(0)</text>
</g>
<!-- inline6x15&#45;&gt;node15 -->
<g id="edge12" class="edge">
<title>inline6x15&#45;&gt;node15</title>
<path fill="none" stroke="#3cb4a4" d="M342.21,-174.87C337.38,-172.59 332.27,-170.2 327.5,-168 293.98,-152.56 255.69,-135.39 227.96,-123.04"/>
<text text-anchor="middle" x="296" y="-143.6" font-family="arial" font-size="8.00" fill="#3cb4a4">index</text>
</g>
<!-- inline2x18 -->
<g id="node16" class="node">
<title>inline2x18</title>
<ellipse fill="#d7ede7" stroke="black" cx="444.5" cy="-447" rx="27" ry="18"/>
<text text-anchor="middle" x="444.5" y="-445.1" font-family="Arial" font-size="8.00" fill="#1a1919">2 P(1)</text>
</g>
<!-- inline2x18&#45;&gt;node18 -->
<g id="edge15" class="edge">
<title>inline2x18&#45;&gt;node18</title>
<path fill="none" stroke="#3cb4a4" d="M440.45,-428.8C436.98,-414.05 432.01,-392.92 428.54,-378.18"/>
<text text-anchor="middle" x="445.5" y="-401.6" font-family="arial" font-size="8.00" fill="#3cb4a4">result</text>
</g>
<!-- inline2x20 -->
<g id="node17" class="node">
<title>inline2x20</title>
<ellipse fill="#d7ede7" stroke="black" cx="196.5" cy="-447" rx="27" ry="18"/>
<text text-anchor="middle" x="196.5" y="-445.1" font-family="Arial" font-size="8.00" fill="#1a1919">2 P(1)</text>
</g>
<!-- inline2x20&#45;&gt;node20 -->
<g id="edge17" class="edge">
<title>inline2x20&#45;&gt;node20</title>
<path fill="none" stroke="#3cb4a4" d="M195.08,-428.8C193.87,-414.05 192.13,-392.92 190.91,-378.18"/>
<text text-anchor="middle" x="205" y="-401.6" font-family="arial" font-size="8.00" fill="#3cb4a4">values</text>
</g>
</g>
</svg>
