<?xml version="1.0" encoding="UTF-8" standalone="no"?>
<!DOCTYPE svg PUBLIC "-//W3C//DTD SVG 1.1//EN"
 "http://www.w3.org/Graphics/SVG/1.1/DTD/svg11.dtd">
<!-- Generated by graphviz version 2.44.0 (20200408.0750)
 -->
<!-- Title: G Pages: 1 -->
<svg width="418pt" height="552pt"
 viewBox="0.00 0.00 417.50 552.00" xmlns="http://www.w3.org/2000/svg" xmlns:xlink="http://www.w3.org/1999/xlink">
<g id="graph0" class="graph" transform="scale(1 1) rotate(0) translate(4 548)">
<title>G</title>
<!-- node0 -->
<g id="node1" class="node">
<title>node0</title>
<polygon fill="#e98693" stroke="black" points="202.5,-544 146.5,-544 146.5,-508 202.5,-508 202.5,-544"/>
<text text-anchor="middle" x="174.5" y="-522.3" font-family="Arial" font-size="14.00" fill="#1a1919">0 Start</text>
</g>
<!-- node7 -->
<g id="node5" class="node">
<title>node7</title>
<polygon fill="#f9f9f9" stroke="black" points="409.5,-457 163.5,-457 163.5,-421 409.5,-421 409.5,-457"/>
<text text-anchor="middle" x="286.5" y="-435.3" font-family="Arial" font-size="14.00" fill="#1a1919">7 InstanceOf JavaExamples$OneImpl</text>
</g>
<!-- node0&#45;&gt;node7 -->
<g id="edge7" class="edge">
<title>node0&#45;&gt;node7</title>
<path fill="none" stroke="#3cb4a4" d="M197.16,-507.8C214.02,-495.01 237.2,-477.42 255.72,-463.36"/>
<polygon fill="#3cb4a4" stroke="#3cb4a4" points="258.02,-466.01 263.87,-457.18 253.79,-460.43 258.02,-466.01"/>
<text text-anchor="middle" x="258.5" y="-478.8" font-family="arial" font-size="14.00" fill="#3cb4a4">anchor</text>
</g>
<!-- node8 -->
<g id="node6" class="node">
<title>node8</title>
<polygon fill="#ffa500" stroke="black" points="303,-370 0,-370 0,-334 303,-334 303,-370"/>
<text text-anchor="middle" x="151.5" y="-348.3" font-family="Arial" font-size="14.00" fill="#1a1919">8 Guard not, else OptimizedTypeCheckViolated</text>
</g>
<!-- node0&#45;&gt;node8 -->
<g id="edge1" class="edge">
<title>node0&#45;&gt;node8</title>
<path fill="none" stroke="#da2d4f" stroke-width="2" d="M168.16,-507.95C163.43,-494.37 157.32,-474.74 154.5,-457 150.4,-431.17 149.98,-401.3 150.38,-380.21"/>
<polygon fill="#da2d4f" stroke="#da2d4f" stroke-width="2" points="153.89,-380.15 150.66,-370.06 146.89,-379.96 153.89,-380.15"/>
</g>
<!-- node3 -->
<g id="node2" class="node">
<title>node3</title>
<polygon fill="#f9f9f9" stroke="black" points="313.5,-196 179.5,-196 179.5,-160 313.5,-160 313.5,-196"/>
<text text-anchor="middle" x="246.5" y="-174.3" font-family="Arial" font-size="14.00" fill="#1a1919">3 MethodCallTarget</text>
</g>
<!-- node4 -->
<g id="node3" class="node">
<title>node4</title>
<polygon fill="#da2d4f" stroke="black" points="304.5,-123 22.5,-123 22.5,-87 304.5,-87 304.5,-123"/>
<text text-anchor="middle" x="163.5" y="-101.3" font-family="Arial" font-size="14.00" fill="#ffffff">4 Call JavaExamples$OneImpl.interfaceCall</text>
</g>
<!-- node3&#45;&gt;node4 -->
<g id="edge3" class="edge">
<title>node3&#45;&gt;node4</title>
<path fill="none" stroke="#343d46" stroke-dasharray="5,2" d="M218.71,-153.23C207.14,-143.33 193.98,-132.07 183.41,-123.03"/>
<polygon fill="#343d46" stroke="#343d46" points="216.53,-155.97 226.41,-159.81 221.08,-150.65 216.53,-155.97"/>
</g>
<!-- node6 -->
<g id="node4" class="node">
<title>node6</title>
<polygon fill="#e98693" stroke="black" points="197.5,-36 129.5,-36 129.5,0 197.5,0 197.5,-36"/>
<text text-anchor="middle" x="163.5" y="-14.3" font-family="Arial" font-size="14.00" fill="#1a1919">6 Return</text>
</g>
<!-- node4&#45;&gt;node6 -->
<g id="edge4" class="edge">
<title>node4&#45;&gt;node6</title>
<path fill="none" stroke="#da2d4f" stroke-width="2" d="M162.33,-86.92C161.99,-81.22 161.67,-74.84 161.5,-69 161.29,-61.65 161.44,-53.69 161.73,-46.33"/>
<polygon fill="#da2d4f" stroke="#da2d4f" stroke-width="2" points="165.24,-46.28 162.23,-36.12 158.24,-45.94 165.24,-46.28"/>
</g>
<!-- node4&#45;&gt;node6 -->
<g id="edge5" class="edge">
<title>node4&#45;&gt;node6</title>
<path fill="none" stroke="#3cb4a4" d="M163.5,-86.8C163.5,-75.16 163.5,-59.55 163.5,-46.24"/>
<polygon fill="#3cb4a4" stroke="#3cb4a4" points="167,-46.18 163.5,-36.18 160,-46.18 167,-46.18"/>
<text text-anchor="middle" x="180.5" y="-57.8" font-family="arial" font-size="14.00" fill="#3cb4a4">result</text>
</g>
<!-- node7&#45;&gt;node8 -->
<g id="edge8" class="edge">
<title>node7&#45;&gt;node8</title>
<path fill="none" stroke="#3cb4a4" d="M259.18,-420.8C238.5,-407.78 209.92,-389.78 187.39,-375.6"/>
<polygon fill="#3cb4a4" stroke="#3cb4a4" points="189.11,-372.54 178.78,-370.18 185.38,-378.47 189.11,-372.54"/>
<text text-anchor="middle" x="231.5" y="-391.8" font-family="arial" font-size="14.00" fill="#3cb4a4">?</text>
</g>
<!-- node8&#45;&gt;node4 -->
<g id="edge9" class="edge">
<title>node8&#45;&gt;node4</title>
<path fill="none" stroke="#da2d4f" stroke-width="2" d="M152.34,-333.77C154.4,-291.86 159.66,-184.31 162.16,-133.44"/>
<polygon fill="#da2d4f" stroke="#da2d4f" stroke-width="2" points="165.66,-133.37 162.66,-123.21 158.67,-133.03 165.66,-133.37"/>
</g>
<!-- node9 -->
<g id="node7" class="node">
<title>node9</title>
<polygon fill="#f9f9f9" stroke="black" points="273.5,-283 219.5,-283 219.5,-247 273.5,-247 273.5,-283"/>
<text text-anchor="middle" x="246.5" y="-261.3" font-family="Arial" font-size="14.00" fill="#1a1919">9 π</text>
</g>
<!-- node8&#45;&gt;node9 -->
<g id="edge10" class="edge">
<title>node8&#45;&gt;node9</title>
<path fill="none" stroke="#3cb4a4" d="M170.72,-333.8C184.76,-321.24 203.97,-304.05 219.54,-290.12"/>
<polygon fill="#3cb4a4" stroke="#3cb4a4" points="222.19,-292.45 227.3,-283.18 217.52,-287.24 222.19,-292.45"/>
<text text-anchor="middle" x="223" y="-304.8" font-family="arial" font-size="14.00" fill="#3cb4a4">guard</text>
</g>
<!-- node9&#45;&gt;node3 -->
<g id="edge2" class="edge">
<title>node9&#45;&gt;node3</title>
<path fill="none" stroke="#3cb4a4" d="M246.5,-246.8C246.5,-235.16 246.5,-219.55 246.5,-206.24"/>
<polygon fill="#3cb4a4" stroke="#3cb4a4" points="250,-206.18 246.5,-196.18 243,-206.18 250,-206.18"/>
<text text-anchor="middle" x="264" y="-217.8" font-family="arial" font-size="14.00" fill="#3cb4a4">arg[0]</text>
</g>
<!-- inline1x7 -->
<g id="node8" class="node">
<title>inline1x7</title>
<ellipse fill="#d7ede7" stroke="black" cx="286.5" cy="-526" rx="27" ry="18"/>
<text text-anchor="middle" x="286.5" y="-524.1" font-family="Arial" font-size="8.00" fill="#1a1919">1 P(0)</text>
</g>
<!-- inline1x7&#45;&gt;node7 -->
<g id="edge6" class="edge">
<title>inline1x7&#45;&gt;node7</title>
<path fill="none" stroke="#3cb4a4" d="M286.5,-507.8C286.5,-493.05 286.5,-471.92 286.5,-457.18"/>
<text text-anchor="middle" x="296" y="-480.6" font-family="arial" font-size="8.00" fill="#3cb4a4">value</text>
</g>
<!-- inline1x9 -->
<g id="node9" class="node">
<title>inline1x9</title>
<ellipse fill="#d7ede7" stroke="black" cx="348.5" cy="-352" rx="27" ry="18"/>
<text text-anchor="middle" x="348.5" y="-350.1" font-family="Arial" font-size="8.00" fill="#1a1919">1 P(0)</text>
</g>
<!-- inline1x9&#45;&gt;node9 -->
<g id="edge11" class="edge">
<title>inline1x9&#45;&gt;node9</title>
<path fill="none" stroke="#3cb4a4" d="M332.11,-337.34C314.43,-322.61 286.24,-299.11 267.07,-283.15"/>
<text text-anchor="middle" x="315.5" y="-306.6" font-family="arial" font-size="8.00" fill="#3cb4a4">object</text>
</g>
</g>
</svg>
