<?xml version="1.0" encoding="UTF-8" standalone="no"?>
<!DOCTYPE svg PUBLIC "-//W3C//DTD SVG 1.1//EN"
 "http://www.w3.org/Graphics/SVG/1.1/DTD/svg11.dtd">
<!-- Generated by graphviz version 2.43.0 (0)
 -->
<!-- Title: G Pages: 1 -->
<svg width="512pt" height="698pt"
 viewBox="0.00 0.00 512.22 697.89" xmlns="http://www.w3.org/2000/svg" xmlns:xlink="http://www.w3.org/1999/xlink">
<g id="graph0" class="graph" transform="scale(1 1) rotate(0) translate(4 693.89)">
<title>G</title>
' points="-4,4 -4,-693.89 508.22,-693.89 508.22,4 -4,4"/>
<!-- node0 -->
<g id="node1" class="node">
<title>node0</title>
<polygon fill="#e98693" stroke="black" points="226.35,-608.69 168.87,-608.69 168.87,-572.69 226.35,-572.69 226.35,-608.69"/>
<text text-anchor="middle" x="197.61" y="-587.54" font-family="Arial" font-size="14.00" fill="#1a1919">0 Start</text>
</g>
<!-- node9 -->
<g id="node5" class="node">
<title>node9</title>
<polygon fill="#e98693" stroke="black" points="240.61,-520.6 186.61,-520.6 186.61,-484.6 240.61,-484.6 240.61,-520.6"/>
<text text-anchor="middle" x="213.61" y="-499.45" font-family="Arial" font-size="14.00" fill="#1a1919">9 If</text>
</g>
<!-- node0&#45;&gt;node9 -->
<g id="edge1" class="edge">
<title>node0&#45;&gt;node9</title>
<path fill="none" stroke="#da2d4f" stroke-width="2" d="M200.77,-572.68C202.99,-560.73 206.01,-544.5 208.56,-530.76"/>
<polygon fill="#da2d4f" stroke="#da2d4f" stroke-width="2" points="212.01,-531.34 210.4,-520.87 205.13,-530.06 212.01,-531.34"/>
</g>
<!-- node6 -->
<g id="node2" class="node">
<title>node6</title>
<polygon fill="#3cb4a4" stroke="black" points="298.61,-608.69 244.61,-608.69 244.61,-572.69 298.61,-572.69 298.61,-608.69"/>
<text text-anchor="middle" x="271.61" y="-587.54" font-family="Arial" font-size="14.00" fill="#1a1919">6 ==</text>
</g>
<!-- node6&#45;&gt;node9 -->
<g id="edge6" class="edge">
<title>node6&#45;&gt;node9</title>
<path fill="none" stroke="#3cb4a4" d="M260.15,-572.68C251.79,-560.27 240.3,-543.22 230.83,-529.16"/>
<polygon fill="#3cb4a4" stroke="#3cb4a4" points="233.73,-527.2 225.24,-520.87 227.93,-531.11 233.73,-527.2"/>
<text text-anchor="middle" x="252.5" y="-543.49" font-family="arial" font-size="14.00" fill="#3cb4a4">?</text>
</g>
<!-- node7 -->
<g id="node3" class="node">
<title>node7</title>
<polygon fill="#e98693" stroke="black" points="153.59,-432.5 89.63,-432.5 89.63,-396.5 153.59,-396.5 153.59,-432.5"/>
<text text-anchor="middle" x="121.61" y="-411.35" font-family="Arial" font-size="14.00" fill="#1a1919">7 Begin</text>
</g>
<!-- node10 -->
<g id="node6" class="node">
<title>node10</title>
<polygon fill="#da2d4f" stroke="black" points="243.33,-351.3 -0.11,-351.3 -0.11,-315.3 243.33,-315.3 243.33,-351.3"/>
<text text-anchor="middle" x="121.61" y="-330.15" font-family="Arial" font-size="14.00" fill="#ffffff">10 StoreField JavaExamples.intField</text>
</g>
<!-- node7&#45;&gt;node10 -->
<g id="edge4" class="edge">
<title>node7&#45;&gt;node10</title>
<path fill="none" stroke="#da2d4f" stroke-width="2" d="M121.61,-396.31C121.61,-386.14 121.61,-373.03 121.61,-361.48"/>
<polygon fill="#da2d4f" stroke="#da2d4f" stroke-width="2" points="125.11,-361.45 121.61,-351.45 118.11,-361.45 125.11,-361.45"/>
</g>
<!-- node8 -->
<g id="node4" class="node">
<title>node8</title>
<polygon fill="#e98693" stroke="black" points="322.59,-432.5 258.63,-432.5 258.63,-396.5 322.59,-396.5 322.59,-432.5"/>
<text text-anchor="middle" x="290.61" y="-411.35" font-family="Arial" font-size="14.00" fill="#1a1919">8 Begin</text>
</g>
<!-- node13 -->
<g id="node7" class="node">
<title>node13</title>
<polygon fill="#da2d4f" stroke="black" points="504.33,-351.3 260.89,-351.3 260.89,-315.3 504.33,-315.3 504.33,-351.3"/>
<text text-anchor="middle" x="382.61" y="-330.15" font-family="Arial" font-size="14.00" fill="#ffffff">13 StoreField JavaExamples.intField</text>
</g>
<!-- node8&#45;&gt;node13 -->
<g id="edge5" class="edge">
<title>node8&#45;&gt;node13</title>
<path fill="none" stroke="#da2d4f" stroke-width="2" d="M310.57,-396.31C323.59,-385.1 340.76,-370.32 355.07,-358"/>
<polygon fill="#da2d4f" stroke="#da2d4f" stroke-width="2" points="357.39,-360.63 362.69,-351.45 352.82,-355.32 357.39,-360.63"/>
</g>
<!-- node9&#45;&gt;node7 -->
<g id="edge8" class="edge">
<title>node9&#45;&gt;node7</title>
<path fill="none" stroke="#da2d4f" stroke-width="2" d="M195.43,-484.59C181.79,-471.82 162.91,-454.15 147.66,-439.88"/>
<polygon fill="#da2d4f" stroke="#da2d4f" stroke-width="2" points="149.76,-437.04 140.06,-432.77 144.97,-442.16 149.76,-437.04"/>
<text text-anchor="middle" x="180.89" y="-455.4" font-family="arial" font-size="14.00" fill="#da2d4f">F</text>
</g>
<!-- node9&#45;&gt;node8 -->
<g id="edge7" class="edge">
<title>node9&#45;&gt;node8</title>
<path fill="none" stroke="#da2d4f" stroke-width="2" d="M228.82,-484.59C240.14,-471.93 255.75,-454.47 268.45,-440.27"/>
<polygon fill="#da2d4f" stroke="#da2d4f" stroke-width="2" points="271.11,-442.55 275.17,-432.77 265.89,-437.89 271.11,-442.55"/>
<text text-anchor="middle" x="263.89" y="-455.4" font-family="arial" font-size="14.00" fill="#da2d4f">T</text>
</g>
<!-- node15 -->
<g id="node8" class="node">
<title>node15</title>
<polygon fill="#e98693" stroke="black" points="288.98,-278.3 228.24,-278.3 228.24,-242.3 288.98,-242.3 288.98,-278.3"/>
<text text-anchor="middle" x="258.61" y="-257.15" font-family="Arial" font-size="14.00" fill="#1a1919">15 End</text>
</g>
<!-- node10&#45;&gt;node15 -->
<g id="edge10" class="edge">
<title>node10&#45;&gt;node15</title>
<path fill="none" stroke="#da2d4f" stroke-width="2" d="M154.42,-315.29C173.92,-305.19 198.77,-292.31 219.31,-281.67"/>
<polygon fill="#da2d4f" stroke="#da2d4f" stroke-width="2" points="221.14,-284.66 228.4,-276.95 217.92,-278.45 221.14,-284.66"/>
</g>
<!-- node17 -->
<g id="node10" class="node">
<title>node17</title>
<polygon fill="#e98693" stroke="black" points="389.98,-278.3 329.24,-278.3 329.24,-242.3 389.98,-242.3 389.98,-278.3"/>
<text text-anchor="middle" x="359.61" y="-257.15" font-family="Arial" font-size="14.00" fill="#1a1919">17 End</text>
</g>
<!-- node13&#45;&gt;node17 -->
<g id="edge12" class="edge">
<title>node13&#45;&gt;node17</title>
<path fill="none" stroke="#da2d4f" stroke-width="2" d="M377.04,-315.11C374.41,-307 371.22,-297.13 368.28,-288.07"/>
<polygon fill="#da2d4f" stroke="#da2d4f" stroke-width="2" points="371.54,-286.76 365.13,-278.33 364.88,-288.92 371.54,-286.76"/>
</g>
<!-- node16 -->
<g id="node9" class="node">
<title>node16</title>
<polygon fill="#e98693" stroke="black" points="334.25,-205.3 258.97,-205.3 258.97,-169.3 334.25,-169.3 334.25,-205.3"/>
<text text-anchor="middle" x="296.61" y="-184.15" font-family="Arial" font-size="14.00" fill="#1a1919">16 Merge</text>
</g>
<!-- node15&#45;&gt;node16 -->
<g id="edge13" class="edge">
<title>node15&#45;&gt;node16</title>
<path fill="none" stroke="#da2d4f" stroke-width="2" d="M267.81,-242.11C272.29,-233.74 277.77,-223.49 282.75,-214.2"/>
<polygon fill="#da2d4f" stroke="#da2d4f" stroke-width="2" points="285.86,-215.79 287.5,-205.33 279.69,-212.49 285.86,-215.79"/>
</g>
<!-- node18 -->
<g id="node11" class="node">
<title>node18</title>
<polygon fill="#f9f9f9" stroke="black" points="386.61,-124.1 332.61,-124.1 332.61,-88.1 386.61,-88.1 386.61,-124.1"/>
<text text-anchor="middle" x="359.61" y="-102.95" font-family="Arial" font-size="14.00" fill="#1a1919">18 ϕ</text>
</g>
<!-- node16&#45;&gt;node18 -->
<g id="edge16" class="edge">
<title>node16&#45;&gt;node18</title>
<path fill="none" stroke="#343d46" stroke-dasharray="5,2" d="M316.59,-161.18C326.17,-149.14 337.39,-135.04 345.97,-124.25"/>
<polygon fill="#343d46" stroke="#343d46" points="313.77,-159.11 310.28,-169.11 319.24,-163.47 313.77,-159.11"/>
</g>
<!-- node20 -->
<g id="node12" class="node">
<title>node20</title>
<polygon fill="#e98693" stroke="black" points="358.59,-36 280.63,-36 280.63,0 358.59,0 358.59,-36"/>
<text text-anchor="middle" x="319.61" y="-14.85" font-family="Arial" font-size="14.00" fill="#1a1919">20 Return</text>
</g>
<!-- node16&#45;&gt;node20 -->
<g id="edge15" class="edge">
<title>node16&#45;&gt;node20</title>
<path fill="none" stroke="#da2d4f" stroke-width="2" d="M298.98,-169.02C302.98,-139.97 311.07,-81.1 315.85,-46.37"/>
<polygon fill="#da2d4f" stroke="#da2d4f" stroke-width="2" points="319.32,-46.81 317.21,-36.43 312.38,-45.86 319.32,-46.81"/>
</g>
<!-- node17&#45;&gt;node16 -->
<g id="edge14" class="edge">
<title>node17&#45;&gt;node16</title>
<path fill="none" stroke="#da2d4f" stroke-width="2" d="M344.36,-242.11C336.62,-233.39 327.08,-222.64 318.57,-213.04"/>
<polygon fill="#da2d4f" stroke="#da2d4f" stroke-width="2" points="320.98,-210.48 311.72,-205.33 315.74,-215.13 320.98,-210.48"/>
</g>
<!-- node18&#45;&gt;node20 -->
<g id="edge19" class="edge">
<title>node18&#45;&gt;node20</title>
<path fill="none" stroke="#3cb4a4" d="M351.71,-88.09C346.05,-75.9 338.31,-59.26 331.86,-45.36"/>
<polygon fill="#3cb4a4" stroke="#3cb4a4" points="335.02,-43.86 327.63,-36.27 328.67,-46.81 335.02,-43.86"/>
<text text-anchor="middle" x="359.73" y="-58.9" font-family="arial" font-size="14.00" fill="#3cb4a4">result</text>
</g>
<!-- inline1x6 -->
<g id="node13" class="node">
<title>inline1x6</title>
<ellipse fill="#d7ede7" stroke="black" cx="235.61" cy="-671.89" rx="27" ry="18"/>
<text text-anchor="middle" x="235.61" y="-670.09" font-family="Arial" font-size="8.00" fill="#1a1919">1 P(0)</text>
</g>
<!-- inline1x6&#45;&gt;node6 -->
<g id="edge2" class="edge">
<title>inline1x6&#45;&gt;node6</title>
<path fill="none" stroke="#3cb4a4" d="M243.07,-654.48C249.12,-641.16 257.64,-622.44 263.79,-608.91"/>
<text text-anchor="middle" x="257.61" y="-629.49" font-family="arial" font-size="8.00" fill="#3cb4a4">x</text>
</g>
<!-- inline5x6 -->
<g id="node14" class="node">
<title>inline5x6</title>
<ellipse fill="#d7ede7" stroke="black" cx="307.61" cy="-671.89" rx="27" ry="18"/>
<text text-anchor="middle" x="307.61" y="-670.09" font-family="Arial" font-size="8.00" fill="#1a1919">5 C(0)</text>
</g>
<!-- inline5x6&#45;&gt;node6 -->
<g id="edge3" class="edge">
<title>inline5x6&#45;&gt;node6</title>
<path fill="none" stroke="#3cb4a4" d="M300.15,-654.48C294.1,-641.16 285.58,-622.44 279.43,-608.91"/>
<text text-anchor="middle" x="292.61" y="-629.49" font-family="arial" font-size="8.00" fill="#3cb4a4">y</text>
</g>
<!-- inline2x10 -->
<g id="node15" class="node">
<title>inline2x10</title>
<ellipse fill="#d7ede7" stroke="black" cx="198.61" cy="-414.5" rx="27" ry="18"/>
<text text-anchor="middle" x="198.61" y="-412.7" font-family="Arial" font-size="8.00" fill="#1a1919">2 P(1)</text>
</g>
<!-- inline2x10&#45;&gt;node10 -->
<g id="edge9" class="edge">
<title>inline2x10&#45;&gt;node10</title>
<path fill="none" stroke="#3cb4a4" d="M184.49,-398.97C171.46,-385.57 152.11,-365.67 138.32,-351.49"/>
<text text-anchor="middle" x="172.17" y="-372.1" font-family="arial" font-size="8.00" fill="#3cb4a4">value</text>
</g>
<!-- inline3x13 -->
<g id="node16" class="node">
<title>inline3x13</title>
<ellipse fill="#d7ede7" stroke="black" cx="382.61" cy="-414.5" rx="27" ry="18"/>
<text text-anchor="middle" x="382.61" y="-412.7" font-family="Arial" font-size="8.00" fill="#1a1919">3 P(2)</text>
</g>
<!-- inline3x13&#45;&gt;node13 -->
<g id="edge11" class="edge">
<title>inline3x13&#45;&gt;node13</title>
<path fill="none" stroke="#3cb4a4" d="M382.61,-396.31C382.61,-383.03 382.61,-364.73 382.61,-351.45"/>
<text text-anchor="middle" x="392.17" y="-372.1" font-family="arial" font-size="8.00" fill="#3cb4a4">value</text>
</g>
<!-- inline2x18 -->
<g id="node17" class="node">
<title>inline2x18</title>
<ellipse fill="#d7ede7" stroke="black" cx="379.61" cy="-187.3" rx="27" ry="18"/>
<text text-anchor="middle" x="379.61" y="-185.5" font-family="Arial" font-size="8.00" fill="#1a1919">2 P(1)</text>
</g>
<!-- inline2x18&#45;&gt;node18 -->
<g id="edge17" class="edge">
<title>inline2x18&#45;&gt;node18</title>
<path fill="none" stroke="#3cb4a4" d="M375.37,-169.5C372,-156.15 367.3,-137.56 363.91,-124.14"/>
<text text-anchor="middle" x="383.17" y="-144.9" font-family="arial" font-size="8.00" fill="#3cb4a4">from 15</text>
</g>
<!-- inline3x18 -->
<g id="node18" class="node">
<title>inline3x18</title>
<ellipse fill="#d7ede7" stroke="black" cx="451.61" cy="-187.3" rx="27" ry="18"/>
<text text-anchor="middle" x="451.61" y="-185.5" font-family="Arial" font-size="8.00" fill="#1a1919">3 P(2)</text>
</g>
<!-- inline3x18&#45;&gt;node18 -->
<g id="edge18" class="edge">
<title>inline3x18&#45;&gt;node18</title>
<path fill="none" stroke="#3cb4a4" d="M435.56,-172.33C425.53,-163.62 412.34,-152.18 400.61,-142.1 393.8,-136.24 386.33,-129.85 379.65,-124.16"/>
<text text-anchor="middle" x="423.17" y="-144.9" font-family="arial" font-size="8.00" fill="#3cb4a4">from 17</text>
</g>
</g>
</svg>
