<?xml version="1.0" encoding="UTF-8" standalone="no"?>
<!DOCTYPE svg PUBLIC "-//W3C//DTD SVG 1.1//EN"
 "http://www.w3.org/Graphics/SVG/1.1/DTD/svg11.dtd">
<!-- Generated by graphviz version 2.43.0 (0)
 -->
<!-- Title: G Pages: 1 -->
<svg width="617pt" height="647pt"
 viewBox="0.00 0.00 617.00 646.89" xmlns="http://www.w3.org/2000/svg" xmlns:xlink="http://www.w3.org/1999/xlink">
<g id="graph0" class="graph" transform="scale(1 1) rotate(0) translate(4 642.89)">
<title>G</title>
' points="-4,4 -4,-642.89 613,-642.89 613,4 -4,4"/>
<!-- node0 -->
<g id="node1" class="node">
<title>node0</title>
<polygon fill="#e98693" stroke="black" points="256.74,-638.89 199.26,-638.89 199.26,-602.89 256.74,-602.89 256.74,-638.89"/>
<text text-anchor="middle" x="228" y="-617.74" font-family="Arial" font-size="14.00" fill="#1a1919">0 Start</text>
</g>
<!-- node5 -->
<g id="node2" class="node">
<title>node5</title>
<polygon fill="#da2d4f" stroke="black" points="309.63,-557.69 220.37,-557.69 220.37,-521.69 309.63,-521.69 309.63,-557.69"/>
<text text-anchor="middle" x="265" y="-536.54" font-family="Arial" font-size="14.00" fill="#ffffff">5 NewArray</text>
</g>
<!-- node0&#45;&gt;node5 -->
<g id="edge1" class="edge">
<title>node0&#45;&gt;node5</title>
<path fill="none" stroke="#da2d4f" stroke-width="2" d="M236.03,-602.71C240.88,-592.33 247.16,-578.89 252.63,-567.17"/>
<polygon fill="#da2d4f" stroke="#da2d4f" stroke-width="2" points="255.93,-568.39 256.99,-557.84 249.58,-565.42 255.93,-568.39"/>
</g>
<!-- node7 -->
<g id="node3" class="node">
<title>node7</title>
<polygon fill="#da2d4f" stroke="black" points="433.46,-469.59 322.54,-469.59 322.54,-433.59 433.46,-433.59 433.46,-469.59"/>
<text text-anchor="middle" x="378" y="-448.44" font-family="Arial" font-size="14.00" fill="#ffffff">7 StoreIndexed</text>
</g>
<!-- node5&#45;&gt;node7 -->
<g id="edge3" class="edge">
<title>node5&#45;&gt;node7</title>
<path fill="none" stroke="#da2d4f" stroke-width="2" d="M302.67,-521.54C312.31,-516.41 322.38,-510.35 331,-503.69 340.79,-496.14 350.28,-486.43 358.14,-477.51"/>
<polygon fill="#da2d4f" stroke="#da2d4f" stroke-width="2" points="361.04,-479.5 364.86,-469.62 355.71,-474.96 361.04,-479.5"/>
</g>
<!-- node5&#45;&gt;node7 -->
<g id="edge4" class="edge">
<title>node5&#45;&gt;node7</title>
<path fill="none" stroke="#3cb4a4" d="M271.7,-521.61C276.73,-510.66 284.57,-496.82 295.1,-487.59 300.76,-482.64 307.22,-478.32 313.98,-474.55"/>
<polygon fill="#3cb4a4" stroke="#3cb4a4" points="316.03,-477.44 323.34,-469.77 312.84,-471.2 316.03,-477.44"/>
<text text-anchor="middle" x="310.95" y="-492.49" font-family="arial" font-size="14.00" fill="#3cb4a4">array</text>
</g>
<!-- node13 -->
<g id="node8" class="node">
<title>node13</title>
<polygon fill="#da2d4f" stroke="black" points="375.79,-212.2 110.21,-212.2 110.21,-176.2 375.79,-176.2 375.79,-212.2"/>
<text text-anchor="middle" x="243" y="-191.05" font-family="Arial" font-size="14.00" fill="#ffffff">13 StoreField JavaExamples.objectField</text>
</g>
<!-- node5&#45;&gt;node13 -->
<g id="edge15" class="edge">
<title>node5&#45;&gt;node13</title>
<path fill="none" stroke="#3cb4a4" d="M239.31,-521.41C219.69,-505.95 196,-481.33 196,-452.59 196,-452.59 196,-452.59 196,-274.4 196,-254.35 207.28,-234.94 218.78,-220.35"/>
<polygon fill="#3cb4a4" stroke="#3cb4a4" points="221.75,-222.26 225.5,-212.35 216.39,-217.76 221.75,-222.26"/>
<text text-anchor="middle" x="212.73" y="-360.34" font-family="arial" font-size="14.00" fill="#3cb4a4">value</text>
</g>
<!-- node15 -->
<g id="node9" class="node">
<title>node15</title>
<polygon fill="#da2d4f" stroke="black" points="140.43,-124.1 23.57,-124.1 23.57,-88.1 140.43,-88.1 140.43,-124.1"/>
<text text-anchor="middle" x="82" y="-102.95" font-family="Arial" font-size="14.00" fill="#ffffff">15 LoadIndexed</text>
</g>
<!-- node5&#45;&gt;node15 -->
<g id="edge17" class="edge">
<title>node5&#45;&gt;node15</title>
<path fill="none" stroke="#3cb4a4" d="M220.23,-536.61C166.06,-531.4 82,-513.51 82,-452.59 82,-452.59 82,-452.59 82,-193.2 82,-173.58 82,-151.44 82,-134.53"/>
<polygon fill="#3cb4a4" stroke="#3cb4a4" points="85.5,-134.25 82,-124.25 78.5,-134.25 85.5,-134.25"/>
<text text-anchor="middle" x="97.95" y="-316.3" font-family="arial" font-size="14.00" fill="#3cb4a4">array</text>
</g>
<!-- node17 -->
<g id="node11" class="node">
<title>node17</title>
<polygon fill="#da2d4f" stroke="black" points="510.43,-212.2 393.57,-212.2 393.57,-176.2 510.43,-176.2 510.43,-212.2"/>
<text text-anchor="middle" x="452" y="-191.05" font-family="Arial" font-size="14.00" fill="#ffffff">17 LoadIndexed</text>
</g>
<!-- node5&#45;&gt;node17 -->
<g id="edge21" class="edge">
<title>node5&#45;&gt;node17</title>
<path fill="none" stroke="#3cb4a4" d="M265,-521.54C265,-504.16 265,-476.51 265,-452.59 265,-452.59 265,-452.59 265,-274.4 265,-263.07 274.29,-263.24 284,-257.4 314.9,-238.78 352.29,-224.26 383.95,-213.95"/>
<polygon fill="#3cb4a4" stroke="#3cb4a4" points="385.11,-217.26 393.57,-210.89 382.98,-210.59 385.11,-217.26"/>
<text text-anchor="middle" x="280.95" y="-360.34" font-family="arial" font-size="14.00" fill="#3cb4a4">array</text>
</g>
<!-- node12 -->
<g id="node7" class="node">
<title>node12</title>
<polygon fill="#e98693" stroke="black" points="427,-381.5 373,-381.5 373,-345.5 427,-345.5 427,-381.5"/>
<text text-anchor="middle" x="400" y="-360.34" font-family="Arial" font-size="14.00" fill="#1a1919">12 If</text>
</g>
<!-- node7&#45;&gt;node12 -->
<g id="edge7" class="edge">
<title>node7&#45;&gt;node12</title>
<path fill="none" stroke="#da2d4f" stroke-width="2" d="M382.35,-433.58C385.4,-421.63 389.55,-405.4 393.06,-391.66"/>
<polygon fill="#da2d4f" stroke="#da2d4f" stroke-width="2" points="396.5,-392.32 395.59,-381.76 389.72,-390.59 396.5,-392.32"/>
</g>
<!-- node9 -->
<g id="node4" class="node">
<title>node9</title>
<polygon fill="#3cb4a4" stroke="black" points="537,-469.59 483,-469.59 483,-433.59 537,-433.59 537,-469.59"/>
<text text-anchor="middle" x="510" y="-448.44" font-family="Arial" font-size="14.00" fill="#1a1919">9 ==</text>
</g>
<!-- node9&#45;&gt;node12 -->
<g id="edge12" class="edge">
<title>node9&#45;&gt;node12</title>
<path fill="none" stroke="#3cb4a4" d="M488.27,-433.58C471.65,-420.58 448.55,-402.5 430.15,-388.09"/>
<polygon fill="#3cb4a4" stroke="#3cb4a4" points="432.1,-385.17 422.06,-381.76 427.78,-390.68 432.1,-385.17"/>
<text text-anchor="middle" x="467.89" y="-404.39" font-family="arial" font-size="14.00" fill="#3cb4a4">?</text>
</g>
<!-- node10 -->
<g id="node5" class="node">
<title>node10</title>
<polygon fill="#e98693" stroke="black" points="452.77,-293.4 381.23,-293.4 381.23,-257.4 452.77,-257.4 452.77,-293.4"/>
<text text-anchor="middle" x="417" y="-272.25" font-family="Arial" font-size="14.00" fill="#1a1919">10 Begin</text>
</g>
<!-- node10&#45;&gt;node13 -->
<g id="edge10" class="edge">
<title>node10&#45;&gt;node13</title>
<path fill="none" stroke="#da2d4f" stroke-width="2" d="M380.95,-257.99C354.56,-245.98 318.53,-229.58 289.91,-216.55"/>
<polygon fill="#da2d4f" stroke="#da2d4f" stroke-width="2" points="291.06,-213.23 280.51,-212.27 288.16,-219.6 291.06,-213.23"/>
</g>
<!-- node11 -->
<g id="node6" class="node">
<title>node11</title>
<polygon fill="#e98693" stroke="black" points="363.23,-293.4 292.77,-293.4 292.77,-257.4 363.23,-257.4 363.23,-293.4"/>
<text text-anchor="middle" x="328" y="-272.25" font-family="Arial" font-size="14.00" fill="#1a1919">11 Begin</text>
</g>
<!-- node11&#45;&gt;node17 -->
<g id="edge11" class="edge">
<title>node11&#45;&gt;node17</title>
<path fill="none" stroke="#da2d4f" stroke-width="2" d="M354.91,-257.21C372.94,-245.69 396.89,-230.4 416.48,-217.88"/>
<polygon fill="#da2d4f" stroke="#da2d4f" stroke-width="2" points="418.6,-220.68 425.15,-212.35 414.83,-214.78 418.6,-220.68"/>
</g>
<!-- node12&#45;&gt;node10 -->
<g id="edge14" class="edge">
<title>node12&#45;&gt;node10</title>
<path fill="none" stroke="#da2d4f" stroke-width="2" d="M403.36,-345.48C405.72,-333.53 408.92,-317.3 411.64,-303.57"/>
<polygon fill="#da2d4f" stroke="#da2d4f" stroke-width="2" points="415.09,-304.15 413.59,-293.67 408.22,-302.8 415.09,-304.15"/>
<text text-anchor="middle" x="414.28" y="-316.3" font-family="arial" font-size="14.00" fill="#da2d4f">F</text>
</g>
<!-- node12&#45;&gt;node11 -->
<g id="edge13" class="edge">
<title>node12&#45;&gt;node11</title>
<path fill="none" stroke="#da2d4f" stroke-width="2" d="M385.78,-345.48C375.29,-332.95 360.86,-315.69 349.05,-301.56"/>
<polygon fill="#da2d4f" stroke="#da2d4f" stroke-width="2" points="351.54,-299.09 342.44,-293.67 346.17,-303.58 351.54,-299.09"/>
<text text-anchor="middle" x="374.28" y="-316.3" font-family="arial" font-size="14.00" fill="#da2d4f">T</text>
</g>
<!-- node13&#45;&gt;node15 -->
<g id="edge16" class="edge">
<title>node13&#45;&gt;node15</title>
<path fill="none" stroke="#da2d4f" stroke-width="2" d="M211.19,-176.19C185.92,-162.67 150.38,-143.67 122.97,-129.01"/>
<polygon fill="#da2d4f" stroke="#da2d4f" stroke-width="2" points="124.49,-125.85 114.02,-124.22 121.19,-132.02 124.49,-125.85"/>
</g>
<!-- node16 -->
<g id="node10" class="node">
<title>node16</title>
<polygon fill="#e98693" stroke="black" points="120.98,-36 43.02,-36 43.02,0 120.98,0 120.98,-36"/>
<text text-anchor="middle" x="82" y="-14.85" font-family="Arial" font-size="14.00" fill="#1a1919">16 Return</text>
</g>
<!-- node15&#45;&gt;node16 -->
<g id="edge19" class="edge">
<title>node15&#45;&gt;node16</title>
<path fill="none" stroke="#da2d4f" stroke-width="2" d="M80.83,-88.02C80.49,-82.32 80.17,-75.94 80,-70.1 79.8,-62.95 79.8,-61.15 80,-54 80.07,-51.44 80.18,-48.79 80.3,-46.13"/>
<polygon fill="#da2d4f" stroke="#da2d4f" stroke-width="2" points="83.79,-46.25 80.83,-36.08 76.8,-45.88 83.79,-46.25"/>
</g>
<!-- node15&#45;&gt;node16 -->
<g id="edge20" class="edge">
<title>node15&#45;&gt;node16</title>
<path fill="none" stroke="#3cb4a4" d="M82,-88.09C82,-76.26 82,-60.22 82,-46.57"/>
<polygon fill="#3cb4a4" stroke="#3cb4a4" points="85.5,-46.27 82,-36.27 78.5,-46.27 85.5,-46.27"/>
<text text-anchor="middle" x="99.12" y="-58.9" font-family="arial" font-size="14.00" fill="#3cb4a4">result</text>
</g>
<!-- node18 -->
<g id="node12" class="node">
<title>node18</title>
<polygon fill="#e98693" stroke="black" points="489.98,-124.1 412.02,-124.1 412.02,-88.1 489.98,-88.1 489.98,-124.1"/>
<text text-anchor="middle" x="451" y="-102.95" font-family="Arial" font-size="14.00" fill="#1a1919">18 Return</text>
</g>
<!-- node17&#45;&gt;node18 -->
<g id="edge23" class="edge">
<title>node17&#45;&gt;node18</title>
<path fill="none" stroke="#da2d4f" stroke-width="2" d="M458.45,-175.76C461.33,-165.91 463.73,-153.36 462,-142.1 461.59,-139.42 461.01,-136.66 460.33,-133.92"/>
<polygon fill="#da2d4f" stroke="#da2d4f" stroke-width="2" points="463.69,-132.93 457.55,-124.3 456.96,-134.88 463.69,-132.93"/>
</g>
<!-- node17&#45;&gt;node18 -->
<g id="edge24" class="edge">
<title>node17&#45;&gt;node18</title>
<path fill="none" stroke="#3cb4a4" d="M434.44,-176.13C430.1,-170.84 426.05,-164.68 423.77,-158.2 420.75,-149.66 423.23,-140.8 427.71,-132.91"/>
<polygon fill="#3cb4a4" stroke="#3cb4a4" points="430.72,-134.71 433.43,-124.47 424.92,-130.78 430.72,-134.71"/>
<text text-anchor="middle" x="440.12" y="-147" font-family="arial" font-size="14.00" fill="#3cb4a4">result</text>
</g>
<!-- inline4x5 -->
<g id="node13" class="node">
<title>inline4x5</title>
<ellipse fill="#d7ede7" stroke="black" cx="302" cy="-620.89" rx="27" ry="18"/>
<text text-anchor="middle" x="302" y="-619.09" font-family="Arial" font-size="8.00" fill="#1a1919">4 C(1)</text>
</g>
<!-- inline4x5&#45;&gt;node5 -->
<g id="edge2" class="edge">
<title>inline4x5&#45;&gt;node5</title>
<path fill="none" stroke="#3cb4a4" d="M294.33,-603.48C288.11,-590.16 279.36,-571.43 273.04,-557.9"/>
<text text-anchor="middle" x="294.9" y="-578.49" font-family="arial" font-size="8.00" fill="#3cb4a4">length</text>
</g>
<!-- inline6x7 -->
<g id="node14" class="node">
<title>inline6x7</title>
<ellipse fill="#d7ede7" stroke="black" cx="366" cy="-539.69" rx="27" ry="18"/>
<text text-anchor="middle" x="366" y="-537.89" font-family="Arial" font-size="8.00" fill="#1a1919">6 C(0)</text>
</g>
<!-- inline6x7&#45;&gt;node7 -->
<g id="edge5" class="edge">
<title>inline6x7&#45;&gt;node7</title>
<path fill="none" stroke="#3cb4a4" d="M368.37,-521.68C370.46,-506.69 373.49,-484.94 375.59,-469.86"/>
<text text-anchor="middle" x="382.56" y="-493.84" font-family="arial" font-size="8.00" fill="#3cb4a4">index</text>
</g>
<!-- inline2x7 -->
<g id="node15" class="node">
<title>inline2x7</title>
<ellipse fill="#d7ede7" stroke="black" cx="438" cy="-539.69" rx="27" ry="18"/>
<text text-anchor="middle" x="438" y="-537.89" font-family="Arial" font-size="8.00" fill="#1a1919">2 P(1)</text>
</g>
<!-- inline2x7&#45;&gt;node7 -->
<g id="edge6" class="edge">
<title>inline2x7&#45;&gt;node7</title>
<path fill="none" stroke="#3cb4a4" d="M427,-522.9C416.51,-507.85 400.76,-485.25 389.96,-469.76"/>
<text text-anchor="middle" x="422.56" y="-493.84" font-family="arial" font-size="8.00" fill="#3cb4a4">value</text>
</g>
<!-- inline1x9 -->
<g id="node16" class="node">
<title>inline1x9</title>
<ellipse fill="#d7ede7" stroke="black" cx="510" cy="-539.69" rx="27" ry="18"/>
<text text-anchor="middle" x="510" y="-537.89" font-family="Arial" font-size="8.00" fill="#1a1919">1 P(0)</text>
</g>
<!-- inline1x9&#45;&gt;node9 -->
<g id="edge8" class="edge">
<title>inline1x9&#45;&gt;node9</title>
<path fill="none" stroke="#3cb4a4" d="M510,-521.68C510,-506.69 510,-484.94 510,-469.86"/>
<text text-anchor="middle" x="512" y="-493.84" font-family="arial" font-size="8.00" fill="#3cb4a4">x</text>
</g>
<!-- inline6x9 -->
<g id="node17" class="node">
<title>inline6x9</title>
<ellipse fill="#d7ede7" stroke="black" cx="582" cy="-539.69" rx="27" ry="18"/>
<text text-anchor="middle" x="582" y="-537.89" font-family="Arial" font-size="8.00" fill="#1a1919">6 C(0)</text>
</g>
<!-- inline6x9&#45;&gt;node9 -->
<g id="edge9" class="edge">
<title>inline6x9&#45;&gt;node9</title>
<path fill="none" stroke="#3cb4a4" d="M569.46,-523.7C556.89,-508.66 537.56,-485.55 524.38,-469.78"/>
<text text-anchor="middle" x="554" y="-493.84" font-family="arial" font-size="8.00" fill="#3cb4a4">y</text>
</g>
<!-- inline6x15 -->
<g id="node18" class="node">
<title>inline6x15</title>
<ellipse fill="#d7ede7" stroke="black" cx="27" cy="-194.2" rx="27" ry="18"/>
<text text-anchor="middle" x="27" y="-192.4" font-family="Arial" font-size="8.00" fill="#1a1919">6 C(0)</text>
</g>
<!-- inline6x15&#45;&gt;node15 -->
<g id="edge18" class="edge">
<title>inline6x15&#45;&gt;node15</title>
<path fill="none" stroke="#3cb4a4" d="M32.5,-176.34C36.28,-166 41.88,-152.75 48.88,-142.1 53.01,-135.81 58.33,-129.61 63.49,-124.22"/>
<text text-anchor="middle" x="58.56" y="-148.35" font-family="arial" font-size="8.00" fill="#3cb4a4">index</text>
</g>
<!-- inline6x17 -->
<g id="node19" class="node">
<title>inline6x17</title>
<ellipse fill="#d7ede7" stroke="black" cx="498" cy="-275.4" rx="27" ry="18"/>
<text text-anchor="middle" x="498" y="-273.6" font-family="Arial" font-size="8.00" fill="#1a1919">6 C(0)</text>
</g>
<!-- inline6x17&#45;&gt;node17 -->
<g id="edge22" class="edge">
<title>inline6x17&#45;&gt;node17</title>
<path fill="none" stroke="#3cb4a4" d="M488.69,-258.37C480.92,-244.99 469.87,-225.97 461.93,-212.3"/>
<text text-anchor="middle" x="485.56" y="-233" font-family="arial" font-size="8.00" fill="#3cb4a4">index</text>
</g>
</g>
</svg>
