<?xml version="1.0" encoding="UTF-8" standalone="no"?>
<!DOCTYPE svg PUBLIC "-//W3C//DTD SVG 1.1//EN"
 "http://www.w3.org/Graphics/SVG/1.1/DTD/svg11.dtd">
<!-- Generated by graphviz version 2.44.0 (20200408.0750)
 -->
<!-- Title: G Pages: 1 -->
<svg width="600pt" height="1174pt"
 viewBox="0.00 0.00 599.50 1174.00" xmlns="http://www.w3.org/2000/svg" xmlns:xlink="http://www.w3.org/1999/xlink">
<g id="graph0" class="graph" transform="scale(1 1) rotate(0) translate(4 1170)">
<title>G</title>
<!-- node0 -->
<g id="node1" class="node">
<title>node0</title>
<polygon fill="#e98693" stroke="black" points="371.5,-1166 315.5,-1166 315.5,-1130 371.5,-1130 371.5,-1166"/>
<text text-anchor="middle" x="343.5" y="-1144.3" font-family="Arial" font-size="14.00" fill="#1a1919">0 Start</text>
</g>
<!-- node4 -->
<g id="node2" class="node">
<title>node4</title>
<polygon fill="#e98693" stroke="black" points="370.5,-1093 316.5,-1093 316.5,-1057 370.5,-1057 370.5,-1093"/>
<text text-anchor="middle" x="343.5" y="-1071.3" font-family="Arial" font-size="14.00" fill="#1a1919">4 End</text>
</g>
<!-- node0&#45;&gt;node4 -->
<g id="edge1" class="edge">
<title>node0&#45;&gt;node4</title>
<path fill="none" stroke="#da2d4f" stroke-width="2" d="M343.5,-1129.81C343.5,-1121.79 343.5,-1112.05 343.5,-1103.07"/>
<polygon fill="#da2d4f" stroke="#da2d4f" stroke-width="2" points="347,-1103.03 343.5,-1093.03 340,-1103.03 347,-1103.03"/>
</g>
<!-- node5 -->
<g id="node3" class="node">
<title>node5</title>
<polygon fill="#e98693" stroke="black" points="389.5,-1020 297.5,-1020 297.5,-984 389.5,-984 389.5,-1020"/>
<text text-anchor="middle" x="343.5" y="-998.3" font-family="Arial" font-size="14.00" fill="#1a1919">5 LoopBegin</text>
</g>
<!-- node4&#45;&gt;node5 -->
<g id="edge2" class="edge">
<title>node4&#45;&gt;node5</title>
<path fill="none" stroke="#da2d4f" stroke-width="2" d="M343.5,-1056.81C343.5,-1048.79 343.5,-1039.05 343.5,-1030.07"/>
<polygon fill="#da2d4f" stroke="#da2d4f" stroke-width="2" points="347,-1030.03 343.5,-1020.03 340,-1030.03 347,-1030.03"/>
</g>
<!-- node6 -->
<g id="node4" class="node">
<title>node6</title>
<polygon fill="#f9f9f9" stroke="black" points="516.5,-939 462.5,-939 462.5,-903 516.5,-903 516.5,-939"/>
<text text-anchor="middle" x="489.5" y="-917.3" font-family="Arial" font-size="14.00" fill="#1a1919">6 ϕ</text>
</g>
<!-- node5&#45;&gt;node6 -->
<g id="edge4" class="edge">
<title>node5&#45;&gt;node6</title>
<path fill="none" stroke="#343d46" stroke-dasharray="5,2" d="M384.06,-979.06C409.01,-965.55 440.3,-948.62 462.3,-936.72"/>
<polygon fill="#343d46" stroke="#343d46" points="382.31,-976.02 375.18,-983.86 385.64,-982.18 382.31,-976.02"/>
</g>
<!-- node13 -->
<g id="node7" class="node">
<title>node13</title>
<polygon fill="#e98693" stroke="black" points="334.5,-678 246.5,-678 246.5,-642 334.5,-642 334.5,-678"/>
<text text-anchor="middle" x="290.5" y="-656.3" font-family="Arial" font-size="14.00" fill="#1a1919">13 LoopExit</text>
</g>
<!-- node5&#45;&gt;node13 -->
<g id="edge10" class="edge">
<title>node5&#45;&gt;node13</title>
<path fill="none" stroke="#343d46" stroke-dasharray="5,2" d="M333.68,-974.01C329.04,-958.92 324.5,-939.65 324.5,-922 324.5,-922 324.5,-922 324.5,-746 324.5,-721.05 311.71,-694.73 301.82,-678.11"/>
<polygon fill="#343d46" stroke="#343d46" points="330.42,-975.3 336.85,-983.72 337.07,-973.12 330.42,-975.3"/>
</g>
<!-- node15 -->
<g id="node8" class="node">
<title>node15</title>
<polygon fill="#e98693" stroke="black" points="249.5,-765 195.5,-765 195.5,-729 249.5,-729 249.5,-765"/>
<text text-anchor="middle" x="222.5" y="-743.3" font-family="Arial" font-size="14.00" fill="#1a1919">15 If</text>
</g>
<!-- node5&#45;&gt;node15 -->
<g id="edge3" class="edge">
<title>node5&#45;&gt;node15</title>
<path fill="none" stroke="#da2d4f" stroke-width="2" d="M297.29,-989.25C270.64,-980.02 238.86,-964.38 220.5,-939 185.19,-890.18 201.01,-814.45 213.17,-774.6"/>
<polygon fill="#da2d4f" stroke="#da2d4f" stroke-width="2" points="216.51,-775.64 216.22,-765.05 209.84,-773.51 216.51,-775.64"/>
</g>
<!-- node33 -->
<g id="node20" class="node">
<title>node33</title>
<polygon fill="#e98693" stroke="black" points="200,-109 111,-109 111,-73 200,-73 200,-109"/>
<text text-anchor="middle" x="155.5" y="-87.3" font-family="Arial" font-size="14.00" fill="#1a1919">33 LoopEnd</text>
</g>
<!-- node5&#45;&gt;node33 -->
<g id="edge35" class="edge">
<title>node5&#45;&gt;node33</title>
<path fill="none" stroke="#da2d4f" stroke-width="4" d="M353.32,-974.01C357.96,-958.92 362.5,-939.65 362.5,-922 362.5,-922 362.5,-922 362.5,-163 362.5,-137.93 369.69,-158.11 209.5,-109 206.49,-108.08 203.39,-107.12 200.27,-106.15"/>
<polygon fill="#da2d4f" stroke="#da2d4f" stroke-width="4" points="349.93,-973.12 350.15,-983.72 356.58,-975.3 349.93,-973.12"/>
</g>
<!-- node10 -->
<g id="node5" class="node">
<title>node10</title>
<polygon fill="#3cb4a4" stroke="black" points="256.5,-852 216.11,-834 256.5,-816 296.89,-834 256.5,-852"/>
<text text-anchor="middle" x="256.5" y="-830.3" font-family="Arial" font-size="14.00" fill="#1a1919">10 &lt;</text>
</g>
<!-- node6&#45;&gt;node10 -->
<g id="edge7" class="edge">
<title>node6&#45;&gt;node10</title>
<path fill="none" stroke="#3cb4a4" d="M468.42,-902.84C454.02,-891.94 434.08,-878.35 414.5,-870 376.49,-853.79 330,-844.66 297.32,-839.81"/>
<polygon fill="#3cb4a4" stroke="#3cb4a4" points="297.62,-836.32 287.23,-838.39 296.64,-843.25 297.62,-836.32"/>
<text text-anchor="middle" x="445" y="-873.8" font-family="arial" font-size="14.00" fill="#3cb4a4">x</text>
</g>
<!-- node27 -->
<g id="node16" class="node">
<title>node27</title>
<polygon fill="#da2d4f" stroke="black" points="454.5,-109 218.5,-109 218.5,-73 454.5,-73 454.5,-109"/>
<text text-anchor="middle" x="336.5" y="-87.3" font-family="Arial" font-size="14.00" fill="#ffffff">27 StoreField JavaExamples.intField</text>
</g>
<!-- node6&#45;&gt;node27 -->
<g id="edge28" class="edge">
<title>node6&#45;&gt;node27</title>
<path fill="none" stroke="#3cb4a4" d="M515.59,-902.71C535.13,-887.47 558.5,-863.32 558.5,-835 558.5,-835 558.5,-835 558.5,-163 558.5,-139.38 512.35,-122.54 462.14,-111.21"/>
<polygon fill="#3cb4a4" stroke="#3cb4a4" points="462.57,-107.72 452.05,-109.02 461.08,-114.56 462.57,-107.72"/>
<text text-anchor="middle" x="575" y="-502.3" font-family="arial" font-size="14.00" fill="#3cb4a4">value</text>
</g>
<!-- node32 -->
<g id="node19" class="node">
<title>node32</title>
<polygon fill="#3cb4a4" stroke="black" points="466.5,-852 426.11,-834 466.5,-816 506.89,-834 466.5,-852"/>
<text text-anchor="middle" x="466.5" y="-830.3" font-family="Arial" font-size="14.00" fill="#1a1919">32 +</text>
</g>
<!-- node6&#45;&gt;node32 -->
<g id="edge33" class="edge">
<title>node6&#45;&gt;node32</title>
<path fill="none" stroke="#3cb4a4" d="M477.66,-902.91C474.44,-897.43 471.34,-891.17 469.5,-885 467.34,-877.75 466.3,-869.65 465.87,-862.12"/>
<polygon fill="#3cb4a4" stroke="#3cb4a4" points="469.37,-861.91 465.62,-852 462.37,-862.08 469.37,-861.91"/>
<text text-anchor="middle" x="473" y="-873.8" font-family="arial" font-size="14.00" fill="#3cb4a4">x</text>
</g>
<!-- node10&#45;&gt;node15 -->
<g id="edge12" class="edge">
<title>node10&#45;&gt;node15</title>
<path fill="none" stroke="#3cb4a4" d="M250.58,-818.19C245.79,-806.21 238.91,-789.03 233.17,-774.67"/>
<polygon fill="#3cb4a4" stroke="#3cb4a4" points="236.37,-773.26 229.41,-765.27 229.87,-775.86 236.37,-773.26"/>
<text text-anchor="middle" x="246.5" y="-786.8" font-family="arial" font-size="14.00" fill="#3cb4a4">?</text>
</g>
<!-- node11 -->
<g id="node6" class="node">
<title>node11</title>
<polygon fill="#e98693" stroke="black" points="155,-678 86,-678 86,-642 155,-642 155,-678"/>
<text text-anchor="middle" x="120.5" y="-656.3" font-family="Arial" font-size="14.00" fill="#1a1919">11 Begin</text>
</g>
<!-- node17 -->
<g id="node9" class="node">
<title>node17</title>
<polygon fill="#e98693" stroke="black" points="141,-597 82,-597 82,-561 141,-561 141,-597"/>
<text text-anchor="middle" x="111.5" y="-575.3" font-family="Arial" font-size="14.00" fill="#1a1919">17 End</text>
</g>
<!-- node11&#45;&gt;node17 -->
<g id="edge9" class="edge">
<title>node11&#45;&gt;node17</title>
<path fill="none" stroke="#da2d4f" stroke-width="2" d="M118.55,-641.86C117.39,-631.71 115.9,-618.63 114.59,-607.12"/>
<polygon fill="#da2d4f" stroke="#da2d4f" stroke-width="2" points="118.06,-606.65 113.45,-597.11 111.1,-607.44 118.06,-606.65"/>
</g>
<!-- node34 -->
<g id="node21" class="node">
<title>node34</title>
<polygon fill="#e98693" stroke="black" points="270.5,-597 194.5,-597 194.5,-561 270.5,-561 270.5,-597"/>
<text text-anchor="middle" x="232.5" y="-575.3" font-family="Arial" font-size="14.00" fill="#1a1919">34 Return</text>
</g>
<!-- node13&#45;&gt;node34 -->
<g id="edge11" class="edge">
<title>node13&#45;&gt;node34</title>
<path fill="none" stroke="#da2d4f" stroke-width="2" d="M277.91,-641.86C270.09,-631.2 259.88,-617.29 251.12,-605.37"/>
<polygon fill="#da2d4f" stroke="#da2d4f" stroke-width="2" points="253.8,-603.1 245.06,-597.11 248.16,-607.24 253.8,-603.1"/>
</g>
<!-- node15&#45;&gt;node11 -->
<g id="edge14" class="edge">
<title>node15&#45;&gt;node11</title>
<path fill="none" stroke="#da2d4f" stroke-width="2" d="M201.86,-728.8C186.65,-716.13 165.78,-698.73 148.99,-684.74"/>
<polygon fill="#da2d4f" stroke="#da2d4f" stroke-width="2" points="151.03,-681.89 141.11,-678.18 146.55,-687.27 151.03,-681.89"/>
<text text-anchor="middle" x="183" y="-699.8" font-family="arial" font-size="14.00" fill="#da2d4f">F</text>
</g>
<!-- node15&#45;&gt;node13 -->
<g id="edge13" class="edge">
<title>node15&#45;&gt;node13</title>
<path fill="none" stroke="#da2d4f" stroke-width="2" d="M236.26,-728.8C246.03,-716.59 259.31,-699.99 270.28,-686.28"/>
<polygon fill="#da2d4f" stroke="#da2d4f" stroke-width="2" points="273.25,-688.17 276.76,-678.18 267.78,-683.8 273.25,-688.17"/>
<text text-anchor="middle" x="266" y="-699.8" font-family="arial" font-size="14.00" fill="#da2d4f">T</text>
</g>
<!-- node18 -->
<g id="node10" class="node">
<title>node18</title>
<polygon fill="#e98693" stroke="black" points="158.5,-524 58.5,-524 58.5,-488 158.5,-488 158.5,-524"/>
<text text-anchor="middle" x="108.5" y="-502.3" font-family="Arial" font-size="14.00" fill="#1a1919">18 LoopBegin</text>
</g>
<!-- node17&#45;&gt;node18 -->
<g id="edge15" class="edge">
<title>node17&#45;&gt;node18</title>
<path fill="none" stroke="#da2d4f" stroke-width="2" d="M110.77,-560.81C110.43,-552.79 110.02,-543.05 109.64,-534.07"/>
<polygon fill="#da2d4f" stroke="#da2d4f" stroke-width="2" points="113.14,-533.87 109.22,-524.03 106.14,-534.17 113.14,-533.87"/>
</g>
<!-- node19 -->
<g id="node11" class="node">
<title>node19</title>
<polygon fill="#f9f9f9" stroke="black" points="262.5,-443 208.5,-443 208.5,-407 262.5,-407 262.5,-443"/>
<text text-anchor="middle" x="235.5" y="-421.3" font-family="Arial" font-size="14.00" fill="#1a1919">19 ϕ</text>
</g>
<!-- node18&#45;&gt;node19 -->
<g id="edge17" class="edge">
<title>node18&#45;&gt;node19</title>
<path fill="none" stroke="#343d46" stroke-dasharray="5,2" d="M144.72,-482.47C165,-469.85 189.86,-454.39 208.43,-442.84"/>
<polygon fill="#343d46" stroke="#343d46" points="142.7,-479.6 136.06,-487.86 146.4,-485.55 142.7,-479.6"/>
</g>
<!-- node24 -->
<g id="node14" class="node">
<title>node24</title>
<polygon fill="#e98693" stroke="black" points="199.5,-182 111.5,-182 111.5,-146 199.5,-146 199.5,-182"/>
<text text-anchor="middle" x="155.5" y="-160.3" font-family="Arial" font-size="14.00" fill="#1a1919">24 LoopExit</text>
</g>
<!-- node18&#45;&gt;node24 -->
<g id="edge23" class="edge">
<title>node18&#45;&gt;node24</title>
<path fill="none" stroke="#343d46" stroke-dasharray="5,2" d="M89.03,-479.37C79.69,-464.58 70.5,-445.16 70.5,-426 70.5,-426 70.5,-426 70.5,-250 70.5,-219.74 97.77,-196.49 121.42,-182.02"/>
<polygon fill="#343d46" stroke="#343d46" points="86.3,-481.58 94.78,-487.93 92.11,-477.68 86.3,-481.58"/>
</g>
<!-- node26 -->
<g id="node15" class="node">
<title>node26</title>
<polygon fill="#e98693" stroke="black" points="283.5,-269 229.5,-269 229.5,-233 283.5,-233 283.5,-269"/>
<text text-anchor="middle" x="256.5" y="-247.3" font-family="Arial" font-size="14.00" fill="#1a1919">26 If</text>
</g>
<!-- node18&#45;&gt;node26 -->
<g id="edge16" class="edge">
<title>node18&#45;&gt;node26</title>
<path fill="none" stroke="#da2d4f" stroke-width="2" d="M106.19,-487.92C102.41,-453.02 98.55,-372.43 134.5,-320 154.61,-290.66 191.74,-272.62 219.77,-262.56"/>
<polygon fill="#da2d4f" stroke="#da2d4f" stroke-width="2" points="220.93,-265.86 229.27,-259.33 218.67,-259.23 220.93,-265.86"/>
</g>
<!-- node31 -->
<g id="node18" class="node">
<title>node31</title>
<polygon fill="#e98693" stroke="black" points="89,-36 0,-36 0,0 89,0 89,-36"/>
<text text-anchor="middle" x="44.5" y="-14.3" font-family="Arial" font-size="14.00" fill="#1a1919">31 LoopEnd</text>
</g>
<!-- node18&#45;&gt;node31 -->
<g id="edge32" class="edge">
<title>node18&#45;&gt;node31</title>
<path fill="none" stroke="#da2d4f" stroke-width="4" d="M67.95,-481.9C49.84,-468.33 32.5,-449.27 32.5,-426 32.5,-426 32.5,-426 32.5,-90 32.5,-71.37 36.57,-50.38 39.96,-36.08"/>
<polygon fill="#da2d4f" stroke="#da2d4f" stroke-width="4" points="66.07,-484.86 76.27,-487.74 70.1,-479.13 66.07,-484.86"/>
</g>
<!-- node21 -->
<g id="node12" class="node">
<title>node21</title>
<polygon fill="#3cb4a4" stroke="black" points="283.5,-356 243.11,-338 283.5,-320 323.89,-338 283.5,-356"/>
<text text-anchor="middle" x="283.5" y="-334.3" font-family="Arial" font-size="14.00" fill="#1a1919">21 &lt;</text>
</g>
<!-- node19&#45;&gt;node21 -->
<g id="edge20" class="edge">
<title>node19&#45;&gt;node21</title>
<path fill="none" stroke="#3cb4a4" d="M249.53,-406.72C253.66,-401.23 258,-395.02 261.5,-389 266.23,-380.87 270.6,-371.53 274.17,-363.15"/>
<polygon fill="#3cb4a4" stroke="#3cb4a4" points="277.42,-364.45 277.98,-353.87 270.95,-361.79 277.42,-364.45"/>
<text text-anchor="middle" x="273" y="-377.8" font-family="arial" font-size="14.00" fill="#3cb4a4">x</text>
</g>
<!-- node30 -->
<g id="node17" class="node">
<title>node30</title>
<polygon fill="#3cb4a4" stroke="black" points="183.5,-356 143.11,-338 183.5,-320 223.89,-338 183.5,-356"/>
<text text-anchor="middle" x="183.5" y="-334.3" font-family="Arial" font-size="14.00" fill="#1a1919">30 +</text>
</g>
<!-- node19&#45;&gt;node30 -->
<g id="edge30" class="edge">
<title>node19&#45;&gt;node30</title>
<path fill="none" stroke="#3cb4a4" d="M208.2,-407.42C201.8,-402.28 195.64,-396.08 191.5,-389 187.54,-382.22 185.37,-374.07 184.22,-366.35"/>
<polygon fill="#3cb4a4" stroke="#3cb4a4" points="187.69,-365.85 183.22,-356.24 180.72,-366.54 187.69,-365.85"/>
<text text-anchor="middle" x="195" y="-377.8" font-family="arial" font-size="14.00" fill="#3cb4a4">x</text>
</g>
<!-- node21&#45;&gt;node26 -->
<g id="edge25" class="edge">
<title>node21&#45;&gt;node26</title>
<path fill="none" stroke="#3cb4a4" d="M278.67,-321.8C274.89,-309.89 269.53,-293.02 265.03,-278.84"/>
<polygon fill="#3cb4a4" stroke="#3cb4a4" points="268.3,-277.58 261.93,-269.11 261.63,-279.7 268.3,-277.58"/>
<text text-anchor="middle" x="276.5" y="-290.8" font-family="arial" font-size="14.00" fill="#3cb4a4">?</text>
</g>
<!-- node22 -->
<g id="node13" class="node">
<title>node22</title>
<polygon fill="#e98693" stroke="black" points="324.5,-182 254.5,-182 254.5,-146 324.5,-146 324.5,-182"/>
<text text-anchor="middle" x="289.5" y="-160.3" font-family="Arial" font-size="14.00" fill="#1a1919">22 Begin</text>
</g>
<!-- node22&#45;&gt;node27 -->
<g id="edge22" class="edge">
<title>node22&#45;&gt;node27</title>
<path fill="none" stroke="#da2d4f" stroke-width="2" d="M300.88,-145.81C306.48,-137.35 313.34,-126.98 319.55,-117.61"/>
<polygon fill="#da2d4f" stroke="#da2d4f" stroke-width="2" points="322.63,-119.3 325.23,-109.03 316.79,-115.44 322.63,-119.3"/>
</g>
<!-- node24&#45;&gt;node33 -->
<g id="edge24" class="edge">
<title>node24&#45;&gt;node33</title>
<path fill="none" stroke="#da2d4f" stroke-width="2" d="M155.5,-145.81C155.5,-137.79 155.5,-128.05 155.5,-119.07"/>
<polygon fill="#da2d4f" stroke="#da2d4f" stroke-width="2" points="159,-119.03 155.5,-109.03 152,-119.03 159,-119.03"/>
</g>
<!-- node26&#45;&gt;node22 -->
<g id="edge27" class="edge">
<title>node26&#45;&gt;node22</title>
<path fill="none" stroke="#da2d4f" stroke-width="2" d="M263.18,-232.8C267.74,-221.05 273.88,-205.24 279.08,-191.84"/>
<polygon fill="#da2d4f" stroke="#da2d4f" stroke-width="2" points="282.48,-192.76 282.83,-182.18 275.95,-190.23 282.48,-192.76"/>
<text text-anchor="middle" x="280" y="-203.8" font-family="arial" font-size="14.00" fill="#da2d4f">F</text>
</g>
<!-- node26&#45;&gt;node24 -->
<g id="edge26" class="edge">
<title>node26&#45;&gt;node24</title>
<path fill="none" stroke="#da2d4f" stroke-width="2" d="M236.06,-232.8C221,-220.13 200.34,-202.73 183.71,-188.74"/>
<polygon fill="#da2d4f" stroke="#da2d4f" stroke-width="2" points="185.81,-185.94 175.91,-182.18 181.31,-191.29 185.81,-185.94"/>
<text text-anchor="middle" x="217" y="-203.8" font-family="arial" font-size="14.00" fill="#da2d4f">T</text>
</g>
<!-- node27&#45;&gt;node31 -->
<g id="edge29" class="edge">
<title>node27&#45;&gt;node31</title>
<path fill="none" stroke="#da2d4f" stroke-width="2" d="M266.56,-72.99C215.21,-60.51 146.44,-43.79 99.11,-32.28"/>
<polygon fill="#da2d4f" stroke="#da2d4f" stroke-width="2" points="99.89,-28.87 89.35,-29.9 98.24,-35.67 99.89,-28.87"/>
</g>
<!-- node30&#45;&gt;node19 -->
<g id="edge19" class="edge">
<title>node30&#45;&gt;node19</title>
<path fill="none" stroke="#3cb4a4" d="M190.6,-353.28C195.8,-363.43 203.19,-377.28 210.5,-389 212.47,-392.16 214.63,-395.43 216.82,-398.63"/>
<polygon fill="#3cb4a4" stroke="#3cb4a4" points="213.98,-400.68 222.6,-406.85 219.71,-396.65 213.98,-400.68"/>
<text text-anchor="middle" x="234" y="-377.8" font-family="arial" font-size="14.00" fill="#3cb4a4">from 31</text>
</g>
<!-- node32&#45;&gt;node6 -->
<g id="edge6" class="edge">
<title>node32&#45;&gt;node6</title>
<path fill="none" stroke="#3cb4a4" d="M470.61,-850.18C473.82,-862.07 478.38,-878.91 482.21,-893.07"/>
<polygon fill="#3cb4a4" stroke="#3cb4a4" points="478.86,-894.06 484.85,-902.8 485.61,-892.23 478.86,-894.06"/>
<text text-anchor="middle" x="503" y="-873.8" font-family="arial" font-size="14.00" fill="#3cb4a4">from 33</text>
</g>
<!-- inline1x6 -->
<g id="node22" class="node">
<title>inline1x6</title>
<ellipse fill="#d7ede7" stroke="black" cx="489.5" cy="-1002" rx="27" ry="18"/>
<text text-anchor="middle" x="489.5" y="-1000.1" font-family="Arial" font-size="8.00" fill="#1a1919">1 P(0)</text>
</g>
<!-- inline1x6&#45;&gt;node6 -->
<g id="edge5" class="edge">
<title>inline1x6&#45;&gt;node6</title>
<path fill="none" stroke="#3cb4a4" d="M489.5,-983.86C489.5,-970.61 489.5,-952.35 489.5,-939.11"/>
<text text-anchor="middle" x="501.5" y="-959.6" font-family="arial" font-size="8.00" fill="#3cb4a4">from 4</text>
</g>
<!-- inline9x10 -->
<g id="node23" class="node">
<title>inline9x10</title>
<ellipse fill="#d7ede7" stroke="black" cx="256.5" cy="-921" rx="27" ry="18"/>
<text text-anchor="middle" x="256.5" y="-919.1" font-family="Arial" font-size="8.00" fill="#1a1919">9 C(1)</text>
</g>
<!-- inline9x10&#45;&gt;node10 -->
<g id="edge8" class="edge">
<title>inline9x10&#45;&gt;node10</title>
<path fill="none" stroke="#3cb4a4" d="M256.5,-902.8C256.5,-888.05 256.5,-866.92 256.5,-852.18"/>
<text text-anchor="middle" x="258.5" y="-875.6" font-family="arial" font-size="8.00" fill="#3cb4a4">y</text>
</g>
<!-- inline1x19 -->
<g id="node24" class="node">
<title>inline1x19</title>
<ellipse fill="#d7ede7" stroke="black" cx="235.5" cy="-506" rx="27" ry="18"/>
<text text-anchor="middle" x="235.5" y="-504.1" font-family="Arial" font-size="8.00" fill="#1a1919">1 P(0)</text>
</g>
<!-- inline1x19&#45;&gt;node19 -->
<g id="edge18" class="edge">
<title>inline1x19&#45;&gt;node19</title>
<path fill="none" stroke="#3cb4a4" d="M235.5,-487.86C235.5,-474.61 235.5,-456.35 235.5,-443.11"/>
<text text-anchor="middle" x="249.5" y="-463.6" font-family="arial" font-size="8.00" fill="#3cb4a4">from 17</text>
</g>
<!-- inline9x21 -->
<g id="node25" class="node">
<title>inline9x21</title>
<ellipse fill="#d7ede7" stroke="black" cx="307.5" cy="-425" rx="27" ry="18"/>
<text text-anchor="middle" x="307.5" y="-423.1" font-family="Arial" font-size="8.00" fill="#1a1919">9 C(1)</text>
</g>
<!-- inline9x21&#45;&gt;node21 -->
<g id="edge21" class="edge">
<title>inline9x21&#45;&gt;node21</title>
<path fill="none" stroke="#3cb4a4" d="M302.76,-407.21C298.41,-391.82 292.04,-369.24 287.83,-354.33"/>
<text text-anchor="middle" x="299.5" y="-379.6" font-family="arial" font-size="8.00" fill="#3cb4a4">y</text>
</g>
<!-- inline29x30 -->
<g id="node26" class="node">
<title>inline29x30</title>
<ellipse fill="#d7ede7" stroke="black" cx="163.5" cy="-425" rx="27" ry="18"/>
<text text-anchor="middle" x="163.5" y="-423.1" font-family="Arial" font-size="8.00" fill="#1a1919">29 C(&#45;1)</text>
</g>
<!-- inline29x30&#45;&gt;node30 -->
<g id="edge31" class="edge">
<title>inline29x30&#45;&gt;node30</title>
<path fill="none" stroke="#3cb4a4" d="M160.78,-407.03C159.78,-397.21 159.53,-384.71 162.5,-374 164.69,-366.08 169.21,-358.15 173.5,-351.85"/>
<text text-anchor="middle" x="164.5" y="-379.6" font-family="arial" font-size="8.00" fill="#3cb4a4">y</text>
</g>
<!-- inline29x32 -->
<g id="node27" class="node">
<title>inline29x32</title>
<ellipse fill="#d7ede7" stroke="black" cx="417.5" cy="-921" rx="27" ry="18"/>
<text text-anchor="middle" x="417.5" y="-919.1" font-family="Arial" font-size="8.00" fill="#1a1919">29 C(&#45;1)</text>
</g>
<!-- inline29x32&#45;&gt;node32 -->
<g id="edge34" class="edge">
<title>inline29x32&#45;&gt;node32</title>
<path fill="none" stroke="#3cb4a4" d="M412.7,-902.85C410.84,-892.73 410.24,-879.99 415.5,-870 422,-857.65 435.05,-848.82 446.32,-843.11"/>
<text text-anchor="middle" x="417.5" y="-875.6" font-family="arial" font-size="8.00" fill="#3cb4a4">y</text>
</g>
<!-- inline1x34 -->
<g id="node28" class="node">
<title>inline1x34</title>
<ellipse fill="#d7ede7" stroke="black" cx="201.5" cy="-660" rx="27" ry="18"/>
<text text-anchor="middle" x="201.5" y="-658.1" font-family="Arial" font-size="8.00" fill="#1a1919">1 P(0)</text>
</g>
<!-- inline1x34&#45;&gt;node34 -->
<g id="edge36" class="edge">
<title>inline1x34&#45;&gt;node34</title>
<path fill="none" stroke="#3cb4a4" d="M208.07,-642.25C213.3,-628.93 220.58,-610.38 225.83,-597"/>
<text text-anchor="middle" x="228.5" y="-617.6" font-family="arial" font-size="8.00" fill="#3cb4a4">result</text>
</g>
</g>
</svg>
