<?xml version="1.0" encoding="UTF-8" standalone="no"?>
<!DOCTYPE svg PUBLIC "-//W3C//DTD SVG 1.1//EN"
 "http://www.w3.org/Graphics/SVG/1.1/DTD/svg11.dtd">
<!-- Generated by graphviz version 2.44.0 (20200408.0750)
 -->
<!-- Title: G Pages: 1 -->
<svg width="553pt" height="940pt"
 viewBox="0.00 0.00 553.00 940.00" xmlns="http://www.w3.org/2000/svg" xmlns:xlink="http://www.w3.org/1999/xlink">
<g id="graph0" class="graph" transform="scale(1 1) rotate(0) translate(4 936)">
<title>G</title>
<!-- node0 -->
<g id="node1" class="node">
<title>node0</title>
<polygon fill="#e98693" stroke="black" points="104,-932 48,-932 48,-896 104,-896 104,-932"/>
<text text-anchor="middle" x="76" y="-910.3" font-family="Arial" font-size="14.00" fill="#1a1919">0 Start</text>
</g>
<!-- node4 -->
<g id="node2" class="node">
<title>node4</title>
<polygon fill="#e98693" stroke="black" points="103,-859 49,-859 49,-823 103,-823 103,-859"/>
<text text-anchor="middle" x="76" y="-837.3" font-family="Arial" font-size="14.00" fill="#1a1919">4 End</text>
</g>
<!-- node0&#45;&gt;node4 -->
<g id="edge1" class="edge">
<title>node0&#45;&gt;node4</title>
<path fill="none" stroke="#da2d4f" stroke-width="2" d="M76,-895.81C76,-887.79 76,-878.05 76,-869.07"/>
<polygon fill="#da2d4f" stroke="#da2d4f" stroke-width="2" points="79.5,-869.03 76,-859.03 72.5,-869.03 79.5,-869.03"/>
</g>
<!-- node5 -->
<g id="node3" class="node">
<title>node5</title>
<polygon fill="#e98693" stroke="black" points="122,-786 30,-786 30,-750 122,-750 122,-786"/>
<text text-anchor="middle" x="76" y="-764.3" font-family="Arial" font-size="14.00" fill="#1a1919">5 LoopBegin</text>
</g>
<!-- node4&#45;&gt;node5 -->
<g id="edge2" class="edge">
<title>node4&#45;&gt;node5</title>
<path fill="none" stroke="#da2d4f" stroke-width="2" d="M76,-822.81C76,-814.79 76,-805.05 76,-796.07"/>
<polygon fill="#da2d4f" stroke="#da2d4f" stroke-width="2" points="79.5,-796.03 76,-786.03 72.5,-796.03 79.5,-796.03"/>
</g>
<!-- node6 -->
<g id="node4" class="node">
<title>node6</title>
<polygon fill="#f9f9f9" stroke="black" points="338,-705 284,-705 284,-669 338,-669 338,-705"/>
<text text-anchor="middle" x="311" y="-683.3" font-family="Arial" font-size="14.00" fill="#1a1919">6 ϕ</text>
</g>
<!-- node5&#45;&gt;node6 -->
<g id="edge4" class="edge">
<title>node5&#45;&gt;node6</title>
<path fill="none" stroke="#343d46" stroke-dasharray="5,2" d="M131.76,-748.26C179.64,-732.16 246.64,-709.64 283.67,-697.19"/>
<polygon fill="#343d46" stroke="#343d46" points="130.51,-744.98 122.15,-751.49 132.74,-751.62 130.51,-744.98"/>
</g>
<!-- node13 -->
<g id="node7" class="node">
<title>node13</title>
<polygon fill="#e98693" stroke="black" points="134,-444 46,-444 46,-408 134,-408 134,-444"/>
<text text-anchor="middle" x="90" y="-422.3" font-family="Arial" font-size="14.00" fill="#1a1919">13 LoopExit</text>
</g>
<!-- node5&#45;&gt;node13 -->
<g id="edge10" class="edge">
<title>node5&#45;&gt;node13</title>
<path fill="none" stroke="#343d46" stroke-dasharray="5,2" d="M56.53,-741.37C47.19,-726.58 38,-707.16 38,-688 38,-688 38,-688 38,-512 38,-485.36 56.82,-460.01 71.81,-444.04"/>
<polygon fill="#343d46" stroke="#343d46" points="53.8,-743.58 62.28,-749.93 59.61,-739.68 53.8,-743.58"/>
</g>
<!-- node15 -->
<g id="node8" class="node">
<title>node15</title>
<polygon fill="#e98693" stroke="black" points="155,-531 101,-531 101,-495 155,-495 155,-531"/>
<text text-anchor="middle" x="128" y="-509.3" font-family="Arial" font-size="14.00" fill="#1a1919">15 If</text>
</g>
<!-- node5&#45;&gt;node15 -->
<g id="edge3" class="edge">
<title>node5&#45;&gt;node15</title>
<path fill="none" stroke="#da2d4f" stroke-width="2" d="M75.79,-749.79C75.81,-716.65 77.95,-641.94 95,-582 99.12,-567.52 106.18,-552.35 112.71,-540.03"/>
<polygon fill="#da2d4f" stroke="#da2d4f" stroke-width="2" points="115.8,-541.67 117.55,-531.22 109.67,-538.3 115.8,-541.67"/>
</g>
<!-- node20 -->
<g id="node11" class="node">
<title>node20</title>
<polygon fill="#e98693" stroke="black" points="88,-263 0,-263 0,-227 88,-227 88,-263"/>
<text text-anchor="middle" x="44" y="-241.3" font-family="Arial" font-size="14.00" fill="#1a1919">20 LoopExit</text>
</g>
<!-- node5&#45;&gt;node20 -->
<g id="edge18" class="edge">
<title>node5&#45;&gt;node20</title>
<path fill="none" stroke="#343d46" stroke-dasharray="5,2" d="M35.45,-743.9C17.34,-730.33 0,-711.27 0,-688 0,-688 0,-688 0,-352 0,-318.53 18.95,-283.34 31.98,-263.1"/>
<polygon fill="#343d46" stroke="#343d46" points="33.57,-746.86 43.77,-749.74 37.6,-741.13 33.57,-746.86"/>
</g>
<!-- node27 -->
<g id="node15" class="node">
<title>node27</title>
<polygon fill="#e98693" stroke="black" points="357.5,-117 268.5,-117 268.5,-81 357.5,-81 357.5,-117"/>
<text text-anchor="middle" x="313" y="-95.3" font-family="Arial" font-size="14.00" fill="#1a1919">27 LoopEnd</text>
</g>
<!-- node5&#45;&gt;node27 -->
<g id="edge27" class="edge">
<title>node5&#45;&gt;node27</title>
<path fill="none" stroke="#da2d4f" stroke-width="4" d="M132.24,-767.7C244.35,-767.56 485,-759.01 485,-688 485,-688 485,-688 485,-171 485,-164.11 408.7,-134.91 357.74,-116.17"/>
<polygon fill="#da2d4f" stroke="#da2d4f" stroke-width="4" points="132.13,-764.2 122.12,-767.69 132.12,-771.2 132.13,-764.2"/>
</g>
<!-- node10 -->
<g id="node5" class="node">
<title>node10</title>
<polygon fill="#3cb4a4" stroke="black" points="144,-618 103.61,-600 144,-582 184.39,-600 144,-618"/>
<text text-anchor="middle" x="144" y="-596.3" font-family="Arial" font-size="14.00" fill="#1a1919">10 &lt;</text>
</g>
<!-- node6&#45;&gt;node10 -->
<g id="edge7" class="edge">
<title>node6&#45;&gt;node10</title>
<path fill="none" stroke="#3cb4a4" d="M285.38,-668.94C269.5,-658.74 248.48,-645.87 229,-636 211.55,-627.16 191.33,-618.76 174.99,-612.41"/>
<polygon fill="#3cb4a4" stroke="#3cb4a4" points="175.96,-609.03 165.37,-608.73 173.46,-615.57 175.96,-609.03"/>
<text text-anchor="middle" x="258.5" y="-639.8" font-family="arial" font-size="14.00" fill="#3cb4a4">x</text>
</g>
<!-- node17 -->
<g id="node9" class="node">
<title>node17</title>
<polygon fill="#3cb4a4" stroke="black" points="250,-618 202.41,-600 250,-582 297.59,-600 250,-618"/>
<text text-anchor="middle" x="250" y="-596.3" font-family="Arial" font-size="14.00" fill="#1a1919">17 ==</text>
</g>
<!-- node6&#45;&gt;node17 -->
<g id="edge15" class="edge">
<title>node6&#45;&gt;node17</title>
<path fill="none" stroke="#3cb4a4" d="M298.66,-668.8C289.14,-655.54 275.92,-637.12 265.66,-622.83"/>
<polygon fill="#3cb4a4" stroke="#3cb4a4" points="268.39,-620.63 259.72,-614.54 262.71,-624.71 268.39,-620.63"/>
<text text-anchor="middle" x="288.5" y="-639.8" font-family="arial" font-size="14.00" fill="#3cb4a4">x</text>
</g>
<!-- node23 -->
<g id="node13" class="node">
<title>node23</title>
<polygon fill="#da2d4f" stroke="black" points="431,-190 195,-190 195,-154 431,-154 431,-190"/>
<text text-anchor="middle" x="313" y="-168.3" font-family="Arial" font-size="14.00" fill="#ffffff">23 StoreField JavaExamples.intField</text>
</g>
<!-- node6&#45;&gt;node23 -->
<g id="edge23" class="edge">
<title>node6&#45;&gt;node23</title>
<path fill="none" stroke="#3cb4a4" d="M338.19,-673.25C349.74,-667.25 363.04,-659.54 374,-651 411.17,-622.04 424,-604.62 424,-557.5 424,-557.5 424,-557.5 424,-244 424,-221.08 407,-205.23 386.3,-194.42"/>
<polygon fill="#3cb4a4" stroke="#3cb4a4" points="387.78,-191.24 377.25,-190.09 384.76,-197.56 387.78,-191.24"/>
<text text-anchor="middle" x="440.5" y="-422.3" font-family="arial" font-size="14.00" fill="#3cb4a4">value</text>
</g>
<!-- node26 -->
<g id="node14" class="node">
<title>node26</title>
<polygon fill="#3cb4a4" stroke="black" points="356,-618 315.61,-600 356,-582 396.39,-600 356,-618"/>
<text text-anchor="middle" x="356" y="-596.3" font-family="Arial" font-size="14.00" fill="#1a1919">26 +</text>
</g>
<!-- node6&#45;&gt;node26 -->
<g id="edge25" class="edge">
<title>node6&#45;&gt;node26</title>
<path fill="none" stroke="#3cb4a4" d="M338.05,-672.76C346.31,-667.25 354.42,-660.01 359,-651 362.82,-643.48 363.32,-634.48 362.46,-626.19"/>
<polygon fill="#3cb4a4" stroke="#3cb4a4" points="365.9,-625.54 360.79,-616.26 358.99,-626.7 365.9,-625.54"/>
<text text-anchor="middle" x="366.5" y="-639.8" font-family="arial" font-size="14.00" fill="#3cb4a4">x</text>
</g>
<!-- node10&#45;&gt;node15 -->
<g id="edge12" class="edge">
<title>node10&#45;&gt;node15</title>
<path fill="none" stroke="#3cb4a4" d="M140.99,-583.01C138.77,-571.21 135.69,-554.86 133.09,-541.04"/>
<polygon fill="#3cb4a4" stroke="#3cb4a4" points="136.51,-540.26 131.22,-531.08 129.63,-541.56 136.51,-540.26"/>
<text text-anchor="middle" x="141" y="-552.8" font-family="arial" font-size="14.00" fill="#3cb4a4">?</text>
</g>
<!-- node11 -->
<g id="node6" class="node">
<title>node11</title>
<polygon fill="#e98693" stroke="black" points="221.5,-444 152.5,-444 152.5,-408 221.5,-408 221.5,-444"/>
<text text-anchor="middle" x="187" y="-422.3" font-family="Arial" font-size="14.00" fill="#1a1919">11 Begin</text>
</g>
<!-- node22 -->
<g id="node12" class="node">
<title>node22</title>
<polygon fill="#e98693" stroke="black" points="255,-371 201,-371 201,-335 255,-335 255,-371"/>
<text text-anchor="middle" x="228" y="-349.3" font-family="Arial" font-size="14.00" fill="#1a1919">22 If</text>
</g>
<!-- node11&#45;&gt;node22 -->
<g id="edge9" class="edge">
<title>node11&#45;&gt;node22</title>
<path fill="none" stroke="#da2d4f" stroke-width="2" d="M196.92,-407.81C201.76,-399.44 207.67,-389.2 213.04,-379.9"/>
<polygon fill="#da2d4f" stroke="#da2d4f" stroke-width="2" points="216.2,-381.44 218.17,-371.03 210.13,-377.94 216.2,-381.44"/>
</g>
<!-- node28 -->
<g id="node16" class="node">
<title>node28</title>
<polygon fill="#e98693" stroke="black" points="138.5,-317 79.5,-317 79.5,-281 138.5,-281 138.5,-317"/>
<text text-anchor="middle" x="109" y="-295.3" font-family="Arial" font-size="14.00" fill="#1a1919">28 End</text>
</g>
<!-- node13&#45;&gt;node28 -->
<g id="edge11" class="edge">
<title>node13&#45;&gt;node28</title>
<path fill="none" stroke="#da2d4f" stroke-width="2" d="M92.6,-407.88C95.75,-387.15 101.1,-351.95 104.83,-327.42"/>
<polygon fill="#da2d4f" stroke="#da2d4f" stroke-width="2" points="108.33,-327.73 106.37,-317.31 101.41,-326.67 108.33,-327.73"/>
</g>
<!-- node15&#45;&gt;node11 -->
<g id="edge14" class="edge">
<title>node15&#45;&gt;node11</title>
<path fill="none" stroke="#da2d4f" stroke-width="2" d="M139.94,-494.8C148.34,-482.7 159.72,-466.3 169.18,-452.67"/>
<polygon fill="#da2d4f" stroke="#da2d4f" stroke-width="2" points="172.25,-454.39 175.08,-444.18 166.5,-450.39 172.25,-454.39"/>
<text text-anchor="middle" x="166.5" y="-465.8" font-family="arial" font-size="14.00" fill="#da2d4f">F</text>
</g>
<!-- node15&#45;&gt;node13 -->
<g id="edge13" class="edge">
<title>node15&#45;&gt;node13</title>
<path fill="none" stroke="#da2d4f" stroke-width="2" d="M120.31,-494.8C115,-482.93 107.85,-466.93 101.82,-453.45"/>
<polygon fill="#da2d4f" stroke="#da2d4f" stroke-width="2" points="104.96,-451.88 97.68,-444.18 98.56,-454.73 104.96,-451.88"/>
<text text-anchor="middle" x="116.5" y="-465.8" font-family="arial" font-size="14.00" fill="#da2d4f">T</text>
</g>
<!-- node17&#45;&gt;node22 -->
<g id="edge20" class="edge">
<title>node17&#45;&gt;node22</title>
<path fill="none" stroke="#3cb4a4" d="M248.52,-582.54C244.81,-541.16 235.04,-432.43 230.45,-381.31"/>
<polygon fill="#3cb4a4" stroke="#3cb4a4" points="233.91,-380.68 229.53,-371.03 226.94,-381.3 233.91,-380.68"/>
<text text-anchor="middle" x="243" y="-465.8" font-family="arial" font-size="14.00" fill="#3cb4a4">?</text>
</g>
<!-- node18 -->
<g id="node10" class="node">
<title>node18</title>
<polygon fill="#e98693" stroke="black" points="298,-263 228,-263 228,-227 298,-227 298,-263"/>
<text text-anchor="middle" x="263" y="-241.3" font-family="Arial" font-size="14.00" fill="#1a1919">18 Begin</text>
</g>
<!-- node18&#45;&gt;node23 -->
<g id="edge17" class="edge">
<title>node18&#45;&gt;node23</title>
<path fill="none" stroke="#da2d4f" stroke-width="2" d="M275.1,-226.81C281.12,-218.27 288.51,-207.77 295.17,-198.32"/>
<polygon fill="#da2d4f" stroke="#da2d4f" stroke-width="2" points="298.11,-200.22 301.01,-190.03 292.39,-196.19 298.11,-200.22"/>
</g>
<!-- node30 -->
<g id="node18" class="node">
<title>node30</title>
<polygon fill="#e98693" stroke="black" points="84.5,-190 25.5,-190 25.5,-154 84.5,-154 84.5,-190"/>
<text text-anchor="middle" x="55" y="-168.3" font-family="Arial" font-size="14.00" fill="#1a1919">30 End</text>
</g>
<!-- node20&#45;&gt;node30 -->
<g id="edge19" class="edge">
<title>node20&#45;&gt;node30</title>
<path fill="none" stroke="#da2d4f" stroke-width="2" d="M46.66,-226.81C47.91,-218.79 49.42,-209.05 50.81,-200.07"/>
<polygon fill="#da2d4f" stroke="#da2d4f" stroke-width="2" points="54.29,-200.45 52.36,-190.03 47.37,-199.38 54.29,-200.45"/>
</g>
<!-- node22&#45;&gt;node18 -->
<g id="edge22" class="edge">
<title>node22&#45;&gt;node18</title>
<path fill="none" stroke="#da2d4f" stroke-width="2" d="M233.62,-334.97C239.15,-318.22 247.68,-292.41 254.12,-272.89"/>
<polygon fill="#da2d4f" stroke="#da2d4f" stroke-width="2" points="257.46,-273.93 257.27,-263.34 250.82,-271.74 257.46,-273.93"/>
<text text-anchor="middle" x="255.5" y="-295.3" font-family="arial" font-size="14.00" fill="#da2d4f">F</text>
</g>
<!-- node22&#45;&gt;node20 -->
<g id="edge21" class="edge">
<title>node22&#45;&gt;node20</title>
<path fill="none" stroke="#da2d4f" stroke-width="2" d="M212.44,-334.94C197.13,-319.06 172.43,-295.68 147,-281 131.97,-272.32 114.45,-265.36 98.17,-260"/>
<polygon fill="#da2d4f" stroke="#da2d4f" stroke-width="2" points="98.82,-256.54 88.23,-256.88 96.72,-263.22 98.82,-256.54"/>
<text text-anchor="middle" x="198.5" y="-295.3" font-family="arial" font-size="14.00" fill="#da2d4f">T</text>
</g>
<!-- node23&#45;&gt;node27 -->
<g id="edge24" class="edge">
<title>node23&#45;&gt;node27</title>
<path fill="none" stroke="#da2d4f" stroke-width="2" d="M313,-153.81C313,-145.79 313,-136.05 313,-127.07"/>
<polygon fill="#da2d4f" stroke="#da2d4f" stroke-width="2" points="316.5,-127.03 313,-117.03 309.5,-127.03 316.5,-127.03"/>
</g>
<!-- node26&#45;&gt;node6 -->
<g id="edge6" class="edge">
<title>node26&#45;&gt;node6</title>
<path fill="none" stroke="#3cb4a4" d="M338.16,-610.1C328.54,-616.05 317.54,-624.8 312,-636 308.56,-642.96 307.4,-651.15 307.35,-658.87"/>
<polygon fill="#3cb4a4" stroke="#3cb4a4" points="303.85,-659.13 307.85,-668.94 310.85,-658.78 303.85,-659.13"/>
<text text-anchor="middle" x="335.5" y="-639.8" font-family="arial" font-size="14.00" fill="#3cb4a4">from 27</text>
</g>
<!-- node29 -->
<g id="node17" class="node">
<title>node29</title>
<polygon fill="#e98693" stroke="black" points="153,-117 79,-117 79,-81 153,-81 153,-117"/>
<text text-anchor="middle" x="116" y="-95.3" font-family="Arial" font-size="14.00" fill="#1a1919">29 Merge</text>
</g>
<!-- node28&#45;&gt;node29 -->
<g id="edge28" class="edge">
<title>node28&#45;&gt;node29</title>
<path fill="none" stroke="#da2d4f" stroke-width="2" d="M109.61,-280.78C110.83,-246.31 113.57,-168.65 115.04,-127.22"/>
<polygon fill="#da2d4f" stroke="#da2d4f" stroke-width="2" points="118.54,-127.16 115.4,-117.04 111.55,-126.91 118.54,-127.16"/>
</g>
<!-- node32 -->
<g id="node19" class="node">
<title>node32</title>
<polygon fill="#e98693" stroke="black" points="323,-36 247,-36 247,0 323,0 323,-36"/>
<text text-anchor="middle" x="285" y="-14.3" font-family="Arial" font-size="14.00" fill="#1a1919">32 Return</text>
</g>
<!-- node29&#45;&gt;node32 -->
<g id="edge30" class="edge">
<title>node29&#45;&gt;node32</title>
<path fill="none" stroke="#da2d4f" stroke-width="2" d="M152.67,-80.86C178.03,-69 211.95,-53.15 239.1,-40.45"/>
<polygon fill="#da2d4f" stroke="#da2d4f" stroke-width="2" points="240.82,-43.51 248.4,-36.11 237.86,-37.17 240.82,-43.51"/>
</g>
<!-- node30&#45;&gt;node29 -->
<g id="edge29" class="edge">
<title>node30&#45;&gt;node29</title>
<path fill="none" stroke="#da2d4f" stroke-width="2" d="M69.77,-153.81C77.26,-145.09 86.5,-134.34 94.74,-124.75"/>
<polygon fill="#da2d4f" stroke="#da2d4f" stroke-width="2" points="97.51,-126.89 101.37,-117.03 92.2,-122.33 97.51,-126.89"/>
</g>
<!-- inline1x6 -->
<g id="node20" class="node">
<title>inline1x6</title>
<ellipse fill="#d7ede7" stroke="black" cx="518" cy="-768" rx="27" ry="18"/>
<text text-anchor="middle" x="518" y="-766.1" font-family="Arial" font-size="8.00" fill="#1a1919">1 P(0)</text>
</g>
<!-- inline1x6&#45;&gt;node6 -->
<g id="edge5" class="edge">
<title>inline1x6&#45;&gt;node6</title>
<path fill="none" stroke="#3cb4a4" d="M495.06,-758.24C456.64,-743.58 379.45,-714.13 338.3,-698.42"/>
<text text-anchor="middle" x="433" y="-725.6" font-family="arial" font-size="8.00" fill="#3cb4a4">from 4</text>
</g>
<!-- inline9x10 -->
<g id="node21" class="node">
<title>inline9x10</title>
<ellipse fill="#d7ede7" stroke="black" cx="144" cy="-687" rx="27" ry="18"/>
<text text-anchor="middle" x="144" y="-685.1" font-family="Arial" font-size="8.00" fill="#1a1919">9 C(1)</text>
</g>
<!-- inline9x10&#45;&gt;node10 -->
<g id="edge8" class="edge">
<title>inline9x10&#45;&gt;node10</title>
<path fill="none" stroke="#3cb4a4" d="M144,-668.8C144,-654.05 144,-632.92 144,-618.18"/>
<text text-anchor="middle" x="146" y="-641.6" font-family="arial" font-size="8.00" fill="#3cb4a4">y</text>
</g>
<!-- inline16x17 -->
<g id="node22" class="node">
<title>inline16x17</title>
<ellipse fill="#d7ede7" stroke="black" cx="224" cy="-687" rx="27" ry="18"/>
<text text-anchor="middle" x="224" y="-685.1" font-family="Arial" font-size="8.00" fill="#1a1919">16 C(4)</text>
</g>
<!-- inline16x17&#45;&gt;node17 -->
<g id="edge16" class="edge">
<title>inline16x17&#45;&gt;node17</title>
<path fill="none" stroke="#3cb4a4" d="M224.37,-668.97C224.99,-659.13 226.49,-646.63 230,-636 232.46,-628.56 236.6,-620.93 240.47,-614.7"/>
<text text-anchor="middle" x="232" y="-641.6" font-family="arial" font-size="8.00" fill="#3cb4a4">y</text>
</g>
<!-- inline25x26 -->
<g id="node23" class="node">
<title>inline25x26</title>
<ellipse fill="#d7ede7" stroke="black" cx="430" cy="-687" rx="27" ry="18"/>
<text text-anchor="middle" x="430" y="-685.1" font-family="Arial" font-size="8.00" fill="#1a1919">25 C(&#45;1)</text>
</g>
<!-- inline25x26&#45;&gt;node26 -->
<g id="edge26" class="edge">
<title>inline25x26&#45;&gt;node26</title>
<path fill="none" stroke="#3cb4a4" d="M416.77,-670.8C402.47,-654.38 379.95,-628.51 366.72,-613.31"/>
<text text-anchor="middle" x="400" y="-641.6" font-family="arial" font-size="8.00" fill="#3cb4a4">y</text>
</g>
<!-- inline1x32 -->
<g id="node24" class="node">
<title>inline1x32</title>
<ellipse fill="#d7ede7" stroke="black" cx="403" cy="-99" rx="27" ry="18"/>
<text text-anchor="middle" x="403" y="-97.1" font-family="Arial" font-size="8.00" fill="#1a1919">1 P(0)</text>
</g>
<!-- inline1x32&#45;&gt;node32 -->
<g id="edge31" class="edge">
<title>inline1x32&#45;&gt;node32</title>
<path fill="none" stroke="#3cb4a4" d="M384.56,-85.66C364.73,-72.38 333.04,-51.16 310.75,-36.24"/>
<text text-anchor="middle" x="358" y="-56.6" font-family="arial" font-size="8.00" fill="#3cb4a4">result</text>
</g>
</g>
</svg>
