<?xml version="1.0" encoding="UTF-8" standalone="no"?>
<!DOCTYPE svg PUBLIC "-//W3C//DTD SVG 1.1//EN"
 "http://www.w3.org/Graphics/SVG/1.1/DTD/svg11.dtd">
<!-- Generated by graphviz version 2.44.0 (20200408.0750)
 -->
<!-- Title: G Pages: 1 -->
<svg width="278pt" height="380pt"
 viewBox="0.00 0.00 278.00 380.00" xmlns="http://www.w3.org/2000/svg" xmlns:xlink="http://www.w3.org/1999/xlink">
<g id="graph0" class="graph" transform="scale(1 1) rotate(0) translate(4 376)">
<title>G</title>
<!-- node0 -->
<g id="node1" class="node">
<title>node0</title>
<polygon fill="#e98693" stroke="black" points="56,-372 0,-372 0,-336 56,-336 56,-372"/>
<text text-anchor="middle" x="28" y="-350.3" font-family="Arial" font-size="14.00" fill="#1a1919">0 Start</text>
</g>
<!-- node4 -->
<g id="node2" class="node">
<title>node4</title>
<polygon fill="#da2d4f" stroke="black" points="107.5,-291 20.5,-291 20.5,-255 107.5,-255 107.5,-291"/>
<text text-anchor="middle" x="64" y="-269.3" font-family="Arial" font-size="14.00" fill="#ffffff">4 NewArray</text>
</g>
<!-- node0&#45;&gt;node4 -->
<g id="edge1" class="edge">
<title>node0&#45;&gt;node4</title>
<path fill="none" stroke="#da2d4f" stroke-width="2" d="M35.81,-335.86C40.53,-325.51 46.64,-312.1 51.96,-300.41"/>
<polygon fill="#da2d4f" stroke="#da2d4f" stroke-width="2" points="55.24,-301.66 56.2,-291.11 48.87,-298.76 55.24,-301.66"/>
</g>
<!-- node6 -->
<g id="node3" class="node">
<title>node6</title>
<polygon fill="#da2d4f" stroke="black" points="198,-204 90,-204 90,-168 198,-168 198,-204"/>
<text text-anchor="middle" x="144" y="-182.3" font-family="Arial" font-size="14.00" fill="#ffffff">6 StoreIndexed</text>
</g>
<!-- node4&#45;&gt;node6 -->
<g id="edge3" class="edge">
<title>node4&#45;&gt;node6</title>
<path fill="none" stroke="#da2d4f" stroke-width="2" d="M66.23,-254.7C68.33,-244.28 72.34,-231.28 80,-222 83.77,-217.43 88.3,-213.37 93.18,-209.77"/>
<polygon fill="#da2d4f" stroke="#da2d4f" stroke-width="2" points="95.26,-212.59 101.67,-204.16 91.39,-206.75 95.26,-212.59"/>
</g>
<!-- node4&#45;&gt;node6 -->
<g id="edge4" class="edge">
<title>node4&#45;&gt;node6</title>
<path fill="none" stroke="#3cb4a4" d="M80.19,-254.8C91.9,-242.36 107.89,-225.36 120.94,-211.5"/>
<polygon fill="#3cb4a4" stroke="#3cb4a4" points="123.53,-213.86 127.83,-204.18 118.43,-209.06 123.53,-213.86"/>
<text text-anchor="middle" x="123.5" y="-225.8" font-family="arial" font-size="14.00" fill="#3cb4a4">array</text>
</g>
<!-- node8 -->
<g id="node4" class="node">
<title>node8</title>
<polygon fill="#da2d4f" stroke="black" points="197,-123 91,-123 91,-87 197,-87 197,-123"/>
<text text-anchor="middle" x="144" y="-101.3" font-family="Arial" font-size="14.00" fill="#ffffff">8 LoadIndexed</text>
</g>
<!-- node4&#45;&gt;node8 -->
<g id="edge8" class="edge">
<title>node4&#45;&gt;node8</title>
<path fill="none" stroke="#3cb4a4" d="M55.67,-254.67C46.57,-233.05 35.15,-195.59 50,-168 59.15,-151.01 75.22,-137.9 91.51,-128.21"/>
<polygon fill="#3cb4a4" stroke="#3cb4a4" points="93.52,-131.1 100.55,-123.17 90.11,-124.99 93.52,-131.1"/>
<text text-anchor="middle" x="65.5" y="-182.3" font-family="arial" font-size="14.00" fill="#3cb4a4">array</text>
</g>
<!-- node6&#45;&gt;node8 -->
<g id="edge7" class="edge">
<title>node6&#45;&gt;node8</title>
<path fill="none" stroke="#da2d4f" stroke-width="2" d="M144,-167.86C144,-157.71 144,-144.63 144,-133.12"/>
<polygon fill="#da2d4f" stroke="#da2d4f" stroke-width="2" points="147.5,-133.11 144,-123.11 140.5,-133.11 147.5,-133.11"/>
</g>
<!-- node9 -->
<g id="node5" class="node">
<title>node9</title>
<polygon fill="#e98693" stroke="black" points="178,-36 110,-36 110,0 178,0 178,-36"/>
<text text-anchor="middle" x="144" y="-14.3" font-family="Arial" font-size="14.00" fill="#1a1919">9 Return</text>
</g>
<!-- node8&#45;&gt;node9 -->
<g id="edge10" class="edge">
<title>node8&#45;&gt;node9</title>
<path fill="none" stroke="#da2d4f" stroke-width="2" d="M142.83,-86.92C142.49,-81.22 142.17,-74.84 142,-69 141.79,-61.65 141.94,-53.69 142.23,-46.33"/>
<polygon fill="#da2d4f" stroke="#da2d4f" stroke-width="2" points="145.74,-46.28 142.73,-36.12 138.74,-45.94 145.74,-46.28"/>
</g>
<!-- node8&#45;&gt;node9 -->
<g id="edge11" class="edge">
<title>node8&#45;&gt;node9</title>
<path fill="none" stroke="#3cb4a4" d="M144,-86.8C144,-75.16 144,-59.55 144,-46.24"/>
<polygon fill="#3cb4a4" stroke="#3cb4a4" points="147.5,-46.18 144,-36.18 140.5,-46.18 147.5,-46.18"/>
<text text-anchor="middle" x="161" y="-57.8" font-family="arial" font-size="14.00" fill="#3cb4a4">result</text>
</g>
<!-- inline3x4 -->
<g id="node6" class="node">
<title>inline3x4</title>
<ellipse fill="#d7ede7" stroke="black" cx="101" cy="-354" rx="27" ry="18"/>
<text text-anchor="middle" x="101" y="-352.1" font-family="Arial" font-size="8.00" fill="#1a1919">3 C(1)</text>
</g>
<!-- inline3x4&#45;&gt;node4 -->
<g id="edge2" class="edge">
<title>inline3x4&#45;&gt;node4</title>
<path fill="none" stroke="#3cb4a4" d="M93.33,-336.63C87.11,-323.34 78.36,-304.67 72.04,-291.17"/>
<text text-anchor="middle" x="94" y="-311.6" font-family="arial" font-size="8.00" fill="#3cb4a4">length</text>
</g>
<!-- inline5x6 -->
<g id="node7" class="node">
<title>inline5x6</title>
<ellipse fill="#d7ede7" stroke="black" cx="153" cy="-273" rx="27" ry="18"/>
<text text-anchor="middle" x="153" y="-271.1" font-family="Arial" font-size="8.00" fill="#1a1919">5 C(0)</text>
</g>
<!-- inline5x6&#45;&gt;node6 -->
<g id="edge5" class="edge">
<title>inline5x6&#45;&gt;node6</title>
<path fill="none" stroke="#3cb4a4" d="M151.18,-254.8C149.62,-240.05 147.38,-218.92 145.82,-204.18"/>
<text text-anchor="middle" x="158.5" y="-227.6" font-family="arial" font-size="8.00" fill="#3cb4a4">index</text>
</g>
<!-- inline1x6 -->
<g id="node8" class="node">
<title>inline1x6</title>
<ellipse fill="#d7ede7" stroke="black" cx="225" cy="-273" rx="27" ry="18"/>
<text text-anchor="middle" x="225" y="-271.1" font-family="Arial" font-size="8.00" fill="#1a1919">1 P(0)</text>
</g>
<!-- inline1x6&#45;&gt;node6 -->
<g id="edge6" class="edge">
<title>inline1x6&#45;&gt;node6</title>
<path fill="none" stroke="#3cb4a4" d="M210.89,-257.19C196.84,-242.45 175.28,-219.83 160.46,-204.27"/>
<text text-anchor="middle" x="198.5" y="-227.6" font-family="arial" font-size="8.00" fill="#3cb4a4">value</text>
</g>
<!-- inline5x8 -->
<g id="node9" class="node">
<title>inline5x8</title>
<ellipse fill="#d7ede7" stroke="black" cx="243" cy="-186" rx="27" ry="18"/>
<text text-anchor="middle" x="243" y="-184.1" font-family="Arial" font-size="8.00" fill="#1a1919">5 C(0)</text>
</g>
<!-- inline5x8&#45;&gt;node8 -->
<g id="edge9" class="edge">
<title>inline5x8&#45;&gt;node8</title>
<path fill="none" stroke="#3cb4a4" d="M226.21,-171.6C209.44,-158.22 183.6,-137.6 165.37,-123.06"/>
<text text-anchor="middle" x="205.5" y="-143.6" font-family="arial" font-size="8.00" fill="#3cb4a4">index</text>
</g>
</g>
</svg>
