<?xml version="1.0" encoding="UTF-8" standalone="no"?>
<!DOCTYPE svg PUBLIC "-//W3C//DTD SVG 1.1//EN"
 "http://www.w3.org/Graphics/SVG/1.1/DTD/svg11.dtd">
<!-- Generated by graphviz version 2.43.0 (0)
 -->
<!-- Title: G Pages: 1 -->
<svg width="456pt" height="1108pt"
 viewBox="0.00 0.00 455.61 1108.19" xmlns="http://www.w3.org/2000/svg" xmlns:xlink="http://www.w3.org/1999/xlink">
<g id="graph0" class="graph" transform="scale(1 1) rotate(0) translate(4 1104.19)">
<title>G</title>
' points="-4,4 -4,-1104.19 451.61,-1104.19 451.61,4 -4,4"/>
<!-- node0 -->
<g id="node1" class="node">
<title>node0</title>
<polygon fill="#e98693" stroke="black" points="242.35,-1018.99 184.87,-1018.99 184.87,-982.99 242.35,-982.99 242.35,-1018.99"/>
<text text-anchor="middle" x="213.61" y="-997.84" font-family="Arial" font-size="14.00" fill="#1a1919">0 Start</text>
</g>
<!-- node8 -->
<g id="node5" class="node">
<title>node8</title>
<polygon fill="#e98693" stroke="black" points="256.61,-930.89 202.61,-930.89 202.61,-894.89 256.61,-894.89 256.61,-930.89"/>
<text text-anchor="middle" x="229.61" y="-909.74" font-family="Arial" font-size="14.00" fill="#1a1919">8 If</text>
</g>
<!-- node0&#45;&gt;node8 -->
<g id="edge1" class="edge">
<title>node0&#45;&gt;node8</title>
<path fill="none" stroke="#da2d4f" stroke-width="2" d="M216.77,-982.98C218.99,-971.03 222.01,-954.79 224.56,-941.06"/>
<polygon fill="#da2d4f" stroke="#da2d4f" stroke-width="2" points="228.01,-941.63 226.4,-931.16 221.13,-940.35 228.01,-941.63"/>
</g>
<!-- node5 -->
<g id="node2" class="node">
<title>node5</title>
<polygon fill="#3cb4a4" stroke="black" points="314.61,-1018.99 260.61,-1018.99 260.61,-982.99 314.61,-982.99 314.61,-1018.99"/>
<text text-anchor="middle" x="287.61" y="-997.84" font-family="Arial" font-size="14.00" fill="#1a1919">5 ==</text>
</g>
<!-- node5&#45;&gt;node8 -->
<g id="edge6" class="edge">
<title>node5&#45;&gt;node8</title>
<path fill="none" stroke="#3cb4a4" d="M276.15,-982.98C267.79,-970.56 256.3,-953.51 246.83,-939.46"/>
<polygon fill="#3cb4a4" stroke="#3cb4a4" points="249.73,-937.5 241.24,-931.16 243.93,-941.41 249.73,-937.5"/>
<text text-anchor="middle" x="268.5" y="-953.79" font-family="arial" font-size="14.00" fill="#3cb4a4">?</text>
</g>
<!-- node6 -->
<g id="node3" class="node">
<title>node6</title>
<polygon fill="#e98693" stroke="black" points="302.59,-842.79 238.63,-842.79 238.63,-806.79 302.59,-806.79 302.59,-842.79"/>
<text text-anchor="middle" x="270.61" y="-821.64" font-family="Arial" font-size="14.00" fill="#1a1919">6 Begin</text>
</g>
<!-- node14 -->
<g id="node9" class="node">
<title>node14</title>
<polygon fill="#e98693" stroke="black" points="299.98,-769.79 239.24,-769.79 239.24,-733.79 299.98,-733.79 299.98,-769.79"/>
<text text-anchor="middle" x="269.61" y="-748.64" font-family="Arial" font-size="14.00" fill="#1a1919">14 End</text>
</g>
<!-- node6&#45;&gt;node14 -->
<g id="edge4" class="edge">
<title>node6&#45;&gt;node14</title>
<path fill="none" stroke="#da2d4f" stroke-width="2" d="M270.37,-806.61C270.25,-798.58 270.12,-788.84 269.99,-779.86"/>
<polygon fill="#da2d4f" stroke="#da2d4f" stroke-width="2" points="273.49,-779.77 269.85,-769.82 266.49,-779.87 273.49,-779.77"/>
</g>
<!-- node7 -->
<g id="node4" class="node">
<title>node7</title>
<polygon fill="#e98693" stroke="black" points="221.59,-842.79 157.63,-842.79 157.63,-806.79 221.59,-806.79 221.59,-842.79"/>
<text text-anchor="middle" x="189.61" y="-821.64" font-family="Arial" font-size="14.00" fill="#1a1919">7 Begin</text>
</g>
<!-- node12 -->
<g id="node7" class="node">
<title>node12</title>
<polygon fill="#e98693" stroke="black" points="221.98,-769.79 161.24,-769.79 161.24,-733.79 221.98,-733.79 221.98,-769.79"/>
<text text-anchor="middle" x="191.61" y="-748.64" font-family="Arial" font-size="14.00" fill="#1a1919">12 End</text>
</g>
<!-- node7&#45;&gt;node12 -->
<g id="edge5" class="edge">
<title>node7&#45;&gt;node12</title>
<path fill="none" stroke="#da2d4f" stroke-width="2" d="M190.09,-806.61C190.32,-798.58 190.59,-788.84 190.85,-779.86"/>
<polygon fill="#da2d4f" stroke="#da2d4f" stroke-width="2" points="194.35,-779.92 191.13,-769.82 187.35,-779.72 194.35,-779.92"/>
</g>
<!-- node8&#45;&gt;node6 -->
<g id="edge8" class="edge">
<title>node8&#45;&gt;node6</title>
<path fill="none" stroke="#da2d4f" stroke-width="2" d="M237.71,-894.88C243.51,-882.7 251.44,-866.05 258.06,-852.16"/>
<polygon fill="#da2d4f" stroke="#da2d4f" stroke-width="2" points="261.25,-853.6 262.39,-843.06 254.93,-850.59 261.25,-853.6"/>
<text text-anchor="middle" x="258.89" y="-865.69" font-family="arial" font-size="14.00" fill="#da2d4f">F</text>
</g>
<!-- node8&#45;&gt;node7 -->
<g id="edge7" class="edge">
<title>node8&#45;&gt;node7</title>
<path fill="none" stroke="#da2d4f" stroke-width="2" d="M221.71,-894.88C216.05,-882.7 208.31,-866.05 201.86,-852.16"/>
<polygon fill="#da2d4f" stroke="#da2d4f" stroke-width="2" points="205.02,-850.66 197.63,-843.06 198.67,-853.61 205.02,-850.66"/>
<text text-anchor="middle" x="217.89" y="-865.69" font-family="arial" font-size="14.00" fill="#da2d4f">T</text>
</g>
<!-- node11 -->
<g id="node6" class="node">
<title>node11</title>
<polygon fill="#3cb4a4" stroke="black" points="376.61,-688.59 322.61,-688.59 322.61,-652.59 376.61,-652.59 376.61,-688.59"/>
<text text-anchor="middle" x="349.61" y="-667.44" font-family="Arial" font-size="14.00" fill="#1a1919">11 +</text>
</g>
<!-- node15 -->
<g id="node10" class="node">
<title>node15</title>
<polygon fill="#f9f9f9" stroke="black" points="214.61,-600.5 160.61,-600.5 160.61,-564.5 214.61,-564.5 214.61,-600.5"/>
<text text-anchor="middle" x="187.61" y="-579.34" font-family="Arial" font-size="14.00" fill="#1a1919">15 ϕ</text>
</g>
<!-- node11&#45;&gt;node15 -->
<g id="edge16" class="edge">
<title>node11&#45;&gt;node15</title>
<path fill="none" stroke="#3cb4a4" d="M322.49,-655.18C295.39,-640.78 253.56,-618.55 223.68,-602.66"/>
<polygon fill="#3cb4a4" stroke="#3cb4a4" points="225.29,-599.56 214.81,-597.95 222,-605.74 225.29,-599.56"/>
<text text-anchor="middle" x="307.34" y="-623.39" font-family="arial" font-size="14.00" fill="#3cb4a4">from 14</text>
</g>
<!-- node13 -->
<g id="node8" class="node">
<title>node13</title>
<polygon fill="#e98693" stroke="black" points="304.25,-688.59 228.97,-688.59 228.97,-652.59 304.25,-652.59 304.25,-688.59"/>
<text text-anchor="middle" x="266.61" y="-667.44" font-family="Arial" font-size="14.00" fill="#1a1919">13 Merge</text>
</g>
<!-- node12&#45;&gt;node13 -->
<g id="edge11" class="edge">
<title>node12&#45;&gt;node13</title>
<path fill="none" stroke="#da2d4f" stroke-width="2" d="M207.88,-733.61C218.2,-722.71 231.72,-708.44 243.18,-696.33"/>
<polygon fill="#da2d4f" stroke="#da2d4f" stroke-width="2" points="246.03,-698.41 250.37,-688.75 240.95,-693.6 246.03,-698.41"/>
</g>
<!-- node13&#45;&gt;node15 -->
<g id="edge14" class="edge">
<title>node13&#45;&gt;node15</title>
<path fill="none" stroke="#343d46" stroke-dasharray="5,2" d="M244.15,-645.11C231.16,-630.95 215.13,-613.48 203.46,-600.76"/>
<polygon fill="#343d46" stroke="#343d46" points="241.66,-647.58 251,-652.58 246.82,-642.85 241.66,-647.58"/>
</g>
<!-- node17 -->
<g id="node11" class="node">
<title>node17</title>
<polygon fill="#e98693" stroke="black" points="318.98,-600.5 258.24,-600.5 258.24,-564.5 318.98,-564.5 318.98,-600.5"/>
<text text-anchor="middle" x="288.61" y="-579.34" font-family="Arial" font-size="14.00" fill="#1a1919">17 End</text>
</g>
<!-- node13&#45;&gt;node17 -->
<g id="edge13" class="edge">
<title>node13&#45;&gt;node17</title>
<path fill="none" stroke="#da2d4f" stroke-width="2" d="M270.96,-652.58C274.01,-640.63 278.16,-624.4 281.67,-610.66"/>
<polygon fill="#da2d4f" stroke="#da2d4f" stroke-width="2" points="285.11,-611.32 284.2,-600.76 278.33,-609.59 285.11,-611.32"/>
</g>
<!-- node14&#45;&gt;node13 -->
<g id="edge12" class="edge">
<title>node14&#45;&gt;node13</title>
<path fill="none" stroke="#da2d4f" stroke-width="2" d="M268.96,-733.61C268.57,-723.44 268.08,-710.32 267.64,-698.78"/>
<polygon fill="#da2d4f" stroke="#da2d4f" stroke-width="2" points="271.14,-698.61 267.26,-688.75 264.14,-698.87 271.14,-698.61"/>
</g>
<!-- node19 -->
<g id="node13" class="node">
<title>node19</title>
<polygon fill="#f9f9f9" stroke="black" points="124.61,-454.5 70.61,-454.5 70.61,-418.5 124.61,-418.5 124.61,-454.5"/>
<text text-anchor="middle" x="97.61" y="-433.34" font-family="Arial" font-size="14.00" fill="#1a1919">19 ϕ</text>
</g>
<!-- node15&#45;&gt;node19 -->
<g id="edge20" class="edge">
<title>node15&#45;&gt;node19</title>
<path fill="none" stroke="#3cb4a4" d="M176.93,-564.41C161.3,-539.4 132.07,-492.63 113.79,-463.39"/>
<polygon fill="#3cb4a4" stroke="#3cb4a4" points="116.54,-461.18 108.27,-454.56 110.61,-464.89 116.54,-461.18"/>
<text text-anchor="middle" x="177.34" y="-506.34" font-family="arial" font-size="14.00" fill="#3cb4a4">from 17</text>
</g>
<!-- node18 -->
<g id="node12" class="node">
<title>node18</title>
<polygon fill="#e98693" stroke="black" points="348.02,-527.5 245.2,-527.5 245.2,-491.5 348.02,-491.5 348.02,-527.5"/>
<text text-anchor="middle" x="296.61" y="-506.34" font-family="Arial" font-size="14.00" fill="#1a1919">18 LoopBegin</text>
</g>
<!-- node17&#45;&gt;node18 -->
<g id="edge17" class="edge">
<title>node17&#45;&gt;node18</title>
<path fill="none" stroke="#da2d4f" stroke-width="2" d="M290.55,-564.31C291.45,-556.28 292.55,-546.54 293.56,-537.56"/>
<polygon fill="#da2d4f" stroke="#da2d4f" stroke-width="2" points="297.05,-537.85 294.69,-527.52 290.09,-537.07 297.05,-537.85"/>
</g>
<!-- node18&#45;&gt;node19 -->
<g id="edge19" class="edge">
<title>node18&#45;&gt;node19</title>
<path fill="none" stroke="#343d46" stroke-dasharray="5,2" d="M235.61,-490.22C204.72,-480.48 166.83,-467.78 133.61,-454.5 130.79,-453.37 127.87,-452.12 124.98,-450.84"/>
<polygon fill="#343d46" stroke="#343d46" points="234.79,-493.63 245.38,-493.28 236.88,-486.95 234.79,-493.63"/>
</g>
<!-- node24 -->
<g id="node16" class="node">
<title>node24</title>
<polygon fill="#e98693" stroke="black" points="344.55,-190.2 254.67,-190.2 254.67,-154.2 344.55,-154.2 344.55,-190.2"/>
<text text-anchor="middle" x="299.61" y="-169.05" font-family="Arial" font-size="14.00" fill="#1a1919">24 LoopExit</text>
</g>
<!-- node18&#45;&gt;node24 -->
<g id="edge25" class="edge">
<title>node18&#45;&gt;node24</title>
<path fill="none" stroke="#343d46" stroke-dasharray="5,2" d="M317.87,-483.16C326.56,-470.31 334.61,-453.97 334.61,-437.5 334.61,-437.5 334.61,-437.5 334.61,-259.3 334.61,-233.97 321.45,-207.32 311.26,-190.5"/>
<polygon fill="#343d46" stroke="#343d46" points="314.89,-481.31 311.85,-491.46 320.56,-485.43 314.89,-481.31"/>
</g>
<!-- node26 -->
<g id="node17" class="node">
<title>node26</title>
<polygon fill="#e98693" stroke="black" points="295.61,-278.3 241.61,-278.3 241.61,-242.3 295.61,-242.3 295.61,-278.3"/>
<text text-anchor="middle" x="268.61" y="-257.15" font-family="Arial" font-size="14.00" fill="#1a1919">26 If</text>
</g>
<!-- node18&#45;&gt;node26 -->
<g id="edge18" class="edge">
<title>node18&#45;&gt;node26</title>
<path fill="none" stroke="#da2d4f" stroke-width="2" d="M294.91,-491.29C291.73,-459.49 284.6,-389.38 277.61,-330.4 275.96,-316.51 273.97,-301.07 272.28,-288.31"/>
<polygon fill="#da2d4f" stroke="#da2d4f" stroke-width="2" points="275.73,-287.77 270.94,-278.32 268.8,-288.7 275.73,-287.77"/>
</g>
<!-- node30 -->
<g id="node20" class="node">
<title>node30</title>
<polygon fill="#e98693" stroke="black" points="292.13,-36 201.09,-36 201.09,0 292.13,0 292.13,-36"/>
<text text-anchor="middle" x="246.61" y="-14.85" font-family="Arial" font-size="14.00" fill="#1a1919">30 LoopEnd</text>
</g>
<!-- node18&#45;&gt;node30 -->
<g id="edge34" class="edge">
<title>node18&#45;&gt;node30</title>
<path fill="none" stroke="#da2d4f" stroke-width="4" d="M341.52,-485.7C357.96,-473.95 372.61,-457.79 372.61,-437.5 372.61,-437.5 372.61,-437.5 372.61,-90 372.61,-51.96 328.48,-34.08 292.46,-25.82"/>
<polygon fill="#da2d4f" stroke="#da2d4f" stroke-width="4" points="339.25,-483 332.83,-491.43 343.1,-488.85 339.25,-483"/>
</g>
<!-- node21 -->
<g id="node14" class="node">
<title>node21</title>
<polygon fill="#3cb4a4" stroke="black" points="268.61,-366.4 214.61,-366.4 214.61,-330.4 268.61,-330.4 268.61,-366.4"/>
<text text-anchor="middle" x="241.61" y="-345.25" font-family="Arial" font-size="14.00" fill="#1a1919">21 &lt;</text>
</g>
<!-- node19&#45;&gt;node21 -->
<g id="edge22" class="edge">
<title>node19&#45;&gt;node21</title>
<path fill="none" stroke="#3cb4a4" d="M117.94,-418.41C131.05,-407.86 148.74,-394.46 165.61,-384.4 178.04,-376.98 192.3,-370.04 205.09,-364.32"/>
<polygon fill="#3cb4a4" stroke="#3cb4a4" points="206.76,-367.41 214.52,-360.2 203.96,-361 206.76,-367.41"/>
<text text-anchor="middle" x="169.11" y="-389.3" font-family="arial" font-size="14.00" fill="#3cb4a4">x</text>
</g>
<!-- node27 -->
<g id="node18" class="node">
<title>node27</title>
<polygon fill="#da2d4f" stroke="black" points="243.33,-109 -0.11,-109 -0.11,-73 243.33,-73 243.33,-109"/>
<text text-anchor="middle" x="121.61" y="-87.85" font-family="Arial" font-size="14.00" fill="#ffffff">27 StoreField JavaExamples.intField</text>
</g>
<!-- node19&#45;&gt;node27 -->
<g id="edge30" class="edge">
<title>node19&#45;&gt;node27</title>
<path fill="none" stroke="#3cb4a4" d="M72.68,-418.44C53.27,-402.95 29.61,-378.16 29.61,-349.4 29.61,-349.4 29.61,-349.4 29.61,-171.2 29.61,-146.1 49.52,-127.21 70.82,-114.19"/>
<polygon fill="#3cb4a4" stroke="#3cb4a4" points="72.7,-117.14 79.65,-109.14 69.23,-111.07 72.7,-117.14"/>
<text text-anchor="middle" x="46.34" y="-257.15" font-family="arial" font-size="14.00" fill="#3cb4a4">value</text>
</g>
<!-- node29 -->
<g id="node19" class="node">
<title>node29</title>
<polygon fill="#3cb4a4" stroke="black" points="159.61,-366.4 105.61,-366.4 105.61,-330.4 159.61,-330.4 159.61,-366.4"/>
<text text-anchor="middle" x="132.61" y="-345.25" font-family="Arial" font-size="14.00" fill="#1a1919">29 +</text>
</g>
<!-- node19&#45;&gt;node29 -->
<g id="edge32" class="edge">
<title>node19&#45;&gt;node29</title>
<path fill="none" stroke="#3cb4a4" d="M104.52,-418.48C109.43,-406.42 116.11,-389.98 121.73,-376.16"/>
<polygon fill="#3cb4a4" stroke="#3cb4a4" points="125.07,-377.25 125.59,-366.67 118.58,-374.61 125.07,-377.25"/>
<text text-anchor="middle" x="122.11" y="-389.3" font-family="arial" font-size="14.00" fill="#3cb4a4">x</text>
</g>
<!-- node21&#45;&gt;node26 -->
<g id="edge27" class="edge">
<title>node21&#45;&gt;node26</title>
<path fill="none" stroke="#3cb4a4" d="M246.94,-330.39C250.69,-318.44 255.78,-302.2 260.09,-288.47"/>
<polygon fill="#3cb4a4" stroke="#3cb4a4" points="263.54,-289.16 263.19,-278.57 256.86,-287.06 263.54,-289.16"/>
<text text-anchor="middle" x="261.5" y="-301.2" font-family="arial" font-size="14.00" fill="#3cb4a4">?</text>
</g>
<!-- node22 -->
<g id="node15" class="node">
<title>node22</title>
<polygon fill="#e98693" stroke="black" points="162.38,-190.2 90.84,-190.2 90.84,-154.2 162.38,-154.2 162.38,-190.2"/>
<text text-anchor="middle" x="126.61" y="-169.05" font-family="Arial" font-size="14.00" fill="#1a1919">22 Begin</text>
</g>
<!-- node22&#45;&gt;node27 -->
<g id="edge24" class="edge">
<title>node22&#45;&gt;node27</title>
<path fill="none" stroke="#da2d4f" stroke-width="2" d="M125.52,-154.01C124.88,-143.84 124.06,-130.73 123.33,-119.19"/>
<polygon fill="#da2d4f" stroke="#da2d4f" stroke-width="2" points="126.82,-118.91 122.69,-109.15 119.83,-119.35 126.82,-118.91"/>
</g>
<!-- node31 -->
<g id="node21" class="node">
<title>node31</title>
<polygon fill="#e98693" stroke="black" points="338.59,-109 260.63,-109 260.63,-73 338.59,-73 338.59,-109"/>
<text text-anchor="middle" x="299.61" y="-87.85" font-family="Arial" font-size="14.00" fill="#1a1919">31 Return</text>
</g>
<!-- node24&#45;&gt;node31 -->
<g id="edge26" class="edge">
<title>node24&#45;&gt;node31</title>
<path fill="none" stroke="#da2d4f" stroke-width="2" d="M299.61,-154.01C299.61,-143.84 299.61,-130.73 299.61,-119.19"/>
<polygon fill="#da2d4f" stroke="#da2d4f" stroke-width="2" points="303.11,-119.15 299.61,-109.15 296.11,-119.15 303.11,-119.15"/>
</g>
<!-- node26&#45;&gt;node22 -->
<g id="edge29" class="edge">
<title>node26&#45;&gt;node22</title>
<path fill="none" stroke="#da2d4f" stroke-width="2" d="M241.57,-242.9C219.49,-229.52 188.07,-210.47 163.66,-195.66"/>
<polygon fill="#da2d4f" stroke="#da2d4f" stroke-width="2" points="165.38,-192.61 155.01,-190.42 161.75,-198.6 165.38,-192.61"/>
<text text-anchor="middle" x="214.89" y="-213.1" font-family="arial" font-size="14.00" fill="#da2d4f">F</text>
</g>
<!-- node26&#45;&gt;node24 -->
<g id="edge28" class="edge">
<title>node26&#45;&gt;node24</title>
<path fill="none" stroke="#da2d4f" stroke-width="2" d="M274.73,-242.29C279.08,-230.22 285,-213.78 289.97,-199.96"/>
<polygon fill="#da2d4f" stroke="#da2d4f" stroke-width="2" points="293.3,-201.06 293.39,-190.47 286.71,-198.69 293.3,-201.06"/>
<text text-anchor="middle" x="291.89" y="-213.1" font-family="arial" font-size="14.00" fill="#da2d4f">T</text>
</g>
<!-- node27&#45;&gt;node30 -->
<g id="edge31" class="edge">
<title>node27&#45;&gt;node30</title>
<path fill="none" stroke="#da2d4f" stroke-width="2" d="M151.55,-72.99C168.28,-63.49 189.33,-51.54 207.36,-41.29"/>
<polygon fill="#da2d4f" stroke="#da2d4f" stroke-width="2" points="209.51,-44.1 216.48,-36.11 206.06,-38.01 209.51,-44.1"/>
</g>
<!-- node29&#45;&gt;node19 -->
<g id="edge21" class="edge">
<title>node29&#45;&gt;node19</title>
<path fill="none" stroke="#3cb4a4" d="M105.38,-355.62C90.12,-360.66 72.35,-369.45 63.15,-384.4 57.79,-393.1 61.22,-402.41 67.63,-410.68"/>
<polygon fill="#3cb4a4" stroke="#3cb4a4" points="65.19,-413.19 74.51,-418.23 70.36,-408.48 65.19,-413.19"/>
<text text-anchor="middle" x="87.34" y="-389.3" font-family="arial" font-size="14.00" fill="#3cb4a4">from 30</text>
</g>
<!-- inline1x5 -->
<g id="node22" class="node">
<title>inline1x5</title>
<ellipse fill="#d7ede7" stroke="black" cx="251.61" cy="-1082.19" rx="27" ry="18"/>
<text text-anchor="middle" x="251.61" y="-1080.39" font-family="Arial" font-size="8.00" fill="#1a1919">1 P(0)</text>
</g>
<!-- inline1x5&#45;&gt;node5 -->
<g id="edge2" class="edge">
<title>inline1x5&#45;&gt;node5</title>
<path fill="none" stroke="#3cb4a4" d="M259.07,-1064.78C265.12,-1051.46 273.64,-1032.73 279.79,-1019.2"/>
<text text-anchor="middle" x="273.61" y="-1039.79" font-family="arial" font-size="8.00" fill="#3cb4a4">x</text>
</g>
<!-- inline4x5 -->
<g id="node23" class="node">
<title>inline4x5</title>
<ellipse fill="#d7ede7" stroke="black" cx="323.61" cy="-1082.19" rx="27" ry="18"/>
<text text-anchor="middle" x="323.61" y="-1080.39" font-family="Arial" font-size="8.00" fill="#1a1919">4 C(0)</text>
</g>
<!-- inline4x5&#45;&gt;node5 -->
<g id="edge3" class="edge">
<title>inline4x5&#45;&gt;node5</title>
<path fill="none" stroke="#3cb4a4" d="M316.15,-1064.78C310.1,-1051.46 301.58,-1032.73 295.43,-1019.2"/>
<text text-anchor="middle" x="309.61" y="-1039.79" font-family="arial" font-size="8.00" fill="#3cb4a4">y</text>
</g>
<!-- inline2x11 -->
<g id="node24" class="node">
<title>inline2x11</title>
<ellipse fill="#d7ede7" stroke="black" cx="348.61" cy="-751.79" rx="27" ry="18"/>
<text text-anchor="middle" x="348.61" y="-749.99" font-family="Arial" font-size="8.00" fill="#1a1919">2 P(1)</text>
</g>
<!-- inline2x11&#45;&gt;node11 -->
<g id="edge9" class="edge">
<title>inline2x11&#45;&gt;node11</title>
<path fill="none" stroke="#3cb4a4" d="M348.83,-733.61C348.99,-720.32 349.23,-702.02 349.39,-688.75"/>
<text text-anchor="middle" x="350.61" y="-709.39" font-family="arial" font-size="8.00" fill="#3cb4a4">x</text>
</g>
<!-- inline10x11 -->
<g id="node25" class="node">
<title>inline10x11</title>
<ellipse fill="#d7ede7" stroke="black" cx="420.61" cy="-751.79" rx="27" ry="18"/>
<text text-anchor="middle" x="420.61" y="-749.99" font-family="Arial" font-size="8.00" fill="#1a1919">10 C(&#45;1)</text>
</g>
<!-- inline10x11&#45;&gt;node11 -->
<g id="edge10" class="edge">
<title>inline10x11&#45;&gt;node11</title>
<path fill="none" stroke="#3cb4a4" d="M407.26,-735.9C395.2,-722.45 377.48,-702.69 364.88,-688.62"/>
<text text-anchor="middle" x="388.61" y="-709.39" font-family="arial" font-size="8.00" fill="#3cb4a4">y</text>
</g>
<!-- inline2x15 -->
<g id="node26" class="node">
<title>inline2x15</title>
<ellipse fill="#d7ede7" stroke="black" cx="183.61" cy="-670.59" rx="27" ry="18"/>
<text text-anchor="middle" x="183.61" y="-668.79" font-family="Arial" font-size="8.00" fill="#1a1919">2 P(1)</text>
</g>
<!-- inline2x15&#45;&gt;node15 -->
<g id="edge15" class="edge">
<title>inline2x15&#45;&gt;node15</title>
<path fill="none" stroke="#3cb4a4" d="M184.4,-652.58C185.1,-637.59 186.11,-615.84 186.81,-600.76"/>
<text text-anchor="middle" x="200.17" y="-624.74" font-family="arial" font-size="8.00" fill="#3cb4a4">from 12</text>
</g>
<!-- inline9x21 -->
<g id="node27" class="node">
<title>inline9x21</title>
<ellipse fill="#d7ede7" stroke="black" cx="241.61" cy="-436.5" rx="27" ry="18"/>
<text text-anchor="middle" x="241.61" y="-434.69" font-family="Arial" font-size="8.00" fill="#1a1919">9 C(1)</text>
</g>
<!-- inline9x21&#45;&gt;node21 -->
<g id="edge23" class="edge">
<title>inline9x21&#45;&gt;node21</title>
<path fill="none" stroke="#3cb4a4" d="M241.61,-418.48C241.61,-403.49 241.61,-381.74 241.61,-366.67"/>
<text text-anchor="middle" x="243.61" y="-390.65" font-family="arial" font-size="8.00" fill="#3cb4a4">y</text>
</g>
<!-- inline10x29 -->
<g id="node28" class="node">
<title>inline10x29</title>
<ellipse fill="#d7ede7" stroke="black" cx="169.61" cy="-436.5" rx="27" ry="18"/>
<text text-anchor="middle" x="169.61" y="-434.69" font-family="Arial" font-size="8.00" fill="#1a1919">10 C(&#45;1)</text>
</g>
<!-- inline10x29&#45;&gt;node29 -->
<g id="edge33" class="edge">
<title>inline10x29&#45;&gt;node29</title>
<path fill="none" stroke="#3cb4a4" d="M173.46,-418.22C174.91,-407.97 175.24,-394.96 170.61,-384.4 167.66,-377.66 162.7,-371.65 157.32,-366.59"/>
<text text-anchor="middle" x="176.61" y="-390.65" font-family="arial" font-size="8.00" fill="#3cb4a4">y</text>
</g>
<!-- inline2x31 -->
<g id="node29" class="node">
<title>inline2x31</title>
<ellipse fill="#d7ede7" stroke="black" cx="209.61" cy="-172.2" rx="27" ry="18"/>
<text text-anchor="middle" x="209.61" y="-170.4" font-family="Arial" font-size="8.00" fill="#1a1919">2 P(1)</text>
</g>
<!-- inline2x31&#45;&gt;node31 -->
<g id="edge35" class="edge">
<title>inline2x31&#45;&gt;node31</title>
<path fill="none" stroke="#3cb4a4" d="M225.29,-157.4C240.5,-144.02 263.62,-123.67 280.03,-109.23"/>
<text text-anchor="middle" x="267.39" y="-129.8" font-family="arial" font-size="8.00" fill="#3cb4a4">result</text>
</g>
</g>
</svg>
