<?xml version="1.0" encoding="UTF-8" standalone="no"?>
<!DOCTYPE svg PUBLIC "-//W3C//DTD SVG 1.1//EN"
 "http://www.w3.org/Graphics/SVG/1.1/DTD/svg11.dtd">
<!-- Generated by graphviz version 2.43.0 (0)
 -->
<!-- Title: G Pages: 1 -->
<svg width="308pt" height="198pt"
 viewBox="0.00 0.00 308.02 198.20" xmlns="http://www.w3.org/2000/svg" xmlns:xlink="http://www.w3.org/1999/xlink">
<g id="graph0" class="graph" transform="scale(1 1) rotate(0) translate(4 194.2)">
<title>G</title>
' points="-4,4 -4,-194.2 304.02,-194.2 304.02,4 -4,4"/>
<!-- node0 -->
<g id="node1" class="node">
<title>node0</title>
<polygon fill="#e98693" stroke="black" points="104.75,-190.2 47.27,-190.2 47.27,-154.2 104.75,-154.2 104.75,-190.2"/>
<text text-anchor="middle" x="76.01" y="-169.05" font-family="Arial" font-size="14.00" fill="#1a1919">0 Start</text>
</g>
<!-- node4 -->
<g id="node2" class="node">
<title>node4</title>
<polygon fill="#da2d4f" stroke="black" points="300.03,-109 -0.01,-109 -0.01,-73 300.03,-73 300.03,-109"/>
<text text-anchor="middle" x="150.01" y="-87.85" font-family="Arial" font-size="14.00" fill="#ffffff">4 StoreField JavaExamples$ExampleObject.x</text>
</g>
<!-- node0&#45;&gt;node4 -->
<g id="edge1" class="edge">
<title>node0&#45;&gt;node4</title>
<path fill="none" stroke="#da2d4f" stroke-width="2" d="M92.07,-154.01C102.25,-143.12 115.59,-128.84 126.9,-116.74"/>
<polygon fill="#da2d4f" stroke="#da2d4f" stroke-width="2" points="129.71,-118.85 133.98,-109.15 124.6,-114.07 129.71,-118.85"/>
</g>
<!-- node6 -->
<g id="node3" class="node">
<title>node6</title>
<polygon fill="#e98693" stroke="black" points="184.71,-36 115.31,-36 115.31,0 184.71,0 184.71,-36"/>
<text text-anchor="middle" x="150.01" y="-14.85" font-family="Arial" font-size="14.00" fill="#1a1919">6 Return</text>
</g>
<!-- node4&#45;&gt;node6 -->
<g id="edge4" class="edge">
<title>node4&#45;&gt;node6</title>
<path fill="none" stroke="#da2d4f" stroke-width="2" d="M150.01,-72.81C150.01,-64.79 150.01,-55.05 150.01,-46.07"/>
<polygon fill="#da2d4f" stroke="#da2d4f" stroke-width="2" points="153.51,-46.03 150.01,-36.03 146.51,-46.03 153.51,-46.03"/>
</g>
<!-- inline1x4 -->
<g id="node4" class="node">
<title>inline1x4</title>
<ellipse fill="#d7ede7" stroke="black" cx="150.01" cy="-172.2" rx="27" ry="18"/>
<text text-anchor="middle" x="150.01" y="-170.4" font-family="Arial" font-size="8.00" fill="#1a1919">1 P(0)</text>
</g>
<!-- inline1x4&#45;&gt;node4 -->
<g id="edge2" class="edge">
<title>inline1x4&#45;&gt;node4</title>
<path fill="none" stroke="#3cb4a4" d="M150.01,-154.01C150.01,-140.73 150.01,-122.43 150.01,-109.15"/>
<text text-anchor="middle" x="160.68" y="-129.8" font-family="arial" font-size="8.00" fill="#3cb4a4">object</text>
</g>
<!-- inline2x4 -->
<g id="node5" class="node">
<title>inline2x4</title>
<ellipse fill="#d7ede7" stroke="black" cx="222.01" cy="-172.2" rx="27" ry="18"/>
<text text-anchor="middle" x="222.01" y="-170.4" font-family="Arial" font-size="8.00" fill="#1a1919">2 P(1)</text>
</g>
<!-- inline2x4&#45;&gt;node4 -->
<g id="edge3" class="edge">
<title>inline2x4&#45;&gt;node4</title>
<path fill="none" stroke="#3cb4a4" d="M208.47,-156.3C196.25,-142.86 178.28,-123.09 165.49,-109.03"/>
<text text-anchor="middle" x="197.57" y="-129.8" font-family="arial" font-size="8.00" fill="#3cb4a4">value</text>
</g>
</g>
</svg>
