<?xml version="1.0" encoding="UTF-8" standalone="no"?>
<!DOCTYPE svg PUBLIC "-//W3C//DTD SVG 1.1//EN"
 "http://www.w3.org/Graphics/SVG/1.1/DTD/svg11.dtd">
<!-- Generated by graphviz version 2.44.0 (20200408.0750)
 -->
<!-- Title: G Pages: 1 -->
<svg width="396pt" height="473pt"
 viewBox="0.00 0.00 395.50 473.00" xmlns="http://www.w3.org/2000/svg" xmlns:xlink="http://www.w3.org/1999/xlink">
<g id="graph0" class="graph" transform="scale(1 1) rotate(0) translate(4 469)">
<title>G</title>
<!-- node0 -->
<g id="node1" class="node">
<title>node0</title>
<polygon fill="#e98693" stroke="black" points="297.5,-465 241.5,-465 241.5,-429 297.5,-429 297.5,-465"/>
<text text-anchor="middle" x="269.5" y="-443.3" font-family="Arial" font-size="14.00" fill="#1a1919">0 Start</text>
</g>
<!-- node13 -->
<g id="node6" class="node">
<title>node13</title>
<polygon fill="#da2d4f" stroke="black" points="221.5,-378 157.5,-378 157.5,-342 221.5,-342 221.5,-378"/>
<text text-anchor="middle" x="189.5" y="-356.3" font-family="Arial" font-size="14.00" fill="#ffffff">13 Alloc</text>
</g>
<!-- node0&#45;&gt;node13 -->
<g id="edge1" class="edge">
<title>node0&#45;&gt;node13</title>
<path fill="none" stroke="#da2d4f" stroke-width="2" d="M253.31,-428.8C241.6,-416.36 225.61,-399.36 212.56,-385.5"/>
<polygon fill="#da2d4f" stroke="#da2d4f" stroke-width="2" points="215.07,-383.06 205.67,-378.18 209.97,-387.86 215.07,-383.06"/>
</g>
<!-- node8 -->
<g id="node2" class="node">
<title>node8</title>
<polygon fill="#da2d4f" stroke="black" points="315,-204 64,-204 64,-168 315,-168 315,-204"/>
<text text-anchor="middle" x="189.5" y="-182.3" font-family="Arial" font-size="14.00" fill="#ffffff">8 StoreField JavaExamples.objectField</text>
</g>
<!-- node10 -->
<g id="node3" class="node">
<title>node10</title>
<polygon fill="#da2d4f" stroke="black" points="246,-123 133,-123 133,-87 246,-87 246,-123"/>
<text text-anchor="middle" x="189.5" y="-101.3" font-family="Arial" font-size="14.00" fill="#ffffff">10 LoadIndexed</text>
</g>
<!-- node8&#45;&gt;node10 -->
<g id="edge3" class="edge">
<title>node8&#45;&gt;node10</title>
<path fill="none" stroke="#da2d4f" stroke-width="2" d="M189.5,-167.86C189.5,-157.71 189.5,-144.63 189.5,-133.12"/>
<polygon fill="#da2d4f" stroke="#da2d4f" stroke-width="2" points="193,-133.11 189.5,-123.11 186,-133.11 193,-133.11"/>
</g>
<!-- node11 -->
<g id="node4" class="node">
<title>node11</title>
<polygon fill="#e98693" stroke="black" points="227,-36 152,-36 152,0 227,0 227,-36"/>
<text text-anchor="middle" x="189.5" y="-14.3" font-family="Arial" font-size="14.00" fill="#1a1919">11 Return</text>
</g>
<!-- node10&#45;&gt;node11 -->
<g id="edge6" class="edge">
<title>node10&#45;&gt;node11</title>
<path fill="none" stroke="#da2d4f" stroke-width="2" d="M188.33,-86.92C187.99,-81.22 187.67,-74.84 187.5,-69 187.29,-61.65 187.44,-53.69 187.73,-46.33"/>
<polygon fill="#da2d4f" stroke="#da2d4f" stroke-width="2" points="191.24,-46.28 188.23,-36.12 184.24,-45.94 191.24,-46.28"/>
</g>
<!-- node10&#45;&gt;node11 -->
<g id="edge7" class="edge">
<title>node10&#45;&gt;node11</title>
<path fill="none" stroke="#3cb4a4" d="M189.5,-86.8C189.5,-75.16 189.5,-59.55 189.5,-46.24"/>
<polygon fill="#3cb4a4" stroke="#3cb4a4" points="193,-46.18 189.5,-36.18 186,-46.18 193,-46.18"/>
<text text-anchor="middle" x="206.5" y="-57.8" font-family="arial" font-size="14.00" fill="#3cb4a4">result</text>
</g>
<!-- node12 -->
<g id="node5" class="node">
<title>node12</title>
<polygon fill="#343d46" stroke="black" points="139,-465 0,-465 0,-429 139,-429 139,-465"/>
<text text-anchor="middle" x="69.5" y="-443.3" font-family="Arial" font-size="14.00" fill="#ffffff">12 VirtualArray int[1]</text>
</g>
<!-- node12&#45;&gt;node13 -->
<g id="edge8" class="edge">
<title>node12&#45;&gt;node13</title>
<path fill="none" stroke="#3cb4a4" d="M78.95,-428.85C85.52,-418.23 95.13,-404.94 106.5,-396 113.55,-390.45 130.96,-382.85 148.02,-376.14"/>
<polygon fill="#3cb4a4" stroke="#3cb4a4" points="149.32,-379.39 157.4,-372.53 146.81,-372.86 149.32,-379.39"/>
<text text-anchor="middle" x="148" y="-399.8" font-family="arial" font-size="14.00" fill="#3cb4a4">virtualObjects</text>
</g>
<!-- node14 -->
<g id="node7" class="node">
<title>node14</title>
<polygon fill="#343d46" stroke="black" points="138.5,-291 8.5,-291 8.5,-255 138.5,-255 138.5,-291"/>
<text text-anchor="middle" x="73.5" y="-269.3" font-family="Arial" font-size="14.00" fill="#ffffff">14 AllocatedObject</text>
</g>
<!-- node12&#45;&gt;node14 -->
<g id="edge11" class="edge">
<title>node12&#45;&gt;node14</title>
<path fill="none" stroke="#3cb4a4" d="M69.9,-428.88C70.59,-399 72.03,-337.11 72.87,-301.27"/>
<polygon fill="#3cb4a4" stroke="#3cb4a4" points="76.37,-301.13 73.1,-291.05 69.37,-300.97 76.37,-301.13"/>
<text text-anchor="middle" x="110.5" y="-356.3" font-family="arial" font-size="14.00" fill="#3cb4a4">virtualObject</text>
</g>
<!-- node13&#45;&gt;node8 -->
<g id="edge10" class="edge">
<title>node13&#45;&gt;node8</title>
<path fill="none" stroke="#da2d4f" stroke-width="2" d="M189.5,-341.88C189.5,-312 189.5,-250.11 189.5,-214.27"/>
<polygon fill="#da2d4f" stroke="#da2d4f" stroke-width="2" points="193,-214.05 189.5,-204.05 186,-214.05 193,-214.05"/>
</g>
<!-- node13&#45;&gt;node14 -->
<g id="edge12" class="edge">
<title>node13&#45;&gt;node14</title>
<path fill="none" stroke="#3cb4a4" d="M157.61,-341.98C148.3,-336.6 138.28,-330.38 129.5,-324 118.79,-316.22 107.77,-306.74 98.36,-298.14"/>
<polygon fill="#3cb4a4" stroke="#3cb4a4" points="100.59,-295.43 90.88,-291.17 95.82,-300.55 100.59,-295.43"/>
<text text-anchor="middle" x="152.5" y="-312.8" font-family="arial" font-size="14.00" fill="#3cb4a4">commit</text>
</g>
<!-- node14&#45;&gt;node8 -->
<g id="edge2" class="edge">
<title>node14&#45;&gt;node8</title>
<path fill="none" stroke="#3cb4a4" d="M96.97,-254.8C114.51,-241.95 138.65,-224.26 157.88,-210.17"/>
<polygon fill="#3cb4a4" stroke="#3cb4a4" points="160.06,-212.91 166.06,-204.18 155.93,-207.26 160.06,-212.91"/>
<text text-anchor="middle" x="155" y="-225.8" font-family="arial" font-size="14.00" fill="#3cb4a4">value</text>
</g>
<!-- node14&#45;&gt;node10 -->
<g id="edge4" class="edge">
<title>node14&#45;&gt;node10</title>
<path fill="none" stroke="#3cb4a4" d="M54.54,-254.9C33.18,-233.53 3.85,-196.31 23.5,-168 45.87,-135.77 87.13,-120.27 122.93,-112.82"/>
<polygon fill="#3cb4a4" stroke="#3cb4a4" points="123.69,-116.24 132.86,-110.93 122.38,-109.36 123.69,-116.24"/>
<text text-anchor="middle" x="39" y="-182.3" font-family="arial" font-size="14.00" fill="#3cb4a4">array</text>
</g>
<!-- inline5x10 -->
<g id="node8" class="node">
<title>inline5x10</title>
<ellipse fill="#d7ede7" stroke="black" cx="360.5" cy="-186" rx="27" ry="18"/>
<text text-anchor="middle" x="360.5" y="-184.1" font-family="Arial" font-size="8.00" fill="#1a1919">5 C(0)</text>
</g>
<!-- inline5x10&#45;&gt;node10 -->
<g id="edge5" class="edge">
<title>inline5x10&#45;&gt;node10</title>
<path fill="none" stroke="#3cb4a4" d="M339.2,-174.89C334.37,-172.62 329.26,-170.22 324.5,-168 291.65,-152.7 254.2,-135.52 227.08,-123.13"/>
<text text-anchor="middle" x="293" y="-143.6" font-family="arial" font-size="8.00" fill="#3cb4a4">index</text>
</g>
<!-- inline1x13 -->
<g id="node9" class="node">
<title>inline1x13</title>
<ellipse fill="#d7ede7" stroke="black" cx="196.5" cy="-447" rx="27" ry="18"/>
<text text-anchor="middle" x="196.5" y="-445.1" font-family="Arial" font-size="8.00" fill="#1a1919">1 P(0)</text>
</g>
<!-- inline1x13&#45;&gt;node13 -->
<g id="edge9" class="edge">
<title>inline1x13&#45;&gt;node13</title>
<path fill="none" stroke="#3cb4a4" d="M195.08,-428.8C193.87,-414.05 192.13,-392.92 190.91,-378.18"/>
<text text-anchor="middle" x="205" y="-401.6" font-family="arial" font-size="8.00" fill="#3cb4a4">values</text>
</g>
</g>
</svg>
