<?xml version="1.0" encoding="UTF-8" standalone="no"?>
<!DOCTYPE svg PUBLIC "-//W3C//DTD SVG 1.1//EN"
 "http://www.w3.org/Graphics/SVG/1.1/DTD/svg11.dtd">
<!-- Generated by graphviz version 2.43.0 (0)
 -->
<!-- Title: G Pages: 1 -->
<svg width="243pt" height="198pt"
 viewBox="0.00 0.00 243.43 198.20" xmlns="http://www.w3.org/2000/svg" xmlns:xlink="http://www.w3.org/1999/xlink">
<g id="graph0" class="graph" transform="scale(1 1) rotate(0) translate(4 194.2)">
<title>G</title>
' points="-4,4 -4,-194.2 239.43,-194.2 239.43,4 -4,4"/>
<!-- node0 -->
<g id="node1" class="node">
<title>node0</title>
<polygon fill="#e98693" stroke="black" points="109.46,-190.2 51.98,-190.2 51.98,-154.2 109.46,-154.2 109.46,-190.2"/>
<text text-anchor="middle" x="80.72" y="-169.05" font-family="Arial" font-size="14.00" fill="#1a1919">0 Start</text>
</g>
<!-- node7 -->
<g id="node2" class="node">
<title>node7</title>
<polygon fill="#da2d4f" stroke="black" points="235.65,-109 -0.22,-109 -0.22,-73 235.65,-73 235.65,-109"/>
<text text-anchor="middle" x="117.72" y="-87.85" font-family="Arial" font-size="14.00" fill="#ffffff">7 StoreField JavaExamples.intField</text>
</g>
<!-- node0&#45;&gt;node7 -->
<g id="edge1" class="edge">
<title>node0&#45;&gt;node7</title>
<path fill="none" stroke="#da2d4f" stroke-width="2" d="M88.75,-154.01C93.59,-143.64 99.87,-130.19 105.35,-118.48"/>
<polygon fill="#da2d4f" stroke="#da2d4f" stroke-width="2" points="108.64,-119.69 109.7,-109.15 102.3,-116.73 108.64,-119.69"/>
</g>
<!-- node11 -->
<g id="node3" class="node">
<title>node11</title>
<polygon fill="#e98693" stroke="black" points="156.16,-36 79.27,-36 79.27,0 156.16,0 156.16,-36"/>
<text text-anchor="middle" x="117.72" y="-14.85" font-family="Arial" font-size="14.00" fill="#1a1919">11 Return</text>
</g>
<!-- node7&#45;&gt;node11 -->
<g id="edge3" class="edge">
<title>node7&#45;&gt;node11</title>
<path fill="none" stroke="#da2d4f" stroke-width="2" d="M117.72,-72.81C117.72,-64.79 117.72,-55.05 117.72,-46.07"/>
<polygon fill="#da2d4f" stroke="#da2d4f" stroke-width="2" points="121.22,-46.03 117.72,-36.03 114.22,-46.03 121.22,-46.03"/>
</g>
<!-- inline1x7 -->
<g id="node4" class="node">
<title>inline1x7</title>
<ellipse fill="#d7ede7" stroke="black" cx="154.72" cy="-172.2" rx="27" ry="18"/>
<text text-anchor="middle" x="154.72" y="-170.4" font-family="Arial" font-size="8.00" fill="#1a1919">1 P(0)</text>
</g>
<!-- inline1x7&#45;&gt;node7 -->
<g id="edge2" class="edge">
<title>inline1x7&#45;&gt;node7</title>
<path fill="none" stroke="#3cb4a4" d="M147.05,-154.79C140.83,-141.47 132.08,-122.74 125.76,-109.21"/>
<text text-anchor="middle" x="146.28" y="-129.8" font-family="arial" font-size="8.00" fill="#3cb4a4">value</text>
</g>
</g>
</svg>
