<?xml version="1.0" encoding="UTF-8" standalone="no"?>
<!DOCTYPE svg PUBLIC "-//W3C//DTD SVG 1.1//EN"
 "http://www.w3.org/Graphics/SVG/1.1/DTD/svg11.dtd">
<!-- Generated by graphviz version 2.43.0 (0)
 -->
<!-- Title: G Pages: 1 -->
<svg width="484pt" height="785pt"
 viewBox="0.00 0.00 484.23 784.69" xmlns="http://www.w3.org/2000/svg" xmlns:xlink="http://www.w3.org/1999/xlink">
<g id="graph0" class="graph" transform="scale(1 1) rotate(0) translate(4 780.69)">
<title>G</title>
' points="-4,4 -4,-780.69 480.23,-780.69 480.23,4 -4,4"/>
<!-- node0 -->
<g id="node1" class="node">
<title>node0</title>
<polygon fill="#e98693" stroke="black" points="167.36,-695.49 109.87,-695.49 109.87,-659.49 167.36,-659.49 167.36,-695.49"/>
<text text-anchor="middle" x="138.62" y="-674.34" font-family="Arial" font-size="14.00" fill="#1a1919">0 Start</text>
</g>
<!-- node8 -->
<g id="node5" class="node">
<title>node8</title>
<polygon fill="#e98693" stroke="black" points="181.62,-607.39 127.62,-607.39 127.62,-571.39 181.62,-571.39 181.62,-607.39"/>
<text text-anchor="middle" x="154.62" y="-586.24" font-family="Arial" font-size="14.00" fill="#1a1919">8 If</text>
</g>
<!-- node0&#45;&gt;node8 -->
<g id="edge1" class="edge">
<title>node0&#45;&gt;node8</title>
<path fill="none" stroke="#da2d4f" stroke-width="2" d="M141.78,-659.48C144,-647.53 147.02,-631.29 149.57,-617.56"/>
<polygon fill="#da2d4f" stroke="#da2d4f" stroke-width="2" points="153.02,-618.14 151.41,-607.66 146.14,-616.86 153.02,-618.14"/>
</g>
<!-- node5 -->
<g id="node2" class="node">
<title>node5</title>
<polygon fill="#3cb4a4" stroke="black" points="239.62,-695.49 185.62,-695.49 185.62,-659.49 239.62,-659.49 239.62,-695.49"/>
<text text-anchor="middle" x="212.62" y="-674.34" font-family="Arial" font-size="14.00" fill="#1a1919">5 ==</text>
</g>
<!-- node5&#45;&gt;node8 -->
<g id="edge6" class="edge">
<title>node5&#45;&gt;node8</title>
<path fill="none" stroke="#3cb4a4" d="M201.16,-659.48C192.79,-647.06 181.31,-630.01 171.84,-615.96"/>
<polygon fill="#3cb4a4" stroke="#3cb4a4" points="174.74,-614 166.25,-607.66 168.93,-617.91 174.74,-614"/>
<text text-anchor="middle" x="193.51" y="-630.29" font-family="arial" font-size="14.00" fill="#3cb4a4">?</text>
</g>
<!-- node6 -->
<g id="node3" class="node">
<title>node6</title>
<polygon fill="#e98693" stroke="black" points="308.6,-519.3 244.63,-519.3 244.63,-483.3 308.6,-483.3 308.6,-519.3"/>
<text text-anchor="middle" x="276.62" y="-498.15" font-family="Arial" font-size="14.00" fill="#1a1919">6 Begin</text>
</g>
<!-- node10 -->
<g id="node7" class="node">
<title>node10</title>
<polygon fill="#da2d4f" stroke="black" points="476.35,-446.3 246.88,-446.3 246.88,-410.3 476.35,-410.3 476.35,-446.3"/>
<text text-anchor="middle" x="361.62" y="-425.15" font-family="Arial" font-size="14.00" fill="#ffffff">10 Call JavaExamples.opaqueCall</text>
</g>
<!-- node6&#45;&gt;node10 -->
<g id="edge4" class="edge">
<title>node6&#45;&gt;node10</title>
<path fill="none" stroke="#da2d4f" stroke-width="2" d="M297.19,-483.11C308.05,-474.04 321.54,-462.77 333.36,-452.9"/>
<polygon fill="#da2d4f" stroke="#da2d4f" stroke-width="2" points="335.8,-455.42 341.23,-446.32 331.31,-450.05 335.8,-455.42"/>
</g>
<!-- node7 -->
<g id="node4" class="node">
<title>node7</title>
<polygon fill="#e98693" stroke="black" points="64.6,-519.3 0.63,-519.3 0.63,-483.3 64.6,-483.3 64.6,-519.3"/>
<text text-anchor="middle" x="32.62" y="-498.15" font-family="Arial" font-size="14.00" fill="#1a1919">7 Begin</text>
</g>
<!-- node14 -->
<g id="node9" class="node">
<title>node14</title>
<polygon fill="#da2d4f" stroke="black" points="229.35,-446.3 -0.12,-446.3 -0.12,-410.3 229.35,-410.3 229.35,-446.3"/>
<text text-anchor="middle" x="114.62" y="-425.15" font-family="Arial" font-size="14.00" fill="#ffffff">14 Call JavaExamples.opaqueCall</text>
</g>
<!-- node7&#45;&gt;node14 -->
<g id="edge5" class="edge">
<title>node7&#45;&gt;node14</title>
<path fill="none" stroke="#da2d4f" stroke-width="2" d="M52.47,-483.11C62.94,-474.04 75.95,-462.77 87.36,-452.9"/>
<polygon fill="#da2d4f" stroke="#da2d4f" stroke-width="2" points="89.68,-455.52 94.95,-446.32 85.1,-450.22 89.68,-455.52"/>
</g>
<!-- node8&#45;&gt;node6 -->
<g id="edge8" class="edge">
<title>node8&#45;&gt;node6</title>
<path fill="none" stroke="#da2d4f" stroke-width="2" d="M178.72,-571.38C197.31,-558.26 223.23,-539.97 243.73,-525.5"/>
<polygon fill="#da2d4f" stroke="#da2d4f" stroke-width="2" points="245.99,-528.19 252.15,-519.57 241.96,-522.47 245.99,-528.19"/>
<text text-anchor="middle" x="229.89" y="-542.19" font-family="arial" font-size="14.00" fill="#da2d4f">F</text>
</g>
<!-- node8&#45;&gt;node7 -->
<g id="edge7" class="edge">
<title>node8&#45;&gt;node7</title>
<path fill="none" stroke="#da2d4f" stroke-width="2" d="M130.51,-571.38C111.92,-558.26 86,-539.97 65.5,-525.5"/>
<polygon fill="#da2d4f" stroke="#da2d4f" stroke-width="2" points="67.28,-522.47 57.09,-519.57 63.24,-528.19 67.28,-522.47"/>
<text text-anchor="middle" x="108.89" y="-542.19" font-family="arial" font-size="14.00" fill="#da2d4f">T</text>
</g>
<!-- node9 -->
<g id="node6" class="node">
<title>node9</title>
<polygon fill="#f9f9f9" stroke="black" points="463.52,-519.3 325.72,-519.3 325.72,-483.3 463.52,-483.3 463.52,-519.3"/>
<text text-anchor="middle" x="394.62" y="-498.15" font-family="Arial" font-size="14.00" fill="#1a1919">9 MethodCallTarget</text>
</g>
<!-- node9&#45;&gt;node10 -->
<g id="edge9" class="edge">
<title>node9&#45;&gt;node10</title>
<path fill="none" stroke="#343d46" stroke-dasharray="5,2" d="M382.36,-473.93C378.07,-464.7 373.37,-454.59 369.53,-446.32"/>
<polygon fill="#343d46" stroke="#343d46" points="379.24,-475.52 386.63,-483.11 385.59,-472.57 379.24,-475.52"/>
</g>
<!-- node16 -->
<g id="node10" class="node">
<title>node16</title>
<polygon fill="#e98693" stroke="black" points="332.99,-373.3 272.24,-373.3 272.24,-337.3 332.99,-337.3 332.99,-373.3"/>
<text text-anchor="middle" x="302.62" y="-352.15" font-family="Arial" font-size="14.00" fill="#1a1919">16 End</text>
</g>
<!-- node10&#45;&gt;node16 -->
<g id="edge10" class="edge">
<title>node10&#45;&gt;node16</title>
<path fill="none" stroke="#da2d4f" stroke-width="2" d="M347.33,-410.11C340.09,-401.39 331.15,-390.64 323.18,-381.04"/>
<polygon fill="#da2d4f" stroke="#da2d4f" stroke-width="2" points="325.85,-378.78 316.77,-373.32 320.47,-383.25 325.85,-378.78"/>
</g>
<!-- node19 -->
<g id="node13" class="node">
<title>node19</title>
<polygon fill="#f9f9f9" stroke="black" points="288.62,-212.2 234.62,-212.2 234.62,-176.2 288.62,-176.2 288.62,-212.2"/>
<text text-anchor="middle" x="261.62" y="-191.05" font-family="Arial" font-size="14.00" fill="#1a1919">19 ϕ</text>
</g>
<!-- node10&#45;&gt;node19 -->
<g id="edge17" class="edge">
<title>node10&#45;&gt;node19</title>
<path fill="none" stroke="#3cb4a4" d="M359.36,-410.28C356.57,-391.85 351,-361.81 341.62,-337.3 325.15,-294.3 297.32,-248.59 279.21,-220.96"/>
<polygon fill="#3cb4a4" stroke="#3cb4a4" points="281.92,-218.71 273.47,-212.32 276.09,-222.59 281.92,-218.71"/>
<text text-anchor="middle" x="357.35" y="-308.1" font-family="arial" font-size="14.00" fill="#3cb4a4">from 16</text>
</g>
<!-- node13 -->
<g id="node8" class="node">
<title>node13</title>
<polygon fill="#f9f9f9" stroke="black" points="227.3,-519.3 81.93,-519.3 81.93,-483.3 227.3,-483.3 227.3,-519.3"/>
<text text-anchor="middle" x="154.62" y="-498.15" font-family="Arial" font-size="14.00" fill="#1a1919">13 MethodCallTarget</text>
</g>
<!-- node13&#45;&gt;node14 -->
<g id="edge11" class="edge">
<title>node13&#45;&gt;node14</title>
<path fill="none" stroke="#343d46" stroke-dasharray="5,2" d="M139.92,-474.22C134.68,-464.91 128.91,-454.67 124.21,-446.32"/>
<polygon fill="#343d46" stroke="#343d46" points="136.98,-476.11 144.93,-483.11 143.07,-472.68 136.98,-476.11"/>
</g>
<!-- node18 -->
<g id="node12" class="node">
<title>node18</title>
<polygon fill="#e98693" stroke="black" points="189.99,-373.3 129.24,-373.3 129.24,-337.3 189.99,-337.3 189.99,-373.3"/>
<text text-anchor="middle" x="159.62" y="-352.15" font-family="Arial" font-size="14.00" fill="#1a1919">18 End</text>
</g>
<!-- node14&#45;&gt;node18 -->
<g id="edge12" class="edge">
<title>node14&#45;&gt;node18</title>
<path fill="none" stroke="#da2d4f" stroke-width="2" d="M125.51,-410.11C130.87,-401.65 137.44,-391.28 143.38,-381.91"/>
<polygon fill="#da2d4f" stroke="#da2d4f" stroke-width="2" points="146.43,-383.64 148.82,-373.32 140.51,-379.9 146.43,-383.64"/>
</g>
<!-- node14&#45;&gt;node19 -->
<g id="edge18" class="edge">
<title>node14&#45;&gt;node19</title>
<path fill="none" stroke="#3cb4a4" d="M152.16,-410.19C168.35,-401.19 186.35,-388.79 198.62,-373.3 234.66,-327.78 250.98,-260.05 257.62,-222.59"/>
<polygon fill="#3cb4a4" stroke="#3cb4a4" points="261.12,-222.87 259.31,-212.44 254.22,-221.72 261.12,-222.87"/>
<text text-anchor="middle" x="259.35" y="-308.1" font-family="arial" font-size="14.00" fill="#3cb4a4">from 18</text>
</g>
<!-- node17 -->
<g id="node11" class="node">
<title>node17</title>
<polygon fill="#e98693" stroke="black" points="202.26,-285.2 126.97,-285.2 126.97,-249.2 202.26,-249.2 202.26,-285.2"/>
<text text-anchor="middle" x="164.62" y="-264.05" font-family="Arial" font-size="14.00" fill="#1a1919">17 Merge</text>
</g>
<!-- node16&#45;&gt;node17 -->
<g id="edge13" class="edge">
<title>node16&#45;&gt;node17</title>
<path fill="none" stroke="#da2d4f" stroke-width="2" d="M299.11,-336.9C296.01,-325.82 290.42,-311.94 280.62,-303.2 261.82,-286.42 235.22,-277.68 212.23,-273.13"/>
<polygon fill="#da2d4f" stroke="#da2d4f" stroke-width="2" points="212.76,-269.67 202.3,-271.37 211.54,-276.56 212.76,-269.67"/>
</g>
<!-- node17&#45;&gt;node19 -->
<g id="edge16" class="edge">
<title>node17&#45;&gt;node19</title>
<path fill="none" stroke="#343d46" stroke-dasharray="5,2" d="M196.32,-242.99C210.02,-232.97 225.76,-221.44 238.35,-212.23"/>
<polygon fill="#343d46" stroke="#343d46" points="194.1,-240.28 188.1,-249.01 198.23,-245.93 194.1,-240.28"/>
</g>
<!-- node22 -->
<g id="node15" class="node">
<title>node22</title>
<polygon fill="#e98693" stroke="black" points="189.6,-36 111.63,-36 111.63,0 189.6,0 189.6,-36"/>
<text text-anchor="middle" x="150.62" y="-14.85" font-family="Arial" font-size="14.00" fill="#1a1919">22 Return</text>
</g>
<!-- node17&#45;&gt;node22 -->
<g id="edge15" class="edge">
<title>node17&#45;&gt;node22</title>
<path fill="none" stroke="#da2d4f" stroke-width="2" d="M160.22,-248.82C157.78,-238.29 154.96,-224.56 153.62,-212.2 147.22,-153.31 148.22,-83.75 149.46,-46.25"/>
<polygon fill="#da2d4f" stroke="#da2d4f" stroke-width="2" points="152.96,-46.24 149.82,-36.12 145.96,-45.99 152.96,-46.24"/>
</g>
<!-- node18&#45;&gt;node17 -->
<g id="edge14" class="edge">
<title>node18&#45;&gt;node17</title>
<path fill="none" stroke="#da2d4f" stroke-width="2" d="M160.6,-337.29C161.29,-325.45 162.22,-309.42 163.02,-295.77"/>
<polygon fill="#da2d4f" stroke="#da2d4f" stroke-width="2" points="166.53,-295.65 163.61,-285.47 159.54,-295.25 166.53,-295.65"/>
</g>
<!-- node21 -->
<g id="node14" class="node">
<title>node21</title>
<polygon fill="#3cb4a4" stroke="black" points="216.62,-124.1 162.62,-124.1 162.62,-88.1 216.62,-88.1 216.62,-124.1"/>
<text text-anchor="middle" x="189.62" y="-102.95" font-family="Arial" font-size="14.00" fill="#1a1919">21 +</text>
</g>
<!-- node19&#45;&gt;node21 -->
<g id="edge20" class="edge">
<title>node19&#45;&gt;node21</title>
<path fill="none" stroke="#3cb4a4" d="M247.39,-176.19C236.91,-163.65 222.48,-146.4 210.66,-132.27"/>
<polygon fill="#3cb4a4" stroke="#3cb4a4" points="213.16,-129.79 204.06,-124.37 207.79,-134.28 213.16,-129.79"/>
<text text-anchor="middle" x="235.12" y="-147" font-family="arial" font-size="14.00" fill="#3cb4a4">y</text>
</g>
<!-- node21&#45;&gt;node22 -->
<g id="edge21" class="edge">
<title>node21&#45;&gt;node22</title>
<path fill="none" stroke="#3cb4a4" d="M181.91,-88.09C176.45,-76.02 169,-59.58 162.74,-45.77"/>
<polygon fill="#3cb4a4" stroke="#3cb4a4" points="165.75,-43.93 158.44,-36.27 159.38,-46.82 165.75,-43.93"/>
<text text-anchor="middle" x="190.73" y="-58.9" font-family="arial" font-size="14.00" fill="#3cb4a4">result</text>
</g>
<!-- inline1x5 -->
<g id="node16" class="node">
<title>inline1x5</title>
<ellipse fill="#d7ede7" stroke="black" cx="176.62" cy="-758.69" rx="27" ry="18"/>
<text text-anchor="middle" x="176.62" y="-756.89" font-family="Arial" font-size="8.00" fill="#1a1919">1 P(0)</text>
</g>
<!-- inline1x5&#45;&gt;node5 -->
<g id="edge2" class="edge">
<title>inline1x5&#45;&gt;node5</title>
<path fill="none" stroke="#3cb4a4" d="M184.08,-741.28C190.13,-727.96 198.64,-709.24 204.79,-695.7"/>
<text text-anchor="middle" x="198.62" y="-716.29" font-family="arial" font-size="8.00" fill="#3cb4a4">x</text>
</g>
<!-- inline4x5 -->
<g id="node17" class="node">
<title>inline4x5</title>
<ellipse fill="#d7ede7" stroke="black" cx="248.62" cy="-758.69" rx="27" ry="18"/>
<text text-anchor="middle" x="248.62" y="-756.89" font-family="Arial" font-size="8.00" fill="#1a1919">4 C(0)</text>
</g>
<!-- inline4x5&#45;&gt;node5 -->
<g id="edge3" class="edge">
<title>inline4x5&#45;&gt;node5</title>
<path fill="none" stroke="#3cb4a4" d="M241.16,-741.28C235.1,-727.96 226.59,-709.24 220.44,-695.7"/>
<text text-anchor="middle" x="233.62" y="-716.29" font-family="arial" font-size="8.00" fill="#3cb4a4">y</text>
</g>
<!-- inline2x21 -->
<g id="node18" class="node">
<title>inline2x21</title>
<ellipse fill="#d7ede7" stroke="black" cx="189.62" cy="-194.2" rx="27" ry="18"/>
<text text-anchor="middle" x="189.62" y="-192.4" font-family="Arial" font-size="8.00" fill="#1a1919">2 P(1)</text>
</g>
<!-- inline2x21&#45;&gt;node21 -->
<g id="edge19" class="edge">
<title>inline2x21&#45;&gt;node21</title>
<path fill="none" stroke="#3cb4a4" d="M189.62,-176.19C189.62,-161.19 189.62,-139.44 189.62,-124.37"/>
<text text-anchor="middle" x="191.62" y="-148.35" font-family="arial" font-size="8.00" fill="#3cb4a4">x</text>
</g>
</g>
</svg>
