<?xml version="1.0" encoding="UTF-8" standalone="no"?>
<!DOCTYPE svg PUBLIC "-//W3C//DTD SVG 1.1//EN"
 "http://www.w3.org/Graphics/SVG/1.1/DTD/svg11.dtd">
<!-- Generated by graphviz version 2.44.0 (20200408.0750)
 -->
<!-- Title: G Pages: 1 -->
<svg width="364pt" height="467pt"
 viewBox="0.00 0.00 364.00 467.00" xmlns="http://www.w3.org/2000/svg" xmlns:xlink="http://www.w3.org/1999/xlink">
<g id="graph0" class="graph" transform="scale(1 1) rotate(0) translate(4 463)">
<title>G</title>
<!-- node0 -->
<g id="node1" class="node">
<title>node0</title>
<polygon fill="#e98693" stroke="black" points="56,-459 0,-459 0,-423 56,-423 56,-459"/>
<text text-anchor="middle" x="28" y="-437.3" font-family="Arial" font-size="14.00" fill="#1a1919">0 Start</text>
</g>
<!-- node4 -->
<g id="node2" class="node">
<title>node4</title>
<polygon fill="#da2d4f" stroke="black" points="107.5,-378 20.5,-378 20.5,-342 107.5,-342 107.5,-378"/>
<text text-anchor="middle" x="64" y="-356.3" font-family="Arial" font-size="14.00" fill="#ffffff">4 NewArray</text>
</g>
<!-- node0&#45;&gt;node4 -->
<g id="edge1" class="edge">
<title>node0&#45;&gt;node4</title>
<path fill="none" stroke="#da2d4f" stroke-width="2" d="M35.81,-422.86C40.53,-412.51 46.64,-399.1 51.96,-387.41"/>
<polygon fill="#da2d4f" stroke="#da2d4f" stroke-width="2" points="55.24,-388.66 56.2,-378.11 48.87,-385.76 55.24,-388.66"/>
</g>
<!-- node6 -->
<g id="node3" class="node">
<title>node6</title>
<polygon fill="#da2d4f" stroke="black" points="212,-291 104,-291 104,-255 212,-255 212,-291"/>
<text text-anchor="middle" x="158" y="-269.3" font-family="Arial" font-size="14.00" fill="#ffffff">6 StoreIndexed</text>
</g>
<!-- node4&#45;&gt;node6 -->
<g id="edge3" class="edge">
<title>node4&#45;&gt;node6</title>
<path fill="none" stroke="#da2d4f" stroke-width="2" d="M70.34,-341.61C74.84,-331.15 81.73,-318.14 91,-309 95.77,-304.29 101.3,-300.07 107.11,-296.33"/>
<polygon fill="#da2d4f" stroke="#da2d4f" stroke-width="2" points="108.94,-299.31 115.74,-291.19 105.36,-293.3 108.94,-299.31"/>
</g>
<!-- node4&#45;&gt;node6 -->
<g id="edge4" class="edge">
<title>node4&#45;&gt;node6</title>
<path fill="none" stroke="#3cb4a4" d="M83.02,-341.8C96.91,-329.24 115.92,-312.05 131.33,-298.12"/>
<polygon fill="#3cb4a4" stroke="#3cb4a4" points="133.94,-300.48 139.01,-291.18 129.24,-295.29 133.94,-300.48"/>
<text text-anchor="middle" x="131.5" y="-312.8" font-family="arial" font-size="14.00" fill="#3cb4a4">array</text>
</g>
<!-- node8 -->
<g id="node4" class="node">
<title>node8</title>
<polygon fill="#da2d4f" stroke="black" points="283.5,-204 32.5,-204 32.5,-168 283.5,-168 283.5,-204"/>
<text text-anchor="middle" x="158" y="-182.3" font-family="Arial" font-size="14.00" fill="#ffffff">8 StoreField JavaExamples.objectField</text>
</g>
<!-- node4&#45;&gt;node8 -->
<g id="edge8" class="edge">
<title>node4&#45;&gt;node8</title>
<path fill="none" stroke="#3cb4a4" d="M58.89,-341.67C53.54,-320.05 47.73,-282.59 62,-255 72.16,-235.36 90.9,-220.16 109.14,-209.17"/>
<polygon fill="#3cb4a4" stroke="#3cb4a4" points="111.07,-212.11 118.02,-204.11 107.6,-206.02 111.07,-212.11"/>
<text text-anchor="middle" x="78.5" y="-269.3" font-family="arial" font-size="14.00" fill="#3cb4a4">value</text>
</g>
<!-- node10 -->
<g id="node5" class="node">
<title>node10</title>
<polygon fill="#da2d4f" stroke="black" points="214.5,-123 101.5,-123 101.5,-87 214.5,-87 214.5,-123"/>
<text text-anchor="middle" x="158" y="-101.3" font-family="Arial" font-size="14.00" fill="#ffffff">10 LoadIndexed</text>
</g>
<!-- node4&#45;&gt;node10 -->
<g id="edge10" class="edge">
<title>node4&#45;&gt;node10</title>
<path fill="none" stroke="#3cb4a4" d="M52.56,-341.93C30.44,-306.61 -12.97,-224.1 23,-168 38.44,-143.93 65.83,-129.07 91.92,-119.97"/>
<polygon fill="#3cb4a4" stroke="#3cb4a4" points="93.02,-123.3 101.45,-116.87 90.86,-116.64 93.02,-123.3"/>
<text text-anchor="middle" x="26.5" y="-225.8" font-family="arial" font-size="14.00" fill="#3cb4a4">array</text>
</g>
<!-- node6&#45;&gt;node8 -->
<g id="edge7" class="edge">
<title>node6&#45;&gt;node8</title>
<path fill="none" stroke="#da2d4f" stroke-width="2" d="M158,-254.8C158,-243.16 158,-227.55 158,-214.24"/>
<polygon fill="#da2d4f" stroke="#da2d4f" stroke-width="2" points="161.5,-214.18 158,-204.18 154.5,-214.18 161.5,-214.18"/>
</g>
<!-- node8&#45;&gt;node10 -->
<g id="edge9" class="edge">
<title>node8&#45;&gt;node10</title>
<path fill="none" stroke="#da2d4f" stroke-width="2" d="M158,-167.86C158,-157.71 158,-144.63 158,-133.12"/>
<polygon fill="#da2d4f" stroke="#da2d4f" stroke-width="2" points="161.5,-133.11 158,-123.11 154.5,-133.11 161.5,-133.11"/>
</g>
<!-- node11 -->
<g id="node6" class="node">
<title>node11</title>
<polygon fill="#e98693" stroke="black" points="195.5,-36 120.5,-36 120.5,0 195.5,0 195.5,-36"/>
<text text-anchor="middle" x="158" y="-14.3" font-family="Arial" font-size="14.00" fill="#1a1919">11 Return</text>
</g>
<!-- node10&#45;&gt;node11 -->
<g id="edge12" class="edge">
<title>node10&#45;&gt;node11</title>
<path fill="none" stroke="#da2d4f" stroke-width="2" d="M156.83,-86.92C156.49,-81.22 156.17,-74.84 156,-69 155.79,-61.65 155.94,-53.69 156.23,-46.33"/>
<polygon fill="#da2d4f" stroke="#da2d4f" stroke-width="2" points="159.74,-46.28 156.73,-36.12 152.74,-45.94 159.74,-46.28"/>
</g>
<!-- node10&#45;&gt;node11 -->
<g id="edge13" class="edge">
<title>node10&#45;&gt;node11</title>
<path fill="none" stroke="#3cb4a4" d="M158,-86.8C158,-75.16 158,-59.55 158,-46.24"/>
<polygon fill="#3cb4a4" stroke="#3cb4a4" points="161.5,-46.18 158,-36.18 154.5,-46.18 161.5,-46.18"/>
<text text-anchor="middle" x="175" y="-57.8" font-family="arial" font-size="14.00" fill="#3cb4a4">result</text>
</g>
<!-- inline3x4 -->
<g id="node7" class="node">
<title>inline3x4</title>
<ellipse fill="#d7ede7" stroke="black" cx="101" cy="-441" rx="27" ry="18"/>
<text text-anchor="middle" x="101" y="-439.1" font-family="Arial" font-size="8.00" fill="#1a1919">3 C(1)</text>
</g>
<!-- inline3x4&#45;&gt;node4 -->
<g id="edge2" class="edge">
<title>inline3x4&#45;&gt;node4</title>
<path fill="none" stroke="#3cb4a4" d="M93.33,-423.63C87.11,-410.34 78.36,-391.67 72.04,-378.17"/>
<text text-anchor="middle" x="94" y="-398.6" font-family="arial" font-size="8.00" fill="#3cb4a4">length</text>
</g>
<!-- inline5x6 -->
<g id="node8" class="node">
<title>inline5x6</title>
<ellipse fill="#d7ede7" stroke="black" cx="164" cy="-360" rx="27" ry="18"/>
<text text-anchor="middle" x="164" y="-358.1" font-family="Arial" font-size="8.00" fill="#1a1919">5 C(0)</text>
</g>
<!-- inline5x6&#45;&gt;node6 -->
<g id="edge5" class="edge">
<title>inline5x6&#45;&gt;node6</title>
<path fill="none" stroke="#3cb4a4" d="M162.79,-341.8C161.74,-327.05 160.25,-305.92 159.21,-291.18"/>
<text text-anchor="middle" x="170.5" y="-314.6" font-family="arial" font-size="8.00" fill="#3cb4a4">index</text>
</g>
<!-- inline1x6 -->
<g id="node9" class="node">
<title>inline1x6</title>
<ellipse fill="#d7ede7" stroke="black" cx="236" cy="-360" rx="27" ry="18"/>
<text text-anchor="middle" x="236" y="-358.1" font-family="Arial" font-size="8.00" fill="#1a1919">1 P(0)</text>
</g>
<!-- inline1x6&#45;&gt;node6 -->
<g id="edge6" class="edge">
<title>inline1x6&#45;&gt;node6</title>
<path fill="none" stroke="#3cb4a4" d="M222.41,-344.19C208.88,-329.45 188.12,-306.83 173.85,-291.27"/>
<text text-anchor="middle" x="210.5" y="-314.6" font-family="arial" font-size="8.00" fill="#3cb4a4">value</text>
</g>
<!-- inline5x10 -->
<g id="node10" class="node">
<title>inline5x10</title>
<ellipse fill="#d7ede7" stroke="black" cx="329" cy="-186" rx="27" ry="18"/>
<text text-anchor="middle" x="329" y="-184.1" font-family="Arial" font-size="8.00" fill="#1a1919">5 C(0)</text>
</g>
<!-- inline5x10&#45;&gt;node10 -->
<g id="edge11" class="edge">
<title>inline5x10&#45;&gt;node10</title>
<path fill="none" stroke="#3cb4a4" d="M307.7,-174.89C302.87,-172.62 297.76,-170.22 293,-168 260.15,-152.7 222.7,-135.52 195.58,-123.13"/>
<text text-anchor="middle" x="261.5" y="-143.6" font-family="arial" font-size="8.00" fill="#3cb4a4">index</text>
</g>
</g>
</svg>
