<?xml version="1.0" encoding="UTF-8" standalone="no"?>
<!DOCTYPE svg PUBLIC "-//W3C//DTD SVG 1.1//EN"
 "http://www.w3.org/Graphics/SVG/1.1/DTD/svg11.dtd">
<!-- Generated by graphviz version 2.44.0 (20200408.0750)
 -->
<!-- Title: G Pages: 1 -->
<svg width="436pt" height="627pt"
 viewBox="0.00 0.00 436.00 627.00" xmlns="http://www.w3.org/2000/svg" xmlns:xlink="http://www.w3.org/1999/xlink">
<g id="graph0" class="graph" transform="scale(1 1) rotate(0) translate(4 623)">
<title>G</title>
<!-- node0 -->
<g id="node1" class="node">
<title>node0</title>
<polygon fill="#e98693" stroke="black" points="349,-619 293,-619 293,-583 349,-583 349,-619"/>
<text text-anchor="middle" x="321" y="-597.3" font-family="Arial" font-size="14.00" fill="#1a1919">0 Start</text>
</g>
<!-- node5 -->
<g id="node3" class="node">
<title>node5</title>
<polygon fill="#da2d4f" stroke="black" points="317,-532 211,-532 211,-496 317,-496 317,-532"/>
<text text-anchor="middle" x="264" y="-510.3" font-family="Arial" font-size="14.00" fill="#ffffff">5 MonitorEnter</text>
</g>
<!-- node0&#45;&gt;node5 -->
<g id="edge1" class="edge">
<title>node0&#45;&gt;node5</title>
<path fill="none" stroke="#da2d4f" stroke-width="2" d="M309.47,-582.8C301.35,-570.7 290.36,-554.3 281.21,-540.67"/>
<polygon fill="#da2d4f" stroke="#da2d4f" stroke-width="2" points="283.99,-538.53 275.52,-532.18 278.18,-542.43 283.99,-538.53"/>
</g>
<!-- node4 -->
<g id="node2" class="node">
<title>node4</title>
<polygon fill="#f9f9f9" stroke="black" points="189.5,-619 104.5,-619 104.5,-583 189.5,-583 189.5,-619"/>
<text text-anchor="middle" x="147" y="-597.3" font-family="Arial" font-size="14.00" fill="#1a1919">4 MonitorId</text>
</g>
<!-- node4&#45;&gt;node5 -->
<g id="edge3" class="edge">
<title>node4&#45;&gt;node5</title>
<path fill="none" stroke="#3cb4a4" d="M160.52,-582.78C169.28,-572.39 181.39,-559.39 194,-550 200.36,-545.26 207.46,-540.87 214.63,-536.91"/>
<polygon fill="#3cb4a4" stroke="#3cb4a4" points="216.48,-539.88 223.7,-532.12 213.22,-533.69 216.48,-539.88"/>
<text text-anchor="middle" x="223" y="-553.8" font-family="arial" font-size="14.00" fill="#3cb4a4">monitorId</text>
</g>
<!-- node9 -->
<g id="node5" class="node">
<title>node9</title>
<polygon fill="#da2d4f" stroke="black" points="289,-364 193,-364 193,-328 289,-328 289,-364"/>
<text text-anchor="middle" x="241" y="-342.3" font-family="Arial" font-size="14.00" fill="#ffffff">9 MonitorExit</text>
</g>
<!-- node4&#45;&gt;node9 -->
<g id="edge8" class="edge">
<title>node4&#45;&gt;node9</title>
<path fill="none" stroke="#3cb4a4" d="M137.27,-582.94C118.56,-547.61 82.32,-465.11 117,-409 125.16,-395.79 156.6,-380.15 185.78,-367.88"/>
<polygon fill="#3cb4a4" stroke="#3cb4a4" points="187.22,-371.07 195.14,-364.02 184.56,-364.59 187.22,-371.07"/>
<text text-anchor="middle" x="133" y="-466.8" font-family="arial" font-size="14.00" fill="#3cb4a4">monitorId</text>
</g>
<!-- node7 -->
<g id="node4" class="node">
<title>node7</title>
<polygon fill="#da2d4f" stroke="black" points="355.5,-445 126.5,-445 126.5,-409 355.5,-409 355.5,-445"/>
<text text-anchor="middle" x="241" y="-423.3" font-family="Arial" font-size="14.00" fill="#ffffff">7 StoreField JavaExamples.intField</text>
</g>
<!-- node5&#45;&gt;node7 -->
<g id="edge4" class="edge">
<title>node5&#45;&gt;node7</title>
<path fill="none" stroke="#da2d4f" stroke-width="2" d="M259.35,-495.8C256.17,-484.05 251.89,-468.24 248.26,-454.84"/>
<polygon fill="#da2d4f" stroke="#da2d4f" stroke-width="2" points="251.64,-453.91 245.65,-445.18 244.88,-455.74 251.64,-453.91"/>
</g>
<!-- node7&#45;&gt;node9 -->
<g id="edge6" class="edge">
<title>node7&#45;&gt;node9</title>
<path fill="none" stroke="#da2d4f" stroke-width="2" d="M241,-408.86C241,-398.71 241,-385.63 241,-374.12"/>
<polygon fill="#da2d4f" stroke="#da2d4f" stroke-width="2" points="244.5,-374.11 241,-364.11 237.5,-374.11 244.5,-374.11"/>
</g>
<!-- node12 -->
<g id="node7" class="node">
<title>node12</title>
<polygon fill="#da2d4f" stroke="black" points="256.5,-277 143.5,-277 143.5,-241 256.5,-241 256.5,-277"/>
<text text-anchor="middle" x="200" y="-255.3" font-family="Arial" font-size="14.00" fill="#ffffff">12 MonitorEnter</text>
</g>
<!-- node9&#45;&gt;node12 -->
<g id="edge9" class="edge">
<title>node9&#45;&gt;node12</title>
<path fill="none" stroke="#da2d4f" stroke-width="2" d="M232.7,-327.8C226.98,-315.93 219.26,-299.93 212.76,-286.45"/>
<polygon fill="#da2d4f" stroke="#da2d4f" stroke-width="2" points="215.78,-284.66 208.28,-277.18 209.48,-287.7 215.78,-284.66"/>
</g>
<!-- node11 -->
<g id="node6" class="node">
<title>node11</title>
<polygon fill="#f9f9f9" stroke="black" points="92,-364 0,-364 0,-328 92,-328 92,-364"/>
<text text-anchor="middle" x="46" y="-342.3" font-family="Arial" font-size="14.00" fill="#1a1919">11 MonitorId</text>
</g>
<!-- node11&#45;&gt;node12 -->
<g id="edge11" class="edge">
<title>node11&#45;&gt;node12</title>
<path fill="none" stroke="#3cb4a4" d="M64.49,-327.84C76.5,-317.35 92.87,-304.21 109,-295 118.02,-289.85 127.95,-285.15 137.83,-280.99"/>
<polygon fill="#3cb4a4" stroke="#3cb4a4" points="139.3,-284.17 147.26,-277.17 136.67,-277.68 139.3,-284.17"/>
<text text-anchor="middle" x="138" y="-298.8" font-family="arial" font-size="14.00" fill="#3cb4a4">monitorId</text>
</g>
<!-- node16 -->
<g id="node9" class="node">
<title>node16</title>
<polygon fill="#da2d4f" stroke="black" points="228,-109 124,-109 124,-73 228,-73 228,-109"/>
<text text-anchor="middle" x="176" y="-87.3" font-family="Arial" font-size="14.00" fill="#ffffff">16 MonitorExit</text>
</g>
<!-- node11&#45;&gt;node16 -->
<g id="edge16" class="edge">
<title>node11&#45;&gt;node16</title>
<path fill="none" stroke="#3cb4a4" d="M40.75,-327.76C30.98,-292.1 14.04,-209 49,-154 63.64,-130.97 89.53,-116.24 114.14,-106.96"/>
<polygon fill="#3cb4a4" stroke="#3cb4a4" points="115.57,-110.17 123.84,-103.54 113.25,-103.56 115.57,-110.17"/>
<text text-anchor="middle" x="59" y="-211.8" font-family="arial" font-size="14.00" fill="#3cb4a4">monitorId</text>
</g>
<!-- node14 -->
<g id="node8" class="node">
<title>node14</title>
<polygon fill="#da2d4f" stroke="black" points="294,-190 58,-190 58,-154 294,-154 294,-190"/>
<text text-anchor="middle" x="176" y="-168.3" font-family="Arial" font-size="14.00" fill="#ffffff">14 StoreField JavaExamples.intField</text>
</g>
<!-- node12&#45;&gt;node14 -->
<g id="edge12" class="edge">
<title>node12&#45;&gt;node14</title>
<path fill="none" stroke="#da2d4f" stroke-width="2" d="M195.14,-240.8C191.83,-229.05 187.36,-213.24 183.58,-199.84"/>
<polygon fill="#da2d4f" stroke="#da2d4f" stroke-width="2" points="186.94,-198.85 180.85,-190.18 180.2,-200.75 186.94,-198.85"/>
</g>
<!-- node14&#45;&gt;node16 -->
<g id="edge14" class="edge">
<title>node14&#45;&gt;node16</title>
<path fill="none" stroke="#da2d4f" stroke-width="2" d="M176,-153.86C176,-143.71 176,-130.63 176,-119.12"/>
<polygon fill="#da2d4f" stroke="#da2d4f" stroke-width="2" points="179.5,-119.11 176,-109.11 172.5,-119.11 179.5,-119.11"/>
</g>
<!-- node18 -->
<g id="node10" class="node">
<title>node18</title>
<polygon fill="#e98693" stroke="black" points="214,-36 138,-36 138,0 214,0 214,-36"/>
<text text-anchor="middle" x="176" y="-14.3" font-family="Arial" font-size="14.00" fill="#1a1919">18 Return</text>
</g>
<!-- node16&#45;&gt;node18 -->
<g id="edge17" class="edge">
<title>node16&#45;&gt;node18</title>
<path fill="none" stroke="#da2d4f" stroke-width="2" d="M176,-72.81C176,-64.79 176,-55.05 176,-46.07"/>
<polygon fill="#da2d4f" stroke="#da2d4f" stroke-width="2" points="179.5,-46.03 176,-36.03 172.5,-46.03 179.5,-46.03"/>
</g>
<!-- inline1x5 -->
<g id="node11" class="node">
<title>inline1x5</title>
<ellipse fill="#d7ede7" stroke="black" cx="248" cy="-601" rx="27" ry="18"/>
<text text-anchor="middle" x="248" y="-599.1" font-family="Arial" font-size="8.00" fill="#1a1919">1 P(0)</text>
</g>
<!-- inline1x5&#45;&gt;node5 -->
<g id="edge2" class="edge">
<title>inline1x5&#45;&gt;node5</title>
<path fill="none" stroke="#3cb4a4" d="M251.24,-582.8C254.01,-568.05 257.99,-546.92 260.77,-532.18"/>
<text text-anchor="middle" x="268" y="-555.6" font-family="arial" font-size="8.00" fill="#3cb4a4">object</text>
</g>
<!-- inline2x7 -->
<g id="node12" class="node">
<title>inline2x7</title>
<ellipse fill="#d7ede7" stroke="black" cx="166" cy="-514" rx="27" ry="18"/>
<text text-anchor="middle" x="166" y="-512.1" font-family="Arial" font-size="8.00" fill="#1a1919">2 P(1)</text>
</g>
<!-- inline2x7&#45;&gt;node7 -->
<g id="edge5" class="edge">
<title>inline2x7&#45;&gt;node7</title>
<path fill="none" stroke="#3cb4a4" d="M179.06,-498.19C192.07,-483.45 212.04,-460.83 225.76,-445.27"/>
<text text-anchor="middle" x="217.5" y="-468.6" font-family="arial" font-size="8.00" fill="#3cb4a4">value</text>
</g>
<!-- inline1x9 -->
<g id="node13" class="node">
<title>inline1x9</title>
<ellipse fill="#d7ede7" stroke="black" cx="401" cy="-427" rx="27" ry="18"/>
<text text-anchor="middle" x="401" y="-425.1" font-family="Arial" font-size="8.00" fill="#1a1919">1 P(0)</text>
</g>
<!-- inline1x9&#45;&gt;node9 -->
<g id="edge7" class="edge">
<title>inline1x9&#45;&gt;node9</title>
<path fill="none" stroke="#3cb4a4" d="M379.75,-415.51C353.15,-402.37 307.22,-379.69 275.53,-364.05"/>
<text text-anchor="middle" x="336" y="-384.6" font-family="arial" font-size="8.00" fill="#3cb4a4">object</text>
</g>
<!-- inline1x12 -->
<g id="node14" class="node">
<title>inline1x12</title>
<ellipse fill="#d7ede7" stroke="black" cx="148" cy="-346" rx="27" ry="18"/>
<text text-anchor="middle" x="148" y="-344.1" font-family="Arial" font-size="8.00" fill="#1a1919">1 P(0)</text>
</g>
<!-- inline1x12&#45;&gt;node12 -->
<g id="edge10" class="edge">
<title>inline1x12&#45;&gt;node12</title>
<path fill="none" stroke="#3cb4a4" d="M157.78,-329.01C166.84,-314.2 180.28,-292.23 189.55,-277.08"/>
<text text-anchor="middle" x="189" y="-300.6" font-family="arial" font-size="8.00" fill="#3cb4a4">object</text>
</g>
<!-- inline2x14 -->
<g id="node15" class="node">
<title>inline2x14</title>
<ellipse fill="#d7ede7" stroke="black" cx="98" cy="-259" rx="27" ry="18"/>
<text text-anchor="middle" x="98" y="-257.1" font-family="Arial" font-size="8.00" fill="#1a1919">2 P(1)</text>
</g>
<!-- inline2x14&#45;&gt;node14 -->
<g id="edge13" class="edge">
<title>inline2x14&#45;&gt;node14</title>
<path fill="none" stroke="#3cb4a4" d="M111.59,-243.19C125.12,-228.45 145.88,-205.83 160.15,-190.27"/>
<text text-anchor="middle" x="151.5" y="-213.6" font-family="arial" font-size="8.00" fill="#3cb4a4">value</text>
</g>
<!-- inline1x16 -->
<g id="node16" class="node">
<title>inline1x16</title>
<ellipse fill="#d7ede7" stroke="black" cx="339" cy="-172" rx="27" ry="18"/>
<text text-anchor="middle" x="339" y="-170.1" font-family="Arial" font-size="8.00" fill="#1a1919">1 P(0)</text>
</g>
<!-- inline1x16&#45;&gt;node16 -->
<g id="edge15" class="edge">
<title>inline1x16&#45;&gt;node16</title>
<path fill="none" stroke="#3cb4a4" d="M317.69,-160.67C290.68,-147.58 243.74,-124.83 211.33,-109.13"/>
<text text-anchor="middle" x="274" y="-129.6" font-family="arial" font-size="8.00" fill="#3cb4a4">object</text>
</g>
</g>
</svg>
