<?xml version="1.0" encoding="UTF-8" standalone="no"?>
<!DOCTYPE svg PUBLIC "-//W3C//DTD SVG 1.1//EN"
 "http://www.w3.org/Graphics/SVG/1.1/DTD/svg11.dtd">
<!-- Generated by graphviz version 2.43.0 (0)
 -->
<!-- Title: G Pages: 1 -->
<svg width="484pt" height="735pt"
 viewBox="0.00 0.00 484.29 734.99" xmlns="http://www.w3.org/2000/svg" xmlns:xlink="http://www.w3.org/1999/xlink">
<g id="graph0" class="graph" transform="scale(1 1) rotate(0) translate(4 730.99)">
<title>G</title>
' points="-4,4 -4,-730.99 480.29,-730.99 480.29,4 -4,4"/>
<!-- node0 -->
<g id="node1" class="node">
<title>node0</title>
<polygon fill="#e98693" stroke="black" points="337.03,-645.79 279.55,-645.79 279.55,-609.79 337.03,-609.79 337.03,-645.79"/>
<text text-anchor="middle" x="308.29" y="-624.64" font-family="Arial" font-size="14.00" fill="#1a1919">0 Start</text>
</g>
<!-- node12 -->
<g id="node5" class="node">
<title>node12</title>
<polygon fill="#e98693" stroke="black" points="351.29,-557.69 297.29,-557.69 297.29,-521.69 351.29,-521.69 351.29,-557.69"/>
<text text-anchor="middle" x="324.29" y="-536.54" font-family="Arial" font-size="14.00" fill="#1a1919">12 If</text>
</g>
<!-- node0&#45;&gt;node12 -->
<g id="edge1" class="edge">
<title>node0&#45;&gt;node12</title>
<path fill="none" stroke="#da2d4f" stroke-width="2" d="M311.45,-609.78C313.67,-597.83 316.69,-581.59 319.24,-567.86"/>
<polygon fill="#da2d4f" stroke="#da2d4f" stroke-width="2" points="322.7,-568.43 321.08,-557.96 315.81,-567.15 322.7,-568.43"/>
</g>
<!-- node9 -->
<g id="node2" class="node">
<title>node9</title>
<polygon fill="#3cb4a4" stroke="black" points="409.29,-645.79 355.29,-645.79 355.29,-609.79 409.29,-609.79 409.29,-645.79"/>
<text text-anchor="middle" x="382.29" y="-624.64" font-family="Arial" font-size="14.00" fill="#1a1919">9 ==</text>
</g>
<!-- node9&#45;&gt;node12 -->
<g id="edge6" class="edge">
<title>node9&#45;&gt;node12</title>
<path fill="none" stroke="#3cb4a4" d="M370.83,-609.78C362.47,-597.36 350.98,-580.31 341.51,-566.26"/>
<polygon fill="#3cb4a4" stroke="#3cb4a4" points="344.41,-564.3 335.92,-557.96 338.61,-568.21 344.41,-564.3"/>
<text text-anchor="middle" x="363.18" y="-580.59" font-family="arial" font-size="14.00" fill="#3cb4a4">?</text>
</g>
<!-- node10 -->
<g id="node3" class="node">
<title>node10</title>
<polygon fill="#e98693" stroke="black" points="316.06,-469.59 244.52,-469.59 244.52,-433.59 316.06,-433.59 316.06,-469.59"/>
<text text-anchor="middle" x="280.29" y="-448.44" font-family="Arial" font-size="14.00" fill="#1a1919">10 Begin</text>
</g>
<!-- node20 -->
<g id="node11" class="node">
<title>node20</title>
<polygon fill="#da2d4f" stroke="black" points="224.82,-381.5 159.76,-381.5 159.76,-345.5 224.82,-345.5 224.82,-381.5"/>
<text text-anchor="middle" x="192.29" y="-360.34" font-family="Arial" font-size="14.00" fill="#ffffff">20 Alloc</text>
</g>
<!-- node10&#45;&gt;node20 -->
<g id="edge4" class="edge">
<title>node10&#45;&gt;node20</title>
<path fill="none" stroke="#da2d4f" stroke-width="2" d="M262.9,-433.58C249.85,-420.81 231.8,-403.15 217.21,-388.87"/>
<polygon fill="#da2d4f" stroke="#da2d4f" stroke-width="2" points="219.54,-386.26 209.94,-381.76 214.64,-391.26 219.54,-386.26"/>
</g>
<!-- node11 -->
<g id="node4" class="node">
<title>node11</title>
<polygon fill="#e98693" stroke="black" points="404.52,-469.59 334.06,-469.59 334.06,-433.59 404.52,-433.59 404.52,-469.59"/>
<text text-anchor="middle" x="369.29" y="-448.44" font-family="Arial" font-size="14.00" fill="#1a1919">11 Begin</text>
</g>
<!-- node18 -->
<g id="node9" class="node">
<title>node18</title>
<polygon fill="#e98693" stroke="black" points="468.27,-381.5 390.31,-381.5 390.31,-345.5 468.27,-345.5 468.27,-381.5"/>
<text text-anchor="middle" x="429.29" y="-360.34" font-family="Arial" font-size="14.00" fill="#1a1919">18 Return</text>
</g>
<!-- node11&#45;&gt;node18 -->
<g id="edge5" class="edge">
<title>node11&#45;&gt;node18</title>
<path fill="none" stroke="#da2d4f" stroke-width="2" d="M381.14,-433.58C389.8,-421.16 401.68,-404.11 411.47,-390.06"/>
<polygon fill="#da2d4f" stroke="#da2d4f" stroke-width="2" points="414.41,-391.97 417.26,-381.76 408.67,-387.97 414.41,-391.97"/>
</g>
<!-- node12&#45;&gt;node10 -->
<g id="edge8" class="edge">
<title>node12&#45;&gt;node10</title>
<path fill="none" stroke="#da2d4f" stroke-width="2" d="M315.6,-521.68C309.37,-509.5 300.87,-492.86 293.76,-478.96"/>
<polygon fill="#da2d4f" stroke="#da2d4f" stroke-width="2" points="296.78,-477.18 289.12,-469.86 290.55,-480.36 296.78,-477.18"/>
<text text-anchor="middle" x="310.57" y="-492.49" font-family="arial" font-size="14.00" fill="#da2d4f">F</text>
</g>
<!-- node12&#45;&gt;node11 -->
<g id="edge7" class="edge">
<title>node12&#45;&gt;node11</title>
<path fill="none" stroke="#da2d4f" stroke-width="2" d="M333.18,-521.68C339.55,-509.5 348.25,-492.86 355.51,-478.96"/>
<polygon fill="#da2d4f" stroke="#da2d4f" stroke-width="2" points="358.73,-480.35 360.26,-469.86 352.53,-477.1 358.73,-480.35"/>
<text text-anchor="middle" x="355.57" y="-492.49" font-family="arial" font-size="14.00" fill="#da2d4f">T</text>
</g>
<!-- node13 -->
<g id="node6" class="node">
<title>node13</title>
<polygon fill="#da2d4f" stroke="black" points="325.08,-205.3 59.5,-205.3 59.5,-169.3 325.08,-169.3 325.08,-205.3"/>
<text text-anchor="middle" x="192.29" y="-184.15" font-family="Arial" font-size="14.00" fill="#ffffff">13 StoreField JavaExamples.objectField</text>
</g>
<!-- node15 -->
<g id="node7" class="node">
<title>node15</title>
<polygon fill="#da2d4f" stroke="black" points="250.72,-124.1 133.86,-124.1 133.86,-88.1 250.72,-88.1 250.72,-124.1"/>
<text text-anchor="middle" x="192.29" y="-102.95" font-family="Arial" font-size="14.00" fill="#ffffff">15 LoadIndexed</text>
</g>
<!-- node13&#45;&gt;node15 -->
<g id="edge10" class="edge">
<title>node13&#45;&gt;node15</title>
<path fill="none" stroke="#da2d4f" stroke-width="2" d="M192.29,-169.11C192.29,-158.94 192.29,-145.83 192.29,-134.28"/>
<polygon fill="#da2d4f" stroke="#da2d4f" stroke-width="2" points="195.79,-134.25 192.29,-124.25 188.79,-134.25 195.79,-134.25"/>
</g>
<!-- node16 -->
<g id="node8" class="node">
<title>node16</title>
<polygon fill="#e98693" stroke="black" points="231.27,-36 153.31,-36 153.31,0 231.27,0 231.27,-36"/>
<text text-anchor="middle" x="192.29" y="-14.85" font-family="Arial" font-size="14.00" fill="#1a1919">16 Return</text>
</g>
<!-- node15&#45;&gt;node16 -->
<g id="edge13" class="edge">
<title>node15&#45;&gt;node16</title>
<path fill="none" stroke="#da2d4f" stroke-width="2" d="M191.12,-88.02C190.78,-82.32 190.46,-75.94 190.29,-70.1 190.09,-62.95 190.09,-61.15 190.29,-54 190.36,-51.44 190.47,-48.79 190.59,-46.13"/>
<polygon fill="#da2d4f" stroke="#da2d4f" stroke-width="2" points="194.09,-46.25 191.12,-36.08 187.1,-45.88 194.09,-46.25"/>
</g>
<!-- node15&#45;&gt;node16 -->
<g id="edge14" class="edge">
<title>node15&#45;&gt;node16</title>
<path fill="none" stroke="#3cb4a4" d="M192.29,-88.09C192.29,-76.26 192.29,-60.22 192.29,-46.57"/>
<polygon fill="#3cb4a4" stroke="#3cb4a4" points="195.79,-46.27 192.29,-36.27 188.79,-46.27 195.79,-46.27"/>
<text text-anchor="middle" x="209.41" y="-58.9" font-family="arial" font-size="14.00" fill="#3cb4a4">result</text>
</g>
<!-- node19 -->
<g id="node10" class="node">
<title>node19</title>
<polygon fill="#343d46" stroke="black" points="142.37,-469.59 0.21,-469.59 0.21,-433.59 142.37,-433.59 142.37,-469.59"/>
<text text-anchor="middle" x="71.29" y="-448.44" font-family="Arial" font-size="14.00" fill="#ffffff">19 VirtualArray int[1]</text>
</g>
<!-- node19&#45;&gt;node20 -->
<g id="edge16" class="edge">
<title>node19&#45;&gt;node20</title>
<path fill="none" stroke="#3cb4a4" d="M79.72,-433.49C85.85,-422.53 95.07,-408.68 106.48,-399.5 113.73,-393.67 131.93,-385.97 149.71,-379.27"/>
<polygon fill="#3cb4a4" stroke="#3cb4a4" points="151.3,-382.42 159.47,-375.67 148.88,-375.85 151.3,-382.42"/>
<text text-anchor="middle" x="149.69" y="-404.39" font-family="arial" font-size="14.00" fill="#3cb4a4">virtualObjects</text>
</g>
<!-- node21 -->
<g id="node12" class="node">
<title>node21</title>
<polygon fill="#343d46" stroke="black" points="141.53,-293.4 9.05,-293.4 9.05,-257.4 141.53,-257.4 141.53,-293.4"/>
<text text-anchor="middle" x="75.29" y="-272.25" font-family="Arial" font-size="14.00" fill="#ffffff">21 AllocatedObject</text>
</g>
<!-- node19&#45;&gt;node21 -->
<g id="edge19" class="edge">
<title>node19&#45;&gt;node21</title>
<path fill="none" stroke="#3cb4a4" d="M71.33,-433.48C71.42,-412.68 71.68,-376.51 72.48,-345.5 72.84,-331.62 73.45,-316.18 74.01,-303.42"/>
<polygon fill="#3cb4a4" stroke="#3cb4a4" points="77.51,-303.58 74.46,-293.43 70.51,-303.26 77.51,-303.58"/>
<text text-anchor="middle" x="112.19" y="-360.34" font-family="arial" font-size="14.00" fill="#3cb4a4">virtualObject</text>
</g>
<!-- node20&#45;&gt;node13 -->
<g id="edge18" class="edge">
<title>node20&#45;&gt;node13</title>
<path fill="none" stroke="#da2d4f" stroke-width="2" d="M192.29,-345.48C192.29,-315.29 192.29,-252.16 192.29,-215.76"/>
<polygon fill="#da2d4f" stroke="#da2d4f" stroke-width="2" points="195.79,-215.39 192.29,-205.39 188.79,-215.39 195.79,-215.39"/>
</g>
<!-- node20&#45;&gt;node21 -->
<g id="edge20" class="edge">
<title>node20&#45;&gt;node21</title>
<path fill="none" stroke="#3cb4a4" d="M160.91,-345.4C151.74,-340.01 141.86,-333.81 133.18,-327.5 121.89,-319.28 110.2,-309.29 100.31,-300.33"/>
<polygon fill="#3cb4a4" stroke="#3cb4a4" points="102.53,-297.62 92.81,-293.42 97.79,-302.77 102.53,-297.62"/>
<text text-anchor="middle" x="155.85" y="-316.3" font-family="arial" font-size="14.00" fill="#3cb4a4">commit</text>
</g>
<!-- node21&#45;&gt;node13 -->
<g id="edge9" class="edge">
<title>node21&#45;&gt;node13</title>
<path fill="none" stroke="#3cb4a4" d="M98.41,-257.39C116.24,-244.26 141.09,-225.97 160.75,-211.51"/>
<polygon fill="#3cb4a4" stroke="#3cb4a4" points="162.84,-214.31 168.82,-205.57 158.69,-208.68 162.84,-214.31"/>
<text text-anchor="middle" x="161.02" y="-228.2" font-family="arial" font-size="14.00" fill="#3cb4a4">value</text>
</g>
<!-- node21&#45;&gt;node15 -->
<g id="edge11" class="edge">
<title>node21&#45;&gt;node15</title>
<path fill="none" stroke="#3cb4a4" d="M54.3,-257.3C30.59,-235.89 -2.16,-198.47 18.39,-169.3 42.21,-135.49 86.17,-119.96 123.92,-112.87"/>
<polygon fill="#3cb4a4" stroke="#3cb4a4" points="124.61,-116.3 133.88,-111.17 123.43,-109.4 124.61,-116.3"/>
<text text-anchor="middle" x="35.24" y="-184.15" font-family="arial" font-size="14.00" fill="#3cb4a4">array</text>
</g>
<!-- inline1x9 -->
<g id="node13" class="node">
<title>inline1x9</title>
<ellipse fill="#d7ede7" stroke="black" cx="346.29" cy="-708.99" rx="27" ry="18"/>
<text text-anchor="middle" x="346.29" y="-707.19" font-family="Arial" font-size="8.00" fill="#1a1919">1 P(0)</text>
</g>
<!-- inline1x9&#45;&gt;node9 -->
<g id="edge2" class="edge">
<title>inline1x9&#45;&gt;node9</title>
<path fill="none" stroke="#3cb4a4" d="M353.75,-691.58C359.8,-678.26 368.32,-659.53 374.47,-646"/>
<text text-anchor="middle" x="368.29" y="-666.59" font-family="arial" font-size="8.00" fill="#3cb4a4">x</text>
</g>
<!-- inline6x9 -->
<g id="node14" class="node">
<title>inline6x9</title>
<ellipse fill="#d7ede7" stroke="black" cx="418.29" cy="-708.99" rx="27" ry="18"/>
<text text-anchor="middle" x="418.29" y="-707.19" font-family="Arial" font-size="8.00" fill="#1a1919">6 C(0)</text>
</g>
<!-- inline6x9&#45;&gt;node9 -->
<g id="edge3" class="edge">
<title>inline6x9&#45;&gt;node9</title>
<path fill="none" stroke="#3cb4a4" d="M410.83,-691.58C404.78,-678.26 396.26,-659.53 390.11,-646"/>
<text text-anchor="middle" x="403.29" y="-666.59" font-family="arial" font-size="8.00" fill="#3cb4a4">y</text>
</g>
<!-- inline6x15 -->
<g id="node15" class="node">
<title>inline6x15</title>
<ellipse fill="#d7ede7" stroke="black" cx="370.29" cy="-187.3" rx="27" ry="18"/>
<text text-anchor="middle" x="370.29" y="-185.5" font-family="Arial" font-size="8.00" fill="#1a1919">6 C(0)</text>
</g>
<!-- inline6x15&#45;&gt;node15 -->
<g id="edge12" class="edge">
<title>inline6x15&#45;&gt;node15</title>
<path fill="none" stroke="#3cb4a4" d="M349.02,-176.13C344.19,-173.86 339.07,-171.47 334.29,-169.3 299.99,-153.69 260.74,-136.55 232.21,-124.23"/>
<text text-anchor="middle" x="301.85" y="-144.9" font-family="arial" font-size="8.00" fill="#3cb4a4">index</text>
</g>
<!-- inline2x18 -->
<g id="node16" class="node">
<title>inline2x18</title>
<ellipse fill="#d7ede7" stroke="black" cx="449.29" cy="-451.59" rx="27" ry="18"/>
<text text-anchor="middle" x="449.29" y="-449.79" font-family="Arial" font-size="8.00" fill="#1a1919">2 P(1)</text>
</g>
<!-- inline2x18&#45;&gt;node18 -->
<g id="edge15" class="edge">
<title>inline2x18&#45;&gt;node18</title>
<path fill="none" stroke="#3cb4a4" d="M445.34,-433.58C441.86,-418.59 436.8,-396.84 433.3,-381.76"/>
<text text-anchor="middle" x="450.07" y="-405.74" font-family="arial" font-size="8.00" fill="#3cb4a4">result</text>
</g>
<!-- inline2x20 -->
<g id="node17" class="node">
<title>inline2x20</title>
<ellipse fill="#d7ede7" stroke="black" cx="199.29" cy="-451.59" rx="27" ry="18"/>
<text text-anchor="middle" x="199.29" y="-449.79" font-family="Arial" font-size="8.00" fill="#1a1919">2 P(1)</text>
</g>
<!-- inline2x20&#45;&gt;node20 -->
<g id="edge17" class="edge">
<title>inline2x20&#45;&gt;node20</title>
<path fill="none" stroke="#3cb4a4" d="M197.91,-433.58C196.69,-418.59 194.92,-396.84 193.69,-381.76"/>
<text text-anchor="middle" x="208.85" y="-405.74" font-family="arial" font-size="8.00" fill="#3cb4a4">values</text>
</g>
</g>
</svg>
