<?xml version="1.0" encoding="UTF-8" standalone="no"?>
<!DOCTYPE svg PUBLIC "-//W3C//DTD SVG 1.1//EN"
 "http://www.w3.org/Graphics/SVG/1.1/DTD/svg11.dtd">
<!-- Generated by graphviz version 2.44.0 (20200408.0750)
 -->
<!-- Title: G Pages: 1 -->
<svg width="476pt" height="560pt"
 viewBox="0.00 0.00 475.50 560.00" xmlns="http://www.w3.org/2000/svg" xmlns:xlink="http://www.w3.org/1999/xlink">
<g id="graph0" class="graph" transform="scale(1 1) rotate(0) translate(4 556)">
<title>G</title>
<!-- node0 -->
<g id="node1" class="node">
<title>node0</title>
<polygon fill="#e98693" stroke="black" points="173.5,-471 117.5,-471 117.5,-435 173.5,-435 173.5,-471"/>
<text text-anchor="middle" x="145.5" y="-449.3" font-family="Arial" font-size="14.00" fill="#1a1919">0 Start</text>
</g>
<!-- node8 -->
<g id="node4" class="node">
<title>node8</title>
<polygon fill="#ffa500" stroke="black" points="395,-384 150,-384 150,-348 395,-348 395,-384"/>
<text text-anchor="middle" x="272.5" y="-362.3" font-family="Arial" font-size="14.00" fill="#1a1919">8 Guard not, else NullCheckException</text>
</g>
<!-- node0&#45;&gt;node8 -->
<g id="edge4" class="edge">
<title>node0&#45;&gt;node8</title>
<path fill="none" stroke="#3cb4a4" d="M171.2,-434.8C190.57,-421.84 217.31,-403.94 238.45,-389.79"/>
<polygon fill="#3cb4a4" stroke="#3cb4a4" points="240.47,-392.65 246.84,-384.18 236.58,-386.83 240.47,-392.65"/>
<text text-anchor="middle" x="238.5" y="-405.8" font-family="arial" font-size="14.00" fill="#3cb4a4">anchor</text>
</g>
<!-- node12 -->
<g id="node7" class="node">
<title>node12</title>
<polygon fill="#da2d4f" stroke="black" points="275,-123 0,-123 0,-87 275,-87 275,-123"/>
<text text-anchor="middle" x="137.5" y="-101.3" font-family="Arial" font-size="14.00" fill="#ffffff">12 Read#JavaExamples$ExampleObject.x</text>
</g>
<!-- node0&#45;&gt;node12 -->
<g id="edge1" class="edge">
<title>node0&#45;&gt;node12</title>
<path fill="none" stroke="#da2d4f" stroke-width="2" d="M137.64,-434.82C130.64,-417.93 121.5,-391.23 121.5,-367 121.5,-367 121.5,-367 121.5,-191 121.5,-171.41 125.65,-149.72 129.73,-133.15"/>
<polygon fill="#da2d4f" stroke="#da2d4f" stroke-width="2" points="133.22,-133.64 132.35,-123.08 126.44,-131.88 133.22,-133.64"/>
</g>
<!-- node6 -->
<g id="node2" class="node">
<title>node6</title>
<polygon fill="#e98693" stroke="black" points="171.5,-36 103.5,-36 103.5,0 171.5,0 171.5,-36"/>
<text text-anchor="middle" x="137.5" y="-14.3" font-family="Arial" font-size="14.00" fill="#1a1919">6 Return</text>
</g>
<!-- node7 -->
<g id="node3" class="node">
<title>node7</title>
<polygon fill="#3cb4a4" stroke="black" points="272.5,-471 215.52,-453 272.5,-435 329.48,-453 272.5,-471"/>
<text text-anchor="middle" x="272.5" y="-449.3" font-family="Arial" font-size="14.00" fill="#1a1919">7 IsNull</text>
</g>
<!-- node7&#45;&gt;node8 -->
<g id="edge5" class="edge">
<title>node7&#45;&gt;node8</title>
<path fill="none" stroke="#3cb4a4" d="M272.5,-434.8C272.5,-423.16 272.5,-407.55 272.5,-394.24"/>
<polygon fill="#3cb4a4" stroke="#3cb4a4" points="276,-394.18 272.5,-384.18 269,-394.18 276,-394.18"/>
<text text-anchor="middle" x="276.5" y="-405.8" font-family="arial" font-size="14.00" fill="#3cb4a4">?</text>
</g>
<!-- node9 -->
<g id="node5" class="node">
<title>node9</title>
<polygon fill="#f9f9f9" stroke="black" points="299.5,-297 245.5,-297 245.5,-261 299.5,-261 299.5,-297"/>
<text text-anchor="middle" x="272.5" y="-275.3" font-family="Arial" font-size="14.00" fill="#1a1919">9 π</text>
</g>
<!-- node8&#45;&gt;node9 -->
<g id="edge6" class="edge">
<title>node8&#45;&gt;node9</title>
<path fill="none" stroke="#3cb4a4" d="M272.5,-347.8C272.5,-336.16 272.5,-320.55 272.5,-307.24"/>
<polygon fill="#3cb4a4" stroke="#3cb4a4" points="276,-307.18 272.5,-297.18 269,-307.18 276,-307.18"/>
<text text-anchor="middle" x="290" y="-318.8" font-family="arial" font-size="14.00" fill="#3cb4a4">guard</text>
</g>
<!-- node11 -->
<g id="node6" class="node">
<title>node11</title>
<polygon fill="#f9f9f9" stroke="black" points="333,-210 212,-210 212,-174 333,-174 333,-210"/>
<text text-anchor="middle" x="272.5" y="-188.3" font-family="Arial" font-size="14.00" fill="#1a1919">11 OffsetAddress</text>
</g>
<!-- node9&#45;&gt;node11 -->
<g id="edge8" class="edge">
<title>node9&#45;&gt;node11</title>
<path fill="none" stroke="#3cb4a4" d="M272.5,-260.8C272.5,-249.16 272.5,-233.55 272.5,-220.24"/>
<polygon fill="#3cb4a4" stroke="#3cb4a4" points="276,-220.18 272.5,-210.18 269,-220.18 276,-220.18"/>
<text text-anchor="middle" x="287.5" y="-231.8" font-family="arial" font-size="14.00" fill="#3cb4a4">base</text>
</g>
<!-- node11&#45;&gt;node12 -->
<g id="edge10" class="edge">
<title>node11&#45;&gt;node12</title>
<path fill="none" stroke="#3cb4a4" d="M245.18,-173.8C224.5,-160.78 195.92,-142.78 173.39,-128.6"/>
<polygon fill="#3cb4a4" stroke="#3cb4a4" points="175.11,-125.54 164.78,-123.18 171.38,-131.47 175.11,-125.54"/>
<text text-anchor="middle" x="238" y="-144.8" font-family="arial" font-size="14.00" fill="#3cb4a4">address</text>
</g>
<!-- node12&#45;&gt;node6 -->
<g id="edge2" class="edge">
<title>node12&#45;&gt;node6</title>
<path fill="none" stroke="#3cb4a4" d="M122.75,-86.88C116.39,-77.44 111.1,-65.35 114.5,-54 115.41,-50.96 116.67,-47.95 118.15,-45.03"/>
<polygon fill="#3cb4a4" stroke="#3cb4a4" points="121.32,-46.55 123.4,-36.16 115.29,-42.98 121.32,-46.55"/>
<text text-anchor="middle" x="131.5" y="-57.8" font-family="arial" font-size="14.00" fill="#3cb4a4">result</text>
</g>
<!-- node12&#45;&gt;node6 -->
<g id="edge11" class="edge">
<title>node12&#45;&gt;node6</title>
<path fill="none" stroke="#da2d4f" stroke-width="2" d="M144.44,-86.98C147.56,-77.35 150.2,-65.07 148.5,-54 148.09,-51.32 147.51,-48.56 146.83,-45.83"/>
<polygon fill="#da2d4f" stroke="#da2d4f" stroke-width="2" points="150.19,-44.83 144.05,-36.2 143.46,-46.78 150.19,-44.83"/>
</g>
<!-- inline1x7 -->
<g id="node8" class="node">
<title>inline1x7</title>
<ellipse fill="#d7ede7" stroke="black" cx="272.5" cy="-534" rx="27" ry="18"/>
<text text-anchor="middle" x="272.5" y="-532.1" font-family="Arial" font-size="8.00" fill="#1a1919">1 P(0)</text>
</g>
<!-- inline1x7&#45;&gt;node7 -->
<g id="edge3" class="edge">
<title>inline1x7&#45;&gt;node7</title>
<path fill="none" stroke="#3cb4a4" d="M272.5,-515.86C272.5,-502.61 272.5,-484.35 272.5,-471.11"/>
<text text-anchor="middle" x="282" y="-491.6" font-family="arial" font-size="8.00" fill="#3cb4a4">value</text>
</g>
<!-- inline1x9 -->
<g id="node9" class="node">
<title>inline1x9</title>
<ellipse fill="#d7ede7" stroke="black" cx="440.5" cy="-366" rx="27" ry="18"/>
<text text-anchor="middle" x="440.5" y="-364.1" font-family="Arial" font-size="8.00" fill="#1a1919">1 P(0)</text>
</g>
<!-- inline1x9&#45;&gt;node9 -->
<g id="edge7" class="edge">
<title>inline1x9&#45;&gt;node9</title>
<path fill="none" stroke="#3cb4a4" d="M419.56,-354.41C389.22,-339.05 332.99,-310.61 299.55,-293.68"/>
<text text-anchor="middle" x="377.5" y="-320.6" font-family="arial" font-size="8.00" fill="#3cb4a4">object</text>
</g>
<!-- inline10x11 -->
<g id="node10" class="node">
<title>inline10x11</title>
<ellipse fill="#d7ede7" stroke="black" cx="345.5" cy="-279" rx="27.59" ry="18"/>
<text text-anchor="middle" x="345.5" y="-277.1" font-family="Arial" font-size="8.00" fill="#1a1919">10 C(12)</text>
</g>
<!-- inline10x11&#45;&gt;node11 -->
<g id="edge9" class="edge">
<title>inline10x11&#45;&gt;node11</title>
<path fill="none" stroke="#3cb4a4" d="M333.97,-262.33C326.42,-252.3 316.19,-239.12 306.5,-228 301.27,-222 295.3,-215.68 289.83,-210.1"/>
<text text-anchor="middle" x="328.5" y="-233.6" font-family="arial" font-size="8.00" fill="#3cb4a4">offset</text>
</g>
</g>
</svg>
