<?xml version="1.0" encoding="UTF-8" standalone="no"?>
<!DOCTYPE svg PUBLIC "-//W3C//DTD SVG 1.1//EN"
 "http://www.w3.org/Graphics/SVG/1.1/DTD/svg11.dtd">
<!-- Generated by graphviz version 2.43.0 (0)
 -->
<!-- Title: G Pages: 1 -->
<svg width="432pt" height="705pt"
 viewBox="0.00 0.00 431.90 704.79" xmlns="http://www.w3.org/2000/svg" xmlns:xlink="http://www.w3.org/1999/xlink">
<g id="graph0" class="graph" transform="scale(1 1) rotate(0) translate(4 700.79)">
<title>G</title>
' points="-4,4 -4,-700.79 427.9,-700.79 427.9,4 -4,4"/>
<!-- node0 -->
<g id="node1" class="node">
<title>node0</title>
<polygon fill="#e98693" stroke="black" points="178.72,-527.5 121.24,-527.5 121.24,-491.5 178.72,-491.5 178.72,-527.5"/>
<text text-anchor="middle" x="149.98" y="-506.34" font-family="Arial" font-size="14.00" fill="#1a1919">0 Start</text>
</g>
<!-- node9 -->
<g id="node3" class="node">
<title>node9</title>
<polygon fill="#e98693" stroke="black" points="192.98,-439.4 138.98,-439.4 138.98,-403.4 192.98,-403.4 192.98,-439.4"/>
<text text-anchor="middle" x="165.98" y="-418.25" font-family="Arial" font-size="14.00" fill="#1a1919">9 If</text>
</g>
<!-- node0&#45;&gt;node9 -->
<g id="edge1" class="edge">
<title>node0&#45;&gt;node9</title>
<path fill="none" stroke="#da2d4f" stroke-width="2" d="M153.14,-491.48C155.36,-479.53 158.38,-463.3 160.93,-449.57"/>
<polygon fill="#da2d4f" stroke="#da2d4f" stroke-width="2" points="164.38,-450.14 162.77,-439.67 157.5,-448.86 164.38,-450.14"/>
</g>
<!-- node7 -->
<g id="node2" class="node">
<title>node7</title>
<polygon fill="#e98693" stroke="black" points="225.68,-36 156.28,-36 156.28,0 225.68,0 225.68,-36"/>
<text text-anchor="middle" x="190.98" y="-14.85" font-family="Arial" font-size="14.00" fill="#1a1919">7 Return</text>
</g>
<!-- node12 -->
<g id="node6" class="node">
<title>node12</title>
<polygon fill="#e98693" stroke="black" points="157.75,-351.3 86.21,-351.3 86.21,-315.3 157.75,-315.3 157.75,-351.3"/>
<text text-anchor="middle" x="121.98" y="-330.15" font-family="Arial" font-size="14.00" fill="#1a1919">12 Begin</text>
</g>
<!-- node9&#45;&gt;node12 -->
<g id="edge4" class="edge">
<title>node9&#45;&gt;node12</title>
<path fill="none" stroke="#da2d4f" stroke-width="2" d="M157.29,-403.39C151.06,-391.2 142.55,-374.56 135.45,-360.66"/>
<polygon fill="#da2d4f" stroke="#da2d4f" stroke-width="2" points="138.47,-358.88 130.8,-351.57 132.24,-362.06 138.47,-358.88"/>
<text text-anchor="middle" x="152.25" y="-374.2" font-family="arial" font-size="14.00" fill="#da2d4f">T</text>
</g>
<!-- node13 -->
<g id="node7" class="node">
<title>node13</title>
<polygon fill="#e98693" stroke="black" points="246.75,-351.3 175.21,-351.3 175.21,-315.3 246.75,-315.3 246.75,-351.3"/>
<text text-anchor="middle" x="210.98" y="-330.15" font-family="Arial" font-size="14.00" fill="#1a1919">13 Begin</text>
</g>
<!-- node9&#45;&gt;node13 -->
<g id="edge5" class="edge">
<title>node9&#45;&gt;node13</title>
<path fill="none" stroke="#da2d4f" stroke-width="2" d="M174.87,-403.39C181.24,-391.2 189.94,-374.56 197.2,-360.66"/>
<polygon fill="#da2d4f" stroke="#da2d4f" stroke-width="2" points="200.42,-362.05 201.95,-351.57 194.22,-358.81 200.42,-362.05"/>
<text text-anchor="middle" x="197.25" y="-374.2" font-family="arial" font-size="14.00" fill="#da2d4f">F</text>
</g>
<!-- node10 -->
<g id="node4" class="node">
<title>node10</title>
<polygon fill="#f9f9f9" stroke="black" points="131.94,-615.59 0.02,-615.59 0.02,-579.59 131.94,-579.59 131.94,-615.59"/>
<text text-anchor="middle" x="65.98" y="-594.44" font-family="Arial" font-size="14.00" fill="#1a1919">10 LoadHubOrNull</text>
</g>
<!-- node11 -->
<g id="node5" class="node">
<title>node11</title>
<polygon fill="#3cb4a4" stroke="black" points="250.98,-527.5 196.98,-527.5 196.98,-491.5 250.98,-491.5 250.98,-527.5"/>
<text text-anchor="middle" x="223.98" y="-506.34" font-family="Arial" font-size="14.00" fill="#1a1919">11 ==</text>
</g>
<!-- node10&#45;&gt;node11 -->
<g id="edge8" class="edge">
<title>node10&#45;&gt;node11</title>
<path fill="none" stroke="#3cb4a4" d="M97.19,-579.58C123.29,-565.36 160.54,-545.07 187.91,-530.15"/>
<polygon fill="#3cb4a4" stroke="#3cb4a4" points="189.67,-533.17 196.78,-525.32 186.32,-527.03 189.67,-533.17"/>
<text text-anchor="middle" x="163.48" y="-550.39" font-family="arial" font-size="14.00" fill="#3cb4a4">y</text>
</g>
<!-- node11&#45;&gt;node9 -->
<g id="edge3" class="edge">
<title>node11&#45;&gt;node9</title>
<path fill="none" stroke="#3cb4a4" d="M212.52,-491.48C204.15,-479.07 192.67,-462.02 183.2,-447.96"/>
<polygon fill="#3cb4a4" stroke="#3cb4a4" points="186.1,-446 177.61,-439.67 180.3,-449.92 186.1,-446"/>
<text text-anchor="middle" x="204.87" y="-462.3" font-family="arial" font-size="14.00" fill="#3cb4a4">?</text>
</g>
<!-- node17 -->
<g id="node11" class="node">
<title>node17</title>
<polygon fill="#e98693" stroke="black" points="160.35,-278.3 99.61,-278.3 99.61,-242.3 160.35,-242.3 160.35,-278.3"/>
<text text-anchor="middle" x="129.98" y="-257.15" font-family="Arial" font-size="14.00" fill="#1a1919">17 End</text>
</g>
<!-- node12&#45;&gt;node17 -->
<g id="edge9" class="edge">
<title>node12&#45;&gt;node17</title>
<path fill="none" stroke="#da2d4f" stroke-width="2" d="M123.92,-315.11C124.82,-307.09 125.92,-297.35 126.93,-288.37"/>
<polygon fill="#da2d4f" stroke="#da2d4f" stroke-width="2" points="130.42,-288.66 128.06,-278.33 123.46,-287.87 130.42,-288.66"/>
</g>
<!-- node15 -->
<g id="node9" class="node">
<title>node15</title>
<polygon fill="#e98693" stroke="black" points="239.35,-278.3 178.61,-278.3 178.61,-242.3 239.35,-242.3 239.35,-278.3"/>
<text text-anchor="middle" x="208.98" y="-257.15" font-family="Arial" font-size="14.00" fill="#1a1919">15 End</text>
</g>
<!-- node13&#45;&gt;node15 -->
<g id="edge10" class="edge">
<title>node13&#45;&gt;node15</title>
<path fill="none" stroke="#da2d4f" stroke-width="2" d="M210.49,-315.11C210.27,-307.09 209.99,-297.35 209.74,-288.37"/>
<polygon fill="#da2d4f" stroke="#da2d4f" stroke-width="2" points="213.24,-288.22 209.46,-278.33 206.24,-288.42 213.24,-288.22"/>
</g>
<!-- node14 -->
<g id="node8" class="node">
<title>node14</title>
<polygon fill="#e98693" stroke="black" points="205.62,-205.3 130.33,-205.3 130.33,-169.3 205.62,-169.3 205.62,-205.3"/>
<text text-anchor="middle" x="167.98" y="-184.15" font-family="Arial" font-size="14.00" fill="#1a1919">14 Merge</text>
</g>
<!-- node14&#45;&gt;node7 -->
<g id="edge13" class="edge">
<title>node14&#45;&gt;node7</title>
<path fill="none" stroke="#da2d4f" stroke-width="2" d="M170.35,-169.02C174.35,-139.97 182.44,-81.1 187.22,-46.37"/>
<polygon fill="#da2d4f" stroke="#da2d4f" stroke-width="2" points="190.69,-46.81 188.58,-36.43 183.75,-45.86 190.69,-46.81"/>
</g>
<!-- node16 -->
<g id="node10" class="node">
<title>node16</title>
<polygon fill="#f9f9f9" stroke="black" points="257.98,-124.1 203.98,-124.1 203.98,-88.1 257.98,-88.1 257.98,-124.1"/>
<text text-anchor="middle" x="230.98" y="-102.95" font-family="Arial" font-size="14.00" fill="#1a1919">16 ϕ</text>
</g>
<!-- node14&#45;&gt;node16 -->
<g id="edge14" class="edge">
<title>node14&#45;&gt;node16</title>
<path fill="none" stroke="#343d46" stroke-dasharray="5,2" d="M187.96,-161.18C197.54,-149.14 208.76,-135.04 217.34,-124.25"/>
<polygon fill="#343d46" stroke="#343d46" points="185.14,-159.11 181.65,-169.11 190.61,-163.47 185.14,-159.11"/>
</g>
<!-- node15&#45;&gt;node14 -->
<g id="edge11" class="edge">
<title>node15&#45;&gt;node14</title>
<path fill="none" stroke="#da2d4f" stroke-width="2" d="M199.05,-242.11C194.22,-233.74 188.3,-223.49 182.94,-214.2"/>
<polygon fill="#da2d4f" stroke="#da2d4f" stroke-width="2" points="185.84,-212.24 177.81,-205.33 179.78,-215.74 185.84,-212.24"/>
</g>
<!-- node16&#45;&gt;node7 -->
<g id="edge2" class="edge">
<title>node16&#45;&gt;node7</title>
<path fill="none" stroke="#3cb4a4" d="M223.08,-88.09C217.42,-75.9 209.68,-59.26 203.23,-45.36"/>
<polygon fill="#3cb4a4" stroke="#3cb4a4" points="206.39,-43.86 199,-36.27 200.04,-46.81 206.39,-43.86"/>
<text text-anchor="middle" x="251.94" y="-58.9" font-family="arial" font-size="14.00" fill="#3cb4a4">result [0 &#45; 1]</text>
</g>
<!-- node17&#45;&gt;node14 -->
<g id="edge12" class="edge">
<title>node17&#45;&gt;node14</title>
<path fill="none" stroke="#da2d4f" stroke-width="2" d="M139.18,-242.11C143.66,-233.74 149.14,-223.49 154.12,-214.2"/>
<polygon fill="#da2d4f" stroke="#da2d4f" stroke-width="2" points="157.23,-215.79 158.86,-205.33 151.06,-212.49 157.23,-215.79"/>
</g>
<!-- inline1x10 -->
<g id="node12" class="node">
<title>inline1x10</title>
<ellipse fill="#d7ede7" stroke="black" cx="65.98" cy="-678.79" rx="27" ry="18"/>
<text text-anchor="middle" x="65.98" y="-676.99" font-family="Arial" font-size="8.00" fill="#1a1919">1 P(0)</text>
</g>
<!-- inline1x10&#45;&gt;node10 -->
<g id="edge6" class="edge">
<title>inline1x10&#45;&gt;node10</title>
<path fill="none" stroke="#3cb4a4" d="M65.98,-660.61C65.98,-647.32 65.98,-629.02 65.98,-615.75"/>
<text text-anchor="middle" x="75.54" y="-636.39" font-family="arial" font-size="8.00" fill="#3cb4a4">value</text>
</g>
<!-- inline8x11 -->
<g id="node13" class="node">
<title>inline8x11</title>
<ellipse fill="#d7ede7" stroke="black" cx="286.98" cy="-597.59" rx="136.84" ry="18"/>
<text text-anchor="middle" x="286.98" y="-595.79" font-family="Arial" font-size="8.00" fill="#1a1919">8 C(meta{HotSpotType&lt;LJavaExamples$OneImpl;, resolved&gt;})</text>
</g>
<!-- inline8x11&#45;&gt;node11 -->
<g id="edge7" class="edge">
<title>inline8x11&#45;&gt;node11</title>
<path fill="none" stroke="#3cb4a4" d="M274.53,-579.58C263.56,-564.59 247.65,-542.84 236.62,-527.76"/>
<text text-anchor="middle" x="262.98" y="-551.74" font-family="arial" font-size="8.00" fill="#3cb4a4">x</text>
</g>
<!-- inline5x16 -->
<g id="node14" class="node">
<title>inline5x16</title>
<ellipse fill="#d7ede7" stroke="black" cx="250.98" cy="-187.3" rx="27" ry="18"/>
<text text-anchor="middle" x="250.98" y="-185.5" font-family="Arial" font-size="8.00" fill="#1a1919">5 C(0)</text>
</g>
<!-- inline5x16&#45;&gt;node16 -->
<g id="edge15" class="edge">
<title>inline5x16&#45;&gt;node16</title>
<path fill="none" stroke="#3cb4a4" d="M246.74,-169.5C243.37,-156.15 238.67,-137.56 235.28,-124.14"/>
<text text-anchor="middle" x="255.54" y="-144.9" font-family="arial" font-size="8.00" fill="#3cb4a4">from 15</text>
</g>
<!-- inline4x16 -->
<g id="node15" class="node">
<title>inline4x16</title>
<ellipse fill="#d7ede7" stroke="black" cx="322.98" cy="-187.3" rx="27" ry="18"/>
<text text-anchor="middle" x="322.98" y="-185.5" font-family="Arial" font-size="8.00" fill="#1a1919">4 C(1)</text>
</g>
<!-- inline4x16&#45;&gt;node16 -->
<g id="edge16" class="edge">
<title>inline4x16&#45;&gt;node16</title>
<path fill="none" stroke="#3cb4a4" d="M307.32,-172.24C297.51,-163.5 284.58,-152.06 272.98,-142.1 266.21,-136.29 258.75,-130.03 252.02,-124.43"/>
<text text-anchor="middle" x="295.54" y="-144.9" font-family="arial" font-size="8.00" fill="#3cb4a4">from 17</text>
</g>
</g>
</svg>
