<?xml version="1.0" encoding="UTF-8" standalone="no"?>
<!DOCTYPE svg PUBLIC "-//W3C//DTD SVG 1.1//EN"
 "http://www.w3.org/Graphics/SVG/1.1/DTD/svg11.dtd">
<!-- Generated by graphviz version 2.44.0 (20200408.0750)
 -->
<!-- Title: G Pages: 1 -->
<svg width="546pt" height="879pt"
 viewBox="0.00 0.00 546.00 879.00" xmlns="http://www.w3.org/2000/svg" xmlns:xlink="http://www.w3.org/1999/xlink">
<g id="graph0" class="graph" transform="scale(1 1) rotate(0) translate(4 875)">
<title>G</title>
<!-- node0 -->
<g id="node1" class="node">
<title>node0</title>
<polygon fill="#e98693" stroke="black" points="386,-871 330,-871 330,-835 386,-835 386,-871"/>
<text text-anchor="middle" x="358" y="-849.3" font-family="Arial" font-size="14.00" fill="#1a1919">0 Start</text>
</g>
<!-- node6 -->
<g id="node4" class="node">
<title>node6</title>
<polygon fill="#da2d4f" stroke="black" points="536,-798 292,-798 292,-762 536,-762 536,-798"/>
<text text-anchor="middle" x="414" y="-776.3" font-family="Arial" font-size="14.00" fill="#ffffff">6 Call JavaExamples.exampleThrow !</text>
</g>
<!-- node0&#45;&gt;node6 -->
<g id="edge1" class="edge">
<title>node0&#45;&gt;node6</title>
<path fill="none" stroke="#da2d4f" stroke-width="2" d="M371.56,-834.81C378.37,-826.18 386.75,-815.56 394.25,-806.03"/>
<polygon fill="#da2d4f" stroke="#da2d4f" stroke-width="2" points="397.12,-808.05 400.57,-798.03 391.63,-803.71 397.12,-808.05"/>
</g>
<!-- node2 -->
<g id="node2" class="node">
<title>node2</title>
<polygon fill="#f9f9f9" stroke="black" points="538,-871 404,-871 404,-835 538,-835 538,-871"/>
<text text-anchor="middle" x="471" y="-849.3" font-family="Arial" font-size="14.00" fill="#1a1919">2 MethodCallTarget</text>
</g>
<!-- node2&#45;&gt;node6 -->
<g id="edge3" class="edge">
<title>node2&#45;&gt;node6</title>
<path fill="none" stroke="#343d46" stroke-dasharray="5,2" d="M450.76,-826.79C443.11,-817.26 434.58,-806.64 427.67,-798.03"/>
<polygon fill="#343d46" stroke="#343d46" points="448.21,-829.21 457.2,-834.81 453.67,-824.82 448.21,-829.21"/>
</g>
<!-- node3 -->
<g id="node3" class="node">
<title>node3</title>
<polygon fill="#f9f9f9" stroke="black" points="412.5,-711 285.5,-711 285.5,-675 412.5,-675 412.5,-711"/>
<text text-anchor="middle" x="349" y="-689.3" font-family="Arial" font-size="14.00" fill="#1a1919">3 ExceptionObject</text>
</g>
<!-- node10 -->
<g id="node7" class="node">
<title>node10</title>
<polygon fill="#f9f9f9" stroke="black" points="246,-342 192,-342 192,-306 246,-306 246,-342"/>
<text text-anchor="middle" x="219" y="-320.3" font-family="Arial" font-size="14.00" fill="#1a1919">10 π</text>
</g>
<!-- node3&#45;&gt;node10 -->
<g id="edge9" class="edge">
<title>node3&#45;&gt;node10</title>
<path fill="none" stroke="#3cb4a4" d="M285.39,-689.44C184.73,-683.64 0,-665.07 0,-607 0,-607 0,-607 0,-410 0,-371.46 119.34,-343.5 181.83,-331.5"/>
<polygon fill="#3cb4a4" stroke="#3cb4a4" points="182.52,-334.93 191.71,-329.65 181.23,-328.05 182.52,-334.93"/>
<text text-anchor="middle" x="18.5" y="-494.3" font-family="arial" font-size="14.00" fill="#3cb4a4">object</text>
</g>
<!-- node13 -->
<g id="node9" class="node">
<title>node13</title>
<polygon fill="#f9f9f9" stroke="black" points="327.5,-624 28.5,-624 28.5,-588 327.5,-588 327.5,-624"/>
<text text-anchor="middle" x="178" y="-602.3" font-family="Arial" font-size="14.00" fill="#1a1919">13 InstanceOf a! Ljava/lang/RuntimeException;</text>
</g>
<!-- node3&#45;&gt;node13 -->
<g id="edge11" class="edge">
<title>node3&#45;&gt;node13</title>
<path fill="none" stroke="#3cb4a4" d="M314.4,-674.8C287.54,-661.45 250.14,-642.86 221.3,-628.52"/>
<polygon fill="#3cb4a4" stroke="#3cb4a4" points="222.77,-625.35 212.26,-624.03 219.66,-631.62 222.77,-625.35"/>
<text text-anchor="middle" x="290.5" y="-645.8" font-family="arial" font-size="14.00" fill="#3cb4a4">value</text>
</g>
<!-- node14 -->
<g id="node10" class="node">
<title>node14</title>
<polygon fill="#e98693" stroke="black" points="316,-516 262,-516 262,-480 316,-480 316,-516"/>
<text text-anchor="middle" x="289" y="-494.3" font-family="Arial" font-size="14.00" fill="#1a1919">14 If</text>
</g>
<!-- node3&#45;&gt;node14 -->
<g id="edge2" class="edge">
<title>node3&#45;&gt;node14</title>
<path fill="none" stroke="#da2d4f" stroke-width="2" d="M348.73,-674.66C347.98,-653.69 345.29,-617.5 336,-588 328.96,-565.64 316.39,-542.27 306.02,-525.1"/>
<polygon fill="#da2d4f" stroke="#da2d4f" stroke-width="2" points="308.77,-522.9 300.54,-516.24 302.82,-526.58 308.77,-522.9"/>
</g>
<!-- node23 -->
<g id="node16" class="node">
<title>node23</title>
<polygon fill="#da2d4f" stroke="black" points="422,-342 342,-342 342,-306 422,-306 422,-342"/>
<text text-anchor="middle" x="382" y="-320.3" font-family="Arial" font-size="14.00" fill="#ffffff">23 Unwind</text>
</g>
<!-- node3&#45;&gt;node23 -->
<g id="edge20" class="edge">
<title>node3&#45;&gt;node23</title>
<path fill="none" stroke="#3cb4a4" d="M364.49,-674.83C377.5,-658.58 394,-632.88 394,-607 394,-607 394,-607 394,-410 394,-390.56 390.89,-368.87 387.83,-352.26"/>
<polygon fill="#3cb4a4" stroke="#3cb4a4" points="391.21,-351.3 385.86,-342.16 384.34,-352.64 391.21,-351.3"/>
<text text-anchor="middle" x="423" y="-494.3" font-family="arial" font-size="14.00" fill="#3cb4a4">exception</text>
</g>
<!-- node6&#45;&gt;node3 -->
<g id="edge5" class="edge">
<title>node6&#45;&gt;node3</title>
<path fill="none" stroke="#da2d4f" stroke-width="2" d="M400.85,-761.8C391.51,-749.59 378.82,-732.99 368.33,-719.28"/>
<polygon fill="#da2d4f" stroke="#da2d4f" stroke-width="2" points="370.99,-716.99 362.13,-711.18 365.43,-721.25 370.99,-716.99"/>
<text text-anchor="middle" x="407.5" y="-732.8" font-family="arial" font-size="14.00" fill="#da2d4f">unwind</text>
</g>
<!-- node8 -->
<g id="node5" class="node">
<title>node8</title>
<polygon fill="#e98693" stroke="black" points="529,-711 431,-711 431,-675 529,-675 529,-711"/>
<text text-anchor="middle" x="480" y="-689.3" font-family="Arial" font-size="14.00" fill="#1a1919">8 KillingBegin</text>
</g>
<!-- node6&#45;&gt;node8 -->
<g id="edge4" class="edge">
<title>node6&#45;&gt;node8</title>
<path fill="none" stroke="#da2d4f" stroke-width="2" d="M427.36,-761.8C436.84,-749.59 449.72,-732.99 460.37,-719.28"/>
<polygon fill="#da2d4f" stroke="#da2d4f" stroke-width="2" points="463.3,-721.22 466.66,-711.18 457.77,-716.93 463.3,-721.22"/>
</g>
<!-- node20 -->
<g id="node14" class="node">
<title>node20</title>
<polygon fill="#e98693" stroke="black" points="509.5,-570 450.5,-570 450.5,-534 509.5,-534 509.5,-570"/>
<text text-anchor="middle" x="480" y="-548.3" font-family="Arial" font-size="14.00" fill="#1a1919">20 End</text>
</g>
<!-- node8&#45;&gt;node20 -->
<g id="edge6" class="edge">
<title>node8&#45;&gt;node20</title>
<path fill="none" stroke="#da2d4f" stroke-width="2" d="M480,-674.96C480,-651.4 480,-608.64 480,-580.53"/>
<polygon fill="#da2d4f" stroke="#da2d4f" stroke-width="2" points="483.5,-580.18 480,-570.18 476.5,-580.18 483.5,-580.18"/>
</g>
<!-- node9 -->
<g id="node6" class="node">
<title>node9</title>
<polygon fill="#e98693" stroke="black" points="278,-429 216,-429 216,-393 278,-393 278,-429"/>
<text text-anchor="middle" x="247" y="-407.3" font-family="Arial" font-size="14.00" fill="#1a1919">9 Begin</text>
</g>
<!-- node9&#45;&gt;node10 -->
<g id="edge8" class="edge">
<title>node9&#45;&gt;node10</title>
<path fill="none" stroke="#3cb4a4" d="M234.2,-392.98C230.66,-387.5 227.2,-381.22 225,-375 222.46,-367.83 220.96,-359.76 220.07,-352.23"/>
<polygon fill="#3cb4a4" stroke="#3cb4a4" points="223.54,-351.75 219.2,-342.09 216.57,-352.35 223.54,-351.75"/>
<text text-anchor="middle" x="242.5" y="-363.8" font-family="arial" font-size="14.00" fill="#3cb4a4">guard</text>
</g>
<!-- node15 -->
<g id="node11" class="node">
<title>node15</title>
<polygon fill="#da2d4f" stroke="black" points="403,-255 145,-255 145,-219 403,-219 403,-255"/>
<text text-anchor="middle" x="274" y="-233.3" font-family="Arial" font-size="14.00" fill="#ffffff">15 StoreField JavaExamples.objectField</text>
</g>
<!-- node9&#45;&gt;node15 -->
<g id="edge7" class="edge">
<title>node9&#45;&gt;node15</title>
<path fill="none" stroke="#da2d4f" stroke-width="2" d="M254.37,-392.82C256.5,-387.23 258.62,-380.93 260,-375 268.71,-337.59 272,-293.17 273.25,-265.28"/>
<polygon fill="#da2d4f" stroke="#da2d4f" stroke-width="2" points="276.75,-265.23 273.64,-255.1 269.76,-264.96 276.75,-265.23"/>
</g>
<!-- node10&#45;&gt;node15 -->
<g id="edge15" class="edge">
<title>node10&#45;&gt;node15</title>
<path fill="none" stroke="#3cb4a4" d="M218.6,-305.69C219.11,-295.52 221.08,-282.77 227,-273 229.5,-268.87 232.7,-265.06 236.24,-261.61"/>
<polygon fill="#3cb4a4" stroke="#3cb4a4" points="238.6,-264.19 243.88,-255.01 234.02,-258.89 238.6,-264.19"/>
<text text-anchor="middle" x="243.5" y="-276.8" font-family="arial" font-size="14.00" fill="#3cb4a4">value</text>
</g>
<!-- node12 -->
<g id="node8" class="node">
<title>node12</title>
<polygon fill="#e98693" stroke="black" points="366,-429 296,-429 296,-393 366,-393 366,-429"/>
<text text-anchor="middle" x="331" y="-407.3" font-family="Arial" font-size="14.00" fill="#1a1919">12 Begin</text>
</g>
<!-- node12&#45;&gt;node23 -->
<g id="edge10" class="edge">
<title>node12&#45;&gt;node23</title>
<path fill="none" stroke="#da2d4f" stroke-width="2" d="M341.32,-392.8C348.51,-380.82 358.23,-364.62 366.37,-351.06"/>
<polygon fill="#da2d4f" stroke="#da2d4f" stroke-width="2" points="369.55,-352.55 371.69,-342.18 363.55,-348.95 369.55,-352.55"/>
</g>
<!-- node13&#45;&gt;node14 -->
<g id="edge12" class="edge">
<title>node13&#45;&gt;node14</title>
<path fill="none" stroke="#3cb4a4" d="M195.83,-587.97C214.17,-570.46 242.9,-543.02 263.61,-523.25"/>
<polygon fill="#3cb4a4" stroke="#3cb4a4" points="266.03,-525.78 270.84,-516.34 261.19,-520.72 266.03,-525.78"/>
<text text-anchor="middle" x="254" y="-548.3" font-family="arial" font-size="14.00" fill="#3cb4a4">?</text>
</g>
<!-- node14&#45;&gt;node9 -->
<g id="edge13" class="edge">
<title>node14&#45;&gt;node9</title>
<path fill="none" stroke="#da2d4f" stroke-width="2" d="M280.5,-479.8C274.64,-467.93 266.73,-451.93 260.07,-438.45"/>
<polygon fill="#da2d4f" stroke="#da2d4f" stroke-width="2" points="263.05,-436.59 255.49,-429.18 256.78,-439.69 263.05,-436.59"/>
<text text-anchor="middle" x="275.5" y="-450.8" font-family="arial" font-size="14.00" fill="#da2d4f">T</text>
</g>
<!-- node14&#45;&gt;node12 -->
<g id="edge14" class="edge">
<title>node14&#45;&gt;node12</title>
<path fill="none" stroke="#da2d4f" stroke-width="2" d="M297.5,-479.8C303.36,-467.93 311.27,-451.93 317.93,-438.45"/>
<polygon fill="#da2d4f" stroke="#da2d4f" stroke-width="2" points="321.22,-439.69 322.51,-429.18 314.95,-436.59 321.22,-439.69"/>
<text text-anchor="middle" x="317.5" y="-450.8" font-family="arial" font-size="14.00" fill="#da2d4f">F</text>
</g>
<!-- node18 -->
<g id="node12" class="node">
<title>node18</title>
<polygon fill="#e98693" stroke="black" points="421.5,-182 362.5,-182 362.5,-146 421.5,-146 421.5,-182"/>
<text text-anchor="middle" x="392" y="-160.3" font-family="Arial" font-size="14.00" fill="#1a1919">18 End</text>
</g>
<!-- node15&#45;&gt;node18 -->
<g id="edge16" class="edge">
<title>node15&#45;&gt;node18</title>
<path fill="none" stroke="#da2d4f" stroke-width="2" d="M302.26,-218.99C318.06,-209.49 337.93,-197.54 354.95,-187.29"/>
<polygon fill="#da2d4f" stroke="#da2d4f" stroke-width="2" points="356.79,-190.27 363.56,-182.11 353.18,-184.27 356.79,-190.27"/>
</g>
<!-- node19 -->
<g id="node13" class="node">
<title>node19</title>
<polygon fill="#e98693" stroke="black" points="488,-109 414,-109 414,-73 488,-73 488,-109"/>
<text text-anchor="middle" x="451" y="-87.3" font-family="Arial" font-size="14.00" fill="#1a1919">19 Merge</text>
</g>
<!-- node18&#45;&gt;node19 -->
<g id="edge17" class="edge">
<title>node18&#45;&gt;node19</title>
<path fill="none" stroke="#da2d4f" stroke-width="2" d="M406.28,-145.81C413.53,-137.09 422.46,-126.34 430.44,-116.75"/>
<polygon fill="#da2d4f" stroke="#da2d4f" stroke-width="2" points="433.15,-118.96 436.85,-109.03 427.77,-114.48 433.15,-118.96"/>
</g>
<!-- node22 -->
<g id="node15" class="node">
<title>node22</title>
<polygon fill="#e98693" stroke="black" points="489,-36 413,-36 413,0 489,0 489,-36"/>
<text text-anchor="middle" x="451" y="-14.3" font-family="Arial" font-size="14.00" fill="#1a1919">22 Return</text>
</g>
<!-- node19&#45;&gt;node22 -->
<g id="edge19" class="edge">
<title>node19&#45;&gt;node22</title>
<path fill="none" stroke="#da2d4f" stroke-width="2" d="M451,-72.81C451,-64.79 451,-55.05 451,-46.07"/>
<polygon fill="#da2d4f" stroke="#da2d4f" stroke-width="2" points="454.5,-46.03 451,-36.03 447.5,-46.03 454.5,-46.03"/>
</g>
<!-- node20&#45;&gt;node19 -->
<g id="edge18" class="edge">
<title>node20&#45;&gt;node19</title>
<path fill="none" stroke="#da2d4f" stroke-width="2" d="M480,-533.75C480,-514.62 480,-482.86 480,-455.5 480,-455.5 480,-455.5 480,-163 480,-147.25 473.81,-130.9 467.15,-117.86"/>
<polygon fill="#da2d4f" stroke="#da2d4f" stroke-width="2" points="470.17,-116.1 462.3,-109.01 464.03,-119.46 470.17,-116.1"/>
</g>
</g>
</svg>
