<?xml version="1.0" encoding="UTF-8" standalone="no"?>
<!DOCTYPE svg PUBLIC "-//W3C//DTD SVG 1.1//EN"
 "http://www.w3.org/Graphics/SVG/1.1/DTD/svg11.dtd">
<!-- Generated by graphviz version 2.44.0 (20200408.0750)
 -->
<!-- Title: G Pages: 1 -->
<svg width="672pt" height="1515pt"
 viewBox="0.00 0.00 672.00 1515.00" xmlns="http://www.w3.org/2000/svg" xmlns:xlink="http://www.w3.org/1999/xlink">
<g id="graph0" class="graph" transform="scale(1 1) rotate(0) translate(4 1511)">
<title>G</title>
<!-- node0 -->
<g id="node1" class="node">
<title>node0</title>
<polygon fill="#e98693" stroke="black" points="278,-1507 222,-1507 222,-1471 278,-1471 278,-1507"/>
<text text-anchor="middle" x="250" y="-1485.3" font-family="Arial" font-size="14.00" fill="#1a1919">0 Start</text>
</g>
<!-- node4 -->
<g id="node2" class="node">
<title>node4</title>
<polygon fill="#e98693" stroke="black" points="277,-1434 223,-1434 223,-1398 277,-1398 277,-1434"/>
<text text-anchor="middle" x="250" y="-1412.3" font-family="Arial" font-size="14.00" fill="#1a1919">4 End</text>
</g>
<!-- node0&#45;&gt;node4 -->
<g id="edge1" class="edge">
<title>node0&#45;&gt;node4</title>
<path fill="none" stroke="#da2d4f" stroke-width="2" d="M250,-1470.81C250,-1462.79 250,-1453.05 250,-1444.07"/>
<polygon fill="#da2d4f" stroke="#da2d4f" stroke-width="2" points="253.5,-1444.03 250,-1434.03 246.5,-1444.03 253.5,-1444.03"/>
</g>
<!-- node5 -->
<g id="node3" class="node">
<title>node5</title>
<polygon fill="#e98693" stroke="black" points="296,-1361 204,-1361 204,-1325 296,-1325 296,-1361"/>
<text text-anchor="middle" x="250" y="-1339.3" font-family="Arial" font-size="14.00" fill="#1a1919">5 LoopBegin</text>
</g>
<!-- node4&#45;&gt;node5 -->
<g id="edge2" class="edge">
<title>node4&#45;&gt;node5</title>
<path fill="none" stroke="#da2d4f" stroke-width="2" d="M250,-1397.81C250,-1389.79 250,-1380.05 250,-1371.07"/>
<polygon fill="#da2d4f" stroke="#da2d4f" stroke-width="2" points="253.5,-1371.03 250,-1361.03 246.5,-1371.03 253.5,-1371.03"/>
</g>
<!-- node6 -->
<g id="node4" class="node">
<title>node6</title>
<polygon fill="#f9f9f9" stroke="black" points="277,-1280 223,-1280 223,-1244 277,-1244 277,-1280"/>
<text text-anchor="middle" x="250" y="-1258.3" font-family="Arial" font-size="14.00" fill="#1a1919">6 ϕ</text>
</g>
<!-- node5&#45;&gt;node6 -->
<g id="edge4" class="edge">
<title>node5&#45;&gt;node6</title>
<path fill="none" stroke="#343d46" stroke-dasharray="5,2" d="M250,-1314.85C250,-1303.32 250,-1290.25 250,-1280.11"/>
<polygon fill="#343d46" stroke="#343d46" points="246.5,-1314.86 250,-1324.86 253.5,-1314.86 246.5,-1314.86"/>
</g>
<!-- node13 -->
<g id="node7" class="node">
<title>node13</title>
<polygon fill="#e98693" stroke="black" points="88,-1019 0,-1019 0,-983 88,-983 88,-1019"/>
<text text-anchor="middle" x="44" y="-997.3" font-family="Arial" font-size="14.00" fill="#1a1919">13 LoopExit</text>
</g>
<!-- node5&#45;&gt;node13 -->
<g id="edge10" class="edge">
<title>node5&#45;&gt;node13</title>
<path fill="none" stroke="#343d46" stroke-dasharray="5,2" d="M193.85,-1331.95C132.55,-1319.34 43,-1295.38 43,-1263 43,-1263 43,-1263 43,-1087 43,-1063.53 43.39,-1036.43 43.68,-1019.26"/>
<polygon fill="#343d46" stroke="#343d46" points="193.31,-1335.41 203.8,-1333.95 194.69,-1328.55 193.31,-1335.41"/>
</g>
<!-- node15 -->
<g id="node8" class="node">
<title>node15</title>
<polygon fill="#e98693" stroke="black" points="139,-1106 85,-1106 85,-1070 139,-1070 139,-1106"/>
<text text-anchor="middle" x="112" y="-1084.3" font-family="Arial" font-size="14.00" fill="#1a1919">15 If</text>
</g>
<!-- node5&#45;&gt;node15 -->
<g id="edge3" class="edge">
<title>node5&#45;&gt;node15</title>
<path fill="none" stroke="#da2d4f" stroke-width="2" d="M203.69,-1333.04C173.11,-1324.63 134.8,-1308.85 113,-1280 76.68,-1231.93 91.41,-1155.89 103.02,-1115.79"/>
<polygon fill="#da2d4f" stroke="#da2d4f" stroke-width="2" points="106.38,-1116.76 105.95,-1106.18 99.69,-1114.72 106.38,-1116.76"/>
</g>
<!-- node33 -->
<g id="node19" class="node">
<title>node33</title>
<polygon fill="#e98693" stroke="black" points="530,-263 442,-263 442,-227 530,-227 530,-263"/>
<text text-anchor="middle" x="486" y="-241.3" font-family="Arial" font-size="14.00" fill="#1a1919">33 LoopExit</text>
</g>
<!-- node5&#45;&gt;node33 -->
<g id="edge33" class="edge">
<title>node5&#45;&gt;node33</title>
<path fill="none" stroke="#343d46" stroke-dasharray="5,2" d="M306.5,-1342.83C419.8,-1342.97 664,-1334.93 664,-1263 664,-1263 664,-1263 664,-317 664,-259.44 582.71,-247.25 530,-245.4"/>
<polygon fill="#343d46" stroke="#343d46" points="306.3,-1339.33 296.29,-1342.8 306.27,-1346.33 306.3,-1339.33"/>
</g>
<!-- node42 -->
<g id="node25" class="node">
<title>node42</title>
<polygon fill="#e98693" stroke="black" points="635.5,-423 546.5,-423 546.5,-387 635.5,-387 635.5,-423"/>
<text text-anchor="middle" x="591" y="-401.3" font-family="Arial" font-size="14.00" fill="#1a1919">42 LoopEnd</text>
</g>
<!-- node5&#45;&gt;node42 -->
<g id="edge45" class="edge">
<title>node5&#45;&gt;node42</title>
<path fill="none" stroke="#da2d4f" stroke-width="4" d="M306.56,-1340.46C403.49,-1336.26 591,-1320.68 591,-1263 591,-1263 591,-1263 591,-477 591,-458.63 591,-437.59 591,-423.22"/>
<polygon fill="#da2d4f" stroke="#da2d4f" stroke-width="4" points="306.19,-1336.97 296.34,-1340.87 306.48,-1343.96 306.19,-1336.97"/>
</g>
<!-- node10 -->
<g id="node5" class="node">
<title>node10</title>
<polygon fill="#3cb4a4" stroke="black" points="149,-1193 108.61,-1175 149,-1157 189.39,-1175 149,-1193"/>
<text text-anchor="middle" x="149" y="-1171.3" font-family="Arial" font-size="14.00" fill="#1a1919">10 &lt;</text>
</g>
<!-- node6&#45;&gt;node10 -->
<g id="edge7" class="edge">
<title>node6&#45;&gt;node10</title>
<path fill="none" stroke="#3cb4a4" d="M222.73,-1245.13C213.88,-1239.51 204.23,-1232.87 196,-1226 185.28,-1217.05 174.53,-1205.82 166.02,-1196.27"/>
<polygon fill="#3cb4a4" stroke="#3cb4a4" points="168.65,-1193.97 159.45,-1188.73 163.38,-1198.57 168.65,-1193.97"/>
<text text-anchor="middle" x="199.5" y="-1214.8" font-family="arial" font-size="14.00" fill="#3cb4a4">x</text>
</g>
<!-- node36 -->
<g id="node21" class="node">
<title>node36</title>
<polygon fill="#da2d4f" stroke="black" points="392,-263 156,-263 156,-227 392,-227 392,-263"/>
<text text-anchor="middle" x="274" y="-241.3" font-family="Arial" font-size="14.00" fill="#ffffff">36 StoreField JavaExamples.intField</text>
</g>
<!-- node6&#45;&gt;node36 -->
<g id="edge38" class="edge">
<title>node6&#45;&gt;node36</title>
<path fill="none" stroke="#3cb4a4" d="M246.57,-1243.91C245.43,-1238.22 244.16,-1231.84 243,-1226 215.19,-1085.61 225.22,-1046.12 181,-910 149.13,-811.9 90,-799.65 90,-696.5 90,-696.5 90,-696.5 90,-520.5 90,-411.58 191.19,-313.25 243.49,-269.7"/>
<polygon fill="#3cb4a4" stroke="#3cb4a4" points="245.92,-272.23 251.44,-263.19 241.48,-266.82 245.92,-272.23"/>
<text text-anchor="middle" x="115.5" y="-735.3" font-family="arial" font-size="14.00" fill="#3cb4a4">value</text>
</g>
<!-- node41 -->
<g id="node24" class="node">
<title>node41</title>
<polygon fill="#3cb4a4" stroke="black" points="320,-1193 279.61,-1175 320,-1157 360.39,-1175 320,-1193"/>
<text text-anchor="middle" x="320" y="-1171.3" font-family="Arial" font-size="14.00" fill="#1a1919">41 +</text>
</g>
<!-- node6&#45;&gt;node41 -->
<g id="edge43" class="edge">
<title>node6&#45;&gt;node41</title>
<path fill="none" stroke="#3cb4a4" d="M277.03,-1245.06C284.52,-1239.7 292.18,-1233.23 298,-1226 303.98,-1218.57 308.66,-1209.25 312.14,-1200.68"/>
<polygon fill="#3cb4a4" stroke="#3cb4a4" points="315.49,-1201.72 315.67,-1191.12 308.92,-1199.29 315.49,-1201.72"/>
<text text-anchor="middle" x="310.5" y="-1214.8" font-family="arial" font-size="14.00" fill="#3cb4a4">x</text>
</g>
<!-- node10&#45;&gt;node15 -->
<g id="edge12" class="edge">
<title>node10&#45;&gt;node15</title>
<path fill="none" stroke="#3cb4a4" d="M142.72,-1159.58C137.5,-1147.57 129.91,-1130.15 123.59,-1115.63"/>
<polygon fill="#3cb4a4" stroke="#3cb4a4" points="126.66,-1113.9 119.46,-1106.13 120.24,-1116.7 126.66,-1113.9"/>
<text text-anchor="middle" x="137" y="-1127.8" font-family="arial" font-size="14.00" fill="#3cb4a4">?</text>
</g>
<!-- node11 -->
<g id="node6" class="node">
<title>node11</title>
<polygon fill="#e98693" stroke="black" points="175.5,-1019 106.5,-1019 106.5,-983 175.5,-983 175.5,-1019"/>
<text text-anchor="middle" x="141" y="-997.3" font-family="Arial" font-size="14.00" fill="#1a1919">11 Begin</text>
</g>
<!-- node17 -->
<g id="node9" class="node">
<title>node17</title>
<polygon fill="#e98693" stroke="black" points="172.5,-946 113.5,-946 113.5,-910 172.5,-910 172.5,-946"/>
<text text-anchor="middle" x="143" y="-924.3" font-family="Arial" font-size="14.00" fill="#1a1919">17 End</text>
</g>
<!-- node11&#45;&gt;node17 -->
<g id="edge9" class="edge">
<title>node11&#45;&gt;node17</title>
<path fill="none" stroke="#da2d4f" stroke-width="2" d="M141.48,-982.81C141.71,-974.79 141.98,-965.05 142.24,-956.07"/>
<polygon fill="#da2d4f" stroke="#da2d4f" stroke-width="2" points="145.74,-956.12 142.52,-946.03 138.74,-955.93 145.74,-956.12"/>
</g>
<!-- node43 -->
<g id="node26" class="node">
<title>node43</title>
<polygon fill="#e98693" stroke="black" points="73.5,-892 14.5,-892 14.5,-856 73.5,-856 73.5,-892"/>
<text text-anchor="middle" x="44" y="-870.3" font-family="Arial" font-size="14.00" fill="#1a1919">43 End</text>
</g>
<!-- node13&#45;&gt;node43 -->
<g id="edge11" class="edge">
<title>node13&#45;&gt;node43</title>
<path fill="none" stroke="#da2d4f" stroke-width="2" d="M44,-982.88C44,-962.15 44,-926.95 44,-902.42"/>
<polygon fill="#da2d4f" stroke="#da2d4f" stroke-width="2" points="47.5,-902.31 44,-892.31 40.5,-902.31 47.5,-902.31"/>
</g>
<!-- node15&#45;&gt;node11 -->
<g id="edge14" class="edge">
<title>node15&#45;&gt;node11</title>
<path fill="none" stroke="#da2d4f" stroke-width="2" d="M117.87,-1069.8C121.88,-1058.05 127.27,-1042.24 131.84,-1028.84"/>
<polygon fill="#da2d4f" stroke="#da2d4f" stroke-width="2" points="135.22,-1029.77 135.14,-1019.18 128.6,-1027.51 135.22,-1029.77"/>
<text text-anchor="middle" x="133.5" y="-1040.8" font-family="arial" font-size="14.00" fill="#da2d4f">F</text>
</g>
<!-- node15&#45;&gt;node13 -->
<g id="edge13" class="edge">
<title>node15&#45;&gt;node13</title>
<path fill="none" stroke="#da2d4f" stroke-width="2" d="M98.24,-1069.8C88.47,-1057.59 75.19,-1040.99 64.22,-1027.28"/>
<polygon fill="#da2d4f" stroke="#da2d4f" stroke-width="2" points="66.72,-1024.8 57.74,-1019.18 61.25,-1029.17 66.72,-1024.8"/>
<text text-anchor="middle" x="87.5" y="-1040.8" font-family="arial" font-size="14.00" fill="#da2d4f">T</text>
</g>
<!-- node18 -->
<g id="node10" class="node">
<title>node18</title>
<polygon fill="#e98693" stroke="black" points="327,-838 227,-838 227,-802 327,-802 327,-838"/>
<text text-anchor="middle" x="277" y="-816.3" font-family="Arial" font-size="14.00" fill="#1a1919">18 LoopBegin</text>
</g>
<!-- node17&#45;&gt;node18 -->
<g id="edge15" class="edge">
<title>node17&#45;&gt;node18</title>
<path fill="none" stroke="#da2d4f" stroke-width="2" d="M164.53,-909.97C186.86,-892.3 221.96,-864.54 247,-844.73"/>
<polygon fill="#da2d4f" stroke="#da2d4f" stroke-width="2" points="249.41,-847.29 255.08,-838.34 245.06,-841.8 249.41,-847.29"/>
</g>
<!-- node19 -->
<g id="node11" class="node">
<title>node19</title>
<polygon fill="#f9f9f9" stroke="black" points="415,-757 361,-757 361,-721 415,-721 415,-757"/>
<text text-anchor="middle" x="388" y="-735.3" font-family="Arial" font-size="14.00" fill="#1a1919">19 ϕ</text>
</g>
<!-- node18&#45;&gt;node19 -->
<g id="edge17" class="edge">
<title>node18&#45;&gt;node19</title>
<path fill="none" stroke="#343d46" stroke-dasharray="5,2" d="M309.32,-796C326.78,-783.57 347.97,-768.49 363.96,-757.11"/>
<polygon fill="#343d46" stroke="#343d46" points="307.2,-793.21 301.09,-801.86 311.26,-798.91 307.2,-793.21"/>
</g>
<!-- node24 -->
<g id="node14" class="node">
<title>node24</title>
<polygon fill="#e98693" stroke="black" points="525,-496 437,-496 437,-460 525,-460 525,-496"/>
<text text-anchor="middle" x="481" y="-474.3" font-family="Arial" font-size="14.00" fill="#1a1919">24 LoopExit</text>
</g>
<!-- node18&#45;&gt;node24 -->
<g id="edge23" class="edge">
<title>node18&#45;&gt;node24</title>
<path fill="none" stroke="#343d46" stroke-dasharray="5,2" d="M337.32,-804.88C369.01,-797.33 404.42,-788.66 420,-784 454.34,-773.73 465.17,-775.3 496,-757 505.74,-751.22 515,-751.33 515,-740 515,-740 515,-740 515,-564 515,-539.05 502.21,-512.73 492.32,-496.11"/>
<polygon fill="#343d46" stroke="#343d46" points="336.12,-801.57 327.19,-807.28 337.73,-808.38 336.12,-801.57"/>
</g>
<!-- node26 -->
<g id="node15" class="node">
<title>node26</title>
<polygon fill="#e98693" stroke="black" points="374,-583 320,-583 320,-547 374,-547 374,-583"/>
<text text-anchor="middle" x="347" y="-561.3" font-family="Arial" font-size="14.00" fill="#1a1919">26 If</text>
</g>
<!-- node18&#45;&gt;node26 -->
<g id="edge16" class="edge">
<title>node18&#45;&gt;node26</title>
<path fill="none" stroke="#da2d4f" stroke-width="2" d="M275.8,-801.81C274.12,-768.06 273.71,-691.43 299,-634 305.72,-618.74 316.13,-603.43 325.54,-591.2"/>
<polygon fill="#da2d4f" stroke="#da2d4f" stroke-width="2" points="328.36,-593.28 331.84,-583.27 322.88,-588.93 328.36,-593.28"/>
</g>
<!-- node31 -->
<g id="node18" class="node">
<title>node31</title>
<polygon fill="#e98693" stroke="black" points="530,-336 442,-336 442,-300 530,-300 530,-336"/>
<text text-anchor="middle" x="486" y="-314.3" font-family="Arial" font-size="14.00" fill="#1a1919">31 LoopExit</text>
</g>
<!-- node18&#45;&gt;node31 -->
<g id="edge31" class="edge">
<title>node18&#45;&gt;node31</title>
<path fill="none" stroke="#343d46" stroke-dasharray="5,2" d="M337.44,-805.06C342.36,-804 347.26,-802.97 352,-802 443.6,-783.3 553,-833.49 553,-740 553,-740 553,-740 553,-520.5 553,-448.98 514.52,-370.14 495.89,-336.15"/>
<polygon fill="#343d46" stroke="#343d46" points="336.38,-801.71 327.36,-807.27 337.88,-808.55 336.38,-801.71"/>
</g>
<!-- node40 -->
<g id="node23" class="node">
<title>node40</title>
<polygon fill="#e98693" stroke="black" points="212.5,-190 123.5,-190 123.5,-154 212.5,-154 212.5,-190"/>
<text text-anchor="middle" x="168" y="-168.3" font-family="Arial" font-size="14.00" fill="#1a1919">40 LoopEnd</text>
</g>
<!-- node18&#45;&gt;node40 -->
<g id="edge42" class="edge">
<title>node18&#45;&gt;node40</title>
<path fill="none" stroke="#da2d4f" stroke-width="4" d="M221.94,-797.4C203.11,-787.59 183.43,-774.25 170,-757 128.13,-703.22 128,-677.66 128,-609.5 128,-609.5 128,-609.5 128,-244 128,-223.63 140.66,-203.71 151.73,-190.18"/>
<polygon fill="#da2d4f" stroke="#da2d4f" stroke-width="4" points="220.57,-800.62 231.08,-801.93 223.68,-794.35 220.57,-800.62"/>
</g>
<!-- node21 -->
<g id="node12" class="node">
<title>node21</title>
<polygon fill="#3cb4a4" stroke="black" points="348,-670 307.61,-652 348,-634 388.39,-652 348,-670"/>
<text text-anchor="middle" x="348" y="-648.3" font-family="Arial" font-size="14.00" fill="#1a1919">21 &lt;</text>
</g>
<!-- node19&#45;&gt;node21 -->
<g id="edge20" class="edge">
<title>node19&#45;&gt;node21</title>
<path fill="none" stroke="#3cb4a4" d="M363.48,-720.72C358.1,-715.67 353.09,-709.68 350,-703 346.64,-695.74 345.44,-687.23 345.28,-679.31"/>
<polygon fill="#3cb4a4" stroke="#3cb4a4" points="348.79,-679.15 345.6,-669.04 341.79,-678.93 348.79,-679.15"/>
<text text-anchor="middle" x="353.5" y="-691.8" font-family="arial" font-size="14.00" fill="#3cb4a4">x</text>
</g>
<!-- node28 -->
<g id="node16" class="node">
<title>node28</title>
<polygon fill="#3cb4a4" stroke="black" points="204,-670 156.41,-652 204,-634 251.59,-652 204,-670"/>
<text text-anchor="middle" x="204" y="-648.3" font-family="Arial" font-size="14.00" fill="#1a1919">28 ==</text>
</g>
<!-- node19&#45;&gt;node28 -->
<g id="edge28" class="edge">
<title>node19&#45;&gt;node28</title>
<path fill="none" stroke="#3cb4a4" d="M360.95,-725.01C357.94,-723.63 354.91,-722.27 352,-721 332.25,-712.4 326.7,-711.71 307,-703 281.42,-691.69 252.84,-677.71 232.29,-667.41"/>
<polygon fill="#3cb4a4" stroke="#3cb4a4" points="233.68,-664.19 223.17,-662.82 230.53,-670.44 233.68,-664.19"/>
<text text-anchor="middle" x="310.5" y="-691.8" font-family="arial" font-size="14.00" fill="#3cb4a4">x</text>
</g>
<!-- node39 -->
<g id="node22" class="node">
<title>node39</title>
<polygon fill="#3cb4a4" stroke="black" points="447,-670 406.61,-652 447,-634 487.39,-652 447,-670"/>
<text text-anchor="middle" x="447" y="-648.3" font-family="Arial" font-size="14.00" fill="#1a1919">39 +</text>
</g>
<!-- node19&#45;&gt;node39 -->
<g id="edge40" class="edge">
<title>node19&#45;&gt;node39</title>
<path fill="none" stroke="#3cb4a4" d="M409.1,-720.78C414.75,-715.48 420.52,-709.36 425,-703 430.42,-695.31 434.94,-686.07 438.45,-677.64"/>
<polygon fill="#3cb4a4" stroke="#3cb4a4" points="441.74,-678.85 442.09,-668.26 435.21,-676.31 441.74,-678.85"/>
<text text-anchor="middle" x="437.5" y="-691.8" font-family="arial" font-size="14.00" fill="#3cb4a4">x</text>
</g>
<!-- node21&#45;&gt;node26 -->
<g id="edge25" class="edge">
<title>node21&#45;&gt;node26</title>
<path fill="none" stroke="#3cb4a4" d="M347.8,-633.8C347.66,-622.16 347.48,-606.55 347.32,-593.24"/>
<polygon fill="#3cb4a4" stroke="#3cb4a4" points="350.82,-593.13 347.2,-583.18 343.82,-593.22 350.82,-593.13"/>
<text text-anchor="middle" x="352" y="-604.8" font-family="arial" font-size="14.00" fill="#3cb4a4">?</text>
</g>
<!-- node22 -->
<g id="node13" class="node">
<title>node22</title>
<polygon fill="#e98693" stroke="black" points="381,-496 311,-496 311,-460 381,-460 381,-496"/>
<text text-anchor="middle" x="346" y="-474.3" font-family="Arial" font-size="14.00" fill="#1a1919">22 Begin</text>
</g>
<!-- node35 -->
<g id="node20" class="node">
<title>node35</title>
<polygon fill="#e98693" stroke="black" points="362,-423 308,-423 308,-387 362,-387 362,-423"/>
<text text-anchor="middle" x="335" y="-401.3" font-family="Arial" font-size="14.00" fill="#1a1919">35 If</text>
</g>
<!-- node22&#45;&gt;node35 -->
<g id="edge22" class="edge">
<title>node22&#45;&gt;node35</title>
<path fill="none" stroke="#da2d4f" stroke-width="2" d="M343.34,-459.81C342.09,-451.79 340.58,-442.05 339.19,-433.07"/>
<polygon fill="#da2d4f" stroke="#da2d4f" stroke-width="2" points="342.63,-432.38 337.64,-423.03 335.71,-433.45 342.63,-432.38"/>
</g>
<!-- node24&#45;&gt;node42 -->
<g id="edge24" class="edge">
<title>node24&#45;&gt;node42</title>
<path fill="none" stroke="#da2d4f" stroke-width="2" d="M507.35,-459.99C521.93,-450.58 540.25,-438.76 556.02,-428.57"/>
<polygon fill="#da2d4f" stroke="#da2d4f" stroke-width="2" points="557.98,-431.48 564.49,-423.11 554.19,-425.6 557.98,-431.48"/>
</g>
<!-- node26&#45;&gt;node22 -->
<g id="edge27" class="edge">
<title>node26&#45;&gt;node22</title>
<path fill="none" stroke="#da2d4f" stroke-width="2" d="M346.8,-546.8C346.66,-535.16 346.48,-519.55 346.32,-506.24"/>
<polygon fill="#da2d4f" stroke="#da2d4f" stroke-width="2" points="349.82,-506.13 346.2,-496.18 342.82,-506.22 349.82,-506.13"/>
<text text-anchor="middle" x="351.5" y="-517.8" font-family="arial" font-size="14.00" fill="#da2d4f">F</text>
</g>
<!-- node26&#45;&gt;node24 -->
<g id="edge26" class="edge">
<title>node26&#45;&gt;node24</title>
<path fill="none" stroke="#da2d4f" stroke-width="2" d="M374.12,-546.8C394.64,-533.78 423.02,-515.78 445.37,-501.6"/>
<polygon fill="#da2d4f" stroke="#da2d4f" stroke-width="2" points="447.35,-504.49 453.92,-496.18 443.6,-498.58 447.35,-504.49"/>
<text text-anchor="middle" x="427.5" y="-517.8" font-family="arial" font-size="14.00" fill="#da2d4f">T</text>
</g>
<!-- node28&#45;&gt;node35 -->
<g id="edge35" class="edge">
<title>node28&#45;&gt;node35</title>
<path fill="none" stroke="#3cb4a4" d="M211.01,-636.43C226.62,-604.22 265.71,-524.68 302,-460 307.19,-450.76 313.15,-440.81 318.57,-432"/>
<polygon fill="#3cb4a4" stroke="#3cb4a4" points="321.66,-433.66 323.97,-423.31 315.72,-429.96 321.66,-433.66"/>
<text text-anchor="middle" x="276" y="-517.8" font-family="arial" font-size="14.00" fill="#3cb4a4">?</text>
</g>
<!-- node29 -->
<g id="node17" class="node">
<title>node29</title>
<polygon fill="#e98693" stroke="black" points="328,-336 258,-336 258,-300 328,-300 328,-336"/>
<text text-anchor="middle" x="293" y="-314.3" font-family="Arial" font-size="14.00" fill="#1a1919">29 Begin</text>
</g>
<!-- node29&#45;&gt;node36 -->
<g id="edge30" class="edge">
<title>node29&#45;&gt;node36</title>
<path fill="none" stroke="#da2d4f" stroke-width="2" d="M288.4,-299.81C286.23,-291.7 283.59,-281.84 281.17,-272.78"/>
<polygon fill="#da2d4f" stroke="#da2d4f" stroke-width="2" points="284.52,-271.78 278.56,-263.03 277.76,-273.59 284.52,-271.78"/>
</g>
<!-- node31&#45;&gt;node33 -->
<g id="edge32" class="edge">
<title>node31&#45;&gt;node33</title>
<path fill="none" stroke="#da2d4f" stroke-width="2" d="M486,-299.81C486,-291.79 486,-282.05 486,-273.07"/>
<polygon fill="#da2d4f" stroke="#da2d4f" stroke-width="2" points="489.5,-273.03 486,-263.03 482.5,-273.03 489.5,-273.03"/>
</g>
<!-- node45 -->
<g id="node28" class="node">
<title>node45</title>
<polygon fill="#e98693" stroke="black" points="328.5,-190 269.5,-190 269.5,-154 328.5,-154 328.5,-190"/>
<text text-anchor="middle" x="299" y="-168.3" font-family="Arial" font-size="14.00" fill="#1a1919">45 End</text>
</g>
<!-- node33&#45;&gt;node45 -->
<g id="edge34" class="edge">
<title>node33&#45;&gt;node45</title>
<path fill="none" stroke="#da2d4f" stroke-width="2" d="M441.68,-227.17C410.2,-215.22 368.33,-199.32 338.09,-187.84"/>
<polygon fill="#da2d4f" stroke="#da2d4f" stroke-width="2" points="339.3,-184.56 328.71,-184.28 336.82,-191.1 339.3,-184.56"/>
</g>
<!-- node35&#45;&gt;node29 -->
<g id="edge37" class="edge">
<title>node35&#45;&gt;node29</title>
<path fill="none" stroke="#da2d4f" stroke-width="2" d="M326.5,-386.8C320.64,-374.93 312.73,-358.93 306.07,-345.45"/>
<polygon fill="#da2d4f" stroke="#da2d4f" stroke-width="2" points="309.05,-343.59 301.49,-336.18 302.78,-346.69 309.05,-343.59"/>
<text text-anchor="middle" x="321.5" y="-357.8" font-family="arial" font-size="14.00" fill="#da2d4f">F</text>
</g>
<!-- node35&#45;&gt;node31 -->
<g id="edge36" class="edge">
<title>node35&#45;&gt;node31</title>
<path fill="none" stroke="#da2d4f" stroke-width="2" d="M362.34,-388.61C385.91,-375.34 420.22,-356.03 446.73,-341.11"/>
<polygon fill="#da2d4f" stroke="#da2d4f" stroke-width="2" points="448.75,-343.98 455.75,-336.03 445.32,-337.88 448.75,-343.98"/>
<text text-anchor="middle" x="424.5" y="-357.8" font-family="arial" font-size="14.00" fill="#da2d4f">T</text>
</g>
<!-- node36&#45;&gt;node40 -->
<g id="edge39" class="edge">
<title>node36&#45;&gt;node40</title>
<path fill="none" stroke="#da2d4f" stroke-width="2" d="M248.61,-226.99C234.68,-217.67 217.23,-205.97 202.13,-195.86"/>
<polygon fill="#da2d4f" stroke="#da2d4f" stroke-width="2" points="203.81,-192.77 193.55,-190.11 199.91,-198.59 203.81,-192.77"/>
</g>
<!-- node39&#45;&gt;node19 -->
<g id="edge19" class="edge">
<title>node39&#45;&gt;node19</title>
<path fill="none" stroke="#3cb4a4" d="M426.15,-660.76C407.91,-668.03 383.48,-679.07 378,-688 373.77,-694.9 373.83,-703.24 375.66,-711.12"/>
<polygon fill="#3cb4a4" stroke="#3cb4a4" points="372.35,-712.26 378.74,-720.71 379.02,-710.12 372.35,-712.26"/>
<text text-anchor="middle" x="401.5" y="-691.8" font-family="arial" font-size="14.00" fill="#3cb4a4">from 40</text>
</g>
<!-- node41&#45;&gt;node6 -->
<g id="edge6" class="edge">
<title>node41&#45;&gt;node6</title>
<path fill="none" stroke="#3cb4a4" d="M294.79,-1181.77C279.3,-1186.75 260.64,-1195.64 251,-1211 246.87,-1217.57 245.51,-1225.65 245.48,-1233.38"/>
<polygon fill="#3cb4a4" stroke="#3cb4a4" points="241.99,-1233.78 246.13,-1243.53 248.98,-1233.33 241.99,-1233.78"/>
<text text-anchor="middle" x="274.5" y="-1214.8" font-family="arial" font-size="14.00" fill="#3cb4a4">from 42</text>
</g>
<!-- node44 -->
<g id="node27" class="node">
<title>node44</title>
<polygon fill="#e98693" stroke="black" points="93,-117 19,-117 19,-81 93,-81 93,-117"/>
<text text-anchor="middle" x="56" y="-95.3" font-family="Arial" font-size="14.00" fill="#1a1919">44 Merge</text>
</g>
<!-- node43&#45;&gt;node44 -->
<g id="edge46" class="edge">
<title>node43&#45;&gt;node44</title>
<path fill="none" stroke="#da2d4f" stroke-width="2" d="M44,-855.95C44,-837.39 44,-806.84 44,-780.5 44,-780.5 44,-780.5 44,-171 44,-156.3 46.53,-140.13 49.27,-126.94"/>
<polygon fill="#da2d4f" stroke="#da2d4f" stroke-width="2" points="52.71,-127.6 51.46,-117.08 45.87,-126.08 52.71,-127.6"/>
</g>
<!-- node47 -->
<g id="node29" class="node">
<title>node47</title>
<polygon fill="#e98693" stroke="black" points="135,-36 59,-36 59,0 135,0 135,-36"/>
<text text-anchor="middle" x="97" y="-14.3" font-family="Arial" font-size="14.00" fill="#1a1919">47 Return</text>
</g>
<!-- node44&#45;&gt;node47 -->
<g id="edge48" class="edge">
<title>node44&#45;&gt;node47</title>
<path fill="none" stroke="#da2d4f" stroke-width="2" d="M64.9,-80.86C70.32,-70.4 77.37,-56.83 83.47,-45.06"/>
<polygon fill="#da2d4f" stroke="#da2d4f" stroke-width="2" points="86.62,-46.6 88.12,-36.11 80.41,-43.37 86.62,-46.6"/>
</g>
<!-- node45&#45;&gt;node44 -->
<g id="edge47" class="edge">
<title>node45&#45;&gt;node44</title>
<path fill="none" stroke="#da2d4f" stroke-width="2" d="M269.4,-163.74C232.46,-154.49 167.23,-137.55 102.59,-117.06"/>
<polygon fill="#da2d4f" stroke="#da2d4f" stroke-width="2" points="103.65,-113.72 93.06,-114.01 101.52,-120.39 103.65,-113.72"/>
</g>
<!-- inline1x6 -->
<g id="node30" class="node">
<title>inline1x6</title>
<ellipse fill="#d7ede7" stroke="black" cx="624" cy="-1343" rx="27" ry="18"/>
<text text-anchor="middle" x="624" y="-1341.1" font-family="Arial" font-size="8.00" fill="#1a1919">1 P(0)</text>
</g>
<!-- inline1x6&#45;&gt;node6 -->
<g id="edge5" class="edge">
<title>inline1x6&#45;&gt;node6</title>
<path fill="none" stroke="#3cb4a4" d="M598.16,-1337.4C544.83,-1327.77 418.78,-1304.37 314,-1280 301.91,-1277.19 288.63,-1273.72 277.31,-1270.66"/>
<text text-anchor="middle" x="445" y="-1300.6" font-family="arial" font-size="8.00" fill="#3cb4a4">from 4</text>
</g>
<!-- inline9x10 -->
<g id="node31" class="node">
<title>inline9x10</title>
<ellipse fill="#d7ede7" stroke="black" cx="149" cy="-1262" rx="27" ry="18"/>
<text text-anchor="middle" x="149" y="-1260.1" font-family="Arial" font-size="8.00" fill="#1a1919">9 C(1)</text>
</g>
<!-- inline9x10&#45;&gt;node10 -->
<g id="edge8" class="edge">
<title>inline9x10&#45;&gt;node10</title>
<path fill="none" stroke="#3cb4a4" d="M149,-1243.8C149,-1229.05 149,-1207.92 149,-1193.18"/>
<text text-anchor="middle" x="151" y="-1216.6" font-family="arial" font-size="8.00" fill="#3cb4a4">y</text>
</g>
<!-- inline1x19 -->
<g id="node32" class="node">
<title>inline1x19</title>
<ellipse fill="#d7ede7" stroke="black" cx="388" cy="-820" rx="27" ry="18"/>
<text text-anchor="middle" x="388" y="-818.1" font-family="Arial" font-size="8.00" fill="#1a1919">1 P(0)</text>
</g>
<!-- inline1x19&#45;&gt;node19 -->
<g id="edge18" class="edge">
<title>inline1x19&#45;&gt;node19</title>
<path fill="none" stroke="#3cb4a4" d="M388,-801.86C388,-788.61 388,-770.35 388,-757.11"/>
<text text-anchor="middle" x="402" y="-777.6" font-family="arial" font-size="8.00" fill="#3cb4a4">from 17</text>
</g>
<!-- inline9x21 -->
<g id="node33" class="node">
<title>inline9x21</title>
<ellipse fill="#d7ede7" stroke="black" cx="316" cy="-739" rx="27" ry="18"/>
<text text-anchor="middle" x="316" y="-737.1" font-family="Arial" font-size="8.00" fill="#1a1919">9 C(1)</text>
</g>
<!-- inline9x21&#45;&gt;node21 -->
<g id="edge21" class="edge">
<title>inline9x21&#45;&gt;node21</title>
<path fill="none" stroke="#3cb4a4" d="M315.89,-720.8C316.36,-710.9 317.86,-698.4 322,-688 325.36,-679.56 331.29,-671.34 336.63,-664.99"/>
<text text-anchor="middle" x="324" y="-693.6" font-family="arial" font-size="8.00" fill="#3cb4a4">y</text>
</g>
<!-- inline27x28 -->
<g id="node34" class="node">
<title>inline27x28</title>
<ellipse fill="#d7ede7" stroke="black" cx="206" cy="-739" rx="27" ry="18"/>
<text text-anchor="middle" x="206" y="-737.1" font-family="Arial" font-size="8.00" fill="#1a1919">27 C(4)</text>
</g>
<!-- inline27x28&#45;&gt;node28 -->
<g id="edge29" class="edge">
<title>inline27x28&#45;&gt;node28</title>
<path fill="none" stroke="#3cb4a4" d="M205.6,-720.8C205.25,-705.95 204.74,-684.64 204.4,-669.89"/>
<text text-anchor="middle" x="208" y="-693.6" font-family="arial" font-size="8.00" fill="#3cb4a4">y</text>
</g>
<!-- inline38x39 -->
<g id="node35" class="node">
<title>inline38x39</title>
<ellipse fill="#d7ede7" stroke="black" cx="460" cy="-739" rx="27" ry="18"/>
<text text-anchor="middle" x="460" y="-737.1" font-family="Arial" font-size="8.00" fill="#1a1919">38 C(&#45;1)</text>
</g>
<!-- inline38x39&#45;&gt;node39 -->
<g id="edge41" class="edge">
<title>inline38x39&#45;&gt;node39</title>
<path fill="none" stroke="#3cb4a4" d="M458.81,-720.81C458.01,-711.13 456.77,-698.85 455,-688 453.95,-681.6 452.44,-674.63 451,-668.6"/>
<text text-anchor="middle" x="459" y="-693.6" font-family="arial" font-size="8.00" fill="#3cb4a4">y</text>
</g>
<!-- inline38x41 -->
<g id="node36" class="node">
<title>inline38x41</title>
<ellipse fill="#d7ede7" stroke="black" cx="350" cy="-1262" rx="27" ry="18"/>
<text text-anchor="middle" x="350" y="-1260.1" font-family="Arial" font-size="8.00" fill="#1a1919">38 C(&#45;1)</text>
</g>
<!-- inline38x41&#45;&gt;node41 -->
<g id="edge44" class="edge">
<title>inline38x41&#45;&gt;node41</title>
<path fill="none" stroke="#3cb4a4" d="M344.07,-1244.21C338.57,-1228.63 330.47,-1205.67 325.21,-1190.77"/>
<text text-anchor="middle" x="339" y="-1216.6" font-family="arial" font-size="8.00" fill="#3cb4a4">y</text>
</g>
<!-- inline1x47 -->
<g id="node37" class="node">
<title>inline1x47</title>
<ellipse fill="#d7ede7" stroke="black" cx="138" cy="-99" rx="27" ry="18"/>
<text text-anchor="middle" x="138" y="-97.1" font-family="Arial" font-size="8.00" fill="#1a1919">1 P(0)</text>
</g>
<!-- inline1x47&#45;&gt;node47 -->
<g id="edge49" class="edge">
<title>inline1x47&#45;&gt;node47</title>
<path fill="none" stroke="#3cb4a4" d="M129.5,-81.63C122.61,-68.34 112.91,-49.67 105.91,-36.17"/>
<text text-anchor="middle" x="129" y="-56.6" font-family="arial" font-size="8.00" fill="#3cb4a4">result</text>
</g>
</g>
</svg>
