<?xml version="1.0" encoding="UTF-8" standalone="no"?>
<!DOCTYPE svg PUBLIC "-//W3C//DTD SVG 1.1//EN"
 "http://www.w3.org/Graphics/SVG/1.1/DTD/svg11.dtd">
<!-- Generated by graphviz version 2.44.0 (20200408.0750)
 -->
<!-- Title: G Pages: 1 -->
<svg width="249pt" height="299pt"
 viewBox="0.00 0.00 248.50 299.00" xmlns="http://www.w3.org/2000/svg" xmlns:xlink="http://www.w3.org/1999/xlink">
<g id="graph0" class="graph" transform="scale(1 1) rotate(0) translate(4 295)">
<title>G</title>
<!-- node0 -->
<g id="node1" class="node">
<title>node0</title>
<polygon fill="#e98693" stroke="black" points="102.5,-210 46.5,-210 46.5,-174 102.5,-174 102.5,-210"/>
<text text-anchor="middle" x="74.5" y="-188.3" font-family="Arial" font-size="14.00" fill="#1a1919">0 Start</text>
</g>
<!-- node8 -->
<g id="node4" class="node">
<title>node8</title>
<polygon fill="#da2d4f" stroke="black" points="217,-123 0,-123 0,-87 217,-87 217,-123"/>
<text text-anchor="middle" x="108.5" y="-101.3" font-family="Arial" font-size="14.00" fill="#ffffff">8 Read#OFF_HEAP_LOCATION</text>
</g>
<!-- node0&#45;&gt;node8 -->
<g id="edge1" class="edge">
<title>node0&#45;&gt;node8</title>
<path fill="none" stroke="#da2d4f" stroke-width="2" d="M81.38,-173.8C86.08,-162.05 92.4,-146.24 97.76,-132.84"/>
<polygon fill="#da2d4f" stroke="#da2d4f" stroke-width="2" points="101.17,-133.76 101.63,-123.18 94.67,-131.16 101.17,-133.76"/>
</g>
<!-- node5 -->
<g id="node2" class="node">
<title>node5</title>
<polygon fill="#e98693" stroke="black" points="142.5,-36 74.5,-36 74.5,0 142.5,0 142.5,-36"/>
<text text-anchor="middle" x="108.5" y="-14.3" font-family="Arial" font-size="14.00" fill="#1a1919">5 Return</text>
</g>
<!-- node7 -->
<g id="node3" class="node">
<title>node7</title>
<polygon fill="#f9f9f9" stroke="black" points="234.5,-210 120.5,-210 120.5,-174 234.5,-174 234.5,-210"/>
<text text-anchor="middle" x="177.5" y="-188.3" font-family="Arial" font-size="14.00" fill="#1a1919">7 OffsetAddress</text>
</g>
<!-- node7&#45;&gt;node8 -->
<g id="edge5" class="edge">
<title>node7&#45;&gt;node8</title>
<path fill="none" stroke="#3cb4a4" d="M163.54,-173.8C153.62,-161.59 140.15,-144.99 129.02,-131.28"/>
<polygon fill="#3cb4a4" stroke="#3cb4a4" points="131.46,-128.73 122.44,-123.18 126.03,-133.15 131.46,-128.73"/>
<text text-anchor="middle" x="171" y="-144.8" font-family="arial" font-size="14.00" fill="#3cb4a4">address</text>
</g>
<!-- node8&#45;&gt;node5 -->
<g id="edge2" class="edge">
<title>node8&#45;&gt;node5</title>
<path fill="none" stroke="#3cb4a4" d="M94.4,-86.84C90.78,-81.46 87.38,-75.27 85.5,-69 83.09,-60.93 85.06,-52.49 88.69,-44.89"/>
<polygon fill="#3cb4a4" stroke="#3cb4a4" points="91.79,-46.53 93.75,-36.12 85.72,-43.03 91.79,-46.53"/>
<text text-anchor="middle" x="102.5" y="-57.8" font-family="arial" font-size="14.00" fill="#3cb4a4">result</text>
</g>
<!-- node8&#45;&gt;node5 -->
<g id="edge6" class="edge">
<title>node8&#45;&gt;node5</title>
<path fill="none" stroke="#da2d4f" stroke-width="2" d="M115.44,-86.98C118.56,-77.35 121.2,-65.07 119.5,-54 119.09,-51.32 118.51,-48.56 117.83,-45.83"/>
<polygon fill="#da2d4f" stroke="#da2d4f" stroke-width="2" points="121.19,-44.83 115.05,-36.2 114.46,-46.78 121.19,-44.83"/>
</g>
<!-- inline1x7 -->
<g id="node5" class="node">
<title>inline1x7</title>
<ellipse fill="#d7ede7" stroke="black" cx="141.5" cy="-273" rx="27" ry="18"/>
<text text-anchor="middle" x="141.5" y="-271.1" font-family="Arial" font-size="8.00" fill="#1a1919">1 P(0)</text>
</g>
<!-- inline1x7&#45;&gt;node7 -->
<g id="edge3" class="edge">
<title>inline1x7&#45;&gt;node7</title>
<path fill="none" stroke="#3cb4a4" d="M148.96,-255.63C155.01,-242.34 163.53,-223.67 169.68,-210.17"/>
<text text-anchor="middle" x="169.5" y="-230.6" font-family="arial" font-size="8.00" fill="#3cb4a4">base</text>
</g>
<!-- inline6x7 -->
<g id="node6" class="node">
<title>inline6x7</title>
<ellipse fill="#d7ede7" stroke="black" cx="213.5" cy="-273" rx="27" ry="18"/>
<text text-anchor="middle" x="213.5" y="-271.1" font-family="Arial" font-size="8.00" fill="#1a1919">6 C(0)</text>
</g>
<!-- inline6x7&#45;&gt;node7 -->
<g id="edge4" class="edge">
<title>inline6x7&#45;&gt;node7</title>
<path fill="none" stroke="#3cb4a4" d="M206.04,-255.63C199.99,-242.34 191.47,-223.67 185.32,-210.17"/>
<text text-anchor="middle" x="206.5" y="-230.6" font-family="arial" font-size="8.00" fill="#3cb4a4">offset</text>
</g>
</g>
</svg>
