<?xml version="1.0" encoding="UTF-8" standalone="no"?>
<!DOCTYPE svg PUBLIC "-//W3C//DTD SVG 1.1//EN"
 "http://www.w3.org/Graphics/SVG/1.1/DTD/svg11.dtd">
<!-- Generated by graphviz version 2.43.0 (0)
 -->
<!-- Title: G Pages: 1 -->
<svg width="174pt" height="213pt"
 viewBox="0.00 0.00 173.62 213.30" xmlns="http://www.w3.org/2000/svg" xmlns:xlink="http://www.w3.org/1999/xlink">
<g id="graph0" class="graph" transform="scale(1 1) rotate(0) translate(4 209.3)">
<title>G</title>
<polygon fill="transparent" stroke="transparent" points="-4,4 -4,-209.3 169.62,-209.3 169.62,4 -4,4"/>
<!-- node0 -->
<g id="node1" class="node">
<title>node0</title>
<polygon fill="#e98693" stroke="black" points="57.36,-124.1 -0.12,-124.1 -0.12,-88.1 57.36,-88.1 57.36,-124.1"/>
<text text-anchor="middle" x="28.62" y="-102.95" font-family="Arial" font-size="14.00" fill="#1a1919">0 Start</text>
</g>
<!-- node5 -->
<g id="node3" class="node">
<title>node5</title>
<polygon fill="#e98693" stroke="black" points="79.32,-36 9.92,-36 9.92,0 79.32,0 79.32,-36"/>
<text text-anchor="middle" x="44.62" y="-14.85" font-family="Arial" font-size="14.00" fill="#1a1919">5 Return</text>
</g>
<!-- node0&#45;&gt;node5 -->
<g id="edge1" class="edge">
<title>node0&#45;&gt;node5</title>
<path fill="none" stroke="#da2d4f" stroke-width="2" d="M31.78,-88.09C34,-76.14 37.02,-59.9 39.57,-46.17"/>
<polygon fill="#da2d4f" stroke="#da2d4f" stroke-width="2" points="43.03,-46.74 41.41,-36.27 36.14,-45.46 43.03,-46.74"/>
</g>
<!-- node4 -->
<g id="node2" class="node">
<title>node4</title>
<polygon fill="#3cb4a4" stroke="black" points="129.62,-124.1 75.62,-124.1 75.62,-88.1 129.62,-88.1 129.62,-124.1"/>
<text text-anchor="middle" x="102.62" y="-102.95" font-family="Arial" font-size="14.00" fill="#1a1919">4 +</text>
</g>
<!-- node4&#45;&gt;node5 -->
<g id="edge4" class="edge">
<title>node4&#45;&gt;node5</title>
<path fill="none" stroke="#3cb4a4" d="M91.16,-88.09C82.8,-75.67 71.31,-58.62 61.84,-44.57"/>
<polygon fill="#3cb4a4" stroke="#3cb4a4" points="64.74,-42.61 56.25,-36.27 58.94,-46.52 64.74,-42.61"/>
<text text-anchor="middle" x="96.74" y="-58.9" font-family="arial" font-size="14.00" fill="#3cb4a4">result</text>
</g>
<!-- inline1x4 -->
<g id="node4" class="node">
<title>inline1x4</title>
<ellipse fill="#d7ede7" stroke="black" cx="66.62" cy="-187.3" rx="27" ry="18"/>
<text text-anchor="middle" x="66.62" y="-185.5" font-family="Arial" font-size="8.00" fill="#1a1919">1 P(0)</text>
</g>
<!-- inline1x4&#45;&gt;node4 -->
<g id="edge2" class="edge">
<title>inline1x4&#45;&gt;node4</title>
<path fill="none" stroke="#3cb4a4" d="M74.08,-169.89C80.13,-156.57 88.65,-137.84 94.8,-124.31"/>
<text text-anchor="middle" x="88.62" y="-144.9" font-family="arial" font-size="8.00" fill="#3cb4a4">x</text>
</g>
<!-- inline2x4 -->
<g id="node5" class="node">
<title>inline2x4</title>
<ellipse fill="#d7ede7" stroke="black" cx="138.62" cy="-187.3" rx="27" ry="18"/>
<text text-anchor="middle" x="138.62" y="-185.5" font-family="Arial" font-size="8.00" fill="#1a1919">2 P(1)</text>
</g>
<!-- inline2x4&#45;&gt;node4 -->
<g id="edge3" class="edge">
<title>inline2x4&#45;&gt;node4</title>
<path fill="none" stroke="#3cb4a4" d="M131.16,-169.89C125.11,-156.57 116.59,-137.84 110.44,-124.31"/>
<text text-anchor="middle" x="123.62" y="-144.9" font-family="arial" font-size="8.00" fill="#3cb4a4">y</text>
</g>
</g>
</svg>
