<?xml version="1.0" encoding="UTF-8" standalone="no"?>
<!DOCTYPE svg PUBLIC "-//W3C//DTD SVG 1.1//EN"
 "http://www.w3.org/Graphics/SVG/1.1/DTD/svg11.dtd">
<!-- Generated by graphviz version 2.43.0 (0)
 -->
<!-- Title: G Pages: 1 -->
<svg width="601pt" height="1181pt"
 viewBox="0.00 0.00 601.23 1181.19" xmlns="http://www.w3.org/2000/svg" xmlns:xlink="http://www.w3.org/1999/xlink">
<g id="graph0" class="graph" transform="scale(1 1) rotate(0) translate(4 1177.19)">
<title>G</title>
' points="-4,4 -4,-1177.19 597.23,-1177.19 597.23,4 -4,4"/>
<!-- node0 -->
<g id="node1" class="node">
<title>node0</title>
<polygon fill="#e98693" stroke="black" points="373.5,-1173.19 316.02,-1173.19 316.02,-1137.19 373.5,-1137.19 373.5,-1173.19"/>
<text text-anchor="middle" x="344.76" y="-1152.04" font-family="Arial" font-size="14.00" fill="#1a1919">0 Start</text>
</g>
<!-- node4 -->
<g id="node2" class="node">
<title>node4</title>
<polygon fill="#e98693" stroke="black" points="371.76,-1100.19 317.76,-1100.19 317.76,-1064.19 371.76,-1064.19 371.76,-1100.19"/>
<text text-anchor="middle" x="344.76" y="-1079.04" font-family="Arial" font-size="14.00" fill="#1a1919">4 End</text>
</g>
<!-- node0&#45;&gt;node4 -->
<g id="edge1" class="edge">
<title>node0&#45;&gt;node4</title>
<path fill="none" stroke="#da2d4f" stroke-width="2" d="M344.76,-1137C344.76,-1128.98 344.76,-1119.24 344.76,-1110.26"/>
<polygon fill="#da2d4f" stroke="#da2d4f" stroke-width="2" points="348.26,-1110.22 344.76,-1100.22 341.26,-1110.22 348.26,-1110.22"/>
</g>
<!-- node5 -->
<g id="node3" class="node">
<title>node5</title>
<polygon fill="#e98693" stroke="black" points="391.89,-1027.19 297.63,-1027.19 297.63,-991.19 391.89,-991.19 391.89,-1027.19"/>
<text text-anchor="middle" x="344.76" y="-1006.04" font-family="Arial" font-size="14.00" fill="#1a1919">5 LoopBegin</text>
</g>
<!-- node4&#45;&gt;node5 -->
<g id="edge2" class="edge">
<title>node4&#45;&gt;node5</title>
<path fill="none" stroke="#da2d4f" stroke-width="2" d="M344.76,-1064C344.76,-1055.98 344.76,-1046.24 344.76,-1037.26"/>
<polygon fill="#da2d4f" stroke="#da2d4f" stroke-width="2" points="348.26,-1037.22 344.76,-1027.22 341.26,-1037.22 348.26,-1037.22"/>
</g>
<!-- node6 -->
<g id="node4" class="node">
<title>node6</title>
<polygon fill="#f9f9f9" stroke="black" points="517.76,-945.99 463.76,-945.99 463.76,-909.99 517.76,-909.99 517.76,-945.99"/>
<text text-anchor="middle" x="490.76" y="-924.84" font-family="Arial" font-size="14.00" fill="#1a1919">6 ϕ</text>
</g>
<!-- node5&#45;&gt;node6 -->
<g id="edge4" class="edge">
<title>node5&#45;&gt;node6</title>
<path fill="none" stroke="#343d46" stroke-dasharray="5,2" d="M385.31,-986.19C410.26,-972.65 441.56,-955.68 463.56,-943.75"/>
<polygon fill="#343d46" stroke="#343d46" points="383.56,-983.16 376.44,-991 386.9,-989.31 383.56,-983.16"/>
</g>
<!-- node13 -->
<g id="node7" class="node">
<title>node13</title>
<polygon fill="#e98693" stroke="black" points="335.7,-681.69 245.81,-681.69 245.81,-645.69 335.7,-645.69 335.7,-681.69"/>
<text text-anchor="middle" x="290.76" y="-660.54" font-family="Arial" font-size="14.00" fill="#1a1919">13 LoopExit</text>
</g>
<!-- node5&#45;&gt;node13 -->
<g id="edge10" class="edge">
<title>node5&#45;&gt;node13</title>
<path fill="none" stroke="#343d46" stroke-dasharray="5,2" d="M335.03,-981.42C330.36,-966.25 325.76,-946.8 325.76,-928.99 325.76,-928.99 325.76,-928.99 325.76,-750.79 325.76,-725.46 312.59,-698.82 302.41,-682"/>
<polygon fill="#343d46" stroke="#343d46" points="331.78,-982.75 338.22,-991.17 338.43,-980.58 331.78,-982.75"/>
</g>
<!-- node15 -->
<g id="node8" class="node">
<title>node15</title>
<polygon fill="#e98693" stroke="black" points="255.76,-769.79 201.76,-769.79 201.76,-733.79 255.76,-733.79 255.76,-769.79"/>
<text text-anchor="middle" x="228.76" y="-748.64" font-family="Arial" font-size="14.00" fill="#1a1919">15 If</text>
</g>
<!-- node5&#45;&gt;node15 -->
<g id="edge3" class="edge">
<title>node5&#45;&gt;node15</title>
<path fill="none" stroke="#da2d4f" stroke-width="2" d="M297.56,-993.85C274.44,-984.22 248.66,-968.99 234.76,-945.99 203.44,-894.16 213.29,-819.41 221.83,-779.8"/>
<polygon fill="#da2d4f" stroke="#da2d4f" stroke-width="2" points="225.3,-780.36 224.12,-769.83 218.47,-778.8 225.3,-780.36"/>
</g>
<!-- node33 -->
<g id="node20" class="node">
<title>node33</title>
<polygon fill="#e98693" stroke="black" points="183.28,-109 92.24,-109 92.24,-73 183.28,-73 183.28,-109"/>
<text text-anchor="middle" x="137.76" y="-87.85" font-family="Arial" font-size="14.00" fill="#1a1919">33 LoopEnd</text>
</g>
<!-- node5&#45;&gt;node33 -->
<g id="edge35" class="edge">
<title>node5&#45;&gt;node33</title>
<path fill="none" stroke="#da2d4f" stroke-width="4" d="M354.49,-981.42C359.16,-966.25 363.76,-946.8 363.76,-928.99 363.76,-928.99 363.76,-928.99 363.76,-163 363.76,-154.67 313.68,-146.09 191.76,-109 189.03,-108.17 186.23,-107.31 183.4,-106.44"/>
<polygon fill="#da2d4f" stroke="#da2d4f" stroke-width="4" points="351.08,-980.58 351.3,-991.17 357.73,-982.75 351.08,-980.58"/>
</g>
<!-- node10 -->
<g id="node5" class="node">
<title>node10</title>
<polygon fill="#3cb4a4" stroke="black" points="297.76,-857.89 243.76,-857.89 243.76,-821.89 297.76,-821.89 297.76,-857.89"/>
<text text-anchor="middle" x="270.76" y="-836.74" font-family="Arial" font-size="14.00" fill="#1a1919">10 &lt;</text>
</g>
<!-- node6&#45;&gt;node10 -->
<g id="edge7" class="edge">
<title>node6&#45;&gt;node10</title>
<path fill="none" stroke="#3cb4a4" d="M470,-909.8C455.58,-898.66 435.49,-884.64 415.76,-875.89 380.82,-860.39 337.97,-851.13 307.94,-846.07"/>
<polygon fill="#3cb4a4" stroke="#3cb4a4" points="308.32,-842.58 297.89,-844.45 307.21,-849.49 308.32,-842.58"/>
<text text-anchor="middle" x="448.26" y="-880.79" font-family="arial" font-size="14.00" fill="#3cb4a4">x</text>
</g>
<!-- node27 -->
<g id="node16" class="node">
<title>node27</title>
<polygon fill="#da2d4f" stroke="black" points="444.48,-109 201.04,-109 201.04,-73 444.48,-73 444.48,-109"/>
<text text-anchor="middle" x="322.76" y="-87.85" font-family="Arial" font-size="14.00" fill="#ffffff">27 StoreField JavaExamples.intField</text>
</g>
<!-- node6&#45;&gt;node27 -->
<g id="edge28" class="edge">
<title>node6&#45;&gt;node27</title>
<path fill="none" stroke="#3cb4a4" d="M516.45,-909.71C536.07,-894.25 559.76,-869.62 559.76,-840.89 559.76,-840.89 559.76,-840.89 559.76,-163 559.76,-137.52 508.87,-120.41 454.25,-109.38"/>
<polygon fill="#3cb4a4" stroke="#3cb4a4" points="454.87,-105.94 444.38,-107.46 453.53,-112.81 454.87,-105.94"/>
<text text-anchor="middle" x="576.49" y="-506.34" font-family="arial" font-size="14.00" fill="#3cb4a4">value</text>
</g>
<!-- node32 -->
<g id="node19" class="node">
<title>node32</title>
<polygon fill="#3cb4a4" stroke="black" points="494.76,-857.89 440.76,-857.89 440.76,-821.89 494.76,-821.89 494.76,-857.89"/>
<text text-anchor="middle" x="467.76" y="-836.74" font-family="Arial" font-size="14.00" fill="#1a1919">32 +</text>
</g>
<!-- node6&#45;&gt;node32 -->
<g id="edge33" class="edge">
<title>node6&#45;&gt;node32</title>
<path fill="none" stroke="#3cb4a4" d="M478.91,-909.9C475.69,-904.42 472.59,-898.16 470.76,-891.99 468.53,-884.49 467.48,-876.11 467.06,-868.34"/>
<polygon fill="#3cb4a4" stroke="#3cb4a4" points="470.56,-868.18 466.83,-858.26 463.56,-868.34 470.56,-868.18"/>
<text text-anchor="middle" x="474.26" y="-880.79" font-family="arial" font-size="14.00" fill="#3cb4a4">x</text>
</g>
<!-- node10&#45;&gt;node15 -->
<g id="edge12" class="edge">
<title>node10&#45;&gt;node15</title>
<path fill="none" stroke="#3cb4a4" d="M262.46,-821.88C256.52,-809.7 248.4,-793.05 241.62,-779.16"/>
<polygon fill="#3cb4a4" stroke="#3cb4a4" points="244.71,-777.52 237.18,-770.06 238.42,-780.58 244.71,-777.52"/>
<text text-anchor="middle" x="257.65" y="-792.69" font-family="arial" font-size="14.00" fill="#3cb4a4">?</text>
</g>
<!-- node11 -->
<g id="node6" class="node">
<title>node11</title>
<polygon fill="#e98693" stroke="black" points="154.99,-681.69 84.53,-681.69 84.53,-645.69 154.99,-645.69 154.99,-681.69"/>
<text text-anchor="middle" x="119.76" y="-660.54" font-family="Arial" font-size="14.00" fill="#1a1919">11 Begin</text>
</g>
<!-- node17 -->
<g id="node9" class="node">
<title>node17</title>
<polygon fill="#e98693" stroke="black" points="144.13,-600.5 83.39,-600.5 83.39,-564.5 144.13,-564.5 144.13,-600.5"/>
<text text-anchor="middle" x="113.76" y="-579.34" font-family="Arial" font-size="14.00" fill="#1a1919">17 End</text>
</g>
<!-- node11&#45;&gt;node17 -->
<g id="edge9" class="edge">
<title>node11&#45;&gt;node17</title>
<path fill="none" stroke="#da2d4f" stroke-width="2" d="M118.46,-645.51C117.69,-635.34 116.69,-622.23 115.82,-610.68"/>
<polygon fill="#da2d4f" stroke="#da2d4f" stroke-width="2" points="119.3,-610.35 115.06,-600.65 112.32,-610.88 119.3,-610.35"/>
</g>
<!-- node34 -->
<g id="node21" class="node">
<title>node34</title>
<polygon fill="#e98693" stroke="black" points="271.74,-600.5 193.77,-600.5 193.77,-564.5 271.74,-564.5 271.74,-600.5"/>
<text text-anchor="middle" x="232.76" y="-579.34" font-family="Arial" font-size="14.00" fill="#1a1919">34 Return</text>
</g>
<!-- node13&#45;&gt;node34 -->
<g id="edge11" class="edge">
<title>node13&#45;&gt;node34</title>
<path fill="none" stroke="#da2d4f" stroke-width="2" d="M278.17,-645.51C270.34,-634.82 260.14,-620.88 251.38,-608.93"/>
<polygon fill="#da2d4f" stroke="#da2d4f" stroke-width="2" points="254.05,-606.65 245.32,-600.65 248.4,-610.78 254.05,-606.65"/>
</g>
<!-- node15&#45;&gt;node11 -->
<g id="edge14" class="edge">
<title>node15&#45;&gt;node11</title>
<path fill="none" stroke="#da2d4f" stroke-width="2" d="M207.22,-733.78C190.76,-720.78 167.87,-702.7 149.63,-688.29"/>
<polygon fill="#da2d4f" stroke="#da2d4f" stroke-width="2" points="151.64,-685.42 141.62,-681.96 147.3,-690.91 151.64,-685.42"/>
<text text-anchor="middle" x="189.03" y="-704.59" font-family="arial" font-size="14.00" fill="#da2d4f">F</text>
</g>
<!-- node15&#45;&gt;node13 -->
<g id="edge13" class="edge">
<title>node15&#45;&gt;node13</title>
<path fill="none" stroke="#da2d4f" stroke-width="2" d="M241.01,-733.78C249.95,-721.36 262.23,-704.31 272.35,-690.26"/>
<polygon fill="#da2d4f" stroke="#da2d4f" stroke-width="2" points="275.32,-692.12 278.32,-681.96 269.64,-688.03 275.32,-692.12"/>
<text text-anchor="middle" x="270.03" y="-704.59" font-family="arial" font-size="14.00" fill="#da2d4f">T</text>
</g>
<!-- node18 -->
<g id="node10" class="node">
<title>node18</title>
<polygon fill="#e98693" stroke="black" points="161.17,-527.5 58.34,-527.5 58.34,-491.5 161.17,-491.5 161.17,-527.5"/>
<text text-anchor="middle" x="109.76" y="-506.34" font-family="Arial" font-size="14.00" fill="#1a1919">18 LoopBegin</text>
</g>
<!-- node17&#45;&gt;node18 -->
<g id="edge15" class="edge">
<title>node17&#45;&gt;node18</title>
<path fill="none" stroke="#da2d4f" stroke-width="2" d="M112.79,-564.31C112.34,-556.28 111.79,-546.54 111.28,-537.56"/>
<polygon fill="#da2d4f" stroke="#da2d4f" stroke-width="2" points="114.77,-537.31 110.72,-527.52 107.79,-537.71 114.77,-537.31"/>
</g>
<!-- node19 -->
<g id="node11" class="node">
<title>node19</title>
<polygon fill="#f9f9f9" stroke="black" points="263.76,-446.3 209.76,-446.3 209.76,-410.3 263.76,-410.3 263.76,-446.3"/>
<text text-anchor="middle" x="236.76" y="-425.15" font-family="Arial" font-size="14.00" fill="#1a1919">19 ϕ</text>
</g>
<!-- node18&#45;&gt;node19 -->
<g id="edge17" class="edge">
<title>node18&#45;&gt;node19</title>
<path fill="none" stroke="#343d46" stroke-dasharray="5,2" d="M145.98,-485.91C166.26,-473.26 191.12,-457.76 209.69,-446.18"/>
<polygon fill="#343d46" stroke="#343d46" points="143.95,-483.05 137.32,-491.31 147.65,-488.99 143.95,-483.05"/>
</g>
<!-- node24 -->
<g id="node14" class="node">
<title>node24</title>
<polygon fill="#e98693" stroke="black" points="182.7,-182 92.81,-182 92.81,-146 182.7,-146 182.7,-182"/>
<text text-anchor="middle" x="137.76" y="-160.85" font-family="Arial" font-size="14.00" fill="#1a1919">24 LoopExit</text>
</g>
<!-- node18&#45;&gt;node24 -->
<g id="edge23" class="edge">
<title>node18&#45;&gt;node24</title>
<path fill="none" stroke="#343d46" stroke-dasharray="5,2" d="M90.29,-482.79C80.95,-467.96 71.76,-448.49 71.76,-429.3 71.76,-429.3 71.76,-429.3 71.76,-251.1 71.76,-222.66 94.72,-197.81 113.56,-182.22"/>
<polygon fill="#343d46" stroke="#343d46" points="87.57,-485.02 96.04,-491.38 93.38,-481.12 87.57,-485.02"/>
</g>
<!-- node26 -->
<g id="node15" class="node">
<title>node26</title>
<polygon fill="#e98693" stroke="black" points="270.76,-270.1 216.76,-270.1 216.76,-234.1 270.76,-234.1 270.76,-270.1"/>
<text text-anchor="middle" x="243.76" y="-248.95" font-family="Arial" font-size="14.00" fill="#1a1919">26 If</text>
</g>
<!-- node18&#45;&gt;node26 -->
<g id="edge16" class="edge">
<title>node18&#45;&gt;node26</title>
<path fill="none" stroke="#da2d4f" stroke-width="2" d="M109.31,-491.24C109.21,-456.34 113.21,-376.14 148.76,-322.2 163.32,-300.09 187.54,-282.64 207.88,-270.81"/>
<polygon fill="#da2d4f" stroke="#da2d4f" stroke-width="2" points="209.59,-273.86 216.61,-265.92 206.17,-267.75 209.59,-273.86"/>
</g>
<!-- node31 -->
<g id="node18" class="node">
<title>node31</title>
<polygon fill="#e98693" stroke="black" points="91.28,-36 0.24,-36 0.24,0 91.28,0 91.28,-36"/>
<text text-anchor="middle" x="45.76" y="-14.85" font-family="Arial" font-size="14.00" fill="#1a1919">31 LoopEnd</text>
</g>
<!-- node18&#45;&gt;node31 -->
<g id="edge32" class="edge">
<title>node18&#45;&gt;node31</title>
<path fill="none" stroke="#da2d4f" stroke-width="4" d="M69.6,-485.6C51.34,-471.98 33.76,-452.76 33.76,-429.3 33.76,-429.3 33.76,-429.3 33.76,-90 33.76,-71.37 37.82,-50.38 41.22,-36.08"/>
<polygon fill="#da2d4f" stroke="#da2d4f" stroke-width="4" points="67.77,-488.6 77.97,-491.46 71.78,-482.86 67.77,-488.6"/>
</g>
<!-- node21 -->
<g id="node12" class="node">
<title>node21</title>
<polygon fill="#3cb4a4" stroke="black" points="311.76,-358.2 257.76,-358.2 257.76,-322.2 311.76,-322.2 311.76,-358.2"/>
<text text-anchor="middle" x="284.76" y="-337.05" font-family="Arial" font-size="14.00" fill="#1a1919">21 &lt;</text>
</g>
<!-- node19&#45;&gt;node21 -->
<g id="edge20" class="edge">
<title>node19&#45;&gt;node21</title>
<path fill="none" stroke="#3cb4a4" d="M250.82,-410.04C254.95,-404.55 259.28,-398.33 262.76,-392.3 267.21,-384.56 271.32,-375.75 274.75,-367.65"/>
<polygon fill="#3cb4a4" stroke="#3cb4a4" points="278.05,-368.82 278.57,-358.24 271.57,-366.19 278.05,-368.82"/>
<text text-anchor="middle" x="274.26" y="-381.1" font-family="arial" font-size="14.00" fill="#3cb4a4">x</text>
</g>
<!-- node30 -->
<g id="node17" class="node">
<title>node30</title>
<polygon fill="#3cb4a4" stroke="black" points="211.76,-358.2 157.76,-358.2 157.76,-322.2 211.76,-322.2 211.76,-358.2"/>
<text text-anchor="middle" x="184.76" y="-337.05" font-family="Arial" font-size="14.00" fill="#1a1919">30 +</text>
</g>
<!-- node19&#45;&gt;node30 -->
<g id="edge30" class="edge">
<title>node19&#45;&gt;node30</title>
<path fill="none" stroke="#3cb4a4" d="M209.67,-411.61C202.78,-406.34 196.11,-399.84 191.76,-392.3 187.65,-385.18 185.59,-376.59 184.64,-368.51"/>
<polygon fill="#3cb4a4" stroke="#3cb4a4" points="188.12,-368.08 183.94,-358.34 181.13,-368.56 188.12,-368.08"/>
<text text-anchor="middle" x="195.26" y="-381.1" font-family="arial" font-size="14.00" fill="#3cb4a4">x</text>
</g>
<!-- node21&#45;&gt;node26 -->
<g id="edge25" class="edge">
<title>node21&#45;&gt;node26</title>
<path fill="none" stroke="#3cb4a4" d="M276.66,-322.19C270.86,-310 262.93,-293.36 256.31,-279.46"/>
<polygon fill="#3cb4a4" stroke="#3cb4a4" points="259.44,-277.89 251.98,-270.37 253.12,-280.9 259.44,-277.89"/>
<text text-anchor="middle" x="272.65" y="-293" font-family="arial" font-size="14.00" fill="#3cb4a4">?</text>
</g>
<!-- node22 -->
<g id="node13" class="node">
<title>node22</title>
<polygon fill="#e98693" stroke="black" points="308.53,-182 236.99,-182 236.99,-146 308.53,-146 308.53,-182"/>
<text text-anchor="middle" x="272.76" y="-160.85" font-family="Arial" font-size="14.00" fill="#1a1919">22 Begin</text>
</g>
<!-- node22&#45;&gt;node27 -->
<g id="edge22" class="edge">
<title>node22&#45;&gt;node27</title>
<path fill="none" stroke="#da2d4f" stroke-width="2" d="M284.86,-145.81C290.88,-137.27 298.27,-126.77 304.93,-117.32"/>
<polygon fill="#da2d4f" stroke="#da2d4f" stroke-width="2" points="307.87,-119.22 310.77,-109.03 302.15,-115.19 307.87,-119.22"/>
</g>
<!-- node24&#45;&gt;node33 -->
<g id="edge24" class="edge">
<title>node24&#45;&gt;node33</title>
<path fill="none" stroke="#da2d4f" stroke-width="2" d="M137.76,-145.81C137.76,-137.79 137.76,-128.05 137.76,-119.07"/>
<polygon fill="#da2d4f" stroke="#da2d4f" stroke-width="2" points="141.26,-119.03 137.76,-109.03 134.26,-119.03 141.26,-119.03"/>
</g>
<!-- node26&#45;&gt;node22 -->
<g id="edge27" class="edge">
<title>node26&#45;&gt;node22</title>
<path fill="none" stroke="#da2d4f" stroke-width="2" d="M249.49,-234.09C253.55,-222.02 259.09,-205.58 263.74,-191.77"/>
<polygon fill="#da2d4f" stroke="#da2d4f" stroke-width="2" points="267.07,-192.86 266.94,-182.27 260.43,-190.63 267.07,-192.86"/>
<text text-anchor="middle" x="266.03" y="-204.9" font-family="arial" font-size="14.00" fill="#da2d4f">F</text>
</g>
<!-- node26&#45;&gt;node24 -->
<g id="edge26" class="edge">
<title>node26&#45;&gt;node24</title>
<path fill="none" stroke="#da2d4f" stroke-width="2" d="M222.82,-234.09C206.81,-221.08 184.54,-203 166.81,-188.6"/>
<polygon fill="#da2d4f" stroke="#da2d4f" stroke-width="2" points="168.99,-185.86 159.02,-182.27 164.58,-191.29 168.99,-185.86"/>
<text text-anchor="middle" x="205.03" y="-204.9" font-family="arial" font-size="14.00" fill="#da2d4f">T</text>
</g>
<!-- node27&#45;&gt;node31 -->
<g id="edge29" class="edge">
<title>node27&#45;&gt;node31</title>
<path fill="none" stroke="#da2d4f" stroke-width="2" d="M256.41,-72.99C209.09,-60.87 146.18,-44.74 101.47,-33.28"/>
<polygon fill="#da2d4f" stroke="#da2d4f" stroke-width="2" points="102.2,-29.85 91.65,-30.76 100.47,-36.64 102.2,-29.85"/>
</g>
<!-- node30&#45;&gt;node19 -->
<g id="edge19" class="edge">
<title>node30&#45;&gt;node19</title>
<path fill="none" stroke="#3cb4a4" d="M192.98,-358.59C197.93,-368.64 204.57,-381.41 211.3,-392.3 213.27,-395.49 215.44,-398.77 217.66,-401.97"/>
<polygon fill="#3cb4a4" stroke="#3cb4a4" points="214.88,-404.1 223.54,-410.2 220.58,-400.03 214.88,-404.1"/>
<text text-anchor="middle" x="235.49" y="-381.1" font-family="arial" font-size="14.00" fill="#3cb4a4">from 31</text>
</g>
<!-- node32&#45;&gt;node6 -->
<g id="edge6" class="edge">
<title>node32&#45;&gt;node6</title>
<path fill="none" stroke="#3cb4a4" d="M472.37,-858.16C475.58,-870.17 479.92,-886.42 483.58,-900.12"/>
<polygon fill="#3cb4a4" stroke="#3cb4a4" points="480.25,-901.22 486.21,-909.98 487.01,-899.42 480.25,-901.22"/>
<text text-anchor="middle" x="505.49" y="-880.79" font-family="arial" font-size="14.00" fill="#3cb4a4">from 33</text>
</g>
<!-- inline1x6 -->
<g id="node22" class="node">
<title>inline1x6</title>
<ellipse fill="#d7ede7" stroke="black" cx="490.76" cy="-1009.19" rx="27" ry="18"/>
<text text-anchor="middle" x="490.76" y="-1007.39" font-family="Arial" font-size="8.00" fill="#1a1919">1 P(0)</text>
</g>
<!-- inline1x6&#45;&gt;node6 -->
<g id="edge5" class="edge">
<title>inline1x6&#45;&gt;node6</title>
<path fill="none" stroke="#3cb4a4" d="M490.76,-991C490.76,-977.72 490.76,-959.42 490.76,-946.14"/>
<text text-anchor="middle" x="502.09" y="-966.79" font-family="arial" font-size="8.00" fill="#3cb4a4">from 4</text>
</g>
<!-- inline9x10 -->
<g id="node23" class="node">
<title>inline9x10</title>
<ellipse fill="#d7ede7" stroke="black" cx="270.76" cy="-927.99" rx="27" ry="18"/>
<text text-anchor="middle" x="270.76" y="-926.19" font-family="Arial" font-size="8.00" fill="#1a1919">9 C(1)</text>
</g>
<!-- inline9x10&#45;&gt;node10 -->
<g id="edge8" class="edge">
<title>inline9x10&#45;&gt;node10</title>
<path fill="none" stroke="#3cb4a4" d="M270.76,-909.98C270.76,-894.98 270.76,-873.23 270.76,-858.16"/>
<text text-anchor="middle" x="272.76" y="-882.14" font-family="arial" font-size="8.00" fill="#3cb4a4">y</text>
</g>
<!-- inline1x19 -->
<g id="node24" class="node">
<title>inline1x19</title>
<ellipse fill="#d7ede7" stroke="black" cx="236.76" cy="-509.5" rx="27" ry="18"/>
<text text-anchor="middle" x="236.76" y="-507.69" font-family="Arial" font-size="8.00" fill="#1a1919">1 P(0)</text>
</g>
<!-- inline1x19&#45;&gt;node19 -->
<g id="edge18" class="edge">
<title>inline1x19&#45;&gt;node19</title>
<path fill="none" stroke="#3cb4a4" d="M236.76,-491.31C236.76,-478.03 236.76,-459.72 236.76,-446.45"/>
<text text-anchor="middle" x="250.32" y="-467.1" font-family="arial" font-size="8.00" fill="#3cb4a4">from 17</text>
</g>
<!-- inline9x21 -->
<g id="node25" class="node">
<title>inline9x21</title>
<ellipse fill="#d7ede7" stroke="black" cx="308.76" cy="-428.3" rx="27" ry="18"/>
<text text-anchor="middle" x="308.76" y="-426.5" font-family="Arial" font-size="8.00" fill="#1a1919">9 C(1)</text>
</g>
<!-- inline9x21&#45;&gt;node21 -->
<g id="edge21" class="edge">
<title>inline9x21&#45;&gt;node21</title>
<path fill="none" stroke="#3cb4a4" d="M304.02,-410.29C299.84,-395.29 293.77,-373.54 289.57,-358.47"/>
<text text-anchor="middle" x="301.76" y="-382.45" font-family="arial" font-size="8.00" fill="#3cb4a4">y</text>
</g>
<!-- inline29x30 -->
<g id="node26" class="node">
<title>inline29x30</title>
<ellipse fill="#d7ede7" stroke="black" cx="164.76" cy="-428.3" rx="27" ry="18"/>
<text text-anchor="middle" x="164.76" y="-426.5" font-family="Arial" font-size="8.00" fill="#1a1919">29 C(&#45;1)</text>
</g>
<!-- inline29x30&#45;&gt;node30 -->
<g id="edge31" class="edge">
<title>inline29x30&#45;&gt;node30</title>
<path fill="none" stroke="#3cb4a4" d="M161.98,-409.96C160.98,-399.92 160.73,-387.14 163.76,-376.2 165.46,-370.05 168.56,-363.9 171.87,-358.51"/>
<text text-anchor="middle" x="165.76" y="-382.45" font-family="arial" font-size="8.00" fill="#3cb4a4">y</text>
</g>
<!-- inline29x32 -->
<g id="node27" class="node">
<title>inline29x32</title>
<ellipse fill="#d7ede7" stroke="black" cx="418.76" cy="-927.99" rx="27" ry="18"/>
<text text-anchor="middle" x="418.76" y="-926.19" font-family="Arial" font-size="8.00" fill="#1a1919">29 C(&#45;1)</text>
</g>
<!-- inline29x32&#45;&gt;node32 -->
<g id="edge34" class="edge">
<title>inline29x32&#45;&gt;node32</title>
<path fill="none" stroke="#3cb4a4" d="M413.96,-909.94C412,-899.52 411.3,-886.26 416.76,-875.89 421.96,-866.01 431.35,-858.38 440.67,-852.8"/>
<text text-anchor="middle" x="418.76" y="-882.14" font-family="arial" font-size="8.00" fill="#3cb4a4">y</text>
</g>
<!-- inline1x34 -->
<g id="node28" class="node">
<title>inline1x34</title>
<ellipse fill="#d7ede7" stroke="black" cx="200.76" cy="-663.69" rx="27" ry="18"/>
<text text-anchor="middle" x="200.76" y="-661.89" font-family="Arial" font-size="8.00" fill="#1a1919">1 P(0)</text>
</g>
<!-- inline1x34&#45;&gt;node34 -->
<g id="edge36" class="edge">
<title>inline1x34&#45;&gt;node34</title>
<path fill="none" stroke="#3cb4a4" d="M207.54,-645.9C212.94,-632.55 220.45,-613.95 225.87,-600.54"/>
<text text-anchor="middle" x="227.54" y="-621.29" font-family="arial" font-size="8.00" fill="#3cb4a4">result</text>
</g>
</g>
</svg>
