<?xml version="1.0" encoding="UTF-8" standalone="no"?>
<!DOCTYPE svg PUBLIC "-//W3C//DTD SVG 1.1//EN"
 "http://www.w3.org/Graphics/SVG/1.1/DTD/svg11.dtd">
<!-- Generated by graphviz version 2.43.0 (0)
 -->
<!-- Title: G Pages: 1 -->
<svg width="338pt" height="286pt"
 viewBox="0.00 0.00 337.59 286.30" xmlns="http://www.w3.org/2000/svg" xmlns:xlink="http://www.w3.org/1999/xlink">
<g id="graph0" class="graph" transform="scale(1 1) rotate(0) translate(4 282.3)">
<title>G</title>
' points="-4,4 -4,-282.3 333.59,-282.3 333.59,4 -4,4"/>
<!-- node0 -->
<g id="node1" class="node">
<title>node0</title>
<polygon fill="#e98693" stroke="black" points="158.54,-197.1 101.05,-197.1 101.05,-161.1 158.54,-161.1 158.54,-197.1"/>
<text text-anchor="middle" x="129.8" y="-175.95" font-family="Arial" font-size="14.00" fill="#1a1919">0 Start</text>
</g>
<!-- node5 -->
<g id="node3" class="node">
<title>node5</title>
<polygon fill="#da2d4f" stroke="black" points="329.39,-124.1 0.2,-124.1 0.2,-88.1 329.39,-88.1 329.39,-124.1"/>
<text text-anchor="middle" x="164.8" y="-102.95" font-family="Arial" font-size="14.00" fill="#ffffff">5 Call JavaExamples$ExampleObject.instanceCall</text>
</g>
<!-- node0&#45;&gt;node5 -->
<g id="edge1" class="edge">
<title>node0&#45;&gt;node5</title>
<path fill="none" stroke="#da2d4f" stroke-width="2" d="M138.27,-160.91C142.35,-152.63 147.34,-142.51 151.88,-133.29"/>
<polygon fill="#da2d4f" stroke="#da2d4f" stroke-width="2" points="155.12,-134.64 156.4,-124.13 148.84,-131.55 155.12,-134.64"/>
</g>
<!-- node4 -->
<g id="node2" class="node">
<title>node4</title>
<polygon fill="#f9f9f9" stroke="black" points="313.7,-197.1 175.9,-197.1 175.9,-161.1 313.7,-161.1 313.7,-197.1"/>
<text text-anchor="middle" x="244.8" y="-175.95" font-family="Arial" font-size="14.00" fill="#1a1919">4 MethodCallTarget</text>
</g>
<!-- node4&#45;&gt;node5 -->
<g id="edge4" class="edge">
<title>node4&#45;&gt;node5</title>
<path fill="none" stroke="#343d46" stroke-dasharray="5,2" d="M217.69,-154.04C206.62,-144.22 194.08,-133.08 183.98,-124.13"/>
<polygon fill="#343d46" stroke="#343d46" points="215.63,-156.89 225.43,-160.91 220.27,-151.66 215.63,-156.89"/>
</g>
<!-- node7 -->
<g id="node4" class="node">
<title>node7</title>
<polygon fill="#e98693" stroke="black" points="199.49,-36 130.1,-36 130.1,0 199.49,0 199.49,-36"/>
<text text-anchor="middle" x="164.8" y="-14.85" font-family="Arial" font-size="14.00" fill="#1a1919">7 Return</text>
</g>
<!-- node5&#45;&gt;node7 -->
<g id="edge5" class="edge">
<title>node5&#45;&gt;node7</title>
<path fill="none" stroke="#da2d4f" stroke-width="2" d="M163.62,-88.02C163.29,-82.32 162.96,-75.94 162.8,-70.1 162.59,-62.95 162.59,-61.15 162.8,-54 162.87,-51.44 162.97,-48.79 163.09,-46.13"/>
<polygon fill="#da2d4f" stroke="#da2d4f" stroke-width="2" points="166.59,-46.25 163.62,-36.08 159.6,-45.88 166.59,-46.25"/>
</g>
<!-- node5&#45;&gt;node7 -->
<g id="edge6" class="edge">
<title>node5&#45;&gt;node7</title>
<path fill="none" stroke="#3cb4a4" d="M164.8,-88.09C164.8,-76.26 164.8,-60.22 164.8,-46.57"/>
<polygon fill="#3cb4a4" stroke="#3cb4a4" points="168.3,-46.27 164.8,-36.27 161.3,-46.27 168.3,-46.27"/>
<text text-anchor="middle" x="181.91" y="-58.9" font-family="arial" font-size="14.00" fill="#3cb4a4">result</text>
</g>
<!-- inline1x4 -->
<g id="node5" class="node">
<title>inline1x4</title>
<ellipse fill="#d7ede7" stroke="black" cx="208.8" cy="-260.3" rx="27" ry="18"/>
<text text-anchor="middle" x="208.8" y="-258.5" font-family="Arial" font-size="8.00" fill="#1a1919">1 P(0)</text>
</g>
<!-- inline1x4&#45;&gt;node4 -->
<g id="edge2" class="edge">
<title>inline1x4&#45;&gt;node4</title>
<path fill="none" stroke="#3cb4a4" d="M216.26,-242.89C222.31,-229.57 230.82,-210.84 236.97,-197.31"/>
<text text-anchor="middle" x="238.02" y="-217.9" font-family="arial" font-size="8.00" fill="#3cb4a4">arg[0]</text>
</g>
<!-- inline2x4 -->
<g id="node6" class="node">
<title>inline2x4</title>
<ellipse fill="#d7ede7" stroke="black" cx="280.8" cy="-260.3" rx="27" ry="18"/>
<text text-anchor="middle" x="280.8" y="-258.5" font-family="Arial" font-size="8.00" fill="#1a1919">2 P(1)</text>
</g>
<!-- inline2x4&#45;&gt;node4 -->
<g id="edge3" class="edge">
<title>inline2x4&#45;&gt;node4</title>
<path fill="none" stroke="#3cb4a4" d="M273.34,-242.89C267.28,-229.57 258.77,-210.84 252.62,-197.31"/>
<text text-anchor="middle" x="274.02" y="-217.9" font-family="arial" font-size="8.00" fill="#3cb4a4">arg[1]</text>
</g>
</g>
</svg>
