<?xml version="1.0" encoding="UTF-8" standalone="no"?>
<!DOCTYPE svg PUBLIC "-//W3C//DTD SVG 1.1//EN"
 "http://www.w3.org/Graphics/SVG/1.1/DTD/svg11.dtd">
<!-- Generated by graphviz version 2.43.0 (0)
 -->
<!-- Title: G Pages: 1 -->
<svg width="362pt" height="439pt"
 viewBox="0.00 0.00 362.32 439.20" xmlns="http://www.w3.org/2000/svg" xmlns:xlink="http://www.w3.org/1999/xlink">
<g id="graph0" class="graph" transform="scale(1 1) rotate(0) translate(4 435.2)">
<title>G</title>
' points="-4,4 -4,-435.2 358.32,-435.2 358.32,4 -4,4"/>
<!-- node0 -->
<g id="node1" class="node">
<title>node0</title>
<polygon fill="#e98693" stroke="black" points="155.7,-431.2 98.22,-431.2 98.22,-395.2 155.7,-395.2 155.7,-431.2"/>
<text text-anchor="middle" x="126.96" y="-410.05" font-family="Arial" font-size="14.00" fill="#1a1919">0 Start</text>
</g>
<!-- node3 -->
<g id="node2" class="node">
<title>node3</title>
<polygon fill="#da2d4f" stroke="black" points="206.92,-358.2 46.99,-358.2 46.99,-322.2 206.92,-322.2 206.92,-358.2"/>
<text text-anchor="middle" x="126.96" y="-337.05" font-family="Arial" font-size="14.00" fill="#ffffff">3 New java.lang.Object</text>
</g>
<!-- node0&#45;&gt;node3 -->
<g id="edge1" class="edge">
<title>node0&#45;&gt;node3</title>
<path fill="none" stroke="#da2d4f" stroke-width="2" d="M126.96,-395.01C126.96,-386.99 126.96,-377.24 126.96,-368.27"/>
<polygon fill="#da2d4f" stroke="#da2d4f" stroke-width="2" points="130.46,-368.23 126.96,-358.23 123.46,-368.23 130.46,-368.23"/>
</g>
<!-- node5 -->
<g id="node4" class="node">
<title>node5</title>
<polygon fill="#da2d4f" stroke="black" points="213.78,-270.1 106.14,-270.1 106.14,-234.1 213.78,-234.1 213.78,-270.1"/>
<text text-anchor="middle" x="159.96" y="-248.95" font-family="Arial" font-size="14.00" fill="#ffffff">5 MonitorEnter</text>
</g>
<!-- node3&#45;&gt;node5 -->
<g id="edge2" class="edge">
<title>node3&#45;&gt;node5</title>
<path fill="none" stroke="#da2d4f" stroke-width="2" d="M130.66,-321.84C133.07,-311.8 136.57,-299.02 140.96,-288.1 142.13,-285.18 143.49,-282.19 144.93,-279.25"/>
<polygon fill="#da2d4f" stroke="#da2d4f" stroke-width="2" points="148.15,-280.65 149.68,-270.16 141.94,-277.41 148.15,-280.65"/>
</g>
<!-- node3&#45;&gt;node5 -->
<g id="edge3" class="edge">
<title>node3&#45;&gt;node5</title>
<path fill="none" stroke="#3cb4a4" d="M133.48,-322.19C138.1,-310.12 144.41,-293.68 149.7,-279.86"/>
<polygon fill="#3cb4a4" stroke="#3cb4a4" points="153.03,-280.96 153.34,-270.37 146.49,-278.45 153.03,-280.96"/>
<text text-anchor="middle" x="165.64" y="-293" font-family="arial" font-size="14.00" fill="#3cb4a4">object</text>
</g>
<!-- node9 -->
<g id="node6" class="node">
<title>node9</title>
<polygon fill="#da2d4f" stroke="black" points="195.66,-109 98.26,-109 98.26,-73 195.66,-73 195.66,-109"/>
<text text-anchor="middle" x="146.96" y="-87.85" font-family="Arial" font-size="14.00" fill="#ffffff">9 MonitorExit</text>
</g>
<!-- node3&#45;&gt;node9 -->
<g id="edge8" class="edge">
<title>node3&#45;&gt;node9</title>
<path fill="none" stroke="#3cb4a4" d="M85.31,-322.11C63.37,-310.78 38.31,-293.63 24.96,-270.1 -2.28,-222.09 -10.49,-192.04 19.96,-146 35.31,-122.79 62.88,-109.52 88.42,-101.96"/>
<polygon fill="#3cb4a4" stroke="#3cb4a4" points="89.35,-105.33 98.08,-99.33 87.51,-98.58 89.35,-105.33"/>
<text text-anchor="middle" x="20.64" y="-204.9" font-family="arial" font-size="14.00" fill="#3cb4a4">object</text>
</g>
<!-- node4 -->
<g id="node3" class="node">
<title>node4</title>
<polygon fill="#f9f9f9" stroke="black" points="322.99,-358.2 236.93,-358.2 236.93,-322.2 322.99,-322.2 322.99,-358.2"/>
<text text-anchor="middle" x="279.96" y="-337.05" font-family="Arial" font-size="14.00" fill="#1a1919">4 MonitorId</text>
</g>
<!-- node4&#45;&gt;node5 -->
<g id="edge4" class="edge">
<title>node4&#45;&gt;node5</title>
<path fill="none" stroke="#3cb4a4" d="M248.84,-322.17C239.55,-316.73 229.48,-310.49 220.6,-304.2 208.88,-295.89 196.63,-285.86 186.24,-276.89"/>
<polygon fill="#3cb4a4" stroke="#3cb4a4" points="188.52,-274.24 178.69,-270.29 183.91,-279.51 188.52,-274.24"/>
<text text-anchor="middle" x="249.14" y="-293" font-family="arial" font-size="14.00" fill="#3cb4a4">monitorId</text>
</g>
<!-- node4&#45;&gt;node9 -->
<g id="edge9" class="edge">
<title>node4&#45;&gt;node9</title>
<path fill="none" stroke="#3cb4a4" d="M285.04,-322.1C294.68,-285.95 311.49,-200.63 273.96,-146 258.33,-123.25 231.05,-110.04 205.76,-102.39"/>
<polygon fill="#3cb4a4" stroke="#3cb4a4" points="206.41,-98.94 195.83,-99.63 204.53,-105.68 206.41,-98.94"/>
<text text-anchor="middle" x="325.14" y="-204.9" font-family="arial" font-size="14.00" fill="#3cb4a4">monitorId</text>
</g>
<!-- node7 -->
<g id="node5" class="node">
<title>node7</title>
<polygon fill="#da2d4f" stroke="black" points="264.89,-182 29.03,-182 29.03,-146 264.89,-146 264.89,-182"/>
<text text-anchor="middle" x="146.96" y="-160.85" font-family="Arial" font-size="14.00" fill="#ffffff">7 StoreField JavaExamples.intField</text>
</g>
<!-- node5&#45;&gt;node7 -->
<g id="edge5" class="edge">
<title>node5&#45;&gt;node7</title>
<path fill="none" stroke="#da2d4f" stroke-width="2" d="M157.39,-234.09C155.59,-222.14 153.14,-205.9 151.06,-192.17"/>
<polygon fill="#da2d4f" stroke="#da2d4f" stroke-width="2" points="154.52,-191.64 149.57,-182.27 147.6,-192.68 154.52,-191.64"/>
</g>
<!-- node7&#45;&gt;node9 -->
<g id="edge7" class="edge">
<title>node7&#45;&gt;node9</title>
<path fill="none" stroke="#da2d4f" stroke-width="2" d="M146.96,-145.81C146.96,-137.79 146.96,-128.05 146.96,-119.07"/>
<polygon fill="#da2d4f" stroke="#da2d4f" stroke-width="2" points="150.46,-119.03 146.96,-109.03 143.46,-119.03 150.46,-119.03"/>
</g>
<!-- node11 -->
<g id="node7" class="node">
<title>node11</title>
<polygon fill="#e98693" stroke="black" points="185.4,-36 108.52,-36 108.52,0 185.4,0 185.4,-36"/>
<text text-anchor="middle" x="146.96" y="-14.85" font-family="Arial" font-size="14.00" fill="#1a1919">11 Return</text>
</g>
<!-- node9&#45;&gt;node11 -->
<g id="edge10" class="edge">
<title>node9&#45;&gt;node11</title>
<path fill="none" stroke="#da2d4f" stroke-width="2" d="M146.96,-72.81C146.96,-64.79 146.96,-55.05 146.96,-46.07"/>
<polygon fill="#da2d4f" stroke="#da2d4f" stroke-width="2" points="150.46,-46.03 146.96,-36.03 143.46,-46.03 150.46,-46.03"/>
</g>
<!-- inline1x7 -->
<g id="node8" class="node">
<title>inline1x7</title>
<ellipse fill="#d7ede7" stroke="black" cx="60.96" cy="-252.1" rx="27" ry="18"/>
<text text-anchor="middle" x="60.96" y="-250.3" font-family="Arial" font-size="8.00" fill="#1a1919">1 P(0)</text>
</g>
<!-- inline1x7&#45;&gt;node7 -->
<g id="edge6" class="edge">
<title>inline1x7&#45;&gt;node7</title>
<path fill="none" stroke="#3cb4a4" d="M75.55,-236.49C90.6,-221.43 114.05,-197.95 129.93,-182.05"/>
<text text-anchor="middle" x="121.52" y="-206.25" font-family="arial" font-size="8.00" fill="#3cb4a4">value</text>
</g>
</g>
</svg>
