<?xml version="1.0" encoding="UTF-8" standalone="no"?>
<!DOCTYPE svg PUBLIC "-//W3C//DTD SVG 1.1//EN"
 "http://www.w3.org/Graphics/SVG/1.1/DTD/svg11.dtd">
<!-- Generated by graphviz version 2.44.0 (20200408.0750)
 -->
<!-- Title: G Pages: 1 -->
<svg width="494pt" height="386pt"
 viewBox="0.00 0.00 494.29 386.00" xmlns="http://www.w3.org/2000/svg" xmlns:xlink="http://www.w3.org/1999/xlink">
<g id="graph0" class="graph" transform="scale(1 1) rotate(0) translate(4 382)">
<title>G</title>
<!-- node0 -->
<g id="node1" class="node">
<title>node0</title>
<polygon fill="#e98693" stroke="black" points="134,-297 78,-297 78,-261 134,-261 134,-297"/>
<text text-anchor="middle" x="106" y="-275.3" font-family="Arial" font-size="14.00" fill="#1a1919">0 Start</text>
</g>
<!-- node5 -->
<g id="node3" class="node">
<title>node5</title>
<polygon fill="#ffa500" stroke="black" points="244,-210 0,-210 0,-174 244,-174 244,-210"/>
<text text-anchor="middle" x="122" y="-188.3" font-family="Arial" font-size="14.00" fill="#1a1919">5 Guard not, else ArithmeticException</text>
</g>
<!-- node0&#45;&gt;node5 -->
<g id="edge1" class="edge">
<title>node0&#45;&gt;node5</title>
<path fill="none" stroke="#da2d4f" stroke-width="2" d="M109.24,-260.8C111.43,-249.16 114.37,-233.55 116.87,-220.24"/>
<polygon fill="#da2d4f" stroke="#da2d4f" stroke-width="2" points="120.36,-220.65 118.77,-210.18 113.48,-219.36 120.36,-220.65"/>
</g>
<!-- node4 -->
<g id="node2" class="node">
<title>node4</title>
<polygon fill="#3cb4a4" stroke="black" points="319,-297 151.93,-279 319,-261 486.07,-279 319,-297"/>
<text text-anchor="middle" x="319" y="-275.3" font-family="Arial" font-size="14.00" fill="#1a1919">4 IntegerAddExactOverflow</text>
</g>
<!-- node4&#45;&gt;node5 -->
<g id="edge4" class="edge">
<title>node4&#45;&gt;node5</title>
<path fill="none" stroke="#3cb4a4" d="M287.35,-264.34C256,-250.82 207.54,-229.91 171.17,-214.22"/>
<polygon fill="#3cb4a4" stroke="#3cb4a4" points="172.3,-210.89 161.74,-210.15 169.53,-217.32 172.3,-210.89"/>
<text text-anchor="middle" x="237" y="-231.8" font-family="arial" font-size="14.00" fill="#3cb4a4">?</text>
</g>
<!-- node6 -->
<g id="node4" class="node">
<title>node6</title>
<polygon fill="#3cb4a4" stroke="black" points="284,-123 166.2,-105 284,-87 401.8,-105 284,-123"/>
<text text-anchor="middle" x="284" y="-101.3" font-family="Arial" font-size="14.00" fill="#1a1919">6 IntegerAddExact</text>
</g>
<!-- node5&#45;&gt;node6 -->
<g id="edge8" class="edge">
<title>node5&#45;&gt;node6</title>
<path fill="none" stroke="#3cb4a4" d="M154.78,-173.8C182.36,-159.33 221.66,-138.71 249.67,-124.01"/>
<polygon fill="#3cb4a4" stroke="#3cb4a4" points="251.47,-127.02 258.7,-119.28 248.22,-120.82 251.47,-127.02"/>
<text text-anchor="middle" x="230.5" y="-144.8" font-family="arial" font-size="14.00" fill="#3cb4a4">guard</text>
</g>
<!-- node7 -->
<g id="node5" class="node">
<title>node7</title>
<polygon fill="#e98693" stroke="black" points="178,-36 110,-36 110,0 178,0 178,-36"/>
<text text-anchor="middle" x="144" y="-14.3" font-family="Arial" font-size="14.00" fill="#1a1919">7 Return</text>
</g>
<!-- node5&#45;&gt;node7 -->
<g id="edge5" class="edge">
<title>node5&#45;&gt;node7</title>
<path fill="none" stroke="#da2d4f" stroke-width="2" d="M124.19,-173.88C128.01,-144 135.93,-82.11 140.51,-46.27"/>
<polygon fill="#da2d4f" stroke="#da2d4f" stroke-width="2" points="144.02,-46.41 141.82,-36.05 137.08,-45.53 144.02,-46.41"/>
</g>
<!-- node6&#45;&gt;node7 -->
<g id="edge9" class="edge">
<title>node6&#45;&gt;node7</title>
<path fill="none" stroke="#3cb4a4" d="M261.51,-90.34C239.8,-77.16 206.54,-56.97 180.94,-41.43"/>
<polygon fill="#3cb4a4" stroke="#3cb4a4" points="182.6,-38.34 172.24,-36.15 178.97,-44.33 182.6,-38.34"/>
<text text-anchor="middle" x="240" y="-57.8" font-family="arial" font-size="14.00" fill="#3cb4a4">result</text>
</g>
<!-- inline1x4 -->
<g id="node6" class="node">
<title>inline1x4</title>
<ellipse fill="#d7ede7" stroke="black" cx="283" cy="-360" rx="27" ry="18"/>
<text text-anchor="middle" x="283" y="-358.1" font-family="Arial" font-size="8.00" fill="#1a1919">1 P(0)</text>
</g>
<!-- inline1x4&#45;&gt;node4 -->
<g id="edge2" class="edge">
<title>inline1x4&#45;&gt;node4</title>
<path fill="none" stroke="#3cb4a4" d="M290.46,-342.63C296.64,-329.07 305.37,-309.9 311.55,-296.35"/>
<text text-anchor="middle" x="305" y="-317.6" font-family="arial" font-size="8.00" fill="#3cb4a4">x</text>
</g>
<!-- inline2x4 -->
<g id="node7" class="node">
<title>inline2x4</title>
<ellipse fill="#d7ede7" stroke="black" cx="355" cy="-360" rx="27" ry="18"/>
<text text-anchor="middle" x="355" y="-358.1" font-family="Arial" font-size="8.00" fill="#1a1919">2 P(1)</text>
</g>
<!-- inline2x4&#45;&gt;node4 -->
<g id="edge3" class="edge">
<title>inline2x4&#45;&gt;node4</title>
<path fill="none" stroke="#3cb4a4" d="M347.54,-342.63C341.36,-329.07 332.63,-309.9 326.45,-296.35"/>
<text text-anchor="middle" x="340" y="-317.6" font-family="arial" font-size="8.00" fill="#3cb4a4">y</text>
</g>
<!-- inline1x6 -->
<g id="node8" class="node">
<title>inline1x6</title>
<ellipse fill="#d7ede7" stroke="black" cx="289" cy="-192" rx="27" ry="18"/>
<text text-anchor="middle" x="289" y="-190.1" font-family="Arial" font-size="8.00" fill="#1a1919">1 P(0)</text>
</g>
<!-- inline1x6&#45;&gt;node6 -->
<g id="edge6" class="edge">
<title>inline1x6&#45;&gt;node6</title>
<path fill="none" stroke="#3cb4a4" d="M287.99,-173.8C287.11,-158.95 285.86,-137.64 284.99,-122.89"/>
<text text-anchor="middle" x="289" y="-146.6" font-family="arial" font-size="8.00" fill="#3cb4a4">x</text>
</g>
<!-- inline2x6 -->
<g id="node9" class="node">
<title>inline2x6</title>
<ellipse fill="#d7ede7" stroke="black" cx="361" cy="-192" rx="27" ry="18"/>
<text text-anchor="middle" x="361" y="-190.1" font-family="Arial" font-size="8.00" fill="#1a1919">2 P(1)</text>
</g>
<!-- inline2x6&#45;&gt;node6 -->
<g id="edge7" class="edge">
<title>inline2x6&#45;&gt;node6</title>
<path fill="none" stroke="#3cb4a4" d="M347.59,-176.19C333.63,-160.78 311.87,-136.77 297.78,-121.21"/>
<text text-anchor="middle" x="329" y="-146.6" font-family="arial" font-size="8.00" fill="#3cb4a4">y</text>
</g>
</g>
</svg>
