<?xml version="1.0" encoding="UTF-8" standalone="no"?>
<!DOCTYPE svg PUBLIC "-//W3C//DTD SVG 1.1//EN"
 "http://www.w3.org/Graphics/SVG/1.1/DTD/svg11.dtd">
<!-- Generated by graphviz version 2.44.0 (20200408.0750)
 -->
<!-- Title: G Pages: 1 -->
<svg width="187pt" height="212pt"
 viewBox="0.00 0.00 187.00 212.00" xmlns="http://www.w3.org/2000/svg" xmlns:xlink="http://www.w3.org/1999/xlink">
<g id="graph0" class="graph" transform="scale(1 1) rotate(0) translate(4 208)">
<title>G</title>
<!-- node0 -->
<g id="node1" class="node">
<title>node0</title>
<polygon fill="#e98693" stroke="black" points="56,-123 0,-123 0,-87 56,-87 56,-123"/>
<text text-anchor="middle" x="28" y="-101.3" font-family="Arial" font-size="14.00" fill="#1a1919">0 Start</text>
</g>
<!-- node5 -->
<g id="node3" class="node">
<title>node5</title>
<polygon fill="#e98693" stroke="black" points="90,-36 22,-36 22,0 90,0 90,-36"/>
<text text-anchor="middle" x="56" y="-14.3" font-family="Arial" font-size="14.00" fill="#1a1919">5 Return</text>
</g>
<!-- node0&#45;&gt;node5 -->
<g id="edge1" class="edge">
<title>node0&#45;&gt;node5</title>
<path fill="none" stroke="#da2d4f" stroke-width="2" d="M33.67,-86.8C37.54,-75.05 42.75,-59.24 47.16,-45.84"/>
<polygon fill="#da2d4f" stroke="#da2d4f" stroke-width="2" points="50.54,-46.77 50.34,-36.18 43.89,-44.58 50.54,-46.77"/>
</g>
<!-- node4 -->
<g id="node2" class="node">
<title>node4</title>
<polygon fill="#3cb4a4" stroke="black" points="108,-123 73.98,-105 108,-87 142.02,-105 108,-123"/>
<text text-anchor="middle" x="108" y="-101.3" font-family="Arial" font-size="14.00" fill="#1a1919">4 &amp;</text>
</g>
<!-- node4&#45;&gt;node5 -->
<g id="edge4" class="edge">
<title>node4&#45;&gt;node5</title>
<path fill="none" stroke="#3cb4a4" d="M100.1,-91.09C92.6,-78.82 81.1,-60.02 71.72,-44.7"/>
<polygon fill="#3cb4a4" stroke="#3cb4a4" points="74.7,-42.86 66.49,-36.15 68.73,-46.51 74.7,-42.86"/>
<text text-anchor="middle" x="132" y="-57.8" font-family="arial" font-size="14.00" fill="#3cb4a4">result [0 &#45; 4660]</text>
</g>
<!-- inline1x4 -->
<g id="node4" class="node">
<title>inline1x4</title>
<ellipse fill="#d7ede7" stroke="black" cx="70" cy="-186" rx="27" ry="18"/>
<text text-anchor="middle" x="70" y="-184.1" font-family="Arial" font-size="8.00" fill="#1a1919">1 P(0)</text>
</g>
<!-- inline1x4&#45;&gt;node4 -->
<g id="edge2" class="edge">
<title>inline1x4&#45;&gt;node4</title>
<path fill="none" stroke="#3cb4a4" d="M77.87,-168.63C84.83,-154.17 94.86,-133.32 101.4,-119.72"/>
<text text-anchor="middle" x="92" y="-143.6" font-family="arial" font-size="8.00" fill="#3cb4a4">x</text>
</g>
<!-- inline3x4 -->
<g id="node5" class="node">
<title>inline3x4</title>
<ellipse fill="#d7ede7" stroke="black" cx="145" cy="-186" rx="30.13" ry="18"/>
<text text-anchor="middle" x="145" y="-184.1" font-family="Arial" font-size="8.00" fill="#1a1919">3 C(4660)</text>
</g>
<!-- inline3x4&#45;&gt;node4 -->
<g id="edge3" class="edge">
<title>inline3x4&#45;&gt;node4</title>
<path fill="none" stroke="#3cb4a4" d="M137.15,-168.25C130.41,-153.84 120.8,-133.32 114.48,-119.83"/>
<text text-anchor="middle" x="129" y="-143.6" font-family="arial" font-size="8.00" fill="#3cb4a4">y</text>
</g>
</g>
</svg>
