<?xml version="1.0" encoding="UTF-8" standalone="no"?>
<!DOCTYPE svg PUBLIC "-//W3C//DTD SVG 1.1//EN"
 "http://www.w3.org/Graphics/SVG/1.1/DTD/svg11.dtd">
<!-- Generated by graphviz version 2.44.0 (20200408.0750)
 -->
<!-- Title: G Pages: 1 -->
<svg width="697pt" height="386pt"
 viewBox="0.00 0.00 697.30 386.00" xmlns="http://www.w3.org/2000/svg" xmlns:xlink="http://www.w3.org/1999/xlink">
<g id="graph0" class="graph" transform="scale(1 1) rotate(0) translate(4 382)">
<title>G</title>
<!-- node0 -->
<g id="node1" class="node">
<title>node0</title>
<polygon fill="#e98693" stroke="black" points="459.8,-210 403.8,-210 403.8,-174 459.8,-174 459.8,-210"/>
<text text-anchor="middle" x="431.8" y="-188.3" font-family="Arial" font-size="14.00" fill="#1a1919">0 Start</text>
</g>
<!-- node6 -->
<g id="node5" class="node">
<title>node6</title>
<polygon fill="#da2d4f" stroke="black" points="342.3,-123 127.3,-123 127.3,-87 342.3,-87 342.3,-123"/>
<text text-anchor="middle" x="234.8" y="-101.3" font-family="Arial" font-size="14.00" fill="#ffffff">6 Call JavaExamples.opaqueCall</text>
</g>
<!-- node0&#45;&gt;node6 -->
<g id="edge2" class="edge">
<title>node0&#45;&gt;node6</title>
<path fill="none" stroke="#da2d4f" stroke-width="2" d="M429.18,-173.69C426.61,-162.72 421.58,-149.12 411.8,-141 401.59,-132.53 378.77,-125.83 352.8,-120.66"/>
<polygon fill="#da2d4f" stroke="#da2d4f" stroke-width="2" points="353.18,-117.18 342.71,-118.76 351.88,-124.05 353.18,-117.18"/>
</g>
<!-- node3 -->
<g id="node2" class="node">
<title>node3</title>
<polygon fill="#f9f9f9" stroke="black" points="689.3,-297 180.3,-297 180.3,-261 689.3,-261 689.3,-297"/>
<text text-anchor="middle" x="434.8" y="-275.3" font-family="Arial" font-size="14.00" fill="#1a1919">3 FrameState JavaExamples#exampleLocalVariablesState JavaExamples.java:74</text>
</g>
<!-- node3&#45;&gt;node0 -->
<g id="edge1" class="edge">
<title>node3&#45;&gt;node0</title>
<path fill="none" stroke="#343d46" stroke-dasharray="5,2" d="M433.83,-250.73C433.36,-237.42 432.81,-221.81 432.4,-210.18"/>
<polygon fill="#343d46" stroke="#343d46" points="430.34,-250.93 434.19,-260.8 437.33,-250.68 430.34,-250.93"/>
</g>
<!-- node4 -->
<g id="node3" class="node">
<title>node4</title>
<polygon fill="#3cb4a4" stroke="black" points="128.8,-297 95.62,-279 128.8,-261 161.98,-279 128.8,-297"/>
<text text-anchor="middle" x="128.8" y="-275.3" font-family="Arial" font-size="14.00" fill="#1a1919">4 +</text>
</g>
<!-- node7 -->
<g id="node6" class="node">
<title>node7</title>
<polygon fill="#f9f9f9" stroke="black" points="619.3,-36 110.3,-36 110.3,0 619.3,0 619.3,-36"/>
<text text-anchor="middle" x="364.8" y="-14.3" font-family="Arial" font-size="14.00" fill="#1a1919">7 FrameState JavaExamples#exampleLocalVariablesState JavaExamples.java:75</text>
</g>
<!-- node4&#45;&gt;node7 -->
<g id="edge10" class="edge">
<title>node4&#45;&gt;node7</title>
<path fill="none" stroke="#3cb4a4" d="M146.73,-270.58C154.15,-267.55 162.87,-264.05 170.8,-261 232.61,-237.24 262.1,-254.88 310.8,-210 357.09,-167.34 364.81,-88.31 365.44,-46.53"/>
<polygon fill="#3cb4a4" stroke="#3cb4a4" points="368.94,-46.29 365.46,-36.28 361.94,-46.27 368.94,-46.29"/>
<text text-anchor="middle" x="371.8" y="-144.8" font-family="arial" font-size="14.00" fill="#3cb4a4">values</text>
</g>
<!-- node10 -->
<g id="node7" class="node">
<title>node10</title>
<polygon fill="#3cb4a4" stroke="black" points="47.8,-210 0.2,-192 47.8,-174 95.39,-192 47.8,-210"/>
<text text-anchor="middle" x="47.8" y="-188.3" font-family="Arial" font-size="14.00" fill="#1a1919">10 &lt;&lt;</text>
</g>
<!-- node4&#45;&gt;node10 -->
<g id="edge12" class="edge">
<title>node4&#45;&gt;node10</title>
<path fill="none" stroke="#3cb4a4" d="M117.87,-266.54C104.88,-252.91 82.97,-229.91 67.1,-213.26"/>
<polygon fill="#3cb4a4" stroke="#3cb4a4" points="69.3,-210.49 59.86,-205.66 64.23,-215.32 69.3,-210.49"/>
<text text-anchor="middle" x="97.3" y="-231.8" font-family="arial" font-size="14.00" fill="#3cb4a4">x</text>
</g>
<!-- node11 -->
<g id="node8" class="node">
<title>node11</title>
<polygon fill="#3cb4a4" stroke="black" points="53.8,-123 14.25,-105 53.8,-87 93.34,-105 53.8,-123"/>
<text text-anchor="middle" x="53.8" y="-101.3" font-family="Arial" font-size="14.00" fill="#1a1919">11 +</text>
</g>
<!-- node4&#45;&gt;node11 -->
<g id="edge14" class="edge">
<title>node4&#45;&gt;node11</title>
<path fill="none" stroke="#3cb4a4" d="M127.17,-261.82C124.59,-240.78 118.39,-203.24 104.8,-174 96.53,-156.22 83.1,-138.57 72.1,-125.71"/>
<polygon fill="#3cb4a4" stroke="#3cb4a4" points="74.54,-123.19 65.3,-118 69.29,-127.82 74.54,-123.19"/>
<text text-anchor="middle" x="121.3" y="-188.3" font-family="arial" font-size="14.00" fill="#3cb4a4">x</text>
</g>
<!-- node5 -->
<g id="node4" class="node">
<title>node5</title>
<polygon fill="#f9f9f9" stroke="black" points="301.8,-210 167.8,-210 167.8,-174 301.8,-174 301.8,-210"/>
<text text-anchor="middle" x="234.8" y="-188.3" font-family="Arial" font-size="14.00" fill="#1a1919">5 MethodCallTarget</text>
</g>
<!-- node5&#45;&gt;node6 -->
<g id="edge8" class="edge">
<title>node5&#45;&gt;node6</title>
<path fill="none" stroke="#343d46" stroke-dasharray="5,2" d="M234.8,-163.73C234.8,-150.42 234.8,-134.81 234.8,-123.18"/>
<polygon fill="#343d46" stroke="#343d46" points="231.3,-163.8 234.8,-173.8 238.3,-163.8 231.3,-163.8"/>
</g>
<!-- node6&#45;&gt;node7 -->
<g id="edge11" class="edge">
<title>node6&#45;&gt;node7</title>
<path fill="none" stroke="#3cb4a4" d="M261.1,-86.8C280.93,-73.84 308.3,-55.94 329.94,-41.79"/>
<polygon fill="#3cb4a4" stroke="#3cb4a4" points="332.07,-44.58 338.53,-36.18 328.24,-38.72 332.07,-44.58"/>
<text text-anchor="middle" x="327.8" y="-57.8" font-family="arial" font-size="14.00" fill="#3cb4a4">values</text>
</g>
<!-- node12 -->
<g id="node9" class="node">
<title>node12</title>
<polygon fill="#e98693" stroke="black" points="91.8,-36 15.8,-36 15.8,0 91.8,0 91.8,-36"/>
<text text-anchor="middle" x="53.8" y="-14.3" font-family="Arial" font-size="14.00" fill="#1a1919">12 Return</text>
</g>
<!-- node6&#45;&gt;node12 -->
<g id="edge9" class="edge">
<title>node6&#45;&gt;node12</title>
<path fill="none" stroke="#da2d4f" stroke-width="2" d="M198.17,-86.8C169.62,-73.39 129.82,-54.7 99.23,-40.34"/>
<polygon fill="#da2d4f" stroke="#da2d4f" stroke-width="2" points="100.6,-37.11 90.06,-36.03 97.62,-43.45 100.6,-37.11"/>
</g>
<!-- node7&#45;&gt;node6 -->
<g id="edge7" class="edge">
<title>node7&#45;&gt;node6</title>
<path fill="none" stroke="#343d46" stroke-dasharray="5,2" d="M292.49,-40.24C284.44,-44.14 276.67,-48.7 269.8,-54 258.55,-62.67 249.49,-75.96 243.4,-86.66"/>
<polygon fill="#343d46" stroke="#343d46" points="293.98,-43.4 301.66,-36.1 291.11,-37.02 293.98,-43.4"/>
</g>
<!-- node10&#45;&gt;node11 -->
<g id="edge15" class="edge">
<title>node10&#45;&gt;node11</title>
<path fill="none" stroke="#3cb4a4" d="M48.98,-174.21C49.81,-162.45 50.94,-146.48 51.89,-132.96"/>
<polygon fill="#3cb4a4" stroke="#3cb4a4" points="55.4,-132.98 52.61,-122.76 48.42,-132.49 55.4,-132.98"/>
<text text-anchor="middle" x="55.3" y="-144.8" font-family="arial" font-size="14.00" fill="#3cb4a4">y</text>
</g>
<!-- node11&#45;&gt;node12 -->
<g id="edge16" class="edge">
<title>node11&#45;&gt;node12</title>
<path fill="none" stroke="#3cb4a4" d="M53.8,-86.8C53.8,-75.16 53.8,-59.55 53.8,-46.24"/>
<polygon fill="#3cb4a4" stroke="#3cb4a4" points="57.3,-46.18 53.8,-36.18 50.3,-46.18 57.3,-46.18"/>
<text text-anchor="middle" x="70.8" y="-57.8" font-family="arial" font-size="14.00" fill="#3cb4a4">result</text>
</g>
<!-- inline1x3 -->
<g id="node10" class="node">
<title>inline1x3</title>
<ellipse fill="#d7ede7" stroke="black" cx="398.8" cy="-360" rx="27" ry="18"/>
<text text-anchor="middle" x="398.8" y="-358.1" font-family="Arial" font-size="8.00" fill="#1a1919">1 P(0)</text>
</g>
<!-- inline1x3&#45;&gt;node3 -->
<g id="edge3" class="edge">
<title>inline1x3&#45;&gt;node3</title>
<path fill="none" stroke="#3cb4a4" d="M406.26,-342.63C412.31,-329.34 420.82,-310.67 426.97,-297.17"/>
<text text-anchor="middle" x="430.3" y="-317.6" font-family="arial" font-size="8.00" fill="#3cb4a4">values</text>
</g>
<!-- inline2x3 -->
<g id="node11" class="node">
<title>inline2x3</title>
<ellipse fill="#d7ede7" stroke="black" cx="470.8" cy="-360" rx="27" ry="18"/>
<text text-anchor="middle" x="470.8" y="-358.1" font-family="Arial" font-size="8.00" fill="#1a1919">2 P(1)</text>
</g>
<!-- inline2x3&#45;&gt;node3 -->
<g id="edge4" class="edge">
<title>inline2x3&#45;&gt;node3</title>
<path fill="none" stroke="#3cb4a4" d="M463.34,-342.63C457.28,-329.34 448.77,-310.67 442.62,-297.17"/>
<text text-anchor="middle" x="466.3" y="-317.6" font-family="arial" font-size="8.00" fill="#3cb4a4">values</text>
</g>
<!-- inline1x4 -->
<g id="node12" class="node">
<title>inline1x4</title>
<ellipse fill="#d7ede7" stroke="black" cx="92.8" cy="-360" rx="27" ry="18"/>
<text text-anchor="middle" x="92.8" y="-358.1" font-family="Arial" font-size="8.00" fill="#1a1919">1 P(0)</text>
</g>
<!-- inline1x4&#45;&gt;node4 -->
<g id="edge5" class="edge">
<title>inline1x4&#45;&gt;node4</title>
<path fill="none" stroke="#3cb4a4" d="M100.26,-342.63C106.85,-328.17 116.35,-307.32 122.55,-293.72"/>
<text text-anchor="middle" x="114.8" y="-317.6" font-family="arial" font-size="8.00" fill="#3cb4a4">x</text>
</g>
<!-- inline2x4 -->
<g id="node13" class="node">
<title>inline2x4</title>
<ellipse fill="#d7ede7" stroke="black" cx="164.8" cy="-360" rx="27" ry="18"/>
<text text-anchor="middle" x="164.8" y="-358.1" font-family="Arial" font-size="8.00" fill="#1a1919">2 P(1)</text>
</g>
<!-- inline2x4&#45;&gt;node4 -->
<g id="edge6" class="edge">
<title>inline2x4&#45;&gt;node4</title>
<path fill="none" stroke="#3cb4a4" d="M157.34,-342.63C150.75,-328.17 141.25,-307.32 135.05,-293.72"/>
<text text-anchor="middle" x="150.8" y="-317.6" font-family="arial" font-size="8.00" fill="#3cb4a4">y</text>
</g>
<!-- inline9x10 -->
<g id="node14" class="node">
<title>inline9x10</title>
<ellipse fill="#d7ede7" stroke="black" cx="47.8" cy="-279" rx="27" ry="18"/>
<text text-anchor="middle" x="47.8" y="-277.1" font-family="Arial" font-size="8.00" fill="#1a1919">9 C(1)</text>
</g>
<!-- inline9x10&#45;&gt;node10 -->
<g id="edge13" class="edge">
<title>inline9x10&#45;&gt;node10</title>
<path fill="none" stroke="#3cb4a4" d="M47.8,-260.8C47.8,-246.05 47.8,-224.92 47.8,-210.18"/>
<text text-anchor="middle" x="49.8" y="-233.6" font-family="arial" font-size="8.00" fill="#3cb4a4">y</text>
</g>
</g>
</svg>
