<?xml version="1.0" encoding="UTF-8" standalone="no"?>
<!DOCTYPE svg PUBLIC "-//W3C//DTD SVG 1.1//EN"
 "http://www.w3.org/Graphics/SVG/1.1/DTD/svg11.dtd">
<!-- Generated by graphviz version 2.43.0 (0)
 -->
<!-- Title: G Pages: 1 -->
<svg width="404pt" height="301pt"
 viewBox="0.00 0.00 403.50 301.40" xmlns="http://www.w3.org/2000/svg" xmlns:xlink="http://www.w3.org/1999/xlink">
<g id="graph0" class="graph" transform="scale(1 1) rotate(0) translate(4 297.4)">
<title>G</title>
' points="-4,4 -4,-297.4 399.5,-297.4 399.5,4 -4,4"/>
<!-- node0 -->
<g id="node1" class="node">
<title>node0</title>
<polygon fill="#e98693" stroke="black" points="230.24,-124.1 172.76,-124.1 172.76,-88.1 230.24,-88.1 230.24,-124.1"/>
<text text-anchor="middle" x="201.5" y="-102.95" font-family="Arial" font-size="14.00" fill="#1a1919">0 Start</text>
</g>
<!-- node7 -->
<g id="node4" class="node">
<title>node7</title>
<polygon fill="#e98693" stroke="black" points="252.2,-36 182.81,-36 182.81,0 252.2,0 252.2,-36"/>
<text text-anchor="middle" x="217.5" y="-14.85" font-family="Arial" font-size="14.00" fill="#1a1919">7 Return</text>
</g>
<!-- node0&#45;&gt;node7 -->
<g id="edge1" class="edge">
<title>node0&#45;&gt;node7</title>
<path fill="none" stroke="#da2d4f" stroke-width="2" d="M204.66,-88.09C206.88,-76.14 209.9,-59.9 212.45,-46.17"/>
<polygon fill="#da2d4f" stroke="#da2d4f" stroke-width="2" points="215.91,-46.74 214.29,-36.27 209.03,-45.46 215.91,-46.74"/>
</g>
<!-- node3 -->
<g id="node2" class="node">
<title>node3</title>
<polygon fill="#f9f9f9" stroke="black" points="251.01,-212.2 -0,-212.2 -0,-176.2 251.01,-176.2 251.01,-212.2"/>
<text text-anchor="middle" x="125.5" y="-191.05" font-family="Arial" font-size="14.00" fill="#1a1919">3 InstanceOf JavaExamples$OneImpl</text>
</g>
<!-- node6 -->
<g id="node3" class="node">
<title>node6</title>
<polygon fill="#3cb4a4" stroke="black" points="345.23,-124.1 247.78,-124.1 247.78,-88.1 345.23,-88.1 345.23,-124.1"/>
<text text-anchor="middle" x="296.5" y="-102.95" font-family="Arial" font-size="14.00" fill="#1a1919">6 Conditional</text>
</g>
<!-- node3&#45;&gt;node6 -->
<g id="edge3" class="edge">
<title>node3&#45;&gt;node6</title>
<path fill="none" stroke="#3cb4a4" d="M159.29,-176.19C186.25,-162.61 224.2,-143.5 253.36,-128.82"/>
<polygon fill="#3cb4a4" stroke="#3cb4a4" points="255.14,-131.84 262.5,-124.22 251.99,-125.59 255.14,-131.84"/>
<text text-anchor="middle" x="230.4" y="-147" font-family="arial" font-size="14.00" fill="#3cb4a4">?</text>
</g>
<!-- node6&#45;&gt;node7 -->
<g id="edge6" class="edge">
<title>node6&#45;&gt;node7</title>
<path fill="none" stroke="#3cb4a4" d="M280.9,-88.09C269.29,-75.44 253.26,-57.97 240.23,-43.77"/>
<polygon fill="#3cb4a4" stroke="#3cb4a4" points="242.69,-41.27 233.35,-36.27 237.53,-46 242.69,-41.27"/>
<text text-anchor="middle" x="301.46" y="-58.9" font-family="arial" font-size="14.00" fill="#3cb4a4">result [0 &#45; 1]</text>
</g>
<!-- inline1x3 -->
<g id="node5" class="node">
<title>inline1x3</title>
<ellipse fill="#d7ede7" stroke="black" cx="125.5" cy="-275.4" rx="27" ry="18"/>
<text text-anchor="middle" x="125.5" y="-273.6" font-family="Arial" font-size="8.00" fill="#1a1919">1 P(0)</text>
</g>
<!-- inline1x3&#45;&gt;node3 -->
<g id="edge2" class="edge">
<title>inline1x3&#45;&gt;node3</title>
<path fill="none" stroke="#3cb4a4" d="M125.5,-257.21C125.5,-243.93 125.5,-225.62 125.5,-212.35"/>
<text text-anchor="middle" x="135.07" y="-233" font-family="arial" font-size="8.00" fill="#3cb4a4">value</text>
</g>
<!-- inline4x6 -->
<g id="node6" class="node">
<title>inline4x6</title>
<ellipse fill="#d7ede7" stroke="black" cx="296.5" cy="-194.2" rx="27" ry="18"/>
<text text-anchor="middle" x="296.5" y="-192.4" font-family="Arial" font-size="8.00" fill="#1a1919">4 C(1)</text>
</g>
<!-- inline4x6&#45;&gt;node6 -->
<g id="edge4" class="edge">
<title>inline4x6&#45;&gt;node6</title>
<path fill="none" stroke="#3cb4a4" d="M296.5,-176.19C296.5,-161.19 296.5,-139.44 296.5,-124.37"/>
<text text-anchor="middle" x="313.33" y="-148.35" font-family="arial" font-size="8.00" fill="#3cb4a4">trueValue</text>
</g>
<!-- inline5x6 -->
<g id="node7" class="node">
<title>inline5x6</title>
<ellipse fill="#d7ede7" stroke="black" cx="368.5" cy="-194.2" rx="27" ry="18"/>
<text text-anchor="middle" x="368.5" y="-192.4" font-family="Arial" font-size="8.00" fill="#1a1919">5 C(0)</text>
</g>
<!-- inline5x6&#45;&gt;node6 -->
<g id="edge5" class="edge">
<title>inline5x6&#45;&gt;node6</title>
<path fill="none" stroke="#3cb4a4" d="M359.02,-176.84C352.66,-166.45 343.78,-152.96 334.5,-142.1 329.26,-135.96 323.01,-129.81 317.1,-124.42"/>
<text text-anchor="middle" x="364.89" y="-148.35" font-family="arial" font-size="8.00" fill="#3cb4a4">falseValue</text>
</g>
</g>
</svg>
