<?xml version="1.0" encoding="UTF-8" standalone="no"?>
<!DOCTYPE svg PUBLIC "-//W3C//DTD SVG 1.1//EN"
 "http://www.w3.org/Graphics/SVG/1.1/DTD/svg11.dtd">
<!-- Generated by graphviz version 2.44.0 (20200408.0750)
 -->
<!-- Title: G Pages: 1 -->
<svg width="385pt" height="374pt"
 viewBox="0.00 0.00 384.50 374.00" xmlns="http://www.w3.org/2000/svg" xmlns:xlink="http://www.w3.org/1999/xlink">
<g id="graph0" class="graph" transform="scale(1 1) rotate(0) translate(4 370)">
<title>G</title>
<!-- node0 -->
<g id="node1" class="node">
<title>node0</title>
<polygon fill="#e98693" stroke="black" points="123.5,-285 67.5,-285 67.5,-249 123.5,-249 123.5,-285"/>
<text text-anchor="middle" x="95.5" y="-263.3" font-family="Arial" font-size="14.00" fill="#1a1919">0 Start</text>
</g>
<!-- node7 -->
<g id="node3" class="node">
<title>node7</title>
<polygon fill="#ffa500" stroke="black" points="223,-198 0,-198 0,-162 223,-162 223,-198"/>
<text text-anchor="middle" x="111.5" y="-176.3" font-family="Arial" font-size="14.00" fill="#1a1919">7 Guard not, else UnreachedCode</text>
</g>
<!-- node0&#45;&gt;node7 -->
<g id="edge1" class="edge">
<title>node0&#45;&gt;node7</title>
<path fill="none" stroke="#da2d4f" stroke-width="2" d="M98.74,-248.8C100.93,-237.16 103.87,-221.55 106.37,-208.24"/>
<polygon fill="#da2d4f" stroke="#da2d4f" stroke-width="2" points="109.86,-208.65 108.27,-198.18 102.98,-207.36 109.86,-208.65"/>
</g>
<!-- node6 -->
<g id="node2" class="node">
<title>node6</title>
<polygon fill="#3cb4a4" stroke="black" points="181.5,-285 141.11,-267 181.5,-249 221.89,-267 181.5,-285"/>
<text text-anchor="middle" x="181.5" y="-263.3" font-family="Arial" font-size="14.00" fill="#1a1919">6 ==</text>
</g>
<!-- node6&#45;&gt;node7 -->
<g id="edge4" class="edge">
<title>node6&#45;&gt;node7</title>
<path fill="none" stroke="#3cb4a4" d="M171.17,-253.46C160.94,-241.03 144.98,-221.65 132.14,-206.06"/>
<polygon fill="#3cb4a4" stroke="#3cb4a4" points="134.81,-203.8 125.76,-198.31 129.41,-208.25 134.81,-203.8"/>
<text text-anchor="middle" x="155.5" y="-219.8" font-family="arial" font-size="14.00" fill="#3cb4a4">?</text>
</g>
<!-- node8 -->
<g id="node4" class="node">
<title>node8</title>
<polygon fill="#da2d4f" stroke="black" points="304,-117 75,-117 75,-81 304,-81 304,-117"/>
<text text-anchor="middle" x="189.5" y="-95.3" font-family="Arial" font-size="14.00" fill="#ffffff">8 StoreField JavaExamples.intField</text>
</g>
<!-- node7&#45;&gt;node8 -->
<g id="edge5" class="edge">
<title>node7&#45;&gt;node8</title>
<path fill="none" stroke="#da2d4f" stroke-width="2" d="M128.42,-161.86C139.26,-150.88 153.48,-136.48 165.48,-124.33"/>
<polygon fill="#da2d4f" stroke="#da2d4f" stroke-width="2" points="168.07,-126.68 172.61,-117.11 163.09,-121.77 168.07,-126.68"/>
</g>
<!-- node10 -->
<g id="node5" class="node">
<title>node10</title>
<polygon fill="#e98693" stroke="black" points="307.5,-36 231.5,-36 231.5,0 307.5,0 307.5,-36"/>
<text text-anchor="middle" x="269.5" y="-14.3" font-family="Arial" font-size="14.00" fill="#1a1919">10 Return</text>
</g>
<!-- node8&#45;&gt;node10 -->
<g id="edge7" class="edge">
<title>node8&#45;&gt;node10</title>
<path fill="none" stroke="#da2d4f" stroke-width="2" d="M206.86,-80.86C217.97,-69.88 232.56,-55.48 244.86,-43.33"/>
<polygon fill="#da2d4f" stroke="#da2d4f" stroke-width="2" points="247.52,-45.63 252.18,-36.11 242.6,-40.64 247.52,-45.63"/>
</g>
<!-- inline1x6 -->
<g id="node6" class="node">
<title>inline1x6</title>
<ellipse fill="#d7ede7" stroke="black" cx="145.5" cy="-348" rx="27" ry="18"/>
<text text-anchor="middle" x="145.5" y="-346.1" font-family="Arial" font-size="8.00" fill="#1a1919">1 P(0)</text>
</g>
<!-- inline1x6&#45;&gt;node6 -->
<g id="edge2" class="edge">
<title>inline1x6&#45;&gt;node6</title>
<path fill="none" stroke="#3cb4a4" d="M152.96,-330.63C159.47,-316.35 168.81,-295.84 175.02,-282.23"/>
<text text-anchor="middle" x="167.5" y="-305.6" font-family="arial" font-size="8.00" fill="#3cb4a4">x</text>
</g>
<!-- inline5x6 -->
<g id="node7" class="node">
<title>inline5x6</title>
<ellipse fill="#d7ede7" stroke="black" cx="217.5" cy="-348" rx="27" ry="18"/>
<text text-anchor="middle" x="217.5" y="-346.1" font-family="Arial" font-size="8.00" fill="#1a1919">5 C(0)</text>
</g>
<!-- inline5x6&#45;&gt;node6 -->
<g id="edge3" class="edge">
<title>inline5x6&#45;&gt;node6</title>
<path fill="none" stroke="#3cb4a4" d="M210.04,-330.63C203.53,-316.35 194.19,-295.84 187.98,-282.23"/>
<text text-anchor="middle" x="202.5" y="-305.6" font-family="arial" font-size="8.00" fill="#3cb4a4">y</text>
</g>
<!-- inline3x8 -->
<g id="node8" class="node">
<title>inline3x8</title>
<ellipse fill="#d7ede7" stroke="black" cx="268.5" cy="-180" rx="27" ry="18"/>
<text text-anchor="middle" x="268.5" y="-178.1" font-family="Arial" font-size="8.00" fill="#1a1919">3 P(2)</text>
</g>
<!-- inline3x8&#45;&gt;node8 -->
<g id="edge6" class="edge">
<title>inline3x8&#45;&gt;node8</title>
<path fill="none" stroke="#3cb4a4" d="M254.01,-164.51C240.65,-151.15 220.8,-131.3 206.65,-117.15"/>
<text text-anchor="middle" x="240" y="-137.6" font-family="arial" font-size="8.00" fill="#3cb4a4">value</text>
</g>
<!-- inline3x10 -->
<g id="node9" class="node">
<title>inline3x10</title>
<ellipse fill="#d7ede7" stroke="black" cx="349.5" cy="-99" rx="27" ry="18"/>
<text text-anchor="middle" x="349.5" y="-97.1" font-family="Arial" font-size="8.00" fill="#1a1919">3 P(2)</text>
</g>
<!-- inline3x10&#45;&gt;node10 -->
<g id="edge8" class="edge">
<title>inline3x10&#45;&gt;node10</title>
<path fill="none" stroke="#3cb4a4" d="M334.83,-83.51C321.29,-70.15 301.19,-50.3 286.86,-36.15"/>
<text text-anchor="middle" x="321.5" y="-56.6" font-family="arial" font-size="8.00" fill="#3cb4a4">result</text>
</g>
</g>
</svg>
