<?xml version="1.0" encoding="UTF-8" standalone="no"?>
<!DOCTYPE svg PUBLIC "-//W3C//DTD SVG 1.1//EN"
 "http://www.w3.org/Graphics/SVG/1.1/DTD/svg11.dtd">
<!-- Generated by graphviz version 2.43.0 (0)
 -->
<!-- Title: G Pages: 1 -->
<svg width="306pt" height="213pt"
 viewBox="0.00 0.00 305.70 213.30" xmlns="http://www.w3.org/2000/svg" xmlns:xlink="http://www.w3.org/1999/xlink">
<g id="graph0" class="graph" transform="scale(1 1) rotate(0) translate(4 209.3)">
<title>G</title>
' points="-4,4 -4,-209.3 301.7,-209.3 301.7,4 -4,4"/>
<!-- node0 -->
<g id="node1" class="node">
<title>node0</title>
<polygon fill="#e98693" stroke="black" points="140.59,-205.3 83.11,-205.3 83.11,-169.3 140.59,-169.3 140.59,-205.3"/>
<text text-anchor="middle" x="111.85" y="-184.15" font-family="Arial" font-size="14.00" fill="#1a1919">0 Start</text>
</g>
<!-- node5 -->
<g id="node2" class="node">
<title>node5</title>
<polygon fill="#da2d4f" stroke="black" points="297.55,-124.1 0.15,-124.1 0.15,-88.1 297.55,-88.1 297.55,-124.1"/>
<text text-anchor="middle" x="148.85" y="-102.95" font-family="Arial" font-size="14.00" fill="#ffffff">5 LoadField JavaExamples$ExampleObject.x</text>
</g>
<!-- node0&#45;&gt;node5 -->
<g id="edge1" class="edge">
<title>node0&#45;&gt;node5</title>
<path fill="none" stroke="#da2d4f" stroke-width="2" d="M119.88,-169.11C124.73,-158.73 131.01,-145.29 136.48,-133.58"/>
<polygon fill="#da2d4f" stroke="#da2d4f" stroke-width="2" points="139.78,-134.79 140.84,-124.25 133.43,-131.83 139.78,-134.79"/>
</g>
<!-- node6 -->
<g id="node3" class="node">
<title>node6</title>
<polygon fill="#e98693" stroke="black" points="183.55,-36 114.15,-36 114.15,0 183.55,0 183.55,-36"/>
<text text-anchor="middle" x="148.85" y="-14.85" font-family="Arial" font-size="14.00" fill="#1a1919">6 Return</text>
</g>
<!-- node5&#45;&gt;node6 -->
<g id="edge3" class="edge">
<title>node5&#45;&gt;node6</title>
<path fill="none" stroke="#da2d4f" stroke-width="2" d="M147.68,-88.02C147.34,-82.32 147.02,-75.94 146.85,-70.1 146.65,-62.95 146.65,-61.15 146.85,-54 146.92,-51.44 147.03,-48.79 147.15,-46.13"/>
<polygon fill="#da2d4f" stroke="#da2d4f" stroke-width="2" points="150.65,-46.25 147.68,-36.08 143.66,-45.88 150.65,-46.25"/>
</g>
<!-- node5&#45;&gt;node6 -->
<g id="edge4" class="edge">
<title>node5&#45;&gt;node6</title>
<path fill="none" stroke="#3cb4a4" d="M148.85,-88.09C148.85,-76.26 148.85,-60.22 148.85,-46.57"/>
<polygon fill="#3cb4a4" stroke="#3cb4a4" points="152.35,-46.27 148.85,-36.27 145.35,-46.27 152.35,-46.27"/>
<text text-anchor="middle" x="165.97" y="-58.9" font-family="arial" font-size="14.00" fill="#3cb4a4">result</text>
</g>
<!-- inline1x5 -->
<g id="node4" class="node">
<title>inline1x5</title>
<ellipse fill="#d7ede7" stroke="black" cx="185.85" cy="-187.3" rx="27" ry="18"/>
<text text-anchor="middle" x="185.85" y="-185.5" font-family="Arial" font-size="8.00" fill="#1a1919">1 P(0)</text>
</g>
<!-- inline1x5&#45;&gt;node5 -->
<g id="edge2" class="edge">
<title>inline1x5&#45;&gt;node5</title>
<path fill="none" stroke="#3cb4a4" d="M178.18,-169.89C171.96,-156.57 163.21,-137.84 156.89,-124.31"/>
<text text-anchor="middle" x="178.52" y="-144.9" font-family="arial" font-size="8.00" fill="#3cb4a4">object</text>
</g>
</g>
</svg>
