<?xml version="1.0" encoding="UTF-8" standalone="no"?>
<!DOCTYPE svg PUBLIC "-//W3C//DTD SVG 1.1//EN"
 "http://www.w3.org/Graphics/SVG/1.1/DTD/svg11.dtd">
<!-- Generated by graphviz version 2.43.0 (0)
 -->
<!-- Title: G Pages: 1 -->
<svg width="352pt" height="286pt"
 viewBox="0.00 0.00 351.60 286.30" xmlns="http://www.w3.org/2000/svg" xmlns:xlink="http://www.w3.org/1999/xlink">
<g id="graph0" class="graph" transform="scale(1 1) rotate(0) translate(4 282.3)">
<title>G</title>
' points="-4,4 -4,-282.3 347.6,-282.3 347.6,4 -4,4"/>
<!-- node0 -->
<g id="node1" class="node">
<title>node0</title>
<polygon fill="#e98693" stroke="black" points="165.54,-197.1 108.06,-197.1 108.06,-161.1 165.54,-161.1 165.54,-197.1"/>
<text text-anchor="middle" x="136.8" y="-175.95" font-family="Arial" font-size="14.00" fill="#1a1919">0 Start</text>
</g>
<!-- node4 -->
<g id="node3" class="node">
<title>node4</title>
<polygon fill="#da2d4f" stroke="black" points="343.4,-124.1 0.2,-124.1 0.2,-88.1 343.4,-88.1 343.4,-124.1"/>
<text text-anchor="middle" x="171.8" y="-102.95" font-family="Arial" font-size="14.00" fill="#ffffff">4 Call JavaExamples$InterfaceOneImpl.interfaceCall</text>
</g>
<!-- node0&#45;&gt;node4 -->
<g id="edge1" class="edge">
<title>node0&#45;&gt;node4</title>
<path fill="none" stroke="#da2d4f" stroke-width="2" d="M145.27,-160.91C149.36,-152.63 154.34,-142.51 158.89,-133.29"/>
<polygon fill="#da2d4f" stroke="#da2d4f" stroke-width="2" points="162.12,-134.64 163.4,-124.13 155.84,-131.55 162.12,-134.64"/>
</g>
<!-- node3 -->
<g id="node2" class="node">
<title>node3</title>
<polygon fill="#f9f9f9" stroke="black" points="320.7,-197.1 182.9,-197.1 182.9,-161.1 320.7,-161.1 320.7,-197.1"/>
<text text-anchor="middle" x="251.8" y="-175.95" font-family="Arial" font-size="14.00" fill="#1a1919">3 MethodCallTarget</text>
</g>
<!-- node3&#45;&gt;node4 -->
<g id="edge3" class="edge">
<title>node3&#45;&gt;node4</title>
<path fill="none" stroke="#343d46" stroke-dasharray="5,2" d="M224.69,-154.04C213.62,-144.22 201.08,-133.08 190.99,-124.13"/>
<polygon fill="#343d46" stroke="#343d46" points="222.63,-156.89 232.43,-160.91 227.28,-151.66 222.63,-156.89"/>
</g>
<!-- node6 -->
<g id="node4" class="node">
<title>node6</title>
<polygon fill="#e98693" stroke="black" points="206.5,-36 137.1,-36 137.1,0 206.5,0 206.5,-36"/>
<text text-anchor="middle" x="171.8" y="-14.85" font-family="Arial" font-size="14.00" fill="#1a1919">6 Return</text>
</g>
<!-- node4&#45;&gt;node6 -->
<g id="edge4" class="edge">
<title>node4&#45;&gt;node6</title>
<path fill="none" stroke="#da2d4f" stroke-width="2" d="M170.63,-88.02C170.29,-82.32 169.97,-75.94 169.8,-70.1 169.6,-62.95 169.6,-61.15 169.8,-54 169.87,-51.44 169.98,-48.79 170.1,-46.13"/>
<polygon fill="#da2d4f" stroke="#da2d4f" stroke-width="2" points="173.59,-46.25 170.63,-36.08 166.6,-45.88 173.59,-46.25"/>
</g>
<!-- node4&#45;&gt;node6 -->
<g id="edge5" class="edge">
<title>node4&#45;&gt;node6</title>
<path fill="none" stroke="#3cb4a4" d="M171.8,-88.09C171.8,-76.26 171.8,-60.22 171.8,-46.57"/>
<polygon fill="#3cb4a4" stroke="#3cb4a4" points="175.3,-46.27 171.8,-36.27 168.3,-46.27 175.3,-46.27"/>
<text text-anchor="middle" x="188.92" y="-58.9" font-family="arial" font-size="14.00" fill="#3cb4a4">result</text>
</g>
<!-- inline1x3 -->
<g id="node5" class="node">
<title>inline1x3</title>
<ellipse fill="#d7ede7" stroke="black" cx="251.8" cy="-260.3" rx="27" ry="18"/>
<text text-anchor="middle" x="251.8" y="-258.5" font-family="Arial" font-size="8.00" fill="#1a1919">1 P(0)</text>
</g>
<!-- inline1x3&#45;&gt;node3 -->
<g id="edge2" class="edge">
<title>inline1x3&#45;&gt;node3</title>
<path fill="none" stroke="#3cb4a4" d="M251.8,-242.11C251.8,-228.83 251.8,-210.53 251.8,-197.25"/>
<text text-anchor="middle" x="262.03" y="-217.9" font-family="arial" font-size="8.00" fill="#3cb4a4">arg[0]</text>
</g>
</g>
</svg>
