<?xml version="1.0" encoding="UTF-8" standalone="no"?>
<!DOCTYPE svg PUBLIC "-//W3C//DTD SVG 1.1//EN"
 "http://www.w3.org/Graphics/SVG/1.1/DTD/svg11.dtd">
<!-- Generated by graphviz version 2.43.0 (0)
 -->
<!-- Title: G Pages: 1 -->
<svg width="427pt" height="557pt"
 viewBox="0.00 0.00 426.84 557.49" xmlns="http://www.w3.org/2000/svg" xmlns:xlink="http://www.w3.org/1999/xlink">
<g id="graph0" class="graph" transform="scale(1 1) rotate(0) translate(4 553.49)">
<title>G</title>
' points="-4,4 -4,-553.49 422.84,-553.49 422.84,4 -4,4"/>
<!-- node0 -->
<g id="node1" class="node">
<title>node0</title>
<polygon fill="#e98693" stroke="black" points="208.08,-549.49 150.6,-549.49 150.6,-513.49 208.08,-513.49 208.08,-549.49"/>
<text text-anchor="middle" x="179.34" y="-528.34" font-family="Arial" font-size="14.00" fill="#1a1919">0 Start</text>
</g>
<!-- node7 -->
<g id="node5" class="node">
<title>node7</title>
<polygon fill="#f9f9f9" stroke="black" points="418.85,-461.39 167.84,-461.39 167.84,-425.39 418.85,-425.39 418.85,-461.39"/>
<text text-anchor="middle" x="293.34" y="-440.24" font-family="Arial" font-size="14.00" fill="#1a1919">7 InstanceOf JavaExamples$OneImpl</text>
</g>
<!-- node0&#45;&gt;node7 -->
<g id="edge7" class="edge">
<title>node0&#45;&gt;node7</title>
<path fill="none" stroke="#3cb4a4" d="M201.71,-513.41C214.76,-503.46 231.56,-490.69 246.54,-479.39 251.64,-475.55 257.07,-471.47 262.35,-467.52"/>
<polygon fill="#3cb4a4" stroke="#3cb4a4" points="264.55,-470.24 270.46,-461.45 260.36,-464.63 264.55,-470.24"/>
<text text-anchor="middle" x="268.75" y="-484.29" font-family="arial" font-size="14.00" fill="#3cb4a4">anchor</text>
</g>
<!-- node8 -->
<g id="node6" class="node">
<title>node8</title>
<polygon fill="#ffa500" stroke="black" points="310.53,-373.3 0.16,-373.3 0.16,-337.3 310.53,-337.3 310.53,-373.3"/>
<text text-anchor="middle" x="155.34" y="-352.15" font-family="Arial" font-size="14.00" fill="#1a1919">8 Guard not, else OptimizedTypeCheckViolated</text>
</g>
<!-- node0&#45;&gt;node8 -->
<g id="edge1" class="edge">
<title>node0&#45;&gt;node8</title>
<path fill="none" stroke="#da2d4f" stroke-width="2" d="M172.78,-513.47C167.79,-499.67 161.31,-479.58 158.34,-461.39 154.09,-435.31 153.68,-405.12 154.14,-383.81"/>
<polygon fill="#da2d4f" stroke="#da2d4f" stroke-width="2" points="157.64,-383.64 154.44,-373.54 150.65,-383.43 157.64,-383.64"/>
</g>
<!-- node3 -->
<g id="node2" class="node">
<title>node3</title>
<polygon fill="#f9f9f9" stroke="black" points="321.24,-197.1 183.44,-197.1 183.44,-161.1 321.24,-161.1 321.24,-197.1"/>
<text text-anchor="middle" x="252.34" y="-175.95" font-family="Arial" font-size="14.00" fill="#1a1919">3 MethodCallTarget</text>
</g>
<!-- node4 -->
<g id="node3" class="node">
<title>node4</title>
<polygon fill="#da2d4f" stroke="black" points="311.96,-124.1 22.72,-124.1 22.72,-88.1 311.96,-88.1 311.96,-124.1"/>
<text text-anchor="middle" x="167.34" y="-102.95" font-family="Arial" font-size="14.00" fill="#ffffff">4 Call JavaExamples$OneImpl.interfaceCall</text>
</g>
<!-- node3&#45;&gt;node4 -->
<g id="edge3" class="edge">
<title>node3&#45;&gt;node4</title>
<path fill="none" stroke="#343d46" stroke-dasharray="5,2" d="M223.88,-154.33C212.04,-144.43 198.56,-133.17 187.73,-124.13"/>
<polygon fill="#343d46" stroke="#343d46" points="221.85,-157.19 231.77,-160.91 226.33,-151.81 221.85,-157.19"/>
</g>
<!-- node6 -->
<g id="node4" class="node">
<title>node6</title>
<polygon fill="#e98693" stroke="black" points="202.04,-36 132.64,-36 132.64,0 202.04,0 202.04,-36"/>
<text text-anchor="middle" x="167.34" y="-14.85" font-family="Arial" font-size="14.00" fill="#1a1919">6 Return</text>
</g>
<!-- node4&#45;&gt;node6 -->
<g id="edge4" class="edge">
<title>node4&#45;&gt;node6</title>
<path fill="none" stroke="#da2d4f" stroke-width="2" d="M166.17,-88.02C165.83,-82.32 165.51,-75.94 165.34,-70.1 165.14,-62.95 165.14,-61.15 165.34,-54 165.41,-51.44 165.52,-48.79 165.64,-46.13"/>
<polygon fill="#da2d4f" stroke="#da2d4f" stroke-width="2" points="169.14,-46.25 166.17,-36.08 162.15,-45.88 169.14,-46.25"/>
</g>
<!-- node4&#45;&gt;node6 -->
<g id="edge5" class="edge">
<title>node4&#45;&gt;node6</title>
<path fill="none" stroke="#3cb4a4" d="M167.34,-88.09C167.34,-76.26 167.34,-60.22 167.34,-46.57"/>
<polygon fill="#3cb4a4" stroke="#3cb4a4" points="170.84,-46.27 167.34,-36.27 163.84,-46.27 170.84,-46.27"/>
<text text-anchor="middle" x="184.46" y="-58.9" font-family="arial" font-size="14.00" fill="#3cb4a4">result</text>
</g>
<!-- node7&#45;&gt;node8 -->
<g id="edge8" class="edge">
<title>node7&#45;&gt;node8</title>
<path fill="none" stroke="#3cb4a4" d="M266.08,-425.38C244.76,-412.09 214.94,-393.48 191.61,-378.93"/>
<polygon fill="#3cb4a4" stroke="#3cb4a4" points="193.36,-375.89 183.02,-373.57 189.65,-381.83 193.36,-375.89"/>
<text text-anchor="middle" x="241.23" y="-396.19" font-family="arial" font-size="14.00" fill="#3cb4a4">?</text>
</g>
<!-- node8&#45;&gt;node4 -->
<g id="edge9" class="edge">
<title>node8&#45;&gt;node4</title>
<path fill="none" stroke="#da2d4f" stroke-width="2" d="M156.19,-336.91C158.24,-294.53 163.53,-185.58 166.02,-134.41"/>
<polygon fill="#da2d4f" stroke="#da2d4f" stroke-width="2" points="169.53,-134.29 166.51,-124.13 162.53,-133.95 169.53,-134.29"/>
</g>
<!-- node9 -->
<g id="node7" class="node">
<title>node9</title>
<polygon fill="#f9f9f9" stroke="black" points="279.34,-285.2 225.34,-285.2 225.34,-249.2 279.34,-249.2 279.34,-285.2"/>
<text text-anchor="middle" x="252.34" y="-264.05" font-family="Arial" font-size="14.00" fill="#1a1919">9 π</text>
</g>
<!-- node8&#45;&gt;node9 -->
<g id="edge10" class="edge">
<title>node8&#45;&gt;node9</title>
<path fill="none" stroke="#3cb4a4" d="M174.51,-337.29C189.03,-324.4 209.16,-306.52 225.32,-292.18"/>
<polygon fill="#3cb4a4" stroke="#3cb4a4" points="227.73,-294.72 232.89,-285.47 223.08,-289.49 227.73,-294.72"/>
<text text-anchor="middle" x="231.25" y="-308.1" font-family="arial" font-size="14.00" fill="#3cb4a4">guard</text>
</g>
<!-- node9&#45;&gt;node3 -->
<g id="edge2" class="edge">
<title>node9&#45;&gt;node3</title>
<path fill="none" stroke="#3cb4a4" d="M252.34,-249.19C252.34,-237.35 252.34,-221.32 252.34,-207.67"/>
<polygon fill="#3cb4a4" stroke="#3cb4a4" points="255.84,-207.37 252.34,-197.37 248.84,-207.37 255.84,-207.37"/>
<text text-anchor="middle" x="270.24" y="-220" font-family="arial" font-size="14.00" fill="#3cb4a4">arg[0]</text>
</g>
<!-- inline1x7 -->
<g id="node8" class="node">
<title>inline1x7</title>
<ellipse fill="#d7ede7" stroke="black" cx="293.34" cy="-531.49" rx="27" ry="18"/>
<text text-anchor="middle" x="293.34" y="-529.69" font-family="Arial" font-size="8.00" fill="#1a1919">1 P(0)</text>
</g>
<!-- inline1x7&#45;&gt;node7 -->
<g id="edge6" class="edge">
<title>inline1x7&#45;&gt;node7</title>
<path fill="none" stroke="#3cb4a4" d="M293.34,-513.48C293.34,-498.49 293.34,-476.74 293.34,-461.66"/>
<text text-anchor="middle" x="302.9" y="-485.64" font-family="arial" font-size="8.00" fill="#3cb4a4">value</text>
</g>
<!-- inline1x9 -->
<g id="node9" class="node">
<title>inline1x9</title>
<ellipse fill="#d7ede7" stroke="black" cx="355.34" cy="-355.3" rx="27" ry="18"/>
<text text-anchor="middle" x="355.34" y="-353.5" font-family="Arial" font-size="8.00" fill="#1a1919">1 P(0)</text>
</g>
<!-- inline1x9&#45;&gt;node9 -->
<g id="edge11" class="edge">
<title>inline1x9&#45;&gt;node9</title>
<path fill="none" stroke="#3cb4a4" d="M339.25,-340.84C321.37,-325.9 292.45,-301.73 272.94,-285.41"/>
<text text-anchor="middle" x="324.02" y="-309.45" font-family="arial" font-size="8.00" fill="#3cb4a4">object</text>
</g>
</g>
</svg>
