<?xml version="1.0" encoding="UTF-8" standalone="no"?>
<!DOCTYPE svg PUBLIC "-//W3C//DTD SVG 1.1//EN"
 "http://www.w3.org/Graphics/SVG/1.1/DTD/svg11.dtd">
<!-- Generated by graphviz version 2.44.0 (20200408.0750)
 -->
<!-- Title: G Pages: 1 -->
<svg width="230pt" height="125pt"
 viewBox="0.00 0.00 230.31 125.00" xmlns="http://www.w3.org/2000/svg" xmlns:xlink="http://www.w3.org/1999/xlink">
<g id="graph0" class="graph" transform="scale(1 1) rotate(0) translate(4 121)">
<title>G</title>
<!-- node0 -->
<g id="node1" class="node">
<title>node0</title>
<polygon fill="#e98693" stroke="black" points="56,-117 0,-117 0,-81 56,-81 56,-117"/>
<text text-anchor="middle" x="28" y="-95.3" font-family="Arial" font-size="14.00" fill="#1a1919">0 Start</text>
</g>
<!-- node5 -->
<g id="node2" class="node">
<title>node5</title>
<polygon fill="#da2d4f" stroke="black" points="124.5,-36 51.5,-36 51.5,0 124.5,0 124.5,-36"/>
<text text-anchor="middle" x="88" y="-14.3" font-family="Arial" font-size="14.00" fill="#ffffff">5 Unwind</text>
</g>
<!-- node0&#45;&gt;node5 -->
<g id="edge1" class="edge">
<title>node0&#45;&gt;node5</title>
<path fill="none" stroke="#da2d4f" stroke-width="2" d="M41.02,-80.86C49.12,-70.2 59.68,-56.29 68.73,-44.37"/>
<polygon fill="#da2d4f" stroke="#da2d4f" stroke-width="2" points="71.75,-46.19 75.01,-36.11 66.17,-41.96 71.75,-46.19"/>
</g>
<!-- inline2x5 -->
<g id="node3" class="node">
<title>inline2x5</title>
<ellipse fill="#d7ede7" stroke="black" cx="148" cy="-99" rx="74.11" ry="18"/>
<text text-anchor="middle" x="148" y="-97.1" font-family="Arial" font-size="8.00" fill="#1a1919">2 C(instance:RuntimeException)</text>
</g>
<!-- inline2x5&#45;&gt;node5 -->
<g id="edge2" class="edge">
<title>inline2x5&#45;&gt;node5</title>
<path fill="none" stroke="#3cb4a4" d="M135.28,-81.25C125.16,-67.93 111.08,-49.38 100.91,-36"/>
<text text-anchor="middle" x="136" y="-56.6" font-family="arial" font-size="8.00" fill="#3cb4a4">exception</text>
</g>
</g>
</svg>
