<?xml version="1.0" encoding="UTF-8" standalone="no"?>
<!DOCTYPE svg PUBLIC "-//W3C//DTD SVG 1.1//EN"
 "http://www.w3.org/Graphics/SVG/1.1/DTD/svg11.dtd">
<!-- Generated by graphviz version 2.43.0 (0)
 -->
<!-- Title: G Pages: 1 -->
<svg width="460pt" height="690pt"
 viewBox="0.00 0.00 460.00 689.69" xmlns="http://www.w3.org/2000/svg" xmlns:xlink="http://www.w3.org/1999/xlink">
<g id="graph0" class="graph" transform="scale(1 1) rotate(0) translate(4 685.69)">
<title>G</title>
' points="-4,4 -4,-685.69 456,-685.69 456,4 -4,4"/>
<!-- node0 -->
<g id="node1" class="node">
<title>node0</title>
<polygon fill="#e98693" stroke="black" points="337.74,-681.69 280.26,-681.69 280.26,-645.69 337.74,-645.69 337.74,-681.69"/>
<text text-anchor="middle" x="309" y="-660.54" font-family="Arial" font-size="14.00" fill="#1a1919">0 Start</text>
</g>
<!-- node4 -->
<g id="node2" class="node">
<title>node4</title>
<polygon fill="#e98693" stroke="black" points="336,-608.69 282,-608.69 282,-572.69 336,-572.69 336,-608.69"/>
<text text-anchor="middle" x="309" y="-587.54" font-family="Arial" font-size="14.00" fill="#1a1919">4 End</text>
</g>
<!-- node0&#45;&gt;node4 -->
<g id="edge1" class="edge">
<title>node0&#45;&gt;node4</title>
<path fill="none" stroke="#da2d4f" stroke-width="2" d="M309,-645.51C309,-637.48 309,-627.74 309,-618.76"/>
<polygon fill="#da2d4f" stroke="#da2d4f" stroke-width="2" points="312.5,-618.72 309,-608.72 305.5,-618.72 312.5,-618.72"/>
</g>
<!-- node5 -->
<g id="node3" class="node">
<title>node5</title>
<polygon fill="#e98693" stroke="black" points="356.13,-535.69 261.87,-535.69 261.87,-499.69 356.13,-499.69 356.13,-535.69"/>
<text text-anchor="middle" x="309" y="-514.54" font-family="Arial" font-size="14.00" fill="#1a1919">5 LoopBegin</text>
</g>
<!-- node4&#45;&gt;node5 -->
<g id="edge2" class="edge">
<title>node4&#45;&gt;node5</title>
<path fill="none" stroke="#da2d4f" stroke-width="2" d="M309,-572.51C309,-564.48 309,-554.74 309,-545.76"/>
<polygon fill="#da2d4f" stroke="#da2d4f" stroke-width="2" points="312.5,-545.72 309,-535.72 305.5,-545.72 312.5,-545.72"/>
</g>
<!-- node6 -->
<g id="node4" class="node">
<title>node6</title>
<polygon fill="#f9f9f9" stroke="black" points="173,-454.5 119,-454.5 119,-418.5 173,-418.5 173,-454.5"/>
<text text-anchor="middle" x="146" y="-433.34" font-family="Arial" font-size="14.00" fill="#1a1919">6 ϕ</text>
</g>
<!-- node5&#45;&gt;node6 -->
<g id="edge4" class="edge">
<title>node5&#45;&gt;node6</title>
<path fill="none" stroke="#343d46" stroke-dasharray="5,2" d="M261.64,-495.22C252.12,-490.82 242.22,-486.16 233,-481.69 212.87,-471.95 190.37,-460.5 173.29,-451.7"/>
<polygon fill="#343d46" stroke="#343d46" points="260.43,-498.52 270.98,-499.53 263.37,-492.17 260.43,-498.52"/>
</g>
<!-- node13 -->
<g id="node7" class="node">
<title>node13</title>
<polygon fill="#e98693" stroke="black" points="423.94,-190.2 334.06,-190.2 334.06,-154.2 423.94,-154.2 423.94,-190.2"/>
<text text-anchor="middle" x="379" y="-169.05" font-family="Arial" font-size="14.00" fill="#1a1919">13 LoopExit</text>
</g>
<!-- node5&#45;&gt;node13 -->
<g id="edge10" class="edge">
<title>node5&#45;&gt;node13</title>
<path fill="none" stroke="#343d46" stroke-dasharray="5,2" d="M341.86,-492.73C357.14,-478.65 372,-459.34 372,-437.5 372,-437.5 372,-437.5 372,-259.3 372,-235.3 374.73,-207.67 376.79,-190.32"/>
<polygon fill="#343d46" stroke="#343d46" points="339.18,-490.41 333.9,-499.6 343.75,-495.71 339.18,-490.41"/>
</g>
<!-- node15 -->
<g id="node8" class="node">
<title>node15</title>
<polygon fill="#e98693" stroke="black" points="296,-278.3 242,-278.3 242,-242.3 296,-242.3 296,-278.3"/>
<text text-anchor="middle" x="269" y="-257.15" font-family="Arial" font-size="14.00" fill="#1a1919">15 If</text>
</g>
<!-- node5&#45;&gt;node15 -->
<g id="edge3" class="edge">
<title>node5&#45;&gt;node15</title>
<path fill="none" stroke="#da2d4f" stroke-width="2" d="M292.8,-499.48C282.95,-487.79 271.28,-471.41 266,-454.5 248.27,-397.66 256.56,-326.77 263.32,-288.63"/>
<polygon fill="#da2d4f" stroke="#da2d4f" stroke-width="2" points="266.85,-288.82 265.25,-278.34 259.97,-287.53 266.85,-288.82"/>
</g>
<!-- node20 -->
<g id="node11" class="node">
<title>node20</title>
<polygon fill="#e98693" stroke="black" points="371.52,-36 280.48,-36 280.48,0 371.52,0 371.52,-36"/>
<text text-anchor="middle" x="326" y="-14.85" font-family="Arial" font-size="14.00" fill="#1a1919">20 LoopEnd</text>
</g>
<!-- node5&#45;&gt;node20 -->
<g id="edge19" class="edge">
<title>node5&#45;&gt;node20</title>
<path fill="none" stroke="#da2d4f" stroke-width="4" d="M366.18,-508.19C406,-498.64 452,-478.7 452,-437.5 452,-437.5 452,-437.5 452,-90 452,-51.96 407.87,-34.08 371.85,-25.82"/>
<polygon fill="#da2d4f" stroke="#da2d4f" stroke-width="4" points="365.22,-504.81 356.22,-510.39 366.74,-511.65 365.22,-504.81"/>
</g>
<!-- node10 -->
<g id="node5" class="node">
<title>node10</title>
<polygon fill="#3cb4a4" stroke="black" points="329,-366.4 275,-366.4 275,-330.4 329,-330.4 329,-366.4"/>
<text text-anchor="middle" x="302" y="-345.25" font-family="Arial" font-size="14.00" fill="#1a1919">10 &lt;</text>
</g>
<!-- node6&#45;&gt;node10 -->
<g id="edge7" class="edge">
<title>node6&#45;&gt;node10</title>
<path fill="none" stroke="#3cb4a4" d="M173.17,-420.5C198.93,-406.28 237.79,-384.84 266.09,-369.22"/>
<polygon fill="#3cb4a4" stroke="#3cb4a4" points="267.81,-372.26 274.88,-364.37 264.43,-366.13 267.81,-372.26"/>
<text text-anchor="middle" x="240.5" y="-389.3" font-family="arial" font-size="14.00" fill="#3cb4a4">x</text>
</g>
<!-- node16 -->
<g id="node9" class="node">
<title>node16</title>
<polygon fill="#da2d4f" stroke="black" points="322.72,-109 79.28,-109 79.28,-73 322.72,-73 322.72,-109"/>
<text text-anchor="middle" x="201" y="-87.85" font-family="Arial" font-size="14.00" fill="#ffffff">16 StoreField JavaExamples.intField</text>
</g>
<!-- node6&#45;&gt;node16 -->
<g id="edge15" class="edge">
<title>node6&#45;&gt;node16</title>
<path fill="none" stroke="#3cb4a4" d="M146,-418.34C146,-400.97 146,-373.31 146,-349.4 146,-349.4 146,-349.4 146,-171.2 146,-150.29 159.09,-130.94 172.49,-116.6"/>
<polygon fill="#3cb4a4" stroke="#3cb4a4" points="175.32,-118.72 179.89,-109.17 170.36,-113.78 175.32,-118.72"/>
<text text-anchor="middle" x="162.73" y="-257.15" font-family="arial" font-size="14.00" fill="#3cb4a4">value</text>
</g>
<!-- node19 -->
<g id="node10" class="node">
<title>node19</title>
<polygon fill="#3cb4a4" stroke="black" points="81,-366.4 27,-366.4 27,-330.4 81,-330.4 81,-366.4"/>
<text text-anchor="middle" x="54" y="-345.25" font-family="Arial" font-size="14.00" fill="#1a1919">19 +</text>
</g>
<!-- node6&#45;&gt;node19 -->
<g id="edge17" class="edge">
<title>node6&#45;&gt;node19</title>
<path fill="none" stroke="#3cb4a4" d="M132.65,-418.04C124.36,-407.73 113.19,-394.71 102,-384.4 97.63,-380.37 92.79,-376.37 87.92,-372.61"/>
<polygon fill="#3cb4a4" stroke="#3cb4a4" points="89.87,-369.7 79.77,-366.52 85.69,-375.31 89.87,-369.7"/>
<text text-anchor="middle" x="120.5" y="-389.3" font-family="arial" font-size="14.00" fill="#3cb4a4">x</text>
</g>
<!-- node10&#45;&gt;node15 -->
<g id="edge12" class="edge">
<title>node10&#45;&gt;node15</title>
<path fill="none" stroke="#3cb4a4" d="M295.48,-330.39C290.86,-318.32 284.55,-301.88 279.26,-288.06"/>
<polygon fill="#3cb4a4" stroke="#3cb4a4" points="282.47,-286.65 275.62,-278.57 275.93,-289.16 282.47,-286.65"/>
<text text-anchor="middle" x="291.89" y="-301.2" font-family="arial" font-size="14.00" fill="#3cb4a4">?</text>
</g>
<!-- node11 -->
<g id="node6" class="node">
<title>node11</title>
<polygon fill="#e98693" stroke="black" points="244.23,-190.2 173.77,-190.2 173.77,-154.2 244.23,-154.2 244.23,-190.2"/>
<text text-anchor="middle" x="209" y="-169.05" font-family="Arial" font-size="14.00" fill="#1a1919">11 Begin</text>
</g>
<!-- node11&#45;&gt;node16 -->
<g id="edge9" class="edge">
<title>node11&#45;&gt;node16</title>
<path fill="none" stroke="#da2d4f" stroke-width="2" d="M207.26,-154.01C206.24,-143.84 204.91,-130.73 203.75,-119.19"/>
<polygon fill="#da2d4f" stroke="#da2d4f" stroke-width="2" points="207.22,-118.75 202.73,-109.15 200.26,-119.45 207.22,-118.75"/>
</g>
<!-- node21 -->
<g id="node12" class="node">
<title>node21</title>
<polygon fill="#e98693" stroke="black" points="417.98,-109 340.02,-109 340.02,-73 417.98,-73 417.98,-109"/>
<text text-anchor="middle" x="379" y="-87.85" font-family="Arial" font-size="14.00" fill="#1a1919">21 Return</text>
</g>
<!-- node13&#45;&gt;node21 -->
<g id="edge11" class="edge">
<title>node13&#45;&gt;node21</title>
<path fill="none" stroke="#da2d4f" stroke-width="2" d="M379,-154.01C379,-143.84 379,-130.73 379,-119.19"/>
<polygon fill="#da2d4f" stroke="#da2d4f" stroke-width="2" points="382.5,-119.15 379,-109.15 375.5,-119.15 382.5,-119.15"/>
</g>
<!-- node15&#45;&gt;node11 -->
<g id="edge14" class="edge">
<title>node15&#45;&gt;node11</title>
<path fill="none" stroke="#da2d4f" stroke-width="2" d="M257.15,-242.29C248.49,-229.87 236.61,-212.82 226.82,-198.76"/>
<polygon fill="#da2d4f" stroke="#da2d4f" stroke-width="2" points="229.62,-196.67 221.03,-190.47 223.88,-200.67 229.62,-196.67"/>
<text text-anchor="middle" x="248.28" y="-213.1" font-family="arial" font-size="14.00" fill="#da2d4f">F</text>
</g>
<!-- node15&#45;&gt;node13 -->
<g id="edge13" class="edge">
<title>node15&#45;&gt;node13</title>
<path fill="none" stroke="#da2d4f" stroke-width="2" d="M290.73,-242.29C307.35,-229.28 330.45,-211.2 348.85,-196.8"/>
<polygon fill="#da2d4f" stroke="#da2d4f" stroke-width="2" points="351.22,-199.39 356.94,-190.47 346.9,-193.88 351.22,-199.39"/>
<text text-anchor="middle" x="337.28" y="-213.1" font-family="arial" font-size="14.00" fill="#da2d4f">T</text>
</g>
<!-- node16&#45;&gt;node20 -->
<g id="edge16" class="edge">
<title>node16&#45;&gt;node20</title>
<path fill="none" stroke="#da2d4f" stroke-width="2" d="M230.94,-72.99C247.67,-63.49 268.72,-51.54 286.75,-41.29"/>
<polygon fill="#da2d4f" stroke="#da2d4f" stroke-width="2" points="288.9,-44.1 295.87,-36.11 285.45,-38.01 288.9,-44.1"/>
</g>
<!-- node19&#45;&gt;node6 -->
<g id="edge6" class="edge">
<title>node19&#45;&gt;node6</title>
<path fill="none" stroke="#3cb4a4" d="M49.62,-366.5C47.92,-377.19 47.75,-390.74 54.54,-400.5 66.78,-418.08 89.13,-426.84 108.68,-431.19"/>
<polygon fill="#3cb4a4" stroke="#3cb4a4" points="108.09,-434.64 118.57,-433.09 109.41,-427.77 108.09,-434.64"/>
<text text-anchor="middle" x="78.73" y="-389.3" font-family="arial" font-size="14.00" fill="#3cb4a4">from 20</text>
</g>
<!-- inline1x6 -->
<g id="node13" class="node">
<title>inline1x6</title>
<ellipse fill="#d7ede7" stroke="black" cx="146" cy="-517.69" rx="27" ry="18"/>
<text text-anchor="middle" x="146" y="-515.89" font-family="Arial" font-size="8.00" fill="#1a1919">1 P(0)</text>
</g>
<!-- inline1x6&#45;&gt;node6 -->
<g id="edge5" class="edge">
<title>inline1x6&#45;&gt;node6</title>
<path fill="none" stroke="#3cb4a4" d="M146,-499.51C146,-486.22 146,-467.92 146,-454.65"/>
<text text-anchor="middle" x="157.34" y="-475.29" font-family="arial" font-size="8.00" fill="#3cb4a4">from 4</text>
</g>
<!-- inline9x10 -->
<g id="node14" class="node">
<title>inline9x10</title>
<ellipse fill="#d7ede7" stroke="black" cx="302" cy="-436.5" rx="27" ry="18"/>
<text text-anchor="middle" x="302" y="-434.69" font-family="Arial" font-size="8.00" fill="#1a1919">9 C(1)</text>
</g>
<!-- inline9x10&#45;&gt;node10 -->
<g id="edge8" class="edge">
<title>inline9x10&#45;&gt;node10</title>
<path fill="none" stroke="#3cb4a4" d="M302,-418.48C302,-403.49 302,-381.74 302,-366.67"/>
<text text-anchor="middle" x="304" y="-390.65" font-family="arial" font-size="8.00" fill="#3cb4a4">y</text>
</g>
<!-- inline18x19 -->
<g id="node15" class="node">
<title>inline18x19</title>
<ellipse fill="#d7ede7" stroke="black" cx="27" cy="-436.5" rx="27" ry="18"/>
<text text-anchor="middle" x="27" y="-434.69" font-family="Arial" font-size="8.00" fill="#1a1919">18 C(&#45;1)</text>
</g>
<!-- inline18x19&#45;&gt;node19 -->
<g id="edge18" class="edge">
<title>inline18x19&#45;&gt;node19</title>
<path fill="none" stroke="#3cb4a4" d="M27.23,-418.06C27.81,-407.99 29.31,-395.22 33,-384.4 35.1,-378.23 38.41,-371.97 41.78,-366.49"/>
<text text-anchor="middle" x="35" y="-390.65" font-family="arial" font-size="8.00" fill="#3cb4a4">y</text>
</g>
<!-- inline1x21 -->
<g id="node16" class="node">
<title>inline1x21</title>
<ellipse fill="#d7ede7" stroke="black" cx="289" cy="-172.2" rx="27" ry="18"/>
<text text-anchor="middle" x="289" y="-170.4" font-family="Arial" font-size="8.00" fill="#1a1919">1 P(0)</text>
</g>
<!-- inline1x21&#45;&gt;node21 -->
<g id="edge20" class="edge">
<title>inline1x21&#45;&gt;node21</title>
<path fill="none" stroke="#3cb4a4" d="M304.68,-157.4C319.89,-144.02 343.01,-123.67 359.42,-109.23"/>
<text text-anchor="middle" x="345.78" y="-129.8" font-family="arial" font-size="8.00" fill="#3cb4a4">result</text>
</g>
</g>
</svg>
