<?xml version="1.0" encoding="UTF-8" standalone="no"?>
<!DOCTYPE svg PUBLIC "-//W3C//DTD SVG 1.1//EN"
 "http://www.w3.org/Graphics/SVG/1.1/DTD/svg11.dtd">
<!-- Generated by graphviz version 2.43.0 (0)
 -->
<!-- Title: G Pages: 1 -->
<svg width="232pt" height="125pt"
 viewBox="0.00 0.00 232.02 125.20" xmlns="http://www.w3.org/2000/svg" xmlns:xlink="http://www.w3.org/1999/xlink">
<g id="graph0" class="graph" transform="scale(1 1) rotate(0) translate(4 121.2)">
<title>G</title>
' points="-4,4 -4,-121.2 228.02,-121.2 228.02,4 -4,4"/>
<!-- node0 -->
<g id="node1" class="node">
<title>node0</title>
<polygon fill="#e98693" stroke="black" points="57.36,-117.2 -0.12,-117.2 -0.12,-81.2 57.36,-81.2 57.36,-117.2"/>
<text text-anchor="middle" x="28.62" y="-96.05" font-family="Arial" font-size="14.00" fill="#1a1919">0 Start</text>
</g>
<!-- node5 -->
<g id="node2" class="node">
<title>node5</title>
<polygon fill="#da2d4f" stroke="black" points="125.99,-36 51.25,-36 51.25,0 125.99,0 125.99,-36"/>
<text text-anchor="middle" x="88.62" y="-14.85" font-family="Arial" font-size="14.00" fill="#ffffff">5 Unwind</text>
</g>
<!-- node0&#45;&gt;node5 -->
<g id="edge1" class="edge">
<title>node0&#45;&gt;node5</title>
<path fill="none" stroke="#da2d4f" stroke-width="2" d="M41.64,-81.01C49.74,-70.32 60.3,-56.39 69.35,-44.43"/>
<polygon fill="#da2d4f" stroke="#da2d4f" stroke-width="2" points="72.38,-46.24 75.63,-36.15 66.8,-42.01 72.38,-46.24"/>
</g>
<!-- inline2x5 -->
<g id="node3" class="node">
<title>inline2x5</title>
<ellipse fill="#d7ede7" stroke="black" cx="149.62" cy="-99.2" rx="74.3" ry="18"/>
<text text-anchor="middle" x="149.62" y="-97.4" font-family="Arial" font-size="8.00" fill="#1a1919">2 C(instance:RuntimeException)</text>
</g>
<!-- inline2x5&#45;&gt;node5 -->
<g id="edge2" class="edge">
<title>inline2x5&#45;&gt;node5</title>
<path fill="none" stroke="#3cb4a4" d="M136.68,-81.4C126.4,-68.05 112.08,-49.46 101.75,-36.04"/>
<text text-anchor="middle" x="137.74" y="-56.8" font-family="arial" font-size="8.00" fill="#3cb4a4">exception</text>
</g>
</g>
</svg>
