<?xml version="1.0" encoding="UTF-8" standalone="no"?>
<!DOCTYPE svg PUBLIC "-//W3C//DTD SVG 1.1//EN"
 "http://www.w3.org/Graphics/SVG/1.1/DTD/svg11.dtd">
<!-- Generated by graphviz version 2.43.0 (0)
 -->
<!-- Title: G Pages: 1 -->
<svg width="393pt" height="376pt"
 viewBox="0.00 0.00 392.62 375.70" xmlns="http://www.w3.org/2000/svg" xmlns:xlink="http://www.w3.org/1999/xlink">
<g id="graph0" class="graph" transform="scale(1 1) rotate(0) translate(4 371.7)">
<title>G</title>
' points="-4,4 -4,-371.7 388.62,-371.7 388.62,4 -4,4"/>
<!-- node0 -->
<g id="node1" class="node">
<title>node0</title>
<polygon fill="#e98693" stroke="black" points="127.37,-286.5 69.88,-286.5 69.88,-250.5 127.37,-250.5 127.37,-286.5"/>
<text text-anchor="middle" x="98.62" y="-265.35" font-family="Arial" font-size="14.00" fill="#1a1919">0 Start</text>
</g>
<!-- node7 -->
<g id="node3" class="node">
<title>node7</title>
<polygon fill="#ffa500" stroke="black" points="229.37,-198.4 -0.12,-198.4 -0.12,-162.4 229.37,-162.4 229.37,-198.4"/>
<text text-anchor="middle" x="114.62" y="-177.25" font-family="Arial" font-size="14.00" fill="#1a1919">7 Guard not, else UnreachedCode</text>
</g>
<!-- node0&#45;&gt;node7 -->
<g id="edge1" class="edge">
<title>node0&#45;&gt;node7</title>
<path fill="none" stroke="#da2d4f" stroke-width="2" d="M101.78,-250.49C104.01,-238.54 107.02,-222.3 109.57,-208.57"/>
<polygon fill="#da2d4f" stroke="#da2d4f" stroke-width="2" points="113.03,-209.14 111.41,-198.67 106.15,-207.86 113.03,-209.14"/>
</g>
<!-- node6 -->
<g id="node2" class="node">
<title>node6</title>
<polygon fill="#3cb4a4" stroke="black" points="199.62,-286.5 145.62,-286.5 145.62,-250.5 199.62,-250.5 199.62,-286.5"/>
<text text-anchor="middle" x="172.62" y="-265.35" font-family="Arial" font-size="14.00" fill="#1a1919">6 ==</text>
</g>
<!-- node6&#45;&gt;node7 -->
<g id="edge4" class="edge">
<title>node6&#45;&gt;node7</title>
<path fill="none" stroke="#3cb4a4" d="M161.16,-250.49C152.8,-238.07 141.31,-221.02 131.85,-206.96"/>
<polygon fill="#3cb4a4" stroke="#3cb4a4" points="134.75,-205.01 126.26,-198.67 128.94,-208.92 134.75,-205.01"/>
<text text-anchor="middle" x="153.52" y="-221.3" font-family="arial" font-size="14.00" fill="#3cb4a4">?</text>
</g>
<!-- node8 -->
<g id="node4" class="node">
<title>node8</title>
<polygon fill="#da2d4f" stroke="black" points="312.56,-117.2 76.69,-117.2 76.69,-81.2 312.56,-81.2 312.56,-117.2"/>
<text text-anchor="middle" x="194.62" y="-96.05" font-family="Arial" font-size="14.00" fill="#ffffff">8 StoreField JavaExamples.intField</text>
</g>
<!-- node7&#45;&gt;node8 -->
<g id="edge5" class="edge">
<title>node7&#45;&gt;node8</title>
<path fill="none" stroke="#da2d4f" stroke-width="2" d="M131.98,-162.21C143.09,-151.21 157.68,-136.77 169.99,-124.59"/>
<polygon fill="#da2d4f" stroke="#da2d4f" stroke-width="2" points="172.65,-126.87 177.3,-117.35 167.73,-121.9 172.65,-126.87"/>
</g>
<!-- node10 -->
<g id="node5" class="node">
<title>node10</title>
<polygon fill="#e98693" stroke="black" points="314.61,-36 236.64,-36 236.64,0 314.61,0 314.61,-36"/>
<text text-anchor="middle" x="275.62" y="-14.85" font-family="Arial" font-size="14.00" fill="#1a1919">10 Return</text>
</g>
<!-- node8&#45;&gt;node10 -->
<g id="edge7" class="edge">
<title>node8&#45;&gt;node10</title>
<path fill="none" stroke="#da2d4f" stroke-width="2" d="M212.2,-81.01C223.45,-70.01 238.22,-55.57 250.68,-43.39"/>
<polygon fill="#da2d4f" stroke="#da2d4f" stroke-width="2" points="253.38,-45.65 258.08,-36.15 248.49,-40.64 253.38,-45.65"/>
</g>
<!-- inline1x6 -->
<g id="node6" class="node">
<title>inline1x6</title>
<ellipse fill="#d7ede7" stroke="black" cx="136.62" cy="-349.7" rx="27" ry="18"/>
<text text-anchor="middle" x="136.62" y="-347.9" font-family="Arial" font-size="8.00" fill="#1a1919">1 P(0)</text>
</g>
<!-- inline1x6&#45;&gt;node6 -->
<g id="edge2" class="edge">
<title>inline1x6&#45;&gt;node6</title>
<path fill="none" stroke="#3cb4a4" d="M144.08,-332.29C150.14,-318.97 158.65,-300.24 164.8,-286.71"/>
<text text-anchor="middle" x="158.62" y="-307.3" font-family="arial" font-size="8.00" fill="#3cb4a4">x</text>
</g>
<!-- inline5x6 -->
<g id="node7" class="node">
<title>inline5x6</title>
<ellipse fill="#d7ede7" stroke="black" cx="208.62" cy="-349.7" rx="27" ry="18"/>
<text text-anchor="middle" x="208.62" y="-347.9" font-family="Arial" font-size="8.00" fill="#1a1919">5 C(0)</text>
</g>
<!-- inline5x6&#45;&gt;node6 -->
<g id="edge3" class="edge">
<title>inline5x6&#45;&gt;node6</title>
<path fill="none" stroke="#3cb4a4" d="M201.16,-332.29C195.11,-318.97 186.6,-300.24 180.45,-286.71"/>
<text text-anchor="middle" x="193.62" y="-307.3" font-family="arial" font-size="8.00" fill="#3cb4a4">y</text>
</g>
<!-- inline3x8 -->
<g id="node8" class="node">
<title>inline3x8</title>
<ellipse fill="#d7ede7" stroke="black" cx="274.62" cy="-180.4" rx="27" ry="18"/>
<text text-anchor="middle" x="274.62" y="-178.6" font-family="Arial" font-size="8.00" fill="#1a1919">3 P(2)</text>
</g>
<!-- inline3x8&#45;&gt;node8 -->
<g id="edge6" class="edge">
<title>inline3x8&#45;&gt;node8</title>
<path fill="none" stroke="#3cb4a4" d="M259.95,-164.87C246.42,-151.48 226.32,-131.57 211.99,-117.39"/>
<text text-anchor="middle" x="246.19" y="-138" font-family="arial" font-size="8.00" fill="#3cb4a4">value</text>
</g>
<!-- inline3x10 -->
<g id="node9" class="node">
<title>inline3x10</title>
<ellipse fill="#d7ede7" stroke="black" cx="357.62" cy="-99.2" rx="27" ry="18"/>
<text text-anchor="middle" x="357.62" y="-97.4" font-family="Arial" font-size="8.00" fill="#1a1919">3 P(2)</text>
</g>
<!-- inline3x10&#45;&gt;node10 -->
<g id="edge8" class="edge">
<title>inline3x10&#45;&gt;node10</title>
<path fill="none" stroke="#3cb4a4" d="M342.96,-84.04C329.05,-70.6 308.12,-50.39 293.29,-36.07"/>
<text text-anchor="middle" x="328.4" y="-56.8" font-family="arial" font-size="8.00" fill="#3cb4a4">result</text>
</g>
</g>
</svg>
