<?xml version="1.0" encoding="UTF-8" standalone="no"?>
<!DOCTYPE svg PUBLIC "-//W3C//DTD SVG 1.1//EN"
 "http://www.w3.org/Graphics/SVG/1.1/DTD/svg11.dtd">
<!-- Generated by graphviz version 2.43.0 (0)
 -->
<!-- Title: G Pages: 1 -->
<svg width="138pt" height="125pt"
 viewBox="0.00 0.00 137.62 125.20" xmlns="http://www.w3.org/2000/svg" xmlns:xlink="http://www.w3.org/1999/xlink">
<g id="graph0" class="graph" transform="scale(1 1) rotate(0) translate(4 121.2)">
<title>G</title>
' points="-4,4 -4,-121.2 133.62,-121.2 133.62,4 -4,4"/>
<!-- node0 -->
<g id="node1" class="node">
<title>node0</title>
<polygon fill="#e98693" stroke="black" points="57.36,-117.2 -0.12,-117.2 -0.12,-81.2 57.36,-81.2 57.36,-117.2"/>
<text text-anchor="middle" x="28.62" y="-96.05" font-family="Arial" font-size="14.00" fill="#1a1919">0 Start</text>
</g>
<!-- node9 -->
<g id="node2" class="node">
<title>node9</title>
<polygon fill="#e98693" stroke="black" points="100.32,-36 30.92,-36 30.92,0 100.32,0 100.32,-36"/>
<text text-anchor="middle" x="65.62" y="-14.85" font-family="Arial" font-size="14.00" fill="#1a1919">9 Return</text>
</g>
<!-- node0&#45;&gt;node9 -->
<g id="edge1" class="edge">
<title>node0&#45;&gt;node9</title>
<path fill="none" stroke="#da2d4f" stroke-width="2" d="M36.65,-81.01C41.5,-70.64 47.78,-57.19 53.25,-45.48"/>
<polygon fill="#da2d4f" stroke="#da2d4f" stroke-width="2" points="56.55,-46.69 57.61,-36.15 50.2,-43.73 56.55,-46.69"/>
</g>
<!-- inline1x9 -->
<g id="node3" class="node">
<title>inline1x9</title>
<ellipse fill="#d7ede7" stroke="black" cx="102.62" cy="-99.2" rx="27" ry="18"/>
<text text-anchor="middle" x="102.62" y="-97.4" font-family="Arial" font-size="8.00" fill="#1a1919">1 P(0)</text>
</g>
<!-- inline1x9&#45;&gt;node9 -->
<g id="edge2" class="edge">
<title>inline1x9&#45;&gt;node9</title>
<path fill="none" stroke="#3cb4a4" d="M94.95,-81.79C88.73,-68.47 79.98,-49.74 73.66,-36.21"/>
<text text-anchor="middle" x="94.4" y="-56.8" font-family="arial" font-size="8.00" fill="#3cb4a4">result</text>
</g>
</g>
</svg>
