<?xml version="1.0" encoding="UTF-8" standalone="no"?>
<!DOCTYPE svg PUBLIC "-//W3C//DTD SVG 1.1//EN"
 "http://www.w3.org/Graphics/SVG/1.1/DTD/svg11.dtd">
<!-- Generated by graphviz version 2.44.0 (20200408.0750)
 -->
<!-- Title: G Pages: 1 -->
<svg width="554pt" height="795pt"
 viewBox="0.00 0.00 554.12 795.00" xmlns="http://www.w3.org/2000/svg" xmlns:xlink="http://www.w3.org/1999/xlink">
<g id="graph0" class="graph" transform="scale(1 1) rotate(0) translate(4 791)">
<title>G</title>
<!-- node0 -->
<g id="node1" class="node">
<title>node0</title>
<polygon fill="#e98693" stroke="black" points="218.5,-706 162.5,-706 162.5,-670 218.5,-670 218.5,-706"/>
<text text-anchor="middle" x="190.5" y="-684.3" font-family="Arial" font-size="14.00" fill="#1a1919">0 Start</text>
</g>
<!-- node20 -->
<g id="node6" class="node">
<title>node20</title>
<polygon fill="#ffa500" stroke="black" points="485,-619 232,-619 232,-583 485,-583 485,-619"/>
<text text-anchor="middle" x="358.5" y="-597.3" font-family="Arial" font-size="14.00" fill="#1a1919">20 Guard not, else NullCheckException</text>
</g>
<!-- node0&#45;&gt;node20 -->
<g id="edge6" class="edge">
<title>node0&#45;&gt;node20</title>
<path fill="none" stroke="#3cb4a4" d="M218.62,-672.77C245.12,-659.37 285.19,-639.09 315.66,-623.68"/>
<polygon fill="#3cb4a4" stroke="#3cb4a4" points="317.44,-626.7 324.78,-619.06 314.28,-620.45 317.44,-626.7"/>
<text text-anchor="middle" x="306.5" y="-640.8" font-family="arial" font-size="14.00" fill="#3cb4a4">anchor</text>
</g>
<!-- node23 -->
<g id="node9" class="node">
<title>node23</title>
<polygon fill="#da2d4f" stroke="black" points="218.5,-358 78.5,-358 78.5,-322 218.5,-322 218.5,-358"/>
<text text-anchor="middle" x="148.5" y="-336.3" font-family="Arial" font-size="14.00" fill="#ffffff">23 RawMonitorEnter</text>
</g>
<!-- node0&#45;&gt;node23 -->
<g id="edge1" class="edge">
<title>node0&#45;&gt;node23</title>
<path fill="none" stroke="#da2d4f" stroke-width="2" d="M169.2,-669.83C152.3,-654.15 131.5,-629.3 131.5,-602 131.5,-602 131.5,-602 131.5,-426 131.5,-406.37 135.91,-384.68 140.24,-368.12"/>
<polygon fill="#da2d4f" stroke="#da2d4f" stroke-width="2" points="143.73,-368.63 143.03,-358.06 136.99,-366.76 143.73,-368.63"/>
</g>
<!-- node4 -->
<g id="node2" class="node">
<title>node4</title>
<polygon fill="#f9f9f9" stroke="black" points="85,-445 0,-445 0,-409 85,-409 85,-445"/>
<text text-anchor="middle" x="42.5" y="-423.3" font-family="Arial" font-size="14.00" fill="#1a1919">4 MonitorId</text>
</g>
<!-- node16 -->
<g id="node3" class="node">
<title>node16</title>
<polygon fill="#da2d4f" stroke="black" points="362.5,-109 258.5,-109 258.5,-73 362.5,-73 362.5,-109"/>
<text text-anchor="middle" x="310.5" y="-87.3" font-family="Arial" font-size="14.00" fill="#ffffff">16 MonitorExit</text>
</g>
<!-- node4&#45;&gt;node16 -->
<g id="edge3" class="edge">
<title>node4&#45;&gt;node16</title>
<path fill="none" stroke="#3cb4a4" d="M37.03,-408.94C32.06,-391.92 25.5,-364.93 25.5,-341 25.5,-341 25.5,-341 25.5,-171 25.5,-125.16 164.14,-104.83 248.03,-96.73"/>
<polygon fill="#3cb4a4" stroke="#3cb4a4" points="248.59,-100.19 258.23,-95.78 247.94,-93.22 248.59,-100.19"/>
<text text-anchor="middle" x="54.5" y="-249.3" font-family="arial" font-size="14.00" fill="#3cb4a4">monitorId</text>
</g>
<!-- node4&#45;&gt;node23 -->
<g id="edge12" class="edge">
<title>node4&#45;&gt;node23</title>
<path fill="none" stroke="#3cb4a4" d="M44.62,-408.81C46.76,-398.17 51.02,-384.89 59.5,-376 64.27,-371 69.85,-366.69 75.84,-363"/>
<polygon fill="#3cb4a4" stroke="#3cb4a4" points="77.82,-365.91 84.87,-358 74.43,-359.78 77.82,-365.91"/>
<text text-anchor="middle" x="88.5" y="-379.8" font-family="arial" font-size="14.00" fill="#3cb4a4">monitorId</text>
</g>
<!-- node18 -->
<g id="node4" class="node">
<title>node18</title>
<polygon fill="#e98693" stroke="black" points="348.5,-36 272.5,-36 272.5,0 348.5,0 348.5,-36"/>
<text text-anchor="middle" x="310.5" y="-14.3" font-family="Arial" font-size="14.00" fill="#1a1919">18 Return</text>
</g>
<!-- node16&#45;&gt;node18 -->
<g id="edge4" class="edge">
<title>node16&#45;&gt;node18</title>
<path fill="none" stroke="#da2d4f" stroke-width="2" d="M310.5,-72.81C310.5,-64.79 310.5,-55.05 310.5,-46.07"/>
<polygon fill="#da2d4f" stroke="#da2d4f" stroke-width="2" points="314,-46.03 310.5,-36.03 307,-46.03 314,-46.03"/>
</g>
<!-- node19 -->
<g id="node5" class="node">
<title>node19</title>
<polygon fill="#3cb4a4" stroke="black" points="358.5,-706 295.16,-688 358.5,-670 421.84,-688 358.5,-706"/>
<text text-anchor="middle" x="358.5" y="-684.3" font-family="Arial" font-size="14.00" fill="#1a1919">19 IsNull</text>
</g>
<!-- node19&#45;&gt;node20 -->
<g id="edge7" class="edge">
<title>node19&#45;&gt;node20</title>
<path fill="none" stroke="#3cb4a4" d="M358.5,-669.8C358.5,-658.16 358.5,-642.55 358.5,-629.24"/>
<polygon fill="#3cb4a4" stroke="#3cb4a4" points="362,-629.18 358.5,-619.18 355,-629.18 362,-629.18"/>
<text text-anchor="middle" x="362.5" y="-640.8" font-family="arial" font-size="14.00" fill="#3cb4a4">?</text>
</g>
<!-- node21 -->
<g id="node7" class="node">
<title>node21</title>
<polygon fill="#f9f9f9" stroke="black" points="260.5,-532 206.5,-532 206.5,-496 260.5,-496 260.5,-532"/>
<text text-anchor="middle" x="233.5" y="-510.3" font-family="Arial" font-size="14.00" fill="#1a1919">21 π</text>
</g>
<!-- node20&#45;&gt;node21 -->
<g id="edge8" class="edge">
<title>node20&#45;&gt;node21</title>
<path fill="none" stroke="#3cb4a4" d="M333.2,-582.8C314.23,-569.9 288.06,-552.1 267.29,-537.98"/>
<polygon fill="#3cb4a4" stroke="#3cb4a4" points="269,-534.9 258.76,-532.18 265.06,-540.69 269,-534.9"/>
<text text-anchor="middle" x="321" y="-553.8" font-family="arial" font-size="14.00" fill="#3cb4a4">guard</text>
</g>
<!-- node22 -->
<g id="node8" class="node">
<title>node22</title>
<polygon fill="#f9f9f9" stroke="black" points="249.5,-445 159.5,-445 159.5,-409 249.5,-409 249.5,-445"/>
<text text-anchor="middle" x="204.5" y="-423.3" font-family="Arial" font-size="14.00" fill="#1a1919">22 LoadHub</text>
</g>
<!-- node21&#45;&gt;node22 -->
<g id="edge10" class="edge">
<title>node21&#45;&gt;node22</title>
<path fill="none" stroke="#3cb4a4" d="M227.63,-495.8C223.62,-484.05 218.23,-468.24 213.66,-454.84"/>
<polygon fill="#3cb4a4" stroke="#3cb4a4" points="216.9,-453.51 210.36,-445.18 210.28,-455.77 216.9,-453.51"/>
<text text-anchor="middle" x="238" y="-466.8" font-family="arial" font-size="14.00" fill="#3cb4a4">value</text>
</g>
<!-- node21&#45;&gt;node23 -->
<g id="edge11" class="edge">
<title>node21&#45;&gt;node23</title>
<path fill="none" stroke="#3cb4a4" d="M249.08,-495.65C252.91,-490.35 256.49,-484.26 258.5,-478 267.86,-448.8 273.16,-435.94 258.5,-409 247.24,-388.3 226.72,-373.14 206.43,-362.46"/>
<polygon fill="#3cb4a4" stroke="#3cb4a4" points="207.98,-359.32 197.46,-358.01 204.86,-365.59 207.98,-359.32"/>
<text text-anchor="middle" x="287" y="-423.3" font-family="arial" font-size="14.00" fill="#3cb4a4">object</text>
</g>
<!-- node22&#45;&gt;node23 -->
<g id="edge13" class="edge">
<title>node22&#45;&gt;node23</title>
<path fill="none" stroke="#3cb4a4" d="M193.17,-408.8C185.2,-396.7 174.39,-380.3 165.41,-366.67"/>
<polygon fill="#3cb4a4" stroke="#3cb4a4" points="168.24,-364.6 159.82,-358.18 162.39,-368.45 168.24,-364.6"/>
<text text-anchor="middle" x="192" y="-379.8" font-family="arial" font-size="14.00" fill="#3cb4a4">hub</text>
</g>
<!-- node27 -->
<g id="node11" class="node">
<title>node27</title>
<polygon fill="#da2d4f" stroke="black" points="311.5,-271 101.5,-271 101.5,-235 311.5,-235 311.5,-271"/>
<text text-anchor="middle" x="206.5" y="-249.3" font-family="Arial" font-size="14.00" fill="#ffffff">27 Write#JavaExamples.intField</text>
</g>
<!-- node23&#45;&gt;node27 -->
<g id="edge14" class="edge">
<title>node23&#45;&gt;node27</title>
<path fill="none" stroke="#da2d4f" stroke-width="2" d="M160.24,-321.8C168.49,-309.7 179.68,-293.3 188.99,-279.67"/>
<polygon fill="#da2d4f" stroke="#da2d4f" stroke-width="2" points="192.03,-281.41 194.78,-271.18 186.25,-277.46 192.03,-281.41"/>
</g>
<!-- node26 -->
<g id="node10" class="node">
<title>node26</title>
<polygon fill="#f9f9f9" stroke="black" points="468.5,-358 346.5,-358 346.5,-322 468.5,-322 468.5,-358"/>
<text text-anchor="middle" x="407.5" y="-336.3" font-family="Arial" font-size="14.00" fill="#1a1919">26 OffsetAddress</text>
</g>
<!-- node26&#45;&gt;node27 -->
<g id="edge17" class="edge">
<title>node26&#45;&gt;node27</title>
<path fill="none" stroke="#3cb4a4" d="M366.82,-321.8C334.84,-308.27 290.16,-289.38 256.08,-274.97"/>
<polygon fill="#3cb4a4" stroke="#3cb4a4" points="257.34,-271.7 246.77,-271.03 254.62,-278.15 257.34,-271.7"/>
<text text-anchor="middle" x="344" y="-292.8" font-family="arial" font-size="14.00" fill="#3cb4a4">address</text>
</g>
<!-- node29 -->
<g id="node12" class="node">
<title>node29</title>
<polygon fill="#da2d4f" stroke="black" points="415.5,-190 205.5,-190 205.5,-154 415.5,-154 415.5,-190"/>
<text text-anchor="middle" x="310.5" y="-168.3" font-family="Arial" font-size="14.00" fill="#ffffff">29 Write#JavaExamples.intField</text>
</g>
<!-- node26&#45;&gt;node29 -->
<g id="edge20" class="edge">
<title>node26&#45;&gt;node29</title>
<path fill="none" stroke="#3cb4a4" d="M408.75,-321.92C409.54,-300.24 408.22,-262.37 392.5,-235 383.28,-218.96 368.09,-205.74 353.26,-195.69"/>
<polygon fill="#3cb4a4" stroke="#3cb4a4" points="354.93,-192.61 344.63,-190.15 351.15,-198.5 354.93,-192.61"/>
<text text-anchor="middle" x="429" y="-249.3" font-family="arial" font-size="14.00" fill="#3cb4a4">address</text>
</g>
<!-- node27&#45;&gt;node29 -->
<g id="edge19" class="edge">
<title>node27&#45;&gt;node29</title>
<path fill="none" stroke="#da2d4f" stroke-width="2" d="M229.07,-234.86C243.92,-223.57 263.55,-208.66 279.82,-196.3"/>
<polygon fill="#da2d4f" stroke="#da2d4f" stroke-width="2" points="282.13,-198.94 287.98,-190.11 277.9,-193.37 282.13,-198.94"/>
</g>
<!-- node29&#45;&gt;node16 -->
<g id="edge22" class="edge">
<title>node29&#45;&gt;node16</title>
<path fill="none" stroke="#da2d4f" stroke-width="2" d="M310.5,-153.86C310.5,-143.71 310.5,-130.63 310.5,-119.12"/>
<polygon fill="#da2d4f" stroke="#da2d4f" stroke-width="2" points="314,-119.11 310.5,-109.11 307,-119.11 314,-119.11"/>
</g>
<!-- inline1x16 -->
<g id="node13" class="node">
<title>inline1x16</title>
<ellipse fill="#d7ede7" stroke="black" cx="460.5" cy="-172" rx="27" ry="18"/>
<text text-anchor="middle" x="460.5" y="-170.1" font-family="Arial" font-size="8.00" fill="#1a1919">1 P(0)</text>
</g>
<!-- inline1x16&#45;&gt;node16 -->
<g id="edge2" class="edge">
<title>inline1x16&#45;&gt;node16</title>
<path fill="none" stroke="#3cb4a4" d="M439.96,-160.18C414.92,-147 372.33,-124.56 342.87,-109.05"/>
<text text-anchor="middle" x="400.5" y="-129.6" font-family="arial" font-size="8.00" fill="#3cb4a4">object</text>
</g>
<!-- inline1x19 -->
<g id="node14" class="node">
<title>inline1x19</title>
<ellipse fill="#d7ede7" stroke="black" cx="358.5" cy="-769" rx="27" ry="18"/>
<text text-anchor="middle" x="358.5" y="-767.1" font-family="Arial" font-size="8.00" fill="#1a1919">1 P(0)</text>
</g>
<!-- inline1x19&#45;&gt;node19 -->
<g id="edge5" class="edge">
<title>inline1x19&#45;&gt;node19</title>
<path fill="none" stroke="#3cb4a4" d="M358.5,-750.86C358.5,-737.61 358.5,-719.35 358.5,-706.11"/>
<text text-anchor="middle" x="368" y="-726.6" font-family="arial" font-size="8.00" fill="#3cb4a4">value</text>
</g>
<!-- inline1x21 -->
<g id="node15" class="node">
<title>inline1x21</title>
<ellipse fill="#d7ede7" stroke="black" cx="186.5" cy="-601" rx="27" ry="18"/>
<text text-anchor="middle" x="186.5" y="-599.1" font-family="Arial" font-size="8.00" fill="#1a1919">1 P(0)</text>
</g>
<!-- inline1x21&#45;&gt;node21 -->
<g id="edge9" class="edge">
<title>inline1x21&#45;&gt;node21</title>
<path fill="none" stroke="#3cb4a4" d="M195.56,-583.61C203.72,-568.85 215.68,-547.22 223.98,-532.21"/>
<text text-anchor="middle" x="224.5" y="-555.6" font-family="arial" font-size="8.00" fill="#3cb4a4">object</text>
</g>
<!-- inline24x26 -->
<g id="node16" class="node">
<title>inline24x26</title>
<ellipse fill="#d7ede7" stroke="black" cx="494.5" cy="-427" rx="51.74" ry="18"/>
<text text-anchor="middle" x="494.5" y="-425.1" font-family="Arial" font-size="8.00" fill="#1a1919">24 C(instance:Class)</text>
</g>
<!-- inline24x26&#45;&gt;node26 -->
<g id="edge15" class="edge">
<title>inline24x26&#45;&gt;node26</title>
<path fill="none" stroke="#3cb4a4" d="M477.73,-409.61C462.62,-394.85 440.48,-373.22 425.12,-358.21"/>
<text text-anchor="middle" x="464.5" y="-381.6" font-family="arial" font-size="8.00" fill="#3cb4a4">base</text>
</g>
<!-- inline25x26 -->
<g id="node17" class="node">
<title>inline25x26</title>
<ellipse fill="#d7ede7" stroke="black" cx="394.5" cy="-427" rx="30.13" ry="18"/>
<text text-anchor="middle" x="394.5" y="-425.1" font-family="Arial" font-size="8.00" fill="#1a1919">25 C(128)</text>
</g>
<!-- inline25x26&#45;&gt;node26 -->
<g id="edge16" class="edge">
<title>inline25x26&#45;&gt;node26</title>
<path fill="none" stroke="#3cb4a4" d="M397.13,-408.8C399.39,-394.05 402.62,-372.92 404.87,-358.18"/>
<text text-anchor="middle" x="411.5" y="-381.6" font-family="arial" font-size="8.00" fill="#3cb4a4">offset</text>
</g>
<!-- inline2x27 -->
<g id="node18" class="node">
<title>inline2x27</title>
<ellipse fill="#d7ede7" stroke="black" cx="263.5" cy="-340" rx="27" ry="18"/>
<text text-anchor="middle" x="263.5" y="-338.1" font-family="Arial" font-size="8.00" fill="#1a1919">2 P(1)</text>
</g>
<!-- inline2x27&#45;&gt;node27 -->
<g id="edge18" class="edge">
<title>inline2x27&#45;&gt;node27</title>
<path fill="none" stroke="#3cb4a4" d="M252.78,-323.01C242.85,-308.2 228.12,-286.23 217.96,-271.08"/>
<text text-anchor="middle" x="248" y="-294.6" font-family="arial" font-size="8.00" fill="#3cb4a4">value</text>
</g>
<!-- inline2x29 -->
<g id="node19" class="node">
<title>inline2x29</title>
<ellipse fill="#d7ede7" stroke="black" cx="356.5" cy="-253" rx="27" ry="18"/>
<text text-anchor="middle" x="356.5" y="-251.1" font-family="Arial" font-size="8.00" fill="#1a1919">2 P(1)</text>
</g>
<!-- inline2x29&#45;&gt;node29 -->
<g id="edge21" class="edge">
<title>inline2x29&#45;&gt;node29</title>
<path fill="none" stroke="#3cb4a4" d="M347.19,-236.01C339.42,-222.67 328.37,-203.69 320.43,-190.06"/>
<text text-anchor="middle" x="345" y="-210.6" font-family="arial" font-size="8.00" fill="#3cb4a4">value</text>
</g>
</g>
</svg>
