<?xml version="1.0" encoding="UTF-8" standalone="no"?>
<!DOCTYPE svg PUBLIC "-//W3C//DTD SVG 1.1//EN"
 "http://www.w3.org/Graphics/SVG/1.1/DTD/svg11.dtd">
<!-- Generated by graphviz version 2.44.0 (20200408.0750)
 -->
<!-- Title: G Pages: 1 -->
<svg width="442pt" height="386pt"
 viewBox="0.00 0.00 442.00 386.00" xmlns="http://www.w3.org/2000/svg" xmlns:xlink="http://www.w3.org/1999/xlink">
<g id="graph0" class="graph" transform="scale(1 1) rotate(0) translate(4 382)">
<title>G</title>
<!-- node0 -->
<g id="node1" class="node">
<title>node0</title>
<polygon fill="#e98693" stroke="black" points="56,-210 0,-210 0,-174 56,-174 56,-210"/>
<text text-anchor="middle" x="28" y="-188.3" font-family="Arial" font-size="14.00" fill="#1a1919">0 Start</text>
</g>
<!-- node6 -->
<g id="node4" class="node">
<title>node6</title>
<polygon fill="#da2d4f" stroke="black" points="240.5,-123 25.5,-123 25.5,-87 240.5,-87 240.5,-123"/>
<text text-anchor="middle" x="133" y="-101.3" font-family="Arial" font-size="14.00" fill="#ffffff">6 Call JavaExamples.opaqueCall</text>
</g>
<!-- node0&#45;&gt;node6 -->
<g id="edge1" class="edge">
<title>node0&#45;&gt;node6</title>
<path fill="none" stroke="#da2d4f" stroke-width="2" d="M49.25,-173.8C64.9,-161.13 86.39,-143.73 103.68,-129.74"/>
<polygon fill="#da2d4f" stroke="#da2d4f" stroke-width="2" points="106.21,-132.19 111.78,-123.18 101.81,-126.75 106.21,-132.19"/>
</g>
<!-- node4 -->
<g id="node2" class="node">
<title>node4</title>
<polygon fill="#3cb4a4" stroke="black" points="371,-297 337.82,-279 371,-261 404.18,-279 371,-297"/>
<text text-anchor="middle" x="371" y="-275.3" font-family="Arial" font-size="14.00" fill="#1a1919">4 +</text>
</g>
<!-- node10 -->
<g id="node5" class="node">
<title>node10</title>
<polygon fill="#3cb4a4" stroke="black" points="290,-210 242.41,-192 290,-174 337.59,-192 290,-210"/>
<text text-anchor="middle" x="290" y="-188.3" font-family="Arial" font-size="14.00" fill="#1a1919">10 &lt;&lt;</text>
</g>
<!-- node4&#45;&gt;node10 -->
<g id="edge6" class="edge">
<title>node4&#45;&gt;node10</title>
<path fill="none" stroke="#3cb4a4" d="M360.08,-266.54C347.09,-252.91 325.18,-229.91 309.31,-213.26"/>
<polygon fill="#3cb4a4" stroke="#3cb4a4" points="311.5,-210.49 302.07,-205.66 306.43,-215.32 311.5,-210.49"/>
<text text-anchor="middle" x="338.5" y="-231.8" font-family="arial" font-size="14.00" fill="#3cb4a4">x</text>
</g>
<!-- node11 -->
<g id="node6" class="node">
<title>node11</title>
<polygon fill="#3cb4a4" stroke="black" points="298,-123 258.45,-105 298,-87 337.55,-105 298,-123"/>
<text text-anchor="middle" x="298" y="-101.3" font-family="Arial" font-size="14.00" fill="#1a1919">11 +</text>
</g>
<!-- node4&#45;&gt;node11 -->
<g id="edge8" class="edge">
<title>node4&#45;&gt;node11</title>
<path fill="none" stroke="#3cb4a4" d="M369.29,-261.86C366.62,-240.86 360.31,-203.37 347,-174 339.02,-156.39 326.12,-138.74 315.56,-125.83"/>
<polygon fill="#3cb4a4" stroke="#3cb4a4" points="318.15,-123.48 309.03,-118.09 312.8,-127.99 318.15,-123.48"/>
<text text-anchor="middle" x="362.5" y="-188.3" font-family="arial" font-size="14.00" fill="#3cb4a4">x</text>
</g>
<!-- node5 -->
<g id="node3" class="node">
<title>node5</title>
<polygon fill="#f9f9f9" stroke="black" points="208,-210 74,-210 74,-174 208,-174 208,-210"/>
<text text-anchor="middle" x="141" y="-188.3" font-family="Arial" font-size="14.00" fill="#1a1919">5 MethodCallTarget</text>
</g>
<!-- node5&#45;&gt;node6 -->
<g id="edge4" class="edge">
<title>node5&#45;&gt;node6</title>
<path fill="none" stroke="#343d46" stroke-dasharray="5,2" d="M138.43,-163.73C137.18,-150.42 135.71,-134.81 134.62,-123.18"/>
<polygon fill="#343d46" stroke="#343d46" points="134.96,-164.17 139.38,-173.8 141.93,-163.51 134.96,-164.17"/>
</g>
<!-- node12 -->
<g id="node7" class="node">
<title>node12</title>
<polygon fill="#e98693" stroke="black" points="253,-36 177,-36 177,0 253,0 253,-36"/>
<text text-anchor="middle" x="215" y="-14.3" font-family="Arial" font-size="14.00" fill="#1a1919">12 Return</text>
</g>
<!-- node6&#45;&gt;node12 -->
<g id="edge5" class="edge">
<title>node6&#45;&gt;node12</title>
<path fill="none" stroke="#da2d4f" stroke-width="2" d="M149.59,-86.8C161.6,-74.36 177.99,-57.36 191.36,-43.5"/>
<polygon fill="#da2d4f" stroke="#da2d4f" stroke-width="2" points="194.01,-45.8 198.43,-36.18 188.97,-40.94 194.01,-45.8"/>
</g>
<!-- node10&#45;&gt;node11 -->
<g id="edge9" class="edge">
<title>node10&#45;&gt;node11</title>
<path fill="none" stroke="#3cb4a4" d="M291.58,-174.21C292.69,-162.37 294.21,-146.28 295.49,-132.69"/>
<polygon fill="#3cb4a4" stroke="#3cb4a4" points="299,-132.75 296.45,-122.47 292.03,-132.1 299,-132.75"/>
<text text-anchor="middle" x="297.5" y="-144.8" font-family="arial" font-size="14.00" fill="#3cb4a4">y</text>
</g>
<!-- node11&#45;&gt;node12 -->
<g id="edge10" class="edge">
<title>node11&#45;&gt;node12</title>
<path fill="none" stroke="#3cb4a4" d="M286.46,-92.18C274.29,-79.71 254.75,-59.71 239.18,-43.76"/>
<polygon fill="#3cb4a4" stroke="#3cb4a4" points="241.39,-41.02 231.9,-36.31 236.38,-45.91 241.39,-41.02"/>
<text text-anchor="middle" x="278" y="-57.8" font-family="arial" font-size="14.00" fill="#3cb4a4">result</text>
</g>
<!-- inline1x4 -->
<g id="node8" class="node">
<title>inline1x4</title>
<ellipse fill="#d7ede7" stroke="black" cx="335" cy="-360" rx="27" ry="18"/>
<text text-anchor="middle" x="335" y="-358.1" font-family="Arial" font-size="8.00" fill="#1a1919">1 P(0)</text>
</g>
<!-- inline1x4&#45;&gt;node4 -->
<g id="edge2" class="edge">
<title>inline1x4&#45;&gt;node4</title>
<path fill="none" stroke="#3cb4a4" d="M342.46,-342.63C349.05,-328.17 358.55,-307.32 364.75,-293.72"/>
<text text-anchor="middle" x="356" y="-317.6" font-family="arial" font-size="8.00" fill="#3cb4a4">x</text>
</g>
<!-- inline2x4 -->
<g id="node9" class="node">
<title>inline2x4</title>
<ellipse fill="#d7ede7" stroke="black" cx="407" cy="-360" rx="27" ry="18"/>
<text text-anchor="middle" x="407" y="-358.1" font-family="Arial" font-size="8.00" fill="#1a1919">2 P(1)</text>
</g>
<!-- inline2x4&#45;&gt;node4 -->
<g id="edge3" class="edge">
<title>inline2x4&#45;&gt;node4</title>
<path fill="none" stroke="#3cb4a4" d="M399.54,-342.63C392.95,-328.17 383.45,-307.32 377.25,-293.72"/>
<text text-anchor="middle" x="392" y="-317.6" font-family="arial" font-size="8.00" fill="#3cb4a4">y</text>
</g>
<!-- inline9x10 -->
<g id="node10" class="node">
<title>inline9x10</title>
<ellipse fill="#d7ede7" stroke="black" cx="290" cy="-279" rx="27" ry="18"/>
<text text-anchor="middle" x="290" y="-277.1" font-family="Arial" font-size="8.00" fill="#1a1919">9 C(1)</text>
</g>
<!-- inline9x10&#45;&gt;node10 -->
<g id="edge7" class="edge">
<title>inline9x10&#45;&gt;node10</title>
<path fill="none" stroke="#3cb4a4" d="M290,-260.8C290,-246.05 290,-224.92 290,-210.18"/>
<text text-anchor="middle" x="292" y="-233.6" font-family="arial" font-size="8.00" fill="#3cb4a4">y</text>
</g>
</g>
</svg>
