<?xml version="1.0" encoding="UTF-8" standalone="no"?>
<!DOCTYPE svg PUBLIC "-//W3C//DTD SVG 1.1//EN"
 "http://www.w3.org/Graphics/SVG/1.1/DTD/svg11.dtd">
<!-- Generated by graphviz version 2.43.0 (0)
 -->
<!-- Title: G Pages: 1 -->
<svg width="646pt" height="977pt"
 viewBox="0.00 0.00 645.57 977.29" xmlns="http://www.w3.org/2000/svg" xmlns:xlink="http://www.w3.org/1999/xlink">
<g id="graph0" class="graph" transform="scale(1 1) rotate(0) translate(4 973.29)">
<title>G</title>
' points="-4,4 -4,-973.29 641.57,-973.29 641.57,4 -4,4"/>
<!-- node0 -->
<g id="node1" class="node">
<title>node0</title>
<polygon fill="#e98693" stroke="black" points="302.92,-888.09 245.44,-888.09 245.44,-852.09 302.92,-852.09 302.92,-888.09"/>
<text text-anchor="middle" x="274.18" y="-866.94" font-family="Arial" font-size="14.00" fill="#1a1919">0 Start</text>
</g>
<!-- node20 -->
<g id="node8" class="node">
<title>node20</title>
<polygon fill="#ffa500" stroke="black" points="260.54,-799.99 -0.18,-799.99 -0.18,-763.99 260.54,-763.99 260.54,-799.99"/>
<text text-anchor="middle" x="130.18" y="-778.84" font-family="Arial" font-size="14.00" fill="#1a1919">20 Guard not, else NullCheckException</text>
</g>
<!-- node0&#45;&gt;node20 -->
<g id="edge9" class="edge">
<title>node0&#45;&gt;node20</title>
<path fill="none" stroke="#3cb4a4" d="M245.73,-852.08C223.39,-838.72 192.09,-820.01 167.71,-805.43"/>
<polygon fill="#3cb4a4" stroke="#3cb4a4" points="169.44,-802.39 159.06,-800.26 165.85,-808.4 169.44,-802.39"/>
<text text-anchor="middle" x="235.58" y="-822.89" font-family="arial" font-size="14.00" fill="#3cb4a4">anchor</text>
</g>
<!-- node23 -->
<g id="node11" class="node">
<title>node23</title>
<polygon fill="#da2d4f" stroke="black" points="324.79,-535.69 181.56,-535.69 181.56,-499.69 324.79,-499.69 324.79,-535.69"/>
<text text-anchor="middle" x="253.18" y="-514.54" font-family="Arial" font-size="14.00" fill="#ffffff">23 RawMonitorEnter</text>
</g>
<!-- node0&#45;&gt;node23 -->
<g id="edge1" class="edge">
<title>node0&#45;&gt;node23</title>
<path fill="none" stroke="#da2d4f" stroke-width="2" d="M302.98,-857.7C331.26,-844.41 370.18,-819.48 370.18,-782.99 370.18,-782.99 370.18,-782.99 370.18,-604.79 370.18,-574.54 344.5,-553.74 317.2,-540.17"/>
<polygon fill="#da2d4f" stroke="#da2d4f" stroke-width="2" points="318.45,-536.9 307.91,-535.84 315.5,-543.24 318.45,-536.9"/>
</g>
<!-- node4 -->
<g id="node2" class="node">
<title>node4</title>
<polygon fill="#f9f9f9" stroke="black" points="269.21,-623.79 183.14,-623.79 183.14,-587.79 269.21,-587.79 269.21,-623.79"/>
<text text-anchor="middle" x="226.18" y="-602.64" font-family="Arial" font-size="14.00" fill="#1a1919">4 MonitorId</text>
</g>
<!-- node9 -->
<g id="node3" class="node">
<title>node9</title>
<polygon fill="#da2d4f" stroke="black" points="288.88,-366.4 191.48,-366.4 191.48,-330.4 288.88,-330.4 288.88,-366.4"/>
<text text-anchor="middle" x="240.18" y="-345.25" font-family="Arial" font-size="14.00" fill="#ffffff">9 MonitorExit</text>
</g>
<!-- node4&#45;&gt;node9 -->
<g id="edge3" class="edge">
<title>node4&#45;&gt;node9</title>
<path fill="none" stroke="#3cb4a4" d="M187.18,-587.73C180.36,-582.94 174.18,-577.01 170.18,-569.79 165.95,-562.16 160.91,-547.6 172.18,-499.69 183,-453.66 208.16,-404.48 224.65,-375.36"/>
<polygon fill="#3cb4a4" stroke="#3cb4a4" points="227.71,-377.06 229.67,-366.64 221.65,-373.56 227.71,-377.06"/>
<text text-anchor="middle" x="211.36" y="-470.49" font-family="arial" font-size="14.00" fill="#3cb4a4">monitorId</text>
</g>
<!-- node4&#45;&gt;node23 -->
<g id="edge15" class="edge">
<title>node4&#45;&gt;node23</title>
<path fill="none" stroke="#3cb4a4" d="M226.73,-587.37C227.47,-577.31 229.13,-564.53 232.82,-553.69 233.83,-550.73 235.1,-547.74 236.52,-544.81"/>
<polygon fill="#3cb4a4" stroke="#3cb4a4" points="239.69,-546.3 241.38,-535.84 233.54,-542.97 239.69,-546.3"/>
<text text-anchor="middle" x="261.36" y="-558.59" font-family="arial" font-size="14.00" fill="#3cb4a4">monitorId</text>
</g>
<!-- node28 -->
<g id="node14" class="node">
<title>node28</title>
<polygon fill="#da2d4f" stroke="black" points="379.79,-278.3 236.56,-278.3 236.56,-242.3 379.79,-242.3 379.79,-278.3"/>
<text text-anchor="middle" x="308.18" y="-257.15" font-family="Arial" font-size="14.00" fill="#ffffff">28 RawMonitorEnter</text>
</g>
<!-- node9&#45;&gt;node28 -->
<g id="edge4" class="edge">
<title>node9&#45;&gt;node28</title>
<path fill="none" stroke="#da2d4f" stroke-width="2" d="M253.61,-330.39C263.51,-317.85 277.14,-300.6 288.3,-286.47"/>
<polygon fill="#da2d4f" stroke="#da2d4f" stroke-width="2" points="291.09,-288.58 294.54,-278.57 285.59,-284.25 291.09,-288.58"/>
</g>
<!-- node11 -->
<g id="node4" class="node">
<title>node11</title>
<polygon fill="#f9f9f9" stroke="black" points="637.46,-366.4 544.9,-366.4 544.9,-330.4 637.46,-330.4 637.46,-366.4"/>
<text text-anchor="middle" x="591.18" y="-345.25" font-family="Arial" font-size="14.00" fill="#1a1919">11 MonitorId</text>
</g>
<!-- node16 -->
<g id="node5" class="node">
<title>node16</title>
<polygon fill="#da2d4f" stroke="black" points="606.16,-109 500.2,-109 500.2,-73 606.16,-73 606.16,-109"/>
<text text-anchor="middle" x="553.18" y="-87.85" font-family="Arial" font-size="14.00" fill="#ffffff">16 MonitorExit</text>
</g>
<!-- node11&#45;&gt;node16 -->
<g id="edge6" class="edge">
<title>node11&#45;&gt;node16</title>
<path fill="none" stroke="#3cb4a4" d="M588.63,-330.24C582.15,-286.72 565.04,-171.7 557.2,-119.03"/>
<polygon fill="#3cb4a4" stroke="#3cb4a4" points="560.65,-118.46 555.72,-109.08 553.73,-119.49 560.65,-118.46"/>
<text text-anchor="middle" x="601.36" y="-213.1" font-family="arial" font-size="14.00" fill="#3cb4a4">monitorId</text>
</g>
<!-- node11&#45;&gt;node28 -->
<g id="edge24" class="edge">
<title>node11&#45;&gt;node28</title>
<path fill="none" stroke="#3cb4a4" d="M544.76,-333.28C498.29,-319.14 426.33,-297.24 373.98,-281.32"/>
<polygon fill="#3cb4a4" stroke="#3cb4a4" points="374.7,-277.88 364.11,-278.31 372.66,-284.57 374.7,-277.88"/>
<text text-anchor="middle" x="503.36" y="-301.2" font-family="arial" font-size="14.00" fill="#3cb4a4">monitorId</text>
</g>
<!-- node18 -->
<g id="node6" class="node">
<title>node18</title>
<polygon fill="#e98693" stroke="black" points="592.16,-36 514.19,-36 514.19,0 592.16,0 592.16,-36"/>
<text text-anchor="middle" x="553.18" y="-14.85" font-family="Arial" font-size="14.00" fill="#1a1919">18 Return</text>
</g>
<!-- node16&#45;&gt;node18 -->
<g id="edge7" class="edge">
<title>node16&#45;&gt;node18</title>
<path fill="none" stroke="#da2d4f" stroke-width="2" d="M553.18,-72.81C553.18,-64.79 553.18,-55.05 553.18,-46.07"/>
<polygon fill="#da2d4f" stroke="#da2d4f" stroke-width="2" points="556.68,-46.03 553.18,-36.03 549.68,-46.03 556.68,-46.03"/>
</g>
<!-- node19 -->
<g id="node7" class="node">
<title>node19</title>
<polygon fill="#3cb4a4" stroke="black" points="165.65,-888.09 94.71,-888.09 94.71,-852.09 165.65,-852.09 165.65,-888.09"/>
<text text-anchor="middle" x="130.18" y="-866.94" font-family="Arial" font-size="14.00" fill="#1a1919">19 IsNull</text>
</g>
<!-- node19&#45;&gt;node20 -->
<g id="edge10" class="edge">
<title>node19&#45;&gt;node20</title>
<path fill="none" stroke="#3cb4a4" d="M130.18,-852.08C130.18,-840.25 130.18,-824.21 130.18,-810.56"/>
<polygon fill="#3cb4a4" stroke="#3cb4a4" points="133.68,-810.26 130.18,-800.26 126.68,-810.26 133.68,-810.26"/>
<text text-anchor="middle" x="134.07" y="-822.89" font-family="arial" font-size="14.00" fill="#3cb4a4">?</text>
</g>
<!-- node21 -->
<g id="node9" class="node">
<title>node21</title>
<polygon fill="#f9f9f9" stroke="black" points="157.18,-711.89 103.18,-711.89 103.18,-675.89 157.18,-675.89 157.18,-711.89"/>
<text text-anchor="middle" x="130.18" y="-690.74" font-family="Arial" font-size="14.00" fill="#1a1919">21 π</text>
</g>
<!-- node20&#45;&gt;node21 -->
<g id="edge11" class="edge">
<title>node20&#45;&gt;node21</title>
<path fill="none" stroke="#3cb4a4" d="M130.18,-763.98C130.18,-752.15 130.18,-736.11 130.18,-722.46"/>
<polygon fill="#3cb4a4" stroke="#3cb4a4" points="133.68,-722.16 130.18,-712.16 126.68,-722.16 133.68,-722.16"/>
<text text-anchor="middle" x="148.08" y="-734.79" font-family="arial" font-size="14.00" fill="#3cb4a4">guard</text>
</g>
<!-- node22 -->
<g id="node10" class="node">
<title>node22</title>
<polygon fill="#f9f9f9" stroke="black" points="165.47,-623.79 72.89,-623.79 72.89,-587.79 165.47,-587.79 165.47,-623.79"/>
<text text-anchor="middle" x="119.18" y="-602.64" font-family="Arial" font-size="14.00" fill="#1a1919">22 LoadHub</text>
</g>
<!-- node21&#45;&gt;node22 -->
<g id="edge13" class="edge">
<title>node21&#45;&gt;node22</title>
<path fill="none" stroke="#3cb4a4" d="M128.01,-675.88C126.49,-664.05 124.44,-648.01 122.7,-634.37"/>
<polygon fill="#3cb4a4" stroke="#3cb4a4" points="126.12,-633.54 121.39,-624.06 119.18,-634.43 126.12,-633.54"/>
<text text-anchor="middle" x="142.91" y="-646.69" font-family="arial" font-size="14.00" fill="#3cb4a4">value</text>
</g>
<!-- node21&#45;&gt;node23 -->
<g id="edge14" class="edge">
<title>node21&#45;&gt;node23</title>
<path fill="none" stroke="#3cb4a4" d="M157.26,-687.72C190.79,-679.88 247.23,-661.67 278.18,-623.79 298.23,-599.26 303.9,-582.71 291.18,-553.69 289.56,-550.01 287.35,-546.54 284.79,-543.33"/>
<polygon fill="#3cb4a4" stroke="#3cb4a4" points="287.25,-540.84 277.89,-535.89 282.12,-545.6 287.25,-540.84"/>
<text text-anchor="middle" x="315.86" y="-602.64" font-family="arial" font-size="14.00" fill="#3cb4a4">object</text>
</g>
<!-- node21&#45;&gt;node28 -->
<g id="edge23" class="edge">
<title>node21&#45;&gt;node28</title>
<path fill="none" stroke="#3cb4a4" d="M103.12,-683.12C73.5,-670.48 30.18,-645.4 30.18,-606.79 30.18,-606.79 30.18,-606.79 30.18,-347.4 30.18,-257.69 129.39,-294.45 226.23,-278.29"/>
<polygon fill="#3cb4a4" stroke="#3cb4a4" points="227.01,-281.7 236.19,-276.43 225.72,-274.82 227.01,-281.7"/>
<text text-anchor="middle" x="48.86" y="-470.49" font-family="arial" font-size="14.00" fill="#3cb4a4">object</text>
</g>
<!-- node22&#45;&gt;node23 -->
<g id="edge16" class="edge">
<title>node22&#45;&gt;node23</title>
<path fill="none" stroke="#3cb4a4" d="M145.65,-587.78C166.26,-574.54 195.05,-556.04 217.66,-541.52"/>
<polygon fill="#3cb4a4" stroke="#3cb4a4" points="219.78,-544.31 226.3,-535.96 216,-538.43 219.78,-544.31"/>
<text text-anchor="middle" x="209.86" y="-558.59" font-family="arial" font-size="14.00" fill="#3cb4a4">hub</text>
</g>
<!-- node22&#45;&gt;node28 -->
<g id="edge25" class="edge">
<title>node22&#45;&gt;node28</title>
<path fill="none" stroke="#3cb4a4" d="M106.86,-587.58C96.09,-570.83 82.18,-544.24 82.18,-518.69 82.18,-518.69 82.18,-518.69 82.18,-347.4 82.18,-330.51 171.39,-300.86 237.71,-281.15"/>
<polygon fill="#3cb4a4" stroke="#3cb4a4" points="238.72,-284.5 247.32,-278.31 236.74,-277.78 238.72,-284.5"/>
<text text-anchor="middle" x="93.86" y="-426.45" font-family="arial" font-size="14.00" fill="#3cb4a4">hub</text>
</g>
<!-- node27 -->
<g id="node13" class="node">
<title>node27</title>
<polygon fill="#da2d4f" stroke="black" points="448.9,-447.6 233.46,-447.6 233.46,-411.6 448.9,-411.6 448.9,-447.6"/>
<text text-anchor="middle" x="341.18" y="-426.45" font-family="Arial" font-size="14.00" fill="#ffffff">27 Write#JavaExamples.intField</text>
</g>
<!-- node23&#45;&gt;node27 -->
<g id="edge17" class="edge">
<title>node23&#45;&gt;node27</title>
<path fill="none" stroke="#da2d4f" stroke-width="2" d="M270.56,-499.68C283.62,-486.91 301.67,-469.25 316.26,-454.98"/>
<polygon fill="#da2d4f" stroke="#da2d4f" stroke-width="2" points="318.83,-457.36 323.53,-447.87 313.93,-452.36 318.83,-457.36"/>
</g>
<!-- node26 -->
<g id="node12" class="node">
<title>node26</title>
<polygon fill="#f9f9f9" stroke="black" points="539.09,-535.69 415.27,-535.69 415.27,-499.69 539.09,-499.69 539.09,-535.69"/>
<text text-anchor="middle" x="477.18" y="-514.54" font-family="Arial" font-size="14.00" fill="#1a1919">26 OffsetAddress</text>
</g>
<!-- node26&#45;&gt;node27 -->
<g id="edge20" class="edge">
<title>node26&#45;&gt;node27</title>
<path fill="none" stroke="#3cb4a4" d="M444.31,-499.59C434.24,-494.11 423.23,-487.86 413.37,-481.69 399.51,-473.03 384.7,-462.74 372.12,-453.67"/>
<polygon fill="#3cb4a4" stroke="#3cb4a4" points="373.95,-450.67 363.81,-447.62 369.83,-456.33 373.95,-450.67"/>
<text text-anchor="middle" x="438.08" y="-470.49" font-family="arial" font-size="14.00" fill="#3cb4a4">address</text>
</g>
<!-- node29 -->
<g id="node15" class="node">
<title>node29</title>
<polygon fill="#da2d4f" stroke="black" points="470.9,-190.2 255.46,-190.2 255.46,-154.2 470.9,-154.2 470.9,-190.2"/>
<text text-anchor="middle" x="363.18" y="-169.05" font-family="Arial" font-size="14.00" fill="#ffffff">29 Write#JavaExamples.intField</text>
</g>
<!-- node26&#45;&gt;node29 -->
<g id="edge27" class="edge">
<title>node26&#45;&gt;node29</title>
<path fill="none" stroke="#3cb4a4" d="M477.18,-499.54C477.18,-482.17 477.18,-454.51 477.18,-430.6 477.18,-430.6 477.18,-430.6 477.18,-259.3 477.18,-229.22 451.59,-208.31 424.66,-194.64"/>
<polygon fill="#3cb4a4" stroke="#3cb4a4" points="426.04,-191.42 415.51,-190.28 423.03,-197.74 426.04,-191.42"/>
<text text-anchor="middle" x="502.08" y="-345.25" font-family="arial" font-size="14.00" fill="#3cb4a4">address</text>
</g>
<!-- node27&#45;&gt;node9 -->
<g id="edge22" class="edge">
<title>node27&#45;&gt;node9</title>
<path fill="none" stroke="#da2d4f" stroke-width="2" d="M319.26,-411.41C304.84,-400.1 285.77,-385.15 269.97,-372.76"/>
<polygon fill="#da2d4f" stroke="#da2d4f" stroke-width="2" points="272.08,-369.96 262.05,-366.55 267.76,-375.47 272.08,-369.96"/>
</g>
<!-- node28&#45;&gt;node29 -->
<g id="edge26" class="edge">
<title>node28&#45;&gt;node29</title>
<path fill="none" stroke="#da2d4f" stroke-width="2" d="M319.04,-242.29C326.9,-229.99 337.66,-213.14 346.59,-199.16"/>
<polygon fill="#da2d4f" stroke="#da2d4f" stroke-width="2" points="349.71,-200.78 352.15,-190.47 343.81,-197.01 349.71,-200.78"/>
</g>
<!-- node29&#45;&gt;node16 -->
<g id="edge29" class="edge">
<title>node29&#45;&gt;node16</title>
<path fill="none" stroke="#da2d4f" stroke-width="2" d="M404.41,-154.01C433.39,-141.93 472.32,-125.7 503.09,-112.88"/>
<polygon fill="#da2d4f" stroke="#da2d4f" stroke-width="2" points="504.48,-116.09 512.36,-109.02 501.78,-109.63 504.48,-116.09"/>
</g>
<!-- inline1x9 -->
<g id="node16" class="node">
<title>inline1x9</title>
<ellipse fill="#d7ede7" stroke="black" cx="150.18" cy="-429.6" rx="27" ry="18"/>
<text text-anchor="middle" x="150.18" y="-427.8" font-family="Arial" font-size="8.00" fill="#1a1919">1 P(0)</text>
</g>
<!-- inline1x9&#45;&gt;node9 -->
<g id="edge2" class="edge">
<title>inline1x9&#45;&gt;node9</title>
<path fill="none" stroke="#3cb4a4" d="M154.72,-411.46C157.79,-402.52 162.63,-391.92 169.83,-384.4 176.72,-377.2 185.4,-371.27 194.29,-366.46"/>
<text text-anchor="middle" x="180.85" y="-387.2" font-family="arial" font-size="8.00" fill="#3cb4a4">object</text>
</g>
<!-- inline1x16 -->
<g id="node17" class="node">
<title>inline1x16</title>
<ellipse fill="#d7ede7" stroke="black" cx="608.18" cy="-172.2" rx="27" ry="18"/>
<text text-anchor="middle" x="608.18" y="-170.4" font-family="Arial" font-size="8.00" fill="#1a1919">1 P(0)</text>
</g>
<!-- inline1x16&#45;&gt;node16 -->
<g id="edge5" class="edge">
<title>inline1x16&#45;&gt;node16</title>
<path fill="none" stroke="#3cb4a4" d="M597.31,-155.55C588.05,-142.21 574.74,-123.05 565.17,-109.26"/>
<text text-anchor="middle" x="592.85" y="-129.8" font-family="arial" font-size="8.00" fill="#3cb4a4">object</text>
</g>
<!-- inline1x19 -->
<g id="node18" class="node">
<title>inline1x19</title>
<ellipse fill="#d7ede7" stroke="black" cx="130.18" cy="-951.29" rx="27" ry="18"/>
<text text-anchor="middle" x="130.18" y="-949.49" font-family="Arial" font-size="8.00" fill="#1a1919">1 P(0)</text>
</g>
<!-- inline1x19&#45;&gt;node19 -->
<g id="edge8" class="edge">
<title>inline1x19&#45;&gt;node19</title>
<path fill="none" stroke="#3cb4a4" d="M130.18,-933.1C130.18,-919.82 130.18,-901.52 130.18,-888.24"/>
<text text-anchor="middle" x="139.74" y="-908.89" font-family="arial" font-size="8.00" fill="#3cb4a4">value</text>
</g>
<!-- inline1x21 -->
<g id="node19" class="node">
<title>inline1x21</title>
<ellipse fill="#d7ede7" stroke="black" cx="305.18" cy="-781.99" rx="27" ry="18"/>
<text text-anchor="middle" x="305.18" y="-780.19" font-family="Arial" font-size="8.00" fill="#1a1919">1 P(0)</text>
</g>
<!-- inline1x21&#45;&gt;node21 -->
<g id="edge12" class="edge">
<title>inline1x21&#45;&gt;node21</title>
<path fill="none" stroke="#3cb4a4" d="M284.07,-770.6C252.34,-755 192.37,-725.49 157.39,-708.28"/>
<text text-anchor="middle" x="243.85" y="-736.14" font-family="arial" font-size="8.00" fill="#3cb4a4">object</text>
</g>
<!-- inline24x26 -->
<g id="node20" class="node">
<title>inline24x26</title>
<ellipse fill="#d7ede7" stroke="black" cx="463.18" cy="-605.79" rx="51.23" ry="18"/>
<text text-anchor="middle" x="463.18" y="-603.99" font-family="Arial" font-size="8.00" fill="#1a1919">24 C(instance:Class)</text>
</g>
<!-- inline24x26&#45;&gt;node26 -->
<g id="edge18" class="edge">
<title>inline24x26&#45;&gt;node26</title>
<path fill="none" stroke="#3cb4a4" d="M465.94,-587.78C468.38,-572.79 471.92,-551.04 474.37,-535.96"/>
<text text-anchor="middle" x="479.85" y="-559.94" font-family="arial" font-size="8.00" fill="#3cb4a4">base</text>
</g>
<!-- inline25x26 -->
<g id="node21" class="node">
<title>inline25x26</title>
<ellipse fill="#d7ede7" stroke="black" cx="562.18" cy="-605.79" rx="29.21" ry="18"/>
<text text-anchor="middle" x="562.18" y="-603.99" font-family="Arial" font-size="8.00" fill="#1a1919">25 C(128)</text>
</g>
<!-- inline25x26&#45;&gt;node26 -->
<g id="edge19" class="edge">
<title>inline25x26&#45;&gt;node26</title>
<path fill="none" stroke="#3cb4a4" d="M547.37,-589.8C532.53,-574.76 509.71,-551.65 494.15,-535.88"/>
<text text-anchor="middle" x="536.89" y="-559.94" font-family="arial" font-size="8.00" fill="#3cb4a4">offset</text>
</g>
<!-- inline2x27 -->
<g id="node22" class="node">
<title>inline2x27</title>
<ellipse fill="#d7ede7" stroke="black" cx="370.18" cy="-517.69" rx="27" ry="18"/>
<text text-anchor="middle" x="370.18" y="-515.89" font-family="Arial" font-size="8.00" fill="#1a1919">2 P(1)</text>
</g>
<!-- inline2x27&#45;&gt;node27 -->
<g id="edge21" class="edge">
<title>inline2x27&#45;&gt;node27</title>
<path fill="none" stroke="#3cb4a4" d="M364.45,-499.68C359.4,-484.69 352.07,-462.94 347,-447.87"/>
<text text-anchor="middle" x="367.74" y="-471.84" font-family="arial" font-size="8.00" fill="#3cb4a4">value</text>
</g>
<!-- inline2x29 -->
<g id="node23" class="node">
<title>inline2x29</title>
<ellipse fill="#d7ede7" stroke="black" cx="191.18" cy="-260.3" rx="27" ry="18"/>
<text text-anchor="middle" x="191.18" y="-258.5" font-family="Arial" font-size="8.00" fill="#1a1919">2 P(1)</text>
</g>
<!-- inline2x29&#45;&gt;node29 -->
<g id="edge28" class="edge">
<title>inline2x29&#45;&gt;node29</title>
<path fill="none" stroke="#3cb4a4" d="M212.27,-248.74C241.42,-234.15 294.37,-207.64 329.16,-190.23"/>
<text text-anchor="middle" x="301.74" y="-214.45" font-family="arial" font-size="8.00" fill="#3cb4a4">value</text>
</g>
</g>
</svg>
