<?xml version="1.0" encoding="UTF-8" standalone="no"?>
<!DOCTYPE svg PUBLIC "-//W3C//DTD SVG 1.1//EN"
 "http://www.w3.org/Graphics/SVG/1.1/DTD/svg11.dtd">
<!-- Generated by graphviz version 2.44.0 (20200408.0750)
 -->
<!-- Title: G Pages: 1 -->
<svg width="753pt" height="1256pt"
 viewBox="0.00 0.00 752.50 1256.00" xmlns="http://www.w3.org/2000/svg" xmlns:xlink="http://www.w3.org/1999/xlink">
<g id="graph0" class="graph" transform="scale(1 1) rotate(0) translate(4 1252)">
<title>G</title>
<!-- node0 -->
<g id="node1" class="node">
<title>node0</title>
<polygon fill="#e98693" stroke="black" points="373.5,-1167 317.5,-1167 317.5,-1131 373.5,-1131 373.5,-1167"/>
<text text-anchor="middle" x="345.5" y="-1145.3" font-family="Arial" font-size="14.00" fill="#1a1919">0 Start</text>
</g>
<!-- node7 -->
<g id="node4" class="node">
<title>node7</title>
<polygon fill="#ffa500" stroke="black" points="245,-1080 0,-1080 0,-1044 245,-1044 245,-1080"/>
<text text-anchor="middle" x="122.5" y="-1058.3" font-family="Arial" font-size="14.00" fill="#1a1919">7 Guard not, else NullCheckException</text>
</g>
<!-- node0&#45;&gt;node7 -->
<g id="edge4" class="edge">
<title>node0&#45;&gt;node7</title>
<path fill="none" stroke="#3cb4a4" d="M317.26,-1137.23C282.1,-1123.83 221.28,-1100.65 176.94,-1083.75"/>
<polygon fill="#3cb4a4" stroke="#3cb4a4" points="178.05,-1080.43 167.46,-1080.14 175.56,-1086.97 178.05,-1080.43"/>
<text text-anchor="middle" x="267.5" y="-1101.8" font-family="arial" font-size="14.00" fill="#3cb4a4">anchor</text>
</g>
<!-- node11 -->
<g id="node7" class="node">
<title>node11</title>
<polygon fill="#da2d4f" stroke="black" points="427,-819 276,-819 276,-783 427,-783 427,-819"/>
<text text-anchor="middle" x="351.5" y="-797.3" font-family="Arial" font-size="14.00" fill="#ffffff">11 Read#[].length:final</text>
</g>
<!-- node0&#45;&gt;node11 -->
<g id="edge1" class="edge">
<title>node0&#45;&gt;node11</title>
<path fill="none" stroke="#da2d4f" stroke-width="2" d="M345.5,-1130.74C345.5,-1113.57 345.5,-1086.46 345.5,-1063 345.5,-1063 345.5,-1063 345.5,-887 345.5,-867.7 347.06,-846.01 348.59,-829.36"/>
<polygon fill="#da2d4f" stroke="#da2d4f" stroke-width="2" points="352.09,-829.52 349.57,-819.23 345.12,-828.85 352.09,-829.52"/>
</g>
<!-- node13 -->
<g id="node9" class="node">
<title>node13</title>
<polygon fill="#ffa500" stroke="black" points="697,-645 422,-645 422,-609 697,-609 697,-645"/>
<text text-anchor="middle" x="559.5" y="-623.3" font-family="Arial" font-size="14.00" fill="#1a1919">13 Guard not, else BoundsCheckException</text>
</g>
<!-- node0&#45;&gt;node13 -->
<g id="edge14" class="edge">
<title>node0&#45;&gt;node13</title>
<path fill="none" stroke="#3cb4a4" d="M373.92,-1142.9C432.13,-1131.63 559.5,-1102.48 559.5,-1063 559.5,-1063 559.5,-1063 559.5,-713 559.5,-693.75 559.5,-672.05 559.5,-655.4"/>
<polygon fill="#3cb4a4" stroke="#3cb4a4" points="563,-655.26 559.5,-645.26 556,-655.26 563,-655.26"/>
<text text-anchor="middle" x="580.5" y="-884.3" font-family="arial" font-size="14.00" fill="#3cb4a4">anchor</text>
</g>
<!-- node5 -->
<g id="node2" class="node">
<title>node5</title>
<polygon fill="#e98693" stroke="black" points="416.5,-36 348.5,-36 348.5,0 416.5,0 416.5,-36"/>
<text text-anchor="middle" x="382.5" y="-14.3" font-family="Arial" font-size="14.00" fill="#1a1919">5 Return</text>
</g>
<!-- node6 -->
<g id="node3" class="node">
<title>node6</title>
<polygon fill="#3cb4a4" stroke="black" points="122.5,-1167 65.52,-1149 122.5,-1131 179.48,-1149 122.5,-1167"/>
<text text-anchor="middle" x="122.5" y="-1145.3" font-family="Arial" font-size="14.00" fill="#1a1919">6 IsNull</text>
</g>
<!-- node6&#45;&gt;node7 -->
<g id="edge5" class="edge">
<title>node6&#45;&gt;node7</title>
<path fill="none" stroke="#3cb4a4" d="M122.5,-1130.8C122.5,-1119.16 122.5,-1103.55 122.5,-1090.24"/>
<polygon fill="#3cb4a4" stroke="#3cb4a4" points="126,-1090.18 122.5,-1080.18 119,-1090.18 126,-1090.18"/>
<text text-anchor="middle" x="126.5" y="-1101.8" font-family="arial" font-size="14.00" fill="#3cb4a4">?</text>
</g>
<!-- node8 -->
<g id="node5" class="node">
<title>node8</title>
<polygon fill="#f9f9f9" stroke="black" points="298.5,-993 244.5,-993 244.5,-957 298.5,-957 298.5,-993"/>
<text text-anchor="middle" x="271.5" y="-971.3" font-family="Arial" font-size="14.00" fill="#1a1919">8 π</text>
</g>
<!-- node7&#45;&gt;node8 -->
<g id="edge6" class="edge">
<title>node7&#45;&gt;node8</title>
<path fill="none" stroke="#3cb4a4" d="M152.65,-1043.8C176.58,-1030.15 210.12,-1011.02 235.46,-996.56"/>
<polygon fill="#3cb4a4" stroke="#3cb4a4" points="237.45,-999.46 244.4,-991.46 233.98,-993.38 237.45,-999.46"/>
<text text-anchor="middle" x="223" y="-1014.8" font-family="arial" font-size="14.00" fill="#3cb4a4">guard</text>
</g>
<!-- node10 -->
<g id="node6" class="node">
<title>node10</title>
<polygon fill="#f9f9f9" stroke="black" points="495.5,-906 373.5,-906 373.5,-870 495.5,-870 495.5,-906"/>
<text text-anchor="middle" x="434.5" y="-884.3" font-family="Arial" font-size="14.00" fill="#1a1919">10 OffsetAddress</text>
</g>
<!-- node8&#45;&gt;node10 -->
<g id="edge8" class="edge">
<title>node8&#45;&gt;node10</title>
<path fill="none" stroke="#3cb4a4" d="M298.78,-959.77C324.38,-946.42 363.03,-926.27 392.55,-910.87"/>
<polygon fill="#3cb4a4" stroke="#3cb4a4" points="394.54,-913.79 401.79,-906.06 391.3,-907.58 394.54,-913.79"/>
<text text-anchor="middle" x="377.5" y="-927.8" font-family="arial" font-size="14.00" fill="#3cb4a4">base</text>
</g>
<!-- node20 -->
<g id="node14" class="node">
<title>node20</title>
<polygon fill="#f9f9f9" stroke="black" points="443.5,-210 321.5,-210 321.5,-174 443.5,-174 443.5,-210"/>
<text text-anchor="middle" x="382.5" y="-188.3" font-family="Arial" font-size="14.00" fill="#1a1919">20 OffsetAddress</text>
</g>
<!-- node8&#45;&gt;node20 -->
<g id="edge23" class="edge">
<title>node8&#45;&gt;node20</title>
<path fill="none" stroke="#3cb4a4" d="M263.64,-956.82C256.64,-939.93 247.5,-913.23 247.5,-889 247.5,-889 247.5,-889 247.5,-278 247.5,-243.72 279.06,-222.71 311.66,-210.17"/>
<polygon fill="#3cb4a4" stroke="#3cb4a4" points="313.1,-213.37 321.32,-206.69 310.73,-206.78 313.1,-213.37"/>
<text text-anchor="middle" x="262.5" y="-579.8" font-family="arial" font-size="14.00" fill="#3cb4a4">base</text>
</g>
<!-- node10&#45;&gt;node11 -->
<g id="edge10" class="edge">
<title>node10&#45;&gt;node11</title>
<path fill="none" stroke="#3cb4a4" d="M417.7,-869.8C405.55,-857.36 388.96,-840.36 375.43,-826.5"/>
<polygon fill="#3cb4a4" stroke="#3cb4a4" points="377.76,-823.88 368.27,-819.18 372.75,-828.78 377.76,-823.88"/>
<text text-anchor="middle" x="422" y="-840.8" font-family="arial" font-size="14.00" fill="#3cb4a4">address</text>
</g>
<!-- node12 -->
<g id="node8" class="node">
<title>node12</title>
<polygon fill="#3cb4a4" stroke="black" points="484.5,-732 437.75,-714 484.5,-696 531.25,-714 484.5,-732"/>
<text text-anchor="middle" x="484.5" y="-710.3" font-family="Arial" font-size="14.00" fill="#1a1919">12 |&lt;|</text>
</g>
<!-- node11&#45;&gt;node12 -->
<g id="edge13" class="edge">
<title>node11&#45;&gt;node12</title>
<path fill="none" stroke="#3cb4a4" d="M353.38,-782.57C355.42,-771.83 359.66,-758.54 368.5,-750 386.75,-732.37 413.57,-723.58 436.82,-719.22"/>
<polygon fill="#3cb4a4" stroke="#3cb4a4" points="437.57,-722.64 446.86,-717.56 436.43,-715.74 437.57,-722.64"/>
<text text-anchor="middle" x="425" y="-753.8" font-family="arial" font-size="14.00" fill="#3cb4a4">y [0 &#45; 2147483647]</text>
</g>
<!-- node21 -->
<g id="node15" class="node">
<title>node21</title>
<polygon fill="#da2d4f" stroke="black" points="447,-123 318,-123 318,-87 447,-87 447,-123"/>
<text text-anchor="middle" x="382.5" y="-101.3" font-family="Arial" font-size="14.00" fill="#ffffff">21 Read#Array: int</text>
</g>
<!-- node11&#45;&gt;node21 -->
<g id="edge11" class="edge">
<title>node11&#45;&gt;node21</title>
<path fill="none" stroke="#da2d4f" stroke-width="2" d="M330.56,-782.76C313.95,-767.03 293.5,-742.15 293.5,-715 293.5,-715 293.5,-715 293.5,-191 293.5,-163.93 315.29,-142.84 337.31,-128.44"/>
<polygon fill="#da2d4f" stroke="#da2d4f" stroke-width="2" points="339.37,-131.28 346.04,-123.05 335.69,-125.32 339.37,-131.28"/>
<text text-anchor="middle" x="346.5" y="-449.3" font-family="arial" font-size="14.00" fill="#da2d4f"> [0 &#45; 2147483647]</text>
</g>
<!-- node12&#45;&gt;node13 -->
<g id="edge15" class="edge">
<title>node12&#45;&gt;node13</title>
<path fill="none" stroke="#3cb4a4" d="M495.89,-700.09C506.92,-687.59 523.92,-668.32 537.58,-652.84"/>
<polygon fill="#3cb4a4" stroke="#3cb4a4" points="540.37,-654.97 544.36,-645.15 535.12,-650.34 540.37,-654.97"/>
<text text-anchor="middle" x="529.5" y="-666.8" font-family="arial" font-size="14.00" fill="#3cb4a4">?</text>
</g>
<!-- node14 -->
<g id="node10" class="node">
<title>node14</title>
<polygon fill="#f9f9f9" stroke="black" points="582.5,-558 528.5,-558 528.5,-522 582.5,-522 582.5,-558"/>
<text text-anchor="middle" x="555.5" y="-536.3" font-family="Arial" font-size="14.00" fill="#1a1919">14 π</text>
</g>
<!-- node13&#45;&gt;node14 -->
<g id="edge16" class="edge">
<title>node13&#45;&gt;node14</title>
<path fill="none" stroke="#3cb4a4" d="M558.69,-608.8C558.14,-597.16 557.41,-581.55 556.78,-568.24"/>
<polygon fill="#3cb4a4" stroke="#3cb4a4" points="560.27,-568 556.31,-558.18 553.28,-568.33 560.27,-568"/>
<text text-anchor="middle" x="575" y="-579.8" font-family="arial" font-size="14.00" fill="#3cb4a4">guard</text>
</g>
<!-- node13&#45;&gt;node21 -->
<g id="edge25" class="edge">
<title>node13&#45;&gt;node21</title>
<path fill="none" stroke="#3cb4a4" d="M644.58,-608.85C678.44,-596.61 709.5,-575.87 709.5,-541 709.5,-541 709.5,-541 709.5,-191 709.5,-139.16 553.63,-118.39 457.12,-110.49"/>
<polygon fill="#3cb4a4" stroke="#3cb4a4" points="457.35,-107 447.1,-109.7 456.8,-113.98 457.35,-107"/>
<text text-anchor="middle" x="727" y="-362.3" font-family="arial" font-size="14.00" fill="#3cb4a4">guard</text>
</g>
<!-- node15 -->
<g id="node11" class="node">
<title>node15</title>
<polygon fill="#3cb4a4" stroke="black" points="585.5,-471 489.82,-453 585.5,-435 681.18,-453 585.5,-471"/>
<text text-anchor="middle" x="585.5" y="-449.3" font-family="Arial" font-size="14.00" fill="#1a1919">15 SignExtend</text>
</g>
<!-- node14&#45;&gt;node15 -->
<g id="edge18" class="edge">
<title>node14&#45;&gt;node15</title>
<path fill="none" stroke="#3cb4a4" d="M553.1,-521.81C552.38,-511.92 552.63,-499.42 556.5,-489 558.2,-484.43 560.76,-480.03 563.68,-475.98"/>
<polygon fill="#3cb4a4" stroke="#3cb4a4" points="566.4,-478.19 569.99,-468.23 560.97,-473.77 566.4,-478.19"/>
<text text-anchor="middle" x="626" y="-492.8" font-family="arial" font-size="14.00" fill="#3cb4a4">value [0 &#45; 2147483646]</text>
</g>
<!-- node17 -->
<g id="node12" class="node">
<title>node17</title>
<polygon fill="#3cb4a4" stroke="black" points="460.5,-384 412.91,-366 460.5,-348 508.09,-366 460.5,-384"/>
<text text-anchor="middle" x="460.5" y="-362.3" font-family="Arial" font-size="14.00" fill="#1a1919">17 &lt;&lt;</text>
</g>
<!-- node15&#45;&gt;node17 -->
<g id="edge19" class="edge">
<title>node15&#45;&gt;node17</title>
<path fill="none" stroke="#3cb4a4" d="M565.69,-438.53C543.84,-423.67 508.65,-399.74 485.06,-383.7"/>
<polygon fill="#3cb4a4" stroke="#3cb4a4" points="486.87,-380.7 476.64,-377.97 482.94,-386.49 486.87,-380.7"/>
<text text-anchor="middle" x="586" y="-405.8" font-family="arial" font-size="14.00" fill="#3cb4a4">x [0 &#45; 2147483646]</text>
</g>
<!-- node19 -->
<g id="node13" class="node">
<title>node19</title>
<polygon fill="#3cb4a4" stroke="black" points="382.5,-297 342.11,-279 382.5,-261 422.89,-279 382.5,-297"/>
<text text-anchor="middle" x="382.5" y="-275.3" font-family="Arial" font-size="14.00" fill="#1a1919">19 +</text>
</g>
<!-- node17&#45;&gt;node19 -->
<g id="edge21" class="edge">
<title>node17&#45;&gt;node19</title>
<path fill="none" stroke="#3cb4a4" d="M448.65,-352.09C435.95,-338.25 415.62,-316.09 400.85,-299.99"/>
<polygon fill="#3cb4a4" stroke="#3cb4a4" points="403.04,-297.2 393.7,-292.2 397.88,-301.94 403.04,-297.2"/>
<text text-anchor="middle" x="482" y="-318.8" font-family="arial" font-size="14.00" fill="#3cb4a4">x [0 &#45; 8589934584]</text>
</g>
<!-- node19&#45;&gt;node20 -->
<g id="edge24" class="edge">
<title>node19&#45;&gt;node20</title>
<path fill="none" stroke="#3cb4a4" d="M382.5,-260.8C382.5,-249.16 382.5,-233.55 382.5,-220.24"/>
<polygon fill="#3cb4a4" stroke="#3cb4a4" points="386,-220.18 382.5,-210.18 379,-220.18 386,-220.18"/>
<text text-anchor="middle" x="456" y="-231.8" font-family="arial" font-size="14.00" fill="#3cb4a4">offset [16 &#45; 8589934600]</text>
</g>
<!-- node20&#45;&gt;node21 -->
<g id="edge26" class="edge">
<title>node20&#45;&gt;node21</title>
<path fill="none" stroke="#3cb4a4" d="M382.5,-173.8C382.5,-162.16 382.5,-146.55 382.5,-133.24"/>
<polygon fill="#3cb4a4" stroke="#3cb4a4" points="386,-133.18 382.5,-123.18 379,-133.18 386,-133.18"/>
<text text-anchor="middle" x="407" y="-144.8" font-family="arial" font-size="14.00" fill="#3cb4a4">address</text>
</g>
<!-- node21&#45;&gt;node5 -->
<g id="edge2" class="edge">
<title>node21&#45;&gt;node5</title>
<path fill="none" stroke="#3cb4a4" d="M368.4,-86.84C364.78,-81.46 361.38,-75.27 359.5,-69 357.09,-60.93 359.06,-52.49 362.69,-44.89"/>
<polygon fill="#3cb4a4" stroke="#3cb4a4" points="365.79,-46.53 367.75,-36.12 359.72,-43.03 365.79,-46.53"/>
<text text-anchor="middle" x="376.5" y="-57.8" font-family="arial" font-size="14.00" fill="#3cb4a4">result</text>
</g>
<!-- node21&#45;&gt;node5 -->
<g id="edge27" class="edge">
<title>node21&#45;&gt;node5</title>
<path fill="none" stroke="#da2d4f" stroke-width="2" d="M389.05,-86.8C390.87,-81.21 392.59,-74.92 393.5,-69 394.67,-61.39 393.79,-53.2 392.11,-45.71"/>
<polygon fill="#da2d4f" stroke="#da2d4f" stroke-width="2" points="395.47,-44.74 389.44,-36.02 388.72,-46.59 395.47,-44.74"/>
</g>
<!-- inline1x6 -->
<g id="node16" class="node">
<title>inline1x6</title>
<ellipse fill="#d7ede7" stroke="black" cx="122.5" cy="-1230" rx="27" ry="18"/>
<text text-anchor="middle" x="122.5" y="-1228.1" font-family="Arial" font-size="8.00" fill="#1a1919">1 P(0)</text>
</g>
<!-- inline1x6&#45;&gt;node6 -->
<g id="edge3" class="edge">
<title>inline1x6&#45;&gt;node6</title>
<path fill="none" stroke="#3cb4a4" d="M122.5,-1211.86C122.5,-1198.61 122.5,-1180.35 122.5,-1167.11"/>
<text text-anchor="middle" x="132" y="-1187.6" font-family="arial" font-size="8.00" fill="#3cb4a4">value</text>
</g>
<!-- inline1x8 -->
<g id="node17" class="node">
<title>inline1x8</title>
<ellipse fill="#d7ede7" stroke="black" cx="290.5" cy="-1062" rx="27" ry="18"/>
<text text-anchor="middle" x="290.5" y="-1060.1" font-family="Arial" font-size="8.00" fill="#1a1919">1 P(0)</text>
</g>
<!-- inline1x8&#45;&gt;node8 -->
<g id="edge7" class="edge">
<title>inline1x8&#45;&gt;node8</title>
<path fill="none" stroke="#3cb4a4" d="M286.66,-1043.8C283.36,-1029.05 278.63,-1007.92 275.34,-993.18"/>
<text text-anchor="middle" x="292.5" y="-1016.6" font-family="arial" font-size="8.00" fill="#3cb4a4">object</text>
</g>
<!-- inline9x10 -->
<g id="node18" class="node">
<title>inline9x10</title>
<ellipse fill="#d7ede7" stroke="black" cx="434.5" cy="-975" rx="27" ry="18"/>
<text text-anchor="middle" x="434.5" y="-973.1" font-family="Arial" font-size="8.00" fill="#1a1919">9 C(12)</text>
</g>
<!-- inline9x10&#45;&gt;node10 -->
<g id="edge9" class="edge">
<title>inline9x10&#45;&gt;node10</title>
<path fill="none" stroke="#3cb4a4" d="M434.5,-956.8C434.5,-942.05 434.5,-920.92 434.5,-906.18"/>
<text text-anchor="middle" x="444.5" y="-929.6" font-family="arial" font-size="8.00" fill="#3cb4a4">offset</text>
</g>
<!-- inline2x12 -->
<g id="node19" class="node">
<title>inline2x12</title>
<ellipse fill="#d7ede7" stroke="black" cx="487.5" cy="-801" rx="27" ry="18"/>
<text text-anchor="middle" x="487.5" y="-799.1" font-family="Arial" font-size="8.00" fill="#1a1919">2 P(1)</text>
</g>
<!-- inline2x12&#45;&gt;node12 -->
<g id="edge12" class="edge">
<title>inline2x12&#45;&gt;node12</title>
<path fill="none" stroke="#3cb4a4" d="M486.89,-782.8C486.37,-767.95 485.62,-746.64 485.1,-731.89"/>
<text text-anchor="middle" x="487.5" y="-755.6" font-family="arial" font-size="8.00" fill="#3cb4a4">x</text>
</g>
<!-- inline2x14 -->
<g id="node20" class="node">
<title>inline2x14</title>
<ellipse fill="#d7ede7" stroke="black" cx="376.5" cy="-627" rx="27" ry="18"/>
<text text-anchor="middle" x="376.5" y="-625.1" font-family="Arial" font-size="8.00" fill="#1a1919">2 P(1)</text>
</g>
<!-- inline2x14&#45;&gt;node14 -->
<g id="edge17" class="edge">
<title>inline2x14&#45;&gt;node14</title>
<path fill="none" stroke="#3cb4a4" d="M398.09,-615.75C430.73,-600.25 492.6,-570.87 528.28,-553.93"/>
<text text-anchor="middle" x="487.5" y="-581.6" font-family="arial" font-size="8.00" fill="#3cb4a4">object</text>
</g>
<!-- inline16x17 -->
<g id="node21" class="node">
<title>inline16x17</title>
<ellipse fill="#d7ede7" stroke="black" cx="444.5" cy="-453" rx="27" ry="18"/>
<text text-anchor="middle" x="444.5" y="-451.1" font-family="Arial" font-size="8.00" fill="#1a1919">16 C(2)</text>
</g>
<!-- inline16x17&#45;&gt;node17 -->
<g id="edge20" class="edge">
<title>inline16x17&#45;&gt;node17</title>
<path fill="none" stroke="#3cb4a4" d="M447.74,-434.8C450.59,-419.66 454.7,-397.8 457.48,-383.03"/>
<text text-anchor="middle" x="454.5" y="-407.6" font-family="arial" font-size="8.00" fill="#3cb4a4">y</text>
</g>
<!-- inline18x19 -->
<g id="node22" class="node">
<title>inline18x19</title>
<ellipse fill="#d7ede7" stroke="black" cx="366.5" cy="-366" rx="27.59" ry="18"/>
<text text-anchor="middle" x="366.5" y="-364.1" font-family="Arial" font-size="8.00" fill="#1a1919">18 C(16)</text>
</g>
<!-- inline18x19&#45;&gt;node19 -->
<g id="edge22" class="edge">
<title>inline18x19&#45;&gt;node19</title>
<path fill="none" stroke="#3cb4a4" d="M369.74,-347.8C372.61,-332.57 376.76,-310.52 379.54,-295.74"/>
<text text-anchor="middle" x="376.5" y="-320.6" font-family="arial" font-size="8.00" fill="#3cb4a4">y</text>
</g>
</g>
</svg>
