<?xml version="1.0" encoding="UTF-8" standalone="no"?>
<!DOCTYPE svg PUBLIC "-//W3C//DTD SVG 1.1//EN"
 "http://www.w3.org/Graphics/SVG/1.1/DTD/svg11.dtd">
<!-- Generated by graphviz version 2.44.0 (20200408.0750)
 -->
<!-- Title: G Pages: 1 -->
<svg width="498pt" height="694pt"
 viewBox="0.00 0.00 498.00 694.00" xmlns="http://www.w3.org/2000/svg" xmlns:xlink="http://www.w3.org/1999/xlink">
<g id="graph0" class="graph" transform="scale(1 1) rotate(0) translate(4 690)">
<title>G</title>
<!-- node0 -->
<g id="node1" class="node">
<title>node0</title>
<polygon fill="#e98693" stroke="black" points="206,-605 150,-605 150,-569 206,-569 206,-605"/>
<text text-anchor="middle" x="178" y="-583.3" font-family="Arial" font-size="14.00" fill="#1a1919">0 Start</text>
</g>
<!-- node9 -->
<g id="node5" class="node">
<title>node9</title>
<polygon fill="#e98693" stroke="black" points="234,-518 180,-518 180,-482 234,-482 234,-518"/>
<text text-anchor="middle" x="207" y="-496.3" font-family="Arial" font-size="14.00" fill="#1a1919">9 If</text>
</g>
<!-- node0&#45;&gt;node9 -->
<g id="edge1" class="edge">
<title>node0&#45;&gt;node9</title>
<path fill="none" stroke="#da2d4f" stroke-width="2" d="M183.87,-568.8C187.88,-557.05 193.27,-541.24 197.84,-527.84"/>
<polygon fill="#da2d4f" stroke="#da2d4f" stroke-width="2" points="201.22,-528.77 201.14,-518.18 194.6,-526.51 201.22,-528.77"/>
</g>
<!-- node6 -->
<g id="node2" class="node">
<title>node6</title>
<polygon fill="#3cb4a4" stroke="black" points="264,-605 223.61,-587 264,-569 304.39,-587 264,-605"/>
<text text-anchor="middle" x="264" y="-583.3" font-family="Arial" font-size="14.00" fill="#1a1919">6 ==</text>
</g>
<!-- node6&#45;&gt;node9 -->
<g id="edge6" class="edge">
<title>node6&#45;&gt;node9</title>
<path fill="none" stroke="#3cb4a4" d="M255.09,-572.72C246.88,-560.46 234.44,-541.92 224.28,-526.77"/>
<polygon fill="#3cb4a4" stroke="#3cb4a4" points="227.08,-524.66 218.6,-518.3 221.27,-528.56 227.08,-524.66"/>
<text text-anchor="middle" x="242" y="-539.8" font-family="arial" font-size="14.00" fill="#3cb4a4">?</text>
</g>
<!-- node7 -->
<g id="node3" class="node">
<title>node7</title>
<polygon fill="#e98693" stroke="black" points="149,-431 87,-431 87,-395 149,-395 149,-431"/>
<text text-anchor="middle" x="118" y="-409.3" font-family="Arial" font-size="14.00" fill="#1a1919">7 Begin</text>
</g>
<!-- node10 -->
<g id="node6" class="node">
<title>node10</title>
<polygon fill="#da2d4f" stroke="black" points="236,-350 0,-350 0,-314 236,-314 236,-350"/>
<text text-anchor="middle" x="118" y="-328.3" font-family="Arial" font-size="14.00" fill="#ffffff">10 StoreField JavaExamples.intField</text>
</g>
<!-- node7&#45;&gt;node10 -->
<g id="edge4" class="edge">
<title>node7&#45;&gt;node10</title>
<path fill="none" stroke="#da2d4f" stroke-width="2" d="M118,-394.86C118,-384.71 118,-371.63 118,-360.12"/>
<polygon fill="#da2d4f" stroke="#da2d4f" stroke-width="2" points="121.5,-360.11 118,-350.11 114.5,-360.11 121.5,-360.11"/>
</g>
<!-- node8 -->
<g id="node4" class="node">
<title>node8</title>
<polygon fill="#e98693" stroke="black" points="314,-431 252,-431 252,-395 314,-395 314,-431"/>
<text text-anchor="middle" x="283" y="-409.3" font-family="Arial" font-size="14.00" fill="#1a1919">8 Begin</text>
</g>
<!-- node13 -->
<g id="node7" class="node">
<title>node13</title>
<polygon fill="#da2d4f" stroke="black" points="490,-350 254,-350 254,-314 490,-314 490,-350"/>
<text text-anchor="middle" x="372" y="-328.3" font-family="Arial" font-size="14.00" fill="#ffffff">13 StoreField JavaExamples.intField</text>
</g>
<!-- node8&#45;&gt;node13 -->
<g id="edge5" class="edge">
<title>node8&#45;&gt;node13</title>
<path fill="none" stroke="#da2d4f" stroke-width="2" d="M302.31,-394.86C314.79,-383.78 331.21,-369.21 344.98,-356.99"/>
<polygon fill="#da2d4f" stroke="#da2d4f" stroke-width="2" points="347.57,-359.36 352.73,-350.11 342.92,-354.13 347.57,-359.36"/>
</g>
<!-- node9&#45;&gt;node7 -->
<g id="edge8" class="edge">
<title>node9&#45;&gt;node7</title>
<path fill="none" stroke="#da2d4f" stroke-width="2" d="M188.99,-481.8C175.84,-469.24 157.84,-452.05 143.26,-438.12"/>
<polygon fill="#da2d4f" stroke="#da2d4f" stroke-width="2" points="145.63,-435.55 135.98,-431.18 140.8,-440.61 145.63,-435.55"/>
<text text-anchor="middle" x="172.5" y="-452.8" font-family="arial" font-size="14.00" fill="#da2d4f">F</text>
</g>
<!-- node9&#45;&gt;node8 -->
<g id="edge7" class="edge">
<title>node9&#45;&gt;node8</title>
<path fill="none" stroke="#da2d4f" stroke-width="2" d="M222.38,-481.8C233.4,-469.47 248.42,-452.68 260.75,-438.89"/>
<polygon fill="#da2d4f" stroke="#da2d4f" stroke-width="2" points="263.59,-440.96 267.64,-431.18 258.37,-436.3 263.59,-440.96"/>
<text text-anchor="middle" x="253.5" y="-452.8" font-family="arial" font-size="14.00" fill="#da2d4f">T</text>
</g>
<!-- node15 -->
<g id="node8" class="node">
<title>node15</title>
<polygon fill="#e98693" stroke="black" points="279.5,-277 220.5,-277 220.5,-241 279.5,-241 279.5,-277"/>
<text text-anchor="middle" x="250" y="-255.3" font-family="Arial" font-size="14.00" fill="#1a1919">15 End</text>
</g>
<!-- node10&#45;&gt;node15 -->
<g id="edge10" class="edge">
<title>node10&#45;&gt;node15</title>
<path fill="none" stroke="#da2d4f" stroke-width="2" d="M149.62,-313.99C168.19,-304.01 191.79,-291.31 211.44,-280.74"/>
<polygon fill="#da2d4f" stroke="#da2d4f" stroke-width="2" points="213.3,-283.71 220.45,-275.89 209.98,-277.55 213.3,-283.71"/>
</g>
<!-- node17 -->
<g id="node10" class="node">
<title>node17</title>
<polygon fill="#e98693" stroke="black" points="378.5,-277 319.5,-277 319.5,-241 378.5,-241 378.5,-277"/>
<text text-anchor="middle" x="349" y="-255.3" font-family="Arial" font-size="14.00" fill="#1a1919">17 End</text>
</g>
<!-- node13&#45;&gt;node17 -->
<g id="edge12" class="edge">
<title>node13&#45;&gt;node17</title>
<path fill="none" stroke="#da2d4f" stroke-width="2" d="M366.43,-313.81C363.8,-305.7 360.61,-295.84 357.67,-286.78"/>
<polygon fill="#da2d4f" stroke="#da2d4f" stroke-width="2" points="360.93,-285.46 354.52,-277.03 354.27,-287.62 360.93,-285.46"/>
</g>
<!-- node16 -->
<g id="node9" class="node">
<title>node16</title>
<polygon fill="#e98693" stroke="black" points="325,-204 251,-204 251,-168 325,-168 325,-204"/>
<text text-anchor="middle" x="288" y="-182.3" font-family="Arial" font-size="14.00" fill="#1a1919">16 Merge</text>
</g>
<!-- node15&#45;&gt;node16 -->
<g id="edge13" class="edge">
<title>node15&#45;&gt;node16</title>
<path fill="none" stroke="#da2d4f" stroke-width="2" d="M259.2,-240.81C263.68,-232.44 269.16,-222.2 274.14,-212.9"/>
<polygon fill="#da2d4f" stroke="#da2d4f" stroke-width="2" points="277.25,-214.5 278.89,-204.03 271.08,-211.19 277.25,-214.5"/>
</g>
<!-- node18 -->
<g id="node11" class="node">
<title>node18</title>
<polygon fill="#f9f9f9" stroke="black" points="377,-123 323,-123 323,-87 377,-87 377,-123"/>
<text text-anchor="middle" x="350" y="-101.3" font-family="Arial" font-size="14.00" fill="#1a1919">18 ϕ</text>
</g>
<!-- node16&#45;&gt;node18 -->
<g id="edge16" class="edge">
<title>node16&#45;&gt;node18</title>
<path fill="none" stroke="#343d46" stroke-dasharray="5,2" d="M307.67,-159.94C317.09,-147.94 328.13,-133.87 336.57,-123.11"/>
<polygon fill="#343d46" stroke="#343d46" points="304.87,-157.83 301.45,-167.86 310.38,-162.15 304.87,-157.83"/>
</g>
<!-- node20 -->
<g id="node12" class="node">
<title>node20</title>
<polygon fill="#e98693" stroke="black" points="348,-36 272,-36 272,0 348,0 348,-36"/>
<text text-anchor="middle" x="310" y="-14.3" font-family="Arial" font-size="14.00" fill="#1a1919">20 Return</text>
</g>
<!-- node16&#45;&gt;node20 -->
<g id="edge15" class="edge">
<title>node16&#45;&gt;node20</title>
<path fill="none" stroke="#da2d4f" stroke-width="2" d="M290.27,-167.86C294.08,-139.16 301.77,-81.13 306.34,-46.61"/>
<polygon fill="#da2d4f" stroke="#da2d4f" stroke-width="2" points="309.86,-46.67 307.71,-36.3 302.92,-45.75 309.86,-46.67"/>
</g>
<!-- node17&#45;&gt;node16 -->
<g id="edge14" class="edge">
<title>node17&#45;&gt;node16</title>
<path fill="none" stroke="#da2d4f" stroke-width="2" d="M334.23,-240.81C326.74,-232.09 317.5,-221.34 309.26,-211.75"/>
<polygon fill="#da2d4f" stroke="#da2d4f" stroke-width="2" points="311.8,-209.33 302.63,-204.03 306.49,-213.89 311.8,-209.33"/>
</g>
<!-- node18&#45;&gt;node20 -->
<g id="edge19" class="edge">
<title>node18&#45;&gt;node20</title>
<path fill="none" stroke="#3cb4a4" d="M341.91,-86.8C336.32,-74.93 328.79,-58.93 322.45,-45.45"/>
<polygon fill="#3cb4a4" stroke="#3cb4a4" points="325.51,-43.73 318.08,-36.18 319.17,-46.71 325.51,-43.73"/>
<text text-anchor="middle" x="349" y="-57.8" font-family="arial" font-size="14.00" fill="#3cb4a4">result</text>
</g>
<!-- inline1x6 -->
<g id="node13" class="node">
<title>inline1x6</title>
<ellipse fill="#d7ede7" stroke="black" cx="228" cy="-668" rx="27" ry="18"/>
<text text-anchor="middle" x="228" y="-666.1" font-family="Arial" font-size="8.00" fill="#1a1919">1 P(0)</text>
</g>
<!-- inline1x6&#45;&gt;node6 -->
<g id="edge2" class="edge">
<title>inline1x6&#45;&gt;node6</title>
<path fill="none" stroke="#3cb4a4" d="M235.46,-650.63C241.97,-636.35 251.31,-615.84 257.52,-602.23"/>
<text text-anchor="middle" x="249" y="-625.6" font-family="arial" font-size="8.00" fill="#3cb4a4">x</text>
</g>
<!-- inline5x6 -->
<g id="node14" class="node">
<title>inline5x6</title>
<ellipse fill="#d7ede7" stroke="black" cx="300" cy="-668" rx="27" ry="18"/>
<text text-anchor="middle" x="300" y="-666.1" font-family="Arial" font-size="8.00" fill="#1a1919">5 C(0)</text>
</g>
<!-- inline5x6&#45;&gt;node6 -->
<g id="edge3" class="edge">
<title>inline5x6&#45;&gt;node6</title>
<path fill="none" stroke="#3cb4a4" d="M292.54,-650.63C286.03,-636.35 276.69,-615.84 270.48,-602.23"/>
<text text-anchor="middle" x="285" y="-625.6" font-family="arial" font-size="8.00" fill="#3cb4a4">y</text>
</g>
<!-- inline2x10 -->
<g id="node15" class="node">
<title>inline2x10</title>
<ellipse fill="#d7ede7" stroke="black" cx="194" cy="-413" rx="27" ry="18"/>
<text text-anchor="middle" x="194" y="-411.1" font-family="Arial" font-size="8.00" fill="#1a1919">2 P(1)</text>
</g>
<!-- inline2x10&#45;&gt;node10 -->
<g id="edge9" class="edge">
<title>inline2x10&#45;&gt;node10</title>
<path fill="none" stroke="#3cb4a4" d="M180.06,-397.51C167.2,-384.15 148.11,-364.3 134.5,-350.15"/>
<text text-anchor="middle" x="168.5" y="-370.6" font-family="arial" font-size="8.00" fill="#3cb4a4">value</text>
</g>
<!-- inline3x13 -->
<g id="node16" class="node">
<title>inline3x13</title>
<ellipse fill="#d7ede7" stroke="black" cx="372" cy="-413" rx="27" ry="18"/>
<text text-anchor="middle" x="372" y="-411.1" font-family="Arial" font-size="8.00" fill="#1a1919">3 P(2)</text>
</g>
<!-- inline3x13&#45;&gt;node13 -->
<g id="edge11" class="edge">
<title>inline3x13&#45;&gt;node13</title>
<path fill="none" stroke="#3cb4a4" d="M372,-394.86C372,-381.61 372,-363.35 372,-350.11"/>
<text text-anchor="middle" x="381.5" y="-370.6" font-family="arial" font-size="8.00" fill="#3cb4a4">value</text>
</g>
<!-- inline2x18 -->
<g id="node17" class="node">
<title>inline2x18</title>
<ellipse fill="#d7ede7" stroke="black" cx="370" cy="-186" rx="27" ry="18"/>
<text text-anchor="middle" x="370" y="-184.1" font-family="Arial" font-size="8.00" fill="#1a1919">2 P(1)</text>
</g>
<!-- inline2x18&#45;&gt;node18 -->
<g id="edge17" class="edge">
<title>inline2x18&#45;&gt;node18</title>
<path fill="none" stroke="#3cb4a4" d="M365.66,-167.86C362.31,-154.61 357.68,-136.35 354.33,-123.11"/>
<text text-anchor="middle" x="374" y="-143.6" font-family="arial" font-size="8.00" fill="#3cb4a4">from 15</text>
</g>
<!-- inline3x18 -->
<g id="node18" class="node">
<title>inline3x18</title>
<ellipse fill="#d7ede7" stroke="black" cx="442" cy="-186" rx="27" ry="18"/>
<text text-anchor="middle" x="442" y="-184.1" font-family="Arial" font-size="8.00" fill="#1a1919">3 P(2)</text>
</g>
<!-- inline3x18&#45;&gt;node18 -->
<g id="edge18" class="edge">
<title>inline3x18&#45;&gt;node18</title>
<path fill="none" stroke="#3cb4a4" d="M426.33,-171.02C416.52,-162.32 403.59,-150.93 392,-141 385.22,-135.2 377.76,-128.94 371.03,-123.34"/>
<text text-anchor="middle" x="415" y="-143.6" font-family="arial" font-size="8.00" fill="#3cb4a4">from 17</text>
</g>
</g>
</svg>
