<?xml version="1.0" encoding="UTF-8" standalone="no"?>
<!DOCTYPE svg PUBLIC "-//W3C//DTD SVG 1.1//EN"
 "http://www.w3.org/Graphics/SVG/1.1/DTD/svg11.dtd">
<!-- Generated by graphviz version 2.43.0 (0)
 -->
<!-- Title: G Pages: 1 -->
<svg width="371pt" height="471pt"
 viewBox="0.00 0.00 370.62 470.69" xmlns="http://www.w3.org/2000/svg" xmlns:xlink="http://www.w3.org/1999/xlink">
<g id="graph0" class="graph" transform="scale(1 1) rotate(0) translate(4 466.69)">
<title>G</title>
' points="-4,4 -4,-466.69 366.62,-466.69 366.62,4 -4,4"/>
<!-- node0 -->
<g id="node1" class="node">
<title>node0</title>
<polygon fill="#e98693" stroke="black" points="57.36,-462.69 -0.12,-462.69 -0.12,-426.69 57.36,-426.69 57.36,-462.69"/>
<text text-anchor="middle" x="28.62" y="-441.54" font-family="Arial" font-size="14.00" fill="#1a1919">0 Start</text>
</g>
<!-- node4 -->
<g id="node2" class="node">
<title>node4</title>
<polygon fill="#da2d4f" stroke="black" points="110.25,-381.5 20.99,-381.5 20.99,-345.5 110.25,-345.5 110.25,-381.5"/>
<text text-anchor="middle" x="65.62" y="-360.34" font-family="Arial" font-size="14.00" fill="#ffffff">4 NewArray</text>
</g>
<!-- node0&#45;&gt;node4 -->
<g id="edge1" class="edge">
<title>node0&#45;&gt;node4</title>
<path fill="none" stroke="#da2d4f" stroke-width="2" d="M36.65,-426.51C41.5,-416.13 47.78,-402.69 53.25,-390.98"/>
<polygon fill="#da2d4f" stroke="#da2d4f" stroke-width="2" points="56.55,-392.19 57.61,-381.65 50.2,-389.23 56.55,-392.19"/>
</g>
<!-- node6 -->
<g id="node3" class="node">
<title>node6</title>
<polygon fill="#da2d4f" stroke="black" points="217.08,-293.4 106.16,-293.4 106.16,-257.4 217.08,-257.4 217.08,-293.4"/>
<text text-anchor="middle" x="161.62" y="-272.25" font-family="Arial" font-size="14.00" fill="#ffffff">6 StoreIndexed</text>
</g>
<!-- node4&#45;&gt;node6 -->
<g id="edge3" class="edge">
<title>node4&#45;&gt;node6</title>
<path fill="none" stroke="#da2d4f" stroke-width="2" d="M71.64,-345.16C76.09,-334.38 83.03,-320.82 92.62,-311.4 97.45,-306.65 103.05,-302.42 108.93,-298.68"/>
<polygon fill="#da2d4f" stroke="#da2d4f" stroke-width="2" points="110.83,-301.62 117.69,-293.55 107.29,-295.58 110.83,-301.62"/>
</g>
<!-- node4&#45;&gt;node6 -->
<g id="edge4" class="edge">
<title>node4&#45;&gt;node6</title>
<path fill="none" stroke="#3cb4a4" d="M84.59,-345.48C98.96,-332.6 118.89,-314.72 134.87,-300.38"/>
<polygon fill="#3cb4a4" stroke="#3cb4a4" points="137.26,-302.95 142.36,-293.67 132.58,-297.74 137.26,-302.95"/>
<text text-anchor="middle" x="137.57" y="-316.3" font-family="arial" font-size="14.00" fill="#3cb4a4">array</text>
</g>
<!-- node8 -->
<g id="node4" class="node">
<title>node8</title>
<polygon fill="#da2d4f" stroke="black" points="290.63,-205.3 32.61,-205.3 32.61,-169.3 290.63,-169.3 290.63,-205.3"/>
<text text-anchor="middle" x="161.62" y="-184.15" font-family="Arial" font-size="14.00" fill="#ffffff">8 StoreField JavaExamples.objectField</text>
</g>
<!-- node4&#45;&gt;node8 -->
<g id="edge8" class="edge">
<title>node4&#45;&gt;node8</title>
<path fill="none" stroke="#3cb4a4" d="M60.69,-345.36C55.42,-323.58 49.66,-285.44 64.15,-257.4 74.59,-237.19 93.97,-221.62 112.71,-210.42"/>
<polygon fill="#3cb4a4" stroke="#3cb4a4" points="114.55,-213.4 121.53,-205.43 111.1,-207.31 114.55,-213.4"/>
<text text-anchor="middle" x="81.35" y="-272.25" font-family="arial" font-size="14.00" fill="#3cb4a4">value</text>
</g>
<!-- node10 -->
<g id="node5" class="node">
<title>node10</title>
<polygon fill="#da2d4f" stroke="black" points="220.05,-124.1 103.19,-124.1 103.19,-88.1 220.05,-88.1 220.05,-124.1"/>
<text text-anchor="middle" x="161.62" y="-102.95" font-family="Arial" font-size="14.00" fill="#ffffff">10 LoadIndexed</text>
</g>
<!-- node4&#45;&gt;node10 -->
<g id="edge10" class="edge">
<title>node4&#45;&gt;node10</title>
<path fill="none" stroke="#3cb4a4" d="M54.11,-345.49C31.58,-309.88 -13.08,-226.09 23.62,-169.3 39.31,-145.02 66.99,-130.12 93.46,-121.03"/>
<polygon fill="#3cb4a4" stroke="#3cb4a4" points="94.68,-124.31 103.14,-117.93 92.55,-117.64 94.68,-124.31"/>
<text text-anchor="middle" x="27.57" y="-228.2" font-family="arial" font-size="14.00" fill="#3cb4a4">array</text>
</g>
<!-- node6&#45;&gt;node8 -->
<g id="edge7" class="edge">
<title>node6&#45;&gt;node8</title>
<path fill="none" stroke="#da2d4f" stroke-width="2" d="M161.62,-257.39C161.62,-245.55 161.62,-229.52 161.62,-215.87"/>
<polygon fill="#da2d4f" stroke="#da2d4f" stroke-width="2" points="165.12,-215.57 161.62,-205.57 158.12,-215.57 165.12,-215.57"/>
</g>
<!-- node8&#45;&gt;node10 -->
<g id="edge9" class="edge">
<title>node8&#45;&gt;node10</title>
<path fill="none" stroke="#da2d4f" stroke-width="2" d="M161.62,-169.11C161.62,-158.94 161.62,-145.83 161.62,-134.28"/>
<polygon fill="#da2d4f" stroke="#da2d4f" stroke-width="2" points="165.12,-134.25 161.62,-124.25 158.12,-134.25 165.12,-134.25"/>
</g>
<!-- node11 -->
<g id="node6" class="node">
<title>node11</title>
<polygon fill="#e98693" stroke="black" points="200.07,-36 123.18,-36 123.18,0 200.07,0 200.07,-36"/>
<text text-anchor="middle" x="161.62" y="-14.85" font-family="Arial" font-size="14.00" fill="#1a1919">11 Return</text>
</g>
<!-- node10&#45;&gt;node11 -->
<g id="edge12" class="edge">
<title>node10&#45;&gt;node11</title>
<path fill="none" stroke="#da2d4f" stroke-width="2" d="M160.45,-88.02C160.11,-82.32 159.79,-75.94 159.62,-70.1 159.42,-62.95 159.42,-61.15 159.62,-54 159.69,-51.44 159.8,-48.79 159.92,-46.13"/>
<polygon fill="#da2d4f" stroke="#da2d4f" stroke-width="2" points="163.42,-46.25 160.45,-36.08 156.43,-45.88 163.42,-46.25"/>
</g>
<!-- node10&#45;&gt;node11 -->
<g id="edge13" class="edge">
<title>node10&#45;&gt;node11</title>
<path fill="none" stroke="#3cb4a4" d="M161.62,-88.09C161.62,-76.26 161.62,-60.22 161.62,-46.57"/>
<polygon fill="#3cb4a4" stroke="#3cb4a4" points="165.12,-46.27 161.62,-36.27 158.12,-46.27 165.12,-46.27"/>
<text text-anchor="middle" x="178.74" y="-58.9" font-family="arial" font-size="14.00" fill="#3cb4a4">result</text>
</g>
<!-- inline3x4 -->
<g id="node7" class="node">
<title>inline3x4</title>
<ellipse fill="#d7ede7" stroke="black" cx="102.62" cy="-444.69" rx="27" ry="18"/>
<text text-anchor="middle" x="102.62" y="-442.89" font-family="Arial" font-size="8.00" fill="#1a1919">3 C(1)</text>
</g>
<!-- inline3x4&#45;&gt;node4 -->
<g id="edge2" class="edge">
<title>inline3x4&#45;&gt;node4</title>
<path fill="none" stroke="#3cb4a4" d="M94.95,-427.28C88.73,-413.96 79.98,-395.24 73.66,-381.71"/>
<text text-anchor="middle" x="95.52" y="-402.29" font-family="arial" font-size="8.00" fill="#3cb4a4">length</text>
</g>
<!-- inline5x6 -->
<g id="node8" class="node">
<title>inline5x6</title>
<ellipse fill="#d7ede7" stroke="black" cx="166.62" cy="-363.5" rx="27" ry="18"/>
<text text-anchor="middle" x="166.62" y="-361.69" font-family="Arial" font-size="8.00" fill="#1a1919">5 C(0)</text>
</g>
<!-- inline5x6&#45;&gt;node6 -->
<g id="edge5" class="edge">
<title>inline5x6&#45;&gt;node6</title>
<path fill="none" stroke="#3cb4a4" d="M165.63,-345.48C164.76,-330.49 163.5,-308.74 162.62,-293.67"/>
<text text-anchor="middle" x="173.18" y="-317.65" font-family="arial" font-size="8.00" fill="#3cb4a4">index</text>
</g>
<!-- inline1x6 -->
<g id="node9" class="node">
<title>inline1x6</title>
<ellipse fill="#d7ede7" stroke="black" cx="238.62" cy="-363.5" rx="27" ry="18"/>
<text text-anchor="middle" x="238.62" y="-361.69" font-family="Arial" font-size="8.00" fill="#1a1919">1 P(0)</text>
</g>
<!-- inline1x6&#45;&gt;node6 -->
<g id="edge6" class="edge">
<title>inline1x6&#45;&gt;node6</title>
<path fill="none" stroke="#3cb4a4" d="M225.21,-347.5C211.76,-332.47 191.09,-309.35 176.99,-293.59"/>
<text text-anchor="middle" x="216.18" y="-317.65" font-family="arial" font-size="8.00" fill="#3cb4a4">value</text>
</g>
<!-- inline5x10 -->
<g id="node10" class="node">
<title>inline5x10</title>
<ellipse fill="#d7ede7" stroke="black" cx="335.62" cy="-187.3" rx="27" ry="18"/>
<text text-anchor="middle" x="335.62" y="-185.5" font-family="Arial" font-size="8.00" fill="#1a1919">5 C(0)</text>
</g>
<!-- inline5x10&#45;&gt;node10 -->
<g id="edge11" class="edge">
<title>inline5x10&#45;&gt;node10</title>
<path fill="none" stroke="#3cb4a4" d="M314.33,-176.17C309.5,-173.89 304.39,-171.5 299.62,-169.3 266.09,-153.83 227.8,-136.6 200.07,-124.21"/>
<text text-anchor="middle" x="267.18" y="-144.9" font-family="arial" font-size="8.00" fill="#3cb4a4">index</text>
</g>
</g>
</svg>
