<?xml version="1.0" encoding="UTF-8" standalone="no"?>
<!DOCTYPE svg PUBLIC "-//W3C//DTD SVG 1.1//EN"
 "http://www.w3.org/Graphics/SVG/1.1/DTD/svg11.dtd">
<!-- Generated by graphviz version 2.43.0 (0)
 -->
<!-- Title: G Pages: 1 -->
<svg width="282pt" height="198pt"
 viewBox="0.00 0.00 281.62 198.20" xmlns="http://www.w3.org/2000/svg" xmlns:xlink="http://www.w3.org/1999/xlink">
<g id="graph0" class="graph" transform="scale(1 1) rotate(0) translate(4 194.2)">
<title>G</title>
' points="-4,4 -4,-194.2 277.62,-194.2 277.62,4 -4,4"/>
<!-- node0 -->
<g id="node1" class="node">
<title>node0</title>
<polygon fill="#e98693" stroke="black" points="57.36,-190.2 -0.12,-190.2 -0.12,-154.2 57.36,-154.2 57.36,-190.2"/>
<text text-anchor="middle" x="28.62" y="-169.05" font-family="Arial" font-size="14.00" fill="#1a1919">0 Start</text>
</g>
<!-- node5 -->
<g id="node2" class="node">
<title>node5</title>
<polygon fill="#da2d4f" stroke="black" points="194.08,-109 83.16,-109 83.16,-73 194.08,-73 194.08,-109"/>
<text text-anchor="middle" x="138.62" y="-87.85" font-family="Arial" font-size="14.00" fill="#ffffff">5 StoreIndexed</text>
</g>
<!-- node0&#45;&gt;node5 -->
<g id="edge1" class="edge">
<title>node0&#45;&gt;node5</title>
<path fill="none" stroke="#da2d4f" stroke-width="2" d="M52.49,-154.01C68.35,-142.6 89.35,-127.48 106.64,-115.02"/>
<polygon fill="#da2d4f" stroke="#da2d4f" stroke-width="2" points="108.73,-117.83 114.8,-109.15 104.64,-112.15 108.73,-117.83"/>
</g>
<!-- node7 -->
<g id="node3" class="node">
<title>node7</title>
<polygon fill="#e98693" stroke="black" points="173.32,-36 103.92,-36 103.92,0 173.32,0 173.32,-36"/>
<text text-anchor="middle" x="138.62" y="-14.85" font-family="Arial" font-size="14.00" fill="#1a1919">7 Return</text>
</g>
<!-- node5&#45;&gt;node7 -->
<g id="edge5" class="edge">
<title>node5&#45;&gt;node7</title>
<path fill="none" stroke="#da2d4f" stroke-width="2" d="M138.62,-72.81C138.62,-64.79 138.62,-55.05 138.62,-46.07"/>
<polygon fill="#da2d4f" stroke="#da2d4f" stroke-width="2" points="142.12,-46.03 138.62,-36.03 135.12,-46.03 142.12,-46.03"/>
</g>
<!-- inline1x5 -->
<g id="node4" class="node">
<title>inline1x5</title>
<ellipse fill="#d7ede7" stroke="black" cx="102.62" cy="-172.2" rx="27" ry="18"/>
<text text-anchor="middle" x="102.62" y="-170.4" font-family="Arial" font-size="8.00" fill="#1a1919">1 P(0)</text>
</g>
<!-- inline1x5&#45;&gt;node5 -->
<g id="edge2" class="edge">
<title>inline1x5&#45;&gt;node5</title>
<path fill="none" stroke="#3cb4a4" d="M110.08,-154.79C116.13,-141.47 124.65,-122.74 130.8,-109.21"/>
<text text-anchor="middle" x="131.73" y="-129.8" font-family="arial" font-size="8.00" fill="#3cb4a4">array</text>
</g>
<!-- inline2x5 -->
<g id="node5" class="node">
<title>inline2x5</title>
<ellipse fill="#d7ede7" stroke="black" cx="174.62" cy="-172.2" rx="27" ry="18"/>
<text text-anchor="middle" x="174.62" y="-170.4" font-family="Arial" font-size="8.00" fill="#1a1919">2 P(1)</text>
</g>
<!-- inline2x5&#45;&gt;node5 -->
<g id="edge3" class="edge">
<title>inline2x5&#45;&gt;node5</title>
<path fill="none" stroke="#3cb4a4" d="M167.16,-154.79C161.11,-141.47 152.59,-122.74 146.44,-109.21"/>
<text text-anchor="middle" x="167.18" y="-129.8" font-family="arial" font-size="8.00" fill="#3cb4a4">index</text>
</g>
<!-- inline3x5 -->
<g id="node6" class="node">
<title>inline3x5</title>
<ellipse fill="#d7ede7" stroke="black" cx="246.62" cy="-172.2" rx="27" ry="18"/>
<text text-anchor="middle" x="246.62" y="-170.4" font-family="Arial" font-size="8.00" fill="#1a1919">3 P(2)</text>
</g>
<!-- inline3x5&#45;&gt;node5 -->
<g id="edge4" class="edge">
<title>inline3x5&#45;&gt;node5</title>
<path fill="none" stroke="#3cb4a4" d="M228.79,-158.12C210.57,-144.76 182.2,-123.96 162.15,-109.26"/>
<text text-anchor="middle" x="205.18" y="-129.8" font-family="arial" font-size="8.00" fill="#3cb4a4">value</text>
</g>
</g>
</svg>
