<?xml version="1.0" encoding="UTF-8" standalone="no"?>
<!DOCTYPE svg PUBLIC "-//W3C//DTD SVG 1.1//EN"
 "http://www.w3.org/Graphics/SVG/1.1/DTD/svg11.dtd">
<!-- Generated by graphviz version 2.44.0 (20200408.0750)
 -->
<!-- Title: G Pages: 1 -->
<svg width="237pt" height="198pt"
 viewBox="0.00 0.00 237.00 198.00" xmlns="http://www.w3.org/2000/svg" xmlns:xlink="http://www.w3.org/1999/xlink">
<g id="graph0" class="graph" transform="scale(1 1) rotate(0) translate(4 194)">
<title>G</title>
<!-- node0 -->
<g id="node1" class="node">
<title>node0</title>
<polygon fill="#e98693" stroke="black" points="106.5,-190 50.5,-190 50.5,-154 106.5,-154 106.5,-190"/>
<text text-anchor="middle" x="78.5" y="-168.3" font-family="Arial" font-size="14.00" fill="#1a1919">0 Start</text>
</g>
<!-- node7 -->
<g id="node2" class="node">
<title>node7</title>
<polygon fill="#da2d4f" stroke="black" points="229,-109 0,-109 0,-73 229,-73 229,-109"/>
<text text-anchor="middle" x="114.5" y="-87.3" font-family="Arial" font-size="14.00" fill="#ffffff">7 StoreField JavaExamples.intField</text>
</g>
<!-- node0&#45;&gt;node7 -->
<g id="edge1" class="edge">
<title>node0&#45;&gt;node7</title>
<path fill="none" stroke="#da2d4f" stroke-width="2" d="M86.31,-153.86C91.03,-143.51 97.14,-130.1 102.46,-118.41"/>
<polygon fill="#da2d4f" stroke="#da2d4f" stroke-width="2" points="105.74,-119.66 106.7,-109.11 99.37,-116.76 105.74,-119.66"/>
</g>
<!-- node11 -->
<g id="node3" class="node">
<title>node11</title>
<polygon fill="#e98693" stroke="black" points="152,-36 77,-36 77,0 152,0 152,-36"/>
<text text-anchor="middle" x="114.5" y="-14.3" font-family="Arial" font-size="14.00" fill="#1a1919">11 Return</text>
</g>
<!-- node7&#45;&gt;node11 -->
<g id="edge3" class="edge">
<title>node7&#45;&gt;node11</title>
<path fill="none" stroke="#da2d4f" stroke-width="2" d="M114.5,-72.81C114.5,-64.79 114.5,-55.05 114.5,-46.07"/>
<polygon fill="#da2d4f" stroke="#da2d4f" stroke-width="2" points="118,-46.03 114.5,-36.03 111,-46.03 118,-46.03"/>
</g>
<!-- inline1x7 -->
<g id="node4" class="node">
<title>inline1x7</title>
<ellipse fill="#d7ede7" stroke="black" cx="151.5" cy="-172" rx="27" ry="18"/>
<text text-anchor="middle" x="151.5" y="-170.1" font-family="Arial" font-size="8.00" fill="#1a1919">1 P(0)</text>
</g>
<!-- inline1x7&#45;&gt;node7 -->
<g id="edge2" class="edge">
<title>inline1x7&#45;&gt;node7</title>
<path fill="none" stroke="#3cb4a4" d="M143.83,-154.63C137.61,-141.34 128.86,-122.67 122.54,-109.17"/>
<text text-anchor="middle" x="143" y="-129.6" font-family="arial" font-size="8.00" fill="#3cb4a4">value</text>
</g>
</g>
</svg>
