<?xml version="1.0" encoding="UTF-8" standalone="no"?>
<!DOCTYPE svg PUBLIC "-//W3C//DTD SVG 1.1//EN"
 "http://www.w3.org/Graphics/SVG/1.1/DTD/svg11.dtd">
<!-- Generated by graphviz version 2.44.0 (20200408.0750)
 -->
<!-- Title: G Pages: 1 -->
<svg width="419pt" height="1101pt"
 viewBox="0.00 0.00 419.00 1101.00" xmlns="http://www.w3.org/2000/svg" xmlns:xlink="http://www.w3.org/1999/xlink">
<g id="graph0" class="graph" transform="scale(1 1) rotate(0) translate(4 1097)">
<title>G</title>
<!-- node0 -->
<g id="node1" class="node">
<title>node0</title>
<polygon fill="#e98693" stroke="black" points="200,-1012 144,-1012 144,-976 200,-976 200,-1012"/>
<text text-anchor="middle" x="172" y="-990.3" font-family="Arial" font-size="14.00" fill="#1a1919">0 Start</text>
</g>
<!-- node8 -->
<g id="node5" class="node">
<title>node8</title>
<polygon fill="#e98693" stroke="black" points="215,-925 161,-925 161,-889 215,-889 215,-925"/>
<text text-anchor="middle" x="188" y="-903.3" font-family="Arial" font-size="14.00" fill="#1a1919">8 If</text>
</g>
<!-- node0&#45;&gt;node8 -->
<g id="edge1" class="edge">
<title>node0&#45;&gt;node8</title>
<path fill="none" stroke="#da2d4f" stroke-width="2" d="M175.24,-975.8C177.43,-964.16 180.37,-948.55 182.87,-935.24"/>
<polygon fill="#da2d4f" stroke="#da2d4f" stroke-width="2" points="186.36,-935.65 184.77,-925.18 179.48,-934.36 186.36,-935.65"/>
</g>
<!-- node5 -->
<g id="node2" class="node">
<title>node5</title>
<polygon fill="#3cb4a4" stroke="black" points="258,-1012 217.61,-994 258,-976 298.39,-994 258,-1012"/>
<text text-anchor="middle" x="258" y="-990.3" font-family="Arial" font-size="14.00" fill="#1a1919">5 ==</text>
</g>
<!-- node5&#45;&gt;node8 -->
<g id="edge6" class="edge">
<title>node5&#45;&gt;node8</title>
<path fill="none" stroke="#3cb4a4" d="M247.67,-980.46C237.44,-968.03 221.48,-948.65 208.64,-933.06"/>
<polygon fill="#3cb4a4" stroke="#3cb4a4" points="211.31,-930.8 202.26,-925.31 205.91,-935.25 211.31,-930.8"/>
<text text-anchor="middle" x="232" y="-946.8" font-family="arial" font-size="14.00" fill="#3cb4a4">?</text>
</g>
<!-- node6 -->
<g id="node3" class="node">
<title>node6</title>
<polygon fill="#e98693" stroke="black" points="259,-838 197,-838 197,-802 259,-802 259,-838"/>
<text text-anchor="middle" x="228" y="-816.3" font-family="Arial" font-size="14.00" fill="#1a1919">6 Begin</text>
</g>
<!-- node14 -->
<g id="node9" class="node">
<title>node14</title>
<polygon fill="#e98693" stroke="black" points="256.5,-765 197.5,-765 197.5,-729 256.5,-729 256.5,-765"/>
<text text-anchor="middle" x="227" y="-743.3" font-family="Arial" font-size="14.00" fill="#1a1919">14 End</text>
</g>
<!-- node6&#45;&gt;node14 -->
<g id="edge4" class="edge">
<title>node6&#45;&gt;node14</title>
<path fill="none" stroke="#da2d4f" stroke-width="2" d="M227.76,-801.81C227.64,-793.79 227.51,-784.05 227.38,-775.07"/>
<polygon fill="#da2d4f" stroke="#da2d4f" stroke-width="2" points="230.88,-774.98 227.24,-765.03 223.88,-775.08 230.88,-774.98"/>
</g>
<!-- node7 -->
<g id="node4" class="node">
<title>node7</title>
<polygon fill="#e98693" stroke="black" points="179,-838 117,-838 117,-802 179,-802 179,-838"/>
<text text-anchor="middle" x="148" y="-816.3" font-family="Arial" font-size="14.00" fill="#1a1919">7 Begin</text>
</g>
<!-- node12 -->
<g id="node7" class="node">
<title>node12</title>
<polygon fill="#e98693" stroke="black" points="179.5,-765 120.5,-765 120.5,-729 179.5,-729 179.5,-765"/>
<text text-anchor="middle" x="150" y="-743.3" font-family="Arial" font-size="14.00" fill="#1a1919">12 End</text>
</g>
<!-- node7&#45;&gt;node12 -->
<g id="edge5" class="edge">
<title>node7&#45;&gt;node12</title>
<path fill="none" stroke="#da2d4f" stroke-width="2" d="M148.48,-801.81C148.71,-793.79 148.98,-784.05 149.24,-775.07"/>
<polygon fill="#da2d4f" stroke="#da2d4f" stroke-width="2" points="152.74,-775.12 149.52,-765.03 145.74,-774.93 152.74,-775.12"/>
</g>
<!-- node8&#45;&gt;node6 -->
<g id="edge8" class="edge">
<title>node8&#45;&gt;node6</title>
<path fill="none" stroke="#da2d4f" stroke-width="2" d="M196.09,-888.8C201.68,-876.93 209.21,-860.93 215.55,-847.45"/>
<polygon fill="#da2d4f" stroke="#da2d4f" stroke-width="2" points="218.83,-848.71 219.92,-838.18 212.49,-845.73 218.83,-848.71"/>
<text text-anchor="middle" x="215.5" y="-859.8" font-family="arial" font-size="14.00" fill="#da2d4f">F</text>
</g>
<!-- node8&#45;&gt;node7 -->
<g id="edge7" class="edge">
<title>node8&#45;&gt;node7</title>
<path fill="none" stroke="#da2d4f" stroke-width="2" d="M179.91,-888.8C174.32,-876.93 166.79,-860.93 160.45,-847.45"/>
<polygon fill="#da2d4f" stroke="#da2d4f" stroke-width="2" points="163.51,-845.73 156.08,-838.18 157.17,-848.71 163.51,-845.73"/>
<text text-anchor="middle" x="175.5" y="-859.8" font-family="arial" font-size="14.00" fill="#da2d4f">T</text>
</g>
<!-- node11 -->
<g id="node6" class="node">
<title>node11</title>
<polygon fill="#3cb4a4" stroke="black" points="314,-684 274.45,-666 314,-648 353.55,-666 314,-684"/>
<text text-anchor="middle" x="314" y="-662.3" font-family="Arial" font-size="14.00" fill="#1a1919">11 +</text>
</g>
<!-- node15 -->
<g id="node10" class="node">
<title>node15</title>
<polygon fill="#f9f9f9" stroke="black" points="209,-597 155,-597 155,-561 209,-561 209,-597"/>
<text text-anchor="middle" x="182" y="-575.3" font-family="Arial" font-size="14.00" fill="#1a1919">15 ϕ</text>
</g>
<!-- node11&#45;&gt;node15 -->
<g id="edge16" class="edge">
<title>node11&#45;&gt;node15</title>
<path fill="none" stroke="#3cb4a4" d="M298.34,-654.92C278.46,-642.11 243.58,-619.65 217.18,-602.65"/>
<polygon fill="#3cb4a4" stroke="#3cb4a4" points="218.89,-599.59 208.59,-597.12 215.1,-605.48 218.89,-599.59"/>
<text text-anchor="middle" x="279.5" y="-618.8" font-family="arial" font-size="14.00" fill="#3cb4a4">from 14</text>
</g>
<!-- node13 -->
<g id="node8" class="node">
<title>node13</title>
<polygon fill="#e98693" stroke="black" points="256,-684 182,-684 182,-648 256,-648 256,-684"/>
<text text-anchor="middle" x="219" y="-662.3" font-family="Arial" font-size="14.00" fill="#1a1919">13 Merge</text>
</g>
<!-- node12&#45;&gt;node13 -->
<g id="edge11" class="edge">
<title>node12&#45;&gt;node13</title>
<path fill="none" stroke="#da2d4f" stroke-width="2" d="M164.97,-728.86C174.47,-717.99 186.9,-703.75 197.45,-691.67"/>
<polygon fill="#da2d4f" stroke="#da2d4f" stroke-width="2" points="200.12,-693.94 204.06,-684.11 194.84,-689.34 200.12,-693.94"/>
</g>
<!-- node13&#45;&gt;node15 -->
<g id="edge14" class="edge">
<title>node13&#45;&gt;node15</title>
<path fill="none" stroke="#343d46" stroke-dasharray="5,2" d="M207.47,-638.52C201.61,-625.04 194.64,-609.04 189.48,-597.18"/>
<polygon fill="#343d46" stroke="#343d46" points="204.31,-640.03 211.51,-647.8 210.73,-637.23 204.31,-640.03"/>
</g>
<!-- node17 -->
<g id="node11" class="node">
<title>node17</title>
<polygon fill="#e98693" stroke="black" points="289.5,-597 230.5,-597 230.5,-561 289.5,-561 289.5,-597"/>
<text text-anchor="middle" x="260" y="-575.3" font-family="Arial" font-size="14.00" fill="#1a1919">17 End</text>
</g>
<!-- node13&#45;&gt;node17 -->
<g id="edge13" class="edge">
<title>node13&#45;&gt;node17</title>
<path fill="none" stroke="#da2d4f" stroke-width="2" d="M227.3,-647.8C233.02,-635.93 240.74,-619.93 247.24,-606.45"/>
<polygon fill="#da2d4f" stroke="#da2d4f" stroke-width="2" points="250.52,-607.7 251.72,-597.18 244.22,-604.66 250.52,-607.7"/>
</g>
<!-- node14&#45;&gt;node13 -->
<g id="edge12" class="edge">
<title>node14&#45;&gt;node13</title>
<path fill="none" stroke="#da2d4f" stroke-width="2" d="M225.26,-728.86C224.24,-718.71 222.91,-705.63 221.75,-694.12"/>
<polygon fill="#da2d4f" stroke="#da2d4f" stroke-width="2" points="225.22,-693.7 220.73,-684.11 218.26,-694.41 225.22,-693.7"/>
</g>
<!-- node19 -->
<g id="node13" class="node">
<title>node19</title>
<polygon fill="#f9f9f9" stroke="black" points="116,-451 62,-451 62,-415 116,-415 116,-451"/>
<text text-anchor="middle" x="89" y="-429.3" font-family="Arial" font-size="14.00" fill="#1a1919">19 ϕ</text>
</g>
<!-- node15&#45;&gt;node19 -->
<g id="edge20" class="edge">
<title>node15&#45;&gt;node19</title>
<path fill="none" stroke="#3cb4a4" d="M170.97,-560.92C154.75,-535.8 124.35,-488.73 105.48,-459.51"/>
<polygon fill="#3cb4a4" stroke="#3cb4a4" points="108.38,-457.56 100.02,-451.06 102.5,-461.36 108.38,-457.56"/>
<text text-anchor="middle" x="170.5" y="-502.3" font-family="arial" font-size="14.00" fill="#3cb4a4">from 17</text>
</g>
<!-- node18 -->
<g id="node12" class="node">
<title>node18</title>
<polygon fill="#e98693" stroke="black" points="338,-524 238,-524 238,-488 338,-488 338,-524"/>
<text text-anchor="middle" x="288" y="-502.3" font-family="Arial" font-size="14.00" fill="#1a1919">18 LoopBegin</text>
</g>
<!-- node17&#45;&gt;node18 -->
<g id="edge17" class="edge">
<title>node17&#45;&gt;node18</title>
<path fill="none" stroke="#da2d4f" stroke-width="2" d="M266.78,-560.81C270.01,-552.62 273.95,-542.62 277.56,-533.48"/>
<polygon fill="#da2d4f" stroke="#da2d4f" stroke-width="2" points="280.87,-534.62 281.28,-524.03 274.36,-532.05 280.87,-534.62"/>
</g>
<!-- node18&#45;&gt;node19 -->
<g id="edge19" class="edge">
<title>node18&#45;&gt;node19</title>
<path fill="none" stroke="#343d46" stroke-dasharray="5,2" d="M228.04,-487.05C196.97,-477.27 158.59,-464.44 125,-451 122.18,-449.87 119.26,-448.63 116.37,-447.34"/>
<polygon fill="#343d46" stroke="#343d46" points="227.27,-490.48 237.86,-490.12 229.36,-483.8 227.27,-490.48"/>
</g>
<!-- node24 -->
<g id="node16" class="node">
<title>node24</title>
<polygon fill="#e98693" stroke="black" points="336,-190 248,-190 248,-154 336,-154 336,-190"/>
<text text-anchor="middle" x="292" y="-168.3" font-family="Arial" font-size="14.00" fill="#1a1919">24 LoopExit</text>
</g>
<!-- node18&#45;&gt;node24 -->
<g id="edge25" class="edge">
<title>node18&#45;&gt;node24</title>
<path fill="none" stroke="#343d46" stroke-dasharray="5,2" d="M309.26,-479.67C317.95,-466.82 326,-450.47 326,-434 326,-434 326,-434 326,-258 326,-233.05 313.21,-206.73 303.32,-190.11"/>
<polygon fill="#343d46" stroke="#343d46" points="306.28,-477.82 303.24,-487.96 311.95,-481.93 306.28,-477.82"/>
</g>
<!-- node26 -->
<g id="node17" class="node">
<title>node26</title>
<polygon fill="#e98693" stroke="black" points="295,-277 241,-277 241,-241 295,-241 295,-277"/>
<text text-anchor="middle" x="268" y="-255.3" font-family="Arial" font-size="14.00" fill="#1a1919">26 If</text>
</g>
<!-- node18&#45;&gt;node26 -->
<g id="edge18" class="edge">
<title>node18&#45;&gt;node26</title>
<path fill="none" stroke="#da2d4f" stroke-width="2" d="M286.59,-487.77C283.17,-445.86 274.39,-338.31 270.24,-287.44"/>
<polygon fill="#da2d4f" stroke="#da2d4f" stroke-width="2" points="273.71,-286.89 269.4,-277.21 266.73,-287.46 273.71,-286.89"/>
</g>
<!-- node30 -->
<g id="node20" class="node">
<title>node30</title>
<polygon fill="#e98693" stroke="black" points="285.5,-36 196.5,-36 196.5,0 285.5,0 285.5,-36"/>
<text text-anchor="middle" x="241" y="-14.3" font-family="Arial" font-size="14.00" fill="#1a1919">30 LoopEnd</text>
</g>
<!-- node18&#45;&gt;node30 -->
<g id="edge34" class="edge">
<title>node18&#45;&gt;node30</title>
<path fill="none" stroke="#da2d4f" stroke-width="4" d="M332.91,-482.2C349.35,-470.46 364,-454.3 364,-434 364,-434 364,-434 364,-90 364,-52.65 320.92,-34.64 285.75,-26.16"/>
<polygon fill="#da2d4f" stroke="#da2d4f" stroke-width="4" points="330.64,-479.51 324.22,-487.94 334.49,-485.35 330.64,-479.51"/>
</g>
<!-- node21 -->
<g id="node14" class="node">
<title>node21</title>
<polygon fill="#3cb4a4" stroke="black" points="220,-364 179.61,-346 220,-328 260.39,-346 220,-364"/>
<text text-anchor="middle" x="220" y="-342.3" font-family="Arial" font-size="14.00" fill="#1a1919">21 &lt;</text>
</g>
<!-- node19&#45;&gt;node21 -->
<g id="edge22" class="edge">
<title>node19&#45;&gt;node21</title>
<path fill="none" stroke="#3cb4a4" d="M105.21,-414.79C115.62,-404.4 129.8,-391.4 144,-382 158.07,-372.68 175.03,-364.62 189.35,-358.58"/>
<polygon fill="#3cb4a4" stroke="#3cb4a4" points="190.84,-361.75 198.77,-354.74 188.19,-355.27 190.84,-361.75"/>
<text text-anchor="middle" x="147.5" y="-385.8" font-family="arial" font-size="14.00" fill="#3cb4a4">x</text>
</g>
<!-- node27 -->
<g id="node18" class="node">
<title>node27</title>
<polygon fill="#da2d4f" stroke="black" points="236,-109 0,-109 0,-73 236,-73 236,-109"/>
<text text-anchor="middle" x="118" y="-87.3" font-family="Arial" font-size="14.00" fill="#ffffff">27 StoreField JavaExamples.intField</text>
</g>
<!-- node19&#45;&gt;node27 -->
<g id="edge30" class="edge">
<title>node19&#45;&gt;node27</title>
<path fill="none" stroke="#3cb4a4" d="M61.58,-417.78C38.08,-403.41 8,-378.8 8,-347 8,-347 8,-347 8,-171 8,-144.42 29.45,-125.91 53.41,-113.52"/>
<polygon fill="#3cb4a4" stroke="#3cb4a4" points="55.18,-116.56 62.68,-109.07 52.15,-110.25 55.18,-116.56"/>
<text text-anchor="middle" x="24.5" y="-255.3" font-family="arial" font-size="14.00" fill="#3cb4a4">value</text>
</g>
<!-- node29 -->
<g id="node19" class="node">
<title>node29</title>
<polygon fill="#3cb4a4" stroke="black" points="111,-364 70.61,-346 111,-328 151.39,-346 111,-364"/>
<text text-anchor="middle" x="111" y="-342.3" font-family="Arial" font-size="14.00" fill="#1a1919">29 +</text>
</g>
<!-- node19&#45;&gt;node29 -->
<g id="edge32" class="edge">
<title>node19&#45;&gt;node29</title>
<path fill="none" stroke="#3cb4a4" d="M93.45,-414.8C96.61,-402.58 100.91,-385.98 104.46,-372.27"/>
<polygon fill="#3cb4a4" stroke="#3cb4a4" points="107.88,-373.02 107,-362.46 101.1,-371.26 107.88,-373.02"/>
<text text-anchor="middle" x="105.5" y="-385.8" font-family="arial" font-size="14.00" fill="#3cb4a4">x</text>
</g>
<!-- node21&#45;&gt;node26 -->
<g id="edge27" class="edge">
<title>node21&#45;&gt;node26</title>
<path fill="none" stroke="#3cb4a4" d="M227.71,-331.34C234.6,-319.14 244.89,-300.93 253.34,-285.96"/>
<polygon fill="#3cb4a4" stroke="#3cb4a4" points="256.45,-287.57 258.32,-277.15 250.35,-284.13 256.45,-287.57"/>
<text text-anchor="middle" x="251" y="-298.8" font-family="arial" font-size="14.00" fill="#3cb4a4">?</text>
</g>
<!-- node22 -->
<g id="node15" class="node">
<title>node22</title>
<polygon fill="#e98693" stroke="black" points="157,-190 87,-190 87,-154 157,-154 157,-190"/>
<text text-anchor="middle" x="122" y="-168.3" font-family="Arial" font-size="14.00" fill="#1a1919">22 Begin</text>
</g>
<!-- node22&#45;&gt;node27 -->
<g id="edge24" class="edge">
<title>node22&#45;&gt;node27</title>
<path fill="none" stroke="#da2d4f" stroke-width="2" d="M121.13,-153.86C120.62,-143.71 119.96,-130.63 119.37,-119.12"/>
<polygon fill="#da2d4f" stroke="#da2d4f" stroke-width="2" points="122.87,-118.92 118.87,-109.11 115.88,-119.27 122.87,-118.92"/>
</g>
<!-- node31 -->
<g id="node21" class="node">
<title>node31</title>
<polygon fill="#e98693" stroke="black" points="330,-109 254,-109 254,-73 330,-73 330,-109"/>
<text text-anchor="middle" x="292" y="-87.3" font-family="Arial" font-size="14.00" fill="#1a1919">31 Return</text>
</g>
<!-- node24&#45;&gt;node31 -->
<g id="edge26" class="edge">
<title>node24&#45;&gt;node31</title>
<path fill="none" stroke="#da2d4f" stroke-width="2" d="M292,-153.86C292,-143.71 292,-130.63 292,-119.12"/>
<polygon fill="#da2d4f" stroke="#da2d4f" stroke-width="2" points="295.5,-119.11 292,-109.11 288.5,-119.11 295.5,-119.11"/>
</g>
<!-- node26&#45;&gt;node22 -->
<g id="edge29" class="edge">
<title>node26&#45;&gt;node22</title>
<path fill="none" stroke="#da2d4f" stroke-width="2" d="M240.88,-242.21C218.19,-229 185.54,-209.99 160.2,-195.24"/>
<polygon fill="#da2d4f" stroke="#da2d4f" stroke-width="2" points="161.63,-192.02 151.23,-190.02 158.11,-198.07 161.63,-192.02"/>
<text text-anchor="middle" x="208.5" y="-211.8" font-family="arial" font-size="14.00" fill="#da2d4f">F</text>
</g>
<!-- node26&#45;&gt;node24 -->
<g id="edge28" class="edge">
<title>node26&#45;&gt;node24</title>
<path fill="none" stroke="#da2d4f" stroke-width="2" d="M272.86,-240.8C276.17,-229.05 280.64,-213.24 284.42,-199.84"/>
<polygon fill="#da2d4f" stroke="#da2d4f" stroke-width="2" points="287.8,-200.75 287.15,-190.18 281.06,-198.85 287.8,-200.75"/>
<text text-anchor="middle" x="286.5" y="-211.8" font-family="arial" font-size="14.00" fill="#da2d4f">T</text>
</g>
<!-- node27&#45;&gt;node30 -->
<g id="edge31" class="edge">
<title>node27&#45;&gt;node30</title>
<path fill="none" stroke="#da2d4f" stroke-width="2" d="M147.46,-72.99C163.92,-63.49 184.63,-51.54 202.38,-41.29"/>
<polygon fill="#da2d4f" stroke="#da2d4f" stroke-width="2" points="204.44,-44.14 211.35,-36.11 200.94,-38.08 204.44,-44.14"/>
</g>
<!-- node29&#45;&gt;node19 -->
<g id="edge21" class="edge">
<title>node29&#45;&gt;node19</title>
<path fill="none" stroke="#3cb4a4" d="M85.34,-352.82C69.88,-357.79 51.42,-366.66 42,-382 35.23,-393.03 42.67,-403.7 53.47,-412.33"/>
<polygon fill="#3cb4a4" stroke="#3cb4a4" points="51.61,-415.3 61.79,-418.23 55.66,-409.59 51.61,-415.3"/>
<text text-anchor="middle" x="65.5" y="-385.8" font-family="arial" font-size="14.00" fill="#3cb4a4">from 30</text>
</g>
<!-- inline1x5 -->
<g id="node22" class="node">
<title>inline1x5</title>
<ellipse fill="#d7ede7" stroke="black" cx="222" cy="-1075" rx="27" ry="18"/>
<text text-anchor="middle" x="222" y="-1073.1" font-family="Arial" font-size="8.00" fill="#1a1919">1 P(0)</text>
</g>
<!-- inline1x5&#45;&gt;node5 -->
<g id="edge2" class="edge">
<title>inline1x5&#45;&gt;node5</title>
<path fill="none" stroke="#3cb4a4" d="M229.46,-1057.63C235.97,-1043.35 245.31,-1022.84 251.52,-1009.23"/>
<text text-anchor="middle" x="244" y="-1032.6" font-family="arial" font-size="8.00" fill="#3cb4a4">x</text>
</g>
<!-- inline4x5 -->
<g id="node23" class="node">
<title>inline4x5</title>
<ellipse fill="#d7ede7" stroke="black" cx="294" cy="-1075" rx="27" ry="18"/>
<text text-anchor="middle" x="294" y="-1073.1" font-family="Arial" font-size="8.00" fill="#1a1919">4 C(0)</text>
</g>
<!-- inline4x5&#45;&gt;node5 -->
<g id="edge3" class="edge">
<title>inline4x5&#45;&gt;node5</title>
<path fill="none" stroke="#3cb4a4" d="M286.54,-1057.63C280.03,-1043.35 270.69,-1022.84 264.48,-1009.23"/>
<text text-anchor="middle" x="280" y="-1032.6" font-family="arial" font-size="8.00" fill="#3cb4a4">y</text>
</g>
<!-- inline2x11 -->
<g id="node24" class="node">
<title>inline2x11</title>
<ellipse fill="#d7ede7" stroke="black" cx="312" cy="-747" rx="27" ry="18"/>
<text text-anchor="middle" x="312" y="-745.1" font-family="Arial" font-size="8.00" fill="#1a1919">2 P(1)</text>
</g>
<!-- inline2x11&#45;&gt;node11 -->
<g id="edge9" class="edge">
<title>inline2x11&#45;&gt;node11</title>
<path fill="none" stroke="#3cb4a4" d="M312.43,-728.86C312.77,-715.52 313.24,-697.1 313.57,-683.84"/>
<text text-anchor="middle" x="315" y="-704.6" font-family="arial" font-size="8.00" fill="#3cb4a4">x</text>
</g>
<!-- inline10x11 -->
<g id="node25" class="node">
<title>inline10x11</title>
<ellipse fill="#d7ede7" stroke="black" cx="384" cy="-747" rx="27" ry="18"/>
<text text-anchor="middle" x="384" y="-745.1" font-family="Arial" font-size="8.00" fill="#1a1919">10 C(&#45;1)</text>
</g>
<!-- inline10x11&#45;&gt;node11 -->
<g id="edge10" class="edge">
<title>inline10x11&#45;&gt;node11</title>
<path fill="none" stroke="#3cb4a4" d="M370.83,-731.14C357.53,-716.12 337.21,-693.19 324.81,-679.2"/>
<text text-anchor="middle" x="353" y="-704.6" font-family="arial" font-size="8.00" fill="#3cb4a4">y</text>
</g>
<!-- inline2x15 -->
<g id="node26" class="node">
<title>inline2x15</title>
<ellipse fill="#d7ede7" stroke="black" cx="137" cy="-666" rx="27" ry="18"/>
<text text-anchor="middle" x="137" y="-664.1" font-family="Arial" font-size="8.00" fill="#1a1919">2 P(1)</text>
</g>
<!-- inline2x15&#45;&gt;node15 -->
<g id="edge15" class="edge">
<title>inline2x15&#45;&gt;node15</title>
<path fill="none" stroke="#3cb4a4" d="M145.68,-648.61C153.49,-633.85 164.94,-612.22 172.89,-597.21"/>
<text text-anchor="middle" x="177" y="-620.6" font-family="arial" font-size="8.00" fill="#3cb4a4">from 12</text>
</g>
<!-- inline9x21 -->
<g id="node27" class="node">
<title>inline9x21</title>
<ellipse fill="#d7ede7" stroke="black" cx="233" cy="-433" rx="27" ry="18"/>
<text text-anchor="middle" x="233" y="-431.1" font-family="Arial" font-size="8.00" fill="#1a1919">9 C(1)</text>
</g>
<!-- inline9x21&#45;&gt;node21 -->
<g id="edge23" class="edge">
<title>inline9x21&#45;&gt;node21</title>
<path fill="none" stroke="#3cb4a4" d="M230.37,-414.8C228.05,-399.66 224.71,-377.8 222.45,-363.03"/>
<text text-anchor="middle" x="230" y="-387.6" font-family="arial" font-size="8.00" fill="#3cb4a4">y</text>
</g>
<!-- inline10x29 -->
<g id="node28" class="node">
<title>inline10x29</title>
<ellipse fill="#d7ede7" stroke="black" cx="161" cy="-433" rx="27" ry="18"/>
<text text-anchor="middle" x="161" y="-431.1" font-family="Arial" font-size="8.00" fill="#1a1919">10 C(&#45;1)</text>
</g>
<!-- inline10x29&#45;&gt;node29 -->
<g id="edge33" class="edge">
<title>inline10x29&#45;&gt;node29</title>
<path fill="none" stroke="#3cb4a4" d="M159.41,-414.86C157.88,-404.74 154.88,-392.01 149,-382 143.28,-372.26 133.98,-363.62 126.02,-357.37"/>
<text text-anchor="middle" x="158" y="-387.6" font-family="arial" font-size="8.00" fill="#3cb4a4">y</text>
</g>
<!-- inline2x31 -->
<g id="node29" class="node">
<title>inline2x31</title>
<ellipse fill="#d7ede7" stroke="black" cx="203" cy="-172" rx="27" ry="18"/>
<text text-anchor="middle" x="203" y="-170.1" font-family="Arial" font-size="8.00" fill="#1a1919">2 P(1)</text>
</g>
<!-- inline2x31&#45;&gt;node31 -->
<g id="edge35" class="edge">
<title>inline2x31&#45;&gt;node31</title>
<path fill="none" stroke="#3cb4a4" d="M218.5,-157.24C233.54,-143.89 256.41,-123.59 272.64,-109.18"/>
<text text-anchor="middle" x="261" y="-129.6" font-family="arial" font-size="8.00" fill="#3cb4a4">result</text>
</g>
</g>
</svg>
