<?xml version="1.0" encoding="UTF-8" standalone="no"?>
<!DOCTYPE svg PUBLIC "-//W3C//DTD SVG 1.1//EN"
 "http://www.w3.org/Graphics/SVG/1.1/DTD/svg11.dtd">
<!-- Generated by graphviz version 2.43.0 (0)
 -->
<!-- Title: G Pages: 1 -->
<svg width="685pt" height="389pt"
 viewBox="0.00 0.00 684.69 389.50" xmlns="http://www.w3.org/2000/svg" xmlns:xlink="http://www.w3.org/1999/xlink">
<g id="graph0" class="graph" transform="scale(1 1) rotate(0) translate(4 385.5)">
<title>G</title>
' points="-4,4 -4,-385.5 680.69,-385.5 680.69,4 -4,4"/>
<!-- node0 -->
<g id="node1" class="node">
<title>node0</title>
<polygon fill="#e98693" stroke="black" points="443.48,-212.2 386,-212.2 386,-176.2 443.48,-176.2 443.48,-212.2"/>
<text text-anchor="middle" x="414.74" y="-191.05" font-family="Arial" font-size="14.00" fill="#1a1919">0 Start</text>
</g>
<!-- node6 -->
<g id="node5" class="node">
<title>node6</title>
<polygon fill="#da2d4f" stroke="black" points="329.69,-124.1 107.79,-124.1 107.79,-88.1 329.69,-88.1 329.69,-124.1"/>
<text text-anchor="middle" x="218.74" y="-102.95" font-family="Arial" font-size="14.00" fill="#ffffff">6 Call JavaExamples.opaqueCall</text>
</g>
<!-- node0&#45;&gt;node6 -->
<g id="edge2" class="edge">
<title>node0&#45;&gt;node6</title>
<path fill="none" stroke="#da2d4f" stroke-width="2" d="M414.13,-176.11C412.8,-164.86 409.18,-150.68 399.74,-142.1 389.67,-132.94 366.31,-126 339.61,-120.82"/>
<polygon fill="#da2d4f" stroke="#da2d4f" stroke-width="2" points="340.1,-117.36 329.64,-118.99 338.84,-124.24 340.1,-117.36"/>
</g>
<!-- node3 -->
<g id="node2" class="node">
<title>node3</title>
<polygon fill="#f9f9f9" stroke="black" points="676.64,-300.3 152.84,-300.3 152.84,-264.3 676.64,-264.3 676.64,-300.3"/>
<text text-anchor="middle" x="414.74" y="-279.15" font-family="Arial" font-size="14.00" fill="#1a1919">3 FrameState JavaExamples#exampleLocalVariablesState JavaExamples.java:74</text>
</g>
<!-- node3&#45;&gt;node0 -->
<g id="edge1" class="edge">
<title>node3&#45;&gt;node0</title>
<path fill="none" stroke="#343d46" stroke-dasharray="5,2" d="M414.74,-254.02C414.74,-240.41 414.74,-224.36 414.74,-212.47"/>
<polygon fill="#343d46" stroke="#343d46" points="411.24,-254.29 414.74,-264.29 418.24,-254.29 411.24,-254.29"/>
</g>
<!-- node4 -->
<g id="node3" class="node">
<title>node4</title>
<polygon fill="#3cb4a4" stroke="black" points="131.74,-300.3 77.74,-300.3 77.74,-264.3 131.74,-264.3 131.74,-300.3"/>
<text text-anchor="middle" x="104.74" y="-279.15" font-family="Arial" font-size="14.00" fill="#1a1919">4 +</text>
</g>
<!-- node7 -->
<g id="node6" class="node">
<title>node7</title>
<polygon fill="#f9f9f9" stroke="black" points="619.64,-36 95.84,-36 95.84,0 619.64,0 619.64,-36"/>
<text text-anchor="middle" x="357.74" y="-14.85" font-family="Arial" font-size="14.00" fill="#1a1919">7 FrameState JavaExamples#exampleLocalVariablesState JavaExamples.java:75</text>
</g>
<!-- node4&#45;&gt;node7 -->
<g id="edge10" class="edge">
<title>node4&#45;&gt;node7</title>
<path fill="none" stroke="#3cb4a4" d="M131.9,-269.12C135.85,-267.44 139.88,-265.79 143.74,-264.3 210.72,-238.34 243.07,-259.94 296.74,-212.2 344.97,-169.29 355.4,-88.61 357.44,-46.37"/>
<polygon fill="#3cb4a4" stroke="#3cb4a4" points="360.94,-46.38 357.8,-36.26 353.94,-46.13 360.94,-46.38"/>
<text text-anchor="middle" x="360.98" y="-147" font-family="arial" font-size="14.00" fill="#3cb4a4">values</text>
</g>
<!-- node10 -->
<g id="node7" class="node">
<title>node10</title>
<polygon fill="#3cb4a4" stroke="black" points="67.74,-212.2 13.74,-212.2 13.74,-176.2 67.74,-176.2 67.74,-212.2"/>
<text text-anchor="middle" x="40.74" y="-191.05" font-family="Arial" font-size="14.00" fill="#1a1919">10 &lt;&lt;</text>
</g>
<!-- node4&#45;&gt;node10 -->
<g id="edge12" class="edge">
<title>node4&#45;&gt;node10</title>
<path fill="none" stroke="#3cb4a4" d="M92.1,-264.29C82.87,-251.87 70.19,-234.82 59.74,-220.76"/>
<polygon fill="#3cb4a4" stroke="#3cb4a4" points="62.35,-218.4 53.58,-212.47 56.74,-222.58 62.35,-218.4"/>
<text text-anchor="middle" x="82.24" y="-235.1" font-family="arial" font-size="14.00" fill="#3cb4a4">x</text>
</g>
<!-- node11 -->
<g id="node8" class="node">
<title>node11</title>
<polygon fill="#3cb4a4" stroke="black" points="67.74,-124.1 13.74,-124.1 13.74,-88.1 67.74,-88.1 67.74,-124.1"/>
<text text-anchor="middle" x="40.74" y="-102.95" font-family="Arial" font-size="14.00" fill="#1a1919">11 +</text>
</g>
<!-- node4&#45;&gt;node11 -->
<g id="edge14" class="edge">
<title>node4&#45;&gt;node11</title>
<path fill="none" stroke="#3cb4a4" d="M101.4,-264.19C96.99,-243.08 88.43,-206.3 76.74,-176.2 71.05,-161.53 63.09,-145.92 56.11,-133.26"/>
<polygon fill="#3cb4a4" stroke="#3cb4a4" points="58.97,-131.2 51.01,-124.21 52.87,-134.64 58.97,-131.2"/>
<text text-anchor="middle" x="92.24" y="-191.05" font-family="arial" font-size="14.00" fill="#3cb4a4">x</text>
</g>
<!-- node5 -->
<g id="node4" class="node">
<title>node5</title>
<polygon fill="#f9f9f9" stroke="black" points="287.64,-212.2 149.84,-212.2 149.84,-176.2 287.64,-176.2 287.64,-212.2"/>
<text text-anchor="middle" x="218.74" y="-191.05" font-family="Arial" font-size="14.00" fill="#1a1919">5 MethodCallTarget</text>
</g>
<!-- node5&#45;&gt;node6 -->
<g id="edge8" class="edge">
<title>node5&#45;&gt;node6</title>
<path fill="none" stroke="#343d46" stroke-dasharray="5,2" d="M218.74,-165.92C218.74,-152.31 218.74,-136.26 218.74,-124.37"/>
<polygon fill="#343d46" stroke="#343d46" points="215.24,-166.19 218.74,-176.19 222.24,-166.19 215.24,-166.19"/>
</g>
<!-- node6&#45;&gt;node7 -->
<g id="edge11" class="edge">
<title>node6&#45;&gt;node7</title>
<path fill="none" stroke="#3cb4a4" d="M246.2,-88.09C267.67,-74.79 297.71,-56.18 321.21,-41.63"/>
<polygon fill="#3cb4a4" stroke="#3cb4a4" points="323.2,-44.51 329.86,-36.27 319.52,-38.56 323.2,-44.51"/>
<text text-anchor="middle" x="320.98" y="-58.9" font-family="arial" font-size="14.00" fill="#3cb4a4">values</text>
</g>
<!-- node12 -->
<g id="node9" class="node">
<title>node12</title>
<polygon fill="#e98693" stroke="black" points="77.73,-36 -0.24,-36 -0.24,0 77.73,0 77.73,-36"/>
<text text-anchor="middle" x="38.74" y="-14.85" font-family="Arial" font-size="14.00" fill="#1a1919">12 Return</text>
</g>
<!-- node6&#45;&gt;node12 -->
<g id="edge9" class="edge">
<title>node6&#45;&gt;node12</title>
<path fill="none" stroke="#da2d4f" stroke-width="2" d="M183.18,-88.09C154.67,-74.45 114.5,-55.24 83.75,-40.53"/>
<polygon fill="#da2d4f" stroke="#da2d4f" stroke-width="2" points="85.07,-37.28 74.54,-36.12 82.05,-43.59 85.07,-37.28"/>
</g>
<!-- node7&#45;&gt;node6 -->
<g id="edge7" class="edge">
<title>node7&#45;&gt;node6</title>
<path fill="none" stroke="#343d46" stroke-dasharray="5,2" d="M279.7,-40.07C271.22,-43.99 263.03,-48.6 255.74,-54 243.77,-62.86 234.08,-76.73 227.62,-87.78"/>
<polygon fill="#343d46" stroke="#343d46" points="281.19,-43.24 289,-36.07 278.43,-36.81 281.19,-43.24"/>
</g>
<!-- node10&#45;&gt;node11 -->
<g id="edge15" class="edge">
<title>node10&#45;&gt;node11</title>
<path fill="none" stroke="#3cb4a4" d="M40.74,-176.19C40.74,-164.35 40.74,-148.32 40.74,-134.67"/>
<polygon fill="#3cb4a4" stroke="#3cb4a4" points="44.24,-134.37 40.74,-124.37 37.24,-134.37 44.24,-134.37"/>
<text text-anchor="middle" x="44.24" y="-147" font-family="arial" font-size="14.00" fill="#3cb4a4">y</text>
</g>
<!-- node11&#45;&gt;node12 -->
<g id="edge16" class="edge">
<title>node11&#45;&gt;node12</title>
<path fill="none" stroke="#3cb4a4" d="M40.35,-88.09C40.07,-76.26 39.7,-60.22 39.38,-46.57"/>
<polygon fill="#3cb4a4" stroke="#3cb4a4" points="42.87,-46.19 39.14,-36.27 35.88,-46.35 42.87,-46.19"/>
<text text-anchor="middle" x="57.86" y="-58.9" font-family="arial" font-size="14.00" fill="#3cb4a4">result</text>
</g>
<!-- inline1x3 -->
<g id="node10" class="node">
<title>inline1x3</title>
<ellipse fill="#d7ede7" stroke="black" cx="378.74" cy="-363.5" rx="27" ry="18"/>
<text text-anchor="middle" x="378.74" y="-361.69" font-family="Arial" font-size="8.00" fill="#1a1919">1 P(0)</text>
</g>
<!-- inline1x3&#45;&gt;node3 -->
<g id="edge3" class="edge">
<title>inline1x3&#45;&gt;node3</title>
<path fill="none" stroke="#3cb4a4" d="M386.2,-346.08C392.26,-332.76 400.77,-314.04 406.92,-300.51"/>
<text text-anchor="middle" x="410.3" y="-321.1" font-family="arial" font-size="8.00" fill="#3cb4a4">values</text>
</g>
<!-- inline2x3 -->
<g id="node11" class="node">
<title>inline2x3</title>
<ellipse fill="#d7ede7" stroke="black" cx="450.74" cy="-363.5" rx="27" ry="18"/>
<text text-anchor="middle" x="450.74" y="-361.69" font-family="Arial" font-size="8.00" fill="#1a1919">2 P(1)</text>
</g>
<!-- inline2x3&#45;&gt;node3 -->
<g id="edge4" class="edge">
<title>inline2x3&#45;&gt;node3</title>
<path fill="none" stroke="#3cb4a4" d="M443.28,-346.08C437.23,-332.76 428.72,-314.04 422.56,-300.51"/>
<text text-anchor="middle" x="446.3" y="-321.1" font-family="arial" font-size="8.00" fill="#3cb4a4">values</text>
</g>
<!-- inline1x4 -->
<g id="node12" class="node">
<title>inline1x4</title>
<ellipse fill="#d7ede7" stroke="black" cx="68.74" cy="-363.5" rx="27" ry="18"/>
<text text-anchor="middle" x="68.74" y="-361.69" font-family="Arial" font-size="8.00" fill="#1a1919">1 P(0)</text>
</g>
<!-- inline1x4&#45;&gt;node4 -->
<g id="edge5" class="edge">
<title>inline1x4&#45;&gt;node4</title>
<path fill="none" stroke="#3cb4a4" d="M76.2,-346.08C82.26,-332.76 90.77,-314.04 96.92,-300.51"/>
<text text-anchor="middle" x="90.74" y="-321.1" font-family="arial" font-size="8.00" fill="#3cb4a4">x</text>
</g>
<!-- inline2x4 -->
<g id="node13" class="node">
<title>inline2x4</title>
<ellipse fill="#d7ede7" stroke="black" cx="140.74" cy="-363.5" rx="27" ry="18"/>
<text text-anchor="middle" x="140.74" y="-361.69" font-family="Arial" font-size="8.00" fill="#1a1919">2 P(1)</text>
</g>
<!-- inline2x4&#45;&gt;node4 -->
<g id="edge6" class="edge">
<title>inline2x4&#45;&gt;node4</title>
<path fill="none" stroke="#3cb4a4" d="M133.28,-346.08C127.23,-332.76 118.72,-314.04 112.56,-300.51"/>
<text text-anchor="middle" x="126.74" y="-321.1" font-family="arial" font-size="8.00" fill="#3cb4a4">y</text>
</g>
<!-- inline9x10 -->
<g id="node14" class="node">
<title>inline9x10</title>
<ellipse fill="#d7ede7" stroke="black" cx="32.74" cy="-282.3" rx="27" ry="18"/>
<text text-anchor="middle" x="32.74" y="-280.5" font-family="Arial" font-size="8.00" fill="#1a1919">9 C(1)</text>
</g>
<!-- inline9x10&#45;&gt;node10 -->
<g id="edge13" class="edge">
<title>inline9x10&#45;&gt;node10</title>
<path fill="none" stroke="#3cb4a4" d="M34.32,-264.29C35.72,-249.29 37.74,-227.54 39.14,-212.47"/>
<text text-anchor="middle" x="39.74" y="-236.45" font-family="arial" font-size="8.00" fill="#3cb4a4">y</text>
</g>
</g>
</svg>
