<?xml version="1.0" encoding="UTF-8" standalone="no"?>
<!DOCTYPE svg PUBLIC "-//W3C//DTD SVG 1.1//EN"
 "http://www.w3.org/Graphics/SVG/1.1/DTD/svg11.dtd">
<!-- Generated by graphviz version 2.43.0 (0)
 -->
<!-- Title: G Pages: 1 -->
<svg width="260pt" height="286pt"
 viewBox="0.00 0.00 260.40 286.30" xmlns="http://www.w3.org/2000/svg" xmlns:xlink="http://www.w3.org/1999/xlink">
<g id="graph0" class="graph" transform="scale(1 1) rotate(0) translate(4 282.3)">
<title>G</title>
' points="-4,4 -4,-282.3 256.4,-282.3 256.4,4 -4,4"/>
<!-- node0 -->
<g id="node1" class="node">
<title>node0</title>
<polygon fill="#e98693" stroke="black" points="97.44,-197.1 39.96,-197.1 39.96,-161.1 97.44,-161.1 97.44,-197.1"/>
<text text-anchor="middle" x="68.7" y="-175.95" font-family="Arial" font-size="14.00" fill="#1a1919">0 Start</text>
</g>
<!-- node4 -->
<g id="node3" class="node">
<title>node4</title>
<polygon fill="#da2d4f" stroke="black" points="207.61,-124.1 -0.2,-124.1 -0.2,-88.1 207.61,-88.1 207.61,-124.1"/>
<text text-anchor="middle" x="103.7" y="-102.95" font-family="Arial" font-size="14.00" fill="#ffffff">4 Call JavaExamples.staticCall</text>
</g>
<!-- node0&#45;&gt;node4 -->
<g id="edge1" class="edge">
<title>node0&#45;&gt;node4</title>
<path fill="none" stroke="#da2d4f" stroke-width="2" d="M77.18,-160.91C81.26,-152.63 86.25,-142.51 90.79,-133.29"/>
<polygon fill="#da2d4f" stroke="#da2d4f" stroke-width="2" points="94.03,-134.64 95.31,-124.13 87.75,-131.55 94.03,-134.64"/>
</g>
<!-- node3 -->
<g id="node2" class="node">
<title>node3</title>
<polygon fill="#f9f9f9" stroke="black" points="252.6,-197.1 114.8,-197.1 114.8,-161.1 252.6,-161.1 252.6,-197.1"/>
<text text-anchor="middle" x="183.7" y="-175.95" font-family="Arial" font-size="14.00" fill="#1a1919">3 MethodCallTarget</text>
</g>
<!-- node3&#45;&gt;node4 -->
<g id="edge3" class="edge">
<title>node3&#45;&gt;node4</title>
<path fill="none" stroke="#343d46" stroke-dasharray="5,2" d="M156.59,-154.04C145.53,-144.22 132.98,-133.08 122.89,-124.13"/>
<polygon fill="#343d46" stroke="#343d46" points="154.53,-156.89 164.34,-160.91 159.18,-151.66 154.53,-156.89"/>
</g>
<!-- node6 -->
<g id="node4" class="node">
<title>node6</title>
<polygon fill="#e98693" stroke="black" points="138.4,-36 69.01,-36 69.01,0 138.4,0 138.4,-36"/>
<text text-anchor="middle" x="103.7" y="-14.85" font-family="Arial" font-size="14.00" fill="#1a1919">6 Return</text>
</g>
<!-- node4&#45;&gt;node6 -->
<g id="edge4" class="edge">
<title>node4&#45;&gt;node6</title>
<path fill="none" stroke="#da2d4f" stroke-width="2" d="M102.53,-88.02C102.19,-82.32 101.87,-75.94 101.7,-70.1 101.5,-62.95 101.5,-61.15 101.7,-54 101.78,-51.44 101.88,-48.79 102,-46.13"/>
<polygon fill="#da2d4f" stroke="#da2d4f" stroke-width="2" points="105.5,-46.25 102.53,-36.08 98.51,-45.88 105.5,-46.25"/>
</g>
<!-- node4&#45;&gt;node6 -->
<g id="edge5" class="edge">
<title>node4&#45;&gt;node6</title>
<path fill="none" stroke="#3cb4a4" d="M103.7,-88.09C103.7,-76.26 103.7,-60.22 103.7,-46.57"/>
<polygon fill="#3cb4a4" stroke="#3cb4a4" points="107.2,-46.27 103.7,-36.27 100.2,-46.27 107.2,-46.27"/>
<text text-anchor="middle" x="120.82" y="-58.9" font-family="arial" font-size="14.00" fill="#3cb4a4">result</text>
</g>
<!-- inline1x3 -->
<g id="node5" class="node">
<title>inline1x3</title>
<ellipse fill="#d7ede7" stroke="black" cx="183.7" cy="-260.3" rx="27" ry="18"/>
<text text-anchor="middle" x="183.7" y="-258.5" font-family="Arial" font-size="8.00" fill="#1a1919">1 P(0)</text>
</g>
<!-- inline1x3&#45;&gt;node3 -->
<g id="edge2" class="edge">
<title>inline1x3&#45;&gt;node3</title>
<path fill="none" stroke="#3cb4a4" d="M183.7,-242.11C183.7,-228.83 183.7,-210.53 183.7,-197.25"/>
<text text-anchor="middle" x="193.93" y="-217.9" font-family="arial" font-size="8.00" fill="#3cb4a4">arg[0]</text>
</g>
</g>
</svg>
