<?xml version="1.0" encoding="UTF-8" standalone="no"?>
<!DOCTYPE svg PUBLIC "-//W3C//DTD SVG 1.1//EN"
 "http://www.w3.org/Graphics/SVG/1.1/DTD/svg11.dtd">
<!-- Generated by graphviz version 2.44.0 (20200408.0750)
 -->
<!-- Title: G Pages: 1 -->
<svg width="159pt" height="212pt"
 viewBox="0.00 0.00 159.00 212.00" xmlns="http://www.w3.org/2000/svg" xmlns:xlink="http://www.w3.org/1999/xlink">
<g id="graph0" class="graph" transform="scale(1 1) rotate(0) translate(4 208)">
<title>G</title>
<!-- node0 -->
<g id="node1" class="node">
<title>node0</title>
<polygon fill="#e98693" stroke="black" points="67.5,-204 11.5,-204 11.5,-168 67.5,-168 67.5,-204"/>
<text text-anchor="middle" x="39.5" y="-182.3" font-family="Arial" font-size="14.00" fill="#1a1919">0 Start</text>
</g>
<!-- node4 -->
<g id="node2" class="node">
<title>node4</title>
<polygon fill="#da2d4f" stroke="black" points="151,-123 0,-123 0,-87 151,-87 151,-123"/>
<text text-anchor="middle" x="75.5" y="-101.3" font-family="Arial" font-size="14.00" fill="#ffffff">4 UnsafeMemoryLoad</text>
</g>
<!-- node0&#45;&gt;node4 -->
<g id="edge1" class="edge">
<title>node0&#45;&gt;node4</title>
<path fill="none" stroke="#da2d4f" stroke-width="2" d="M47.31,-167.86C52.03,-157.51 58.14,-144.1 63.46,-132.41"/>
<polygon fill="#da2d4f" stroke="#da2d4f" stroke-width="2" points="66.74,-133.66 67.7,-123.11 60.37,-130.76 66.74,-133.66"/>
</g>
<!-- node5 -->
<g id="node3" class="node">
<title>node5</title>
<polygon fill="#e98693" stroke="black" points="109.5,-36 41.5,-36 41.5,0 109.5,0 109.5,-36"/>
<text text-anchor="middle" x="75.5" y="-14.3" font-family="Arial" font-size="14.00" fill="#1a1919">5 Return</text>
</g>
<!-- node4&#45;&gt;node5 -->
<g id="edge3" class="edge">
<title>node4&#45;&gt;node5</title>
<path fill="none" stroke="#da2d4f" stroke-width="2" d="M74.33,-86.92C73.99,-81.22 73.67,-74.84 73.5,-69 73.29,-61.65 73.44,-53.69 73.73,-46.33"/>
<polygon fill="#da2d4f" stroke="#da2d4f" stroke-width="2" points="77.24,-46.28 74.23,-36.12 70.24,-45.94 77.24,-46.28"/>
</g>
<!-- node4&#45;&gt;node5 -->
<g id="edge4" class="edge">
<title>node4&#45;&gt;node5</title>
<path fill="none" stroke="#3cb4a4" d="M75.5,-86.8C75.5,-75.16 75.5,-59.55 75.5,-46.24"/>
<polygon fill="#3cb4a4" stroke="#3cb4a4" points="79,-46.18 75.5,-36.18 72,-46.18 79,-46.18"/>
<text text-anchor="middle" x="92.5" y="-57.8" font-family="arial" font-size="14.00" fill="#3cb4a4">result</text>
</g>
<!-- inline1x4 -->
<g id="node4" class="node">
<title>inline1x4</title>
<ellipse fill="#d7ede7" stroke="black" cx="112.5" cy="-186" rx="27" ry="18"/>
<text text-anchor="middle" x="112.5" y="-184.1" font-family="Arial" font-size="8.00" fill="#1a1919">1 P(0)</text>
</g>
<!-- inline1x4&#45;&gt;node4 -->
<g id="edge2" class="edge">
<title>inline1x4&#45;&gt;node4</title>
<path fill="none" stroke="#3cb4a4" d="M104.83,-168.63C98.61,-155.34 89.86,-136.67 83.54,-123.17"/>
<text text-anchor="middle" x="109" y="-143.6" font-family="arial" font-size="8.00" fill="#3cb4a4">address</text>
</g>
</g>
</svg>
