<?xml version="1.0" encoding="UTF-8" standalone="no"?>
<!DOCTYPE svg PUBLIC "-//W3C//DTD SVG 1.1//EN"
 "http://www.w3.org/Graphics/SVG/1.1/DTD/svg11.dtd">
<!-- Generated by graphviz version 2.44.0 (20200408.0750)
 -->
<!-- Title: G Pages: 1 -->
<svg width="208pt" height="198pt"
 viewBox="0.00 0.00 208.00 198.00" xmlns="http://www.w3.org/2000/svg" xmlns:xlink="http://www.w3.org/1999/xlink">
<g id="graph0" class="graph" transform="scale(1 1) rotate(0) translate(4 194)">
<title>G</title>
<!-- node0 -->
<g id="node1" class="node">
<title>node0</title>
<polygon fill="#e98693" stroke="black" points="56,-190 0,-190 0,-154 56,-154 56,-190"/>
<text text-anchor="middle" x="28" y="-168.3" font-family="Arial" font-size="14.00" fill="#1a1919">0 Start</text>
</g>
<!-- node5 -->
<g id="node2" class="node">
<title>node5</title>
<polygon fill="#da2d4f" stroke="black" points="177.5,-109 24.5,-109 24.5,-73 177.5,-73 177.5,-109"/>
<text text-anchor="middle" x="101" y="-87.3" font-family="Arial" font-size="14.00" fill="#ffffff">5 UnsafeMemoryStore</text>
</g>
<!-- node0&#45;&gt;node5 -->
<g id="edge1" class="edge">
<title>node0&#45;&gt;node5</title>
<path fill="none" stroke="#da2d4f" stroke-width="2" d="M43.84,-153.86C53.88,-142.99 67.04,-128.75 78.2,-116.67"/>
<polygon fill="#da2d4f" stroke="#da2d4f" stroke-width="2" points="80.97,-118.83 85.19,-109.11 75.83,-114.08 80.97,-118.83"/>
</g>
<!-- node7 -->
<g id="node3" class="node">
<title>node7</title>
<polygon fill="#e98693" stroke="black" points="135,-36 67,-36 67,0 135,0 135,-36"/>
<text text-anchor="middle" x="101" y="-14.3" font-family="Arial" font-size="14.00" fill="#1a1919">7 Return</text>
</g>
<!-- node5&#45;&gt;node7 -->
<g id="edge4" class="edge">
<title>node5&#45;&gt;node7</title>
<path fill="none" stroke="#da2d4f" stroke-width="2" d="M101,-72.81C101,-64.79 101,-55.05 101,-46.07"/>
<polygon fill="#da2d4f" stroke="#da2d4f" stroke-width="2" points="104.5,-46.03 101,-36.03 97.5,-46.03 104.5,-46.03"/>
</g>
<!-- inline2x5 -->
<g id="node4" class="node">
<title>inline2x5</title>
<ellipse fill="#d7ede7" stroke="black" cx="101" cy="-172" rx="27" ry="18"/>
<text text-anchor="middle" x="101" y="-170.1" font-family="Arial" font-size="8.00" fill="#1a1919">2 P(1)</text>
</g>
<!-- inline2x5&#45;&gt;node5 -->
<g id="edge2" class="edge">
<title>inline2x5&#45;&gt;node5</title>
<path fill="none" stroke="#3cb4a4" d="M101,-153.86C101,-140.61 101,-122.35 101,-109.11"/>
<text text-anchor="middle" x="110.5" y="-129.6" font-family="arial" font-size="8.00" fill="#3cb4a4">value</text>
</g>
<!-- inline1x5 -->
<g id="node5" class="node">
<title>inline1x5</title>
<ellipse fill="#d7ede7" stroke="black" cx="173" cy="-172" rx="27" ry="18"/>
<text text-anchor="middle" x="173" y="-170.1" font-family="Arial" font-size="8.00" fill="#1a1919">1 P(0)</text>
</g>
<!-- inline1x5&#45;&gt;node5 -->
<g id="edge3" class="edge">
<title>inline1x5&#45;&gt;node5</title>
<path fill="none" stroke="#3cb4a4" d="M159.46,-156.14C147.32,-142.82 129.51,-123.28 116.74,-109.27"/>
<text text-anchor="middle" x="153.5" y="-129.6" font-family="arial" font-size="8.00" fill="#3cb4a4">address</text>
</g>
</g>
</svg>
