<?xml version="1.0" encoding="UTF-8" standalone="no"?>
<!DOCTYPE svg PUBLIC "-//W3C//DTD SVG 1.1//EN"
 "http://www.w3.org/Graphics/SVG/1.1/DTD/svg11.dtd">
<!-- Generated by graphviz version 2.44.0 (20200408.0750)
 -->
<!-- Title: G Pages: 1 -->
<svg width="208pt" height="212pt"
 viewBox="0.00 0.00 208.00 212.00" xmlns="http://www.w3.org/2000/svg" xmlns:xlink="http://www.w3.org/1999/xlink">
<g id="graph0" class="graph" transform="scale(1 1) rotate(0) translate(4 208)">
<title>G</title>
<!-- node0 -->
<g id="node1" class="node">
<title>node0</title>
<polygon fill="#e98693" stroke="black" points="56,-204 0,-204 0,-168 56,-168 56,-204"/>
<text text-anchor="middle" x="28" y="-182.3" font-family="Arial" font-size="14.00" fill="#1a1919">0 Start</text>
</g>
<!-- node4 -->
<g id="node2" class="node">
<title>node4</title>
<polygon fill="#da2d4f" stroke="black" points="154,-123 48,-123 48,-87 154,-87 154,-123"/>
<text text-anchor="middle" x="101" y="-101.3" font-family="Arial" font-size="14.00" fill="#ffffff">4 LoadIndexed</text>
</g>
<!-- node0&#45;&gt;node4 -->
<g id="edge1" class="edge">
<title>node0&#45;&gt;node4</title>
<path fill="none" stroke="#da2d4f" stroke-width="2" d="M43.84,-167.86C53.88,-156.99 67.04,-142.75 78.2,-130.67"/>
<polygon fill="#da2d4f" stroke="#da2d4f" stroke-width="2" points="80.97,-132.83 85.19,-123.11 75.83,-128.08 80.97,-132.83"/>
</g>
<!-- node5 -->
<g id="node3" class="node">
<title>node5</title>
<polygon fill="#e98693" stroke="black" points="135,-36 67,-36 67,0 135,0 135,-36"/>
<text text-anchor="middle" x="101" y="-14.3" font-family="Arial" font-size="14.00" fill="#1a1919">5 Return</text>
</g>
<!-- node4&#45;&gt;node5 -->
<g id="edge4" class="edge">
<title>node4&#45;&gt;node5</title>
<path fill="none" stroke="#da2d4f" stroke-width="2" d="M99.83,-86.92C99.49,-81.22 99.17,-74.84 99,-69 98.79,-61.65 98.94,-53.69 99.23,-46.33"/>
<polygon fill="#da2d4f" stroke="#da2d4f" stroke-width="2" points="102.74,-46.28 99.73,-36.12 95.74,-45.94 102.74,-46.28"/>
</g>
<!-- node4&#45;&gt;node5 -->
<g id="edge5" class="edge">
<title>node4&#45;&gt;node5</title>
<path fill="none" stroke="#3cb4a4" d="M101,-86.8C101,-75.16 101,-59.55 101,-46.24"/>
<polygon fill="#3cb4a4" stroke="#3cb4a4" points="104.5,-46.18 101,-36.18 97.5,-46.18 104.5,-46.18"/>
<text text-anchor="middle" x="118" y="-57.8" font-family="arial" font-size="14.00" fill="#3cb4a4">result</text>
</g>
<!-- inline1x4 -->
<g id="node4" class="node">
<title>inline1x4</title>
<ellipse fill="#d7ede7" stroke="black" cx="101" cy="-186" rx="27" ry="18"/>
<text text-anchor="middle" x="101" y="-184.1" font-family="Arial" font-size="8.00" fill="#1a1919">1 P(0)</text>
</g>
<!-- inline1x4&#45;&gt;node4 -->
<g id="edge2" class="edge">
<title>inline1x4&#45;&gt;node4</title>
<path fill="none" stroke="#3cb4a4" d="M101,-167.86C101,-154.61 101,-136.35 101,-123.11"/>
<text text-anchor="middle" x="110.5" y="-143.6" font-family="arial" font-size="8.00" fill="#3cb4a4">array</text>
</g>
<!-- inline2x4 -->
<g id="node5" class="node">
<title>inline2x4</title>
<ellipse fill="#d7ede7" stroke="black" cx="173" cy="-186" rx="27" ry="18"/>
<text text-anchor="middle" x="173" y="-184.1" font-family="Arial" font-size="8.00" fill="#1a1919">2 P(1)</text>
</g>
<!-- inline2x4&#45;&gt;node4 -->
<g id="edge3" class="edge">
<title>inline2x4&#45;&gt;node4</title>
<path fill="none" stroke="#3cb4a4" d="M159.46,-170.14C147.32,-156.82 129.51,-137.28 116.74,-123.27"/>
<text text-anchor="middle" x="148.5" y="-143.6" font-family="arial" font-size="8.00" fill="#3cb4a4">index</text>
</g>
</g>
</svg>
