<?xml version="1.0" encoding="UTF-8" standalone="no"?>
<!DOCTYPE svg PUBLIC "-//W3C//DTD SVG 1.1//EN"
 "http://www.w3.org/Graphics/SVG/1.1/DTD/svg11.dtd">
<!-- Generated by graphviz version 2.43.0 (0)
 -->
<!-- Title: G Pages: 1 -->
<svg width="710pt" height="1270pt"
 viewBox="0.00 0.00 710.15 1270.48" xmlns="http://www.w3.org/2000/svg" xmlns:xlink="http://www.w3.org/1999/xlink">
<g id="graph0" class="graph" transform="scale(1 1) rotate(0) translate(4 1266.48)">
<title>G</title>
' points="-4,4 -4,-1266.48 706.15,-1266.48 706.15,4 -4,4"/>
<!-- node0 -->
<g id="node1" class="node">
<title>node0</title>
<polygon fill="#e98693" stroke="black" points="381.03,-1181.28 323.54,-1181.28 323.54,-1145.28 381.03,-1145.28 381.03,-1181.28"/>
<text text-anchor="middle" x="352.29" y="-1160.13" font-family="Arial" font-size="14.00" fill="#1a1919">0 Start</text>
</g>
<!-- node7 -->
<g id="node4" class="node">
<title>node7</title>
<polygon fill="#ffa500" stroke="black" points="252.36,-1093.18 0.21,-1093.18 0.21,-1057.18 252.36,-1057.18 252.36,-1093.18"/>
<text text-anchor="middle" x="126.29" y="-1072.03" font-family="Arial" font-size="14.00" fill="#1a1919">7 Guard not, else NullCheckException</text>
</g>
<!-- node0&#45;&gt;node7 -->
<g id="edge4" class="edge">
<title>node0&#45;&gt;node7</title>
<path fill="none" stroke="#3cb4a4" d="M323.66,-1151.38C287.81,-1137.72 225.63,-1114.03 180.62,-1096.88"/>
<polygon fill="#3cb4a4" stroke="#3cb4a4" points="181.6,-1093.51 171.01,-1093.22 179.11,-1100.05 181.6,-1093.51"/>
<text text-anchor="middle" x="280.69" y="-1116.08" font-family="arial" font-size="14.00" fill="#3cb4a4">anchor</text>
</g>
<!-- node11 -->
<g id="node7" class="node">
<title>node11</title>
<polygon fill="#da2d4f" stroke="black" points="442.85,-828.89 287.72,-828.89 287.72,-792.89 442.85,-792.89 442.85,-828.89"/>
<text text-anchor="middle" x="365.29" y="-807.74" font-family="Arial" font-size="14.00" fill="#ffffff">11 Read#[].length:final</text>
</g>
<!-- node0&#45;&gt;node11 -->
<g id="edge1" class="edge">
<title>node0&#45;&gt;node11</title>
<path fill="none" stroke="#da2d4f" stroke-width="2" d="M352.29,-1145.13C352.29,-1127.75 352.29,-1100.1 352.29,-1076.18 352.29,-1076.18 352.29,-1076.18 352.29,-897.99 352.29,-878.15 355.7,-856.02 359.03,-839.16"/>
<polygon fill="#da2d4f" stroke="#da2d4f" stroke-width="2" points="362.55,-839.43 361.17,-828.93 355.7,-838 362.55,-839.43"/>
</g>
<!-- node13 -->
<g id="node9" class="node">
<title>node13</title>
<polygon fill="#ffa500" stroke="black" points="702.01,-652.69 418.56,-652.69 418.56,-616.69 702.01,-616.69 702.01,-652.69"/>
<text text-anchor="middle" x="560.29" y="-631.54" font-family="Arial" font-size="14.00" fill="#1a1919">13 Guard not, else BoundsCheckException</text>
</g>
<!-- node0&#45;&gt;node13 -->
<g id="edge14" class="edge">
<title>node0&#45;&gt;node13</title>
<path fill="none" stroke="#3cb4a4" d="M381.21,-1162.93C438.36,-1162.56 560.29,-1152.79 560.29,-1076.18 560.29,-1076.18 560.29,-1076.18 560.29,-721.79 560.29,-702.17 560.29,-680.04 560.29,-663.12"/>
<polygon fill="#3cb4a4" stroke="#3cb4a4" points="563.79,-662.84 560.29,-652.84 556.79,-662.84 563.79,-662.84"/>
<text text-anchor="middle" x="581.69" y="-895.84" font-family="arial" font-size="14.00" fill="#3cb4a4">anchor</text>
</g>
<!-- node5 -->
<g id="node2" class="node">
<title>node5</title>
<polygon fill="#e98693" stroke="black" points="429.98,-36 360.59,-36 360.59,0 429.98,0 429.98,-36"/>
<text text-anchor="middle" x="395.29" y="-14.85" font-family="Arial" font-size="14.00" fill="#1a1919">5 Return</text>
</g>
<!-- node6 -->
<g id="node3" class="node">
<title>node6</title>
<polygon fill="#3cb4a4" stroke="black" points="157.47,-1181.28 95.1,-1181.28 95.1,-1145.28 157.47,-1145.28 157.47,-1181.28"/>
<text text-anchor="middle" x="126.29" y="-1160.13" font-family="Arial" font-size="14.00" fill="#1a1919">6 IsNull</text>
</g>
<!-- node6&#45;&gt;node7 -->
<g id="edge5" class="edge">
<title>node6&#45;&gt;node7</title>
<path fill="none" stroke="#3cb4a4" d="M126.29,-1145.27C126.29,-1133.44 126.29,-1117.4 126.29,-1103.76"/>
<polygon fill="#3cb4a4" stroke="#3cb4a4" points="129.79,-1103.45 126.29,-1093.45 122.79,-1103.45 129.79,-1103.45"/>
<text text-anchor="middle" x="130.18" y="-1116.08" font-family="arial" font-size="14.00" fill="#3cb4a4">?</text>
</g>
<!-- node8 -->
<g id="node5" class="node">
<title>node8</title>
<polygon fill="#f9f9f9" stroke="black" points="311.29,-1005.08 257.29,-1005.08 257.29,-969.08 311.29,-969.08 311.29,-1005.08"/>
<text text-anchor="middle" x="284.29" y="-983.93" font-family="Arial" font-size="14.00" fill="#1a1919">8 π</text>
</g>
<!-- node7&#45;&gt;node8 -->
<g id="edge6" class="edge">
<title>node7&#45;&gt;node8</title>
<path fill="none" stroke="#3cb4a4" d="M157.5,-1057.17C183.6,-1042.95 220.84,-1022.66 248.21,-1007.74"/>
<polygon fill="#3cb4a4" stroke="#3cb4a4" points="249.98,-1010.76 257.09,-1002.91 246.63,-1004.62 249.98,-1010.76"/>
<text text-anchor="middle" x="237.19" y="-1027.98" font-family="arial" font-size="14.00" fill="#3cb4a4">guard</text>
</g>
<!-- node10 -->
<g id="node6" class="node">
<title>node10</title>
<polygon fill="#f9f9f9" stroke="black" points="504.2,-916.99 380.37,-916.99 380.37,-880.99 504.2,-880.99 504.2,-916.99"/>
<text text-anchor="middle" x="442.29" y="-895.84" font-family="Arial" font-size="14.00" fill="#1a1919">10 OffsetAddress</text>
</g>
<!-- node8&#45;&gt;node10 -->
<g id="edge8" class="edge">
<title>node8&#45;&gt;node10</title>
<path fill="none" stroke="#3cb4a4" d="M311.45,-971.28C336.37,-957.7 373.61,-937.41 401.99,-921.94"/>
<polygon fill="#3cb4a4" stroke="#3cb4a4" points="403.76,-924.96 410.87,-917.11 400.41,-918.82 403.76,-924.96"/>
<text text-anchor="middle" x="392.46" y="-939.88" font-family="arial" font-size="14.00" fill="#3cb4a4">base</text>
</g>
<!-- node20 -->
<g id="node14" class="node">
<title>node20</title>
<polygon fill="#f9f9f9" stroke="black" points="457.2,-212.2 333.37,-212.2 333.37,-176.2 457.2,-176.2 457.2,-212.2"/>
<text text-anchor="middle" x="395.29" y="-191.05" font-family="Arial" font-size="14.00" fill="#1a1919">20 OffsetAddress</text>
</g>
<!-- node8&#45;&gt;node20 -->
<g id="edge23" class="edge">
<title>node8&#45;&gt;node20</title>
<path fill="none" stroke="#3cb4a4" d="M276.24,-969.03C268.93,-951.95 259.29,-924.73 259.29,-899.99 259.29,-899.99 259.29,-899.99 259.29,-281.3 259.29,-246.83 290.85,-225.59 323.56,-212.83"/>
<polygon fill="#3cb4a4" stroke="#3cb4a4" points="325.06,-216.01 333.26,-209.3 322.66,-209.44 325.06,-216.01"/>
<text text-anchor="middle" x="274.46" y="-587.49" font-family="arial" font-size="14.00" fill="#3cb4a4">base</text>
</g>
<!-- node10&#45;&gt;node11 -->
<g id="edge10" class="edge">
<title>node10&#45;&gt;node11</title>
<path fill="none" stroke="#3cb4a4" d="M427.07,-880.98C415.76,-868.32 400.14,-850.86 387.44,-836.66"/>
<polygon fill="#3cb4a4" stroke="#3cb4a4" points="390.01,-834.28 380.73,-829.16 384.79,-838.94 390.01,-834.28"/>
<text text-anchor="middle" x="435.19" y="-851.79" font-family="arial" font-size="14.00" fill="#3cb4a4">address</text>
</g>
<!-- node12 -->
<g id="node8" class="node">
<title>node12</title>
<polygon fill="#3cb4a4" stroke="black" points="532.29,-740.79 478.29,-740.79 478.29,-704.79 532.29,-704.79 532.29,-740.79"/>
<text text-anchor="middle" x="505.29" y="-719.64" font-family="Arial" font-size="14.00" fill="#1a1919">12 |&lt;|</text>
</g>
<!-- node11&#45;&gt;node12 -->
<g id="edge13" class="edge">
<title>node11&#45;&gt;node12</title>
<path fill="none" stroke="#3cb4a4" d="M367.77,-792.5C370.22,-781.42 375.06,-767.54 384.53,-758.79 407.23,-737.79 441.8,-729.31 468.14,-725.93"/>
<polygon fill="#3cb4a4" stroke="#3cb4a4" points="468.59,-729.4 478.15,-724.84 467.82,-722.44 468.59,-729.4"/>
<text text-anchor="middle" x="442.66" y="-763.69" font-family="arial" font-size="14.00" fill="#3cb4a4">y [0 &#45; 2147483647]</text>
</g>
<!-- node21 -->
<g id="node15" class="node">
<title>node21</title>
<polygon fill="#da2d4f" stroke="black" points="461.52,-124.1 329.05,-124.1 329.05,-88.1 461.52,-88.1 461.52,-124.1"/>
<text text-anchor="middle" x="395.29" y="-102.95" font-family="Arial" font-size="14.00" fill="#ffffff">21 Read#Array: int</text>
</g>
<!-- node11&#45;&gt;node21 -->
<g id="edge11" class="edge">
<title>node11&#45;&gt;node21</title>
<path fill="none" stroke="#da2d4f" stroke-width="2" d="M343.96,-792.83C326.72,-776.97 305.29,-751.66 305.29,-723.79 305.29,-723.79 305.29,-723.79 305.29,-193.2 305.29,-165.59 327.68,-144.1 350.12,-129.5"/>
<polygon fill="#da2d4f" stroke="#da2d4f" stroke-width="2" points="351.99,-132.46 358.68,-124.24 348.33,-126.49 351.99,-132.46"/>
<text text-anchor="middle" x="360.16" y="-455.34" font-family="arial" font-size="14.00" fill="#da2d4f"> [0 &#45; 2147483647]</text>
</g>
<!-- node12&#45;&gt;node13 -->
<g id="edge15" class="edge">
<title>node12&#45;&gt;node13</title>
<path fill="none" stroke="#3cb4a4" d="M516.15,-704.78C524.01,-692.48 534.77,-675.63 543.7,-661.65"/>
<polygon fill="#3cb4a4" stroke="#3cb4a4" points="546.82,-663.27 549.25,-652.96 540.92,-659.5 546.82,-663.27"/>
<text text-anchor="middle" x="541.18" y="-675.59" font-family="arial" font-size="14.00" fill="#3cb4a4">?</text>
</g>
<!-- node14 -->
<g id="node10" class="node">
<title>node14</title>
<polygon fill="#f9f9f9" stroke="black" points="510.29,-564.59 456.29,-564.59 456.29,-528.59 510.29,-528.59 510.29,-564.59"/>
<text text-anchor="middle" x="483.29" y="-543.44" font-family="Arial" font-size="14.00" fill="#1a1919">14 π</text>
</g>
<!-- node13&#45;&gt;node14 -->
<g id="edge16" class="edge">
<title>node13&#45;&gt;node14</title>
<path fill="none" stroke="#3cb4a4" d="M545.07,-616.68C533.76,-604.03 518.14,-586.57 505.44,-572.36"/>
<polygon fill="#3cb4a4" stroke="#3cb4a4" points="508.01,-569.98 498.73,-564.86 502.79,-574.65 508.01,-569.98"/>
<text text-anchor="middle" x="546.19" y="-587.49" font-family="arial" font-size="14.00" fill="#3cb4a4">guard</text>
</g>
<!-- node13&#45;&gt;node21 -->
<g id="edge25" class="edge">
<title>node13&#45;&gt;node21</title>
<path fill="none" stroke="#3cb4a4" d="M591.83,-616.56C614.58,-601.67 641.29,-577.76 641.29,-547.59 641.29,-547.59 641.29,-547.59 641.29,-193.2 641.29,-156.73 543.78,-132.06 471.55,-118.78"/>
<polygon fill="#3cb4a4" stroke="#3cb4a4" points="471.99,-115.3 461.53,-116.98 470.76,-122.19 471.99,-115.3"/>
<text text-anchor="middle" x="659.19" y="-367.24" font-family="arial" font-size="14.00" fill="#3cb4a4">guard</text>
</g>
<!-- node15 -->
<g id="node11" class="node">
<title>node15</title>
<polygon fill="#3cb4a4" stroke="black" points="612.85,-476.49 505.72,-476.49 505.72,-440.49 612.85,-440.49 612.85,-476.49"/>
<text text-anchor="middle" x="559.29" y="-455.34" font-family="Arial" font-size="14.00" fill="#1a1919">15 SignExtend</text>
</g>
<!-- node14&#45;&gt;node15 -->
<g id="edge18" class="edge">
<title>node14&#45;&gt;node15</title>
<path fill="none" stroke="#3cb4a4" d="M479.17,-528.16C477.68,-517.6 477.69,-504.32 484.06,-494.49 487.5,-489.18 491.99,-484.66 497.05,-480.81"/>
<polygon fill="#3cb4a4" stroke="#3cb4a4" points="498.97,-483.73 505.41,-475.31 495.13,-477.89 498.97,-483.73"/>
<text text-anchor="middle" x="554.9" y="-499.39" font-family="arial" font-size="14.00" fill="#3cb4a4">value [0 &#45; 2147483646]</text>
</g>
<!-- node17 -->
<g id="node12" class="node">
<title>node17</title>
<polygon fill="#3cb4a4" stroke="black" points="491.29,-388.39 437.29,-388.39 437.29,-352.39 491.29,-352.39 491.29,-388.39"/>
<text text-anchor="middle" x="464.29" y="-367.24" font-family="Arial" font-size="14.00" fill="#1a1919">17 &lt;&lt;</text>
</g>
<!-- node15&#45;&gt;node17 -->
<g id="edge19" class="edge">
<title>node15&#45;&gt;node17</title>
<path fill="none" stroke="#3cb4a4" d="M533.45,-440.49C525.81,-435.06 517.6,-428.81 510.53,-422.49 501.65,-414.56 492.68,-405.07 485.04,-396.44"/>
<polygon fill="#3cb4a4" stroke="#3cb4a4" points="487.63,-394.08 478.43,-388.82 482.34,-398.67 487.63,-394.08"/>
<text text-anchor="middle" x="568.66" y="-411.29" font-family="arial" font-size="14.00" fill="#3cb4a4">x [0 &#45; 2147483646]</text>
</g>
<!-- node19 -->
<g id="node13" class="node">
<title>node19</title>
<polygon fill="#3cb4a4" stroke="black" points="422.29,-300.3 368.29,-300.3 368.29,-264.3 422.29,-264.3 422.29,-300.3"/>
<text text-anchor="middle" x="395.29" y="-279.15" font-family="Arial" font-size="14.00" fill="#1a1919">19 +</text>
</g>
<!-- node17&#45;&gt;node19 -->
<g id="edge21" class="edge">
<title>node17&#45;&gt;node19</title>
<path fill="none" stroke="#3cb4a4" d="M450.65,-352.38C440.61,-339.85 426.78,-322.59 415.46,-308.46"/>
<polygon fill="#3cb4a4" stroke="#3cb4a4" points="418.11,-306.18 409.13,-300.57 412.65,-310.56 418.11,-306.18"/>
<text text-anchor="middle" x="493.66" y="-323.19" font-family="arial" font-size="14.00" fill="#3cb4a4">x [0 &#45; 8589934584]</text>
</g>
<!-- node19&#45;&gt;node20 -->
<g id="edge24" class="edge">
<title>node19&#45;&gt;node20</title>
<path fill="none" stroke="#3cb4a4" d="M395.29,-264.29C395.29,-252.45 395.29,-236.42 395.29,-222.77"/>
<polygon fill="#3cb4a4" stroke="#3cb4a4" points="398.79,-222.47 395.29,-212.47 391.79,-222.47 398.79,-222.47"/>
<text text-anchor="middle" x="471.05" y="-235.1" font-family="arial" font-size="14.00" fill="#3cb4a4">offset [16 &#45; 8589934600]</text>
</g>
<!-- node20&#45;&gt;node21 -->
<g id="edge26" class="edge">
<title>node20&#45;&gt;node21</title>
<path fill="none" stroke="#3cb4a4" d="M395.29,-176.19C395.29,-164.35 395.29,-148.32 395.29,-134.67"/>
<polygon fill="#3cb4a4" stroke="#3cb4a4" points="398.79,-134.37 395.29,-124.37 391.79,-134.37 398.79,-134.37"/>
<text text-anchor="middle" x="420.19" y="-147" font-family="arial" font-size="14.00" fill="#3cb4a4">address</text>
</g>
<!-- node21&#45;&gt;node5 -->
<g id="edge2" class="edge">
<title>node21&#45;&gt;node5</title>
<path fill="none" stroke="#3cb4a4" d="M381.04,-87.96C377.38,-82.57 373.95,-76.38 372.05,-70.1 369.98,-63.25 369.98,-60.85 372.05,-54 373,-50.86 374.33,-47.74 375.88,-44.73"/>
<polygon fill="#3cb4a4" stroke="#3cb4a4" points="378.9,-46.51 381.04,-36.14 372.89,-42.91 378.9,-46.51"/>
<text text-anchor="middle" x="388.4" y="-58.9" font-family="arial" font-size="14.00" fill="#3cb4a4">result</text>
</g>
<!-- node21&#45;&gt;node5 -->
<g id="edge27" class="edge">
<title>node21&#45;&gt;node5</title>
<path fill="none" stroke="#da2d4f" stroke-width="2" d="M401.83,-87.9C403.65,-82.31 405.38,-76.02 406.29,-70.1 407.37,-63.03 407.37,-61.07 406.29,-54 405.87,-51.32 405.3,-48.56 404.62,-45.83"/>
<polygon fill="#da2d4f" stroke="#da2d4f" stroke-width="2" points="407.97,-44.83 401.83,-36.2 401.25,-46.78 407.97,-44.83"/>
</g>
<!-- inline1x6 -->
<g id="node16" class="node">
<title>inline1x6</title>
<ellipse fill="#d7ede7" stroke="black" cx="126.29" cy="-1244.48" rx="27" ry="18"/>
<text text-anchor="middle" x="126.29" y="-1242.68" font-family="Arial" font-size="8.00" fill="#1a1919">1 P(0)</text>
</g>
<!-- inline1x6&#45;&gt;node6 -->
<g id="edge3" class="edge">
<title>inline1x6&#45;&gt;node6</title>
<path fill="none" stroke="#3cb4a4" d="M126.29,-1226.3C126.29,-1213.01 126.29,-1194.71 126.29,-1181.43"/>
<text text-anchor="middle" x="135.85" y="-1202.08" font-family="arial" font-size="8.00" fill="#3cb4a4">value</text>
</g>
<!-- inline1x8 -->
<g id="node17" class="node">
<title>inline1x8</title>
<ellipse fill="#d7ede7" stroke="black" cx="297.29" cy="-1075.18" rx="27" ry="18"/>
<text text-anchor="middle" x="297.29" y="-1073.38" font-family="Arial" font-size="8.00" fill="#1a1919">1 P(0)</text>
</g>
<!-- inline1x8&#45;&gt;node8 -->
<g id="edge7" class="edge">
<title>inline1x8&#45;&gt;node8</title>
<path fill="none" stroke="#3cb4a4" d="M294.72,-1057.17C292.45,-1042.18 289.17,-1020.43 286.89,-1005.35"/>
<text text-anchor="middle" x="301.96" y="-1029.33" font-family="arial" font-size="8.00" fill="#3cb4a4">object</text>
</g>
<!-- inline9x10 -->
<g id="node18" class="node">
<title>inline9x10</title>
<ellipse fill="#d7ede7" stroke="black" cx="442.29" cy="-987.08" rx="27" ry="18"/>
<text text-anchor="middle" x="442.29" y="-985.28" font-family="Arial" font-size="8.00" fill="#1a1919">9 C(12)</text>
</g>
<!-- inline9x10&#45;&gt;node10 -->
<g id="edge9" class="edge">
<title>inline9x10&#45;&gt;node10</title>
<path fill="none" stroke="#3cb4a4" d="M442.29,-969.07C442.29,-954.08 442.29,-932.33 442.29,-917.26"/>
<text text-anchor="middle" x="452" y="-941.24" font-family="arial" font-size="8.00" fill="#3cb4a4">offset</text>
</g>
<!-- inline2x12 -->
<g id="node19" class="node">
<title>inline2x12</title>
<ellipse fill="#d7ede7" stroke="black" cx="505.29" cy="-810.89" rx="27" ry="18"/>
<text text-anchor="middle" x="505.29" y="-809.09" font-family="Arial" font-size="8.00" fill="#1a1919">2 P(1)</text>
</g>
<!-- inline2x12&#45;&gt;node12 -->
<g id="edge12" class="edge">
<title>inline2x12&#45;&gt;node12</title>
<path fill="none" stroke="#3cb4a4" d="M505.29,-792.88C505.29,-777.88 505.29,-756.13 505.29,-741.06"/>
<text text-anchor="middle" x="507.29" y="-765.04" font-family="arial" font-size="8.00" fill="#3cb4a4">x</text>
</g>
<!-- inline2x14 -->
<g id="node20" class="node">
<title>inline2x14</title>
<ellipse fill="#d7ede7" stroke="black" cx="373.29" cy="-634.69" rx="27" ry="18"/>
<text text-anchor="middle" x="373.29" y="-632.89" font-family="Arial" font-size="8.00" fill="#1a1919">2 P(1)</text>
</g>
<!-- inline2x14&#45;&gt;node14 -->
<g id="edge17" class="edge">
<title>inline2x14&#45;&gt;node14</title>
<path fill="none" stroke="#3cb4a4" d="M390.47,-620.24C409.57,-605.29 440.45,-581.12 461.29,-564.81"/>
<text text-anchor="middle" x="447.96" y="-588.84" font-family="arial" font-size="8.00" fill="#3cb4a4">object</text>
</g>
<!-- inline16x17 -->
<g id="node21" class="node">
<title>inline16x17</title>
<ellipse fill="#d7ede7" stroke="black" cx="460.29" cy="-458.49" rx="27" ry="18"/>
<text text-anchor="middle" x="460.29" y="-456.69" font-family="Arial" font-size="8.00" fill="#1a1919">16 C(2)</text>
</g>
<!-- inline16x17&#45;&gt;node17 -->
<g id="edge20" class="edge">
<title>inline16x17&#45;&gt;node17</title>
<path fill="none" stroke="#3cb4a4" d="M461.08,-440.48C461.77,-425.49 462.78,-403.74 463.48,-388.66"/>
<text text-anchor="middle" x="464.29" y="-412.64" font-family="arial" font-size="8.00" fill="#3cb4a4">y</text>
</g>
<!-- inline18x19 -->
<g id="node22" class="node">
<title>inline18x19</title>
<ellipse fill="#d7ede7" stroke="black" cx="392.29" cy="-370.39" rx="27" ry="18"/>
<text text-anchor="middle" x="392.29" y="-368.59" font-family="Arial" font-size="8.00" fill="#1a1919">18 C(16)</text>
</g>
<!-- inline18x19&#45;&gt;node19 -->
<g id="edge22" class="edge">
<title>inline18x19&#45;&gt;node19</title>
<path fill="none" stroke="#3cb4a4" d="M392.88,-352.38C393.4,-337.39 394.16,-315.64 394.68,-300.57"/>
<text text-anchor="middle" x="395.29" y="-324.54" font-family="arial" font-size="8.00" fill="#3cb4a4">y</text>
</g>
</g>
</svg>
