<?xml version="1.0" encoding="UTF-8" standalone="no"?>
<!DOCTYPE svg PUBLIC "-//W3C//DTD SVG 1.1//EN"
 "http://www.w3.org/Graphics/SVG/1.1/DTD/svg11.dtd">
<!-- Generated by graphviz version 2.43.0 (0)
 -->
<!-- Title: G Pages: 1 -->
<svg width="271pt" height="301pt"
 viewBox="0.00 0.00 270.57 301.40" xmlns="http://www.w3.org/2000/svg" xmlns:xlink="http://www.w3.org/1999/xlink">
<g id="graph0" class="graph" transform="scale(1 1) rotate(0) translate(4 297.4)">
<title>G</title>
' points="-4,4 -4,-297.4 266.57,-297.4 266.57,4 -4,4"/>
<!-- node0 -->
<g id="node1" class="node">
<title>node0</title>
<polygon fill="#e98693" stroke="black" points="123.31,-212.2 65.83,-212.2 65.83,-176.2 123.31,-176.2 123.31,-212.2"/>
<text text-anchor="middle" x="94.57" y="-191.05" font-family="Arial" font-size="14.00" fill="#1a1919">0 Start</text>
</g>
<!-- node8 -->
<g id="node4" class="node">
<title>node8</title>
<polygon fill="#da2d4f" stroke="black" points="221.22,-124.1 -0.07,-124.1 -0.07,-88.1 221.22,-88.1 221.22,-124.1"/>
<text text-anchor="middle" x="110.57" y="-102.95" font-family="Arial" font-size="14.00" fill="#ffffff">8 Read#OFF_HEAP_LOCATION</text>
</g>
<!-- node0&#45;&gt;node8 -->
<g id="edge1" class="edge">
<title>node0&#45;&gt;node8</title>
<path fill="none" stroke="#da2d4f" stroke-width="2" d="M97.73,-176.19C99.96,-164.24 102.97,-148 105.52,-134.27"/>
<polygon fill="#da2d4f" stroke="#da2d4f" stroke-width="2" points="108.98,-134.84 107.36,-124.37 102.1,-133.56 108.98,-134.84"/>
</g>
<!-- node5 -->
<g id="node2" class="node">
<title>node5</title>
<polygon fill="#e98693" stroke="black" points="145.27,-36 75.88,-36 75.88,0 145.27,0 145.27,-36"/>
<text text-anchor="middle" x="110.57" y="-14.85" font-family="Arial" font-size="14.00" fill="#1a1919">5 Return</text>
</g>
<!-- node7 -->
<g id="node3" class="node">
<title>node7</title>
<polygon fill="#f9f9f9" stroke="black" points="257.7,-212.2 141.45,-212.2 141.45,-176.2 257.7,-176.2 257.7,-212.2"/>
<text text-anchor="middle" x="199.57" y="-191.05" font-family="Arial" font-size="14.00" fill="#1a1919">7 OffsetAddress</text>
</g>
<!-- node7&#45;&gt;node8 -->
<g id="edge5" class="edge">
<title>node7&#45;&gt;node8</title>
<path fill="none" stroke="#3cb4a4" d="M181.99,-176.19C168.79,-163.42 150.53,-145.75 135.77,-131.48"/>
<polygon fill="#3cb4a4" stroke="#3cb4a4" points="138.05,-128.81 128.42,-124.37 133.18,-133.84 138.05,-128.81"/>
<text text-anchor="middle" x="188.48" y="-147" font-family="arial" font-size="14.00" fill="#3cb4a4">address</text>
</g>
<!-- node8&#45;&gt;node5 -->
<g id="edge2" class="edge">
<title>node8&#45;&gt;node5</title>
<path fill="none" stroke="#3cb4a4" d="M96.33,-87.96C92.67,-82.57 89.23,-76.38 87.34,-70.1 85.27,-63.25 85.27,-60.85 87.34,-54 88.29,-50.86 89.62,-47.74 91.17,-44.73"/>
<polygon fill="#3cb4a4" stroke="#3cb4a4" points="94.19,-46.51 96.33,-36.14 88.18,-42.91 94.19,-46.51"/>
<text text-anchor="middle" x="104.69" y="-58.9" font-family="arial" font-size="14.00" fill="#3cb4a4">result</text>
</g>
<!-- node8&#45;&gt;node5 -->
<g id="edge6" class="edge">
<title>node8&#45;&gt;node5</title>
<path fill="none" stroke="#da2d4f" stroke-width="2" d="M117.12,-87.9C118.94,-82.31 120.67,-76.02 121.57,-70.1 122.66,-63.03 122.66,-61.07 121.57,-54 121.16,-51.32 120.58,-48.56 119.9,-45.83"/>
<polygon fill="#da2d4f" stroke="#da2d4f" stroke-width="2" points="123.26,-44.83 117.12,-36.2 116.54,-46.78 123.26,-44.83"/>
</g>
<!-- inline1x7 -->
<g id="node5" class="node">
<title>inline1x7</title>
<ellipse fill="#d7ede7" stroke="black" cx="163.57" cy="-275.4" rx="27" ry="18"/>
<text text-anchor="middle" x="163.57" y="-273.6" font-family="Arial" font-size="8.00" fill="#1a1919">1 P(0)</text>
</g>
<!-- inline1x7&#45;&gt;node7 -->
<g id="edge3" class="edge">
<title>inline1x7&#45;&gt;node7</title>
<path fill="none" stroke="#3cb4a4" d="M171.03,-257.99C177.09,-244.67 185.6,-225.94 191.75,-212.41"/>
<text text-anchor="middle" x="192.25" y="-233" font-family="arial" font-size="8.00" fill="#3cb4a4">base</text>
</g>
<!-- inline6x7 -->
<g id="node6" class="node">
<title>inline6x7</title>
<ellipse fill="#d7ede7" stroke="black" cx="235.57" cy="-275.4" rx="27" ry="18"/>
<text text-anchor="middle" x="235.57" y="-273.6" font-family="Arial" font-size="8.00" fill="#1a1919">6 C(0)</text>
</g>
<!-- inline6x7&#45;&gt;node7 -->
<g id="edge4" class="edge">
<title>inline6x7&#45;&gt;node7</title>
<path fill="none" stroke="#3cb4a4" d="M228.11,-257.99C222.06,-244.67 213.55,-225.94 207.4,-212.41"/>
<text text-anchor="middle" x="228.28" y="-233" font-family="arial" font-size="8.00" fill="#3cb4a4">offset</text>
</g>
</g>
</svg>
