<?xml version="1.0" encoding="UTF-8" standalone="no"?>
<!DOCTYPE svg PUBLIC "-//W3C//DTD SVG 1.1//EN"
 "http://www.w3.org/Graphics/SVG/1.1/DTD/svg11.dtd">
<!-- Generated by graphviz version 2.44.0 (20200408.0750)
 -->
<!-- Title: G Pages: 1 -->
<svg width="503pt" height="633pt"
 viewBox="0.00 0.00 503.00 633.00" xmlns="http://www.w3.org/2000/svg" xmlns:xlink="http://www.w3.org/1999/xlink">
<g id="graph0" class="graph" transform="scale(1 1) rotate(0) translate(4 629)">
<title>G</title>
<!-- node0 -->
<g id="node1" class="node">
<title>node0</title>
<polygon fill="#e98693" stroke="black" points="250,-544 194,-544 194,-508 250,-508 250,-544"/>
<text text-anchor="middle" x="222" y="-522.3" font-family="Arial" font-size="14.00" fill="#1a1919">0 Start</text>
</g>
<!-- node8 -->
<g id="node5" class="node">
<title>node8</title>
<polygon fill="#e98693" stroke="black" points="277,-457 223,-457 223,-421 277,-421 277,-457"/>
<text text-anchor="middle" x="250" y="-435.3" font-family="Arial" font-size="14.00" fill="#1a1919">8 If</text>
</g>
<!-- node0&#45;&gt;node8 -->
<g id="edge1" class="edge">
<title>node0&#45;&gt;node8</title>
<path fill="none" stroke="#da2d4f" stroke-width="2" d="M227.67,-507.8C231.54,-496.05 236.75,-480.24 241.16,-466.84"/>
<polygon fill="#da2d4f" stroke="#da2d4f" stroke-width="2" points="244.54,-467.77 244.34,-457.18 237.89,-465.58 244.54,-467.77"/>
</g>
<!-- node5 -->
<g id="node2" class="node">
<title>node5</title>
<polygon fill="#3cb4a4" stroke="black" points="301,-544 267.82,-526 301,-508 334.18,-526 301,-544"/>
<text text-anchor="middle" x="301" y="-522.3" font-family="Arial" font-size="14.00" fill="#1a1919">5 &lt;</text>
</g>
<!-- node5&#45;&gt;node8 -->
<g id="edge6" class="edge">
<title>node5&#45;&gt;node8</title>
<path fill="none" stroke="#3cb4a4" d="M293.25,-512.09C285.96,-499.94 274.82,-481.37 265.68,-466.13"/>
<polygon fill="#3cb4a4" stroke="#3cb4a4" points="268.44,-463.93 260.29,-457.15 262.44,-467.53 268.44,-463.93"/>
<text text-anchor="middle" x="283" y="-478.8" font-family="arial" font-size="14.00" fill="#3cb4a4">?</text>
</g>
<!-- node6 -->
<g id="node3" class="node">
<title>node6</title>
<polygon fill="#e98693" stroke="black" points="335,-370 273,-370 273,-334 335,-334 335,-370"/>
<text text-anchor="middle" x="304" y="-348.3" font-family="Arial" font-size="14.00" fill="#1a1919">6 Begin</text>
</g>
<!-- node13 -->
<g id="node9" class="node">
<title>node13</title>
<polygon fill="#da2d4f" stroke="black" points="353.5,-283 254.5,-283 254.5,-247 353.5,-247 353.5,-283"/>
<text text-anchor="middle" x="304" y="-261.3" font-family="Arial" font-size="14.00" fill="#ffffff">13 Call Fib.fib</text>
</g>
<!-- node6&#45;&gt;node13 -->
<g id="edge4" class="edge">
<title>node6&#45;&gt;node13</title>
<path fill="none" stroke="#da2d4f" stroke-width="2" d="M304,-333.8C304,-322.16 304,-306.55 304,-293.24"/>
<polygon fill="#da2d4f" stroke="#da2d4f" stroke-width="2" points="307.5,-293.18 304,-283.18 300.5,-293.18 307.5,-293.18"/>
</g>
<!-- node7 -->
<g id="node4" class="node">
<title>node7</title>
<polygon fill="#e98693" stroke="black" points="255,-370 193,-370 193,-334 255,-334 255,-370"/>
<text text-anchor="middle" x="224" y="-348.3" font-family="Arial" font-size="14.00" fill="#1a1919">7 Begin</text>
</g>
<!-- node9 -->
<g id="node6" class="node">
<title>node9</title>
<polygon fill="#e98693" stroke="black" points="234,-283 166,-283 166,-247 234,-247 234,-283"/>
<text text-anchor="middle" x="200" y="-261.3" font-family="Arial" font-size="14.00" fill="#1a1919">9 Return</text>
</g>
<!-- node7&#45;&gt;node9 -->
<g id="edge5" class="edge">
<title>node7&#45;&gt;node9</title>
<path fill="none" stroke="#da2d4f" stroke-width="2" d="M219.14,-333.8C215.83,-322.05 211.36,-306.24 207.58,-292.84"/>
<polygon fill="#da2d4f" stroke="#da2d4f" stroke-width="2" points="210.94,-291.85 204.85,-283.18 204.2,-293.75 210.94,-291.85"/>
</g>
<!-- node8&#45;&gt;node6 -->
<g id="edge8" class="edge">
<title>node8&#45;&gt;node6</title>
<path fill="none" stroke="#da2d4f" stroke-width="2" d="M260.93,-420.8C268.61,-408.7 279.03,-392.3 287.69,-378.67"/>
<polygon fill="#da2d4f" stroke="#da2d4f" stroke-width="2" points="290.68,-380.49 293.09,-370.18 284.77,-376.74 290.68,-380.49"/>
<text text-anchor="middle" x="285.5" y="-391.8" font-family="arial" font-size="14.00" fill="#da2d4f">F</text>
</g>
<!-- node8&#45;&gt;node7 -->
<g id="edge7" class="edge">
<title>node8&#45;&gt;node7</title>
<path fill="none" stroke="#da2d4f" stroke-width="2" d="M244.74,-420.8C241.14,-409.05 236.31,-393.24 232.21,-379.84"/>
<polygon fill="#da2d4f" stroke="#da2d4f" stroke-width="2" points="235.53,-378.71 229.25,-370.18 228.83,-380.76 235.53,-378.71"/>
<text text-anchor="middle" x="243.5" y="-391.8" font-family="arial" font-size="14.00" fill="#da2d4f">T</text>
</g>
<!-- node11 -->
<g id="node7" class="node">
<title>node11</title>
<polygon fill="#3cb4a4" stroke="black" points="424,-457 384.45,-439 424,-421 463.55,-439 424,-457"/>
<text text-anchor="middle" x="424" y="-435.3" font-family="Arial" font-size="14.00" fill="#1a1919">11 +</text>
</g>
<!-- node12 -->
<g id="node8" class="node">
<title>node12</title>
<polygon fill="#f9f9f9" stroke="black" points="495,-370 353,-370 353,-334 495,-334 495,-370"/>
<text text-anchor="middle" x="424" y="-348.3" font-family="Arial" font-size="14.00" fill="#1a1919">12 MethodCallTarget</text>
</g>
<!-- node11&#45;&gt;node12 -->
<g id="edge12" class="edge">
<title>node11&#45;&gt;node12</title>
<path fill="none" stroke="#3cb4a4" d="M424,-420.8C424,-409.16 424,-393.55 424,-380.24"/>
<polygon fill="#3cb4a4" stroke="#3cb4a4" points="427.5,-380.18 424,-370.18 420.5,-380.18 427.5,-380.18"/>
<text text-anchor="middle" x="441.5" y="-391.8" font-family="arial" font-size="14.00" fill="#3cb4a4">arg[0]</text>
</g>
<!-- node12&#45;&gt;node13 -->
<g id="edge13" class="edge">
<title>node12&#45;&gt;node13</title>
<path fill="none" stroke="#343d46" stroke-dasharray="5,2" d="M391.52,-327.99C371.58,-313.87 346.46,-296.07 328.25,-283.18"/>
<polygon fill="#343d46" stroke="#343d46" points="389.53,-330.87 399.72,-333.8 393.58,-325.16 389.53,-330.87"/>
</g>
<!-- node18 -->
<g id="node12" class="node">
<title>node18</title>
<polygon fill="#da2d4f" stroke="black" points="267.5,-210 168.5,-210 168.5,-174 267.5,-174 267.5,-210"/>
<text text-anchor="middle" x="218" y="-188.3" font-family="Arial" font-size="14.00" fill="#ffffff">18 Call Fib.fib</text>
</g>
<!-- node13&#45;&gt;node18 -->
<g id="edge14" class="edge">
<title>node13&#45;&gt;node18</title>
<path fill="none" stroke="#da2d4f" stroke-width="2" d="M283.18,-246.81C272.2,-237.74 258.55,-226.48 246.59,-216.6"/>
<polygon fill="#da2d4f" stroke="#da2d4f" stroke-width="2" points="248.57,-213.7 238.63,-210.03 244.11,-219.09 248.57,-213.7"/>
</g>
<!-- node20 -->
<g id="node13" class="node">
<title>node20</title>
<polygon fill="#3cb4a4" stroke="black" points="286,-123 245.61,-105 286,-87 326.39,-105 286,-123"/>
<text text-anchor="middle" x="286" y="-101.3" font-family="Arial" font-size="14.00" fill="#1a1919">20 +</text>
</g>
<!-- node13&#45;&gt;node20 -->
<g id="edge20" class="edge">
<title>node13&#45;&gt;node20</title>
<path fill="none" stroke="#3cb4a4" d="M302.04,-246.79C298.9,-219.2 292.71,-164.86 289,-132.36"/>
<polygon fill="#3cb4a4" stroke="#3cb4a4" points="292.46,-131.78 287.85,-122.24 285.5,-132.57 292.46,-131.78"/>
<text text-anchor="middle" x="301.5" y="-188.3" font-family="arial" font-size="14.00" fill="#3cb4a4">x</text>
</g>
<!-- node16 -->
<g id="node10" class="node">
<title>node16</title>
<polygon fill="#3cb4a4" stroke="black" points="63,-370 22.61,-352 63,-334 103.39,-352 63,-370"/>
<text text-anchor="middle" x="63" y="-348.3" font-family="Arial" font-size="14.00" fill="#1a1919">16 +</text>
</g>
<!-- node17 -->
<g id="node11" class="node">
<title>node17</title>
<polygon fill="#f9f9f9" stroke="black" points="144,-283 2,-283 2,-247 144,-247 144,-283"/>
<text text-anchor="middle" x="73" y="-261.3" font-family="Arial" font-size="14.00" fill="#1a1919">17 MethodCallTarget</text>
</g>
<!-- node16&#45;&gt;node17 -->
<g id="edge17" class="edge">
<title>node16&#45;&gt;node17</title>
<path fill="none" stroke="#3cb4a4" d="M64.93,-334.61C66.3,-322.96 68.17,-307.04 69.77,-293.47"/>
<polygon fill="#3cb4a4" stroke="#3cb4a4" points="73.28,-293.55 70.97,-283.21 66.33,-292.74 73.28,-293.55"/>
<text text-anchor="middle" x="86.5" y="-304.8" font-family="arial" font-size="14.00" fill="#3cb4a4">arg[0]</text>
</g>
<!-- node17&#45;&gt;node18 -->
<g id="edge18" class="edge">
<title>node17&#45;&gt;node18</title>
<path fill="none" stroke="#343d46" stroke-dasharray="5,2" d="M116.86,-242.52C138.06,-232.14 163.16,-219.85 183.05,-210.11"/>
<polygon fill="#343d46" stroke="#343d46" points="115.17,-239.45 107.73,-246.99 118.25,-245.74 115.17,-239.45"/>
</g>
<!-- node18&#45;&gt;node20 -->
<g id="edge21" class="edge">
<title>node18&#45;&gt;node20</title>
<path fill="none" stroke="#3cb4a4" d="M231.76,-173.8C242.66,-160.17 257.92,-141.09 269.48,-126.64"/>
<polygon fill="#3cb4a4" stroke="#3cb4a4" points="272.29,-128.74 275.8,-118.75 266.82,-124.37 272.29,-128.74"/>
<text text-anchor="middle" x="260.5" y="-144.8" font-family="arial" font-size="14.00" fill="#3cb4a4">y</text>
</g>
<!-- node21 -->
<g id="node14" class="node">
<title>node21</title>
<polygon fill="#e98693" stroke="black" points="272,-36 196,-36 196,0 272,0 272,-36"/>
<text text-anchor="middle" x="234" y="-14.3" font-family="Arial" font-size="14.00" fill="#1a1919">21 Return</text>
</g>
<!-- node18&#45;&gt;node21 -->
<g id="edge19" class="edge">
<title>node18&#45;&gt;node21</title>
<path fill="none" stroke="#da2d4f" stroke-width="2" d="M219.59,-173.88C222.37,-144 228.13,-82.11 231.46,-46.27"/>
<polygon fill="#da2d4f" stroke="#da2d4f" stroke-width="2" points="234.97,-46.33 232.41,-36.05 228,-45.68 234.97,-46.33"/>
</g>
<!-- node20&#45;&gt;node21 -->
<g id="edge22" class="edge">
<title>node20&#45;&gt;node21</title>
<path fill="none" stroke="#3cb4a4" d="M277.65,-90.34C270.18,-78.14 259.04,-59.93 249.88,-44.96"/>
<polygon fill="#3cb4a4" stroke="#3cb4a4" points="252.69,-42.85 244.49,-36.15 246.72,-46.5 252.69,-42.85"/>
<text text-anchor="middle" x="281" y="-57.8" font-family="arial" font-size="14.00" fill="#3cb4a4">result</text>
</g>
<!-- inline1x5 -->
<g id="node15" class="node">
<title>inline1x5</title>
<ellipse fill="#d7ede7" stroke="black" cx="265" cy="-607" rx="27" ry="18"/>
<text text-anchor="middle" x="265" y="-605.1" font-family="Arial" font-size="8.00" fill="#1a1919">1 P(0)</text>
</g>
<!-- inline1x5&#45;&gt;node5 -->
<g id="edge2" class="edge">
<title>inline1x5&#45;&gt;node5</title>
<path fill="none" stroke="#3cb4a4" d="M272.46,-589.63C279.05,-575.17 288.55,-554.32 294.75,-540.72"/>
<text text-anchor="middle" x="287" y="-564.6" font-family="arial" font-size="8.00" fill="#3cb4a4">x</text>
</g>
<!-- inline4x5 -->
<g id="node16" class="node">
<title>inline4x5</title>
<ellipse fill="#d7ede7" stroke="black" cx="337" cy="-607" rx="27" ry="18"/>
<text text-anchor="middle" x="337" y="-605.1" font-family="Arial" font-size="8.00" fill="#1a1919">4 C(2)</text>
</g>
<!-- inline4x5&#45;&gt;node5 -->
<g id="edge3" class="edge">
<title>inline4x5&#45;&gt;node5</title>
<path fill="none" stroke="#3cb4a4" d="M329.54,-589.63C322.95,-575.17 313.45,-554.32 307.25,-540.72"/>
<text text-anchor="middle" x="322" y="-564.6" font-family="arial" font-size="8.00" fill="#3cb4a4">y</text>
</g>
<!-- inline1x9 -->
<g id="node17" class="node">
<title>inline1x9</title>
<ellipse fill="#d7ede7" stroke="black" cx="148" cy="-352" rx="27" ry="18"/>
<text text-anchor="middle" x="148" y="-350.1" font-family="Arial" font-size="8.00" fill="#1a1919">1 P(0)</text>
</g>
<!-- inline1x9&#45;&gt;node9 -->
<g id="edge9" class="edge">
<title>inline1x9&#45;&gt;node9</title>
<path fill="none" stroke="#3cb4a4" d="M157.78,-335.01C166.84,-320.2 180.28,-298.23 189.55,-283.08"/>
<text text-anchor="middle" x="188" y="-306.6" font-family="arial" font-size="8.00" fill="#3cb4a4">result</text>
</g>
<!-- inline1x11 -->
<g id="node18" class="node">
<title>inline1x11</title>
<ellipse fill="#d7ede7" stroke="black" cx="388" cy="-526" rx="27" ry="18"/>
<text text-anchor="middle" x="388" y="-524.1" font-family="Arial" font-size="8.00" fill="#1a1919">1 P(0)</text>
</g>
<!-- inline1x11&#45;&gt;node11 -->
<g id="edge10" class="edge">
<title>inline1x11&#45;&gt;node11</title>
<path fill="none" stroke="#3cb4a4" d="M395.11,-508.21C401.75,-492.53 411.56,-469.38 417.86,-454.49"/>
<text text-anchor="middle" x="410" y="-480.6" font-family="arial" font-size="8.00" fill="#3cb4a4">x</text>
</g>
<!-- inline10x11 -->
<g id="node19" class="node">
<title>inline10x11</title>
<ellipse fill="#d7ede7" stroke="black" cx="460" cy="-526" rx="27" ry="18"/>
<text text-anchor="middle" x="460" y="-524.1" font-family="Arial" font-size="8.00" fill="#1a1919">10 C(&#45;1)</text>
</g>
<!-- inline10x11&#45;&gt;node11 -->
<g id="edge11" class="edge">
<title>inline10x11&#45;&gt;node11</title>
<path fill="none" stroke="#3cb4a4" d="M452.89,-508.21C446.25,-492.53 436.44,-469.38 430.14,-454.49"/>
<text text-anchor="middle" x="446" y="-480.6" font-family="arial" font-size="8.00" fill="#3cb4a4">y</text>
</g>
<!-- inline1x16 -->
<g id="node20" class="node">
<title>inline1x16</title>
<ellipse fill="#d7ede7" stroke="black" cx="27" cy="-439" rx="27" ry="18"/>
<text text-anchor="middle" x="27" y="-437.1" font-family="Arial" font-size="8.00" fill="#1a1919">1 P(0)</text>
</g>
<!-- inline1x16&#45;&gt;node16 -->
<g id="edge15" class="edge">
<title>inline1x16&#45;&gt;node16</title>
<path fill="none" stroke="#3cb4a4" d="M34.11,-421.21C40.75,-405.53 50.56,-382.38 56.86,-367.49"/>
<text text-anchor="middle" x="50" y="-393.6" font-family="arial" font-size="8.00" fill="#3cb4a4">x</text>
</g>
<!-- inline15x16 -->
<g id="node21" class="node">
<title>inline15x16</title>
<ellipse fill="#d7ede7" stroke="black" cx="99" cy="-439" rx="27" ry="18"/>
<text text-anchor="middle" x="99" y="-437.1" font-family="Arial" font-size="8.00" fill="#1a1919">15 C(&#45;2)</text>
</g>
<!-- inline15x16&#45;&gt;node16 -->
<g id="edge16" class="edge">
<title>inline15x16&#45;&gt;node16</title>
<path fill="none" stroke="#3cb4a4" d="M91.89,-421.21C85.25,-405.53 75.44,-382.38 69.14,-367.49"/>
<text text-anchor="middle" x="86" y="-393.6" font-family="arial" font-size="8.00" fill="#3cb4a4">y</text>
</g>
</g>
</svg>
