<?xml version="1.0" encoding="UTF-8" standalone="no"?>
<!DOCTYPE svg PUBLIC "-//W3C//DTD SVG 1.1//EN"
 "http://www.w3.org/Graphics/SVG/1.1/DTD/svg11.dtd">
<!-- Generated by graphviz version 2.43.0 (0)
 -->
<!-- Title: G Pages: 1 -->
<svg width="504pt" height="639pt"
 viewBox="0.00 0.00 504.19 638.69" xmlns="http://www.w3.org/2000/svg" xmlns:xlink="http://www.w3.org/1999/xlink">
<g id="graph0" class="graph" transform="scale(1 1) rotate(0) translate(4 634.69)">
<title>G</title>
<polygon fill="transparent" stroke="transparent" points="-4,4 -4,-634.69 500.19,-634.69 500.19,4 -4,4"/>
<!-- node0 -->
<g id="node1" class="node">
<title>node0</title>
<polygon fill="#e98693" stroke="black" points="258.33,-549.49 200.85,-549.49 200.85,-513.49 258.33,-513.49 258.33,-549.49"/>
<text text-anchor="middle" x="229.59" y="-528.34" font-family="Arial" font-size="14.00" fill="#1a1919">0 Start</text>
</g>
<!-- node8 -->
<g id="node5" class="node">
<title>node8</title>
<polygon fill="#e98693" stroke="black" points="283.59,-461.39 229.59,-461.39 229.59,-425.39 283.59,-425.39 283.59,-461.39"/>
<text text-anchor="middle" x="256.59" y="-440.24" font-family="Arial" font-size="14.00" fill="#1a1919">8 If</text>
</g>
<!-- node0&#45;&gt;node8 -->
<g id="edge1" class="edge">
<title>node0&#45;&gt;node8</title>
<path fill="none" stroke="#da2d4f" stroke-width="2" d="M234.93,-513.48C238.67,-501.53 243.77,-485.29 248.07,-471.56"/>
<polygon fill="#da2d4f" stroke="#da2d4f" stroke-width="2" points="251.52,-472.25 251.18,-461.66 244.85,-470.16 251.52,-472.25"/>
</g>
<!-- node5 -->
<g id="node2" class="node">
<title>node5</title>
<polygon fill="#3cb4a4" stroke="black" points="330.59,-549.49 276.59,-549.49 276.59,-513.49 330.59,-513.49 330.59,-549.49"/>
<text text-anchor="middle" x="303.59" y="-528.34" font-family="Arial" font-size="14.00" fill="#1a1919">5 &lt;</text>
</g>
<!-- node5&#45;&gt;node8 -->
<g id="edge6" class="edge">
<title>node5&#45;&gt;node8</title>
<path fill="none" stroke="#3cb4a4" d="M294.31,-513.48C287.66,-501.3 278.57,-484.66 270.98,-470.76"/>
<polygon fill="#3cb4a4" stroke="#3cb4a4" points="273.88,-468.76 266.02,-461.66 267.74,-472.12 273.88,-468.76"/>
<text text-anchor="middle" x="288.49" y="-484.29" font-family="arial" font-size="14.00" fill="#3cb4a4">?</text>
</g>
<!-- node6 -->
<g id="node3" class="node">
<title>node6</title>
<polygon fill="#e98693" stroke="black" points="333.58,-373.3 269.61,-373.3 269.61,-337.3 333.58,-337.3 333.58,-373.3"/>
<text text-anchor="middle" x="301.59" y="-352.15" font-family="Arial" font-size="14.00" fill="#1a1919">6 Begin</text>
</g>
<!-- node13 -->
<g id="node9" class="node">
<title>node13</title>
<polygon fill="#da2d4f" stroke="black" points="352.19,-285.2 251,-285.2 251,-249.2 352.19,-249.2 352.19,-285.2"/>
<text text-anchor="middle" x="301.59" y="-264.05" font-family="Arial" font-size="14.00" fill="#ffffff">13 Call Fib.fib</text>
</g>
<!-- node6&#45;&gt;node13 -->
<g id="edge4" class="edge">
<title>node6&#45;&gt;node13</title>
<path fill="none" stroke="#da2d4f" stroke-width="2" d="M301.59,-337.29C301.59,-325.45 301.59,-309.42 301.59,-295.77"/>
<polygon fill="#da2d4f" stroke="#da2d4f" stroke-width="2" points="305.09,-295.47 301.59,-285.47 298.09,-295.47 305.09,-295.47"/>
</g>
<!-- node7 -->
<g id="node4" class="node">
<title>node7</title>
<polygon fill="#e98693" stroke="black" points="252.58,-373.3 188.61,-373.3 188.61,-337.3 252.58,-337.3 252.58,-373.3"/>
<text text-anchor="middle" x="220.59" y="-352.15" font-family="Arial" font-size="14.00" fill="#1a1919">7 Begin</text>
</g>
<!-- node9 -->
<g id="node6" class="node">
<title>node9</title>
<polygon fill="#e98693" stroke="black" points="232.29,-285.2 162.9,-285.2 162.9,-249.2 232.29,-249.2 232.29,-285.2"/>
<text text-anchor="middle" x="197.59" y="-264.05" font-family="Arial" font-size="14.00" fill="#1a1919">9 Return</text>
</g>
<!-- node7&#45;&gt;node9 -->
<g id="edge5" class="edge">
<title>node7&#45;&gt;node9</title>
<path fill="none" stroke="#da2d4f" stroke-width="2" d="M216.05,-337.29C212.86,-325.34 208.52,-309.1 204.85,-295.37"/>
<polygon fill="#da2d4f" stroke="#da2d4f" stroke-width="2" points="208.17,-294.22 202.21,-285.47 201.41,-296.03 208.17,-294.22"/>
</g>
<!-- node8&#45;&gt;node6 -->
<g id="edge8" class="edge">
<title>node8&#45;&gt;node6</title>
<path fill="none" stroke="#da2d4f" stroke-width="2" d="M265.48,-425.38C271.85,-413.2 280.55,-396.56 287.81,-382.66"/>
<polygon fill="#da2d4f" stroke="#da2d4f" stroke-width="2" points="291.04,-384.05 292.57,-373.57 284.83,-380.81 291.04,-384.05"/>
<text text-anchor="middle" x="287.87" y="-396.19" font-family="arial" font-size="14.00" fill="#da2d4f">F</text>
</g>
<!-- node8&#45;&gt;node7 -->
<g id="edge7" class="edge">
<title>node8&#45;&gt;node7</title>
<path fill="none" stroke="#da2d4f" stroke-width="2" d="M249.48,-425.38C244.43,-413.32 237.56,-396.88 231.78,-383.06"/>
<polygon fill="#da2d4f" stroke="#da2d4f" stroke-width="2" points="234.9,-381.44 227.81,-373.57 228.44,-384.14 234.9,-381.44"/>
<text text-anchor="middle" x="246.87" y="-396.19" font-family="arial" font-size="14.00" fill="#da2d4f">T</text>
</g>
<!-- node11 -->
<g id="node7" class="node">
<title>node11</title>
<polygon fill="#3cb4a4" stroke="black" points="450.59,-461.39 396.59,-461.39 396.59,-425.39 450.59,-425.39 450.59,-461.39"/>
<text text-anchor="middle" x="423.59" y="-440.24" font-family="Arial" font-size="14.00" fill="#1a1919">11 +</text>
</g>
<!-- node12 -->
<g id="node8" class="node">
<title>node12</title>
<polygon fill="#f9f9f9" stroke="black" points="496.28,-373.3 350.91,-373.3 350.91,-337.3 496.28,-337.3 496.28,-373.3"/>
<text text-anchor="middle" x="423.59" y="-352.15" font-family="Arial" font-size="14.00" fill="#1a1919">12 MethodCallTarget</text>
</g>
<!-- node11&#45;&gt;node12 -->
<g id="edge12" class="edge">
<title>node11&#45;&gt;node12</title>
<path fill="none" stroke="#3cb4a4" d="M423.59,-425.38C423.59,-413.55 423.59,-397.51 423.59,-383.87"/>
<polygon fill="#3cb4a4" stroke="#3cb4a4" points="427.09,-383.57 423.59,-373.57 420.09,-383.57 427.09,-383.57"/>
<text text-anchor="middle" x="441.49" y="-396.19" font-family="arial" font-size="14.00" fill="#3cb4a4">arg[0]</text>
</g>
<!-- node12&#45;&gt;node13 -->
<g id="edge13" class="edge">
<title>node12&#45;&gt;node13</title>
<path fill="none" stroke="#343d46" stroke-dasharray="5,2" d="M391.11,-331.37C370.68,-316.96 344.75,-298.66 326.06,-285.47"/>
<polygon fill="#343d46" stroke="#343d46" points="389.3,-334.38 399.49,-337.29 393.34,-328.66 389.3,-334.38"/>
</g>
<!-- node18 -->
<g id="node12" class="node">
<title>node18</title>
<polygon fill="#da2d4f" stroke="black" points="265.19,-212.2 164,-212.2 164,-176.2 265.19,-176.2 265.19,-212.2"/>
<text text-anchor="middle" x="214.59" y="-191.05" font-family="Arial" font-size="14.00" fill="#ffffff">18 Call Fib.fib</text>
</g>
<!-- node13&#45;&gt;node18 -->
<g id="edge14" class="edge">
<title>node13&#45;&gt;node18</title>
<path fill="none" stroke="#da2d4f" stroke-width="2" d="M280.53,-249.01C269.42,-239.94 255.61,-228.67 243.51,-218.8"/>
<polygon fill="#da2d4f" stroke="#da2d4f" stroke-width="2" points="245.42,-215.84 235.46,-212.23 240.99,-221.26 245.42,-215.84"/>
</g>
<!-- node20 -->
<g id="node13" class="node">
<title>node20</title>
<polygon fill="#3cb4a4" stroke="black" points="296.59,-124.1 242.59,-124.1 242.59,-88.1 296.59,-88.1 296.59,-124.1"/>
<text text-anchor="middle" x="269.59" y="-102.95" font-family="Arial" font-size="14.00" fill="#1a1919">20 +</text>
</g>
<!-- node13&#45;&gt;node20 -->
<g id="edge20" class="edge">
<title>node13&#45;&gt;node20</title>
<path fill="none" stroke="#3cb4a4" d="M298.17,-249.17C292.64,-221.68 281.7,-167.29 275.08,-134.36"/>
<polygon fill="#3cb4a4" stroke="#3cb4a4" points="278.49,-133.6 273.09,-124.48 271.63,-134.98 278.49,-133.6"/>
<text text-anchor="middle" x="294.09" y="-191.05" font-family="arial" font-size="14.00" fill="#3cb4a4">x</text>
</g>
<!-- node16 -->
<g id="node10" class="node">
<title>node16</title>
<polygon fill="#3cb4a4" stroke="black" points="98.59,-373.3 44.59,-373.3 44.59,-337.3 98.59,-337.3 98.59,-373.3"/>
<text text-anchor="middle" x="71.59" y="-352.15" font-family="Arial" font-size="14.00" fill="#1a1919">16 +</text>
</g>
<!-- node17 -->
<g id="node11" class="node">
<title>node17</title>
<polygon fill="#f9f9f9" stroke="black" points="145.28,-285.2 -0.09,-285.2 -0.09,-249.2 145.28,-249.2 145.28,-285.2"/>
<text text-anchor="middle" x="72.59" y="-264.05" font-family="Arial" font-size="14.00" fill="#1a1919">17 MethodCallTarget</text>
</g>
<!-- node16&#45;&gt;node17 -->
<g id="edge17" class="edge">
<title>node16&#45;&gt;node17</title>
<path fill="none" stroke="#3cb4a4" d="M71.79,-337.29C71.93,-325.45 72.11,-309.42 72.27,-295.77"/>
<polygon fill="#3cb4a4" stroke="#3cb4a4" points="75.78,-295.51 72.39,-285.47 68.78,-295.43 75.78,-295.51"/>
<text text-anchor="middle" x="90.49" y="-308.1" font-family="arial" font-size="14.00" fill="#3cb4a4">arg[0]</text>
</g>
<!-- node17&#45;&gt;node18 -->
<g id="edge18" class="edge">
<title>node17&#45;&gt;node18</title>
<path fill="none" stroke="#343d46" stroke-dasharray="5,2" d="M115.82,-244.58C136.53,-234.23 160.97,-222.01 180.37,-212.31"/>
<polygon fill="#343d46" stroke="#343d46" points="113.98,-241.59 106.61,-249.19 117.11,-247.85 113.98,-241.59"/>
</g>
<!-- node18&#45;&gt;node20 -->
<g id="edge21" class="edge">
<title>node18&#45;&gt;node20</title>
<path fill="none" stroke="#3cb4a4" d="M225.46,-176.19C233.32,-163.89 244.08,-147.04 253.01,-133.06"/>
<polygon fill="#3cb4a4" stroke="#3cb4a4" points="256.13,-134.68 258.56,-124.37 250.23,-130.91 256.13,-134.68"/>
<text text-anchor="middle" x="251.09" y="-147" font-family="arial" font-size="14.00" fill="#3cb4a4">y</text>
</g>
<!-- node21 -->
<g id="node14" class="node">
<title>node21</title>
<polygon fill="#e98693" stroke="black" points="269.58,-36 191.61,-36 191.61,0 269.58,0 269.58,-36"/>
<text text-anchor="middle" x="230.59" y="-14.85" font-family="Arial" font-size="14.00" fill="#1a1919">21 Return</text>
</g>
<!-- node18&#45;&gt;node21 -->
<g id="edge19" class="edge">
<title>node18&#45;&gt;node21</title>
<path fill="none" stroke="#da2d4f" stroke-width="2" d="M216.16,-176.18C218.93,-146 224.73,-82.86 228.07,-46.46"/>
<polygon fill="#da2d4f" stroke="#da2d4f" stroke-width="2" points="231.59,-46.37 229.02,-36.09 224.62,-45.73 231.59,-46.37"/>
</g>
<!-- node20&#45;&gt;node21 -->
<g id="edge22" class="edge">
<title>node20&#45;&gt;node21</title>
<path fill="none" stroke="#3cb4a4" d="M261.89,-88.09C256.42,-76.02 248.97,-59.58 242.72,-45.77"/>
<polygon fill="#3cb4a4" stroke="#3cb4a4" points="245.73,-43.93 238.42,-36.27 239.35,-46.82 245.73,-43.93"/>
<text text-anchor="middle" x="270.71" y="-58.9" font-family="arial" font-size="14.00" fill="#3cb4a4">result</text>
</g>
<!-- inline1x5 -->
<g id="node15" class="node">
<title>inline1x5</title>
<ellipse fill="#d7ede7" stroke="black" cx="267.59" cy="-612.69" rx="27" ry="18"/>
<text text-anchor="middle" x="267.59" y="-610.89" font-family="Arial" font-size="8.00" fill="#1a1919">1 P(0)</text>
</g>
<!-- inline1x5&#45;&gt;node5 -->
<g id="edge2" class="edge">
<title>inline1x5&#45;&gt;node5</title>
<path fill="none" stroke="#3cb4a4" d="M275.05,-595.28C281.11,-581.96 289.62,-563.24 295.77,-549.7"/>
<text text-anchor="middle" x="289.59" y="-570.29" font-family="arial" font-size="8.00" fill="#3cb4a4">x</text>
</g>
<!-- inline4x5 -->
<g id="node16" class="node">
<title>inline4x5</title>
<ellipse fill="#d7ede7" stroke="black" cx="339.59" cy="-612.69" rx="27" ry="18"/>
<text text-anchor="middle" x="339.59" y="-610.89" font-family="Arial" font-size="8.00" fill="#1a1919">4 C(2)</text>
</g>
<!-- inline4x5&#45;&gt;node5 -->
<g id="edge3" class="edge">
<title>inline4x5&#45;&gt;node5</title>
<path fill="none" stroke="#3cb4a4" d="M332.13,-595.28C326.08,-581.96 317.57,-563.24 311.42,-549.7"/>
<text text-anchor="middle" x="324.59" y="-570.29" font-family="arial" font-size="8.00" fill="#3cb4a4">y</text>
</g>
<!-- inline1x9 -->
<g id="node17" class="node">
<title>inline1x9</title>
<ellipse fill="#d7ede7" stroke="black" cx="143.59" cy="-355.3" rx="27" ry="18"/>
<text text-anchor="middle" x="143.59" y="-353.5" font-family="Arial" font-size="8.00" fill="#1a1919">1 P(0)</text>
</g>
<!-- inline1x9&#45;&gt;node9 -->
<g id="edge9" class="edge">
<title>inline1x9&#45;&gt;node9</title>
<path fill="none" stroke="#3cb4a4" d="M153.5,-338.5C162.94,-323.45 177.11,-300.86 186.83,-285.37"/>
<text text-anchor="middle" x="185.37" y="-309.45" font-family="arial" font-size="8.00" fill="#3cb4a4">result</text>
</g>
<!-- inline1x11 -->
<g id="node18" class="node">
<title>inline1x11</title>
<ellipse fill="#d7ede7" stroke="black" cx="387.59" cy="-531.49" rx="27" ry="18"/>
<text text-anchor="middle" x="387.59" y="-529.69" font-family="Arial" font-size="8.00" fill="#1a1919">1 P(0)</text>
</g>
<!-- inline1x11&#45;&gt;node11 -->
<g id="edge10" class="edge">
<title>inline1x11&#45;&gt;node11</title>
<path fill="none" stroke="#3cb4a4" d="M394.53,-513.89C400.83,-498.84 410.06,-476.75 416.43,-461.53"/>
<text text-anchor="middle" x="410.59" y="-485.64" font-family="arial" font-size="8.00" fill="#3cb4a4">x</text>
</g>
<!-- inline10x11 -->
<g id="node19" class="node">
<title>inline10x11</title>
<ellipse fill="#d7ede7" stroke="black" cx="459.59" cy="-531.49" rx="27" ry="18"/>
<text text-anchor="middle" x="459.59" y="-529.69" font-family="Arial" font-size="8.00" fill="#1a1919">10 C(&#45;1)</text>
</g>
<!-- inline10x11&#45;&gt;node11 -->
<g id="edge11" class="edge">
<title>inline10x11&#45;&gt;node11</title>
<path fill="none" stroke="#3cb4a4" d="M452.65,-513.89C446.36,-498.84 437.12,-476.75 430.76,-461.53"/>
<text text-anchor="middle" x="446.59" y="-485.64" font-family="arial" font-size="8.00" fill="#3cb4a4">y</text>
</g>
<!-- inline1x16 -->
<g id="node20" class="node">
<title>inline1x16</title>
<ellipse fill="#d7ede7" stroke="black" cx="35.59" cy="-443.39" rx="27" ry="18"/>
<text text-anchor="middle" x="35.59" y="-441.59" font-family="Arial" font-size="8.00" fill="#1a1919">1 P(0)</text>
</g>
<!-- inline1x16&#45;&gt;node16 -->
<g id="edge15" class="edge">
<title>inline1x16&#45;&gt;node16</title>
<path fill="none" stroke="#3cb4a4" d="M42.53,-425.79C48.83,-410.74 58.06,-388.65 64.43,-373.43"/>
<text text-anchor="middle" x="59.59" y="-397.54" font-family="arial" font-size="8.00" fill="#3cb4a4">x</text>
</g>
<!-- inline15x16 -->
<g id="node21" class="node">
<title>inline15x16</title>
<ellipse fill="#d7ede7" stroke="black" cx="107.59" cy="-443.39" rx="27" ry="18"/>
<text text-anchor="middle" x="107.59" y="-441.59" font-family="Arial" font-size="8.00" fill="#1a1919">15 C(&#45;2)</text>
</g>
<!-- inline15x16&#45;&gt;node16 -->
<g id="edge16" class="edge">
<title>inline15x16&#45;&gt;node16</title>
<path fill="none" stroke="#3cb4a4" d="M100.65,-425.79C94.36,-410.74 85.12,-388.65 78.76,-373.43"/>
<text text-anchor="middle" x="95.59" y="-397.54" font-family="arial" font-size="8.00" fill="#3cb4a4">y</text>
</g>
</g>
</svg>
