<?xml version="1.0" encoding="utf-8"?>
<!-- Generator: Adobe Illustrator 25.0.1, SVG Export Plug-In . SVG Version: 6.00 Build 0)  -->
<svg version="1.1" id="Layer_1" xmlns="http://www.w3.org/2000/svg" xmlns:xlink="http://www.w3.org/1999/xlink" x="0px" y="0px"
	 viewBox="0 0 562 545" style="enable-background:new 0 0 562 545;" xml:space="preserve">
<style type="text/css">
	.st0{fill:#F9F9F9;}
	.st1{fill:none;stroke:#B3BBC3;stroke-miterlimit:10;}
	.st2{fill:#B3BBC3;}
	.st3{font-family:'ArialMT';}
	.st4{font-size:14.0002px;}
	.st5{fill:#DA2D4F;}
	.st6{fill:none;stroke:#000000;stroke-miterlimit:10;}
	.st7{fill:#FFFFFF;}
	.st8{letter-spacing:-1;}
	.st9{fill:none;stroke:#B3BBC3;stroke-width:2;stroke-miterlimit:10;}
	.st10{fill:#1A1919;}
	.st11{fill:none;stroke:#3CB4A4;stroke-miterlimit:10;}
	.st12{fill:#3CB4A4;}
	.st13{fill:#343D46;}
	.st14{font-size:8.0002px;}
</style>
<rect x="200.5" y="469" class="st0" width="68" height="36"/>
<rect x="200.5" y="469" class="st1" width="68" height="36"/>
<text transform="matrix(1 0 0 1 208.5 490.7012)" class="st2 st3 st4">7</text>
<text transform="matrix(1 0 0 1 219.7539 490.7012)"><tspan x="0" y="0" class="st2 st3 st4">R</tspan><tspan x="9.75" y="0" class="st2 st3 st4">e</tspan><tspan x="17.24" y="0" class="st2 st3 st4">t</tspan><tspan x="20.99" y="0" class="st2 st3 st4">u</tspan><tspan x="28.49" y="0" class="st2 st3 st4">r</tspan><tspan x="32.99" y="0" class="st2 st3 st4">n</tspan></text>
<polygon class="st0" points="281.5,208 241.11,226 281.5,244 321.89,226 "/>
<polygon class="st1" points="281.5,208 241.11,226 281.5,244 321.89,226 "/>
<text transform="matrix(1 0 0 1 267.5 229.7012)"><tspan x="0" y="0" class="st2 st3 st4">1</tspan><tspan x="7.51" y="0" class="st2 st3 st4">4</tspan></text>
<text transform="matrix(1 0 0 1 286.2441 229.7012)" class="st2 st3 st4">+</text>
<path class="st1" d="M224.84,155.2c11.18,13.78,27.76,34.2,40.1,49.4"/>
<polygon class="st0" points="267.71,202.46 271.29,212.43 262.27,206.87 "/>
<polygon class="st1" points="267.71,202.46 271.29,212.43 262.27,206.87 "/>
<text transform="matrix(1 0 0 1 251.5 186.2012)" class="st2 st3 st4">x</text>
<path class="st1" d="M283.89,157.2c-0.41,11.71-0.97,27.46-1.44,40.83"/>
<polygon class="st0" points="285.95,198.25 282.1,208.11 278.95,198 "/>
<polygon class="st1" points="285.95,198.25 282.1,208.11 278.95,198 "/>
<text transform="matrix(1 0 0 1 283.5 186.2012)" class="st2 st3 st4">y</text>
<rect x="249.5" y="295" class="st5" width="64" height="36"/>
<rect x="249.5" y="295" class="st6" width="64" height="36"/>
<text transform="matrix(1 0 0 1 257.5 316.7012)"><tspan x="0" y="0" class="st7 st3 st4">2</tspan><tspan x="7.51" y="0" class="st7 st3 st4">8</tspan></text>
<text transform="matrix(1 0 0 1 275.502 316.7012)"><tspan x="0" y="0" class="st7 st3 st4">A</tspan><tspan x="8.99" y="0" class="st7 st3 st4">l</tspan><tspan x="12" y="0" class="st7 st3 st4">l</tspan><tspan x="15" y="0" class="st7 st3 st4">o</tspan><tspan x="22.49" y="0" class="st7 st3 st4">c</tspan></text>
<path class="st1" d="M281.5,244.2c0,11.64,0,27.25,0,40.56"/>
<polygon class="st0" points="285,284.82 281.5,294.82 278,284.82 "/>
<polygon class="st1" points="285,284.82 281.5,294.82 278,284.82 "/>
<text transform="matrix(1 0 0 1 281.5 273.2012)"><tspan x="0" y="0" class="st2 st3 st4">v</tspan><tspan x="6.75" y="0" class="st2 st3 st4">a</tspan><tspan x="14.25" y="0" class="st2 st3 st4">l</tspan><tspan x="17.25" y="0" class="st2 st3 st4">u</tspan><tspan x="24.75" y="0" class="st2 st3 st4">e</tspan><tspan x="32.25" y="0" class="st2 st3 st4">s</tspan></text>
<rect x="375.5" y="121" class="st0" width="146" height="36"/>
<rect x="375.5" y="121" class="st1" width="146" height="36"/>
<text transform="matrix(1 0 0 1 383.5 142.7012)"><tspan x="0" y="0" class="st2 st3 st4">1</tspan><tspan x="7.51" y="0" class="st2 st3 st4">6</tspan></text>
<text transform="matrix(1 0 0 1 402.2441 142.7012)"><tspan x="0" y="0" class="st2 st3 st4">L</tspan><tspan x="7.51" y="0" class="st2 st3 st4">o</tspan><tspan x="15" y="0" class="st2 st3 st4">a</tspan><tspan x="22.5" y="0" class="st2 st3 st4">dF</tspan><tspan x="38.25" y="0" class="st2 st3 st4">i</tspan><tspan x="41.25" y="0" class="st2 st3 st4">e</tspan><tspan x="48.75" y="0" class="st2 st3 st4">l</tspan><tspan x="51.76" y="0" class="st2 st3 st4">d</tspan></text>
<text transform="matrix(1 0 0 1 465.2148 142.7012)"><tspan x="0" y="0" class="st2 st3 st4 st8">V</tspan><tspan x="8.25" y="0" class="st2 st3 st4">e</tspan><tspan x="15.75" y="0" class="st2 st3 st4">c</tspan><tspan x="22.51" y="0" class="st2 st3 st4">t</tspan><tspan x="26.26" y="0" class="st2 st3 st4">o</tspan><tspan x="33.77" y="0" class="st2 st3 st4">r</tspan><tspan x="37.52" y="0" class="st2 st3 st4">.</tspan><tspan x="41.27" y="0" class="st2 st3 st4">y</tspan></text>
<path class="st9" d="M378.7,73.12c12.17,11.31,29.52,27.43,43.87,40.77"/>
<polygon class="st0" points="425.24,111.61 430.18,120.98 420.47,116.73 "/>
<polygon class="st9" points="425.24,111.61 430.18,120.98 420.47,116.73 "/>
<polygon class="st0" points="380.5,208 340.11,226 380.5,244 420.89,226 "/>
<polygon class="st1" points="380.5,208 340.11,226 380.5,244 420.89,226 "/>
<text transform="matrix(1 0 0 1 366.5 229.7012)"><tspan x="0" y="0" class="st2 st3 st4">1</tspan><tspan x="7.51" y="0" class="st2 st3 st4">7</tspan></text>
<text transform="matrix(1 0 0 1 385.2441 229.7012)" class="st2 st3 st4">+</text>
<path class="st1" d="M360.85,76.1c-2.59,19.64-5.59,52.78-1.35,80.9c2.25,14.94,7.15,31.13,11.64,43.96"/>
<polygon class="st0" points="374.46,199.85 374.61,210.44 367.89,202.25 "/>
<polygon class="st1" points="374.46,199.85 374.61,210.44 367.89,202.25 "/>
<text transform="matrix(1 0 0 1 359.5 142.7012)" class="st2 st3 st4">x</text>
<path class="st1" d="M434.74,157.2c-10.9,13.63-26.16,32.71-37.72,47.16"/>
<polygon class="st0" points="399.68,206.63 390.7,212.25 394.21,202.26 "/>
<polygon class="st1" points="399.68,206.63 390.7,212.25 394.21,202.26 "/>
<text transform="matrix(1 0 0 1 419.5 186.2012)" class="st2 st3 st4">y</text>
<path class="st9" d="M449.02,157.16c-0.11,21.77-2.97,59.74-19.52,86.84c-22.41,36.68-70.38,53.77-105.66,61.61"/>
<polygon class="st0" points="324.3,309.09 313.8,307.67 322.89,302.23 "/>
<polygon class="st9" points="324.3,309.09 313.8,307.67 322.89,302.23 "/>
<path class="st1" d="M368.04,238.76c-11.01,10.29-27.6,25.53-42.54,38.24c-4.48,3.81-9.28,7.76-14.02,11.58"/>
<polygon class="st0" points="313.66,291.32 303.66,294.83 309.29,285.86 "/>
<polygon class="st1" points="313.66,291.32 303.66,294.83 309.29,285.86 "/>
<text transform="matrix(1 0 0 1 342.5 273.2012)"><tspan x="0" y="0" class="st2 st3 st4">v</tspan><tspan x="6.75" y="0" class="st2 st3 st4">a</tspan><tspan x="14.25" y="0" class="st2 st3 st4">l</tspan><tspan x="17.25" y="0" class="st2 st3 st4">u</tspan><tspan x="24.75" y="0" class="st2 st3 st4">e</tspan><tspan x="32.25" y="0" class="st2 st3 st4">s</tspan></text>
<rect x="40" y="208" class="st0" width="183" height="36"/>
<rect x="40" y="208" class="st6" width="183" height="36"/>
<text transform="matrix(1 0 0 1 48 229.7012)"><tspan x="0" y="0" class="st10 st3 st4">2</tspan><tspan x="7.51" y="0" class="st10 st3 st4">7</tspan></text>
<text transform="matrix(1 0 0 1 66.7441 229.7012)"><tspan x="0" y="0" class="st10 st3 st4">V</tspan><tspan x="9" y="0" class="st10 st3 st4">i</tspan><tspan x="12" y="0" class="st10 st3 st4">r</tspan><tspan x="16.51" y="0" class="st10 st3 st4">t</tspan><tspan x="20.26" y="0" class="st10 st3 st4">u</tspan><tspan x="27.75" y="0" class="st10 st3 st4">a</tspan><tspan x="35.26" y="0" class="st10 st3 st4">l</tspan><tspan x="38.26" y="0" class="st10 st3 st4">I</tspan><tspan x="42" y="0" class="st10 st3 st4">n</tspan><tspan x="49.5" y="0" class="st10 st3 st4">s</tspan><tspan x="56.25" y="0" class="st10 st3 st4">t</tspan><tspan x="60" y="0" class="st10 st3 st4">an</tspan><tspan x="75.01" y="0" class="st10 st3 st4">c</tspan><tspan x="81.76" y="0" class="st10 st3 st4">e</tspan><tspan x="89.25" y="0" class="st10 st3 st4">(</tspan><tspan x="93.76" y="0" class="st10 st3 st4">0</tspan><tspan x="101.25" y="0" class="st10 st3 st4">)</tspan></text>
<text transform="matrix(1 0 0 1 176.1807 229.7012)"><tspan x="0" y="0" class="st10 st3 st4 st8">V</tspan><tspan x="8.25" y="0" class="st10 st3 st4">e</tspan><tspan x="15.75" y="0" class="st10 st3 st4">c</tspan><tspan x="22.5" y="0" class="st10 st3 st4">t</tspan><tspan x="26.25" y="0" class="st10 st3 st4">o</tspan><tspan x="33.74" y="0" class="st10 st3 st4">r</tspan></text>
<path class="st11" d="M150.04,244.07c12.03,10.46,28.41,23.59,44.46,32.93c14.2,8.26,30.72,15.44,45.53,21.12"/>
<polygon class="st12" points="241.32,294.86 249.47,301.62 238.88,301.42 "/>
<polygon class="st11" points="241.32,294.86 249.47,301.62 238.88,301.42 "/>
<text transform="matrix(1 0 0 1 194.5 273.2012)"><tspan x="0" y="0" class="st12 st3 st4">v</tspan><tspan x="6.76" y="0" class="st12 st3 st4">i</tspan><tspan x="9.76" y="0" class="st12 st3 st4">r</tspan><tspan x="14.27" y="0" class="st12 st3 st4">t</tspan><tspan x="18.02" y="0" class="st12 st3 st4">u</tspan><tspan x="25.51" y="0" class="st12 st3 st4">a</tspan><tspan x="33.02" y="0" class="st12 st3 st4">l</tspan><tspan x="36.02" y="0" class="st12 st3 st4">O</tspan><tspan x="47.26" y="0" class="st12 st3 st4">b</tspan><tspan x="54.75" y="0" class="st12 st3 st4">j</tspan><tspan x="57.75" y="0" class="st12 st3 st4">e</tspan><tspan x="65.25" y="0" class="st12 st3 st4">c</tspan><tspan x="72" y="0" class="st12 st3 st4">t</tspan><tspan x="75.75" y="0" class="st12 st3 st4">s</tspan></text>
<rect x="123.5" y="382" class="st13" width="130" height="36"/>
<rect x="123.5" y="382" class="st6" width="130" height="36"/>
<text transform="matrix(1 0 0 1 131.5 403.7012)"><tspan x="0" y="0" class="st7 st3 st4">2</tspan><tspan x="7.51" y="0" class="st7 st3 st4">9</tspan></text>
<text transform="matrix(1 0 0 1 149.502 403.7012)"><tspan x="0" y="0" class="st7 st3 st4">A</tspan><tspan x="8.99" y="0" class="st7 st3 st4">l</tspan><tspan x="12" y="0" class="st7 st3 st4">l</tspan><tspan x="15" y="0" class="st7 st3 st4">o</tspan><tspan x="22.49" y="0" class="st7 st3 st4">c</tspan><tspan x="29.25" y="0" class="st7 st3 st4">a</tspan><tspan x="36.76" y="0" class="st7 st3 st4">t</tspan><tspan x="40.51" y="0" class="st7 st3 st4">e</tspan><tspan x="48" y="0" class="st7 st3 st4">d</tspan><tspan x="55.51" y="0" class="st7 st3 st4">O</tspan><tspan x="66.75" y="0" class="st7 st3 st4">b</tspan><tspan x="74.24" y="0" class="st7 st3 st4">j</tspan><tspan x="77.24" y="0" class="st7 st3 st4">e</tspan><tspan x="84.74" y="0" class="st7 st3 st4">c</tspan><tspan x="91.49" y="0" class="st7 st3 st4">t</tspan></text>
<path class="st11" d="M136.82,244.35c6.39,20.69,17.51,56.29,27.68,86.65c4.54,13.54,9.79,28.52,14.23,40.96"/>
<polygon class="st12" points="182.15,371.13 182.23,381.72 175.56,373.49 "/>
<polygon class="st11" points="182.15,371.13 182.23,381.72 175.56,373.49 "/>
<text transform="matrix(1 0 0 1 164.5 316.7012)"><tspan x="0" y="0" class="st12 st3 st4">v</tspan><tspan x="6.76" y="0" class="st12 st3 st4">i</tspan><tspan x="9.76" y="0" class="st12 st3 st4">r</tspan><tspan x="14.27" y="0" class="st12 st3 st4">t</tspan><tspan x="18.02" y="0" class="st12 st3 st4">u</tspan><tspan x="25.51" y="0" class="st12 st3 st4">a</tspan><tspan x="33.02" y="0" class="st12 st3 st4">l</tspan><tspan x="36.02" y="0" class="st12 st3 st4">O</tspan><tspan x="47.26" y="0" class="st12 st3 st4">b</tspan><tspan x="54.75" y="0" class="st12 st3 st4">j</tspan><tspan x="57.75" y="0" class="st12 st3 st4">e</tspan><tspan x="65.25" y="0" class="st12 st3 st4">c</tspan><tspan x="72" y="0" class="st12 st3 st4">t</tspan></text>
<path class="st9" d="M279.84,331.01c-3,26.46-10.65,78.75-27.34,119.99c-1.17,2.88-2.49,5.85-3.87,8.77"/>
<polygon class="st0" points="251.7,461.46 244.1,468.84 245.44,458.33 "/>
<polygon class="st9" points="251.7,461.46 244.1,468.84 245.44,458.33 "/>
<path class="st11" d="M249.41,329.12c-9.62,5.44-19.76,12.17-27.91,19.88c-7.32,6.93-13.83,15.78-19.09,24.11"/>
<polygon class="st12" points="205.34,375.02 197.21,381.81 199.33,371.43 "/>
<polygon class="st11" points="205.34,375.02 197.21,381.81 199.33,371.43 "/>
<text transform="matrix(1 0 0 1 221.5 360.2012)"><tspan x="0" y="0" class="st12 st3 st4">c</tspan><tspan x="6.76" y="0" class="st12 st3 st4">o</tspan><tspan x="14.27" y="0" class="st12 st3 st4">mm</tspan><tspan x="38.24" y="0" class="st12 st3 st4">i</tspan><tspan x="41.24" y="0" class="st12 st3 st4">t</tspan></text>
<path class="st1" d="M197.81,418.2c6.48,11.98,15.25,28.18,22.59,41.74"/>
<polygon class="st0" points="223.52,458.36 225.2,468.82 217.37,461.7 "/>
<polygon class="st1" points="223.52,458.36 225.2,468.82 217.37,461.7 "/>
<text transform="matrix(1 0 0 1 214.5 447.2012)"><tspan x="0" y="0" class="st2 st3 st4">r</tspan><tspan x="4.49" y="0" class="st2 st3 st4">e</tspan><tspan x="12" y="0" class="st2 st3 st4">s</tspan><tspan x="18.75" y="0" class="st2 st3 st4">u</tspan><tspan x="26.25" y="0" class="st2 st3 st4">l</tspan><tspan x="29.25" y="0" class="st2 st3 st4">t</tspan></text>
<path class="st1" d="M448.5,76.14c0,13.25,0,31.51,0,44.75"/>
<text transform="matrix(1 0 0 1 448.5 100.3984)"><tspan x="0" y="0" class="st2 st3 st14">o</tspan><tspan x="4.49" y="0" class="st2 st3 st14">b</tspan><tspan x="8.99" y="0" class="st2 st3 st14">j</tspan><tspan x="10.48" y="0" class="st2 st3 st14">e</tspan><tspan x="14.97" y="0" class="st2 st3 st14">c</tspan><tspan x="18.73" y="0" class="st2 st3 st14">t</tspan></text>
</svg>
