<?xml version="1.0" encoding="UTF-8" standalone="no"?>
<!DOCTYPE svg PUBLIC "-//W3C//DTD SVG 1.1//EN"
 "http://www.w3.org/Graphics/SVG/1.1/DTD/svg11.dtd">
<!-- Generated by graphviz version 2.44.1 (20200629.0846)
 -->
<!-- Title: G Pages: 1 -->
<svg width="541pt" height="967pt"
 viewBox="0.00 0.00 541.00 967.00" xmlns="http://www.w3.org/2000/svg" xmlns:xlink="http://www.w3.org/1999/xlink">
<g id="graph0" class="graph" transform="scale(1 1) rotate(0) translate(4 963)">
<title>G</title>
<!-- node0 -->
<g id="node1" class="node">
<title>node0</title>
<polygon fill="#e98693" stroke="black" points="210,-878 154,-878 154,-842 210,-842 210,-878"/>
<text text-anchor="middle" x="182" y="-856.3" font-family="Arial" font-size="14.00" fill="#1a1919">0 Start</text>
</g>
<!-- node9 -->
<g id="node4" class="node">
<title>node9</title>
<polygon fill="#ffa500" stroke="black" points="338.5,-791 93.5,-791 93.5,-755 338.5,-755 338.5,-791"/>
<text text-anchor="middle" x="216" y="-769.3" font-family="Arial" font-size="14.00" fill="#1a1919">9 Guard not, else NullCheckException</text>
</g>
<!-- node0&#45;&gt;node9 -->
<g id="edge1" class="edge">
<title>node0&#45;&gt;node9</title>
<path fill="none" stroke="#da2d4f" stroke-width="2" d="M188.88,-841.8C193.58,-830.05 199.9,-814.24 205.26,-800.84"/>
<polygon fill="#da2d4f" stroke="#da2d4f" stroke-width="2" points="208.67,-801.76 209.13,-791.18 202.17,-799.16 208.67,-801.76"/>
</g>
<!-- node7 -->
<g id="node2" class="node">
<title>node7</title>
<polygon fill="#e98693" stroke="black" points="485,-36 417,-36 417,0 485,0 485,-36"/>
<text text-anchor="middle" x="451" y="-14.3" font-family="Arial" font-size="14.00" fill="#1a1919">7 Return</text>
</g>
<!-- node8 -->
<g id="node3" class="node">
<title>node8</title>
<polygon fill="#3cb4a4" stroke="black" points="285,-878 228.02,-860 285,-842 341.98,-860 285,-878"/>
<text text-anchor="middle" x="285" y="-856.3" font-family="Arial" font-size="14.00" fill="#1a1919">8 IsNull</text>
</g>
<!-- node8&#45;&gt;node9 -->
<g id="edge4" class="edge">
<title>node8&#45;&gt;node9</title>
<path fill="none" stroke="#3cb4a4" d="M273.91,-845.34C263.82,-832.91 248.67,-814.24 236.39,-799.12"/>
<polygon fill="#3cb4a4" stroke="#3cb4a4" points="238.94,-796.7 229.92,-791.15 233.5,-801.11 238.94,-796.7"/>
<text text-anchor="middle" x="258" y="-812.8" font-family="arial" font-size="14.00" fill="#3cb4a4">?</text>
</g>
<!-- node10 -->
<g id="node5" class="node">
<title>node10</title>
<polygon fill="#f9f9f9" stroke="black" points="63,-704 9,-704 9,-668 63,-668 63,-704"/>
<text text-anchor="middle" x="36" y="-682.3" font-family="Arial" font-size="14.00" fill="#1a1919">10 π</text>
</g>
<!-- node9&#45;&gt;node10 -->
<g id="edge6" class="edge">
<title>node9&#45;&gt;node10</title>
<path fill="none" stroke="#3cb4a4" d="M179.57,-754.8C148.39,-740.07 103.7,-718.97 72.5,-704.23"/>
<polygon fill="#3cb4a4" stroke="#3cb4a4" points="73.81,-700.98 63.27,-699.88 70.82,-707.31 73.81,-700.98"/>
<text text-anchor="middle" x="154.5" y="-725.8" font-family="arial" font-size="14.00" fill="#3cb4a4">guard</text>
</g>
<!-- node11 -->
<g id="node6" class="node">
<title>node11</title>
<polygon fill="#da2d4f" stroke="black" points="425,-704 321,-704 321,-668 425,-668 425,-704"/>
<text text-anchor="middle" x="373" y="-682.3" font-family="Arial" font-size="14.00" fill="#ffffff">11 New Vector</text>
</g>
<!-- node9&#45;&gt;node11 -->
<g id="edge5" class="edge">
<title>node9&#45;&gt;node11</title>
<path fill="none" stroke="#da2d4f" stroke-width="2" d="M247.77,-754.8C272.22,-741.56 306.17,-723.18 332.55,-708.9"/>
<polygon fill="#da2d4f" stroke="#da2d4f" stroke-width="2" points="334.42,-711.87 341.54,-704.03 331.08,-705.71 334.42,-711.87"/>
</g>
<!-- node12 -->
<g id="node7" class="node">
<title>node12</title>
<polygon fill="#da2d4f" stroke="black" points="371,-617 225,-617 225,-581 371,-581 371,-617"/>
<text text-anchor="middle" x="298" y="-595.3" font-family="Arial" font-size="14.00" fill="#ffffff">12 LoadField Vector.x</text>
</g>
<!-- node10&#45;&gt;node12 -->
<g id="edge9" class="edge">
<title>node10&#45;&gt;node12</title>
<path fill="none" stroke="#3cb4a4" d="M63.05,-676.22C103.51,-663.1 180.87,-638 235.76,-620.19"/>
<polygon fill="#3cb4a4" stroke="#3cb4a4" points="236.96,-623.48 245.39,-617.07 234.8,-616.82 236.96,-623.48"/>
<text text-anchor="middle" x="201.5" y="-638.8" font-family="arial" font-size="14.00" fill="#3cb4a4">object</text>
</g>
<!-- node15 -->
<g id="node10" class="node">
<title>node15</title>
<polygon fill="#da2d4f" stroke="black" points="201,-443 55,-443 55,-407 201,-407 201,-443"/>
<text text-anchor="middle" x="128" y="-421.3" font-family="Arial" font-size="14.00" fill="#ffffff">15 LoadField Vector.y</text>
</g>
<!-- node10&#45;&gt;node15 -->
<g id="edge15" class="edge">
<title>node10&#45;&gt;node15</title>
<path fill="none" stroke="#3cb4a4" d="M29.05,-667.93C19.32,-641.38 4.47,-588.98 20,-548 35.36,-507.49 70.99,-471.78 97.15,-449.63"/>
<polygon fill="#3cb4a4" stroke="#3cb4a4" points="99.45,-452.27 104.93,-443.21 94.99,-446.88 99.45,-452.27"/>
<text text-anchor="middle" x="38.5" y="-551.8" font-family="arial" font-size="14.00" fill="#3cb4a4">object</text>
</g>
<!-- node11&#45;&gt;node7 -->
<g id="edge2" class="edge">
<title>node11&#45;&gt;node7</title>
<path fill="none" stroke="#3cb4a4" d="M425.34,-671.86C459.96,-659.68 499,-637.6 499,-600 499,-600 499,-600 499,-90 499,-72.5 488.87,-56.1 477.92,-43.48"/>
<polygon fill="#3cb4a4" stroke="#3cb4a4" points="480.45,-41.06 471.08,-36.13 475.33,-45.83 480.45,-41.06"/>
<text text-anchor="middle" x="516" y="-334.3" font-family="arial" font-size="14.00" fill="#3cb4a4">result</text>
</g>
<!-- node11&#45;&gt;node12 -->
<g id="edge8" class="edge">
<title>node11&#45;&gt;node12</title>
<path fill="none" stroke="#da2d4f" stroke-width="2" d="M357.82,-667.8C346.95,-655.47 332.13,-638.68 319.96,-624.89"/>
<polygon fill="#da2d4f" stroke="#da2d4f" stroke-width="2" points="322.4,-622.36 313.15,-617.18 317.15,-626.99 322.4,-622.36"/>
</g>
<!-- node19 -->
<g id="node13" class="node">
<title>node19</title>
<polygon fill="#da2d4f" stroke="black" points="409.5,-269 260.5,-269 260.5,-233 409.5,-233 409.5,-269"/>
<text text-anchor="middle" x="335" y="-247.3" font-family="Arial" font-size="14.00" fill="#ffffff">19 StoreField Vector.x</text>
</g>
<!-- node11&#45;&gt;node19 -->
<g id="edge21" class="edge">
<title>node11&#45;&gt;node19</title>
<path fill="none" stroke="#3cb4a4" d="M381.51,-667.89C389.1,-651.05 399,-624.38 399,-600 399,-600 399,-600 399,-337 399,-313.03 382.56,-291.52 366.34,-276.14"/>
<polygon fill="#3cb4a4" stroke="#3cb4a4" points="368.25,-273.15 358.47,-269.09 363.58,-278.37 368.25,-273.15"/>
<text text-anchor="middle" x="417.5" y="-464.8" font-family="arial" font-size="14.00" fill="#3cb4a4">object</text>
</g>
<!-- node21 -->
<g id="node14" class="node">
<title>node21</title>
<polygon fill="#da2d4f" stroke="black" points="343.5,-182 194.5,-182 194.5,-146 343.5,-146 343.5,-182"/>
<text text-anchor="middle" x="269" y="-160.3" font-family="Arial" font-size="14.00" fill="#ffffff">21 StoreField Vector.y</text>
</g>
<!-- node11&#45;&gt;node21 -->
<g id="edge24" class="edge">
<title>node11&#45;&gt;node21</title>
<path fill="none" stroke="#3cb4a4" d="M320.86,-678.85C271.7,-671 197.75,-653.75 144,-617 43.04,-547.96 0,-504.8 0,-382.5 0,-382.5 0,-382.5 0,-250 0,-210.72 105.59,-187.3 184.46,-175.28"/>
<polygon fill="#3cb4a4" stroke="#3cb4a4" points="185.05,-178.73 194.43,-173.8 184.02,-171.8 185.05,-178.73"/>
<text text-anchor="middle" x="23.5" y="-421.3" font-family="arial" font-size="14.00" fill="#3cb4a4">object</text>
</g>
<!-- node23 -->
<g id="node15" class="node">
<title>node23</title>
<polygon fill="#f9f9f9" stroke="black" points="471,-109 337,-109 337,-73 471,-73 471,-109"/>
<text text-anchor="middle" x="404" y="-87.3" font-family="Arial" font-size="14.00" fill="#1a1919">23 FinalFieldBarrier</text>
</g>
<!-- node11&#45;&gt;node23 -->
<g id="edge27" class="edge">
<title>node11&#45;&gt;node23</title>
<path fill="none" stroke="#3cb4a4" d="M403.38,-667.91C425.28,-653.1 451,-629.44 451,-600 451,-600 451,-600 451,-163 451,-145.78 441.27,-129.53 430.66,-116.94"/>
<polygon fill="#3cb4a4" stroke="#3cb4a4" points="432.97,-114.27 423.66,-109.21 427.78,-118.97 432.97,-114.27"/>
<text text-anchor="middle" x="467.5" y="-377.8" font-family="arial" font-size="14.00" fill="#3cb4a4">value</text>
</g>
<!-- node13 -->
<g id="node8" class="node">
<title>node13</title>
<polygon fill="#da2d4f" stroke="black" points="292,-530 146,-530 146,-494 292,-494 292,-530"/>
<text text-anchor="middle" x="219" y="-508.3" font-family="Arial" font-size="14.00" fill="#ffffff">13 LoadField Vector.x</text>
</g>
<!-- node12&#45;&gt;node13 -->
<g id="edge10" class="edge">
<title>node12&#45;&gt;node13</title>
<path fill="none" stroke="#da2d4f" stroke-width="2" d="M282.01,-580.8C270.45,-568.36 254.66,-551.36 241.77,-537.5"/>
<polygon fill="#da2d4f" stroke="#da2d4f" stroke-width="2" points="244.33,-535.12 234.96,-530.18 239.21,-539.88 244.33,-535.12"/>
</g>
<!-- node14 -->
<g id="node9" class="node">
<title>node14</title>
<polygon fill="#3cb4a4" stroke="black" points="331,-443 290.61,-425 331,-407 371.39,-425 331,-443"/>
<text text-anchor="middle" x="331" y="-421.3" font-family="Arial" font-size="14.00" fill="#1a1919">14 +</text>
</g>
<!-- node12&#45;&gt;node14 -->
<g id="edge13" class="edge">
<title>node12&#45;&gt;node14</title>
<path fill="none" stroke="#3cb4a4" d="M301.28,-580.88C307.08,-550.69 319.14,-487.83 325.98,-452.17"/>
<polygon fill="#3cb4a4" stroke="#3cb4a4" points="329.47,-452.53 327.92,-442.05 322.6,-451.21 329.47,-452.53"/>
<text text-anchor="middle" x="320.5" y="-508.3" font-family="arial" font-size="14.00" fill="#3cb4a4">x</text>
</g>
<!-- node13&#45;&gt;node14 -->
<g id="edge14" class="edge">
<title>node13&#45;&gt;node14</title>
<path fill="none" stroke="#3cb4a4" d="M241.66,-493.8C261.26,-478.92 289.43,-457.55 308.87,-442.8"/>
<polygon fill="#3cb4a4" stroke="#3cb4a4" points="311.02,-445.56 316.87,-436.72 306.79,-439.98 311.02,-445.56"/>
<text text-anchor="middle" x="284.5" y="-464.8" font-family="arial" font-size="14.00" fill="#3cb4a4">y</text>
</g>
<!-- node13&#45;&gt;node15 -->
<g id="edge12" class="edge">
<title>node13&#45;&gt;node15</title>
<path fill="none" stroke="#da2d4f" stroke-width="2" d="M200.58,-493.8C187.14,-481.24 168.74,-464.05 153.82,-450.12"/>
<polygon fill="#da2d4f" stroke="#da2d4f" stroke-width="2" points="156.08,-447.44 146.39,-443.18 151.31,-452.56 156.08,-447.44"/>
</g>
<!-- node14&#45;&gt;node19 -->
<g id="edge22" class="edge">
<title>node14&#45;&gt;node19</title>
<path fill="none" stroke="#3cb4a4" d="M331.4,-406.88C332.09,-377 333.53,-315.11 334.37,-279.27"/>
<polygon fill="#3cb4a4" stroke="#3cb4a4" points="337.87,-279.13 334.6,-269.05 330.87,-278.97 337.87,-279.13"/>
<text text-anchor="middle" x="349.5" y="-334.3" font-family="arial" font-size="14.00" fill="#3cb4a4">value</text>
</g>
<!-- node16 -->
<g id="node11" class="node">
<title>node16</title>
<polygon fill="#da2d4f" stroke="black" points="299,-356 153,-356 153,-320 299,-320 299,-356"/>
<text text-anchor="middle" x="226" y="-334.3" font-family="Arial" font-size="14.00" fill="#ffffff">16 LoadField Vector.y</text>
</g>
<!-- node15&#45;&gt;node16 -->
<g id="edge16" class="edge">
<title>node15&#45;&gt;node16</title>
<path fill="none" stroke="#da2d4f" stroke-width="2" d="M147.83,-406.8C162.44,-394.13 182.5,-376.73 198.63,-362.74"/>
<polygon fill="#da2d4f" stroke="#da2d4f" stroke-width="2" points="200.94,-365.37 206.2,-356.18 196.35,-360.08 200.94,-365.37"/>
</g>
<!-- node17 -->
<g id="node12" class="node">
<title>node17</title>
<polygon fill="#3cb4a4" stroke="black" points="202,-269 161.61,-251 202,-233 242.39,-251 202,-269"/>
<text text-anchor="middle" x="202" y="-247.3" font-family="Arial" font-size="14.00" fill="#1a1919">17 +</text>
</g>
<!-- node15&#45;&gt;node17 -->
<g id="edge19" class="edge">
<title>node15&#45;&gt;node17</title>
<path fill="none" stroke="#3cb4a4" d="M126.12,-406.93C124.51,-385.59 124.16,-348.4 137,-320 146.22,-299.6 164.21,-281.55 178.93,-269.18"/>
<polygon fill="#3cb4a4" stroke="#3cb4a4" points="181.53,-271.58 187.12,-262.58 177.14,-266.12 181.53,-271.58"/>
<text text-anchor="middle" x="140.5" y="-334.3" font-family="arial" font-size="14.00" fill="#3cb4a4">x</text>
</g>
<!-- node16&#45;&gt;node17 -->
<g id="edge20" class="edge">
<title>node16&#45;&gt;node17</title>
<path fill="none" stroke="#3cb4a4" d="M221.14,-319.8C217.67,-307.51 212.95,-290.77 209.06,-277.01"/>
<polygon fill="#3cb4a4" stroke="#3cb4a4" points="212.37,-275.85 206.29,-267.18 205.64,-277.76 212.37,-275.85"/>
<text text-anchor="middle" x="218.5" y="-290.8" font-family="arial" font-size="14.00" fill="#3cb4a4">y</text>
</g>
<!-- node16&#45;&gt;node19 -->
<g id="edge18" class="edge">
<title>node16&#45;&gt;node19</title>
<path fill="none" stroke="#da2d4f" stroke-width="2" d="M248.06,-319.8C264.46,-307.01 287.02,-289.42 305.05,-275.36"/>
<polygon fill="#da2d4f" stroke="#da2d4f" stroke-width="2" points="307.24,-278.08 312.98,-269.18 302.94,-272.56 307.24,-278.08"/>
</g>
<!-- node17&#45;&gt;node21 -->
<g id="edge25" class="edge">
<title>node17&#45;&gt;node21</title>
<path fill="none" stroke="#3cb4a4" d="M212.18,-237.09C221.94,-224.71 236.94,-205.67 249.08,-190.27"/>
<polygon fill="#3cb4a4" stroke="#3cb4a4" points="252.04,-192.17 255.48,-182.15 246.54,-187.84 252.04,-192.17"/>
<text text-anchor="middle" x="255.5" y="-203.8" font-family="arial" font-size="14.00" fill="#3cb4a4">value</text>
</g>
<!-- node19&#45;&gt;node21 -->
<g id="edge23" class="edge">
<title>node19&#45;&gt;node21</title>
<path fill="none" stroke="#da2d4f" stroke-width="2" d="M321.64,-232.8C312.16,-220.59 299.28,-203.99 288.63,-190.28"/>
<polygon fill="#da2d4f" stroke="#da2d4f" stroke-width="2" points="291.23,-187.93 282.34,-182.18 285.7,-192.22 291.23,-187.93"/>
</g>
<!-- node21&#45;&gt;node23 -->
<g id="edge26" class="edge">
<title>node21&#45;&gt;node23</title>
<path fill="none" stroke="#da2d4f" stroke-width="2" d="M301.34,-145.99C319.65,-136.36 342.76,-124.21 362.42,-113.87"/>
<polygon fill="#da2d4f" stroke="#da2d4f" stroke-width="2" points="364.24,-116.87 371.46,-109.11 360.98,-110.67 364.24,-116.87"/>
</g>
<!-- node23&#45;&gt;node7 -->
<g id="edge28" class="edge">
<title>node23&#45;&gt;node7</title>
<path fill="none" stroke="#da2d4f" stroke-width="2" d="M415.38,-72.81C420.98,-64.35 427.84,-53.98 434.05,-44.61"/>
<polygon fill="#da2d4f" stroke="#da2d4f" stroke-width="2" points="437.13,-46.3 439.73,-36.03 431.29,-42.44 437.13,-46.3"/>
</g>
<!-- inline1x8 -->
<g id="node16" class="node">
<title>inline1x8</title>
<ellipse fill="#d7ede7" stroke="black" cx="285" cy="-941" rx="27" ry="18"/>
<text text-anchor="middle" x="285" y="-939.1" font-family="Arial" font-size="8.00" fill="#1a1919">1 P(0)</text>
</g>
<!-- inline1x8&#45;&gt;node8 -->
<g id="edge3" class="edge">
<title>inline1x8&#45;&gt;node8</title>
<path fill="none" stroke="#3cb4a4" d="M285,-922.86C285,-909.61 285,-891.35 285,-878.11"/>
<text text-anchor="middle" x="294.5" y="-898.6" font-family="arial" font-size="8.00" fill="#3cb4a4">value</text>
</g>
<!-- inline1x10 -->
<g id="node17" class="node">
<title>inline1x10</title>
<ellipse fill="#d7ede7" stroke="black" cx="36" cy="-773" rx="27" ry="18"/>
<text text-anchor="middle" x="36" y="-771.1" font-family="Arial" font-size="8.00" fill="#1a1919">1 P(0)</text>
</g>
<!-- inline1x10&#45;&gt;node10 -->
<g id="edge7" class="edge">
<title>inline1x10&#45;&gt;node10</title>
<path fill="none" stroke="#3cb4a4" d="M36,-754.8C36,-740.05 36,-718.92 36,-704.18"/>
<text text-anchor="middle" x="47" y="-727.6" font-family="arial" font-size="8.00" fill="#3cb4a4">object</text>
</g>
<!-- inline2x13 -->
<g id="node18" class="node">
<title>inline2x13</title>
<ellipse fill="#d7ede7" stroke="black" cx="180" cy="-599" rx="27" ry="18"/>
<text text-anchor="middle" x="180" y="-597.1" font-family="Arial" font-size="8.00" fill="#1a1919">2 P(1)</text>
</g>
<!-- inline2x13&#45;&gt;node13 -->
<g id="edge11" class="edge">
<title>inline2x13&#45;&gt;node13</title>
<path fill="none" stroke="#3cb4a4" d="M187.52,-581.61C194.29,-566.85 204.21,-545.22 211.1,-530.21"/>
<text text-anchor="middle" x="213" y="-553.6" font-family="arial" font-size="8.00" fill="#3cb4a4">object</text>
</g>
<!-- inline2x16 -->
<g id="node19" class="node">
<title>inline2x16</title>
<ellipse fill="#d7ede7" stroke="black" cx="246" cy="-425" rx="27" ry="18"/>
<text text-anchor="middle" x="246" y="-423.1" font-family="Arial" font-size="8.00" fill="#1a1919">2 P(1)</text>
</g>
<!-- inline2x16&#45;&gt;node16 -->
<g id="edge17" class="edge">
<title>inline2x16&#45;&gt;node16</title>
<path fill="none" stroke="#3cb4a4" d="M241.95,-406.8C238.48,-392.05 233.51,-370.92 230.04,-356.18"/>
<text text-anchor="middle" x="248" y="-379.6" font-family="arial" font-size="8.00" fill="#3cb4a4">object</text>
</g>
</g>
</svg>
