<?xml version="1.0" encoding="UTF-8" standalone="no"?>
<!DOCTYPE svg PUBLIC "-//W3C//DTD SVG 1.1//EN"
 "http://www.w3.org/Graphics/SVG/1.1/DTD/svg11.dtd">
<!-- Generated by graphviz version 2.44.1 (20200629.0846)
 -->
<!-- Title: G Pages: 1 -->
<svg width="501pt" height="989pt"
 viewBox="0.00 0.00 500.50 989.00" xmlns="http://www.w3.org/2000/svg" xmlns:xlink="http://www.w3.org/1999/xlink">
<g id="graph0" class="graph" transform="scale(1 1) rotate(0) translate(4 985)">
<title>G</title>
<!-- node0 -->
<g id="node1" class="node">
<title>node0</title>
<polygon fill="#e98693" stroke="black" points="243,-900 187,-900 187,-864 243,-864 243,-900"/>
<text text-anchor="middle" x="215" y="-878.3" font-family="Arial" font-size="14.00" fill="#1a1919">0 Start</text>
</g>
<!-- node9 -->
<g id="node4" class="node">
<title>node9</title>
<polygon fill="#ffa500" stroke="black" points="371.5,-813 126.5,-813 126.5,-777 371.5,-777 371.5,-813"/>
<text text-anchor="middle" x="249" y="-791.3" font-family="Arial" font-size="14.00" fill="#1a1919">9 Guard not, else NullCheckException</text>
</g>
<!-- node0&#45;&gt;node9 -->
<g id="edge1" class="edge">
<title>node0&#45;&gt;node9</title>
<path fill="none" stroke="#da2d4f" stroke-width="2" d="M221.88,-863.8C226.58,-852.05 232.9,-836.24 238.26,-822.84"/>
<polygon fill="#da2d4f" stroke="#da2d4f" stroke-width="2" points="241.67,-823.76 242.13,-813.18 235.17,-821.16 241.67,-823.76"/>
</g>
<!-- node7 -->
<g id="node2" class="node">
<title>node7</title>
<polygon fill="#e98693" stroke="black" points="325,-36 257,-36 257,0 325,0 325,-36"/>
<text text-anchor="middle" x="291" y="-14.3" font-family="Arial" font-size="14.00" fill="#1a1919">7 Return</text>
</g>
<!-- node8 -->
<g id="node3" class="node">
<title>node8</title>
<polygon fill="#3cb4a4" stroke="black" points="318,-900 261.02,-882 318,-864 374.98,-882 318,-900"/>
<text text-anchor="middle" x="318" y="-878.3" font-family="Arial" font-size="14.00" fill="#1a1919">8 IsNull</text>
</g>
<!-- node8&#45;&gt;node9 -->
<g id="edge4" class="edge">
<title>node8&#45;&gt;node9</title>
<path fill="none" stroke="#3cb4a4" d="M306.91,-867.34C296.82,-854.91 281.67,-836.24 269.39,-821.12"/>
<polygon fill="#3cb4a4" stroke="#3cb4a4" points="271.94,-818.7 262.92,-813.15 266.5,-823.11 271.94,-818.7"/>
<text text-anchor="middle" x="291" y="-834.8" font-family="arial" font-size="14.00" fill="#3cb4a4">?</text>
</g>
<!-- node10 -->
<g id="node5" class="node">
<title>node10</title>
<polygon fill="#f9f9f9" stroke="black" points="164,-726 110,-726 110,-690 164,-690 164,-726"/>
<text text-anchor="middle" x="137" y="-704.3" font-family="Arial" font-size="14.00" fill="#1a1919">10 π</text>
</g>
<!-- node9&#45;&gt;node10 -->
<g id="edge6" class="edge">
<title>node9&#45;&gt;node10</title>
<path fill="none" stroke="#3cb4a4" d="M224.65,-776.97C216.73,-771.34 207.93,-764.98 200,-759 188.82,-750.58 176.74,-741.09 166.18,-732.66"/>
<polygon fill="#3cb4a4" stroke="#3cb4a4" points="168.07,-729.69 158.08,-726.17 163.69,-735.15 168.07,-729.69"/>
<text text-anchor="middle" x="217.5" y="-747.8" font-family="arial" font-size="14.00" fill="#3cb4a4">guard</text>
</g>
<!-- node12 -->
<g id="node6" class="node">
<title>node12</title>
<polygon fill="#da2d4f" stroke="black" points="322,-639 176,-639 176,-603 322,-603 322,-639"/>
<text text-anchor="middle" x="249" y="-617.3" font-family="Arial" font-size="14.00" fill="#ffffff">12 LoadField Vector.x</text>
</g>
<!-- node9&#45;&gt;node12 -->
<g id="edge5" class="edge">
<title>node9&#45;&gt;node12</title>
<path fill="none" stroke="#da2d4f" stroke-width="2" d="M249,-776.88C249,-747 249,-685.11 249,-649.27"/>
<polygon fill="#da2d4f" stroke="#da2d4f" stroke-width="2" points="252.5,-649.05 249,-639.05 245.5,-649.05 252.5,-649.05"/>
</g>
<!-- node10&#45;&gt;node12 -->
<g id="edge8" class="edge">
<title>node10&#45;&gt;node12</title>
<path fill="none" stroke="#3cb4a4" d="M156.99,-689.89C168.73,-680.02 183.98,-667.52 198,-657 203.42,-652.93 209.28,-648.73 215.01,-644.73"/>
<polygon fill="#3cb4a4" stroke="#3cb4a4" points="217.03,-647.59 223.28,-639.03 213.06,-641.83 217.03,-647.59"/>
<text text-anchor="middle" x="216.5" y="-660.8" font-family="arial" font-size="14.00" fill="#3cb4a4">object</text>
</g>
<!-- node15 -->
<g id="node9" class="node">
<title>node15</title>
<polygon fill="#da2d4f" stroke="black" points="146,-465 0,-465 0,-429 146,-429 146,-465"/>
<text text-anchor="middle" x="73" y="-443.3" font-family="Arial" font-size="14.00" fill="#ffffff">15 LoadField Vector.y</text>
</g>
<!-- node10&#45;&gt;node15 -->
<g id="edge14" class="edge">
<title>node10&#45;&gt;node15</title>
<path fill="none" stroke="#3cb4a4" d="M123.48,-689.91C113.85,-676.77 101.5,-657.75 95,-639 75.63,-583.18 72.53,-513.22 72.46,-475.38"/>
<polygon fill="#3cb4a4" stroke="#3cb4a4" points="75.96,-475.17 72.51,-465.15 68.96,-475.13 75.96,-475.17"/>
<text text-anchor="middle" x="100.5" y="-573.8" font-family="arial" font-size="14.00" fill="#3cb4a4">object</text>
</g>
<!-- node13 -->
<g id="node7" class="node">
<title>node13</title>
<polygon fill="#da2d4f" stroke="black" points="243,-552 97,-552 97,-516 243,-516 243,-552"/>
<text text-anchor="middle" x="170" y="-530.3" font-family="Arial" font-size="14.00" fill="#ffffff">13 LoadField Vector.x</text>
</g>
<!-- node12&#45;&gt;node13 -->
<g id="edge9" class="edge">
<title>node12&#45;&gt;node13</title>
<path fill="none" stroke="#da2d4f" stroke-width="2" d="M233.01,-602.8C221.45,-590.36 205.66,-573.36 192.77,-559.5"/>
<polygon fill="#da2d4f" stroke="#da2d4f" stroke-width="2" points="195.33,-557.12 185.96,-552.18 190.21,-561.88 195.33,-557.12"/>
</g>
<!-- node14 -->
<g id="node8" class="node">
<title>node14</title>
<polygon fill="#3cb4a4" stroke="black" points="276,-465 235.61,-447 276,-429 316.39,-447 276,-465"/>
<text text-anchor="middle" x="276" y="-443.3" font-family="Arial" font-size="14.00" fill="#1a1919">14 +</text>
</g>
<!-- node12&#45;&gt;node14 -->
<g id="edge12" class="edge">
<title>node12&#45;&gt;node14</title>
<path fill="none" stroke="#3cb4a4" d="M251.69,-602.88C256.43,-572.69 266.29,-509.83 271.89,-474.17"/>
<polygon fill="#3cb4a4" stroke="#3cb4a4" points="275.39,-474.47 273.48,-464.05 268.47,-473.38 275.39,-474.47"/>
<text text-anchor="middle" x="268.5" y="-530.3" font-family="arial" font-size="14.00" fill="#3cb4a4">x</text>
</g>
<!-- node13&#45;&gt;node14 -->
<g id="edge13" class="edge">
<title>node13&#45;&gt;node14</title>
<path fill="none" stroke="#3cb4a4" d="M191.45,-515.8C209.81,-501.08 236.12,-479.98 254.49,-465.25"/>
<polygon fill="#3cb4a4" stroke="#3cb4a4" points="256.71,-467.95 262.32,-458.97 252.33,-462.49 256.71,-467.95"/>
<text text-anchor="middle" x="233.5" y="-486.8" font-family="arial" font-size="14.00" fill="#3cb4a4">y</text>
</g>
<!-- node13&#45;&gt;node15 -->
<g id="edge11" class="edge">
<title>node13&#45;&gt;node15</title>
<path fill="none" stroke="#da2d4f" stroke-width="2" d="M150.37,-515.8C136.04,-503.24 116.42,-486.05 100.53,-472.12"/>
<polygon fill="#da2d4f" stroke="#da2d4f" stroke-width="2" points="102.43,-469.13 92.6,-465.18 97.81,-474.4 102.43,-469.13"/>
</g>
<!-- node28 -->
<g id="node13" class="node">
<title>node28</title>
<polygon fill="#da2d4f" stroke="black" points="307,-210 243,-210 243,-174 307,-174 307,-210"/>
<text text-anchor="middle" x="275" y="-188.3" font-family="Arial" font-size="14.00" fill="#ffffff">28 Alloc</text>
</g>
<!-- node14&#45;&gt;node28 -->
<g id="edge21" class="edge">
<title>node14&#45;&gt;node28</title>
<path fill="none" stroke="#3cb4a4" d="M275.93,-429.01C275.76,-386.08 275.32,-272.98 275.11,-220.49"/>
<polygon fill="#3cb4a4" stroke="#3cb4a4" points="278.61,-220.24 275.07,-210.25 271.61,-220.27 278.61,-220.24"/>
<text text-anchor="middle" x="295" y="-318.8" font-family="arial" font-size="14.00" fill="#3cb4a4">values</text>
</g>
<!-- node16 -->
<g id="node10" class="node">
<title>node16</title>
<polygon fill="#da2d4f" stroke="black" points="247,-384 101,-384 101,-348 247,-348 247,-384"/>
<text text-anchor="middle" x="174" y="-362.3" font-family="Arial" font-size="14.00" fill="#ffffff">16 LoadField Vector.y</text>
</g>
<!-- node15&#45;&gt;node16 -->
<g id="edge15" class="edge">
<title>node15&#45;&gt;node16</title>
<path fill="none" stroke="#da2d4f" stroke-width="2" d="M94.92,-428.86C109.34,-417.57 128.41,-402.66 144.21,-390.3"/>
<polygon fill="#da2d4f" stroke="#da2d4f" stroke-width="2" points="146.41,-393.03 152.13,-384.11 142.09,-387.51 146.41,-393.03"/>
</g>
<!-- node17 -->
<g id="node11" class="node">
<title>node17</title>
<polygon fill="#3cb4a4" stroke="black" points="169,-297 128.61,-279 169,-261 209.39,-279 169,-297"/>
<text text-anchor="middle" x="169" y="-275.3" font-family="Arial" font-size="14.00" fill="#1a1919">17 +</text>
</g>
<!-- node15&#45;&gt;node17 -->
<g id="edge18" class="edge">
<title>node15&#45;&gt;node17</title>
<path fill="none" stroke="#3cb4a4" d="M71.37,-428.88C70.22,-408.34 70.88,-373.49 85,-348 98.03,-324.48 122.8,-305.99 142.07,-294.26"/>
<polygon fill="#3cb4a4" stroke="#3cb4a4" points="143.87,-297.26 150.75,-289.2 140.35,-291.21 143.87,-297.26"/>
<text text-anchor="middle" x="88.5" y="-362.3" font-family="arial" font-size="14.00" fill="#3cb4a4">x</text>
</g>
<!-- node16&#45;&gt;node17 -->
<g id="edge19" class="edge">
<title>node16&#45;&gt;node17</title>
<path fill="none" stroke="#3cb4a4" d="M172.99,-347.8C172.29,-336.01 171.36,-320.14 170.57,-306.71"/>
<polygon fill="#3cb4a4" stroke="#3cb4a4" points="174.06,-306.37 169.98,-296.6 167.07,-306.79 174.06,-306.37"/>
<text text-anchor="middle" x="175.5" y="-318.8" font-family="arial" font-size="14.00" fill="#3cb4a4">y</text>
</g>
<!-- node16&#45;&gt;node28 -->
<g id="edge17" class="edge">
<title>node16&#45;&gt;node28</title>
<path fill="none" stroke="#da2d4f" stroke-width="2" d="M185.56,-347.89C194.65,-334.27 207.48,-314.63 218,-297 233.55,-270.93 250.09,-240.4 261.33,-219.19"/>
<polygon fill="#da2d4f" stroke="#da2d4f" stroke-width="2" points="264.53,-220.63 266.09,-210.15 258.33,-217.36 264.53,-220.63"/>
</g>
<!-- node17&#45;&gt;node28 -->
<g id="edge22" class="edge">
<title>node17&#45;&gt;node28</title>
<path fill="none" stroke="#3cb4a4" d="M169.89,-261.31C171.3,-250.6 174.73,-237.05 183,-228 195.91,-213.87 215.14,-205.4 232.68,-200.35"/>
<polygon fill="#3cb4a4" stroke="#3cb4a4" points="233.94,-203.64 242.75,-197.75 232.2,-196.86 233.94,-203.64"/>
<text text-anchor="middle" x="203" y="-231.8" font-family="arial" font-size="14.00" fill="#3cb4a4">values</text>
</g>
<!-- node27 -->
<g id="node12" class="node">
<title>node27</title>
<polygon fill="#f9f9f9" stroke="black" points="492.5,-297 309.5,-297 309.5,-261 492.5,-261 492.5,-297"/>
<text text-anchor="middle" x="401" y="-275.3" font-family="Arial" font-size="14.00" fill="#1a1919">27 VirtualInstance(0) Vector</text>
</g>
<!-- node27&#45;&gt;node28 -->
<g id="edge20" class="edge">
<title>node27&#45;&gt;node28</title>
<path fill="none" stroke="#3cb4a4" d="M340.26,-260.96C329.2,-256.22 318.25,-250.31 309,-243 300.81,-236.53 293.85,-227.54 288.4,-218.96"/>
<polygon fill="#3cb4a4" stroke="#3cb4a4" points="291.38,-217.13 283.28,-210.3 285.36,-220.69 291.38,-217.13"/>
<text text-anchor="middle" x="350.5" y="-231.8" font-family="arial" font-size="14.00" fill="#3cb4a4">virtualObjects</text>
</g>
<!-- node29 -->
<g id="node14" class="node">
<title>node29</title>
<polygon fill="#343d46" stroke="black" points="433,-123 303,-123 303,-87 433,-87 433,-123"/>
<text text-anchor="middle" x="368" y="-101.3" font-family="Arial" font-size="14.00" fill="#ffffff">29 AllocatedObject</text>
</g>
<!-- node27&#45;&gt;node29 -->
<g id="edge24" class="edge">
<title>node27&#45;&gt;node29</title>
<path fill="none" stroke="#3cb4a4" d="M398.4,-260.61C394.4,-234.52 386.22,-183.72 377,-141 376.42,-138.33 375.78,-135.56 375.12,-132.8"/>
<polygon fill="#3cb4a4" stroke="#3cb4a4" points="378.49,-131.87 372.66,-123.03 371.71,-133.58 378.49,-131.87"/>
<text text-anchor="middle" x="428" y="-188.3" font-family="arial" font-size="14.00" fill="#3cb4a4">virtualObject</text>
</g>
<!-- node28&#45;&gt;node7 -->
<g id="edge23" class="edge">
<title>node28&#45;&gt;node7</title>
<path fill="none" stroke="#da2d4f" stroke-width="2" d="M276.59,-173.88C279.37,-144 285.13,-82.11 288.46,-46.27"/>
<polygon fill="#da2d4f" stroke="#da2d4f" stroke-width="2" points="291.97,-46.33 289.41,-36.05 285,-45.68 291.97,-46.33"/>
</g>
<!-- node28&#45;&gt;node29 -->
<g id="edge25" class="edge">
<title>node28&#45;&gt;node29</title>
<path fill="none" stroke="#3cb4a4" d="M293.82,-173.8C307.56,-161.24 326.37,-144.05 341.61,-130.12"/>
<polygon fill="#3cb4a4" stroke="#3cb4a4" points="344.19,-132.51 349.21,-123.18 339.47,-127.34 344.19,-132.51"/>
<text text-anchor="middle" x="350" y="-144.8" font-family="arial" font-size="14.00" fill="#3cb4a4">commit</text>
</g>
<!-- node29&#45;&gt;node7 -->
<g id="edge2" class="edge">
<title>node29&#45;&gt;node7</title>
<path fill="none" stroke="#3cb4a4" d="M352.42,-86.8C341.25,-74.47 326.04,-57.68 313.55,-43.89"/>
<polygon fill="#3cb4a4" stroke="#3cb4a4" points="315.87,-41.24 306.56,-36.18 310.68,-45.94 315.87,-41.24"/>
<text text-anchor="middle" x="351" y="-57.8" font-family="arial" font-size="14.00" fill="#3cb4a4">result</text>
</g>
<!-- inline1x8 -->
<g id="node15" class="node">
<title>inline1x8</title>
<ellipse fill="#d7ede7" stroke="black" cx="318" cy="-963" rx="27" ry="18"/>
<text text-anchor="middle" x="318" y="-961.1" font-family="Arial" font-size="8.00" fill="#1a1919">1 P(0)</text>
</g>
<!-- inline1x8&#45;&gt;node8 -->
<g id="edge3" class="edge">
<title>inline1x8&#45;&gt;node8</title>
<path fill="none" stroke="#3cb4a4" d="M318,-944.86C318,-931.61 318,-913.35 318,-900.11"/>
<text text-anchor="middle" x="327.5" y="-920.6" font-family="arial" font-size="8.00" fill="#3cb4a4">value</text>
</g>
<!-- inline1x10 -->
<g id="node16" class="node">
<title>inline1x10</title>
<ellipse fill="#d7ede7" stroke="black" cx="81" cy="-795" rx="27" ry="18"/>
<text text-anchor="middle" x="81" y="-793.1" font-family="Arial" font-size="8.00" fill="#1a1919">1 P(0)</text>
</g>
<!-- inline1x10&#45;&gt;node10 -->
<g id="edge7" class="edge">
<title>inline1x10&#45;&gt;node10</title>
<path fill="none" stroke="#3cb4a4" d="M91.53,-778.01C101.29,-763.2 115.76,-741.23 125.75,-726.08"/>
<text text-anchor="middle" x="124" y="-749.6" font-family="arial" font-size="8.00" fill="#3cb4a4">object</text>
</g>
<!-- inline2x13 -->
<g id="node17" class="node">
<title>inline2x13</title>
<ellipse fill="#d7ede7" stroke="black" cx="131" cy="-621" rx="27" ry="18"/>
<text text-anchor="middle" x="131" y="-619.1" font-family="Arial" font-size="8.00" fill="#1a1919">2 P(1)</text>
</g>
<!-- inline2x13&#45;&gt;node13 -->
<g id="edge10" class="edge">
<title>inline2x13&#45;&gt;node13</title>
<path fill="none" stroke="#3cb4a4" d="M138.52,-603.61C145.29,-588.85 155.21,-567.22 162.1,-552.21"/>
<text text-anchor="middle" x="164" y="-575.6" font-family="arial" font-size="8.00" fill="#3cb4a4">object</text>
</g>
<!-- inline2x16 -->
<g id="node18" class="node">
<title>inline2x16</title>
<ellipse fill="#d7ede7" stroke="black" cx="191" cy="-447" rx="27" ry="18"/>
<text text-anchor="middle" x="191" y="-445.1" font-family="Arial" font-size="8.00" fill="#1a1919">2 P(1)</text>
</g>
<!-- inline2x16&#45;&gt;node16 -->
<g id="edge16" class="edge">
<title>inline2x16&#45;&gt;node16</title>
<path fill="none" stroke="#3cb4a4" d="M187.31,-428.86C184.46,-415.61 180.53,-397.35 177.68,-384.11"/>
<text text-anchor="middle" x="195" y="-404.6" font-family="arial" font-size="8.00" fill="#3cb4a4">object</text>
</g>
</g>
</svg>
