<?xml version="1.0" encoding="UTF-8" standalone="no"?>
<!DOCTYPE svg PUBLIC "-//W3C//DTD SVG 1.1//EN"
 "http://www.w3.org/Graphics/SVG/1.1/DTD/svg11.dtd">
<!-- Generated by graphviz version 2.44.1 (20200629.0846)
 -->
<!-- Title: G Pages: 1 -->
<svg width="482pt" height="1163pt"
 viewBox="0.00 0.00 481.50 1163.00" xmlns="http://www.w3.org/2000/svg" xmlns:xlink="http://www.w3.org/1999/xlink">
<g id="graph0" class="graph" transform="scale(1 1) rotate(0) translate(4 1159)">
<title>G</title>
<!-- node0 -->
<g id="node1" class="node">
<title>node0</title>
<polygon fill="#e98693" stroke="black" points="245,-1074 189,-1074 189,-1038 245,-1038 245,-1074"/>
<text text-anchor="middle" x="217" y="-1052.3" font-family="Arial" font-size="14.00" fill="#1a1919">0 Start</text>
</g>
<!-- node13 -->
<g id="node4" class="node">
<title>node13</title>
<polygon fill="#ffa500" stroke="black" points="379.5,-987 126.5,-987 126.5,-951 379.5,-951 379.5,-987"/>
<text text-anchor="middle" x="253" y="-965.3" font-family="Arial" font-size="14.00" fill="#1a1919">13 Guard not, else NullCheckException</text>
</g>
<!-- node0&#45;&gt;node13 -->
<g id="edge1" class="edge">
<title>node0&#45;&gt;node13</title>
<path fill="none" stroke="#da2d4f" stroke-width="2" d="M224.29,-1037.8C229.31,-1025.93 236.09,-1009.93 241.8,-996.45"/>
<polygon fill="#da2d4f" stroke="#da2d4f" stroke-width="2" points="245.05,-997.75 245.73,-987.18 238.6,-995.02 245.05,-997.75"/>
</g>
<!-- node11 -->
<g id="node2" class="node">
<title>node11</title>
<polygon fill="#e98693" stroke="black" points="285.5,-36 210.5,-36 210.5,0 285.5,0 285.5,-36"/>
<text text-anchor="middle" x="248" y="-14.3" font-family="Arial" font-size="14.00" fill="#1a1919">11 Return</text>
</g>
<!-- node12 -->
<g id="node3" class="node">
<title>node12</title>
<polygon fill="#3cb4a4" stroke="black" points="326,-1074 262.66,-1056 326,-1038 389.34,-1056 326,-1074"/>
<text text-anchor="middle" x="326" y="-1052.3" font-family="Arial" font-size="14.00" fill="#1a1919">12 IsNull</text>
</g>
<!-- node12&#45;&gt;node13 -->
<g id="edge4" class="edge">
<title>node12&#45;&gt;node13</title>
<path fill="none" stroke="#3cb4a4" d="M313.95,-1040.96C303.28,-1028.55 287.48,-1010.14 274.63,-995.19"/>
<polygon fill="#3cb4a4" stroke="#3cb4a4" points="277.02,-992.6 267.85,-987.29 271.71,-997.16 277.02,-992.6"/>
<text text-anchor="middle" x="297" y="-1008.8" font-family="arial" font-size="14.00" fill="#3cb4a4">?</text>
</g>
<!-- node14 -->
<g id="node5" class="node">
<title>node14</title>
<polygon fill="#f9f9f9" stroke="black" points="166,-900 112,-900 112,-864 166,-864 166,-900"/>
<text text-anchor="middle" x="139" y="-878.3" font-family="Arial" font-size="14.00" fill="#1a1919">14 π</text>
</g>
<!-- node13&#45;&gt;node14 -->
<g id="edge6" class="edge">
<title>node13&#45;&gt;node14</title>
<path fill="none" stroke="#3cb4a4" d="M228.7,-950.9C220.78,-945.26 211.98,-938.91 204,-933 192.43,-924.42 179.84,-914.81 168.86,-906.32"/>
<polygon fill="#3cb4a4" stroke="#3cb4a4" points="170.86,-903.45 160.82,-900.09 166.58,-908.98 170.86,-903.45"/>
<text text-anchor="middle" x="221.5" y="-921.8" font-family="arial" font-size="14.00" fill="#3cb4a4">guard</text>
</g>
<!-- node16 -->
<g id="node6" class="node">
<title>node16</title>
<polygon fill="#da2d4f" stroke="black" points="326,-813 180,-813 180,-777 326,-777 326,-813"/>
<text text-anchor="middle" x="253" y="-791.3" font-family="Arial" font-size="14.00" fill="#ffffff">16 LoadField Vector.x</text>
</g>
<!-- node13&#45;&gt;node16 -->
<g id="edge5" class="edge">
<title>node13&#45;&gt;node16</title>
<path fill="none" stroke="#da2d4f" stroke-width="2" d="M253,-950.88C253,-921 253,-859.11 253,-823.27"/>
<polygon fill="#da2d4f" stroke="#da2d4f" stroke-width="2" points="256.5,-823.05 253,-813.05 249.5,-823.05 256.5,-823.05"/>
</g>
<!-- node14&#45;&gt;node16 -->
<g id="edge8" class="edge">
<title>node14&#45;&gt;node16</title>
<path fill="none" stroke="#3cb4a4" d="M159.72,-863.96C171.87,-854.12 187.62,-841.62 202,-831 207.46,-826.97 213.32,-822.8 219.07,-818.8"/>
<polygon fill="#3cb4a4" stroke="#3cb4a4" points="221.09,-821.66 227.33,-813.1 217.11,-815.9 221.09,-821.66"/>
<text text-anchor="middle" x="220.5" y="-834.8" font-family="arial" font-size="14.00" fill="#3cb4a4">object</text>
</g>
<!-- node19 -->
<g id="node9" class="node">
<title>node19</title>
<polygon fill="#da2d4f" stroke="black" points="146,-639 0,-639 0,-603 146,-603 146,-639"/>
<text text-anchor="middle" x="73" y="-617.3" font-family="Arial" font-size="14.00" fill="#ffffff">19 LoadField Vector.y</text>
</g>
<!-- node14&#45;&gt;node19 -->
<g id="edge14" class="edge">
<title>node14&#45;&gt;node19</title>
<path fill="none" stroke="#3cb4a4" d="M126.25,-863.77C117.14,-850.56 105.41,-831.51 99,-813 79.61,-757.02 74.6,-687.13 73.36,-649.33"/>
<polygon fill="#3cb4a4" stroke="#3cb4a4" points="76.85,-649.03 73.09,-639.12 69.86,-649.21 76.85,-649.03"/>
<text text-anchor="middle" x="103.5" y="-747.8" font-family="arial" font-size="14.00" fill="#3cb4a4">object</text>
</g>
<!-- node17 -->
<g id="node7" class="node">
<title>node17</title>
<polygon fill="#da2d4f" stroke="black" points="247,-726 101,-726 101,-690 247,-690 247,-726"/>
<text text-anchor="middle" x="174" y="-704.3" font-family="Arial" font-size="14.00" fill="#ffffff">17 LoadField Vector.x</text>
</g>
<!-- node16&#45;&gt;node17 -->
<g id="edge9" class="edge">
<title>node16&#45;&gt;node17</title>
<path fill="none" stroke="#da2d4f" stroke-width="2" d="M237.01,-776.8C225.45,-764.36 209.66,-747.36 196.77,-733.5"/>
<polygon fill="#da2d4f" stroke="#da2d4f" stroke-width="2" points="199.33,-731.12 189.96,-726.18 194.21,-735.88 199.33,-731.12"/>
</g>
<!-- node18 -->
<g id="node8" class="node">
<title>node18</title>
<polygon fill="#3cb4a4" stroke="black" points="283,-639 242.61,-621 283,-603 323.39,-621 283,-639"/>
<text text-anchor="middle" x="283" y="-617.3" font-family="Arial" font-size="14.00" fill="#1a1919">18 +</text>
</g>
<!-- node16&#45;&gt;node18 -->
<g id="edge12" class="edge">
<title>node16&#45;&gt;node18</title>
<path fill="none" stroke="#3cb4a4" d="M255.99,-776.88C261.25,-746.69 272.22,-683.83 278.43,-648.17"/>
<polygon fill="#3cb4a4" stroke="#3cb4a4" points="281.93,-648.5 280.2,-638.05 275.03,-647.3 281.93,-648.5"/>
<text text-anchor="middle" x="273.5" y="-704.3" font-family="arial" font-size="14.00" fill="#3cb4a4">x</text>
</g>
<!-- node17&#45;&gt;node18 -->
<g id="edge13" class="edge">
<title>node17&#45;&gt;node18</title>
<path fill="none" stroke="#3cb4a4" d="M196.06,-689.8C214.94,-675.08 241.99,-653.98 260.88,-639.25"/>
<polygon fill="#3cb4a4" stroke="#3cb4a4" points="263.2,-641.88 268.94,-632.97 258.9,-636.36 263.2,-641.88"/>
<text text-anchor="middle" x="239.5" y="-660.8" font-family="arial" font-size="14.00" fill="#3cb4a4">y</text>
</g>
<!-- node17&#45;&gt;node19 -->
<g id="edge11" class="edge">
<title>node17&#45;&gt;node19</title>
<path fill="none" stroke="#da2d4f" stroke-width="2" d="M153.56,-689.8C138.5,-677.13 117.84,-659.73 101.21,-645.74"/>
<polygon fill="#da2d4f" stroke="#da2d4f" stroke-width="2" points="103.31,-642.94 93.41,-639.18 98.81,-648.29 103.31,-642.94"/>
</g>
<!-- node33 -->
<g id="node13" class="node">
<title>node33</title>
<polygon fill="#3cb4a4" stroke="black" points="296,-384 255.61,-366 296,-348 336.39,-366 296,-384"/>
<text text-anchor="middle" x="296" y="-362.3" font-family="Arial" font-size="14.00" fill="#1a1919">33 +</text>
</g>
<!-- node18&#45;&gt;node33 -->
<g id="edge22" class="edge">
<title>node18&#45;&gt;node33</title>
<path fill="none" stroke="#3cb4a4" d="M291.93,-606.81C308.25,-581.73 342.13,-524.84 352,-471 354.88,-455.26 357.4,-450.06 352,-435 345.03,-415.57 329.84,-397.72 317.04,-385.19"/>
<polygon fill="#3cb4a4" stroke="#3cb4a4" points="319.16,-382.39 309.47,-378.11 314.38,-387.5 319.16,-382.39"/>
<text text-anchor="middle" x="350.5" y="-492.8" font-family="arial" font-size="14.00" fill="#3cb4a4">x</text>
</g>
<!-- node20 -->
<g id="node10" class="node">
<title>node20</title>
<polygon fill="#da2d4f" stroke="black" points="238,-558 92,-558 92,-522 238,-522 238,-558"/>
<text text-anchor="middle" x="165" y="-536.3" font-family="Arial" font-size="14.00" fill="#ffffff">20 LoadField Vector.y</text>
</g>
<!-- node19&#45;&gt;node20 -->
<g id="edge15" class="edge">
<title>node19&#45;&gt;node20</title>
<path fill="none" stroke="#da2d4f" stroke-width="2" d="M92.96,-602.86C105.98,-591.68 123.15,-576.93 137.46,-564.64"/>
<polygon fill="#da2d4f" stroke="#da2d4f" stroke-width="2" points="139.77,-567.28 145.08,-558.11 135.21,-561.97 139.77,-567.28"/>
</g>
<!-- node21 -->
<g id="node11" class="node">
<title>node21</title>
<polygon fill="#3cb4a4" stroke="black" points="67,-471 26.61,-453 67,-435 107.39,-453 67,-471"/>
<text text-anchor="middle" x="67" y="-449.3" font-family="Arial" font-size="14.00" fill="#1a1919">21 +</text>
</g>
<!-- node19&#45;&gt;node21 -->
<g id="edge18" class="edge">
<title>node19&#45;&gt;node21</title>
<path fill="none" stroke="#3cb4a4" d="M72.38,-602.86C71.34,-574.01 69.22,-515.52 67.98,-481.07"/>
<polygon fill="#3cb4a4" stroke="#3cb4a4" points="71.47,-480.67 67.61,-470.8 64.47,-480.92 71.47,-480.67"/>
<text text-anchor="middle" x="74.5" y="-536.3" font-family="arial" font-size="14.00" fill="#3cb4a4">x</text>
</g>
<!-- node20&#45;&gt;node21 -->
<g id="edge19" class="edge">
<title>node20&#45;&gt;node21</title>
<path fill="none" stroke="#3cb4a4" d="M145.17,-521.8C128.54,-507.37 104.86,-486.84 87.93,-472.15"/>
<polygon fill="#3cb4a4" stroke="#3cb4a4" points="90.07,-469.37 80.22,-465.47 85.48,-474.66 90.07,-469.37"/>
<text text-anchor="middle" x="125.5" y="-492.8" font-family="arial" font-size="14.00" fill="#3cb4a4">y</text>
</g>
<!-- node32 -->
<g id="node12" class="node">
<title>node32</title>
<polygon fill="#da2d4f" stroke="black" points="343,-471 197,-471 197,-435 343,-435 343,-471"/>
<text text-anchor="middle" x="270" y="-449.3" font-family="Arial" font-size="14.00" fill="#ffffff">32 LoadField Vector.x</text>
</g>
<!-- node20&#45;&gt;node32 -->
<g id="edge17" class="edge">
<title>node20&#45;&gt;node32</title>
<path fill="none" stroke="#da2d4f" stroke-width="2" d="M186.25,-521.8C201.9,-509.13 223.39,-491.73 240.68,-477.74"/>
<polygon fill="#da2d4f" stroke="#da2d4f" stroke-width="2" points="243.21,-480.19 248.78,-471.18 238.81,-474.75 243.21,-480.19"/>
</g>
<!-- node36 -->
<g id="node15" class="node">
<title>node36</title>
<polygon fill="#3cb4a4" stroke="black" points="118,-297 77.61,-279 118,-261 158.39,-279 118,-297"/>
<text text-anchor="middle" x="118" y="-275.3" font-family="Arial" font-size="14.00" fill="#1a1919">36 +</text>
</g>
<!-- node21&#45;&gt;node36 -->
<g id="edge26" class="edge">
<title>node21&#45;&gt;node36</title>
<path fill="none" stroke="#3cb4a4" d="M66.11,-435.31C65.51,-414.37 66.2,-377.59 76,-348 81.67,-330.88 92.41,-313.61 101.61,-300.76"/>
<polygon fill="#3cb4a4" stroke="#3cb4a4" points="104.5,-302.74 107.66,-292.62 98.88,-298.56 104.5,-302.74"/>
<text text-anchor="middle" x="79.5" y="-362.3" font-family="arial" font-size="14.00" fill="#3cb4a4">x</text>
</g>
<!-- node32&#45;&gt;node33 -->
<g id="edge23" class="edge">
<title>node32&#45;&gt;node33</title>
<path fill="none" stroke="#3cb4a4" d="M275.26,-434.8C279.02,-422.51 284.14,-405.77 288.35,-392.01"/>
<polygon fill="#3cb4a4" stroke="#3cb4a4" points="291.78,-392.77 291.36,-382.18 285.08,-390.72 291.78,-392.77"/>
<text text-anchor="middle" x="287.5" y="-405.8" font-family="arial" font-size="14.00" fill="#3cb4a4">y</text>
</g>
<!-- node35 -->
<g id="node14" class="node">
<title>node35</title>
<polygon fill="#da2d4f" stroke="black" points="238,-384 92,-384 92,-348 238,-348 238,-384"/>
<text text-anchor="middle" x="165" y="-362.3" font-family="Arial" font-size="14.00" fill="#ffffff">35 LoadField Vector.y</text>
</g>
<!-- node32&#45;&gt;node35 -->
<g id="edge21" class="edge">
<title>node32&#45;&gt;node35</title>
<path fill="none" stroke="#da2d4f" stroke-width="2" d="M248.75,-434.8C233.1,-422.13 211.61,-404.73 194.32,-390.74"/>
<polygon fill="#da2d4f" stroke="#da2d4f" stroke-width="2" points="196.19,-387.75 186.22,-384.18 191.79,-393.19 196.19,-387.75"/>
</g>
<!-- node48 -->
<g id="node17" class="node">
<title>node48</title>
<polygon fill="#da2d4f" stroke="black" points="264,-210 200,-210 200,-174 264,-174 264,-210"/>
<text text-anchor="middle" x="232" y="-188.3" font-family="Arial" font-size="14.00" fill="#ffffff">48 Alloc</text>
</g>
<!-- node33&#45;&gt;node48 -->
<g id="edge29" class="edge">
<title>node33&#45;&gt;node48</title>
<path fill="none" stroke="#3cb4a4" d="M283.2,-353.39C270.34,-340.86 251.14,-319.65 242,-297 232.07,-272.39 230.22,-241.95 230.47,-220.37"/>
<polygon fill="#3cb4a4" stroke="#3cb4a4" points="233.97,-220.36 230.74,-210.27 226.97,-220.17 233.97,-220.36"/>
<text text-anchor="middle" x="262" y="-275.3" font-family="arial" font-size="14.00" fill="#3cb4a4">values</text>
</g>
<!-- node35&#45;&gt;node36 -->
<g id="edge27" class="edge">
<title>node35&#45;&gt;node36</title>
<path fill="none" stroke="#3cb4a4" d="M155.49,-347.8C148.34,-334.87 138.48,-317.03 130.66,-302.9"/>
<polygon fill="#3cb4a4" stroke="#3cb4a4" points="133.54,-300.87 125.64,-293.81 127.41,-304.26 133.54,-300.87"/>
<text text-anchor="middle" x="148.5" y="-318.8" font-family="arial" font-size="14.00" fill="#3cb4a4">y</text>
</g>
<!-- node35&#45;&gt;node48 -->
<g id="edge25" class="edge">
<title>node35&#45;&gt;node48</title>
<path fill="none" stroke="#da2d4f" stroke-width="2" d="M171.67,-347.88C183.36,-317.87 207.62,-255.58 221.56,-219.81"/>
<polygon fill="#da2d4f" stroke="#da2d4f" stroke-width="2" points="224.99,-220.64 225.36,-210.05 218.47,-218.1 224.99,-220.64"/>
</g>
<!-- node36&#45;&gt;node48 -->
<g id="edge30" class="edge">
<title>node36&#45;&gt;node48</title>
<path fill="none" stroke="#3cb4a4" d="M118.82,-261.23C120.18,-250.49 123.61,-236.94 132,-228 147.07,-211.93 169.93,-203.24 189.99,-198.54"/>
<polygon fill="#3cb4a4" stroke="#3cb4a4" points="190.79,-201.95 199.86,-196.48 189.36,-195.09 190.79,-201.95"/>
<text text-anchor="middle" x="152" y="-231.8" font-family="arial" font-size="14.00" fill="#3cb4a4">values</text>
</g>
<!-- node47 -->
<g id="node16" class="node">
<title>node47</title>
<polygon fill="#f9f9f9" stroke="black" points="473.5,-297 290.5,-297 290.5,-261 473.5,-261 473.5,-297"/>
<text text-anchor="middle" x="382" y="-275.3" font-family="Arial" font-size="14.00" fill="#1a1919">47 VirtualInstance(0) Vector</text>
</g>
<!-- node47&#45;&gt;node48 -->
<g id="edge28" class="edge">
<title>node47&#45;&gt;node48</title>
<path fill="none" stroke="#3cb4a4" d="M317.28,-260.99C304.4,-256.2 291.36,-250.25 280,-243 269.49,-236.29 259.62,-226.82 251.6,-217.92"/>
<polygon fill="#3cb4a4" stroke="#3cb4a4" points="254.24,-215.62 245.05,-210.33 248.93,-220.19 254.24,-215.62"/>
<text text-anchor="middle" x="321.5" y="-231.8" font-family="arial" font-size="14.00" fill="#3cb4a4">virtualObjects</text>
</g>
<!-- node49 -->
<g id="node18" class="node">
<title>node49</title>
<polygon fill="#343d46" stroke="black" points="390,-123 260,-123 260,-87 390,-87 390,-123"/>
<text text-anchor="middle" x="325" y="-101.3" font-family="Arial" font-size="14.00" fill="#ffffff">49 AllocatedObject</text>
</g>
<!-- node47&#45;&gt;node49 -->
<g id="edge32" class="edge">
<title>node47&#45;&gt;node49</title>
<path fill="none" stroke="#3cb4a4" d="M376.33,-260.88C366.38,-230.87 345.74,-168.58 333.89,-132.81"/>
<polygon fill="#3cb4a4" stroke="#3cb4a4" points="337.12,-131.44 330.65,-123.05 330.47,-133.64 337.12,-131.44"/>
<text text-anchor="middle" x="397" y="-188.3" font-family="arial" font-size="14.00" fill="#3cb4a4">virtualObject</text>
</g>
<!-- node48&#45;&gt;node11 -->
<g id="edge31" class="edge">
<title>node48&#45;&gt;node11</title>
<path fill="none" stroke="#da2d4f" stroke-width="2" d="M233.59,-173.88C236.37,-144 242.13,-82.11 245.46,-46.27"/>
<polygon fill="#da2d4f" stroke="#da2d4f" stroke-width="2" points="248.97,-46.33 246.41,-36.05 242,-45.68 248.97,-46.33"/>
</g>
<!-- node48&#45;&gt;node49 -->
<g id="edge33" class="edge">
<title>node48&#45;&gt;node49</title>
<path fill="none" stroke="#3cb4a4" d="M250.82,-173.8C264.56,-161.24 283.37,-144.05 298.61,-130.12"/>
<polygon fill="#3cb4a4" stroke="#3cb4a4" points="301.19,-132.51 306.21,-123.18 296.47,-127.34 301.19,-132.51"/>
<text text-anchor="middle" x="307" y="-144.8" font-family="arial" font-size="14.00" fill="#3cb4a4">commit</text>
</g>
<!-- node49&#45;&gt;node11 -->
<g id="edge2" class="edge">
<title>node49&#45;&gt;node11</title>
<path fill="none" stroke="#3cb4a4" d="M309.42,-86.8C298.25,-74.47 283.04,-57.68 270.55,-43.89"/>
<polygon fill="#3cb4a4" stroke="#3cb4a4" points="272.87,-41.24 263.56,-36.18 267.68,-45.94 272.87,-41.24"/>
<text text-anchor="middle" x="308" y="-57.8" font-family="arial" font-size="14.00" fill="#3cb4a4">result</text>
</g>
<!-- inline1x12 -->
<g id="node19" class="node">
<title>inline1x12</title>
<ellipse fill="#d7ede7" stroke="black" cx="326" cy="-1137" rx="27" ry="18"/>
<text text-anchor="middle" x="326" y="-1135.1" font-family="Arial" font-size="8.00" fill="#1a1919">1 P(0)</text>
</g>
<!-- inline1x12&#45;&gt;node12 -->
<g id="edge3" class="edge">
<title>inline1x12&#45;&gt;node12</title>
<path fill="none" stroke="#3cb4a4" d="M326,-1118.86C326,-1105.61 326,-1087.35 326,-1074.11"/>
<text text-anchor="middle" x="335.5" y="-1094.6" font-family="arial" font-size="8.00" fill="#3cb4a4">value</text>
</g>
<!-- inline1x14 -->
<g id="node20" class="node">
<title>inline1x14</title>
<ellipse fill="#d7ede7" stroke="black" cx="81" cy="-969" rx="27" ry="18"/>
<text text-anchor="middle" x="81" y="-967.1" font-family="Arial" font-size="8.00" fill="#1a1919">1 P(0)</text>
</g>
<!-- inline1x14&#45;&gt;node14 -->
<g id="edge7" class="edge">
<title>inline1x14&#45;&gt;node14</title>
<path fill="none" stroke="#3cb4a4" d="M91.64,-952.41C101.71,-937.65 116.8,-915.53 127.23,-900.25"/>
<text text-anchor="middle" x="125" y="-923.6" font-family="arial" font-size="8.00" fill="#3cb4a4">object</text>
</g>
<!-- inline2x17 -->
<g id="node21" class="node">
<title>inline2x17</title>
<ellipse fill="#d7ede7" stroke="black" cx="135" cy="-795" rx="27" ry="18"/>
<text text-anchor="middle" x="135" y="-793.1" font-family="Arial" font-size="8.00" fill="#1a1919">2 P(1)</text>
</g>
<!-- inline2x17&#45;&gt;node17 -->
<g id="edge10" class="edge">
<title>inline2x17&#45;&gt;node17</title>
<path fill="none" stroke="#3cb4a4" d="M142.52,-777.61C149.29,-762.85 159.21,-741.22 166.1,-726.21"/>
<text text-anchor="middle" x="168" y="-749.6" font-family="arial" font-size="8.00" fill="#3cb4a4">object</text>
</g>
<!-- inline2x20 -->
<g id="node22" class="node">
<title>inline2x20</title>
<ellipse fill="#d7ede7" stroke="black" cx="191" cy="-621" rx="27" ry="18"/>
<text text-anchor="middle" x="191" y="-619.1" font-family="Arial" font-size="8.00" fill="#1a1919">2 P(1)</text>
</g>
<!-- inline2x20&#45;&gt;node20 -->
<g id="edge16" class="edge">
<title>inline2x20&#45;&gt;node20</title>
<path fill="none" stroke="#3cb4a4" d="M185.49,-603.25C181.1,-589.93 175,-571.38 170.6,-558"/>
<text text-anchor="middle" x="190" y="-578.6" font-family="arial" font-size="8.00" fill="#3cb4a4">object</text>
</g>
<!-- inline3x32 -->
<g id="node23" class="node">
<title>inline3x32</title>
<ellipse fill="#d7ede7" stroke="black" cx="283" cy="-540" rx="27" ry="18"/>
<text text-anchor="middle" x="283" y="-538.1" font-family="Arial" font-size="8.00" fill="#1a1919">3 P(2)</text>
</g>
<!-- inline3x32&#45;&gt;node32 -->
<g id="edge20" class="edge">
<title>inline3x32&#45;&gt;node32</title>
<path fill="none" stroke="#3cb4a4" d="M280.37,-521.8C278.11,-507.05 274.88,-485.92 272.63,-471.18"/>
<text text-anchor="middle" x="288" y="-494.6" font-family="arial" font-size="8.00" fill="#3cb4a4">object</text>
</g>
<!-- inline3x35 -->
<g id="node24" class="node">
<title>inline3x35</title>
<ellipse fill="#d7ede7" stroke="black" cx="152" cy="-453" rx="27" ry="18"/>
<text text-anchor="middle" x="152" y="-451.1" font-family="Arial" font-size="8.00" fill="#1a1919">3 P(2)</text>
</g>
<!-- inline3x35&#45;&gt;node35 -->
<g id="edge24" class="edge">
<title>inline3x35&#45;&gt;node35</title>
<path fill="none" stroke="#3cb4a4" d="M154.63,-434.8C156.89,-420.05 160.12,-398.92 162.37,-384.18"/>
<text text-anchor="middle" x="171" y="-407.6" font-family="arial" font-size="8.00" fill="#3cb4a4">object</text>
</g>
</g>
</svg>
