<?xml version="1.0" encoding="UTF-8" standalone="no"?>
<!DOCTYPE svg PUBLIC "-//W3C//DTD SVG 1.1//EN"
 "http://www.w3.org/Graphics/SVG/1.1/DTD/svg11.dtd">
<!-- Generated by graphviz version 2.44.1 (20200629.0846)
 -->
<!-- Title: G Pages: 1 -->
<svg width="793pt" height="1615pt"
 viewBox="0.00 0.00 793.00 1615.00" xmlns="http://www.w3.org/2000/svg" xmlns:xlink="http://www.w3.org/1999/xlink">
<g id="graph0" class="graph" transform="scale(1 1) rotate(0) translate(4 1611)">
<title>G</title>
<!-- node0 -->
<g id="node1" class="node">
<title>node0</title>
<polygon fill="#e98693" stroke="black" points="427,-1526 371,-1526 371,-1490 427,-1490 427,-1526"/>
<text text-anchor="middle" x="399" y="-1504.3" font-family="Arial" font-size="14.00" fill="#1a1919">0 Start</text>
</g>
<!-- node13 -->
<g id="node4" class="node">
<title>node13</title>
<polygon fill="#ffa500" stroke="black" points="561.5,-1439 308.5,-1439 308.5,-1403 561.5,-1403 561.5,-1439"/>
<text text-anchor="middle" x="435" y="-1417.3" font-family="Arial" font-size="14.00" fill="#1a1919">13 Guard not, else NullCheckException</text>
</g>
<!-- node0&#45;&gt;node13 -->
<g id="edge1" class="edge">
<title>node0&#45;&gt;node13</title>
<path fill="none" stroke="#da2d4f" stroke-width="2" d="M406.29,-1489.8C411.31,-1477.93 418.09,-1461.93 423.8,-1448.45"/>
<polygon fill="#da2d4f" stroke="#da2d4f" stroke-width="2" points="427.05,-1449.75 427.73,-1439.18 420.6,-1447.02 427.05,-1449.75"/>
</g>
<!-- node11 -->
<g id="node2" class="node">
<title>node11</title>
<polygon fill="#e98693" stroke="black" points="309.5,-36 234.5,-36 234.5,0 309.5,0 309.5,-36"/>
<text text-anchor="middle" x="272" y="-14.3" font-family="Arial" font-size="14.00" fill="#1a1919">11 Return</text>
</g>
<!-- node12 -->
<g id="node3" class="node">
<title>node12</title>
<polygon fill="#3cb4a4" stroke="black" points="508,-1526 444.66,-1508 508,-1490 571.34,-1508 508,-1526"/>
<text text-anchor="middle" x="508" y="-1504.3" font-family="Arial" font-size="14.00" fill="#1a1919">12 IsNull</text>
</g>
<!-- node12&#45;&gt;node13 -->
<g id="edge4" class="edge">
<title>node12&#45;&gt;node13</title>
<path fill="none" stroke="#3cb4a4" d="M495.95,-1492.96C485.28,-1480.55 469.48,-1462.14 456.63,-1447.19"/>
<polygon fill="#3cb4a4" stroke="#3cb4a4" points="459.02,-1444.6 449.85,-1439.29 453.71,-1449.16 459.02,-1444.6"/>
<text text-anchor="middle" x="479" y="-1460.8" font-family="arial" font-size="14.00" fill="#3cb4a4">?</text>
</g>
<!-- node14 -->
<g id="node5" class="node">
<title>node14</title>
<polygon fill="#f9f9f9" stroke="black" points="303,-1352 249,-1352 249,-1316 303,-1316 303,-1352"/>
<text text-anchor="middle" x="276" y="-1330.3" font-family="Arial" font-size="14.00" fill="#1a1919">14 π</text>
</g>
<!-- node13&#45;&gt;node14 -->
<g id="edge6" class="edge">
<title>node13&#45;&gt;node14</title>
<path fill="none" stroke="#3cb4a4" d="M402.82,-1402.8C376.49,-1388.72 339.27,-1368.82 311.96,-1354.22"/>
<polygon fill="#3cb4a4" stroke="#3cb4a4" points="313.57,-1351.12 303.1,-1349.49 310.27,-1357.29 313.57,-1351.12"/>
<text text-anchor="middle" x="383.5" y="-1373.8" font-family="arial" font-size="14.00" fill="#3cb4a4">guard</text>
</g>
<!-- node15 -->
<g id="node6" class="node">
<title>node15</title>
<polygon fill="#da2d4f" stroke="black" points="487,-1352 383,-1352 383,-1316 487,-1316 487,-1352"/>
<text text-anchor="middle" x="435" y="-1330.3" font-family="Arial" font-size="14.00" fill="#ffffff">15 New Vector</text>
</g>
<!-- node13&#45;&gt;node15 -->
<g id="edge5" class="edge">
<title>node13&#45;&gt;node15</title>
<path fill="none" stroke="#da2d4f" stroke-width="2" d="M435,-1402.8C435,-1391.16 435,-1375.55 435,-1362.24"/>
<polygon fill="#da2d4f" stroke="#da2d4f" stroke-width="2" points="438.5,-1362.18 435,-1352.18 431.5,-1362.18 438.5,-1362.18"/>
</g>
<!-- node16 -->
<g id="node7" class="node">
<title>node16</title>
<polygon fill="#da2d4f" stroke="black" points="255,-1265 109,-1265 109,-1229 255,-1229 255,-1265"/>
<text text-anchor="middle" x="182" y="-1243.3" font-family="Arial" font-size="14.00" fill="#ffffff">16 LoadField Vector.x</text>
</g>
<!-- node14&#45;&gt;node16 -->
<g id="edge9" class="edge">
<title>node14&#45;&gt;node16</title>
<path fill="none" stroke="#3cb4a4" d="M248.98,-1325.98C233.15,-1320.63 213.81,-1311.79 201,-1298 194.98,-1291.52 190.81,-1282.94 187.94,-1274.72"/>
<polygon fill="#3cb4a4" stroke="#3cb4a4" points="191.27,-1273.62 185.06,-1265.03 184.56,-1275.62 191.27,-1273.62"/>
<text text-anchor="middle" x="219.5" y="-1286.8" font-family="arial" font-size="14.00" fill="#3cb4a4">object</text>
</g>
<!-- node19 -->
<g id="node10" class="node">
<title>node19</title>
<polygon fill="#da2d4f" stroke="black" points="349,-1091 203,-1091 203,-1055 349,-1055 349,-1091"/>
<text text-anchor="middle" x="276" y="-1069.3" font-family="Arial" font-size="14.00" fill="#ffffff">19 LoadField Vector.y</text>
</g>
<!-- node14&#45;&gt;node19 -->
<g id="edge15" class="edge">
<title>node14&#45;&gt;node19</title>
<path fill="none" stroke="#3cb4a4" d="M276,-1315.6C276,-1271.46 276,-1154.83 276,-1101.42"/>
<polygon fill="#3cb4a4" stroke="#3cb4a4" points="279.5,-1101.32 276,-1091.32 272.5,-1101.32 279.5,-1101.32"/>
<text text-anchor="middle" x="294.5" y="-1199.8" font-family="arial" font-size="14.00" fill="#3cb4a4">object</text>
</g>
<!-- node15&#45;&gt;node16 -->
<g id="edge8" class="edge">
<title>node15&#45;&gt;node16</title>
<path fill="none" stroke="#da2d4f" stroke-width="2" d="M384.11,-1315.9C343.19,-1302.15 285.61,-1282.81 242.36,-1268.28"/>
<polygon fill="#da2d4f" stroke="#da2d4f" stroke-width="2" points="243.41,-1264.94 232.81,-1265.07 241.18,-1271.57 243.41,-1264.94"/>
</g>
<!-- node23 -->
<g id="node13" class="node">
<title>node23</title>
<polygon fill="#da2d4f" stroke="black" points="297.5,-917 148.5,-917 148.5,-881 297.5,-881 297.5,-917"/>
<text text-anchor="middle" x="223" y="-895.3" font-family="Arial" font-size="14.00" fill="#ffffff">23 StoreField Vector.x</text>
</g>
<!-- node15&#45;&gt;node23 -->
<g id="edge21" class="edge">
<title>node15&#45;&gt;node23</title>
<path fill="none" stroke="#3cb4a4" d="M414.06,-1315.76C397.45,-1300.03 377,-1275.15 377,-1248 377,-1248 377,-1248 377,-1028.5 377,-977.38 351.97,-964.19 310,-935 302.54,-929.81 294.2,-925.22 285.71,-921.22"/>
<polygon fill="#3cb4a4" stroke="#3cb4a4" points="287.04,-917.98 276.48,-917.1 284.19,-924.37 287.04,-917.98"/>
<text text-anchor="middle" x="395.5" y="-1112.8" font-family="arial" font-size="14.00" fill="#3cb4a4">object</text>
</g>
<!-- node25 -->
<g id="node14" class="node">
<title>node25</title>
<polygon fill="#da2d4f" stroke="black" points="433.5,-830 284.5,-830 284.5,-794 433.5,-794 433.5,-830"/>
<text text-anchor="middle" x="359" y="-808.3" font-family="Arial" font-size="14.00" fill="#ffffff">25 StoreField Vector.y</text>
</g>
<!-- node15&#45;&gt;node25 -->
<g id="edge24" class="edge">
<title>node15&#45;&gt;node25</title>
<path fill="none" stroke="#3cb4a4" d="M433.95,-1315.95C431.19,-1269.93 424,-1139.28 424,-1030.5 424,-1030.5 424,-1030.5 424,-898 424,-873.67 406.99,-851.99 390.38,-836.62"/>
<polygon fill="#3cb4a4" stroke="#3cb4a4" points="392.66,-833.97 382.83,-830.01 388.05,-839.23 392.66,-833.97"/>
<text text-anchor="middle" x="443.5" y="-1069.3" font-family="arial" font-size="14.00" fill="#3cb4a4">object</text>
</g>
<!-- node27 -->
<g id="node15" class="node">
<title>node27</title>
<polygon fill="#f9f9f9" stroke="black" points="437,-757 303,-757 303,-721 437,-721 437,-757"/>
<text text-anchor="middle" x="370" y="-735.3" font-family="Arial" font-size="14.00" fill="#1a1919">27 FinalFieldBarrier</text>
</g>
<!-- node15&#45;&gt;node27 -->
<g id="edge27" class="edge">
<title>node15&#45;&gt;node27</title>
<path fill="none" stroke="#3cb4a4" d="M454.19,-1315.78C469.71,-1299.89 489,-1274.75 489,-1248 489,-1248 489,-1248 489,-811 489,-786.15 469.63,-769.8 446.52,-759.13"/>
<polygon fill="#3cb4a4" stroke="#3cb4a4" points="447.72,-755.84 437.15,-755.17 445,-762.29 447.72,-755.84"/>
<text text-anchor="middle" x="505.5" y="-1025.8" font-family="arial" font-size="14.00" fill="#3cb4a4">value</text>
</g>
<!-- node31 -->
<g id="node17" class="node">
<title>node31</title>
<polygon fill="#da2d4f" stroke="black" points="609,-611 463,-611 463,-575 609,-575 609,-611"/>
<text text-anchor="middle" x="536" y="-589.3" font-family="Arial" font-size="14.00" fill="#ffffff">31 LoadField Vector.x</text>
</g>
<!-- node15&#45;&gt;node31 -->
<g id="edge30" class="edge">
<title>node15&#45;&gt;node31</title>
<path fill="none" stroke="#3cb4a4" d="M479.74,-1315.89C507.14,-1302.19 537,-1279.93 537,-1248 537,-1248 537,-1248 537,-665 537,-650.65 536.79,-634.67 536.57,-621.51"/>
<polygon fill="#3cb4a4" stroke="#3cb4a4" points="540.06,-621.15 536.38,-611.22 533.06,-621.28 540.06,-621.15"/>
<text text-anchor="middle" x="555.5" y="-938.8" font-family="arial" font-size="14.00" fill="#3cb4a4">object</text>
</g>
<!-- node34 -->
<g id="node20" class="node">
<title>node34</title>
<polygon fill="#da2d4f" stroke="black" points="785,-443 639,-443 639,-407 785,-407 785,-443"/>
<text text-anchor="middle" x="712" y="-421.3" font-family="Arial" font-size="14.00" fill="#ffffff">34 LoadField Vector.y</text>
</g>
<!-- node15&#45;&gt;node34 -->
<g id="edge36" class="edge">
<title>node15&#45;&gt;node34</title>
<path fill="none" stroke="#3cb4a4" d="M487.24,-1327.68C567.25,-1318.05 711,-1294.31 711,-1248 711,-1248 711,-1248 711,-511 711,-491.75 711.26,-470.05 711.51,-453.4"/>
<polygon fill="#3cb4a4" stroke="#3cb4a4" points="715.02,-453.31 711.68,-443.26 708.02,-453.2 715.02,-453.31"/>
<text text-anchor="middle" x="729.5" y="-851.8" font-family="arial" font-size="14.00" fill="#3cb4a4">object</text>
</g>
<!-- node17 -->
<g id="node8" class="node">
<title>node17</title>
<polygon fill="#da2d4f" stroke="black" points="146,-1178 0,-1178 0,-1142 146,-1142 146,-1178"/>
<text text-anchor="middle" x="73" y="-1156.3" font-family="Arial" font-size="14.00" fill="#ffffff">17 LoadField Vector.x</text>
</g>
<!-- node16&#45;&gt;node17 -->
<g id="edge10" class="edge">
<title>node16&#45;&gt;node17</title>
<path fill="none" stroke="#da2d4f" stroke-width="2" d="M159.94,-1228.8C143.54,-1216.01 120.98,-1198.42 102.95,-1184.36"/>
<polygon fill="#da2d4f" stroke="#da2d4f" stroke-width="2" points="105.06,-1181.56 95.02,-1178.18 100.76,-1187.08 105.06,-1181.56"/>
</g>
<!-- node18 -->
<g id="node9" class="node">
<title>node18</title>
<polygon fill="#3cb4a4" stroke="black" points="73,-1091 32.61,-1073 73,-1055 113.39,-1073 73,-1091"/>
<text text-anchor="middle" x="73" y="-1069.3" font-family="Arial" font-size="14.00" fill="#1a1919">18 +</text>
</g>
<!-- node16&#45;&gt;node18 -->
<g id="edge13" class="edge">
<title>node16&#45;&gt;node18</title>
<path fill="none" stroke="#3cb4a4" d="M180.79,-1228.88C178.56,-1207.15 172.31,-1169.23 155,-1142 140.85,-1119.73 117,-1101.17 98.67,-1089.09"/>
<polygon fill="#3cb4a4" stroke="#3cb4a4" points="100.49,-1086.1 90.17,-1083.7 96.74,-1092.01 100.49,-1086.1"/>
<text text-anchor="middle" x="174.5" y="-1156.3" font-family="arial" font-size="14.00" fill="#3cb4a4">x</text>
</g>
<!-- node17&#45;&gt;node18 -->
<g id="edge14" class="edge">
<title>node17&#45;&gt;node18</title>
<path fill="none" stroke="#3cb4a4" d="M73,-1141.8C73,-1130.16 73,-1114.55 73,-1101.24"/>
<polygon fill="#3cb4a4" stroke="#3cb4a4" points="76.5,-1101.18 73,-1091.18 69.5,-1101.18 76.5,-1101.18"/>
<text text-anchor="middle" x="76.5" y="-1112.8" font-family="arial" font-size="14.00" fill="#3cb4a4">y</text>
</g>
<!-- node17&#45;&gt;node19 -->
<g id="edge12" class="edge">
<title>node17&#45;&gt;node19</title>
<path fill="none" stroke="#da2d4f" stroke-width="2" d="M114.08,-1141.8C146.38,-1128.27 191.51,-1109.38 225.93,-1094.97"/>
<polygon fill="#da2d4f" stroke="#da2d4f" stroke-width="2" points="227.46,-1098.12 235.33,-1091.03 224.75,-1091.66 227.46,-1098.12"/>
</g>
<!-- node18&#45;&gt;node23 -->
<g id="edge22" class="edge">
<title>node18&#45;&gt;node23</title>
<path fill="none" stroke="#3cb4a4" d="M76.32,-1056.34C81.59,-1034.51 93.64,-994.64 116,-968 132.15,-948.76 155.16,-933.16 175.71,-921.78"/>
<polygon fill="#3cb4a4" stroke="#3cb4a4" points="177.47,-924.81 184.64,-917.01 174.17,-918.64 177.47,-924.81"/>
<text text-anchor="middle" x="132.5" y="-982.3" font-family="arial" font-size="14.00" fill="#3cb4a4">value</text>
</g>
<!-- node20 -->
<g id="node11" class="node">
<title>node20</title>
<polygon fill="#da2d4f" stroke="black" points="304,-1004 158,-1004 158,-968 304,-968 304,-1004"/>
<text text-anchor="middle" x="231" y="-982.3" font-family="Arial" font-size="14.00" fill="#ffffff">20 LoadField Vector.y</text>
</g>
<!-- node19&#45;&gt;node20 -->
<g id="edge16" class="edge">
<title>node19&#45;&gt;node20</title>
<path fill="none" stroke="#da2d4f" stroke-width="2" d="M266.89,-1054.8C260.55,-1042.82 251.97,-1026.62 244.79,-1013.06"/>
<polygon fill="#da2d4f" stroke="#da2d4f" stroke-width="2" points="247.87,-1011.38 240.09,-1004.18 241.68,-1014.65 247.87,-1011.38"/>
</g>
<!-- node21 -->
<g id="node12" class="node">
<title>node21</title>
<polygon fill="#3cb4a4" stroke="black" points="356,-917 315.61,-899 356,-881 396.39,-899 356,-917"/>
<text text-anchor="middle" x="356" y="-895.3" font-family="Arial" font-size="14.00" fill="#1a1919">21 +</text>
</g>
<!-- node19&#45;&gt;node21 -->
<g id="edge19" class="edge">
<title>node19&#45;&gt;node21</title>
<path fill="none" stroke="#3cb4a4" d="M285.94,-1054.93C293.7,-1041.34 304.55,-1021.71 313,-1004 325.8,-977.18 338.57,-945.51 346.83,-924.23"/>
<polygon fill="#3cb4a4" stroke="#3cb4a4" points="350.17,-925.27 350.5,-914.68 343.64,-922.76 350.17,-925.27"/>
<text text-anchor="middle" x="332.5" y="-982.3" font-family="arial" font-size="14.00" fill="#3cb4a4">x</text>
</g>
<!-- node20&#45;&gt;node21 -->
<g id="edge20" class="edge">
<title>node20&#45;&gt;node21</title>
<path fill="none" stroke="#3cb4a4" d="M256.3,-967.8C278.49,-952.71 310.53,-930.92 332.25,-916.15"/>
<polygon fill="#3cb4a4" stroke="#3cb4a4" points="334.29,-919 340.59,-910.48 330.35,-913.21 334.29,-919"/>
<text text-anchor="middle" x="304.5" y="-938.8" font-family="arial" font-size="14.00" fill="#3cb4a4">y</text>
</g>
<!-- node20&#45;&gt;node23 -->
<g id="edge18" class="edge">
<title>node20&#45;&gt;node23</title>
<path fill="none" stroke="#da2d4f" stroke-width="2" d="M229.38,-967.8C228.29,-956.16 226.82,-940.55 225.56,-927.24"/>
<polygon fill="#da2d4f" stroke="#da2d4f" stroke-width="2" points="229.04,-926.8 224.62,-917.18 222.07,-927.46 229.04,-926.8"/>
</g>
<!-- node21&#45;&gt;node25 -->
<g id="edge25" class="edge">
<title>node21&#45;&gt;node25</title>
<path fill="none" stroke="#3cb4a4" d="M356.59,-881.21C357.01,-869.52 357.56,-853.69 358.04,-840.22"/>
<polygon fill="#3cb4a4" stroke="#3cb4a4" points="361.54,-840.17 358.4,-830.05 354.55,-839.92 361.54,-840.17"/>
<text text-anchor="middle" x="374.5" y="-851.8" font-family="arial" font-size="14.00" fill="#3cb4a4">value</text>
</g>
<!-- node23&#45;&gt;node25 -->
<g id="edge23" class="edge">
<title>node23&#45;&gt;node25</title>
<path fill="none" stroke="#da2d4f" stroke-width="2" d="M250.52,-880.8C271.35,-867.78 300.15,-849.78 322.84,-835.6"/>
<polygon fill="#da2d4f" stroke="#da2d4f" stroke-width="2" points="324.89,-838.44 331.52,-830.18 321.18,-832.51 324.89,-838.44"/>
</g>
<!-- node25&#45;&gt;node27 -->
<g id="edge26" class="edge">
<title>node25&#45;&gt;node27</title>
<path fill="none" stroke="#da2d4f" stroke-width="2" d="M361.66,-793.81C362.91,-785.79 364.42,-776.05 365.81,-767.07"/>
<polygon fill="#da2d4f" stroke="#da2d4f" stroke-width="2" points="369.29,-767.45 367.36,-757.03 362.37,-766.38 369.29,-767.45"/>
</g>
<!-- node30 -->
<g id="node16" class="node">
<title>node30</title>
<polygon fill="#da2d4f" stroke="black" points="422,-684 318,-684 318,-648 422,-648 422,-684"/>
<text text-anchor="middle" x="370" y="-662.3" font-family="Arial" font-size="14.00" fill="#ffffff">30 New Vector</text>
</g>
<!-- node27&#45;&gt;node30 -->
<g id="edge28" class="edge">
<title>node27&#45;&gt;node30</title>
<path fill="none" stroke="#da2d4f" stroke-width="2" d="M370,-720.81C370,-712.79 370,-703.05 370,-694.07"/>
<polygon fill="#da2d4f" stroke="#da2d4f" stroke-width="2" points="373.5,-694.03 370,-684.03 366.5,-694.03 373.5,-694.03"/>
</g>
<!-- node30&#45;&gt;node11 -->
<g id="edge2" class="edge">
<title>node30&#45;&gt;node11</title>
<path fill="none" stroke="#3cb4a4" d="M317.9,-652.4C289.47,-642.08 260,-624.12 260,-594 260,-594 260,-594 260,-90 260,-75.3 262.53,-59.13 265.27,-45.94"/>
<polygon fill="#3cb4a4" stroke="#3cb4a4" points="268.71,-46.6 267.46,-36.08 261.87,-45.08 268.71,-46.6"/>
<text text-anchor="middle" x="277" y="-334.3" font-family="arial" font-size="14.00" fill="#3cb4a4">result</text>
</g>
<!-- node30&#45;&gt;node31 -->
<g id="edge29" class="edge">
<title>node30&#45;&gt;node31</title>
<path fill="none" stroke="#da2d4f" stroke-width="2" d="M409.76,-647.99C432.79,-638.14 461.99,-625.66 486.5,-615.17"/>
<polygon fill="#da2d4f" stroke="#da2d4f" stroke-width="2" points="488.17,-618.26 495.99,-611.11 485.42,-611.83 488.17,-618.26"/>
</g>
<!-- node38 -->
<g id="node23" class="node">
<title>node38</title>
<polygon fill="#da2d4f" stroke="black" points="547.5,-269 398.5,-269 398.5,-233 547.5,-233 547.5,-269"/>
<text text-anchor="middle" x="473" y="-247.3" font-family="Arial" font-size="14.00" fill="#ffffff">38 StoreField Vector.x</text>
</g>
<!-- node30&#45;&gt;node38 -->
<g id="edge42" class="edge">
<title>node30&#45;&gt;node38</title>
<path fill="none" stroke="#3cb4a4" d="M399.46,-647.81C416.66,-635.35 435,-616.73 435,-594 435,-594 435,-594 435,-337 435,-315.92 444.86,-294.26 454.54,-278.08"/>
<polygon fill="#3cb4a4" stroke="#3cb4a4" points="457.74,-279.56 460.13,-269.23 451.83,-275.81 457.74,-279.56"/>
<text text-anchor="middle" x="453.5" y="-464.8" font-family="arial" font-size="14.00" fill="#3cb4a4">object</text>
</g>
<!-- node40 -->
<g id="node24" class="node">
<title>node40</title>
<polygon fill="#da2d4f" stroke="black" points="523.5,-182 374.5,-182 374.5,-146 523.5,-146 523.5,-182"/>
<text text-anchor="middle" x="449" y="-160.3" font-family="Arial" font-size="14.00" fill="#ffffff">40 StoreField Vector.y</text>
</g>
<!-- node30&#45;&gt;node40 -->
<g id="edge45" class="edge">
<title>node30&#45;&gt;node40</title>
<path fill="none" stroke="#3cb4a4" d="M370,-647.78C370,-633.41 370,-612.37 370,-594 370,-594 370,-594 370,-250 370,-224.26 389.67,-203.05 409.38,-188.25"/>
<polygon fill="#3cb4a4" stroke="#3cb4a4" points="411.64,-190.94 417.78,-182.3 407.59,-185.23 411.64,-190.94"/>
<text text-anchor="middle" x="388.5" y="-421.3" font-family="arial" font-size="14.00" fill="#3cb4a4">object</text>
</g>
<!-- node42 -->
<g id="node25" class="node">
<title>node42</title>
<polygon fill="#f9f9f9" stroke="black" points="422,-109 288,-109 288,-73 422,-73 422,-109"/>
<text text-anchor="middle" x="355" y="-87.3" font-family="Arial" font-size="14.00" fill="#1a1919">42 FinalFieldBarrier</text>
</g>
<!-- node30&#45;&gt;node42 -->
<g id="edge48" class="edge">
<title>node30&#45;&gt;node42</title>
<path fill="none" stroke="#3cb4a4" d="M349.92,-647.87C336.77,-634.66 322,-615.13 322,-594 322,-594 322,-594 322,-163 322,-147.03 328.95,-130.77 336.47,-117.84"/>
<polygon fill="#3cb4a4" stroke="#3cb4a4" points="339.62,-119.4 341.96,-109.07 333.69,-115.69 339.62,-119.4"/>
<text text-anchor="middle" x="338.5" y="-377.8" font-family="arial" font-size="14.00" fill="#3cb4a4">value</text>
</g>
<!-- node32 -->
<g id="node18" class="node">
<title>node32</title>
<polygon fill="#da2d4f" stroke="black" points="682,-530 536,-530 536,-494 682,-494 682,-530"/>
<text text-anchor="middle" x="609" y="-508.3" font-family="Arial" font-size="14.00" fill="#ffffff">32 LoadField Vector.x</text>
</g>
<!-- node31&#45;&gt;node32 -->
<g id="edge31" class="edge">
<title>node31&#45;&gt;node32</title>
<path fill="none" stroke="#da2d4f" stroke-width="2" d="M551.84,-574.86C561.88,-563.99 575.04,-549.75 586.2,-537.67"/>
<polygon fill="#da2d4f" stroke="#da2d4f" stroke-width="2" points="588.97,-539.83 593.19,-530.11 583.83,-535.08 588.97,-539.83"/>
</g>
<!-- node33 -->
<g id="node19" class="node">
<title>node33</title>
<polygon fill="#3cb4a4" stroke="black" points="509,-443 468.61,-425 509,-407 549.39,-425 509,-443"/>
<text text-anchor="middle" x="509" y="-421.3" font-family="Arial" font-size="14.00" fill="#1a1919">33 +</text>
</g>
<!-- node31&#45;&gt;node33 -->
<g id="edge34" class="edge">
<title>node31&#45;&gt;node33</title>
<path fill="none" stroke="#3cb4a4" d="M530.83,-574.78C527.3,-562.42 522.77,-545.31 520,-530 515.29,-503.98 512.38,-473.91 510.75,-452.82"/>
<polygon fill="#3cb4a4" stroke="#3cb4a4" points="514.23,-452.4 510,-442.68 507.24,-452.91 514.23,-452.4"/>
<text text-anchor="middle" x="523.5" y="-508.3" font-family="arial" font-size="14.00" fill="#3cb4a4">x</text>
</g>
<!-- node32&#45;&gt;node33 -->
<g id="edge35" class="edge">
<title>node32&#45;&gt;node33</title>
<path fill="none" stroke="#3cb4a4" d="M588.76,-493.8C571.7,-479.29 547.35,-458.6 530.06,-443.9"/>
<polygon fill="#3cb4a4" stroke="#3cb4a4" points="532.08,-441.03 522.2,-437.22 527.55,-446.36 532.08,-441.03"/>
<text text-anchor="middle" x="567.5" y="-464.8" font-family="arial" font-size="14.00" fill="#3cb4a4">y</text>
</g>
<!-- node32&#45;&gt;node34 -->
<g id="edge33" class="edge">
<title>node32&#45;&gt;node34</title>
<path fill="none" stroke="#da2d4f" stroke-width="2" d="M629.84,-493.8C645.2,-481.13 666.28,-463.73 683.24,-449.74"/>
<polygon fill="#da2d4f" stroke="#da2d4f" stroke-width="2" points="685.7,-452.24 691.19,-443.18 681.25,-446.84 685.7,-452.24"/>
</g>
<!-- node33&#45;&gt;node38 -->
<g id="edge43" class="edge">
<title>node33&#45;&gt;node38</title>
<path fill="none" stroke="#3cb4a4" d="M504.29,-409C500.12,-395.3 494.07,-374.43 490,-356 484.29,-330.14 479.6,-300.27 476.61,-279.19"/>
<polygon fill="#3cb4a4" stroke="#3cb4a4" points="480.04,-278.47 475.2,-269.04 473.11,-279.43 480.04,-278.47"/>
<text text-anchor="middle" x="506.5" y="-334.3" font-family="arial" font-size="14.00" fill="#3cb4a4">value</text>
</g>
<!-- node35 -->
<g id="node21" class="node">
<title>node35</title>
<polygon fill="#da2d4f" stroke="black" points="678,-356 532,-356 532,-320 678,-320 678,-356"/>
<text text-anchor="middle" x="605" y="-334.3" font-family="Arial" font-size="14.00" fill="#ffffff">35 LoadField Vector.y</text>
</g>
<!-- node34&#45;&gt;node35 -->
<g id="edge37" class="edge">
<title>node34&#45;&gt;node35</title>
<path fill="none" stroke="#da2d4f" stroke-width="2" d="M690.35,-406.8C674.39,-394.13 652.5,-376.73 634.88,-362.74"/>
<polygon fill="#da2d4f" stroke="#da2d4f" stroke-width="2" points="636.63,-359.66 626.62,-356.18 632.27,-365.14 636.63,-359.66"/>
</g>
<!-- node36 -->
<g id="node22" class="node">
<title>node36</title>
<polygon fill="#3cb4a4" stroke="black" points="606,-269 565.61,-251 606,-233 646.39,-251 606,-269"/>
<text text-anchor="middle" x="606" y="-247.3" font-family="Arial" font-size="14.00" fill="#1a1919">36 +</text>
</g>
<!-- node34&#45;&gt;node36 -->
<g id="edge40" class="edge">
<title>node34&#45;&gt;node36</title>
<path fill="none" stroke="#3cb4a4" d="M711.15,-406.91C709.38,-385.21 703.91,-347.32 687,-320 673.22,-297.73 649.64,-279.16 631.47,-267.09"/>
<polygon fill="#3cb4a4" stroke="#3cb4a4" points="633.36,-264.14 623.05,-261.69 629.58,-270.03 633.36,-264.14"/>
<text text-anchor="middle" x="705.5" y="-334.3" font-family="arial" font-size="14.00" fill="#3cb4a4">x</text>
</g>
<!-- node35&#45;&gt;node36 -->
<g id="edge41" class="edge">
<title>node35&#45;&gt;node36</title>
<path fill="none" stroke="#3cb4a4" d="M605.2,-319.8C605.34,-308.16 605.52,-292.55 605.68,-279.24"/>
<polygon fill="#3cb4a4" stroke="#3cb4a4" points="609.18,-279.22 605.8,-269.18 602.18,-279.13 609.18,-279.22"/>
<text text-anchor="middle" x="608.5" y="-290.8" font-family="arial" font-size="14.00" fill="#3cb4a4">y</text>
</g>
<!-- node35&#45;&gt;node38 -->
<g id="edge39" class="edge">
<title>node35&#45;&gt;node38</title>
<path fill="none" stroke="#da2d4f" stroke-width="2" d="M578.29,-319.8C558.07,-306.78 530.12,-288.78 508.1,-274.6"/>
<polygon fill="#da2d4f" stroke="#da2d4f" stroke-width="2" points="509.98,-271.65 499.67,-269.18 506.19,-277.53 509.98,-271.65"/>
</g>
<!-- node36&#45;&gt;node40 -->
<g id="edge46" class="edge">
<title>node36&#45;&gt;node40</title>
<path fill="none" stroke="#3cb4a4" d="M588.6,-240.58C564.91,-227.75 521.79,-204.41 489.72,-187.05"/>
<polygon fill="#3cb4a4" stroke="#3cb4a4" points="491.04,-183.78 480.58,-182.1 487.71,-189.94 491.04,-183.78"/>
<text text-anchor="middle" x="552.5" y="-203.8" font-family="arial" font-size="14.00" fill="#3cb4a4">value</text>
</g>
<!-- node38&#45;&gt;node40 -->
<g id="edge44" class="edge">
<title>node38&#45;&gt;node40</title>
<path fill="none" stroke="#da2d4f" stroke-width="2" d="M468.14,-232.8C464.83,-221.05 460.36,-205.24 456.58,-191.84"/>
<polygon fill="#da2d4f" stroke="#da2d4f" stroke-width="2" points="459.94,-190.85 453.85,-182.18 453.2,-192.75 459.94,-190.85"/>
</g>
<!-- node40&#45;&gt;node42 -->
<g id="edge47" class="edge">
<title>node40&#45;&gt;node42</title>
<path fill="none" stroke="#da2d4f" stroke-width="2" d="M426.25,-145.81C414.12,-136.66 399.03,-125.26 385.87,-115.32"/>
<polygon fill="#da2d4f" stroke="#da2d4f" stroke-width="2" points="387.63,-112.26 377.55,-109.03 383.42,-117.85 387.63,-112.26"/>
</g>
<!-- node42&#45;&gt;node11 -->
<g id="edge49" class="edge">
<title>node42&#45;&gt;node11</title>
<path fill="none" stroke="#da2d4f" stroke-width="2" d="M334.91,-72.81C324.31,-63.74 311.13,-52.48 299.59,-42.6"/>
<polygon fill="#da2d4f" stroke="#da2d4f" stroke-width="2" points="301.78,-39.87 291.91,-36.03 297.23,-45.19 301.78,-39.87"/>
</g>
<!-- inline1x12 -->
<g id="node26" class="node">
<title>inline1x12</title>
<ellipse fill="#d7ede7" stroke="black" cx="508" cy="-1589" rx="27" ry="18"/>
<text text-anchor="middle" x="508" y="-1587.1" font-family="Arial" font-size="8.00" fill="#1a1919">1 P(0)</text>
</g>
<!-- inline1x12&#45;&gt;node12 -->
<g id="edge3" class="edge">
<title>inline1x12&#45;&gt;node12</title>
<path fill="none" stroke="#3cb4a4" d="M508,-1570.86C508,-1557.61 508,-1539.35 508,-1526.11"/>
<text text-anchor="middle" x="517.5" y="-1546.6" font-family="arial" font-size="8.00" fill="#3cb4a4">value</text>
</g>
<!-- inline1x14 -->
<g id="node27" class="node">
<title>inline1x14</title>
<ellipse fill="#d7ede7" stroke="black" cx="263" cy="-1421" rx="27" ry="18"/>
<text text-anchor="middle" x="263" y="-1419.1" font-family="Arial" font-size="8.00" fill="#1a1919">1 P(0)</text>
</g>
<!-- inline1x14&#45;&gt;node14 -->
<g id="edge7" class="edge">
<title>inline1x14&#45;&gt;node14</title>
<path fill="none" stroke="#3cb4a4" d="M265.63,-1402.8C267.89,-1388.05 271.12,-1366.92 273.37,-1352.18"/>
<text text-anchor="middle" x="282" y="-1375.6" font-family="arial" font-size="8.00" fill="#3cb4a4">object</text>
</g>
<!-- inline2x17 -->
<g id="node28" class="node">
<title>inline2x17</title>
<ellipse fill="#d7ede7" stroke="black" cx="64" cy="-1247" rx="27" ry="18"/>
<text text-anchor="middle" x="64" y="-1245.1" font-family="Arial" font-size="8.00" fill="#1a1919">2 P(1)</text>
</g>
<!-- inline2x17&#45;&gt;node17 -->
<g id="edge11" class="edge">
<title>inline2x17&#45;&gt;node17</title>
<path fill="none" stroke="#3cb4a4" d="M65.82,-1228.8C67.38,-1214.05 69.62,-1192.92 71.18,-1178.18"/>
<text text-anchor="middle" x="81" y="-1201.6" font-family="arial" font-size="8.00" fill="#3cb4a4">object</text>
</g>
<!-- inline2x20 -->
<g id="node29" class="node">
<title>inline2x20</title>
<ellipse fill="#d7ede7" stroke="black" cx="158" cy="-1073" rx="27" ry="18"/>
<text text-anchor="middle" x="158" y="-1071.1" font-family="Arial" font-size="8.00" fill="#1a1919">2 P(1)</text>
</g>
<!-- inline2x20&#45;&gt;node20 -->
<g id="edge17" class="edge">
<title>inline2x20&#45;&gt;node20</title>
<path fill="none" stroke="#3cb4a4" d="M171.05,-1056.8C183.76,-1042 203.06,-1019.53 216.31,-1004.11"/>
<text text-anchor="middle" x="210" y="-1027.6" font-family="arial" font-size="8.00" fill="#3cb4a4">object</text>
</g>
<!-- inline3x32 -->
<g id="node30" class="node">
<title>inline3x32</title>
<ellipse fill="#d7ede7" stroke="black" cx="654" cy="-593" rx="27" ry="18"/>
<text text-anchor="middle" x="654" y="-591.1" font-family="Arial" font-size="8.00" fill="#1a1919">3 P(2)</text>
</g>
<!-- inline3x32&#45;&gt;node32 -->
<g id="edge32" class="edge">
<title>inline3x32&#45;&gt;node32</title>
<path fill="none" stroke="#3cb4a4" d="M644.89,-576.01C637.29,-562.67 626.48,-543.69 618.72,-530.06"/>
<text text-anchor="middle" x="643" y="-550.6" font-family="arial" font-size="8.00" fill="#3cb4a4">object</text>
</g>
<!-- inline3x35 -->
<g id="node31" class="node">
<title>inline3x35</title>
<ellipse fill="#d7ede7" stroke="black" cx="594" cy="-425" rx="27" ry="18"/>
<text text-anchor="middle" x="594" y="-423.1" font-family="Arial" font-size="8.00" fill="#1a1919">3 P(2)</text>
</g>
<!-- inline3x35&#45;&gt;node35 -->
<g id="edge38" class="edge">
<title>inline3x35&#45;&gt;node35</title>
<path fill="none" stroke="#3cb4a4" d="M596.23,-406.8C598.13,-392.05 600.87,-370.92 602.78,-356.18"/>
<text text-anchor="middle" x="611" y="-379.6" font-family="arial" font-size="8.00" fill="#3cb4a4">object</text>
</g>
</g>
</svg>
