<?xml version="1.0" encoding="UTF-8" standalone="no"?>
<!DOCTYPE svg PUBLIC "-//W3C//DTD SVG 1.1//EN"
 "http://www.w3.org/Graphics/SVG/1.1/DTD/svg11.dtd">
<!-- Generated by graphviz version 2.44.1 (20200629.0846)
 -->
<!-- Title: G Pages: 1 -->
<svg width="722pt" height="2254pt"
 viewBox="0.00 0.00 721.50 2254.00" xmlns="http://www.w3.org/2000/svg" xmlns:xlink="http://www.w3.org/1999/xlink">
<g id="graph0" class="graph" transform="scale(1 1) rotate(0) translate(4 2250)">
<title>G</title>
<!-- node0 -->
<g id="node1" class="node">
<title>node0</title>
<polygon fill="#e98693" stroke="black" points="429,-2246 373,-2246 373,-2210 429,-2210 429,-2246"/>
<text text-anchor="middle" x="401" y="-2224.3" font-family="Arial" font-size="14.00" fill="#1a1919">0 Start</text>
</g>
<!-- node4 -->
<g id="node2" class="node">
<title>node4</title>
<polygon fill="#da2d4f" stroke="black" points="488.5,-2165 387.5,-2165 387.5,-2129 488.5,-2129 488.5,-2165"/>
<text text-anchor="middle" x="438" y="-2143.3" font-family="Arial" font-size="14.00" fill="#ffffff">4 ArrayLength</text>
</g>
<!-- node0&#45;&gt;node4 -->
<g id="edge1" class="edge">
<title>node0&#45;&gt;node4</title>
<path fill="none" stroke="#da2d4f" stroke-width="2" d="M409.03,-2209.86C413.88,-2199.51 420.16,-2186.1 425.63,-2174.41"/>
<polygon fill="#da2d4f" stroke="#da2d4f" stroke-width="2" points="428.92,-2175.65 429.99,-2165.11 422.58,-2172.68 428.92,-2175.65"/>
</g>
<!-- node12 -->
<g id="node5" class="node">
<title>node12</title>
<polygon fill="#3cb4a4" stroke="black" points="440,-987 399.61,-969 440,-951 480.39,-969 440,-987"/>
<text text-anchor="middle" x="440" y="-965.3" font-family="Arial" font-size="14.00" fill="#1a1919">12 &lt;</text>
</g>
<!-- node4&#45;&gt;node12 -->
<g id="edge7" class="edge">
<title>node4&#45;&gt;node12</title>
<path fill="none" stroke="#3cb4a4" d="M488.66,-2135.38C526.61,-2124.11 572,-2102.05 572,-2061 572,-2061 572,-2061 572,-1095.5 572,-1039.38 508.57,-1000.76 469.65,-982.34"/>
<polygon fill="#3cb4a4" stroke="#3cb4a4" points="470.89,-979.06 460.34,-978.1 467.98,-985.43 470.89,-979.06"/>
<text text-anchor="middle" x="628.5" y="-1540.3" font-family="arial" font-size="14.00" fill="#3cb4a4">y [0 &#45; 2147483647]</text>
</g>
<!-- node49 -->
<g id="node18" class="node">
<title>node49</title>
<polygon fill="#e98693" stroke="black" points="364,-1991 310,-1991 310,-1955 364,-1955 364,-1991"/>
<text text-anchor="middle" x="337" y="-1969.3" font-family="Arial" font-size="14.00" fill="#1a1919">49 If</text>
</g>
<!-- node4&#45;&gt;node49 -->
<g id="edge3" class="edge">
<title>node4&#45;&gt;node49</title>
<path fill="none" stroke="#da2d4f" stroke-width="2" d="M434.73,-2128.81C432.48,-2118.91 428.98,-2106.41 424,-2096 406.63,-2059.68 378.46,-2022.69 358.91,-1999.11"/>
<polygon fill="#da2d4f" stroke="#da2d4f" stroke-width="2" points="361.5,-1996.75 352.38,-1991.35 356.14,-2001.26 361.5,-1996.75"/>
<text text-anchor="middle" x="468" y="-2056.3" font-family="arial" font-size="14.00" fill="#da2d4f"> [0 &#45; 2147483647]</text>
</g>
<!-- node78 -->
<g id="node30" class="node">
<title>node78</title>
<polygon fill="#3cb4a4" stroke="black" points="310,-2078 262.41,-2060 310,-2042 357.59,-2060 310,-2078"/>
<text text-anchor="middle" x="310" y="-2056.3" font-family="Arial" font-size="14.00" fill="#1a1919">78 ==</text>
</g>
<!-- node4&#45;&gt;node78 -->
<g id="edge56" class="edge">
<title>node4&#45;&gt;node78</title>
<path fill="none" stroke="#3cb4a4" d="M387.42,-2138.36C356.31,-2132.52 320.62,-2123.37 311,-2111 305.7,-2104.18 304.36,-2095.1 304.72,-2086.56"/>
<polygon fill="#3cb4a4" stroke="#3cb4a4" points="308.2,-2086.91 305.83,-2076.58 301.24,-2086.13 308.2,-2086.91"/>
<text text-anchor="middle" x="367.5" y="-2099.8" font-family="arial" font-size="14.00" fill="#3cb4a4">x [0 &#45; 2147483647]</text>
</g>
<!-- node7 -->
<g id="node3" class="node">
<title>node7</title>
<polygon fill="#e98693" stroke="black" points="243,-1228 189,-1228 189,-1192 243,-1192 243,-1228"/>
<text text-anchor="middle" x="216" y="-1206.3" font-family="Arial" font-size="14.00" fill="#1a1919">7 End</text>
</g>
<!-- node8 -->
<g id="node4" class="node">
<title>node8</title>
<polygon fill="#e98693" stroke="black" points="262,-1155 170,-1155 170,-1119 262,-1119 262,-1155"/>
<text text-anchor="middle" x="216" y="-1133.3" font-family="Arial" font-size="14.00" fill="#1a1919">8 LoopBegin</text>
</g>
<!-- node7&#45;&gt;node8 -->
<g id="edge4" class="edge">
<title>node7&#45;&gt;node8</title>
<path fill="none" stroke="#da2d4f" stroke-width="2" d="M216,-1191.81C216,-1183.79 216,-1174.05 216,-1165.07"/>
<polygon fill="#da2d4f" stroke="#da2d4f" stroke-width="2" points="219.5,-1165.03 216,-1155.03 212.5,-1165.03 219.5,-1165.03"/>
</g>
<!-- node14 -->
<g id="node6" class="node">
<title>node14</title>
<polygon fill="#e98693" stroke="black" points="514,-471 426,-471 426,-435 514,-435 514,-471"/>
<text text-anchor="middle" x="470" y="-449.3" font-family="Arial" font-size="14.00" fill="#1a1919">14 LoopExit</text>
</g>
<!-- node8&#45;&gt;node14 -->
<g id="edge8" class="edge">
<title>node8&#45;&gt;node14</title>
<path fill="none" stroke="#343d46" stroke-dasharray="5,2" d="M272.24,-1127.88C324.4,-1119.99 395.65,-1108.18 407,-1101 482.72,-1053.08 508,-1016.11 508,-926.5 508,-926.5 508,-926.5 508,-539 508,-513.78 493.89,-487.74 482.87,-471.23"/>
<polygon fill="#343d46" stroke="#343d46" points="271.45,-1124.45 262.08,-1129.4 272.49,-1131.38 271.45,-1124.45"/>
</g>
<!-- node18 -->
<g id="node8" class="node">
<title>node18</title>
<polygon fill="#e98693" stroke="black" points="443,-900 389,-900 389,-864 443,-864 443,-900"/>
<text text-anchor="middle" x="416" y="-878.3" font-family="Arial" font-size="14.00" fill="#1a1919">18 If</text>
</g>
<!-- node8&#45;&gt;node18 -->
<g id="edge5" class="edge">
<title>node8&#45;&gt;node18</title>
<path fill="none" stroke="#da2d4f" stroke-width="2" d="M219.04,-1118.91C226.08,-1083.64 246.53,-1001.87 292,-951 315.61,-924.59 351.99,-906.35 379.25,-895.46"/>
<polygon fill="#da2d4f" stroke="#da2d4f" stroke-width="2" points="380.76,-898.63 388.84,-891.78 378.25,-892.09 380.76,-898.63"/>
</g>
<!-- node25 -->
<g id="node11" class="node">
<title>node25</title>
<polygon fill="#e98693" stroke="black" points="185.5,-471 96.5,-471 96.5,-435 185.5,-435 185.5,-471"/>
<text text-anchor="middle" x="141" y="-449.3" font-family="Arial" font-size="14.00" fill="#1a1919">25 LoopEnd</text>
</g>
<!-- node8&#45;&gt;node25 -->
<g id="edge19" class="edge">
<title>node8&#45;&gt;node25</title>
<path fill="none" stroke="#da2d4f" stroke-width="4" d="M160.73,-1118.95C133.32,-1106.72 106,-1087 106,-1057 106,-1057 106,-1057 106,-539 106,-513.94 119.16,-487.65 129.35,-471.06"/>
<polygon fill="#da2d4f" stroke="#da2d4f" stroke-width="4" points="159.41,-1122.19 169.99,-1122.82 162.11,-1115.73 159.41,-1122.19"/>
</g>
<!-- node77 -->
<g id="node29" class="node">
<title>node77</title>
<polygon fill="#f9f9f9" stroke="black" points="406,-1074 352,-1074 352,-1038 406,-1038 406,-1074"/>
<text text-anchor="middle" x="379" y="-1052.3" font-family="Arial" font-size="14.00" fill="#1a1919">77 ϕ</text>
</g>
<!-- node8&#45;&gt;node77 -->
<g id="edge53" class="edge">
<title>node8&#45;&gt;node77</title>
<path fill="none" stroke="#343d46" stroke-dasharray="5,2" d="M260.53,-1114.42C289.71,-1100.27 326.92,-1082.24 351.77,-1070.2"/>
<polygon fill="#343d46" stroke="#343d46" points="258.84,-1111.35 251.37,-1118.86 261.89,-1117.65 258.84,-1111.35"/>
</g>
<!-- node92 -->
<g id="node34" class="node">
<title>node92</title>
<polygon fill="#f9f9f9" stroke="black" points="404,-471 350,-471 350,-435 404,-435 404,-471"/>
<text text-anchor="middle" x="377" y="-449.3" font-family="Arial" font-size="14.00" fill="#1a1919">92 ϕ</text>
</g>
<!-- node8&#45;&gt;node92 -->
<g id="edge60" class="edge">
<title>node8&#45;&gt;node92</title>
<path fill="none" stroke="#343d46" stroke-dasharray="5,2" d="M206.18,-1109.01C201.54,-1093.92 197,-1074.65 197,-1057 197,-1057 197,-1057 197,-713 197,-673.56 231.63,-677.48 254,-645 299.03,-579.62 292.7,-552 341,-489 345.77,-482.77 351.64,-476.6 357.24,-471.21"/>
<polygon fill="#343d46" stroke="#343d46" points="202.92,-1110.3 209.35,-1118.72 209.57,-1108.12 202.92,-1110.3"/>
</g>
<!-- node93 -->
<g id="node35" class="node">
<title>node93</title>
<polygon fill="#f9f9f9" stroke="black" points="201,-384 147,-384 147,-348 201,-348 201,-384"/>
<text text-anchor="middle" x="174" y="-362.3" font-family="Arial" font-size="14.00" fill="#1a1919">93 ϕ</text>
</g>
<!-- node8&#45;&gt;node93 -->
<g id="edge63" class="edge">
<title>node8&#45;&gt;node93</title>
<path fill="none" stroke="#343d46" stroke-dasharray="5,2" d="M160.09,-1128.89C118.17,-1120.05 68,-1100.41 68,-1057 68,-1057 68,-1057 68,-452 68,-411.55 115.57,-387.15 146.98,-375.45"/>
<polygon fill="#343d46" stroke="#343d46" points="159.5,-1132.34 169.98,-1130.81 160.83,-1125.47 159.5,-1132.34"/>
</g>
<!-- node12&#45;&gt;node18 -->
<g id="edge11" class="edge">
<title>node12&#45;&gt;node18</title>
<path fill="none" stroke="#3cb4a4" d="M435.71,-952.8C432.35,-940.89 427.58,-924.02 423.58,-909.84"/>
<polygon fill="#3cb4a4" stroke="#3cb4a4" points="426.92,-908.78 420.83,-900.11 420.18,-910.68 426.92,-908.78"/>
<text text-anchor="middle" x="434" y="-921.8" font-family="arial" font-size="14.00" fill="#3cb4a4">?</text>
</g>
<!-- node95 -->
<g id="node36" class="node">
<title>node95</title>
<polygon fill="#f9f9f9" stroke="black" points="469,-384 341,-384 341,-348 469,-348 469,-384"/>
<text text-anchor="middle" x="405" y="-362.3" font-family="Arial" font-size="14.00" fill="#1a1919">95 ValueProxy(92)</text>
</g>
<!-- node14&#45;&gt;node95 -->
<g id="edge66" class="edge">
<title>node14&#45;&gt;node95</title>
<path fill="none" stroke="#3cb4a4" d="M450.31,-434.74C444.71,-429.35 438.83,-423.19 434,-417 428.32,-409.72 422.98,-401.22 418.46,-393.31"/>
<polygon fill="#3cb4a4" stroke="#3cb4a4" points="421.46,-391.48 413.57,-384.4 415.32,-394.85 421.46,-391.48"/>
<text text-anchor="middle" x="458.5" y="-405.8" font-family="arial" font-size="14.00" fill="#3cb4a4">loopExit</text>
</g>
<!-- node96 -->
<g id="node37" class="node">
<title>node96</title>
<polygon fill="#f9f9f9" stroke="black" points="338,-297 210,-297 210,-261 338,-261 338,-297"/>
<text text-anchor="middle" x="274" y="-275.3" font-family="Arial" font-size="14.00" fill="#1a1919">96 ValueProxy(93)</text>
</g>
<!-- node14&#45;&gt;node96 -->
<g id="edge68" class="edge">
<title>node14&#45;&gt;node96</title>
<path fill="none" stroke="#3cb4a4" d="M425.71,-438.66C373.31,-422.46 291.98,-395.83 283,-384 266.45,-362.19 266.3,-329.9 268.95,-307.1"/>
<polygon fill="#3cb4a4" stroke="#3cb4a4" points="272.44,-307.45 270.37,-297.06 265.51,-306.47 272.44,-307.45"/>
<text text-anchor="middle" x="307.5" y="-362.3" font-family="arial" font-size="14.00" fill="#3cb4a4">loopExit</text>
</g>
<!-- node98 -->
<g id="node38" class="node">
<title>node98</title>
<polygon fill="#da2d4f" stroke="black" points="529,-210 465,-210 465,-174 529,-174 529,-210"/>
<text text-anchor="middle" x="497" y="-188.3" font-family="Arial" font-size="14.00" fill="#ffffff">98 Alloc</text>
</g>
<!-- node14&#45;&gt;node98 -->
<g id="edge9" class="edge">
<title>node14&#45;&gt;node98</title>
<path fill="none" stroke="#da2d4f" stroke-width="2" d="M477.51,-434.85C479.65,-429.26 481.74,-422.96 483,-417 497.8,-347.22 498.59,-262.69 497.84,-220.19"/>
<polygon fill="#da2d4f" stroke="#da2d4f" stroke-width="2" points="501.34,-220.01 497.62,-210.09 494.34,-220.16 501.34,-220.01"/>
</g>
<!-- node17 -->
<g id="node7" class="node">
<title>node17</title>
<polygon fill="#e98693" stroke="black" points="442,-813 372,-813 372,-777 442,-777 442,-813"/>
<text text-anchor="middle" x="407" y="-791.3" font-family="Arial" font-size="14.00" fill="#1a1919">17 Begin</text>
</g>
<!-- node19 -->
<g id="node9" class="node">
<title>node19</title>
<polygon fill="#da2d4f" stroke="black" points="381.5,-732 268.5,-732 268.5,-696 381.5,-696 381.5,-732"/>
<text text-anchor="middle" x="325" y="-710.3" font-family="Arial" font-size="14.00" fill="#ffffff">19 LoadIndexed</text>
</g>
<!-- node17&#45;&gt;node19 -->
<g id="edge10" class="edge">
<title>node17&#45;&gt;node19</title>
<path fill="none" stroke="#da2d4f" stroke-width="2" d="M389.21,-776.86C377.82,-765.88 362.86,-751.48 350.25,-739.33"/>
<polygon fill="#da2d4f" stroke="#da2d4f" stroke-width="2" points="352.39,-736.53 342.76,-732.11 347.53,-741.57 352.39,-736.53"/>
</g>
<!-- node18&#45;&gt;node14 -->
<g id="edge13" class="edge">
<title>node18&#45;&gt;node14</title>
<path fill="none" stroke="#da2d4f" stroke-width="2" d="M435.19,-863.78C450.71,-847.89 470,-822.75 470,-796 470,-796 470,-796 470,-539 470,-519.75 470,-498.05 470,-481.4"/>
<polygon fill="#da2d4f" stroke="#da2d4f" stroke-width="2" points="473.5,-481.26 470,-471.26 466.5,-481.26 473.5,-481.26"/>
<text text-anchor="middle" x="474.5" y="-666.8" font-family="arial" font-size="14.00" fill="#da2d4f">F</text>
</g>
<!-- node18&#45;&gt;node17 -->
<g id="edge12" class="edge">
<title>node18&#45;&gt;node17</title>
<path fill="none" stroke="#da2d4f" stroke-width="2" d="M414.18,-863.8C412.95,-852.16 411.29,-836.55 409.88,-823.24"/>
<polygon fill="#da2d4f" stroke="#da2d4f" stroke-width="2" points="413.35,-822.75 408.82,-813.18 406.39,-823.49 413.35,-822.75"/>
<text text-anchor="middle" x="417.5" y="-834.8" font-family="arial" font-size="14.00" fill="#da2d4f">T</text>
</g>
<!-- node32 -->
<g id="node12" class="node">
<title>node32</title>
<polygon fill="#da2d4f" stroke="black" points="442,-645 296,-645 296,-609 442,-609 442,-645"/>
<text text-anchor="middle" x="369" y="-623.3" font-family="Arial" font-size="14.00" fill="#ffffff">32 LoadField Vector.x</text>
</g>
<!-- node19&#45;&gt;node32 -->
<g id="edge16" class="edge">
<title>node19&#45;&gt;node32</title>
<path fill="none" stroke="#da2d4f" stroke-width="2" d="M344.55,-695.96C349.59,-690.66 354.57,-684.5 358,-678 361.66,-671.09 364.1,-663.02 365.73,-655.4"/>
<polygon fill="#da2d4f" stroke="#da2d4f" stroke-width="2" points="369.19,-655.91 367.49,-645.46 362.3,-654.69 369.19,-655.91"/>
</g>
<!-- node19&#45;&gt;node32 -->
<g id="edge20" class="edge">
<title>node19&#45;&gt;node32</title>
<path fill="none" stroke="#3cb4a4" d="M317.19,-695.92C313.78,-685.82 311.63,-673.09 317,-663 319.19,-658.89 322.1,-655.18 325.42,-651.84"/>
<polygon fill="#3cb4a4" stroke="#3cb4a4" points="327.94,-654.3 333.26,-645.14 323.39,-648.98 327.94,-654.3"/>
<text text-anchor="middle" x="335.5" y="-666.8" font-family="arial" font-size="14.00" fill="#3cb4a4">object</text>
</g>
<!-- node35 -->
<g id="node14" class="node">
<title>node35</title>
<polygon fill="#da2d4f" stroke="black" points="280,-558 134,-558 134,-522 280,-522 280,-558"/>
<text text-anchor="middle" x="207" y="-536.3" font-family="Arial" font-size="14.00" fill="#ffffff">35 LoadField Vector.y</text>
</g>
<!-- node19&#45;&gt;node35 -->
<g id="edge24" class="edge">
<title>node19&#45;&gt;node35</title>
<path fill="none" stroke="#3cb4a4" d="M301.13,-695.89C284.96,-683.31 264.06,-664.98 250,-645 233.3,-621.27 221.51,-590.08 214.55,-568.07"/>
<polygon fill="#3cb4a4" stroke="#3cb4a4" points="217.86,-566.92 211.6,-558.37 211.16,-568.95 217.86,-566.92"/>
<text text-anchor="middle" x="268.5" y="-623.3" font-family="arial" font-size="14.00" fill="#3cb4a4">object</text>
</g>
<!-- node24 -->
<g id="node10" class="node">
<title>node24</title>
<polygon fill="#3cb4a4" stroke="black" points="341,-987 300.61,-969 341,-951 381.39,-969 341,-987"/>
<text text-anchor="middle" x="341" y="-965.3" font-family="Arial" font-size="14.00" fill="#1a1919">24 +</text>
</g>
<!-- node24&#45;&gt;node77 -->
<g id="edge55" class="edge">
<title>node24&#45;&gt;node77</title>
<path fill="none" stroke="#3cb4a4" d="M334.82,-984.26C331.28,-994.66 328.53,-1008.82 334,-1020 336.45,-1025 339.99,-1029.49 344.03,-1033.46"/>
<polygon fill="#3cb4a4" stroke="#3cb4a4" points="341.84,-1036.19 351.71,-1040.03 346.39,-1030.87 341.84,-1036.19"/>
<text text-anchor="middle" x="357.5" y="-1008.8" font-family="arial" font-size="14.00" fill="#3cb4a4">from 25</text>
</g>
<!-- node33 -->
<g id="node13" class="node">
<title>node33</title>
<polygon fill="#3cb4a4" stroke="black" points="376,-558 335.61,-540 376,-522 416.39,-540 376,-558"/>
<text text-anchor="middle" x="376" y="-536.3" font-family="Arial" font-size="14.00" fill="#1a1919">33 +</text>
</g>
<!-- node32&#45;&gt;node33 -->
<g id="edge22" class="edge">
<title>node32&#45;&gt;node33</title>
<path fill="none" stroke="#3cb4a4" d="M370.42,-608.8C371.39,-597.01 372.69,-581.14 373.8,-567.71"/>
<polygon fill="#3cb4a4" stroke="#3cb4a4" points="377.3,-567.85 374.63,-557.6 370.32,-567.28 377.3,-567.85"/>
<text text-anchor="middle" x="376.5" y="-579.8" font-family="arial" font-size="14.00" fill="#3cb4a4">x</text>
</g>
<!-- node32&#45;&gt;node35 -->
<g id="edge21" class="edge">
<title>node32&#45;&gt;node35</title>
<path fill="none" stroke="#da2d4f" stroke-width="2" d="M336.22,-608.8C310.88,-595.51 275.65,-577.02 248.38,-562.71"/>
<polygon fill="#da2d4f" stroke="#da2d4f" stroke-width="2" points="249.94,-559.58 239.46,-558.03 246.69,-565.78 249.94,-559.58"/>
</g>
<!-- node33&#45;&gt;node92 -->
<g id="edge62" class="edge">
<title>node33&#45;&gt;node92</title>
<path fill="none" stroke="#3cb4a4" d="M362.06,-527.68C351.84,-517.92 340.62,-503.2 346,-489 347.28,-485.63 349.04,-482.38 351.09,-479.31"/>
<polygon fill="#3cb4a4" stroke="#3cb4a4" points="354.04,-481.21 357.42,-471.17 348.52,-476.91 354.04,-481.21"/>
<text text-anchor="middle" x="369.5" y="-492.8" font-family="arial" font-size="14.00" fill="#3cb4a4">from 25</text>
</g>
<!-- node35&#45;&gt;node25 -->
<g id="edge25" class="edge">
<title>node35&#45;&gt;node25</title>
<path fill="none" stroke="#da2d4f" stroke-width="2" d="M193.64,-521.8C184.16,-509.59 171.28,-492.99 160.63,-479.28"/>
<polygon fill="#da2d4f" stroke="#da2d4f" stroke-width="2" points="163.23,-476.93 154.34,-471.18 157.7,-481.22 163.23,-476.93"/>
</g>
<!-- node36 -->
<g id="node15" class="node">
<title>node36</title>
<polygon fill="#3cb4a4" stroke="black" points="244,-471 203.61,-453 244,-435 284.39,-453 244,-471"/>
<text text-anchor="middle" x="244" y="-449.3" font-family="Arial" font-size="14.00" fill="#1a1919">36 +</text>
</g>
<!-- node35&#45;&gt;node36 -->
<g id="edge26" class="edge">
<title>node35&#45;&gt;node36</title>
<path fill="none" stroke="#3cb4a4" d="M214.49,-521.8C219.99,-509.15 227.54,-491.8 233.63,-477.82"/>
<polygon fill="#3cb4a4" stroke="#3cb4a4" points="236.97,-478.92 237.75,-468.35 230.55,-476.13 236.97,-478.92"/>
<text text-anchor="middle" x="231.5" y="-492.8" font-family="arial" font-size="14.00" fill="#3cb4a4">x</text>
</g>
<!-- node36&#45;&gt;node93 -->
<g id="edge65" class="edge">
<title>node36&#45;&gt;node93</title>
<path fill="none" stroke="#3cb4a4" d="M222.33,-444.53C203,-437.39 176.88,-426.34 171,-417 166.81,-410.35 165.96,-402.16 166.6,-394.35"/>
<polygon fill="#3cb4a4" stroke="#3cb4a4" points="170.06,-394.88 168.16,-384.46 163.14,-393.79 170.06,-394.88"/>
<text text-anchor="middle" x="194.5" y="-405.8" font-family="arial" font-size="14.00" fill="#3cb4a4">from 25</text>
</g>
<!-- node47 -->
<g id="node16" class="node">
<title>node47</title>
<polygon fill="#e98693" stroke="black" points="385,-1904 315,-1904 315,-1868 385,-1868 385,-1904"/>
<text text-anchor="middle" x="350" y="-1882.3" font-family="Arial" font-size="14.00" fill="#1a1919">47 Begin</text>
</g>
<!-- node81 -->
<g id="node32" class="node">
<title>node81</title>
<polygon fill="#e98693" stroke="black" points="318,-1823 242,-1823 242,-1787 318,-1787 318,-1823"/>
<text text-anchor="middle" x="280" y="-1801.3" font-family="Arial" font-size="14.00" fill="#1a1919">81 Return</text>
</g>
<!-- node47&#45;&gt;node81 -->
<g id="edge28" class="edge">
<title>node47&#45;&gt;node81</title>
<path fill="none" stroke="#da2d4f" stroke-width="2" d="M334.81,-1867.86C325.18,-1856.99 312.56,-1842.75 301.86,-1830.67"/>
<polygon fill="#da2d4f" stroke="#da2d4f" stroke-width="2" points="304.41,-1828.27 295.16,-1823.11 299.17,-1832.91 304.41,-1828.27"/>
</g>
<!-- node48 -->
<g id="node17" class="node">
<title>node48</title>
<polygon fill="#e98693" stroke="black" points="81,-1904 11,-1904 11,-1868 81,-1868 81,-1904"/>
<text text-anchor="middle" x="46" y="-1882.3" font-family="Arial" font-size="14.00" fill="#1a1919">48 Begin</text>
</g>
<!-- node50 -->
<g id="node19" class="node">
<title>node50</title>
<polygon fill="#da2d4f" stroke="black" points="197.5,-1823 84.5,-1823 84.5,-1787 197.5,-1787 197.5,-1823"/>
<text text-anchor="middle" x="141" y="-1801.3" font-family="Arial" font-size="14.00" fill="#ffffff">50 LoadIndexed</text>
</g>
<!-- node48&#45;&gt;node50 -->
<g id="edge29" class="edge">
<title>node48&#45;&gt;node50</title>
<path fill="none" stroke="#da2d4f" stroke-width="2" d="M66.61,-1867.86C80.06,-1856.68 97.79,-1841.93 112.57,-1829.64"/>
<polygon fill="#da2d4f" stroke="#da2d4f" stroke-width="2" points="114.98,-1832.19 120.43,-1823.11 110.5,-1826.81 114.98,-1832.19"/>
</g>
<!-- node49&#45;&gt;node47 -->
<g id="edge31" class="edge">
<title>node49&#45;&gt;node47</title>
<path fill="none" stroke="#da2d4f" stroke-width="2" d="M339.63,-1954.8C341.41,-1943.16 343.8,-1927.55 345.83,-1914.24"/>
<polygon fill="#da2d4f" stroke="#da2d4f" stroke-width="2" points="349.32,-1914.59 347.37,-1904.18 342.4,-1913.53 349.32,-1914.59"/>
<text text-anchor="middle" x="349.5" y="-1925.8" font-family="arial" font-size="14.00" fill="#da2d4f">T</text>
</g>
<!-- node49&#45;&gt;node48 -->
<g id="edge32" class="edge">
<title>node49&#45;&gt;node48</title>
<path fill="none" stroke="#da2d4f" stroke-width="2" d="M309.69,-1965.43C265.56,-1954.62 175.76,-1931.77 91.18,-1904.24"/>
<polygon fill="#da2d4f" stroke="#da2d4f" stroke-width="2" points="92.02,-1900.83 81.43,-1901.04 89.84,-1907.49 92.02,-1900.83"/>
<text text-anchor="middle" x="202.5" y="-1925.8" font-family="arial" font-size="14.00" fill="#da2d4f">F</text>
</g>
<!-- node54 -->
<g id="node21" class="node">
<title>node54</title>
<polygon fill="#ffa500" stroke="black" points="502.5,-1736 249.5,-1736 249.5,-1700 502.5,-1700 502.5,-1736"/>
<text text-anchor="middle" x="376" y="-1714.3" font-family="Arial" font-size="14.00" fill="#1a1919">54 Guard not, else NullCheckException</text>
</g>
<!-- node50&#45;&gt;node54 -->
<g id="edge35" class="edge">
<title>node50&#45;&gt;node54</title>
<path fill="none" stroke="#da2d4f" stroke-width="2" d="M188.27,-1786.9C226.04,-1773.24 279.09,-1754.05 319.17,-1739.56"/>
<polygon fill="#da2d4f" stroke="#da2d4f" stroke-width="2" points="320.59,-1742.76 328.8,-1736.07 318.21,-1736.18 320.59,-1742.76"/>
</g>
<!-- node58 -->
<g id="node24" class="node">
<title>node58</title>
<polygon fill="#da2d4f" stroke="black" points="361,-1475 215,-1475 215,-1439 361,-1439 361,-1475"/>
<text text-anchor="middle" x="288" y="-1453.3" font-family="Arial" font-size="14.00" fill="#ffffff">58 LoadField Vector.x</text>
</g>
<!-- node50&#45;&gt;node58 -->
<g id="edge43" class="edge">
<title>node50&#45;&gt;node58</title>
<path fill="none" stroke="#3cb4a4" d="M143.58,-1786.79C145.91,-1769.65 149,-1742.57 149,-1719 149,-1719 149,-1719 149,-1586.5 149,-1571.74 217.43,-1514.43 258.27,-1481.55"/>
<polygon fill="#3cb4a4" stroke="#3cb4a4" points="260.67,-1484.11 266.28,-1475.12 256.29,-1478.65 260.67,-1484.11"/>
<text text-anchor="middle" x="167.5" y="-1627.3" font-family="arial" font-size="14.00" fill="#3cb4a4">object</text>
</g>
<!-- node61 -->
<g id="node27" class="node">
<title>node61</title>
<polygon fill="#da2d4f" stroke="black" points="155,-1315 9,-1315 9,-1279 155,-1279 155,-1315"/>
<text text-anchor="middle" x="82" y="-1293.3" font-family="Arial" font-size="14.00" fill="#ffffff">61 LoadField Vector.y</text>
</g>
<!-- node50&#45;&gt;node61 -->
<g id="edge49" class="edge">
<title>node50&#45;&gt;node61</title>
<path fill="none" stroke="#3cb4a4" d="M120.06,-1786.76C103.45,-1771.03 83,-1746.15 83,-1719 83,-1719 83,-1719 83,-1369 83,-1354.65 82.79,-1338.67 82.57,-1325.51"/>
<polygon fill="#3cb4a4" stroke="#3cb4a4" points="86.06,-1325.15 82.38,-1315.22 79.06,-1325.28 86.06,-1325.15"/>
<text text-anchor="middle" x="101.5" y="-1540.3" font-family="arial" font-size="14.00" fill="#3cb4a4">object</text>
</g>
<!-- node53 -->
<g id="node20" class="node">
<title>node53</title>
<polygon fill="#3cb4a4" stroke="black" points="410,-1823 346.66,-1805 410,-1787 473.34,-1805 410,-1823"/>
<text text-anchor="middle" x="410" y="-1801.3" font-family="Arial" font-size="14.00" fill="#1a1919">53 IsNull</text>
</g>
<!-- node53&#45;&gt;node54 -->
<g id="edge37" class="edge">
<title>node53&#45;&gt;node54</title>
<path fill="none" stroke="#3cb4a4" d="M403.76,-1788.41C399.01,-1776.53 392.36,-1759.89 386.75,-1745.88"/>
<polygon fill="#3cb4a4" stroke="#3cb4a4" points="389.86,-1744.23 382.9,-1736.25 383.36,-1746.83 389.86,-1744.23"/>
<text text-anchor="middle" x="400" y="-1757.8" font-family="arial" font-size="14.00" fill="#3cb4a4">?</text>
</g>
<!-- node55 -->
<g id="node22" class="node">
<title>node55</title>
<polygon fill="#f9f9f9" stroke="black" points="293,-1649 239,-1649 239,-1613 293,-1613 293,-1649"/>
<text text-anchor="middle" x="266" y="-1627.3" font-family="Arial" font-size="14.00" fill="#1a1919">55 π</text>
</g>
<!-- node54&#45;&gt;node55 -->
<g id="edge39" class="edge">
<title>node54&#45;&gt;node55</title>
<path fill="none" stroke="#3cb4a4" d="M301.9,-1699.83C292.95,-1695.23 284.64,-1689.39 278,-1682 272.38,-1675.74 269.27,-1667.32 267.59,-1659.17"/>
<polygon fill="#3cb4a4" stroke="#3cb4a4" points="271.04,-1658.57 266.13,-1649.18 264.11,-1659.58 271.04,-1658.57"/>
<text text-anchor="middle" x="295.5" y="-1670.8" font-family="arial" font-size="14.00" fill="#3cb4a4">guard</text>
</g>
<!-- node57 -->
<g id="node23" class="node">
<title>node57</title>
<polygon fill="#da2d4f" stroke="black" points="366,-1562 220,-1562 220,-1526 366,-1526 366,-1562"/>
<text text-anchor="middle" x="293" y="-1540.3" font-family="Arial" font-size="14.00" fill="#ffffff">57 LoadField Vector.x</text>
</g>
<!-- node54&#45;&gt;node57 -->
<g id="edge38" class="edge">
<title>node54&#45;&gt;node57</title>
<path fill="none" stroke="#da2d4f" stroke-width="2" d="M368.71,-1699.9C357.44,-1673.74 334.79,-1622.37 313,-1580 311.5,-1577.07 309.87,-1574.04 308.22,-1571.05"/>
<polygon fill="#da2d4f" stroke="#da2d4f" stroke-width="2" points="311.24,-1569.27 303.28,-1562.28 305.14,-1572.71 311.24,-1569.27"/>
</g>
<!-- node55&#45;&gt;node57 -->
<g id="edge41" class="edge">
<title>node55&#45;&gt;node57</title>
<path fill="none" stroke="#3cb4a4" d="M268.36,-1612.59C269.96,-1602.85 272.44,-1590.57 276,-1580 276.98,-1577.09 278.15,-1574.1 279.41,-1571.16"/>
<polygon fill="#3cb4a4" stroke="#3cb4a4" points="282.59,-1572.62 283.63,-1562.08 276.24,-1569.68 282.59,-1572.62"/>
<text text-anchor="middle" x="294.5" y="-1583.8" font-family="arial" font-size="14.00" fill="#3cb4a4">object</text>
</g>
<!-- node60 -->
<g id="node26" class="node">
<title>node60</title>
<polygon fill="#da2d4f" stroke="black" points="263,-1388 117,-1388 117,-1352 263,-1352 263,-1388"/>
<text text-anchor="middle" x="190" y="-1366.3" font-family="Arial" font-size="14.00" fill="#ffffff">60 LoadField Vector.y</text>
</g>
<!-- node55&#45;&gt;node60 -->
<g id="edge47" class="edge">
<title>node55&#45;&gt;node60</title>
<path fill="none" stroke="#3cb4a4" d="M247.39,-1612.85C234.86,-1600.12 219.18,-1581.62 211,-1562 188.23,-1507.35 186.94,-1436.67 188.29,-1398.46"/>
<polygon fill="#3cb4a4" stroke="#3cb4a4" points="191.8,-1398.28 188.75,-1388.14 184.81,-1397.97 191.8,-1398.28"/>
<text text-anchor="middle" x="214.5" y="-1496.8" font-family="arial" font-size="14.00" fill="#3cb4a4">object</text>
</g>
<!-- node57&#45;&gt;node58 -->
<g id="edge42" class="edge">
<title>node57&#45;&gt;node58</title>
<path fill="none" stroke="#da2d4f" stroke-width="2" d="M291.99,-1525.8C291.3,-1514.16 290.39,-1498.55 289.6,-1485.24"/>
<polygon fill="#da2d4f" stroke="#da2d4f" stroke-width="2" points="293.09,-1484.95 289.01,-1475.18 286.1,-1485.36 293.09,-1484.95"/>
</g>
<!-- node59 -->
<g id="node25" class="node">
<title>node59</title>
<polygon fill="#3cb4a4" stroke="black" points="397,-1388 356.61,-1370 397,-1352 437.39,-1370 397,-1388"/>
<text text-anchor="middle" x="397" y="-1366.3" font-family="Arial" font-size="14.00" fill="#1a1919">59 +</text>
</g>
<!-- node57&#45;&gt;node59 -->
<g id="edge45" class="edge">
<title>node57&#45;&gt;node59</title>
<path fill="none" stroke="#3cb4a4" d="M319.53,-1525.81C336.37,-1513.57 357.31,-1495.67 370,-1475 384.6,-1451.23 391.35,-1419.75 394.45,-1397.67"/>
<polygon fill="#3cb4a4" stroke="#3cb4a4" points="397.93,-1398.02 395.69,-1387.66 390.99,-1397.15 397.93,-1398.02"/>
<text text-anchor="middle" x="389.5" y="-1453.3" font-family="arial" font-size="14.00" fill="#3cb4a4">x</text>
</g>
<!-- node58&#45;&gt;node59 -->
<g id="edge46" class="edge">
<title>node58&#45;&gt;node59</title>
<path fill="none" stroke="#3cb4a4" d="M310.06,-1438.8C328.94,-1424.08 355.99,-1402.98 374.88,-1388.25"/>
<polygon fill="#3cb4a4" stroke="#3cb4a4" points="377.2,-1390.88 382.94,-1381.97 372.9,-1385.36 377.2,-1390.88"/>
<text text-anchor="middle" x="353.5" y="-1409.8" font-family="arial" font-size="14.00" fill="#3cb4a4">y</text>
</g>
<!-- node58&#45;&gt;node60 -->
<g id="edge44" class="edge">
<title>node58&#45;&gt;node60</title>
<path fill="none" stroke="#da2d4f" stroke-width="2" d="M268.17,-1438.8C253.56,-1426.13 233.5,-1408.73 217.37,-1394.74"/>
<polygon fill="#da2d4f" stroke="#da2d4f" stroke-width="2" points="219.65,-1392.08 209.8,-1388.18 215.06,-1397.37 219.65,-1392.08"/>
</g>
<!-- node59&#45;&gt;node92 -->
<g id="edge61" class="edge">
<title>node59&#45;&gt;node92</title>
<path fill="none" stroke="#3cb4a4" d="M429.12,-1366.3C469.61,-1360.94 534,-1345.01 534,-1298 534,-1298 534,-1298 534,-1095.5 534,-1039.47 546,-1026.03 546,-970 546,-970 546,-970 546,-582.5 546,-549.36 462.63,-499.38 413,-472.57"/>
<polygon fill="#3cb4a4" stroke="#3cb4a4" points="414.62,-469.47 404.15,-467.84 411.32,-475.64 414.62,-469.47"/>
<text text-anchor="middle" x="566" y="-921.8" font-family="arial" font-size="14.00" fill="#3cb4a4">from 7</text>
</g>
<!-- node60&#45;&gt;node61 -->
<g id="edge48" class="edge">
<title>node60&#45;&gt;node61</title>
<path fill="none" stroke="#da2d4f" stroke-width="2" d="M164.13,-1351.99C149.94,-1342.67 132.16,-1330.97 116.77,-1320.86"/>
<polygon fill="#da2d4f" stroke="#da2d4f" stroke-width="2" points="118.31,-1317.68 108.03,-1315.11 114.47,-1323.53 118.31,-1317.68"/>
</g>
<!-- node62 -->
<g id="node28" class="node">
<title>node62</title>
<polygon fill="#3cb4a4" stroke="black" points="82,-1228 41.61,-1210 82,-1192 122.39,-1210 82,-1228"/>
<text text-anchor="middle" x="82" y="-1206.3" font-family="Arial" font-size="14.00" fill="#1a1919">62 +</text>
</g>
<!-- node60&#45;&gt;node62 -->
<g id="edge51" class="edge">
<title>node60&#45;&gt;node62</title>
<path fill="none" stroke="#3cb4a4" d="M188.1,-1351.82C185.33,-1332.72 178.79,-1301.59 164,-1279 149.46,-1256.8 125.45,-1238.12 107.16,-1225.99"/>
<polygon fill="#3cb4a4" stroke="#3cb4a4" points="109.01,-1223.02 98.71,-1220.57 105.24,-1228.91 109.01,-1223.02"/>
<text text-anchor="middle" x="183.5" y="-1293.3" font-family="arial" font-size="14.00" fill="#3cb4a4">x</text>
</g>
<!-- node61&#45;&gt;node7 -->
<g id="edge50" class="edge">
<title>node61&#45;&gt;node7</title>
<path fill="none" stroke="#da2d4f" stroke-width="2" d="M109.12,-1278.8C129.64,-1265.78 158.02,-1247.78 180.37,-1233.6"/>
<polygon fill="#da2d4f" stroke="#da2d4f" stroke-width="2" points="182.35,-1236.49 188.92,-1228.18 178.6,-1230.58 182.35,-1236.49"/>
</g>
<!-- node61&#45;&gt;node62 -->
<g id="edge52" class="edge">
<title>node61&#45;&gt;node62</title>
<path fill="none" stroke="#3cb4a4" d="M82,-1278.8C82,-1267.16 82,-1251.55 82,-1238.24"/>
<polygon fill="#3cb4a4" stroke="#3cb4a4" points="85.5,-1238.18 82,-1228.18 78.5,-1238.18 85.5,-1238.18"/>
<text text-anchor="middle" x="85.5" y="-1249.8" font-family="arial" font-size="14.00" fill="#3cb4a4">y</text>
</g>
<!-- node62&#45;&gt;node93 -->
<g id="edge64" class="edge">
<title>node62&#45;&gt;node93</title>
<path fill="none" stroke="#3cb4a4" d="M60.88,-1201.37C36.59,-1191.06 0,-1170.2 0,-1138 0,-1138 0,-1138 0,-452 0,-391.61 85.66,-374.12 136.78,-369.06"/>
<polygon fill="#3cb4a4" stroke="#3cb4a4" points="137.16,-372.54 146.81,-368.18 136.55,-365.56 137.16,-372.54"/>
<text text-anchor="middle" x="20" y="-791.3" font-family="arial" font-size="14.00" fill="#3cb4a4">from 7</text>
</g>
<!-- node77&#45;&gt;node12 -->
<g id="edge6" class="edge">
<title>node77&#45;&gt;node12</title>
<path fill="none" stroke="#3cb4a4" d="M391.34,-1037.8C400.97,-1024.38 414.4,-1005.67 424.71,-991.31"/>
<polygon fill="#3cb4a4" stroke="#3cb4a4" points="427.68,-993.18 430.66,-983.01 421.99,-989.09 427.68,-993.18"/>
<text text-anchor="middle" x="417.5" y="-1008.8" font-family="arial" font-size="14.00" fill="#3cb4a4">x</text>
</g>
<!-- node77&#45;&gt;node19 -->
<g id="edge15" class="edge">
<title>node77&#45;&gt;node19</title>
<path fill="none" stroke="#3cb4a4" d="M351.89,-1042.2C330.79,-1032.23 305.06,-1020.06 305,-1020 294.23,-1008.49 294.98,-1002.48 292,-987 274.33,-895.35 267.84,-867.41 291,-777 294.23,-764.4 300.61,-751.61 306.98,-740.94"/>
<polygon fill="#3cb4a4" stroke="#3cb4a4" points="310.13,-742.5 312.5,-732.17 304.21,-738.77 310.13,-742.5"/>
<text text-anchor="middle" x="294.5" y="-878.3" font-family="arial" font-size="14.00" fill="#3cb4a4">index</text>
</g>
<!-- node77&#45;&gt;node24 -->
<g id="edge17" class="edge">
<title>node77&#45;&gt;node24</title>
<path fill="none" stroke="#3cb4a4" d="M385.65,-1037.56C388.36,-1027.58 389.86,-1015.08 385,-1005 381.1,-996.91 374.32,-990.12 367.23,-984.73"/>
<polygon fill="#3cb4a4" stroke="#3cb4a4" points="369.16,-981.81 358.93,-979.06 365.21,-987.59 369.16,-981.81"/>
<text text-anchor="middle" x="392.5" y="-1008.8" font-family="arial" font-size="14.00" fill="#3cb4a4">x</text>
</g>
<!-- node78&#45;&gt;node49 -->
<g id="edge30" class="edge">
<title>node78&#45;&gt;node49</title>
<path fill="none" stroke="#3cb4a4" d="M314.83,-2043.8C318.61,-2031.89 323.97,-2015.02 328.47,-2000.84"/>
<polygon fill="#3cb4a4" stroke="#3cb4a4" points="331.87,-2001.7 331.57,-1991.11 325.2,-1999.58 331.87,-2001.7"/>
<text text-anchor="middle" x="330" y="-2012.8" font-family="arial" font-size="14.00" fill="#3cb4a4">?</text>
</g>
<!-- node80 -->
<g id="node31" class="node">
<title>node80</title>
<polygon fill="#e98693" stroke="black" points="551,-36 475,-36 475,0 551,0 551,-36"/>
<text text-anchor="middle" x="513" y="-14.3" font-family="Arial" font-size="14.00" fill="#1a1919">80 Return</text>
</g>
<!-- node91 -->
<g id="node33" class="node">
<title>node91</title>
<polygon fill="#f9f9f9" stroke="black" points="713.5,-297 530.5,-297 530.5,-261 713.5,-261 713.5,-297"/>
<text text-anchor="middle" x="622" y="-275.3" font-family="Arial" font-size="14.00" fill="#1a1919">91 VirtualInstance(2) Vector</text>
</g>
<!-- node91&#45;&gt;node98 -->
<g id="edge70" class="edge">
<title>node91&#45;&gt;node98</title>
<path fill="none" stroke="#3cb4a4" d="M561.92,-260.87C550.98,-256.14 540.15,-250.26 531,-243 522.82,-236.51 515.86,-227.52 510.42,-218.95"/>
<polygon fill="#3cb4a4" stroke="#3cb4a4" points="513.4,-217.12 505.3,-210.29 507.37,-220.68 513.4,-217.12"/>
<text text-anchor="middle" x="572.5" y="-231.8" font-family="arial" font-size="14.00" fill="#3cb4a4">virtualObjects</text>
</g>
<!-- node99 -->
<g id="node39" class="node">
<title>node99</title>
<polygon fill="#343d46" stroke="black" points="655,-123 525,-123 525,-87 655,-87 655,-123"/>
<text text-anchor="middle" x="590" y="-101.3" font-family="Arial" font-size="14.00" fill="#ffffff">99 AllocatedObject</text>
</g>
<!-- node91&#45;&gt;node99 -->
<g id="edge74" class="edge">
<title>node91&#45;&gt;node99</title>
<path fill="none" stroke="#3cb4a4" d="M619.59,-260.6C615.86,-234.49 608.15,-183.68 599,-141 598.43,-138.33 597.79,-135.56 597.13,-132.8"/>
<polygon fill="#3cb4a4" stroke="#3cb4a4" points="600.5,-131.87 594.67,-123.02 593.71,-133.58 600.5,-131.87"/>
<text text-anchor="middle" x="649" y="-188.3" font-family="arial" font-size="14.00" fill="#3cb4a4">virtualObject</text>
</g>
<!-- node92&#45;&gt;node33 -->
<g id="edge23" class="edge">
<title>node92&#45;&gt;node33</title>
<path fill="none" stroke="#3cb4a4" d="M389.94,-471.26C395.5,-480.75 400.09,-492.83 397,-504 395.73,-508.58 393.69,-513.16 391.36,-517.43"/>
<polygon fill="#3cb4a4" stroke="#3cb4a4" points="388.25,-515.8 386,-526.15 394.22,-519.46 388.25,-515.8"/>
<text text-anchor="middle" x="401.5" y="-492.8" font-family="arial" font-size="14.00" fill="#3cb4a4">y</text>
</g>
<!-- node92&#45;&gt;node95 -->
<g id="edge67" class="edge">
<title>node92&#45;&gt;node95</title>
<path fill="none" stroke="#3cb4a4" d="M374.73,-434.86C374.06,-424.98 374.31,-412.48 378,-402 379.12,-398.81 380.65,-395.69 382.43,-392.7"/>
<polygon fill="#3cb4a4" stroke="#3cb4a4" points="385.49,-394.43 388.28,-384.21 379.72,-390.46 385.49,-394.43"/>
<text text-anchor="middle" x="394.5" y="-405.8" font-family="arial" font-size="14.00" fill="#3cb4a4">value</text>
</g>
<!-- node93&#45;&gt;node36 -->
<g id="edge27" class="edge">
<title>node93&#45;&gt;node36</title>
<path fill="none" stroke="#3cb4a4" d="M201.03,-382.94C208.52,-388.3 216.18,-394.77 222,-402 227.98,-409.43 232.66,-418.75 236.14,-427.32"/>
<polygon fill="#3cb4a4" stroke="#3cb4a4" points="232.92,-428.71 239.67,-436.88 239.49,-426.28 232.92,-428.71"/>
<text text-anchor="middle" x="234.5" y="-405.8" font-family="arial" font-size="14.00" fill="#3cb4a4">y</text>
</g>
<!-- node93&#45;&gt;node96 -->
<g id="edge69" class="edge">
<title>node93&#45;&gt;node96</title>
<path fill="none" stroke="#3cb4a4" d="M191.2,-347.81C201.35,-337.91 214.6,-325.41 227,-315 231.59,-311.15 236.56,-307.21 241.49,-303.44"/>
<polygon fill="#3cb4a4" stroke="#3cb4a4" points="243.79,-306.09 249.67,-297.28 239.58,-300.5 243.79,-306.09"/>
<text text-anchor="middle" x="243.5" y="-318.8" font-family="arial" font-size="14.00" fill="#3cb4a4">value</text>
</g>
<!-- node95&#45;&gt;node98 -->
<g id="edge71" class="edge">
<title>node95&#45;&gt;node98</title>
<path fill="none" stroke="#3cb4a4" d="M409.47,-347.7C415.37,-326.45 426.93,-289.68 443,-261 451.64,-245.57 463.7,-230.01 474.24,-217.67"/>
<polygon fill="#3cb4a4" stroke="#3cb4a4" points="476.94,-219.89 480.88,-210.06 471.67,-215.29 476.94,-219.89"/>
<text text-anchor="middle" x="463" y="-275.3" font-family="arial" font-size="14.00" fill="#3cb4a4">values</text>
</g>
<!-- node96&#45;&gt;node98 -->
<g id="edge72" class="edge">
<title>node96&#45;&gt;node98</title>
<path fill="none" stroke="#3cb4a4" d="M300.37,-260.81C317.63,-250.17 340.98,-236.89 363,-228 392.85,-215.95 428.14,-206.93 455,-201.07"/>
<polygon fill="#3cb4a4" stroke="#3cb4a4" points="455.8,-204.48 464.86,-198.97 454.35,-197.63 455.8,-204.48"/>
<text text-anchor="middle" x="383" y="-231.8" font-family="arial" font-size="14.00" fill="#3cb4a4">values</text>
</g>
<!-- node98&#45;&gt;node80 -->
<g id="edge73" class="edge">
<title>node98&#45;&gt;node80</title>
<path fill="none" stroke="#da2d4f" stroke-width="2" d="M498.59,-173.88C501.37,-144 507.13,-82.11 510.46,-46.27"/>
<polygon fill="#da2d4f" stroke="#da2d4f" stroke-width="2" points="513.97,-46.33 511.41,-36.05 507,-45.68 513.97,-46.33"/>
</g>
<!-- node98&#45;&gt;node99 -->
<g id="edge75" class="edge">
<title>node98&#45;&gt;node99</title>
<path fill="none" stroke="#3cb4a4" d="M515.82,-173.8C529.56,-161.24 548.37,-144.05 563.61,-130.12"/>
<polygon fill="#3cb4a4" stroke="#3cb4a4" points="566.19,-132.51 571.21,-123.18 561.47,-127.34 566.19,-132.51"/>
<text text-anchor="middle" x="572" y="-144.8" font-family="arial" font-size="14.00" fill="#3cb4a4">commit</text>
</g>
<!-- node99&#45;&gt;node80 -->
<g id="edge58" class="edge">
<title>node99&#45;&gt;node80</title>
<path fill="none" stroke="#3cb4a4" d="M574.42,-86.8C563.25,-74.47 548.04,-57.68 535.55,-43.89"/>
<polygon fill="#3cb4a4" stroke="#3cb4a4" points="537.87,-41.24 528.56,-36.18 532.68,-45.94 537.87,-41.24"/>
<text text-anchor="middle" x="573" y="-57.8" font-family="arial" font-size="14.00" fill="#3cb4a4">result</text>
</g>
<!-- inline2x4 -->
<g id="node40" class="node">
<title>inline2x4</title>
<ellipse fill="#d7ede7" stroke="black" cx="474" cy="-2228" rx="27" ry="18"/>
<text text-anchor="middle" x="474" y="-2226.1" font-family="Arial" font-size="8.00" fill="#1a1919">2 P(1)</text>
</g>
<!-- inline2x4&#45;&gt;node4 -->
<g id="edge2" class="edge">
<title>inline2x4&#45;&gt;node4</title>
<path fill="none" stroke="#3cb4a4" d="M466.54,-2210.63C460.49,-2197.34 451.97,-2178.67 445.82,-2165.17"/>
<text text-anchor="middle" x="467.5" y="-2185.6" font-family="arial" font-size="8.00" fill="#3cb4a4">array</text>
</g>
<!-- inline2x19 -->
<g id="node41" class="node">
<title>inline2x19</title>
<ellipse fill="#d7ede7" stroke="black" cx="327" cy="-795" rx="27" ry="18"/>
<text text-anchor="middle" x="327" y="-793.1" font-family="Arial" font-size="8.00" fill="#1a1919">2 P(1)</text>
</g>
<!-- inline2x19&#45;&gt;node19 -->
<g id="edge14" class="edge">
<title>inline2x19&#45;&gt;node19</title>
<path fill="none" stroke="#3cb4a4" d="M326.57,-776.86C326.23,-763.61 325.77,-745.35 325.43,-732.11"/>
<text text-anchor="middle" x="336.5" y="-752.6" font-family="arial" font-size="8.00" fill="#3cb4a4">array</text>
</g>
<!-- inline23x24 -->
<g id="node42" class="node">
<title>inline23x24</title>
<ellipse fill="#d7ede7" stroke="black" cx="307" cy="-1056" rx="27" ry="18"/>
<text text-anchor="middle" x="307" y="-1054.1" font-family="Arial" font-size="8.00" fill="#1a1919">23 C(1)</text>
</g>
<!-- inline23x24&#45;&gt;node24 -->
<g id="edge18" class="edge">
<title>inline23x24&#45;&gt;node24</title>
<path fill="none" stroke="#3cb4a4" d="M306.75,-1037.74C307.17,-1027.82 308.67,-1015.32 313,-1005 316.61,-996.39 322.99,-988.16 328.75,-981.85"/>
<text text-anchor="middle" x="315" y="-1010.6" font-family="arial" font-size="8.00" fill="#3cb4a4">y</text>
</g>
<!-- inline2x50 -->
<g id="node43" class="node">
<title>inline2x50</title>
<ellipse fill="#d7ede7" stroke="black" cx="126" cy="-1886" rx="27" ry="18"/>
<text text-anchor="middle" x="126" y="-1884.1" font-family="Arial" font-size="8.00" fill="#1a1919">2 P(1)</text>
</g>
<!-- inline2x50&#45;&gt;node50 -->
<g id="edge33" class="edge">
<title>inline2x50&#45;&gt;node50</title>
<path fill="none" stroke="#3cb4a4" d="M129.25,-1867.86C131.77,-1854.61 135.24,-1836.35 137.75,-1823.11"/>
<text text-anchor="middle" x="143.5" y="-1843.6" font-family="arial" font-size="8.00" fill="#3cb4a4">array</text>
</g>
<!-- inline5x50 -->
<g id="node44" class="node">
<title>inline5x50</title>
<ellipse fill="#d7ede7" stroke="black" cx="198" cy="-1886" rx="27" ry="18"/>
<text text-anchor="middle" x="198" y="-1884.1" font-family="Arial" font-size="8.00" fill="#1a1919">5 C(0)</text>
</g>
<!-- inline5x50&#45;&gt;node50 -->
<g id="edge34" class="edge">
<title>inline5x50&#45;&gt;node50</title>
<path fill="none" stroke="#3cb4a4" d="M186.74,-1869.39C177.14,-1856.08 163.35,-1836.97 153.43,-1823.22"/>
<text text-anchor="middle" x="181.5" y="-1843.6" font-family="arial" font-size="8.00" fill="#3cb4a4">index</text>
</g>
<!-- inline1x53 -->
<g id="node45" class="node">
<title>inline1x53</title>
<ellipse fill="#d7ede7" stroke="black" cx="430" cy="-1886" rx="27" ry="18"/>
<text text-anchor="middle" x="430" y="-1884.1" font-family="Arial" font-size="8.00" fill="#1a1919">1 P(0)</text>
</g>
<!-- inline1x53&#45;&gt;node53 -->
<g id="edge36" class="edge">
<title>inline1x53&#45;&gt;node53</title>
<path fill="none" stroke="#3cb4a4" d="M425.66,-1867.86C422.21,-1854.24 417.43,-1835.35 414.06,-1822.03"/>
<text text-anchor="middle" x="430.5" y="-1843.6" font-family="arial" font-size="8.00" fill="#3cb4a4">value</text>
</g>
<!-- inline1x55 -->
<g id="node46" class="node">
<title>inline1x55</title>
<ellipse fill="#d7ede7" stroke="black" cx="204" cy="-1718" rx="27" ry="18"/>
<text text-anchor="middle" x="204" y="-1716.1" font-family="Arial" font-size="8.00" fill="#1a1919">1 P(0)</text>
</g>
<!-- inline1x55&#45;&gt;node55 -->
<g id="edge40" class="edge">
<title>inline1x55&#45;&gt;node55</title>
<path fill="none" stroke="#3cb4a4" d="M210.12,-1700.36C214.3,-1690.19 220.44,-1677.22 228,-1667 232.69,-1660.66 238.65,-1654.54 244.45,-1649.24"/>
<text text-anchor="middle" x="239" y="-1672.6" font-family="arial" font-size="8.00" fill="#3cb4a4">object</text>
</g>
<!-- inline23x77 -->
<g id="node47" class="node">
<title>inline23x77</title>
<ellipse fill="#d7ede7" stroke="black" cx="379" cy="-1137" rx="27" ry="18"/>
<text text-anchor="middle" x="379" y="-1135.1" font-family="Arial" font-size="8.00" fill="#1a1919">23 C(1)</text>
</g>
<!-- inline23x77&#45;&gt;node77 -->
<g id="edge54" class="edge">
<title>inline23x77&#45;&gt;node77</title>
<path fill="none" stroke="#3cb4a4" d="M379,-1118.86C379,-1105.61 379,-1087.35 379,-1074.11"/>
<text text-anchor="middle" x="391" y="-1094.6" font-family="arial" font-size="8.00" fill="#3cb4a4">from 7</text>
</g>
<!-- inline5x78 -->
<g id="node48" class="node">
<title>inline5x78</title>
<ellipse fill="#d7ede7" stroke="black" cx="283" cy="-2147" rx="27" ry="18"/>
<text text-anchor="middle" x="283" y="-2145.1" font-family="Arial" font-size="8.00" fill="#1a1919">5 C(0)</text>
</g>
<!-- inline5x78&#45;&gt;node78 -->
<g id="edge57" class="edge">
<title>inline5x78&#45;&gt;node78</title>
<path fill="none" stroke="#3cb4a4" d="M283.28,-2128.94C283.87,-2119.09 285.37,-2106.59 289,-2096 291.62,-2088.36 296.07,-2080.58 300.2,-2074.31"/>
<text text-anchor="middle" x="291" y="-2101.6" font-family="arial" font-size="8.00" fill="#3cb4a4">y</text>
</g>
<!-- inline1x81 -->
<g id="node49" class="node">
<title>inline1x81</title>
<ellipse fill="#d7ede7" stroke="black" cx="270" cy="-1886" rx="27" ry="18"/>
<text text-anchor="middle" x="270" y="-1884.1" font-family="Arial" font-size="8.00" fill="#1a1919">1 P(0)</text>
</g>
<!-- inline1x81&#45;&gt;node81 -->
<g id="edge59" class="edge">
<title>inline1x81&#45;&gt;node81</title>
<path fill="none" stroke="#3cb4a4" d="M272.17,-1867.86C273.85,-1854.61 276.16,-1836.35 277.83,-1823.11"/>
<text text-anchor="middle" x="286" y="-1843.6" font-family="arial" font-size="8.00" fill="#3cb4a4">result</text>
</g>
</g>
</svg>
