<?xml version="1.0" encoding="UTF-8" standalone="no"?>
<!DOCTYPE svg PUBLIC "-//W3C//DTD SVG 1.1//EN"
 "http://www.w3.org/Graphics/SVG/1.1/DTD/svg11.dtd">
<!-- Generated by graphviz version 2.44.1 (20200629.0846)
 -->
<!-- Title: G Pages: 1 -->
<svg width="827pt" height="1385pt"
 viewBox="0.00 0.00 826.50 1385.00" xmlns="http://www.w3.org/2000/svg" xmlns:xlink="http://www.w3.org/1999/xlink">
<g id="graph0" class="graph" transform="scale(1 1) rotate(0) translate(4 1381)">
<title>G</title>
<!-- node0 -->
<g id="node1" class="node">
<title>node0</title>
<polygon fill="#e98693" stroke="black" points="550.5,-1296 494.5,-1296 494.5,-1260 550.5,-1260 550.5,-1296"/>
<text text-anchor="middle" x="522.5" y="-1274.3" font-family="Arial" font-size="14.00" fill="#1a1919">0 Start</text>
</g>
<!-- node23 -->
<g id="node11" class="node">
<title>node23</title>
<polygon fill="#ffa500" stroke="black" points="685,-1209 432,-1209 432,-1173 685,-1173 685,-1209"/>
<text text-anchor="middle" x="558.5" y="-1187.3" font-family="Arial" font-size="14.00" fill="#1a1919">23 Guard not, else NullCheckException</text>
</g>
<!-- node0&#45;&gt;node23 -->
<g id="edge1" class="edge">
<title>node0&#45;&gt;node23</title>
<path fill="none" stroke="#da2d4f" stroke-width="2" d="M529.79,-1259.8C534.81,-1247.93 541.59,-1231.93 547.3,-1218.45"/>
<polygon fill="#da2d4f" stroke="#da2d4f" stroke-width="2" points="550.55,-1219.75 551.23,-1209.18 544.1,-1217.02 550.55,-1219.75"/>
</g>
<!-- node10 -->
<g id="node2" class="node">
<title>node10</title>
<polygon fill="#3cb4a4" stroke="black" points="167.5,-753 119.91,-735 167.5,-717 215.09,-735 167.5,-753"/>
<text text-anchor="middle" x="167.5" y="-731.3" font-family="Arial" font-size="14.00" fill="#1a1919">10 ==</text>
</g>
<!-- node13 -->
<g id="node5" class="node">
<title>node13</title>
<polygon fill="#e98693" stroke="black" points="287.5,-666 233.5,-666 233.5,-630 287.5,-630 287.5,-666"/>
<text text-anchor="middle" x="260.5" y="-644.3" font-family="Arial" font-size="14.00" fill="#1a1919">13 If</text>
</g>
<!-- node10&#45;&gt;node13 -->
<g id="edge6" class="edge">
<title>node10&#45;&gt;node13</title>
<path fill="none" stroke="#3cb4a4" d="M180.82,-721.82C194.68,-709.16 216.72,-689.01 234.11,-673.12"/>
<polygon fill="#3cb4a4" stroke="#3cb4a4" points="236.71,-675.48 241.73,-666.15 231.99,-670.32 236.71,-675.48"/>
<text text-anchor="middle" x="224.5" y="-687.8" font-family="arial" font-size="14.00" fill="#3cb4a4">?</text>
</g>
<!-- node11 -->
<g id="node3" class="node">
<title>node11</title>
<polygon fill="#e98693" stroke="black" points="434,-558 365,-558 365,-522 434,-522 434,-558"/>
<text text-anchor="middle" x="399.5" y="-536.3" font-family="Arial" font-size="14.00" fill="#1a1919">11 Begin</text>
</g>
<!-- node60 -->
<g id="node27" class="node">
<title>node60</title>
<polygon fill="#da2d4f" stroke="black" points="712.5,-471 648.5,-471 648.5,-435 712.5,-435 712.5,-471"/>
<text text-anchor="middle" x="680.5" y="-449.3" font-family="Arial" font-size="14.00" fill="#ffffff">60 Alloc</text>
</g>
<!-- node11&#45;&gt;node60 -->
<g id="edge4" class="edge">
<title>node11&#45;&gt;node60</title>
<path fill="none" stroke="#da2d4f" stroke-width="2" d="M434.38,-529.75C480.48,-517.34 564.1,-494.16 634.5,-471 635.92,-470.53 637.35,-470.05 638.8,-469.56"/>
<polygon fill="#da2d4f" stroke="#da2d4f" stroke-width="2" points="640.15,-472.8 648.43,-466.19 637.84,-466.19 640.15,-472.8"/>
</g>
<!-- node12 -->
<g id="node4" class="node">
<title>node12</title>
<polygon fill="#e98693" stroke="black" points="236.5,-558 166.5,-558 166.5,-522 236.5,-522 236.5,-558"/>
<text text-anchor="middle" x="201.5" y="-536.3" font-family="Arial" font-size="14.00" fill="#1a1919">12 Begin</text>
</g>
<!-- node42 -->
<g id="node19" class="node">
<title>node42</title>
<polygon fill="#da2d4f" stroke="black" points="300.5,-471 154.5,-471 154.5,-435 300.5,-435 300.5,-471"/>
<text text-anchor="middle" x="227.5" y="-449.3" font-family="Arial" font-size="14.00" fill="#ffffff">42 LoadField Vector.x</text>
</g>
<!-- node12&#45;&gt;node42 -->
<g id="edge5" class="edge">
<title>node12&#45;&gt;node42</title>
<path fill="none" stroke="#da2d4f" stroke-width="2" d="M206.76,-521.8C210.36,-510.05 215.19,-494.24 219.29,-480.84"/>
<polygon fill="#da2d4f" stroke="#da2d4f" stroke-width="2" points="222.67,-481.76 222.25,-471.18 215.97,-479.71 222.67,-481.76"/>
</g>
<!-- node13&#45;&gt;node11 -->
<g id="edge8" class="edge">
<title>node13&#45;&gt;node11</title>
<path fill="none" stroke="#da2d4f" stroke-width="2" d="M271.59,-629.87C282.48,-614.16 300.35,-591.1 320.5,-576 330.92,-568.19 343.35,-561.65 355.24,-556.42"/>
<polygon fill="#da2d4f" stroke="#da2d4f" stroke-width="2" points="356.73,-559.6 364.61,-552.51 354.03,-553.14 356.73,-559.6"/>
<text text-anchor="middle" x="325" y="-590.3" font-family="arial" font-size="14.00" fill="#da2d4f">F</text>
</g>
<!-- node13&#45;&gt;node12 -->
<g id="edge7" class="edge">
<title>node13&#45;&gt;node12</title>
<path fill="none" stroke="#da2d4f" stroke-width="2" d="M251.02,-629.97C241.57,-612.99 226.94,-586.7 216.02,-567.09"/>
<polygon fill="#da2d4f" stroke="#da2d4f" stroke-width="2" points="219.07,-565.38 211.15,-558.34 212.96,-568.78 219.07,-565.38"/>
<text text-anchor="middle" x="245" y="-590.3" font-family="arial" font-size="14.00" fill="#da2d4f">T</text>
</g>
<!-- node14 -->
<g id="node6" class="node">
<title>node14</title>
<polygon fill="#f9f9f9" stroke="black" points="652.5,-297 510.5,-297 510.5,-261 652.5,-261 652.5,-297"/>
<text text-anchor="middle" x="581.5" y="-275.3" font-family="Arial" font-size="14.00" fill="#1a1919">14 MethodCallTarget</text>
</g>
<!-- node15 -->
<g id="node7" class="node">
<title>node15</title>
<polygon fill="#da2d4f" stroke="black" points="736,-210 575,-210 575,-174 736,-174 736,-210"/>
<text text-anchor="middle" x="655.5" y="-188.3" font-family="Arial" font-size="14.00" fill="#ffffff">15 Call Vector.blackhole</text>
</g>
<!-- node14&#45;&gt;node15 -->
<g id="edge10" class="edge">
<title>node14&#45;&gt;node15</title>
<path fill="none" stroke="#343d46" stroke-dasharray="5,2" d="M603.19,-253.08C615.2,-239.29 629.82,-222.5 640.55,-210.18"/>
<polygon fill="#343d46" stroke="#343d46" points="600.4,-250.96 596.48,-260.8 605.68,-255.55 600.4,-250.96"/>
</g>
<!-- node17 -->
<g id="node8" class="node">
<title>node17</title>
<polygon fill="#e98693" stroke="black" points="693.5,-123 617.5,-123 617.5,-87 693.5,-87 693.5,-123"/>
<text text-anchor="middle" x="655.5" y="-101.3" font-family="Arial" font-size="14.00" fill="#1a1919">17 Return</text>
</g>
<!-- node15&#45;&gt;node17 -->
<g id="edge11" class="edge">
<title>node15&#45;&gt;node17</title>
<path fill="none" stroke="#da2d4f" stroke-width="2" d="M653.74,-173.93C653.23,-168.23 652.75,-161.85 652.5,-156 652.19,-148.64 652.41,-140.69 652.84,-133.33"/>
<polygon fill="#da2d4f" stroke="#da2d4f" stroke-width="2" points="656.35,-133.35 653.6,-123.12 649.37,-132.83 656.35,-133.35"/>
</g>
<!-- node15&#45;&gt;node17 -->
<g id="edge12" class="edge">
<title>node15&#45;&gt;node17</title>
<path fill="none" stroke="#3cb4a4" d="M655.5,-173.8C655.5,-162.16 655.5,-146.55 655.5,-133.24"/>
<polygon fill="#3cb4a4" stroke="#3cb4a4" points="659,-133.18 655.5,-123.18 652,-133.18 659,-133.18"/>
<text text-anchor="middle" x="672.5" y="-144.8" font-family="arial" font-size="14.00" fill="#3cb4a4">result</text>
</g>
<!-- node21 -->
<g id="node9" class="node">
<title>node21</title>
<polygon fill="#e98693" stroke="black" points="232.5,-36 156.5,-36 156.5,0 232.5,0 232.5,-36"/>
<text text-anchor="middle" x="194.5" y="-14.3" font-family="Arial" font-size="14.00" fill="#1a1919">21 Return</text>
</g>
<!-- node22 -->
<g id="node10" class="node">
<title>node22</title>
<polygon fill="#3cb4a4" stroke="black" points="631.5,-1296 568.16,-1278 631.5,-1260 694.84,-1278 631.5,-1296"/>
<text text-anchor="middle" x="631.5" y="-1274.3" font-family="Arial" font-size="14.00" fill="#1a1919">22 IsNull</text>
</g>
<!-- node22&#45;&gt;node23 -->
<g id="edge15" class="edge">
<title>node22&#45;&gt;node23</title>
<path fill="none" stroke="#3cb4a4" d="M619.45,-1262.96C608.78,-1250.55 592.98,-1232.14 580.13,-1217.19"/>
<polygon fill="#3cb4a4" stroke="#3cb4a4" points="582.52,-1214.6 573.35,-1209.29 577.21,-1219.16 582.52,-1214.6"/>
<text text-anchor="middle" x="602.5" y="-1230.8" font-family="arial" font-size="14.00" fill="#3cb4a4">?</text>
</g>
<!-- node24 -->
<g id="node12" class="node">
<title>node24</title>
<polygon fill="#f9f9f9" stroke="black" points="471.5,-1122 417.5,-1122 417.5,-1086 471.5,-1086 471.5,-1122"/>
<text text-anchor="middle" x="444.5" y="-1100.3" font-family="Arial" font-size="14.00" fill="#1a1919">24 π</text>
</g>
<!-- node23&#45;&gt;node24 -->
<g id="edge17" class="edge">
<title>node23&#45;&gt;node24</title>
<path fill="none" stroke="#3cb4a4" d="M534.2,-1172.9C526.28,-1167.26 517.48,-1160.91 509.5,-1155 497.93,-1146.42 485.34,-1136.81 474.36,-1128.32"/>
<polygon fill="#3cb4a4" stroke="#3cb4a4" points="476.36,-1125.45 466.32,-1122.09 472.08,-1130.98 476.36,-1125.45"/>
<text text-anchor="middle" x="527" y="-1143.8" font-family="arial" font-size="14.00" fill="#3cb4a4">guard</text>
</g>
<!-- node26 -->
<g id="node13" class="node">
<title>node26</title>
<polygon fill="#da2d4f" stroke="black" points="631.5,-1035 485.5,-1035 485.5,-999 631.5,-999 631.5,-1035"/>
<text text-anchor="middle" x="558.5" y="-1013.3" font-family="Arial" font-size="14.00" fill="#ffffff">26 LoadField Vector.x</text>
</g>
<!-- node23&#45;&gt;node26 -->
<g id="edge16" class="edge">
<title>node23&#45;&gt;node26</title>
<path fill="none" stroke="#da2d4f" stroke-width="2" d="M558.5,-1172.88C558.5,-1143 558.5,-1081.11 558.5,-1045.27"/>
<polygon fill="#da2d4f" stroke="#da2d4f" stroke-width="2" points="562,-1045.05 558.5,-1035.05 555,-1045.05 562,-1045.05"/>
</g>
<!-- node24&#45;&gt;node26 -->
<g id="edge19" class="edge">
<title>node24&#45;&gt;node26</title>
<path fill="none" stroke="#3cb4a4" d="M465.22,-1085.96C477.37,-1076.12 493.12,-1063.62 507.5,-1053 512.96,-1048.97 518.82,-1044.8 524.57,-1040.8"/>
<polygon fill="#3cb4a4" stroke="#3cb4a4" points="526.59,-1043.66 532.83,-1035.1 522.61,-1037.9 526.59,-1043.66"/>
<text text-anchor="middle" x="526" y="-1056.8" font-family="arial" font-size="14.00" fill="#3cb4a4">object</text>
</g>
<!-- node29 -->
<g id="node16" class="node">
<title>node29</title>
<polygon fill="#da2d4f" stroke="black" points="488.5,-861 342.5,-861 342.5,-825 488.5,-825 488.5,-861"/>
<text text-anchor="middle" x="415.5" y="-839.3" font-family="Arial" font-size="14.00" fill="#ffffff">29 LoadField Vector.y</text>
</g>
<!-- node24&#45;&gt;node29 -->
<g id="edge25" class="edge">
<title>node24&#45;&gt;node29</title>
<path fill="none" stroke="#3cb4a4" d="M431.45,-1085.87C422.19,-1072.71 410.4,-1053.68 404.5,-1035 388,-982.79 390.44,-966.3 397.5,-912 399.3,-898.19 403.07,-883.18 406.69,-870.79"/>
<polygon fill="#3cb4a4" stroke="#3cb4a4" points="410.09,-871.67 409.66,-861.08 403.39,-869.62 410.09,-871.67"/>
<text text-anchor="middle" x="412" y="-969.8" font-family="arial" font-size="14.00" fill="#3cb4a4">object</text>
</g>
<!-- node27 -->
<g id="node14" class="node">
<title>node27</title>
<polygon fill="#da2d4f" stroke="black" points="552.5,-948 406.5,-948 406.5,-912 552.5,-912 552.5,-948"/>
<text text-anchor="middle" x="479.5" y="-926.3" font-family="Arial" font-size="14.00" fill="#ffffff">27 LoadField Vector.x</text>
</g>
<!-- node26&#45;&gt;node27 -->
<g id="edge20" class="edge">
<title>node26&#45;&gt;node27</title>
<path fill="none" stroke="#da2d4f" stroke-width="2" d="M542.51,-998.8C530.95,-986.36 515.16,-969.36 502.27,-955.5"/>
<polygon fill="#da2d4f" stroke="#da2d4f" stroke-width="2" points="504.83,-953.12 495.46,-948.18 499.71,-957.88 504.83,-953.12"/>
</g>
<!-- node28 -->
<g id="node15" class="node">
<title>node28</title>
<polygon fill="#3cb4a4" stroke="black" points="563.5,-807 523.11,-789 563.5,-771 603.89,-789 563.5,-807"/>
<text text-anchor="middle" x="563.5" y="-785.3" font-family="Arial" font-size="14.00" fill="#1a1919">28 +</text>
</g>
<!-- node26&#45;&gt;node28 -->
<g id="edge23" class="edge">
<title>node26&#45;&gt;node28</title>
<path fill="none" stroke="#3cb4a4" d="M559.4,-998.96C560.09,-985.21 561.01,-965.36 561.5,-948 562.8,-902.13 563.26,-848.74 563.41,-817.25"/>
<polygon fill="#3cb4a4" stroke="#3cb4a4" points="566.92,-817.09 563.46,-807.07 559.92,-817.06 566.92,-817.09"/>
<text text-anchor="middle" x="565" y="-926.3" font-family="arial" font-size="14.00" fill="#3cb4a4">x</text>
</g>
<!-- node27&#45;&gt;node28 -->
<g id="edge24" class="edge">
<title>node27&#45;&gt;node28</title>
<path fill="none" stroke="#3cb4a4" d="M489.8,-911.96C504.99,-886.82 533.42,-839.78 550.18,-812.04"/>
<polygon fill="#3cb4a4" stroke="#3cb4a4" points="553.2,-813.81 555.38,-803.44 547.21,-810.19 553.2,-813.81"/>
<text text-anchor="middle" x="513" y="-882.8" font-family="arial" font-size="14.00" fill="#3cb4a4">y</text>
</g>
<!-- node27&#45;&gt;node29 -->
<g id="edge22" class="edge">
<title>node27&#45;&gt;node29</title>
<path fill="none" stroke="#da2d4f" stroke-width="2" d="M466.55,-911.8C457.35,-899.59 444.86,-882.99 434.53,-869.28"/>
<polygon fill="#da2d4f" stroke="#da2d4f" stroke-width="2" points="437.24,-867.06 428.43,-861.18 431.65,-871.27 437.24,-867.06"/>
</g>
<!-- node43 -->
<g id="node20" class="node">
<title>node43</title>
<polygon fill="#3cb4a4" stroke="black" points="404.5,-384 364.11,-366 404.5,-348 444.89,-366 404.5,-384"/>
<text text-anchor="middle" x="404.5" y="-362.3" font-family="Arial" font-size="14.00" fill="#1a1919">43 +</text>
</g>
<!-- node28&#45;&gt;node43 -->
<g id="edge33" class="edge">
<title>node28&#45;&gt;node43</title>
<path fill="none" stroke="#3cb4a4" d="M543.06,-779.68C513.55,-766.16 462.5,-736.42 462.5,-692.5 462.5,-692.5 462.5,-692.5 462.5,-452 462.5,-425.29 442.71,-400.78 426.25,-385.02"/>
<polygon fill="#3cb4a4" stroke="#3cb4a4" points="428.29,-382.14 418.54,-378.01 423.59,-387.32 428.29,-382.14"/>
<text text-anchor="middle" x="466" y="-590.3" font-family="arial" font-size="14.00" fill="#3cb4a4">x</text>
</g>
<!-- node28&#45;&gt;node60 -->
<g id="edge46" class="edge">
<title>node28&#45;&gt;node60</title>
<path fill="none" stroke="#3cb4a4" d="M600.95,-787.62C662.55,-784.8 778.5,-769.28 778.5,-692.5 778.5,-692.5 778.5,-692.5 778.5,-539 778.5,-507.17 748.63,-484.58 721.87,-470.72"/>
<polygon fill="#3cb4a4" stroke="#3cb4a4" points="723.11,-467.43 712.59,-466.19 720.04,-473.72 723.11,-467.43"/>
<text text-anchor="middle" x="798.5" y="-644.3" font-family="arial" font-size="14.00" fill="#3cb4a4">values</text>
</g>
<!-- node30 -->
<g id="node17" class="node">
<title>node30</title>
<polygon fill="#da2d4f" stroke="black" points="379.5,-753 233.5,-753 233.5,-717 379.5,-717 379.5,-753"/>
<text text-anchor="middle" x="306.5" y="-731.3" font-family="Arial" font-size="14.00" fill="#ffffff">30 LoadField Vector.y</text>
</g>
<!-- node29&#45;&gt;node30 -->
<g id="edge26" class="edge">
<title>node29&#45;&gt;node30</title>
<path fill="none" stroke="#da2d4f" stroke-width="2" d="M397.99,-824.97C380.06,-807.53 352.02,-780.26 331.7,-760.51"/>
<polygon fill="#da2d4f" stroke="#da2d4f" stroke-width="2" points="333.94,-757.8 324.33,-753.34 329.06,-762.82 333.94,-757.8"/>
</g>
<!-- node31 -->
<g id="node18" class="node">
<title>node31</title>
<polygon fill="#3cb4a4" stroke="black" points="378.5,-612 338.11,-594 378.5,-576 418.89,-594 378.5,-612"/>
<text text-anchor="middle" x="378.5" y="-590.3" font-family="Arial" font-size="14.00" fill="#1a1919">31 +</text>
</g>
<!-- node29&#45;&gt;node31 -->
<g id="edge29" class="edge">
<title>node29&#45;&gt;node31</title>
<path fill="none" stroke="#3cb4a4" d="M412.9,-824.63C406.51,-781.97 390.01,-671.84 382.42,-621.19"/>
<polygon fill="#3cb4a4" stroke="#3cb4a4" points="385.85,-620.43 380.9,-611.05 378.92,-621.46 385.85,-620.43"/>
<text text-anchor="middle" x="406" y="-731.3" font-family="arial" font-size="14.00" fill="#3cb4a4">x</text>
</g>
<!-- node30&#45;&gt;node13 -->
<g id="edge28" class="edge">
<title>node30&#45;&gt;node13</title>
<path fill="none" stroke="#da2d4f" stroke-width="2" d="M297.19,-716.8C290.71,-704.82 281.94,-688.62 274.6,-675.06"/>
<polygon fill="#da2d4f" stroke="#da2d4f" stroke-width="2" points="277.63,-673.3 269.79,-666.18 271.48,-676.64 277.63,-673.3"/>
</g>
<!-- node30&#45;&gt;node31 -->
<g id="edge30" class="edge">
<title>node30&#45;&gt;node31</title>
<path fill="none" stroke="#3cb4a4" d="M315.33,-716.96C328.23,-692.05 352.25,-645.67 366.67,-617.84"/>
<polygon fill="#3cb4a4" stroke="#3cb4a4" points="369.84,-619.33 371.33,-608.84 363.63,-616.11 369.84,-619.33"/>
<text text-anchor="middle" x="336" y="-687.8" font-family="arial" font-size="14.00" fill="#3cb4a4">y</text>
</g>
<!-- node46 -->
<g id="node22" class="node">
<title>node46</title>
<polygon fill="#3cb4a4" stroke="black" points="241.5,-297 201.11,-279 241.5,-261 281.89,-279 241.5,-297"/>
<text text-anchor="middle" x="241.5" y="-275.3" font-family="Arial" font-size="14.00" fill="#1a1919">46 +</text>
</g>
<!-- node31&#45;&gt;node46 -->
<g id="edge37" class="edge">
<title>node31&#45;&gt;node46</title>
<path fill="none" stroke="#3cb4a4" d="M368.76,-580.19C356.35,-562.56 336.5,-529.38 336.5,-497.5 336.5,-497.5 336.5,-497.5 336.5,-365 336.5,-329.76 299.75,-305.48 271.96,-292.15"/>
<polygon fill="#3cb4a4" stroke="#3cb4a4" points="273.14,-288.84 262.58,-287.89 270.24,-295.21 273.14,-288.84"/>
<text text-anchor="middle" x="340" y="-449.3" font-family="arial" font-size="14.00" fill="#3cb4a4">x</text>
</g>
<!-- node31&#45;&gt;node60 -->
<g id="edge47" class="edge">
<title>node31&#45;&gt;node60</title>
<path fill="none" stroke="#3cb4a4" d="M400.65,-585.8C412.37,-582.28 427.08,-578.31 440.5,-576 467.18,-571.4 662.87,-575.53 683.5,-558 707.28,-537.8 703.14,-519.49 696.5,-489 695.91,-486.28 695.08,-483.52 694.12,-480.8"/>
<polygon fill="#3cb4a4" stroke="#3cb4a4" points="697.24,-479.19 690.18,-471.29 690.78,-481.87 697.24,-479.19"/>
<text text-anchor="middle" x="721.5" y="-536.3" font-family="arial" font-size="14.00" fill="#3cb4a4">values</text>
</g>
<!-- node42&#45;&gt;node43 -->
<g id="edge34" class="edge">
<title>node42&#45;&gt;node43</title>
<path fill="none" stroke="#3cb4a4" d="M263.32,-434.8C296.86,-418.69 346.28,-394.96 376.87,-380.27"/>
<polygon fill="#3cb4a4" stroke="#3cb4a4" points="378.6,-383.32 386.1,-375.84 375.57,-377.01 378.6,-383.32"/>
<text text-anchor="middle" x="331" y="-405.8" font-family="arial" font-size="14.00" fill="#3cb4a4">y</text>
</g>
<!-- node45 -->
<g id="node21" class="node">
<title>node45</title>
<polygon fill="#da2d4f" stroke="black" points="306.5,-384 160.5,-384 160.5,-348 306.5,-348 306.5,-384"/>
<text text-anchor="middle" x="233.5" y="-362.3" font-family="Arial" font-size="14.00" fill="#ffffff">45 LoadField Vector.y</text>
</g>
<!-- node42&#45;&gt;node45 -->
<g id="edge32" class="edge">
<title>node42&#45;&gt;node45</title>
<path fill="none" stroke="#da2d4f" stroke-width="2" d="M228.71,-434.8C229.54,-423.16 230.64,-407.55 231.58,-394.24"/>
<polygon fill="#da2d4f" stroke="#da2d4f" stroke-width="2" points="235.07,-394.4 232.29,-384.18 228.09,-393.9 235.07,-394.4"/>
</g>
<!-- node58 -->
<g id="node25" class="node">
<title>node58</title>
<polygon fill="#da2d4f" stroke="black" points="273.5,-210 209.5,-210 209.5,-174 273.5,-174 273.5,-210"/>
<text text-anchor="middle" x="241.5" y="-188.3" font-family="Arial" font-size="14.00" fill="#ffffff">58 Alloc</text>
</g>
<!-- node43&#45;&gt;node58 -->
<g id="edge40" class="edge">
<title>node43&#45;&gt;node58</title>
<path fill="none" stroke="#3cb4a4" d="M396.92,-351.06C381.92,-324.48 346.2,-265.81 303.5,-228 297.32,-222.53 290.14,-217.53 282.91,-213.13"/>
<polygon fill="#3cb4a4" stroke="#3cb4a4" points="284.2,-209.83 273.79,-207.88 280.71,-215.9 284.2,-209.83"/>
<text text-anchor="middle" x="382.5" y="-275.3" font-family="arial" font-size="14.00" fill="#3cb4a4">values</text>
</g>
<!-- node45&#45;&gt;node46 -->
<g id="edge38" class="edge">
<title>node45&#45;&gt;node46</title>
<path fill="none" stroke="#3cb4a4" d="M235.12,-347.8C236.23,-336.01 237.72,-320.14 238.99,-306.71"/>
<polygon fill="#3cb4a4" stroke="#3cb4a4" points="242.49,-306.88 239.94,-296.6 235.52,-306.22 242.49,-306.88"/>
<text text-anchor="middle" x="242" y="-318.8" font-family="arial" font-size="14.00" fill="#3cb4a4">y</text>
</g>
<!-- node45&#45;&gt;node58 -->
<g id="edge36" class="edge">
<title>node45&#45;&gt;node58</title>
<path fill="none" stroke="#da2d4f" stroke-width="2" d="M253.75,-347.98C267.01,-335.44 283.18,-317.12 290.5,-297 301.01,-268.1 300.9,-254.61 285.5,-228 283.24,-224.09 280.36,-220.45 277.16,-217.12"/>
<polygon fill="#da2d4f" stroke="#da2d4f" stroke-width="2" points="279.48,-214.5 269.75,-210.3 274.74,-219.65 279.48,-214.5"/>
</g>
<!-- node46&#45;&gt;node58 -->
<g id="edge41" class="edge">
<title>node46&#45;&gt;node58</title>
<path fill="none" stroke="#3cb4a4" d="M241.5,-260.8C241.5,-249.16 241.5,-233.55 241.5,-220.24"/>
<polygon fill="#3cb4a4" stroke="#3cb4a4" points="245,-220.18 241.5,-210.18 238,-220.18 245,-220.18"/>
<text text-anchor="middle" x="261.5" y="-231.8" font-family="arial" font-size="14.00" fill="#3cb4a4">values</text>
</g>
<!-- node56 -->
<g id="node23" class="node">
<title>node56</title>
<polygon fill="#f9f9f9" stroke="black" points="674,-558 491,-558 491,-522 674,-522 674,-558"/>
<text text-anchor="middle" x="582.5" y="-536.3" font-family="Arial" font-size="14.00" fill="#1a1919">56 VirtualInstance(1) Vector</text>
</g>
<!-- node56&#45;&gt;node60 -->
<g id="edge45" class="edge">
<title>node56&#45;&gt;node60</title>
<path fill="none" stroke="#3cb4a4" d="M590.32,-521.63C595.69,-511.18 603.62,-498.18 613.5,-489 621,-482.03 630.15,-476.06 639.25,-471.13"/>
<polygon fill="#3cb4a4" stroke="#3cb4a4" points="640.94,-474.19 648.26,-466.54 637.76,-467.95 640.94,-474.19"/>
<text text-anchor="middle" x="655" y="-492.8" font-family="arial" font-size="14.00" fill="#3cb4a4">virtualObjects</text>
</g>
<!-- node61 -->
<g id="node28" class="node">
<title>node61</title>
<polygon fill="#343d46" stroke="black" points="646.5,-384 516.5,-384 516.5,-348 646.5,-348 646.5,-384"/>
<text text-anchor="middle" x="581.5" y="-362.3" font-family="Arial" font-size="14.00" fill="#ffffff">61 AllocatedObject</text>
</g>
<!-- node56&#45;&gt;node61 -->
<g id="edge49" class="edge">
<title>node56&#45;&gt;node61</title>
<path fill="none" stroke="#3cb4a4" d="M576.34,-521.95C571.77,-508.35 565.93,-488.73 563.5,-471 561.33,-455.15 561.44,-450.87 563.5,-435 565.3,-421.19 569.07,-406.18 572.69,-393.79"/>
<polygon fill="#3cb4a4" stroke="#3cb4a4" points="576.09,-394.67 575.66,-384.08 569.39,-392.62 576.09,-394.67"/>
<text text-anchor="middle" x="601.5" y="-449.3" font-family="arial" font-size="14.00" fill="#3cb4a4">virtualObject</text>
</g>
<!-- node57 -->
<g id="node24" class="node">
<title>node57</title>
<polygon fill="#f9f9f9" stroke="black" points="183,-297 0,-297 0,-261 183,-261 183,-297"/>
<text text-anchor="middle" x="91.5" y="-275.3" font-family="Arial" font-size="14.00" fill="#1a1919">57 VirtualInstance(0) Vector</text>
</g>
<!-- node57&#45;&gt;node58 -->
<g id="edge39" class="edge">
<title>node57&#45;&gt;node58</title>
<path fill="none" stroke="#3cb4a4" d="M110.04,-260.93C122.07,-250.47 138.45,-237.34 154.5,-228 168.7,-219.74 185.22,-212.56 200.03,-206.88"/>
<polygon fill="#3cb4a4" stroke="#3cb4a4" points="201.32,-210.14 209.47,-203.37 198.88,-203.58 201.32,-210.14"/>
<text text-anchor="middle" x="196" y="-231.8" font-family="arial" font-size="14.00" fill="#3cb4a4">virtualObjects</text>
</g>
<!-- node59 -->
<g id="node26" class="node">
<title>node59</title>
<polygon fill="#343d46" stroke="black" points="213.5,-123 83.5,-123 83.5,-87 213.5,-87 213.5,-123"/>
<text text-anchor="middle" x="148.5" y="-101.3" font-family="Arial" font-size="14.00" fill="#ffffff">59 AllocatedObject</text>
</g>
<!-- node57&#45;&gt;node59 -->
<g id="edge43" class="edge">
<title>node57&#45;&gt;node59</title>
<path fill="none" stroke="#3cb4a4" d="M96.82,-260.65C103.21,-239.96 114.33,-204.35 124.5,-174 129.04,-160.46 134.29,-145.49 138.73,-133.04"/>
<polygon fill="#3cb4a4" stroke="#3cb4a4" points="142.15,-133.87 142.23,-123.28 135.56,-131.51 142.15,-133.87"/>
<text text-anchor="middle" x="162.5" y="-188.3" font-family="arial" font-size="14.00" fill="#3cb4a4">virtualObject</text>
</g>
<!-- node58&#45;&gt;node21 -->
<g id="edge42" class="edge">
<title>node58&#45;&gt;node21</title>
<path fill="none" stroke="#da2d4f" stroke-width="2" d="M239.84,-173.99C236.84,-147.53 229.19,-95.24 212.5,-54 211.33,-51.12 210.01,-48.15 208.63,-45.22"/>
<polygon fill="#da2d4f" stroke="#da2d4f" stroke-width="2" points="211.7,-43.54 204.11,-36.16 205.44,-46.67 211.7,-43.54"/>
</g>
<!-- node58&#45;&gt;node59 -->
<g id="edge44" class="edge">
<title>node58&#45;&gt;node59</title>
<path fill="none" stroke="#3cb4a4" d="M209.41,-175.88C199.79,-170.43 189.65,-163.71 181.5,-156 174.18,-149.07 167.67,-140.22 162.41,-131.9"/>
<polygon fill="#3cb4a4" stroke="#3cb4a4" points="165.34,-129.98 157.21,-123.19 159.33,-133.57 165.34,-129.98"/>
<text text-anchor="middle" x="204.5" y="-144.8" font-family="arial" font-size="14.00" fill="#3cb4a4">commit</text>
</g>
<!-- node59&#45;&gt;node21 -->
<g id="edge13" class="edge">
<title>node59&#45;&gt;node21</title>
<path fill="none" stroke="#3cb4a4" d="M157.81,-86.8C164.29,-74.82 173.06,-58.62 180.4,-45.06"/>
<polygon fill="#3cb4a4" stroke="#3cb4a4" points="183.52,-46.64 185.21,-36.18 177.37,-43.3 183.52,-46.64"/>
<text text-anchor="middle" x="191.5" y="-57.8" font-family="arial" font-size="14.00" fill="#3cb4a4">result</text>
</g>
<!-- node60&#45;&gt;node15 -->
<g id="edge48" class="edge">
<title>node60&#45;&gt;node15</title>
<path fill="none" stroke="#da2d4f" stroke-width="2" d="M678.82,-434.6C674.56,-390.46 663.3,-273.83 658.15,-220.42"/>
<polygon fill="#da2d4f" stroke="#da2d4f" stroke-width="2" points="661.62,-219.94 657.17,-210.32 654.65,-220.61 661.62,-219.94"/>
</g>
<!-- node60&#45;&gt;node61 -->
<g id="edge50" class="edge">
<title>node60&#45;&gt;node61</title>
<path fill="none" stroke="#3cb4a4" d="M648.46,-436.3C638.95,-430.87 628.85,-424.3 620.5,-417 612.29,-409.83 604.6,-400.73 598.25,-392.26"/>
<polygon fill="#3cb4a4" stroke="#3cb4a4" points="601.06,-390.17 592.38,-384.1 595.38,-394.26 601.06,-390.17"/>
<text text-anchor="middle" x="643.5" y="-405.8" font-family="arial" font-size="14.00" fill="#3cb4a4">commit</text>
</g>
<!-- node61&#45;&gt;node14 -->
<g id="edge9" class="edge">
<title>node61&#45;&gt;node14</title>
<path fill="none" stroke="#3cb4a4" d="M581.5,-347.8C581.5,-336.16 581.5,-320.55 581.5,-307.24"/>
<polygon fill="#3cb4a4" stroke="#3cb4a4" points="585,-307.18 581.5,-297.18 578,-307.18 585,-307.18"/>
<text text-anchor="middle" x="599" y="-318.8" font-family="arial" font-size="14.00" fill="#3cb4a4">arg[0]</text>
</g>
<!-- inline4x10 -->
<g id="node29" class="node">
<title>inline4x10</title>
<ellipse fill="#d7ede7" stroke="black" cx="196.5" cy="-843" rx="27" ry="18"/>
<text text-anchor="middle" x="196.5" y="-841.1" font-family="Arial" font-size="8.00" fill="#1a1919">4 P(3)</text>
</g>
<!-- inline4x10&#45;&gt;node10 -->
<g id="edge2" class="edge">
<title>inline4x10&#45;&gt;node10</title>
<path fill="none" stroke="#3cb4a4" d="M191.84,-824.97C186.3,-804.72 177.13,-771.21 171.77,-751.61"/>
<text text-anchor="middle" x="188.5" y="-787.1" font-family="arial" font-size="8.00" fill="#3cb4a4">x</text>
</g>
<!-- inline9x10 -->
<g id="node30" class="node">
<title>inline9x10</title>
<ellipse fill="#d7ede7" stroke="black" cx="124.5" cy="-843" rx="27" ry="18"/>
<text text-anchor="middle" x="124.5" y="-841.1" font-family="Arial" font-size="8.00" fill="#1a1919">9 C(0)</text>
</g>
<!-- inline9x10&#45;&gt;node10 -->
<g id="edge3" class="edge">
<title>inline9x10&#45;&gt;node10</title>
<path fill="none" stroke="#3cb4a4" d="M131.22,-825.44C139.53,-804.94 153.56,-770.35 161.52,-750.74"/>
<text text-anchor="middle" x="154.5" y="-787.1" font-family="arial" font-size="8.00" fill="#3cb4a4">y</text>
</g>
<!-- inline1x22 -->
<g id="node31" class="node">
<title>inline1x22</title>
<ellipse fill="#d7ede7" stroke="black" cx="631.5" cy="-1359" rx="27" ry="18"/>
<text text-anchor="middle" x="631.5" y="-1357.1" font-family="Arial" font-size="8.00" fill="#1a1919">1 P(0)</text>
</g>
<!-- inline1x22&#45;&gt;node22 -->
<g id="edge14" class="edge">
<title>inline1x22&#45;&gt;node22</title>
<path fill="none" stroke="#3cb4a4" d="M631.5,-1340.86C631.5,-1327.61 631.5,-1309.35 631.5,-1296.11"/>
<text text-anchor="middle" x="641" y="-1316.6" font-family="arial" font-size="8.00" fill="#3cb4a4">value</text>
</g>
<!-- inline1x24 -->
<g id="node32" class="node">
<title>inline1x24</title>
<ellipse fill="#d7ede7" stroke="black" cx="386.5" cy="-1191" rx="27" ry="18"/>
<text text-anchor="middle" x="386.5" y="-1189.1" font-family="Arial" font-size="8.00" fill="#1a1919">1 P(0)</text>
</g>
<!-- inline1x24&#45;&gt;node24 -->
<g id="edge18" class="edge">
<title>inline1x24&#45;&gt;node24</title>
<path fill="none" stroke="#3cb4a4" d="M397.14,-1174.41C407.21,-1159.65 422.3,-1137.53 432.73,-1122.25"/>
<text text-anchor="middle" x="430.5" y="-1145.6" font-family="arial" font-size="8.00" fill="#3cb4a4">object</text>
</g>
<!-- inline2x27 -->
<g id="node33" class="node">
<title>inline2x27</title>
<ellipse fill="#d7ede7" stroke="black" cx="440.5" cy="-1017" rx="27" ry="18"/>
<text text-anchor="middle" x="440.5" y="-1015.1" font-family="Arial" font-size="8.00" fill="#1a1919">2 P(1)</text>
</g>
<!-- inline2x27&#45;&gt;node27 -->
<g id="edge21" class="edge">
<title>inline2x27&#45;&gt;node27</title>
<path fill="none" stroke="#3cb4a4" d="M448.02,-999.61C454.79,-984.85 464.71,-963.22 471.6,-948.21"/>
<text text-anchor="middle" x="473.5" y="-971.6" font-family="arial" font-size="8.00" fill="#3cb4a4">object</text>
</g>
<!-- inline2x30 -->
<g id="node34" class="node">
<title>inline2x30</title>
<ellipse fill="#d7ede7" stroke="black" cx="297.5" cy="-843" rx="27" ry="18"/>
<text text-anchor="middle" x="297.5" y="-841.1" font-family="Arial" font-size="8.00" fill="#1a1919">2 P(1)</text>
</g>
<!-- inline2x30&#45;&gt;node30 -->
<g id="edge27" class="edge">
<title>inline2x30&#45;&gt;node30</title>
<path fill="none" stroke="#3cb4a4" d="M298.95,-824.97C300.62,-805.31 303.35,-773.13 305.03,-753.34"/>
<text text-anchor="middle" x="314.5" y="-787.1" font-family="arial" font-size="8.00" fill="#3cb4a4">object</text>
</g>
<!-- inline3x42 -->
<g id="node35" class="node">
<title>inline3x42</title>
<ellipse fill="#d7ede7" stroke="black" cx="281.5" cy="-540" rx="27" ry="18"/>
<text text-anchor="middle" x="281.5" y="-538.1" font-family="Arial" font-size="8.00" fill="#1a1919">3 P(2)</text>
</g>
<!-- inline3x42&#45;&gt;node42 -->
<g id="edge31" class="edge">
<title>inline3x42&#45;&gt;node42</title>
<path fill="none" stroke="#3cb4a4" d="M271.34,-523.01C261.93,-508.2 247.98,-486.23 238.35,-471.08"/>
<text text-anchor="middle" x="269.5" y="-494.6" font-family="arial" font-size="8.00" fill="#3cb4a4">object</text>
</g>
<!-- inline3x45 -->
<g id="node36" class="node">
<title>inline3x45</title>
<ellipse fill="#d7ede7" stroke="black" cx="109.5" cy="-453" rx="27" ry="18"/>
<text text-anchor="middle" x="109.5" y="-451.1" font-family="Arial" font-size="8.00" fill="#1a1919">3 P(2)</text>
</g>
<!-- inline3x45&#45;&gt;node45 -->
<g id="edge35" class="edge">
<title>inline3x45&#45;&gt;node45</title>
<path fill="none" stroke="#3cb4a4" d="M127.8,-439.46C149.09,-424.87 184.36,-400.68 208.25,-384.31"/>
<text text-anchor="middle" x="190.5" y="-407.6" font-family="arial" font-size="8.00" fill="#3cb4a4">object</text>
</g>
</g>
</svg>
