<?xml version="1.0" encoding="UTF-8" standalone="no"?>
<!DOCTYPE svg PUBLIC "-//W3C//DTD SVG 1.1//EN"
 "http://www.w3.org/Graphics/SVG/1.1/DTD/svg11.dtd">
<!-- Generated by graphviz version 2.44.1 (20200629.0846)
 -->
<!-- Title: G Pages: 1 -->
<svg width="676pt" height="1838pt"
 viewBox="0.00 0.00 675.50 1838.00" xmlns="http://www.w3.org/2000/svg" xmlns:xlink="http://www.w3.org/1999/xlink">
<g id="graph0" class="graph" transform="scale(1 1) rotate(0) translate(4 1834)">
<title>G</title>
<!-- node0 -->
<g id="node1" class="node">
<title>node0</title>
<polygon fill="#e98693" stroke="black" points="215,-1749 159,-1749 159,-1713 215,-1713 215,-1749"/>
<text text-anchor="middle" x="187" y="-1727.3" font-family="Arial" font-size="14.00" fill="#1a1919">0 Start</text>
</g>
<!-- node23 -->
<g id="node11" class="node">
<title>node23</title>
<polygon fill="#ffa500" stroke="black" points="329.5,-1662 76.5,-1662 76.5,-1626 329.5,-1626 329.5,-1662"/>
<text text-anchor="middle" x="203" y="-1640.3" font-family="Arial" font-size="14.00" fill="#1a1919">23 Guard not, else NullCheckException</text>
</g>
<!-- node0&#45;&gt;node23 -->
<g id="edge1" class="edge">
<title>node0&#45;&gt;node23</title>
<path fill="none" stroke="#da2d4f" stroke-width="2" d="M190.24,-1712.8C192.43,-1701.16 195.37,-1685.55 197.87,-1672.24"/>
<polygon fill="#da2d4f" stroke="#da2d4f" stroke-width="2" points="201.36,-1672.65 199.77,-1662.18 194.48,-1671.36 201.36,-1672.65"/>
</g>
<!-- node10 -->
<g id="node2" class="node">
<title>node10</title>
<polygon fill="#3cb4a4" stroke="black" points="436,-945 388.41,-927 436,-909 483.59,-927 436,-945"/>
<text text-anchor="middle" x="436" y="-923.3" font-family="Arial" font-size="14.00" fill="#1a1919">10 ==</text>
</g>
<!-- node13 -->
<g id="node5" class="node">
<title>node13</title>
<polygon fill="#e98693" stroke="black" points="463,-858 409,-858 409,-822 463,-822 463,-858"/>
<text text-anchor="middle" x="436" y="-836.3" font-family="Arial" font-size="14.00" fill="#1a1919">13 If</text>
</g>
<!-- node10&#45;&gt;node13 -->
<g id="edge6" class="edge">
<title>node10&#45;&gt;node13</title>
<path fill="none" stroke="#3cb4a4" d="M436,-908.8C436,-897.16 436,-881.55 436,-868.24"/>
<polygon fill="#3cb4a4" stroke="#3cb4a4" points="439.5,-868.18 436,-858.18 432.5,-868.18 439.5,-868.18"/>
<text text-anchor="middle" x="440" y="-879.8" font-family="arial" font-size="14.00" fill="#3cb4a4">?</text>
</g>
<!-- node11 -->
<g id="node3" class="node">
<title>node11</title>
<polygon fill="#e98693" stroke="black" points="558.5,-771 489.5,-771 489.5,-735 558.5,-735 558.5,-771"/>
<text text-anchor="middle" x="524" y="-749.3" font-family="Arial" font-size="14.00" fill="#1a1919">11 Begin</text>
</g>
<!-- node15 -->
<g id="node7" class="node">
<title>node15</title>
<polygon fill="#da2d4f" stroke="black" points="667.5,-698 506.5,-698 506.5,-662 667.5,-662 667.5,-698"/>
<text text-anchor="middle" x="587" y="-676.3" font-family="Arial" font-size="14.00" fill="#ffffff">15 Call Vector.blackhole</text>
</g>
<!-- node11&#45;&gt;node15 -->
<g id="edge4" class="edge">
<title>node11&#45;&gt;node15</title>
<path fill="none" stroke="#da2d4f" stroke-width="2" d="M539.25,-734.81C546.99,-726.09 556.53,-715.34 565.04,-705.75"/>
<polygon fill="#da2d4f" stroke="#da2d4f" stroke-width="2" points="567.87,-707.83 571.89,-698.03 562.63,-703.19 567.87,-707.83"/>
</g>
<!-- node12 -->
<g id="node4" class="node">
<title>node12</title>
<polygon fill="#e98693" stroke="black" points="471,-771 401,-771 401,-735 471,-735 471,-771"/>
<text text-anchor="middle" x="436" y="-749.3" font-family="Arial" font-size="14.00" fill="#1a1919">12 Begin</text>
</g>
<!-- node40 -->
<g id="node23" class="node">
<title>node40</title>
<polygon fill="#da2d4f" stroke="black" points="488,-698 384,-698 384,-662 488,-662 488,-698"/>
<text text-anchor="middle" x="436" y="-676.3" font-family="Arial" font-size="14.00" fill="#ffffff">40 New Vector</text>
</g>
<!-- node12&#45;&gt;node40 -->
<g id="edge5" class="edge">
<title>node12&#45;&gt;node40</title>
<path fill="none" stroke="#da2d4f" stroke-width="2" d="M436,-734.81C436,-726.79 436,-717.05 436,-708.07"/>
<polygon fill="#da2d4f" stroke="#da2d4f" stroke-width="2" points="439.5,-708.03 436,-698.03 432.5,-708.03 439.5,-708.03"/>
</g>
<!-- node13&#45;&gt;node11 -->
<g id="edge8" class="edge">
<title>node13&#45;&gt;node11</title>
<path fill="none" stroke="#da2d4f" stroke-width="2" d="M453.81,-821.8C466.69,-809.36 484.28,-792.36 498.63,-778.5"/>
<polygon fill="#da2d4f" stroke="#da2d4f" stroke-width="2" points="501.46,-780.64 506.22,-771.18 496.59,-775.61 501.46,-780.64"/>
<text text-anchor="middle" x="489.5" y="-792.8" font-family="arial" font-size="14.00" fill="#da2d4f">F</text>
</g>
<!-- node13&#45;&gt;node12 -->
<g id="edge7" class="edge">
<title>node13&#45;&gt;node12</title>
<path fill="none" stroke="#da2d4f" stroke-width="2" d="M436,-821.8C436,-810.16 436,-794.55 436,-781.24"/>
<polygon fill="#da2d4f" stroke="#da2d4f" stroke-width="2" points="439.5,-781.18 436,-771.18 432.5,-781.18 439.5,-781.18"/>
<text text-anchor="middle" x="440.5" y="-792.8" font-family="arial" font-size="14.00" fill="#da2d4f">T</text>
</g>
<!-- node14 -->
<g id="node6" class="node">
<title>node14</title>
<polygon fill="#f9f9f9" stroke="black" points="592,-1434 450,-1434 450,-1398 592,-1398 592,-1434"/>
<text text-anchor="middle" x="521" y="-1412.3" font-family="Arial" font-size="14.00" fill="#1a1919">14 MethodCallTarget</text>
</g>
<!-- node14&#45;&gt;node15 -->
<g id="edge10" class="edge">
<title>node14&#45;&gt;node15</title>
<path fill="none" stroke="#343d46" stroke-dasharray="5,2" d="M550.04,-1390.66C567.75,-1372.98 587,-1347.36 587,-1319.5 587,-1319.5 587,-1319.5 587,-752 587,-733.63 587,-712.59 587,-698.22"/>
<polygon fill="#343d46" stroke="#343d46" points="547.44,-1388.3 542.61,-1397.73 552.27,-1393.37 547.44,-1388.3"/>
</g>
<!-- node17 -->
<g id="node8" class="node">
<title>node17</title>
<polygon fill="#e98693" stroke="black" points="665,-611 589,-611 589,-575 665,-575 665,-611"/>
<text text-anchor="middle" x="627" y="-589.3" font-family="Arial" font-size="14.00" fill="#1a1919">17 Return</text>
</g>
<!-- node15&#45;&gt;node17 -->
<g id="edge11" class="edge">
<title>node15&#45;&gt;node17</title>
<path fill="none" stroke="#da2d4f" stroke-width="2" d="M607.92,-661.89C613,-656.68 617.86,-650.58 621,-644 624.28,-637.14 626.02,-629.16 626.89,-621.63"/>
<polygon fill="#da2d4f" stroke="#da2d4f" stroke-width="2" points="630.4,-621.65 627.61,-611.42 623.41,-621.15 630.4,-621.65"/>
</g>
<!-- node15&#45;&gt;node17 -->
<g id="edge12" class="edge">
<title>node15&#45;&gt;node17</title>
<path fill="none" stroke="#3cb4a4" d="M581.47,-662C579.19,-651.93 578.08,-639.2 583,-629 584.86,-625.14 587.38,-621.58 590.27,-618.32"/>
<polygon fill="#3cb4a4" stroke="#3cb4a4" points="592.79,-620.75 597.56,-611.29 587.93,-615.71 592.79,-620.75"/>
<text text-anchor="middle" x="600" y="-632.8" font-family="arial" font-size="14.00" fill="#3cb4a4">result</text>
</g>
<!-- node21 -->
<g id="node9" class="node">
<title>node21</title>
<polygon fill="#e98693" stroke="black" points="117,-36 41,-36 41,0 117,0 117,-36"/>
<text text-anchor="middle" x="79" y="-14.3" font-family="Arial" font-size="14.00" fill="#1a1919">21 Return</text>
</g>
<!-- node22 -->
<g id="node10" class="node">
<title>node22</title>
<polygon fill="#3cb4a4" stroke="black" points="296,-1749 232.66,-1731 296,-1713 359.34,-1731 296,-1749"/>
<text text-anchor="middle" x="296" y="-1727.3" font-family="Arial" font-size="14.00" fill="#1a1919">22 IsNull</text>
</g>
<!-- node22&#45;&gt;node23 -->
<g id="edge15" class="edge">
<title>node22&#45;&gt;node23</title>
<path fill="none" stroke="#3cb4a4" d="M281.47,-1716.72C267.56,-1704 246.25,-1684.53 229.35,-1669.08"/>
<polygon fill="#3cb4a4" stroke="#3cb4a4" points="231.67,-1666.47 221.93,-1662.3 226.95,-1671.63 231.67,-1666.47"/>
<text text-anchor="middle" x="259" y="-1683.8" font-family="arial" font-size="14.00" fill="#3cb4a4">?</text>
</g>
<!-- node24 -->
<g id="node12" class="node">
<title>node24</title>
<polygon fill="#f9f9f9" stroke="black" points="421,-1575 367,-1575 367,-1539 421,-1539 421,-1575"/>
<text text-anchor="middle" x="394" y="-1553.3" font-family="Arial" font-size="14.00" fill="#1a1919">24 π</text>
</g>
<!-- node23&#45;&gt;node24 -->
<g id="edge17" class="edge">
<title>node23&#45;&gt;node24</title>
<path fill="none" stroke="#3cb4a4" d="M241.65,-1625.8C275.48,-1610.74 324.28,-1589.03 357.47,-1574.26"/>
<polygon fill="#3cb4a4" stroke="#3cb4a4" points="359.1,-1577.36 366.81,-1570.1 356.25,-1570.97 359.1,-1577.36"/>
<text text-anchor="middle" x="326.5" y="-1596.8" font-family="arial" font-size="14.00" fill="#3cb4a4">guard</text>
</g>
<!-- node25 -->
<g id="node13" class="node">
<title>node25</title>
<polygon fill="#da2d4f" stroke="black" points="214,-1575 110,-1575 110,-1539 214,-1539 214,-1575"/>
<text text-anchor="middle" x="162" y="-1553.3" font-family="Arial" font-size="14.00" fill="#ffffff">25 New Vector</text>
</g>
<!-- node23&#45;&gt;node25 -->
<g id="edge16" class="edge">
<title>node23&#45;&gt;node25</title>
<path fill="none" stroke="#da2d4f" stroke-width="2" d="M194.7,-1625.8C188.98,-1613.93 181.26,-1597.93 174.76,-1584.45"/>
<polygon fill="#da2d4f" stroke="#da2d4f" stroke-width="2" points="177.78,-1582.66 170.28,-1575.18 171.48,-1585.7 177.78,-1582.66"/>
</g>
<!-- node26 -->
<g id="node14" class="node">
<title>node26</title>
<polygon fill="#da2d4f" stroke="black" points="467,-1488 321,-1488 321,-1452 467,-1452 467,-1488"/>
<text text-anchor="middle" x="394" y="-1466.3" font-family="Arial" font-size="14.00" fill="#ffffff">26 LoadField Vector.x</text>
</g>
<!-- node24&#45;&gt;node26 -->
<g id="edge20" class="edge">
<title>node24&#45;&gt;node26</title>
<path fill="none" stroke="#3cb4a4" d="M394,-1538.8C394,-1527.16 394,-1511.55 394,-1498.24"/>
<polygon fill="#3cb4a4" stroke="#3cb4a4" points="397.5,-1498.18 394,-1488.18 390.5,-1498.18 397.5,-1498.18"/>
<text text-anchor="middle" x="412.5" y="-1509.8" font-family="arial" font-size="14.00" fill="#3cb4a4">object</text>
</g>
<!-- node29 -->
<g id="node17" class="node">
<title>node29</title>
<polygon fill="#da2d4f" stroke="black" points="559,-1293 413,-1293 413,-1257 559,-1257 559,-1293"/>
<text text-anchor="middle" x="486" y="-1271.3" font-family="Arial" font-size="14.00" fill="#ffffff">29 LoadField Vector.y</text>
</g>
<!-- node24&#45;&gt;node29 -->
<g id="edge26" class="edge">
<title>node24&#45;&gt;node29</title>
<path fill="none" stroke="#3cb4a4" d="M421.15,-1550.28C469.25,-1538.44 567.53,-1506.08 601,-1434 625.6,-1381.03 565.12,-1327.86 522.85,-1298.7"/>
<polygon fill="#3cb4a4" stroke="#3cb4a4" points="524.66,-1295.7 514.41,-1293.03 520.76,-1301.51 524.66,-1295.7"/>
<text text-anchor="middle" x="624.5" y="-1412.3" font-family="arial" font-size="14.00" fill="#3cb4a4">object</text>
</g>
<!-- node25&#45;&gt;node14 -->
<g id="edge9" class="edge">
<title>node25&#45;&gt;node14</title>
<path fill="none" stroke="#3cb4a4" d="M214.27,-1552.69C282.11,-1547.81 396.37,-1537.45 435,-1521 469.6,-1506.27 494.62,-1469.13 508.47,-1443.47"/>
<polygon fill="#3cb4a4" stroke="#3cb4a4" points="511.74,-1444.76 513.23,-1434.27 505.52,-1441.54 511.74,-1444.76"/>
<text text-anchor="middle" x="476.5" y="-1509.8" font-family="arial" font-size="14.00" fill="#3cb4a4">arg[0]</text>
</g>
<!-- node25&#45;&gt;node26 -->
<g id="edge19" class="edge">
<title>node25&#45;&gt;node26</title>
<path fill="none" stroke="#da2d4f" stroke-width="2" d="M208.67,-1538.9C245.95,-1525.24 298.33,-1506.05 337.9,-1491.56"/>
<polygon fill="#da2d4f" stroke="#da2d4f" stroke-width="2" points="339.22,-1494.8 347.4,-1488.07 336.81,-1488.23 339.22,-1494.8"/>
</g>
<!-- node33 -->
<g id="node20" class="node">
<title>node33</title>
<polygon fill="#da2d4f" stroke="black" points="333.5,-1119 184.5,-1119 184.5,-1083 333.5,-1083 333.5,-1119"/>
<text text-anchor="middle" x="259" y="-1097.3" font-family="Arial" font-size="14.00" fill="#ffffff">33 StoreField Vector.x</text>
</g>
<!-- node25&#45;&gt;node33 -->
<g id="edge32" class="edge">
<title>node25&#45;&gt;node33</title>
<path fill="none" stroke="#3cb4a4" d="M180.84,-1538.71C196.07,-1522.77 215,-1497.61 215,-1471 215,-1471 215,-1471 215,-1187 215,-1165.27 226.48,-1143.56 237.72,-1127.52"/>
<polygon fill="#3cb4a4" stroke="#3cb4a4" points="240.72,-1129.34 243.86,-1119.22 235.09,-1125.18 240.72,-1129.34"/>
<text text-anchor="middle" x="233.5" y="-1314.8" font-family="arial" font-size="14.00" fill="#3cb4a4">object</text>
</g>
<!-- node35 -->
<g id="node21" class="node">
<title>node35</title>
<polygon fill="#da2d4f" stroke="black" points="333.5,-1032 184.5,-1032 184.5,-996 333.5,-996 333.5,-1032"/>
<text text-anchor="middle" x="259" y="-1010.3" font-family="Arial" font-size="14.00" fill="#ffffff">35 StoreField Vector.y</text>
</g>
<!-- node25&#45;&gt;node35 -->
<g id="edge35" class="edge">
<title>node25&#45;&gt;node35</title>
<path fill="none" stroke="#3cb4a4" d="M158.14,-1538.84C154.63,-1521.75 150,-1494.7 150,-1471 150,-1471 150,-1471 150,-1317.5 150,-1212.69 124.91,-1175.07 175,-1083 185.08,-1064.47 202.5,-1049.11 218.88,-1037.7"/>
<polygon fill="#3cb4a4" stroke="#3cb4a4" points="220.91,-1040.55 227.3,-1032.09 217.03,-1034.72 220.91,-1040.55"/>
<text text-anchor="middle" x="168.5" y="-1271.3" font-family="arial" font-size="14.00" fill="#3cb4a4">object</text>
</g>
<!-- node37 -->
<g id="node22" class="node">
<title>node37</title>
<polygon fill="#f9f9f9" stroke="black" points="326,-945 192,-945 192,-909 326,-909 326,-945"/>
<text text-anchor="middle" x="259" y="-923.3" font-family="Arial" font-size="14.00" fill="#1a1919">37 FinalFieldBarrier</text>
</g>
<!-- node25&#45;&gt;node37 -->
<g id="edge38" class="edge">
<title>node25&#45;&gt;node37</title>
<path fill="none" stroke="#3cb4a4" d="M141.06,-1538.76C124.45,-1523.03 104,-1498.15 104,-1471 104,-1471 104,-1471 104,-1013 104,-973.53 143.12,-952.27 182.05,-940.88"/>
<polygon fill="#3cb4a4" stroke="#3cb4a4" points="183.19,-944.19 191.92,-938.19 181.35,-937.44 183.19,-944.19"/>
<text text-anchor="middle" x="120.5" y="-1227.8" font-family="arial" font-size="14.00" fill="#3cb4a4">value</text>
</g>
<!-- node41 -->
<g id="node24" class="node">
<title>node41</title>
<polygon fill="#da2d4f" stroke="black" points="408,-611 262,-611 262,-575 408,-575 408,-611"/>
<text text-anchor="middle" x="335" y="-589.3" font-family="Arial" font-size="14.00" fill="#ffffff">41 LoadField Vector.x</text>
</g>
<!-- node25&#45;&gt;node41 -->
<g id="edge41" class="edge">
<title>node25&#45;&gt;node41</title>
<path fill="none" stroke="#3cb4a4" d="M111.83,-1538.97C82.82,-1525.6 52,-1503.7 52,-1471 52,-1471 52,-1471 52,-679 52,-668.25 173.32,-635.14 257.09,-613.56"/>
<polygon fill="#3cb4a4" stroke="#3cb4a4" points="258.04,-616.93 266.85,-611.05 256.3,-610.15 258.04,-616.93"/>
<text text-anchor="middle" x="70.5" y="-1053.8" font-family="arial" font-size="14.00" fill="#3cb4a4">object</text>
</g>
<!-- node44 -->
<g id="node27" class="node">
<title>node44</title>
<polygon fill="#da2d4f" stroke="black" points="241,-443 95,-443 95,-407 241,-407 241,-443"/>
<text text-anchor="middle" x="168" y="-421.3" font-family="Arial" font-size="14.00" fill="#ffffff">44 LoadField Vector.y</text>
</g>
<!-- node25&#45;&gt;node44 -->
<g id="edge47" class="edge">
<title>node25&#45;&gt;node44</title>
<path fill="none" stroke="#3cb4a4" d="M109.85,-1550.39C62.49,-1542.06 0,-1521.5 0,-1471 0,-1471 0,-1471 0,-511 0,-468.85 42.63,-447.59 84.94,-436.88"/>
<polygon fill="#3cb4a4" stroke="#3cb4a4" points="85.87,-440.26 94.8,-434.56 84.27,-433.44 85.87,-440.26"/>
<text text-anchor="middle" x="18.5" y="-966.8" font-family="arial" font-size="14.00" fill="#3cb4a4">object</text>
</g>
<!-- node27 -->
<g id="node15" class="node">
<title>node27</title>
<polygon fill="#da2d4f" stroke="black" points="389,-1380 243,-1380 243,-1344 389,-1344 389,-1380"/>
<text text-anchor="middle" x="316" y="-1358.3" font-family="Arial" font-size="14.00" fill="#ffffff">27 LoadField Vector.x</text>
</g>
<!-- node26&#45;&gt;node27 -->
<g id="edge21" class="edge">
<title>node26&#45;&gt;node27</title>
<path fill="none" stroke="#da2d4f" stroke-width="2" d="M381.47,-1451.97C368.86,-1434.84 349.28,-1408.22 334.81,-1388.56"/>
<polygon fill="#da2d4f" stroke="#da2d4f" stroke-width="2" points="337.51,-1386.32 328.76,-1380.34 331.87,-1390.47 337.51,-1386.32"/>
</g>
<!-- node28 -->
<g id="node16" class="node">
<title>node28</title>
<polygon fill="#3cb4a4" stroke="black" points="283,-1293 242.61,-1275 283,-1257 323.39,-1275 283,-1293"/>
<text text-anchor="middle" x="283" y="-1271.3" font-family="Arial" font-size="14.00" fill="#1a1919">28 +</text>
</g>
<!-- node26&#45;&gt;node28 -->
<g id="edge24" class="edge">
<title>node26&#45;&gt;node28</title>
<path fill="none" stroke="#3cb4a4" d="M399.84,-1451.89C407.41,-1426.49 417.47,-1378.14 398,-1344 388.41,-1327.18 342.43,-1303.38 311.59,-1288.86"/>
<polygon fill="#3cb4a4" stroke="#3cb4a4" points="312.72,-1285.53 302.18,-1284.49 309.77,-1291.87 312.72,-1285.53"/>
<text text-anchor="middle" x="411.5" y="-1358.3" font-family="arial" font-size="14.00" fill="#3cb4a4">x</text>
</g>
<!-- node27&#45;&gt;node28 -->
<g id="edge25" class="edge">
<title>node27&#45;&gt;node28</title>
<path fill="none" stroke="#3cb4a4" d="M309.32,-1343.8C304.44,-1331.23 297.76,-1314.02 292.35,-1300.08"/>
<polygon fill="#3cb4a4" stroke="#3cb4a4" points="295.56,-1298.68 288.68,-1290.63 289.04,-1301.22 295.56,-1298.68"/>
<text text-anchor="middle" x="304.5" y="-1314.8" font-family="arial" font-size="14.00" fill="#3cb4a4">y</text>
</g>
<!-- node27&#45;&gt;node29 -->
<g id="edge23" class="edge">
<title>node27&#45;&gt;node29</title>
<path fill="none" stroke="#da2d4f" stroke-width="2" d="M350.4,-1343.8C377.1,-1330.45 414.28,-1311.86 442.95,-1297.52"/>
<polygon fill="#da2d4f" stroke="#da2d4f" stroke-width="2" points="444.56,-1300.63 451.94,-1293.03 441.43,-1294.37 444.56,-1300.63"/>
</g>
<!-- node28&#45;&gt;node33 -->
<g id="edge33" class="edge">
<title>node28&#45;&gt;node33</title>
<path fill="none" stroke="#3cb4a4" d="M279.63,-1258.4C276.76,-1244.66 272.68,-1224.07 270,-1206 266.17,-1180.15 263.17,-1150.5 261.28,-1129.49"/>
<polygon fill="#3cb4a4" stroke="#3cb4a4" points="264.75,-1129.01 260.39,-1119.35 257.77,-1129.62 264.75,-1129.01"/>
<text text-anchor="middle" x="286.5" y="-1184.3" font-family="arial" font-size="14.00" fill="#3cb4a4">value</text>
</g>
<!-- node30 -->
<g id="node18" class="node">
<title>node30</title>
<polygon fill="#da2d4f" stroke="black" points="458,-1206 312,-1206 312,-1170 458,-1170 458,-1206"/>
<text text-anchor="middle" x="385" y="-1184.3" font-family="Arial" font-size="14.00" fill="#ffffff">30 LoadField Vector.y</text>
</g>
<!-- node29&#45;&gt;node30 -->
<g id="edge27" class="edge">
<title>node29&#45;&gt;node30</title>
<path fill="none" stroke="#da2d4f" stroke-width="2" d="M465.56,-1256.8C450.5,-1244.13 429.84,-1226.73 413.21,-1212.74"/>
<polygon fill="#da2d4f" stroke="#da2d4f" stroke-width="2" points="415.31,-1209.94 405.41,-1206.18 410.81,-1215.29 415.31,-1209.94"/>
</g>
<!-- node31 -->
<g id="node19" class="node">
<title>node31</title>
<polygon fill="#3cb4a4" stroke="black" points="392,-1119 351.61,-1101 392,-1083 432.39,-1101 392,-1119"/>
<text text-anchor="middle" x="392" y="-1097.3" font-family="Arial" font-size="14.00" fill="#1a1919">31 +</text>
</g>
<!-- node29&#45;&gt;node31 -->
<g id="edge30" class="edge">
<title>node29&#45;&gt;node31</title>
<path fill="none" stroke="#3cb4a4" d="M486.16,-1256.67C485.65,-1235.05 482.34,-1197.59 467,-1170 455,-1148.42 433.58,-1130.04 416.69,-1117.85"/>
<polygon fill="#3cb4a4" stroke="#3cb4a4" points="418.56,-1114.89 408.35,-1112.06 414.57,-1120.64 418.56,-1114.89"/>
<text text-anchor="middle" x="483.5" y="-1184.3" font-family="arial" font-size="14.00" fill="#3cb4a4">x</text>
</g>
<!-- node30&#45;&gt;node31 -->
<g id="edge31" class="edge">
<title>node30&#45;&gt;node31</title>
<path fill="none" stroke="#3cb4a4" d="M386.42,-1169.8C387.39,-1158.01 388.69,-1142.14 389.8,-1128.71"/>
<polygon fill="#3cb4a4" stroke="#3cb4a4" points="393.3,-1128.85 390.63,-1118.6 386.32,-1128.28 393.3,-1128.85"/>
<text text-anchor="middle" x="391.5" y="-1140.8" font-family="arial" font-size="14.00" fill="#3cb4a4">y</text>
</g>
<!-- node30&#45;&gt;node33 -->
<g id="edge29" class="edge">
<title>node30&#45;&gt;node33</title>
<path fill="none" stroke="#da2d4f" stroke-width="2" d="M359.5,-1169.8C340.29,-1156.84 313.76,-1138.94 292.78,-1124.79"/>
<polygon fill="#da2d4f" stroke="#da2d4f" stroke-width="2" points="294.71,-1121.87 284.46,-1119.18 290.79,-1127.67 294.71,-1121.87"/>
</g>
<!-- node31&#45;&gt;node35 -->
<g id="edge36" class="edge">
<title>node31&#45;&gt;node35</title>
<path fill="none" stroke="#3cb4a4" d="M376.22,-1089.92C356.19,-1077.11 321.05,-1054.65 294.45,-1037.65"/>
<polygon fill="#3cb4a4" stroke="#3cb4a4" points="296.1,-1034.56 285.79,-1032.12 292.33,-1040.46 296.1,-1034.56"/>
<text text-anchor="middle" x="349.5" y="-1053.8" font-family="arial" font-size="14.00" fill="#3cb4a4">value</text>
</g>
<!-- node33&#45;&gt;node35 -->
<g id="edge34" class="edge">
<title>node33&#45;&gt;node35</title>
<path fill="none" stroke="#da2d4f" stroke-width="2" d="M259,-1082.8C259,-1071.16 259,-1055.55 259,-1042.24"/>
<polygon fill="#da2d4f" stroke="#da2d4f" stroke-width="2" points="262.5,-1042.18 259,-1032.18 255.5,-1042.18 262.5,-1042.18"/>
</g>
<!-- node35&#45;&gt;node37 -->
<g id="edge37" class="edge">
<title>node35&#45;&gt;node37</title>
<path fill="none" stroke="#da2d4f" stroke-width="2" d="M259,-995.8C259,-984.16 259,-968.55 259,-955.24"/>
<polygon fill="#da2d4f" stroke="#da2d4f" stroke-width="2" points="262.5,-955.18 259,-945.18 255.5,-955.18 262.5,-955.18"/>
</g>
<!-- node37&#45;&gt;node13 -->
<g id="edge39" class="edge">
<title>node37&#45;&gt;node13</title>
<path fill="none" stroke="#da2d4f" stroke-width="2" d="M294.82,-908.8C325.39,-894.12 369.16,-873.1 399.84,-858.37"/>
<polygon fill="#da2d4f" stroke="#da2d4f" stroke-width="2" points="401.41,-861.49 408.91,-854.01 398.38,-855.18 401.41,-861.49"/>
</g>
<!-- node40&#45;&gt;node21 -->
<g id="edge13" class="edge">
<title>node40&#45;&gt;node21</title>
<path fill="none" stroke="#3cb4a4" d="M383.9,-676.78C328.37,-671.95 240.44,-656.97 181,-611 91.23,-541.56 67,-495.99 67,-382.5 67,-382.5 67,-382.5 67,-90 67,-75.3 69.53,-59.13 72.27,-45.94"/>
<polygon fill="#3cb4a4" stroke="#3cb4a4" points="75.71,-46.6 74.46,-36.08 68.87,-45.08 75.71,-46.6"/>
<text text-anchor="middle" x="84" y="-334.3" font-family="arial" font-size="14.00" fill="#3cb4a4">result</text>
</g>
<!-- node40&#45;&gt;node41 -->
<g id="edge40" class="edge">
<title>node40&#45;&gt;node41</title>
<path fill="none" stroke="#da2d4f" stroke-width="2" d="M415.56,-661.8C400.5,-649.13 379.84,-631.73 363.21,-617.74"/>
<polygon fill="#da2d4f" stroke="#da2d4f" stroke-width="2" points="365.31,-614.94 355.41,-611.18 360.81,-620.29 365.31,-614.94"/>
</g>
<!-- node48 -->
<g id="node30" class="node">
<title>node48</title>
<polygon fill="#da2d4f" stroke="black" points="455.5,-269 306.5,-269 306.5,-233 455.5,-233 455.5,-269"/>
<text text-anchor="middle" x="381" y="-247.3" font-family="Arial" font-size="14.00" fill="#ffffff">48 StoreField Vector.x</text>
</g>
<!-- node40&#45;&gt;node48 -->
<g id="edge53" class="edge">
<title>node40&#45;&gt;node48</title>
<path fill="none" stroke="#3cb4a4" d="M437.24,-661.8C440.51,-609.42 446.97,-447.65 413,-320 409.19,-305.67 402.46,-290.67 396.15,-278.41"/>
<polygon fill="#3cb4a4" stroke="#3cb4a4" points="399.04,-276.4 391.24,-269.23 392.87,-279.7 399.04,-276.4"/>
<text text-anchor="middle" x="454.5" y="-464.8" font-family="arial" font-size="14.00" fill="#3cb4a4">object</text>
</g>
<!-- node50 -->
<g id="node31" class="node">
<title>node50</title>
<polygon fill="#da2d4f" stroke="black" points="455.5,-182 306.5,-182 306.5,-146 455.5,-146 455.5,-182"/>
<text text-anchor="middle" x="381" y="-160.3" font-family="Arial" font-size="14.00" fill="#ffffff">50 StoreField Vector.y</text>
</g>
<!-- node40&#45;&gt;node50 -->
<g id="edge56" class="edge">
<title>node40&#45;&gt;node50</title>
<path fill="none" stroke="#3cb4a4" d="M454.19,-661.96C469.18,-645.99 488,-620.64 488,-594 488,-594 488,-594 488,-250 488,-221.03 463.66,-200.36 438.19,-186.66"/>
<polygon fill="#3cb4a4" stroke="#3cb4a4" points="439.68,-183.49 429.18,-182.1 436.52,-189.74 439.68,-183.49"/>
<text text-anchor="middle" x="506.5" y="-421.3" font-family="arial" font-size="14.00" fill="#3cb4a4">object</text>
</g>
<!-- node52 -->
<g id="node32" class="node">
<title>node52</title>
<polygon fill="#f9f9f9" stroke="black" points="448,-109 314,-109 314,-73 448,-73 448,-109"/>
<text text-anchor="middle" x="381" y="-87.3" font-family="Arial" font-size="14.00" fill="#1a1919">52 FinalFieldBarrier</text>
</g>
<!-- node40&#45;&gt;node52 -->
<g id="edge59" class="edge">
<title>node40&#45;&gt;node52</title>
<path fill="none" stroke="#3cb4a4" d="M488.34,-663.27C519.49,-650.32 553,-628.4 553,-594 553,-594 553,-594 553,-163 553,-118.91 504.11,-101.65 458.46,-95.15"/>
<polygon fill="#3cb4a4" stroke="#3cb4a4" points="458.85,-91.67 448.49,-93.88 457.97,-98.61 458.85,-91.67"/>
<text text-anchor="middle" x="569.5" y="-377.8" font-family="arial" font-size="14.00" fill="#3cb4a4">value</text>
</g>
<!-- node42 -->
<g id="node25" class="node">
<title>node42</title>
<polygon fill="#da2d4f" stroke="black" points="294,-530 148,-530 148,-494 294,-494 294,-530"/>
<text text-anchor="middle" x="221" y="-508.3" font-family="Arial" font-size="14.00" fill="#ffffff">42 LoadField Vector.x</text>
</g>
<!-- node41&#45;&gt;node42 -->
<g id="edge42" class="edge">
<title>node41&#45;&gt;node42</title>
<path fill="none" stroke="#da2d4f" stroke-width="2" d="M310.26,-574.86C293.83,-563.47 272.06,-548.39 254.14,-535.96"/>
<polygon fill="#da2d4f" stroke="#da2d4f" stroke-width="2" points="255.9,-532.93 245.69,-530.11 251.91,-538.68 255.9,-532.93"/>
</g>
<!-- node43 -->
<g id="node26" class="node">
<title>node43</title>
<polygon fill="#3cb4a4" stroke="black" points="371,-443 330.61,-425 371,-407 411.39,-425 371,-443"/>
<text text-anchor="middle" x="371" y="-421.3" font-family="Arial" font-size="14.00" fill="#1a1919">43 +</text>
</g>
<!-- node41&#45;&gt;node43 -->
<g id="edge45" class="edge">
<title>node41&#45;&gt;node43</title>
<path fill="none" stroke="#3cb4a4" d="M338.72,-574.86C345.04,-545.71 357.92,-486.31 365.36,-452.01"/>
<polygon fill="#3cb4a4" stroke="#3cb4a4" points="368.87,-452.34 367.57,-441.83 362.03,-450.86 368.87,-452.34"/>
<text text-anchor="middle" x="358.5" y="-508.3" font-family="arial" font-size="14.00" fill="#3cb4a4">x</text>
</g>
<!-- node42&#45;&gt;node43 -->
<g id="edge46" class="edge">
<title>node42&#45;&gt;node43</title>
<path fill="none" stroke="#3cb4a4" d="M251.35,-493.8C278.95,-478.16 319.24,-455.33 345.29,-440.57"/>
<polygon fill="#3cb4a4" stroke="#3cb4a4" points="347.21,-443.5 354.19,-435.53 343.76,-437.41 347.21,-443.5"/>
<text text-anchor="middle" x="307.5" y="-464.8" font-family="arial" font-size="14.00" fill="#3cb4a4">y</text>
</g>
<!-- node42&#45;&gt;node44 -->
<g id="edge44" class="edge">
<title>node42&#45;&gt;node44</title>
<path fill="none" stroke="#da2d4f" stroke-width="2" d="M210.27,-493.8C202.73,-481.7 192.51,-465.3 184,-451.67"/>
<polygon fill="#da2d4f" stroke="#da2d4f" stroke-width="2" points="186.97,-449.81 178.71,-443.18 181.03,-453.51 186.97,-449.81"/>
</g>
<!-- node43&#45;&gt;node48 -->
<g id="edge54" class="edge">
<title>node43&#45;&gt;node48</title>
<path fill="none" stroke="#3cb4a4" d="M371.98,-407.19C373.71,-377.47 377.32,-315.38 379.41,-279.39"/>
<polygon fill="#3cb4a4" stroke="#3cb4a4" points="382.92,-279.31 380,-269.13 375.93,-278.91 382.92,-279.31"/>
<text text-anchor="middle" x="392.5" y="-334.3" font-family="arial" font-size="14.00" fill="#3cb4a4">value</text>
</g>
<!-- node45 -->
<g id="node28" class="node">
<title>node45</title>
<polygon fill="#da2d4f" stroke="black" points="341,-356 195,-356 195,-320 341,-320 341,-356"/>
<text text-anchor="middle" x="268" y="-334.3" font-family="Arial" font-size="14.00" fill="#ffffff">45 LoadField Vector.y</text>
</g>
<!-- node44&#45;&gt;node45 -->
<g id="edge48" class="edge">
<title>node44&#45;&gt;node45</title>
<path fill="none" stroke="#da2d4f" stroke-width="2" d="M188.24,-406.8C203.15,-394.13 223.61,-376.73 240.07,-362.74"/>
<polygon fill="#da2d4f" stroke="#da2d4f" stroke-width="2" points="242.44,-365.32 247.79,-356.18 237.91,-359.99 242.44,-365.32"/>
</g>
<!-- node46 -->
<g id="node29" class="node">
<title>node46</title>
<polygon fill="#3cb4a4" stroke="black" points="248,-269 207.61,-251 248,-233 288.39,-251 248,-269"/>
<text text-anchor="middle" x="248" y="-247.3" font-family="Arial" font-size="14.00" fill="#1a1919">46 +</text>
</g>
<!-- node44&#45;&gt;node46 -->
<g id="edge51" class="edge">
<title>node44&#45;&gt;node46</title>
<path fill="none" stroke="#3cb4a4" d="M166.4,-406.84C165.14,-385.41 165.44,-348.13 179,-320 189.16,-298.91 208.68,-280.64 224.37,-268.37"/>
<polygon fill="#3cb4a4" stroke="#3cb4a4" points="226.71,-270.99 232.61,-262.19 222.51,-265.39 226.71,-270.99"/>
<text text-anchor="middle" x="182.5" y="-334.3" font-family="arial" font-size="14.00" fill="#3cb4a4">x</text>
</g>
<!-- node45&#45;&gt;node46 -->
<g id="edge52" class="edge">
<title>node45&#45;&gt;node46</title>
<path fill="none" stroke="#3cb4a4" d="M257.95,-319.71C255.21,-314.22 252.57,-308.01 251,-302 249.08,-294.68 248.12,-286.56 247.69,-279.03"/>
<polygon fill="#3cb4a4" stroke="#3cb4a4" points="251.19,-278.81 247.39,-268.92 244.19,-279.02 251.19,-278.81"/>
<text text-anchor="middle" x="254.5" y="-290.8" font-family="arial" font-size="14.00" fill="#3cb4a4">y</text>
</g>
<!-- node45&#45;&gt;node48 -->
<g id="edge50" class="edge">
<title>node45&#45;&gt;node48</title>
<path fill="none" stroke="#da2d4f" stroke-width="2" d="M290.87,-319.8C307.87,-307.01 331.26,-289.42 349.95,-275.36"/>
<polygon fill="#da2d4f" stroke="#da2d4f" stroke-width="2" points="352.28,-277.98 358.17,-269.18 348.07,-272.39 352.28,-277.98"/>
</g>
<!-- node46&#45;&gt;node50 -->
<g id="edge57" class="edge">
<title>node46&#45;&gt;node50</title>
<path fill="none" stroke="#3cb4a4" d="M263.78,-239.92C283.81,-227.11 318.95,-204.65 345.55,-187.65"/>
<polygon fill="#3cb4a4" stroke="#3cb4a4" points="347.67,-190.46 354.21,-182.12 343.9,-184.56 347.67,-190.46"/>
<text text-anchor="middle" x="338.5" y="-203.8" font-family="arial" font-size="14.00" fill="#3cb4a4">value</text>
</g>
<!-- node48&#45;&gt;node50 -->
<g id="edge55" class="edge">
<title>node48&#45;&gt;node50</title>
<path fill="none" stroke="#da2d4f" stroke-width="2" d="M381,-232.8C381,-221.16 381,-205.55 381,-192.24"/>
<polygon fill="#da2d4f" stroke="#da2d4f" stroke-width="2" points="384.5,-192.18 381,-182.18 377.5,-192.18 384.5,-192.18"/>
</g>
<!-- node50&#45;&gt;node52 -->
<g id="edge58" class="edge">
<title>node50&#45;&gt;node52</title>
<path fill="none" stroke="#da2d4f" stroke-width="2" d="M381,-145.81C381,-137.79 381,-128.05 381,-119.07"/>
<polygon fill="#da2d4f" stroke="#da2d4f" stroke-width="2" points="384.5,-119.03 381,-109.03 377.5,-119.03 384.5,-119.03"/>
</g>
<!-- node52&#45;&gt;node21 -->
<g id="edge60" class="edge">
<title>node52&#45;&gt;node21</title>
<path fill="none" stroke="#da2d4f" stroke-width="2" d="M313.98,-74.24C257.4,-60.94 177.76,-42.22 127.27,-30.35"/>
<polygon fill="#da2d4f" stroke="#da2d4f" stroke-width="2" points="127.8,-26.88 117.27,-28 126.2,-33.69 127.8,-26.88"/>
</g>
<!-- inline4x10 -->
<g id="node33" class="node">
<title>inline4x10</title>
<ellipse fill="#d7ede7" stroke="black" cx="481" cy="-1014" rx="27" ry="18"/>
<text text-anchor="middle" x="481" y="-1012.1" font-family="Arial" font-size="8.00" fill="#1a1919">4 P(3)</text>
</g>
<!-- inline4x10&#45;&gt;node10 -->
<g id="edge2" class="edge">
<title>inline4x10&#45;&gt;node10</title>
<path fill="none" stroke="#3cb4a4" d="M472.32,-996.61C464,-980.88 451.55,-957.37 443.6,-942.36"/>
<text text-anchor="middle" x="463" y="-968.6" font-family="arial" font-size="8.00" fill="#3cb4a4">x</text>
</g>
<!-- inline9x10 -->
<g id="node34" class="node">
<title>inline9x10</title>
<ellipse fill="#d7ede7" stroke="black" cx="409" cy="-1014" rx="27" ry="18"/>
<text text-anchor="middle" x="409" y="-1012.1" font-family="Arial" font-size="8.00" fill="#1a1919">9 C(0)</text>
</g>
<!-- inline9x10&#45;&gt;node10 -->
<g id="edge3" class="edge">
<title>inline9x10&#45;&gt;node10</title>
<path fill="none" stroke="#3cb4a4" d="M414.33,-996.21C419.22,-980.82 426.4,-958.24 431.13,-943.33"/>
<text text-anchor="middle" x="426" y="-968.6" font-family="arial" font-size="8.00" fill="#3cb4a4">y</text>
</g>
<!-- inline1x22 -->
<g id="node35" class="node">
<title>inline1x22</title>
<ellipse fill="#d7ede7" stroke="black" cx="296" cy="-1812" rx="27" ry="18"/>
<text text-anchor="middle" x="296" y="-1810.1" font-family="Arial" font-size="8.00" fill="#1a1919">1 P(0)</text>
</g>
<!-- inline1x22&#45;&gt;node22 -->
<g id="edge14" class="edge">
<title>inline1x22&#45;&gt;node22</title>
<path fill="none" stroke="#3cb4a4" d="M296,-1793.86C296,-1780.61 296,-1762.35 296,-1749.11"/>
<text text-anchor="middle" x="305.5" y="-1769.6" font-family="arial" font-size="8.00" fill="#3cb4a4">value</text>
</g>
<!-- inline1x24 -->
<g id="node36" class="node">
<title>inline1x24</title>
<ellipse fill="#d7ede7" stroke="black" cx="394" cy="-1644" rx="27" ry="18"/>
<text text-anchor="middle" x="394" y="-1642.1" font-family="Arial" font-size="8.00" fill="#1a1919">1 P(0)</text>
</g>
<!-- inline1x24&#45;&gt;node24 -->
<g id="edge18" class="edge">
<title>inline1x24&#45;&gt;node24</title>
<path fill="none" stroke="#3cb4a4" d="M394,-1625.8C394,-1611.05 394,-1589.92 394,-1575.18"/>
<text text-anchor="middle" x="405" y="-1598.6" font-family="arial" font-size="8.00" fill="#3cb4a4">object</text>
</g>
<!-- inline2x27 -->
<g id="node37" class="node">
<title>inline2x27</title>
<ellipse fill="#d7ede7" stroke="black" cx="276" cy="-1470" rx="27" ry="18"/>
<text text-anchor="middle" x="276" y="-1468.1" font-family="Arial" font-size="8.00" fill="#1a1919">2 P(1)</text>
</g>
<!-- inline2x27&#45;&gt;node27 -->
<g id="edge22" class="edge">
<title>inline2x27&#45;&gt;node27</title>
<path fill="none" stroke="#3cb4a4" d="M282.25,-1452.44C289.68,-1432.76 302.01,-1400.08 309.53,-1380.15"/>
<text text-anchor="middle" x="312" y="-1414.1" font-family="arial" font-size="8.00" fill="#3cb4a4">object</text>
</g>
<!-- inline2x30 -->
<g id="node38" class="node">
<title>inline2x30</title>
<ellipse fill="#d7ede7" stroke="black" cx="368" cy="-1275" rx="27" ry="18"/>
<text text-anchor="middle" x="368" y="-1273.1" font-family="Arial" font-size="8.00" fill="#1a1919">2 P(1)</text>
</g>
<!-- inline2x30&#45;&gt;node30 -->
<g id="edge28" class="edge">
<title>inline2x30&#45;&gt;node30</title>
<path fill="none" stroke="#3cb4a4" d="M371.44,-1256.8C374.39,-1242.05 378.62,-1220.92 381.56,-1206.18"/>
<text text-anchor="middle" x="388" y="-1229.6" font-family="arial" font-size="8.00" fill="#3cb4a4">object</text>
</g>
<!-- inline3x42 -->
<g id="node39" class="node">
<title>inline3x42</title>
<ellipse fill="#d7ede7" stroke="black" cx="217" cy="-593" rx="27" ry="18"/>
<text text-anchor="middle" x="217" y="-591.1" font-family="Arial" font-size="8.00" fill="#1a1919">3 P(2)</text>
</g>
<!-- inline3x42&#45;&gt;node42 -->
<g id="edge43" class="edge">
<title>inline3x42&#45;&gt;node42</title>
<path fill="none" stroke="#3cb4a4" d="M217.87,-574.86C218.54,-561.61 219.46,-543.35 220.13,-530.11"/>
<text text-anchor="middle" x="230" y="-550.6" font-family="arial" font-size="8.00" fill="#3cb4a4">object</text>
</g>
<!-- inline3x45 -->
<g id="node40" class="node">
<title>inline3x45</title>
<ellipse fill="#d7ede7" stroke="black" cx="286" cy="-425" rx="27" ry="18"/>
<text text-anchor="middle" x="286" y="-423.1" font-family="Arial" font-size="8.00" fill="#1a1919">3 P(2)</text>
</g>
<!-- inline3x45&#45;&gt;node45 -->
<g id="edge49" class="edge">
<title>inline3x45&#45;&gt;node45</title>
<path fill="none" stroke="#3cb4a4" d="M282.36,-406.8C279.23,-392.05 274.76,-370.92 271.64,-356.18"/>
<text text-anchor="middle" x="289" y="-379.6" font-family="arial" font-size="8.00" fill="#3cb4a4">object</text>
</g>
</g>
</svg>
