<?xml version="1.0" encoding="UTF-8" standalone="no"?>
<!DOCTYPE svg PUBLIC "-//W3C//DTD SVG 1.1//EN"
 "http://www.w3.org/Graphics/SVG/1.1/DTD/svg11.dtd">
<!-- Generated by graphviz version 2.44.1 (20200629.0846)
 -->
<!-- Title: G Pages: 1 -->
<svg width="544pt" height="1054pt"
 viewBox="0.00 0.00 544.00 1054.00" xmlns="http://www.w3.org/2000/svg" xmlns:xlink="http://www.w3.org/1999/xlink">
<g id="graph0" class="graph" transform="scale(1 1) rotate(0) translate(4 1050)">
<title>G</title>
<!-- node0 -->
<g id="node1" class="node">
<title>node0</title>
<polygon fill="#e98693" stroke="black" points="210,-965 154,-965 154,-929 210,-929 210,-965"/>
<text text-anchor="middle" x="182" y="-943.3" font-family="Arial" font-size="14.00" fill="#1a1919">0 Start</text>
</g>
<!-- node13 -->
<g id="node5" class="node">
<title>node13</title>
<polygon fill="#ffa500" stroke="black" points="344.5,-878 91.5,-878 91.5,-842 344.5,-842 344.5,-878"/>
<text text-anchor="middle" x="218" y="-856.3" font-family="Arial" font-size="14.00" fill="#1a1919">13 Guard not, else NullCheckException</text>
</g>
<!-- node0&#45;&gt;node13 -->
<g id="edge1" class="edge">
<title>node0&#45;&gt;node13</title>
<path fill="none" stroke="#da2d4f" stroke-width="2" d="M189.29,-928.8C194.31,-916.93 201.09,-900.93 206.8,-887.45"/>
<polygon fill="#da2d4f" stroke="#da2d4f" stroke-width="2" points="210.05,-888.75 210.73,-878.18 203.6,-886.02 210.05,-888.75"/>
</g>
<!-- node10 -->
<g id="node2" class="node">
<title>node10</title>
<polygon fill="#da2d4f" stroke="black" points="524,-123 378,-123 378,-87 524,-87 524,-123"/>
<text text-anchor="middle" x="451" y="-101.3" font-family="Arial" font-size="14.00" fill="#ffffff">10 LoadField Vector.x</text>
</g>
<!-- node11 -->
<g id="node3" class="node">
<title>node11</title>
<polygon fill="#e98693" stroke="black" points="488.5,-36 413.5,-36 413.5,0 488.5,0 488.5,-36"/>
<text text-anchor="middle" x="451" y="-14.3" font-family="Arial" font-size="14.00" fill="#1a1919">11 Return</text>
</g>
<!-- node10&#45;&gt;node11 -->
<g id="edge3" class="edge">
<title>node10&#45;&gt;node11</title>
<path fill="none" stroke="#da2d4f" stroke-width="2" d="M449.83,-86.92C449.49,-81.22 449.17,-74.84 449,-69 448.79,-61.65 448.94,-53.69 449.23,-46.33"/>
<polygon fill="#da2d4f" stroke="#da2d4f" stroke-width="2" points="452.74,-46.28 449.73,-36.12 445.74,-45.94 452.74,-46.28"/>
</g>
<!-- node10&#45;&gt;node11 -->
<g id="edge4" class="edge">
<title>node10&#45;&gt;node11</title>
<path fill="none" stroke="#3cb4a4" d="M451,-86.8C451,-75.16 451,-59.55 451,-46.24"/>
<polygon fill="#3cb4a4" stroke="#3cb4a4" points="454.5,-46.18 451,-36.18 447.5,-46.18 454.5,-46.18"/>
<text text-anchor="middle" x="468" y="-57.8" font-family="arial" font-size="14.00" fill="#3cb4a4">result</text>
</g>
<!-- node12 -->
<g id="node4" class="node">
<title>node12</title>
<polygon fill="#3cb4a4" stroke="black" points="291,-965 227.66,-947 291,-929 354.34,-947 291,-965"/>
<text text-anchor="middle" x="291" y="-943.3" font-family="Arial" font-size="14.00" fill="#1a1919">12 IsNull</text>
</g>
<!-- node12&#45;&gt;node13 -->
<g id="edge6" class="edge">
<title>node12&#45;&gt;node13</title>
<path fill="none" stroke="#3cb4a4" d="M278.95,-931.96C268.28,-919.55 252.48,-901.14 239.63,-886.19"/>
<polygon fill="#3cb4a4" stroke="#3cb4a4" points="242.02,-883.6 232.85,-878.29 236.71,-888.16 242.02,-883.6"/>
<text text-anchor="middle" x="262" y="-899.8" font-family="arial" font-size="14.00" fill="#3cb4a4">?</text>
</g>
<!-- node14 -->
<g id="node6" class="node">
<title>node14</title>
<polygon fill="#f9f9f9" stroke="black" points="63,-791 9,-791 9,-755 63,-755 63,-791"/>
<text text-anchor="middle" x="36" y="-769.3" font-family="Arial" font-size="14.00" fill="#1a1919">14 π</text>
</g>
<!-- node13&#45;&gt;node14 -->
<g id="edge8" class="edge">
<title>node13&#45;&gt;node14</title>
<path fill="none" stroke="#3cb4a4" d="M181.17,-841.8C149.45,-826.98 103.92,-805.72 72.34,-790.97"/>
<polygon fill="#3cb4a4" stroke="#3cb4a4" points="73.56,-787.68 63.02,-786.62 70.6,-794.02 73.56,-787.68"/>
<text text-anchor="middle" x="155.5" y="-812.8" font-family="arial" font-size="14.00" fill="#3cb4a4">guard</text>
</g>
<!-- node15 -->
<g id="node7" class="node">
<title>node15</title>
<polygon fill="#da2d4f" stroke="black" points="425,-791 321,-791 321,-755 425,-755 425,-791"/>
<text text-anchor="middle" x="373" y="-769.3" font-family="Arial" font-size="14.00" fill="#ffffff">15 New Vector</text>
</g>
<!-- node13&#45;&gt;node15 -->
<g id="edge7" class="edge">
<title>node13&#45;&gt;node15</title>
<path fill="none" stroke="#da2d4f" stroke-width="2" d="M249.37,-841.8C273.5,-828.56 307.02,-810.18 333.07,-795.9"/>
<polygon fill="#da2d4f" stroke="#da2d4f" stroke-width="2" points="334.86,-798.91 341.94,-791.03 331.49,-792.77 334.86,-798.91"/>
</g>
<!-- node16 -->
<g id="node8" class="node">
<title>node16</title>
<polygon fill="#da2d4f" stroke="black" points="371,-704 225,-704 225,-668 371,-668 371,-704"/>
<text text-anchor="middle" x="298" y="-682.3" font-family="Arial" font-size="14.00" fill="#ffffff">16 LoadField Vector.x</text>
</g>
<!-- node14&#45;&gt;node16 -->
<g id="edge11" class="edge">
<title>node14&#45;&gt;node16</title>
<path fill="none" stroke="#3cb4a4" d="M63.05,-763.22C103.51,-750.1 180.87,-725 235.76,-707.19"/>
<polygon fill="#3cb4a4" stroke="#3cb4a4" points="236.96,-710.48 245.39,-704.07 234.8,-703.82 236.96,-710.48"/>
<text text-anchor="middle" x="201.5" y="-725.8" font-family="arial" font-size="14.00" fill="#3cb4a4">object</text>
</g>
<!-- node19 -->
<g id="node11" class="node">
<title>node19</title>
<polygon fill="#da2d4f" stroke="black" points="201,-530 55,-530 55,-494 201,-494 201,-530"/>
<text text-anchor="middle" x="128" y="-508.3" font-family="Arial" font-size="14.00" fill="#ffffff">19 LoadField Vector.y</text>
</g>
<!-- node14&#45;&gt;node19 -->
<g id="edge17" class="edge">
<title>node14&#45;&gt;node19</title>
<path fill="none" stroke="#3cb4a4" d="M29.05,-754.93C19.32,-728.38 4.47,-675.98 20,-635 35.36,-594.49 70.99,-558.78 97.15,-536.63"/>
<polygon fill="#3cb4a4" stroke="#3cb4a4" points="99.45,-539.27 104.93,-530.21 94.99,-533.88 99.45,-539.27"/>
<text text-anchor="middle" x="38.5" y="-638.8" font-family="arial" font-size="14.00" fill="#3cb4a4">object</text>
</g>
<!-- node15&#45;&gt;node10 -->
<g id="edge2" class="edge">
<title>node15&#45;&gt;node10</title>
<path fill="none" stroke="#3cb4a4" d="M425.34,-758.86C459.96,-746.68 499,-724.6 499,-687 499,-687 499,-687 499,-177 499,-159.5 488.87,-143.1 477.92,-130.48"/>
<polygon fill="#3cb4a4" stroke="#3cb4a4" points="480.45,-128.06 471.08,-123.13 475.33,-132.83 480.45,-128.06"/>
<text text-anchor="middle" x="517.5" y="-421.3" font-family="arial" font-size="14.00" fill="#3cb4a4">object</text>
</g>
<!-- node15&#45;&gt;node16 -->
<g id="edge10" class="edge">
<title>node15&#45;&gt;node16</title>
<path fill="none" stroke="#da2d4f" stroke-width="2" d="M357.82,-754.8C346.95,-742.47 332.13,-725.68 319.96,-711.89"/>
<polygon fill="#da2d4f" stroke="#da2d4f" stroke-width="2" points="322.4,-709.36 313.15,-704.18 317.15,-713.99 322.4,-709.36"/>
</g>
<!-- node23 -->
<g id="node14" class="node">
<title>node23</title>
<polygon fill="#da2d4f" stroke="black" points="409.5,-356 260.5,-356 260.5,-320 409.5,-320 409.5,-356"/>
<text text-anchor="middle" x="335" y="-334.3" font-family="Arial" font-size="14.00" fill="#ffffff">23 StoreField Vector.x</text>
</g>
<!-- node15&#45;&gt;node23 -->
<g id="edge23" class="edge">
<title>node15&#45;&gt;node23</title>
<path fill="none" stroke="#3cb4a4" d="M381.51,-754.89C389.1,-738.05 399,-711.38 399,-687 399,-687 399,-687 399,-424 399,-400.03 382.56,-378.52 366.34,-363.14"/>
<polygon fill="#3cb4a4" stroke="#3cb4a4" points="368.25,-360.15 358.47,-356.09 363.58,-365.37 368.25,-360.15"/>
<text text-anchor="middle" x="417.5" y="-551.8" font-family="arial" font-size="14.00" fill="#3cb4a4">object</text>
</g>
<!-- node25 -->
<g id="node15" class="node">
<title>node25</title>
<polygon fill="#da2d4f" stroke="black" points="343.5,-269 194.5,-269 194.5,-233 343.5,-233 343.5,-269"/>
<text text-anchor="middle" x="269" y="-247.3" font-family="Arial" font-size="14.00" fill="#ffffff">25 StoreField Vector.y</text>
</g>
<!-- node15&#45;&gt;node25 -->
<g id="edge26" class="edge">
<title>node15&#45;&gt;node25</title>
<path fill="none" stroke="#3cb4a4" d="M320.86,-765.85C271.7,-758 197.75,-740.75 144,-704 43.04,-634.96 0,-591.8 0,-469.5 0,-469.5 0,-469.5 0,-337 0,-297.72 105.59,-274.3 184.46,-262.28"/>
<polygon fill="#3cb4a4" stroke="#3cb4a4" points="185.05,-265.73 194.43,-260.8 184.02,-258.8 185.05,-265.73"/>
<text text-anchor="middle" x="23.5" y="-508.3" font-family="arial" font-size="14.00" fill="#3cb4a4">object</text>
</g>
<!-- node27 -->
<g id="node16" class="node">
<title>node27</title>
<polygon fill="#f9f9f9" stroke="black" points="471,-196 337,-196 337,-160 471,-160 471,-196"/>
<text text-anchor="middle" x="404" y="-174.3" font-family="Arial" font-size="14.00" fill="#1a1919">27 FinalFieldBarrier</text>
</g>
<!-- node15&#45;&gt;node27 -->
<g id="edge29" class="edge">
<title>node15&#45;&gt;node27</title>
<path fill="none" stroke="#3cb4a4" d="M403.38,-754.91C425.28,-740.1 451,-716.44 451,-687 451,-687 451,-687 451,-250 451,-232.78 441.27,-216.53 430.66,-203.94"/>
<polygon fill="#3cb4a4" stroke="#3cb4a4" points="432.97,-201.27 423.66,-196.21 427.78,-205.97 432.97,-201.27"/>
<text text-anchor="middle" x="467.5" y="-464.8" font-family="arial" font-size="14.00" fill="#3cb4a4">value</text>
</g>
<!-- node17 -->
<g id="node9" class="node">
<title>node17</title>
<polygon fill="#da2d4f" stroke="black" points="292,-617 146,-617 146,-581 292,-581 292,-617"/>
<text text-anchor="middle" x="219" y="-595.3" font-family="Arial" font-size="14.00" fill="#ffffff">17 LoadField Vector.x</text>
</g>
<!-- node16&#45;&gt;node17 -->
<g id="edge12" class="edge">
<title>node16&#45;&gt;node17</title>
<path fill="none" stroke="#da2d4f" stroke-width="2" d="M282.01,-667.8C270.45,-655.36 254.66,-638.36 241.77,-624.5"/>
<polygon fill="#da2d4f" stroke="#da2d4f" stroke-width="2" points="244.33,-622.12 234.96,-617.18 239.21,-626.88 244.33,-622.12"/>
</g>
<!-- node18 -->
<g id="node10" class="node">
<title>node18</title>
<polygon fill="#3cb4a4" stroke="black" points="331,-530 290.61,-512 331,-494 371.39,-512 331,-530"/>
<text text-anchor="middle" x="331" y="-508.3" font-family="Arial" font-size="14.00" fill="#1a1919">18 +</text>
</g>
<!-- node16&#45;&gt;node18 -->
<g id="edge15" class="edge">
<title>node16&#45;&gt;node18</title>
<path fill="none" stroke="#3cb4a4" d="M301.28,-667.88C307.08,-637.69 319.14,-574.83 325.98,-539.17"/>
<polygon fill="#3cb4a4" stroke="#3cb4a4" points="329.47,-539.53 327.92,-529.05 322.6,-538.21 329.47,-539.53"/>
<text text-anchor="middle" x="320.5" y="-595.3" font-family="arial" font-size="14.00" fill="#3cb4a4">x</text>
</g>
<!-- node17&#45;&gt;node18 -->
<g id="edge16" class="edge">
<title>node17&#45;&gt;node18</title>
<path fill="none" stroke="#3cb4a4" d="M241.66,-580.8C261.26,-565.92 289.43,-544.55 308.87,-529.8"/>
<polygon fill="#3cb4a4" stroke="#3cb4a4" points="311.02,-532.56 316.87,-523.72 306.79,-526.98 311.02,-532.56"/>
<text text-anchor="middle" x="284.5" y="-551.8" font-family="arial" font-size="14.00" fill="#3cb4a4">y</text>
</g>
<!-- node17&#45;&gt;node19 -->
<g id="edge14" class="edge">
<title>node17&#45;&gt;node19</title>
<path fill="none" stroke="#da2d4f" stroke-width="2" d="M200.58,-580.8C187.14,-568.24 168.74,-551.05 153.82,-537.12"/>
<polygon fill="#da2d4f" stroke="#da2d4f" stroke-width="2" points="156.08,-534.44 146.39,-530.18 151.31,-539.56 156.08,-534.44"/>
</g>
<!-- node18&#45;&gt;node23 -->
<g id="edge24" class="edge">
<title>node18&#45;&gt;node23</title>
<path fill="none" stroke="#3cb4a4" d="M331.4,-493.88C332.09,-464 333.53,-402.11 334.37,-366.27"/>
<polygon fill="#3cb4a4" stroke="#3cb4a4" points="337.87,-366.13 334.6,-356.05 330.87,-365.97 337.87,-366.13"/>
<text text-anchor="middle" x="349.5" y="-421.3" font-family="arial" font-size="14.00" fill="#3cb4a4">value</text>
</g>
<!-- node20 -->
<g id="node12" class="node">
<title>node20</title>
<polygon fill="#da2d4f" stroke="black" points="299,-443 153,-443 153,-407 299,-407 299,-443"/>
<text text-anchor="middle" x="226" y="-421.3" font-family="Arial" font-size="14.00" fill="#ffffff">20 LoadField Vector.y</text>
</g>
<!-- node19&#45;&gt;node20 -->
<g id="edge18" class="edge">
<title>node19&#45;&gt;node20</title>
<path fill="none" stroke="#da2d4f" stroke-width="2" d="M147.83,-493.8C162.44,-481.13 182.5,-463.73 198.63,-449.74"/>
<polygon fill="#da2d4f" stroke="#da2d4f" stroke-width="2" points="200.94,-452.37 206.2,-443.18 196.35,-447.08 200.94,-452.37"/>
</g>
<!-- node21 -->
<g id="node13" class="node">
<title>node21</title>
<polygon fill="#3cb4a4" stroke="black" points="202,-356 161.61,-338 202,-320 242.39,-338 202,-356"/>
<text text-anchor="middle" x="202" y="-334.3" font-family="Arial" font-size="14.00" fill="#1a1919">21 +</text>
</g>
<!-- node19&#45;&gt;node21 -->
<g id="edge21" class="edge">
<title>node19&#45;&gt;node21</title>
<path fill="none" stroke="#3cb4a4" d="M126.12,-493.93C124.51,-472.59 124.16,-435.4 137,-407 146.22,-386.6 164.21,-368.55 178.93,-356.18"/>
<polygon fill="#3cb4a4" stroke="#3cb4a4" points="181.53,-358.58 187.12,-349.58 177.14,-353.12 181.53,-358.58"/>
<text text-anchor="middle" x="140.5" y="-421.3" font-family="arial" font-size="14.00" fill="#3cb4a4">x</text>
</g>
<!-- node20&#45;&gt;node21 -->
<g id="edge22" class="edge">
<title>node20&#45;&gt;node21</title>
<path fill="none" stroke="#3cb4a4" d="M221.14,-406.8C217.67,-394.51 212.95,-377.77 209.06,-364.01"/>
<polygon fill="#3cb4a4" stroke="#3cb4a4" points="212.37,-362.85 206.29,-354.18 205.64,-364.76 212.37,-362.85"/>
<text text-anchor="middle" x="218.5" y="-377.8" font-family="arial" font-size="14.00" fill="#3cb4a4">y</text>
</g>
<!-- node20&#45;&gt;node23 -->
<g id="edge20" class="edge">
<title>node20&#45;&gt;node23</title>
<path fill="none" stroke="#da2d4f" stroke-width="2" d="M248.06,-406.8C264.46,-394.01 287.02,-376.42 305.05,-362.36"/>
<polygon fill="#da2d4f" stroke="#da2d4f" stroke-width="2" points="307.24,-365.08 312.98,-356.18 302.94,-359.56 307.24,-365.08"/>
</g>
<!-- node21&#45;&gt;node25 -->
<g id="edge27" class="edge">
<title>node21&#45;&gt;node25</title>
<path fill="none" stroke="#3cb4a4" d="M212.18,-324.09C221.94,-311.71 236.94,-292.67 249.08,-277.27"/>
<polygon fill="#3cb4a4" stroke="#3cb4a4" points="252.04,-279.17 255.48,-269.15 246.54,-274.84 252.04,-279.17"/>
<text text-anchor="middle" x="255.5" y="-290.8" font-family="arial" font-size="14.00" fill="#3cb4a4">value</text>
</g>
<!-- node23&#45;&gt;node25 -->
<g id="edge25" class="edge">
<title>node23&#45;&gt;node25</title>
<path fill="none" stroke="#da2d4f" stroke-width="2" d="M321.64,-319.8C312.16,-307.59 299.28,-290.99 288.63,-277.28"/>
<polygon fill="#da2d4f" stroke="#da2d4f" stroke-width="2" points="291.23,-274.93 282.34,-269.18 285.7,-279.22 291.23,-274.93"/>
</g>
<!-- node25&#45;&gt;node27 -->
<g id="edge28" class="edge">
<title>node25&#45;&gt;node27</title>
<path fill="none" stroke="#da2d4f" stroke-width="2" d="M301.34,-232.99C319.65,-223.36 342.76,-211.21 362.42,-200.87"/>
<polygon fill="#da2d4f" stroke="#da2d4f" stroke-width="2" points="364.24,-203.87 371.46,-196.11 360.98,-197.67 364.24,-203.87"/>
</g>
<!-- node27&#45;&gt;node10 -->
<g id="edge30" class="edge">
<title>node27&#45;&gt;node10</title>
<path fill="none" stroke="#da2d4f" stroke-width="2" d="M415.38,-159.81C420.98,-151.35 427.84,-140.98 434.05,-131.61"/>
<polygon fill="#da2d4f" stroke="#da2d4f" stroke-width="2" points="437.13,-133.3 439.73,-123.03 431.29,-129.44 437.13,-133.3"/>
</g>
<!-- inline1x12 -->
<g id="node17" class="node">
<title>inline1x12</title>
<ellipse fill="#d7ede7" stroke="black" cx="291" cy="-1028" rx="27" ry="18"/>
<text text-anchor="middle" x="291" y="-1026.1" font-family="Arial" font-size="8.00" fill="#1a1919">1 P(0)</text>
</g>
<!-- inline1x12&#45;&gt;node12 -->
<g id="edge5" class="edge">
<title>inline1x12&#45;&gt;node12</title>
<path fill="none" stroke="#3cb4a4" d="M291,-1009.86C291,-996.61 291,-978.35 291,-965.11"/>
<text text-anchor="middle" x="300.5" y="-985.6" font-family="arial" font-size="8.00" fill="#3cb4a4">value</text>
</g>
<!-- inline1x14 -->
<g id="node18" class="node">
<title>inline1x14</title>
<ellipse fill="#d7ede7" stroke="black" cx="36" cy="-860" rx="27" ry="18"/>
<text text-anchor="middle" x="36" y="-858.1" font-family="Arial" font-size="8.00" fill="#1a1919">1 P(0)</text>
</g>
<!-- inline1x14&#45;&gt;node14 -->
<g id="edge9" class="edge">
<title>inline1x14&#45;&gt;node14</title>
<path fill="none" stroke="#3cb4a4" d="M36,-841.8C36,-827.05 36,-805.92 36,-791.18"/>
<text text-anchor="middle" x="47" y="-814.6" font-family="arial" font-size="8.00" fill="#3cb4a4">object</text>
</g>
<!-- inline2x17 -->
<g id="node19" class="node">
<title>inline2x17</title>
<ellipse fill="#d7ede7" stroke="black" cx="180" cy="-686" rx="27" ry="18"/>
<text text-anchor="middle" x="180" y="-684.1" font-family="Arial" font-size="8.00" fill="#1a1919">2 P(1)</text>
</g>
<!-- inline2x17&#45;&gt;node17 -->
<g id="edge13" class="edge">
<title>inline2x17&#45;&gt;node17</title>
<path fill="none" stroke="#3cb4a4" d="M187.52,-668.61C194.29,-653.85 204.21,-632.22 211.1,-617.21"/>
<text text-anchor="middle" x="213" y="-640.6" font-family="arial" font-size="8.00" fill="#3cb4a4">object</text>
</g>
<!-- inline2x20 -->
<g id="node20" class="node">
<title>inline2x20</title>
<ellipse fill="#d7ede7" stroke="black" cx="246" cy="-512" rx="27" ry="18"/>
<text text-anchor="middle" x="246" y="-510.1" font-family="Arial" font-size="8.00" fill="#1a1919">2 P(1)</text>
</g>
<!-- inline2x20&#45;&gt;node20 -->
<g id="edge19" class="edge">
<title>inline2x20&#45;&gt;node20</title>
<path fill="none" stroke="#3cb4a4" d="M241.95,-493.8C238.48,-479.05 233.51,-457.92 230.04,-443.18"/>
<text text-anchor="middle" x="248" y="-466.6" font-family="arial" font-size="8.00" fill="#3cb4a4">object</text>
</g>
</g>
</svg>
