<?xml version="1.0" encoding="UTF-8" standalone="no"?>
<!DOCTYPE svg PUBLIC "-//W3C//DTD SVG 1.1//EN"
 "http://www.w3.org/Graphics/SVG/1.1/DTD/svg11.dtd">
<!-- Generated by graphviz version 2.44.1 (20200629.0846)
 -->
<!-- Title: G Pages: 1 -->
<svg width="495pt" height="641pt"
 viewBox="0.00 0.00 495.00 641.00" xmlns="http://www.w3.org/2000/svg" xmlns:xlink="http://www.w3.org/1999/xlink">
<g id="graph0" class="graph" transform="scale(1 1) rotate(0) translate(4 637)">
<title>G</title>
<!-- node0 -->
<g id="node1" class="node">
<title>node0</title>
<polygon fill="#e98693" stroke="black" points="138.5,-552 82.5,-552 82.5,-516 138.5,-516 138.5,-552"/>
<text text-anchor="middle" x="110.5" y="-530.3" font-family="Arial" font-size="14.00" fill="#1a1919">0 Start</text>
</g>
<!-- node13 -->
<g id="node4" class="node">
<title>node13</title>
<polygon fill="#ffa500" stroke="black" points="253,-465 0,-465 0,-429 253,-429 253,-465"/>
<text text-anchor="middle" x="126.5" y="-443.3" font-family="Arial" font-size="14.00" fill="#1a1919">13 Guard not, else NullCheckException</text>
</g>
<!-- node0&#45;&gt;node13 -->
<g id="edge1" class="edge">
<title>node0&#45;&gt;node13</title>
<path fill="none" stroke="#da2d4f" stroke-width="2" d="M113.74,-515.8C115.93,-504.16 118.87,-488.55 121.37,-475.24"/>
<polygon fill="#da2d4f" stroke="#da2d4f" stroke-width="2" points="124.86,-475.65 123.27,-465.18 117.98,-474.36 124.86,-475.65"/>
</g>
<!-- node11 -->
<g id="node2" class="node">
<title>node11</title>
<polygon fill="#e98693" stroke="black" points="305,-36 230,-36 230,0 305,0 305,-36"/>
<text text-anchor="middle" x="267.5" y="-14.3" font-family="Arial" font-size="14.00" fill="#1a1919">11 Return</text>
</g>
<!-- node12 -->
<g id="node3" class="node">
<title>node12</title>
<polygon fill="#3cb4a4" stroke="black" points="219.5,-552 156.16,-534 219.5,-516 282.84,-534 219.5,-552"/>
<text text-anchor="middle" x="219.5" y="-530.3" font-family="Arial" font-size="14.00" fill="#1a1919">12 IsNull</text>
</g>
<!-- node12&#45;&gt;node13 -->
<g id="edge4" class="edge">
<title>node12&#45;&gt;node13</title>
<path fill="none" stroke="#3cb4a4" d="M204.97,-519.72C191.06,-507 169.75,-487.53 152.85,-472.08"/>
<polygon fill="#3cb4a4" stroke="#3cb4a4" points="155.17,-469.47 145.43,-465.3 150.45,-474.63 155.17,-469.47"/>
<text text-anchor="middle" x="182.5" y="-486.8" font-family="arial" font-size="14.00" fill="#3cb4a4">?</text>
</g>
<!-- node14 -->
<g id="node5" class="node">
<title>node14</title>
<polygon fill="#f9f9f9" stroke="black" points="208.5,-378 154.5,-378 154.5,-342 208.5,-342 208.5,-378"/>
<text text-anchor="middle" x="181.5" y="-356.3" font-family="Arial" font-size="14.00" fill="#1a1919">14 π</text>
</g>
<!-- node13&#45;&gt;node14 -->
<g id="edge6" class="edge">
<title>node13&#45;&gt;node14</title>
<path fill="none" stroke="#3cb4a4" d="M137.63,-428.8C145.46,-416.7 156.07,-400.3 164.89,-386.67"/>
<polygon fill="#3cb4a4" stroke="#3cb4a4" points="167.89,-388.47 170.39,-378.18 162.02,-384.67 167.89,-388.47"/>
<text text-anchor="middle" x="174" y="-399.8" font-family="arial" font-size="14.00" fill="#3cb4a4">guard</text>
</g>
<!-- node16 -->
<g id="node6" class="node">
<title>node16</title>
<polygon fill="#da2d4f" stroke="black" points="215.5,-291 69.5,-291 69.5,-255 215.5,-255 215.5,-291"/>
<text text-anchor="middle" x="142.5" y="-269.3" font-family="Arial" font-size="14.00" fill="#ffffff">16 LoadField Vector.x</text>
</g>
<!-- node13&#45;&gt;node16 -->
<g id="edge5" class="edge">
<title>node13&#45;&gt;node16</title>
<path fill="none" stroke="#da2d4f" stroke-width="2" d="M128.09,-428.88C130.87,-399 136.63,-337.11 139.96,-301.27"/>
<polygon fill="#da2d4f" stroke="#da2d4f" stroke-width="2" points="143.47,-301.33 140.91,-291.05 136.5,-300.68 143.47,-301.33"/>
</g>
<!-- node14&#45;&gt;node16 -->
<g id="edge8" class="edge">
<title>node14&#45;&gt;node16</title>
<path fill="none" stroke="#3cb4a4" d="M173.61,-341.8C168.16,-329.93 160.82,-313.93 154.64,-300.45"/>
<polygon fill="#3cb4a4" stroke="#3cb4a4" points="157.73,-298.8 150.38,-291.18 151.37,-301.72 157.73,-298.8"/>
<text text-anchor="middle" x="182" y="-312.8" font-family="arial" font-size="14.00" fill="#3cb4a4">object</text>
</g>
<!-- node17 -->
<g id="node7" class="node">
<title>node17</title>
<polygon fill="#da2d4f" stroke="black" points="313.5,-210 167.5,-210 167.5,-174 313.5,-174 313.5,-210"/>
<text text-anchor="middle" x="240.5" y="-188.3" font-family="Arial" font-size="14.00" fill="#ffffff">17 LoadField Vector.x</text>
</g>
<!-- node16&#45;&gt;node17 -->
<g id="edge9" class="edge">
<title>node16&#45;&gt;node17</title>
<path fill="none" stroke="#da2d4f" stroke-width="2" d="M163.76,-254.86C177.63,-243.68 195.92,-228.93 211.17,-216.64"/>
<polygon fill="#da2d4f" stroke="#da2d4f" stroke-width="2" points="213.69,-219.11 219.28,-210.11 209.29,-213.66 213.69,-219.11"/>
</g>
<!-- node18 -->
<g id="node8" class="node">
<title>node18</title>
<polygon fill="#3cb4a4" stroke="black" points="175.5,-123 135.11,-105 175.5,-87 215.89,-105 175.5,-123"/>
<text text-anchor="middle" x="175.5" y="-101.3" font-family="Arial" font-size="14.00" fill="#1a1919">18 +</text>
</g>
<!-- node16&#45;&gt;node18 -->
<g id="edge12" class="edge">
<title>node16&#45;&gt;node18</title>
<path fill="none" stroke="#3cb4a4" d="M142.8,-254.81C143.43,-235.08 145.4,-201.87 151.5,-174 154.79,-158.95 160.47,-142.65 165.47,-129.78"/>
<polygon fill="#3cb4a4" stroke="#3cb4a4" points="168.81,-130.87 169.29,-120.29 162.31,-128.26 168.81,-130.87"/>
<text text-anchor="middle" x="155" y="-188.3" font-family="arial" font-size="14.00" fill="#3cb4a4">x</text>
</g>
<!-- node17&#45;&gt;node18 -->
<g id="edge13" class="edge">
<title>node17&#45;&gt;node18</title>
<path fill="none" stroke="#3cb4a4" d="M227.35,-173.8C217.02,-160.3 202.61,-141.45 191.6,-127.05"/>
<polygon fill="#3cb4a4" stroke="#3cb4a4" points="194.1,-124.57 185.25,-118.75 188.54,-128.82 194.1,-124.57"/>
<text text-anchor="middle" x="215" y="-144.8" font-family="arial" font-size="14.00" fill="#3cb4a4">y</text>
</g>
<!-- node34 -->
<g id="node10" class="node">
<title>node34</title>
<polygon fill="#ffa500" stroke="black" points="487,-123 234,-123 234,-87 487,-87 487,-123"/>
<text text-anchor="middle" x="360.5" y="-101.3" font-family="Arial" font-size="14.00" fill="#1a1919">34 Guard not, else NullCheckException</text>
</g>
<!-- node17&#45;&gt;node34 -->
<g id="edge11" class="edge">
<title>node17&#45;&gt;node34</title>
<path fill="none" stroke="#da2d4f" stroke-width="2" d="M264.78,-173.8C283,-160.9 308.12,-143.1 328.06,-128.98"/>
<polygon fill="#da2d4f" stroke="#da2d4f" stroke-width="2" points="330.12,-131.81 336.25,-123.18 326.07,-126.1 330.12,-131.81"/>
</g>
<!-- node18&#45;&gt;node11 -->
<g id="edge2" class="edge">
<title>node18&#45;&gt;node11</title>
<path fill="none" stroke="#3cb4a4" d="M188.29,-92.18C201.91,-79.6 223.83,-59.34 241.17,-43.33"/>
<polygon fill="#3cb4a4" stroke="#3cb4a4" points="243.79,-45.67 248.76,-36.31 239.04,-40.53 243.79,-45.67"/>
<text text-anchor="middle" x="243.5" y="-57.8" font-family="arial" font-size="14.00" fill="#3cb4a4">result</text>
</g>
<!-- node33 -->
<g id="node9" class="node">
<title>node33</title>
<polygon fill="#3cb4a4" stroke="black" points="394.5,-210 331.16,-192 394.5,-174 457.84,-192 394.5,-210"/>
<text text-anchor="middle" x="394.5" y="-188.3" font-family="Arial" font-size="14.00" fill="#1a1919">33 IsNull</text>
</g>
<!-- node33&#45;&gt;node34 -->
<g id="edge15" class="edge">
<title>node33&#45;&gt;node34</title>
<path fill="none" stroke="#3cb4a4" d="M388.26,-175.41C383.51,-163.53 376.86,-146.89 371.25,-132.88"/>
<polygon fill="#3cb4a4" stroke="#3cb4a4" points="374.36,-131.23 367.4,-123.25 367.86,-133.83 374.36,-131.23"/>
<text text-anchor="middle" x="383.5" y="-144.8" font-family="arial" font-size="14.00" fill="#3cb4a4">?</text>
</g>
<!-- node34&#45;&gt;node11 -->
<g id="edge16" class="edge">
<title>node34&#45;&gt;node11</title>
<path fill="none" stroke="#da2d4f" stroke-width="2" d="M341.68,-86.8C327.94,-74.24 309.13,-57.05 293.89,-43.12"/>
<polygon fill="#da2d4f" stroke="#da2d4f" stroke-width="2" points="296.03,-40.34 286.29,-36.18 291.31,-45.51 296.03,-40.34"/>
</g>
<!-- inline1x12 -->
<g id="node11" class="node">
<title>inline1x12</title>
<ellipse fill="#d7ede7" stroke="black" cx="219.5" cy="-615" rx="27" ry="18"/>
<text text-anchor="middle" x="219.5" y="-613.1" font-family="Arial" font-size="8.00" fill="#1a1919">1 P(0)</text>
</g>
<!-- inline1x12&#45;&gt;node12 -->
<g id="edge3" class="edge">
<title>inline1x12&#45;&gt;node12</title>
<path fill="none" stroke="#3cb4a4" d="M219.5,-596.86C219.5,-583.61 219.5,-565.35 219.5,-552.11"/>
<text text-anchor="middle" x="229" y="-572.6" font-family="arial" font-size="8.00" fill="#3cb4a4">value</text>
</g>
<!-- inline1x14 -->
<g id="node12" class="node">
<title>inline1x14</title>
<ellipse fill="#d7ede7" stroke="black" cx="298.5" cy="-447" rx="27" ry="18"/>
<text text-anchor="middle" x="298.5" y="-445.1" font-family="Arial" font-size="8.00" fill="#1a1919">1 P(0)</text>
</g>
<!-- inline1x14&#45;&gt;node14 -->
<g id="edge7" class="edge">
<title>inline1x14&#45;&gt;node14</title>
<path fill="none" stroke="#3cb4a4" d="M280.98,-433.27C260.84,-418.64 227.67,-394.54 205.22,-378.23"/>
<text text-anchor="middle" x="257.5" y="-401.6" font-family="arial" font-size="8.00" fill="#3cb4a4">object</text>
</g>
<!-- inline2x17 -->
<g id="node13" class="node">
<title>inline2x17</title>
<ellipse fill="#d7ede7" stroke="black" cx="260.5" cy="-273" rx="27" ry="18"/>
<text text-anchor="middle" x="260.5" y="-271.1" font-family="Arial" font-size="8.00" fill="#1a1919">2 P(1)</text>
</g>
<!-- inline2x17&#45;&gt;node17 -->
<g id="edge10" class="edge">
<title>inline2x17&#45;&gt;node17</title>
<path fill="none" stroke="#3cb4a4" d="M256.16,-254.86C252.81,-241.61 248.18,-223.35 244.83,-210.11"/>
<text text-anchor="middle" x="261.5" y="-230.6" font-family="arial" font-size="8.00" fill="#3cb4a4">object</text>
</g>
<!-- inline2x33 -->
<g id="node14" class="node">
<title>inline2x33</title>
<ellipse fill="#d7ede7" stroke="black" cx="394.5" cy="-273" rx="27" ry="18"/>
<text text-anchor="middle" x="394.5" y="-271.1" font-family="Arial" font-size="8.00" fill="#1a1919">2 P(1)</text>
</g>
<!-- inline2x33&#45;&gt;node33 -->
<g id="edge14" class="edge">
<title>inline2x33&#45;&gt;node33</title>
<path fill="none" stroke="#3cb4a4" d="M394.5,-254.86C394.5,-241.61 394.5,-223.35 394.5,-210.11"/>
<text text-anchor="middle" x="404" y="-230.6" font-family="arial" font-size="8.00" fill="#3cb4a4">value</text>
</g>
</g>
</svg>
